<svg width="24" height="24" viewBox="0 0 24 24" fill="none" xmlns="http://www.w3.org/2000/svg">
<path d="M16.25 12H16.75C17.0261 12 17.25 12.2239 17.25 12.5V13.25C17.25 14.2165 16.4665 15 15.5 15C14.5335 15 13.75 14.2165 13.75 13.25V11C13.75 9.89543 14.6454 9 15.75 9H16.75M10.25 15H6.75C8.11683 13.4379 10.25 12 10.25 10.5C10.25 10 9.75 9 8.5 9C7.25 9 6.75 10 6.75 10.5M22 12C22 17.5228 17.5228 22 12 22C6.47715 22 2 17.5228 2 12C2 6.47715 6.47715 2 12 2C17.5228 2 22 6.47715 22 12Z" stroke="black" stroke-width="2" stroke-linecap="round" stroke-linejoin="round"/>
</svg>
