<svg width="24" height="24" viewBox="0 0 24 24" fill="none" xmlns="http://www.w3.org/2000/svg">
<path d="M6.75 10.5C6.75 10 7.25 9 8.5 9C9.75 9 10.25 10 10.25 10.5C10.25 12 8.11683 13.4379 6.75 15H10.25M16.25 12H16.75C17.0261 12 17.25 12.2239 17.25 12.5V13.25C17.25 14.2165 16.4665 15 15.5 15V15C14.5335 15 13.75 14.2165 13.75 13.25V11C13.75 9.89543 14.6454 9 15.75 9H16.75M18 3H6C4.34315 3 3 4.34315 3 6V18C3 19.6569 4.34315 21 6 21H18C19.6569 21 21 19.6569 21 18V6C21 4.34315 19.6569 3 18 3Z" stroke="black" stroke-width="2" stroke-linecap="round" stroke-linejoin="round"/>
</svg>
