<svg width="24" height="24" viewBox="0 0 24 24" fill="none" xmlns="http://www.w3.org/2000/svg">
<path d="M16.5 12H17C17.2761 12 17.5 12.2239 17.5 12.5V13C17.5 14.1046 16.6046 15 15.5 15C14.3954 15 13.5 14.1046 13.5 13V11C13.5 9.89543 14.3954 9 15.5 9H17M9 12H8M9 12C9.82843 12 10.5 11.3284 10.5 10.5C10.5 9.67157 9.82843 9 9 9H7.5C6.94772 9 6.5 9.44772 6.5 10M9 12C9.82843 12 10.5 12.6716 10.5 13.5C10.5 14.3284 9.82843 15 9 15H7.5C6.94772 15 6.5 14.5523 6.5 14M22 12C22 17.5228 17.5228 22 12 22C6.47715 22 2 17.5228 2 12C2 6.47715 6.47715 2 12 2C17.5228 2 22 6.47715 22 12Z" stroke="black" stroke-width="2" stroke-linecap="round" stroke-linejoin="round"/>
</svg>
