<svg width="24" height="24" viewBox="0 0 24 24" fill="none" xmlns="http://www.w3.org/2000/svg">
<path d="M10 12H8C7.17157 12 6.5 11.3284 6.5 10.5V9M10 12V9M10 12V15M16 12H16.5C16.7761 12 17 12.2239 17 12.5V13.25C17 14.2165 16.2165 15 15.25 15V15C14.2835 15 13.5 14.2165 13.5 13.25V11C13.5 9.89543 14.3954 9 15.5 9H16.5M22 12C22 17.5228 17.5228 22 12 22C6.47715 22 2 17.5228 2 12C2 6.47715 6.47715 2 12 2C17.5228 2 22 6.47715 22 12Z" stroke="black" stroke-width="2" stroke-linecap="round" stroke-linejoin="round"/>
</svg>
