<svg width="24" height="24" viewBox="0 0 24 24" fill="none" xmlns="http://www.w3.org/2000/svg">
<path d="M10 12H8C7.17157 12 6.5 11.3284 6.5 10.5V9M10 12V9M10 12V15M16 12H16.5C16.7761 12 17 12.2239 17 12.5V13.25C17 14.2165 16.2165 15 15.25 15V15C14.2835 15 13.5 14.2165 13.5 13.25V11C13.5 9.89543 14.3954 9 15.5 9H16.5M21 18V6C21 4.34315 19.6569 3 18 3H6C4.34315 3 3 4.34315 3 6V18C3 19.6569 4.34315 21 6 21H18C19.6569 21 21 19.6569 21 18Z" stroke="black" stroke-width="2" stroke-linecap="round" stroke-linejoin="round"/>
</svg>
