<svg width="24" height="24" viewBox="0 0 24 24" fill="none" xmlns="http://www.w3.org/2000/svg">
<path d="M16.5 12H17C17.2761 12 17.5 12.2239 17.5 12.5V13C17.5 14.1046 16.6046 15 15.5 15V15C14.3954 15 13.5 14.1046 13.5 13V11C13.5 9.89543 14.3954 9 15.5 9H17M10.5 9H7C6.72386 9 6.5 9.22386 6.5 9.5V11C6.5 11.2761 6.72386 11.5 7 11.5H8.75C9.7165 11.5 10.5 12.2835 10.5 13.25V13.25C10.5 14.2165 9.7165 15 8.75 15H6.5M22 12C22 17.5228 17.5228 22 12 22C6.47715 22 2 17.5228 2 12C2 6.47715 6.47715 2 12 2C17.5228 2 22 6.47715 22 12Z" stroke="black" stroke-width="2" stroke-linecap="round" stroke-linejoin="round"/>
</svg>
