<svg width="24" height="24" viewBox="0 0 24 24" fill="none" xmlns="http://www.w3.org/2000/svg">
<path d="M16.5 12H17C17.2761 12 17.5 12.2239 17.5 12.5V13C17.5 14.1046 16.6046 15 15.5 15V15C14.3954 15 13.5 14.1046 13.5 13V11C13.5 9.89543 14.3954 9 15.5 9H17M10.5 9H7C6.72386 9 6.5 9.22386 6.5 9.5V11.0556C6.5 11.301 6.69898 11.5 6.94444 11.5H8.75C9.7165 11.5 10.5 12.2835 10.5 13.25V13.25C10.5 14.2165 9.7165 15 8.75 15H6.5M21 17V7C21 4.79086 19.2091 3 17 3H7C4.79086 3 3 4.79086 3 7V17C3 19.2091 4.79086 21 7 21H17C19.2091 21 21 19.2091 21 17Z" stroke="black" stroke-width="2" stroke-linecap="round" stroke-linejoin="round"/>
</svg>
