<svg width="24" height="24" viewBox="0 0 24 24" fill="none" xmlns="http://www.w3.org/2000/svg">
<path fill-rule="evenodd" clip-rule="evenodd" d="M10.2935 2.63177L11.1207 3.14879C10.857 4.04325 11.0185 5.03645 11.6051 5.81003L9.99852 4.80589V10.3836L11.0003 9.8827C10.9739 10.5614 11.1767 11.2474 11.6086 11.8146L11.0405 12.0987L16.7725 15.6811C17.7658 16.302 17.696 17.7709 16.6483 18.2948L10.1693 21.5343C9.17199 22.0329 7.99852 21.3077 7.99852 20.1926V13.6196L3.44546 15.8961C2.95148 16.1431 2.35081 15.9428 2.10383 15.4488C1.85685 14.9549 2.05708 14.3542 2.55107 14.1072L6.95642 11.9046L2.46828 9.09965C1.99994 8.80695 1.85756 8.19 2.15026 7.72166C2.44296 7.25332 3.05991 7.11093 3.52825 7.40363L7.99852 10.1974V3.90377C7.99852 2.72562 9.29444 2.00735 10.2935 2.63177ZM9.99852 13.8059V19.3836L14.9565 16.9046L9.99852 13.8059ZM14.7071 3.29289C14.3166 2.90237 13.6834 2.90237 13.2929 3.29289C12.9024 3.68342 12.9024 4.31658 13.2929 4.70711L15.5858 7L13.2929 9.29289C12.9024 9.68342 12.9024 10.3166 13.2929 10.7071C13.6834 11.0976 14.3166 11.0976 14.7071 10.7071L17 8.41421L19.2929 10.7071C19.6834 11.0976 20.3166 11.0976 20.7071 10.7071C21.0976 10.3166 21.0976 9.68342 20.7071 9.29289L18.4142 7L20.7071 4.70711C21.0976 4.31658 21.0976 3.68342 20.7071 3.29289C20.3166 2.90237 19.6834 2.90237 19.2929 3.29289L17 5.58579L14.7071 3.29289Z" fill="black"/>
</svg>
