<svg width="24" height="24" viewBox="0 0 24 24" fill="none" xmlns="http://www.w3.org/2000/svg">
<path fill-rule="evenodd" clip-rule="evenodd" d="M10.2955 2.63079L11.6879 3.50105C11.3955 3.64321 11.1215 3.83569 10.8787 4.07848C10.6135 4.34369 10.4083 4.64619 10.2632 4.9691L10.0005 4.80491V6.14646C9.99984 6.18202 9.99984 6.21759 10.0005 6.25315V10.3826L11.9863 9.3897L12.0039 9.40298C11.9826 10.0798 12.1897 10.7577 12.6116 11.3131L11.0425 12.0977L16.7745 15.6802C17.7678 16.301 17.698 17.7699 16.6503 18.2938L10.1713 21.5333C9.17394 22.032 8.00047 21.3067 8.00047 20.1916V13.6187L3.44742 15.8951C2.95344 16.1421 2.35277 15.9418 2.10578 15.4479C1.8588 14.9539 2.05904 14.3532 2.55302 14.1062L6.95838 11.9036L2.47024 9.09867C2.00189 8.80597 1.85951 8.18903 2.15221 7.72068C2.44491 7.25234 3.06186 7.10996 3.5302 7.40266L8.00047 10.1965V3.90279C8.00047 2.72464 9.29639 2.00637 10.2955 2.63079ZM10.0005 13.8049V19.3826L14.9584 16.9036L10.0005 13.8049ZM17 3.0498C15.3388 3.0498 13.9171 4.07529 13.3334 5.52776C13.0529 5.38855 12.7034 5.43579 12.4697 5.66947C12.1768 5.96237 12.1768 6.43724 12.4697 6.73013L13.2697 7.53014C13.513 7.77349 13.8908 7.81999 14.1859 7.64292L15.1859 7.04292C15.5411 6.82981 15.6562 6.36912 15.4431 6.01393C15.3297 5.82492 15.1462 5.70388 14.9458 5.6641C15.3829 4.99328 16.1396 4.5498 17 4.5498C17.5801 4.5498 18.1113 4.75049 18.5309 5.08684C18.8541 5.34592 19.3261 5.29395 19.5852 4.97076C19.8443 4.64757 19.7923 4.17555 19.4691 3.91647C18.793 3.37449 17.9334 3.0498 17 3.0498ZM20.7303 6.46947C20.487 6.22612 20.1092 6.17962 19.8141 6.35668L18.8141 6.95669C18.4589 7.1698 18.3438 7.63049 18.5569 7.98568C18.6703 8.17468 18.8538 8.29573 19.0542 8.33551C18.6171 9.00633 17.8604 9.4498 17 9.4498C16.4208 9.4498 15.8903 9.24974 15.4711 8.91434C15.1476 8.65559 14.6756 8.70804 14.4169 9.03149C14.1581 9.35495 14.2106 9.82691 14.534 10.0857C15.2097 10.6261 16.0681 10.9498 17 10.9498C18.6612 10.9498 20.0829 9.92431 20.6666 8.47185C20.9471 8.61106 21.2966 8.56382 21.5303 8.33013C21.8232 8.03724 21.8232 7.56237 21.5303 7.26947L20.7303 6.46947Z" fill="black"/>
</svg>
