<svg width="24" height="24" viewBox="0 0 24 24" fill="none" xmlns="http://www.w3.org/2000/svg">
<path fill-rule="evenodd" clip-rule="evenodd" d="M11.0425 12.0967L11.9417 11.6471C11.5277 11.1106 11.2693 10.4588 11.2129 9.77546L10.0005 10.3817V4.80394L12.5273 6.38322L13.5873 4.68722L10.2955 2.62982C9.29639 2.00539 8.00047 2.72366 8.00047 3.90181V10.1955L3.5302 7.40168C3.06186 7.10898 2.44491 7.25136 2.15221 7.71971C1.85951 8.18805 2.00189 8.805 2.47024 9.0977L6.95838 11.9027L2.55302 14.1053C2.05904 14.3522 1.8588 14.9529 2.10578 15.4469C2.35277 15.9409 2.95344 16.1411 3.44742 15.8941L8.00047 13.6177V20.1907C8.00047 21.3057 9.17394 22.031 10.1713 21.5323L16.6503 18.2928C17.698 17.769 17.7678 16.3 16.7745 15.6792L11.0425 12.0967ZM10.0005 13.8039V19.3817L14.9584 16.9027L10.0005 13.8039ZM20.5648 8.70489L18.2711 5.03508C17.6836 4.09508 16.3147 4.09508 15.7272 5.03508L13.4335 8.70489C12.8091 9.70396 13.5274 10.9999 14.7055 10.9999H19.2928C20.4709 10.9999 21.1892 9.70396 20.5648 8.70489ZM17 6.25C17.4142 6.25 17.75 6.59825 17.75 7.02778C17.75 7.28 17.5577 7.60387 17.3427 7.96608C17.2261 8.16234 17.1029 8.36985 17 8.58333C16.8971 8.36986 16.7739 8.16234 16.6573 7.96609L16.6573 7.96608C16.4423 7.60387 16.25 7.28 16.25 7.02778C16.25 6.59825 16.5858 6.25 17 6.25ZM17 9.75C17.2071 9.75 17.375 9.57587 17.375 9.36111C17.375 9.14635 17.2071 8.97222 17 8.97222C16.7929 8.97222 16.625 9.14635 16.625 9.36111C16.625 9.57587 16.7929 9.75 17 9.75Z" fill="black"/>
</svg>
