<svg width="24" height="24" viewBox="0 0 24 24" fill="none" xmlns="http://www.w3.org/2000/svg">
<path fill-rule="evenodd" clip-rule="evenodd" d="M10.2955 2.62982L12.5656 4.04863C12.1064 4.56101 11.7482 5.1319 11.4911 5.73557L10.0005 4.80394V10.3817L11.2178 9.77301C11.3919 10.4106 11.6706 11.0257 12.0538 11.5911L11.0425 12.0967L16.7745 15.6792C17.7678 16.3 17.698 17.769 16.6503 18.2928L10.1713 21.5323C9.17394 22.031 8.00047 21.3057 8.00047 20.1907V13.6177L3.44742 15.8941C2.95344 16.1411 2.35277 15.9409 2.10578 15.4469C1.8588 14.9529 2.05904 14.3522 2.55302 14.1053L6.95838 11.9027L2.47024 9.0977C2.00189 8.805 1.85951 8.18805 2.15221 7.71971C2.44491 7.25136 3.06186 7.10898 3.5302 7.40168L8.00047 10.1955V3.90181C8.00047 2.72366 9.29639 2.00539 10.2955 2.62982ZM10.0005 13.8039V19.3817L14.9584 16.9027L10.0005 13.8039ZM15.6289 6.62894C16.4675 5.79035 17.8271 5.79035 18.6657 6.62894C19.5043 7.46752 19.5043 8.82713 18.6657 9.66571C17.8271 10.5043 16.4675 10.5043 15.6289 9.66571C14.7904 8.82713 14.7904 7.46752 15.6289 6.62894ZM20.0799 5.21472C18.4603 3.59509 15.8344 3.59509 14.2147 5.21472C12.5951 6.83435 12.5951 9.46029 14.2147 11.0799C15.5906 12.4558 17.6926 12.6629 19.287 11.7012L19.614 12.0282C19.6281 12.3217 19.7472 12.611 19.9713 12.8351L20.7774 13.6413C21.2557 14.1196 22.0313 14.1196 22.5096 13.6413L22.6413 13.5096C23.1196 13.0313 23.1196 12.2557 22.6413 11.7774L21.8351 10.9713C21.611 10.7472 21.3217 10.6281 21.0282 10.614L20.7012 10.287C21.6629 8.69256 21.4558 6.59056 20.0799 5.21472Z" fill="black"/>
</svg>
