<svg width="24" height="24" viewBox="0 0 24 24" fill="none" xmlns="http://www.w3.org/2000/svg">
<path d="M8.00025 12V3.90212C8.00025 3.50941 8.43223 3.26999 8.76525 3.47813L14.4003 7M8.00025 12V20.191C8.00025 20.5627 8.39141 20.8044 8.72386 20.6382L15.2028 17.3987C15.5521 17.2241 15.5754 16.7344 15.2442 16.5275L8.00025 12ZM8.00025 12L2 15M8.00025 12L2 8.25M8.00025 12L14.4003 8.79989M17 5.19976C18.6279 7.0223 18.6279 9.97722 17 11.7998M19.9651 3C22.6783 6.03757 22.6783 10.9624 19.9651 14" stroke="black" stroke-width="2" stroke-linecap="round" stroke-linejoin="round"/>
</svg>
