<svg width="24" height="24" viewBox="0 0 24 24" fill="none" xmlns="http://www.w3.org/2000/svg">
<path fill-rule="evenodd" clip-rule="evenodd" d="M18 1C17.3262 1 16.7373 1.1715 16.2583 1.51745C15.7855 1.85886 15.4973 2.31417 15.3215 2.75361C15.1339 3.22264 15.0556 3.72766 15.0231 4.16266C13.8458 4.56792 13 5.68518 13 7V9.5C13 11.1569 14.3431 12.5 16 12.5H20C21.6569 12.5 23 11.1569 23 9.5V7C23 5.68518 22.1542 4.56793 20.9769 4.16267C20.9444 3.72766 20.8661 3.22264 20.6785 2.75361C20.5027 2.31417 20.2145 1.85886 19.7417 1.51745C19.2627 1.1715 18.6738 1 18 1ZM18 4H17.0509C17.0774 3.81898 17.1176 3.64858 17.1785 3.49639C17.2527 3.31083 17.3395 3.20364 17.4292 3.1388C17.5127 3.0785 17.6738 3 18 3C18.3262 3 18.4873 3.0785 18.5708 3.1388C18.6605 3.20364 18.7473 3.31083 18.8215 3.49639C18.8824 3.64858 18.9226 3.81898 18.9491 4H18ZM15 7C15 6.44772 15.4477 6 16 6H18H20C20.5523 6 21 6.44772 21 7V9.5C21 10.0523 20.5523 10.5 20 10.5H16C15.4477 10.5 15 10.0523 15 9.5V7ZM10.2955 2.62982L12.1613 3.79597C11.734 4.30741 11.4069 4.90555 11.2104 5.56016L10.0005 4.80394V10.3817L11.0138 9.87497C11.0659 10.5771 11.2629 11.2388 11.5751 11.8304L11.0425 12.0967L12.3424 12.9092C12.9347 13.5443 13.6904 14.025 14.5426 14.2843L16.7745 15.6792C17.7678 16.3 17.698 17.769 16.6503 18.2928L10.1713 21.5323C9.17394 22.031 8.00047 21.3057 8.00047 20.1907V13.6177L3.44742 15.8941C2.95344 16.1411 2.35277 15.9409 2.10578 15.4469C1.8588 14.9529 2.05904 14.3522 2.55302 14.1053L6.95838 11.9027L2.47024 9.0977C2.00189 8.805 1.85951 8.18805 2.15221 7.71971C2.44491 7.25136 3.06186 7.10898 3.5302 7.40168L8.00047 10.1955V3.90181C8.00047 2.72366 9.29639 2.00539 10.2955 2.62982ZM10.0005 13.8039V19.3817L14.9584 16.9027L10.0005 13.8039Z" fill="black"/>
</svg>
