<svg width="24" height="24" viewBox="0 0 24 24" fill="none" xmlns="http://www.w3.org/2000/svg">
<path fill-rule="evenodd" clip-rule="evenodd" d="M10.2955 2.62982L12.3267 3.89931C11.9367 4.43836 11.6212 5.0359 11.3958 5.67602L10.0005 4.80394V10.3817L11.2255 9.76915C11.3969 10.4273 11.6617 11.0478 12.0048 11.6156L11.0425 12.0967L16.7745 15.6792C17.7678 16.3 17.698 17.769 16.6503 18.2928L10.1713 21.5323C9.17394 22.031 8.00047 21.3057 8.00047 20.1907V13.6177L3.44742 15.8941C2.95344 16.1411 2.35277 15.9409 2.10578 15.4469C1.8588 14.9529 2.05904 14.3522 2.55302 14.1053L6.95838 11.9027L2.47024 9.0977C2.00189 8.805 1.85951 8.18805 2.15221 7.71971C2.44491 7.25136 3.06186 7.10898 3.5302 7.40168L8.00047 10.1955V3.90181C8.00047 2.72366 9.29639 2.00539 10.2955 2.62982ZM10.0005 13.8039V19.3817L14.9584 16.9027L10.0005 13.8039ZM20.7078 9.2936L16.7064 5.29218C17.098 5.10471 17.5365 5 18 5C19.6569 5 21 6.34315 21 8C21 8.46352 20.8953 8.90199 20.7078 9.2936ZM15.2922 6.7064L19.2936 10.7078C18.902 10.8953 18.4635 11 18 11C16.3431 11 15 9.65685 15 8C15 7.53648 15.1047 7.09801 15.2922 6.7064ZM18 3C16.6196 3 15.3682 3.56074 14.4645 4.46447C13.5607 5.36819 13 6.61957 13 8C13 10.7614 15.2386 13 18 13C19.3804 13 20.6318 12.4393 21.5355 11.5355C22.4393 10.6318 23 9.38044 23 8C23 5.23858 20.7614 3 18 3Z" fill="black"/>
</svg>
