<svg width="24" height="24" viewBox="0 0 24 24" fill="none" xmlns="http://www.w3.org/2000/svg">
<path d="M12 13.5V20.5M21.2387 11.1537C21.7413 9.94042 21.9999 8.64005 21.9999 7.32684C21.9999 6.01362 21.7413 4.71326 21.2387 3.5M2.7612 11.1537C2.25865 9.94046 2 8.6401 2 7.32688C2 6.01366 2.25866 4.7133 2.7612 3.50004M17.5432 9.62312C17.8448 8.89517 17.9999 8.11495 17.9999 7.32702C17.9999 6.53909 17.8448 5.75887 17.5432 5.03092M6.45672 9.62325C6.15519 8.89529 6 8.11508 6 7.32715C6 6.53921 6.15519 5.759 6.45672 5.03104M13.5 9.75577H11.5C10.9477 9.75577 10.5 9.30805 10.5 8.75577V7.25577M10.5 7.25577V5.75577C10.5 5.20348 10.9477 4.75577 11.5 4.75577H13.5M10.5 7.25577H13" stroke="black" stroke-width="2" stroke-linecap="round" stroke-linejoin="round"/>
</svg>
