<svg width="24" height="24" viewBox="0 0 24 24" fill="none" xmlns="http://www.w3.org/2000/svg">
<path fill-rule="evenodd" clip-rule="evenodd" d="M22.1626 4.61709C21.9512 4.10685 21.3663 3.86454 20.856 4.07589C20.3458 4.28724 20.1035 4.87221 20.3148 5.38246C20.7671 6.47439 20.9999 7.64471 20.9999 8.82661C20.9999 10.0085 20.7671 11.1788 20.3148 12.2708C20.1035 12.781 20.3458 13.366 20.856 13.5773C21.3663 13.7887 21.9512 13.5464 22.1626 13.0361C22.7154 11.7015 22.9999 10.2711 22.9999 8.82661C22.9999 7.38207 22.7154 5.95167 22.1626 4.61709ZM3.14389 4.07594C2.63364 3.86459 2.04868 4.10689 1.83733 4.61713C1.28452 5.95171 1 7.38211 1 8.82665C1 10.2712 1.28452 11.7016 1.83732 13.0362C2.04867 13.5464 2.63364 13.7887 3.14389 13.5774C3.65413 13.366 3.89643 12.781 3.68508 12.2708C3.23279 11.1789 3 10.0086 3 8.82665C3 7.64475 3.23279 6.47443 3.68508 5.3825C3.89643 4.87226 3.65413 4.28729 3.14389 4.07594ZM19.4672 6.14801C19.2558 5.63777 18.6708 5.39546 18.1606 5.60682C17.6503 5.81817 17.408 6.40313 17.6194 6.91338C17.8707 7.52001 18 8.17018 18 8.8268C18 9.48341 17.8707 10.1336 17.6194 10.7402C17.408 11.2505 17.6503 11.8354 18.1606 12.0468C18.6708 12.2581 19.2558 12.0158 19.4672 11.5056C19.8189 10.6563 20 9.74605 20 8.8268C20 7.90754 19.8189 6.99729 19.4672 6.14801ZM6.3806 6.9135C6.59195 6.40326 6.34965 5.81829 5.83941 5.60694C5.32916 5.39559 4.74419 5.63789 4.53284 6.14813C4.18106 6.99741 4 7.90767 4 8.82692C4 9.74617 4.18106 10.6564 4.53284 11.5057C4.74419 12.0159 5.32916 12.2582 5.83941 12.0469C6.34965 11.8355 6.59195 11.2506 6.3806 10.7403C6.12933 10.1337 6 9.48353 6 8.82692C6 8.17031 6.12933 7.52013 6.3806 6.9135ZM13 14.9998C13 14.4475 12.5523 13.9998 12 13.9998C11.4477 13.9998 11 14.4475 11 14.9998V21.9998C11 22.5521 11.4477 22.9998 12 22.9998C12.5523 22.9998 13 22.5521 13 21.9998V14.9998ZM8.75595 6.51C8.06969 6.51 7.50964 7.05922 7.49624 7.74535C7.48815 8.15949 7.81731 8.50177 8.23145 8.50986C8.5631 8.51633 8.84866 8.30653 8.95342 8.01H9.59156C9.75461 8.01 9.8809 8.1527 9.86107 8.31454L9.83186 8.55296C9.8054 8.76897 9.70119 8.96795 9.5387 9.11271L7.75697 10.7C7.52458 10.907 7.4442 11.2361 7.55497 11.5269C7.66573 11.8178 7.94463 12.01 8.25586 12.01H10.7459C11.1601 12.01 11.4959 11.6742 11.4959 11.26C11.4959 10.8458 11.1601 10.51 10.7459 10.51H10.2252L10.5365 10.2327C10.9712 9.84548 11.25 9.31319 11.3207 8.73535L11.3499 8.49693C11.4793 7.441 10.6554 6.51 9.59156 6.51H8.75595ZM13.7504 8.76C13.7504 8.34579 14.0862 8.01 14.5004 8.01H15C15.4142 8.01 15.75 7.67421 15.75 7.26C15.75 6.84579 15.4142 6.51 15 6.51H14.5004C13.2577 6.51 12.2504 7.51736 12.2504 8.76V10.01C12.2504 11.1146 13.1458 12.01 14.2504 12.01C15.355 12.01 16.2504 11.1146 16.2504 10.01V9.26C16.2504 8.84579 15.9146 8.51 15.5004 8.51H15.0006C14.5864 8.51 14.2506 8.84579 14.2506 9.26C14.2506 9.58647 14.4592 9.86422 14.7504 9.96724V10.01C14.7504 10.2861 14.5265 10.51 14.2504 10.51C13.9742 10.51 13.7504 10.2861 13.7504 10.01V8.76Z" fill="black"/>
</svg>
