<svg width="24" height="24" viewBox="0 0 24 24" fill="none" xmlns="http://www.w3.org/2000/svg">
<path fill-rule="evenodd" clip-rule="evenodd" d="M19.7781 1.29289C19.3876 0.902369 18.7544 0.902369 18.3639 1.29289C17.9733 1.68342 17.9733 2.31658 18.3639 2.70711C19.1996 3.54283 19.8625 4.53499 20.3148 5.62692C20.7671 6.71885 20.9999 7.88917 20.9999 9.07107C20.9999 10.253 20.7671 11.4233 20.3148 12.5152C19.8625 13.6072 19.1996 14.5993 18.3639 15.435C17.9734 15.8256 17.9734 16.4587 18.3639 16.8492C18.7544 17.2398 19.3876 17.2398 19.7781 16.8492C20.7995 15.8278 21.6098 14.6152 22.1626 13.2806C22.7154 11.946 22.9999 10.5156 22.9999 9.07107C22.9999 7.62653 22.7154 6.19613 22.1626 4.86155C21.6098 3.52697 20.7995 2.31434 19.7781 1.29289ZM5.63604 2.70715C6.02656 2.31663 6.02656 1.68346 5.63604 1.29294C5.24551 0.902412 4.61235 0.902412 4.22182 1.29294C3.20038 2.31438 2.39013 3.52701 1.83733 4.86159C1.28452 6.19617 1 7.62657 1 9.07111C1 10.5156 1.28452 11.946 1.83732 13.2806C2.39012 14.6152 3.20038 15.8278 4.22182 16.8493C4.61235 17.2398 5.24551 17.2398 5.63604 16.8493C6.02656 16.4588 6.02656 15.8256 5.63604 15.4351C4.80031 14.5993 4.13737 13.6072 3.68508 12.5153C3.23279 11.4233 3 10.253 3 9.07111C3 7.88921 3.23279 6.71889 3.68508 5.62696C4.13738 4.53503 4.80031 3.54288 5.63604 2.70715ZM17.9497 4.12151C17.5592 3.73098 16.9261 3.73098 16.5355 4.12151C16.145 4.51203 16.145 5.1452 16.5355 5.53572C16.9998 6.00001 17.3681 6.55121 17.6194 7.15784C17.8707 7.76446 18 8.41464 18 9.07125C18 9.72786 17.8707 10.378 17.6194 10.9847C17.3681 11.5913 16.9998 12.1425 16.5355 12.6068C16.145 12.9973 16.145 13.6305 16.5355 14.021C16.9261 14.4115 17.5592 14.4115 17.9497 14.021C18.5998 13.371 19.1154 12.5993 19.4672 11.75C19.8189 10.9008 20 9.99051 20 9.07125C20 8.152 19.8189 7.24175 19.4672 6.39247C19.1154 5.54319 18.5998 4.77152 17.9497 4.12151ZM7.46447 5.53584C7.85499 5.14532 7.85499 4.51215 7.46447 4.12163C7.07394 3.73111 6.44078 3.73111 6.05025 4.12163C5.40024 4.77164 4.88463 5.54331 4.53284 6.39259C4.18106 7.24187 4 8.15212 4 9.07138C4 9.99063 4.18106 10.9009 4.53284 11.7502C4.88463 12.5994 5.40024 13.3711 6.05025 14.0211C6.44078 14.4116 7.07394 14.4116 7.46447 14.0211C7.85499 13.6306 7.85499 12.9974 7.46447 12.6069C7.00017 12.1426 6.63188 11.5914 6.3806 10.9848C6.12933 10.3782 6 9.72799 6 9.07138C6 8.41477 6.12933 7.76459 6.3806 7.15796C6.63188 6.55133 7.00017 6.00014 7.46447 5.53584ZM13 15C13 14.4477 12.5523 14 12 14C11.4477 14 11 14.4477 11 15V22C11 22.5523 11.4477 23 12 23C12.5523 23 13 22.5523 13 22V15ZM8.74976 7.00187C8.7508 6.58766 8.41585 6.25104 8.00164 6.25C7.58743 6.24897 7.2508 6.58391 7.24977 6.99813L7.24102 10.4969C7.23929 11.1884 7.79944 11.75 8.49102 11.75H9.48977C9.90398 11.75 10.2398 11.4142 10.2398 11C10.2398 10.5858 9.90398 10.25 9.48977 10.25H8.74164L8.74976 7.00187ZM10.4998 6.25C10.0856 6.25 9.74977 6.58579 9.74977 7C9.74977 7.41421 10.0856 7.75 10.4998 7.75H10.7498V11C10.7498 11.4142 11.0856 11.75 11.4998 11.75C11.914 11.75 12.2498 11.4142 12.2498 11V7.75H12.4995C12.9137 7.75 13.2495 7.41421 13.2495 7C13.2495 6.58579 12.9137 6.25 12.4995 6.25H11.4998H10.4998ZM15.9995 7.75H15.2495V8.25H15.4995C15.9137 8.25 16.2495 8.58579 16.2495 9C16.2495 9.41421 15.9137 9.75 15.4995 9.75H15.2495V10.25H15.9995C16.4137 10.25 16.7495 10.5858 16.7495 11C16.7495 11.4142 16.4137 11.75 15.9995 11.75H14.9995C14.3092 11.75 13.7495 11.1904 13.7495 10.5V9V7.5C13.7495 6.80964 14.3092 6.25 14.9995 6.25H15.9995C16.4137 6.25 16.7495 6.58579 16.7495 7C16.7495 7.41421 16.4137 7.75 15.9995 7.75Z" fill="black"/>
</svg>
