<svg width="24" height="24" viewBox="0 0 24 24" fill="none" xmlns="http://www.w3.org/2000/svg">
<path fill-rule="evenodd" clip-rule="evenodd" d="M19.7781 1.29289C19.3876 0.902369 18.7544 0.902369 18.3639 1.29289C17.9733 1.68342 17.9733 2.31658 18.3639 2.70711C19.1996 3.54283 19.8625 4.53499 20.3148 5.62692C20.7671 6.71885 20.9999 7.88917 20.9999 9.07107C20.9999 10.253 20.7671 11.4233 20.3148 12.5152C19.8625 13.6072 19.1996 14.5993 18.3639 15.435C17.9734 15.8256 17.9734 16.4587 18.3639 16.8492C18.7544 17.2398 19.3876 17.2398 19.7781 16.8492C20.7995 15.8278 21.6098 14.6152 22.1626 13.2806C22.7154 11.946 22.9999 10.5156 22.9999 9.07107C22.9999 7.62653 22.7154 6.19613 22.1626 4.86155C21.6098 3.52697 20.7995 2.31434 19.7781 1.29289ZM5.63604 2.70715C6.02656 2.31663 6.02656 1.68346 5.63604 1.29294C5.24551 0.902412 4.61235 0.902412 4.22182 1.29294C3.20038 2.31438 2.39013 3.52701 1.83733 4.86159C1.28452 6.19617 1 7.62657 1 9.07111C1 10.5156 1.28452 11.946 1.83732 13.2806C2.39012 14.6152 3.20038 15.8278 4.22182 16.8493C4.61235 17.2398 5.24551 17.2398 5.63604 16.8493C6.02656 16.4588 6.02656 15.8256 5.63604 15.4351C4.80031 14.5993 4.13737 13.6072 3.68508 12.5153C3.23279 11.4233 3 10.253 3 9.07111C3 7.88921 3.23279 6.71889 3.68508 5.62696C4.13738 4.53503 4.80031 3.54288 5.63604 2.70715ZM17.9497 4.12151C17.5592 3.73098 16.9261 3.73098 16.5355 4.12151C16.145 4.51203 16.145 5.1452 16.5355 5.53572C16.9998 6.00001 17.3681 6.55121 17.6194 7.15784C17.8707 7.76446 18 8.41464 18 9.07125C18 9.72786 17.8707 10.378 17.6194 10.9847C17.3681 11.5913 16.9998 12.1425 16.5355 12.6068C16.145 12.9973 16.145 13.6305 16.5355 14.021C16.9261 14.4115 17.5592 14.4115 17.9497 14.021C18.5998 13.371 19.1154 12.5993 19.4672 11.75C19.8189 10.9008 20 9.99051 20 9.07125C20 8.152 19.8189 7.24175 19.4672 6.39247C19.1154 5.54319 18.5998 4.77152 17.9497 4.12151ZM7.46447 5.53584C7.85499 5.14532 7.85499 4.51215 7.46447 4.12163C7.07394 3.73111 6.44078 3.73111 6.05025 4.12163C5.40024 4.77164 4.88463 5.54331 4.53284 6.39259C4.18106 7.24187 4 8.15212 4 9.07138C4 9.99063 4.18106 10.9009 4.53284 11.7502C4.88463 12.5994 5.40024 13.3711 6.05025 14.0211C6.44078 14.4116 7.07394 14.4116 7.46447 14.0211C7.85499 13.6306 7.85499 12.9974 7.46447 12.6069C7.00017 12.1426 6.63188 11.5914 6.3806 10.9848C6.12933 10.3782 6 9.72799 6 9.07138C6 8.41477 6.12933 7.76459 6.3806 7.15796C6.63188 6.55133 7.00017 6.00014 7.46447 5.53584ZM13 15C13 14.4477 12.5523 14 12 14C11.4477 14 11 14.4477 11 15V22C11 22.5523 11.4477 23 12 23C12.5523 23 13 22.5523 13 22V15ZM8.75533 6.75C8.06907 6.75 7.50902 7.29922 7.49562 7.98535C7.48753 8.39949 7.81669 8.74177 8.23083 8.74986C8.56247 8.75633 8.84804 8.54653 8.95279 8.25H9.59093C9.75399 8.25 9.88028 8.3927 9.86045 8.55454L9.83124 8.79296C9.80478 9.00897 9.70057 9.20795 9.53807 9.35271L7.75635 10.94C7.52396 11.147 7.44358 11.4761 7.55434 11.7669C7.66511 12.0578 7.944 12.25 8.25524 12.25H10.7452C11.1595 12.25 11.4952 11.9142 11.4952 11.5C11.4952 11.0858 11.1595 10.75 10.7452 10.75H10.2246L10.5359 10.4727C10.9705 10.0855 11.2493 9.55319 11.3201 8.97535L11.3493 8.73693C11.4787 7.681 10.6548 6.75 9.59093 6.75H8.75533ZM13.7498 9C13.7498 8.58579 14.0856 8.25 14.4998 8.25H14.9994C15.4136 8.25 15.7494 7.91421 15.7494 7.5C15.7494 7.08579 15.4136 6.75 14.9994 6.75H14.4998C13.2571 6.75 12.2498 7.75736 12.2498 9V10.25C12.2498 11.3546 13.1452 12.25 14.2498 12.25C15.3543 12.25 16.2498 11.3546 16.2498 10.25V9.5C16.2498 9.08579 15.914 8.75 15.4998 8.75H15C14.5858 8.75 14.25 9.08579 14.25 9.5C14.25 9.82647 14.4586 10.1042 14.7498 10.2072V10.25C14.7498 10.5261 14.5259 10.75 14.2498 10.75C13.9736 10.75 13.7498 10.5261 13.7498 10.25V9Z" fill="black"/>
</svg>
