<svg width="24" height="24" viewBox="0 0 24 24" fill="none" xmlns="http://www.w3.org/2000/svg">
<path d="M19.071 16.1421C19.9996 15.2136 20.7362 14.1112 21.2387 12.8979C21.7413 11.6847 21.9999 10.3843 21.9999 9.07107C21.9999 7.75785 21.7413 6.45749 21.2387 5.24423C20.7362 4.03098 19.9996 2.92859 19.071 2M4.92893 16.1422C4.00034 15.2136 3.26375 14.1112 2.7612 12.8979C2.25865 11.6847 2 10.3843 2 9.07111C2 7.75789 2.25866 6.45753 2.76121 5.24428C3.26375 4.03102 4.00035 2.92863 4.92893 2.00004M16.2426 13.3139C16.7997 12.7567 17.2417 12.0953 17.5432 11.3674C17.8448 10.6394 17.9999 9.85919 17.9999 9.07125C17.9999 8.28332 17.8448 7.50311 17.5432 6.77515C17.2417 6.0472 16.7997 5.38576 16.2426 4.82861M7.75736 13.314C7.20021 12.7569 6.75825 12.0954 6.45672 11.3675C6.15519 10.6395 6 9.85931 6 9.07138C6 8.28345 6.15519 7.50323 6.45672 6.77528C6.75825 6.04732 7.20021 5.38589 7.75736 4.82874M12 15V22M13.5 11.5H11.5C10.9477 11.5 10.5 11.0523 10.5 10.5V9M10.5 9V7.5C10.5 6.94772 10.9477 6.5 11.5 6.5H13.5M10.5 9H13" stroke="black" stroke-width="2" stroke-linecap="round" stroke-linejoin="round"/>
</svg>
