<svg width="24" height="24" viewBox="0 0 24 24" fill="none" xmlns="http://www.w3.org/2000/svg">
<path fill-rule="evenodd" clip-rule="evenodd" d="M22.1626 4.61709C21.9512 4.10685 21.3663 3.86454 20.856 4.07589C20.3458 4.28724 20.1035 4.87221 20.3148 5.38246C20.7671 6.47439 20.9999 7.64471 20.9999 8.82661C20.9999 10.0085 20.7671 11.1788 20.3148 12.2708C20.1035 12.781 20.3458 13.366 20.856 13.5773C21.3663 13.7887 21.9512 13.5464 22.1626 13.0361C22.7154 11.7015 22.9999 10.2711 22.9999 8.82661C22.9999 7.38207 22.7154 5.95167 22.1626 4.61709ZM3.14389 4.07594C2.63364 3.86459 2.04868 4.10689 1.83733 4.61713C1.28452 5.95171 1 7.38211 1 8.82665C1 10.2712 1.28452 11.7016 1.83732 13.0362C2.04867 13.5464 2.63364 13.7887 3.14389 13.5774C3.65413 13.366 3.89643 12.781 3.68508 12.2708C3.23279 11.1789 3 10.0086 3 8.82665C3 7.64475 3.23279 6.47443 3.68508 5.3825C3.89643 4.87226 3.65413 4.28729 3.14389 4.07594ZM19.4672 6.14801C19.2558 5.63777 18.6708 5.39546 18.1606 5.60682C17.6503 5.81817 17.408 6.40313 17.6194 6.91338C17.8707 7.52001 18 8.17018 18 8.8268C18 9.48341 17.8707 10.1336 17.6194 10.7402C17.408 11.2505 17.6503 11.8354 18.1606 12.0468C18.6708 12.2581 19.2558 12.0158 19.4672 11.5056C19.8189 10.6563 20 9.74605 20 8.8268C20 7.90754 19.8189 6.99729 19.4672 6.14801ZM6.3806 6.9135C6.59195 6.40326 6.34965 5.81829 5.83941 5.60694C5.32916 5.39559 4.74419 5.63789 4.53284 6.14813C4.18106 6.99741 4 7.90767 4 8.82692C4 9.74617 4.18106 10.6564 4.53284 11.5057C4.74419 12.0159 5.32916 12.2582 5.83941 12.0469C6.34965 11.8355 6.59195 11.2506 6.3806 10.7403C6.12933 10.1337 6 9.48353 6 8.82692C6 8.17031 6.12933 7.52013 6.3806 6.9135ZM13 14.9998C13 14.4475 12.5523 13.9998 12 13.9998C11.4477 13.9998 11 14.4475 11 14.9998V21.9998C11 22.5521 11.4477 22.9998 12 22.9998C12.5523 22.9998 13 22.5521 13 21.9998V14.9998ZM8.75023 6.76187C8.75127 6.34766 8.41632 6.01104 8.00211 6.01C7.5879 6.00897 7.25127 6.34391 7.25024 6.75813L7.24149 10.2569C7.23976 10.9485 7.79991 11.51 8.49149 11.51H9.49023C9.90445 11.51 10.2402 11.1742 10.2402 10.76C10.2402 10.3458 9.90445 10.01 9.49023 10.01H8.74211L8.75023 6.76187ZM10.5002 6.01C10.086 6.01 9.75023 6.34579 9.75023 6.76C9.75023 7.17421 10.086 7.51 10.5002 7.51H10.7502V10.76C10.7502 11.1742 11.086 11.51 11.5002 11.51C11.9144 11.51 12.2502 11.1742 12.2502 10.76V7.51H12.5C12.9142 7.51 13.25 7.17421 13.25 6.76C13.25 6.34579 12.9142 6.01 12.5 6.01H11.5002H10.5002ZM16 7.51H15.25V8.01H15.5C15.9142 8.01 16.25 8.34579 16.25 8.76C16.25 9.17421 15.9142 9.51 15.5 9.51H15.25V10.01H16C16.4142 10.01 16.75 10.3458 16.75 10.76C16.75 11.1742 16.4142 11.51 16 11.51H15C14.3096 11.51 13.75 10.9504 13.75 10.26V8.76V7.26C13.75 6.56964 14.3096 6.01 15 6.01H16C16.4142 6.01 16.75 6.34579 16.75 6.76C16.75 7.17421 16.4142 7.51 16 7.51Z" fill="black"/>
</svg>
