<svg width="24" height="24" viewBox="0 0 24 24" fill="none" xmlns="http://www.w3.org/2000/svg">
<path d="M21.2387 11.1537C21.7413 9.94042 21.9999 8.64005 21.9999 7.32684C21.9999 6.01362 21.7413 4.71326 21.2387 3.5M2.7612 11.1537C2.25865 9.94046 2 8.6401 2 7.32688C2 6.01366 2.25866 4.7133 2.76121 3.50004M17.5432 9.62312C17.8448 8.89517 17.9999 8.11495 17.9999 7.32702C17.9999 6.53909 17.8448 5.75887 17.5432 5.03092M6.45672 9.62325C6.15519 8.89529 6 8.11508 6 7.32715C6 6.53921 6.15519 5.759 6.45672 5.03104M12 13.4958V20.4958M14 7.32706C14 8.43163 13.1046 9.32706 12 9.32706C10.8954 9.32706 10 8.43163 10 7.32706C10 6.22249 10.8954 5.32706 12 5.32706C13.1046 5.32706 14 6.22249 14 7.32706Z" stroke="black" stroke-width="2" stroke-linecap="round" stroke-linejoin="round"/>
</svg>
