<svg width="24" height="24" viewBox="0 0 24 24" fill="none" xmlns="http://www.w3.org/2000/svg">
<path fill-rule="evenodd" clip-rule="evenodd" d="M22.1626 4.61758C21.9512 4.10733 21.3663 3.86503 20.856 4.07638C20.3458 4.28773 20.1035 4.8727 20.3148 5.38294C20.7671 6.47488 20.9999 7.6452 20.9999 8.8271C20.9999 10.009 20.7671 11.1793 20.3148 12.2713C20.1035 12.7815 20.3458 13.3665 20.856 13.5778C21.3663 13.7892 21.9512 13.5469 22.1626 13.0366C22.7154 11.702 22.9999 10.2716 22.9999 8.8271C22.9999 7.38256 22.7154 5.95216 22.1626 4.61758ZM3.14389 4.07643C2.63364 3.86507 2.04868 4.10738 1.83733 4.61762C1.28452 5.9522 1 7.3826 1 8.82714C1 10.2717 1.28452 11.7021 1.83732 13.0367C2.04867 13.5469 2.63364 13.7892 3.14389 13.5779C3.65413 13.3665 3.89643 12.7815 3.68508 12.2713C3.23279 11.1794 3 10.009 3 8.82714C3 7.64524 3.23279 6.47492 3.68508 5.38299C3.89643 4.87274 3.65413 4.28778 3.14389 4.07643ZM19.4672 6.1485C19.2558 5.63825 18.6708 5.39595 18.1606 5.6073C17.6503 5.81865 17.408 6.40362 17.6194 6.91387C17.8707 7.52049 18 8.17067 18 8.82728C18 9.48389 17.8707 10.1341 17.6194 10.7407C17.408 11.2509 17.6503 11.8359 18.1606 12.0473C18.6708 12.2586 19.2558 12.0163 19.4672 11.5061C19.8189 10.6568 20 9.74654 20 8.82728C20 7.90803 19.8189 6.99778 19.4672 6.1485ZM6.3806 6.91399C6.59195 6.40374 6.34965 5.81878 5.83941 5.60743C5.32916 5.39608 4.74419 5.63838 4.53284 6.14862C4.18106 6.9979 4 7.90815 4 8.82741C4 9.74666 4.18106 10.6569 4.53284 11.5062C4.74419 12.0164 5.32916 12.2587 5.83941 12.0474C6.34965 11.836 6.59195 11.2511 6.3806 10.7408C6.12933 10.1342 6 9.48402 6 8.82741C6 8.1708 6.12933 7.52062 6.3806 6.91399ZM13 15.0003C13 14.448 12.5523 14.0003 12 14.0003C11.4477 14.0003 11 14.448 11 15.0003V22.0003C11 22.5525 11.4477 23.0003 12 23.0003C12.5523 23.0003 13 22.5525 13 22.0003V15.0003ZM10.99 8.01H9.25V8.51H9.99C10.9565 8.51 11.74 9.2935 11.74 10.26C11.74 11.2265 10.9565 12.01 9.99 12.01H8.49C8.07579 12.01 7.74 11.6742 7.74 11.26C7.74 10.8458 8.07579 10.51 8.49 10.51H9.99C10.1281 10.51 10.24 10.3981 10.24 10.26C10.24 10.1219 10.1281 10.01 9.99 10.01H9.1225C8.36449 10.01 7.75 9.39551 7.75 8.6375V7.76C7.75 7.06964 8.30964 6.51 9 6.51H10.99C11.4042 6.51 11.74 6.84579 11.74 7.26C11.74 7.67421 11.4042 8.01 10.99 8.01ZM13.75 8.76C13.75 8.34579 14.0858 8.01 14.5 8.01H15C15.4142 8.01 15.75 7.67421 15.75 7.26C15.75 6.84579 15.4142 6.51 15 6.51H14.5C13.2574 6.51 12.25 7.51736 12.25 8.76V10.01C12.25 11.1146 13.1454 12.01 14.25 12.01C15.3546 12.01 16.25 11.1146 16.25 10.01V9.26C16.25 8.84579 15.9142 8.51 15.5 8.51H15.0002C14.586 8.51 14.2502 8.84579 14.2502 9.26C14.2502 9.58647 14.4588 9.86422 14.75 9.96724V10.01C14.75 10.2861 14.5261 10.51 14.25 10.51C13.9739 10.51 13.75 10.2861 13.75 10.01V8.76Z" fill="black"/>
</svg>
