<svg width="24" height="24" viewBox="0 0 24 24" fill="none" xmlns="http://www.w3.org/2000/svg">
<path fill-rule="evenodd" clip-rule="evenodd" d="M22.1626 4.61709C21.9512 4.10685 21.3663 3.86454 20.856 4.07589C20.3458 4.28724 20.1035 4.87221 20.3148 5.38246C20.7671 6.47439 20.9999 7.64471 20.9999 8.82661C20.9999 10.0085 20.7671 11.1788 20.3148 12.2708C20.1035 12.781 20.3458 13.366 20.856 13.5773C21.3663 13.7887 21.9512 13.5464 22.1626 13.0361C22.7154 11.7015 22.9999 10.2711 22.9999 8.82661C22.9999 7.38207 22.7154 5.95167 22.1626 4.61709ZM3.14389 4.07594C2.63364 3.86459 2.04868 4.10689 1.83733 4.61713C1.28452 5.95171 1 7.38211 1 8.82665C1 10.2712 1.28452 11.7016 1.83732 13.0362C2.04867 13.5464 2.63364 13.7887 3.14389 13.5774C3.65413 13.366 3.89643 12.781 3.68508 12.2708C3.23279 11.1789 3 10.0086 3 8.82665C3 7.64475 3.23279 6.47443 3.68508 5.3825C3.89643 4.87226 3.65413 4.28729 3.14389 4.07594ZM19.4672 6.14801C19.2558 5.63777 18.6708 5.39546 18.1606 5.60682C17.6503 5.81817 17.408 6.40313 17.6194 6.91338C17.8707 7.52001 18 8.17018 18 8.8268C18 9.48341 17.8707 10.1336 17.6194 10.7402C17.408 11.2505 17.6503 11.8354 18.1606 12.0468C18.6708 12.2581 19.2558 12.0158 19.4672 11.5056C19.8189 10.6563 20 9.74605 20 8.8268C20 7.90754 19.8189 6.99729 19.4672 6.14801ZM6.3806 6.9135C6.59195 6.40326 6.34965 5.81829 5.83941 5.60694C5.32916 5.39559 4.74419 5.63789 4.53284 6.14813C4.18106 6.99741 4 7.90767 4 8.82692C4 9.74617 4.18106 10.6564 4.53284 11.5057C4.74419 12.0159 5.32916 12.2582 5.83941 12.0469C6.34965 11.8355 6.59195 11.2506 6.3806 10.7403C6.12933 10.1337 6 9.48353 6 8.82692C6 8.17031 6.12933 7.52013 6.3806 6.9135ZM13 14.9998C13 14.4475 12.5523 13.9998 12 13.9998C11.4477 13.9998 11 14.4475 11 14.9998V21.9998C11 22.5521 11.4477 22.9998 12 22.9998C12.5523 22.9998 13 22.5521 13 21.9998V14.9998ZM9.13636 6.01C8.3382 6.01 7.75 6.67753 7.75 7.42667C7.75 7.84088 8.08579 8.17667 8.5 8.17667C8.88605 8.17667 9.20397 7.885 9.24542 7.51H10.0909C10.1714 7.51 10.2955 7.58867 10.2955 7.76C10.2955 7.93133 10.1714 8.01 10.0909 8.01H9.45455C9.04033 8.01 8.70455 8.34579 8.70455 8.76C8.70455 9.17421 9.04033 9.51 9.45455 9.51H10.0909C10.1714 9.51 10.2955 9.58867 10.2955 9.76C10.2955 9.93133 10.1714 10.01 10.0909 10.01H9.24542C9.20397 9.635 8.88605 9.34333 8.5 9.34333C8.08579 9.34333 7.75 9.67912 7.75 10.0933C7.75 10.8425 8.3382 11.51 9.13636 11.51H10.0909C11.0648 11.51 11.7955 10.6932 11.7955 9.76C11.7955 9.39485 11.6836 9.04754 11.4891 8.76C11.6836 8.47246 11.7955 8.12515 11.7955 7.76C11.7955 6.82676 11.0648 6.01 10.0909 6.01H9.13636ZM13.7045 8.09333C13.7045 7.73791 13.9711 7.51 14.2273 7.51H15C15.4142 7.51 15.75 7.17421 15.75 6.76C15.75 6.34579 15.4142 6.01 15 6.01H14.2273C13.0777 6.01 12.2045 6.976 12.2045 8.09333V9.42667C12.2045 10.544 13.0777 11.51 14.2273 11.51C15.3769 11.51 16.25 10.544 16.25 9.42667V9.09333C16.25 8.52829 15.8043 8.01 15.1818 8.01H14.8636C14.4494 8.01 14.1136 8.34579 14.1136 8.76C14.1136 9.1342 14.3877 9.44439 14.746 9.50083C14.712 9.81349 14.4652 10.01 14.2273 10.01C13.9711 10.01 13.7045 9.78209 13.7045 9.42667V8.09333Z" fill="black"/>
</svg>
