<svg width="24" height="24" viewBox="0 0 24 24" fill="none" xmlns="http://www.w3.org/2000/svg">
<path fill-rule="evenodd" clip-rule="evenodd" d="M22.1626 3.11758C21.9512 2.60733 21.3663 2.36503 20.856 2.57638C20.3458 2.78773 20.1035 3.3727 20.3148 3.88294C20.7671 4.97488 20.9999 6.1452 20.9999 7.3271C20.9999 8.509 20.7671 9.67932 20.3148 10.7713C20.1035 11.2815 20.3458 11.8665 20.856 12.0778C21.3663 12.2892 21.9512 12.0469 22.1626 11.5366C22.7154 10.202 22.9999 8.77164 22.9999 7.3271C22.9999 5.88256 22.7154 4.45216 22.1626 3.11758ZM3.14389 2.57643C2.63364 2.36507 2.04868 2.60738 1.83733 3.11762C1.28452 4.4522 1 5.8826 1 7.32714C1 8.77168 1.28452 10.2021 1.83732 11.5367C2.04867 12.0469 2.63364 12.2892 3.14389 12.0779C3.65413 11.8665 3.89643 11.2815 3.68508 10.7713C3.23279 9.67937 3 8.50904 3 7.32714C3 6.14524 3.23279 4.97492 3.68508 3.88299C3.89643 3.37274 3.65413 2.78778 3.14389 2.57643ZM19.4672 4.6485C19.2558 4.13825 18.6708 3.89595 18.1606 4.1073C17.6503 4.31865 17.408 4.90362 17.6194 5.41387C17.8707 6.02049 18 6.67067 18 7.32728C18 7.98389 17.8707 8.63407 17.6194 9.2407C17.408 9.75094 17.6503 10.3359 18.1606 10.5473C18.6708 10.7586 19.2558 10.5163 19.4672 10.0061C19.8189 9.15679 20 8.24654 20 7.32728C20 6.40803 19.8189 5.49778 19.4672 4.6485ZM6.3806 5.41399C6.59195 4.90374 6.34965 4.31878 5.83941 4.10743C5.32916 3.89608 4.74419 4.13838 4.53284 4.64862C4.18106 5.4979 4 6.40815 4 7.32741C4 8.24666 4.18106 9.15691 4.53284 10.0062C4.74419 10.5164 5.32916 10.7587 5.83941 10.5474C6.34965 10.336 6.59195 9.75107 6.3806 9.24082C6.12933 8.6342 6 7.98402 6 7.32741C6 6.6708 6.12933 6.02062 6.3806 5.41399ZM13 13.5003C13 12.948 12.5523 12.5003 12 12.5003C11.4477 12.5003 11 12.948 11 13.5003V20.5003C11 21.0525 11.4477 21.5003 12 21.5003C12.5523 21.5003 13 21.0525 13 20.5003V13.5003ZM8.76 5.76C8.76 5.34579 8.42421 5.01 8.01 5.01C7.59579 5.01 7.26 5.34579 7.26 5.76V7.26C7.26 7.95036 7.81964 8.51 8.51 8.51H9.75V9.76C9.75 10.1742 10.0858 10.51 10.5 10.51C10.9142 10.51 11.25 10.1742 11.25 9.76V7.76V5.76C11.25 5.34579 10.9142 5.01 10.5 5.01C10.0858 5.01 9.75 5.34579 9.75 5.76V7.01H8.76V5.76ZM13.7498 7.26C13.7498 6.84579 14.0856 6.51 14.4998 6.51H15C15.4142 6.51 15.75 6.17421 15.75 5.76C15.75 5.34579 15.4142 5.01 15 5.01H14.4998C13.2571 5.01 12.2498 6.01736 12.2498 7.26V8.51C12.2498 9.61457 13.1452 10.51 14.2498 10.51C15.3543 10.51 16.2498 9.61457 16.2498 8.51V7.76C16.2498 7.34579 15.914 7.01 15.4998 7.01H15C14.5858 7.01 14.25 7.34579 14.25 7.76C14.25 8.08647 14.4586 8.36422 14.7498 8.46724V8.51C14.7498 8.78614 14.5259 9.01 14.2498 9.01C13.9736 9.01 13.7498 8.78614 13.7498 8.51V7.26Z" fill="black"/>
</svg>
