<svg width="24" height="24" viewBox="0 0 24 24" fill="none" xmlns="http://www.w3.org/2000/svg">
<path fill-rule="evenodd" clip-rule="evenodd" d="M12 1C9.82441 1 7.69767 1.64514 5.88873 2.85383C4.07979 4.06253 2.66989 5.7805 1.83733 7.79048C1.00477 9.80047 0.786929 12.0122 1.21137 14.146C1.6358 16.2798 2.68345 18.2398 4.22183 19.7782C4.61236 20.1687 5.24552 20.1687 5.63604 19.7782C6.02657 19.3876 6.02657 18.7545 5.63604 18.364C4.37737 17.1053 3.5202 15.5016 3.17294 13.7558C2.82567 12.01 3.0039 10.2004 3.68509 8.55585C4.36628 6.91131 5.51983 5.50571 6.99987 4.51677C8.47992 3.52784 10.22 3 12 3C13.78 3 15.5201 3.52784 17.0001 4.51677C18.4802 5.50571 19.6337 6.91131 20.3149 8.55585C20.9961 10.2004 21.1743 12.01 20.8271 13.7558C20.4798 15.5016 19.6226 17.1053 18.364 18.364C17.9734 18.7545 17.9734 19.3876 18.364 19.7782C18.7545 20.1687 19.3877 20.1687 19.7782 19.7782C21.3166 18.2398 22.3642 16.2798 22.7886 14.146C23.2131 12.0122 22.9952 9.80047 22.1627 7.79048C21.3301 5.78049 19.9202 4.06253 18.1113 2.85383C16.3023 1.64514 14.1756 1 12 1ZM12 5C10.6155 5 9.26216 5.41054 8.11101 6.17971C6.95987 6.94888 6.06266 8.04213 5.53285 9.32122C5.00303 10.6003 4.86441 12.0078 5.13451 13.3656C5.4046 14.7235 6.07129 15.9708 7.05026 16.9497C7.44078 17.3403 8.07395 17.3403 8.46447 16.9497C8.85499 16.5592 8.85499 15.9261 8.46447 15.5355C7.76521 14.8363 7.289 13.9454 7.09608 12.9755C6.90315 12.0055 7.00217 11.0002 7.38061 10.0866C7.75904 9.17295 8.39991 8.39206 9.22215 7.84265C10.0444 7.29324 11.0111 7 12 7C12.9889 7 13.9556 7.29324 14.7779 7.84265C15.6001 8.39206 16.241 9.17295 16.6194 10.0866C16.9978 11.0002 17.0969 12.0055 16.9039 12.9755C16.711 13.9454 16.2348 14.8363 15.5355 15.5355C15.145 15.9261 15.145 16.5592 15.5355 16.9497C15.9261 17.3403 16.5592 17.3403 16.9498 16.9497C17.9287 15.9708 18.5954 14.7235 18.8655 13.3656C19.1356 12.0078 18.997 10.6003 18.4672 9.32122C17.9373 8.04213 17.0401 6.94888 15.889 6.17971C14.7379 5.41054 13.3845 5 12 5ZM10.6856 13.5075C10.6656 13.5443 10.6468 13.5825 10.6293 13.6219L8.64174 18.0939L7.39866 20.8908C6.95781 21.8827 7.68389 23 8.76938 23H15.2306C16.3161 23 17.0422 21.8827 16.6013 20.8908L15.3583 18.0939L13.3707 13.6219C13.3532 13.5825 13.3344 13.5443 13.3144 13.5075C13.7345 13.1409 14 12.6014 14 12C14 10.8954 13.1046 10 12 10C10.8954 10 10 10.8954 10 12C10 12.6014 10.2655 13.1409 10.6856 13.5075ZM11.0943 17.5L12 15.4622L12.9057 17.5H11.0943ZM10.2054 19.5H13.7946L14.4612 21H9.53876L10.2054 19.5Z" fill="black"/>
</svg>
