<svg width="24" height="24" viewBox="0 0 24 24" fill="none" xmlns="http://www.w3.org/2000/svg">
<path fill-rule="evenodd" clip-rule="evenodd" d="M7.07485 4.57218C7.3908 4.1192 7.27973 3.49585 6.82675 3.1799C6.37377 2.86394 5.75042 2.97502 5.43447 3.428C5.18319 3.78825 4.96069 4.17032 4.7704 4.57089C4.27609 5.61141 4 6.77488 4 8.00004C4 9.2252 4.27609 10.3887 4.7704 11.4292C5.00738 11.928 5.6039 12.1403 6.10275 11.9033C6.60161 11.6664 6.8139 11.0698 6.57691 10.571C6.2073 9.79296 6 8.92211 6 8.00004C6 7.07797 6.2073 6.20712 6.57691 5.42909C6.71944 5.12907 6.88624 4.84258 7.07485 4.57218ZM18.8202 3.428C18.5042 2.97502 17.8809 2.86394 17.4279 3.1799C16.9749 3.49585 16.8639 4.1192 17.1798 4.57218C17.3684 4.84258 17.5352 5.12907 17.6777 5.42909C18.0474 6.20712 18.2547 7.07797 18.2547 8.00004C18.2547 8.92211 18.0474 9.79296 17.6777 10.571C17.4408 11.0698 17.653 11.6664 18.1519 11.9033C18.6508 12.1403 19.2473 11.928 19.4843 11.4292C19.9786 10.3887 20.2547 9.2252 20.2547 8.00004C20.2547 6.77488 19.9786 5.61141 19.4843 4.57089C19.294 4.17032 19.0715 3.78825 18.8202 3.428ZM15.3076 4.25038C14.8935 3.88491 14.2616 3.92431 13.8961 4.33838C13.5306 4.75244 13.57 5.38438 13.9841 5.74985C14.6086 6.30102 15 7.10423 15 8.0001C15 8.89597 14.6086 9.69918 13.9841 10.2504C13.57 10.6158 13.5306 11.2478 13.8961 11.6618C14.2616 12.0759 14.8935 12.1153 15.3076 11.7498C16.3439 10.8351 17 9.4936 17 8.0001C17 6.5066 16.3439 5.16509 15.3076 4.25038ZM10.0159 5.74985C10.43 5.38438 10.4694 4.75244 10.1039 4.33838C9.73843 3.92431 9.10649 3.88491 8.69242 4.25038C7.65607 5.16509 7 6.5066 7 8.0001C7 9.4936 7.65607 10.8351 8.69242 11.7498C9.10649 12.1153 9.73843 12.0759 10.1039 11.6618C10.4694 11.2478 10.43 10.6158 10.0159 10.2504C9.39143 9.69918 9 8.89597 9 8.0001C9 7.10423 9.39143 6.30102 10.0159 5.74985ZM13 11C13 10.4478 12.5523 10 12 10C11.4477 10 11 10.4478 11 11V14.0001H5C3.34315 14.0001 2 15.3432 2 17.0001V19.0001C2 20.6569 3.34315 22.0001 5 22.0001H19C20.6569 22.0001 22 20.6569 22 19.0001V17.0001C22 15.3432 20.6569 14.0001 19 14.0001H13V11ZM4 17.0001C4 16.4478 4.44772 16.0001 5 16.0001H12H19C19.5523 16.0001 20 16.4478 20 17.0001V19.0001C20 19.5524 19.5523 20.0001 19 20.0001H5C4.44772 20.0001 4 19.5524 4 19.0001L4 17.0001ZM12 9.50009C12.8284 9.50009 13.5 8.82851 13.5 8.00009C13.5 7.17166 12.8284 6.50009 12 6.50009C11.1716 6.50009 10.5 7.17166 10.5 8.00009C10.5 8.82851 11.1716 9.50009 12 9.50009ZM6 19.0001C6.55228 19.0001 7 18.5524 7 18.0001C7 17.4478 6.55228 17.0001 6 17.0001C5.44772 17.0001 5 17.4478 5 18.0001C5 18.5524 5.44772 19.0001 6 19.0001Z" fill="black"/>
</svg>
