<svg width="24" height="24" viewBox="0 0 24 24" fill="none" xmlns="http://www.w3.org/2000/svg">
<path fill-rule="evenodd" clip-rule="evenodd" d="M7.81985 4.70745C10.258 2.18604 14.1147 2.68566 16.1994 4.72686C17.3119 5.81617 18 7.33123 18 9.00861C18 9.92978 17.7927 10.7998 17.4232 11.5771C17.1861 12.0759 17.3982 12.6725 17.897 12.9096C18.3958 13.1467 18.9924 12.9346 19.2295 12.4358C19.7239 11.3959 20 10.2331 20 9.00861C20 6.77154 19.0793 4.74769 17.5987 3.29783L17.5986 3.29779C14.8879 0.6437 9.75172 -0.156063 6.39157 3.3074C6.03906 3.65376 5.71847 4.03262 5.43466 4.43922C5.18336 4.79924 4.96084 5.18108 4.77052 5.58141C4.27615 6.6213 4 7.78412 4 9.00861C4 10.2331 4.27615 11.3959 4.77052 12.4358C5.00764 12.9346 5.60422 13.1467 6.10301 12.9096C6.6018 12.6725 6.81392 12.0759 6.57679 11.5771C6.20725 10.7998 6 9.92978 6 9.00861C6 8.08745 6.20725 7.21743 6.57679 6.44012C6.71929 6.14037 6.88606 5.85413 7.07465 5.58396C7.28961 5.27601 7.53284 4.98902 7.80061 4.72681C7.80711 4.72045 7.81353 4.71399 7.81985 4.70745ZM10.0156 6.76086C11.102 5.80272 12.8825 5.78903 13.9844 6.76086C14.6088 7.31158 15 8.11394 15 9.00867C15 9.9034 14.6088 10.7058 13.9844 11.2565C13.5702 11.6218 13.5305 12.2537 13.8959 12.6679C14.2612 13.0821 14.8931 13.1218 15.3073 12.7564C16.3437 11.8423 17 10.5016 17 9.00867C17 7.51578 16.3437 6.175 15.3073 5.2609C13.4426 3.61627 10.5281 3.64213 8.6927 5.26091C7.65629 6.175 7 7.51578 7 9.00867C7 10.5016 7.65629 11.8423 8.6927 12.7564C9.1069 13.1218 9.73882 13.0821 10.1041 12.6679C10.4695 12.2537 10.4298 11.6218 10.0156 11.2565C9.39121 10.7058 9 9.9034 9 9.00867C9 8.11394 9.39121 7.31158 10.0156 6.76086ZM13 12.0057C13 11.4534 12.5523 11.0057 12 11.0057C11.4477 11.0057 11 11.4534 11 12.0057V15.0043H5C3.34315 15.0043 2 16.3474 2 18.0043V19.9999C2 21.6567 3.34315 22.9999 5 22.9999H19C20.6569 22.9999 22 21.6567 22 19.9999V18.0043C22 16.3474 20.6569 15.0043 19 15.0043H13V12.0057ZM4 18.0043C4 17.452 4.44772 17.0043 5 17.0043H12H19C19.5523 17.0043 20 17.452 20 18.0043V19.9999C20 20.5522 19.5523 20.9999 19 20.9999H5C4.44772 20.9999 4 20.5522 4 19.9999L4 18.0043ZM12 10.4999C12.8284 10.4999 13.5 9.82829 13.5 8.99987C13.5 8.17144 12.8284 7.49987 12 7.49987C11.1716 7.49987 10.5 8.17144 10.5 8.99987C10.5 9.82829 11.1716 10.4999 12 10.4999ZM6 19.9999C6.55228 19.9999 7 19.5522 7 18.9999C7 18.4476 6.55228 17.9999 6 17.9999C5.44772 17.9999 5 18.4476 5 18.9999C5 19.5522 5.44772 19.9999 6 19.9999ZM10 18.9999C10 19.5522 9.55228 19.9999 9 19.9999C8.44771 19.9999 8 19.5522 8 18.9999C8 18.4476 8.44771 17.9999 9 17.9999C9.55228 17.9999 10 18.4476 10 18.9999ZM13 18.9999C13 19.5522 12.5523 19.9999 12 19.9999C11.4477 19.9999 11 19.5522 11 18.9999C11 18.4476 11.4477 17.9999 12 17.9999C12.5523 17.9999 13 18.4476 13 18.9999Z" fill="black"/>
</svg>
