<svg width="24" height="24" viewBox="0 0 24 24" fill="none" xmlns="http://www.w3.org/2000/svg">
<path d="M2 15.5V19.5C2 20.3284 2.67157 21 3.5 21H4.5C5.32843 21 6 20.3284 6 19.5V15.5C6 14.6716 5.32843 14 4.5 14H3.5C2.67157 14 2 14.6716 2 15.5Z" stroke="black" stroke-width="2" stroke-linecap="round" stroke-linejoin="round"/>
<path d="M10 10.5V19.5C10 20.3284 10.6716 21 11.5 21H12.5C13.3284 21 14 20.3284 14 19.5V10.5C14 9.67157 13.3284 9 12.5 9H11.5C10.6716 9 10 9.67157 10 10.5Z" stroke="black" stroke-width="2" stroke-linecap="round" stroke-linejoin="round"/>
<path d="M18 4.5V19.5C18 20.3284 18.6716 21 19.5 21H20.5C21.3284 21 22 20.3284 22 19.5V4.5C22 3.67157 21.3284 3 20.5 3H19.5C18.6716 3 18 3.67157 18 4.5Z" stroke="black" stroke-width="2" stroke-linecap="round" stroke-linejoin="round"/>
</svg>
