<svg width="24" height="24" viewBox="0 0 24 24" fill="none" xmlns="http://www.w3.org/2000/svg">
<path d="M2 21H6M10 21H14M18 21H22M14.4024 12.4024C12.2515 14.5534 8.76414 14.5534 6.6132 12.4024C4.46227 10.2515 4.46227 6.76414 6.6132 4.6132C8.76414 2.46227 12.2515 2.46227 14.4024 4.6132C16.5534 6.76414 16.5534 10.2515 14.4024 12.4024ZM14.4024 12.4024L16.8025 14.8025M16.8025 14.8025L16.9177 14.6872C17.0713 14.5336 17.3204 14.5336 17.4741 14.6872L18.8848 16.0979C19.0384 16.2516 19.0384 16.5007 18.8848 16.6543L18.6543 16.8848C18.5007 17.0384 18.2516 17.0384 18.0979 16.8848L16.6872 15.4741C16.5336 15.3204 16.5336 15.0713 16.6872 14.9177L16.8025 14.8025Z" stroke="black" stroke-width="2" stroke-linecap="round" stroke-linejoin="round"/>
</svg>
