<svg width="24" height="24" viewBox="0 0 24 24" fill="none" xmlns="http://www.w3.org/2000/svg">
<path d="M8.8199 5H7C4.79086 5 3 6.79086 3 9V18C3 20.2091 4.79086 22 7 22H11C13.2091 22 15 20.2091 15 18V11.2237C15 10.1766 14.5894 9.17116 13.8563 8.42342L11.6762 6.19971C10.9239 5.43237 9.8945 5 8.8199 5Z" stroke="black" stroke-width="2" stroke-linecap="round" stroke-linejoin="round"/>
<path fill-rule="evenodd" clip-rule="evenodd" d="M17.3323 20.9892C19.939 20.8183 22.0004 18.6499 22.0004 16V9.2237C22.0004 7.91477 21.4871 6.65802 20.5707 5.72335L18.3906 3.49964C17.4503 2.54047 16.1635 2 14.8203 2H13.0004C12.3237 2 11.6785 2.13441 11.0898 2.37799C12.068 2.71319 12.9684 3.26386 13.7197 4H14.8203C15.6262 4 16.3983 4.32428 16.9625 4.89979L19.1426 7.12349C19.6924 7.68429 20.0004 8.43834 20.0004 9.2237V16C20.0004 17.3249 19.1415 18.4492 17.9501 18.8466C17.8587 19.6047 17.6461 20.3256 17.3323 20.9892Z" fill="black"/>
</svg>
