<svg width="24" height="24" viewBox="0 0 24 24" fill="none" xmlns="http://www.w3.org/2000/svg">
<path fill-rule="evenodd" clip-rule="evenodd" d="M9 1C6.23858 1 4 3.23858 4 6V18C4 20.7614 6.23858 23 9 23H15C17.7614 23 20 20.7614 20 18V9.02395C20 7.72225 19.4924 6.47187 18.585 5.53856L15.645 2.51461C14.7036 1.54631 13.4106 1 12.06 1H9ZM6 6C6 4.34315 7.34315 3 9 3H12.06C12.8703 3 13.6462 3.32778 14.211 3.90876L17.151 6.93271C17.6954 7.4927 18 8.24293 18 9.02395V18C18 19.6569 16.6569 21 15 21H9C7.34315 21 6 19.6569 6 18V6ZM12.4608 11.3099C12.29 10.8993 11.7082 10.8993 11.5374 11.3099L10.748 13.2079C10.6765 13.3799 10.5152 13.4979 10.3297 13.514L8.4613 13.6765C8.03257 13.7138 7.84809 14.2393 8.15943 14.5364L9.57863 15.8906C9.70732 16.0134 9.76108 16.1953 9.71981 16.3683L9.23918 18.3833C9.13598 18.8159 9.60661 19.1578 9.98616 18.926L11.7385 17.8557C11.8985 17.7579 12.0997 17.7579 12.2597 17.8557L14.012 18.926C14.3916 19.1578 14.8622 18.8159 14.759 18.3833L14.2785 16.369C14.2372 16.1956 14.2912 16.0133 14.4204 15.8905L15.8444 14.537C16.1567 14.2402 15.9724 13.7137 15.5431 13.6765L13.6686 13.514C13.483 13.4979 13.3217 13.3799 13.2501 13.2079L12.4608 11.3099Z" fill="black"/>
</svg>
