<svg width="24" height="24" viewBox="0 0 24 24" fill="none" xmlns="http://www.w3.org/2000/svg">
<path fill-rule="evenodd" clip-rule="evenodd" d="M9 1C6.23858 1 4 3.23858 4 6V18C4 20.7614 6.23858 23 9 23H15C17.7614 23 20 20.7614 20 18V9.02395C20 7.72225 19.4924 6.47187 18.585 5.53856L15.645 2.51461C14.7036 1.54631 13.4106 1 12.06 1H9ZM6 6C6 4.34315 7.34315 3 9 3H12.06C12.8703 3 13.6462 3.32778 14.211 3.90876L17.151 6.93271C17.6954 7.4927 18 8.24293 18 9.02395V18C18 19.6569 16.6569 21 15 21H9C7.34315 21 6 19.6569 6 18V6ZM15.5648 16.7049L13.2711 13.0351C12.6836 12.0951 11.3147 12.0951 10.7272 13.0351L8.43353 16.7049C7.80911 17.704 8.52737 18.9999 9.70552 18.9999H14.2928C15.4709 18.9999 16.1892 17.704 15.5648 16.7049ZM12 14.25C12.4142 14.25 12.75 14.5983 12.75 15.0278C12.75 15.28 12.5577 15.6039 12.3427 15.9661C12.2261 16.1623 12.1029 16.3699 12 16.5833C11.8971 16.3699 11.7739 16.1623 11.6573 15.9661L11.6573 15.9661C11.4423 15.6039 11.25 15.28 11.25 15.0278C11.25 14.5983 11.5858 14.25 12 14.25ZM12 17.75C12.2071 17.75 12.375 17.5759 12.375 17.3611C12.375 17.1463 12.2071 16.9722 12 16.9722C11.7929 16.9722 11.625 17.1463 11.625 17.3611C11.625 17.5759 11.7929 17.75 12 17.75Z" fill="black"/>
</svg>
