<svg width="24" height="24" viewBox="0 0 24 24" fill="none" xmlns="http://www.w3.org/2000/svg">
<path d="M13.2012 16.2012C12.1257 17.2767 10.3821 17.2767 9.3066 16.2012C8.23113 15.1257 8.23113 13.3821 9.3066 12.3066C10.3821 11.2311 12.1257 11.2311 13.2012 12.3066C14.2767 13.3821 14.2767 15.1257 13.2012 16.2012ZM13.2012 16.2012L14.4012 17.4012M14.4012 17.4012L14.4588 17.3436C14.5357 17.2668 14.6602 17.2668 14.737 17.3436L15.4424 18.049C15.5192 18.1258 15.5192 18.2503 15.4424 18.3272L15.3272 18.4424C15.2503 18.5192 15.1258 18.5192 15.049 18.4424L14.3436 17.737C14.2668 17.6602 14.2668 17.5357 14.3436 17.4588L14.4012 17.4012ZM14.4012 17.4012L15.0625 18.0625M9 22H15C17.2091 22 19 20.2091 19 18V9.02395C19 7.98259 18.5939 6.98228 17.868 6.23564L14.928 3.21169C14.1749 2.43704 13.1405 2 12.06 2H9C6.79086 2 5 3.79086 5 6V18C5 20.2091 6.79086 22 9 22Z" stroke="black" stroke-width="2" stroke-linecap="round" stroke-linejoin="round"/>
</svg>
