<svg width="24" height="24" viewBox="0 0 24 24" fill="none" xmlns="http://www.w3.org/2000/svg">
<path fill-rule="evenodd" clip-rule="evenodd" d="M9 1C6.23858 1 4 3.23858 4 6V18C4 20.7614 6.23858 23 9 23H15C17.7614 23 20 20.7614 20 18V9.02395C20 7.72225 19.4924 6.47187 18.585 5.53856L15.645 2.51461C14.7036 1.54631 13.4106 1 12.06 1H9ZM6 6C6 4.34315 7.34315 3 9 3H12.06C12.8703 3 13.6462 3.32778 14.211 3.90876L17.151 6.93271C17.6954 7.4927 18 8.24293 18 9.02395V18C18 19.6569 16.6569 21 15 21H9C7.34315 21 6 19.6569 6 18V6ZM10.99 15.25H9.25V15.75H9.99C10.9565 15.75 11.74 16.5335 11.74 17.5C11.74 18.4665 10.9565 19.25 9.99 19.25H8.49C8.07579 19.25 7.74 18.9142 7.74 18.5C7.74 18.0858 8.07579 17.75 8.49 17.75H9.99C10.1281 17.75 10.24 17.6381 10.24 17.5C10.24 17.3619 10.1281 17.25 9.99 17.25H9.1225C8.36449 17.25 7.75 16.6355 7.75 15.8775V15C7.75 14.3096 8.30964 13.75 9 13.75H10.99C11.4042 13.75 11.74 14.0858 11.74 14.5C11.74 14.9142 11.4042 15.25 10.99 15.25ZM13.75 15.5C13.75 15.3619 13.8619 15.25 14 15.25H15.5C15.9142 15.25 16.25 14.9142 16.25 14.5C16.25 14.0858 15.9142 13.75 15.5 13.75H14C13.0335 13.75 12.25 14.5335 12.25 15.5V17.5C12.25 18.4665 13.0335 19.25 14 19.25H14.5C15.4665 19.25 16.25 18.4665 16.25 17.5V16.5C16.25 16.0858 15.9142 15.75 15.5 15.75H15.0002C14.586 15.75 14.2502 16.0858 14.2502 16.5C14.2502 16.8265 14.4588 17.1042 14.75 17.2072V17.5C14.75 17.6381 14.6381 17.75 14.5 17.75H14C13.8619 17.75 13.75 17.6381 13.75 17.5V15.5Z" fill="black"/>
</svg>
