<svg width="24" height="24" viewBox="0 0 24 24" fill="none" xmlns="http://www.w3.org/2000/svg">
<path d="M12 11.5V15M12 11.5H14.5C15.0523 11.5 15.5 11.9477 15.5 12.5V15M12 11.5H9.5C8.94772 11.5 8.5 11.9477 8.5 12.5V15M12 18.5V15M12 18.5H14.5C15.0523 18.5 15.5 18.0523 15.5 17.5V15M12 18.5H9.5C8.94772 18.5 8.5 18.0523 8.5 17.5V15M12 15H8.5M12 15H15.5M9 22H15C17.2091 22 19 20.2091 19 18V9.02395C19 7.98259 18.5939 6.98228 17.868 6.23564L14.928 3.21169C14.1749 2.43704 13.1405 2 12.06 2H9C6.79086 2 5 3.79086 5 6V18C5 20.2091 6.79086 22 9 22Z" stroke="black" stroke-width="2" stroke-linecap="round" stroke-linejoin="round"/>
</svg>
