<svg width="24" height="24" viewBox="0 0 24 24" fill="none" xmlns="http://www.w3.org/2000/svg">
<path d="M10 12.5H12H14M10 12.5C10 11.5 10 9.5 12 9.5C14 9.5 14 11.5 14 12.5M10 12.5C8.89543 12.5 8 13.3954 8 14.5V17C8 18.1046 8.89543 19 10 19H14C15.1046 19 16 18.1046 16 17V14.5C16 13.3954 15.1046 12.5 14 12.5M9 22H15C17.2091 22 19 20.2091 19 18V9.02395C19 7.98259 18.5939 6.98228 17.868 6.23564L14.928 3.21169C14.1749 2.43704 13.1405 2 12.06 2H9C6.79086 2 5 3.79086 5 6V18C5 20.2091 6.79086 22 9 22Z" stroke="black" stroke-width="2" stroke-linecap="round" stroke-linejoin="round"/>
</svg>
