<svg width="24" height="24" viewBox="0 0 24 24" fill="none" xmlns="http://www.w3.org/2000/svg">
<path d="M17 7L19 9M19 9L21 7M19 9V7C19 4.79086 17.2091 3 15 3M7 17L5 15M5 15L3 17M5 15V17C5 19.2091 6.79086 21 9 21M15.5 12H17.1465C17.5338 12 17.906 12.1498 18.1853 12.4179L19.5388 13.7172C19.8334 14.0001 20 14.3909 20 14.7993V18.5C20 19.3284 19.3284 20 18.5 20H15.5C14.6716 20 14 19.3284 14 18.5V13.5C14 12.6716 14.6716 12 15.5 12ZM5.5 12H8.5C9.32843 12 10 11.3284 10 10.5V6.79933C10 6.39088 9.83344 6.0001 9.5388 5.71725L8.18533 4.41792C7.90599 4.14975 7.53376 4 7.14654 4H5.5C4.67157 4 4 4.67157 4 5.5V10.5C4 11.3284 4.67157 12 5.5 12Z" stroke="black" stroke-width="2" stroke-linecap="round" stroke-linejoin="round"/>
</svg>
