<svg width="24" height="24" viewBox="0 0 24 24" fill="none" xmlns="http://www.w3.org/2000/svg">
<path d="M14.8284 17.8284C14.1046 18.5523 13.1046 19 12 19C9.79086 19 8 17.2091 8 15C8 13.8954 8.44772 12.8954 9.17157 12.1716M14.8284 17.8284C15.5523 17.1046 16 16.1046 16 15C16 12.7909 14.2091 11 12 11C10.8954 11 9.89543 11.4477 9.17157 12.1716M14.8284 17.8284L9.17157 12.1716M9 22H15C17.2091 22 19 20.2091 19 18V9.02395C19 7.98259 18.5939 6.98228 17.868 6.23564L14.928 3.21169C14.1749 2.43704 13.1405 2 12.06 2H9C6.79086 2 5 3.79086 5 6V18C5 20.2091 6.79086 22 9 22Z" stroke="black" stroke-width="2" stroke-linecap="round" stroke-linejoin="round"/>
</svg>
