<svg width="24" height="24" viewBox="0 0 24 24" fill="none" xmlns="http://www.w3.org/2000/svg">
<path fill-rule="evenodd" clip-rule="evenodd" d="M9 1C6.23858 1 4 3.23858 4 6V18C4 20.7614 6.23858 23 9 23H15C17.7614 23 20 20.7614 20 18V9.02395C20 7.72225 19.4924 6.47187 18.585 5.53856L15.645 2.51461C14.7036 1.54631 13.4106 1 12.06 1H9ZM6 6C6 4.34315 7.34315 3 9 3H12.06C12.8703 3 13.6462 3.32778 14.211 3.90876L17.151 6.93271C17.6954 7.4927 18 8.24293 18 9.02395V18C18 19.6569 16.6569 21 15 21H9C7.34315 21 6 19.6569 6 18V6ZM12 11.0498C10.3388 11.0498 8.91708 12.0753 8.33341 13.5278C8.05289 13.3885 7.70336 13.4358 7.46967 13.6695C7.17678 13.9624 7.17678 14.4372 7.46967 14.7301L8.26967 15.5301C8.51302 15.7735 8.89077 15.82 9.18587 15.6429L10.1859 15.0429C10.5411 14.8298 10.6562 14.3691 10.4431 14.0139C10.3297 13.8249 10.1462 13.7039 9.94578 13.6641C10.3829 12.9933 11.1396 12.5498 12 12.5498C12.5801 12.5498 13.1113 12.7505 13.5309 13.0868C13.8541 13.3459 14.3261 13.2939 14.5852 12.9708C14.8443 12.6476 14.7923 12.1755 14.4691 11.9165C13.793 11.3745 12.9334 11.0498 12 11.0498ZM15.7303 14.4695C15.487 14.2261 15.1092 14.1796 14.8141 14.3567L13.8141 14.9567C13.4589 15.1698 13.3438 15.6305 13.5569 15.9857C13.6703 16.1747 13.8538 16.2957 14.0542 16.3355C13.6171 17.0063 12.8604 17.4498 12 17.4498C11.4208 17.4498 10.8903 17.2497 10.4711 16.9143C10.1476 16.6556 9.67564 16.708 9.41689 17.0315C9.15814 17.3549 9.2106 17.8269 9.53405 18.0857C10.2097 18.6261 11.0681 18.9498 12 18.9498C13.6612 18.9498 15.0829 17.9243 15.6666 16.4718C15.9471 16.6111 16.2966 16.5638 16.5303 16.3301C16.8232 16.0372 16.8232 15.5624 16.5303 15.2695L15.7303 14.4695Z" fill="black"/>
</svg>
