<svg width="24" height="24" viewBox="0 0 24 24" fill="none" xmlns="http://www.w3.org/2000/svg">
<path d="M20.5404 10C19.6555 5.99202 16.1677 3 11.9999 3C8.37128 3 5.25807 5.26806 3.92935 8.5M20.5404 10L22 8.5M20.5404 10L18.3248 9.5M3.45947 14C4.34442 18.008 7.83219 21 11.9999 21C15.6286 21 18.7418 18.7319 20.0705 15.5M3.45947 14L2 15.5M3.45947 14L5.67521 14.5M10 16H14C14.5523 16 15 15.5523 15 15V10.7824C15 10.5065 14.886 10.2428 14.6849 10.0538L12.7887 8.27137C12.6032 8.09705 12.3583 8 12.1038 8H10C9.44772 8 9 8.44772 9 9V15C9 15.5523 9.44772 16 10 16Z" stroke="black" stroke-width="2" stroke-linecap="round" stroke-linejoin="round"/>
</svg>
