<svg width="24" height="24" viewBox="0 0 24 24" fill="none" xmlns="http://www.w3.org/2000/svg">
<path d="M9 14H12.8584C13.8994 14 14.6239 12.9657 14.2681 11.9874L11.4787 4.31651C11.1913 3.52614 10.4402 3 9.59915 3H5.14155C4.1006 3 3.37612 4.03434 3.73186 5.01261L6.52127 12.6835C6.80868 13.4739 7.55984 14 8.40085 14H9ZM9 14V19M9 19L4 21M9 19L14 17M9 19L14 21M9 19L4 17M16 5.47846C18.0382 6.73877 18.8007 9.42506 17.7032 11.4785M17.3249 3C20.7219 5.10051 21.9928 9.57766 20.1636 13" stroke="black" stroke-width="2" stroke-linecap="round" stroke-linejoin="round"/>
</svg>
