<svg width="24" height="24" viewBox="0 0 24 24" fill="none" xmlns="http://www.w3.org/2000/svg">
<path fill-rule="evenodd" clip-rule="evenodd" d="M13.0532 5.0472C9.84269 4.7591 6.55283 5.78994 3.91009 8.13974C3.62577 8.39255 3.56154 8.90233 3.91811 9.30607L4.9649 10.4913C6.83463 8.74491 9.10171 7.8019 11.4005 7.6623C11.1724 8.30604 11.0355 8.99304 11.006 9.70704C9.31901 9.92133 7.67453 10.6827 6.28941 11.9913L7.81418 13.7185C8.8705 12.8395 10.1002 12.3359 11.3552 12.2077C11.5946 12.9286 11.948 13.5974 12.3941 14.1929C11.2626 14.0894 10.1068 14.432 9.13655 15.2208L11.248 17.6272C11.6462 18.0812 12.3529 18.0812 12.7513 17.6273L14.2543 15.9146C14.8408 16.2868 15.4864 16.5742 16.1738 16.7594L14.2545 18.9465C13.0595 20.3082 10.9394 20.3081 9.7446 18.9463L7.00763 15.8269L7.00562 15.8246L4.17964 12.6235L4.1795 12.6233L2.41905 10.63C1.43995 9.5214 1.35759 7.73305 2.58114 6.64512C6.27957 3.35665 11.0943 2.29323 15.5147 3.45481C14.5817 3.80937 13.7442 4.35705 13.0532 5.0472Z" fill="black"/>
<path d="M20.8284 12.8284C20.1046 13.5523 19.1046 14 18 14C15.7909 14 14 12.2091 14 10C14 8.89543 14.4477 7.89543 15.1716 7.17157M20.8284 12.8284C21.5523 12.1046 22 11.1046 22 10C22 7.79086 20.2091 6 18 6C16.8954 6 15.8954 6.44772 15.1716 7.17157M20.8284 12.8284L15.1716 7.17157" stroke="black" stroke-width="2" stroke-linecap="round" stroke-linejoin="round"/>
</svg>
