<svg width="24" height="24" viewBox="0 0 24 24" fill="none" xmlns="http://www.w3.org/2000/svg">
<path fill-rule="evenodd" clip-rule="evenodd" d="M18 3C17.3262 3 16.7373 3.1715 16.2583 3.51745C15.7855 3.85886 15.4973 4.31417 15.3215 4.75361C15.1339 5.22264 15.0556 5.72766 15.0231 6.16266C13.8458 6.56792 13 7.68518 13 9V11.5C13 13.1569 14.3431 14.5 16 14.5H20C21.6569 14.5 23 13.1569 23 11.5V9C23 7.34315 21.6569 6 20 6H18H17.0509C17.0774 5.81898 17.1176 5.64859 17.1785 5.49639C17.2527 5.31083 17.3395 5.20364 17.4292 5.1388C17.5127 5.0785 17.6738 5 18 5C18.2724 5 18.4276 5.05516 18.5157 5.10389C18.9988 5.37139 19.6074 5.19655 19.8749 4.71337C20.1424 4.23019 19.9675 3.62164 19.4843 3.35414C19.0525 3.11508 18.5528 3 18 3ZM15 9C15 8.44772 15.4477 8 16 8H18H20C20.5523 8 21 8.44772 21 9V11.5C21 12.0523 20.5523 12.5 20 12.5H16C15.4477 12.5 15 12.0523 15 11.5V9ZM1.29511 7.36561C4.70835 3.97363 9.42476 2.55828 13.9256 3.11952C13.7288 3.42154 13.5787 3.72551 13.4646 4.01083C13.3522 4.2917 13.2669 4.57716 13.2021 4.85548C13.118 4.91242 13.0356 4.97185 12.9552 5.03367C9.26652 4.77325 5.48301 6.02343 2.70489 8.78424C2.31315 9.17354 1.67999 9.17156 1.29069 8.77982C0.901385 8.38808 0.903363 7.75491 1.29511 7.36561ZM4.22479 10.2761C6.21364 8.29966 8.77411 7.23837 11.3768 7.09224C11.134 7.68012 11 8.32441 11 9V9.12984C9.03969 9.34639 7.13733 10.2014 5.63458 11.6947C5.24284 12.084 4.60968 12.0821 4.22038 11.6903C3.83107 11.2986 3.83305 10.6654 4.22479 10.2761ZM7.05292 13.0869C8.16426 11.9825 9.55595 11.3272 11 11.1209V11.5C11 12.061 11.0924 12.6004 11.2628 13.1038C10.2379 13.2547 9.2512 13.722 8.46271 14.5056C8.07096 14.8949 7.4378 14.8929 7.0485 14.5011C6.6592 14.1094 6.66118 13.4762 7.05292 13.0869ZM12 15.0249C12.1684 15.0249 12.3336 15.0388 12.4946 15.0654C13.0318 15.5936 13.6879 16.0014 14.419 16.2449C14.784 16.7391 15 17.3498 15 18.0125C15 19.6683 13.651 21 12 21C10.349 21 9 19.6683 9 18.0125C9 16.3566 10.349 15.0249 12 15.0249ZM12 17.0249C11.4418 17.0249 11 17.4729 11 18.0125C11 18.552 11.4418 19 12 19C12.5582 19 13 18.552 13 18.0125C13 17.4729 12.5582 17.0249 12 17.0249Z" fill="black"/>
</svg>
