<svg width="24" height="24" viewBox="0 0 24 24" fill="none" xmlns="http://www.w3.org/2000/svg">
<path fill-rule="evenodd" clip-rule="evenodd" d="M4.22479 10.2761C6.27982 8.2339 8.94514 7.16876 11.6368 7.0807C11.3448 7.71631 11.1447 8.40337 11.0545 9.12398C9.07497 9.33061 7.15125 10.1875 5.63458 11.6947C5.24284 12.084 4.60968 12.0821 4.22038 11.6903C3.83107 11.2986 3.83305 10.6654 4.22479 10.2761ZM7.05292 13.0869C8.18666 11.9603 9.61215 11.3009 11.0874 11.109C11.1969 11.7975 11.4069 12.4525 11.7018 13.0586C10.5225 13.1282 9.36333 13.6105 8.46271 14.5056C8.07096 14.8949 7.4378 14.8929 7.0485 14.5011C6.6592 14.1094 6.66118 13.4762 7.05292 13.0869ZM1.29511 7.36561C5.13514 3.5495 10.6246 2.23524 15.6008 3.42276C14.6359 3.77498 13.7702 4.33286 13.0591 5.04141C9.33768 4.7499 5.5091 5.9975 2.70489 8.78424C2.31315 9.17354 1.67999 9.17156 1.29069 8.77982C0.901385 8.38808 0.903363 7.75491 1.29511 7.36561ZM12 17.0249C11.4418 17.0249 11 17.4729 11 18.0125C11 18.552 11.4418 19 12 19C12.5582 19 13 18.552 13 18.0125C13 17.4729 12.5582 17.0249 12 17.0249ZM9 18.0125C9 16.3566 10.349 15.0249 12 15.0249C13.651 15.0249 15 16.3566 15 18.0125C15 19.6683 13.651 21 12 21C10.349 21 9 19.6683 9 18.0125ZM20.7078 11.2936L16.7064 7.29218C17.098 7.10471 17.5365 7 18 7C19.6569 7 21 8.34315 21 10C21 10.4635 20.8953 10.902 20.7078 11.2936ZM15.2922 8.7064L19.2936 12.7078C18.902 12.8953 18.4635 13 18 13C16.3431 13 15 11.6569 15 10C15 9.53648 15.1047 9.09801 15.2922 8.7064ZM18 5C16.6196 5 15.3682 5.56074 14.4645 6.46447C13.5607 7.36819 13 8.61957 13 10C13 12.7614 15.2386 15 18 15C19.3804 15 20.6318 14.4393 21.5355 13.5355C22.4393 12.6318 23 11.3804 23 10C23 7.23858 20.7614 5 18 5Z" fill="black"/>
</svg>
