<svg width="24" height="24" viewBox="0 0 24 24" fill="none" xmlns="http://www.w3.org/2000/svg">
<path fill-rule="evenodd" clip-rule="evenodd" d="M19.8787 5.87868C20.0329 5.72445 20.1998 5.59053 20.3759 5.4769C14.5135 1.63343 6.42975 2.26295 1.29511 7.36561C0.903363 7.75491 0.901385 8.38808 1.29069 8.77982C1.67999 9.17156 2.31315 9.17354 2.70489 8.78424C5.9328 5.57644 10.518 4.40802 14.7348 5.27896C15.8448 4.76293 17.2055 4.96283 18.1213 5.87868L19 6.75736L19.8787 5.87868ZM13.8787 16.1213C13.6388 15.8814 13.448 15.611 13.3063 15.3225C12.911 15.1317 12.4676 15.0249 12 15.0249C10.349 15.0249 9 16.3566 9 18.0125C9 19.6683 10.349 21 12 21C13.651 21 15 19.6683 15 18.0125C15 17.5423 14.8913 17.0983 14.6977 16.7035C14.4017 16.5609 14.1242 16.3668 13.8787 16.1213ZM13.8787 11.8787L14.3169 11.4404C11.8593 10.5854 9.0179 11.1342 7.05292 13.0869C6.66118 13.4762 6.6592 14.1094 7.0485 14.5011C7.4378 14.8929 8.07096 14.8949 8.46271 14.5056C9.72461 13.2515 11.4941 12.8077 13.1154 13.1741C13.2507 12.6998 13.5051 12.2522 13.8787 11.8787ZM13.2318 9.15825C12.9626 8.51418 12.9279 7.79529 13.1277 7.13195C9.95087 6.80852 6.65951 7.85657 4.22479 10.2761C3.83305 10.6654 3.83107 11.2986 4.22038 11.6903C4.60968 12.0821 5.24284 12.084 5.63458 11.6947C7.70597 9.63625 10.5366 8.79075 13.2318 9.15825ZM12 17.0249C11.4418 17.0249 11 17.4729 11 18.0125C11 18.552 11.4418 19 12 19C12.5582 19 13 18.552 13 18.0125C13 17.4729 12.5582 17.0249 12 17.0249ZM16.7071 7.29289C16.3166 6.90237 15.6834 6.90237 15.2929 7.29289C14.9024 7.68342 14.9024 8.31658 15.2929 8.70711L17.5858 11L15.2929 13.2929C14.9024 13.6834 14.9024 14.3166 15.2929 14.7071C15.6834 15.0976 16.3166 15.0976 16.7071 14.7071L19 12.4142L21.2929 14.7071C21.6834 15.0976 22.3166 15.0976 22.7071 14.7071C23.0976 14.3166 23.0976 13.6834 22.7071 13.2929L20.4142 11L22.7071 8.70711C23.0976 8.31658 23.0976 7.68342 22.7071 7.29289C22.3166 6.90237 21.6834 6.90237 21.2929 7.29289L19 9.58579L16.7071 7.29289Z" fill="black"/>
</svg>
