<svg width="24" height="24" viewBox="0 0 24 24" fill="none" xmlns="http://www.w3.org/2000/svg">
<path fill-rule="evenodd" clip-rule="evenodd" d="M13.9201 4.11325C14.9097 2.62892 17.0908 2.62892 18.0804 4.11325L21.2776 8.90908C22.3852 10.5705 21.1942 12.7958 19.1975 12.7958H12.803C10.8063 12.7958 9.61531 10.5705 10.7229 8.90908L13.9201 4.11325ZM16.4163 5.22265C16.2184 4.92578 15.7821 4.92578 15.5842 5.22265L12.387 10.0185C12.1655 10.3508 12.4037 10.7958 12.803 10.7958H19.1975C19.5968 10.7958 19.835 10.3508 19.6135 10.0185L16.4163 5.22265ZM16 5.7959C16.5523 5.7959 17 6.24365 17 6.7959C17 7.12019 16.7436 7.53658 16.4569 8.00229C16.3015 8.25462 16.1372 8.52142 16 8.7959C15.8628 8.52142 15.6985 8.25462 15.5431 8.00229L15.5431 8.00228C15.2564 7.53658 15 7.12019 15 6.7959C15 6.24365 15.4477 5.7959 16 5.7959ZM16 10.2959C16.2761 10.2959 16.5 10.072 16.5 9.7959C16.5 9.51978 16.2761 9.2959 16 9.2959C15.7239 9.2959 15.5 9.51978 15.5 9.7959C15.5 10.072 15.7239 10.2959 16 10.2959ZM1.29511 7.36561C4.36344 4.31639 8.48489 2.8645 12.5561 3.00993L11.2142 5.02277C8.10272 5.20327 5.04663 6.45709 2.70489 8.78424C2.31315 9.17354 1.67999 9.17156 1.29069 8.77982C0.901385 8.38808 0.903363 7.75491 1.29511 7.36561ZM4.22479 10.2761C5.77938 8.73122 7.68322 7.74546 9.6835 7.31885L9.36295 7.79968C8.95489 8.41178 8.72016 9.0664 8.63572 9.72049C7.54326 10.1571 6.51962 10.8152 5.63458 11.6947C5.24284 12.084 4.60968 12.0821 4.22038 11.6903C3.83107 11.2986 3.83305 10.6654 4.22479 10.2761ZM7.05292 13.0869C7.59711 12.5461 8.20851 12.113 8.86037 11.7876C9.08681 12.4256 9.45379 13.0108 9.93397 13.492C9.40062 13.7321 8.90104 14.07 8.46271 14.5056C8.07096 14.8949 7.4378 14.8929 7.0485 14.5011C6.6592 14.1094 6.66118 13.4762 7.05292 13.0869ZM16.2717 14.7958C16.2526 14.7964 16.2335 14.7964 16.2144 14.7958H16.2717ZM12 17.0249C11.4418 17.0249 11 17.4729 11 18.0125C11 18.552 11.4418 19 12 19C12.5582 19 13 18.552 13 18.0125C13 17.4729 12.5582 17.0249 12 17.0249ZM9 18.0125C9 16.3566 10.349 15.0249 12 15.0249C13.651 15.0249 15 16.3566 15 18.0125C15 19.6683 13.651 21 12 21C10.349 21 9 19.6683 9 18.0125Z" fill="black"/>
</svg>
