<svg width="24" height="24" viewBox="0 0 24 24" fill="none" xmlns="http://www.w3.org/2000/svg">
<path d="M7.75781 15.1651L4.92969 11.9615M7.75781 15.1651L10.4968 18.2868C11.2934 19.1946 12.7067 19.1947 13.5034 18.2869L16.2431 15.1651M7.75781 15.1651C10.1008 12.5113 13.8999 12.5117 16.2431 15.1651M16.2431 15.1651L19.0718 11.9615M4.92969 11.9615C8.83493 7.5383 15.1666 7.5383 19.0718 11.9615M4.92969 11.9615L3.1691 9.96804C2.50126 9.21186 2.49219 8.0628 3.24613 7.39243C8.33342 2.86904 15.667 2.86921 20.7542 7.39281C21.508 8.06308 21.499 9.21189 20.8315 9.96809L19.0718 11.9615" stroke="black" stroke-width="2" stroke-linecap="round" stroke-linejoin="round"/>
</svg>
