<svg width="24" height="24" viewBox="0 0 24 24" fill="none" xmlns="http://www.w3.org/2000/svg">
<path fill-rule="evenodd" clip-rule="evenodd" d="M12.5545 3.01215C9.02876 2.87017 5.46548 4.08148 2.58114 6.6461C1.35759 7.73403 1.43995 9.52237 2.41905 10.631L4.1795 12.6243L4.17964 12.6244L7.00562 15.8256L7.00763 15.8278L9.7446 18.9473C10.9394 20.3091 13.0595 20.3092 14.2545 18.9475L16.9922 15.8279L16.9942 15.8256L17.9036 14.7957H14.2496C14.4606 14.9193 14.6657 15.0613 14.8632 15.2218L12.7513 17.6283C12.3529 18.0822 11.6462 18.0821 11.248 17.6282L9.13655 15.2218C9.71199 14.754 10.3527 14.4431 11.0148 14.2892C10.3241 13.927 9.75286 13.3925 9.33966 12.7574C8.80485 13.0014 8.29179 13.322 7.81418 13.7195L6.28941 11.9923C7.00134 11.3197 7.78178 10.7917 8.60129 10.4082C8.57888 9.61804 8.76762 8.80465 9.20919 8.04591C7.68752 8.49089 6.23459 9.30635 4.9649 10.4923L3.91811 9.30704C3.56154 8.9033 3.62577 8.39352 3.91009 8.14072C6.04834 6.23949 8.61023 5.20171 11.211 5.02737L12.5545 3.01215Z" fill="black"/>
<path fill-rule="evenodd" clip-rule="evenodd" d="M18.0804 4.11325C17.0908 2.62892 14.9097 2.62892 13.9201 4.11325L10.7229 8.90908C9.61531 10.5705 10.8063 12.7958 12.803 12.7958H19.1975C21.1942 12.7958 22.3852 10.5705 21.2776 8.90908L18.0804 4.11325ZM15.5842 5.22265C15.7821 4.92578 16.2184 4.92578 16.4163 5.22265L19.6135 10.0185C19.835 10.3508 19.5968 10.7958 19.1975 10.7958H12.803C12.4037 10.7958 12.1655 10.3508 12.387 10.0185L15.5842 5.22265ZM17 6.7959C17 6.24365 16.5523 5.7959 16 5.7959C15.4477 5.7959 15 6.24365 15 6.7959C15 7.12019 15.2564 7.53658 15.5431 8.00229C15.6985 8.25462 15.8628 8.52142 16 8.7959C16.1372 8.52142 16.3015 8.25462 16.4569 8.00229C16.7436 7.53658 17 7.12019 17 6.7959ZM16.5 9.7959C16.5 10.072 16.2761 10.2959 16 10.2959C15.7239 10.2959 15.5 10.072 15.5 9.7959C15.5 9.51978 15.7239 9.2959 16 9.2959C16.2761 9.2959 16.5 9.51978 16.5 9.7959Z" fill="black"/>
</svg>
