<svg width="24" height="24" viewBox="0 0 24 24" fill="none" xmlns="http://www.w3.org/2000/svg">
<path fill-rule="evenodd" clip-rule="evenodd" d="M15.0945 3.35135C14.2568 3.64736 13.4705 4.13041 12.8004 4.80051C12.7301 4.87079 12.6619 4.94234 12.5958 5.0151C9.53195 4.85989 6.42743 5.90144 3.91009 8.13974C3.62577 8.39255 3.56154 8.90233 3.91811 9.30607L4.9649 10.4913C6.77401 8.80153 8.95511 7.8639 11.1771 7.67841C11.0144 8.34202 10.9638 9.02744 11.0251 9.70464C9.33143 9.91559 7.67977 10.6778 6.28941 11.9913L7.81418 13.7185C8.99429 12.7365 10.3908 12.2231 11.7972 12.1781C12.0644 12.6492 12.3988 13.0925 12.8004 13.4941C14.0828 14.7765 15.7907 15.3739 17.4696 15.2862L16.9942 15.8247L16.9922 15.827L14.2545 18.9465C13.0595 20.3082 10.9394 20.3081 9.7446 18.9463L7.00763 15.8269L7.00562 15.8246L4.17964 12.6235L4.1795 12.6233L2.41905 10.63C1.43995 9.5214 1.35759 7.73305 2.58114 6.64512C6.16269 3.46057 10.7911 2.36266 15.0945 3.35135ZM9.13655 15.2208C10.852 13.8262 13.1475 13.8263 14.8632 15.2208L12.7513 17.6273C12.3529 18.0812 11.6462 18.0812 11.248 17.6272L9.13655 15.2208Z" fill="black"/>
<path d="M19.3728 11.3728C18.1437 12.6019 16.1509 12.6019 14.9218 11.3728C13.6927 10.1437 13.6927 8.15094 14.9218 6.92183C16.1509 5.69272 18.1437 5.69272 19.3728 6.92183C20.6019 8.15094 20.6019 10.1437 19.3728 11.3728ZM19.3728 11.3728L20.7443 12.7443M20.7443 12.7443L20.8101 12.6784C20.8979 12.5906 21.0402 12.5906 21.128 12.6784L21.9342 13.4845C22.0219 13.5723 22.0219 13.7147 21.9342 13.8025L21.8025 13.9342C21.7147 14.0219 21.5723 14.0219 21.4845 13.9342L20.6784 13.128C20.5906 13.0402 20.5906 12.8979 20.6784 12.8101L20.7443 12.7443ZM20.7443 12.7443L21.5 13.5" stroke="black" stroke-width="2" stroke-linecap="round" stroke-linejoin="round"/>
</svg>
