<svg width="24" height="24" viewBox="0 0 24 24" fill="none" xmlns="http://www.w3.org/2000/svg">
<path fill-rule="evenodd" clip-rule="evenodd" d="M13.663 5.11794C10.2626 4.63363 6.72046 5.6409 3.91009 8.13974C3.62577 8.39255 3.56154 8.90233 3.91811 9.30607L4.9649 10.4913C7.29059 8.31902 10.2311 7.38975 13.0827 7.7035C13.2075 8.22307 13.4727 8.7158 13.8782 9.12132L14.7569 10L14.6548 10.1021C11.8364 9.10554 8.67745 9.73527 6.28941 11.9913L7.81418 13.7185C9.35661 12.435 11.2687 11.952 13.0894 12.2692C12.9132 12.9737 12.996 13.7298 13.3379 14.3859C11.9271 13.932 10.3796 14.2103 9.13655 15.2208L11.248 17.6272C11.6462 18.0812 12.3529 18.0812 12.7513 17.6273L14.5207 15.6111C15.2767 16.0398 16.1793 16.1141 16.9861 15.8339L14.2545 18.9465C13.0595 20.3082 10.9394 20.3081 9.7446 18.9463L7.00763 15.8269L7.00562 15.8246L4.17964 12.6235L4.1795 12.6233L2.41905 10.63C1.43995 9.5214 1.35759 7.73305 2.58114 6.64512C7.44732 2.31834 14.246 1.84352 19.5363 5.22054L18.9995 5.75736L18.1208 4.87868C16.9493 3.70711 15.0498 3.70711 13.8782 4.87868C13.8014 4.95544 13.7297 5.03533 13.663 5.11794Z" fill="black"/>
<path d="M16 7L19 10M19 10L22 13M19 10L22 7M19 10L16 13" stroke="black" stroke-width="2" stroke-linecap="round" stroke-linejoin="round"/>
</svg>
