<svg width="24" height="24" viewBox="0 0 24 24" fill="none" xmlns="http://www.w3.org/2000/svg">
<path fill-rule="evenodd" clip-rule="evenodd" d="M12.4108 13.0665C11.9122 12.4653 11.5457 11.7914 11.3114 11.0834C9.75703 11.2355 8.24397 11.9033 7.05292 13.0869C6.66118 13.4762 6.6592 14.1094 7.0485 14.5011C7.4378 14.8929 8.07096 14.8949 8.46271 14.5056C9.54367 13.4313 10.9971 12.9516 12.4108 13.0665ZM11 9.12983C11.002 8.44039 11.1192 7.75121 11.3517 7.09369C8.7576 7.24522 6.20722 8.30604 4.22479 10.2761C3.83305 10.6654 3.83107 11.2986 4.22038 11.6903C4.60968 12.0821 5.24284 12.084 5.63458 11.6947C7.13733 10.2014 9.03971 9.34638 11 9.12983ZM12.8005 4.80051C12.7309 4.87017 12.6632 4.94108 12.5976 5.01317C9.02322 4.85556 5.3933 6.11258 2.70489 8.78424C2.31315 9.17354 1.67999 9.17156 1.29069 8.77982C0.901385 8.38808 0.903363 7.75491 1.29511 7.36561C5.02407 3.65988 10.3084 2.31336 15.1678 3.326C14.3028 3.61942 13.4901 4.11092 12.8005 4.80051ZM12 17.0249C11.4418 17.0249 11 17.4729 11 18.0125C11 18.552 11.4418 19 12 19C12.5582 19 13 18.552 13 18.0125C13 17.4729 12.5582 17.0249 12 17.0249ZM9 18.0125C9 16.3566 10.349 15.0249 12 15.0249C13.651 15.0249 15 16.3566 15 18.0125C15 19.6683 13.651 21 12 21C10.349 21 9 19.6683 9 18.0125ZM15.6289 7.62894C16.4675 6.79035 17.8271 6.79035 18.6657 7.62894C19.5043 8.46752 19.5043 9.82713 18.6657 10.6657C17.8271 11.5043 16.4675 11.5043 15.6289 10.6657C14.7904 9.82713 14.7904 8.46752 15.6289 7.62894ZM20.0799 6.21472C18.4603 4.59509 15.8344 4.59509 14.2147 6.21472C12.5951 7.83435 12.5951 10.4603 14.2147 12.0799C15.5906 13.4558 17.6926 13.6629 19.287 12.7012L19.614 13.0282C19.6281 13.3217 19.7472 13.611 19.9713 13.8351L20.7774 14.6413C21.2557 15.1196 22.0313 15.1196 22.5096 14.6413L22.6413 14.5096C23.1196 14.0313 23.1196 13.2557 22.6413 12.7774L21.8351 11.9713C21.611 11.7472 21.3217 11.6281 21.0282 11.614L20.7012 11.287C21.6629 9.69256 21.4558 7.59056 20.0799 6.21472Z" fill="black"/>
</svg>
