<svg width="24" height="24" viewBox="0 0 24 24" fill="none" xmlns="http://www.w3.org/2000/svg">
<path fill-rule="evenodd" clip-rule="evenodd" d="M13.9162 3.13378C9.95989 2.57905 5.83776 3.74949 2.58114 6.64512C1.35759 7.73305 1.43995 9.5214 2.41905 10.63L4.1795 12.6233L4.17964 12.6235L7.00562 15.8246L7.00763 15.8269L9.7446 18.9463C10.9394 20.3081 13.0595 20.3082 14.2545 18.9465L16.4015 16.5H15.9999C15.3185 16.5 14.6688 16.3637 14.0769 16.1168L12.7513 17.6273C12.3529 18.0812 11.6462 18.0812 11.248 17.6272L9.13655 15.2208C9.93116 14.5748 10.8502 14.2281 11.7784 14.1805C11.4121 13.6049 11.1603 12.9492 11.0551 12.2456C9.90493 12.4187 8.78616 12.9097 7.81418 13.7185L6.28941 11.9913C7.67288 10.6843 9.31508 9.92315 10.9999 9.70781V9C10.9999 8.54254 11.0613 8.09943 11.1764 7.67847C8.95469 7.86408 6.77383 8.8017 4.9649 10.4913L3.91811 9.30607C3.56154 8.90233 3.62577 8.39255 3.91009 8.13974C6.52426 5.81534 9.77164 4.78154 12.9491 5.03832C13.0314 4.97482 13.1158 4.91384 13.2021 4.85548C13.2668 4.57716 13.3521 4.2917 13.4645 4.01083C13.5768 3.73 13.724 3.4311 13.9162 3.13378Z" fill="black"/>
<path d="M16 7V7C14.8954 7 14 7.89543 14 9V11.5C14 12.6046 14.8954 13.5 16 13.5H20C21.1046 13.5 22 12.6046 22 11.5V9C22 7.89543 21.1046 7 20 7V7M16 7H18H20M16 7C16 6 16 4 18 4C20 4 20 6 20 7" stroke="black" stroke-width="2" stroke-linecap="round" stroke-linejoin="round"/>
</svg>
