<svg width="24" height="24" viewBox="0 0 24 24" fill="none" xmlns="http://www.w3.org/2000/svg">
<path d="M9.05565 8.95415C9.7191 8.96036 10.3928 9.07796 11.0518 9.31867C11.7108 9.55937 12.3022 9.90389 12.8144 10.3271M9.05565 8.95415C6.58409 8.93103 4.25503 10.4539 3.36152 12.9175C2.46802 15.3812 3.27681 18.0502 5.18494 19.6268C5.69715 20.0501 6.28858 20.3946 6.94756 20.6353C7.60654 20.876 8.28026 20.9936 8.94371 20.9998C11.4153 21.0229 13.7443 19.5001 14.6378 17.0364C15.5313 14.5728 14.7225 11.9038 12.8144 10.3271M9.05565 8.95415L9.34343 8.16066C9.53232 7.63982 10.1062 7.37128 10.6251 7.56085L11.5648 7.90409M12.8144 10.3271L13.1022 9.53363C13.2911 9.01279 13.0235 8.4369 12.5045 8.24733L11.5648 7.90409M11.5648 7.90409L12.2567 7.2122C12.9623 6.50662 14.0668 6.39459 14.8997 6.94415C15.8062 7.54229 17.0192 7.35102 17.6977 6.50293M20 4.5L21 3.5M16.75 4L16 3M21 8.5L20 8M9 18C7.34315 18 6 16.6569 6 15" stroke="black" stroke-width="2" stroke-linecap="round" stroke-linejoin="round"/>
</svg>
