<svg width="24" height="24" viewBox="0 0 24 24" fill="none" xmlns="http://www.w3.org/2000/svg">
<path fill-rule="evenodd" clip-rule="evenodd" d="M11.8571 2C10.2792 2 9 3.27919 9 4.85714C9 5.48833 9.51167 6 10.1429 6H13.8571C14.4883 6 15 5.48833 15 4.85714C15 3.27919 13.7208 2 12.1429 2H11.8571ZM3.70711 3.29289C3.31658 2.90237 2.68342 2.90237 2.29289 3.29289C1.90237 3.68342 1.90237 4.31658 2.29289 4.70711L6.55397 8.96818C6.20229 9.56362 6 10.2586 6 11H3C2.44772 11 2 11.4477 2 12C2 12.5523 2.44772 13 3 13H6C6 14.035 6.26289 15.0101 6.72509 15.8607L2.29289 20.2929C1.90237 20.6834 1.90237 21.3166 2.29289 21.7071C2.68342 22.0976 3.31658 22.0976 3.70711 21.7071L7.96974 17.4445C9.03401 18.41 10.4481 19 12 19C13.5519 19 14.9662 18.4102 16.0306 17.4445L20.2929 21.7071C20.6834 22.0976 21.3165 22.0976 21.7071 21.7071C22.0976 21.3166 22.0976 20.6835 21.7071 20.2929L17.2752 15.8607C17.7373 15.01 18 14.0348 18 13H21C21.5523 13 22 12.5523 22 12C22 11.4477 21.5523 11 21 11H18C18 10.2586 17.7977 9.56362 17.446 8.96818L21.7071 4.70711C22.0976 4.31658 22.0976 3.68342 21.7071 3.29289C21.3166 2.90237 20.6834 2.90237 20.2929 3.29289L16.0318 7.55397C15.4364 7.20229 14.7414 7 14 7H10C9.25862 7 8.56362 7.20229 7.96818 7.55397L3.70711 3.29289ZM8.58579 9.58579C8.94881 9.22276 9.44744 9 10 9H14C14.5526 9 15.0512 9.22276 15.4142 9.58579C15.7772 9.94881 16 10.4474 16 11V12V13C16 13.9016 15.7029 14.731 15.2008 15.3994C14.6624 16.1162 13.8912 16.6449 13 16.8741V13C13 12.4477 12.5523 12 12 12C11.4477 12 11 12.4477 11 13V16.8741C10.109 16.6448 9.33794 16.1161 8.79954 15.3994C8.29728 14.7308 8 13.9015 8 13V12V11C8 10.4474 8.22276 9.94881 8.58579 9.58579Z" fill="black"/>
</svg>
