<svg width="24" height="24" viewBox="0 0 24 24" fill="none" xmlns="http://www.w3.org/2000/svg">
<path fill-rule="evenodd" clip-rule="evenodd" d="M13 3C13 2.44772 12.5523 2 12 2C11.4477 2 11 2.44772 11 3V8.625C11 9.17728 11.4477 9.625 12 9.625C12.5523 9.625 13 9.17728 13 8.625V3ZM3.70713 5.66789C3.3166 5.27737 2.68344 5.27737 2.29291 5.66789C1.90239 6.05842 1.90239 6.69158 2.29291 7.08211L5.66791 10.4571C6.05844 10.8476 6.6916 10.8476 7.08213 10.4571C7.47265 10.0666 7.47265 9.43342 7.08213 9.04289L3.70713 5.66789ZM21.6319 7.15733C22.0224 6.7668 22.0224 6.13364 21.6319 5.74311C21.2414 5.35259 20.6082 5.35259 20.2177 5.74311L16.9179 9.04289C16.5274 9.43342 16.5274 10.0666 16.9179 10.4571C17.3084 10.8476 17.9416 10.8476 18.3321 10.4571L21.6319 7.15733ZM7.50776 15.5C6.12224 15.5 4.77656 16.1248 4.00047 17.2395L2.25457 19.7471L3.07139 20.3158L2.25456 19.7471C1.8989 20.2579 1.93875 20.8732 2.23285 21.3208C2.51546 21.751 3.00272 22 3.52301 22H20.477C20.9973 22 21.4846 21.751 21.7672 21.3208C22.0613 20.8732 22.1011 20.2579 21.7455 19.7471L19.9996 17.2395C19.2235 16.1248 17.8778 15.5 16.4923 15.5H7.50776ZM5.64183 18.3823C5.9982 17.8704 6.6922 17.5 7.50776 17.5H16.4923C17.3078 17.5 18.0018 17.8704 18.3582 18.3823L19.4846 20H4.51548L5.64183 18.3823ZM15.9992 14.5H8.00088C7.72426 14.5 7.50002 14.2644 7.50002 13.9737V13.1842C7.50002 12.5302 8.00457 12 8.62696 12H15.3731C15.9955 12 16.5 12.5302 16.5 13.1842V13.9737C16.5 14.2644 16.2758 14.5 15.9992 14.5Z" fill="black"/>
</svg>
