<svg width="24" height="24" viewBox="0 0 24 24" fill="none" xmlns="http://www.w3.org/2000/svg">
<path d="M16.4923 16.5H7.50774M16.4923 16.5C17.5928 16.5 18.6126 16.9976 19.1789 17.8109L20.9248 20.3185C21.1336 20.6184 20.8829 21 20.477 21H3.52299C3.1171 21 2.86639 20.6184 3.07522 20.3185L4.82113 17.8109C5.38735 16.9976 6.4072 16.5 7.50774 16.5M16.4923 16.5V14.25C16.4923 13.6287 15.9886 13.125 15.3673 13.125H8.63274C8.01142 13.125 7.50774 13.6287 7.50774 14.25V16.5M12 8.625V3M17.625 9.75L20.9248 6.45022M6.375 9.75L3 6.375" stroke="black" stroke-width="2" stroke-linecap="round" stroke-linejoin="round"/>
</svg>
