<svg width="24" height="24" viewBox="0 0 24 24" fill="none" xmlns="http://www.w3.org/2000/svg">
<path d="M11.999 16V13.6103M11.999 16H6.14902M11.999 16H17.849M11.999 13.6103C11.999 12.9207 11.7146 12.2594 11.2082 11.7718L9.29902 9.93333C8.80197 9.45469 7.99608 9.45469 7.49902 9.93333C7.00197 10.412 7.00197 11.188 7.49903 11.6667M11.999 13.6103C11.999 12.9207 12.2835 12.2594 12.7898 11.7718L14.699 9.93333C15.1961 9.45469 16.002 9.45469 16.499 9.93333C16.9961 10.412 16.9961 11.188 16.499 11.6667M7.49903 11.6667L8.39902 12.5333M7.49903 11.6667L6.48984 10.6949C5.98349 10.2073 5.69902 9.54594 5.69902 8.85638V4.3C5.69902 3.58203 5.09461 3 4.34902 3C3.60344 3 2.99902 3.58203 2.99902 4.3V11.8897C2.99902 12.5793 3.28349 13.2406 3.78984 13.7282L6.14902 16M6.14902 16H3M16.499 11.6667L15.599 12.5333M16.499 11.6667L17.5082 10.6949C18.0146 10.2073 18.299 9.54594 18.299 8.85638V4.3C18.299 3.58203 18.9035 3 19.649 3C20.3946 3 20.999 3.58203 20.999 4.3V11.8897C20.999 12.5793 20.7146 13.2406 20.2082 13.7282L17.849 16M17.849 16H20.999M11.999 19H6.14902M11.999 19H17.849M11.999 19L12 21M6.14902 19H3M6.14902 19V21M17.849 19H20.999M17.849 19L17.85 21" stroke="black" stroke-width="2" stroke-linecap="round" stroke-linejoin="round"/>
</svg>
