<svg width="24" height="24" viewBox="0 0 24 24" fill="none" xmlns="http://www.w3.org/2000/svg">
<path fill-rule="evenodd" clip-rule="evenodd" d="M9.75 4C10.3023 4 10.75 3.55228 10.75 3C10.75 2.44772 10.3023 2 9.75 2C9.19772 2 8.75 2.44772 8.75 3C8.75 3.55228 9.19772 4 9.75 4ZM7 7C7.55228 7 8 6.55228 8 6C8 5.44772 7.55228 5 7 5C6.44772 5 6 5.44772 6 6C6 6.55228 6.44772 7 7 7ZM14.25 4C14.8023 4 15.25 3.55228 15.25 3C15.25 2.44772 14.8023 2 14.25 2C13.6977 2 13.25 2.44772 13.25 3C13.25 3.55228 13.6977 4 14.25 4ZM17 7C17.5523 7 18 6.55228 18 6C18 5.44772 17.5523 5 17 5C16.4477 5 16 5.44772 16 6C16 6.55228 16.4477 7 17 7ZM14.4048 19.0338C14.1456 19.6655 13.808 20.2568 13.4041 20.7954C14.4052 21.5515 15.6495 22 17 22C20.3216 22 23 19.2872 23 15.9583C23 13.8386 21.9152 11.972 20.2726 10.8938C20.2605 9.85343 19.4181 9 18.3637 9H18C18 8.44772 17.5523 8 17 8C16.4478 8 16 8.44772 16 9H15.6364C14.5819 9 13.7396 9.85343 13.7274 10.8938C13.6031 10.9754 13.482 11.0616 13.3643 11.152C13.7726 11.6873 14.115 12.2756 14.3793 12.9048C14.6238 12.6903 14.8944 12.5053 15.1855 12.3553C15.7292 12.075 16.345 11.9167 17 11.9167C17.6551 11.9167 18.2709 12.075 18.8146 12.3553C20.111 13.0235 21 14.3848 21 15.9583C21 18.1983 19.2014 20 17 20C16.0116 20 15.1044 19.6368 14.4048 19.0338ZM8 9C8 8.44772 7.55228 8 7 8C6.44772 8 6 8.44772 6 9C4.96393 9 4.11187 9.78781 4.01017 10.7971C2.21251 11.8322 1 13.7736 1 16C1 19.3137 3.68629 22 7 22C10.3137 22 13 19.3137 13 16C13 13.7736 11.7875 11.8322 9.98983 10.7971C9.88813 9.78781 9.03607 9 8 9ZM5.40037 12.3324C5.88895 12.1189 6.42927 12 7 12C7.57073 12 8.11105 12.1189 8.59963 12.3324C10.0144 12.9506 11 14.3613 11 16C11 18.2091 9.20914 20 7 20C4.79086 20 3 18.2091 3 16C3 14.3613 3.98556 12.9506 5.40037 12.3324Z" fill="black"/>
</svg>
