<svg width="24" height="24" viewBox="0 0 24 24" fill="none" xmlns="http://www.w3.org/2000/svg">
<path fill-rule="evenodd" clip-rule="evenodd" d="M8 8C8 5.79086 9.79086 4 12 4C14.2091 4 16 5.79086 16 8V10H8V8ZM18 8V10H19C20.6569 10 22 11.3431 22 13V19C22 20.6569 20.6569 22 19 22H5C3.34315 22 2 20.6569 2 19V13C2 11.3431 3.34315 10 5 10H6V8C6 4.68629 8.68629 2 12 2C15.3137 2 18 4.68629 18 8ZM4 13C4 12.4477 4.44772 12 5 12H7H17H19C19.5523 12 20 12.4477 20 13V19C20 19.5523 19.5523 20 19 20H5C4.44772 20 4 19.5523 4 19V13ZM12 13.5C12.8284 13.5 13.5 14.1716 13.5 15C13.5 15.4443 13.3069 15.8434 13 16.1181V17.5C13 18.0523 12.5523 18.5 12 18.5C11.4477 18.5 11 18.0523 11 17.5V16.1181C10.6931 15.8434 10.5 15.4443 10.5 15C10.5 14.1716 11.1716 13.5 12 13.5Z" fill="black"/>
</svg>
