<svg width="24" height="24" viewBox="0 0 24 24" fill="none" xmlns="http://www.w3.org/2000/svg">
<path d="M7 11H5C3.89543 11 3 11.8954 3 13V19C3 20.1046 3.89543 21 5 21H19C20.1046 21 21 20.1046 21 19V13C21 11.8954 20.1046 11 19 11H17M7 11V8C7 5.23858 9.23858 3 12 3C14.7614 3 17 5.23858 17 8V11M7 11H17M12.0002 14.5043C11.5004 13.9524 10.6669 13.8039 10.0406 14.3093C9.41436 14.8147 9.3262 15.6596 9.818 16.2573C10.3098 16.855 12.0002 18.25 12.0002 18.25C12.0002 18.25 13.6907 16.855 14.1825 16.2573C14.6743 15.6596 14.5969 14.8094 13.9599 14.3093C13.3228 13.8093 12.5001 13.9524 12.0002 14.5043Z" stroke="black" stroke-width="2" stroke-linecap="round" stroke-linejoin="round"/>
</svg>
