<svg width="24" height="24" viewBox="0 0 24 24" fill="none" xmlns="http://www.w3.org/2000/svg">
<path fill-rule="evenodd" clip-rule="evenodd" d="M8 8C8 5.79086 9.79086 4 12 4C14.2091 4 16 5.79086 16 8V10H8V8ZM18 8V10H19C20.6569 10 22 11.3431 22 13V19C22 20.6569 20.6569 22 19 22H5C3.34315 22 2 20.6569 2 19V13C2 11.3431 3.34315 10 5 10H6V8C6 4.68629 8.68629 2 12 2C15.3137 2 18 4.68629 18 8ZM4 13C4 12.4477 4.44772 12 5 12H7H17H19C19.5523 12 20 12.4477 20 13V19C20 19.5523 19.5523 20 19 20H5C4.44772 20 4 19.5523 4 19V13ZM8.31896 17.0844L8.31892 17.0844C8.17975 16.9588 8.11015 16.896 8.05996 16.838C7.64668 16.3606 7.64668 15.6394 8.05996 15.162C8.11015 15.104 8.17974 15.0412 8.31891 14.9156C8.75689 14.5205 8.97587 14.323 9.18364 14.1717C10.872 12.9428 13.128 12.9428 14.8164 14.1717C15.0241 14.323 15.2431 14.5205 15.6811 14.9157L15.6811 14.9157L15.6811 14.9157C15.8203 15.0412 15.8899 15.104 15.94 15.162C16.3533 15.6394 16.3533 16.3606 15.94 16.838C15.8899 16.896 15.8202 16.9588 15.6811 17.0843L15.6811 17.0844C15.2431 17.4795 15.0241 17.677 14.8164 17.8283C13.128 19.0572 10.872 19.0572 9.18364 17.8283C8.97589 17.677 8.7569 17.4795 8.31896 17.0844ZM13.2208 16C13.2208 16.6951 12.6742 17.2586 12 17.2586C11.3258 17.2586 10.7792 16.6951 10.7792 16C10.7792 15.3049 11.3258 14.7414 12 14.7414C12.6742 14.7414 13.2208 15.3049 13.2208 16Z" fill="black"/>
</svg>
