<svg width="24" height="24" viewBox="0 0 24 24" fill="none" xmlns="http://www.w3.org/2000/svg">
<path fill-rule="evenodd" clip-rule="evenodd" d="M8.11938 7.19361C10.7 6.93546 13.3 6.93546 15.8806 7.19361L16.5243 7.258C19.0649 7.51213 21 9.65073 21 12.2054V12.5344C21 14.5693 19.7075 16.2797 17.9232 16.9299C17.5515 17.0653 17.1813 17.0036 16.8086 16.7436C16.4157 16.4695 16.0586 15.9904 15.8579 15.4144L15.6127 14.7109C15.075 13.168 13.6332 12.1221 12 12.1221C10.3668 12.1221 8.92501 13.168 8.3873 14.7109L8.14211 15.4144C7.94137 15.9904 7.58431 16.4695 7.19145 16.7436C6.81875 17.0036 6.44846 17.0653 6.07683 16.9299C4.29249 16.2797 3 14.5693 3 12.5344V12.2054C3 9.65073 4.93515 7.51213 7.4757 7.258L8.11938 7.19361ZM16.0797 5.20354C13.3667 4.93215 10.6333 4.93215 7.92032 5.20354L7.27663 5.26793C3.7132 5.62438 1 8.62375 1 12.2054V12.5344C1 15.4447 2.85133 17.8832 5.39209 18.809C6.48064 19.2057 7.52715 18.948 8.33579 18.3839C9.12426 17.8338 9.71309 16.9839 10.0307 16.0726L10.2759 15.3691C10.5395 14.6127 11.2355 14.1221 12 14.1221C12.7645 14.1221 13.4605 14.6127 13.7241 15.3691L13.9693 16.0726C14.2869 16.9839 14.8757 17.8338 15.6642 18.3839C16.4729 18.948 17.5194 19.2057 18.6079 18.809C21.1487 17.8832 23 15.4447 23 12.5344V12.2054C23 8.62375 20.2868 5.62438 16.7234 5.26793L16.0797 5.20354ZM6.25 14C7.35457 14 8.25 13.1046 8.25 12C8.25 10.8954 7.35457 10 6.25 10C5.14543 10 4.25 10.8954 4.25 12C4.25 13.1046 5.14543 14 6.25 14ZM17.75 14C18.8546 14 19.75 13.1046 19.75 12C19.75 10.8954 18.8546 10 17.75 10C16.6454 10 15.75 10.8954 15.75 12C15.75 13.1046 16.6454 14 17.75 14Z" fill="black"/>
</svg>
