<svg width="24" height="24" viewBox="0 0 24 24" fill="none" xmlns="http://www.w3.org/2000/svg">
<path fill-rule="evenodd" clip-rule="evenodd" d="M8 8.5V6.99925C7.37165 7.83547 7 8.87455 7 10V13H17V10C17 8.87455 16.6283 7.83547 16 6.99925V8.5C16 10.7091 14.2091 12.5 12 12.5C9.79086 12.5 8 10.7091 8 8.5ZM5 10V13.126C3.27477 13.5701 2 15.1362 2 17V19C2 20.1046 2.89543 21 4 21H20C21.1046 21 22 20.1046 22 19V17C22 15.1362 20.7252 13.5701 19 13.126V10C19 7.40775 17.5904 5.14591 15.5007 3.93709C14.4701 3.3409 13.2733 3 12 3C10.7267 3 9.5299 3.3409 8.49927 3.93709C6.40958 5.14591 5 7.40775 5 10ZM12 5C12.7124 5 13.3883 5.14844 14 5.41576V8.5C14 9.60457 13.1046 10.5 12 10.5C10.8954 10.5 10 9.60457 10 8.5V5.41576C10.6117 5.14844 11.2876 5 12 5ZM4 17C4 15.8954 4.89543 15 6 15H18C19.1046 15 20 15.8954 20 17V19H4V17ZM12 9.5C12.5523 9.5 13 9.05228 13 8.5C13 7.94772 12.5523 7.5 12 7.5C11.4477 7.5 11 7.94772 11 8.5C11 9.05228 11.4477 9.5 12 9.5Z" fill="black"/>
</svg>
