<svg width="24" height="24" viewBox="0 0 24 24" fill="none" xmlns="http://www.w3.org/2000/svg">
<path d="M17.4289 8.92249L7.6083 3.14101C7.11523 2.85073 6.48475 3.02299 6.20007 3.52577L4.13829 7.16716C3.85361 7.66993 4.02255 8.31282 4.51562 8.6031L10.0955 11.888M17.4289 8.92249L21 11.0249C20.2268 12.3904 18.8186 12.7751 16.1403 11.1984M17.4289 8.92249L16.1403 11.1984M16.1403 11.1984L14.8516 13.4742C14.567 13.977 13.9365 14.1493 13.4434 13.859L10.0955 11.888M10.0955 11.888L7.87565 15.5539C7.33207 16.4516 6.35891 17 5.30947 17H3M3 17V13M3 17V21" stroke="black" stroke-width="2" stroke-linecap="round" stroke-linejoin="round"/>
</svg>
