<svg width="24" height="24" viewBox="0 0 24 24" fill="none" xmlns="http://www.w3.org/2000/svg">
<path fill-rule="evenodd" clip-rule="evenodd" d="M11.4355 4.17138C11.7809 3.94287 12.2191 3.94287 12.5645 4.17138C14.8974 5.71489 17.1241 6.95306 19.9581 7.53066C19.9746 7.53403 19.9883 7.54315 19.9961 7.55266C19.9977 7.55468 19.9988 7.55632 19.9994 7.55741L20 7.5586L20 7.55938C19.8001 13.4112 17.5662 18.3089 12.5882 19.908C12.2065 20.0307 11.7936 20.0307 11.4118 19.908C6.43386 18.3089 4.19995 13.4112 4.00004 7.55938L4.00003 7.55851L4.00064 7.55741C4.00126 7.55632 4.00232 7.55468 4.00398 7.55266C4.0118 7.54315 4.02544 7.53403 4.04194 7.53066C6.87594 6.95306 9.10264 5.71489 11.4355 4.17138ZM13.6681 2.50341C12.6536 1.8322 11.3465 1.8322 10.332 2.50341C8.07626 3.99584 6.10336 5.0694 3.64252 5.57095C2.7104 5.76093 1.96586 6.59293 2.00121 7.62766C2.21303 13.8283 4.63235 19.8309 10.8001 21.8122C11.5797 22.0626 12.4204 22.0626 13.1999 21.8122C19.3677 19.8309 21.787 13.8283 21.9989 7.62766C22.0342 6.59293 21.2897 5.76093 20.3575 5.57095C17.8967 5.0694 15.9238 3.99584 13.6681 2.50341ZM7.50003 11V9C7.50003 8.44772 7.94775 8 8.50003 8H9.50003C10.0523 8 10.5 8.44772 10.5 9V11C10.5 11.8284 9.82846 12.5 9.00003 12.5C8.1716 12.5 7.50003 11.8284 7.50003 11ZM8.38429 13.4236C8.58126 13.4735 8.78755 13.5 9.00003 13.5C10.3807 13.5 11.5 12.3807 11.5 11V9C11.5 8.63571 11.4026 8.29417 11.2325 8H12C12.6491 8 13.2807 8.21053 13.8 8.6L14.2 8.9C14.7193 9.28947 15.3509 9.5 16 9.5H16.5C17.0523 9.5 17.5122 9.9518 17.4143 10.4953C17.0516 12.5104 15.5206 14 12.5 14V17C10.5 16.5 9.00003 15.5 8.00003 14L8.38429 13.4236ZM14 10.5C14 10.7761 13.7762 11 13.5 11C13.2239 11 13 10.7761 13 10.5C13 10.2239 13.2239 10 13.5 10C13.7762 10 14 10.2239 14 10.5Z" fill="black"/>
</svg>
