<svg width="24" height="24" viewBox="0 0 24 24" fill="none" xmlns="http://www.w3.org/2000/svg">
<path fill-rule="evenodd" clip-rule="evenodd" d="M6.20475 4.79032C6.20471 4.79034 6.20466 4.79036 6.20462 4.79037L3.70773 2.29349C3.31721 1.90296 2.68404 1.90296 2.29352 2.29349C1.90299 2.68401 1.90299 3.31718 2.29352 3.7077L4.06417 5.47836C3.92515 5.51111 3.78465 5.54199 3.64252 5.57095C2.7104 5.76093 1.96586 6.59293 2.00121 7.62766C2.21303 13.8283 4.63235 19.8309 10.8001 21.8122C11.5797 22.0626 12.4204 22.0626 13.1999 21.8122C15.0127 21.2299 16.5017 20.3002 17.706 19.1201L20.2923 21.7065C20.6829 22.097 21.316 22.097 21.7065 21.7065C22.0971 21.316 22.0971 20.6828 21.7065 20.2923L19.0117 17.5975C19.0118 17.5974 19.0118 17.5974 19.0118 17.5974L17.5734 16.159C17.5734 16.159 17.5734 16.1591 17.5733 16.1591L7.72324 6.309C7.72329 6.30898 7.72333 6.30896 7.72337 6.30894L6.20475 4.79032ZM9.5776 5.33475L8.11074 3.86788C8.83868 3.46491 9.56915 3.00811 10.332 2.50341C11.3465 1.8322 12.6536 1.8322 13.6681 2.50341C15.9238 3.99584 17.8967 5.0694 20.3575 5.57095C21.2897 5.76093 22.0342 6.59293 21.9989 7.62766C21.8994 10.5399 21.313 13.4084 20.08 15.8371L18.5816 14.3388C19.4604 12.3731 19.9148 10.0529 20 7.55938L20 7.5586L19.9994 7.55741L19.9977 7.55478L19.9961 7.55266C19.9883 7.54315 19.9746 7.53403 19.9581 7.53066C17.1241 6.95306 14.8974 5.71489 12.5645 4.17138C12.2191 3.94287 11.7809 3.94287 11.4355 4.17138C10.8132 4.58315 10.1984 4.97318 9.5776 5.33475ZM5.68909 7.10327L16.2865 17.7007C15.2791 18.682 14.0523 19.4377 12.5882 19.908C12.2065 20.0307 11.7936 20.0307 11.4118 19.908C6.43386 18.3089 4.19995 13.4112 4.00004 7.55938L4.00003 7.55851L4.00064 7.55741C4.00126 7.55632 4.00232 7.55468 4.00398 7.55266C4.0118 7.54315 4.02544 7.53403 4.04194 7.53066C4.61376 7.41412 5.16085 7.27068 5.68909 7.10327Z" fill="black"/>
</svg>
