<svg width="24" height="24" viewBox="0 0 24 24" fill="none" xmlns="http://www.w3.org/2000/svg">
<path fill-rule="evenodd" clip-rule="evenodd" d="M11.4355 4.17138C11.7809 3.94287 12.2191 3.94287 12.5645 4.17138C14.8974 5.71489 17.1241 6.95306 19.9581 7.53066C19.9746 7.53403 19.9883 7.54315 19.9961 7.55266L19.9977 7.55478L19.9994 7.55741L20 7.5586L20 7.55938C19.8001 13.4112 17.5662 18.3089 12.5882 19.908C12.2065 20.0307 11.7936 20.0307 11.4118 19.908C6.43386 18.3089 4.19995 13.4112 4.00004 7.55938L4.00003 7.55851L4.00064 7.55741C4.00126 7.55632 4.00232 7.55468 4.00398 7.55266C4.0118 7.54315 4.02544 7.53403 4.04194 7.53066C6.87594 6.95306 9.10264 5.71489 11.4355 4.17138ZM13.6681 2.50341C12.6536 1.8322 11.3465 1.8322 10.332 2.50341C8.07626 3.99584 6.10335 5.0694 3.64252 5.57095C2.7104 5.76093 1.96586 6.59293 2.00121 7.62766C2.21303 13.8283 4.63235 19.8309 10.8001 21.8122C11.5797 22.0626 12.4204 22.0626 13.1999 21.8122C19.3677 19.8309 21.787 13.8283 21.9989 7.62766C22.0342 6.59293 21.2897 5.76093 20.3575 5.57095C17.8967 5.0694 15.9238 3.99584 13.6681 2.50341ZM8.319 13.0844L8.31895 13.0844C8.17978 12.9588 8.11018 12.896 8.05999 12.838C7.64671 12.3606 7.64671 11.6394 8.05999 11.162C8.11018 11.104 8.17977 11.0412 8.31894 10.9156C8.75692 10.5205 8.97591 10.323 9.18368 10.1717C10.872 8.94275 13.128 8.94275 14.8164 10.1717C15.0241 10.323 15.2431 10.5205 15.6811 10.9156L15.6811 10.9157L15.6811 10.9157C15.8203 11.0412 15.8899 11.104 15.9401 11.162C16.3533 11.6394 16.3533 12.3606 15.9401 12.838C15.8899 12.896 15.8203 12.9588 15.6812 13.0843L15.6811 13.0844L15.6811 13.0844C15.2431 13.4795 15.0242 13.677 14.8164 13.8283C13.128 15.0572 10.872 15.0572 9.18368 13.8283C8.97592 13.677 8.75693 13.4795 8.319 13.0844ZM13.2208 12C13.2208 12.6951 12.6742 13.2586 12 13.2586C11.3258 13.2586 10.7793 12.6951 10.7793 12C10.7793 11.3049 11.3258 10.7414 12 10.7414C12.6742 10.7414 13.2208 11.3049 13.2208 12Z" fill="black"/>
</svg>
