<svg width="24" height="24" viewBox="0 0 24 24" fill="none" xmlns="http://www.w3.org/2000/svg">
<path d="M12 15.2727C10.8 15.2727 10.1333 14.4545 10.1333 13.7727M12 15.2727C13.2 15.2727 14 14.4545 14 13.6364C14 12.4091 13.2 12 12 12C10.8 12 10 11.5909 10 10.3636C10 9.54545 10.8 8.72727 12 8.72727M12 15.2727V16.5M12 8.72727C13.2 8.72727 14 9.54545 14 10.2273M12 8.72727V7.5M11.1059 20.8601C5.53308 19.0699 3.20646 13.6197 3.00059 7.59352C2.98311 7.08168 3.35327 6.65046 3.8422 6.55081C6.48962 6.01123 8.58942 4.85537 10.8837 3.3374C11.5637 2.88753 12.4363 2.88753 13.1163 3.3374C15.4106 4.85537 17.5104 6.01123 20.1578 6.55081C20.6467 6.65046 21.0169 7.08168 20.9994 7.59352C20.7935 13.6197 18.4669 19.0699 12.8941 20.8601C12.3134 21.0466 11.6866 21.0466 11.1059 20.8601Z" stroke="black" stroke-width="2" stroke-linecap="round" stroke-linejoin="round"/>
</svg>
