<svg width="24" height="24" viewBox="0 0 24 24" fill="none" xmlns="http://www.w3.org/2000/svg">
<path fill-rule="evenodd" clip-rule="evenodd" d="M11.4355 4.17138C11.7809 3.94287 12.2191 3.94287 12.5645 4.17138C14.8974 5.71489 17.1241 6.95306 19.9581 7.53066C19.9746 7.53403 19.9883 7.54315 19.9961 7.55266L19.9977 7.55478L19.9994 7.55741L20 7.5586L20 7.55938C19.8001 13.4112 17.5662 18.3089 12.5882 19.908C12.2065 20.0307 11.7936 20.0307 11.4118 19.908C6.43386 18.3089 4.19995 13.4112 4.00004 7.55938L4.00003 7.55851L4.00064 7.55741C4.00126 7.55632 4.00232 7.55468 4.00398 7.55266C4.0118 7.54315 4.02544 7.53403 4.04194 7.53066C6.87594 6.95306 9.10264 5.71489 11.4355 4.17138ZM13.6681 2.50341C12.6536 1.8322 11.3465 1.8322 10.332 2.50341C8.07626 3.99584 6.10335 5.0694 3.64252 5.57095C2.7104 5.76093 1.96586 6.59293 2.00121 7.62766C2.21303 13.8283 4.63235 19.8309 10.8001 21.8122C11.5797 22.0626 12.4204 22.0626 13.1999 21.8122C19.3677 19.8309 21.787 13.8283 21.9989 7.62766C22.0342 6.59293 21.2897 5.76093 20.3575 5.57095C17.8967 5.0694 15.9238 3.99584 13.6681 2.50341ZM12 16.598C13.933 16.598 15.5 15.031 15.5 13.098C15.5 12.2016 15.163 11.384 14.6088 10.7648L13.5749 9.59374C13.4327 9.43261 13.1259 9.53268 13.0491 9.73344C12.8937 10.1398 12.607 10.4883 12.3287 10.6568C12.1633 10.7569 12 10.608 12 10.4147V8.4589C12 8.2447 11.7356 8.14369 11.5928 8.30335L9.39124 10.7648C8.83703 11.384 8.50003 12.2016 8.50003 13.098C8.50003 15.031 10.067 16.598 12 16.598ZM13.1942 14.4755C12.9995 14.5282 12.7947 14.5563 12.5834 14.5563C11.2947 14.5563 10.25 13.5116 10.25 12.223C10.25 12.1752 10.1872 12.1567 10.1661 12.1996C10.0331 12.4707 9.95836 12.7756 9.95836 13.098C9.95836 14.2255 10.8724 15.1396 12 15.1396C12.5023 15.1396 12.9623 14.9582 13.3179 14.6573C13.4118 14.5779 13.3129 14.4434 13.1942 14.4755Z" fill="black"/>
</svg>
