<svg width="24" height="24" viewBox="0 0 24 24" fill="none" xmlns="http://www.w3.org/2000/svg">
<path fill-rule="evenodd" clip-rule="evenodd" d="M11.4355 4.17138C11.7809 3.94287 12.2191 3.94287 12.5645 4.17138C14.8974 5.71489 17.1241 6.95306 19.9581 7.53066C19.9746 7.53403 19.9883 7.54315 19.9961 7.55266L19.9977 7.55478L19.9994 7.55741L20 7.5586L20 7.55938C19.8001 13.4112 17.5662 18.3089 12.5882 19.908C12.2065 20.0307 11.7936 20.0307 11.4118 19.908C6.43386 18.3089 4.19995 13.4112 4.00004 7.55938L4.00003 7.55851L4.00064 7.55741C4.00126 7.55632 4.00232 7.55468 4.00398 7.55266C4.0118 7.54315 4.02544 7.53403 4.04194 7.53066C6.87594 6.95306 9.10264 5.71489 11.4355 4.17138ZM13.6681 2.50341C12.6536 1.8322 11.3465 1.8322 10.332 2.50341C8.07626 3.99584 6.10335 5.0694 3.64252 5.57095C2.7104 5.76093 1.96586 6.59293 2.00121 7.62766C2.21303 13.8283 4.63235 19.8309 10.8001 21.8122C11.5797 22.0626 12.4204 22.0626 13.1999 21.8122C19.3677 19.8309 21.787 13.8283 21.9989 7.62766C22.0342 6.59293 21.2897 5.76093 20.3575 5.57095C17.8967 5.0694 15.9238 3.99584 13.6681 2.50341ZM15 13.3234C15 14.9397 13.6569 16.25 12 16.25C10.3432 16.25 9.00003 14.9397 9.00003 13.3234V8.9455C9.00003 8.7678 9.22369 8.68261 9.34712 8.81329L10.7766 10.3268C10.9121 10.4703 11.1216 10.5175 11.3164 10.4732C11.536 10.4233 11.7648 10.3969 12 10.3969C12.2352 10.3969 12.4641 10.4233 12.6837 10.4732C12.8785 10.5175 13.0879 10.4703 13.2235 10.3268L14.6529 8.81329C14.7764 8.68261 15 8.7678 15 8.9455V13.3234ZM11.5 12.5C11.5 12.7761 11.2762 13 11 13C10.7239 13 10.5 12.7761 10.5 12.5C10.5 12.2239 10.7239 12 11 12C11.2762 12 11.5 12.2239 11.5 12.5ZM13.5 12.5C13.5 12.7761 13.2762 13 13 13C12.7239 13 12.5 12.7761 12.5 12.5C12.5 12.2239 12.7239 12 13 12C13.2762 12 13.5 12.2239 13.5 12.5Z" fill="black"/>
</svg>
