<svg width="24" height="24" viewBox="0 0 24 24" fill="none" xmlns="http://www.w3.org/2000/svg">
<path d="M10.25 9.375L9.66667 12M19 5.5L22 4M5 5.5L2 4M22 12L20.5 11.625M2 12L3.5 11.625M6.66667 12L7.65197 7.56614C7.85532 6.65106 8.66695 6 9.60434 6H14.3957C15.3331 6 16.1447 6.65106 16.348 7.56614L17.3333 12M20 17V18C20 19.1046 19.1046 20 18 20H6C4.89543 20 4 19.1046 4 18V17C4 15.8954 4.89543 15 6 15H18C19.1046 15 20 15.8954 20 17Z" stroke="black" stroke-width="2" stroke-linecap="round" stroke-linejoin="round"/>
</svg>
