<svg width="24" height="24" viewBox="0 0 24 24" fill="none" xmlns="http://www.w3.org/2000/svg">
<path d="M18 15C19.1046 15 20 15.8954 20 17V18C20 19.1046 19.1046 20 18 20H6C4.89543 20 4 19.1046 4 18V17C4 15.8954 4.89543 15 6 15M18 15L16.348 7.56614C16.1447 6.65106 15.3331 6 14.3957 6H9.60434C8.66695 6 7.85532 6.65106 7.65197 7.56614L6 15M18 15H9M6 15H9M9 15L10.25 9.375M19 5.5L22 4M5 5.5L2 4M22 12L20.5 11.625M2 12L3.5 11.625" stroke="black" stroke-width="2" stroke-linecap="round" stroke-linejoin="round"/>
</svg>
