<svg width="24" height="24" viewBox="0 0 24 24" fill="none" xmlns="http://www.w3.org/2000/svg">
<path d="M6 14H8M6 17H11M3.5 8.5H11.5M19.5 8.5H11.5M11.5 3H7.43174C6.25531 3 5.18745 3.68761 4.70064 4.75859L3.2689 7.90842C3.09169 8.29829 3 8.72157 3 9.14983V17C3 18.6569 4.34315 20 6 20H12M11.5 3H15.5683C16.7447 3 17.8125 3.68761 18.2994 4.75859L19.7311 7.90842C19.9083 8.29829 20 8.72157 20 9.14983V14M11.5 3V8.5M16 19.5L17.5 21L21 17.5" stroke="black" stroke-width="2" stroke-linecap="round" stroke-linejoin="round"/>
</svg>
