<svg width="24" height="24" viewBox="0 0 24 24" fill="none" xmlns="http://www.w3.org/2000/svg">
<path d="M12 11L4 7.44444M12 11L20 7.44444M12 11V20M7.5 5L4.78158 6.20818C3.6982 6.68969 3 7.76405 3 8.94962V15.0504C3 16.2359 3.6982 17.3103 4.78159 17.7918L10.3754 20.278C11.4097 20.7376 12.5903 20.7376 13.6246 20.278L19.2184 17.7918C20.3018 17.3103 21 16.2359 21 15.0504V8.94962C21 7.76405 20.3018 6.68969 19.2184 6.20818L13.6246 3.72202C12.5903 3.26235 11.4097 3.26235 10.3754 3.72202L7.5 5ZM7.5 5L16.5 9V13M6 14.3332L9 15.6666" stroke="black" stroke-width="2" stroke-linecap="round" stroke-linejoin="round"/>
</svg>
