<svg width="24" height="24" viewBox="0 0 24 24" fill="none" xmlns="http://www.w3.org/2000/svg">
<path d="M11 18H18M3.5 8H20.5M20.5725 7.28746L18.8739 4.45651C18.3317 3.5529 17.3552 3 16.3014 3H7.69857C6.64478 3 5.66826 3.5529 5.12609 4.45651L3.42752 7.28746C3.14777 7.75371 3 8.28722 3 8.83095V18C3 19.6569 4.34315 21 6 21H18C19.6569 21 21 19.6569 21 18V8.83095C21 8.28722 20.8522 7.75371 20.5725 7.28746ZM8 14H7C6.44772 14 6 13.5523 6 13V12C6 11.4477 6.44772 11 7 11H8C8.55228 11 9 11.4477 9 12V13C9 13.5523 8.55228 14 8 14Z" stroke="black" stroke-width="2" stroke-linecap="round" stroke-linejoin="round"/>
</svg>
