<svg width="24" height="24" viewBox="0 0 24 24" fill="none" xmlns="http://www.w3.org/2000/svg">
<path d="M5 8V18C5 19.6569 6.34315 21 8 21H16C17.6569 21 19 19.6569 19 18V8M5 8H9M5 8V8C3.89543 8 3 7.10457 3 6V5C3 3.89543 3.89543 3 5 3H19C20.1046 3 21 3.89543 21 5V6C21 7.10457 20.1046 8 19 8V8M19 8H15M9 8V13.3063C9 13.6476 9.33435 13.8886 9.65811 13.7806L11.3675 13.2108C11.7781 13.074 12.2219 13.074 12.6325 13.2108L14.3419 13.7806C14.6657 13.8886 15 13.6476 15 13.3063V8M9 8H15" stroke="black" stroke-width="2" stroke-linecap="round" stroke-linejoin="round"/>
</svg>
