<svg width="24" height="24" viewBox="0 0 24 24" fill="none" xmlns="http://www.w3.org/2000/svg">
<path d="M6 14H8M6 17H12M3.5 8.5H11.5M19.5 8.5H11.5M11.5 3H7.43174C6.25531 3 5.18745 3.68761 4.70064 4.75859L3.2689 7.90842C3.09169 8.29829 3 8.72157 3 9.14983V17C3 18.6569 4.34315 20 6 20H13M11.5 3H15.5683C16.7447 3 17.8125 3.68761 18.2994 4.75859L19.7311 7.90842C19.9083 8.29829 20 8.72157 20 9.14983V10.5M11.5 3V8.5M18.2047 20.8501C16.4814 18.424 16 17.7339 16 16.422C16 15.0844 17.1193 14 18.5 14C19.8807 14 21 15.0844 21 16.422C21 17.7339 20.5186 18.424 18.7953 20.8501C18.6533 21.05 18.3467 21.05 18.2047 20.8501Z" stroke="black" stroke-width="2" stroke-linecap="round" stroke-linejoin="round"/>
</svg>
