<svg width="24" height="24" viewBox="0 0 24 24" fill="none" xmlns="http://www.w3.org/2000/svg">
<path d="M12 11L20 7.44444M12 11L4 7.44444M12 11V20M9 15.6663L6 14.333M19.2184 17.7918L13.6246 20.278C12.5903 20.7376 11.4097 20.7376 10.3754 20.278L4.78158 17.7918C3.6982 17.3103 3 16.2359 3 15.0504V8.94962C3 7.76405 3.6982 6.68969 4.78159 6.20818L10.3754 3.72202C11.4097 3.26235 12.5903 3.26235 13.6246 3.72202L19.2184 6.20818C20.3018 6.68969 21 7.76405 21 8.94962V15.0504C21 16.2359 20.3018 17.3103 19.2184 17.7918Z" stroke="black" stroke-width="2" stroke-linecap="round" stroke-linejoin="round"/>
</svg>
