<svg width="24" height="24" viewBox="0 0 24 24" fill="none" xmlns="http://www.w3.org/2000/svg">
<path d="M8 8V3M8 8H16M8 8H5C3.89543 8 3 7.10457 3 6V5C3 3.89543 3.89543 3 5 3H8M16 8V3M16 8H19C20.1046 8 21 7.10457 21 6V5C21 3.89543 20.1046 3 19 3H16M8 3H16M15 12V14.3063C15 14.6476 14.6657 14.8886 14.3419 14.7806L12.6325 14.2108C12.2219 14.074 11.7781 14.074 11.3675 14.2108L9.65811 14.7806C9.33435 14.8886 9 14.6476 9 14.3063V12M19 12V18C19 19.6569 17.6569 21 16 21H8C6.34315 21 5 19.6569 5 18V12" stroke="black" stroke-width="2" stroke-linecap="round" stroke-linejoin="round"/>
</svg>
