<svg width="24" height="24" viewBox="0 0 24 24" fill="none" xmlns="http://www.w3.org/2000/svg">
<path fill-rule="evenodd" clip-rule="evenodd" d="M5.61101 5.1724C5.93555 4.45841 6.64745 4 7.43174 4H10.5V7.5H4.553L5.61101 5.1724ZM12.5 7.5V4H15.5683C16.3525 4 17.0645 4.45841 17.389 5.17239L18.447 7.5H12.5ZM19 12V9.5H11.5H4V17C4 18.1046 4.89543 19 6 19H12C12.5523 19 13 19.4477 13 20C13 20.5523 12.5523 21 12 21H6C3.79086 21 2 19.2091 2 17V9.14983C2 8.57882 2.12225 8.01444 2.35853 7.49462L3.79027 4.34479C4.43935 2.91681 5.86317 2 7.43174 2H11.5H15.5683C17.1368 2 18.5606 2.91681 19.2097 4.34479L20.6415 7.49462C20.8777 8.01444 21 8.57882 21 9.14983V12C21 12.5523 20.5523 13 20 13C19.4477 13 19 12.5523 19 12ZM6 13C5.44772 13 5 13.4477 5 14C5 14.5523 5.44772 15 6 15H8C8.55228 15 9 14.5523 9 14C9 13.4477 8.55228 13 8 13H6ZM6 16C5.44772 16 5 16.4477 5 17C5 17.5523 5.44772 18 6 18H11C11.5523 18 12 17.5523 12 17C12 16.4477 11.5523 16 11 16H6ZM14 17.5C14 19.433 15.567 21 17.5 21C19.433 21 21 19.433 21 17.5C21 15.567 19.433 14 17.5 14C15.567 14 14 15.567 14 17.5ZM17.5508 15.25C17.965 15.25 18.3008 15.5858 18.3008 16V17.25H18.5508C18.965 17.25 19.3008 17.5858 19.3008 18C19.3008 18.4142 18.965 18.75 18.5508 18.75H17.7174C17.2112 18.75 16.8008 18.3396 16.8008 17.8333V16C16.8008 15.5858 17.1366 15.25 17.5508 15.25Z" fill="black"/>
</svg>
