<svg width="24" height="24" viewBox="0 0 24 24" fill="none" xmlns="http://www.w3.org/2000/svg">
<path d="M4 12V18C4 19.6569 5.34315 21 7 21H17C18.6569 21 20 19.6569 20 18V12M21 5V6C21 7.10457 20.1046 8 19 8H5C3.89543 8 3 7.10457 3 6V5C3 3.89543 3.89543 3 5 3H19C20.1046 3 21 3.89543 21 5ZM16 13.5V13.5C16 14.3284 15.3284 15 14.5 15H9.5C8.67157 15 8 14.3284 8 13.5V13.5C8 12.6716 8.67157 12 9.5 12H14.5C15.3284 12 16 12.6716 16 13.5Z" stroke="black" stroke-width="2" stroke-linecap="round" stroke-linejoin="round"/>
</svg>
