<svg width="24" height="24" viewBox="0 0 24 24" fill="none" xmlns="http://www.w3.org/2000/svg">
<path fill-rule="evenodd" clip-rule="evenodd" d="M5.61101 5.1724C5.93555 4.45841 6.64745 4 7.43174 4H10.5V7.5H4.553L5.61101 5.1724ZM12.5 7.5V4H15.5683C16.3525 4 17.0645 4.45841 17.389 5.17239L18.447 7.5H12.5ZM19 11.5V9.5H11.5H4V17C4 18.1046 4.89543 19 6 19H11.5C12.0523 19 12.5 19.4477 12.5 20C12.5 20.5523 12.0523 21 11.5 21H6C3.79086 21 2 19.2091 2 17V9.14983C2 8.57882 2.12225 8.01444 2.35853 7.49462L3.79027 4.34479C4.43935 2.91681 5.86317 2 7.43174 2H11.5H15.5683C17.1368 2 18.5606 2.91681 19.2097 4.34479L20.6415 7.49462C20.8777 8.01444 21 8.57882 21 9.14983V11.5C21 12.0523 20.5523 12.5 20 12.5C19.4477 12.5 19 12.0523 19 11.5ZM6 13C5.44772 13 5 13.4477 5 14C5 14.5523 5.44772 15 6 15H8C8.55228 15 9 14.5523 9 14C9 13.4477 8.55228 13 8 13H6ZM6 16C5.44772 16 5 16.4477 5 17C5 17.5523 5.44772 18 6 18H10.5C11.0523 18 11.5 17.5523 11.5 17C11.5 16.4477 11.0523 16 10.5 16H6ZM17.8734 15.091C17.8734 15.2397 17.9931 15.3593 18.2324 15.5987L19.4013 16.7676C19.6406 17.0069 19.7603 17.1266 19.909 17.1266C20.0577 17.1266 20.1773 17.0069 20.4167 16.7676L20.511 16.6732C20.569 16.6153 20.598 16.5862 20.6214 16.5606C21.1262 16.0052 21.1262 15.157 20.6214 14.6016C20.598 14.576 20.569 14.5469 20.511 14.4889L20.511 14.4889C20.453 14.431 20.424 14.402 20.3984 14.3786C19.843 13.8738 18.9948 13.8738 18.4394 14.3786C18.4138 14.402 18.3848 14.431 18.3268 14.489L18.2324 14.5833C17.9931 14.8226 17.8734 14.9423 17.8734 15.091ZM17.2171 15.7474C17.3658 15.7474 17.4854 15.867 17.7247 16.1063L18.8937 17.2753C19.133 17.5146 19.2526 17.6342 19.2526 17.7829C19.2526 17.9316 19.133 18.0513 18.8937 18.2906L17.9078 19.2765L17.9032 19.281L17.9032 19.2811C17.8005 19.3827 17.7662 19.4167 17.7271 19.444C17.7075 19.4578 17.6867 19.4698 17.6555 19.4879L17.6554 19.488C17.5977 19.5214 17.5043 19.5756 17.3168 19.6992C16.8229 20.0249 16.2698 20.2461 15.1636 20.6886L15.0051 20.752C14.4656 20.9678 14.1959 21.0757 14.0601 20.9399C13.9243 20.8041 14.0322 20.5344 14.248 19.9949L14.3114 19.8364C14.7539 18.7302 14.9751 18.1771 15.3008 17.6832C15.4244 17.4957 15.4786 17.4023 15.512 17.3446L15.512 17.3446C15.5302 17.3133 15.5422 17.2925 15.556 17.2729C15.5833 17.2338 15.6174 17.1995 15.719 17.0968L15.7235 17.0922L16.7094 16.1063L16.7094 16.1063C16.9487 15.867 17.0684 15.7474 17.2171 15.7474Z" fill="black"/>
</svg>
