<svg width="24" height="24" viewBox="0 0 24 24" fill="none" xmlns="http://www.w3.org/2000/svg">
<path d="M6 14H8M6 17H9M3.5 8.5H11.5M19.5 8.5H11.5M11.5 3H7.43174C6.25531 3 5.18745 3.68761 4.70064 4.75859L3.2689 7.90842C3.09169 8.29829 3 8.72157 3 9.14983V17C3 18.6569 4.34315 20 6 20H11.5M11.5 3H15.5683C16.7447 3 17.8125 3.68761 18.2994 4.75859L19.7311 7.90842C19.9083 8.29829 20 8.72157 20 9.14983V11.5M11.5 3V8.5M17.5 15.7119C16.8002 14.9328 15.6333 14.7232 14.7565 15.4367C13.8798 16.1501 13.7563 17.343 14.4449 18.1868C14.9049 18.7506 16.1141 19.8169 16.866 20.4625C17.2318 20.7766 17.7682 20.7766 18.134 20.4625C18.8859 19.8169 20.0951 18.7506 20.5551 18.1868C21.2437 17.343 21.1353 16.1426 20.2435 15.4367C19.3516 14.7307 18.1998 14.9328 17.5 15.7119Z" stroke="black" stroke-width="2" stroke-linecap="round" stroke-linejoin="round"/>
</svg>
