<svg width="24" height="24" viewBox="0 0 24 24" fill="none" xmlns="http://www.w3.org/2000/svg">
<path fill-rule="evenodd" clip-rule="evenodd" d="M5.61101 5.1724C5.93555 4.45841 6.64745 4 7.43174 4H10.5V7.5H4.553L5.61101 5.1724ZM12.5 7.5V4H15.5683C16.3525 4 17.0645 4.45841 17.389 5.17239L18.447 7.5H12.5ZM19 12V9.5H11.5H4V17C4 18.1046 4.89543 19 6 19H12C12.5523 19 13 19.4477 13 20C13 20.5523 12.5523 21 12 21H6C3.79086 21 2 19.2091 2 17V9.14983C2 8.57882 2.12225 8.01444 2.35853 7.49462L3.79027 4.34479C4.43935 2.91681 5.86317 2 7.43174 2H11.5H15.5683C17.1368 2 18.5606 2.91681 19.2097 4.34479L20.6415 7.49462C20.8777 8.01444 21 8.57882 21 9.14983V12C21 12.5523 20.5523 13 20 13C19.4477 13 19 12.5523 19 12ZM6 13C5.44772 13 5 13.4477 5 14C5 14.5523 5.44772 15 6 15H8C8.55228 15 9 14.5523 9 14C9 13.4477 8.55228 13 8 13H6ZM6 16C5.44772 16 5 16.4477 5 17C5 17.5523 5.44772 18 6 18H11C11.5523 18 12 17.5523 12 17C12 16.4477 11.5523 16 11 16H6ZM17.8995 14.2714C17.7501 13.9121 17.2411 13.9121 17.0917 14.2714L16.401 15.9322C16.3384 16.0827 16.1973 16.1859 16.0349 16.2L14.4002 16.3421C14.0251 16.3747 13.8637 16.8345 14.1361 17.0945L15.3778 18.2794C15.4904 18.3869 15.5374 18.546 15.5013 18.6974L15.0808 20.4605C14.9905 20.839 15.4023 21.1382 15.7344 20.9353L17.2676 19.9988C17.4076 19.9133 17.5836 19.9133 17.7236 19.9988L19.2568 20.9353C19.5889 21.1382 20.0007 20.839 19.9104 20.4605L19.49 18.698C19.4538 18.5463 19.5011 18.3868 19.6141 18.2794L20.8601 17.0951C21.1333 16.8354 20.972 16.3747 20.5964 16.3421L18.9563 16.1999C18.7939 16.1859 18.6528 16.0826 18.5902 15.9321L17.8995 14.2714Z" fill="black"/>
</svg>
