<svg width="24" height="24" viewBox="0 0 24 24" fill="none" xmlns="http://www.w3.org/2000/svg">
<path fill-rule="evenodd" clip-rule="evenodd" d="M5.61101 5.1724C5.93555 4.45841 6.64745 4 7.43174 4H10.5V7.5H4.553L5.61101 5.1724ZM12.5 7.5V4H15.5683C16.3525 4 17.0645 4.45841 17.389 5.17239L18.447 7.5H12.5ZM19 11V9.5H11.5H4V17C4 18.1046 4.89543 19 6 19H11.5C12.0523 19 12.5 19.4477 12.5 20C12.5 20.5523 12.0523 21 11.5 21H6C3.79086 21 2 19.2091 2 17V9.14983C2 8.57882 2.12225 8.01444 2.35853 7.49462L3.79027 4.34479C4.43935 2.91681 5.86317 2 7.43174 2H11.5H15.5683C17.1368 2 18.5606 2.91681 19.2097 4.34479L20.6415 7.49462C20.8777 8.01444 21 8.57882 21 9.14983V11C21 11.5523 20.5523 12 20 12C19.4477 12 19 11.5523 19 11ZM6 13C5.44772 13 5 13.4477 5 14C5 14.5523 5.44772 15 6 15H8C8.55228 15 9 14.5523 9 14C9 13.4477 8.55228 13 8 13H6ZM18.5634 13.231C18.0669 12.923 17.4331 12.923 16.9366 13.231C16.2653 13.6473 15.3523 13.9709 14.5865 14.1776C13.9872 14.3393 13.4851 14.8889 13.5003 15.6039C13.5407 17.5029 13.8973 18.8524 14.5863 19.8617C15.2765 20.8729 16.2156 21.412 17.0998 21.8485C17.509 22.0505 17.991 22.0505 18.4002 21.8485C19.2844 21.412 20.2235 20.8729 20.9137 19.8617C21.6027 18.8524 21.9593 17.5029 21.9997 15.6039C22.0149 14.8889 21.5128 14.3393 20.9135 14.1776C20.1477 13.9709 19.2347 13.6473 18.5634 13.231ZM17.75 19.9364C18.4375 19.5803 18.9135 19.2445 19.2618 18.7341C19.6155 18.216 19.908 17.4097 19.9842 15.992C19.2867 15.7822 18.4686 15.4794 17.75 15.0731L17.75 19.9364ZM6 16C5.44772 16 5 16.4477 5 17C5 17.5523 5.44772 18 6 18H10.5C11.0523 18 11.5 17.5523 11.5 17C11.5 16.4477 11.0523 16 10.5 16H6Z" fill="black"/>
</svg>
