<svg width="24" height="24" viewBox="0 0 24 24" fill="none" xmlns="http://www.w3.org/2000/svg">
<path d="M9 3.5V7.30629C9 7.64757 9.33435 7.88855 9.65811 7.78063L11.3675 7.21082C11.7781 7.07397 12.2219 7.07397 12.6325 7.21082L14.3419 7.78063C14.6657 7.88855 15 7.64757 15 7.30629V3.5M6.5 17.5H14.5M8.5 13.5H7.5C6.94772 13.5 6.5 13.0523 6.5 12.5V11.5C6.5 10.9477 6.94772 10.5 7.5 10.5H8.5C9.05228 10.5 9.5 10.9477 9.5 11.5V12.5C9.5 13.0523 9.05228 13.5 8.5 13.5ZM6 21H18C19.6569 21 21 19.6569 21 18V6C21 4.34315 19.6569 3 18 3H6C4.34315 3 3 4.34315 3 6V18C3 19.6569 4.34315 21 6 21Z" stroke="black" stroke-width="2" stroke-linecap="round" stroke-linejoin="round"/>
</svg>
