<svg width="24" height="24" viewBox="0 0 24 24" fill="none" xmlns="http://www.w3.org/2000/svg">
<path d="M9 3.5V7.30629C9 7.64757 9.33435 7.88855 9.65811 7.78063L11.3675 7.21082C11.7781 7.07397 12.2219 7.07397 12.6325 7.21082L14.3419 7.78063C14.6657 7.88855 15 7.64757 15 7.30629V3.5M10 17H8C7.44772 17 7 16.5523 7 16V14C7 13.4477 7.44772 13 8 13H10C10.5523 13 11 13.4477 11 14V16C11 16.5523 10.5523 17 10 17ZM6 21H18C19.6569 21 21 19.6569 21 18V6C21 4.34315 19.6569 3 18 3H6C4.34315 3 3 4.34315 3 6V18C3 19.6569 4.34315 21 6 21Z" stroke="black" stroke-width="2" stroke-linecap="round" stroke-linejoin="round"/>
</svg>
