<svg width="24" height="24" viewBox="0 0 24 24" fill="none" xmlns="http://www.w3.org/2000/svg">
<path d="M3 3L3.68328 4.36656C3.89156 4.78313 4 5.24247 4 5.7082V16C4 17.1046 4.89543 18 6 18H21M12 6H10C8.89543 6 8 6.89543 8 8V12C8 13.1046 8.89543 14 10 14H18C19.1046 14 20 13.1046 20 12V8C20 6.89543 19.1046 6 18 6H16M12 6V9.59549C12 9.78134 12.1956 9.90221 12.3618 9.8191L13.5528 9.22361C13.8343 9.08284 14.1657 9.08284 14.4472 9.22361L15.6382 9.8191C15.8044 9.90221 16 9.78134 16 9.59549V6M12 6H16M16.75 21V21C16.0596 21 15.5 20.4404 15.5 19.75V19.75C15.5 19.0596 16.0596 18.5 16.75 18.5V18.5C17.4404 18.5 18 19.0596 18 19.75V19.75C18 20.4404 17.4404 21 16.75 21ZM9.5 19.75V19.75C9.5 20.4404 8.94036 21 8.25 21V21C7.55964 21 7 20.4404 7 19.75V19.75C7 19.0596 7.55964 18.5 8.25 18.5V18.5C8.94036 18.5 9.5 19.0596 9.5 19.75Z" stroke="black" stroke-width="2" stroke-linecap="round" stroke-linejoin="round"/>
</svg>
