<svg width="24" height="24" viewBox="0 0 24 24" fill="none" xmlns="http://www.w3.org/2000/svg">
<path d="M3 3.00031V3.00031C4.10452 3.00014 5 3.89548 5 5V14C5 15.1046 5.89543 16 7 16H21M17 19V19C16.4478 19 16 19.4476 16 19.9998V19.9998C16 20.552 16.4478 20.9997 17 20.9997V20.9997C17.5522 20.9997 18 20.552 18 19.9998V19.9998C18 19.4476 17.5522 19 17 19ZM9 19V19C8.4478 19 8 19.4476 8 19.9998V19.9998C8 20.552 8.4478 20.9997 9 20.9997V20.9997C9.5522 20.9997 10 20.552 10 19.9998V19.9998C10 19.4476 9.5522 19 9 19Z" stroke="black" stroke-width="2" stroke-linecap="round" stroke-linejoin="round"/>
</svg>
