<svg width="24" height="24" viewBox="0 0 24 24" fill="none" xmlns="http://www.w3.org/2000/svg">
<path d="M5 17H5.01M9.75 17H9.76M14.25 17H14.26M19 17H19.01M10 4H8C6.89543 4 6 4.89543 6 6V12C6 13.1046 6.89543 14 8 14H16C17.1046 14 18 13.1046 18 12V6C18 4.89543 17.1046 4 16 4H14M10 4V8.59549C10 8.78134 10.1956 8.90221 10.3618 8.8191L11.1056 8.44721C11.6686 8.16569 12.3314 8.16569 12.8944 8.44721L13.6382 8.8191C13.8044 8.90221 14 8.78134 14 8.59549V4M10 4H14M5 20H19C20.6569 20 22 18.6569 22 17V17C22 15.3431 20.6569 14 19 14H5C3.34315 14 2 15.3431 2 17V17C2 18.6569 3.34315 20 5 20Z" stroke="black" stroke-width="2" stroke-linecap="round" stroke-linejoin="round"/>
</svg>
