<svg width="24" height="24" viewBox="0 0 24 24" fill="none" xmlns="http://www.w3.org/2000/svg">
<path fill-rule="evenodd" clip-rule="evenodd" d="M8 6C8 5.44772 8.44772 5 9 5H10.5V7.65314C10.5 7.82378 10.6672 7.94428 10.8291 7.89031L11.3675 7.71082C11.7781 7.57397 12.2219 7.57397 12.6325 7.71082L13.1709 7.89031C13.3328 7.94428 13.5 7.82378 13.5 7.65314V5H15C15.5523 5 16 5.44772 16 6V9C16 9.55228 15.5523 10 15 10H9C8.44772 10 8 9.55228 8 9V6ZM9 3C7.34315 3 6 4.34315 6 6V9C6 10.6569 7.34315 12 9 12H15C16.6569 12 18 10.6569 18 9V6C18 4.34315 16.6569 3 15 3H9ZM5 13C2.79086 13 1 14.7909 1 17C1 19.2091 2.79086 21 5 21H19C21.2091 21 23 19.2091 23 17C23 14.7909 21.2091 13 19 13H5ZM3 17C3 15.8954 3.89543 15 5 15H19C20.1046 15 21 15.8954 21 17C21 18.1046 20.1046 19 19 19H5C3.89543 19 3 18.1046 3 17ZM5 16C4.44772 16 4 16.4477 4 17C4 17.5523 4.44772 18 5 18H5.01C5.56228 18 6.01 17.5523 6.01 17C6.01 16.4477 5.56228 16 5.01 16H5ZM9.75 16C9.19772 16 8.75 16.4477 8.75 17C8.75 17.5523 9.19772 18 9.75 18H9.76C10.3123 18 10.76 17.5523 10.76 17C10.76 16.4477 10.3123 16 9.76 16H9.75ZM14.25 16C13.6977 16 13.25 16.4477 13.25 17C13.25 17.5523 13.6977 18 14.25 18H14.26C14.8123 18 15.26 17.5523 15.26 17C15.26 16.4477 14.8123 16 14.26 16H14.25ZM19 16C18.4477 16 18 16.4477 18 17C18 17.5523 18.4477 18 19 18H19.01C19.5623 18 20.01 17.5523 20.01 17C20.01 16.4477 19.5623 16 19.01 16H19Z" fill="black"/>
</svg>
