<svg width="24" height="24" viewBox="0 0 24 24" fill="none" xmlns="http://www.w3.org/2000/svg">
<path fill-rule="evenodd" clip-rule="evenodd" d="M7 10V6C7 4.89543 7.89543 4 9 4H15C16.1046 4 17 4.89543 17 6V10C17 11.1046 16.1046 12 15 12H9C7.89543 12 7 11.1046 7 10ZM11 5.5H13C13.1381 5.5 13.25 5.61193 13.25 5.75V8.63074C13.25 8.80761 13.0714 8.92855 12.9072 8.86286L12.3714 8.64856C12.133 8.55319 11.867 8.55319 11.6286 8.64856L11.0928 8.86286C10.9286 8.92855 10.75 8.80761 10.75 8.63074V5.75C10.75 5.61193 10.8619 5.5 11 5.5ZM5 13C2.79086 13 1 14.7909 1 17C1 19.2091 2.79086 21 5 21H19C21.2091 21 23 19.2091 23 17C23 14.7909 21.2091 13 19 13H5ZM3 17C3 15.8954 3.89543 15 5 15H19C20.1046 15 21 15.8954 21 17C21 18.1046 20.1046 19 19 19H5C3.89543 19 3 18.1046 3 17ZM5 16C4.44772 16 4 16.4477 4 17C4 17.5523 4.44772 18 5 18H5.01C5.56228 18 6.01 17.5523 6.01 17C6.01 16.4477 5.56228 16 5.01 16H5ZM9.75 16C9.19772 16 8.75 16.4477 8.75 17C8.75 17.5523 9.19772 18 9.75 18H9.76C10.3123 18 10.76 17.5523 10.76 17C10.76 16.4477 10.3123 16 9.76 16H9.75ZM14.25 16C13.6977 16 13.25 16.4477 13.25 17C13.25 17.5523 13.6977 18 14.25 18H14.26C14.8123 18 15.26 17.5523 15.26 17C15.26 16.4477 14.8123 16 14.26 16H14.25ZM19 16C18.4477 16 18 16.4477 18 17C18 17.5523 18.4477 18 19 18H19.01C19.5623 18 20.01 17.5523 20.01 17C20.01 16.4477 19.5623 16 19.01 16H19Z" fill="black"/>
</svg>
