<svg width="24" height="24" viewBox="0 0 24 24" fill="none" xmlns="http://www.w3.org/2000/svg">
<path d="M6 17.5V5.24264C6 4.44699 5.68393 3.68393 5.12132 3.12132L4 2M8.5 20H20M11 2H13C13.5523 2 14 2.44772 14 3V5C14 5.55228 13.5523 6 13 6H11C10.4477 6 10 5.55228 10 5V3C10 2.44772 10.4477 2 11 2ZM10 15.5V10.5C10 9.67157 10.6716 9 11.5 9H16.5C17.3284 9 18 9.67157 18 10.5V15.5C18 16.3284 17.3284 17 16.5 17H11.5C10.6716 17 10 16.3284 10 15.5ZM8 20V20C8 21.1046 7.10457 22 6 22V22C4.89543 22 4 21.1046 4 20V20C4 18.8954 4.89543 18 6 18V18C7.10457 18 8 18.8954 8 20Z" stroke="black" stroke-width="2" stroke-linecap="round" stroke-linejoin="round"/>
</svg>
