<svg width="24" height="24" viewBox="0 0 24 24" fill="none" xmlns="http://www.w3.org/2000/svg">
<path d="M6 17.5V5.24264C6 4.44699 5.68393 3.68393 5.12132 3.12132L4 2M8.5 20H20M12.5 2H15.5C16.3284 2 17 2.67157 17 3.5V6.5C17 7.32843 16.3284 8 15.5 8H12.5C11.6716 8 11 7.32843 11 6.5V3.5C11 2.67157 11.6716 2 12.5 2ZM11 15.5V12.5C11 11.6716 11.6716 11 12.5 11H15.5C16.3284 11 17 11.6716 17 12.5V15.5C17 16.3284 16.3284 17 15.5 17H12.5C11.6716 17 11 16.3284 11 15.5ZM8 20V20C8 21.1046 7.10457 22 6 22V22C4.89543 22 4 21.1046 4 20V20C4 18.8954 4.89543 18 6 18V18C7.10457 18 8 18.8954 8 20Z" stroke="black" stroke-width="2" stroke-linecap="round" stroke-linejoin="round"/>
</svg>
