<svg width="24" height="24" viewBox="0 0 24 24" fill="none" xmlns="http://www.w3.org/2000/svg">
<path d="M6.5 16.5V3.5C6.5 2.67157 5.82843 2 5 2H4M9.5 19.5H20M10 14V8C10 6.89543 10.8954 6 12 6H16C17.1046 6 18 6.89543 18 8V14C18 15.1046 17.1046 16 16 16H12C10.8954 16 10 15.1046 10 14ZM9 19.5V19.5C9 20.8807 7.88071 22 6.5 22V22C5.11929 22 4 20.8807 4 19.5V19.5C4 18.1193 5.11929 17 6.5 17V17C7.88071 17 9 18.1193 9 19.5Z" stroke="black" stroke-width="2" stroke-linecap="round" stroke-linejoin="round"/>
</svg>
