<svg width="24" height="24" viewBox="0 0 24 24" fill="none" xmlns="http://www.w3.org/2000/svg">
<path d="M10.4683 15.3949L4.93349 5.85627C4.51666 5.1379 3.59347 4.89177 2.8715 5.30652L2 5.80717M14.5922 16.4944L22 12.2389M10.248 8.00617L12.2606 11.4748C12.8164 12.4326 14.0473 12.7608 15.0099 12.2078L17.6244 10.7058C18.5871 10.1528 18.9169 8.92805 18.3611 7.97022L16.3485 4.50163C15.7927 3.54381 14.5618 3.21563 13.5991 3.76863L10.9846 5.27058C10.022 5.82358 9.69219 7.04834 10.248 8.00617ZM14.1565 16.7447C13.4618 15.5474 11.9231 15.1372 10.7198 15.8285C9.51655 16.5197 9.10427 18.0507 9.799 19.248C10.4937 20.4452 12.0324 20.8555 13.2356 20.1642C14.4389 19.473 14.8512 17.942 14.1565 16.7447Z" stroke="black" stroke-width="2" stroke-linecap="round" stroke-linejoin="round"/>
</svg>
