<svg width="24" height="24" viewBox="0 0 24 24" fill="none" xmlns="http://www.w3.org/2000/svg">
<path fill-rule="evenodd" clip-rule="evenodd" d="M4 1C3.44772 1 3 1.44772 3 2C3 2.55228 3.44772 3 4 3H5C5.27614 3 5.5 3.22386 5.5 3.5V16.1449C4.05426 16.5752 3 17.9145 3 19.5C3 21.433 4.567 23 6.5 23C8.08551 23 9.42479 21.9457 9.85506 20.5H20C20.5523 20.5 21 20.0523 21 19.5C21 18.9477 20.5523 18.5 20 18.5H9.85506C9.51909 17.3711 8.62889 16.4809 7.5 16.1449V3.5C7.5 2.11929 6.38071 1 5 1H4ZM11 8C11 7.44772 11.4477 7 12 7H13V10.5955C13 10.7813 13.1956 10.9022 13.3618 10.8191L14.5528 10.2236C14.8343 10.0828 15.1657 10.0828 15.4472 10.2236L16.6382 10.8191C16.8044 10.9022 17 10.7813 17 10.5955V7H18C18.5523 7 19 7.44772 19 8V14C19 14.5523 18.5523 15 18 15H12C11.4477 15 11 14.5523 11 14V8ZM12 5C10.3431 5 9 6.34315 9 8V14C9 15.6569 10.3431 17 12 17H18C19.6569 17 21 15.6569 21 14V8C21 6.34315 19.6569 5 18 5H12ZM5 19.5C5 18.6716 5.67157 18 6.5 18C7.32843 18 8 18.6716 8 19.5C8 20.3284 7.32843 21 6.5 21C5.67157 21 5 20.3284 5 19.5Z" fill="black"/>
</svg>
