<svg width="24" height="24" viewBox="0 0 24 24" fill="none" xmlns="http://www.w3.org/2000/svg">
<path fill-rule="evenodd" clip-rule="evenodd" d="M18.3364 3.84791C17.6418 2.65201 16.1088 2.2468 14.912 2.93364L10.5545 5.4344C9.35421 6.12323 8.93833 7.65418 9.635 8.85363L11.6476 12.3188C12.3422 13.5147 13.8753 13.9199 15.0721 13.2331L19.4296 10.7323C20.6299 10.0435 21.0458 8.51251 20.3491 7.31306L18.3364 3.84791ZM15.9075 4.66827C16.1546 4.52643 16.4679 4.613 16.607 4.85241L18.6196 8.31756C18.7566 8.55343 18.6778 8.85781 18.4341 8.99765L14.0766 11.4984C13.8294 11.6403 13.5161 11.5537 13.3771 11.3143L11.3644 7.84912C11.2274 7.61326 11.3063 7.30888 11.55 7.16903L12.4137 6.67337L13.6981 8.89815C13.7911 9.0591 14.0209 9.06599 14.1233 8.9109L14.6178 8.16189C14.7479 7.96489 14.9631 7.84062 15.1988 7.82648L16.0947 7.7727C16.2802 7.76157 16.3891 7.5591 16.2962 7.39815L15.0156 5.18011L15.9075 4.66827ZM5.79838 5.26821C5.10378 4.07231 3.57071 3.66711 2.37392 4.35394L1.50242 4.85409C1.02341 5.12899 0.857949 5.74016 1.13285 6.21916C1.40775 6.69817 2.01891 6.86363 2.49792 6.58873L3.36942 6.08858C3.61658 5.94673 3.92988 6.0333 4.06894 6.27272L9.42358 15.4918C8.38194 16.5871 8.13538 18.2754 8.93444 19.6511C9.90694 21.3255 12.0555 21.8946 13.7336 20.9315C15.1123 20.1403 15.7511 18.5573 15.3992 17.088L22.4979 13.0141C22.9769 12.7392 23.1424 12.128 22.8675 11.649C22.5926 11.17 21.9814 11.0045 21.5024 11.2794L14.3973 15.3571C13.5358 14.5432 12.3098 14.2176 11.1568 14.4937L5.79838 5.26821ZM11.2178 16.6001C11.9462 16.182 12.875 16.4325 13.2919 17.1504C13.7068 17.8647 13.4631 18.7808 12.7381 19.1969C12.0096 19.615 11.0808 19.3645 10.6639 18.6466C10.249 17.9323 10.4928 17.0162 11.2178 16.6001Z" fill="black"/>
</svg>
