<svg width="24" height="24" viewBox="0 0 24 24" fill="none" xmlns="http://www.w3.org/2000/svg">
<path fill-rule="evenodd" clip-rule="evenodd" d="M6 11V6C6 4.89543 6.89543 4 8 4H16C17.1046 4 18 4.89543 18 6V11C18 12.1046 17.1046 13 16 13H8C6.89543 13 6 12.1046 6 11ZM10.75 5.5H13.25C13.3881 5.5 13.5 5.61193 13.5 5.75V9.13724C13.5 9.31234 13.3246 9.43319 13.161 9.37086L12.178 8.99638C12.0634 8.95271 11.9366 8.95271 11.822 8.99638L10.839 9.37086C10.6754 9.43319 10.5 9.31234 10.5 9.13724V5.75C10.5 5.61193 10.6119 5.5 10.75 5.5ZM2 15C1.44772 15 1 15.4477 1 16C1 16.5523 1.44772 17 2 17H3V19H2C1.44772 19 1 19.4477 1 20C1 20.5523 1.44772 21 2 21H4H12H20H22C22.5523 21 23 20.5523 23 20C23 19.4477 22.5523 19 22 19H21V17H22C22.5523 17 23 16.5523 23 16C23 15.4477 22.5523 15 22 15H20H12H4H2ZM5 19V17H11V19H5ZM13 19V17H19V19H13Z" fill="black"/>
</svg>
