<svg width="24" height="24" viewBox="0 0 24 24" fill="none" xmlns="http://www.w3.org/2000/svg">
<path d="M2 20H4M4 20V16M4 20H12M2 16H4M4 16H12M20 20H22M20 20V16M20 20H12M20 16H22M20 16H12M12 16V20M13 6V10C13 11.1046 13.8954 12 15 12H19C20.1046 12 21 11.1046 21 10V6C21 4.89543 20.1046 4 19 4H15C13.8954 4 13 4.89543 13 6ZM9 7.5V10.5C9 11.3284 8.32843 12 7.5 12H4.5C3.67157 12 3 11.3284 3 10.5V7.5C3 6.67157 3.67157 6 4.5 6H7.5C8.32843 6 9 6.67157 9 7.5Z" stroke="black" stroke-width="2" stroke-linecap="round" stroke-linejoin="round"/>
</svg>
