<svg width="24" height="24" viewBox="0 0 24 24" fill="none" xmlns="http://www.w3.org/2000/svg">
<path fill-rule="evenodd" clip-rule="evenodd" d="M7 6C7 5.44772 7.44772 5 8 5H10V7.59549C10 7.78134 10.1956 7.90221 10.3618 7.8191L11.5528 7.22361C11.8343 7.08284 12.1657 7.08284 12.4472 7.22361L13.6382 7.8191C13.8044 7.90221 14 7.78134 14 7.59549V5H16C16.5523 5 17 5.44772 17 6V10C17 10.5523 16.5523 11 16 11H8C7.44772 11 7 10.5523 7 10V6ZM8 3C6.34315 3 5 4.34315 5 6V10C5 11.6569 6.34315 13 8 13H16C17.6569 13 19 11.6569 19 10V6C19 4.34315 17.6569 3 16 3H8ZM2 15C1.44772 15 1 15.4477 1 16C1 16.5523 1.44772 17 2 17H3V19H2C1.44772 19 1 19.4477 1 20C1 20.5523 1.44772 21 2 21H4H12H20H22C22.5523 21 23 20.5523 23 20C23 19.4477 22.5523 19 22 19H21V17H22C22.5523 17 23 16.5523 23 16C23 15.4477 22.5523 15 22 15H20H12H4H2ZM5 19V17H11V19H5ZM13 19V17H19V19H13Z" fill="black"/>
</svg>
