<svg width="24" height="24" viewBox="0 0 24 24" fill="none" xmlns="http://www.w3.org/2000/svg">
<path d="M10 4H8C6.89543 4 6 4.89543 6 6V10C6 11.1046 6.89543 12 8 12H16C17.1046 12 18 11.1046 18 10V6C18 4.89543 17.1046 4 16 4H14M10 4V7.59549C10 7.78134 10.1956 7.90221 10.3618 7.8191L11.1056 7.44721C11.6686 7.16569 12.3314 7.16569 12.8944 7.44721L13.6382 7.8191C13.8044 7.90221 14 7.78134 14 7.59549V4M10 4H14M2 20H4M4 20V16M4 20H12M2 16H4M4 16H12M20 20H22M20 20V16M20 20H12M20 16H22M20 16H12M12 16V20" stroke="black" stroke-width="2" stroke-linecap="round" stroke-linejoin="round"/>
</svg>
