<svg width="24" height="24" viewBox="0 0 24 24" fill="none" xmlns="http://www.w3.org/2000/svg">
<path d="M22 20H20M20 20V16M20 20H12M22 16H20M20 16H12M4 20H2M4 20V16M4 20H12M4 16H2M4 16H12M12 16V20M10.5 11.5V14.5C10.5 15.3284 9.82843 16 9 16H6C5.17157 16 4.5 15.3284 4.5 14.5V11.5C4.5 10.6716 5.17157 10 6 10H9C9.82843 10 10.5 10.6716 10.5 11.5ZM19.5 11.5V14.5C19.5 15.3284 18.8284 16 18 16H15C14.1716 16 13.5 15.3284 13.5 14.5V11.5C13.5 10.6716 14.1716 10 15 10H18C18.8284 10 19.5 10.6716 19.5 11.5ZM15 5.5V8.5C15 9.32843 14.3284 10 13.5 10H10.5C9.67157 10 9 9.32843 9 8.5V5.5C9 4.67157 9.67157 4 10.5 4H13.5C14.3284 4 15 4.67157 15 5.5Z" stroke="black" stroke-width="2" stroke-linecap="round" stroke-linejoin="round"/>
</svg>
