<svg width="24" height="24" viewBox="0 0 24 24" fill="none" xmlns="http://www.w3.org/2000/svg">
<path d="M2 20H4M4 20V16M4 20H12M2 16H4M4 16H12M20 20H22M20 20V16M20 20H12M20 16H22M20 16H12M12 16V20M14 6V10C14 11.1046 14.8954 12 16 12H20C21.1046 12 22 11.1046 22 10V6C22 4.89543 21.1046 4 20 4H16C14.8954 4 14 4.89543 14 6ZM10 6V10C10 11.1046 9.10457 12 8 12H4C2.89543 12 2 11.1046 2 10V6C2 4.89543 2.89543 4 4 4H8C9.10457 4 10 4.89543 10 6Z" stroke="black" stroke-width="2" stroke-linecap="round" stroke-linejoin="round"/>
</svg>
