<svg width="24" height="24" viewBox="0 0 24 24" fill="none" xmlns="http://www.w3.org/2000/svg">
<path d="M22 20H20M20 20V16M20 20H12M22 16H20M20 16H12M4 20H2M4 20V16M4 20H12M4 16H2M4 16H12M12 16V20M11 6V10C11 11.1046 10.1046 12 9 12H5C3.89543 12 3 11.1046 3 10V6C3 4.89543 3.89543 4 5 4H9C10.1046 4 11 4.89543 11 6ZM15 7.5V10.5C15 11.3284 15.6716 12 16.5 12H19.5C20.3284 12 21 11.3284 21 10.5V7.5C21 6.67157 20.3284 6 19.5 6H16.5C15.6716 6 15 6.67157 15 7.5Z" stroke="black" stroke-width="2" stroke-linecap="round" stroke-linejoin="round"/>
</svg>
