<svg width="24" height="24" viewBox="0 0 24 24" fill="none" xmlns="http://www.w3.org/2000/svg">
<path d="M3 8V6C3 4.34315 4.34315 3 6 3H8M21 8V6C21 4.34315 19.6569 3 18 3H16M3 16V18C3 19.6569 4.34315 21 6 21H8M21 16V18C21 19.6569 19.6569 21 18 21H16M12 11V17M12 11L17.5 8.70833M12 11L6.5 8.70833M10.8462 6.48077L7.23077 7.98718C6.48548 8.29772 6 9.02593 6 9.83333V14.1667C6 14.9741 6.48548 15.7023 7.23077 16.0128L10.8462 17.5192C11.5846 17.8269 12.4154 17.8269 13.1538 17.5192L16.7692 16.0128C17.5145 15.7023 18 14.9741 18 14.1667V9.83333C18 9.02593 17.5145 8.29772 16.7692 7.98718L13.1538 6.48077C12.4154 6.17308 11.5846 6.17308 10.8462 6.48077Z" stroke="black" stroke-width="2" stroke-linecap="round" stroke-linejoin="round"/>
</svg>
