<svg width="24" height="24" viewBox="0 0 24 24" fill="none" xmlns="http://www.w3.org/2000/svg">
<path fill-rule="evenodd" clip-rule="evenodd" d="M4 6C4 4.89543 4.89543 4 6 4H8C8.55228 4 9 3.55228 9 3C9 2.44772 8.55228 2 8 2H6C3.79086 2 2 3.79086 2 6V8C2 8.55228 2.44772 9 3 9C3.55228 9 4 8.55228 4 8V6ZM16 2C15.4477 2 15 2.44772 15 3C15 3.55228 15.4477 4 16 4H18C19.1046 4 20 4.89543 20 6V8C20 8.55228 20.4477 9 21 9C21.5523 9 22 8.55228 22 8V6C22 3.79086 20.2091 2 18 2H16ZM9 6C7.34315 6 6 7.34315 6 9V15C6 16.6569 7.34315 18 9 18H15C16.6569 18 18 16.6569 18 15V9C18 7.34315 16.6569 6 15 6H9ZM8 9C8 8.44772 8.44772 8 9 8H10.5V10.6531C10.5 10.8238 10.6672 10.9443 10.8291 10.8903L11.3675 10.7108C11.7781 10.574 12.2219 10.574 12.6325 10.7108L13.1709 10.8903C13.3328 10.9443 13.5 10.8238 13.5 10.6531V8H15C15.5523 8 16 8.44772 16 9V15C16 15.5523 15.5523 16 15 16H9C8.44772 16 8 15.5523 8 15V9ZM4 16C4 15.4477 3.55228 15 3 15C2.44772 15 2 15.4477 2 16V18C2 20.2091 3.79086 22 6 22H8C8.55228 22 9 21.5523 9 21C9 20.4477 8.55228 20 8 20H6C4.89543 20 4 19.1046 4 18V16ZM22 16C22 15.4477 21.5523 15 21 15C20.4477 15 20 15.4477 20 16V18C20 19.1046 19.1046 20 18 20H16C15.4477 20 15 20.4477 15 21C15 21.5523 15.4477 22 16 22H18C20.2091 22 22 20.2091 22 18V16Z" fill="black"/>
</svg>
