<svg width="24" height="24" viewBox="0 0 24 24" fill="none" xmlns="http://www.w3.org/2000/svg">
<path d="M3 8V6C3 4.34315 4.34315 3 6 3H8M21 8V6C21 4.34315 19.6569 3 18 3H16M3 16V18C3 19.6569 4.34315 21 6 21H8M21 16V18C21 19.6569 19.6569 21 18 21H16M7.5 10.5H12M16.5 10.5H12M12 7H9.81879C9.01874 7 8.29566 7.47679 7.9805 8.21216L7.24256 9.93402C7.08252 10.3074 7 10.7095 7 11.1158V15C7 16.1046 7.89543 17 9 17H15C16.1046 17 17 16.1046 17 15V11.1158C17 10.7095 16.9175 10.3074 16.7574 9.93401L16.0195 8.21216C15.7043 7.47679 14.9813 7 14.1812 7H12ZM12 7V10.5M10 14H12" stroke="black" stroke-width="2" stroke-linecap="round" stroke-linejoin="round"/>
</svg>
