<svg width="24" height="24" viewBox="0 0 24 24" fill="none" xmlns="http://www.w3.org/2000/svg">
<path fill-rule="evenodd" clip-rule="evenodd" d="M6.06343 3.23099C5.56689 2.923 4.93315 2.923 4.4366 3.23099C3.76532 3.64735 2.85234 3.97091 2.08649 4.1776C1.48718 4.33934 0.985129 4.88887 1.00034 5.60388C1.04073 7.50289 1.39734 8.85238 2.08632 9.86171C2.77656 10.8729 3.71561 11.412 4.59983 11.8485C5.00905 12.0505 5.49098 12.0505 5.9002 11.8485C6.78442 11.412 7.72347 10.8729 8.41371 9.86171C9.10269 8.85238 9.4593 7.50289 9.49969 5.60388C9.5149 4.88887 9.01285 4.33934 8.41354 4.1776C7.64769 3.97091 6.73471 3.64735 6.06343 3.23099ZM5.25011 9.93635C5.93761 9.58028 6.41351 9.24447 6.76186 8.73414C7.11552 8.21604 7.40798 7.40968 7.4842 5.99204C6.78671 5.78217 5.96866 5.47939 5.25011 5.07316V9.93635ZM12.0002 6C11.4479 5.99996 11.0001 6.44765 11.0001 6.99994C11.0001 7.55222 11.4478 7.99996 12 8L12.9996 8.00006C13.5517 8.0001 13.9995 8.44785 13.9995 9.00019V17.0002H11.3288C10.917 15.835 9.80572 15.0002 8.4995 15.0002C7.21182 15.0002 6.11363 15.8115 5.68816 16.9508C5.28832 16.8199 4.9995 16.4438 4.9995 16.0002V14.5C4.9995 13.9477 4.55178 13.5 3.9995 13.5C3.44721 13.5 2.9995 13.9477 2.9995 14.5V16.0002C2.9995 17.5435 4.16491 18.8147 5.66371 18.9816C6.07025 20.1565 7.18634 21.0002 8.4995 21.0002C9.80572 21.0002 10.917 20.1654 11.3288 19.0002H14.6702C15.082 20.1654 16.1933 21.0002 17.4995 21.0002C18.8127 21.0002 19.9287 20.1565 20.3353 18.9816C21.8341 18.8147 22.9995 17.5435 22.9995 16.0002V14.3335C22.9995 13.2517 22.6486 12.199 21.9995 11.3335L20.3995 9.20019C19.8329 8.44477 18.9438 8.00019 17.9995 8.00019H15.8288C15.417 6.83506 14.3059 6.00015 12.9997 6.00006L12.0002 6ZM15.9995 10.0002V15.4015C16.4408 15.1463 16.9531 15.0002 17.4995 15.0002C18.7872 15.0002 19.8854 15.8115 20.3108 16.9508C20.7107 16.8199 20.9995 16.4438 20.9995 16.0002V14.3335C20.9995 14.2217 20.9933 14.1105 20.9809 14.0002H18.9995C18.4472 14.0002 17.9995 13.5525 17.9995 13.0002C17.9995 12.4479 18.4472 12.0002 18.9995 12.0002H19.9995L18.7995 10.4002C18.6106 10.1484 18.3143 10.0002 17.9995 10.0002H15.9995ZM7.4995 18.0002C7.4995 17.4479 7.94721 17.0002 8.4995 17.0002C9.05178 17.0002 9.4995 17.4479 9.4995 18.0002C9.4995 18.5525 9.05178 19.0002 8.4995 19.0002C7.94722 19.0002 7.4995 18.5525 7.4995 18.0002ZM16.4995 18.0002C16.4995 17.4479 16.9472 17.0002 17.4995 17.0002C18.0518 17.0002 18.4995 17.4479 18.4995 18.0002C18.4995 18.5525 18.0518 19.0002 17.4995 19.0002C16.9472 19.0002 16.4995 18.5525 16.4995 18.0002Z" fill="black"/>
</svg>
