<svg width="24" height="24" viewBox="0 0 24 24" fill="none" xmlns="http://www.w3.org/2000/svg">
<path d="M15.5 18C15.5 19.1046 16.3954 20 17.5 20C18.6046 20 19.5 19.1046 19.5 18M15.5 18C15.5 16.8954 16.3954 16 17.5 16C18.6046 16 19.5 16.8954 19.5 18M15.5 18H15M10.5 18C10.5 19.1046 9.60457 20 8.5 20C7.39543 20 6.5 19.1046 6.5 18M10.5 18C10.5 16.8954 9.60457 16 8.5 16C7.39543 16 6.5 16.8954 6.5 18M10.5 18H15M6.5 18H6C4.89543 18 4 17.1046 4 16V11M19.5 18H20C21.1046 18 22 17.1046 22 16V14.3333C22 13.4679 21.7193 12.6257 21.2 11.9333L19.6 9.8C19.2223 9.29639 18.6295 9 18 9H15M15 9V18M15 9V9C15 7.89543 14.1046 7 13 7H9M21.5 13H19M2 6L3.5 7.5L7 4" stroke="black" stroke-width="2" stroke-linecap="round" stroke-linejoin="round"/>
</svg>
