<svg width="24" height="24" viewBox="0 0 24 24" fill="none" xmlns="http://www.w3.org/2000/svg">
<path fill-rule="evenodd" clip-rule="evenodd" d="M5.87342 5.091C5.87342 5.23969 5.99308 5.35935 6.2324 5.59867L7.40133 6.7676C7.64065 7.00692 7.76031 7.12658 7.909 7.12658C8.05769 7.12658 8.17735 7.00692 8.41667 6.7676L8.51103 6.67323C8.56901 6.61526 8.59803 6.58624 8.62136 6.56057C9.12621 6.00517 9.12621 5.15703 8.62136 4.60163C8.59804 4.57597 8.56897 4.5469 8.51102 4.48895L8.51093 4.48886L8.51087 4.4888C8.45298 4.43092 8.42402 4.40195 8.39837 4.37864C7.84297 3.87379 6.99483 3.87379 6.43943 4.37864C6.41376 4.40197 6.38476 4.43097 6.32677 4.48896L6.2324 4.58333C5.99308 4.82265 5.87342 4.94231 5.87342 5.091ZM5.21707 5.74736C5.36576 5.74736 5.48542 5.86702 5.72473 6.10633L6.89367 7.27527C7.13298 7.51458 7.25264 7.63424 7.25264 7.78294C7.25264 7.93163 7.13298 8.05128 6.89367 8.2906L6.89367 8.2906L5.90782 9.27645L5.90322 9.281C5.80053 9.38265 5.76617 9.41666 5.72714 9.44401C5.70751 9.45776 5.6867 9.46983 5.65542 9.48796C5.59769 9.52144 5.5043 9.57559 5.31685 9.6992C4.82294 10.0249 4.26981 10.2461 3.16358 10.6886L3.00514 10.752C2.46564 10.9678 2.19589 11.0757 2.06009 10.9399C1.9243 10.8041 2.0322 10.5344 2.248 9.99487L2.248 9.99486L2.31138 9.83642C2.75387 8.73018 2.97512 8.17706 3.3008 7.68315C3.42441 7.4957 3.47856 7.40231 3.51204 7.34458C3.53017 7.3133 3.54224 7.29249 3.55599 7.27286C3.58334 7.23383 3.61735 7.19947 3.719 7.09678L3.71901 7.09677L3.72355 7.09218L4.7094 6.10633L4.7094 6.10633C4.94872 5.86702 5.06837 5.74736 5.21707 5.74736ZM11.5 6C10.9477 6 10.5 6.44772 10.5 7C10.5 7.55228 10.9477 8 11.5 8H13C13.5523 8 14 8.44772 14 9V17H11.3293C10.9175 15.8348 9.80622 15 8.5 15C7.21232 15 6.11413 15.8113 5.68867 16.9506C5.28882 16.8197 5 16.4436 5 16V13C5 12.4477 4.55228 12 4 12C3.44772 12 3 12.4477 3 13V16C3 17.5433 4.16541 18.8145 5.66421 18.9814C6.07075 20.1563 7.18685 21 8.5 21C9.80622 21 10.9175 20.1652 11.3293 19H14.6707C15.0825 20.1652 16.1938 21 17.5 21C18.8132 21 19.9292 20.1563 20.3358 18.9814C21.8346 18.8145 23 17.5433 23 16V14.3333C23 13.2515 22.6491 12.1988 22 11.3333L20.4 9.2C19.8334 8.44458 18.9443 8 18 8H15.8293C15.4175 6.83481 14.3062 6 13 6H11.5ZM16 10V15.4013C16.4413 15.1461 16.9536 15 17.5 15C18.7877 15 19.8859 15.8113 20.3113 16.9506C20.7112 16.8197 21 16.4436 21 16V14.3333C21 14.2215 20.9938 14.1103 20.9814 14H19C18.4477 14 18 13.5523 18 13C18 12.4477 18.4477 12 19 12H20L18.8 10.4C18.6111 10.1482 18.3148 10 18 10H16ZM7.5 18C7.5 17.4477 7.94772 17 8.5 17C9.05228 17 9.5 17.4477 9.5 18C9.5 18.5523 9.05228 19 8.5 19C7.94772 19 7.5 18.5523 7.5 18ZM16.5 18C16.5 17.4477 16.9477 17 17.5 17C18.0523 17 18.5 17.4477 18.5 18C18.5 18.5523 18.0523 19 17.5 19C16.9477 19 16.5 18.5523 16.5 18Z" fill="black"/>
</svg>
