<svg width="24" height="24" viewBox="0 0 24 24" fill="none" xmlns="http://www.w3.org/2000/svg">
<path d="M15.5 18.0002C15.5 19.1048 16.3954 20.0002 17.5 20.0002C18.6046 20.0002 19.5 19.1048 19.5 18.0002M15.5 18.0002C15.5 16.8956 16.3954 16.0002 17.5 16.0002C18.6046 16.0002 19.5 16.8956 19.5 18.0002M15.5 18.0002H15M10.5 18.0002C10.5 19.1048 9.60457 20.0002 8.5 20.0002C7.39543 20.0002 6.5 19.1048 6.5 18.0002M10.5 18.0002C10.5 16.8956 9.60457 16.0002 8.5 16.0002C7.39543 16.0002 6.5 16.8956 6.5 18.0002M10.5 18.0002H15M6.5 18.0002H6C4.89543 18.0002 4 17.1048 4 16.0002V13.5M19.5 18.0002H20C21.1046 18.0002 22 17.1048 22 16.0002V14.3335C22 13.468 21.7193 12.6259 21.2 11.9335L19.6 9.80019C19.2223 9.29658 18.6295 9.00019 18 9.00019H15M15 9.00019V18.0002M15 9.00019V9.00019C15 7.89562 14.1046 7.00019 13 7.00019H9.5M21.5 13.0002H19M4 4L2.51823 6.22265C2.29671 6.55493 2.53491 7 2.93426 7H5.06574C5.46509 7 5.70328 7.44507 5.48177 7.77735L4 10" stroke="black" stroke-width="2" stroke-linecap="round" stroke-linejoin="round"/>
</svg>
