<svg width="24" height="24" viewBox="0 0 24 24" fill="none" xmlns="http://www.w3.org/2000/svg">
<path d="M15.5 17C15.5 18.1046 16.3954 19 17.5 19C18.6046 19 19.5 18.1046 19.5 17M15.5 17C15.5 15.8954 16.3954 15 17.5 15C18.6046 15 19.5 15.8954 19.5 17M15.5 17H15M8.5 17C8.5 18.1046 7.60457 19 6.5 19C5.39543 19 4.5 18.1046 4.5 17M8.5 17C8.5 15.8954 7.60457 15 6.5 15C5.39543 15 4.5 15.8954 4.5 17M8.5 17H15M4.5 17H4C2.89543 17 2 16.1046 2 15V14M19.5 17H20C21.1046 17 22 16.1046 22 15V13.3333C22 12.4679 21.7193 11.6257 21.2 10.9333L19.6 8.8C19.2223 8.29639 18.6295 8 18 8H15M2 5H13C14.1046 5 15 5.89543 15 7V8M15 8V17M21.5 12H19M8 8H5M6 11H2" stroke="black" stroke-width="2" stroke-linecap="round" stroke-linejoin="round"/>
</svg>
