<svg width="24" height="24" viewBox="0 0 24 24" fill="none" xmlns="http://www.w3.org/2000/svg">
<path fill-rule="evenodd" clip-rule="evenodd" d="M2 7.5C2 9.433 3.567 11 5.5 11C7.433 11 9 9.433 9 7.5C9 5.567 7.433 4 5.5 4C3.567 4 2 5.567 2 7.5ZM5.55078 5.25C5.96499 5.25 6.30078 5.58579 6.30078 6V7.25H6.55078C6.96499 7.25 7.30078 7.58579 7.30078 8C7.30078 8.41421 6.96499 8.75 6.55078 8.75H5.71745C5.21119 8.75 4.80078 8.33959 4.80078 7.83333V6C4.80078 5.58579 5.13657 5.25 5.55078 5.25ZM12.0007 6C11.4484 5.99996 11.0006 6.44765 11.0006 6.99994C11.0006 7.55222 11.4483 7.99996 12.0005 8L13.0001 8.00006C13.5522 8.0001 14 8.44785 14 9.00019V17.0002H11.3293C10.9175 15.835 9.80622 15.0002 8.5 15.0002C7.21232 15.0002 6.11413 15.8115 5.68867 16.9508C5.28882 16.8199 5 16.4438 5 16.0002V13.5C5 12.9477 4.55228 12.5 4 12.5C3.44772 12.5 3 12.9477 3 13.5V16.0002C3 17.5435 4.16541 18.8147 5.66421 18.9816C6.07075 20.1565 7.18684 21.0002 8.5 21.0002C9.80622 21.0002 10.9175 20.1654 11.3293 19.0002H14.6707C15.0825 20.1654 16.1938 21.0002 17.5 21.0002C18.8132 21.0002 19.9292 20.1565 20.3358 18.9816C21.8346 18.8147 23 17.5435 23 16.0002V14.3335C23 13.2517 22.6491 12.199 22 11.3335L20.4 9.20019C19.8334 8.44477 18.9443 8.00019 18 8.00019H15.8293C15.4175 6.83506 14.3064 6.00015 13.0002 6.00006L12.0007 6ZM16 10.0002V15.4015C16.4413 15.1463 16.9536 15.0002 17.5 15.0002C18.7877 15.0002 19.8859 15.8115 20.3113 16.9508C20.7112 16.8199 21 16.4438 21 16.0002V14.3335C21 14.2217 20.9938 14.1105 20.9814 14.0002H19C18.4477 14.0002 18 13.5525 18 13.0002C18 12.4479 18.4477 12.0002 19 12.0002H20L18.8 10.4002C18.6111 10.1484 18.3148 10.0002 18 10.0002H16ZM7.5 18.0002C7.5 17.4479 7.94771 17.0002 8.5 17.0002C9.05228 17.0002 9.5 17.4479 9.5 18.0002C9.5 18.5525 9.05228 19.0002 8.5 19.0002C7.94772 19.0002 7.5 18.5525 7.5 18.0002ZM16.5 18.0002C16.5 17.4479 16.9477 17.0002 17.5 17.0002C18.0523 17.0002 18.5 17.4479 18.5 18.0002C18.5 18.5525 18.0523 19.0002 17.5 19.0002C16.9477 19.0002 16.5 18.5525 16.5 18.0002Z" fill="black"/>
</svg>
