<svg width="24" height="24" viewBox="0 0 24 24" fill="none" xmlns="http://www.w3.org/2000/svg">
<path d="M3 20.9999L3 10.8889C3 9.65453 3.56989 8.48931 4.54424 7.73148L9.54424 3.84259C10.2665 3.28086 11.1332 3 12 3C12.8668 3 13.7335 3.28086 14.4558 3.84259L19.4558 7.73148C20.4301 8.48931 21 9.65453 21 10.8889V20.9999M12 13.9583V19.375M12 13.9583L16.5833 12.0486M12 13.9583L7.41667 12.0486M11.0385 10.1923L8.02564 11.4476C7.40456 11.7064 7 12.3133 7 12.9861V17.0139C7 17.6867 7.40456 18.2936 8.02564 18.5524L11.0385 19.8077C11.6538 20.0641 12.3462 20.0641 12.9615 19.8077L15.9744 18.5524C16.5954 18.2936 17 17.6867 17 17.0139V12.9861C17 12.3133 16.5954 11.7064 15.9744 11.4476L12.9615 10.1923C12.3462 9.9359 11.6538 9.9359 11.0385 10.1923Z" stroke="black" stroke-width="2" stroke-linecap="round" stroke-linejoin="round"/>
</svg>
