<svg width="24" height="24" viewBox="0 0 24 24" fill="none" xmlns="http://www.w3.org/2000/svg">
<path d="M10 17H14M13 14H14M3 20.9999V10.8889C3 9.65453 3.56989 8.48931 4.54424 7.73148L9.54424 3.84259C10.2665 3.28086 11.1332 3 12 3C12.8668 3 13.7335 3.28086 14.4558 3.84259L19.4558 7.73148C20.4301 8.48931 21 9.65453 21 10.8889V20.9999M9 20H15C16.1046 20 17 19.1046 17 18V12C17 10.8954 16.1046 10 15 10H9C7.89543 10 7 10.8954 7 12V18C7 19.1046 7.89543 20 9 20Z" stroke="black" stroke-width="2" stroke-linecap="round" stroke-linejoin="round"/>
</svg>
