<svg width="24" height="24" viewBox="0 0 24 24" fill="none" xmlns="http://www.w3.org/2000/svg">
<path d="M7.5 13.5H12M16.5 13.5H12M12 10H9.81879C9.01874 10 8.29566 10.4768 7.9805 11.2122L7.24256 12.934C7.08252 13.3074 7 13.7095 7 14.1158V18C7 19.1046 7.89543 20 9 20H15C16.1046 20 17 19.1046 17 18V14.1158C17 13.7095 16.9175 13.3074 16.7574 12.934L16.0195 11.2122C15.7043 10.4768 14.9813 10 14.1812 10H12ZM12 10V13.5M10 17H12M3 20.9999V10.8889C3 9.65453 3.56989 8.48931 4.54424 7.73148L9.54424 3.84259C10.2665 3.28086 11.1332 3 12 3C12.8668 3 13.7335 3.28086 14.4558 3.84259L19.4558 7.73148C20.4301 8.48931 21 9.65453 21 10.8889V20.9999" stroke="black" stroke-width="2" stroke-linecap="round" stroke-linejoin="round"/>
</svg>
