<svg width="24" height="24" viewBox="0 0 24 24" fill="none" xmlns="http://www.w3.org/2000/svg">
<path d="M3 20.9999V9.57407C3 8.54544 3.47491 7.57442 4.28686 6.9429L8.45353 3.70216C9.05538 3.23405 9.77769 3 10.5 3C11.2223 3 11.9446 3.23405 12.5465 3.70216L16.7131 6.9429C17.5251 7.57442 18 8.54544 18 9.57407V10.9999M9.69872 17.0064L7.18803 15.9603C6.67047 15.7446 6.33333 15.2389 6.33333 14.6782V11.3218C6.33333 10.7611 6.67047 10.2554 7.18803 10.0397L9.69872 8.99359C10.2115 8.77991 10.7885 8.77991 11.3013 8.99359L13.812 10.0397C14.3295 10.2554 14.6667 10.7611 14.6667 11.3218M10.5 12.1319V14.6458M10.5 12.1319L14.3194 10.5405M10.5 12.1319L6.68056 10.5405M20.2 17.75C20.2 19.5449 18.7673 21 17 21C16.2444 21 15.55 20.734 15.0026 20.2893M20.2 17.75L21 18.5625M20.2 17.75L19.2 18.3594M13.8 17.75C13.8 15.9551 15.2327 14.5 17 14.5C17.7568 14.5 18.4522 14.7668 19 15.2128M13.8 17.75L13 16.9375M13.8 17.75L14.8 17.1406" stroke="black" stroke-width="2" stroke-linecap="round" stroke-linejoin="round"/>
</svg>
