<svg width="24" height="24" viewBox="0 0 24 24" fill="none" xmlns="http://www.w3.org/2000/svg">
<path fill-rule="evenodd" clip-rule="evenodd" d="M10.1582 4.63194C10.6999 4.21057 11.3493 4 12 4C12.6507 4 13.3001 4.21058 13.8418 4.63194L18.8418 8.52083C19.5726 9.0892 20 9.96312 20 10.8889V20.9999C20 21.5522 20.4477 21.9999 21 21.9999C21.5523 21.9999 22 21.5522 22 20.9999V10.8889C22 9.34594 21.2876 7.88941 20.0697 6.94213L15.0697 3.05324C14.167 2.35115 13.0828 2 12 2C10.9172 2 9.83298 2.35115 8.9303 3.05324L3.9303 6.94213C2.71236 7.88941 2 9.34594 2 10.8889V20.9999C2 21.5522 2.44772 21.9999 3 21.9999C3.55228 21.9999 4 21.5522 4 20.9999V10.8889C4 9.96312 4.42742 9.0892 5.15818 8.52083L10.1582 4.63194ZM9 9C7.34315 9 6 10.3431 6 12V18C6 19.6569 7.34315 21 9 21H15C16.6569 21 18 19.6569 18 18V12C18 10.3431 16.6569 9 15 9H9ZM8 12C8 11.4477 8.44772 11 9 11H10.5V13.6531C10.5 13.8238 10.6672 13.9443 10.8291 13.8903L11.3675 13.7108C11.7781 13.574 12.2219 13.574 12.6325 13.7108L13.1709 13.8903C13.3328 13.9443 13.5 13.8238 13.5 13.6531V11H15C15.5523 11 16 11.4477 16 12V18C16 18.5523 15.5523 19 15 19H9C8.44772 19 8 18.5523 8 18V12Z" fill="black"/>
</svg>
