<svg width="24" height="24" viewBox="0 0 24 24" fill="none" xmlns="http://www.w3.org/2000/svg">
<path d="M12 18.4739H18.8524C20.5365 18.4739 21.5632 16.7159 20.6706 15.3607L20.0408 14.4043M12 18.4739L13.6082 16.9478M12 18.4739L13.6082 20M17.3605 10.3347L13.8183 4.95635C12.9785 3.68121 11.0215 3.68122 10.1817 4.95636L9.31974 6.26514M17.3605 10.3347L15.2163 9.82603M17.3605 10.3347L17.8966 8.29993M6.63948 10.3347L3.32935 15.3607C2.43676 16.7159 3.4635 18.4739 5.14764 18.4739H6.63948M6.63948 10.3347L7.17553 12.3695M6.63948 10.3347L4.49527 10.8434" stroke="black" stroke-width="2" stroke-linecap="round" stroke-linejoin="round"/>
</svg>
