<svg width="24" height="24" viewBox="0 0 24 24" fill="none" xmlns="http://www.w3.org/2000/svg">
<path fill-rule="evenodd" clip-rule="evenodd" d="M11.9999 10.7671C11.9999 10.7672 12 10.7672 12 10.7672C13.1311 9.95123 14.1496 9.22327 15.3342 8.55763C17.5733 7.29941 19.5255 7.19413 20.976 8.07712C22.3829 8.93352 23 10.5343 23 12C23 13.4657 22.3828 15.0665 20.976 15.9229C19.5254 16.8059 17.5733 16.7006 15.3341 15.4424C14.7724 15.1267 14.248 14.797 13.7312 14.4506L14.8778 13.6248C15.0854 13.4763 15.2843 13.3354 15.4775 13.2008C15.7498 13.3719 16.0264 13.5372 16.3139 13.6988C18.1921 14.7542 19.3279 14.5847 19.936 14.2145C20.5878 13.8177 21 12.9764 21 12C21 11.0236 20.5878 10.1823 19.9361 9.78549C19.3279 9.41531 18.1921 9.2458 16.3139 10.3012L16.3138 10.3011C15.6285 10.6862 15.0059 11.0925 14.3537 11.5463C14.1438 11.6923 13.9308 11.8432 13.7116 12L11.9999 13.2328C11.5539 13.5545 11.1255 13.8624 10.6976 14.1583C10.587 14.2347 10.4766 14.3103 10.3658 14.3851C9.8175 14.7555 9.26269 15.1068 8.6657 15.4423L8.66565 15.4425C6.42664 16.7006 4.47454 16.8058 3.02404 15.9229C1.61718 15.0665 1.00001 13.4657 1 12C0.999992 10.5343 1.61715 8.93352 3.024 8.07712C4.47454 7.19413 6.42672 7.29941 8.66585 8.55763C9.22753 8.87326 9.75188 9.2029 10.2686 9.54929L9.122 10.3751C8.91436 10.5236 8.71549 10.6644 8.52226 10.799C8.25002 10.628 7.97357 10.4628 7.68608 10.3012C5.80787 9.24579 4.67206 9.41531 4.06395 9.78549C3.41215 10.1823 2.99999 11.0236 3 12C3.00001 12.9764 3.41217 13.8177 4.06398 14.2145C4.67209 14.5847 5.8079 14.7542 7.68608 13.6988C8.5919 13.1898 9.38822 12.6436 10.2882 12C10.2882 12 10.2882 12 10.2881 11.9999L11.9999 10.7672C11.9999 10.7671 11.9999 10.7671 11.9999 10.7671Z" fill="black"/>
</svg>
