<svg width="24" height="24" viewBox="0 0 24 24" fill="none" xmlns="http://www.w3.org/2000/svg">
<path fill-rule="evenodd" clip-rule="evenodd" d="M12.0001 10.7671C12.0001 10.7671 12 10.7671 12 10.7671C10.8689 9.95115 9.8504 9.22319 8.66585 8.55756C6.42672 7.29933 4.47454 7.19405 3.024 8.07705C1.61715 8.93345 0.999992 10.5342 1 11.9999C1.00001 13.4656 1.61718 15.0664 3.02404 15.9228C4.47458 16.8058 6.42675 16.7005 8.66585 15.4423C9.22761 15.1266 9.75203 14.7969 10.2688 14.4505L9.12221 13.6247C8.91457 13.4762 8.71571 13.3353 8.52249 13.2008C8.25018 13.3718 7.97365 13.5371 7.68608 13.6987C5.8079 14.7541 4.67209 14.5846 4.06398 14.2144C3.41217 13.8177 3.00001 12.9763 3 11.9999C2.99999 11.0235 3.41215 10.1822 4.06395 9.78541C4.67205 9.41524 5.80786 9.24572 7.68605 10.3011L7.68623 10.3011C8.3715 10.6861 8.99409 11.0925 9.64632 11.5462C9.85624 11.6922 10.0692 11.8432 10.2884 11.9999L12.0001 13.2327C12.4461 13.5544 12.8745 13.8624 13.3024 14.1582C13.413 14.2347 13.5234 14.3103 13.6342 14.3851C14.1825 14.7555 14.7373 15.1068 15.3343 15.4422L15.3343 15.4424C17.5734 16.7005 19.5255 16.8058 20.976 15.9228C22.3828 15.0664 23 13.4656 23 11.9999C23 10.5342 22.3829 8.93345 20.976 8.07705C19.5255 7.19405 17.5733 7.29933 15.3342 8.55756C14.7725 8.87318 14.2481 9.20282 13.7314 9.54922L14.878 10.375C15.0856 10.5235 15.2845 10.6644 15.4777 10.7989C15.75 10.628 16.0264 10.4627 16.3139 10.3011C18.1921 9.24572 19.3279 9.41524 19.9361 9.78541C20.5878 10.1822 21 11.0235 21 11.9999C21 12.9763 20.5878 13.8177 19.936 14.2144C19.3279 14.5846 18.1921 14.7541 16.3139 13.6987C15.4081 13.1897 14.6118 12.6436 13.7118 11.9999C13.7118 11.9999 13.7118 11.9999 13.7119 11.9999L12.0001 10.7671C12.0001 10.7671 12.0001 10.7671 12.0001 10.7671Z" fill="black"/>
</svg>
