<svg width="24" height="24" viewBox="0 0 24 24" fill="none" xmlns="http://www.w3.org/2000/svg">
<path d="M18.5 21H5.5M18.5 21H19C20.1046 21 21 20.1046 21 19V15C21 14.4477 20.5523 14 20 14H18.5M18.5 21V14M5.5 21H5C3.89543 21 3 20.1046 3 19V15C3 14.4477 3.44772 14 4 14H5.5M5.5 21V14M6.5 13V13C5.94772 13 5.5 13.4477 5.5 14V14M6.5 13V8C6.5 5.79086 8.29086 4 10.5 4H11M6.5 13H17.5M17.5 13V13C18.0523 13 18.5 13.4477 18.5 14V14M17.5 13V8C17.5 5.79086 15.7091 4 13.5 4H13M11 4V4C11 3.44772 11.4477 3 12 3V3C12.5523 3 13 3.44772 13 4V4M11 4H13M9.5 17H14.5M12 7.5L11 8.5L12 9.5L13 8.5L12 7.5Z" stroke="black" stroke-width="2" stroke-linecap="round" stroke-linejoin="round"/>
</svg>
