<svg width="24" height="24" viewBox="0 0 24 24" fill="none" xmlns="http://www.w3.org/2000/svg">
<path d="M5 13V13C3.89543 13 3 13.8954 3 15V18C3 19.6569 4.34315 21 6 21H18C19.6569 21 21 19.6569 21 18V15C21 13.8954 20.1046 13 19 13V13M5 13V9C5 6.23858 7.23858 4 10 4H11M5 13H19M19 13V9C19 6.23858 16.7614 4 14 4H13M11 4V3C11 2.44772 11.4477 2 12 2V2C12.5523 2 13 2.44772 13 3V4M11 4H13M7 17H17M12 7.5L11 8.5L12 9.5L13 8.5L12 7.5Z" stroke="black" stroke-width="2" stroke-linecap="round" stroke-linejoin="round"/>
</svg>
