<svg width="24" height="24" viewBox="0 0 24 24" fill="none" xmlns="http://www.w3.org/2000/svg">
<path fill-rule="evenodd" clip-rule="evenodd" d="M5 12C5 8.13401 8.13401 5 12 5C15.866 5 19 8.13401 19 12V13H5V12ZM21 12V13.1707C22.1652 13.5825 23 14.6938 23 16V18C23 19.6569 21.6569 21 20 21H4C2.34315 21 1 19.6569 1 18V16C1 14.6938 1.83481 13.5825 3 13.1707V12C3 7.02944 7.02944 3 12 3C16.9706 3 21 7.02944 21 12ZM3 16C3 15.4477 3.44772 15 4 15H20C20.5523 15 21 15.4477 21 16V18C21 18.5523 20.5523 19 20 19H4C3.44772 19 3 18.5523 3 18V16ZM9.5 18H6.5C6.22386 18 6 17.7761 6 17.5V16.5C6 16.2239 6.22386 16 6.5 16H9.5C9.77614 16 10 16.2239 10 16.5V17.5C10 17.7761 9.77614 18 9.5 18Z" fill="black"/>
</svg>
