<svg width="24" height="24" viewBox="0 0 24 24" fill="none" xmlns="http://www.w3.org/2000/svg">
<path d="M19.5 21V18.9344C19.5 18.151 19.0427 17.4398 18.3299 17.1147L13.4355 14.8827C12.2761 14.3539 11.5773 13.1505 11.6926 11.8815L12.5 3H8M19.5 21H21M19.5 21H14.4443C13.8233 21 13.2109 20.8554 12.6555 20.5777L9.50005 19M4.50005 19V16.6491C4.50005 16.2192 4.56936 15.7921 4.70531 15.3842L5.1317 14.105C5.37227 13.3833 5.40204 12.608 5.21753 11.87L3 3H8M4.50005 19H9.50005M4.50005 19V21H9.50005V19M8 3V9" stroke="black" stroke-width="2" stroke-linecap="round" stroke-linejoin="round"/>
</svg>
