<svg width="24" height="24" viewBox="0 0 24 24" fill="none" xmlns="http://www.w3.org/2000/svg">
<path d="M21 19V16.6483C21 15.1354 19.8734 13.8592 18.3721 13.6715L13.876 13.1095C13.3755 13.0469 13 12.6215 13 12.1172V11M21 19V21H20L19 19M21 19H19M13 8H4M13 8H14V3H3V8H4M13 8V11M4 8V19M4 19V21H5L6 19M4 19H6M6 19H8.25M19 19H16.75M16.75 19L15.75 21H14.75L13.75 19M16.75 19H13.75M13.75 19H11.25M11.25 19L10.25 21H9.25L8.25 19M11.25 19H8.25M13 11H11" stroke="black" stroke-width="2" stroke-linecap="round" stroke-linejoin="round"/>
</svg>
