<svg width="24" height="24" viewBox="0 0 24 24" fill="none" xmlns="http://www.w3.org/2000/svg">
<path d="M3 10.3333V13.6667C3 14.9553 3.89543 16 5 16H7.23951C8.95969 16 10.4395 14.6478 10.7717 12.7725L11.0127 11.412C11.0958 10.9432 11.4657 10.6052 11.8958 10.6052H12.1599C12.5899 10.6052 12.9599 10.9432 13.0429 11.412L13.2839 12.7725C13.6161 14.6478 15.096 16 16.8162 16H19C20.1046 16 21 14.9553 21 13.6667V10.3333M3 10.3333C3 10.0397 3.04648 9.7588 3.13132 9.5M3 10.3333H2M21 10.3333C21 10.0397 20.9535 9.7588 20.8687 9.5M21 10.3333H22M3.13132 9.5C3.14236 9.46634 3.15404 9.43306 3.16636 9.40017M3.13132 9.5L3.16636 9.40017M3.16636 9.40017C3.47495 8.57599 4.17982 8 5 8H19C19.8202 8 20.5251 8.57599 20.8336 9.40016M20.8687 9.5C20.8576 9.46634 20.846 9.43305 20.8336 9.40016M20.8687 9.5L20.8336 9.40016" stroke="black" stroke-width="2" stroke-linecap="round" stroke-linejoin="round"/>
</svg>
