<svg width="24" height="24" viewBox="0 0 24 24" fill="none" xmlns="http://www.w3.org/2000/svg">
<path d="M13.8 12C13.8 13.933 15.4118 15.5 17.4 15.5C19.3882 15.5 21 13.933 21 12C21 11.2564 20.7615 10.5669 20.3547 10M13.8 12C13.8 10.9546 14.2714 10.0163 15.0188 9.375C15.6534 8.83043 16.487 8.5 17.4 8.5C18.6234 8.5 19.7042 9.09326 20.3547 10M13.8 12H10.2M10.2 12C10.2 13.933 8.58822 15.5 6.6 15.5C4.61177 15.5 3 13.933 3 12C3 11.2564 3.23853 10.5669 3.64527 10M10.2 12C10.2 10.9546 9.72862 10.0163 8.98124 9.375C8.34662 8.83043 7.513 8.5 6.6 8.5C5.37665 8.5 4.29581 9.09326 3.64527 10M20.3547 10H22M3.64527 10H2" stroke="black" stroke-width="2" stroke-linecap="round" stroke-linejoin="round"/>
</svg>
