<svg width="24" height="24" viewBox="0 0 24 24" fill="none" xmlns="http://www.w3.org/2000/svg">
<path d="M2.14591 13.5C2.05164 13.7588 2 14.0397 2 14.3333V17.6667C2 18.9553 2.99492 20 4.22222 20H6.71056C8.62188 20 10.2661 18.6478 10.6353 16.7725L10.903 15.412C10.9953 14.9432 11.4064 14.6052 11.8842 14.6052H12.1776C12.6555 14.6052 13.0665 14.9432 13.1588 15.412L13.4266 16.7725C13.7957 18.6478 15.44 20 17.3513 20H19.7778C21.0051 20 22 18.9553 22 17.6667V14.3333C22 14.0397 21.9484 13.7588 21.8541 13.5M2.14591 13.5C2.15817 13.4663 2.17116 13.4331 2.18484 13.4002M2.14591 13.5L2.18484 13.4002M2.18484 13.4002C2.52772 12.576 3.31091 12 4.22222 12H19.7778C20.6891 12 21.4723 12.576 21.8152 13.4002M2.18484 13.4002L4.5647 7.29639C4.84688 6.45601 5.40024 5.73317 6.13785 5.24143L8 4M21.8541 13.5C21.8418 13.4663 21.8288 13.4331 21.8152 13.4002M21.8541 13.5L21.8152 13.4002M21.8152 13.4002L19.4353 7.29639C19.1531 6.45601 18.5998 5.73317 17.8622 5.24143L16 4" stroke="black" stroke-width="2" stroke-linecap="round" stroke-linejoin="round"/>
</svg>
