<svg width="24" height="24" viewBox="0 0 24 24" fill="none" xmlns="http://www.w3.org/2000/svg">
<path d="M8 4L6.13785 5.24143C5.40024 5.73317 4.84688 6.45601 4.5647 7.29639L2.14591 14.5C2.05164 14.7588 2 15.0397 2 15.3333V16M16 4L17.8622 5.24143C18.5998 5.73317 19.1531 6.45601 19.4353 7.29639L21.8541 14.5C21.9484 14.7588 22 15.0397 22 15.3333V16M22 16C22 13.7909 20.2091 12 18 12H6C3.79086 12 2 13.7909 2 16M22 16C22 18.2091 20.2091 20 18 20C16.4858 20 15.1681 19.1587 14.4889 17.9179C13.9586 16.949 13.1046 16 12 16C10.8954 16 10.0414 16.949 9.51106 17.9179C8.83187 19.1587 7.51419 20 6 20C3.79086 20 2 18.2091 2 16" stroke="black" stroke-width="2" stroke-linecap="round" stroke-linejoin="round"/>
</svg>
