<svg width="24" height="24" viewBox="0 0 24 24" fill="none" xmlns="http://www.w3.org/2000/svg">
<path d="M10.0619 15.6052L9.67966 16.8091C9.07471 18.7147 7.37632 20 5.46329 20H4.22222C2.99492 20 2 18.9553 2 17.6667V15.3333C2 15.0397 2.05164 14.7588 2.14591 14.5M10.0619 15.6052C10.4713 14.3155 9.50867 13 8.15561 13H4.22222C3.27454 13 2.46541 13.6229 2.14591 14.5M10.0619 15.6052L13.9381 15.6052M13.9381 15.6052L14.3203 16.8091C14.9253 18.7147 16.6237 20 18.5367 20H19.7778C21.0051 20 22 18.9553 22 17.6667V15.3333C22 15.0397 21.9484 14.7588 21.8541 14.5M13.9381 15.6052C13.5287 14.3155 14.4913 13 15.8444 13H19.7778C20.7255 13 21.5346 13.6229 21.8541 14.5M2.14591 14.5L4.5647 7.29639C4.84688 6.45601 5.40024 5.73317 6.13785 5.24143L8 4M21.8541 14.5L19.4353 7.29639C19.1531 6.45601 18.5998 5.73317 17.8622 5.24143L16 4" stroke="black" stroke-width="2" stroke-linecap="round" stroke-linejoin="round"/>
</svg>
