<svg width="24" height="24" viewBox="0 0 24 24" fill="none" xmlns="http://www.w3.org/2000/svg">
<path d="M8.98124 9.375C8.34662 8.83043 7.513 8.5 6.6 8.5C5.687 8.5 4.85338 8.83043 4.21876 9.375M8.98124 9.375C9.72862 10.0163 10.2 10.9546 10.2 12C10.2 13.933 8.58822 15.5 6.6 15.5C4.61177 15.5 3 13.933 3 12C3 10.9546 3.47138 10.0163 4.21876 9.375M8.98124 9.375H15.0188M15.0188 9.375C15.6534 8.83043 16.487 8.5 17.4 8.5C18.313 8.5 19.1466 8.83043 19.7812 9.375M15.0188 9.375C14.2714 10.0163 13.8 10.9546 13.8 12C13.8 13.933 15.4118 15.5 17.4 15.5C19.3882 15.5 21 13.933 21 12C21 10.9546 20.5286 10.0163 19.7812 9.375M19.7812 9.375H22M4.21876 9.375H2" stroke="black" stroke-width="2" stroke-linecap="round" stroke-linejoin="round"/>
</svg>
