<svg width="24" height="24" viewBox="0 0 24 24" fill="none" xmlns="http://www.w3.org/2000/svg">
<path d="M20.3547 10C19.7042 9.09326 18.6234 8.5 17.4 8.5H6.6C5.37665 8.5 4.29581 9.09326 3.64527 10M20.3547 10C20.7615 10.5669 21 11.2564 21 12C21 13.933 19.3882 15.5 17.4 15.5C16.0372 15.5 14.8513 14.7638 14.24 13.6782C13.7627 12.8304 12.9941 12 12 12C11.0059 12 10.2373 12.8304 9.75995 13.6782C9.14868 14.7638 7.96277 15.5 6.6 15.5C4.61177 15.5 3 13.933 3 12C3 11.2564 3.23853 10.5669 3.64527 10M20.3547 10H22M3.64527 10H2" stroke="black" stroke-width="2" stroke-linecap="round" stroke-linejoin="round"/>
</svg>
