<svg width="24" height="24" viewBox="0 0 24 24" fill="none" xmlns="http://www.w3.org/2000/svg">
<path d="M8 4L6.13785 5.24143C5.40024 5.73317 4.84688 6.45601 4.5647 7.29639L2.14591 14.5C2.05164 14.7588 2 15.0397 2 15.3333V16M16 4L17.8622 5.24143C18.5998 5.73317 19.1531 6.45601 19.4353 7.29639L21.8541 14.5C21.9484 14.7588 22 15.0397 22 15.3333V16M22 16C22 13.7909 20.2091 12 18 12C16.9856 12 16.0593 12.3776 15.3542 13M22 16C22 18.2091 20.2091 20 18 20C15.7909 20 14 18.2091 14 16C14 14.8053 14.5238 13.7329 15.3542 13M2 16C2 18.2091 3.79086 20 6 20C8.20914 20 10 18.2091 10 16C10 14.8053 9.47625 13.7329 8.64582 13M2 16C2 13.7909 3.79086 12 6 12C7.01445 12 7.94069 12.3776 8.64582 13M8.64582 13H15.3542" stroke="black" stroke-width="2" stroke-linecap="round" stroke-linejoin="round"/>
</svg>
