<svg width="24" height="24" viewBox="0 0 24 24" fill="none" xmlns="http://www.w3.org/2000/svg">
<path d="M3 11.3333V13.6667C3 14.9553 3.89543 16 5 16H6.11696C7.83869 16 9.36724 14.7147 9.9117 12.8091L11 9M3 11.3333C3 11.0397 3.04648 10.7588 3.13132 10.5C3.41887 9.62288 4.14709 9 5 9H11M3 11.3333H2M11 9H13M21 11.3333V13.6667C21 14.9553 20.1046 16 19 16H17.883C16.1613 16 14.6328 14.7147 14.0883 12.8091L13 9M21 11.3333C21 11.0397 20.9535 10.7588 20.8687 10.5C20.5811 9.62288 19.8529 9 19 9H13M21 11.3333H22" stroke="black" stroke-width="2" stroke-linecap="round" stroke-linejoin="round"/>
</svg>
