<svg width="24" height="24" viewBox="0 0 24 24" fill="none" xmlns="http://www.w3.org/2000/svg">
<path d="M7.0256 17.7567L3.51554 10.0693C2.16252 7.10611 3.56936 3.61828 6.60522 2.40941C9.44934 1.27689 12.6853 2.57041 13.9529 5.34648L15.7444 9.27004L16.3662 7.90829C16.9137 6.70909 18.3258 6.16815 19.5397 6.69259C20.7833 7.22991 21.343 8.67777 20.782 9.90641L17.873 16.2774C17.7471 16.5532 17.6819 16.8525 17.6819 17.1554V17.7566M7.0256 17.7567L17.6819 17.7566M7.0256 17.7567C6.43707 17.7567 5.95999 18.2316 5.96002 18.8175L5.96012 20.9392C5.96014 21.5251 6.43724 22 7.02575 22H17.6819C18.2705 22 18.7476 21.5251 18.7476 20.9392V18.8175C18.7476 18.2316 18.2704 17.7567 17.6819 17.7566" stroke="black" stroke-width="2" stroke-linecap="round" stroke-linejoin="round"/>
</svg>
