<svg width="24" height="24" viewBox="0 0 24 24" fill="none" xmlns="http://www.w3.org/2000/svg">
<path d="M8 9H6.73718C5.56261 9 4.55611 9.75409 4.346 10.7915L3.05985 17.1418C2.65298 19.1508 4.37214 21 6.64663 21H17.3534C19.6279 21 21.347 19.1508 20.9401 17.1418L19.654 10.7915C19.4439 9.75409 18.4374 9 17.2628 9H16M8 9V7C8 4.79086 9.79086 3 12 3C14.2091 3 16 4.79086 16 7V9M8 9H16M8 13H16V14C16 16.2091 14.2091 18 12 18V18C9.79086 18 8 16.2091 8 14V13Z" stroke="black" stroke-width="2" stroke-linecap="round" stroke-linejoin="round"/>
</svg>
