<svg width="24" height="24" viewBox="0 0 24 24" fill="none" xmlns="http://www.w3.org/2000/svg">
<path d="M17.5556 13.5782C17.5556 9.11674 14.0733 5.5 9.77778 5.5M17.5556 13.5782L22 18.1943C17.5556 19.3484 14.2222 17.0403 13.1111 14.5228M17.5556 13.5782C17.5556 13.5782 15.7881 14.1901 13.1111 14.5228M9.77778 5.5C5.48223 5.5 2 9.11674 2 13.5782C2 13.5782 3.76749 14.1901 6.44445 14.5228M9.77778 5.5C11.4444 7.80806 13.1111 10.6931 13.1111 14.5228M9.77778 5.5C8.11111 7.80806 6.44445 10.6931 6.44445 14.5228M13.1111 14.5228C12.1118 14.647 10.9859 14.7322 9.77778 14.7322C8.5697 14.7322 7.44371 14.647 6.44445 14.5228" stroke="black" stroke-width="2" stroke-linecap="round" stroke-linejoin="round"/>
</svg>
