<svg width="24" height="24" viewBox="0 0 24 24" fill="none" xmlns="http://www.w3.org/2000/svg">
<path d="M5.97963 14.9629C4.89284 14.7964 3.90159 14.6135 3.09251 14.4513C2.25201 14.2827 1.65741 15.1101 2.22149 15.7552C3.77336 17.5301 6.85693 20 12 20C17.1431 20 20.2266 17.5301 21.7785 15.7552C22.3426 15.1101 21.748 14.2827 20.9075 14.4513C20.0984 14.6135 19.1072 14.7964 18.0204 14.9629M5.97963 14.9629C7.85055 15.2495 10.0046 15.4874 12 15.4874C13.9954 15.4874 16.1494 15.2495 18.0204 14.9629M5.97963 14.9629L7.78971 4.58211C7.87973 4.06583 8.48358 3.82662 8.90308 4.14106L10.1939 5.10858C11.2642 5.91081 12.7358 5.91081 13.8061 5.10858L15.0969 4.14106C15.5164 3.82662 16.1203 4.06583 16.2103 4.58211L18.0204 14.9629" stroke="black" stroke-width="2" stroke-linecap="round" stroke-linejoin="round"/>
</svg>
