<svg width="24" height="24" viewBox="0 0 24 24" fill="none" xmlns="http://www.w3.org/2000/svg">
<path d="M6.68317 14.061C8.40358 11.778 14.1383 14.061 18.1526 16.3439M6.68317 14.061C6.68317 10.3727 8.45722 7.86143 11.1561 6.52723C13.3593 5.43806 16.036 5.61431 18.173 6.82812C21.0375 8.45503 22.8534 11.328 21.5934 16.3439C20.7332 17.2 18.7261 16.67 18.1526 16.3439M6.68317 14.061C4.38928 14.061 2.66889 14.6317 2.09539 15.7732M18.1526 16.3439C17.0057 18.6268 14.7118 18.9122 12.4179 18.0561C11.0699 17.553 9.34173 16.4508 7.59082 15.6908M2.09539 15.7732C2.66889 14.6317 5.61724 14.8342 7.59082 15.6908M2.09539 15.7732C1.56279 16.8329 3.24233 19.7683 7.59082 15.6908M10 13C10.2082 10.1132 11.9997 7.75 14.5 6.25C17.4999 9.25 18.0002 11 17.5003 15.5" stroke="black" stroke-width="2" stroke-linecap="round" stroke-linejoin="round"/>
</svg>
