<svg width="24" height="24" viewBox="0 0 24 24" fill="none" xmlns="http://www.w3.org/2000/svg">
<path d="M17.1667 16.969H18C19.1046 16.969 20 17.8714 20 18.9845C20 20.0976 19.1046 21 18 21H4C2.89543 21 2 20.0976 2 18.9845C2 17.8714 2.89543 16.969 4 16.969H4.7M17.1667 16.969H4.7M17.1667 16.969L13.845 8.93539C13.515 8.13718 14.2703 7.31832 15.0843 7.59176L18.3125 8.67613M4.7 16.969L8.61367 5.70055C9.65201 2.7109 13.5491 2.04067 15.5126 4.51406L18.564 8.35789M18.564 8.35789C18.4699 8.45498 18.3855 8.56159 18.3125 8.67613M18.564 8.35789C18.9275 7.983 19.4366 7.75 20 7.75C21.1046 7.75 22 8.64543 22 9.75C22 10.8546 21.1046 11.75 20 11.75C18.8954 11.75 18 10.8546 18 9.75C18 9.35479 18.1146 8.98636 18.3125 8.67613" stroke="black" stroke-width="2" stroke-linecap="round" stroke-linejoin="round"/>
</svg>
