<svg width="24" height="24" viewBox="0 0 24 24" fill="none" xmlns="http://www.w3.org/2000/svg">
<path d="M11.4706 5L3.77021 6.81815C3.31886 6.92471 3 7.32762 3 7.79139V16C3 16.5523 3.44772 17 4 17H18C18.5523 17 19 16.5523 19 16V15.6483C19 14.1354 17.9397 12.8592 16.5267 12.6715L12.295 12.1095C11.824 12.0469 11.4706 11.6215 11.4706 11.1172M11.4706 5V8M11.4706 5V4M11.4706 11.1172H9.58824M11.4706 11.1172V8M11.4706 8H9.58824M2 20H19C20.6569 20 22 18.6569 22 17" stroke="black" stroke-width="2" stroke-linecap="round" stroke-linejoin="round"/>
</svg>
