<svg width="24" height="24" viewBox="0 0 24 24" fill="none" xmlns="http://www.w3.org/2000/svg">
<path d="M10.86 9.00006H13.14M10.86 9.00006V9.00006C10.385 9.00006 10 8.61502 10 8.14006V6.14291C10 5.51498 10 5.20101 10.059 4.90785C10.1642 4.38534 10.4068 3.90029 10.7617 3.5026C10.9608 3.27948 11.2119 3.0911 11.7143 2.71434C12.3004 2.27476 12.5934 2.05498 12.8318 2.0143C13.262 1.9409 13.6901 2.15496 13.8895 2.54317C14 2.75826 14 3.12457 14 3.8572V8.14005C14 8.61502 13.615 9.00006 13.14 9.00006V9.00006M10.86 9.00006C10.0526 9.00006 9.64882 9.00006 9.37476 9.21963C9.31749 9.2655 9.26545 9.31755 9.21957 9.37481C9 9.64888 9 10.0526 9 10.8601V10.8601C9 11.4897 9.5104 12.0001 10.14 12.0001H13.86C14.4896 12.0001 15 11.4897 15 10.8601V10.8601C15 10.0526 15 9.64888 14.7804 9.37481C14.7346 9.31755 14.6825 9.2655 14.6252 9.21963C14.3512 9.00006 13.9475 9.00006 13.14 9.00006M11.72 22H12.28C13.8949 22 14.7024 22 15.2505 21.5609C15.365 21.4691 15.4691 21.365 15.5609 21.2505C16 20.7024 16 19.8949 16 18.28V15.72C16 14.1051 16 13.2976 15.5609 12.7495C15.4691 12.635 15.365 12.5309 15.2505 12.4391C14.7024 12 13.8949 12 12.28 12H11.72C10.1051 12 9.29765 12 8.74951 12.4391C8.63498 12.5309 8.5309 12.635 8.43914 12.7495C8 13.2976 8 14.1051 8 15.72V18.28C8 19.8949 8 20.7024 8.43914 21.2505C8.5309 21.365 8.63498 21.4691 8.74951 21.5609C9.29765 22 10.1051 22 11.72 22Z" stroke="black" stroke-width="2"/>
</svg>
