<svg width="24" height="24" viewBox="0 0 24 24" fill="none" xmlns="http://www.w3.org/2000/svg">
<path d="M8 8.79395C10.5 6.65911 12 9.50557 12 9.50557C12 9.50557 13.5 6.65911 16 8.79395C17.6667 10.2172 18.5 10.2172 19.5 10.2172C20.5 10.2172 22 9.50557 22 9.50557C22 9.50557 20.7465 13.9558 19 15.1986C17.2535 16.4414 15.8524 16.0774 14 15.1986C13.1716 14.8056 12 13.7753 12 13.7753C12 13.7753 10.8284 14.8056 10 15.1986C8.14758 16.0774 6.74648 16.4414 5 15.1986C3.25352 13.9558 2 9.50557 2 9.50557C2 9.50557 3.5 10.2172 4.5 10.2172C5.5 10.2172 6.33326 10.2172 8 8.79395Z" stroke="black" stroke-width="2" stroke-linecap="round" stroke-linejoin="round"/>
</svg>
