<svg width="24" height="24" viewBox="0 0 24 24" fill="none" xmlns="http://www.w3.org/2000/svg">
<path d="M8 9.59546C10.5 7.99433 12 10.1292 12 10.1292C12 10.1292 13.5 7.99433 16 9.59546C17.6667 10.6629 18.5 10.6629 19.5 10.6629C20.5 10.6629 22 10.1292 22 10.1292C22 10.1292 20.7465 13.4668 19 14.3989C17.2535 15.3311 15.8524 15.0581 14 14.3989C13.1716 14.1042 12 13.3315 12 13.3315C12 13.3315 10.8284 14.1042 10 14.3989C8.14758 15.0581 6.74648 15.3311 5 14.3989C3.25352 13.4668 2 10.1292 2 10.1292C2 10.1292 3.5 10.6629 4.5 10.6629C5.5 10.6629 6.33326 10.6629 8 9.59546Z" stroke="black" stroke-width="2" stroke-linecap="round" stroke-linejoin="round"/>
</svg>
