<svg width="24" height="24" viewBox="0 0 24 24" fill="none" xmlns="http://www.w3.org/2000/svg">
<path d="M16.1388 2H7.86119C7.36619 2 6.94568 2.36214 6.87225 2.85166L4.17225 20.8517C4.08156 21.4563 4.54982 22 5.16119 22H8.19158C8.66312 22 9.07059 21.6706 9.16939 21.2095L12 8L14.8306 21.2095C14.9294 21.6706 15.3369 22 15.8084 22H18.8388C19.4502 22 19.9184 21.4563 19.8277 20.8517L17.1277 2.85166C17.0543 2.36214 16.6338 2 16.1388 2Z" stroke="black" stroke-width="2" stroke-linecap="round" stroke-linejoin="round"/>
<path d="M14.0003 2C14.0003 4 15.0003 5 17.4503 5M10.0003 2C10.0003 4 9.00032 5 6.55027 5M18.2004 10H15.5003L15.7076 11.382C15.8216 12.1419 16.3609 12.7692 17.095 12.9961L18.7254 13.5M5.80035 10H8.50032L8.29303 11.382C8.17906 12.1419 7.63983 12.7693 6.90571 12.9961L5.27539 13.5" stroke="black" stroke-width="1.5" stroke-linecap="round" stroke-linejoin="round"/>
</svg>
