<svg width="24" height="24" viewBox="0 0 24 24" fill="none" xmlns="http://www.w3.org/2000/svg">
<path d="M16.1388 2H7.86119C7.36619 2 6.94568 2.36214 6.87225 2.85166L4.17225 20.8517C4.08156 21.4563 4.54982 22 5.16119 22H7.2457C7.69218 22 8.08456 21.704 8.20722 21.2747L12 8L15.7928 21.2747C15.9154 21.704 16.3078 22 16.7543 22H18.8388C19.4502 22 19.9184 21.4563 19.8277 20.8517L17.1277 2.85166C17.0543 2.36214 16.6338 2 16.1388 2Z" stroke="black" stroke-width="2" stroke-linecap="round" stroke-linejoin="round"/>
<path d="M13.9998 2C13.9998 3.5 15.9998 5 17.4498 5M9.9998 2C9.9998 3.5 7.9998 5 6.5498 5" stroke="black" stroke-width="1.5" stroke-linecap="round" stroke-linejoin="round"/>
</svg>
