<svg width="24" height="24" viewBox="0 0 24 24" fill="none" xmlns="http://www.w3.org/2000/svg">
<path d="M10 9L7.72361 4.44721C7.39116 3.78231 7.87465 3 8.61803 3H15.382C16.1253 3 16.6088 3.78231 16.2764 4.44721L14 9L16.9158 11.4993C19.3854 13.6161 20.3967 17.2901 17.774 19.2139C16.4085 20.2155 14.5311 21 12 21C9.4689 21 7.59152 20.2155 6.22604 19.2139C3.60332 17.2901 4.61458 13.6161 7.08418 11.4993L10 9Z" stroke="black" stroke-width="2" stroke-linecap="round" stroke-linejoin="round"/>
<path d="M9.70943 9.20406C9.70943 9.20406 6.63025 5.52593 4.57746 6.05138C3.28545 6.38209 2.86209 7.77875 3.03787 8.67861C3.55106 11.3058 9.70943 9.20406 9.70943 9.20406ZM9.70943 9.20406L10.196 9.43918C10.5201 9.59575 10.9075 9.53278 11.1652 9.28164V9.28164C11.4974 8.95799 12.027 8.95799 12.3592 9.28164V9.28164C12.617 9.53278 13.0044 9.59575 13.3284 9.43918L13.815 9.20406M13.815 9.20406C13.815 9.20406 16.7437 9.35534 18.434 8.67855C19.5224 8.24277 21 7.10221 21 7.10221M13.815 9.20406C15.5864 9.1901 16.8944 8.1531 18.434 6.57676" stroke="black" stroke-width="1.5" stroke-linecap="round" stroke-linejoin="round"/>
</svg>
