<svg width="24" height="24" viewBox="0 0 24 24" fill="none" xmlns="http://www.w3.org/2000/svg">
<path fill-rule="evenodd" clip-rule="evenodd" d="M8 7C8 4.79086 9.79086 3 12 3C14.2091 3 16 4.79086 16 7V10.2676C15.7058 10.0974 15.3643 10 15 10H9C8.63571 10 8.29417 10.0974 8 10.2676V7ZM18 12C18 12.5523 17.5523 13 17 13V15V20C17 21.6569 15.6569 23 14 23H10C8.34315 23 7 21.6569 7 20V15V13C6.44772 13 6 12.5523 6 12V7C6 3.68629 8.68629 1 12 1C15.3137 1 18 3.68629 18 7V12ZM10.6584 15.2111L9 14.382V12H15V14.382L13.3416 15.2111C12.4971 15.6334 11.5029 15.6334 10.6584 15.2111ZM14.2361 17L15 16.618V20C15 20.5523 14.5523 21 14 21H10C9.44772 21 9 20.5523 9 20V16.618L9.76393 17C11.1716 17.7038 12.8284 17.7038 14.2361 17ZM12 15C12.4142 15 12.75 14.6642 12.75 14.25C12.75 13.8358 12.4142 13.5 12 13.5C11.5858 13.5 11.25 13.8358 11.25 14.25C11.25 14.6642 11.5858 15 12 15Z" fill="black"/>
</svg>
