<svg width="24" height="24" viewBox="0 0 24 24" fill="none" xmlns="http://www.w3.org/2000/svg">
<path fill-rule="evenodd" clip-rule="evenodd" d="M8.49264 6.87568C8.28513 4.8006 9.91466 3 12.0001 3C14.0855 3 15.715 4.8006 15.5075 6.87568L15.1896 10.0551C15.0395 10.0191 14.8821 10 14.7193 10H9.28086C9.11808 10 8.96071 10.0191 8.81058 10.0551L8.49264 6.87568ZM16.9951 12.0995C16.9651 12.3998 16.8052 12.6557 16.5766 12.8171L16.0177 15.0525L16.6639 19.5757C16.9221 21.383 15.5197 23 13.6941 23H10.3061C8.48046 23 7.07807 21.383 7.33626 19.5757L7.98243 15.0525L7.42359 12.8171C7.19502 12.6557 7.03508 12.3998 7.00505 12.0995L6.50257 7.07469C6.17732 3.82224 8.73141 1 12.0001 1C15.2688 1 17.8228 3.82224 17.4976 7.07469L16.9951 12.0995ZM9.97023 14.7575L9.28086 12H14.7193L14.0299 14.7575C14.0236 14.7828 14.0183 14.8084 14.0139 14.8341C13.8307 14.817 13.6505 14.7662 13.4827 14.6823L13.1181 14.5C12.4143 14.1481 11.5859 14.1481 10.8821 14.5L10.5174 14.6823C10.3497 14.7662 10.1694 14.817 9.98624 14.8341C9.98191 14.8084 9.97657 14.7828 9.97023 14.7575ZM9.8902 15.8403L9.31615 19.8586C9.23009 20.461 9.69755 21 10.3061 21H13.6941C14.3026 21 14.7701 20.461 14.684 19.8586L14.11 15.8403C13.7401 15.8338 13.3727 15.7453 13.0355 15.5767L12.6709 15.3944C12.2486 15.1833 11.7516 15.1833 11.3293 15.3944L10.9647 15.5767C10.6275 15.7453 10.2601 15.8338 9.8902 15.8403Z" fill="black"/>
</svg>
