<svg width="24" height="24" viewBox="0 0 24 24" fill="none" xmlns="http://www.w3.org/2000/svg">
<path d="M3.5 18H20.5" stroke="black" stroke-width="2" stroke-linecap="round" stroke-linejoin="round"/>
<path fill-rule="evenodd" clip-rule="evenodd" d="M7.96776 13C8.39412 12.1421 9.08624 11.4395 9.9364 11H7.88304C5.73088 11 3.82019 12.3772 3.13962 14.4189L2.18377 17.2864C2.06205 17.6516 2 18.034 2 18.4189C2 20.3967 3.60333 22 5.58114 22H18.4189C20.3967 22 22 20.3967 22 18.4189C22 18.034 21.9379 17.6516 21.8162 17.2864L20.8604 14.4189C20.1798 12.3772 18.2691 11 16.117 11H14.0636C14.9138 11.4395 15.6059 12.1421 16.0322 13H16.117C17.4083 13 18.5547 13.8263 18.963 15.0513L19.9189 17.9189C19.9726 18.0801 20 18.2489 20 18.4189C20 19.2921 19.2921 20 18.4189 20H5.58114C4.7079 20 4 19.2921 4 18.4189C4 18.2489 4.0274 18.0801 4.08114 17.9189L5.03699 15.0513C5.44533 13.8263 6.59175 13 7.88304 13H7.96776Z" fill="black"/>
<path fill-rule="evenodd" clip-rule="evenodd" d="M9.50001 2.00001L9.44215 2C9.03352 1.99995 8.75529 1.99992 8.50992 2.02409C6.13604 2.25789 4.25789 4.13604 4.02409 6.50992C3.99992 6.75529 3.99995 7.03352 4 7.44215L4.00001 7.50001L4 7.55787C3.99995 7.9665 3.99992 8.24473 4.02409 8.4901C4.24148 10.6973 5.88039 12.4759 8.01759 12.9028C8.44703 12.089 9.1186 11.4228 9.93641 11H9.50001C9.01188 11 8.8403 10.9988 8.70596 10.9856C7.28163 10.8453 6.15474 9.71839 6.01446 8.29406C6.00122 8.15971 6.00001 7.98814 6.00001 7.50001C6.00001 7.01188 6.00122 6.8403 6.01446 6.70596C6.15474 5.28163 7.28163 4.15474 8.70596 4.01446C8.8403 4.00122 9.01188 4.00001 9.50001 4.00001H14.5C14.9881 4.00001 15.1597 4.00122 15.2941 4.01446C16.7184 4.15474 17.8453 5.28163 17.9856 6.70596C17.9988 6.8403 18 7.01188 18 7.50001C18 7.98814 17.9988 8.15971 17.9856 8.29406C17.8453 9.71839 16.7184 10.8453 15.2941 10.9856C15.1597 10.9988 14.9881 11 14.5 11H14.0636C14.8814 11.4228 15.553 12.089 15.9824 12.9028C18.1196 12.4759 19.7585 10.6973 19.9759 8.4901C20.0001 8.24473 20.0001 7.9665 20 7.55787L20 7.50001L20 7.44214C20.0001 7.03352 20.0001 6.75529 19.9759 6.50992C19.7421 4.13604 17.864 2.25789 15.4901 2.02409C15.2447 1.99992 14.9665 1.99995 14.5579 2L14.5 2.00001H9.50001Z" fill="black"/>
<path d="M14.8293 16C14.9398 15.6872 15 15.3506 15 15C15 13.3431 13.6569 12 12 12C10.3431 12 9 13.3431 9 15C9 15.3506 9.06015 15.6872 9.17071 16M7.5 16H16.5" stroke="black" stroke-width="1.5" stroke-linecap="round"/>
<path d="M13.1646 10.4472L12.744 11.008C12.4304 11.4261 12.2736 11.6352 12.0647 11.6625C12.0218 11.6681 11.9782 11.6681 11.9353 11.6625C11.7264 11.6352 11.5696 11.4261 11.256 11.008L10.8354 10.4472C10.6899 10.2531 10.6171 10.1561 10.5949 10.0444C10.5881 10.0098 10.5849 9.97459 10.5855 9.93932C10.5873 9.82546 10.6415 9.71697 10.75 9.5C10.8585 9.28303 10.9127 9.17454 11.0027 9.10479C11.0306 9.08318 11.0607 9.06458 11.0925 9.04931C11.1951 9 11.3164 9 11.559 9H12.441C12.6836 9 12.8049 9 12.9075 9.04931C12.9393 9.06458 12.9694 9.08318 12.9973 9.10479C13.0873 9.17454 13.1415 9.28303 13.25 9.5C13.3585 9.71697 13.4127 9.82546 13.4145 9.93932C13.4151 9.97459 13.4119 10.0098 13.4051 10.0444C13.3829 10.1561 13.3101 10.2531 13.1646 10.4472L13.1646 10.4472Z" fill="black"/>
</svg>
