<svg width="24" height="24" viewBox="0 0 24 24" fill="none" xmlns="http://www.w3.org/2000/svg">
<path d="M7.3611 9.25V18.25C7.3611 19.2165 8.19188 20 9.2167 20H14.7835C15.8083 20 16.6391 19.2165 16.6391 18.25V9.25L20.0002 16H22.0002L19.6803 6.25644C19.5641 5.76829 19.2771 5.3378 18.8713 5.04268C18.4909 4.76603 18.0774 4.53344 17.6257 4.40219C16.7096 4.13601 15.728 4 14.7835 4C14.7835 5.44975 13.5001 6.625 12.0001 6.625C10.5001 6.625 9.2167 5.44975 9.2167 4C8.27219 4 7.29057 4.13601 6.37449 4.40219C5.92277 4.53344 5.50932 4.76603 5.12888 5.04268C4.72305 5.3378 4.43612 5.76829 4.3199 6.25644L2 16H4L7.3611 9.25Z" stroke="black" stroke-width="2" stroke-linecap="round" stroke-linejoin="round"/>
</svg>
