<svg width="24" height="24" viewBox="0 0 24 24" fill="none" xmlns="http://www.w3.org/2000/svg">
<path d="M4.5 15.7352H3.5C2.67157 15.7352 2 16.4512 2 17.3345C2 18.2178 2.67157 18.9338 3.5 18.9338H4.5M8.5 8.26482H7.5C6.67157 8.26482 6 7.54878 6 6.66551C6 5.78224 6.67157 5.06621 7.5 5.06621H8.5M7 15.7352V18.9338C8.49986 19.4668 10.0002 19.9999 12 20C15 20 18 18.4007 18 16.8013C18 14.669 15 13.6027 12 14.1359C10.5204 14.3988 9 15.7352 7 15.7352ZM11 8.26482V5.06621C12.4999 4.53321 14.0002 4.00006 16 4C19 4 22 5.59931 22 7.19869C22 9.33103 19 10.3973 16 9.86412C14.5204 9.60117 13 8.26482 11 8.26482Z" stroke="black" stroke-width="2" stroke-linecap="round" stroke-linejoin="round"/>
</svg>
