<svg width="24" height="24" viewBox="0 0 24 24" fill="none" xmlns="http://www.w3.org/2000/svg">
<path d="M18.9071 18H20.959C21.669 18 22.1703 17.3313 21.9458 16.6838L21.0153 14M18.9071 18H15.5799C14.6845 18 13.8894 17.4491 13.6063 16.6325L12.4934 13.423C12.3354 12.9672 11.6646 12.9672 11.5066 13.423L10.3937 16.6325C10.1106 17.4491 9.31555 18 8.42006 18H5.09293M18.9071 18L17.5201 14H21.0153M5.09293 18H3.04102C2.33101 18 1.82965 17.3313 2.05418 16.6838L2.98475 14M5.09293 18L6.47989 14H2.98475M8.87934 6H5.75867L4.37171 10M8.87934 6H12M8.87934 6C8.87934 8 7.83912 10 4.37171 10M12 6H15.1207M12 6V10M4.37171 10L3.50486 12.5L2.98475 14M19.6283 10C16.1609 10 15.1207 8 15.1207 6M19.6283 10L18.2413 6H15.1207M19.6283 10L20.4951 12.5L21.0153 14" stroke="black" stroke-width="2" stroke-linecap="round" stroke-linejoin="round"/>
</svg>
