<svg width="24" height="24" viewBox="0 0 24 24" fill="none" xmlns="http://www.w3.org/2000/svg">
<path d="M8.87934 6H5.75867L4.37171 10M8.87934 6H12M8.87934 6C8.87934 8 7.83912 10 4.37171 10M12 6H15.1207M12 6V10M4.37171 10L2.63801 15M19.6283 10C16.1609 10 15.1207 8 15.1207 6M19.6283 10L18.2413 6H15.1207M19.6283 10L21.362 15M2.63801 15L2.05418 16.6838C1.82965 17.3313 2.33101 18 3.04102 18H8.42006C9.31555 18 10.1106 17.4491 10.3937 16.6325L10.9598 15M2.63801 15H10.9598M10.9598 15L11.5066 13.423C11.6646 12.9672 12.3354 12.9672 12.4934 13.423L13.0402 15M13.0402 15L13.6063 16.6325C13.8894 17.4491 14.6845 18 15.5799 18H20.959C21.669 18 22.1703 17.3313 21.9458 16.6838L21.362 15M13.0402 15H21.362" stroke="black" stroke-width="2" stroke-linecap="round" stroke-linejoin="round"/>
</svg>
