<svg width="24" height="24" viewBox="0 0 24 24" fill="none" xmlns="http://www.w3.org/2000/svg">
<path d="M9.42478 7.46799H8.26726C7.62798 7.46799 7.10974 6.97837 7.10974 6.37439V3.0936C7.10974 2.48962 7.62798 2 8.26726 2H19.8425C20.4818 2 21 2.48962 21 3.0936V6.37439C21 6.97837 20.4818 7.46799 19.8425 7.46799H18.685M9.42478 7.46799V10.4906C9.42478 11.3191 8.92936 12.0764 8.14507 12.4469L5.57638 13.6604C3.29754 14.7369 2.35666 17.3432 3.46432 19.5109C4.59396 21.7217 7.41946 22.6321 9.74352 21.5343L14.8458 19.124C17.1987 18.0125 18.685 15.7405 18.685 13.2551V7.46799M9.42478 7.46799H18.685" stroke="black" stroke-width="2" stroke-linecap="round" stroke-linejoin="round"/>
</svg>
