<svg width="24" height="24" viewBox="0 0 24 24" fill="none" xmlns="http://www.w3.org/2000/svg">
<path d="M13.325 5H15.0406C15.5705 5 16 5.41231 16 5.92093V6.76252M13.325 5H9.28436C8.75451 5 8.32499 5.41231 8.32499 5.92093V8.76252M13.325 5V3.92093C13.325 3.41231 13.7545 3 14.2844 3H20.0406C20.5705 3 21 3.41231 21 3.92093V6.76252M8.32499 8.76252V11.3079C8.32499 12.0055 7.91437 12.6433 7.26434 12.9553L5.13535 13.9771C3.24661 14.8837 2.46679 17.0785 3.38484 18.9039C4.32111 20.7656 6.66294 21.5323 8.58916 20.6078L11.9404 18.9993M8.32499 8.76252H13.325H16M16 8.76252V13.6359C16 15.7288 14.7682 17.6421 12.818 18.5781L11.9404 18.9993M16 8.76252V6.76252M11.9404 18.9993C12.4962 18.9889 13.0584 18.8625 13.5892 18.6078L17.818 16.5781C19.7682 15.6421 21 13.7288 21 11.6359V6.76252M16 6.76252H21" stroke="black" stroke-width="2" stroke-linecap="round" stroke-linejoin="round"/>
</svg>
