<svg width="24" height="24" viewBox="0 0 24 24" fill="none" xmlns="http://www.w3.org/2000/svg">
<path d="M8.5 4C7.58424 4 7.06498 4.12786 6.36641 4.37825C5.9236 4.53696 5.50932 4.76603 5.12888 5.04268V5.04268C4.72305 5.3378 4.43612 5.76829 4.3199 6.25644L2 16H4L7.3611 9.25V15V18.25C7.3611 19.2165 8.19188 20 9.2167 20H12M8.5 4L12 13.1498M8.5 4H15.5M15.5 4C16.4445 4 16.7096 4.13601 17.6257 4.40219C18.0774 4.53344 18.4909 4.76603 18.8713 5.04268C19.2771 5.3378 19.5641 5.76829 19.6803 6.25644L22.0002 16H20.0002L16.6391 9.25V15V18.25C16.6391 19.2165 15.8083 20 14.7835 20H12M15.5 4L12 13.1498M12 20V13.1498" stroke="black" stroke-width="2" stroke-linecap="round" stroke-linejoin="round"/>
</svg>
