<svg width="24" height="24" viewBox="0 0 24 24" fill="none" xmlns="http://www.w3.org/2000/svg">
<path d="M7.99985 11H7.82643C6.79202 11 5.92829 11.7888 5.83464 12.8189L5.29742 18.7284C5.13771 20.4852 6.52101 22 8.2851 22H15.7149C17.479 22 18.8623 20.4852 18.7026 18.7284L18.1654 12.8189C18.0717 11.7888 17.208 11 16.1736 11H15.9999M7.99985 11L8.66856 4.98165C8.85716 3.28419 10.2919 2 11.9999 2V2C13.7078 2 15.1425 3.28419 15.3311 4.98165L15.9999 11M7.99985 11H15.9999M8.99985 15H14.9999" stroke="black" stroke-width="2" stroke-linecap="round" stroke-linejoin="round"/>
</svg>
