<svg width="24" height="24" viewBox="0 0 24 24" fill="none" xmlns="http://www.w3.org/2000/svg">
<path d="M12 9.14981L9.2167 4C8.27219 4 7.29057 4.13601 6.37449 4.40219C5.92277 4.53344 5.50932 4.76603 5.12888 5.04268V5.04268C4.72305 5.3378 4.43612 5.76829 4.3199 6.25644L2 16H4L7.3611 9.25V15M12 9.14981L14.7835 4C15.728 4 16.7096 4.13601 17.6257 4.40219C18.0774 4.53344 18.4909 4.76603 18.8713 5.04268C19.2771 5.3378 19.5641 5.76829 19.6803 6.25644L22.0002 16H20.0002L16.6391 9.25V15M12 9.14981L11 11V15M7.3611 15V18.25C7.3611 19.2165 8.19188 20 9.2167 20H11H14.7835C15.8083 20 16.6391 19.2165 16.6391 18.25V15M7.3611 15H11M16.6391 15H12M11 15H12M12 15L14 17M12 15L10 17" stroke="black" stroke-width="2" stroke-linecap="round" stroke-linejoin="round"/>
</svg>
