<svg width="24" height="24" viewBox="0 0 24 24" fill="none" xmlns="http://www.w3.org/2000/svg">
<path d="M14.8505 8.5625C14.4229 7.78125 13.7103 7 12 7C10.2897 7 8.88865 8.2554 9.00699 9.8125C9.14948 11.6875 12 12 12 12C12 12 14.8505 12.3125 14.993 14.1875C15.1114 15.7446 13.7103 17 12 17C10.2897 17 9.57708 16.2187 9.14951 15.4375M12 22C6.47715 22 2 17.5228 2 12C2 6.47715 6.47715 2 12 2C17.5228 2 22 6.47715 22 12C22 17.5228 17.5228 22 12 22Z" stroke="black" stroke-width="2" stroke-linecap="round"/>
</svg>
