<svg width="24" height="24" viewBox="0 0 24 24" fill="none" xmlns="http://www.w3.org/2000/svg">
<path d="M15.5651 8.46447C13.6057 6.51184 10.4289 6.51184 8.46954 8.46447C6.51015 10.4171 6.51015 13.5829 8.46954 15.5355C10.4289 17.4882 13.6057 17.4882 15.5651 15.5355C16.3853 14.7181 16.8622 13.6881 16.9957 12.6234C17.0386 12.2809 16.7538 12 16.4075 12H12.0173M6 21H18C19.6569 21 21 19.6569 21 18V6C21 4.34315 19.6569 3 18 3H6C4.34315 3 3 4.34315 3 6V18C3 19.6569 4.34315 21 6 21Z" stroke="black" stroke-width="2" stroke-linecap="round"/>
</svg>
