<svg width="24" height="24" viewBox="0 0 24 24" fill="none" xmlns="http://www.w3.org/2000/svg">
<path d="M14.8505 8.5625C14.4229 7.78125 13.7103 7 12 7C10.2897 7 8.88865 8.2554 9.00699 9.8125C9.14948 11.6875 12 12 12 12C12 12 14.8505 12.3125 14.993 14.1875C15.1114 15.7446 13.7103 17 12 17C10.2897 17 9.57708 16.2187 9.14951 15.4375M6 21H18C19.6569 21 21 19.6569 21 18V6C21 4.34315 19.6569 3 18 3H6C4.34315 3 3 4.34315 3 6V18C3 19.6569 4.34315 21 6 21Z" stroke="black" stroke-width="2" stroke-linecap="round"/>
</svg>
