<svg width="24" height="24" viewBox="0 0 24 24" fill="none" xmlns="http://www.w3.org/2000/svg">
<path d="M9.5 14.5L14.5 9.5M3 6H21C21.5523 6 22 6.44772 22 7V8C22 8.55228 21.54 8.98368 21.0181 9.16437C19.8435 9.57105 19 10.687 19 12C19 13.313 19.8435 14.4289 21.0181 14.8356C21.54 15.0163 22 15.4477 22 16V17C22 17.5523 21.5523 18 21 18H3C2.44772 18 2 17.5523 2 17V16C2 15.4477 2.46 15.0163 2.98189 14.8356C4.15653 14.4289 5 13.313 5 12C5 10.687 4.15653 9.57105 2.98189 9.16437C2.46 8.98368 2 8.55228 2 8V7C2 6.44772 2.44772 6 3 6Z" stroke="black" stroke-width="2" stroke-linecap="round" stroke-linejoin="round"/>
<path d="M11 9.5C11 10.0523 10.5523 10.5 10 10.5C9.44772 10.5 9 10.0523 9 9.5C9 8.94772 9.44772 8.5 10 8.5C10.5523 8.5 11 8.94772 11 9.5Z" fill="black"/>
<path d="M15 14.5C15 15.0523 14.5523 15.5 14 15.5C13.4477 15.5 13 15.0523 13 14.5C13 13.9477 13.4477 13.5 14 13.5C14.5523 13.5 15 13.9477 15 14.5Z" fill="black"/>
</svg>
