<svg width="24" height="24" viewBox="0 0 24 24" fill="none" xmlns="http://www.w3.org/2000/svg">
<path fill-rule="evenodd" clip-rule="evenodd" d="M5 5C2.79086 5 1 6.79086 1 9C1 9.55228 1.44772 10 2 10C3.10457 10 4 10.8954 4 12C4 13.1046 3.10457 14 2 14C1.44772 14 1 14.4477 1 15C1 17.2091 2.79086 19 5 19H19C21.2091 19 23 17.2091 23 15C23 14.4477 22.5523 14 22 14C20.8954 14 20 13.1046 20 12C20 10.8954 20.8954 10 22 10C22.5523 10 23 9.55228 23 9C23 6.79086 21.2091 5 19 5H5ZM6 12C6 10.2005 4.81175 8.67858 3.17709 8.176C3.49107 7.48248 4.18919 7 5 7H19C19.8108 7 20.5089 7.48248 20.8229 8.176C19.1882 8.67858 18 10.2005 18 12C18 13.7995 19.1882 15.3214 20.8229 15.824C20.5089 16.5175 19.8108 17 19 17H5C4.18919 17 3.49108 16.5175 3.17709 15.824C4.81175 15.3214 6 13.7995 6 12ZM10.2071 15.2071L15.2071 10.2071C15.5976 9.81658 15.5976 9.18342 15.2071 8.79289C14.8166 8.40237 14.1834 8.40237 13.7929 8.79289L8.79289 13.7929C8.40237 14.1834 8.40237 14.8166 8.79289 15.2071C9.18342 15.5976 9.81658 15.5976 10.2071 15.2071ZM10 10.5C10.5523 10.5 11 10.0523 11 9.5C11 8.94772 10.5523 8.5 10 8.5C9.44771 8.5 9 8.94772 9 9.5C9 10.0523 9.44771 10.5 10 10.5ZM14 15.5C14.5523 15.5 15 15.0523 15 14.5C15 13.9477 14.5523 13.5 14 13.5C13.4477 13.5 13 13.9477 13 14.5C13 15.0523 13.4477 15.5 14 15.5Z" fill="black"/>
</svg>
