<svg width="24" height="24" viewBox="0 0 24 24" fill="none" xmlns="http://www.w3.org/2000/svg">
<path d="M8 12C8 10.0133 7.1716 8.46511 5.816 6.96827C5.49601 6.61495 5.44033 6.0895 5.70475 5.69288L6.6094 4.3359C7.1658 3.5013 8.13722 2.92714 9.06586 3.3063C10.688 3.96864 12 5.7137 12 8.625C12 5.7137 13.312 3.96864 14.9341 3.3063C15.8628 2.92714 16.8342 3.5013 17.3906 4.3359L18.2953 5.69288C18.5597 6.0895 18.504 6.61495 18.184 6.96827C16.8284 8.46511 16 10.0133 16 12M8 12C7.14625 13.7075 5.5636 15.415 3.87436 16.8892C3.41849 17.287 3.39052 17.9968 3.87051 18.3652C8.44823 21.8783 15.5518 21.8783 20.1295 18.3652C20.6095 17.9968 20.5815 17.287 20.1256 16.8892C18.4364 15.415 16.8538 13.7075 16 12M8 12H10M16 12H14M12 12V17M12 12H10M12 12H14M10 12L9 15.5M14 12L15 15.5" stroke="black" stroke-width="2" stroke-linecap="round" stroke-linejoin="round"/>
</svg>
