<svg width="24" height="24" viewBox="0 0 24 24" fill="none" xmlns="http://www.w3.org/2000/svg">
<path d="M12 7H8C6.89543 7 6 6.10457 6 5C6 3.89543 6.89543 3 8 3C10.5 3 12 5 12 7ZM12 7H16M12 7C12 5 13.5 3 16 3C17.1046 3 18 3.89543 18 5C18 6.10457 17.1046 7 16 7M12 7H6C4.34315 7 3 8.34315 3 10V10.5C3 11.6046 3.89543 12.5 5 12.5M12 7V12.5M16 7H18C19.6569 7 21 8.34315 21 10V10.5C21 11.6046 20.1046 12.5 19 12.5M5 12.5H12M5 12.5C3.89543 12.5 3 13.3954 3 14.5L3 18C3 19.6569 4.34315 21 6 21H12M12 21V12.5M12 21H18C19.6569 21 21 19.6569 21 18V14.5C21 13.3954 20.1046 12.5 19 12.5M12 12.5H19" stroke="black" stroke-width="2" stroke-linejoin="round"/>
</svg>
