<svg width="24" height="24" viewBox="0 0 24 24" fill="none" xmlns="http://www.w3.org/2000/svg">
<path d="M12 9H7C5 9 4 7.5 4 6C4 4 5.5 3 7 3C9.5 3 12 5 12 9ZM12 9H17M12 9C12 5 14.5 3 17 3C18.5 3 20 4 20 6C20 7.5 19 9 17 9M12 9H4C3.44772 9 3 9.44772 3 10V12.5C3 13.0523 3.44772 13.5 4 13.5H5M12 9V21M17 9H20C20.5523 9 21 9.44772 21 10V12.5C21 13.0523 20.5523 13.5 20 13.5H19M5 13.5V18C5 19.6569 6.34315 21 8 21H12M5 13.5H19M19 13.5V18C19 19.6569 17.6569 21 16 21H12" stroke="black" stroke-width="2" stroke-linejoin="round"/>
</svg>
