<svg width="24" height="24" viewBox="0 0 24 24" fill="none" xmlns="http://www.w3.org/2000/svg">
<path d="M12 7H8C6.89543 7 6 6.10457 6 5C6 3.89543 6.89543 3 8 3C10.5 3 12 5 12 7ZM12 7H16M12 7C12 5 13.5 3 16 3C17.1046 3 18 3.89543 18 5C18 6.10457 17.1046 7 16 7M12 7H4C3.44772 7 3 7.44772 3 8V9.5C3 10.0523 3.44772 10.5 4 10.5H5M12 7V21M16 7H20C20.5523 7 21 7.44772 21 8V9.5C21 10.0523 20.5523 10.5 20 10.5H19M5 10.5V18C5 19.6569 6.34315 21 8 21H12M5 10.5H19M19 10.5V18C19 19.6569 17.6569 21 16 21H12" stroke="black" stroke-width="2" stroke-linejoin="round"/>
</svg>
