<svg width="24" height="24" viewBox="0 0 24 24" fill="none" xmlns="http://www.w3.org/2000/svg">
<path d="M5 10C3.89543 10 3 10.8954 3 12V19C3 20.1046 3.89543 21 5 21H19C20.1046 21 21 20.1046 21 19V11.7089C21 10.6045 20.1044 9.70928 19 9.70971M7 17H8M12 17H17M11.4187 3.38504C11.6323 2.87165 12.3597 2.87165 12.5733 3.38504L13.5605 5.75778C13.65 5.97286 13.8516 6.12036 14.0838 6.14048L16.4279 6.34364C16.9647 6.39017 17.1952 7.04837 16.8046 7.41947L15.0239 9.1116C14.8624 9.26511 14.7948 9.49298 14.8465 9.70971L15.4473 12.2279C15.5764 12.7688 14.9878 13.1962 14.5132 12.9064L12.3219 11.5683C12.1218 11.4462 11.8702 11.4462 11.6701 11.5683L9.47882 12.9064C9.00419 13.1962 8.41567 12.7688 8.54472 12.2279L9.14575 9.70892C9.19736 9.49261 9.13013 9.26517 8.96921 9.11165L7.19449 7.41863C6.80515 7.04721 7.03584 6.39025 7.57197 6.34365L9.90837 6.14056C10.1405 6.12039 10.3421 5.97291 10.4315 5.75788L11.4187 3.38504Z" stroke="black" stroke-width="2" stroke-linecap="round" stroke-linejoin="round"/>
</svg>
