<svg width="24" height="24" viewBox="0 0 24 24" fill="none" xmlns="http://www.w3.org/2000/svg">
<path fill-rule="evenodd" clip-rule="evenodd" d="M5 2C3.34315 2 2 3.34315 2 5V7.44444C2 7.99673 2.44772 8.44444 3 8.44444C3.55228 8.44444 4 7.99673 4 7.44444V5C4 4.44772 4.44772 4 5 4H7.44444C7.99673 4 8.44444 3.55228 8.44444 3C8.44444 2.44772 7.99673 2 7.44444 2H5ZM16.5556 2C16.0033 2 15.5556 2.44772 15.5556 3C15.5556 3.55228 16.0033 4 16.5556 4H19C19.5523 4 20 4.44772 20 5V7.44444C20 7.99673 20.4477 8.44444 21 8.44444C21.5523 8.44444 22 7.99673 22 7.44444V5C22 3.34315 20.6569 2 19 2H16.5556ZM7 6C6.44772 6 6 6.44772 6 7V10C6 10.5523 6.44772 11 7 11H10C10.5523 11 11 10.5523 11 10V7C11 6.44772 10.5523 6 10 6H7ZM8 9V8H9V9H8ZM14 6C13.4477 6 13 6.44772 13 7V10C13 10.5523 13.4477 11 14 11H17C17.5523 11 18 10.5523 18 10V7C18 6.44772 17.5523 6 17 6H14ZM15 9V8H16V9H15ZM7 13C6.44772 13 6 13.4477 6 14V17C6 17.5523 6.44772 18 7 18H10C10.5523 18 11 17.5523 11 17V14C11 13.4477 10.5523 13 10 13H7ZM8 16V15H9V16H8ZM4 16.5556C4 16.0033 3.55228 15.5556 3 15.5556C2.44772 15.5556 2 16.0033 2 16.5556V19C2 20.6569 3.34315 22 5 22H7.44444C7.99673 22 8.44444 21.5523 8.44444 21C8.44444 20.4477 7.99673 20 7.44444 20H5C4.44772 20 4 19.5523 4 19V16.5556ZM22 16.5556C22 16.0033 21.5523 15.5556 21 15.5556C20.4477 15.5556 20 16.0033 20 16.5556V19C20 19.5523 19.5523 20 19 20H16.5556C16.0033 20 15.5556 20.4477 15.5556 21C15.5556 21.5523 16.0033 22 16.5556 22H19C20.6569 22 22 20.6569 22 19V16.5556ZM15 14C14.4477 14 14 14.4477 14 15V16C14 16.5523 14.4477 17 15 17H16C16.5523 17 17 16.5523 17 16V15C17 14.4477 16.5523 14 16 14H15Z" fill="black"/>
</svg>
