<svg width="24" height="24" viewBox="0 0 24 24" fill="none" xmlns="http://www.w3.org/2000/svg">
<path fill-rule="evenodd" clip-rule="evenodd" d="M5 2C3.34315 2 2 3.34315 2 5V7.44444C2 7.99673 2.44772 8.44444 3 8.44444C3.55228 8.44444 4 7.99673 4 7.44444V5C4 4.44772 4.44772 4 5 4H7.44444C7.99673 4 8.44444 3.55228 8.44444 3C8.44444 2.44772 7.99673 2 7.44444 2H5ZM16.5556 2C16.0033 2 15.5556 2.44772 15.5556 3C15.5556 3.55228 16.0033 4 16.5556 4H19C19.5523 4 20 4.44772 20 5V7.44444C20 7.99673 20.4477 8.44444 21 8.44444C21.5523 8.44444 22 7.99673 22 7.44444V5C22 3.34315 20.6569 2 19 2H16.5556ZM7 6C6.44772 6 6 6.44772 6 7V10C6 10.5523 6.44772 11 7 11H10C10.5523 11 11 10.5523 11 10V7C11 6.44772 10.5523 6 10 6H7ZM8 9V8H9V9H8ZM14 6C13.4477 6 13 6.44772 13 7V10C13 10.5523 13.4477 11 14 11H17C17.5523 11 18 10.5523 18 10V7C18 6.44772 17.5523 6 17 6H14ZM15 9V8H16V9H15ZM3 12C2.44772 12 2 12.4477 2 13C2 13.5523 2.44772 14 3 14H21C21.5523 14 22 13.5523 22 13C22 12.4477 21.5523 12 21 12H3ZM8 16C8 15.4477 7.55228 15 7 15C6.44772 15 6 15.4477 6 16V17C6 17.5523 6.44772 18 7 18H10C10.5523 18 11 17.5523 11 17V16C11 15.4477 10.5523 15 10 15C9.44772 15 9 15.4477 9 16H8ZM4 16.5556C4 16.0033 3.55228 15.5556 3 15.5556C2.44772 15.5556 2 16.0033 2 16.5556V19C2 20.6569 3.34315 22 5 22H7.44444C7.99673 22 8.44444 21.5523 8.44444 21C8.44444 20.4477 7.99673 20 7.44444 20H5C4.44772 20 4 19.5523 4 19V16.5556ZM22 16.5556C22 16.0033 21.5523 15.5556 21 15.5556C20.4477 15.5556 20 16.0033 20 16.5556V19C20 19.5523 19.5523 20 19 20H16.5556C16.0033 20 15.5556 20.4477 15.5556 21C15.5556 21.5523 16.0033 22 16.5556 22H19C20.6569 22 22 20.6569 22 19V16.5556ZM14.2 16C14.0895 16 14 16.0895 14 16.2C14 16.6418 14.3582 17 14.8 17H16.2C16.6418 17 17 16.6418 17 16.2C17 16.0895 16.9105 16 16.8 16H14.2Z" fill="black"/>
</svg>
