<svg width="24" height="24" viewBox="0 0 24 24" fill="none" xmlns="http://www.w3.org/2000/svg">
<path fill-rule="evenodd" clip-rule="evenodd" d="M15.0635 2.27043C13.3724 0.576525 10.6276 0.576525 8.93647 2.27043C8.49913 2.70848 7.90539 2.95441 7.2864 2.95391C4.89282 2.95195 2.95195 4.89282 2.95391 7.2864C2.95441 7.90539 2.70848 8.49913 2.27043 8.93647C0.576525 10.6276 0.576525 13.3724 2.27043 15.0635C2.70848 15.5009 2.95441 16.0946 2.95391 16.7136C2.95195 19.1072 4.89282 21.0481 7.2864 21.0461C7.90539 21.0456 8.49913 21.2915 8.93647 21.7296C10.6276 23.4235 13.3724 23.4235 15.0635 21.7296C15.5009 21.2915 16.0946 21.0456 16.7136 21.0461C19.1072 21.0481 21.0481 19.1072 21.0461 16.7136C21.0456 16.0946 21.2915 15.5009 21.7296 15.0635C23.4235 13.3724 23.4235 10.6276 21.7296 8.93647C21.2915 8.49913 21.0456 7.90539 21.0461 7.2864C21.0481 4.89282 19.1072 2.95195 16.7136 2.95391C16.0946 2.95441 15.5009 2.70848 15.0635 2.27043ZM10.3518 3.68348C11.2617 2.77217 12.7383 2.77217 13.6482 3.68348C14.4611 4.49772 15.5647 4.95485 16.7152 4.95391C18.003 4.95285 19.0471 5.99703 19.0461 7.28476C19.0452 8.43532 19.5023 9.53893 20.3165 10.3518C21.2278 11.2617 21.2278 12.7383 20.3165 13.6482C19.5023 14.4611 19.0452 15.5647 19.0461 16.7152C19.0471 18.003 18.003 19.0471 16.7152 19.0461C15.5647 19.0452 14.4611 19.5023 13.6482 20.3165C12.7383 21.2278 11.2617 21.2278 10.3518 20.3165C9.53893 19.5023 8.43533 19.0452 7.28476 19.0461C5.99703 19.0471 4.95285 18.003 4.95391 16.7152C4.95485 15.5647 4.49772 14.4611 3.68348 13.6482C2.77217 12.7383 2.77217 11.2617 3.68348 10.3518C4.49772 9.53893 4.95485 8.43532 4.95391 7.28476C4.95285 5.99703 5.99703 4.95285 7.28476 4.95391C8.43532 4.95485 9.53893 4.49772 10.3518 3.68348ZM15.7071 9.70711C16.0976 9.31658 16.0976 8.68342 15.7071 8.29289C15.3166 7.90237 14.6834 7.90237 14.2929 8.29289L11.2929 11.2929L8.29289 14.2929C7.90237 14.6834 7.90237 15.3166 8.29289 15.7071C8.68342 16.0976 9.31658 16.0976 9.70711 15.7071L12.7071 12.7071L15.7071 9.70711ZM9.25 10.5C9.94036 10.5 10.5 9.94036 10.5 9.25C10.5 8.55964 9.94036 8 9.25 8C8.55964 8 8 8.55964 8 9.25C8 9.94036 8.55964 10.5 9.25 10.5ZM14.75 16C15.4404 16 16 15.4404 16 14.75C16 14.0596 15.4404 13.5 14.75 13.5C14.0596 13.5 13.5 14.0596 13.5 14.75C13.5 15.4404 14.0596 16 14.75 16Z" fill="black"/>
</svg>
