<svg width="24" height="24" viewBox="0 0 24 24" fill="none" xmlns="http://www.w3.org/2000/svg">
<path fill-rule="evenodd" clip-rule="evenodd" d="M13.4155 1.50304C12.591 0.83232 11.409 0.832319 10.5845 1.50304L9.52186 2.36746C9.46811 2.41118 9.39827 2.42989 9.32987 2.4189L7.9774 2.2016C6.928 2.03299 5.90432 2.62401 5.52564 3.61713L5.0376 4.89705C5.01291 4.96178 4.96178 5.01291 4.89705 5.0376L3.61713 5.52564C2.62402 5.90432 2.03299 6.928 2.2016 7.9774L2.4189 9.32987C2.4299 9.39827 2.41118 9.46811 2.36746 9.52186L1.50304 10.5845C0.83232 11.409 0.832319 12.591 1.50304 13.4155L2.36746 14.4781C2.41118 14.5319 2.4299 14.6017 2.4189 14.6701L2.2016 16.0226C2.03299 17.072 2.62401 18.0957 3.61713 18.4744L4.89705 18.9624C4.96178 18.9871 5.01291 19.0382 5.0376 19.103L5.52564 20.3829C5.90432 21.376 6.928 21.967 7.9774 21.7984L9.32987 21.5811C9.39827 21.5701 9.46812 21.5888 9.52186 21.6325L10.5845 22.497C11.409 23.1677 12.591 23.1677 13.4155 22.497L14.4781 21.6325C14.5319 21.5888 14.6017 21.5701 14.6701 21.5811L16.0226 21.7984C17.072 21.967 18.0957 21.376 18.4744 20.3829L18.9624 19.103C18.9871 19.0382 19.0382 18.9871 19.103 18.9624L20.3829 18.4744C21.376 18.0957 21.967 17.072 21.7984 16.0226L21.5811 14.6701C21.5701 14.6017 21.5888 14.5319 21.6325 14.4781L22.497 13.4155C23.1677 12.591 23.1677 11.409 22.497 10.5845L21.6325 9.52186C21.5888 9.46811 21.5701 9.39827 21.5811 9.32986L21.7984 7.97741C21.967 6.928 21.376 5.90432 20.3829 5.52564L19.103 5.0376C19.0382 5.01291 18.9871 4.96178 18.9624 4.89705L18.4744 3.61713C18.0957 2.62402 17.072 2.03299 16.0226 2.2016L14.6701 2.4189C14.6017 2.4299 14.5319 2.41118 14.4781 2.36746L13.4155 1.50304ZM11.8466 3.05452C11.9359 2.98183 12.0641 2.98183 12.1534 3.05452L13.216 3.91894L13.8471 3.1432L13.216 3.91894C13.7119 4.32232 14.3563 4.49498 14.9874 4.39358L16.3399 4.17628C16.4536 4.158 16.5646 4.22206 16.6056 4.3297L17.0937 5.60962C17.3214 6.20688 17.7931 6.67861 18.3904 6.90635L19.6703 7.39439C19.7779 7.43544 19.842 7.54639 19.8237 7.66013L19.6064 9.01259C19.505 9.6437 19.6777 10.2881 20.0811 10.784L20.9455 11.8466C21.0182 11.9359 21.0182 12.0641 20.9455 12.1534L20.0811 13.216C19.6777 13.7119 19.505 14.3563 19.6064 14.9874L19.8237 16.3399C19.842 16.4536 19.7779 16.5646 19.6703 16.6056L18.3904 17.0937C17.7931 17.3214 17.3214 17.7931 17.0937 18.3904L16.6056 19.6703C16.5646 19.7779 16.4536 19.842 16.3399 19.8237L14.9874 19.6064C14.3563 19.505 13.7119 19.6777 13.216 20.0811L12.1534 20.9455C12.0641 21.0182 11.9359 21.0182 11.8466 20.9455L10.784 20.0811C10.2881 19.6777 9.6437 19.505 9.01259 19.6064L7.66013 19.8237C7.54639 19.842 7.43544 19.7779 7.39439 19.6703L6.90635 18.3904C6.67861 17.7931 6.20688 17.3214 5.60962 17.0937L4.3297 16.6056C4.22206 16.5646 4.158 16.4536 4.17628 16.3399L4.39358 14.9874C4.49498 14.3563 4.32231 13.7119 3.91894 13.216L3.14968 13.8418L3.91894 13.216L3.05452 12.1534C2.98183 12.0641 2.98183 11.9359 3.05452 11.8466L3.91894 10.784C4.32232 10.2881 4.49498 9.6437 4.39358 9.01259L4.17628 7.66013C4.158 7.54639 4.22206 7.43544 4.3297 7.39439L5.60962 6.90635C6.20688 6.67861 6.67861 6.20688 6.90635 5.60962L7.39439 4.3297C7.43544 4.22206 7.54639 4.158 7.66013 4.17628L9.01259 4.39358C9.64371 4.49498 10.2881 4.32231 10.784 3.91894L11.8466 3.05452ZM15.7071 9.70711C16.0976 9.31658 16.0976 8.68342 15.7071 8.29289C15.3166 7.90237 14.6834 7.90237 14.2929 8.29289L8.29289 14.2929C7.90237 14.6834 7.90237 15.3166 8.29289 15.7071C8.68342 16.0976 9.31658 16.0976 9.70711 15.7071L15.7071 9.70711ZM9.25 10.5C9.94036 10.5 10.5 9.94036 10.5 9.25C10.5 8.55964 9.94036 8 9.25 8C8.55964 8 8 8.55964 8 9.25C8 9.94036 8.55964 10.5 9.25 10.5ZM14.75 16C15.4404 16 16 15.4404 16 14.75C16 14.0596 15.4404 13.5 14.75 13.5C14.0596 13.5 13.5 14.0596 13.5 14.75C13.5 15.4404 14.0596 16 14.75 16Z" fill="black"/>
</svg>
