<svg width="24" height="24" viewBox="0 0 24 24" fill="none" xmlns="http://www.w3.org/2000/svg">
<path fill-rule="evenodd" clip-rule="evenodd" d="M15.0142 3.1069C15.4578 2.84739 16.0266 3.08298 16.1567 3.58015L16.6299 5.38736C16.8839 6.35781 17.6418 7.11568 18.6123 7.36975L20.4195 7.8429C20.9166 7.97306 21.1522 8.54182 20.8927 8.98541L19.9494 10.5979C19.4428 11.4637 19.4428 12.5355 19.9494 13.4014L20.8927 15.0138C21.1522 15.4574 20.9166 16.0262 20.4195 16.1564L18.6123 16.6295C17.6418 16.8836 16.8839 17.6415 16.6299 18.6119L16.1567 20.4191C16.0266 20.9163 15.4578 21.1519 15.0142 20.8924L13.4018 19.949C12.5359 19.4425 11.4641 19.4425 10.5982 19.949L8.98577 20.8924C8.54219 21.1519 7.97343 20.9163 7.84326 20.4191L7.37012 18.6119C7.11604 17.6414 6.35817 16.8836 5.38773 16.6295L3.58051 16.1564C3.08335 16.0262 2.84776 15.4574 3.10727 15.0138L4.0506 13.4014C4.55715 12.5355 4.55715 11.4637 4.0506 10.5979L3.10727 8.98541C2.84776 8.54182 3.08335 7.97306 3.58051 7.8429L5.38773 7.36975C6.35817 7.11568 7.11604 6.35781 7.37012 5.38736L7.84326 3.58014C7.97342 3.08298 8.54219 2.84739 8.98578 3.1069L10.5982 4.05023C11.4641 4.55678 12.5359 4.55678 13.4018 4.05023L15.0142 3.1069ZM18.0915 3.0736C17.6259 1.29505 15.5912 0.452246 14.0043 1.38062L12.3918 2.32395C12.1498 2.46554 11.8502 2.46554 11.6082 2.32395L9.9957 1.38062C8.40881 0.452248 6.37412 1.29504 5.90847 3.0736L5.43533 4.88082C5.36431 5.15209 5.15245 5.36394 4.88119 5.43496L3.07397 5.90811C1.29541 6.37375 0.452612 8.40844 1.38098 9.99533L2.32431 11.6078C2.46591 11.8498 2.46591 12.1494 2.32431 12.3915L1.38098 14.0039L2.23684 14.5046L1.38098 14.0039C0.452615 15.5908 1.29541 17.6255 3.07397 18.0912L4.88118 18.5643C5.15246 18.6353 5.36431 18.8472 5.43533 19.1184L5.90847 20.9257C6.37411 22.7042 8.40881 23.547 9.9957 22.6186L11.6082 21.6753C11.8502 21.5337 12.1498 21.5337 12.3918 21.6753L14.0043 22.6186C15.5912 23.547 17.6259 22.7042 18.0915 20.9257L18.5647 19.1184C18.6357 18.8472 18.8475 18.6353 19.1188 18.5643L20.926 18.0912C22.7046 17.6255 23.5474 15.5908 22.619 14.0039L21.6757 12.3915C21.5341 12.1494 21.5341 11.8498 21.6757 11.6078L22.619 9.99533C23.5474 8.40844 22.7046 6.37375 20.926 5.90811L19.1188 5.43496C18.8475 5.36394 18.6357 5.15209 18.5647 4.88082L18.0915 3.0736ZM15.7071 9.70673C16.0976 9.31621 16.0976 8.68305 15.7071 8.29252C15.3166 7.902 14.6834 7.902 14.2929 8.29252L8.29289 14.2925C7.90236 14.683 7.90236 15.3162 8.29289 15.7067C8.68341 16.0973 9.31658 16.0973 9.7071 15.7067L15.7071 9.70673ZM9.24999 10.4996C9.94035 10.4996 10.5 9.93998 10.5 9.24963C10.5 8.55927 9.94035 7.99963 9.24999 7.99963C8.55964 7.99963 7.99999 8.55927 7.99999 9.24963C7.99999 9.93998 8.55964 10.4996 9.24999 10.4996ZM14.75 15.9996C15.4404 15.9996 16 15.44 16 14.7496C16 14.0593 15.4404 13.4996 14.75 13.4996C14.0596 13.4996 13.5 14.0593 13.5 14.7496C13.5 15.44 14.0596 15.9996 14.75 15.9996Z" fill="black"/>
</svg>
