<svg width="24" height="24" viewBox="0 0 24 24" fill="none" xmlns="http://www.w3.org/2000/svg">
<path d="M8 10H7.32194C6.27787 10 5.38321 10.7541 5.19644 11.7915L4.0532 18.1418C3.69154 20.1508 5.21968 22 7.24145 22H16.7585C18.7803 22 20.3085 20.1508 19.9468 18.1418L18.8036 11.7915C18.6168 10.7541 17.7221 10 16.6781 10H16M8 10V6C8 3.79086 9.79086 2 12 2C14.2091 2 16 3.79086 16 6V10M8 10H16" stroke="black" stroke-width="2" stroke-linejoin="round"/>
<path d="M10 14C10 14.5523 9.55228 15 9 15C8.44772 15 8 14.5523 8 14C8 13.4477 8.44772 13 9 13C9.55228 13 10 13.4477 10 14Z" fill="black"/>
<path d="M16 14C16 14.5523 15.5523 15 15 15C14.4477 15 14 14.5523 14 14C14 13.4477 14.4477 13 15 13C15.5523 13 16 13.4477 16 14Z" fill="black"/>
</svg>
