<svg width="24" height="24" viewBox="0 0 24 24" fill="none" xmlns="http://www.w3.org/2000/svg">
<path fill-rule="evenodd" clip-rule="evenodd" d="M2 3C1.44772 3 1 3.44772 1 4C1 4.55228 1.44772 5 2 5H3.34743C3.85228 5 4.27007 5.35527 4.35623 5.82327L4.42209 6.18104L5.77654 13.5388C6.0405 14.9728 7.29988 16 8.75228 16H18.6C20.0087 16 21.242 15.0326 21.5523 13.6534L22.9511 7.43643C23.2357 6.17141 22.2599 5 20.9871 5H6.19973C5.77753 3.81204 4.63877 3 3.34743 3H2ZM7.74349 13.1767L6.60645 7H20.9871C20.9889 7 20.9904 7.00008 20.9915 7.00018C20.9932 7.00034 20.9942 7.00055 20.9947 7.00066L20.9965 7.00127C20.9971 7.00155 20.9979 7.00203 20.9987 7.00271L19.6011 13.2144C19.4997 13.6653 19.0895 14 18.6 14H8.75228C8.24743 14 7.82964 13.6447 7.74349 13.1767ZM9.5 21C10.3284 21 11 20.3284 11 19.5C11 18.6716 10.3284 18 9.5 18C8.67157 18 8 18.6716 8 19.5C8 20.3284 8.67157 21 9.5 21ZM17 21C17.8284 21 18.5 20.3284 18.5 19.5C18.5 18.6716 17.8284 18 17 18C16.1716 18 15.5 18.6716 15.5 19.5C15.5 20.3284 16.1716 21 17 21Z" fill="black"/>
</svg>
