<svg width="24" height="24" viewBox="0 0 24 24" fill="none" xmlns="http://www.w3.org/2000/svg">
<path fill-rule="evenodd" clip-rule="evenodd" d="M2 3C1.44772 3 1 3.44772 1 4C1 4.55228 1.44772 5 2 5H3.44956C3.90585 5 4.30427 5.30887 4.418 5.75075L6.53516 13.9769C6.99702 15.7714 8.64432 17 10.4998 17H20.4422C20.9945 17 21.4422 16.5523 21.4422 16C21.4422 15.4477 20.9945 15 20.4422 15H10.4998C9.52096 15 8.69761 14.3548 8.47204 13.4784L6.35488 5.25226C6.0137 3.9266 4.81843 3 3.44956 3H2ZM11.4634 11.99L10.3641 7.00679C10.3654 7.00584 10.3669 7.00492 10.3687 7.0041C10.3707 7.00313 10.3732 7.0022 10.3764 7.00147C10.3795 7.00076 10.3843 7 10.3914 7H20.9694C20.9782 7 20.9837 7.001 20.9867 7.00172C20.9898 7.00246 20.9918 7.00332 20.9933 7.00407L20.9958 7.00555C20.9796 7.05408 20.9409 7.17032 20.9162 7.28564L20.0421 11.3777C20.033 11.4203 20.0254 11.4473 20.0196 11.4644C20.0171 11.4718 20.0153 11.4763 20.0145 11.4782C19.8354 11.7889 19.4847 12 19.0845 12H11.4944C11.4796 12 11.47 11.9953 11.4648 11.9912L11.4634 11.99ZM10.3914 5C9.13385 5 8.12536 6.1427 8.40823 7.42495L9.51124 12.425C9.71813 13.3628 10.5589 14 11.4944 14H19.0845C20.1889 14 21.2106 13.4157 21.7525 12.4678C21.8943 12.2197 21.9601 11.9726 21.998 11.7955L22.8714 7.70657C22.8719 7.70474 22.8733 7.7 22.8759 7.69151L22.8866 7.65807L22.9035 7.60658C23.3287 6.29756 22.3202 5 20.9694 5H10.3914ZM11 21C11.8284 21 12.5 20.3284 12.5 19.5C12.5 18.6716 11.8284 18 11 18C10.1716 18 9.5 18.6716 9.5 19.5C9.5 20.3284 10.1716 21 11 21ZM18 21C18.8284 21 19.5 20.3284 19.5 19.5C19.5 18.6716 18.8284 18 18 18C17.1716 18 16.5 18.6716 16.5 19.5C16.5 20.3284 17.1716 21 18 21Z" fill="black"/>
</svg>
