<svg width="24" height="24" viewBox="0 0 24 24" fill="none" xmlns="http://www.w3.org/2000/svg">
<path fill-rule="evenodd" clip-rule="evenodd" d="M2 1C1.44772 1 1 1.44772 1 2C1 2.55228 1.44772 3 2 3H3.32431C3.83807 3 4.25912 3.36459 4.33912 3.83787L4.73277 6.16667L5.80256 12.4955L5.80273 12.4964L6.47947 16.5C6.70421 17.8295 7.69745 19 9.26847 19H19C19.5523 19 20 18.5523 20 18C20 17.4477 19.5523 17 19 17H9.26847C8.88763 17 8.55208 16.7617 8.4515 16.1667L8.24609 14.9515C8.42297 14.9834 8.60462 15 8.7894 15H18.6721C20.0517 15 21.2689 14.0732 21.6093 12.7308C21.6127 12.7174 21.6158 12.7039 21.6187 12.6903L22.9787 6.20525C23.0921 5.66473 22.7458 5.13465 22.2053 5.02129C21.6647 4.90793 21.1346 5.25422 21.0213 5.79475L19.6663 12.2559C19.5492 12.6857 19.1479 13 18.6721 13H8.7894C8.27564 13 7.85459 12.6354 7.77459 12.1621L6.7048 5.83333L6.31115 3.50453C6.06512 2.04906 4.79369 1 3.32431 1H2ZM17.7071 4.20711C18.0976 3.81658 18.0976 3.18342 17.7071 2.79289C17.3166 2.40237 16.6834 2.40237 16.2929 2.79289L13 6.08579L12.2071 5.29289C11.8166 4.90237 11.1834 4.90237 10.7929 5.29289C10.4024 5.68342 10.4024 6.31658 10.7929 6.70711L12.2929 8.20711C12.6834 8.59763 13.3166 8.59763 13.7071 8.20711L17.7071 4.20711ZM10 23C10.8284 23 11.5 22.3284 11.5 21.5C11.5 20.6716 10.8284 20 10 20C9.17157 20 8.5 20.6716 8.5 21.5C8.5 22.3284 9.17157 23 10 23ZM17 23C17.8284 23 18.5 22.3284 18.5 21.5C18.5 20.6716 17.8284 20 17 20C16.1716 20 15.5 20.6716 15.5 21.5C15.5 22.3284 16.1716 23 17 23Z" fill="black"/>
</svg>
