<svg width="24" height="24" viewBox="0 0 24 24" fill="none" xmlns="http://www.w3.org/2000/svg">
<path d="M19 11.5H5M19 11.5C20.1046 11.5 21 10.6046 21 9.5V9C21 7.89543 20.1046 7 19 7H16M19 11.5L17.522 18.6508C17.217 20.0234 15.9996 21 14.5935 21H9.40651C8.00042 21 6.78298 20.0234 6.47795 18.6508L5 11.5M5 11.5C3.89543 11.5 3 10.6046 3 9.5V9C3 7.89543 3.89543 7 5 7H8M10 15V17M14 15V17M8 7H12H16M8 7L10 3M16 7L14 3" stroke="black" stroke-width="2" stroke-linecap="round" stroke-linejoin="round"/>
</svg>
