<svg width="24" height="24" viewBox="0 0 24 24" fill="none" xmlns="http://www.w3.org/2000/svg">
<path fill-rule="evenodd" clip-rule="evenodd" d="M1 2C1 1.44772 1.44772 1 2 1H3.32431C4.79369 1 6.06512 2.04906 6.31115 3.50453L6.56393 5H20.9853C22.2785 5 23.2633 6.20732 22.9385 7.48831L21.7691 12.1004C21.2024 11.7375 20.5799 11.4541 19.9174 11.2659L20.9983 7.00296L20.998 7.00272L20.9962 7.00155L20.9951 7.00113L20.9939 7.00077C20.9929 7.00054 20.9903 7 20.9853 7H6.902L7.77459 12.1621C7.85459 12.6354 8.27564 13 8.7894 13H13.101C12.5151 13.5741 12.0297 14.2504 11.6736 15H8.7894C8.60462 15 8.42297 14.9834 8.24609 14.9515L8.4515 16.1667C8.55208 16.7617 8.88763 17 9.26847 17H11.0709C11.0242 17.3266 11 17.6605 11 18C11 18.3395 11.0242 18.6734 11.0709 19H9.26847C7.69745 19 6.70421 17.8295 6.47947 16.5L5.80273 12.4964L5.80256 12.4955L4.73277 6.16667L4.33912 3.83787C4.25912 3.36459 3.83807 3 3.32431 3H2C1.44772 3 1 2.55228 1 2ZM18 23C20.7614 23 23 20.7614 23 18C23 15.2386 20.7614 13 18 13C15.2386 13 13 15.2386 13 18C13 20.7614 15.2386 23 18 23ZM15.7929 15.7929C16.1834 15.4024 16.8166 15.4024 17.2071 15.7929L18 16.5858L18.7929 15.7929C19.1834 15.4024 19.8166 15.4024 20.2071 15.7929C20.5976 16.1834 20.5976 16.8166 20.2071 17.2071L19.4142 18L20.2071 18.7929C20.5976 19.1834 20.5976 19.8166 20.2071 20.2071C19.8166 20.5976 19.1834 20.5976 18.7929 20.2071L18 19.4142L17.2071 20.2071C16.8166 20.5976 16.1834 20.5976 15.7929 20.2071C15.4024 19.8166 15.4024 19.1834 15.7929 18.7929L16.5858 18L15.7929 17.2071C15.4024 16.8166 15.4024 16.1834 15.7929 15.7929ZM10 23C10.8284 23 11.5 22.3284 11.5 21.5C11.5 20.6716 10.8284 20 10 20C9.17157 20 8.5 20.6716 8.5 21.5C8.5 22.3284 9.17157 23 10 23Z" fill="black"/>
</svg>
