<svg width="24" height="24" viewBox="0 0 24 24" fill="none" xmlns="http://www.w3.org/2000/svg">
<path fill-rule="evenodd" clip-rule="evenodd" d="M2 3C1.44772 3 1 3.44772 1 4C1 4.55228 1.44772 5 2 5H3.20599C3.70126 5 4.20024 5.41334 4.25644 6.06961L4.27336 6.26714L4.68597 11.0853L4.94422 14.101C5.08049 15.6924 6.35668 17 7.98738 17H11H16H17.1063C18.3481 17 19.4318 16.2251 19.9069 15.0905L21.4577 11.3862L22.8327 8.10197C23.375 6.8067 22.5191 5.18182 20.9712 5.18182H16H11H6.10609C5.70788 3.93296 4.5834 3 3.20599 3H2ZM6.60035 10L6.35901 7.18182H10V10H6.60035ZM12 10V7.18182H15V10H12ZM17 10V7.18182H20.9654C20.9688 7.18498 20.9741 7.1908 20.98 7.20039C21.0015 7.23546 21.0078 7.28191 20.9879 7.32961L19.8699 10H17ZM17 12H19.0325L18.062 14.3181C17.8773 14.7593 17.489 15 17.1063 15H17V12ZM15 12V15H12V12H15ZM10 12V15H7.98738C7.49211 15 6.99313 14.5867 6.93693 13.9304L6.77162 12H10ZM8.5 21C9.32843 21 10 20.3284 10 19.5C10 18.6716 9.32843 18 8.5 18C7.67157 18 7 18.6716 7 19.5C7 20.3284 7.67157 21 8.5 21ZM16 21C16.8284 21 17.5 20.3284 17.5 19.5C17.5 18.6716 16.8284 18 16 18C15.1716 18 14.5 18.6716 14.5 19.5C14.5 20.3284 15.1716 21 16 21Z" fill="black"/>
</svg>
