<svg width="24" height="24" viewBox="0 0 24 24" fill="none" xmlns="http://www.w3.org/2000/svg">
<path fill-rule="evenodd" clip-rule="evenodd" d="M2 1C1.44772 1 1 1.44772 1 2C1 2.55228 1.44772 3 2 3H3.32431C3.83807 3 4.25912 3.36459 4.33912 3.83787L4.73277 6.16667L5.80256 12.4955L5.80273 12.4964L6.47947 16.5C6.70421 17.8295 7.69745 19 9.26847 19H19C19.5523 19 20 18.5523 20 18C20 17.4477 19.5523 17 19 17H9.26847C8.88763 17 8.55208 16.7617 8.4515 16.1667L8.24609 14.9515C8.42297 14.9834 8.60462 15 8.7894 15H18.6721C20.0517 15 21.2689 14.0732 21.6093 12.7308L22.9385 7.48831C23.2633 6.20732 22.2785 5 20.9853 5H6.56393L6.31115 3.50453C6.06512 2.04906 4.79369 1 3.32431 1H2ZM8.7894 13C8.27564 13 7.85459 12.6354 7.77459 12.1621L6.902 7H20.9853C20.9903 7 20.9929 7.00054 20.9939 7.00077C20.9944 7.00089 20.9948 7.00101 20.9951 7.00113C20.9956 7.00127 20.9959 7.00141 20.9962 7.00155L20.998 7.00272L20.9983 7.00296L19.6706 12.2393C19.5595 12.6776 19.154 13 18.6721 13H8.7894ZM10 23C10.8284 23 11.5 22.3284 11.5 21.5C11.5 20.6716 10.8284 20 10 20C9.17157 20 8.5 20.6716 8.5 21.5C8.5 22.3284 9.17157 23 10 23ZM17 23C17.8284 23 18.5 22.3284 18.5 21.5C18.5 20.6716 17.8284 20 17 20C16.1716 20 15.5 20.6716 15.5 21.5C15.5 22.3284 16.1716 23 17 23Z" fill="black"/>
</svg>
