<svg width="24" height="24" viewBox="0 0 24 24" fill="none" xmlns="http://www.w3.org/2000/svg">
<path d="M18.3607 8L21.7765 14.4444C22.2494 15.3364 21.9589 16.4329 21.0283 16.9062C15.5386 19.6979 8.46135 19.6979 2.97175 16.9062C2.04113 16.4329 1.75065 15.3364 2.22347 14.4444L5.63935 8M18.3607 8V6C18.3607 5.44772 17.886 5 17.3005 5H6.69945C6.11397 5 5.63935 5.44772 5.63935 6V8M18.3607 8H15.1803M5.63935 8H8.81967M8.81967 8H12M8.81967 8L6.69945 15M12 8H15.1803M12 8V12.5M15.1803 8L17.3005 15" stroke="black" stroke-width="2" stroke-linecap="round" stroke-linejoin="round"/>
</svg>
