<svg width="24" height="24" viewBox="0 0 24 24" fill="none" xmlns="http://www.w3.org/2000/svg">
<path d="M18.3607 7.34636L21.7765 14.5348C22.2494 15.5298 21.9589 16.7528 21.0283 17.2808C21.018 17.2866 21.0076 17.2929 20.9969 17.2998C19.8261 18.0566 18.6329 18.8951 17.3297 18.4885C16.4806 18.2236 15.5713 18.3586 14.8138 18.8619L14.0472 19.3713C12.7859 20.2096 11.2141 20.2096 9.95277 19.3713L9.18616 18.8619C8.42873 18.3586 7.51941 18.2236 6.67034 18.4885C5.36714 18.8951 4.17394 18.0566 3.00308 17.2998C2.99242 17.2929 2.98197 17.2866 2.97175 17.2808C2.04113 16.7528 1.75065 15.5298 2.22347 14.5348L5.63935 7.34636M18.3607 7.34636V5.11545C18.3607 4.4994 17.886 4 17.3005 4H6.69946C6.11397 4 5.63935 4.4994 5.63935 5.11545V7.34636M18.3607 7.34636H15.1803M5.63935 7.34636H8.81967M8.81967 7.34636H12M8.81967 7.34636L6.69946 15.1545M12 7.34636H15.1803M12 7.34636V12.3659M15.1803 7.34636L17.3005 15.1545" stroke="black" stroke-width="2" stroke-linecap="round" stroke-linejoin="round"/>
</svg>
