<svg width="24" height="24" viewBox="0 0 24 24" fill="none" xmlns="http://www.w3.org/2000/svg">
<path d="M18.4927 10.8628V17.3333C18.4927 17.6754 18.4255 18.0025 18.303 18.303M18.4927 10.8628C18.8471 10.6879 19.2014 10.4234 19.504 10.1633C20.0515 9.69277 20.1355 8.92642 19.8066 8.29603L18.3343 5.4741C17.8629 4.57067 16.8994 4 15.8454 4H8.15456C7.10059 4 6.13708 4.57067 5.66573 5.4741L5.60003 5.60003M18.4927 10.8628C18.1884 11.013 17.8721 11.1111 17.5652 11.1111C15.7101 11.1111 14.7826 9.33333 14.7826 9.33333C14.7826 9.33333 13.8551 11.1111 12 11.1111C11.5772 11.1111 11.2026 11.0188 10.8762 10.8762M9.68118 20H8.28988C6.7531 20 5.50729 18.8061 5.50729 17.3333V11.5073M9.68118 20H14M9.68118 20V15.6812M3 3L5.60003 5.60003M21 21L18.303 18.303M5.60003 5.60003L10.8762 10.8762M10.8762 10.8762L18.303 18.303" stroke="black" stroke-width="2" stroke-linecap="round" stroke-linejoin="round"/>
</svg>
