<svg width="24" height="24" viewBox="0 0 24 24" fill="none" xmlns="http://www.w3.org/2000/svg">
<path d="M19.3043 10.7206V14M19.3043 10.7206C19.7029 10.5239 20.1016 10.2264 20.442 9.93376C21.058 9.40437 21.1524 8.54223 20.7824 7.83303L19.1261 4.65836C18.5958 3.64201 17.5118 3 16.3261 3H7.67388C6.48816 3 5.40422 3.64201 4.87395 4.65836L3.21761 7.83303C2.8476 8.54223 2.94201 9.40437 3.55797 9.93376C3.89843 10.2264 4.29707 10.5239 4.6957 10.7206M19.3043 10.7206C18.9619 10.8896 18.6061 11 18.2608 11C16.1739 11 15.1304 9 15.1304 9C15.1304 9 14.0869 11 12 11C9.91306 11 8.86959 9 8.86959 9C8.86959 9 7.82612 11 5.73917 11C5.39393 11 5.03809 10.8896 4.6957 10.7206M4.6957 10.7206V18C4.6957 19.6569 6.09724 21 7.82612 21H9.39132M9.39132 21V16C9.39132 15.4477 9.8585 15 10.4348 15H14M9.39132 21H14" stroke="black" stroke-width="2" stroke-linecap="round" stroke-linejoin="round"/>
<path fill-rule="evenodd" clip-rule="evenodd" d="M19.125 16.25C18.1326 16.25 17.3281 17.0545 17.3281 18.0469V18.4062H16.9688C16.5718 18.4062 16.25 18.728 16.25 19.125V21.2812C16.25 21.6782 16.5718 22 16.9688 22H21.2812C21.6782 22 22 21.6782 22 21.2812V19.125C22 18.728 21.6782 18.4062 21.2812 18.4062H20.9219V18.0469C20.9219 17.0545 20.1174 16.25 19.125 16.25ZM19.4844 18.4062V18.0469C19.4844 17.8484 19.3235 17.6875 19.125 17.6875C18.9265 17.6875 18.7656 17.8484 18.7656 18.0469V18.4062H19.4844ZM19.6641 20.2031C19.6641 20.5008 19.4227 20.7422 19.125 20.7422C18.8273 20.7422 18.5859 20.5008 18.5859 20.2031C18.5859 19.9054 18.8273 19.6641 19.125 19.6641C19.4227 19.6641 19.6641 19.9054 19.6641 20.2031Z" fill="black"/>
</svg>
