<svg width="24" height="24" viewBox="0 0 24 24" fill="none" xmlns="http://www.w3.org/2000/svg">
<path d="M19.3043 10.7206C19.7029 10.5239 20.1016 10.2264 20.442 9.93376C21.058 9.40437 21.1524 8.54223 20.7824 7.83303L19.1261 4.65836C18.5958 3.64201 17.5118 3 16.3261 3H7.67388C6.48816 3 5.40422 3.64201 4.87395 4.65836L3.21761 7.83303C2.8476 8.54223 2.94201 9.40437 3.55797 9.93376C3.89843 10.2264 4.29707 10.5239 4.6957 10.7206M19.3043 10.7206C18.9619 10.8896 18.6061 11 18.2608 11C16.1739 11 15.1304 9 15.1304 9C15.1304 9 14.0869 11 12 11C11.6347 11 11.3014 10.9387 11 10.8376M19.3043 10.7206V16V18V21M4.6957 10.7206C5.03809 10.8896 5.39393 11 5.73917 11C7.82612 11 8.86959 9 8.86959 9C8.86959 9 9.57972 10.3611 11 10.8376M4.6957 10.7206V16M4.6957 16V18C4.6957 19.6569 6.09724 21 7.82612 21H11V16M4.6957 16H11M11 16V10.8376" stroke="black" stroke-width="2" stroke-linecap="round" stroke-linejoin="round"/>
</svg>
