<svg width="24" height="24" viewBox="0 0 24 24" fill="none" xmlns="http://www.w3.org/2000/svg">
<path d="M20.1159 10.5785V22M20.1159 10.5785C20.5588 10.3599 21.0017 10.0293 21.38 9.70418C22.0644 9.11597 22.1693 8.15803 21.7582 7.37003L19.9178 3.84262C19.3286 2.71334 18.1243 2 16.8068 2H7.19319C5.87574 2 4.67135 2.71334 4.08216 3.84262L2.24179 7.37003C1.83066 8.15803 1.93557 9.11597 2.61997 9.70418C2.99825 10.0293 3.44118 10.3599 3.88411 10.5785M20.1159 10.5785C19.7355 10.7662 19.3401 10.8889 18.9565 10.8889C16.6376 10.8889 15.4782 8.66667 15.4782 8.66667C15.4782 8.66667 14.3188 10.8889 12 10.8889C9.68118 10.8889 8.52176 8.66667 8.52176 8.66667C8.52176 8.66667 7.36235 10.8889 5.04353 10.8889C4.65992 10.8889 4.26455 10.7662 3.88411 10.5785M3.88411 22V10.5785M8 22L16 14" stroke="black" stroke-width="2" stroke-linecap="round" stroke-linejoin="round"/>
<path d="M10.5 14.25C10.5 14.9404 9.94036 15.5 9.25 15.5C8.55964 15.5 8 14.9404 8 14.25C8 13.5596 8.55964 13 9.25 13C9.94036 13 10.5 13.5596 10.5 14.25Z" fill="black"/>
<path d="M16 21.75C16 22.4404 15.4404 23 14.75 23C14.0596 23 13.5 22.4404 13.5 21.75C13.5 21.0596 14.0596 20.5 14.75 20.5C15.4404 20.5 16 21.0596 16 21.75Z" fill="black"/>
</svg>
