<svg width="24" height="24" viewBox="0 0 24 24" fill="none" xmlns="http://www.w3.org/2000/svg">
<path d="M18.6512 16.2311C18.7794 15.923 19.2158 15.923 19.344 16.2311L19.9363 17.6551C19.99 17.7842 20.111 17.8727 20.2503 17.8848L21.6567 18.0067C21.9788 18.0346 22.1171 18.4297 21.8828 18.6524L20.8143 19.6679C20.7174 19.7601 20.6769 19.8968 20.7079 20.0269L21.0684 21.5382C21.1458 21.8628 20.7927 22.1194 20.5079 21.9454L19.1932 21.1424C19.0731 21.0691 18.9221 21.0691 18.8021 21.1424L17.4873 21.9454C17.2025 22.1194 16.8494 21.8628 16.9268 21.5382L17.2875 20.0264C17.3184 19.8966 17.2781 19.7601 17.1815 19.668L16.1167 18.6519C15.8831 18.429 16.0215 18.0347 16.3432 18.0067L17.745 17.8848C17.8843 17.8727 18.0052 17.7842 18.0589 17.6552L18.6512 16.2311Z" fill="black"/>
<path d="M19.3043 10.7206V13.5M19.3043 10.7206C19.7029 10.5239 20.1016 10.2264 20.442 9.93376C21.058 9.40437 21.1524 8.54223 20.7824 7.83303L19.1261 4.65836C18.5958 3.64201 17.5118 3 16.3261 3H7.67388C6.48816 3 5.40422 3.64201 4.87395 4.65836L3.21761 7.83303C2.8476 8.54223 2.94201 9.40437 3.55797 9.93376C3.89843 10.2264 4.29707 10.5239 4.6957 10.7206M19.3043 10.7206C18.9619 10.8896 18.6061 11 18.2608 11C16.1739 11 15.1304 9 15.1304 9C15.1304 9 14.0869 11 12 11C9.91306 11 8.86959 9 8.86959 9C8.86959 9 7.82612 11 5.73917 11C5.39393 11 5.03809 10.8896 4.6957 10.7206M4.6957 10.7206V18C4.6957 19.6569 6.09724 21 7.82612 21H9.39132M9.39132 21V16C9.39132 15.4477 9.8585 15 10.4348 15H14C14.5523 15 15 15.4477 15 16V16M9.39132 21H13.5" stroke="black" stroke-width="2" stroke-linecap="round" stroke-linejoin="round"/>
</svg>
