<svg width="24" height="24" viewBox="0 0 24 24" fill="none" xmlns="http://www.w3.org/2000/svg">
<path d="M19.3043 10.7206V13.5M19.3043 10.7206C19.7029 10.5239 20.1016 10.2264 20.442 9.93376C21.058 9.40437 21.1524 8.54223 20.7824 7.83303L19.1261 4.65836C18.5958 3.64201 17.5118 3 16.3261 3H7.67388C6.48816 3 5.40422 3.64201 4.87395 4.65836L3.21761 7.83303C2.8476 8.54223 2.94201 9.40437 3.55797 9.93376C3.89843 10.2264 4.29707 10.5239 4.6957 10.7206M19.3043 10.7206C18.9619 10.8896 18.6061 11 18.2608 11C16.1739 11 15.1304 9 15.1304 9C15.1304 9 14.0869 11 12 11C9.91306 11 8.86959 9 8.86959 9C8.86959 9 7.82612 11 5.73917 11C5.39393 11 5.03809 10.8896 4.6957 10.7206M4.6957 10.7206V18C4.6957 19.6569 6.09724 21 7.82612 21H9.39132M9.39132 21V16C9.39132 15.4477 9.8585 15 10.4348 15H14C14.5523 15 15 15.4477 15 16V17M9.39132 21H13.5" stroke="black" stroke-width="2" stroke-linecap="round" stroke-linejoin="round"/>
<path d="M19.6278 17.3703C19.4226 17.1652 19.3201 17.0626 19.3201 16.9351C19.3201 16.8077 19.4226 16.7051 19.6278 16.5L19.7087 16.4191C19.7584 16.3694 19.7832 16.3445 19.8052 16.3245C20.2813 15.8918 21.0083 15.8918 21.4843 16.3245C21.5063 16.3445 21.5312 16.3694 21.5809 16.4191C21.6305 16.4688 21.6555 16.4937 21.6755 16.5157C22.1082 16.9917 22.1082 17.7187 21.6755 18.1948C21.6555 18.2168 21.6306 18.2416 21.5809 18.2913L21.5 18.3722C21.2949 18.5774 21.1923 18.6799 21.0649 18.6799C20.9374 18.6799 20.8348 18.5774 20.6297 18.3722L19.6278 17.3703Z" fill="black"/>
<path d="M19.1926 17.8054C18.9875 17.6003 18.8849 17.4977 18.7575 17.4977C18.63 17.4977 18.5275 17.6003 18.3223 17.8054L17.4773 18.6504C17.26 18.87 17.3941 18.7336 17.115 19.157C16.8358 19.5803 16.6462 20.0544 16.2669 21.0026L16.2126 21.1385C16.0276 21.6009 15.9351 21.8321 16.0515 21.9485C16.1679 22.0649 16.3991 21.9724 16.8615 21.7874L16.9974 21.7331C17.9455 21.3538 18.4197 21.1642 18.843 20.885C19.2664 20.6059 19.13 20.74 19.3496 20.5227L20.1946 19.6777C20.3997 19.4725 20.5023 19.37 20.5023 19.2425C20.5023 19.1151 20.3997 19.0125 20.1946 18.8074L19.1926 17.8054Z" fill="black"/>
</svg>
