<svg width="24" height="24" viewBox="0 0 24 24" fill="none" xmlns="http://www.w3.org/2000/svg">
<path d="M15.0927 20H8.90734C7.76866 20 6.84557 19.1046 6.84557 18V10L4.67506 10.7018C4.15724 10.8693 3.59463 10.6161 3.39191 10.1245L2.07401 6.92848C1.86256 6.41569 2.11968 5.83372 2.6483 5.62861L5.00226 4.71523C6.21995 4.24275 7.59586 4 8.90734 4C8.90734 5.65685 10.292 7 12 7C13.708 7 15.0927 5.65685 15.0927 4C16.4041 4 17.7801 4.24275 18.9977 4.71523L21.3517 5.62861C21.8803 5.83372 22.1374 6.41569 21.926 6.92848L20.6081 10.1245C20.4054 10.6161 19.8428 10.8693 19.3249 10.7018L17.1544 10V18C17.1544 19.1046 16.2313 20 15.0927 20Z" stroke="black" stroke-width="2" stroke-linecap="round" stroke-linejoin="round"/>
</svg>
