<svg width="24" height="24" viewBox="0 0 24 24" fill="none" xmlns="http://www.w3.org/2000/svg">
<path fill-rule="evenodd" clip-rule="evenodd" d="M5.09649 2C3.38634 2 2 3.38635 2 5.09649V9.46931C2 10.2906 2.32624 11.0782 2.90694 11.6589L12.3411 21.0931C13.5504 22.3023 15.511 22.3023 16.7202 21.0931L21.0931 16.7202C22.3023 15.511 22.3023 13.5504 21.0931 12.3411L11.6589 2.90694C11.0782 2.32624 10.2906 2 9.46931 2H5.09649ZM4 5.09649C4 4.49091 4.49091 4 5.09649 4H9.46931C9.76012 4 10.039 4.11552 10.2446 4.32115L19.6788 13.7554C20.107 14.1836 20.107 14.8778 19.6788 15.306L15.306 19.6788C14.8778 20.1071 14.1836 20.1071 13.7553 19.6788L4.32115 10.2446C4.11552 10.039 4 9.76012 4 9.46931V5.09649ZM7.25 8.5C7.94036 8.5 8.5 7.94036 8.5 7.25C8.5 6.55964 7.94036 6 7.25 6C6.55964 6 6 6.55964 6 7.25C6 7.94036 6.55964 8.5 7.25 8.5Z" fill="black"/>
</svg>
