<svg width="24" height="24" viewBox="0 0 24 24" fill="none" xmlns="http://www.w3.org/2000/svg">
<path fill-rule="evenodd" clip-rule="evenodd" d="M8.43198 2C7.57003 2 6.74338 2.34241 6.13388 2.9519L2.9519 6.13388C2.34241 6.74338 2 7.57003 2 8.43198V10.278C2 11.1687 2.35385 12.023 2.9837 12.6528L11.3472 21.0163C12.6588 22.3279 14.7853 22.3279 16.0969 21.0163L21.0163 16.0969C22.3279 14.7853 22.3279 12.6588 21.0163 11.3472L12.6528 2.9837C12.023 2.35385 11.1687 2 10.278 2H8.43198ZM7.5481 4.36612C7.78252 4.1317 8.10046 4 8.43198 4H10.278C10.6383 4 10.9838 4.14313 11.2386 4.39791L19.6021 12.7614C20.1326 13.2919 20.1326 14.1521 19.6021 14.6827L14.6827 19.6021C14.1521 20.1326 13.2919 20.1326 12.7614 19.6021L4.39791 11.2386C4.14313 10.9838 4 10.6383 4 10.278V8.43198C4 8.10046 4.1317 7.78252 4.36612 7.5481L7.5481 4.36612ZM8.25 9.5C8.94036 9.5 9.5 8.94036 9.5 8.25C9.5 7.55964 8.94036 7 8.25 7C7.55964 7 7 7.55964 7 8.25C7 8.94036 7.55964 9.5 8.25 9.5Z" fill="black"/>
</svg>
