<svg width="24" height="24" viewBox="0 0 24 24" fill="none" xmlns="http://www.w3.org/2000/svg">
<path fill-rule="evenodd" clip-rule="evenodd" d="M4.96516 3.5C3.32046 3.5 2 4.84131 2 6.48002V10.6099C2 11.3978 2.31059 12.155 2.86582 12.7144L9.72406 19.6245C10.8826 20.7918 12.7642 20.7918 13.9227 19.6245L18.0217 15.4946C19.1761 14.3315 19.1761 12.4487 18.0217 11.2856L11.1634 4.37549C10.6079 3.81581 9.85293 3.5 9.06408 3.5H4.96516ZM4 6.48002C4 5.93166 4.4392 5.5 4.96516 5.5H9.06408C9.31761 5.5 9.5623 5.60141 9.74389 5.78437L10.4537 5.07993L9.74389 5.78437L16.6021 12.6944C16.9826 13.0778 16.9826 13.7024 16.6021 14.0857L12.5032 18.2156C12.1269 18.5948 11.5199 18.5948 11.1436 18.2156L4.28535 11.3056C4.1035 11.1223 4 10.8722 4 10.6099V6.48002ZM14.6273 3.79556C14.2382 3.40357 13.605 3.40118 13.213 3.79024C12.8211 4.17929 12.8187 4.81245 13.2077 5.20444L18.9821 11.0225C20.3393 12.3899 20.3393 14.6101 18.9821 15.9775L16.1852 18.7956C15.7962 19.1876 15.7986 19.8207 16.1905 20.2098C16.5825 20.5988 17.2157 20.5964 17.6047 20.2044L20.4016 17.3864C22.5328 15.2392 22.5328 11.7608 20.4016 9.61358L14.6273 3.79556ZM6.5 9.25C7.19036 9.25 7.75 8.69036 7.75 8C7.75 7.30964 7.19036 6.75 6.5 6.75C5.80964 6.75 5.25 7.30964 5.25 8C5.25 8.69036 5.80964 9.25 6.5 9.25Z" fill="black"/>
</svg>
