<svg width="24" height="24" viewBox="0 0 24 24" fill="none" xmlns="http://www.w3.org/2000/svg">
<path d="M11.956 7.99953C11.9707 7.99984 11.9853 8 12 8C13.1046 8 14 7.10457 14 6H21C21.5523 6 22 6.44772 22 7V8C22 8.55228 21.54 8.98368 21.0181 9.16437C19.8435 9.57105 19 10.687 19 12C19 13.313 19.8435 14.4289 21.0181 14.8356C21.54 15.0163 22 15.4477 22 16V17C22 17.5523 21.5523 18 21 18H14C14 16.8954 13.1046 16 12 16M11.956 7.99953C10.8718 7.97615 10 7.08988 10 6H3C2.44772 6 2 6.44772 2 7V8C2 8.55228 2.46 8.98368 2.98189 9.16437C4.15653 9.57105 5 10.687 5 12C5 13.313 4.15653 14.4289 2.98189 14.8356C2.46 15.0163 2 15.4477 2 16V17C2 17.5523 2.44772 18 3 18H10C10 16.8954 10.8954 16 12 16M11.956 7.99953V10.4995M12 16V13.5" stroke="black" stroke-width="2" stroke-linecap="round" stroke-linejoin="round"/>
</svg>
