<svg width="24" height="24" viewBox="0 0 24 24" fill="none" xmlns="http://www.w3.org/2000/svg">
<path d="M9.99995 18V16M9.99995 18H21C21.5523 18 22 17.5523 22 17V16C22 15.4477 21.54 15.0163 21.0181 14.8356C19.8435 14.4289 19 13.313 19 12C19 10.687 19.8435 9.57105 21.0181 9.16437C21.54 8.98368 22 8.55228 22 8V7C22 6.44772 21.5523 6 21 6H9.99995M9.99995 18H3C2.44772 18 2 17.5523 2 17V16C2 15.4477 2.46 15.0163 2.98189 14.8356C4.15653 14.4289 5 13.313 5 12C5 10.687 4.15653 9.57105 2.98189 9.16437C2.46 8.98368 2 8.55228 2 8V7C2 6.44772 2.44772 6 3 6H9.99995M9.99963 8V6.03257L9.99995 6M9.99963 13L9.99995 11" stroke="black" stroke-width="2" stroke-linecap="round" stroke-linejoin="round"/>
</svg>
