<svg width="24" height="24" viewBox="0 0 24 24" fill="none" xmlns="http://www.w3.org/2000/svg">
<path d="M12 16C10.8954 16 10 16.8954 10 18H5C3.34315 18 2 16.6569 2 15V14C3.10457 14 4 13.1046 4 12C4 10.8954 3.10457 10 2 10V9C2 7.34315 3.34315 6 5 6H10C10 7.10457 10.8954 8 12 8C13.1046 8 14 7.10457 14 6H19C20.6569 6 22 7.34315 22 9V10C20.8954 10 20 10.8954 20 12C20 13.1046 20.8954 14 22 14V15C22 16.6569 20.6569 18 19 18H14C14 16.8954 13.1046 16 12 16ZM12 16V13.5M11.956 10.4995V7.99953" stroke="black" stroke-width="2" stroke-linecap="round" stroke-linejoin="round"/>
</svg>
