<svg width="24" height="24" viewBox="0 0 24 24" fill="none" xmlns="http://www.w3.org/2000/svg">
<path d="M13 17V9M13 17H15M13 17H9.5M13 9V6C13 5.44772 12.5523 5 12 5H4C3.44772 5 3 5.44772 3 6V16C3 16.5523 3.44772 17 4 17H5.5M13 9H17.1716C17.702 9 18.2107 9.21071 18.5858 9.58579L20.4142 11.4142C20.7893 11.7893 21 12.298 21 12.8284V16C21 16.5523 20.5523 17 20 17H19M9.5 17C9.5 18.1046 8.60457 19 7.5 19C6.39543 19 5.5 18.1046 5.5 17M9.5 17C9.5 15.8954 8.60457 15 7.5 15C6.39543 15 5.5 15.8954 5.5 17M19 17C19 18.1046 18.1046 19 17 19C15.8954 19 15 18.1046 15 17M19 17C19 15.8954 18.1046 15 17 15C15.8954 15 15 15.8954 15 17" stroke="black" stroke-width="2" stroke-linejoin="round"/>
</svg>
