<svg width="24" height="24" viewBox="0 0 24 24" fill="none" xmlns="http://www.w3.org/2000/svg">
<path d="M14 18V10M14 18H16M14 18H10.5M5 18H6.5M14 10V7C14 6.44772 13.5523 6 13 6H5C4.44772 6 4 6.44772 4 7V9M14 10H18.1716C18.702 10 19.2107 10.2107 19.5858 10.5858L21.4142 12.4142C21.7893 12.7893 22 13.298 22 13.8284V17C22 17.5523 21.5523 18 21 18H20M10.5 18C10.5 19.1046 9.60457 20 8.5 20C7.39543 20 6.5 19.1046 6.5 18M10.5 18C10.5 16.8954 9.60457 16 8.5 16C7.39543 16 6.5 16.8954 6.5 18M20 18C20 19.1046 19.1046 20 18 20C16.8954 20 16 19.1046 16 18M20 18C20 16.8954 19.1046 16 18 16C16.8954 16 16 16.8954 16 18M4 9H8M4 9H2M10 12H4M4.5 15H3" stroke="black" stroke-width="2" stroke-linecap="round" stroke-linejoin="round"/>
</svg>
