<svg width="24" height="24" viewBox="0 0 24 24" fill="none" xmlns="http://www.w3.org/2000/svg">
<path d="M12 19C7.02944 19 3 17.2091 3 15C3 14.2714 3.43827 13.5883 4.20404 13M12 19L10 21M12 19L10 17M16 18.5842C18.9634 17.9297 21 16.5705 21 15C21 14.2714 20.5617 13.5883 19.796 13M3.1968 4.3125C3.39982 3.55771 4.11584 3 4.96799 3C5.97801 3 6.7968 3.7835 6.7968 4.75C6.7968 5.7165 5.97801 6.5 4.96799 6.5C6.09024 6.5 7 7.2835 7 8.25C7 9.2165 6.09024 10 4.96799 10C4.02116 10 3.22557 9.44229 3 8.6875M9.75 7.8125C9.75 9.02062 10.6454 10 11.75 10C12.8546 10 13.75 9.02062 13.75 7.8125C13.75 6.60438 12.8546 5.75 11.75 5.75C10.6454 5.75 9.75 6.60438 9.75 7.8125ZM9.75 7.8125V5.625C9.75 3.875 10.6972 3 11.75 3C12.166 3 12.6301 3.14722 13.0089 3.5M21 6.5C21 8.433 19.9926 10 18.75 10C17.5074 10 16.5 8.433 16.5 6.5C16.5 4.567 17.5074 3 18.75 3C19.9926 3 21 4.567 21 6.5Z" stroke="black" stroke-width="2" stroke-linecap="round" stroke-linejoin="round"/>
</svg>
