<svg width="24" height="24" viewBox="0 0 24 24" fill="none" xmlns="http://www.w3.org/2000/svg">
<path d="M13.659 8.5C13.1839 8.18408 12.6135 8 12.0001 8C11.3868 8 10.8164 8.18408 10.3412 8.5M15.3179 6C14.3676 5.36815 13.2269 5 12.0001 5C10.7734 5 9.63264 5.36815 8.68233 6M16.9768 3.5C15.5514 2.55223 13.8402 2 12.0001 2C10.16 2 8.4489 2.55223 7.02344 3.5M8 17.5H8.01M16 17.5H16.01M12 12C7.2 12 4 13.6667 4 17.8333C4 19.5 4.93049 22 7.2 22C9.46951 22 9.6 19.5 12 19.5C14.4 19.5 14.5305 22 16.8 22C19.0695 22 20 19.5 20 17.8333C20 13.6667 16.8 12 12 12Z" stroke="black" stroke-width="2" stroke-linecap="round" stroke-linejoin="round"/>
</svg>
