<svg width="24" height="24" viewBox="0 0 24 24" fill="none" xmlns="http://www.w3.org/2000/svg">
<path fill-rule="evenodd" clip-rule="evenodd" d="M7.51707 6.4725C8.22871 5.53892 9.75556 4 12 4C14.2444 4 15.7713 5.53893 16.4829 6.47251C16.494 6.48705 16.4981 6.49658 16.4994 6.50007C16.4981 6.50357 16.494 6.51309 16.4829 6.52764C15.7713 7.46117 14.2444 9 12 9C9.75556 9 8.22871 7.46117 7.51707 6.52764C7.50598 6.51309 7.50189 6.50357 7.5006 6.50007C7.50189 6.49658 7.50598 6.48705 7.51707 6.4725ZM12 2C8.79718 2 6.75254 4.17638 5.92649 5.26005C5.35783 6.00605 5.35784 6.99416 5.92652 7.74015C6.75259 8.82378 8.79723 11 12 11C15.2028 11 17.2474 8.82377 18.0735 7.74015C18.6422 6.99416 18.6422 6.00606 18.0735 5.26005C17.2475 4.17638 15.2028 2 12 2ZM6.41206 12.9309C6.9262 12.7293 7.1795 12.149 6.97782 11.6348C6.77614 11.1207 6.19585 10.8674 5.6817 11.0691C4.67071 11.4656 3.78149 11.9778 3.12883 12.6068C2.47303 13.2388 2 14.0493 2 15C2 15.8776 2.40438 16.6385 2.98287 17.2463C3.55645 17.849 4.33918 18.3463 5.2299 18.7422C6.47333 19.2948 8.01334 19.6881 9.71002 19.8757L9.29289 20.2929C8.90237 20.6834 8.90237 21.3165 9.29289 21.7071C9.68342 22.0976 10.3166 22.0976 10.7071 21.7071L12.7071 19.7071C13.0976 19.3165 13.0976 18.6834 12.7071 18.2929L10.7071 16.2929C10.3166 15.9023 9.68342 15.9023 9.29289 16.2929C8.90237 16.6834 8.90237 17.3165 9.29289 17.7071L9.40804 17.8222C8.10155 17.6374 6.95148 17.3187 6.04218 16.9146C5.30422 16.5866 4.76892 16.222 4.43166 15.8676C4.0993 15.5183 4 15.2269 4 15C4 14.756 4.11619 14.4329 4.51673 14.0468C4.92039 13.6578 5.55462 13.2673 6.41206 12.9309ZM18.3183 11.0691C17.8042 10.8674 17.2239 11.1207 17.0222 11.6348C16.8205 12.149 17.0738 12.7293 17.5879 12.9309C18.4454 13.2673 19.0796 13.6578 19.4833 14.0468C19.8838 14.4329 20 14.756 20 15C20 15.3175 19.792 15.7866 19.0364 16.3173C18.2987 16.8356 17.1846 17.2984 15.7843 17.6077C15.245 17.7268 14.9044 18.2606 15.0235 18.7999C15.1426 19.3391 15.6764 19.6798 16.2157 19.5606C17.7789 19.2154 19.1647 18.6714 20.1861 17.9538C21.1898 17.2488 22 16.253 22 15C22 14.0493 21.527 13.2388 20.8712 12.6068C20.2185 11.9778 19.3293 11.4656 18.3183 11.0691ZM11.0625 6.5C10.8562 6.5 10.6655 6.43336 10.5106 6.32044C10.5036 6.37931 10.5 6.43924 10.5 6.5C10.5 7.32843 11.1716 8 12 8C12.8284 8 13.5 7.32843 13.5 6.5C13.5 5.67157 12.8284 5 12 5C11.9392 5 11.8793 5.00361 11.8204 5.01064C11.9334 5.16546 12 5.3562 12 5.5625C12 6.08027 11.5803 6.5 11.0625 6.5Z" fill="black"/>
</svg>
