<svg width="24" height="24" viewBox="0 0 24 24" fill="none" xmlns="http://www.w3.org/2000/svg">
<path d="M12 19C7.02944 19 3 17.2091 3 15C3 14.4695 3.23232 13.9632 3.65421 13.5M12 19L10 21M12 19L10 17M16 18.5842C18.9634 17.9297 21 16.5705 21 15C21 14.4695 20.7677 13.9632 20.3458 13.5M8.25 7.25H8.26M15.75 7.25H15.76M12 3C7.8 3 5 4.33333 5 7.66667C5 9 5.81418 11 7.8 11C9.78582 11 9.9 9 12 9C14.1 9 14.2142 11 16.2 11C18.1858 11 19 9 19 7.66667C19 4.33333 16.2 3 12 3Z" stroke="black" stroke-width="2" stroke-linecap="round" stroke-linejoin="round"/>
</svg>
