<svg width="24" height="24" viewBox="0 0 24 24" fill="none" xmlns="http://www.w3.org/2000/svg">
<path d="M9 3H6C4.34315 3 3 4.34315 3 6V9M15 3H18C19.6569 3 21 4.34315 21 6V9M3 15V18C3 19.6569 4.34315 21 6 21H9M21 15V18C21 19.6569 19.6569 21 18 21H15M12 11.5L15.5 9.75M12 11.5L8.5 9.75M12 11.5V15.875M14.8944 15.0528L12.8944 16.0528C12.3314 16.3343 11.6686 16.3343 11.1056 16.0528L9.10557 15.0528C8.428 14.714 8 14.0215 8 13.2639V10.7361C8 9.97852 8.428 9.286 9.10557 8.94721L11.1056 7.94721C11.6686 7.66569 12.3314 7.66569 12.8944 7.94721L14.8944 8.94721C15.572 9.286 16 9.97852 16 10.7361V13.2639C16 14.0215 15.572 14.714 14.8944 15.0528Z" stroke="black" stroke-width="2" stroke-linecap="round" stroke-linejoin="round"/>
</svg>
