<svg width="24" height="24" viewBox="0 0 24 24" fill="none" xmlns="http://www.w3.org/2000/svg">
<path d="M12 13.5V18M12 13.5L8 11.5246M12 13.5L16 11.5246M11 6H13M15.4586 3H8.54138C7.07486 3 5.82329 4.06024 5.5822 5.5068L3.5822 17.5068C3.27743 19.3354 4.68756 21 6.54138 21H17.4586C19.3124 21 20.7226 19.3354 20.4178 17.5068L18.4178 5.5068C18.1767 4.06024 16.9251 3 15.4586 3ZM15.4713 16.5715L12.9713 17.9604C12.3672 18.296 11.6328 18.296 11.0287 17.9604L8.52871 16.5715C7.89378 16.2188 7.5 15.5495 7.5 14.8232V12.1768C7.5 11.4505 7.89378 10.7812 8.52871 10.4285L11.0287 9.0396C11.6328 8.70402 12.3672 8.70402 12.9713 9.0396L15.4713 10.4285C16.1062 10.7812 16.5 11.4505 16.5 12.1768V14.8232C16.5 15.5495 16.1062 16.2188 15.4713 16.5715Z" stroke="black" stroke-width="2" stroke-linecap="round" stroke-linejoin="round"/>
</svg>
