<svg width="24" height="24" viewBox="0 0 24 24" fill="none" xmlns="http://www.w3.org/2000/svg">
<path d="M15.0008 12V17M15.0008 12L10.5 9.74996M15.0008 12L19.5 9.75041M16.5987 3.5C16.0799 2.6033 15.1104 2 14 2H7C5.34315 2 4 3.34315 4 5V19C4 20.6569 5.34315 22 7 22H14C15.1104 22 16.0799 21.3967 16.5987 20.5M19.0298 15.0826L16.0297 16.8827C15.3964 17.2626 14.6052 17.2627 13.9719 16.8827L10.9711 15.0826C10.3687 14.7212 10 14.0701 10 13.3675V10.6325C10 9.9299 10.3687 9.27885 10.9711 8.91742L13.9719 7.11727C14.6052 6.73732 15.3964 6.73735 16.0297 7.11735L19.0298 8.91739C19.6322 9.27884 20.0008 9.92986 20.0008 10.6324V13.3676C20.0008 14.0701 19.6322 14.7212 19.0298 15.0826Z" stroke="black" stroke-width="2" stroke-linecap="round" stroke-linejoin="round"/>
</svg>
