<svg width="24" height="24" viewBox="0 0 24 24" fill="none" xmlns="http://www.w3.org/2000/svg">
<path d="M12.0008 9.5V14.5M12.0008 9.5L7.5 7.24996M12.0008 9.5L16.5 7.25041M17.0004 11L20.5716 13.1425C21.2189 13.5309 21.219 14.4691 20.5716 14.8575L13.0298 19.3826C12.3964 19.7626 11.6052 19.7626 10.9718 19.3827L3.42924 14.8575C2.78188 14.4691 2.78186 13.5309 3.42921 13.1425L7 11M16.0298 12.5826L13.0297 14.3827C12.3964 14.7626 11.6052 14.7627 10.9719 14.3827L7.97113 12.5826C7.36865 12.2212 7 11.5701 7 10.8675V8.13248C7 7.4299 7.36865 6.77885 7.97113 6.41742L10.9719 4.61727C11.6052 4.23732 12.3964 4.23735 13.0297 4.61735L16.0298 6.41739C16.6322 6.77884 17.0008 7.42986 17.0008 8.13238V10.8676C17.0008 11.5701 16.6322 12.2212 16.0298 12.5826Z" stroke="black" stroke-width="2" stroke-linecap="round" stroke-linejoin="round"/>
</svg>
