<svg width="24" height="24" viewBox="0 0 24 24" fill="none" xmlns="http://www.w3.org/2000/svg">
<path d="M11.9997 13V16.5M11.9997 13L8.99972 11.7143M11.9997 13L14.9997 11.7143M11 5H13M5.5 5V19C5.5 20.6569 6.84315 22 8.5 22H15.5C17.1569 22 18.5 20.6569 18.5 19V5C18.5 3.34315 17.1569 2 15.5 2H8.5C6.84315 2 5.5 3.34315 5.5 5ZM14.5906 15.8896L12.5906 16.7468C12.2133 16.9085 11.7862 16.9085 11.4088 16.7468L9.40884 15.8896C8.85732 15.6533 8.49972 15.1109 8.49972 14.5109V12.4891C8.49972 11.8891 8.85732 11.3467 9.40885 11.1104L11.4088 10.2532C11.7862 10.0915 12.2133 10.0915 12.5906 10.2532L14.5906 11.1104C15.1421 11.3467 15.4997 11.8891 15.4997 12.4891V14.5109C15.4997 15.1109 15.1421 15.6533 14.5906 15.8896Z" stroke="black" stroke-width="2" stroke-linecap="round" stroke-linejoin="round"/>
</svg>
