<svg width="24" height="24" viewBox="0 0 24 24" fill="none" xmlns="http://www.w3.org/2000/svg">
<path d="M12.0008 8.5V16.5M12.0008 8.5L7.5 6.24996M12.0008 8.5L16.5 6.25041M17 12L20.5175 14.2099C21.1608 14.614 21.1608 15.5903 20.5175 15.9945L13.0229 20.7034C12.3935 21.0989 11.6073 21.0989 10.9779 20.7034L3.48249 15.9945C2.83918 15.5903 2.83917 14.614 3.48247 14.2098L6.9996 12M16.0298 14.5826L13.0297 16.3827C12.3964 16.7626 11.6052 16.7627 10.9719 16.3827L7.97113 14.5826C7.36865 14.2212 7 13.5701 7 12.8675V7.13247C7 6.4299 7.36865 5.77885 7.97113 5.41742L10.9719 3.61727C11.6052 3.23732 12.3964 3.23735 13.0297 3.61735L16.0298 5.41739C16.6322 5.77884 17.0008 6.42986 17.0008 7.13238V12.8676C17.0008 13.5701 16.6322 14.2212 16.0298 14.5826Z" stroke="black" stroke-width="2" stroke-linecap="round" stroke-linejoin="round"/>
</svg>
