<svg width="24" height="24" viewBox="0 0 24 24" fill="none" xmlns="http://www.w3.org/2000/svg">
<path d="M7 20H7.01M13 20H10M16 15C17.1046 15 18 14.1046 18 13V6C18 4.89543 17.1046 4 16 4H4C2.89543 4 2 4.89543 2 6V13C2 14.1046 2.89543 15 4 15M21 14.7324C21.5978 14.3866 22 13.7403 22 13V6C22 5.25972 21.5978 4.61337 21 4.26756M8.5 16.5H11.5C12.3284 16.5 13 15.8284 13 15C13 14.1716 12.3284 13.5 11.5 13.5H8.5C7.67157 13.5 7 14.1716 7 15C7 15.8284 7.67157 16.5 8.5 16.5Z" stroke="black" stroke-width="2" stroke-linecap="round" stroke-linejoin="round"/>
</svg>
