<svg width="24" height="24" viewBox="0 0 24 24" fill="none" xmlns="http://www.w3.org/2000/svg">
<path d="M8 21H8.01M16 21H11M19 16.5C20.1046 16.5 21 15.6046 21 14.5V5C21 3.89543 20.1046 3 19 3H5C3.89543 3 3 3.89543 3 5V14.5C3 15.6046 3.89543 16.5 5 16.5M17.5 8V10M6.5 8V10M9.5 18H14.5C15.3284 18 16 17.3284 16 16.5C16 15.6716 15.3284 15 14.5 15H9.5C8.67157 15 8 15.6716 8 16.5C8 17.3284 8.67157 18 9.5 18ZM14.5 7.75V10.25C14.5 10.9404 13.9404 11.5 13.25 11.5H10.75C10.0596 11.5 9.5 10.9404 9.5 10.25V7.75C9.5 7.05964 10.0596 6.5 10.75 6.5H13.25C13.9404 6.5 14.5 7.05964 14.5 7.75Z" stroke="black" stroke-width="2" stroke-linecap="round" stroke-linejoin="round"/>
</svg>
