<svg width="24" height="24" viewBox="0 0 24 24" fill="none" xmlns="http://www.w3.org/2000/svg">
<path d="M6 3C4.34315 3 3 4.34315 3 6M18 3C19.6569 3 21 4.34315 21 6M21 13C21 14.3062 20.1652 15.4175 19 15.8293M3 13C3 14.3062 3.83481 15.4175 5 15.8293M8 21H8.01M16 21H11M15 3H9M3 9V10M21 9V10M9.5 17.5H14.5C15.3284 17.5 16 16.8284 16 16C16 15.1716 15.3284 14.5 14.5 14.5H9.5C8.67157 14.5 8 15.1716 8 16C8 16.8284 8.67157 17.5 9.5 17.5Z" stroke="black" stroke-width="2" stroke-linecap="round" stroke-linejoin="round"/>
</svg>
