<svg width="24" height="24" viewBox="0 0 24 24" fill="none" xmlns="http://www.w3.org/2000/svg">
<path d="M13.5 3.5H4M17.9253 16.2955L16.8714 18.6763C15.9787 20.6926 13.9045 22 11.6384 22C8.54616 22 6 19.5732 6 16.5796V16.2862C6 15.898 6.06466 15.5122 6.19149 15.1438C6.50895 14.2219 7.4002 13.6 8.40408 13.6H10.7C11.0993 13.6 11.4231 13.2866 11.4231 12.9V9.225C11.4231 8.54845 11.9896 8 12.6884 8C13.3873 8 13.9538 8.54845 13.9538 9.225V16.8047C13.9538 17.1853 14.4928 17.2924 14.6477 16.9426L15.0358 16.0658C15.4328 15.1692 16.5007 14.7483 17.4317 15.1216C17.9053 15.3115 18.1273 15.8394 17.9253 16.2955ZM17 3.5V3.5C17 4.32843 17.6716 5 18.5 5V5C19.3284 5 20 4.32843 20 3.5V3.5C20 2.67157 19.3284 2 18.5 2V2C17.6716 2 17 2.67157 17 3.5Z" stroke="black" stroke-width="2" stroke-linecap="round" stroke-linejoin="round"/>
</svg>
