<svg width="24" height="24" viewBox="0 0 24 24" fill="none" xmlns="http://www.w3.org/2000/svg">
<path fill-rule="evenodd" clip-rule="evenodd" d="M6.99991 4H5.41418L7.70702 6.2929C8.09754 6.68343 8.09753 7.3166 7.707 7.70712C7.31647 8.09764 6.68331 8.09763 6.29279 7.7071L4 5.41425V7C4 7.55228 3.55228 8 3 8C2.44772 8 2 7.55228 2 7V4.25C2 3.00736 3.00736 2 4.25 2H6.99991C7.55219 2 7.99991 2.44772 7.99991 3C7.99991 3.55228 7.55219 4 6.99991 4ZM17 2C16.4477 2 16 2.44772 16 3C16 3.55228 16.4477 4 17 4H18.5857L16.2929 6.2929C15.9024 6.68343 15.9024 7.3166 16.2929 7.70712C16.6834 8.09764 17.3166 8.09763 17.7071 7.7071L19.9999 5.41425V7C19.9999 7.55228 20.4476 8 20.9999 8C21.5522 8 21.9999 7.55228 21.9999 7V4.25C21.9999 3.00736 20.9925 2 19.7499 2H17ZM7.51707 11.9725C8.22871 11.0389 9.75556 9.5 12 9.5C14.2444 9.5 15.7713 11.0389 16.4829 11.9725C16.494 11.9871 16.4981 11.9966 16.4994 12.0001C16.4981 12.0036 16.494 12.0131 16.4829 12.0276C15.7713 12.9612 14.2444 14.5 12 14.5C9.75556 14.5 8.22871 12.9612 7.51707 12.0276C7.50598 12.0131 7.50189 12.0036 7.5006 12.0001C7.50189 11.9966 7.50598 11.9871 7.51707 11.9725ZM12 7.5C8.79718 7.5 6.75254 9.67638 5.92649 10.76C5.35783 11.5061 5.35784 12.4942 5.92652 13.2401C6.75259 14.3238 8.79723 16.5 12 16.5C15.2028 16.5 17.2474 14.3238 18.0735 13.2401C18.6422 12.4942 18.6422 11.5061 18.0735 10.76C17.2475 9.67638 15.2028 7.5 12 7.5ZM4 17C4 16.4477 3.55228 16 3 16C2.44772 16 2 16.4477 2 17V19.75C2 20.9926 3.00736 22 4.25 22H6.99991C7.55219 22 7.99991 21.5523 7.99991 21C7.99991 20.4477 7.55219 20 6.99991 20H5.41418L7.70702 17.7071C8.09754 17.3166 8.09753 16.6834 7.707 16.2929C7.31647 15.9024 6.68331 15.9024 6.29279 16.2929L4 18.5858V17ZM17.7071 16.2929C17.3166 15.9024 16.6834 15.9024 16.2929 16.2929C15.9024 16.6834 15.9024 17.3166 16.2929 17.7071L18.5857 20H17C16.4477 20 16 20.4477 16 21C16 21.5523 16.4477 22 17 22H19.7499C20.9925 22 21.9999 20.9926 21.9999 19.75V17C21.9999 16.4477 21.5522 16 20.9999 16C20.4476 16 19.9999 16.4477 19.9999 17V18.5858L17.7071 16.2929ZM9.5625 11.5C9.3562 11.5 9.16546 11.4334 9.01064 11.3204C9.00361 11.3793 9 11.4392 9 11.5C9 12.3284 9.67157 13 10.5 13C11.3284 13 12 12.3284 12 11.5C12 10.6716 11.3284 10 10.5 10C10.4392 10 10.3793 10.0036 10.3204 10.0106C10.4334 10.1655 10.5 10.3562 10.5 10.5625C10.5 11.0803 10.0803 11.5 9.5625 11.5Z" fill="black"/>
</svg>
