<svg width="24" height="24" viewBox="0 0 24 24" fill="none" xmlns="http://www.w3.org/2000/svg">
<path d="M10 13.375V12.5C10 11.6716 10.6716 11 11.5 11H12.5C13.3284 11 14 11.6716 14 12.5V13.375M8.8 18.25V19.375M12 18.25V19.375M15.2 18.25V19.375M13.659 8.5C13.1839 8.18408 12.6135 8 12.0001 8C11.3868 8 10.8164 8.18408 10.3412 8.5M15.3179 6C14.3676 5.36815 13.2269 5 12.0001 5C10.7734 5 9.63264 5.36815 8.68233 6M16.9768 3.5C15.5514 2.55223 13.8402 2 12.0001 2C10.16 2 8.4489 2.55223 7.02344 3.5M8.125 13.75H15.875C18.1532 13.75 20 15.5968 20 17.875V17.875C20 20.1532 18.1532 22 15.875 22H8.125C5.84683 22 4 20.1532 4 17.875V17.875C4 15.5968 5.84683 13.75 8.125 13.75Z" stroke="black" stroke-width="2" stroke-linecap="round" stroke-linejoin="round"/>
</svg>
