<svg width="24" height="24" viewBox="0 0 24 24" fill="none" xmlns="http://www.w3.org/2000/svg">
<path d="M3.5 3.5L5.99991 6M3 6V3.5C3 3.22386 3.22386 3 3.5 3H5.99991M20.4999 3.5L18 6M20.9999 6V3.5C20.9999 3.22386 20.776 3 20.4999 3H18M20.4999 20.5L18 18M20.9999 18V20.5C20.9999 20.7761 20.776 21 20.4999 21H18M3.5 20.5L5.99991 18M3 18V20.5C3 20.7761 3.22386 21 3.5 21H5.99991M14.75 10.5V10.5C15.4404 10.5 16 9.94036 16 9.25V9.25C16 8.55964 15.4404 8 14.75 8V8C14.0596 8 13.5 8.55964 13.5 9.25V9.25C13.5 9.94036 14.0596 10.5 14.75 10.5ZM9.5 16V16C8.11929 16 7 14.8807 7 13.5V13.5C7 12.1193 8.11929 11 9.5 11V11C10.8807 11 12 12.1193 12 13.5V13.5C12 14.8807 10.8807 16 9.5 16Z" stroke="black" stroke-width="2" stroke-linecap="round" stroke-linejoin="round"/>
</svg>
