<svg width="24" height="24" viewBox="0 0 24 24" fill="none" xmlns="http://www.w3.org/2000/svg">
<path d="M18 15H18.4384C19.7396 15 20.6943 13.7772 20.3787 12.5149L18.5681 5.27239C18.2342 3.93689 17.0343 3 15.6577 3H8.34233C6.96573 3 5.76578 3.93689 5.4319 5.27239L3.62127 12.5149C3.30569 13.7772 4.26041 15 5.56155 15H6M11 21H13C14.1046 21 15 20.1046 15 19V12C15 10.8954 14.1046 10 13 10H11C9.89543 10 9 10.8954 9 12V19C9 20.1046 9.89543 21 11 21Z" stroke="black" stroke-width="2" stroke-linecap="round" stroke-linejoin="round"/>
</svg>
