<svg width="24" height="24" viewBox="0 0 24 24" fill="none" xmlns="http://www.w3.org/2000/svg">
<path d="M5.42232 14.3942L18.578 9.60587M5.42232 14.3942L6.61767 11.8307M5.42232 14.3942L7.98575 15.5895M18.578 9.60587L16.0146 8.41053M18.578 9.60587L17.3827 12.1693M12 6C9.35605 6 6.71209 5.44076 4.80744 4.91372C3.44376 4.53638 2 5.53914 2 6.95407V17.0459C2 18.4609 3.44376 19.4636 4.80744 19.0863C6.7121 18.5592 9.35605 18 12 18C14.644 18 17.2879 18.5592 19.1926 19.0863C20.5562 19.4636 22 18.4609 22 17.0459V6.95407C22 5.53914 20.5562 4.53638 19.1926 4.91372C17.2879 5.44076 14.644 6 12 6Z" stroke="black" stroke-width="2" stroke-linecap="round" stroke-linejoin="round"/>
</svg>
