<svg width="24" height="24" viewBox="0 0 24 24" fill="none" xmlns="http://www.w3.org/2000/svg">
<path d="M7 3V3C7 5.20914 5.20914 7 3 7V7M17 3V3C17 5.20914 18.7909 7 21 7V7M7 21V21C7 18.7909 5.20914 17 3 17V17M17 21V21C17 18.7909 18.7909 17 21 17V17M3 3H3.01M21 3H20.99M21 21H20.99M3.01 21H3M15.5 12V12C16.3284 12 17 12.6716 17 13.5V13.5C17 14.3284 16.3284 15 15.5 15H15V11C15 9.34315 13.6569 8 12 8V8C10.3431 8 9 9.34315 9 11V15H8.5C7.67157 15 7 14.3284 7 13.5V13.5C7 12.6716 7.67157 12 8.5 12V12" stroke="black" stroke-width="2" stroke-linecap="round" stroke-linejoin="round"/>
</svg>
