<svg width="24" height="24" viewBox="0 0 24 24" fill="none" xmlns="http://www.w3.org/2000/svg">
<path d="M7 3V3C7 5.20914 5.20914 7 3 7V7M17 3V3C17 5.20914 18.7909 7 21 7V7M7 21V21C7 18.7909 5.20914 17 3 17V17M17 21V21C17 18.7909 18.7909 17 21 17V17M3 3H3.01M21 3H20.99M21 21H20.99M3.01 21H3M8.53513 16C9.22675 14.8044 10.5194 14 12 14C13.4806 14 14.7733 14.8044 15.4649 16M12 11V11C10.8954 11 10 10.1046 10 9V9C10 7.89543 10.8954 7 12 7V7C13.1046 7 14 7.89543 14 9V9C14 10.1046 13.1046 11 12 11Z" stroke="black" stroke-width="2" stroke-linecap="round" stroke-linejoin="round"/>
</svg>
