<svg width="24" height="24" viewBox="0 0 24 24" fill="none" xmlns="http://www.w3.org/2000/svg">
<path d="M7 3V3C7 5.20914 5.20914 7 3 7V7M17 3V3C17 5.20914 18.7909 7 21 7V7M7 21V21C7 18.7909 5.20914 17 3 17V17M17 21V21C17 18.7909 18.7909 17 21 17V17M3 3H3.01M21 3H20.99M21 21H20.99M3.01 21H3M12 9C8.7 9 6.5 10 6.5 12.5C6.5 13.5 7.13971 15 8.7 15C10.2603 15 10.35 13.5 12 13.5C13.65 13.5 13.7397 15 15.3 15C16.8603 15 17.5 13.5 17.5 12.5C17.5 10 15.3 9 12 9Z" stroke="black" stroke-width="2" stroke-linecap="round" stroke-linejoin="round"/>
</svg>
