<svg width="24" height="24" viewBox="0 0 24 24" fill="none" xmlns="http://www.w3.org/2000/svg">
<path d="M3 8V6C3 4.34315 4.34315 3 6 3H7.99991M20.9999 8V6C20.9999 4.34315 19.6568 3 17.9999 3H16M20.9999 16V18C20.9999 19.6569 19.6568 21 17.9999 21H16M3 16V18C3 19.6569 4.34315 21 6 21H7.99991M12 17L14.5732 14.4268C14.7307 14.2693 15 14.3808 15 14.6036V16C15 17.1046 14.1046 18 13 18H11C9.89543 18 9 17.1046 9 16V14.6036C9 14.3808 9.26929 14.2693 9.42678 14.4268L12 17ZM12 17V11M12 11V11C13.6569 11 15 9.65685 15 8V6.80902C15 6.43733 14.6088 6.19558 14.2764 6.3618L12.8944 7.05279C12.3314 7.33431 11.6686 7.33431 11.1056 7.05279L9.72361 6.3618C9.39116 6.19558 9 6.43733 9 6.80902V8C9 9.65685 10.3431 11 12 11V11Z" stroke="black" stroke-width="2" stroke-linecap="round" stroke-linejoin="round"/>
</svg>
