<svg width="24" height="24" viewBox="0 0 24 24" fill="none" xmlns="http://www.w3.org/2000/svg">
<path fill-rule="evenodd" clip-rule="evenodd" d="M3.70711 2.29289C3.31658 1.90237 2.68342 1.90237 2.29289 2.29289C1.90237 2.68342 1.90237 3.31658 2.29289 3.70711L4.58579 6H4C3.44772 6 3 6.44772 3 7C3 7.55228 3.44772 8 4 8H6C7.10457 8 8 7.10457 8 6V4C8 3.44772 7.55228 3 7 3C6.44772 3 6 3.44772 6 4V4.58579L3.70711 2.29289ZM21.7071 2.29289C21.3166 1.90237 20.6834 1.90237 20.2929 2.29289L18 4.58579V4C18 3.44772 17.5523 3 17 3C16.4477 3 16 3.44772 16 4V6C16 7.10457 16.8954 8 18 8H20C20.5523 8 21 7.55228 21 7C21 6.44772 20.5523 6 20 6H19.4142L21.7071 3.70711C22.0976 3.31658 22.0976 2.68342 21.7071 2.29289ZM11.0137 11.8341C9.84135 11.4262 9 10.3113 9 9V7.80902C9 7.43733 9.39116 7.19558 9.72361 7.3618L11.1056 8.05279C11.6686 8.33431 12.3314 8.33431 12.8944 8.05279L14.2764 7.3618C14.6088 7.19558 15 7.43733 15 7.80902V9C15 10.3113 14.1586 11.4262 12.9863 11.8341C12.9953 11.8881 13 11.9435 13 12V15L14.5732 13.4268C14.7307 13.2693 15 13.3808 15 13.6036V15C15 16.1046 14.1046 17 13 17H12H11C9.89543 17 9 16.1046 9 15V13.6036C9 13.3808 9.26929 13.2693 9.42678 13.4268L11 15V12C11 11.9435 11.0047 11.8881 11.0137 11.8341ZM4 16C3.44772 16 3 16.4477 3 17C3 17.5523 3.44772 18 4 18H4.58579L2.29289 20.2929C1.90237 20.6834 1.90237 21.3166 2.29289 21.7071C2.68342 22.0976 3.31658 22.0976 3.70711 21.7071L6 19.4142V20C6 20.5523 6.44772 21 7 21C7.55228 21 8 20.5523 8 20V18C8 16.8954 7.10457 16 6 16H4ZM18 16C16.8954 16 16 16.8954 16 18V20C16 20.5523 16.4477 21 17 21C17.5523 21 18 20.5523 18 20V19.4142L20.2929 21.7071C20.6834 22.0976 21.3166 22.0976 21.7071 21.7071C22.0976 21.3166 22.0976 20.6834 21.7071 20.2929L19.4142 18H20C20.5523 18 21 17.5523 21 17C21 16.4477 20.5523 16 20 16H18Z" fill="black"/>
</svg>
