<svg width="24" height="24" viewBox="0 0 24 24" fill="none" xmlns="http://www.w3.org/2000/svg">
<path d="M2.12018 7.86692L4.44955 16.5603C4.77117 17.7606 5.93008 18.4929 7.03805 18.196C8.14602 17.8992 8.78348 16.6855 8.46186 15.4852M2.12018 7.86692C1.53784 5.69359 3.15576 3.70715 5.16192 3.16961C7.50243 2.54247 10.3282 3.72644 10.8135 5.53755M2.12018 7.86692C2.60547 9.67803 4.04655 10.9923 5.76562 10.7724C8.53755 10.4179 11.4929 8.07311 10.8135 5.53755M8.46186 15.4852L8.07363 14.0363C7.93028 13.5013 8.01261 12.975 8.22265 12.4434M8.46186 15.4852L9.63212 15.1716C10.0938 15.0479 10.3594 14.5422 10.2254 14.0421L9.9342 12.9554C9.80019 12.4553 9.31731 12.1501 8.85566 12.2738L8.22265 12.4434M10.8135 5.53755C11.5793 8.3955 9.00807 10.4558 8.22265 12.4434M5.95479 8.2953L5.96148 8.29351M6.65887 5.68021L6.66556 5.67842M21.9464 10.2485L20.3835 19.1118C20.1678 20.3355 19.0771 21.1661 17.9475 20.9669C16.8178 20.7678 16.077 19.6142 16.2928 18.3905M21.9464 10.2485C22.3371 8.0327 20.5522 6.19483 18.5068 5.83418C16.1205 5.41342 13.4087 6.83917 13.0831 8.68568M21.9464 10.2485C21.6208 12.095 20.2997 13.5299 18.568 13.4607C15.7757 13.3491 12.6273 11.2708 13.0831 8.68568M16.2928 18.3905L16.5533 16.9133C16.6494 16.3678 16.5216 15.8507 16.266 15.3395M16.2928 18.3905L15.0997 18.1801C14.629 18.0971 14.3203 17.6165 14.4102 17.1066L14.6056 15.9987C14.6955 15.4888 15.1499 15.1427 15.6206 15.2257L16.266 15.3395M13.0831 8.68568C12.5693 11.5995 15.3103 13.4279 16.266 15.3395M18.1637 11.0095L18.1569 11.0083M17.2344 8.4657L17.2275 8.4645" stroke="black" stroke-width="2" stroke-linecap="round" stroke-linejoin="round"/>
</svg>
