<svg width="24" height="24" viewBox="0 0 24 24" fill="none" xmlns="http://www.w3.org/2000/svg">
<path d="M19.5 7V19C19.5 20.6569 18.1569 22 16.5 22V22C14.8431 22 13.5 20.6569 13.5 19V17C13.5 13.5 6.5 12 6.5 7M19.5 7C19.5 4 16.5 2 13.5 2C10 2 6.5 4.5 6.5 7M19.5 7C19.5 9.5 17.9807 11.6899 15.5 12C11.5 12.5 6.5 10.5 6.5 7M13 19H11.75C11.0596 19 10.5 18.4404 10.5 17.75V16.25C10.5 15.5596 11.0596 15 11.75 15H12.5M15 9H14.99M12 6H11.99" stroke="black" stroke-width="2" stroke-linecap="round" stroke-linejoin="round"/>
</svg>
