<svg width="24" height="24" viewBox="0 0 24 24" fill="none" xmlns="http://www.w3.org/2000/svg">
<path d="M6.5 7V19C6.5 20.6569 7.84315 22 9.5 22V22C11.1569 22 12.5 20.6569 12.5 19V17C12.5 13.5 19.5 12 19.5 7M6.5 7C6.5 4 9.5 2 12.5 2C16 2 19.5 4.5 19.5 7M6.5 7C6.5 9.5 8.01931 11.6899 10.5 12C14.5 12.5 19.5 10.5 19.5 7M13 19H14.25C14.9404 19 15.5 18.4404 15.5 17.75V16.25C15.5 15.5596 14.9404 15 14.25 15H13.5M11 9H11.01M14 6H14.01" stroke="black" stroke-width="2" stroke-linecap="round" stroke-linejoin="round"/>
</svg>
