<svg width="24" height="24" viewBox="0 0 24 24" fill="none" xmlns="http://www.w3.org/2000/svg">
<path d="M13.659 9.5C13.1839 9.18408 12.6135 9 12.0001 9C11.3868 9 10.8164 9.18408 10.3412 9.5M15.3178 7C14.3675 6.36815 13.2267 6 12 6C10.7733 6 9.63251 6.36815 8.68221 7M16.9768 4.5C15.5514 3.55223 13.8402 3 12.0001 3C10.16 3 8.4489 3.55223 7.02344 4.5M9.5 15.5H14.5M14.1371 19.5371L13.9379 19.3379C12.8676 18.2676 11.1324 18.2676 10.0621 19.3379L9.86291 19.5371C8.94485 20.4551 7.63994 20.8733 6.35928 20.6599L6.21189 20.6353C4.35845 20.3264 3 18.7228 3 16.8438V16.8438C3 14.7209 4.72093 13 6.84381 13H17.1562C19.2791 13 21 14.7209 21 16.8438V16.8438C21 18.7228 19.6415 20.3264 17.7881 20.6353L17.6407 20.6599C16.3601 20.8733 15.0551 20.4551 14.1371 19.5371Z" stroke="black" stroke-width="2" stroke-linecap="round" stroke-linejoin="round"/>
</svg>
