<svg width="24" height="24" viewBox="0 0 24 24" fill="none" xmlns="http://www.w3.org/2000/svg">
<path d="M3 15V20M21 15V20M13.659 10.5C13.1839 10.1841 12.6135 10 12.0001 10C11.3868 10 10.8164 10.1841 10.3412 10.5M15.3179 7.5C14.3676 6.86815 13.2269 6.5 12.0001 6.5C10.7734 6.5 9.63264 6.86815 8.68233 7.5M16.9768 4.5C15.5514 3.55223 13.8402 3 12.0001 3C10.16 3 8.4489 3.55223 7.02344 4.5M13.9246 20.2831L13.6641 20.1094C12.6564 19.4376 11.3436 19.4376 10.3359 20.1094L10.0754 20.2831C9.37419 20.7505 8.55028 21 7.70752 21V21C6.76448 21 6 20.2355 6 19.2925V16C6 14.8954 6.89543 14 8 14H16C17.1046 14 18 14.8954 18 16V19.2925C18 20.2355 17.2355 21 16.2925 21V21C15.4497 21 14.6258 20.7505 13.9246 20.2831Z" stroke="black" stroke-width="2" stroke-linecap="round" stroke-linejoin="round"/>
</svg>
