<svg width="24" height="24" viewBox="0 0 24 24" fill="none" xmlns="http://www.w3.org/2000/svg">
<path d="M2 10V16M22 10V16M12 9H17C18.1046 9 19 9.89543 19 11V15C19 16.1046 18.1046 17 17 17H16.5139C15.5268 17 14.5617 16.7078 13.7404 16.1603L13.6641 16.1094C12.6564 15.4376 11.3436 15.4376 10.3359 16.1094L10.2596 16.1603C9.43829 16.7078 8.47325 17 7.48612 17H7C5.89543 17 5 16.1046 5 15V11C5 9.89543 5.89543 9 7 9H12ZM12 9V7" stroke="black" stroke-width="2" stroke-linecap="round" stroke-linejoin="round"/>
</svg>
