<svg width="24" height="24" viewBox="0 0 24 24" fill="none" xmlns="http://www.w3.org/2000/svg">
<path d="M2 9V15M22 9V15M13.7404 15.1603L13.6641 15.1094C12.6564 14.4376 11.3436 14.4376 10.3359 15.1094L10.2596 15.1603C9.43829 15.7078 8.47325 16 7.48612 16H7C5.89543 16 5 15.1046 5 14V10C5 8.89543 5.89543 8 7 8H17C18.1046 8 19 8.89543 19 10V14C19 15.1046 18.1046 16 17 16H16.5139C15.5268 16 14.5617 15.7078 13.7404 15.1603Z" stroke="black" stroke-width="2" stroke-linecap="round" stroke-linejoin="round"/>
</svg>
