<svg width="24" height="24" viewBox="0 0 24 24" fill="none" xmlns="http://www.w3.org/2000/svg">
<path d="M11 14.25C8.3 14.25 8.15319 17 5.6 17C3.04681 17 2 14.25 2 12.4167C2 7.83333 5.6 6 11 6C14.3193 6 16.9585 6.69271 18.4996 8.29104M7.4 9.4375C9.65 8.75 12.35 8.75 14.6 9.4375M18.4996 13.012C17.7998 12.2328 16.6329 12.0233 15.7561 12.7367C14.8793 13.4502 14.7559 14.643 15.4444 15.4868C15.9045 16.0506 17.1137 17.117 17.8655 17.7626C18.2314 18.0767 18.7677 18.0767 19.1336 17.7626C19.8854 17.117 21.0946 16.0506 21.5547 15.4868C22.2432 14.643 22.1349 13.4427 21.243 12.7367C20.3512 12.0308 19.1993 12.2328 18.4996 13.012Z" stroke="black" stroke-width="2" stroke-linecap="round" stroke-linejoin="round"/>
</svg>
