<svg width="24" height="24" viewBox="0 0 24 24" fill="none" xmlns="http://www.w3.org/2000/svg">
<path d="M8.8 14.8125C10.8 14.25 13.2 14.25 15.2 14.8125M12 12C7.2 12 4 13.5 4 17.25C4 18.75 4.93049 21 7.2 21C9.46951 21 9.6 18.75 12 18.75C14.4 18.75 14.5305 21 16.8 21C19.0695 21 20 18.75 20 17.25C20 13.5 16.8 12 12 12ZM11.9976 3.71194C11.2978 2.9328 10.1309 2.72321 9.25414 3.43667C8.37737 4.15013 8.25394 5.34299 8.94247 6.1868C9.40252 6.7506 10.6117 7.81691 11.3636 8.46251C11.7294 8.77665 12.2658 8.77665 12.6316 8.46251C13.3835 7.81691 14.5927 6.7506 15.0527 6.1868C15.7413 5.34299 15.6329 4.14262 14.7411 3.43667C13.8492 2.73072 12.6974 2.9328 11.9976 3.71194Z" stroke="black" stroke-width="2" stroke-linecap="round" stroke-linejoin="round"/>
</svg>
