<svg width="24" height="24" viewBox="0 0 24 24" fill="none" xmlns="http://www.w3.org/2000/svg">
<path d="M8.8 14.8125C10.8 14.25 13.2 14.25 15.2 14.8125M13.2678 7.26777L15 9M13.2678 7.26777C12.8154 7.72018 12.1904 8 11.5 8C10.1193 8 9 6.88071 9 5.5C9 4.11929 10.1193 3 11.5 3C12.8807 3 14 4.11929 14 5.5C14 6.19036 13.7202 6.81536 13.2678 7.26777ZM12 12C7.2 12 4 13.5 4 17.25C4 18.75 4.93049 21 7.2 21C9.46951 21 9.6 18.75 12 18.75C14.4 18.75 14.5305 21 16.8 21C19.0695 21 20 18.75 20 17.25C20 13.5 16.8 12 12 12Z" stroke="black" stroke-width="2" stroke-linecap="round" stroke-linejoin="round"/>
</svg>
