<svg width="24" height="24" viewBox="0 0 24 24" fill="none" xmlns="http://www.w3.org/2000/svg">
<path d="M7.4 9.4375C9.65 8.75 12.35 8.75 14.6 9.4375M18.1957 8C16.6237 6.60827 14.1104 6 11 6C5.6 6 2 7.83333 2 12.4167C2 14.25 3.04681 17 5.6 17C8.15319 17 8.3 14.25 11 14.25C11.3791 14.25 11.7078 14.3042 12 14.3974M20.2678 16.2678L22 18M20.2678 16.2678C19.8154 16.7202 19.1904 17 18.5 17C17.1193 17 16 15.8807 16 14.5C16 13.1193 17.1193 12 18.5 12C19.8807 12 21 13.1193 21 14.5C21 15.1904 20.7202 15.8154 20.2678 16.2678Z" stroke="black" stroke-width="2" stroke-linecap="round" stroke-linejoin="round"/>
</svg>
