<svg width="24" height="24" viewBox="0 0 24 24" fill="none" xmlns="http://www.w3.org/2000/svg">
<path fill-rule="evenodd" clip-rule="evenodd" d="M11 5C8.21657 5 5.73813 5.46724 3.92721 6.65296C2.04687 7.88414 1 9.81636 1 12.4167C1 13.4929 1.30064 14.8308 1.99786 15.9311C2.71351 17.0605 3.89898 18 5.6 18C7.27459 18 8.20985 17.07 8.88319 16.4005L8.94905 16.3351C9.63068 15.6592 10.0864 15.25 11 15.25C11.6475 15.25 12.0582 15.4602 12.4496 15.7772C12.8789 16.1247 13.5085 16.0585 13.8561 15.6293C14.2037 15.2001 14.1375 14.5704 13.7083 14.2228C13.048 13.6882 12.2066 13.25 11 13.25C9.21986 13.25 8.25267 14.2091 7.54822 14.9076L7.54084 14.9149C6.83238 15.6174 6.42331 16 5.6 16C4.74783 16 4.1333 15.5645 3.68725 14.8606C3.22277 14.1276 3 13.1738 3 12.4167C3 10.4336 3.75313 9.15752 5.02279 8.3262C6.36187 7.44942 8.38343 7 11 7C14.6982 7 17.1303 7.8904 18.2379 9.55417C18.544 10.0139 19.1648 10.1385 19.6245 9.8324C20.0842 9.52634 20.2088 8.90555 19.9027 8.44583C18.2085 5.90092 14.8505 5 11 5ZM14.8922 8.48115C12.4518 7.73545 9.54825 7.73545 7.10778 8.48115C6.5796 8.64254 6.28226 9.20154 6.44365 9.72972C6.60504 10.2579 7.16404 10.5552 7.69222 10.3939C9.75175 9.76455 12.2482 9.76455 14.3078 10.3939C14.836 10.5552 15.395 10.2579 15.5564 9.72972C15.7177 9.20154 15.4204 8.64254 14.8922 8.48115ZM19.8995 12.2714C19.7501 11.9121 19.2411 11.9121 19.0917 12.2714L18.401 13.9322C18.3384 14.0827 18.1973 14.1859 18.0349 14.2L16.4002 14.3421C16.0251 14.3747 15.8637 14.8345 16.1361 15.0945L17.3778 16.2794C17.4904 16.3869 17.5374 16.546 17.5013 16.6974L17.0808 18.4605C16.9905 18.839 17.4023 19.1382 17.7344 18.9353L19.2676 17.9988C19.4076 17.9133 19.5836 17.9133 19.7236 17.9988L21.2568 18.9353C21.5889 19.1382 22.0007 18.839 21.9104 18.4605L21.49 16.698C21.4538 16.5463 21.5011 16.3868 21.6141 16.2794L22.8601 15.0951C23.1333 14.8354 22.972 14.3747 22.5964 14.3421L20.9563 14.1999C20.7939 14.1859 20.6528 14.0826 20.5902 13.9321L19.8995 12.2714Z" fill="black"/>
</svg>
