<svg width="24" height="24" viewBox="0 0 24 24" fill="none" xmlns="http://www.w3.org/2000/svg">
<path fill-rule="evenodd" clip-rule="evenodd" d="M8.5 5.5C8.5 7.433 10.067 9 12 9C13.933 9 15.5 7.433 15.5 5.5C15.5 3.567 13.933 2 12 2C10.067 2 8.5 3.567 8.5 5.5ZM12.0508 3.25C12.465 3.25 12.8008 3.58579 12.8008 4V5.25H13.0508C13.465 5.25 13.8008 5.58579 13.8008 6C13.8008 6.41421 13.465 6.75 13.0508 6.75H12.2174C11.7112 6.75 11.3008 6.33959 11.3008 5.83333V4C11.3008 3.58579 11.6366 3.25 12.0508 3.25ZM12 10C9.22781 10 6.76517 10.4225 4.96352 11.4949C3.08552 12.6127 2 14.3976 2 16.8333C2 17.8453 2.31043 19.0924 3.02217 20.1135C3.75732 21.1682 4.94308 22 6.6 22C8.2458 22 9.17032 21.1649 9.85574 20.5458L9.91449 20.4928C10.5836 19.8897 11.0502 19.5 12 19.5C12.9498 19.5 13.4164 19.8897 14.0855 20.4928L14.1443 20.5458C14.8297 21.1649 15.7542 22 17.4 22C19.0569 22 20.2427 21.1682 20.9778 20.1135C21.6896 19.0924 22 17.8453 22 16.8333C22 14.3976 20.9145 12.6127 19.0365 11.4949C17.2348 10.4225 14.7722 10 12 10ZM4 16.8333C4 15.1024 4.71448 13.9706 5.98648 13.2135C7.33483 12.4109 9.37219 12 12 12C14.6278 12 16.6652 12.4109 18.0135 13.2135C19.2855 13.9706 20 15.1024 20 16.8333C20 17.488 19.787 18.3243 19.3371 18.9698C18.9105 19.5818 18.2963 20 17.4 20C16.5401 20 16.1199 19.634 15.4246 19.0072C14.707 18.3603 13.7502 17.5 12 17.5C10.2498 17.5 9.29303 18.3603 8.5754 19.0072C7.88011 19.634 7.4599 20 6.6 20C5.70373 20 5.08949 19.5818 4.66293 18.9698C4.21297 18.3243 4 17.488 4 16.8333ZM8.13236 13.1615C7.60022 13.3093 7.28867 13.8605 7.43648 14.3926C7.5843 14.9248 8.13551 15.2363 8.66764 15.0885C10.7425 14.5122 13.2575 14.5122 15.3324 15.0885C15.8645 15.2363 16.4157 14.9248 16.5635 14.3926C16.7113 13.8605 16.3998 13.3093 15.8676 13.1615C13.4425 12.4878 10.5575 12.4878 8.13236 13.1615Z" fill="black"/>
</svg>
