<svg width="24" height="24" viewBox="0 0 24 24" fill="none" xmlns="http://www.w3.org/2000/svg">
<path d="M12 10V7M12 10C13.6569 10 15 11.3431 15 13C15 13.7456 14.728 14.4277 14.2778 14.9524M12 10C10.3431 10 9 11.3431 9 13C9 13.7456 9.272 14.4277 9.72219 14.9524M12 7C13.1046 7 14 6.10457 14 5C14 3.89543 13.1046 3 12 3C10.8954 3 10 3.89543 10 5C10 6.10457 10.8954 7 12 7ZM14.2778 14.9524L17.4815 17.6984M14.2778 14.9524C13.7276 15.5937 12.9113 16 12 16C11.0887 16 10.2724 15.5937 9.72219 14.9524M17.4815 17.6984C17.8483 17.2709 18.3925 17 19 17C20.1046 17 21 17.8954 21 19C21 20.1046 20.1046 21 19 21C17.8954 21 17 20.1046 17 19C17 18.5029 17.1813 18.0482 17.4815 17.6984ZM9.72219 14.9524L6.51854 17.6984M6.51854 17.6984C6.81867 18.0482 7 18.5029 7 19C7 20.1046 6.10457 21 5 21C3.89543 21 3 20.1046 3 19C3 17.8954 3.89543 17 5 17C5.6075 17 6.15174 17.2709 6.51854 17.6984Z" stroke="black" stroke-width="2" stroke-linecap="round" stroke-linejoin="round"/>
</svg>
