<svg width="24" height="24" viewBox="0 0 24 24" fill="none" xmlns="http://www.w3.org/2000/svg">
<path d="M12 18.5H12.0077M15.25 14.6716C14.4183 13.9477 13.2692 13.5 12 13.5C10.7308 13.5 9.58175 13.9477 8.75 14.6716M10.375 16.5858C10.7909 16.2239 11.3654 16 12 16C12.6346 16 13.2091 16.2239 13.625 16.5858M10 9H14C14.5523 9 15 8.55228 15 8V7C15 6.44772 14.5523 6 14 6H10C9.44772 6 9 6.44772 9 7V8C9 8.55228 9.44772 9 10 9ZM12 22V22C17.5228 22 22 17.5228 22 12V12C22 6.47715 17.5228 2 12 2V2C6.47715 2 2 6.47715 2 12V12C2 17.5228 6.47715 22 12 22Z" stroke="black" stroke-width="2" stroke-linecap="round" stroke-linejoin="round"/>
</svg>
