<svg width="24" height="24" viewBox="0 0 24 24" fill="none" xmlns="http://www.w3.org/2000/svg">
<path d="M20 14.0004C20 12.3436 16.4183 11.0004 12 11.0004C7.58172 11.0004 4 12.3436 4 14.0004M20 14.0004C20 15.6573 16.4183 17.0004 12 17.0004C7.58172 17.0004 4 15.6573 4 14.0004M20 14.0004V19.0004C20 20.6573 16.4183 22.0004 12 22.0004C7.58172 22.0004 4 20.6573 4 19.0004V14.0004M11 14.0004H13M16.7574 7H16.765M20 3.17157C19.1701 2.44772 18.0237 2 16.7574 2C15.491 2 14.3446 2.44772 13.5147 3.17157M15.136 5.08579C15.551 4.72386 16.1242 4.5 16.7574 4.5C17.3905 4.50001 17.9638 4.72386 18.3787 5.08579" stroke="black" stroke-width="2" stroke-linecap="round" stroke-linejoin="round"/>
</svg>
