<svg width="24" height="24" viewBox="0 0 24 24" fill="none" xmlns="http://www.w3.org/2000/svg">
<path d="M11.55 15H16.5492C19.0073 15 21 13.0873 21 10.7278C21 8.3683 19.0073 6.45557 16.5492 6.45557H16.3137C15.726 4.46127 13.8158 3 11.55 3C8.81619 3 6.6 5.12728 6.6 7.75141C6.6 7.89701 6.60682 8.04109 6.62018 8.18335H6.55078C4.58974 8.18335 3 9.70931 3 11.5917C3 13.474 4.58974 15 6.55078 15H11.55ZM11.55 15V18M11.55 18V18C12.3508 18 13 18.6492 13 19.45V19.5M11.55 18H11.5C10.6716 18 10 18.6716 10 19.5V19.5M6 19.5V19.5C6 18.6716 5.32843 18 4.5 18V18C3.67157 18 3 18.6716 3 19.5V19.5C3 20.3284 3.67157 21 4.5 21V21C5.32843 21 6 20.3284 6 19.5V19.5ZM6 19.5H10M10 19.5V19.5C10 20.3284 10.6716 21 11.5 21V21C12.3284 21 13 20.3284 13 19.5V19.5M13 19.5H18M18 19.5V19.5C18 20.3284 18.6716 21 19.5 21V21C20.3284 21 21 20.3284 21 19.5V19.5C21 18.6716 20.3284 18 19.5 18V18C18.6716 18 18 18.6716 18 19.5V19.5Z" stroke="black" stroke-width="2" stroke-linecap="round" stroke-linejoin="round"/>
</svg>
