<svg width="24" height="24" viewBox="0 0 24 24" fill="none" xmlns="http://www.w3.org/2000/svg">
<path d="M8.5 13L7.25 14.2929C6.86338 14.6834 6.86338 15.3166 7.25 15.7071L8.5 17M15.5 13L16.75 14.2929C17.1366 14.6834 17.1366 15.3166 16.75 15.7071L15.5 17M3 9V18C3 19.6569 4.34315 21 6 21H18C19.6569 21 21 19.6569 21 18V9M3 9V6C3 4.34315 4.34315 3 6 3H18C19.6569 3 21 4.34315 21 6V9M3 9H21M11 17.5L13 12.5M6 6H6.01M9 6H9.01M12 6H12.01" stroke="black" stroke-width="2" stroke-linecap="round" stroke-linejoin="round"/>
</svg>
