<svg width="24" height="24" viewBox="0 0 24 24" fill="none" xmlns="http://www.w3.org/2000/svg">
<path d="M7 7H5.5C4.94772 7 4.5 6.55228 4.5 6V4C4.5 3.44772 4.94772 3 5.5 3H18.5C19.0523 3 19.5 3.44772 19.5 4V6C19.5 6.55228 19.0523 7 18.5 7H17M7 7V8.5C7 10.1569 8.34315 11.5 10 11.5H12M7 7H17M17 7V8.5C17 10.1569 15.6569 11.5 14 11.5H12M12 11.5V10M9.5 18.4982C9.5 19.8799 10.6193 21 12 21C13.3807 21 14.5 19.8799 14.5 18.4982C14.5 17.2131 13.4127 15.2755 12.2522 14.1051C12.1133 13.965 11.8867 13.965 11.7478 14.1051C10.5873 15.2755 9.5 17.2131 9.5 18.4982ZM16 18.4982C16 19.8799 17.1193 21 18.5 21C19.8807 21 21 19.8799 21 18.4982C21 17.2131 19.9127 15.2755 18.7522 14.1051C18.6133 13.965 18.3867 13.965 18.2478 14.1051C17.0873 15.2755 16 17.2131 16 18.4982ZM3 18.4982C3 19.8799 4.11929 21 5.5 21C6.88071 21 8 19.8799 8 18.4982C8 17.2131 6.91273 15.2755 5.75221 14.1051C5.61329 13.965 5.38671 13.965 5.24778 14.1051C4.08727 15.2755 3 17.2131 3 18.4982Z" stroke="black" stroke-width="2" stroke-linecap="round" stroke-linejoin="round"/>
</svg>
