<svg width="24" height="24" viewBox="0 0 24 24" fill="none" xmlns="http://www.w3.org/2000/svg">
<path d="M12 22C9.23858 22 7 17.5228 7 12C7 6.47715 9.23858 2 12 2M12 22C14.7614 22 17 17.5228 17 12C17 6.47715 14.7614 2 12 2M12 22C8.29859 22 5.06687 19.989 3.33782 17M12 22C15.7014 22 18.9331 19.989 20.6622 17M12 2C8.29859 2 5.06687 4.01099 3.33782 7M12 2C15.7014 2 18.9331 4.01099 20.6622 7M3.33782 7C2.48697 8.47087 2 10.1786 2 12C2 13.8214 2.48697 15.5291 3.33782 17M3.33782 7H20.6622M20.6622 7C21.513 8.47087 22 10.1786 22 12C22 13.8214 21.513 15.5291 20.6622 17M3.33782 17H20.6622" stroke="black" stroke-width="2" stroke-linecap="round" stroke-linejoin="round"/>
</svg>
