<svg width="24" height="24" viewBox="0 0 24 24" fill="none" xmlns="http://www.w3.org/2000/svg">
<path d="M4 6.49993H20C21.1046 6.49993 22 7.39536 22 8.49993V14.4999C22 15.6045 21.1046 16.4999 20 16.4999H17.5M4 6.49993V16.4999M4 6.49993V5C4 4.44772 3.55228 4 3 4H2M4 16.4999V17.9999M4 16.4999H7.5M7.5 16.4999V17.9999C7.5 19.1045 8.39543 19.9999 9.5 19.9999H15.5C16.6046 19.9999 17.5 19.1045 17.5 17.9999V16.4999M7.5 16.4999H17.5M17 13.9999V13.9999C18.3807 13.9999 19.5 12.8806 19.5 11.4999V11.4999C19.5 10.1192 18.3807 8.99993 17 8.99993V8.99993C15.6193 8.99993 14.5 10.1192 14.5 11.4999V11.4999C14.5 12.8806 15.6193 13.9999 17 13.9999ZM9 13.9999V13.9999C10.3807 13.9999 11.5 12.8806 11.5 11.4999V11.4999C11.5 10.1192 10.3807 8.99993 9 8.99993V8.99993C7.61929 8.99993 6.5 10.1192 6.5 11.4999V11.4999C6.5 12.8806 7.61929 13.9999 9 13.9999Z" stroke="black" stroke-width="2" stroke-linecap="round" stroke-linejoin="round"/>
</svg>
