<svg width="24" height="24" viewBox="0 0 24 24" fill="none" xmlns="http://www.w3.org/2000/svg">
<path d="M5.25 10.0363V9.125C5.25 5.74226 8.07061 3 11.55 3H12.45C15.9294 3 18.75 5.74226 18.75 9.125V10.0363M5.25 10.0363C3.97303 10.2446 3 11.3243 3 12.625V14.375C3 15.6757 3.97303 16.7554 5.25 16.9637C5.39634 16.9876 5.54668 17 5.7 17H7.05C7.54706 17 7.95 16.6082 7.95 16.125V10.875C7.95 10.3918 7.54706 10 7.05 10H5.7C5.54668 10 5.39634 10.0124 5.25 10.0363ZM18.75 10.0363C20.027 10.2446 21 11.3243 21 12.625V14.375C21 15.6757 20.027 16.7554 18.75 16.9637C18.6037 16.9876 18.4533 17 18.3 17M18.75 10.0363C18.6037 10.0124 18.4533 10 18.3 10H16.95C16.4529 10 16.05 10.3918 16.05 10.875V16.125C16.05 16.6082 16.4529 17 16.95 17H18.3M18.3 17V17C18.3 18.933 16.733 20.5 14.8 20.5H13M13 20.5V20.5C13 20.2239 12.7761 20 12.5 20H11.5C11.2239 20 11 20.2239 11 20.5V20.5C11 20.7761 11.2239 21 11.5 21H12.5C12.7761 21 13 20.7761 13 20.5V20.5Z" stroke="black" stroke-width="2" stroke-linecap="round" stroke-linejoin="round"/>
</svg>
