<svg width="24" height="24" viewBox="0 0 24 24" fill="none" xmlns="http://www.w3.org/2000/svg">
<path d="M4.5 20V19.9585M4.5 19.9585V12.0415M4.5 19.9585C4.6626 19.9858 4.82964 20 5 20H6.5C7.05228 20 7.5 19.5523 7.5 19V13C7.5 12.4477 7.05228 12 6.5 12H5C4.82964 12 4.6626 12.0142 4.5 12.0415M4.5 19.9585C3.08114 19.7205 2 18.4865 2 17V15C2 13.5135 3.08114 12.2795 4.5 12.0415M4.5 12.0415V11C4.5 7.13401 7.63401 4 11.5 4H12.5C16.366 4 19.5 7.13401 19.5 11V12.0415M19.5 12.0415V19.9585M19.5 12.0415C20.9189 12.2795 22 13.5135 22 15V17C22 18.4865 20.9189 19.7205 19.5 19.9585M19.5 12.0415C19.3374 12.0142 19.1704 12 19 12H17.5C16.9477 12 16.5 12.4477 16.5 13V19C16.5 19.5523 16.9477 20 17.5 20H19C19.1704 20 19.3374 19.9858 19.5 19.9585M19.5 19.9585V20" stroke="black" stroke-width="2" stroke-linecap="round" stroke-linejoin="round"/>
</svg>
