<svg width="24" height="24" viewBox="0 0 24 24" fill="none" xmlns="http://www.w3.org/2000/svg">
<path d="M12 13.5C11.1716 13.5 10.5 12.8284 10.5 12M12 13.5C12.8284 13.5 13.5 12.8284 13.5 12M12 13.5H17.811M10.5 12C10.5 11.1716 11.1716 10.5 12 10.5M10.5 12V17.811M13.5 12C13.5 11.1716 12.8284 10.5 12 10.5M13.5 12V6.18903M12 10.5H6.18903M13.5 6.18903C13.0206 6.06563 12.5179 6 12 6C9.20424 6 6.85509 7.91216 6.18903 10.5M13.5 6.18903C16.0878 6.85509 18 9.20424 18 12C18 12.5179 17.9344 13.0206 17.811 13.5M17.811 13.5C17.1449 16.0878 14.7958 18 12 18C11.4821 18 10.9794 17.9344 10.5 17.811M10.5 17.811C7.91216 17.1449 6 14.7958 6 12C6 11.4821 6.06563 10.9794 6.18903 10.5M6 3H18C19.6569 3 21 4.34315 21 6V18C21 19.6569 19.6569 21 18 21H6C4.34315 21 3 19.6569 3 18V6C3 4.34315 4.34315 3 6 3Z" stroke="black" stroke-width="2" stroke-linecap="round" stroke-linejoin="round"/>
</svg>
