<svg width="24" height="24" viewBox="0 0 24 24" fill="none" xmlns="http://www.w3.org/2000/svg">
<path d="M12 11.3333C11.2636 11.3333 10.6667 10.7364 10.6667 10M12 11.3333C12.7364 11.3333 13.3333 10.7364 13.3333 10M12 11.3333H17.1653M10.6667 10C10.6667 9.26362 11.2636 8.66667 12 8.66667M10.6667 10V15.1653M13.3333 10C13.3333 9.26362 12.7364 8.66667 12 8.66667M13.3333 10V4.83469M12 8.66667H6.83469M13.3333 4.83469C12.9072 4.725 12.4604 4.66667 12 4.66667C9.51488 4.66667 7.42675 6.36636 6.83469 8.66667M13.3333 4.83469C15.6336 5.42675 17.3333 7.51488 17.3333 10C17.3333 10.4604 17.275 10.9072 17.1653 11.3333M17.1653 11.3333C16.5733 13.6336 14.4851 15.3333 12 15.3333C11.5396 15.3333 11.0928 15.275 10.6667 15.1653M10.6667 15.1653C8.36636 14.5733 6.66667 12.4851 6.66667 10C6.66667 9.5396 6.725 9.09283 6.83469 8.66667M8 18H6.66667C5.19391 18 4 16.8061 4 15.3333V4.66667C4 3.19391 5.19391 2 6.66667 2H17.3333C18.8061 2 20 3.19391 20 4.66667V15.3333C20 16.8061 18.8061 18 17.3333 18H16M8 18V20C8 21.1046 8.89543 22 10 22H14C15.1046 22 16 21.1046 16 20V18M8 18H16" stroke="black" stroke-width="2" stroke-linecap="round" stroke-linejoin="round"/>
</svg>
