<svg width="24" height="24" viewBox="0 0 24 24" fill="none" xmlns="http://www.w3.org/2000/svg">
<path d="M20.4546 17.3429C20.7877 17.618 21 18.0342 21 18.5C21 19.3284 20.3284 20 19.5 20C19.1107 20 18.7561 19.8517 18.4895 19.6086C18.1887 19.3342 18 18.9392 18 18.5C18 17.6716 18.6716 17 19.5 17C19.8626 17 20.1952 17.1287 20.4546 17.3429ZM20.4546 17.3429C21.4333 15.7973 22 13.9648 22 12C22 6.47715 17.5228 2 12 2M3.54545 6.65713C3.8048 6.87132 4.13737 7 4.5 7C5.32843 7 6 6.32843 6 5.5C6 5.06084 5.81127 4.66576 5.5105 4.39144C5.2439 4.14828 4.88927 4 4.5 4C3.67157 4 3 4.67157 3 5.5C3 5.9658 3.21231 6.38201 3.54545 6.65713ZM3.54545 6.65713C2.56665 8.20274 2 10.0352 2 12C2 17.5228 6.47715 22 12 22M11.4543 8.18724L8.34316 10.607C8.12664 10.7754 8 11.0343 8 11.3086V15.1111C8 15.602 8.39797 16 8.88889 16H15.1111C15.602 16 16 15.602 16 15.1111V11.3086C16 11.0343 15.8734 10.7754 15.6568 10.607L12.5457 8.18724C12.3865 8.06337 12.1956 8.00096 12.0044 8.00001C11.8103 7.99904 11.616 8.06145 11.4543 8.18724Z" stroke="black" stroke-width="2" stroke-linecap="round" stroke-linejoin="round"/>
</svg>
