<svg width="24" height="24" viewBox="0 0 24 24" fill="none" xmlns="http://www.w3.org/2000/svg">
<path d="M9.61907 9.61467L11.4543 8.18729C11.616 8.0615 11.8103 7.99909 12.0044 8.00006C12.1956 8.00101 12.3865 8.06342 12.5457 8.18729L14.3859 9.61856M9.61907 9.61467L8.34316 10.607C8.12664 10.7755 8 11.0344 8 11.3087V15.1112C8 15.3578 8.10041 15.5809 8.26257 15.7419M9.61907 9.61467L5.56451 5.56011M14.3859 9.61856L15.6568 10.607C15.8734 10.7755 16 11.0344 16 11.3087V15.1112C16 15.3555 15.9014 15.5768 15.7419 15.7375M14.3859 9.61856L18.4421 5.56235M15.7419 15.7375C15.5808 15.8997 15.3577 16.0001 15.1111 16.0001H8.88889C8.64455 16.0001 8.42324 15.9015 8.26257 15.7419M15.7419 15.7375L18.4421 18.4377M8.26257 15.7419L5.56456 18.4399M18.4421 5.56235C18.1691 5.29078 18 4.91508 18 4.5C18 3.67157 18.6738 3 19.5022 3C20.3306 3 21.0044 3.67157 21.0044 4.5C21.0044 5.32843 20.3306 6 19.5022 6C19.0888 6 18.714 5.83281 18.4421 5.56235ZM5.56456 18.4399C5.8362 18.7113 6.00439 19.0861 6.00439 19.5C6.00439 20.3284 5.33062 21 4.5022 21C3.67377 21 3 20.3284 3 19.5C3 18.6716 3.67377 18 4.5022 18C4.91672 18 5.29251 18.1681 5.56456 18.4399ZM18.4421 18.4377C18.1691 18.7093 18 19.0849 18 19.5C18 20.3284 18.6738 21 19.5022 21C20.3306 21 21.0044 20.3284 21.0044 19.5C21.0044 18.6716 20.3306 18 19.5022 18C19.0888 18 18.714 18.1672 18.4421 18.4377ZM5.56451 5.56011C5.29247 5.83188 4.91669 6 4.5022 6C3.67377 6 3 5.32843 3 4.5C3 3.67157 3.67377 3 4.5022 3C5.33062 3 6.00439 3.67157 6.00439 4.5C6.00439 4.91393 5.83618 5.28871 5.56451 5.56011Z" stroke="black" stroke-width="2" stroke-linecap="round" stroke-linejoin="round"/>
</svg>
