<svg width="24" height="24" viewBox="0 0 24 24" fill="none" xmlns="http://www.w3.org/2000/svg">
<path d="M3.00488 21V19M3.00488 21H5M3.00488 21L5.73577 18.2691M21 20.9961H19M21 20.9961V19M21 20.9961L18.2688 18.2649M21 3.00488V5M21 3.00488H19M21 3.00488L18.2689 5.73601M3.00391 3H5M3.00391 3V5M3.00391 3L5.73526 5.73135M11.4543 8.18724L9.61907 9.61462L8.34316 10.607C8.12664 10.7754 8 11.0343 8 11.3086V15.1111C8 15.3577 8.10041 15.5808 8.26257 15.7419C8.42324 15.9014 8.64455 16 8.88889 16H15.1111C15.3577 16 15.5808 15.8996 15.7419 15.7374C15.9014 15.5768 16 15.3555 16 15.1111V11.3086C16 11.0343 15.8734 10.7754 15.6568 10.607L14.3859 9.61851L12.5457 8.18724C12.3865 8.06337 12.1956 8.00096 12.0044 8.00001C11.8103 7.99904 11.616 8.06145 11.4543 8.18724Z" stroke="black" stroke-width="2" stroke-linecap="round" stroke-linejoin="round"/>
</svg>
