<svg width="24" height="24" viewBox="0 0 24 24" fill="none" xmlns="http://www.w3.org/2000/svg">
<path d="M12 7V6M12 7C12.5523 7 13.0524 7.22389 13.4143 7.58587M12 7C11.4477 7 10.9476 7.22389 10.5857 7.58587M12 11V12M12 11C11.4478 11 10.9478 10.7762 10.5859 10.4143M12 11C12.5522 11 13.0522 10.7762 13.4141 10.4143M10.5857 7.58587L9.87866 6.87891M10.5857 7.58587C10.2238 7.94779 10 8.44776 10 9M13.4141 10.4143L14.1213 11.1215M13.4141 10.4143C13.7761 10.0524 14 9.55233 14 9M14 9H15M14 9C14 8.44776 13.7762 7.94779 13.4143 7.58587M10 9H9M10 9C10 9.55233 10.2239 10.0524 10.5859 10.4143M13.4143 7.58587L14.1213 6.87891M10.5859 10.4143L9.8787 11.1215M9 22H15M5 9C5 5.13401 8.13401 2 12 2C15.866 2 19 5.13401 19 9C19 11.1774 18.0058 13.1226 16.4467 14.4065C15.8955 14.8603 15.5 15.5032 15.5 16.2171V17C15.5 18.1046 14.6046 19 13.5 19H10.5C9.39543 19 8.5 18.1046 8.5 17V16.2171C8.5 15.5032 8.10447 14.8603 7.55334 14.4065C5.99416 13.1226 5 11.1774 5 9Z" stroke="black" stroke-width="2" stroke-linecap="round" stroke-linejoin="round"/>
</svg>
