<svg width="24" height="24" viewBox="0 0 24 24" fill="none" xmlns="http://www.w3.org/2000/svg">
<path d="M5 12V8C5 4.68629 7.68629 2 11 2H12M5 12V14C5 18.4183 7.58172 22 12 22C16.4183 22 19 18.4183 19 14V12M5 12L10.7597 11.155C11.1715 11.1036 11.5857 11.0778 12 11.0778M19 12V8C19 4.68629 16.3137 2 13 2H12M19 12L13.2403 11.155C12.8285 11.1036 12.4143 11.0778 12 11.0778M12 4C11.1716 4 10.5 4.67157 10.5 5.5V7.5C10.5 8.32843 11.1716 9 12 9M12 4C12.8284 4 13.5 4.67157 13.5 5.5V7.5C13.5 8.32843 12.8284 9 12 9M12 4V2M12 9V11.0778" stroke="black" stroke-width="2" stroke-linecap="round" stroke-linejoin="round"/>
</svg>
