<svg width="24" height="24" viewBox="0 0 24 24" fill="none" xmlns="http://www.w3.org/2000/svg">
<path d="M7 12V12C7 14.7614 9.23858 17 12 17V17M7 12V12C7 9.23858 9.23858 7 12 7V7M7 12H17M17 12V12C17 9.23858 14.7614 7 12 7V7M17 12V12C17 14.7614 14.7614 17 12 17V17M12 7C9.5 10 9.5 14 12 17M12 7C14.5 10 14.5 14 12 17M4.22183 7.0503L4.55934 7.38782C4.88204 7.71051 4.93912 8.20816 4.74618 8.62173C4.64914 8.82974 4.56079 9.04261 4.48159 9.25988C4.32531 9.68856 3.93311 10 3.47682 10H3C2.44772 10 2 10.4477 2 11V13C2 13.5523 2.44772 14 3 14H3.47683C3.93311 14 4.32531 14.3114 4.48159 14.7401C4.5608 14.9574 4.64916 15.1703 4.74621 15.3783C4.93915 15.7919 4.88207 16.2895 4.55937 16.6122L4.22183 16.9498C3.8313 17.3403 3.8313 17.9735 4.22183 18.364L5.63604 19.7782C6.02656 20.1687 6.65973 20.1687 7.05025 19.7782L7.38782 19.4407C7.71051 19.118 8.20816 19.0609 8.62173 19.2538C8.82974 19.3509 9.04261 19.4392 9.25988 19.5184C9.68856 19.6747 10 20.0669 10 20.5232V21C10 21.5523 10.4477 22 11 22H13C13.5523 22 14 21.5523 14 21V20.5232C14 20.0669 14.3114 19.6747 14.7401 19.5184C14.9574 19.4392 15.1703 19.3509 15.3783 19.2538C15.7918 19.0609 16.2895 19.118 16.6122 19.4407L16.9497 19.7782C17.3403 20.1687 17.9734 20.1687 18.364 19.7782L19.7782 18.364C20.1687 17.9735 20.1687 17.3403 19.7782 16.9498L19.4406 16.6122C19.1179 16.2895 19.0609 15.7919 19.2538 15.3783C19.3508 15.1703 19.4392 14.9574 19.5184 14.7401C19.6747 14.3114 20.0669 14 20.5232 14H21C21.5523 14 22 13.5523 22 13V11C22 10.4477 21.5523 10 21 10H20.5232C20.0669 10 19.6747 9.68856 19.5184 9.25988C19.4392 9.04261 19.3509 8.82974 19.2538 8.62173C19.0609 8.20816 19.118 7.71051 19.4407 7.38782L19.7782 7.0503C20.1687 6.65977 20.1687 6.02661 19.7782 5.63608L18.364 4.22187C17.9734 3.83135 17.3403 3.83135 16.9497 4.22187L16.6122 4.55937C16.2895 4.88207 15.7919 4.93915 15.3783 4.74621C15.1703 4.64916 14.9574 4.5608 14.7401 4.48159C14.3114 4.32531 14 3.93311 14 3.47683V3C14 2.44772 13.5523 2 13 2H11C10.4477 2 10 2.44772 10 3V3.47683C10 3.93311 9.68856 4.32531 9.25988 4.48159C9.04259 4.5608 8.8297 4.64916 8.62168 4.74621C8.20811 4.93915 7.71045 4.88207 7.38775 4.55937L7.05025 4.22187C6.65973 3.83135 6.02656 3.83135 5.63604 4.22187L4.22183 5.63608C3.8313 6.02661 3.8313 6.65977 4.22183 7.0503Z" stroke="black" stroke-width="2" stroke-linecap="round" stroke-linejoin="round"/>
</svg>
