<svg width="24" height="24" viewBox="0 0 24 24" fill="none" xmlns="http://www.w3.org/2000/svg">
<path d="M15.5378 8.46671L18.4421 5.56235M15.5378 8.46671C16.4413 9.37136 17 10.6204 17 12C17 13.2404 16.5483 14.3752 15.8005 15.2491M15.5378 8.46671C14.6328 7.56057 13.3819 7 12 7C10.6204 7 9.37131 7.55874 8.46666 8.46227M18.4421 5.56235C18.1691 5.29078 18 4.91508 18 4.5C18 3.67157 18.6738 3 19.5022 3C20.3306 3 21.0044 3.67157 21.0044 4.5C21.0044 5.32843 20.3306 6 19.5022 6C19.0888 6 18.714 5.83281 18.4421 5.56235ZM8.46671 15.5378C8.37393 15.4451 8.28478 15.3488 8.19947 15.2491M8.46671 15.5378C9.37136 16.4413 10.6204 17 12 17C13.3818 17 14.6327 16.4394 15.5377 15.5333M8.46671 15.5378L5.56456 18.4399M5.56456 18.4399C5.8362 18.7113 6.00439 19.0861 6.00439 19.5C6.00439 20.3284 5.33062 21 4.5022 21C3.67377 21 3 20.3284 3 19.5C3 18.6716 3.67377 18 4.5022 18C4.91672 18 5.29251 18.1681 5.56456 18.4399ZM15.5377 15.5333C15.6289 15.442 15.7166 15.3472 15.8005 15.2491M15.5377 15.5333L18.4421 18.4377M18.4421 18.4377C18.1691 18.7093 18 19.0849 18 19.5C18 20.3284 18.6738 21 19.5022 21C20.3306 21 21.0044 20.3284 21.0044 19.5C21.0044 18.6716 20.3306 18 19.5022 18C19.0888 18 18.714 18.1672 18.4421 18.4377ZM8.46666 8.46227L5.56451 5.56011M8.46666 8.46227C7.56055 9.36726 7 10.6182 7 12C7 13.2404 7.45165 14.3752 8.19947 15.2491M5.56451 5.56011C5.29247 5.83188 4.91669 6 4.5022 6C3.67377 6 3 5.32843 3 4.5C3 3.67157 3.67377 3 4.5022 3C5.33062 3 6.00439 3.67157 6.00439 4.5C6.00439 4.91393 5.83618 5.28871 5.56451 5.56011ZM8.19947 15.2491C8.72463 13.6526 10.2277 12.5 12 12.5C13.7723 12.5 15.2754 13.6526 15.8005 15.2491M12 12.5V12.5C12.8284 12.5 13.5 11.8284 13.5 11V11C13.5 10.1716 12.8284 9.5 12 9.5V9.5C11.1716 9.5 10.5 10.1716 10.5 11V11C10.5 11.8284 11.1716 12.5 12 12.5Z" stroke="black" stroke-width="2" stroke-linecap="round" stroke-linejoin="round"/>
</svg>
