<svg width="24" height="24" viewBox="0 0 24 24" fill="none" xmlns="http://www.w3.org/2000/svg">
<path d="M9.5 11.5H14.5M18 9.5V11.2602C18 11.7376 17.8292 12.1992 17.5185 12.5617L15.5986 14.8016C15.2187 15.2449 14.664 15.5 14.0801 15.5H9.91987C9.33602 15.5 8.78132 15.2449 8.40136 14.8016L6.48149 12.5617C6.17078 12.1992 6 11.7376 6 11.2602V9.5C6 8.94772 6.44772 8.5 7 8.5H17C17.5523 8.5 18 8.94772 18 9.5ZM6 21H18C19.6569 21 21 19.6569 21 18V6C21 4.34315 19.6569 3 18 3H6C4.34315 3 3 4.34315 3 6V18C3 19.6569 4.34315 21 6 21Z" stroke="black" stroke-width="2" stroke-linecap="round" stroke-linejoin="round"/>
</svg>
