<svg width="24" height="24" viewBox="0 0 24 24" fill="none" xmlns="http://www.w3.org/2000/svg">
<path d="M12 14.5H10.5C9.94772 14.5 9.5 14.0523 9.5 13.5V10.5C9.5 9.94772 9.94772 9.5 10.5 9.5H13.5C14.0523 9.5 14.5 9.94772 14.5 10.5V13.5C14.5 14.0523 14.0523 14.5 13.5 14.5H12ZM12 14.5L13.4063 16.6094C13.7772 17.1658 14.4017 17.5 15.0704 17.5H16.5C17.0523 17.5 17.5 17.0523 17.5 16.5V7.5C17.5 6.94771 17.0523 6.5 16.5 6.5H7.5C6.94771 6.5 6.5 6.94772 6.5 7.5V16.5C6.5 17.0523 6.94772 17.5 7.5 17.5H8.92963C9.59834 17.5 10.2228 17.1658 10.5937 16.6094L12 14.5ZM21 6V18C21 19.6569 19.6569 21 18 21H6C4.34315 21 3 19.6569 3 18V6C3 4.34315 4.34315 3 6 3H18C19.6569 3 21 4.34315 21 6Z" stroke="black" stroke-width="2" stroke-linecap="round" stroke-linejoin="round"/>
</svg>
