<svg width="24" height="24" viewBox="0 0 24 24" fill="none" xmlns="http://www.w3.org/2000/svg">
<path fill-rule="evenodd" clip-rule="evenodd" d="M4 6.5C4 5.11929 5.11929 4 6.5 4H8C8.55228 4 9 3.55228 9 3C9 2.44772 8.55228 2 8 2H6.5C4.01472 2 2 4.01472 2 6.5V7C2 7.55228 2.44772 8 3 8C3.55228 8 4 7.55228 4 7V6.5ZM16 2C15.4477 2 15 2.44772 15 3C15 3.55228 15.4477 4 16 4H17.5C18.8807 4 20 5.11929 20 6.5V7C20 7.55228 20.4477 8 21 8C21.5523 8 22 7.55228 22 7V6.5C22 4.01472 19.9853 2 17.5 2H16ZM7.05054 11.8641C7.8411 10.7776 9.52889 9 12 9C14.4711 9 16.1589 10.7776 16.9495 11.8641C16.9904 11.9203 17 11.9669 17 12.0001C17 12.0333 16.9903 12.0799 16.9495 12.1361C16.1589 13.2225 14.4711 15 12 15C9.52889 15 7.84111 13.2225 7.05054 12.1361C7.00965 12.0799 7 12.0333 7 12.0001C7 11.9669 7.00965 11.9203 7.05054 11.8641ZM12 7C8.52864 7 6.32026 9.46846 5.43334 10.6874C4.85554 11.4815 4.85555 12.5188 5.43337 13.3128C6.32032 14.5317 8.52869 17 12 17C15.4713 17 17.6797 14.5317 18.5666 13.3128C19.1444 12.5188 19.1445 11.4815 18.5667 10.6874C17.6797 9.46846 15.4714 7 12 7ZM4 17C4 16.4477 3.55228 16 3 16C2.44772 16 2 16.4477 2 17V17.5C2 19.9853 4.01472 22 6.5 22H8C8.55228 22 9 21.5523 9 21C9 20.4477 8.55228 20 8 20H6.5C5.11929 20 4 18.8807 4 17.5V17ZM22 17C22 16.4477 21.5523 16 21 16C20.4477 16 20 16.4477 20 17V17.5C20 18.8807 18.8807 20 17.5 20H16C15.4477 20 15 20.4477 15 21C15 21.5523 15.4477 22 16 22H17.5C19.9853 22 22 19.9853 22 17.5V17ZM10.8126 12C10.6299 12 10.4568 11.962 10.3022 11.8941C10.2122 11.8546 10.1001 11.9045 10.1001 12C10.1001 12.9665 10.9508 13.75 12.0001 13.75C13.0494 13.75 13.9001 12.9665 13.9001 12C13.9001 11.0335 13.0494 10.25 12.0001 10.25C11.8998 10.25 11.8484 10.3624 11.892 10.4497C11.9614 10.5887 12.0001 10.7433 12.0001 10.9062C12.0001 11.5103 11.4684 12 10.8126 12Z" fill="black"/>
</svg>
