<svg width="24" height="24" viewBox="0 0 24 24" fill="none" xmlns="http://www.w3.org/2000/svg">
<path d="M8.4 16.8007C6.94266 15.706 6 13.9632 6 12.0002C6 10.0373 6.94266 8.29445 8.4 7.1998M15.6 16.8007C17.0573 15.706 18 13.9632 18 12.0002C18 10.0373 17.0573 8.29445 15.6 7.1998M18 3.99951C20.4289 5.82392 22 8.72861 22 12.0002C22 15.2719 20.4289 18.1766 18 20.001M6 3.99951C3.57111 5.82392 2 8.72861 2 12.0002C2 15.2719 3.57111 18.1766 6 20.001M12 14.0002C11.5498 14.0002 11.1343 13.8515 10.8 13.6004C10.3142 13.2355 10 12.6546 10 12.0002C10 11.3459 10.3142 10.765 10.8 10.4001C11.1343 10.149 11.5498 10.0002 12 10.0002C12.4502 10.0002 12.8657 10.149 13.2 10.4001C13.6858 10.765 14 11.3459 14 12.0002C14 12.6546 13.6858 13.2355 13.2 13.6004C12.8657 13.8515 12.4502 14.0002 12 14.0002Z" stroke="black" stroke-width="2" stroke-linecap="round" stroke-linejoin="round"/>
</svg>
