<svg width="24" height="24" viewBox="0 0 24 24" fill="none" xmlns="http://www.w3.org/2000/svg">
<path d="M18 3.99951C20.4289 5.82392 22 8.72861 22 12.0002C22 15.2719 20.4289 18.1766 18 20.001M6 20.001C3.57111 18.1766 2 15.2719 2 12.0002C2 8.72871 3.57124 5.82394 6 3.99951M12 14.5H12.0076M15.2426 10.6716C14.4127 9.94772 13.2663 9.5 12 9.5C10.7336 9.5 9.58719 9.94772 8.75732 10.6716M7.80008 17.6006C6.09981 16.3235 5 14.2902 5 12C5 9.7099 6.09974 7.67665 7.79991 6.39955M16.1999 17.6006C17.9002 16.3235 19 14.2902 19 12C19 9.70989 17.9003 7.67664 16.2001 6.39954M10.3786 12.5858C10.7936 12.2239 11.3668 12 12 12C12.6331 12 13.2064 12.2239 13.6213 12.5858" stroke="black" stroke-width="2" stroke-linecap="round" stroke-linejoin="round"/>
</svg>
