<svg width="24" height="24" viewBox="0 0 24 24" fill="none" xmlns="http://www.w3.org/2000/svg">
<path d="M10 10H10.0077M13 5.96949C12.1949 5.36532 11.1465 5 10 5C8.85352 5 7.80509 5.36532 7 5.96949M11.5 7.98475C11.0975 7.68267 10.5732 7.50001 10 7.5C9.42676 7.5 8.90254 7.68266 8.5 7.98475M16 13H10C8.89543 13 8 13.8954 8 15V15C8 16.1046 8.89543 17 10 17H16M16 13H18C19.1046 13 20 13.8954 20 15V15C20 16.1046 19.1046 17 18 17H16M16 13V5C16 3.34315 14.6569 2 13 2H7C5.34315 2 4 3.34315 4 5V19C4 20.6569 5.34315 22 7 22H13C14.6569 22 16 20.6569 16 19V17" stroke="black" stroke-width="2" stroke-linecap="round" stroke-linejoin="round"/>
</svg>
