<svg width="24" height="24" viewBox="0 0 24 24" fill="none" xmlns="http://www.w3.org/2000/svg">
<path d="M9.5 15.5404C10.2764 15.8373 11.1192 16 12 16C12.8808 16 13.7236 15.8373 14.5 15.5404M9.5 15.5404C6.86863 14.5339 5 11.9852 5 9C5 5.13401 8.13401 2 12 2C15.866 2 19 5.13401 19 9C19 11.9852 17.1314 14.5339 14.5 15.5404M9.5 15.5404V19M9.5 19H8.5C7.39543 19 6.5 19.8954 6.5 21V21C6.5 21.5523 6.94772 22 7.5 22H16.5C17.0523 22 17.5 21.5523 17.5 21V21C17.5 19.8954 16.6046 19 15.5 19H14.5M9.5 19H14.5M14.5 19V15.5404M12 12C10.3431 12 9 10.6569 9 9C9 7.34315 10.3431 6 12 6C13.6569 6 15 7.34315 15 9C15 10.6569 13.6569 12 12 12Z" stroke="black" stroke-width="2" stroke-linecap="round" stroke-linejoin="round"/>
</svg>
