<svg width="24" height="24" viewBox="0 0 24 24" fill="none" xmlns="http://www.w3.org/2000/svg">
<path d="M18.7573 9H18.7649M21.9999 5.17157C21.1701 4.44772 20.0236 4 18.7573 4C17.491 4 16.3445 4.44772 15.5146 5.17157M17.136 7.08579C17.5509 6.72386 18.1241 6.5 18.7573 6.5C19.3904 6.50001 19.9637 6.72387 20.3786 7.08579M17.75 17.5V17.5C18.5784 17.5 19.25 16.8284 19.25 16V16C19.25 15.1716 18.5784 14.5 17.75 14.5V14.5C16.9216 14.5 16.25 15.1716 16.25 16V16C16.25 16.8284 16.9216 17.5 17.75 17.5ZM6.25 17V17C7.07843 17 7.75 16.3284 7.75 15.5V15.5C7.75 14.6716 7.07843 14 6.25 14V14C5.42157 14 4.75 14.6716 4.75 15.5V15.5C4.75 16.3284 5.42157 17 6.25 17ZM6.25 10.0858V10.0858C7.07843 10.0858 7.75 9.41421 7.75 8.58579V8.58579C7.75 7.75736 7.07843 7.08579 6.25 7.08579V7.08579C5.42157 7.08579 4.75 7.75736 4.75 8.58579V8.58579C4.75 9.41421 5.42157 10.0858 6.25 10.0858ZM13.5 18V14C13.5 12.8954 14.3954 12 15.5 12H19.9999C21.1045 12 21.9999 12.8954 21.9999 14V18C21.9999 19.1046 21.1045 20 19.9999 20H15.5C14.3954 20 13.5 19.1046 13.5 18ZM4 20H8.5C9.60457 20 10.5 19.1046 10.5 18V6C10.5 4.89543 9.60457 4 8.5 4L4 4C2.89543 4 2 4.89543 2 6V18C2 19.1046 2.89543 20 4 20Z" stroke="black" stroke-width="2" stroke-linecap="round" stroke-linejoin="round"/>
</svg>
