<svg width="24" height="24" viewBox="0 0 24 24" fill="none" xmlns="http://www.w3.org/2000/svg">
<path d="M12 17H12.01M14.1213 14.8787C13.5784 14.3358 12.8284 14 12 14C11.1716 14 10.4216 14.3358 9.87868 14.8787M16.2426 12.7574C15.1569 11.6716 13.6569 11 12 11C10.3431 11 8.84315 11.6716 7.75736 12.7574M10.7721 3.42127L3.77212 8.86572C3.28494 9.24463 3 9.82724 3 10.4444V19C3 20.1046 3.89543 21 5 21H19C20.1046 21 21 20.1046 21 19V10.4444C21 9.82724 20.7151 9.24463 20.2279 8.86572L13.2279 3.42127C12.8695 3.14257 12.44 3.00214 12.01 3C11.5733 2.99782 11.136 3.13825 10.7721 3.42127Z" stroke="black" stroke-width="2" stroke-linecap="round" stroke-linejoin="round"/>
</svg>
