<svg width="24" height="24" viewBox="0 0 24 24" fill="none" xmlns="http://www.w3.org/2000/svg">
<path d="M11.8571 6.5L7.14286 6.5M16.7573 7H16.7649M19.9999 3.17157C19.1701 2.44772 18.0236 2 16.7573 2C15.491 2 14.3445 2.44772 13.5146 3.17157M15.136 5.08579C15.5509 4.72386 16.1241 4.5 16.7573 4.5C17.3904 4.50001 17.9637 4.72387 18.3786 5.08579M9.5 22C6.46243 22 4 19.6495 4 16.75C4 15.1878 4.71482 13.7849 5.84929 12.8232C6.36493 12.3861 6.75 11.7827 6.75 11.1067C6.75 10.0813 7.58125 9.25 8.60666 9.25H10.3933C11.4187 9.25 12.25 10.0813 12.25 11.1067C12.25 11.7827 12.6351 12.3861 13.1507 12.8232C14.2852 13.7849 15 15.1878 15 16.75C15 19.6495 12.5376 22 9.5 22Z" stroke="black" stroke-width="2" stroke-linecap="round" stroke-linejoin="round"/>
</svg>
