<svg width="24" height="24" viewBox="0 0 24 24" fill="none" xmlns="http://www.w3.org/2000/svg">
<path d="M16.7573 7H16.7649M19.9999 3.17157C19.1701 2.44772 18.0236 2 16.7573 2C15.491 2 14.3445 2.44772 13.5146 3.17157M15.136 5.08579C15.5509 4.72386 16.1241 4.5 16.7573 4.5C17.3904 4.50001 17.9637 4.72387 18.3786 5.08579M10 3V12M10 12H9C7.89543 12 7 12.8954 7 14V15M10 12H11C12.1046 12 13 12.8954 13 14V15M7 15H13M7 15V15C5.34315 15 4 16.3431 4 18V18.5C4 18.7761 4.22386 19 4.5 19H8M13 15V15C14.6569 15 16 16.3431 16 18V18.5C16 18.7761 15.7761 19 15.5 19H12M8 19V20C8 21.1046 8.89543 22 10 22V22C11.1046 22 12 21.1046 12 20V19M8 19H12" stroke="black" stroke-width="2" stroke-linecap="round" stroke-linejoin="round"/>
</svg>
