<svg width="24" height="24" viewBox="0 0 24 24" fill="none" xmlns="http://www.w3.org/2000/svg">
<path d="M12 15H12.01M14.125 12.8787C13.5812 12.3358 12.8299 12 12 12C11.1701 12 10.4188 12.3358 9.875 12.8787M16.25 10.7574C15.1623 9.67157 13.6597 9 12 9C10.3403 9 8.83767 9.67157 7.75 10.7574M7 21H17C19.2091 21 21 19.2091 21 17V7C21 4.79086 19.2091 3 17 3H7C4.79086 3 3 4.79086 3 7V17C3 19.2091 4.79086 21 7 21Z" stroke="black" stroke-width="2" stroke-linecap="round" stroke-linejoin="round"/>
</svg>
