<svg width="24" height="24" viewBox="0 0 24 24" fill="none" xmlns="http://www.w3.org/2000/svg">
<path d="M7 12H10.125M7 12C7 13.3819 7.56057 14.6328 8.46671 15.5378M7 12C7 10.6182 7.56055 9.36726 8.46666 8.46227M10.125 12H13.875M10.125 12C10.125 10.25 10.75 8.5 12 7M10.125 12C10.125 13.75 10.75 15.5 12 17M13.875 12H17M13.875 12C13.875 10.25 13.25 8.5 12 7M13.875 12C13.875 13.75 13.25 15.5 12 17M17 12C17 13.3796 16.4413 14.6287 15.5377 15.5333M17 12C17 10.6204 16.4413 9.37136 15.5378 8.46671M12 7C13.3819 7 14.6328 7.56057 15.5378 8.46671M12 7C10.6204 7 9.37131 7.55874 8.46666 8.46227M12 17C10.6204 17 9.37136 16.4413 8.46671 15.5378M12 17C13.3818 17 14.6327 16.4394 15.5377 15.5333M15.5378 8.46671L18.4421 5.56235M18.4421 5.56235C18.1691 5.29078 18 4.91508 18 4.5C18 3.67157 18.6738 3 19.5022 3C20.3306 3 21.0044 3.67157 21.0044 4.5C21.0044 5.32843 20.3306 6 19.5022 6C19.0888 6 18.714 5.83281 18.4421 5.56235ZM8.46671 15.5378L5.56456 18.4399M5.56456 18.4399C5.8362 18.7113 6.00439 19.0861 6.00439 19.5C6.00439 20.3284 5.33062 21 4.5022 21C3.67377 21 3 20.3284 3 19.5C3 18.6716 3.67377 18 4.5022 18C4.91672 18 5.29251 18.1681 5.56456 18.4399ZM15.5377 15.5333L18.4421 18.4377M18.4421 18.4377C18.1691 18.7093 18 19.0849 18 19.5C18 20.3284 18.6738 21 19.5022 21C20.3306 21 21.0044 20.3284 21.0044 19.5C21.0044 18.6716 20.3306 18 19.5022 18C19.0888 18 18.714 18.1672 18.4421 18.4377ZM8.46666 8.46227L5.56451 5.56011M5.56451 5.56011C5.29247 5.83188 4.91669 6 4.5022 6C3.67377 6 3 5.32843 3 4.5C3 3.67157 3.67377 3 4.5022 3C5.33062 3 6.00439 3.67157 6.00439 4.5C6.00439 4.91393 5.83618 5.28871 5.56451 5.56011Z" stroke="black" stroke-width="2" stroke-linecap="round" stroke-linejoin="round"/>
</svg>
