<svg width="24" height="24" viewBox="0 0 24 24" fill="none" xmlns="http://www.w3.org/2000/svg">
<path fill-rule="evenodd" clip-rule="evenodd" d="M12 1C10.3617 1 8.80454 1.35879 7.40501 2.00304C3.62645 3.74242 1 7.56345 1 12C1 14.4755 1.81941 16.7621 3.20046 18.6006C5.20556 21.2698 8.4006 23 12 23C12.1841 23 12.3672 22.9955 12.5492 22.9865C13.1008 22.9594 13.526 22.4902 13.4988 21.9385C13.4793 21.543 13.2326 21.2125 12.8912 21.0672L12.6347 19.0157C12.5831 18.6028 12.725 18.1892 13.0193 17.8949C13.2072 17.7071 13.4448 17.5803 13.7013 17.5276C14.2423 17.4164 14.5907 16.8877 14.4795 16.3467C14.3683 15.8058 13.8397 15.4574 13.2987 15.5685C12.6619 15.6994 12.0717 16.0141 11.6051 16.4807C10.8744 17.2114 10.522 18.2384 10.6502 19.2637L10.8583 20.9283C8.59767 20.6422 6.59857 19.5175 5.18128 17.8735L5.86656 16.5029C6.28313 15.6698 6.5 14.7511 6.5 13.8197V13.1378C6.5 12.6148 6.84665 12.1553 7.34946 12.0116L7.62375 11.9332C9.05728 11.5237 9.93623 10.0821 9.64384 8.62019C9.59575 8.37974 9.65236 8.13019 9.79948 7.93402L10.0197 7.64041C10.745 6.67331 10.7646 5.349 10.0682 4.36088L9.38147 3.38658C10.2093 3.13529 11.0882 3 12 3C13.3297 3 14.5898 3.28773 15.7236 3.80375L15.8007 4.56961C15.9055 5.61085 15.598 6.65169 14.9443 7.46887L15.7251 8.09356L14.9443 7.46887L14.8135 7.6323C14.2869 8.29058 14 9.1085 14 9.95151C14 11.6407 15.4805 12.9477 17.1567 12.7382L17.4977 12.6956C18.8004 12.5327 19.9868 11.8641 20.8007 10.834L20.9069 10.6996C20.9682 11.1239 21 11.5581 21 12C21 12.6177 20.9379 13.22 20.82 13.8011C20.7101 14.3423 21.0598 14.8701 21.601 14.98C22.1423 15.0899 22.6701 14.7402 22.78 14.1989C22.9244 13.4876 23 12.7521 23 12C23 10.6474 22.7554 9.34957 22.3071 8.14996C21.3585 5.61138 19.5006 3.51909 17.13 2.26722C15.5973 1.45782 13.8506 1 12 1ZM4.07771 15.6085L3.90905 15.9458C3.32677 14.7547 3 13.4163 3 12C3 8.66702 4.81178 5.75544 7.50755 4.19945L8.4334 5.51307C8.63032 5.79248 8.62479 6.16695 8.41969 6.44041L8.19948 6.73402C7.71095 7.3854 7.523 8.21402 7.68268 9.01242C7.77074 9.4527 7.50603 9.88683 7.07431 10.0102L6.80002 10.0885C5.43861 10.4775 4.5 11.7219 4.5 13.1378V13.8197C4.5 14.4406 4.35542 15.0531 4.07771 15.6085ZM16.506 8.71826C17.3264 7.69281 17.7832 6.43255 17.8186 5.13358C18.8429 6.00249 19.6702 7.09629 20.224 8.33791L19.2315 9.59406C18.7431 10.2121 18.0313 10.6133 17.2497 10.711L16.9086 10.7536C16.4262 10.8139 16 10.4377 16 9.95151C16 9.56264 16.1323 9.18535 16.3753 8.88169L15.5944 8.25699L16.3753 8.88169L16.506 8.71826ZM16.3125 17.1875C16.3125 15.9794 17.2919 15 18.5 15C19.7081 15 20.6875 15.9794 20.6875 17.1875V17.625H21.125C21.6082 17.625 22 18.0168 22 18.5V21.125C22 21.6082 21.6082 22 21.125 22H15.875C15.3918 22 15 21.6082 15 21.125V18.5C15 18.0168 15.3918 17.625 15.875 17.625H16.3125V17.1875ZM18.9375 17.1875V17.625H18.0625V17.1875C18.0625 16.9459 18.2584 16.75 18.5 16.75C18.7416 16.75 18.9375 16.9459 18.9375 17.1875ZM18.5 20.4688C18.8624 20.4688 19.1562 20.1749 19.1562 19.8125C19.1562 19.4501 18.8624 19.1562 18.5 19.1562C18.1376 19.1562 17.8438 19.4501 17.8438 19.8125C17.8438 20.1749 18.1376 20.4688 18.5 20.4688Z" fill="black"/>
</svg>
