<svg width="24" height="24" viewBox="0 0 24 24" fill="none" xmlns="http://www.w3.org/2000/svg">
<path d="M6.99995 12.0004H10.1249M6.99995 12.0004C6.99995 13.3823 7.56052 14.6332 8.46666 15.5382C9.37131 16.4417 10.6204 17.0004 11.9999 17.0004M6.99995 12.0004C6.99995 10.6186 7.5605 9.3677 8.46661 8.46271C9.37126 7.55917 10.6204 7.00044 11.9999 7.00044M10.1249 12.0004H13.8749M10.1249 12.0004C10.1249 10.2504 10.7499 8.50044 11.9999 7.00044M10.1249 12.0004C10.1249 13.7504 10.7499 15.5004 11.9999 17.0004M13.8749 12.0004H16.9999M13.8749 12.0004C13.8749 10.2504 13.2499 8.50044 11.9999 7.00044M13.8749 12.0004C13.8749 13.7504 13.2499 15.5004 11.9999 17.0004M16.9999 12.0004C16.9999 13.38 16.4412 14.6291 15.5377 15.5338C14.6327 16.4399 13.3818 17.0004 11.9999 17.0004M16.9999 12.0004C16.9999 10.6209 16.4412 9.37179 15.5377 8.46715C14.6327 7.56101 13.3818 7.00044 11.9999 7.00044M21 3.00488V5M21 3.00488H19M21 3.00488L18.2689 5.73601M3.00488 21V19M3.00488 21H5M3.00488 21L5.73577 18.2691M21 20.9961H19M21 20.9961V19M21 20.9961L18.2688 18.2649M3.00391 3H5M3.00391 3V5M3.00391 3L5.73526 5.73135" stroke="black" stroke-width="2" stroke-linecap="round" stroke-linejoin="round"/>
</svg>
