<svg width="24" height="24" viewBox="0 0 24 24" fill="none" xmlns="http://www.w3.org/2000/svg">
<path fill-rule="evenodd" clip-rule="evenodd" d="M4 4C2.34315 4 1 5.34315 1 7V16C1 17.6569 2.34315 19 4 19H8.17157C8.43679 19 8.69114 19.1054 8.87868 19.2929L10.5858 21C11.3668 21.781 12.6332 21.781 13.4142 21L15.1213 19.2929C15.3089 19.1054 15.5632 19 15.8284 19H20C21.6569 19 23 17.6569 23 16V7C23 5.34315 21.6569 4 20 4H4ZM3 7C3 6.44772 3.44772 6 4 6H20C20.5523 6 21 6.44772 21 7V16C21 16.5523 20.5523 17 20 17H15.8284C15.0328 17 14.2697 17.3161 13.7071 17.8787L12 19.5858L10.2929 17.8787C9.73028 17.3161 8.96722 17 8.17157 17H4C3.44772 17 3 16.5523 3 16V7ZM10.7055 12.2913C10.3141 11.9017 9.68098 11.9031 9.29133 12.2945C8.90167 12.6859 8.90307 13.319 9.29446 13.7087C10.0247 14.4356 11.0528 14.7467 12 14.7467C12.9472 14.7467 13.9753 14.4356 14.7055 13.7087C15.0969 13.319 15.0983 12.6859 14.7087 12.2945C14.319 11.9031 13.6859 11.9017 13.2945 12.2913C13.0247 12.5599 12.5528 12.7467 12 12.7467C11.4472 12.7467 10.9753 12.5599 10.7055 12.2913ZM10 11C10.5523 11 11 10.5523 11 10C11 9.44772 10.5523 9 10 9C9.44771 9 9 9.44772 9 10C9 10.5523 9.44771 11 10 11ZM14 11C14.5523 11 15 10.5523 15 10C15 9.44772 14.5523 9 14 9C13.4477 9 13 9.44772 13 10C13 10.5523 13.4477 11 14 11Z" fill="black"/>
</svg>
