<svg width="24" height="24" viewBox="0 0 24 24" fill="none" xmlns="http://www.w3.org/2000/svg">
<path fill-rule="evenodd" clip-rule="evenodd" d="M4 4C2.34315 4 1 5.34315 1 7V16C1 17.6569 2.34315 19 4 19H8.17157C8.43679 19 8.69114 19.1054 8.87868 19.2929L10.5858 21C11.3668 21.781 12.6332 21.781 13.4142 21L15.1213 19.2929C15.3089 19.1054 15.5632 19 15.8284 19H20C21.6569 19 23 17.6569 23 16V7C23 5.34315 21.6569 4 20 4H4ZM3 7C3 6.44772 3.44772 6 4 6H20C20.5523 6 21 6.44772 21 7V16C21 16.5523 20.5523 17 20 17H15.8284C15.0328 17 14.2697 17.3161 13.7071 17.8787L12 19.5858L10.2929 17.8787C9.73028 17.3161 8.96722 17 8.17157 17H4C3.44772 17 3 16.5523 3 16V7ZM10.8651 9.50166C11.14 9.02758 11.7528 8.86177 12.2337 9.13817C12.712 9.41309 12.8725 10.018 12.599 10.4895C12.4616 10.7265 12.2417 10.886 11.9919 10.9527C11.4583 11.095 11.1411 11.643 11.2835 12.1766C11.4258 12.7102 11.9738 13.0274 12.5074 12.8851C13.2465 12.6879 13.9143 12.2081 14.3292 11.4928C15.1603 10.0596 14.6653 8.22897 13.2304 7.40421C11.7981 6.58093 9.96457 7.06772 9.13494 8.49833C8.85788 8.9761 9.02057 9.588 9.49833 9.86506C9.9761 10.1421 10.588 9.97943 10.8651 9.50166ZM12 16C12.5523 16 13 15.5523 13 15C13 14.4477 12.5523 14 12 14C11.4477 14 11 14.4477 11 15C11 15.5523 11.4477 16 12 16Z" fill="black"/>
</svg>
