<svg width="24" height="24" viewBox="0 0 24 24" fill="none" xmlns="http://www.w3.org/2000/svg">
<path d="M10 12L11.5 13.5L15 10M8.17157 18H4C2.89543 18 2 17.1046 2 16V7C2 5.89543 2.89543 5 4 5H20C21.1046 5 22 5.89543 22 7V16C22 17.1046 21.1046 18 20 18H15.8284C15.298 18 14.7893 18.2107 14.4142 18.5858L12.7071 20.2929C12.3166 20.6834 11.6834 20.6834 11.2929 20.2929L9.58579 18.5858C9.21071 18.2107 8.70201 18 8.17157 18Z" stroke="black" stroke-width="2" stroke-linecap="round" stroke-linejoin="round"/>
</svg>
