<svg width="24" height="24" viewBox="0 0 24 24" fill="none" xmlns="http://www.w3.org/2000/svg">
<path fill-rule="evenodd" clip-rule="evenodd" d="M4 4C2.34315 4 1 5.34315 1 7V16C1 17.6569 2.34315 19 4 19H8.17157C8.43679 19 8.69114 19.1054 8.87868 19.2929L10.5858 21C11.3668 21.781 12.6332 21.781 13.4142 21L15.1213 19.2929C15.3089 19.1054 15.5632 19 15.8284 19H20C21.6569 19 23 17.6569 23 16V7C23 5.34315 21.6569 4 20 4H4ZM3 7C3 6.44772 3.44772 6 4 6H20C20.5523 6 21 6.44772 21 7V16C21 16.5523 20.5523 17 20 17H15.8284C15.0328 17 14.2697 17.3161 13.7071 17.8787L12 19.5858L10.2929 17.8787C9.73028 17.3161 8.96722 17 8.17157 17H4C3.44772 17 3 16.5523 3 16V7ZM13 8.5C13 7.94772 12.5523 7.5 12 7.5C11.4477 7.5 11 7.94772 11 8.5V11.5C11 12.0523 11.4477 12.5 12 12.5C12.5523 12.5 13 12.0523 13 11.5V8.5ZM12 15.5C12.5523 15.5 13 15.0523 13 14.5C13 13.9477 12.5523 13.5 12 13.5C11.4477 13.5 11 13.9477 11 14.5C11 15.0523 11.4477 15.5 12 15.5Z" fill="black"/>
</svg>
