<svg width="24" height="24" viewBox="0 0 24 24" fill="none" xmlns="http://www.w3.org/2000/svg">
<path fill-rule="evenodd" clip-rule="evenodd" d="M4 4C2.34315 4 1 5.34315 1 7V16C1 17.6569 2.34315 19 4 19H8.17157C8.43679 19 8.69114 19.1054 8.87868 19.2929L10.5858 21C11.3668 21.781 12.6332 21.781 13.4142 21L15.1213 19.2929C15.3089 19.1054 15.5632 19 15.8284 19H20C21.6569 19 23 17.6569 23 16V7C23 5.34315 21.6569 4 20 4H4ZM3 7C3 6.44772 3.44772 6 4 6H20C20.5523 6 21 6.44772 21 7V16C21 16.5523 20.5523 17 20 17H15.8284C15.0328 17 14.2697 17.3161 13.7071 17.8787L12 19.5858L10.2929 17.8787C9.73028 17.3161 8.96722 17 8.17157 17H4C3.44772 17 3 16.5523 3 16V7ZM9 12C9 12.5523 8.55228 13 8 13C7.44772 13 7 12.5523 7 12C7 11.4477 7.44772 11 8 11C8.55228 11 9 11.4477 9 12ZM13 12C13 12.5523 12.5523 13 12 13C11.4477 13 11 12.5523 11 12C11 11.4477 11.4477 11 12 11C12.5523 11 13 11.4477 13 12ZM16 13C16.5523 13 17 12.5523 17 12C17 11.4477 16.5523 11 16 11C15.4477 11 15 11.4477 15 12C15 12.5523 15.4477 13 16 13Z" fill="black"/>
</svg>
