<svg width="24" height="24" viewBox="0 0 24 24" fill="none" xmlns="http://www.w3.org/2000/svg">
<path fill-rule="evenodd" clip-rule="evenodd" d="M6 4C3.79086 4 2 5.79086 2 8V16C2 18.2091 3.79086 20 6 20H13C13.5523 20 14 19.5523 14 19C14 18.4477 13.5523 18 13 18H6C4.89543 18 4 17.1046 4 16V8C4 6.89543 4.89543 6 6 6H18C19.1046 6 20 6.89543 20 8V11C20 11.5523 20.4477 12 21 12C21.5523 12 22 11.5523 22 11V8C22 5.79086 20.2091 4 18 4H6ZM6.44721 7.10557C5.95324 6.85858 5.35256 7.05881 5.10557 7.55279C4.85858 8.04676 5.05881 8.64744 5.55279 8.89443L9.76393 11C11.1716 11.7038 12.8284 11.7038 14.2361 11L18.4472 8.89443C18.9412 8.64744 19.1414 8.04676 18.8944 7.55279C18.6474 7.05881 18.0468 6.85858 17.5528 7.10557L13.3416 9.21115C12.4971 9.63344 11.5029 9.63344 10.6584 9.21115L6.44721 7.10557ZM18.344 13.2311C18.2158 12.923 17.7794 12.923 17.6512 13.2311L17.0589 14.6552C17.0052 14.7842 16.8843 14.8727 16.745 14.8848L15.3432 15.0067C15.0215 15.0347 14.8831 15.429 15.1167 15.6519L16.1815 16.668C16.2781 16.7601 16.3184 16.8966 16.2874 17.0264L15.9268 18.5382C15.8494 18.8628 16.2025 19.1194 16.4873 18.9454L17.8021 18.1424C17.9221 18.0691 18.0731 18.0691 18.1932 18.1424L19.5079 18.9454C19.7927 19.1194 20.1458 18.8628 20.0684 18.5382L19.7079 17.0269C19.6769 16.8968 19.7174 16.7601 19.8143 16.6679L20.8828 15.6524C21.1171 15.4297 20.9788 15.0346 20.6567 15.0067L19.2503 14.8848C19.111 14.8727 18.99 14.7842 18.9363 14.6551L18.344 13.2311Z" fill="black"/>
</svg>
