<svg width="24" height="24" viewBox="0 0 24 24" fill="none" xmlns="http://www.w3.org/2000/svg">
<path fill-rule="evenodd" clip-rule="evenodd" d="M6 4C3.79086 4 2 5.79086 2 8V16C2 18.2091 3.79086 20 6 20H13C13.5523 20 14 19.5523 14 19C14 18.4477 13.5523 18 13 18H6C4.89543 18 4 17.1046 4 16V8C4 6.89543 4.89543 6 6 6H18C19.1046 6 20 6.89543 20 8V11C20 11.5523 20.4477 12 21 12C21.5523 12 22 11.5523 22 11V8C22 5.79086 20.2091 4 18 4H6ZM6.44721 7.10557C5.95324 6.85858 5.35256 7.05881 5.10557 7.55279C4.85858 8.04676 5.05881 8.64744 5.55279 8.89443L9.76393 11C11.1716 11.7038 12.8284 11.7038 14.2361 11L18.4472 8.89443C18.9412 8.64744 19.1414 8.04676 18.8944 7.55279C18.6474 7.05881 18.0468 6.85858 17.5528 7.10557L13.3416 9.21115C12.4971 9.63344 11.5029 9.63344 10.6584 9.21115L6.44721 7.10557ZM14.9351 16.6372L14.9351 16.6372L14.935 16.6372C14.8286 16.5345 14.7754 16.4831 14.737 16.4357C14.421 16.045 14.421 15.455 14.737 15.0643C14.7754 15.0169 14.8286 14.9655 14.935 14.8628C15.27 14.5395 15.4374 14.3779 15.5963 14.2542C16.8874 13.2486 18.6126 13.2486 19.9037 14.2542C20.0626 14.3779 20.23 14.5395 20.565 14.8628L20.565 14.8628C20.6714 14.9655 20.7246 15.0169 20.763 15.0643C21.079 15.455 21.079 16.045 20.763 16.4357C20.7246 16.4831 20.6714 16.5345 20.5649 16.6372C20.23 16.9605 20.0626 17.1221 19.9037 17.2458C18.6126 18.2514 16.8874 18.2514 15.5963 17.2458C15.4374 17.1221 15.27 16.9605 14.9351 16.6372ZM18.6835 15.75C18.6835 16.3187 18.2656 16.7798 17.75 16.7798C17.2344 16.7798 16.8165 16.3187 16.8165 15.75C16.8165 15.1813 17.2344 14.7202 17.75 14.7202C18.2656 14.7202 18.6835 15.1813 18.6835 15.75Z" fill="black"/>
</svg>
