<svg width="24" height="24" viewBox="0 0 24 24" fill="none" xmlns="http://www.w3.org/2000/svg">
<path d="M6.44721 7.10557C5.95324 6.85858 5.35256 7.05881 5.10557 7.55279C4.85858 8.04676 5.05881 8.64744 5.55279 8.89443L6.44721 7.10557ZM18.4472 8.89443C18.9412 8.64744 19.1414 8.04676 18.8944 7.55279C18.6474 7.05881 18.0468 6.85858 17.5528 7.10557L18.4472 8.89443ZM20 11C20 11.5523 20.4477 12 21 12C21.5523 12 22 11.5523 22 11H20ZM13 20C13.5523 20 14 19.5523 14 19C14 18.4477 13.5523 18 13 18V20ZM17.9983 14.534L17.2384 15.184C17.4284 15.4061 17.706 15.534 17.9983 15.534C18.2906 15.534 18.5682 15.4061 18.7582 15.184L17.9983 14.534ZM17.9983 18.5L17.3403 19.253C17.7172 19.5823 18.2794 19.5823 18.6563 19.253L17.9983 18.5ZM6 6H18V4H6V6ZM4 16V8H2V16H4ZM6 18C4.89543 18 4 17.1046 4 16H2C2 18.2091 3.79086 20 6 20V18ZM18 6C19.1046 6 20 6.89543 20 8H22C22 5.79086 20.2091 4 18 4V6ZM6 4C3.79086 4 2 5.79086 2 8H4C4 6.89543 4.89543 6 6 6V4ZM10.6584 9.21115L6.44721 7.10557L5.55279 8.89443L9.76393 11L10.6584 9.21115ZM17.5528 7.10557L13.3416 9.21115L14.2361 11L18.4472 8.89443L17.5528 7.10557ZM9.76393 11C11.1716 11.7038 12.8284 11.7038 14.2361 11L13.3416 9.21115C12.4971 9.63344 11.5029 9.63344 10.6584 9.21115L9.76393 11ZM20 8V11H22V8H20ZM13 18H6V20H13V18ZM18.7582 13.8839C17.9641 12.9555 16.5068 12.6122 15.3891 13.5672L16.6883 15.0878C16.7844 15.0057 16.8658 14.9933 16.9368 15.0026C17.0213 15.0136 17.1361 15.0644 17.2384 15.184L18.7582 13.8839ZM15.3891 13.5672C14.3611 14.4456 14.2033 15.9444 15.0264 17.0037L16.6057 15.7765C16.4452 15.5701 16.4637 15.2796 16.6883 15.0878L15.3891 13.5672ZM20.9701 17.0037C21.7845 15.9558 21.6596 14.4416 20.5971 13.5585L19.3187 15.0965C19.5303 15.2724 19.5602 15.5587 19.3909 15.7765L20.9701 17.0037ZM20.5971 13.5585C19.4789 12.6291 18.04 12.9467 17.2384 13.8839L18.7582 15.184C18.861 15.0638 18.9729 15.0153 19.0543 15.0049C19.1235 14.996 19.2113 15.0073 19.3187 15.0965L20.5971 13.5585ZM15.0264 17.0037C15.332 17.3968 15.9423 17.9809 16.4121 18.416C16.6598 18.6455 16.8912 18.8541 17.0605 19.0053C17.1452 19.0809 17.2147 19.1424 17.2631 19.1852C17.2874 19.2066 17.3064 19.2233 17.3195 19.2348C17.3261 19.2406 17.3311 19.245 17.3346 19.2481C17.3364 19.2496 17.3377 19.2508 17.3387 19.2516C17.3392 19.252 17.3395 19.2524 17.3398 19.2526C17.3399 19.2527 17.34 19.2528 17.3401 19.2529C17.3402 19.2529 17.3402 19.253 17.3402 19.253C17.3403 19.253 17.3403 19.253 17.9983 18.5C18.6563 17.747 18.6563 17.747 18.6563 17.747C18.6563 17.747 18.6563 17.747 18.6563 17.747C18.6563 17.747 18.6562 17.7469 18.6562 17.7469C18.656 17.7468 18.6558 17.7465 18.6554 17.7462C18.6548 17.7457 18.6537 17.7447 18.6522 17.7434C18.6493 17.7409 18.6448 17.7369 18.6389 17.7317C18.6269 17.7212 18.6092 17.7056 18.5862 17.6854C18.5404 17.6449 18.4739 17.5861 18.3925 17.5134C18.2294 17.3678 18.0075 17.1676 17.7711 16.9487C17.2727 16.4871 16.792 16.0162 16.6057 15.7765L15.0264 17.0037ZM17.9983 18.5C18.6563 19.253 18.6563 19.253 18.6563 19.253C18.6564 19.253 18.6564 19.2529 18.6564 19.2529C18.6565 19.2528 18.6566 19.2527 18.6568 19.2526C18.657 19.2524 18.6574 19.252 18.6579 19.2516C18.6589 19.2508 18.6602 19.2496 18.662 19.2481C18.6654 19.245 18.6705 19.2406 18.6771 19.2348C18.6902 19.2233 18.7092 19.2066 18.7334 19.1852C18.7819 19.1424 18.8514 19.0809 18.9361 19.0053C19.1054 18.8541 19.3368 18.6455 19.5845 18.416C20.0543 17.9809 20.6646 17.3968 20.9701 17.0037L19.3909 15.7765C19.2046 16.0162 18.7239 16.4871 18.2255 16.9487C17.9891 17.1676 17.7672 17.3678 17.6041 17.5134C17.5227 17.5861 17.4562 17.6449 17.4103 17.6854C17.3874 17.7056 17.3696 17.7212 17.3577 17.7317C17.3518 17.7369 17.3473 17.7409 17.3444 17.7434C17.3429 17.7447 17.3418 17.7457 17.3411 17.7462C17.3408 17.7465 17.3406 17.7468 17.3404 17.7469C17.3403 17.7469 17.3403 17.747 17.3403 17.747C17.3403 17.747 17.3403 17.747 17.3403 17.747C17.3403 17.747 17.3403 17.747 17.9983 18.5Z" fill="black"/>
</svg>
