<svg width="24" height="24" viewBox="0 0 24 24" fill="none" xmlns="http://www.w3.org/2000/svg">
<path fill-rule="evenodd" clip-rule="evenodd" d="M6 4C3.79086 4 2 5.79086 2 8V16C2 18.2091 3.79086 20 6 20H13C13.5523 20 14 19.5523 14 19C14 18.4477 13.5523 18 13 18H6C4.89543 18 4 17.1046 4 16V8C4 6.89543 4.89543 6 6 6H18C19.1046 6 20 6.89543 20 8V11C20 11.5523 20.4477 12 21 12C21.5523 12 22 11.5523 22 11V8C22 5.79086 20.2091 4 18 4H6ZM6.44721 7.10557C5.95324 6.85858 5.35256 7.05881 5.10557 7.55279C4.85858 8.04676 5.05881 8.64744 5.55279 8.89443L9.76393 11C11.1716 11.7038 12.8284 11.7038 14.2361 11L18.4472 8.89443C18.9412 8.64744 19.1414 8.04676 18.8944 7.55279C18.6474 7.05881 18.0468 6.85858 17.5528 7.10557L13.3416 9.21115C12.4971 9.63344 11.5029 9.63344 10.6584 9.21115L6.44721 7.10557ZM16.3281 14.5469C16.3281 13.5545 17.1326 12.75 18.125 12.75C19.1174 12.75 19.9219 13.5545 19.9219 14.5469V14.9062H20.2812C20.6782 14.9062 21 15.228 21 15.625V17.7812C21 18.1782 20.6782 18.5 20.2812 18.5H15.9688C15.5718 18.5 15.25 18.1782 15.25 17.7812V15.625C15.25 15.228 15.5718 14.9062 15.9688 14.9062H16.3281V14.5469ZM18.4844 14.5469V14.9062H17.7656V14.5469C17.7656 14.3484 17.9265 14.1875 18.125 14.1875C18.3235 14.1875 18.4844 14.3484 18.4844 14.5469ZM18.125 17.2422C18.4227 17.2422 18.6641 17.0008 18.6641 16.7031C18.6641 16.4054 18.4227 16.1641 18.125 16.1641C17.8273 16.1641 17.5859 16.4054 17.5859 16.7031C17.5859 17.0008 17.8273 17.2422 18.125 17.2422Z" fill="black"/>
</svg>
