<svg width="24" height="24" viewBox="0 0 24 24" fill="none" xmlns="http://www.w3.org/2000/svg">
<path d="M6.44721 7.10557C5.95324 6.85858 5.35256 7.05881 5.10557 7.55279C4.85858 8.04676 5.05881 8.64744 5.55279 8.89443L6.44721 7.10557ZM18.4472 8.89443C18.9412 8.64744 19.1414 8.04676 18.8944 7.55279C18.6474 7.05881 18.0468 6.85858 17.5528 7.10557L18.4472 8.89443ZM20 11C20 11.5523 20.4477 12 21 12C21.5523 12 22 11.5523 22 11H20ZM13 20C13.5523 20 14 19.5523 14 19C14 18.4477 13.5523 18 13 18V20ZM15.2929 17.7929C14.9024 18.1834 14.9024 18.8166 15.2929 19.2071C15.6834 19.5976 16.3166 19.5976 16.7071 19.2071L15.2929 17.7929ZM6 6H18V4H6V6ZM4 16V8H2V16H4ZM6 18C4.89543 18 4 17.1046 4 16H2C2 18.2091 3.79086 20 6 20V18ZM18 6C19.1046 6 20 6.89543 20 8H22C22 5.79086 20.2091 4 18 4V6ZM6 4C3.79086 4 2 5.79086 2 8H4C4 6.89543 4.89543 6 6 6V4ZM10.6584 9.21115L6.44721 7.10557L5.55279 8.89443L9.76393 11L10.6584 9.21115ZM17.5528 7.10557L13.3416 9.21115L14.2361 11L18.4472 8.89443L17.5528 7.10557ZM9.76393 11C11.1716 11.7038 12.8284 11.7038 14.2361 11L13.3416 9.21115C12.4971 9.63344 11.5029 9.63344 10.6584 9.21115L9.76393 11ZM20 8V11H22V8H20ZM13 18H6V20H13V18ZM19.5 15.875C19.5 16.3582 19.1082 16.75 18.625 16.75V18.75C20.2128 18.75 21.5 17.4628 21.5 15.875H19.5ZM18.625 15C19.1082 15 19.5 15.3918 19.5 15.875H21.5C21.5 14.2872 20.2128 13 18.625 13V15ZM18.625 13C17.0372 13 15.75 14.2872 15.75 15.875H17.75C17.75 15.3918 18.1418 15 18.625 15V13ZM16.5921 16.4937L15.2929 17.7929L16.7071 19.2071L18.0063 17.9079L16.5921 16.4937ZM18.625 16.75C18.3831 16.75 18.1657 16.6532 18.0063 16.4937L16.5921 17.9079C17.1112 18.4271 17.8314 18.75 18.625 18.75V16.75ZM18.0063 16.4937C17.8468 16.3343 17.75 16.1169 17.75 15.875H15.75C15.75 16.6686 16.0729 17.3888 16.5921 17.9079L18.0063 16.4937Z" fill="black"/>
</svg>
