<svg width="24" height="24" viewBox="0 0 24 24" fill="none" xmlns="http://www.w3.org/2000/svg">
<path fill-rule="evenodd" clip-rule="evenodd" d="M6 4C3.79086 4 2 5.79086 2 8V16C2 18.2091 3.79086 20 6 20H13C13.5523 20 14 19.5523 14 19C14 18.4477 13.5523 18 13 18H6C4.89543 18 4 17.1046 4 16V8C4 6.89543 4.89543 6 6 6H18C19.1046 6 20 6.89543 20 8V11C20 11.5523 20.4477 12 21 12C21.5523 12 22 11.5523 22 11V8C22 5.79086 20.2091 4 18 4H6ZM6.44721 7.10557C5.95324 6.85858 5.35256 7.05881 5.10557 7.55279C4.85858 8.04676 5.05881 8.64744 5.55279 8.89443L9.76393 11C11.1716 11.7038 12.8284 11.7038 14.2361 11L18.4472 8.89443C18.9412 8.64744 19.1414 8.04676 18.8944 7.55279C18.6474 7.05881 18.0468 6.85858 17.5528 7.10557L13.3416 9.21115C12.4971 9.63344 11.5029 9.63344 10.6584 9.21115L6.44721 7.10557ZM18.3201 13.9351C18.3201 14.0626 18.4226 14.1652 18.6278 14.3703L19.6297 15.3722C19.8348 15.5774 19.9374 15.6799 20.0649 15.6799C20.1923 15.6799 20.2949 15.5774 20.5 15.3722L20.5809 15.2913C20.6306 15.2416 20.6555 15.2168 20.6755 15.1948C21.1082 14.7187 21.1082 13.9917 20.6755 13.5157C20.6555 13.4937 20.6305 13.4688 20.5809 13.4191L20.5807 13.419C20.5311 13.3693 20.5063 13.3445 20.4843 13.3245C20.0083 12.8918 19.2813 12.8918 18.8052 13.3245C18.7832 13.3445 18.7584 13.3694 18.7087 13.4191L18.6278 13.5C18.4226 13.7051 18.3201 13.8077 18.3201 13.9351ZM17.7575 14.4977C17.8849 14.4977 17.9875 14.6003 18.1926 14.8054L19.1946 15.8074C19.3997 16.0125 19.5023 16.1151 19.5023 16.2425C19.5023 16.37 19.3997 16.4725 19.1946 16.6777L18.3496 17.5227L18.3456 17.5266L18.3456 17.5266C18.2576 17.6137 18.2281 17.6429 18.1947 17.6663C18.1779 17.6781 18.16 17.6884 18.1332 17.704C18.0837 17.7327 18.0037 17.7791 17.843 17.885C17.4197 18.1642 16.9455 18.3538 15.9974 18.7331L15.8615 18.7874C15.3991 18.9724 15.1679 19.0649 15.0515 18.9485C14.9351 18.8321 15.0276 18.6009 15.2126 18.1385L15.2126 18.1385L15.2669 18.0026C15.6462 17.0544 15.8358 16.5803 16.115 16.157C16.2209 15.9963 16.2673 15.9163 16.296 15.8668L16.296 15.8668C16.3116 15.84 16.3219 15.8221 16.3337 15.8053C16.3571 15.7719 16.3863 15.7424 16.4734 15.6544L16.4734 15.6544L16.4773 15.6504L17.3223 14.8054L17.3223 14.8054C17.5275 14.6003 17.63 14.4977 17.7575 14.4977Z" fill="black"/>
</svg>
