<svg width="24" height="24" viewBox="0 0 24 24" fill="none" xmlns="http://www.w3.org/2000/svg">
<path d="M14 11.75L12.53 12.6688C12.2057 12.8714 11.7943 12.8714 11.47 12.6688L10 11.75M14 11.75L20.9422 7.41112M14 11.75L20.5647 17.5572M20.9422 7.41112C20.6686 6.03624 19.4553 5 18 5H6C4.5447 5 3.33143 6.03624 3.05778 7.41111M20.9422 7.41112C20.9801 7.60153 21 7.79845 21 8V16C21 16.5702 20.8409 17.1033 20.5647 17.5572M20.5647 17.5572C20.0383 18.4223 19.0866 19 18 19H6C4.91337 19 3.96167 18.4223 3.43531 17.5572M10 11.75L4 8L3.05778 7.41111M10 11.75L3.43531 17.5572M3.43531 17.5572C3.15909 17.1033 3 16.5702 3 16V8C3 7.79844 3.01988 7.60153 3.05778 7.41111" stroke="black" stroke-width="2" stroke-linecap="round" stroke-linejoin="round"/>
</svg>
