<svg width="24" height="24" viewBox="0 0 24 24" fill="none" xmlns="http://www.w3.org/2000/svg">
<path d="M22 11.4737C22 6.24151 17.7585 2 12.5263 2C7.29414 2 3.05263 6.24151 3.05263 11.4737C3.05263 12.737 3.29992 13.9426 3.74875 15.0447C3.95403 15.5488 4.00609 16.1093 3.83064 16.6245L2.65533 20.0757C2.38775 20.8614 3.1386 21.6122 3.92432 21.3447L7.37548 20.1694C7.89069 19.9939 8.45121 20.046 8.95528 20.2513C9.39351 20.4297 9.84811 20.5763 10.3162 20.6882M12.5 16.2895C12.5 18.3823 14.1966 20.0789 16.2895 20.0789C16.8401 20.0789 17.3633 19.9615 17.8354 19.7503C17.9596 19.6947 18.1 19.6827 18.2288 19.7266L20.0189 20.3362C20.2154 20.4031 20.4031 20.2154 20.3362 20.0189L19.7266 18.2288C19.6827 18.1 19.6947 17.9596 19.7503 17.8354C19.9615 17.3633 20.0789 16.8401 20.0789 16.2895C20.0789 14.1966 18.3823 12.5 16.2895 12.5C14.1966 12.5 12.5 14.1966 12.5 16.2895Z" stroke="black" stroke-width="2" stroke-linecap="round"/>
</svg>
