<svg width="24" height="24" viewBox="0 0 24 24" fill="none" xmlns="http://www.w3.org/2000/svg">
<path d="M10 15.9424H7.48063C7.17684 15.9424 6.88953 16.0799 6.69976 16.3161L3.89043 19.8122C3.59518 20.1796 3 19.9718 3 19.5012V4.99115C3 3.89147 3.89543 3 5 3H19C20.1046 3 21 3.89147 21 4.99115V10M14.5 13.5H19.5C20.3284 13.5 21 14.1657 21 14.9868V20.5036C21 20.8994 20.5549 21.1355 20.2227 20.9159L18.5038 19.7801C18.1753 19.5631 17.7893 19.4472 17.3944 19.4472H14.5C13.6716 19.4472 13 18.7815 13 17.9604V14.9868C13 14.1657 13.6716 13.5 14.5 13.5Z" stroke="black" stroke-width="2" stroke-linecap="round"/>
</svg>
