<svg width="24" height="24" viewBox="0 0 24 24" fill="none" xmlns="http://www.w3.org/2000/svg">
<path d="M19 3H5C3.89543 3 3 3.89147 3 4.99115V20.5012C3 20.9718 3.59518 21.1796 3.89043 20.8122L6.69976 17.3161C6.88953 17.0799 7.17684 16.9424 7.48063 16.9424H19C20.1046 16.9424 21 16.051 21 14.9513V4.99115C21 3.89147 20.1046 3 19 3Z" stroke="black" stroke-width="2"/>
<path d="M9 10.5C9 11.0523 8.55228 11.5 8 11.5C7.44772 11.5 7 11.0523 7 10.5C7 9.94772 7.44772 9.5 8 9.5C8.55228 9.5 9 9.94772 9 10.5Z" fill="black"/>
<path d="M13 10.5C13 11.0523 12.5523 11.5 12 11.5C11.4477 11.5 11 11.0523 11 10.5C11 9.94772 11.4477 9.5 12 9.5C12.5523 9.5 13 9.94772 13 10.5Z" fill="black"/>
<path d="M17 10.5C17 11.0523 16.5523 11.5 16 11.5C15.4477 11.5 15 11.0523 15 10.5C15 9.94772 15.4477 9.5 16 9.5C16.5523 9.5 17 9.94772 17 10.5Z" fill="black"/>
</svg>
