<svg width="24" height="24" viewBox="0 0 24 24" fill="none" xmlns="http://www.w3.org/2000/svg">
<path fill-rule="evenodd" clip-rule="evenodd" d="M12.5261 1C6.74169 1 2.05246 5.68923 2.05246 11.4737C2.05246 12.8686 2.32567 14.2021 2.82243 15.4219C2.9555 15.7486 2.96707 16.0578 2.88385 16.3022L1.70855 19.7533C1.17339 21.3247 2.67508 22.8264 4.24652 22.2913L7.69767 21.116C7.94206 21.0328 8.25118 21.0443 8.57793 21.1774C9.79772 21.6742 11.1313 21.9474 12.5261 21.9474C18.3106 21.9474 22.9998 17.2581 22.9998 11.4737C22.9998 5.68923 18.3106 1 12.5261 1ZM4.05246 11.4737C4.05246 6.7938 7.84626 3 12.5261 3C17.206 3 20.9998 6.7938 20.9998 11.4737C20.9998 16.1536 17.206 19.9474 12.5261 19.9474C11.3943 19.9474 10.3166 19.726 9.33227 19.3251C8.65087 19.0476 7.83898 18.9551 7.05293 19.2228L3.60177 20.3981L4.77708 16.9469C5.04477 16.1608 4.95222 15.349 4.67472 14.6676C4.27383 13.6832 4.05246 12.6055 4.05246 11.4737ZM13.5261 8.31579C13.5261 7.7635 13.0784 7.31579 12.5261 7.31579C11.9739 7.31579 11.5261 7.7635 11.5261 8.31579V11.4737C11.5261 12.026 11.9739 12.4737 12.5261 12.4737C13.0784 12.4737 13.5261 12.026 13.5261 11.4737V8.31579ZM12.5 15.5C13.0523 15.5 13.5 15.0523 13.5 14.5C13.5 13.9477 13.0523 13.5 12.5 13.5C11.9477 13.5 11.5 13.9477 11.5 14.5C11.5 15.0523 11.9477 15.5 12.5 15.5Z" fill="black"/>
</svg>
