<svg width="24" height="24" viewBox="0 0 24 24" fill="none" xmlns="http://www.w3.org/2000/svg">
<path fill-rule="evenodd" clip-rule="evenodd" d="M2.05246 11.4737C2.05246 5.68923 6.74169 1 12.5261 1C18.3106 1 22.9998 5.68923 22.9998 11.4737C22.9998 17.2581 18.3106 21.9474 12.5261 21.9474C11.1313 21.9474 9.79772 21.6742 8.57793 21.1774C8.25118 21.0443 7.94205 21.0328 7.69767 21.116L4.24652 22.2913C2.67508 22.8264 1.17339 21.3247 1.70855 19.7533L2.88385 16.3022C2.96707 16.0578 2.9555 15.7486 2.82243 15.4219C2.32567 14.2021 2.05246 12.8686 2.05246 11.4737ZM12.5261 3C7.84626 3 4.05246 6.7938 4.05246 11.4737C4.05246 12.6055 4.27383 13.6832 4.67472 14.6676C4.95222 15.349 5.04477 16.1608 4.77708 16.9469L3.60177 20.3981L7.05293 19.2228C7.83898 18.9551 8.65087 19.0476 9.33227 19.3251C10.3166 19.726 11.3943 19.9474 12.5261 19.9474C17.206 19.9474 20.9998 16.1536 20.9998 11.4737C20.9998 6.7938 17.206 3 12.5261 3ZM9.90007 12.7C10.3419 12.3686 10.9687 12.4582 11.3001 12.9C11.9001 13.7 13.1001 13.7 13.7001 12.9C14.0314 12.4582 14.6582 12.3686 15.1001 12.7C15.5419 13.0314 15.6314 13.6582 15.3001 14.1C13.9001 15.9667 11.1001 15.9667 9.70007 14.1C9.3687 13.6582 9.45824 13.0314 9.90007 12.7ZM15.5 9.5C15.5 10.0523 15.0523 10.5 14.5 10.5C13.9477 10.5 13.5 10.0523 13.5 9.5C13.5 8.94772 13.9477 8.5 14.5 8.5C15.0523 8.5 15.5 8.94772 15.5 9.5ZM10.5 10.5C11.0523 10.5 11.5 10.0523 11.5 9.5C11.5 8.94772 11.0523 8.5 10.5 8.5C9.94771 8.5 9.5 8.94772 9.5 9.5C9.5 10.0523 9.94771 10.5 10.5 10.5Z" fill="black"/>
</svg>
