<svg width="24" height="24" viewBox="0 0 24 24" fill="none" xmlns="http://www.w3.org/2000/svg">
<path fill-rule="evenodd" clip-rule="evenodd" d="M12.5266 1C6.74218 1 2.05295 5.68923 2.05295 11.4737C2.05295 12.8686 2.32616 14.2021 2.82292 15.4219C2.95598 15.7486 2.96756 16.0578 2.88434 16.3022L1.70903 19.7533C1.17388 21.3247 2.67557 22.8264 4.247 22.2913L7.69816 21.116C7.94254 21.0328 8.25167 21.0443 8.57842 21.1774C9.79821 21.6742 11.1318 21.9474 12.5266 21.9474C18.3111 21.9474 23.0003 17.2581 23.0003 11.4737C23.0003 5.68923 18.3111 1 12.5266 1ZM4.05295 11.4737C4.05295 6.7938 7.84674 3 12.5266 3C17.2065 3 21.0003 6.7938 21.0003 11.4737C21.0003 16.1536 17.2065 19.9474 12.5266 19.9474C11.3948 19.9474 10.3171 19.726 9.33276 19.3251C8.65136 19.0476 7.83947 18.9551 7.05342 19.2228L3.60226 20.3981L4.77756 16.9469C5.04526 16.1608 4.9527 15.349 4.6752 14.6676C4.27432 13.6832 4.05295 12.6055 4.05295 11.4737ZM9.50049 11.5C9.50049 12.0523 9.05277 12.5 8.50049 12.5C7.9482 12.5 7.50049 12.0523 7.50049 11.5C7.50049 10.9477 7.9482 10.5 8.50049 10.5C9.05277 10.5 9.50049 10.9477 9.50049 11.5ZM13.5005 11.5C13.5005 12.0523 13.0528 12.5 12.5005 12.5C11.9482 12.5 11.5005 12.0523 11.5005 11.5C11.5005 10.9477 11.9482 10.5 12.5005 10.5C13.0528 10.5 13.5005 10.9477 13.5005 11.5ZM16.5005 12.5C17.0528 12.5 17.5005 12.0523 17.5005 11.5C17.5005 10.9477 17.0528 10.5 16.5005 10.5C15.9482 10.5 15.5005 10.9477 15.5005 11.5C15.5005 12.0523 15.9482 12.5 16.5005 12.5Z" fill="black"/>
</svg>
