<svg width="24" height="24" viewBox="0 0 24 24" fill="none" xmlns="http://www.w3.org/2000/svg">
<path d="M3.89043 20.8121L4.67002 21.4384H4.67002L3.89043 20.8121ZM6.69976 17.3152L7.47935 17.9415L7.47935 17.9415L6.69976 17.3152ZM12 8.61171L11.2669 9.29181C11.4561 9.49579 11.7218 9.61171 12 9.61171C12.2782 9.61171 12.5439 9.49579 12.7331 9.29181L12 8.61171ZM12 13L11.3726 13.7787C11.7388 14.0738 12.2612 14.0738 12.6274 13.7787L12 13ZM5 4H19V2H5V4ZM20 4.99164V14.9498H22V4.99164H20ZM4 20.5011V4.99164H2V20.5011H4ZM19 15.9414H7.48063V17.9414H19V15.9414ZM4.67002 21.4384L7.47935 17.9415L5.92017 16.6889L3.11084 20.1859L4.67002 21.4384ZM7.48063 15.9414C6.87468 15.9414 6.30031 16.2157 5.92017 16.6889L7.47935 17.9415C7.47874 17.9422 7.479 17.9414 7.48063 17.9414V15.9414ZM2 20.5011C2 21.9254 3.78926 22.5348 4.67002 21.4384L3.11085 20.1859C3.4011 19.8246 4 20.0182 4 20.5011H2ZM20 14.9498C20 15.4935 19.5562 15.9414 19 15.9414V17.9414C20.6529 17.9414 22 16.606 22 14.9498H20ZM19 4C19.5562 4 20 4.44792 20 4.99164H22C22 3.33545 20.6529 2 19 2V4ZM5 2C3.3471 2 2 3.33545 2 4.99164H4C4 4.44792 4.44376 4 5 4V2ZM12.7331 7.93161C11.8315 6.95968 10.2484 6.63756 9.02962 7.59777L10.2673 9.1688C10.5515 8.94488 10.9689 8.97061 11.2669 9.29181L12.7331 7.93161ZM9.02962 7.59777C7.85211 8.52544 7.64764 10.1602 8.61667 11.3099L10.146 10.021C9.93465 9.77031 9.94179 9.42525 10.2673 9.1688L9.02962 7.59777ZM15.3833 11.3099C16.3425 10.1719 16.1754 8.52114 14.9598 7.58956L13.7433 9.177C14.0565 9.41709 14.0752 9.75862 13.854 10.021L15.3833 11.3099ZM14.9598 7.58956C13.7387 6.65376 12.1756 6.95202 11.2669 7.93161L12.7331 9.29181C13.024 8.97827 13.4355 8.94114 13.7433 9.177L14.9598 7.58956ZM8.61667 11.3099C8.97475 11.7348 9.69714 12.3729 10.2625 12.8558C10.5588 13.1088 10.8357 13.339 11.0382 13.5057C11.1396 13.5892 11.2227 13.657 11.2807 13.7042C11.3096 13.7278 11.3324 13.7462 11.348 13.7588C11.3558 13.7651 11.3618 13.77 11.3659 13.7733C11.368 13.775 11.3696 13.7763 11.3707 13.7772C11.3713 13.7776 11.3717 13.778 11.372 13.7783C11.3722 13.7784 11.3723 13.7785 11.3724 13.7786C11.3725 13.7786 11.3725 13.7786 11.3725 13.7787C11.3726 13.7787 11.3726 13.7787 12 13C12.6274 12.2213 12.6274 12.2213 12.6274 12.2213C12.6274 12.2213 12.6274 12.2213 12.6274 12.2213C12.6274 12.2213 12.6273 12.2212 12.6272 12.2212C12.627 12.221 12.6267 12.2208 12.6263 12.2204C12.6255 12.2198 12.6242 12.2187 12.6224 12.2173C12.6188 12.2144 12.6134 12.21 12.6062 12.2042C12.5918 12.1925 12.5703 12.1751 12.5427 12.1526C12.4874 12.1077 12.4074 12.0424 12.3094 11.9617C12.1132 11.8001 11.846 11.578 11.5614 11.3349C10.965 10.8256 10.3781 10.2964 10.146 10.021L8.61667 11.3099ZM12 13C12.6274 13.7787 12.6274 13.7787 12.6275 13.7787C12.6275 13.7786 12.6275 13.7786 12.6276 13.7786C12.6277 13.7785 12.6278 13.7784 12.628 13.7783C12.6283 13.778 12.6287 13.7776 12.6293 13.7772C12.6304 13.7763 12.632 13.775 12.6341 13.7733C12.6382 13.77 12.6442 13.7651 12.652 13.7588C12.6676 13.7462 12.6904 13.7278 12.7193 13.7042C12.7773 13.657 12.8604 13.5892 12.9618 13.5057C13.1643 13.339 13.4412 13.1088 13.7375 12.8558C14.3029 12.3729 15.0253 11.7348 15.3833 11.3099L13.854 10.021C13.6219 10.2964 13.035 10.8256 12.4386 11.3349C12.154 11.578 11.8868 11.8001 11.6906 11.9617C11.5926 12.0424 11.5126 12.1077 11.4573 12.1526C11.4297 12.1751 11.4082 12.1925 11.3938 12.2042C11.3866 12.21 11.3812 12.2144 11.3776 12.2173C11.3758 12.2187 11.3745 12.2198 11.3737 12.2204C11.3733 12.2208 11.373 12.221 11.3728 12.2212C11.3727 12.2212 11.3726 12.2213 11.3726 12.2213C11.3726 12.2213 11.3726 12.2213 11.3726 12.2213C11.3726 12.2213 11.3726 12.2213 12 13Z" fill="black"/>
</svg>
