<svg width="24" height="24" viewBox="0 0 24 24" fill="none" xmlns="http://www.w3.org/2000/svg">
<path fill-rule="evenodd" clip-rule="evenodd" d="M12.5261 1C6.74169 1 2.05246 5.68923 2.05246 11.4737C2.05246 12.8686 2.32567 14.2021 2.82243 15.4219C2.9555 15.7486 2.96707 16.0578 2.88385 16.3022L1.70855 19.7533C1.17339 21.3247 2.67508 22.8264 4.24652 22.2913L7.69767 21.116C7.94205 21.0328 8.25118 21.0443 8.57793 21.1774C9.79772 21.6742 11.1313 21.9474 12.5261 21.9474C18.3106 21.9474 22.9998 17.2581 22.9998 11.4737C22.9998 5.68923 18.3106 1 12.5261 1ZM4.05246 11.4737C4.05246 6.7938 7.84626 3 12.5261 3C17.206 3 20.9998 6.7938 20.9998 11.4737C20.9998 16.1536 17.206 19.9474 12.5261 19.9474C11.3943 19.9474 10.3166 19.726 9.33227 19.3251C8.65087 19.0476 7.83898 18.9551 7.05293 19.2228L3.60177 20.3981L4.77708 16.9469C5.04477 16.1608 4.95222 15.349 4.67472 14.6676C4.27383 13.6832 4.05246 12.6055 4.05246 11.4737ZM11.6082 9.51295C11.8904 9.01811 12.5042 8.85824 12.9798 9.13623C13.4628 9.41854 13.6375 10.0548 13.3513 10.5567C13.2097 10.8051 12.986 10.9676 12.738 11.0349C12.205 11.1795 11.8901 11.7288 12.0347 12.2618C12.1793 12.7948 12.7286 13.1097 13.2617 12.9651C14.0071 12.7629 14.6754 12.2722 15.0887 11.5474C15.9122 10.1032 15.4284 8.25089 13.9891 7.40959C12.5425 6.56396 10.6984 7.0709 9.87083 8.52222C9.59725 9.00199 9.7644 9.61269 10.2442 9.88627C10.7239 10.1599 11.3346 9.99271 11.6082 9.51295ZM12.5 16C13.0523 16 13.5 15.5523 13.5 15C13.5 14.4477 13.0523 14 12.5 14C11.9477 14 11.5 14.4477 11.5 15C11.5 15.5523 11.9477 16 12.5 16Z" fill="black"/>
</svg>
