<svg width="24" height="24" viewBox="0 0 24 24" fill="none" xmlns="http://www.w3.org/2000/svg">
<path d="M11 8.5C11 9.05228 10.5523 9.5 10 9.5C9.44772 9.5 9 9.05228 9 8.5C9 7.94772 9.44772 7.5 10 7.5C10.5523 7.5 11 7.94772 11 8.5Z" fill="black"/>
<path d="M15 8.5C15 9.05228 14.5523 9.5 14 9.5C13.4477 9.5 13 9.05228 13 8.5C13 7.94772 13.4477 7.5 14 7.5C14.5523 7.5 15 7.94772 15 8.5Z" fill="black"/>
<path d="M10 11.5C11 12.4956 13 12.4956 14 11.5M5 3H19C20.1046 3 21 3.89147 21 4.99115V14.9513C21 16.051 20.1046 16.9424 19 16.9424H7.48063C7.17684 16.9424 6.88953 17.0799 6.69976 17.3161L3.89043 20.8122C3.59518 21.1796 3 20.9718 3 20.5012V4.99115C3 3.89147 3.89543 3 5 3Z" stroke="black" stroke-width="2" stroke-linecap="round" stroke-linejoin="round"/>
</svg>
