<svg width="24" height="24" viewBox="0 0 24 24" fill="none" xmlns="http://www.w3.org/2000/svg">
<path d="M12.5263 11.4737V8.97368M12.5263 11.4737V13.9737M12.5263 11.4737H15.0263M12.5263 11.4737H10.0263M12.5263 20.9474C17.7585 20.9474 22 16.7059 22 11.4737C22 6.24151 17.7585 2 12.5263 2C7.29414 2 3.05263 6.24151 3.05263 11.4737C3.05263 12.737 3.29992 13.9426 3.74875 15.0447C3.95403 15.5488 4.00609 16.1093 3.83064 16.6245L2.65533 20.0757C2.38775 20.8614 3.1386 21.6122 3.92432 21.3447L7.37548 20.1694C7.89069 19.9939 8.4512 20.046 8.95527 20.2513C10.0574 20.7001 11.263 20.9474 12.5263 20.9474Z" stroke="black" stroke-width="2" stroke-linecap="round" stroke-linejoin="round"/>
</svg>
