<svg width="24" height="24" viewBox="0 0 24 24" fill="none" xmlns="http://www.w3.org/2000/svg">
<path d="M12 22V20.5M12 22C14.7614 22 17.2614 20.8807 19.0711 19.0711M12 22C9.23858 22 6.73858 20.8807 4.92893 19.0711M2 12C2 6.47715 6.47715 2 12 2M2 12H3.5M2 12C2 14.7614 3.11929 17.2614 4.92893 19.0711M22 12H20.5M22 12C22 9.23858 20.8807 6.73858 19.0711 4.92893M22 12C22 14.7614 20.8807 17.2614 19.0711 19.0711M12 2V3.5M12 2C14.7614 2 17.2614 3.11929 19.0711 4.92893M5 5L6 6M19.0711 4.92893L18 6M19.0711 19.0711L18 18M4.92893 19.0711L6 18M7.4924 15.8511L9.5273 11.103C9.83074 10.3949 10.3949 9.83074 11.103 9.5273L15.8511 7.4924C16.2659 7.3146 16.6854 7.73407 16.5076 8.14893L14.4727 12.897C14.1693 13.6051 13.6051 14.1693 12.897 14.4727L8.14893 16.5076C7.73407 16.6854 7.3146 16.2659 7.4924 15.8511Z" stroke="black" stroke-width="2" stroke-linecap="round" stroke-linejoin="round"/>
</svg>
