<svg width="24" height="24" viewBox="0 0 24 24" fill="none" xmlns="http://www.w3.org/2000/svg">
<path d="M12 2C6.47715 2 2 6.47715 2 12M12 2V3.5M12 2C14.7614 2 17.2614 3.11929 19.0711 4.92893M2 12H3.5M2 12C2 14.7614 3.11929 17.2614 4.92893 19.0711M12 22V20.5M12 22C14.7614 22 17.2614 20.8807 19.0711 19.0711M12 22C9.23858 22 6.73858 20.8807 4.92893 19.0711M22 12H20.5M22 12C22 9.23858 20.8807 6.73858 19.0711 4.92893M22 12C22 14.7614 20.8807 17.2614 19.0711 19.0711M6 6L5 5M19.0711 4.92893L18 6M19.0711 19.0711L18 18M4.92893 19.0711L6 18M11.737 8.0589C11.5006 8.8531 11.0977 9.90226 10.5 10.5C9.90226 11.0977 8.8531 11.5006 8.0589 11.737C7.84588 11.8004 7.84588 12.1996 8.0589 12.263C8.8531 12.4994 9.90226 12.9023 10.5 13.5C11.0977 14.0977 11.5006 15.1469 11.737 15.9411C11.8004 16.1541 12.1996 16.1541 12.263 15.9411C12.4994 15.1469 12.9023 14.0977 13.5 13.5C14.0977 12.9023 15.1469 12.4994 15.9411 12.263C16.1541 12.1996 16.1541 11.8004 15.9411 11.737C15.1469 11.5006 14.0977 11.0977 13.5 10.5C12.9023 9.90226 12.4994 8.8531 12.263 8.0589C12.1996 7.84588 11.8004 7.84588 11.737 8.0589Z" stroke="black" stroke-width="2" stroke-linecap="round" stroke-linejoin="round"/>
</svg>
