<svg width="24" height="24" viewBox="0 0 24 24" fill="none" xmlns="http://www.w3.org/2000/svg">
<path d="M13.8366 13.8366C13.5691 14.1041 13.251 14.321 12.897 14.4727L8.14893 16.5076C7.73407 16.6854 7.3146 16.2659 7.4924 15.8511L9.5273 11.103C9.67902 10.749 9.89593 10.4309 10.1634 10.1634M13.8366 13.8366C14.1041 13.5691 14.321 13.251 14.4727 12.897L16.5076 8.14893C16.6854 7.73407 16.2659 7.3146 15.8511 7.4924L11.103 9.5273C10.749 9.67902 10.4309 9.89593 10.1634 10.1634M13.8366 13.8366L10.1634 10.1634M12 22C6.47715 22 2 17.5228 2 12C2 6.47715 6.47715 2 12 2C17.5228 2 22 6.47715 22 12C22 17.5228 17.5228 22 12 22Z" stroke="black" stroke-width="2" stroke-linejoin="round"/>
</svg>
