<svg width="24" height="24" viewBox="0 0 24 24" fill="none" xmlns="http://www.w3.org/2000/svg">
<path d="M12 22C7.3404 22 3.42515 18.8131 2.31504 14.5M12 22C16.6596 22 20.5748 18.8131 21.685 14.5M12 22C10.0519 20.1257 8.86283 17.4062 8.43276 14.5M12 22C13.9481 20.1257 15.1372 17.4062 15.5672 14.5M2.31504 14.5C2.10938 13.701 2 12.8632 2 12C2 11.1368 2.10938 10.299 2.31504 9.5M2.31504 14.5H8.43276M21.685 14.5C21.8906 13.701 22 12.8632 22 12C22 11.1368 21.8906 10.299 21.685 9.5M21.685 14.5H15.5672M12 2C16.6596 2 20.5748 5.18693 21.685 9.5M12 2C7.3404 2 3.42515 5.18693 2.31504 9.5M12 2C10.0519 3.87425 8.86283 6.59382 8.43276 9.5M12 2C13.9481 3.87425 15.1372 6.59382 15.5672 9.5M21.685 9.5H15.5672M2.31504 9.5H8.43276M8.43276 9.5C8.18908 11.1467 8.18908 12.8533 8.43276 14.5M8.43276 9.5H15.5672M8.43276 14.5H15.5672M15.5672 9.5C15.8109 11.1467 15.8109 12.8533 15.5672 14.5" stroke="black" stroke-width="2"/>
</svg>
