<svg width="24" height="24" viewBox="0 0 24 24" fill="none" xmlns="http://www.w3.org/2000/svg">
<path d="M15.9765 16.9707C18.2732 13.4669 19 11.6724 19 8.91995C19 5.09817 15.866 2 12 2C9.65582 2 7.58077 3.13911 6.31036 4.88794M15.9765 16.9707L10.9734 10.7168M15.9765 16.9707L20 22M14.1422 19.6778C13.7356 20.266 13.2978 20.8952 12.827 21.5716C12.4294 22.1428 11.5706 22.1428 11.173 21.5716C6.34786 14.6401 5 12.6683 5 8.91995C5 8.70631 5.00979 8.49492 5.02896 8.2862M6.31036 4.88794L4 2M6.31036 4.88794L10.0993 9.62414M10.9734 10.7168C11.2735 10.8966 11.6247 11 12 11C13.1046 11 14 10.1046 14 9C14 7.89543 13.1046 7 12 7C10.8954 7 10 7.89543 10 9C10 9.21795 10.0349 9.42775 10.0993 9.62414M10.9734 10.7168L10.0993 9.62414" stroke="black" stroke-width="2" stroke-linecap="round" stroke-linejoin="round"/>
</svg>
