<svg width="24" height="24" viewBox="0 0 24 24" fill="none" xmlns="http://www.w3.org/2000/svg">
<path fill-rule="evenodd" clip-rule="evenodd" d="M12 1C7.5926 1 4 4.53507 4 8.91995C4 13.0179 5.56228 15.2621 10.2572 22.0063L10.3523 22.1429C10.7526 22.718 11.385 23 12 23C12.5523 23 13 22.5523 13 22C13 21.4477 12.5523 21 12 21C11.9969 21 11.9946 20.9996 11.9931 20.9993C7.11226 13.9878 6 12.291 6 8.91995C6 5.66127 8.67542 3 12 3C15.3246 3 18 5.66127 18 8.91995C18 9.96728 17.8877 10.8323 17.6207 11.7085C17.4597 12.2368 17.7575 12.7956 18.2858 12.9566C18.8141 13.1176 19.3729 12.8198 19.5339 12.2915C19.869 11.1915 20 10.1249 20 8.91995C20 4.53507 16.4074 1 12 1ZM12 6C10.3431 6 9 7.34315 9 9C9 10.6569 10.3431 12 12 12C13.6569 12 15 10.6569 15 9C15 7.34315 13.6569 6 12 6ZM11 9C11 8.44772 11.4477 8 12 8C12.5523 8 13 8.44772 13 9C13 9.55228 12.5523 10 12 10C11.4477 10 11 9.55228 11 9ZM13.625 15.375C13.625 14.3395 14.4645 13.5 15.5 13.5C16.5355 13.5 17.375 14.3395 17.375 15.375V15.75H17.75C18.1642 15.75 18.5 16.0858 18.5 16.5V18.75C18.5 19.1642 18.1642 19.5 17.75 19.5H13.25C12.8358 19.5 12.5 19.1642 12.5 18.75V16.5C12.5 16.0858 12.8358 15.75 13.25 15.75H13.625V15.375ZM15.875 15.375V15.75H15.125V15.375C15.125 15.1679 15.2929 15 15.5 15C15.7071 15 15.875 15.1679 15.875 15.375ZM15.5 18.1875C15.8107 18.1875 16.0625 17.9357 16.0625 17.625C16.0625 17.3143 15.8107 17.0625 15.5 17.0625C15.1893 17.0625 14.9375 17.3143 14.9375 17.625C14.9375 17.9357 15.1893 18.1875 15.5 18.1875Z" fill="black"/>
</svg>
