<svg width="24" height="24" viewBox="0 0 24 24" fill="none" xmlns="http://www.w3.org/2000/svg">
<path d="M13.3258 10.7008L14.625 12M13.3258 10.7008C12.9865 11.0401 12.5178 11.25 12 11.25C10.9645 11.25 10.125 10.4105 10.125 9.375C10.125 8.33947 10.9645 7.5 12 7.5C13.0355 7.5 13.875 8.33947 13.875 9.375C13.875 9.89277 13.6651 10.3615 13.3258 10.7008ZM11.173 21.5716C6.34786 14.6401 5 12.6683 5 8.91995C5 5.09817 8.13401 2 12 2C15.866 2 19 5.09817 19 8.91995C19 12.6683 17.6521 14.6401 12.827 21.5716C12.4294 22.1428 11.5706 22.1428 11.173 21.5716Z" stroke="black" stroke-width="2" stroke-linecap="round" stroke-linejoin="round"/>
</svg>
