<svg width="24" height="24" viewBox="0 0 24 24" fill="none" xmlns="http://www.w3.org/2000/svg">
<path d="M18.5773 12C18.8783 11.0119 19 10.0461 19 8.91995C19 5.09817 15.866 2 12 2C8.13401 2 5 5.09817 5 8.91995C5 12.6683 6.34786 14.6401 11.173 21.5716C11.3718 21.8572 11.6859 22 12 22M16 17L18 15M16 17L14 19M16 17L18 19M16 17L14 15M12 11C10.8954 11 10 10.1046 10 9C10 7.89543 10.8954 7 12 7C13.1046 7 14 7.89543 14 9C14 10.1046 13.1046 11 12 11Z" stroke="black" stroke-width="2" stroke-linecap="round" stroke-linejoin="round"/>
</svg>
