<svg width="24" height="24" viewBox="0 0 24 24" fill="none" xmlns="http://www.w3.org/2000/svg">
<path fill-rule="evenodd" clip-rule="evenodd" d="M4 8.91995C4 4.53507 7.5926 1 12 1C16.4074 1 20 4.53507 20 8.91995C20 10.1249 19.869 11.1915 19.5339 12.2915C19.3729 12.8198 18.8141 13.1176 18.2858 12.9566C17.7575 12.7956 17.4597 12.2368 17.6207 11.7085C17.8877 10.8323 18 9.96728 18 8.91995C18 5.66127 15.3246 3 12 3C8.67542 3 6 5.66127 6 8.91995C6 12.291 7.11226 13.9878 11.9931 20.9993C11.9946 20.9996 11.9969 21 12 21C12.5523 21 13 21.4477 13 22C13 22.5523 12.5523 23 12 23C11.385 23 10.7526 22.718 10.3523 22.1429L10.2572 22.0063C5.56228 15.2621 4 13.0179 4 8.91995ZM9 9C9 7.34315 10.3431 6 12 6C13.6569 6 15 7.34315 15 9C15 10.6569 13.6569 12 12 12C10.3431 12 9 10.6569 9 9ZM12 8C11.4477 8 11 8.44772 11 9C11 9.55228 11.4477 10 12 10C12.5523 10 13 9.55228 13 9C13 8.44772 12.5523 8 12 8ZM12.5 16.875C12.5 15.2872 13.7872 14 15.375 14C16.9628 14 18.25 15.2872 18.25 16.875C18.25 17.3027 18.1562 17.7091 17.9884 18.0742L18.7071 18.7929C19.0976 19.1834 19.0976 19.8166 18.7071 20.2071C18.3166 20.5976 17.6834 20.5976 17.2929 20.2071L16.5742 19.4884C16.2091 19.6562 15.8027 19.75 15.375 19.75C13.7872 19.75 12.5 18.4628 12.5 16.875ZM15.375 16C14.8918 16 14.5 16.3918 14.5 16.875C14.5 17.3582 14.8918 17.75 15.375 17.75C15.6169 17.75 15.8343 17.6532 15.9937 17.4937C16.1532 17.3343 16.25 17.1169 16.25 16.875C16.25 16.3918 15.8582 16 15.375 16Z" fill="black"/>
</svg>
