<svg width="24" height="24" viewBox="0 0 24 24" fill="none" xmlns="http://www.w3.org/2000/svg">
<path fill-rule="evenodd" clip-rule="evenodd" d="M12 1C7.5926 1 4 4.53507 4 8.91995C4 13.0179 5.56228 15.2621 10.2572 22.0063L10.3523 22.1429C11.1478 23.2857 12.8522 23.2857 13.6477 22.1429L13.7428 22.0063C18.4377 15.2621 20 13.0179 20 8.91995C20 4.53507 16.4074 1 12 1ZM6 8.91995C6 5.66127 8.67542 3 12 3C15.3246 3 18 5.66127 18 8.91995C18 12.291 16.8877 13.9878 12.0069 20.9993C12.0054 20.9996 12.0031 21 12 21C11.9969 21 11.9946 20.9996 11.9931 20.9993C7.11226 13.9878 6 12.291 6 8.91995ZM9.18509 10.3872L9.18505 10.3872L9.18504 10.3872C9.07863 10.2845 9.02541 10.2331 8.98703 10.1857C8.67099 9.79502 8.67099 9.20498 8.98703 8.81433C9.02541 8.76689 9.07862 8.71553 9.18503 8.61282L9.18505 8.6128L9.18506 8.61279C9.51997 8.28953 9.68743 8.12789 9.84632 8.00415C11.1374 6.99862 12.8626 6.99862 14.1537 8.00415C14.3126 8.12789 14.48 8.28954 14.815 8.6128L14.815 8.61282C14.9214 8.71553 14.9746 8.76689 15.013 8.81433C15.329 9.20498 15.329 9.79502 15.013 10.1857C14.9746 10.2331 14.9214 10.2845 14.815 10.3872L14.8149 10.3872C14.48 10.7105 14.3126 10.8721 14.1537 10.9958C12.8626 12.0014 11.1374 12.0014 9.84632 10.9958C9.68744 10.8721 9.51998 10.7105 9.18509 10.3872ZM12.9335 9.5C12.9335 10.0687 12.5156 10.5298 12 10.5298C11.4844 10.5298 11.0665 10.0687 11.0665 9.5C11.0665 8.93127 11.4844 8.47022 12 8.47022C12.5156 8.47022 12.9335 8.93127 12.9335 9.5Z" fill="black"/>
</svg>
