<svg width="24" height="24" viewBox="0 0 24 24" fill="none" xmlns="http://www.w3.org/2000/svg">
<path fill-rule="evenodd" clip-rule="evenodd" d="M12 1C7.5926 1 4 4.53507 4 8.91995C4 13.0179 5.56228 15.2621 10.2572 22.0063L10.3523 22.1429C11.1478 23.2857 12.8522 23.2857 13.6477 22.1429L13.7428 22.0063C18.4377 15.2621 20 13.0179 20 8.91995C20 4.53507 16.4074 1 12 1ZM6 8.91995C6 5.66127 8.67542 3 12 3C15.3246 3 18 5.66127 18 8.91995C18 12.291 16.8877 13.9878 12.0069 20.9993C12.0054 20.9996 12.0031 21 12 21C11.9969 21 11.9946 20.9996 11.9931 20.9993C7.11226 13.9878 6 12.291 6 8.91995ZM10.125 8.375C10.125 7.33947 10.9645 6.5 12 6.5C13.0355 6.5 13.875 7.33947 13.875 8.375V8.75H14.25C14.6642 8.75 15 9.08579 15 9.5V11.75C15 12.1642 14.6642 12.5 14.25 12.5H9.75C9.33579 12.5 9 12.1642 9 11.75V9.5C9 9.08579 9.33579 8.75 9.75 8.75H10.125V8.375ZM12.375 8.375V8.75H11.625V8.375C11.625 8.16789 11.7929 8 12 8C12.2071 8 12.375 8.16789 12.375 8.375ZM12 11.1875C12.3107 11.1875 12.5625 10.9357 12.5625 10.625C12.5625 10.3143 12.3107 10.0625 12 10.0625C11.6893 10.0625 11.4375 10.3143 11.4375 10.625C11.4375 10.9357 11.6893 11.1875 12 11.1875Z" fill="black"/>
</svg>
