<svg width="24" height="24" viewBox="0 0 24 24" fill="none" xmlns="http://www.w3.org/2000/svg">
<path fill-rule="evenodd" clip-rule="evenodd" d="M12 1C7.5926 1 4 4.53507 4 8.91995C4 13.0179 5.56228 15.2621 10.2572 22.0063L10.3523 22.1429C11.1478 23.2857 12.8522 23.2857 13.6477 22.1429L13.7428 22.0063C18.4377 15.2621 20 13.0179 20 8.91995C20 4.53507 16.4074 1 12 1ZM6 8.91995C6 5.66127 8.67542 3 12 3C15.3246 3 18 5.66127 18 8.91995C18 12.291 16.8877 13.9878 12.0069 20.9993C12.0054 20.9996 12.0031 21 12 21C11.9969 21 11.9946 20.9996 11.9931 20.9993C7.11226 13.9878 6 12.291 6 8.91995ZM12.3201 7.43514C12.3201 7.56259 12.4226 7.66516 12.6278 7.87029L13.6297 8.87223C13.8348 9.07736 13.9374 9.17992 14.0649 9.17992C14.1923 9.17992 14.2949 9.07736 14.5 8.87223L14.5809 8.79134C14.6306 8.74165 14.6555 8.71678 14.6755 8.69477C15.1082 8.21872 15.1082 7.49174 14.6755 7.01568C14.6555 6.99369 14.6305 6.96877 14.5809 6.9191L14.5807 6.91897L14.5806 6.9188L14.5805 6.91876C14.5311 6.86929 14.5063 6.8445 14.4843 6.82455C14.0083 6.39182 13.2813 6.39182 12.8052 6.82455C12.7832 6.84454 12.7584 6.86938 12.7087 6.91904L12.7087 6.91911L12.6278 7C12.4226 7.20513 12.3201 7.30769 12.3201 7.43514ZM11.7575 7.99774C11.8849 7.99774 11.9875 8.1003 12.1926 8.30543L13.1946 9.30737C13.3997 9.5125 13.5023 9.61507 13.5023 9.74252C13.5023 9.86997 13.3997 9.97253 13.1946 10.1777L12.3496 11.0227L12.3456 11.0266L12.3456 11.0266C12.2576 11.1137 12.2281 11.1429 12.1947 11.1663C12.1779 11.1781 12.16 11.1884 12.1332 11.204C12.0837 11.2327 12.0037 11.2791 11.843 11.385C11.4197 11.6642 10.9455 11.8538 9.99735 12.2331L9.86155 12.2874C9.39912 12.4724 9.1679 12.5649 9.05151 12.4485C8.93512 12.3321 9.0276 12.1009 9.21257 11.6385L9.21257 11.6385L9.2669 11.5026C9.64618 10.5544 9.83582 10.0803 10.115 9.65699C10.2209 9.49632 10.2673 9.41627 10.296 9.36678C10.3116 9.33997 10.3219 9.32213 10.3337 9.30531C10.3571 9.27185 10.3863 9.2424 10.4734 9.15438L10.4773 9.15044L11.3223 8.30543L11.3223 8.30542C11.5275 8.1003 11.63 7.99774 11.7575 7.99774Z" fill="black"/>
</svg>
