<svg width="24" height="24" viewBox="0 0 24 24" fill="none" xmlns="http://www.w3.org/2000/svg">
<path fill-rule="evenodd" clip-rule="evenodd" d="M12 1C7.5926 1 4 4.53507 4 8.91995C4 13.0179 5.56228 15.2621 10.2572 22.0063L10.3523 22.1429C10.7526 22.718 11.385 23 12 23C12.5523 23 13 22.5523 13 22C13 21.4477 12.5523 21 12 21C11.9969 21 11.9946 20.9996 11.9931 20.9993C7.11226 13.9878 6 12.291 6 8.91995C6 5.66127 8.67542 3 12 3C15.3246 3 18 5.66127 18 8.91995C18 9.96728 17.8877 10.8323 17.6207 11.7085C17.4597 12.2368 17.7575 12.7956 18.2858 12.9566C18.8141 13.1176 19.3729 12.8198 19.5339 12.2915C19.869 11.1915 20 10.1249 20 8.91995C20 4.53507 16.4074 1 12 1ZM12 6C10.3431 6 9 7.34315 9 9C9 10.6569 10.3431 12 12 12C13.6569 12 15 10.6569 15 9C15 7.34315 13.6569 6 12 6ZM11 9C11 8.44772 11.4477 8 12 8C12.5523 8 13 8.44772 13 9C13 9.55228 12.5523 10 12 10C11.4477 10 11 9.55228 11 9ZM13.5963 18.7458C13.4374 18.6221 13.27 18.4605 12.9351 18.1372L12.935 18.1372C12.8286 18.0345 12.7754 17.9831 12.737 17.9357C12.421 17.545 12.421 16.955 12.737 16.5643C12.7754 16.5169 12.8286 16.4655 12.935 16.3628C13.27 16.0395 13.4374 15.8779 13.5963 15.7542C14.8874 14.7486 16.6126 14.7486 17.9037 15.7542C18.0626 15.8779 18.23 16.0395 18.565 16.3628L18.565 16.3628C18.6714 16.4655 18.7246 16.5169 18.763 16.5643C19.079 16.955 19.079 17.545 18.763 17.9357C18.7246 17.9831 18.6714 18.0345 18.565 18.1372L18.5649 18.1372C18.23 18.4605 18.0626 18.6221 17.9037 18.7458C16.6126 19.7514 14.8874 19.7514 13.5963 18.7458ZM16.6835 17.25C16.6835 17.8187 16.2656 18.2798 15.75 18.2798C15.2344 18.2798 14.8165 17.8187 14.8165 17.25C14.8165 16.6813 15.2344 16.2202 15.75 16.2202C16.2656 16.2202 16.6835 16.6813 16.6835 17.25Z" fill="black"/>
</svg>
