<svg width="24" height="24" viewBox="0 0 24 24" fill="none" xmlns="http://www.w3.org/2000/svg">
<path fill-rule="evenodd" clip-rule="evenodd" d="M12 1C7.5926 1 4 4.53507 4 8.91995C4 13.0179 5.56228 15.2621 10.2572 22.0063L10.3523 22.1429C10.7526 22.718 11.385 23 12 23C12.5523 23 13 22.5523 13 22C13 21.4477 12.5523 21 12 21C11.9969 21 11.9946 20.9996 11.9931 20.9993C7.11226 13.9878 6 12.291 6 8.91995C6 5.66127 8.67542 3 12 3C15.3246 3 18 5.66127 18 8.91995C18 9.96728 17.8877 10.8323 17.6207 11.7085C17.4597 12.2368 17.7575 12.7956 18.2858 12.9566C18.8141 13.1176 19.3729 12.8198 19.5339 12.2915C19.869 11.1915 20 10.1249 20 8.91995C20 4.53507 16.4074 1 12 1ZM12 6C10.3431 6 9 7.34315 9 9C9 10.6569 10.3431 12 12 12C13.6569 12 15 10.6569 15 9C15 7.34315 13.6569 6 12 6ZM11 9C11 8.44772 11.4477 8 12 8C12.5523 8 13 8.44772 13 9C13 9.55228 12.5523 10 12 10C11.4477 10 11 9.55228 11 9ZM16.3201 14.9351C16.3201 15.0626 16.4226 15.1652 16.6278 15.3703L17.6297 16.3722C17.8348 16.5774 17.9374 16.6799 18.0649 16.6799C18.1923 16.6799 18.2949 16.5774 18.5 16.3722L18.5809 16.2913C18.6306 16.2416 18.6555 16.2168 18.6755 16.1948C19.1082 15.7187 19.1082 14.9917 18.6755 14.5157C18.6555 14.4937 18.6305 14.4688 18.5809 14.4191L18.5808 14.419L18.5807 14.419L18.5807 14.4189C18.5311 14.3693 18.5063 14.3445 18.4843 14.3245C18.0083 13.8918 17.2813 13.8918 16.8052 14.3245C16.7832 14.3445 16.7584 14.3694 16.7087 14.419L16.7087 14.4191L16.6278 14.5C16.4226 14.7051 16.3201 14.8077 16.3201 14.9351ZM16.1926 15.8054L16.1926 15.8054L17.1946 16.8074C17.3997 17.0125 17.5023 17.1151 17.5023 17.2425C17.5023 17.37 17.3997 17.4725 17.1946 17.6777L16.3496 18.5227L16.3456 18.5266C16.2576 18.6137 16.2281 18.6429 16.1947 18.6663C16.1779 18.6781 16.16 18.6884 16.1332 18.704C16.0837 18.7327 16.0037 18.7791 15.843 18.885C15.4197 19.1642 14.9455 19.3538 13.9974 19.7331L13.8615 19.7874C13.3991 19.9724 13.1679 20.0649 13.0515 19.9485C12.9351 19.8321 13.0276 19.6009 13.2126 19.1385L13.2669 19.0026C13.6462 18.0544 13.8358 17.5803 14.115 17.157C14.2209 16.9963 14.2673 16.9163 14.296 16.8668L14.296 16.8668C14.3116 16.84 14.3219 16.8221 14.3337 16.8053C14.3571 16.7719 14.3863 16.7424 14.4734 16.6544L14.4734 16.6544L14.4773 16.6504L15.3223 15.8054L15.3223 15.8054C15.5275 15.6003 15.63 15.4977 15.7575 15.4977C15.8849 15.4977 15.9875 15.6003 16.1926 15.8054Z" fill="black"/>
</svg>
