<svg width="24" height="24" viewBox="0 0 24 24" fill="none" xmlns="http://www.w3.org/2000/svg">
<path fill-rule="evenodd" clip-rule="evenodd" d="M12 1C7.5926 1 4 4.53507 4 8.91995C4 13.0179 5.56228 15.2621 10.2572 22.0063L10.3523 22.1429C10.7526 22.718 11.385 23 12 23C12.5523 23 13 22.5523 13 22C13 21.4477 12.5523 21 12 21C11.9969 21 11.9946 20.9996 11.9931 20.9993C7.11226 13.9878 6 12.291 6 8.91995C6 5.66127 8.67542 3 12 3C15.3246 3 18 5.66127 18 8.91995C18 9.96728 17.8877 10.8323 17.6207 11.7085C17.4597 12.2368 17.7575 12.7956 18.2858 12.9566C18.8141 13.1176 19.3729 12.8198 19.5339 12.2915C19.869 11.1915 20 10.1249 20 8.91995C20 4.53507 16.4074 1 12 1ZM12 6C10.3431 6 9 7.34315 9 9C9 10.6569 10.3431 12 12 12C13.6569 12 15 10.6569 15 9C15 7.34315 13.6569 6 12 6ZM11 9C11 8.44772 11.4477 8 12 8C12.5523 8 13 8.44772 13 9C13 9.55228 12.5523 10 12 10C11.4477 10 11 9.55228 11 9ZM16.344 14.2311C16.2158 13.923 15.7794 13.923 15.6512 14.2311L15.0589 15.6552C15.0052 15.7842 14.8843 15.8727 14.745 15.8848L13.3432 16.0067C13.0215 16.0347 12.8831 16.429 13.1167 16.6519L14.1815 17.668C14.2781 17.7601 14.3184 17.8966 14.2874 18.0264L13.9268 19.5382C13.8494 19.8628 14.2025 20.1194 14.4873 19.9454L15.8021 19.1424C15.9221 19.0691 16.0731 19.0691 16.1932 19.1424L17.5079 19.9454C17.7927 20.1194 18.1458 19.8628 18.0684 19.5382L17.7079 18.0269C17.6769 17.8968 17.7174 17.7601 17.8143 17.6679L18.8828 16.6524C19.1171 16.4297 18.9788 16.0346 18.6567 16.0067L17.2503 15.8848C17.111 15.8727 16.99 15.7842 16.9363 15.6551L16.344 14.2311Z" fill="black"/>
</svg>
