<svg width="24" height="24" viewBox="0 0 24 24" fill="none" xmlns="http://www.w3.org/2000/svg">
<path d="M8.5 4.00017V18.2298M8.5 4.00017C8.21303 4.00324 7.9265 4.04816 7.64935 4.13484L4.11774 5.23931C2.85897 5.63297 2 6.81505 2 8.15367V18.0669C2 19.0927 2.97655 19.8258 3.94113 19.5241L7.64935 18.3644C7.9265 18.2778 8.21303 18.2328 8.5 18.2298M8.5 4.00017C8.78784 3.99709 9.0761 4.03611 9.35577 4.11732L14.6442 5.65309C14.9239 5.7343 15.2122 5.77332 15.5 5.77024M8.5 18.2298C8.78784 18.2267 9.0761 18.2657 9.35577 18.3469L14.6442 19.8827C14.9239 19.9639 15.2122 20.0029 15.5 19.9998M15.5 5.77024V19.9998M15.5 5.77024C15.787 5.76717 16.0735 5.72225 16.3507 5.63557L20.0589 4.47587C21.0235 4.17421 22 4.90729 22 5.93305V15.8463C22 17.1849 21.141 18.367 19.8823 18.7607L16.3507 19.8652C16.0735 19.9518 15.787 19.9968 15.5 19.9998" stroke="black" stroke-width="2" stroke-linecap="round" stroke-linejoin="round"/>
</svg>
