<svg width="24" height="24" viewBox="0 0 24 24" fill="none" xmlns="http://www.w3.org/2000/svg">
<path d="M5.99983 12.0004H17.9998M9.24249 2H14.7572C15.5528 2 16.3159 2.31607 16.8785 2.87868L21.1211 7.12132C21.6837 7.68393 21.9998 8.44699 21.9998 9.24264V14.7574C21.9998 15.553 21.6837 16.3161 21.1211 16.8787L16.8785 21.1213C16.3159 21.6839 15.5528 22 14.7572 22H9.24249C8.44682 22 7.68375 21.6839 7.12113 21.1213L2.87865 16.8787C2.31606 16.3161 2 15.553 2 14.7574V9.24261C2 8.44698 2.31606 7.68393 2.87865 7.12133L7.12113 2.87871C7.68375 2.31608 8.44682 2 9.24249 2Z" stroke="black" stroke-width="2" stroke-linecap="round" stroke-linejoin="round"/>
</svg>
