<svg width="24" height="24" viewBox="0 0 24 24" fill="none" xmlns="http://www.w3.org/2000/svg">
<path d="M11.9588 10V19M11.9588 10H16.6059C17.1332 10 17.6389 9.78929 18.0118 9.41421L19.7088 7.70711C19.9029 7.51184 20 7.25592 20 7C20 6.74408 19.9029 6.48816 19.7088 6.29289L18.0118 4.58579C17.6389 4.21071 17.1332 4 16.6059 4H11.9588M11.9588 10H5.99412C5.44508 10 5 9.55228 5 9V5C5 4.44772 5.44508 4 5.99412 4H11.9588M11.9588 19H9.97059C9.42156 19 8.97647 19.4477 8.97647 20V22H14.9412V20C14.9412 19.4477 14.4961 19 13.9471 19H11.9588ZM11.9588 4V2" stroke="black" stroke-width="2" stroke-linecap="round" stroke-linejoin="round"/>
</svg>
