<svg width="24" height="24" viewBox="0 0 24 24" fill="none" xmlns="http://www.w3.org/2000/svg">
<path d="M12.0412 10V19M12.0412 10H7.39413C6.86682 10 6.3611 9.78929 5.98824 9.41421L4.29117 7.70711C4.09706 7.51184 4 7.25592 4 7C4 6.74408 4.09706 6.48816 4.29117 6.29289L5.98824 4.58579C6.3611 4.21071 6.86682 4 7.39413 4H12.0412M12.0412 10H18.0059C18.5549 10 19 9.55228 19 9V5C19 4.44772 18.5549 4 18.0059 4H12.0412M12.0412 19H14.0294C14.5784 19 15.0235 19.4477 15.0235 20V22H9.05882V20C9.05882 19.4477 9.5039 19 10.0529 19H12.0412ZM12.0412 4V2" stroke="black" stroke-width="2" stroke-linecap="round" stroke-linejoin="round"/>
</svg>
