<svg width="24" height="24" viewBox="0 0 24 24" fill="none" xmlns="http://www.w3.org/2000/svg">
<path d="M11.9588 9.5H16.6059C17.1332 9.5 17.6389 9.28929 18.0118 8.91421L19.7088 7.20711C19.9029 7.01184 20 6.75592 20 6.5C20 6.24408 19.9029 5.98816 19.7088 5.79289L18.0118 4.08579C17.6389 3.71071 17.1332 3.5 16.6059 3.5H11.9588M11.9588 9.5H5.99412C5.44508 9.5 5 9.05228 5 8.5V4.5C5 3.94772 5.44508 3.5 5.99412 3.5H11.9588M11.9588 9.5V12.5M11.9588 22V18.5M11.9588 3.5V2M11.9588 18.5H7.39413C6.86682 18.5 6.3611 18.2893 5.98824 17.9142L4.29117 16.2071C4.09706 16.0118 4 15.7559 4 15.5C4 15.2441 4.09706 14.9882 4.29117 14.7929L5.98824 13.0858C6.3611 12.7107 6.86682 12.5 7.39413 12.5H11.9588M11.9588 18.5H18.0059C18.5549 18.5 19 18.0523 19 17.5V13.5C19 12.9477 18.5549 12.5 18.0059 12.5H11.9588" stroke="black" stroke-width="2" stroke-linecap="round" stroke-linejoin="round"/>
</svg>
