<svg width="24" height="24" viewBox="0 0 24 24" fill="none" xmlns="http://www.w3.org/2000/svg">
<path d="M14.7001 17.5C14.7001 17.5 13.3501 15.7 12.0001 15.7C10.6501 15.7 9.30006 17.5 9.30006 17.5M14.0057 10.7707C14.5827 10.2004 15.8208 9.62625 16.9501 9.34377M10.0914 10.7707C9.51448 10.2004 8.27637 9.62625 7.14709 9.34377M16.1273 5C14.891 4.36093 13.4877 4 12.0001 4C10.5124 4 9.1091 4.36093 7.87286 5M16.1273 5C18.0001 4.5 19.4845 3.5 21.0001 2C21.0001 4.5 20.5001 6.5 19.4845 8M16.1273 5C17.4841 5.70143 18.6397 6.73792 19.4845 8M19.4845 8C20.4418 9.4301 21.0001 11.1499 21.0001 13C21.0001 17.9706 16.9706 22 12.0001 22C7.0295 22 3.00006 17.9706 3.00006 13C3.00006 11.1499 3.55833 9.4301 4.51561 8M7.87286 5C6.51599 5.70143 5.36042 6.73792 4.51561 8M7.87286 5C6.00006 4.5 4.51555 3.5 3 2C3 4.5 3.50006 6.5 4.51561 8" stroke="black" stroke-width="2" stroke-linecap="round" stroke-linejoin="round"/>
<path d="M10.4091 13C10.4091 13.5523 9.98175 14 9.45456 14C8.92738 14 8.50002 13.5523 8.50002 13C8.50002 12.4477 8.92738 12 9.45456 12C9.98175 12 10.4091 12.4477 10.4091 13Z" fill="black"/>
<path d="M15.5 13C15.5 13.5523 15.0726 14 14.5455 14C14.0183 14 13.5909 13.5523 13.5909 13C13.5909 12.4477 14.0183 12 14.5455 12C15.0726 12 15.5 12.4477 15.5 13Z" fill="black"/>
</svg>
