<svg width="24" height="24" viewBox="0 0 24 24" fill="none" xmlns="http://www.w3.org/2000/svg">
<path d="M15 17C15 17 13.5 15 12 15C10.5 15 9 17 9 17M14.2285 9.52304C14.8696 8.88938 16.2452 8.25139 17.5 7.93753M9.87929 9.52304C9.23825 8.88938 7.86257 8.25139 6.60781 7.93753M22 12C22 17.5228 17.5228 22 12 22C6.47715 22 2 17.5228 2 12C2 6.47715 6.47715 2 12 2C17.5228 2 22 6.47715 22 12Z" stroke="black" stroke-width="2" stroke-linecap="round" stroke-linejoin="round"/>
<path d="M9.99963 12.5C9.99963 13.3284 9.46238 14 8.79963 14C8.13689 14 7.59963 13.3284 7.59963 12.5C7.59963 11.6716 8.13689 11 8.79963 11C9.46238 11 9.99963 11.6716 9.99963 12.5Z" fill="black"/>
<path d="M16.3996 12.5C16.3996 13.3284 15.8624 14 15.1996 14C14.5369 14 13.9996 13.3284 13.9996 12.5C13.9996 11.6716 14.5369 11 15.1996 11C15.8624 11 16.3996 11.6716 16.3996 12.5Z" fill="black"/>
</svg>
