<svg width="24" height="24" viewBox="0 0 24 24" fill="none" xmlns="http://www.w3.org/2000/svg">
<path d="M16 17C16 17 14.5 15.5 12 15.5C9.5 15.5 8 17 8 17M6.99023 11.8883C7.81566 12.2504 9.29287 11.9899 9.94465 11.3673M14.0553 11.3673C14.7071 11.9899 16.1843 12.2504 17.0098 11.8882M14.2285 8.52304C15.1231 7.63873 17.4485 6.74598 18.8793 6.73755M9.87929 8.52304C8.98468 7.63873 6.65929 6.74598 5.22852 6.73755M22 12C22 17.5228 17.5228 22 12 22C6.47715 22 2 17.5228 2 12C2 6.47715 6.47715 2 12 2C17.5228 2 22 6.47715 22 12Z" stroke="black" stroke-width="2" stroke-linecap="round" stroke-linejoin="round"/>
</svg>
