<svg width="24" height="24" viewBox="0 0 24 24" fill="none" xmlns="http://www.w3.org/2000/svg">
<path d="M16 16L14.8944 16.5528C14.3314 16.8343 13.6686 16.8343 13.1056 16.5528L12.8944 16.4472C12.3314 16.1657 11.6686 16.1657 11.1056 16.4472L10.8944 16.5528C10.3314 16.8343 9.66863 16.8343 9.10557 16.5528L8 16M7.125 9.5625C10.625 10.0625 10.625 12.0625 7.125 12.5625M16.875 12.5625C13.375 12.0625 13.375 10.0625 16.875 9.5625M22 12C22 17.5228 17.5228 22 12 22C6.47715 22 2 17.5228 2 12C2 6.47715 6.47715 2 12 2C17.5228 2 22 6.47715 22 12Z" stroke="black" stroke-width="2" stroke-linecap="round" stroke-linejoin="round"/>
</svg>
