<svg width="24" height="24" viewBox="0 0 24 24" fill="none" xmlns="http://www.w3.org/2000/svg">
<path fill-rule="evenodd" clip-rule="evenodd" d="M3 12C3 7.02944 7.02944 3 12 3C16.9706 3 21 7.02944 21 12C21 16.9706 16.9706 21 12 21C7.02944 21 3 16.9706 3 12ZM12 1C5.92487 1 1 5.92487 1 12C1 18.0751 5.92487 23 12 23C18.0751 23 23 18.0751 23 12C23 5.92487 18.0751 1 12 1ZM13.5 14C12.1217 14 10.8944 14.2747 10.0184 14.5442C9.57814 14.6797 9.2204 14.8158 8.96921 14.9197C8.84346 14.9718 8.74395 15.0159 8.67365 15.0482C8.63849 15.0643 8.6106 15.0775 8.59034 15.0872L8.56571 15.0992L8.55777 15.1031L8.55491 15.1045L8.55375 15.1051L8.55325 15.1053C8.55301 15.1055 8.55279 15.1056 9 16L8.55279 15.1056C8.05881 15.3526 7.85858 15.9532 8.10557 16.4472C8.35243 16.9409 8.95261 17.1412 9.44644 16.8948L9.4468 16.8946L9.4558 16.8903C9.46606 16.8854 9.48358 16.8771 9.50799 16.8659C9.55683 16.8434 9.6331 16.8095 9.73391 16.7678C9.93585 16.6842 10.2344 16.5703 10.6066 16.4558C11.3556 16.2253 12.3783 16 13.5 16H15C15.5523 16 16 15.5523 16 15C16 14.4477 15.5523 14 15 14H13.5ZM8.5 12C9.32843 12 10 11.3284 10 10.5C10 9.67157 9.32843 9 8.5 9C7.67157 9 7 9.67157 7 10.5C7 11.3284 7.67157 12 8.5 12ZM15.5 12C16.3284 12 17 11.3284 17 10.5C17 9.67157 16.3284 9 15.5 9C14.6716 9 14 9.67157 14 10.5C14 11.3284 14.6716 12 15.5 12Z" fill="black"/>
</svg>
