<svg width="24" height="24" viewBox="0 0 24 24" fill="none" xmlns="http://www.w3.org/2000/svg">
<path d="M14.2285 6.73755C15.1231 7.62186 17.4485 8.51461 18.8793 8.52304M9.87929 6.73755C8.98468 7.62186 6.65929 8.51461 5.22852 8.52304M14 10.5274C14.5194 10.4389 15.2453 10.4932 16 10.646M10 10.5274C9.48061 10.4389 8.75473 10.4932 8 10.646M5.1662 19.3007C3.21763 17.476 2 14.8802 2 12C2 6.47715 6.47715 2 12 2C17.5228 2 22 6.47715 22 12C22 14.8802 20.7824 17.476 18.8338 19.3007M5.1662 19.3007V11.7324C5.85012 11.2595 6.95284 10.858 8 10.646M5.1662 19.3007C5.99189 20.0739 6.94884 20.7086 8 21.1679M8 10.646V21.1679M8 21.1679C9.22492 21.7031 10.5778 22 12 22C13.4222 22 14.7751 21.7031 16 21.1679M18.8338 19.3007V11.7324C18.1499 11.2595 17.0472 10.858 16 10.646M18.8338 19.3007C18.0081 20.0739 17.0512 20.7086 16 21.1679M16 10.646V21.1679M12 18.5V18.5C12.8284 18.5 13.5 17.8284 13.5 17V16.5C13.5 15.6716 12.8284 15 12 15V15C11.1716 15 10.5 15.6716 10.5 16.5V17C10.5 17.8284 11.1716 18.5 12 18.5Z" stroke="black" stroke-width="2" stroke-linecap="round" stroke-linejoin="round"/>
</svg>
