<svg width="24" height="24" viewBox="0 0 24 24" fill="none" xmlns="http://www.w3.org/2000/svg">
<path fill-rule="evenodd" clip-rule="evenodd" d="M3 12C3 7.02944 7.02944 3 12 3C16.9706 3 21 7.02944 21 12C21 12.5523 21.4477 13 22 13C22.5523 13 23 12.5523 23 12C23 5.92487 18.0751 1 12 1C5.92487 1 1 5.92487 1 12C1 18.0751 5.92487 23 12 23C13.5626 23 15.0516 22.6736 16.4004 22.0843C16.9065 21.8631 17.1375 21.2736 16.9164 20.7675C16.6952 20.2615 16.1057 20.0304 15.5996 20.2516C14.4986 20.7326 13.2818 21 12 21C7.02944 21 3 16.9706 3 12ZM14.5547 11.8321C14.7064 11.7309 15.0495 11.625 15.5 11.625C15.9505 11.625 16.2936 11.7309 16.4453 11.8321C16.9048 12.1384 17.5257 12.0142 17.8321 11.5547C18.1384 11.0952 18.0142 10.4743 17.5547 10.1679C16.9564 9.76908 16.1745 9.625 15.5 9.625C14.8255 9.625 14.0436 9.76908 13.4453 10.1679C12.9858 10.4743 12.8616 11.0952 13.1679 11.5547C13.4743 12.0142 14.0952 12.1384 14.5547 11.8321ZM8.5 12C9.32843 12 10 11.1046 10 10C10 8.89543 9.32843 8 8.5 8C7.67157 8 7 8.89543 7 10C7 11.1046 7.67157 12 8.5 12ZM11.984 15.5C11.724 15.5 11.5971 15.6432 11.5755 15.7122C11.4928 15.9757 11.2122 16.1222 10.9487 16.0396C10.6852 15.9569 10.5387 15.6763 10.6213 15.4128C10.8027 14.8349 11.3918 14.5 11.984 14.5C12.6679 14.5 13.3984 14.9715 13.3984 15.75C13.3984 16.0257 13.3068 16.2629 13.158 16.4543C13.3575 16.6553 13.5 16.9273 13.5 17.25C13.5 17.6532 13.2775 17.9773 12.9994 18.1826C12.7211 18.388 12.3604 18.5 11.984 18.5C11.3779 18.5 10.7338 18.1928 10.5279 17.6021C10.437 17.3414 10.5746 17.0563 10.8354 16.9654C11.0961 16.8745 11.3812 17.0121 11.4721 17.2729C11.4918 17.3292 11.6432 17.5 11.984 17.5C12.1687 17.5 12.316 17.4441 12.4055 17.3781C12.495 17.3119 12.5 17.261 12.5 17.25C12.5 17.239 12.495 17.1881 12.4055 17.1219C12.316 17.0559 12.1687 17 11.984 17C11.7079 17 11.484 16.7761 11.484 16.5C11.484 16.2239 11.7079 16 11.984 16C12.1277 16 12.2426 15.9519 12.3135 15.8937C12.3834 15.8364 12.3984 15.7831 12.3984 15.75C12.3984 15.7169 12.3834 15.6636 12.3135 15.6063C12.2426 15.5481 12.1277 15.5 11.984 15.5ZM19.8766 14.6231C19.6115 13.8693 18.8921 13.343 18.0248 13.4819C17.0686 13.6351 16.4663 14.4666 16.6163 15.3873C16.7314 16.0943 17.2969 17.7174 17.5532 18.4328C17.6247 18.6323 17.8375 18.7552 18.046 18.7173C18.7937 18.5816 20.4821 18.2598 21.1519 18.006C22.0242 17.6755 22.4576 16.7391 22.0978 15.8335C21.7715 15.0122 20.9668 14.6529 20.1836 14.8003C20.0563 14.8242 19.9195 14.7453 19.8766 14.6231Z" fill="black"/>
</svg>
