<svg width="24" height="24" viewBox="0 0 24 24" fill="none" xmlns="http://www.w3.org/2000/svg">
<path fill-rule="evenodd" clip-rule="evenodd" d="M3 12C3 7.02944 7.02944 3 12 3C16.9706 3 21 7.02944 21 12C21 16.9706 16.9706 21 12 21C7.02944 21 3 16.9706 3 12ZM12 1C5.92487 1 1 5.92487 1 12C1 18.0751 5.92487 23 12 23C18.0751 23 23 18.0751 23 12C23 5.92487 18.0751 1 12 1ZM10.5 15.5C10.5 14.6716 11.1716 14 12 14C12.8284 14 13.5 14.6716 13.5 15.5C13.5 16.3284 12.8284 17 12 17C11.1716 17 10.5 16.3284 10.5 15.5ZM12 12C10.067 12 8.5 13.567 8.5 15.5C8.5 17.433 10.067 19 12 19C13.933 19 15.5 17.433 15.5 15.5C15.5 13.567 13.933 12 12 12ZM8.5 11C9.32843 11 10 10.1046 10 9C10 7.89543 9.32843 7 8.5 7C7.67157 7 7 7.89543 7 9C7 10.1046 7.67157 11 8.5 11ZM15.5 11C16.3284 11 17 10.1046 17 9C17 7.89543 16.3284 7 15.5 7C14.6716 7 14 7.89543 14 9C14 10.1046 14.6716 11 15.5 11Z" fill="black"/>
</svg>
