<svg width="24" height="24" viewBox="0 0 24 24" fill="none" xmlns="http://www.w3.org/2000/svg">
<path d="M7 9C7.75 8.5 9.25 8.5 10 9M14 9C14.75 8.5 16.25 8.5 17 9M17 14V13.677C17 13.2681 16.7512 12.9013 16.3625 12.7742C15.4613 12.4792 13.7306 12 12 12C10.2694 12 8.53874 12.4792 7.63745 12.7742C7.24883 12.9013 7 13.2681 7 13.677V14M17 14L21.8 10M17 14V16M21.8 10C20.8734 5.43552 16.8379 2 12 2C7.16208 2 3.12658 5.43552 2.20004 10M21.8 10C21.9311 10.6462 22 11.3151 22 12C22 13.4222 21.7031 14.7751 21.1679 16M7 14L2.20004 10M7 14V16M2.20004 10C2.06886 10.6462 2 11.3151 2 12C2 13.4222 2.2969 14.7751 2.83209 16M17 16V17.1802C17 17.6569 16.6638 18.0659 16.193 18.1402C15.2552 18.2881 13.6276 18.5 12 18.5C10.3724 18.5 8.74476 18.2881 7.80703 18.1402C7.33617 18.0659 7 17.6569 7 17.1802V16M17 16H21.1679M21.1679 16C19.6248 19.5318 16.1006 22 12 22C7.89936 22 4.3752 19.5318 2.83209 16M7 16H2.83209" stroke="black" stroke-width="2" stroke-linecap="round" stroke-linejoin="round"/>
</svg>
