<svg width="24" height="24" viewBox="0 0 24 24" fill="none" xmlns="http://www.w3.org/2000/svg">
<path d="M7 10C7.5 7.5 9.5 7.5 10 10M14 10C14.5 7.5 16.5 7.5 17 10M7.75 14C8.36864 15.7862 10.0379 17.0659 12 17.0659C13.3502 17.0659 14.5617 16.46 15.3876 15.5M15.3876 15.5C15.7619 15.0649 16.0571 14.5571 16.25 14L17.1776 14.53C17.6223 14.7842 17.7587 15.3619 17.4746 15.7881V15.7881C17.21 16.185 16.6783 16.3005 16.2729 16.0491L15.3876 15.5ZM22 12C22 17.5228 17.5228 22 12 22C6.47715 22 2 17.5228 2 12C2 6.47715 6.47715 2 12 2C17.5228 2 22 6.47715 22 12Z" stroke="black" stroke-width="2" stroke-linecap="round" stroke-linejoin="round"/>
</svg>
