<svg width="24" height="24" viewBox="0 0 24 24" fill="none" xmlns="http://www.w3.org/2000/svg">
<path fill-rule="evenodd" clip-rule="evenodd" d="M3 12C3 7.02944 7.02944 3 12 3C16.9706 3 21 7.02944 21 12C21 16.9706 16.9706 21 12 21C7.02944 21 3 16.9706 3 12ZM12 1C5.92487 1 1 5.92487 1 12C1 18.0751 5.92487 23 12 23C18.0751 23 23 18.0751 23 12C23 5.92487 18.0751 1 12 1ZM8.44721 15.1056C7.95324 14.8586 7.35256 15.0588 7.10557 15.5528C6.85858 16.0468 7.05881 16.6474 7.55279 16.8944L8.65836 17.4472C9.50294 17.8695 10.4971 17.8695 11.3416 17.4472L11.5528 17.3416C11.8343 17.2009 12.1657 17.2009 12.4472 17.3416L12.6584 17.4472C13.5029 17.8695 14.4971 17.8695 15.3416 17.4472L16.4472 16.8944C16.9412 16.6474 17.1414 16.0468 16.8944 15.5528C16.6474 15.0588 16.0468 14.8586 15.5528 15.1056L14.4472 15.6584C14.1657 15.7991 13.8343 15.7991 13.5528 15.6584L13.3416 15.5528C12.4971 15.1305 11.5029 15.1305 10.6584 15.5528L10.4472 15.6584C10.1657 15.7991 9.83431 15.7991 9.55279 15.6584L8.44721 15.1056ZM4.5 11.5C4.5 10.6734 4.91379 9.92456 5.52384 9.36997C6.14058 8.80929 6.90043 8.5 7.5 8.5C9.27471 8.5 10.5 9.82439 10.5 11C10.5 11.5874 10.2013 12.2166 9.70895 12.7089C9.21662 13.2013 8.58738 13.5 8 13.5C7.42736 13.5 6.93063 13.215 6.56379 12.7957C6.18867 12.367 6 11.8549 6 11.5C6 10.6374 6.74911 10 7.5 10C7.92583 10 8.32307 10.108 8.59765 10.291C8.85741 10.4642 9 10.694 9 11C9 11.1184 8.92583 11.3861 8.73457 11.6252C8.55597 11.8484 8.31413 12 8 12C7.91262 12 7.78338 11.9513 7.66605 11.8339C7.55844 11.7263 7.50854 11.6087 7.50101 11.5225L7.50378 11.5178C7.50683 11.5129 7.51026 11.5083 7.51379 11.5043L7.51809 11.4997C7.78585 11.4902 8 11.2701 8 11C8 10.7239 7.77614 10.5 7.5 10.5C7.17264 10.5 6.91937 10.665 6.76121 10.8457C6.61133 11.017 6.5 11.2549 6.5 11.5C6.5 11.9126 6.70127 12.2834 6.95895 12.5411C7.21662 12.7987 7.58738 13 8 13C8.68587 13 9.19403 12.6516 9.51543 12.2498C9.82417 11.8639 10 11.3816 10 11C10 10.306 9.64259 9.7858 9.15235 9.45897C8.67693 9.14203 8.07417 9 7.5 9C6.25089 9 5 10.0325 5 11.5C5 12.1451 5.31133 12.883 5.81121 13.4543C6.31937 14.035 7.07264 14.5 8 14.5C8.91262 14.5 9.78338 14.0487 10.4161 13.4161C11.0487 12.7834 11.5 11.9126 11.5 11C11.5 9.17561 9.72529 7.5 7.5 7.5C6.59957 7.5 5.60942 7.94071 4.85116 8.63003C4.08621 9.32544 3.5 10.3266 3.5 11.5C3.5 12.0389 3.50249 13.2096 4.64645 14.3536C4.84171 14.5488 5.15829 14.5488 5.35355 14.3536C5.54882 14.1583 5.54882 13.8417 5.35355 13.6464C4.49998 12.7929 4.49999 11.9659 4.5 11.504V11.5ZM13.5 11C13.5 10.4126 13.7987 9.78338 14.2911 9.29105C14.7834 8.79873 15.4126 8.5 16 8.5C16.5726 8.5 17.0694 8.78501 17.4362 9.20425C17.8113 9.63296 18 10.1451 18 10.5C18 11.3626 17.2509 12 16.5 12C16.0742 12 15.6769 11.892 15.4024 11.709C15.1426 11.5358 15 11.306 15 11C15 10.8816 15.0742 10.6139 15.2654 10.3748C15.444 10.1516 15.6859 10 16 10C16.0874 10 16.2166 10.0487 16.3339 10.1661C16.4416 10.2737 16.4915 10.3913 16.499 10.4775L16.4962 10.4822C16.4932 10.4871 16.4897 10.4917 16.4862 10.4957L16.4819 10.5003C16.2141 10.5098 16 10.7299 16 11C16 11.2761 16.2239 11.5 16.5 11.5C16.8274 11.5 17.0806 11.335 17.2388 11.1543C17.3887 10.983 17.5 10.7451 17.5 10.5C17.5 10.0874 17.2987 9.71662 17.0411 9.45895C16.7834 9.20127 16.4126 9 16 9C15.3141 9 14.806 9.34839 14.4846 9.75015C14.1758 10.1361 14 10.6184 14 11C14 11.694 14.3574 12.2142 14.8476 12.541C15.3231 12.858 15.9258 13 16.5 13C17.7491 13 19 11.9675 19 10.5C19 9.85489 18.6887 9.11704 18.1888 8.54575C17.6806 7.96499 16.9274 7.5 16 7.5C15.0874 7.5 14.2166 7.95127 13.5839 8.58395C12.9513 9.21662 12.5 10.0874 12.5 11C12.5 12.8244 14.2747 14.5 16.5 14.5C17.4004 14.5 18.3906 14.0593 19.1488 13.37C19.9138 12.6746 20.5 11.6734 20.5 10.5C20.5 9.96115 20.4975 8.79041 19.3536 7.64645C19.1583 7.45118 18.8417 7.45118 18.6464 7.64645C18.4512 7.84171 18.4512 8.15829 18.6464 8.35355C19.5 9.20713 19.5 10.0341 19.5 10.496V10.5C19.5 11.3266 19.0862 12.0754 18.4762 12.63C17.8594 13.1907 17.0996 13.5 16.5 13.5C14.7253 13.5 13.5 12.1756 13.5 11Z" fill="black"/>
</svg>
