<svg width="24" height="24" viewBox="0 0 24 24" fill="none" xmlns="http://www.w3.org/2000/svg">
<path d="M7 9C7.75 8.5 9.25 8.5 10 9M14 9C14.75 8.5 16.25 8.5 17 9M22 12C22 17.5228 17.5228 22 12 22C6.47715 22 2 17.5228 2 12C2 6.47715 6.47715 2 12 2C17.5228 2 22 6.47715 22 12Z" stroke="black" stroke-width="2" stroke-linecap="round" stroke-linejoin="round"/>
<path d="M8.3418 15C8.87435 16.7478 10.3113 18 12.0004 18C13.6895 18 15.1264 16.7478 15.659 15C15.659 15 13.2935 15.375 12.0004 15.375C10.7073 15.375 8.3418 15 8.3418 15Z" stroke="black" stroke-width="2" stroke-linecap="round" stroke-linejoin="round"/>
<path d="M19.145 15.2072C19.9452 14.9928 20.42 14.1703 20.2056 13.3701C19.8944 12.2086 18.5689 10.9862 18.0553 10.547C17.954 10.4603 17.8029 10.5008 17.7585 10.6265C17.5334 11.2637 16.9966 12.9851 17.3078 14.1466C17.5223 14.9468 18.3448 15.4217 19.145 15.2072Z" fill="black"/>
<path d="M4.88558 15.2071C5.68578 15.4215 6.50829 14.9466 6.7227 14.1464C7.03392 12.9849 6.49719 11.2635 6.27202 10.6264C6.2276 10.5007 6.07657 10.4602 5.97524 10.5469C5.46167 10.9861 4.13615 12.2085 3.82492 13.37C3.61051 14.1702 4.08538 14.9927 4.88558 15.2071Z" fill="black"/>
</svg>
