<svg width="24" height="24" viewBox="0 0 24 24" fill="none" xmlns="http://www.w3.org/2000/svg">
<path fill-rule="evenodd" clip-rule="evenodd" d="M3 12C3 7.02944 7.02944 3 12 3C16.9706 3 21 7.02944 21 12C21 16.9706 16.9706 21 12 21C7.02944 21 3 16.9706 3 12ZM12 1C5.92487 1 1 5.92487 1 12C1 18.0751 5.92487 23 12 23C18.0751 23 23 18.0751 23 12C23 5.92487 18.0751 1 12 1ZM13.5 8.5C13.9913 8.5 14.4138 8.31799 14.7158 8.16241C14.873 8.0814 15.0259 7.992 15.1603 7.91256L15.2291 7.87183C15.342 7.80491 15.4434 7.74484 15.5481 7.68666C16.0444 7.41098 16.3459 7.33606 16.6838 7.44868C17.2077 7.62333 17.774 7.34017 17.9487 6.81623C18.1233 6.29228 17.8402 5.72596 17.3162 5.55132C16.1541 5.16394 15.2056 5.58902 14.5769 5.93834C14.4455 6.01133 14.3162 6.08795 14.2034 6.15485L14.1424 6.19096C14.0092 6.26972 13.9004 6.33267 13.7999 6.38446C13.5862 6.49451 13.5087 6.5 13.5 6.5C12.9477 6.5 12.5 6.94772 12.5 7.5C12.5 8.05228 12.9477 8.5 13.5 8.5ZM10.5 8.5C10.4868 8.5 10.4075 8.49249 10.1785 8.38144C10.0903 8.33867 10.0025 8.2924 9.89597 8.23619L9.89587 8.23614L9.81385 8.19293C9.67726 8.12114 9.51613 8.03785 9.34364 7.96119C8.99893 7.80798 8.55582 7.65625 8.03906 7.65625C7.50438 7.65625 6.96988 7.81823 6.4453 8.16795C5.98577 8.4743 5.8616 9.09517 6.16795 9.5547C6.4743 10.0142 7.09517 10.1384 7.5547 9.83205C7.78012 9.68177 7.93312 9.65625 8.03906 9.65625C8.16293 9.65625 8.31357 9.69202 8.53136 9.78881C8.64012 9.83715 8.75243 9.89448 8.88342 9.96332L8.95034 9.9986C9.05883 10.0559 9.18395 10.1219 9.30591 10.1811C9.59249 10.32 10.0132 10.5 10.5 10.5C11.0523 10.5 11.5 10.0523 11.5 9.5C11.5 8.94772 11.0523 8.5 10.5 8.5ZM7.5 15C6.94772 15 6.5 15.4477 6.5 16C6.5 16.5523 6.94772 17 7.5 17H16.5C17.0523 17 17.5 16.5523 17.5 16C17.5 15.4477 17.0523 15 16.5 15H7.5ZM15.5 13C16.3284 13 17 12.1046 17 11C17 9.89543 16.3284 9 15.5 9C14.6716 9 14 9.89543 14 11C14 12.1046 14.6716 13 15.5 13ZM8.5 13C9.32843 13 10 12.3284 10 11.5C10 10.6716 9.32843 10 8.5 10C7.67157 10 7 10.6716 7 11.5C7 12.3284 7.67157 13 8.5 13Z" fill="black"/>
</svg>
