<svg width="24" height="24" viewBox="0 0 24 24" fill="none" xmlns="http://www.w3.org/2000/svg">
<path fill-rule="evenodd" clip-rule="evenodd" d="M3 12C3 7.02944 7.02944 3 12 3C16.9706 3 21 7.02944 21 12C21 16.9706 16.9706 21 12 21C7.02944 21 3 16.9706 3 12ZM12 1C5.92487 1 1 5.92487 1 12C1 18.0751 5.92487 23 12 23C18.0751 23 23 18.0751 23 12C23 5.92487 18.0751 1 12 1ZM9.99051 5.50329C9.15998 5.43546 8.10322 5.66359 7.17129 5.98443C6.22755 6.30934 5.23933 6.78899 4.56047 7.35184C4.13531 7.70434 4.07641 8.33476 4.42891 8.75992C4.78141 9.18508 5.41183 9.24398 5.83699 8.89148C6.25959 8.5411 6.9997 8.15872 7.82235 7.87549C8.65682 7.5882 9.40453 7.46209 9.82774 7.49665C10.3782 7.5416 10.8609 7.13181 10.9058 6.58136C10.9508 6.0309 10.541 5.54823 9.99051 5.50329ZM14.2801 7.49668C14.7033 7.46212 15.451 7.58824 16.2855 7.87553C17.1082 8.15875 17.8483 8.54114 18.2709 8.89151C18.696 9.24402 19.3264 9.18512 19.6789 8.75996C20.0314 8.3348 19.9725 7.70438 19.5474 7.35188C18.8685 6.78902 17.8803 6.30938 16.9366 5.98446C16.0046 5.66362 14.9479 5.4355 14.1173 5.50332C13.5669 5.54827 13.1571 6.03094 13.202 6.58139C13.247 7.13184 13.7297 7.54163 14.2801 7.49668ZM10 16C9.44772 16 9 16.4477 9 17C9 17.5523 9.44772 18 10 18H14C14.5523 18 15 17.5523 15 17C15 16.4477 14.5523 16 14 16H10ZM8 15C9.65685 15 11 13.6569 11 12C11 10.3431 9.65685 9 8 9C6.34315 9 5 10.3431 5 12C5 13.6569 6.34315 15 8 15ZM8 13C8.55228 13 9 12.5523 9 12C9 11.4477 8.55228 11 8 11C7.44772 11 7 11.4477 7 12C7 12.5523 7.44772 13 8 13ZM16 15C17.6569 15 19 13.6569 19 12C19 10.3431 17.6569 9 16 9C14.3431 9 13 10.3431 13 12C13 13.6569 14.3431 15 16 15ZM16 13C16.5523 13 17 12.5523 17 12C17 11.4477 16.5523 11 16 11C15.4477 11 15 11.4477 15 12C15 12.5523 15.4477 13 16 13Z" fill="black"/>
</svg>
