<svg width="24" height="24" viewBox="0 0 24 24" fill="none" xmlns="http://www.w3.org/2000/svg">
<path fill-rule="evenodd" clip-rule="evenodd" d="M3 12C3 7.02944 7.02944 3 12 3C16.9706 3 21 7.02944 21 12C21 16.9706 16.9706 21 12 21C7.02944 21 3 16.9706 3 12ZM12 1C5.92487 1 1 5.92487 1 12C1 18.0751 5.92487 23 12 23C18.0751 23 23 18.0751 23 12C23 5.92487 18.0751 1 12 1ZM12 14C10.4012 14 9.19584 14.6031 8.4 15.2C8.00358 15.4973 7.70504 15.7954 7.50259 16.0231C7.40102 16.1374 7.32257 16.2352 7.26707 16.308C7.23929 16.3445 7.21716 16.3748 7.20067 16.398C7.19242 16.4096 7.18557 16.4194 7.18012 16.4274L7.17299 16.4378L7.17021 16.4419L7.16901 16.4437L7.16847 16.4445C7.16821 16.4449 7.16795 16.4453 8 17L7.16795 16.4453C6.8616 16.9048 6.98577 17.5257 7.4453 17.8321C7.90289 18.1371 8.52047 18.0153 8.82816 17.5605L8.83058 17.5571C8.83492 17.551 8.84405 17.5383 8.85793 17.5201C8.88577 17.4836 8.93232 17.4251 8.99741 17.3519C9.12829 17.2046 9.32975 17.0027 9.6 16.8C9.9595 16.5304 10.434 16.2635 11.0284 16.1164L15.1723 17.5611C15.4801 18.0154 16.0973 18.137 16.5547 17.8321C17.0142 17.5257 17.1384 16.9048 16.8321 16.4453L16 17C16.8321 16.4453 16.8318 16.4449 16.8315 16.4445L16.831 16.4437L16.8298 16.4419L16.827 16.4378L16.8199 16.4274L16.8122 16.4163L16.7993 16.398C16.7828 16.3748 16.7607 16.3445 16.7329 16.308C16.6774 16.2352 16.599 16.1374 16.4974 16.0231C16.295 15.7954 15.9964 15.4973 15.6 15.2C14.8042 14.6031 13.5988 14 12 14ZM15.1718 17.5605C15.172 17.5607 15.1721 17.5609 15.1723 17.5611L15.1723 17.5611L15.1718 17.5605ZM15.1718 17.5605L11.0287 16.1163C11.3229 16.0435 11.6465 16 12 16C13.0678 16 13.8625 16.3969 14.4 16.8C14.6702 17.0027 14.8717 17.2046 15.0026 17.3519C15.0677 17.4251 15.1142 17.4836 15.1421 17.5201C15.156 17.5383 15.1651 17.551 15.1694 17.5571L15.1718 17.5605ZM11.0287 16.1163L8.4 15.2L11.0284 16.1164C11.0285 16.1164 11.0286 16.1163 11.0287 16.1163ZM8.5 12C9.32843 12 10 11.3284 10 10.5C10 9.67157 9.32843 9 8.5 9C7.67157 9 7 9.67157 7 10.5C7 11.3284 7.67157 12 8.5 12ZM15.5 12C16.3284 12 17 11.3284 17 10.5C17 9.67157 16.3284 9 15.5 9C14.6716 9 14 9.67157 14 10.5C14 11.3284 14.6716 12 15.5 12Z" fill="black"/>
</svg>
