<svg width="24" height="24" viewBox="0 0 24 24" fill="none" xmlns="http://www.w3.org/2000/svg">
<path fill-rule="evenodd" clip-rule="evenodd" d="M12 3C7.02944 3 3 7.02944 3 12C3 16.9706 7.02944 21 12 21C16.9706 21 21 16.9706 21 12C21 7.02944 16.9706 3 12 3ZM1 12C1 5.92487 5.92487 1 12 1C18.0751 1 23 5.92487 23 12C23 18.0751 18.0751 23 12 23C5.92487 23 1 18.0751 1 12ZM6.47679 13.0092C6.13131 12.962 5.78619 13.0982 5.56601 13.3685C5.34582 13.6389 5.28237 14.0045 5.39858 14.3332C6.35905 17.0507 8.9506 19 12 19C15.0494 19 17.641 17.0507 18.6014 14.3332C18.7176 14.0045 18.6542 13.6389 18.434 13.3685C18.2138 13.0982 17.8687 12.962 17.5232 13.0092H6.47679ZM8.5 11C9.32843 11 10 10.3284 10 9.5C10 8.67157 9.32843 8 8.5 8C7.67157 8 7 8.67157 7 9.5C7 10.3284 7.67157 11 8.5 11ZM17.5232 13.0092L17.5232 13.0092L17.5228 13.0093L17.5211 13.0095L17.5138 13.0105L17.484 13.0145L17.3671 13.03C17.2649 13.0435 17.1163 13.0627 16.9314 13.0859C16.5614 13.1322 16.0477 13.194 15.4726 13.2557C14.3091 13.3806 12.9414 13.5 12 13.5C11.0586 13.5 9.69088 13.3806 8.52742 13.2557C7.95234 13.194 7.43856 13.1322 7.0686 13.0859C6.88373 13.0627 6.73506 13.0435 6.63293 13.03L6.51602 13.0145L6.48622 13.0105L6.47891 13.0095L6.4772 13.0093L6.47685 13.0092L6.47682 13.0092H17.5232ZM15.817 15.2301L15.686 15.2443C14.5202 15.3694 13.0586 15.5 12 15.5C10.9414 15.5 9.47982 15.3694 8.31399 15.2443L8.18302 15.2301C9.10065 16.3132 10.4708 17 12 17C13.5293 17 14.8994 16.3132 15.817 15.2301ZM15.5 11C16.3284 11 17 10.3284 17 9.5C17 8.67157 16.3284 8 15.5 8C14.6716 8 14 8.67157 14 9.5C14 10.3284 14.6716 11 15.5 11Z" fill="black"/>
</svg>
