<svg width="24" height="24" viewBox="0 0 24 24" fill="none" xmlns="http://www.w3.org/2000/svg">
<path fill-rule="evenodd" clip-rule="evenodd" d="M12 3C7.02944 3 3 7.02944 3 12C3 16.9706 7.02944 21 12 21C16.9706 21 21 16.9706 21 12C21 11.3823 20.9379 10.78 20.82 10.1989C20.7101 9.65769 21.0598 9.12985 21.601 9.01999C22.1423 8.91012 22.6701 9.25982 22.78 9.80107C22.9244 10.5124 23 11.2479 23 12C23 18.0751 18.0751 23 12 23C5.92487 23 1 18.0751 1 12C1 5.92487 5.92487 1 12 1C13.5626 1 15.0516 1.32642 16.4004 1.91573C16.9065 2.13685 17.1375 2.72637 16.9164 3.23246C16.6952 3.73855 16.1057 3.96956 15.5996 3.74844C14.4986 3.26737 13.2818 3 12 3ZM8.37131 9.2414C8.24489 9.39013 8.08236 9.68724 7.98058 10.1961C7.87227 10.7377 7.34544 11.0889 6.80388 10.9806C6.26232 10.8723 5.91111 10.3454 6.01942 9.80388C6.29587 8.42164 7.12415 7.125 8.5 7.125C9.87584 7.125 10.7041 8.42164 10.9806 9.80388C11.0889 10.3454 10.7377 10.8723 10.1961 10.9806C9.65456 11.0889 9.12773 10.7377 9.01942 10.1961C8.91764 9.68724 8.75511 9.39013 8.62869 9.2414C8.56618 9.16787 8.52202 9.13918 8.5 9.12867C8.47798 9.13918 8.43382 9.16787 8.37131 9.2414ZM8.51599 9.12312C8.51601 9.12321 8.51565 9.12338 8.51492 9.12359C8.51397 9.12386 8.51237 9.12419 8.51011 9.12446C8.51397 9.12315 8.51596 9.12291 8.51599 9.12312ZM8.48989 9.12446C8.48591 9.12398 8.48398 9.12333 8.48401 9.12312C8.48404 9.12291 8.48603 9.12315 8.48989 9.12446ZM15.3713 9.2414C15.2449 9.39013 15.0824 9.68724 14.9806 10.1961C14.8723 10.7377 14.3454 11.0889 13.8039 10.9806C13.2623 10.8723 12.9111 10.3454 13.0194 9.80388C13.2959 8.42164 14.1242 7.125 15.5 7.125C16.8758 7.125 17.7041 8.42164 17.9806 9.80388C18.0889 10.3454 17.7377 10.8723 17.1961 10.9806C16.6546 11.0889 16.1277 10.7377 16.0194 10.1961C15.9176 9.68724 15.7551 9.39013 15.6287 9.2414C15.5662 9.16787 15.522 9.13918 15.5 9.12867C15.478 9.13918 15.4338 9.16787 15.3713 9.2414ZM15.516 9.12312C15.516 9.12333 15.5141 9.12397 15.5101 9.12445C15.514 9.12315 15.516 9.12291 15.516 9.12312ZM15.4899 9.12446C15.4859 9.12398 15.484 9.12333 15.484 9.12312C15.484 9.12291 15.486 9.12315 15.4899 9.12446ZM6.47681 13.0092C6.13133 12.962 5.78621 13.0982 5.56602 13.3685C5.34583 13.6389 5.28239 14.0045 5.39859 14.3332C6.35907 17.0507 8.95061 19 12 19C15.0494 19 17.641 17.0507 18.6014 14.3332C18.7177 14.0045 18.6542 13.6389 18.434 13.3685C18.2138 13.0982 17.8687 12.962 17.5232 13.0092H6.47681ZM21 6.49995C21 7.32837 20.3284 7.99995 19.5 7.99995C18.6716 7.99995 18 7.32837 18 6.49995C18 5.29746 18.964 3.77366 19.3464 3.21648C19.4218 3.10655 19.5782 3.10655 19.6536 3.21648C20.036 3.77366 21 5.29746 21 6.49995ZM17.5232 13.0092L17.5232 13.0092L17.5228 13.0093L17.5211 13.0095L17.5138 13.0105L17.484 13.0145L17.3671 13.03C17.265 13.0435 17.1163 13.0627 16.9314 13.0859C16.5615 13.1322 16.0477 13.194 15.4726 13.2557C14.3091 13.3806 12.9414 13.5 12 13.5C11.0586 13.5 9.6909 13.3806 8.52744 13.2557C7.95236 13.194 7.43857 13.1322 7.06862 13.0859C6.88375 13.0627 6.73507 13.0435 6.63295 13.03L6.51603 13.0145L6.48623 13.0105L6.47892 13.0095L6.47722 13.0093L6.47686 13.0092L6.47684 13.0092H17.5232ZM15.817 15.2301L15.686 15.2443C14.5202 15.3694 13.0586 15.5 12 15.5C10.9414 15.5 9.47984 15.3694 8.31401 15.2443L8.18303 15.2301C9.10066 16.3132 10.4708 17 12 17C13.5293 17 14.8994 16.3132 15.817 15.2301Z" fill="black"/>
</svg>
