<svg width="24" height="24" viewBox="0 0 24 24" fill="none" xmlns="http://www.w3.org/2000/svg">
<path fill-rule="evenodd" clip-rule="evenodd" d="M12 3C7.02944 3 3 7.02944 3 12C3 16.9706 7.02944 21 12 21C16.9706 21 21 16.9706 21 12C21 7.02944 16.9706 3 12 3ZM1 12C1 5.92487 5.92487 1 12 1C18.0751 1 23 5.92487 23 12C23 18.0751 18.0751 23 12 23C5.92487 23 1 18.0751 1 12ZM6.47681 13.0092C6.13133 12.962 5.78621 13.0982 5.56602 13.3685C5.34583 13.6389 5.28239 14.0045 5.39859 14.3332C6.35907 17.0507 8.95061 19 12 19C15.0494 19 17.641 17.0507 18.6014 14.3332C18.7177 14.0045 18.6542 13.6389 18.434 13.3685C18.2138 13.0982 17.8687 12.962 17.5232 13.0092H6.47681ZM8.5 11C9.32843 11 10 9.88071 10 8.5C10 7.11929 9.32843 6 8.5 6C7.67157 6 7 7.11929 7 8.5C7 9.88071 7.67157 11 8.5 11ZM17.5232 13.0092L17.5232 13.0092L17.5228 13.0093L17.5211 13.0095L17.5138 13.0105L17.484 13.0145L17.3671 13.03C17.265 13.0435 17.1163 13.0627 16.9314 13.0859C16.5615 13.1322 16.0477 13.194 15.4726 13.2557C14.3091 13.3806 12.9414 13.5 12 13.5C11.0586 13.5 9.6909 13.3806 8.52744 13.2557C7.95236 13.194 7.43857 13.1322 7.06862 13.0859C6.88375 13.0627 6.73507 13.0435 6.63295 13.03L6.51603 13.0145L6.48623 13.0105L6.47892 13.0095L6.47722 13.0093L6.47686 13.0092L6.47684 13.0092H17.5232ZM15.817 15.2301L15.686 15.2443C14.5202 15.3694 13.0586 15.5 12 15.5C10.9414 15.5 9.47984 15.3694 8.31401 15.2443L8.18303 15.2301C9.10066 16.3132 10.4708 17 12 17C13.5293 17 14.8994 16.3132 15.817 15.2301ZM15.5 11C16.3284 11 17 9.88071 17 8.5C17 7.11929 16.3284 6 15.5 6C14.6716 6 14 7.11929 14 8.5C14 9.88071 14.6716 11 15.5 11Z" fill="black"/>
</svg>
