<svg width="24" height="24" viewBox="0 0 24 24" fill="none" xmlns="http://www.w3.org/2000/svg">
<path fill-rule="evenodd" clip-rule="evenodd" d="M3 12C3 7.02944 7.02944 3 12 3C16.9706 3 21 7.02944 21 12C21 16.9706 16.9706 21 12 21C7.02944 21 3 16.9706 3 12ZM12 1C5.92487 1 1 5.92487 1 12C1 18.0751 5.92487 23 12 23C18.0751 23 23 18.0751 23 12C23 5.92487 18.0751 1 12 1ZM7.5547 10.8321C7.7064 10.7309 8.04947 10.625 8.5 10.625C8.95053 10.625 9.2936 10.7309 9.4453 10.8321C9.90483 11.1384 10.5257 11.0142 10.8321 10.5547C11.1384 10.0952 11.0142 9.4743 10.5547 9.16795C9.9564 8.76908 9.17447 8.625 8.5 8.625C7.82553 8.625 7.0436 8.76908 6.4453 9.16795C5.98577 9.4743 5.8616 10.0952 6.16795 10.5547C6.4743 11.0142 7.09517 11.1384 7.5547 10.8321ZM14.5547 10.8321C14.7064 10.7309 15.0495 10.625 15.5 10.625C15.9505 10.625 16.2936 10.7309 16.4453 10.8321C16.9048 11.1384 17.5257 11.0142 17.8321 10.5547C18.1384 10.0952 18.0142 9.4743 17.5547 9.16795C16.9564 8.76908 16.1745 8.625 15.5 8.625C14.8255 8.625 14.0436 8.76908 13.4453 9.16795C12.9858 9.4743 12.8616 10.0952 13.1679 10.5547C13.4743 11.0142 14.0952 11.1384 14.5547 10.8321ZM11.5755 14.7122C11.5971 14.6432 11.724 14.5 11.984 14.5C12.1277 14.5 12.2426 14.5481 12.3135 14.6063C12.3834 14.6636 12.3984 14.7169 12.3984 14.75C12.3984 14.7831 12.3834 14.8364 12.3135 14.8937C12.2426 14.9519 12.1277 15 11.984 15C11.7079 15 11.484 15.2239 11.484 15.5C11.484 15.7761 11.7079 16 11.984 16C12.1687 16 12.316 16.0559 12.4055 16.1219C12.495 16.1881 12.5 16.239 12.5 16.25C12.5 16.261 12.495 16.3119 12.4055 16.3781C12.316 16.4441 12.1687 16.5 11.984 16.5C11.6432 16.5 11.4918 16.3292 11.4721 16.2729C11.3812 16.0121 11.0961 15.8745 10.8354 15.9654C10.5746 16.0563 10.437 16.3414 10.5279 16.6021C10.7338 17.1928 11.3779 17.5 11.984 17.5C12.3604 17.5 12.7211 17.388 12.9994 17.1826C13.2775 16.9773 13.5 16.6532 13.5 16.25C13.5 15.9273 13.3575 15.6553 13.158 15.4543C13.3068 15.2629 13.3984 15.0257 13.3984 14.75C13.3984 13.9715 12.6679 13.5 11.984 13.5C11.3918 13.5 10.8027 13.8349 10.6213 14.4128C10.5387 14.6763 10.6852 14.9569 10.9487 15.0396C11.2122 15.1222 11.4928 14.9757 11.5755 14.7122Z" fill="black"/>
</svg>
