<svg width="24" height="24" viewBox="0 0 24 24" fill="none" xmlns="http://www.w3.org/2000/svg">
<path fill-rule="evenodd" clip-rule="evenodd" d="M12 3C7.02944 3 3 7.02944 3 12C3 16.9706 7.02944 21 12 21C16.9706 21 21 16.9706 21 12C21 7.02944 16.9706 3 12 3ZM1 12C1 5.92487 5.92487 1 12 1C18.0751 1 23 5.92487 23 12C23 18.0751 18.0751 23 12 23C5.92487 23 1 18.0751 1 12ZM10 9.5C10 10.3284 9.32843 11 8.5 11C7.67157 11 7 10.3284 7 9.5C7 8.67157 7.67157 8 8.5 8C9.32843 8 10 8.67157 10 9.5ZM17 9.5C17 10.3284 16.3284 11 15.5 11C14.6716 11 14 10.3284 14 9.5C14 8.67157 14.6716 8 15.5 8C16.3284 8 17 8.67157 17 9.5ZM11.5755 14.7122C11.5971 14.6432 11.724 14.5 11.984 14.5C12.1277 14.5 12.2426 14.5481 12.3135 14.6063C12.3834 14.6636 12.3984 14.7169 12.3984 14.75C12.3984 14.7831 12.3834 14.8364 12.3135 14.8937C12.2426 14.9519 12.1277 15 11.984 15C11.7079 15 11.484 15.2239 11.484 15.5C11.484 15.7761 11.7079 16 11.984 16C12.1687 16 12.316 16.0559 12.4055 16.1219C12.495 16.1881 12.5 16.239 12.5 16.25C12.5 16.261 12.495 16.3119 12.4055 16.3781C12.316 16.4441 12.1687 16.5 11.984 16.5C11.6432 16.5 11.4918 16.3292 11.4721 16.2729C11.3812 16.0121 11.0961 15.8745 10.8354 15.9654C10.5746 16.0563 10.437 16.3414 10.5279 16.6021C10.7338 17.1928 11.3779 17.5 11.984 17.5C12.3604 17.5 12.7211 17.388 12.9994 17.1826C13.2775 16.9773 13.5 16.6532 13.5 16.25C13.5 15.9273 13.3575 15.6553 13.158 15.4543C13.3068 15.2629 13.3984 15.0257 13.3984 14.75C13.3984 13.9715 12.6679 13.5 11.984 13.5C11.3918 13.5 10.8027 13.8349 10.6213 14.4128C10.5387 14.6763 10.6852 14.9569 10.9487 15.0396C11.2122 15.1222 11.4928 14.9757 11.5755 14.7122Z" fill="black"/>
</svg>
