<svg width="24" height="24" viewBox="0 0 24 24" fill="none" xmlns="http://www.w3.org/2000/svg">
<path fill-rule="evenodd" clip-rule="evenodd" d="M3 12C3 7.02944 7.02944 3 12 3C16.9706 3 21 7.02944 21 12C21 16.9706 16.9706 21 12 21C7.02944 21 3 16.9706 3 12ZM12 1C5.92487 1 1 5.92487 1 12C1 18.0751 5.92487 23 12 23C18.0751 23 23 18.0751 23 12C23 5.92487 18.0751 1 12 1ZM7.98058 10.1961C8.08236 9.68724 8.24489 9.39013 8.37131 9.2414C8.43382 9.16787 8.47798 9.13918 8.5 9.12867C8.52202 9.13918 8.56618 9.16787 8.62869 9.2414C8.75511 9.39013 8.91764 9.68724 9.01942 10.1961C9.12773 10.7377 9.65456 11.0889 10.1961 10.9806C10.7377 10.8723 11.0889 10.3454 10.9806 9.80388C10.7041 8.42164 9.87584 7.125 8.5 7.125C7.12415 7.125 6.29587 8.42164 6.01942 9.80388C5.91111 10.3454 6.26232 10.8723 6.80388 10.9806C7.34544 11.0889 7.87227 10.7377 7.98058 10.1961ZM8.51492 9.12359C8.51565 9.12338 8.51601 9.12321 8.51599 9.12312C8.51596 9.12291 8.51397 9.12315 8.51011 9.12446C8.51237 9.12419 8.51397 9.12386 8.51492 9.12359ZM8.48989 9.12446C8.48591 9.12398 8.48398 9.12333 8.48401 9.12312C8.48404 9.12291 8.48603 9.12315 8.48989 9.12446ZM14.9806 10.1961C15.0824 9.68724 15.2449 9.39013 15.3713 9.2414C15.4338 9.16787 15.478 9.13918 15.5 9.12867C15.522 9.13918 15.5662 9.16787 15.6287 9.2414C15.7551 9.39013 15.9176 9.68724 16.0194 10.1961C16.1277 10.7377 16.6546 11.0889 17.1961 10.9806C17.7377 10.8723 18.0889 10.3454 17.9806 9.80388C17.7041 8.42164 16.8758 7.125 15.5 7.125C14.1242 7.125 13.2959 8.42164 13.0194 9.80388C12.9111 10.3454 13.2623 10.8723 13.8039 10.9806C14.3454 11.0889 14.8723 10.7377 14.9806 10.1961ZM15.516 9.12312C15.516 9.12333 15.5141 9.12397 15.5101 9.12445C15.514 9.12315 15.516 9.12291 15.516 9.12312ZM15.4899 9.12446C15.4859 9.12398 15.484 9.12333 15.484 9.12312C15.484 9.12291 15.486 9.12315 15.4899 9.12446ZM11.5755 14.7122C11.5971 14.6432 11.724 14.5 11.984 14.5C12.1277 14.5 12.2426 14.5481 12.3135 14.6063C12.3834 14.6636 12.3984 14.7169 12.3984 14.75C12.3984 14.7831 12.3834 14.8364 12.3135 14.8937C12.2426 14.9519 12.1277 15 11.984 15C11.7079 15 11.484 15.2239 11.484 15.5C11.484 15.7761 11.7079 16 11.984 16C12.1687 16 12.316 16.0559 12.4055 16.1219C12.495 16.1881 12.5 16.239 12.5 16.25C12.5 16.261 12.495 16.3119 12.4055 16.3781C12.316 16.4441 12.1687 16.5 11.984 16.5C11.6432 16.5 11.4918 16.3292 11.4721 16.2729C11.3812 16.0121 11.0961 15.8745 10.8354 15.9654C10.5746 16.0563 10.437 16.3414 10.5279 16.6021C10.7338 17.1928 11.3779 17.5 11.984 17.5C12.3604 17.5 12.7211 17.388 12.9994 17.1826C13.2775 16.9773 13.5 16.6532 13.5 16.25C13.5 15.9273 13.3575 15.6553 13.158 15.4543C13.3068 15.2629 13.3984 15.0257 13.3984 14.75C13.3984 13.9715 12.6679 13.5 11.984 13.5C11.3918 13.5 10.8027 13.8349 10.6213 14.4128C10.5387 14.6763 10.6852 14.9569 10.9487 15.0396C11.2122 15.1222 11.4928 14.9757 11.5755 14.7122Z" fill="black"/>
</svg>
