<svg width="24" height="24" viewBox="0 0 24 24" fill="none" xmlns="http://www.w3.org/2000/svg">
<path fill-rule="evenodd" clip-rule="evenodd" d="M3 12C3 7.02944 7.02944 3 12 3C16.9706 3 21 7.02944 21 12C21 16.9706 16.9706 21 12 21C7.02944 21 3 16.9706 3 12ZM12 1C5.92487 1 1 5.92487 1 12C1 18.0751 5.92487 23 12 23C18.0751 23 23 18.0751 23 12C23 5.92487 18.0751 1 12 1ZM9.99051 5.82287C9.15998 5.75504 8.10323 5.98317 7.17129 6.30401C6.22755 6.62892 5.23933 7.10857 4.56047 7.67142C4.13531 8.02392 4.07641 8.65434 4.42891 9.0795C4.78141 9.50466 5.41183 9.56356 5.83699 9.21106C6.25959 8.86068 6.9997 8.4783 7.82235 8.19508C8.65682 7.90778 9.40453 7.78167 9.82774 7.81623C10.3782 7.86118 10.8609 7.45139 10.9058 6.90094C10.9508 6.35048 10.541 5.86781 9.99051 5.82287ZM14.2801 7.81626C14.7033 7.7817 15.451 7.90782 16.2855 8.19511C17.1082 8.47833 17.8483 8.86072 18.2709 9.21109C18.696 9.5636 19.3264 9.5047 19.6789 9.07954C20.0314 8.65438 19.9725 8.02396 19.5474 7.67146C18.8685 7.1086 17.8803 6.62896 16.9366 6.30404C16.0046 5.9832 14.9479 5.75508 14.1173 5.8229C13.5669 5.86785 13.1571 6.35052 13.202 6.90097C13.247 7.45142 13.7297 7.86121 14.2801 7.81626ZM20 14.5C20 13.7971 19.4169 13.2345 18.7145 13.2596L11.9643 13.5006C11.4263 13.5199 11 13.9616 11 14.5C11 15.0384 11.4263 15.4801 11.9643 15.4994L18.7145 15.7404C19.4169 15.7655 20 15.2029 20 14.5ZM12 16C10.8272 16 9.92507 16.2944 9.30279 16.6056C8.99328 16.7603 8.75496 16.9182 8.5875 17.0438C8.5037 17.1066 8.43735 17.1616 8.38837 17.2045C8.36387 17.2259 8.34368 17.2443 8.32778 17.2592L8.30713 17.2789L8.29922 17.2866L8.29585 17.2899L8.29432 17.2915L8.2936 17.2922C8.29324 17.2925 8.29289 17.2929 9 18L8.29289 17.2929C7.90237 17.6834 7.90237 18.3166 8.29289 18.7071C8.68007 19.0943 9.30575 19.0976 9.69702 18.7171L9.70538 18.7096C9.7189 18.6978 9.7463 18.6747 9.7875 18.6437C9.87004 18.5818 10.0067 18.4897 10.1972 18.3944C10.5749 18.2056 11.1728 18 12 18C12.5523 18 13 17.5523 13 17C13 16.4477 12.5523 16 12 16ZM8.5 13C9.32843 13 10 12.1046 10 11C10 9.89543 9.32843 9 8.5 9C7.67157 9 7 9.89543 7 11C7 12.1046 7.67157 13 8.5 13ZM15.5 13C16.3284 13 17 12.1046 17 11C17 9.89543 16.3284 9 15.5 9C14.6716 9 14 9.89543 14 11C14 12.1046 14.6716 13 15.5 13Z" fill="black"/>
</svg>
