<svg width="24" height="24" viewBox="0 0 24 24" fill="none" xmlns="http://www.w3.org/2000/svg">
<path fill-rule="evenodd" clip-rule="evenodd" d="M3.30268 1.04692C2.98825 0.947063 2.64481 1.00871 2.38474 1.21169C2.12467 1.41467 1.98144 1.73286 2.00194 2.06212L2.48976 9.901C2.17163 10.8779 2 11.9198 2 13C2 18.5229 6.47716 23 12 23C17.5229 23 22 18.5229 22 13C22 7.47716 17.5229 3.00001 12 3.00001C11.3339 3.00001 10.6822 3.06527 10.051 3.19002L3.30268 1.04692ZM7.02069 4.32609C5.97731 4.92621 5.05262 5.70904 4.29014 6.6311L4.08875 3.39498L7.02069 4.32609ZM10.2213 5.19824C10.7924 5.06864 11.3876 5.00001 12 5.00001C16.4183 5.00001 20 8.58173 20 13C20 17.4183 16.4183 21 12 21C7.58173 21 4 17.4183 4 13C4 12.0747 4.15671 11.188 4.4442 10.3639C5.21978 8.14064 6.95103 6.36274 9.14466 5.52433C9.49251 5.39137 9.85203 5.28203 10.2213 5.19824ZM8.48059 11.3961C8.56986 10.9498 8.71052 10.6995 8.81038 10.582C8.8255 10.5643 8.83873 10.5504 8.85 10.5396C8.86127 10.5504 8.87451 10.5643 8.88963 10.582C8.98949 10.6995 9.13015 10.9498 9.21942 11.3961C9.32774 11.9377 9.85456 12.2889 10.3961 12.1806C10.9377 12.0723 11.2889 11.5455 11.1806 11.0039C10.9291 9.74665 10.1634 8.51251 8.85 8.51251C7.53666 8.51251 6.77087 9.74665 6.51942 11.0039C6.41111 11.5455 6.76233 12.0723 7.30389 12.1806C7.84545 12.2889 8.37227 11.9377 8.48059 11.3961ZM8.89638 10.5047C8.89641 10.5049 8.89461 10.5059 8.89093 10.5072C8.89452 10.5052 8.89636 10.5045 8.89638 10.5047ZM8.80908 10.5072C8.8054 10.5059 8.8036 10.5049 8.80362 10.5047C8.80365 10.5045 8.80549 10.5052 8.80908 10.5072ZM14.7806 11.3961C14.8699 10.9498 15.0105 10.6995 15.1104 10.582C15.1255 10.5643 15.1387 10.5504 15.15 10.5396C15.1613 10.5504 15.1745 10.5643 15.1896 10.582C15.2895 10.6995 15.4301 10.9498 15.5194 11.3961C15.6277 11.9377 16.1546 12.2889 16.6961 12.1806C17.2377 12.0723 17.5889 11.5455 17.4806 11.0039C17.2291 9.74665 16.4634 8.51251 15.15 8.51251C13.8367 8.51251 13.0709 9.74665 12.8194 11.0039C12.7111 11.5455 13.0623 12.0723 13.6039 12.1806C14.1454 12.2889 14.6723 11.9377 14.7806 11.3961ZM15.1964 10.5047C15.1964 10.5049 15.1946 10.5059 15.1909 10.5072C15.1945 10.5052 15.1964 10.5045 15.1964 10.5047ZM15.1091 10.5072C15.1054 10.5059 15.1036 10.5049 15.1036 10.5047C15.1036 10.5045 15.1055 10.5052 15.1091 10.5072ZM17 14C16.1716 14 15.5 14.6716 15.5 15.5V16H13.372C13.3892 15.9207 13.3984 15.8373 13.3984 15.75C13.3984 14.9715 12.6679 14.5 11.984 14.5C11.3918 14.5 10.8027 14.8349 10.6213 15.4128C10.5387 15.6763 10.6852 15.9569 10.9487 16.0396C11.2122 16.1223 11.4928 15.9757 11.5755 15.7122C11.5971 15.6432 11.724 15.5 11.984 15.5C12.1277 15.5 12.2426 15.5481 12.3135 15.6063C12.3834 15.6636 12.3984 15.717 12.3984 15.75C12.3984 15.7831 12.3834 15.8364 12.3135 15.8937C12.2426 15.9519 12.1277 16 11.984 16C11.7079 16 11.484 16.2239 11.484 16.5C11.484 16.7762 11.7079 17 11.984 17C12.1687 17 12.3161 17.0559 12.4055 17.122C12.4951 17.1881 12.5 17.239 12.5 17.25C12.5 17.261 12.4951 17.3119 12.4055 17.3781C12.3161 17.4441 12.1687 17.5 11.984 17.5C11.6433 17.5 11.4918 17.3292 11.4721 17.2729C11.3812 17.0121 11.0961 16.8745 10.8354 16.9654C10.5746 17.0563 10.437 17.3414 10.5279 17.6021C10.7338 18.1928 11.3779 18.5 11.984 18.5C12.3605 18.5 12.7211 18.388 12.9994 18.1826C13.2775 17.9773 13.5 17.6532 13.5 17.25C13.5 17.1628 13.4896 17.0794 13.4705 17H16H17C17.8284 17 18.5 16.3284 18.5 15.5C18.5 14.6716 17.8284 14 17 14ZM17 16H16.5V15.5C16.5 15.2239 16.7239 15 17 15C17.2761 15 17.5 15.2239 17.5 15.5C17.5 15.7762 17.2761 16 17 16Z" fill="black"/>
</svg>
