<svg width="24" height="24" viewBox="0 0 24 24" fill="none" xmlns="http://www.w3.org/2000/svg">
<path fill-rule="evenodd" clip-rule="evenodd" d="M12 3C7.02944 3 3 7.02944 3 12C3 16.9706 7.02944 21 12 21C16.9706 21 21 16.9706 21 12C21 7.02944 16.9706 3 12 3ZM1 12C1 5.92487 5.92487 1 12 1C18.0751 1 23 5.92487 23 12C23 18.0751 18.0751 23 12 23C5.92487 23 1 18.0751 1 12ZM10.5905 7.03455C10.9787 7.42733 10.9751 8.06048 10.5823 8.44874C9.98966 9.03455 9.03351 9.53906 8.11337 9.89232C7.18157 10.25 6.11624 10.5178 5.23441 10.523C4.68213 10.5263 4.23179 10.0812 4.22853 9.52893C4.22528 8.97666 4.67035 8.52631 5.22262 8.52306C5.77157 8.51982 6.58432 8.33702 7.39656 8.02519C8.22046 7.70888 8.87431 7.32487 9.17629 7.02636C9.56907 6.6381 10.2022 6.64177 10.5905 7.03455ZM13.5173 7.03455C13.9056 6.64177 14.5387 6.6381 14.9315 7.02636C15.2335 7.32487 15.8873 7.70888 16.7113 8.02519C17.5235 8.33702 18.3362 8.51982 18.8852 8.52306C19.4375 8.52631 19.8825 8.97666 19.8793 9.52893C19.876 10.0812 19.4257 10.5263 18.8734 10.523C17.9916 10.5178 16.9262 10.25 15.9944 9.89232C15.0743 9.53906 14.1181 9.03455 13.5255 8.44874C13.1327 8.06048 13.1291 7.42733 13.5173 7.03455ZM11.3195 17.0608C11.5279 17.0225 11.755 17 12 17C12.245 17 12.4721 17.0225 12.6805 17.0608C13.2237 17.1604 13.5833 17.6816 13.4836 18.2248C13.3839 18.768 12.8627 19.1276 12.3195 19.0279C12.2282 19.0112 12.122 19 12 19C11.878 19 11.7718 19.0112 11.6805 19.0279C11.1373 19.1276 10.6161 18.768 10.5164 18.2248C10.4167 17.6816 10.7763 17.1604 11.3195 17.0608ZM11 13C11 14.3807 9.88071 15.5 8.5 15.5C7.11929 15.5 6 14.3807 6 13C6 11.6193 7.11929 10.5 8.5 10.5C9.88071 10.5 11 11.6193 11 13ZM9.07842 11.4393C9.46895 11.8299 9.31066 12.6213 8.72487 13.2071C8.13908 13.7929 7.34763 13.9512 6.9571 13.5606C6.56658 13.1701 6.72487 12.3787 7.31066 11.7929C7.89644 11.2071 8.6879 11.0488 9.07842 11.4393ZM9 14C9 14.2762 9.22386 14.5 9.5 14.5C9.77614 14.5 10 14.2762 10 14C10 13.7239 9.77614 13.5 9.5 13.5C9.22386 13.5 9 13.7239 9 14ZM18 13C18 14.3807 16.8807 15.5 15.5 15.5C14.1193 15.5 13 14.3807 13 13C13 11.6193 14.1193 10.5 15.5 10.5C16.8807 10.5 18 11.6193 18 13ZM16.0784 11.4393C16.4689 11.8299 16.3107 12.6213 15.7249 13.2071C15.1391 13.7929 14.3476 13.9512 13.9571 13.5606C13.5666 13.1701 13.7249 12.3787 14.3107 11.7929C14.8964 11.2071 15.6879 11.0488 16.0784 11.4393ZM16 14C16 14.2762 16.2239 14.5 16.5 14.5C16.7761 14.5 17 14.2762 17 14C17 13.7239 16.7761 13.5 16.5 13.5C16.2239 13.5 16 13.7239 16 14Z" fill="black"/>
</svg>
