<svg width="24" height="24" viewBox="0 0 24 24" fill="none" xmlns="http://www.w3.org/2000/svg">
<path d="M4.44086 15C4.44091 18 5.22956 22 9.7825 22C11.9192 22 13.1373 21.3599 14.59 20C15.6584 19 17.2609 15 21 14C21 12 18.3292 12 17.2609 12.5C16.885 12.6759 16.4431 12.9756 16.028 13.2902C15.4733 13.7106 14.59 13.3576 14.59 12.6894V4.64375C14.59 4.01207 14.0429 3.5 13.3681 3.5C12.7091 3.5 12.1688 3.98914 12.1469 4.60564L11.9191 11L11.4552 3.1823C11.4158 2.51899 10.8297 2 10.12 2C9.35519 2 8.74619 2.59927 8.78438 3.31424L9.24839 12L8.32525 4.87118C8.24483 4.25017 7.6451 3.80564 6.98088 3.87472C6.31456 3.94402 5.83317 4.50411 5.90355 5.12819L6.79124 13L5.5049 8.58501C5.32748 7.97609 4.67311 7.6027 4.01359 7.73404C3.29192 7.87776 2.8506 8.5627 3.0466 9.22852C3.56334 10.9839 4.44085 14.0977 4.44086 15Z" stroke="black" stroke-width="2" stroke-linecap="round" stroke-linejoin="round"/>
</svg>
