<svg width="24" height="24" viewBox="0 0 24 24" fill="none" xmlns="http://www.w3.org/2000/svg">
<g clip-path="url(#clip0_2012_12319)">
<path d="M5.55947 10.5946C8.84056 9.27762 9.84056 11.0097 7.05947 13.1927M15.5032 8.31769C12.2221 9.63467 11.2221 7.90262 14.0032 5.71961M20.6604 7.0001C23.4218 11.783 21.783 17.8989 17.0001 20.6604C12.2172 23.4218 6.10127 21.783 3.33984 17.0001C0.57842 12.2172 2.21717 6.10127 7.0001 3.33984C11.783 0.57842 17.8989 2.21717 20.6604 7.0001Z" stroke="black" stroke-width="2" stroke-linecap="round" stroke-linejoin="round"/>
<path d="M9.83203 15.5613C11.1671 16.8086 13.0377 17.1746 14.5005 16.3301C15.9633 15.4855 16.5816 13.6826 16.1689 11.9027C16.1689 11.9027 14.3078 13.4102 13.188 14.0567C12.0681 14.7033 9.83203 15.5613 9.83203 15.5613Z" stroke="black" stroke-width="2" stroke-linecap="round" stroke-linejoin="round"/>
<path d="M20.2914 12.0709C20.8771 11.4851 20.8771 10.5353 20.2914 9.94953C19.4411 9.09925 17.682 8.70339 17.0176 8.57981C16.8865 8.55542 16.7759 8.66598 16.8003 8.79707C16.9239 9.46144 17.3198 11.2206 18.17 12.0709C18.7558 12.6566 19.7056 12.6566 20.2914 12.0709Z" fill="black"/>
<path d="M7.9423 19.2004C8.7425 18.986 9.21737 18.1635 9.00296 17.3633C8.69173 16.2018 7.36621 14.9794 6.85264 14.5402C6.75131 14.4535 6.60028 14.494 6.55586 14.6197C6.33069 15.2569 5.79395 16.9782 6.10518 18.1398C6.31959 18.94 7.1421 19.4148 7.9423 19.2004Z" fill="black"/>
</g>
<defs>
<clipPath id="clip0_2012_12319">
<rect width="24" height="24" fill="white"/>
</clipPath>
</defs>
</svg>
