<svg width="24" height="24" viewBox="0 0 24 24" fill="none" xmlns="http://www.w3.org/2000/svg">
<path fill-rule="evenodd" clip-rule="evenodd" d="M3 12C3 7.02944 7.02944 3 12 3C16.9706 3 21 7.02944 21 12C21 16.9706 16.9706 21 12 21C7.02944 21 3 16.9706 3 12ZM12 1C5.92487 1 1 5.92487 1 12C1 18.0751 5.92487 23 12 23C18.0751 23 23 18.0751 23 12C23 5.92487 18.0751 1 12 1ZM8.4364 14.6491C8.24258 14.1319 7.66622 13.8698 7.14906 14.0636C6.6319 14.2574 6.36978 14.8338 6.5636 15.3509C7.37059 17.5042 9.52186 19 12 19C14.4781 19 16.6294 17.5042 17.4364 15.3509C17.6302 14.8338 17.3681 14.2574 16.8509 14.0636C16.3338 13.8698 15.7574 14.1319 15.5636 14.6491C15.0605 15.9914 13.6769 17 12 17C10.3231 17 8.93947 15.9914 8.4364 14.6491ZM8.5 11C9.32843 11 10 10.3284 10 9.5C10 8.67157 9.32843 8 8.5 8C7.67157 8 7 8.67157 7 9.5C7 10.3284 7.67157 11 8.5 11ZM15.5 11C16.3284 11 17 10.3284 17 9.5C17 8.67157 16.3284 8 15.5 8C14.6716 8 14 8.67157 14 9.5C14 10.3284 14.6716 11 15.5 11Z" fill="black"/>
</svg>
