<svg width="24" height="24" viewBox="0 0 24 24" fill="none" xmlns="http://www.w3.org/2000/svg">
<path d="M14 10.5C14.75 11.1667 16.25 11.1667 17 10.5M7 10.5C7.75 11.1667 9.25 11.1667 10 10.5M22 12C22 17.5228 17.5228 22 12 22C6.47715 22 2 17.5228 2 12C2 6.47715 6.47715 2 12 2C17.5228 2 22 6.47715 22 12ZM12 15C12.4596 15 12.8665 15.0528 13.2205 15.1342C14.297 15.3816 14.297 16.6184 13.2205 16.8658C12.8665 16.9472 12.4596 17 12 17C11.5404 17 11.1335 16.9472 10.7795 16.8658C9.70304 16.6184 9.70304 15.3816 10.7795 15.1342C11.1335 15.0528 11.5404 15 12 15Z" stroke="black" stroke-width="2" stroke-linecap="round" stroke-linejoin="round"/>
<path d="M19.1984 15.2592C19.5078 14.4907 19.1186 13.61 18.3289 13.292C17.1827 12.8305 15.3702 13.1398 14.6963 13.2807C14.5633 13.3085 14.5049 13.4535 14.5815 13.5657C14.9698 14.1343 16.0621 15.6133 17.2083 16.0749C17.998 16.3928 18.8889 16.0277 19.1984 15.2592Z" fill="black"/>
</svg>
