<svg width="24" height="24" viewBox="0 0 24 24" fill="none" xmlns="http://www.w3.org/2000/svg">
<path d="M8 12.4C8.4 10.4 10 10.4 10.4 12.4M13.6 12.4C14 10.4 15.6 10.4 16 12.4M8.6 15.6C9.09491 17.029 10.4303 18.0528 12 18.0528C13.5697 18.0528 14.9051 17.029 15.4 15.6M18.9297 10C19.6104 11.1767 20 12.5429 20 14C20 18.4183 16.4183 22 12 22C7.58172 22 4 18.4183 4 14C4 12.5429 4.38958 11.1767 5.07026 10M20 5C20 6.65685 16.4183 8 12 8C7.58172 8 4 6.65685 4 5C4 3.34315 7.58172 2 12 2C16.4183 2 20 3.34315 20 5Z" stroke="black" stroke-width="2" stroke-linecap="round" stroke-linejoin="round"/>
</svg>
