<svg width="24" height="24" viewBox="0 0 24 24" fill="none" xmlns="http://www.w3.org/2000/svg">
<path fill-rule="evenodd" clip-rule="evenodd" d="M12 3C7.02944 3 3 7.02944 3 12C3 16.9706 7.02944 21 12 21C16.9706 21 21 16.9706 21 12C21 7.02944 16.9706 3 12 3ZM1 12C1 5.92487 5.92487 1 12 1C18.0751 1 23 5.92487 23 12C23 18.0751 18.0751 23 12 23C5.92487 23 1 18.0751 1 12ZM6.47681 13.0092C6.13133 12.962 5.78621 13.0982 5.56602 13.3685C5.34583 13.6389 5.28239 14.0045 5.39859 14.3332C6.35907 17.0507 8.95061 19 12 19C15.0494 19 17.641 17.0507 18.6014 14.3332C18.7177 14.0045 18.6542 13.6389 18.434 13.3685C18.2138 13.0982 17.8687 12.962 17.5232 13.0092H6.47681ZM16.5373 7.4995C16.1454 6.80313 15.3455 6.40976 14.5155 6.6972C13.6004 7.01412 13.1517 7.93756 13.4592 8.81823C13.6954 9.49449 14.5342 10.9948 14.9108 11.6548C15.0158 11.8388 15.2468 11.9229 15.4455 11.8494C16.1583 11.5859 17.7652 10.9758 18.3808 10.6095C19.1824 10.1326 19.4466 9.13512 18.935 8.30575C18.471 7.55363 17.6161 7.33957 16.8704 7.62068C16.7492 7.66636 16.6008 7.61236 16.5373 7.4995ZM17.5232 13.0092L17.5232 13.0092L17.5228 13.0093L17.5211 13.0095L17.5138 13.0105L17.484 13.0145L17.3671 13.03C17.265 13.0435 17.1163 13.0627 16.9314 13.0859C16.5615 13.1322 16.0477 13.194 15.4726 13.2557C14.3091 13.3806 12.9414 13.5 12 13.5C11.0586 13.5 9.6909 13.3806 8.52744 13.2557C7.95236 13.194 7.43857 13.1322 7.06862 13.0859C6.88375 13.0627 6.73507 13.0435 6.63295 13.03L6.51603 13.0145L6.48623 13.0105L6.47892 13.0095L6.47722 13.0093L6.47686 13.0092L6.47684 13.0092H17.5232ZM15.817 15.2301L15.686 15.2443C14.5202 15.3694 13.0586 15.5 12 15.5C10.9414 15.5 9.47984 15.3694 8.31401 15.2443L8.18303 15.2301C9.10066 16.3132 10.4708 17 12 17C13.5293 17 14.8994 16.3132 15.817 15.2301ZM7.12566 7.62204C6.37779 7.34052 5.51219 7.55335 5.06116 8.30703C4.56387 9.13802 4.81372 10.1338 5.61537 10.6108C6.23095 10.9771 7.83785 11.5872 8.55063 11.8507C8.74936 11.9241 8.9803 11.8401 9.08532 11.6561C9.46197 10.9961 10.3008 9.49578 10.5369 8.81952C10.8444 7.93885 10.4056 7.00496 9.4806 6.69849C8.64172 6.42057 7.84927 6.80608 7.45871 7.50075C7.39525 7.61364 7.24686 7.66766 7.12566 7.62204Z" fill="black"/>
</svg>
