<svg width="24" height="24" viewBox="0 0 24 24" fill="none" xmlns="http://www.w3.org/2000/svg">
<path d="M7 10C7.75 9.5 9.25 9.5 10 10M14 10C14.75 9.5 16.25 9.5 17 10M8.34143 14C8.87398 15.1652 10.3109 16 12 16C13.6891 16 15.1261 15.1652 15.6586 14M14 2.20004C13.3538 2.06886 12.6849 2 12 2C6.47715 2 2 6.47715 2 12C2 12.6849 2.06886 13.3538 2.20004 14M21.5422 9C21.8396 9.94704 22 10.9548 22 12C22 13.4222 21.7031 14.7751 21.1679 16M13.5 21.8882C13.0107 21.9618 12.5098 22 12 22C10.9548 22 9.94704 21.8396 9 21.5422" stroke="black" stroke-width="2" stroke-linecap="round" stroke-linejoin="round"/>
<path d="M16.6464 3.37383C17.328 2.81986 18.2142 2.91593 18.8207 3.43625C18.919 3.52057 19.0769 3.52056 19.1751 3.43619C19.7797 2.91699 20.6562 2.82576 21.3495 3.37383C22.1139 3.9782 22.2068 5.00584 21.6166 5.72822C21.1634 6.28294 19.8621 7.40586 19.2824 7.89725C19.1208 8.03425 18.8751 8.03425 18.7134 7.89725C18.1338 7.40586 16.8324 6.28294 16.3793 5.72822C15.7891 5.00584 15.8949 3.98463 16.6464 3.37383Z" fill="black"/>
<path d="M15.6464 18.3738C16.328 17.8199 17.2142 17.9159 17.8207 18.4362C17.919 18.5206 18.0769 18.5206 18.1751 18.4362C18.7797 17.917 19.6562 17.8258 20.3495 18.3738C21.1139 18.9782 21.2068 20.0058 20.6166 20.7282C20.1634 21.2829 18.8621 22.4059 18.2824 22.8972C18.1208 23.0343 17.8751 23.0343 17.7134 22.8972C17.1338 22.4059 15.8324 21.2829 15.3793 20.7282C14.7891 20.0058 14.8949 18.9846 15.6464 18.3738Z" fill="black"/>
<path d="M2.64641 16.3738C3.32802 15.8199 4.21421 15.9159 4.82069 16.4362C4.91898 16.5206 5.07689 16.5206 5.17514 16.4362C5.77974 15.917 6.65625 15.8258 7.34948 16.3738C8.11391 16.9782 8.2068 18.0058 7.61663 18.7282C7.16344 19.2829 5.86212 20.4059 5.28244 20.8972C5.12083 21.0343 4.87506 21.0343 4.71345 20.8972C4.13377 20.4059 2.83245 19.2829 2.37926 18.7282C1.78909 18.0058 1.89489 16.9846 2.64641 16.3738Z" fill="black"/>
</svg>
