<svg width="24" height="24" viewBox="0 0 24 24" fill="none" xmlns="http://www.w3.org/2000/svg">
<path fill-rule="evenodd" clip-rule="evenodd" d="M3 12C3 7.02944 7.02944 3 12 3C16.9706 3 21 7.02944 21 12C21 16.9706 16.9706 21 12 21C7.02944 21 3 16.9706 3 12ZM12 1C5.92487 1 1 5.92487 1 12C1 18.0751 5.92487 23 12 23C18.0751 23 23 18.0751 23 12C23 5.92487 18.0751 1 12 1ZM8.3717 14.51C8.10106 14.0285 7.49139 13.8577 7.00996 14.1283C6.52854 14.3989 6.35766 15.0086 6.6283 15.49C7.53235 17.0982 9.73674 18 12 18C14.2633 18 16.4677 17.0982 17.3717 15.49C17.6423 15.0086 17.4715 14.3989 16.99 14.1283C16.5086 13.8577 15.8989 14.0285 15.6283 14.51C15.2223 15.2322 13.8918 16 12 16C10.1082 16 8.77771 15.2322 8.3717 14.51ZM5.84615 8C5.37884 8 5 8.35178 5 8.78571V10.8571C5 12.0406 6.03319 13 7.30769 13H7.92713C9.41269 13 10.7811 12.1812 11.278 10.8996L11.333 10.7577H12.667L12.722 10.8996C13.2189 12.1812 14.5873 13 16.0729 13H16.6923C17.9668 13 19 12.0406 19 10.8571V8.78571C19 8.35178 18.6212 8 18.1538 8H14.3954C13.5015 8 12.6418 8.55035 12.4247 9.32916H11.5753C11.3582 8.55036 10.4985 8 9.60465 8H5.84615Z" fill="black"/>
</svg>
