<svg width="24" height="24" viewBox="0 0 24 24" fill="none" xmlns="http://www.w3.org/2000/svg">
<path d="M14 10C14.7275 9.63627 15.9841 9.53714 17 9.7026M18 10C17.7275 9.86373 17.3806 9.76459 17 9.7026M8.34143 15C8.34143 15 11.8109 15.5 13.5 15.5C14.5 15.5 15.4675 15.1652 16 14M17 9.7026V11M6 10C6.72745 9.63627 7.98409 9.53714 9 9.7026M9 9.7026C9.38062 9.76459 9.72745 9.86373 10 10M9 9.7026V11M22 12C22 17.5228 17.5228 22 12 22C6.47715 22 2 17.5228 2 12C2 6.47715 6.47715 2 12 2C17.5228 2 22 6.47715 22 12Z" stroke="black" stroke-width="2" stroke-linecap="round" stroke-linejoin="round"/>
</svg>
