<svg width="24" height="24" viewBox="0 0 24 24" fill="none" xmlns="http://www.w3.org/2000/svg">
<path d="M7.125 7.5625C10.625 8.0625 10.625 10.0625 7.125 10.5625M16.875 10.5625C13.375 10.0625 13.375 8.0625 16.875 7.5625M10.5 15.8844C10.9622 15.9599 11.4605 16 12 16C12.5395 16 13.0378 15.9599 13.5 15.8844M10.5 15.8844C8.88558 15.6209 7.71033 14.9257 6.75 14M10.5 15.8844V17.5C10.5 18.3284 11.1716 19 12 19C12.8284 19 13.5 18.3284 13.5 17.5V15.8844M13.5 15.8844C15.1144 15.6209 16.2897 14.9257 17.25 14M22 12C22 17.5228 17.5228 22 12 22C6.47715 22 2 17.5228 2 12C2 6.47715 6.47715 2 12 2C17.5228 2 22 6.47715 22 12Z" stroke="black" stroke-width="2" stroke-linecap="round" stroke-linejoin="round"/>
</svg>
