<svg width="24" height="24" viewBox="0 0 24 24" fill="none" xmlns="http://www.w3.org/2000/svg">
<path fill-rule="evenodd" clip-rule="evenodd" d="M12 3C7.02944 3 3 7.02944 3 12C3 16.9706 7.02944 21 12 21C16.9706 21 21 16.9706 21 12C21 7.02944 16.9706 3 12 3ZM1 12C1 5.92487 5.92487 1 12 1C18.0751 1 23 5.92487 23 12C23 18.0751 18.0751 23 12 23C5.92487 23 1 18.0751 1 12ZM6.47679 13.0092C6.13131 12.962 5.78619 13.0982 5.56601 13.3685C5.34582 13.6389 5.28237 14.0045 5.39858 14.3332C6.35905 17.0507 8.9506 19 12 19C15.0494 19 17.641 17.0507 18.6014 14.3332C18.7176 14.0045 18.6542 13.6389 18.434 13.3685C18.2138 13.0982 17.8687 12.962 17.5232 13.0092H6.47679ZM8.344 6.23102C8.21585 5.92299 7.77937 5.92299 7.65122 6.23102L7.05892 7.65473C7.00524 7.78375 6.88427 7.87223 6.74502 7.88434L5.34318 8.00619C5.02151 8.03415 4.88309 8.42832 5.11669 8.65118L6.18152 9.66699C6.27808 9.7591 6.31842 9.89557 6.28745 10.0254L5.92683 11.5368C5.8494 11.8613 6.20252 12.1177 6.48729 11.9439L7.80206 11.141C7.92212 11.0677 8.07311 11.0677 8.19316 11.141L9.50793 11.9439C9.79271 12.1177 10.1458 11.8613 10.0684 11.5368L9.70788 10.0258C9.67686 9.89579 9.71742 9.75906 9.81434 9.66696L10.8828 8.65168C11.1171 8.42902 10.9788 8.0341 10.6567 8.00619L9.25027 7.88429C9.11098 7.87222 8.98997 7.78372 8.93628 7.65467L8.344 6.23102ZM17.5232 13.0092L17.5232 13.0092L17.5228 13.0093L17.5211 13.0095L17.5138 13.0105L17.484 13.0145L17.3671 13.03C17.2649 13.0435 17.1163 13.0627 16.9314 13.0859C16.5614 13.1322 16.0477 13.194 15.4726 13.2557C14.3091 13.3806 12.9414 13.5 12 13.5C11.0586 13.5 9.69088 13.3806 8.52742 13.2557C7.95234 13.194 7.43856 13.1322 7.0686 13.0859C6.88373 13.0627 6.73506 13.0435 6.63293 13.03L6.51602 13.0145L6.48622 13.0105L6.47891 13.0095L6.4772 13.0093L6.47685 13.0092L6.47682 13.0092H17.5232ZM15.817 15.2301L15.686 15.2443C14.5202 15.3694 13.0586 15.5 12 15.5C10.9414 15.5 9.47982 15.3694 8.31399 15.2443L8.18302 15.2301C9.10065 16.3132 10.4708 17 12 17C13.5293 17 14.8994 16.3132 15.817 15.2301ZM15.6512 6.23102C15.7794 5.92299 16.2158 5.92299 16.344 6.23102L16.9363 7.65467C16.99 7.78372 17.111 7.87222 17.2503 7.88429L18.6567 8.00619C18.9788 8.0341 19.1171 8.42902 18.8828 8.65168L17.8143 9.66696C17.7174 9.75906 17.6769 9.89579 17.7079 10.0258L18.0684 11.5368C18.1458 11.8613 17.7927 12.1177 17.5079 11.9439L16.1932 11.141C16.0731 11.0677 15.9221 11.0677 15.8021 11.141L14.4873 11.9439C14.2025 12.1177 13.8494 11.8613 13.9268 11.5368L14.2874 10.0254C14.3184 9.89557 14.2781 9.7591 14.1815 9.66699L13.1167 8.65118C12.8831 8.42832 13.0215 8.03415 13.3432 8.00619L14.745 7.88434C14.8843 7.87223 15.0052 7.78375 15.0589 7.65473L15.6512 6.23102Z" fill="black"/>
</svg>
