<svg width="24" height="24" viewBox="0 0 24 24" fill="none" xmlns="http://www.w3.org/2000/svg">
<path d="M19.7144 13.9761H16.75C13.5833 13.9761 15.526 17.4106 15.1667 19.1832C14.674 21.6138 12.3415 22.6828 10.7455 21.5434C10.5417 21.3978 10.5204 21.1185 10.6393 20.8997C11.4342 19.4363 11.2063 17.8754 10.9444 17.1004C10.4693 15.6939 9.13841 14.7095 8.10749 13.3872C7.89232 13.1112 7.56579 12.9347 7.21286 12.9347H4.08333C4.08333 12.9347 2.5 11.3726 2.5 7.72759C2.5 6.17405 3.25167 4.80591 3.85796 3.95506C4.28445 3.35654 5.0513 3.14979 5.77071 3.32723L8.83333 4.08263C10.4167 2.52071 13.0556 2 15.9806 2M19.7144 13.9761C20.7005 13.9761 21.5 13.1874 21.5 12.2144C21.5 11.2551 20.7221 10.4722 19.7501 10.453M19.7144 13.9761L15.0774 13.5824C14.2323 13.5107 13.5833 12.813 13.5833 11.9761C13.5833 11.0731 14.335 10.3462 15.2501 10.3642L16.2222 10.3834M19.7501 10.453H19.9869C20.8226 10.453 21.5 9.78468 21.5 8.96023C21.5 8.13579 20.8226 7.46744 19.9869 7.46744M19.7501 10.453L16.2222 10.3834M19.9869 7.46744H15.5806M19.9869 7.46744C20.6768 7.46744 21.2361 6.76822 21.2361 6.08756C21.2361 5.32548 20.6099 4.70769 19.8375 4.70769H18.6896M15.5806 7.46744C14.769 7.46744 14.1111 8.11656 14.1111 8.91729C14.1111 9.7039 14.7469 10.347 15.5439 10.3667L16.2222 10.3834M15.5806 7.46744H15.5097C14.7373 7.46744 14.1111 6.84965 14.1111 6.08756C14.1111 5.32548 14.7373 4.70769 15.5097 4.70769H15.9806M18.6896 4.70769H15.9806M18.6896 4.70769C19.4184 4.70769 20.0092 4.07285 20.0092 3.35384C20.0092 2.63484 19.4184 2 18.6896 2H15.9806M15.9806 4.70769C15.2519 4.70769 14.6611 4.07285 14.6611 3.35384C14.6611 2.63484 15.2519 2 15.9806 2" stroke="black" stroke-width="2" stroke-linecap="round" stroke-linejoin="round"/>
</svg>
