<svg width="24" height="24" viewBox="0 0 24 24" fill="none" xmlns="http://www.w3.org/2000/svg">
<path d="M19.7144 10.0239H16.75C13.5833 10.0239 15.526 6.58937 15.1667 4.81681C14.674 2.38616 12.3415 1.31725 10.7455 2.45665C10.5417 2.60216 10.5204 2.88149 10.6393 3.10029C11.4342 4.56375 11.2063 6.12463 10.9444 6.89965C10.4693 8.30611 9.13841 9.29047 8.10749 10.6128C7.89232 10.8888 7.56579 11.0653 7.21286 11.0653H4.08333C4.08333 11.0653 2.5 12.6274 2.5 16.2724C2.5 17.8259 3.25167 19.1941 3.85796 20.0449C4.28445 20.6435 5.0513 20.8502 5.77071 20.6728L8.83333 19.9174C10.4167 21.4793 13.0556 22 15.9806 22M19.7144 10.0239C20.7005 10.0239 21.5 10.8126 21.5 11.7856C21.5 12.7449 20.7221 13.5278 19.7501 13.547M19.7144 10.0239L15.0774 10.4176C14.2323 10.4893 13.5833 11.187 13.5833 12.0239C13.5833 12.9269 14.335 13.6538 15.2501 13.6358L16.2222 13.6166M19.7501 13.547H19.9869C20.8226 13.547 21.5 14.2153 21.5 15.0398C21.5 15.8642 20.8226 16.5326 19.9869 16.5326M19.7501 13.547L16.2222 13.6166M19.9869 16.5326H15.5806M19.9869 16.5326C20.6768 16.5326 21.2361 17.2318 21.2361 17.9124C21.2361 18.6745 20.6099 19.2923 19.8375 19.2923H18.6896M15.5806 16.5326C14.769 16.5326 14.1111 15.8834 14.1111 15.0827C14.1111 14.2961 14.7469 13.653 15.5439 13.6333L16.2222 13.6166M15.5806 16.5326H15.5097C14.7373 16.5326 14.1111 17.1503 14.1111 17.9124C14.1111 18.6745 14.7373 19.2923 15.5097 19.2923H15.9806M18.6896 19.2923H15.9806M18.6896 19.2923C19.4184 19.2923 20.0092 19.9272 20.0092 20.6462C20.0092 21.3652 19.4184 22 18.6896 22H15.9806M15.9806 19.2923C15.2519 19.2923 14.6611 19.9272 14.6611 20.6462C14.6611 21.3652 15.2519 22 15.9806 22" stroke="black" stroke-width="2" stroke-linecap="round" stroke-linejoin="round"/>
</svg>
