<svg width="24" height="24" viewBox="0 0 24 24" fill="none" xmlns="http://www.w3.org/2000/svg">
<path fill-rule="evenodd" clip-rule="evenodd" d="M21 12C21 16.9706 16.9706 21 12 21C7.02944 21 3 16.9706 3 12C3 7.02944 7.02944 3 12 3C16.9706 3 21 7.02944 21 12ZM12 23C18.0751 23 23 18.0751 23 12C23 5.92487 18.0751 1 12 1C5.92487 1 1 5.92487 1 12C1 18.0751 5.92487 23 12 23ZM15.5636 9.35094C15.7574 9.8681 16.3338 10.1302 16.8509 9.9364C17.3681 9.74258 17.6302 9.16622 17.4364 8.64906C16.6294 6.49581 14.4781 5 12 5C9.52186 5 7.37059 6.49581 6.5636 8.64906C6.36978 9.16622 6.6319 9.74258 7.14906 9.9364C7.66622 10.1302 8.24258 9.8681 8.4364 9.35094C8.93947 8.00861 10.3231 7 12 7C13.6769 7 15.0605 8.00861 15.5636 9.35094ZM15.5 13C14.6716 13 14 13.6716 14 14.5C14 15.3284 14.6716 16 15.5 16C16.3284 16 17 15.3284 17 14.5C17 13.6716 16.3284 13 15.5 13ZM8.5 13C7.67157 13 7 13.6716 7 14.5C7 15.3284 7.67157 16 8.5 16C9.32843 16 10 15.3284 10 14.5C10 13.6716 9.32843 13 8.5 13Z" fill="black"/>
</svg>
