<svg width="24" height="24" viewBox="0 0 24 24" fill="none" xmlns="http://www.w3.org/2000/svg">
<path d="M6.93489 11.521C7.76032 11.8832 9.23753 11.6227 9.88931 11.0001M14 11C14.6518 11.6226 16.129 11.8831 16.9544 11.5209M14.2285 6.73755C15.1231 7.62186 17.4485 8.51461 18.8793 8.52304M9.87929 6.73755C8.98468 7.62186 6.65929 8.51461 5.22852 8.52304M22 12C22 17.5228 17.5228 22 12 22C6.47715 22 2 17.5228 2 12C2 6.47715 6.47715 2 12 2C17.5228 2 22 6.47715 22 12ZM12 14C9.84926 14 8.01954 15.6696 7.34143 18C7.34143 18 10.3535 17.5 12 17.5C13.6466 17.5 16.6586 18 16.6586 18C15.9805 15.6696 14.1508 14 12 14Z" stroke="black" stroke-width="2" stroke-linecap="round" stroke-linejoin="round"/>
</svg>
