<svg width="24" height="24" viewBox="0 0 24 24" fill="none" xmlns="http://www.w3.org/2000/svg">
<path fill-rule="evenodd" clip-rule="evenodd" d="M3 12C3 7.02944 7.02944 3 12 3C16.9706 3 21 7.02944 21 12C21 16.9706 16.9706 21 12 21C7.02944 21 3 16.9706 3 12ZM12 1C5.92487 1 1 5.92487 1 12C1 18.0751 5.92487 23 12 23C18.0751 23 23 18.0751 23 12C23 5.92487 18.0751 1 12 1ZM14.5547 11.8321C14.7064 11.7309 15.0495 11.625 15.5 11.625C15.9505 11.625 16.2936 11.7309 16.4453 11.8321C16.9048 12.1384 17.5257 12.0142 17.8321 11.5547C18.1384 11.0952 18.0142 10.4743 17.5547 10.1679C16.9564 9.76908 16.1745 9.625 15.5 9.625C14.8255 9.625 14.0436 9.76908 13.4453 10.1679C12.9858 10.4743 12.8616 11.0952 13.1679 11.5547C13.4743 12.0142 14.0952 12.1384 14.5547 11.8321ZM9.25094 14.5843C9.02136 14.082 8.42805 13.8609 7.92574 14.0905C7.42343 14.3201 7.20235 14.9134 7.43192 15.4157C8.16682 17.0236 10.0248 18 12 18C13.9752 18 15.8332 17.0236 16.5681 15.4157C16.7977 14.9134 16.5766 14.3201 16.0743 14.0905C15.572 13.8609 14.9787 14.082 14.7491 14.5843C14.4189 15.3068 13.403 16 12 16C10.597 16 9.58114 15.3068 9.25094 14.5843ZM8.5 12C9.32843 12 10 11.1046 10 10C10 8.89543 9.32843 8 8.5 8C7.67157 8 7 8.89543 7 10C7 11.1046 7.67157 12 8.5 12Z" fill="black"/>
</svg>
