<svg width="24" height="24" viewBox="0 0 24 24" fill="none" xmlns="http://www.w3.org/2000/svg">
<path fill-rule="evenodd" clip-rule="evenodd" d="M3 12C3 7.02944 7.02944 3 12 3C16.9706 3 21 7.02944 21 12C21 16.9706 16.9706 21 12 21C7.02944 21 3 16.9706 3 12ZM12 1C5.92487 1 1 5.92487 1 12C1 18.0751 5.92487 23 12 23C18.0751 23 23 18.0751 23 12C23 5.92487 18.0751 1 12 1ZM14.5547 11.8321C14.7064 11.7309 15.0495 11.625 15.5 11.625C15.9505 11.625 16.2936 11.7309 16.4453 11.8321C16.9048 12.1384 17.5257 12.0142 17.8321 11.5547C18.1384 11.0952 18.0142 10.4743 17.5547 10.1679C16.9564 9.76908 16.1745 9.625 15.5 9.625C14.8255 9.625 14.0436 9.76908 13.4453 10.1679C12.9858 10.4743 12.8616 11.0952 13.1679 11.5547C13.4743 12.0142 14.0952 12.1384 14.5547 11.8321ZM7.44402 13.28C7.0464 12.8967 6.41335 12.9084 6.03005 13.306C5.64675 13.7036 5.65836 14.3367 6.05598 14.72C6.9716 15.6026 8.07672 16.3106 9.5 16.6918V17.5C9.5 18.8807 10.6193 20 12 20C13.3807 20 14.5 18.8807 14.5 17.5V16.6918C15.9233 16.3106 17.0284 15.6026 17.944 14.72C18.3416 14.3367 18.3533 13.7036 17.97 13.306C17.5867 12.9084 16.9536 12.8967 16.556 13.28C15.7234 14.0827 14.7285 14.6706 13.3389 14.8975C12.934 14.9636 12.4899 15 12 15C11.5101 15 11.066 14.9636 10.6611 14.8975C9.27146 14.6706 8.27662 14.0827 7.44402 13.28ZM11.5 17.5V16.9892C11.6637 16.9964 11.8303 17 12 17C12.1697 17 12.3363 16.9964 12.5 16.9892V17.5C12.5 17.7761 12.2761 18 12 18C11.7239 18 11.5 17.7761 11.5 17.5ZM8.5 12C9.32843 12 10 11.1046 10 10C10 8.89543 9.32843 8 8.5 8C7.67157 8 7 8.89543 7 10C7 11.1046 7.67157 12 8.5 12Z" fill="black"/>
</svg>
