<svg width="24" height="24" viewBox="0 0 24 24" fill="none" xmlns="http://www.w3.org/2000/svg">
<path fill-rule="evenodd" clip-rule="evenodd" d="M3 12C3 7.02944 7.02944 3 12 3C16.9706 3 21 7.02944 21 12C21 16.9706 16.9706 21 12 21C7.02944 21 3 16.9706 3 12ZM12 1C5.92487 1 1 5.92487 1 12C1 18.0751 5.92487 23 12 23C18.0751 23 23 18.0751 23 12C23 5.92487 18.0751 1 12 1ZM9.99051 5.82287C9.15998 5.75504 8.10323 5.98317 7.17129 6.30401C6.22755 6.62892 5.23933 7.10857 4.56047 7.67142C4.13531 8.02392 4.07641 8.65434 4.42891 9.0795C4.78141 9.50466 5.41183 9.56356 5.83699 9.21106C6.25959 8.86068 6.9997 8.4783 7.82235 8.19508C8.65682 7.90778 9.40453 7.78167 9.82774 7.81623C10.3782 7.86118 10.8609 7.45139 10.9058 6.90094C10.9508 6.35048 10.541 5.86781 9.99051 5.82287ZM14.2801 7.81626C14.7033 7.7817 15.451 7.90782 16.2855 8.19511C17.1082 8.47833 17.8483 8.86072 18.2709 9.21109C18.696 9.5636 19.3264 9.5047 19.6789 9.07954C20.0314 8.65438 19.9725 8.02396 19.5474 7.67146C18.8685 7.1086 17.8803 6.62896 16.9366 6.30404C16.0046 5.9832 14.9479 5.75508 14.1173 5.8229C13.5669 5.86785 13.1571 6.35052 13.202 6.90097C13.247 7.45142 13.7297 7.86121 14.2801 7.81626ZM12 15C10.8272 15 9.92507 15.2944 9.30279 15.6056C8.99328 15.7603 8.75496 15.9182 8.5875 16.0437C8.5037 16.1066 8.43735 16.1616 8.38837 16.2045C8.36387 16.2259 8.34368 16.2443 8.32778 16.2592L8.30713 16.2789L8.29922 16.2866L8.29585 16.2899L8.29432 16.2915L8.2936 16.2922C8.29324 16.2925 8.29289 16.2929 9 17L8.29289 16.2929C7.90237 16.6834 7.90237 17.3166 8.29289 17.7071C8.68006 18.0943 9.30573 18.0976 9.69699 17.7171L9.70538 17.7096C9.7189 17.6978 9.7463 17.6747 9.7875 17.6437C9.87004 17.5818 10.0067 17.4897 10.1972 17.3944C10.5749 17.2056 11.1728 17 12 17C12.8272 17 13.4251 17.2056 13.8028 17.3944C13.9933 17.4897 14.13 17.5818 14.2125 17.6437C14.2537 17.6747 14.2811 17.6978 14.2946 17.7096L14.303 17.7171C14.6943 18.0976 15.3199 18.0943 15.7071 17.7071C16.0976 17.3166 16.0976 16.6834 15.7071 16.2929L15 17C15.7071 16.2929 15.7068 16.2925 15.7064 16.2922L15.7057 16.2915L15.7041 16.2899L15.7008 16.2866L15.6929 16.2789L15.6722 16.2592C15.6563 16.2443 15.6361 16.2259 15.6116 16.2045C15.5627 16.1616 15.4963 16.1066 15.4125 16.0437C15.245 15.9182 15.0067 15.7603 14.6972 15.6056C14.0749 15.2944 13.1728 15 12 15ZM8.5 13C9.32843 13 10 12.1046 10 11C10 9.89543 9.32843 9 8.5 9C7.67157 9 7 9.89543 7 11C7 12.1046 7.67157 13 8.5 13ZM15.5 13C16.3284 13 17 12.1046 17 11C17 9.89543 16.3284 9 15.5 9C14.6716 9 14 9.89543 14 11C14 12.1046 14.6716 13 15.5 13Z" fill="black"/>
</svg>
