<svg width="24" height="24" viewBox="0 0 24 24" fill="none" xmlns="http://www.w3.org/2000/svg">
<g clip-path="url(#clip0_2012_12335)">
<path d="M13.4997 15.7349C13.6644 15.6516 13.831 15.5614 13.9997 15.4641C14.4669 15.1943 14.8784 14.9105 15.241 14.614C16.5073 13.5785 17.1776 12.3889 17.5463 11.107M13.4997 15.7349C13.2082 15.8823 12.9228 16.0081 12.6429 16.114C11.8926 16.3979 11.1819 16.5391 10.4997 16.5714M13.4997 15.7349V17.4999C13.4997 18.3284 12.8282 18.9999 11.9997 18.9999C11.1713 18.9999 10.4997 18.3284 10.4997 17.4999V16.5714M10.4997 16.5714C9.79086 16.605 9.11278 16.5209 8.45308 16.357M20.66 6.99996C23.4214 11.7829 21.7826 17.8988 16.9997 20.6602C12.2168 23.4216 6.10089 21.7829 3.33946 17C0.578039 12.217 2.21679 6.10113 6.99972 3.33971C11.7826 0.578283 17.8985 2.21703 20.66 6.99996Z" stroke="black" stroke-width="2" stroke-linecap="round" stroke-linejoin="round"/>
<path d="M13.9998 8.73176C14.9563 8.17957 15.284 6.95659 14.7318 6.00017C14.1796 5.04374 12.9566 4.71605 12.0002 5.26824C11.0437 5.82043 10.716 7.04341 11.2682 7.99983C11.8204 8.95626 13.0434 9.28395 13.9998 8.73176Z" fill="black"/>
<path d="M8.79882 11.7501C9.21297 12.4674 8.96719 13.3847 8.24987 13.7988C7.53256 14.213 6.61532 13.9672 6.20118 13.2499C5.78703 12.5326 6.03281 11.6153 6.75013 11.2012C7.46744 10.787 8.38468 11.0328 8.79882 11.7501Z" fill="black"/>
</g>
<defs>
<clipPath id="clip0_2012_12335">
<rect width="24" height="24" fill="white"/>
</clipPath>
</defs>
</svg>
