<svg width="24" height="24" viewBox="0 0 24 24" fill="none" xmlns="http://www.w3.org/2000/svg">
<path d="M7 3H6C4.34315 3 3 4.34315 3 6V18C3 19.6569 4.34315 21 6 21H18C19.6569 21 21 19.6569 21 18V9.24264C21 8.44699 20.6839 7.68393 20.1213 7.12132L16.8787 3.87868C16.3161 3.31607 15.553 3 14.7574 3H14M7 3V7C7 7.55228 7.44772 8 8 8H13C13.5523 8 14 7.55228 14 7V3M7 3H14M15 14.5C15 16.1569 13.6569 17.5 12 17.5C10.3431 17.5 9 16.1569 9 14.5C9 12.8431 10.3431 11.5 12 11.5C13.6569 11.5 15 12.8431 15 14.5Z" stroke="black" stroke-width="2" stroke-linejoin="round"/>
</svg>
