<svg width="24" height="24" viewBox="0 0 24 24" fill="none" xmlns="http://www.w3.org/2000/svg">
<path fill-rule="evenodd" clip-rule="evenodd" d="M10 1C7.79086 1 6 2.79086 6 5V16C6 18.2091 7.79086 20 10 20H18C20.2091 20 22 18.2091 22 16V8.24264C22 7.66548 21.8752 7.10113 21.6407 6.5858C21.4442 6.15388 21.1704 5.75623 20.8284 5.41421L17.5858 2.17157C17.2438 1.82956 16.8461 1.55583 16.4142 1.35928C15.8989 1.12476 15.3345 1 14.7574 1H10ZM8 5C8 3.89543 8.89543 3 10 3H14.7574C15.0459 3 15.328 3.06235 15.5858 3.17965C15.733 3.24662 15.8721 3.33149 16 3.43287V6.00007C16 6.55236 16.4477 7.00007 17 7.00007H19.5672C19.6685 7.1279 19.7534 7.26705 19.8204 7.4142C19.9377 7.67196 20 7.95407 20 8.24264V16C20 17.1046 19.1046 18 18 18H10C8.89543 18 8 17.1046 8 16V5ZM5 7C5 6.44772 4.55228 6 4 6C3.44772 6 3 6.44772 3 7V16C3 19.866 6.13401 23 10 23H17C17.5523 23 18 22.5523 18 22C18 21.4477 17.5523 21 17 21H10C7.23858 21 5 18.7614 5 16V7Z" fill="black"/>
</svg>
