<svg width="24" height="24" viewBox="0 0 24 24" fill="none" xmlns="http://www.w3.org/2000/svg">
<path fill-rule="evenodd" clip-rule="evenodd" d="M5 5C5 3.89543 5.89543 3 7 3H12V7C12 9.20914 13.7909 11 16 11H19V19C19 20.1046 18.1046 21 17 21H7C5.89543 21 5 20.1046 5 19V5ZM17.7911 9L14 4.65465V7C14 8.10457 14.8954 9 16 9H17.7911ZM20.7747 9.61981C20.6481 9.31183 20.4701 9.02455 20.2457 8.77122L14.3502 2.01386L14.3502 2.01383L14.3441 2.00691C14.0891 1.72005 13.7845 1.4881 13.449 1.31949C13.0356 1.11172 12.575 1 12.1019 1H7C4.79086 1 3 2.79086 3 5V19C3 21.2091 4.79086 23 7 23H17C19.2091 23 21 21.2091 21 19V10.7604C21 10.3659 20.9223 9.97872 20.7747 9.61981ZM15.634 11.7267C15.8657 11.9166 16 12.2004 16 12.5V17.5C16 18.3284 15.1046 19 14 19C12.8954 19 12 18.3284 12 17.5C12 16.6716 12.8954 16 14 16V14.2198L11 14.8198V18.5C11 19.3284 10.1046 20 9 20C7.89543 20 7 19.3284 7 18.5C7 17.6716 7.89543 17 9 17V13.5C9 13.0233 9.33646 12.6129 9.80388 12.5194L14.8039 11.5194C15.0977 11.4607 15.4023 11.5367 15.634 11.7267Z" fill="black"/>
</svg>
