<svg width="24" height="24" viewBox="0 0 24 24" fill="none" xmlns="http://www.w3.org/2000/svg">
<path fill-rule="evenodd" clip-rule="evenodd" d="M6 2C3.79086 2 2 3.79086 2 6V19C2 21.2091 3.79086 23 6 23H14C15.1043 23 16.1057 22.5512 16.8284 21.8284C17.219 21.4379 17.219 20.8047 16.8284 20.4142C16.4379 20.0237 15.8047 20.0237 15.4142 20.4142C15.0512 20.7772 14.5526 21 14 21H6C4.89543 21 4 20.1046 4 19V6C4 4.89543 4.89543 4 6 4H9.75736C10.0459 4 10.328 4.06235 10.5858 4.17965C10.733 4.24662 10.8721 4.33149 11 4.43287V8.00007C11 8.55236 11.4477 9.00007 12 9.00007H15.5672C15.6685 9.1279 15.7534 9.26705 15.8204 9.4142C15.9377 9.67196 16 9.95407 16 10.2426V11.5C16 12.0523 16.4477 12.5 17 12.5C17.5523 12.5 18 12.0523 18 11.5V10.2426C18 9.66548 17.8752 9.10113 17.6407 8.5858C17.4442 8.15387 17.1704 7.75623 16.8284 7.41421L12.5858 3.17157C12.2438 2.82956 11.8461 2.55583 11.4142 2.35928C10.8989 2.12476 10.3345 2 9.75736 2H6ZM19.2071 13.2929C18.8166 12.9024 18.1834 12.9024 17.7929 13.2929C17.4024 13.6834 17.4024 14.3166 17.7929 14.7071L18.5858 15.5H10C9.44772 15.5 9 15.9477 9 16.5C9 17.0523 9.44772 17.5 10 17.5H18.5858L17.7929 18.2929C17.4024 18.6834 17.4024 19.3166 17.7929 19.7071C18.1834 20.0976 18.8166 20.0976 19.2071 19.7071L21.7071 17.2071C22.0976 16.8166 22.0976 16.1834 21.7071 15.7929L19.2071 13.2929Z" fill="black"/>
</svg>
