<svg width="24" height="24" viewBox="0 0 24 24" fill="none" xmlns="http://www.w3.org/2000/svg">
<path fill-rule="evenodd" clip-rule="evenodd" d="M2.70711 1.29289C2.31658 0.902369 1.68342 0.902369 1.29289 1.29289C0.902369 1.68342 0.902369 2.31658 1.29289 2.70711L3.73103 5.14524L18.8548 20.269L21.2929 22.7071C21.6834 23.0976 22.3166 23.0976 22.7071 22.7071C23.0976 22.3166 23.0976 21.6834 22.7071 21.2929L20.7656 19.3514C20.9174 18.9287 21 18.4734 21 18V10.2426C21 9.66548 20.8752 9.10114 20.6407 8.5858C20.4442 8.15387 20.1704 7.75623 19.8284 7.41421L15.5858 3.17157C15.2438 2.82956 14.8461 2.55583 14.4142 2.35928C13.8989 2.12476 13.3345 2 12.7574 2H7C6.00032 2 5.08679 2.36703 4.38633 2.97211L2.70711 1.29289ZM19 10.2426V17.5858L5.80793 4.39372C6.14126 4.1459 6.55376 4 7 4H12.7574C13.0459 4 13.328 4.06235 13.5858 4.17965C13.733 4.24662 13.8721 4.33149 14 4.43287V8.00007C14 8.55236 14.4477 9.00007 15 9.00007H18.5672C18.6685 9.1279 18.7534 9.26705 18.8204 9.4142C18.9377 9.67196 19 9.95406 19 10.2426ZM5 8.5C5 7.94772 4.55228 7.5 4 7.5C3.44772 7.5 3 7.94772 3 8.5V18C3 20.2091 4.79086 22 7 22H16.5C17.0523 22 17.5 21.5523 17.5 21C17.5 20.4477 17.0523 20 16.5 20H7C5.89543 20 5 19.1046 5 18V8.5Z" fill="black"/>
</svg>
