<svg width="24" height="24" viewBox="0 0 24 24" fill="none" xmlns="http://www.w3.org/2000/svg">
<path fill-rule="evenodd" clip-rule="evenodd" d="M7 1C4.79086 1 3 2.79086 3 5V19C3 21.2091 4.79086 23 7 23H17C19.2091 23 21 21.2091 21 19V9.24264C21 8.66548 20.8752 8.10113 20.6407 7.5858C20.4442 7.15387 20.1704 6.75623 19.8284 6.41421L15.5858 2.17157C15.2438 1.82956 14.8461 1.55583 14.4142 1.35928C13.8989 1.12476 13.3345 1 12.7574 1H7ZM5 5C5 3.89543 5.89543 3 7 3H12.7574C13.0459 3 13.328 3.06235 13.5858 3.17965C13.733 3.24662 13.8721 3.33149 14 3.43287V7.00007C14 7.55236 14.4477 8.00007 15 8.00007H18.5672C18.6685 8.1279 18.7534 8.26705 18.8204 8.4142C18.9377 8.67196 19 8.95406 19 9.24264V19C19 20.1046 18.1046 21 17 21H7C5.89543 21 5 20.1046 5 19V5ZM10.7071 13.7071C11.0976 13.3166 11.0976 12.6834 10.7071 12.2929C10.3166 11.9024 9.68342 11.9024 9.29289 12.2929L7.29289 14.2929C6.90237 14.6834 6.90237 15.3166 7.29289 15.7071L9.29289 17.7071C9.68342 18.0976 10.3166 18.0976 10.7071 17.7071C11.0976 17.3166 11.0976 16.6834 10.7071 16.2929L9.41421 15L10.7071 13.7071ZM13.2929 12.2929C12.9024 12.6834 12.9024 13.3166 13.2929 13.7071L14.5858 15L13.2929 16.2929C12.9024 16.6834 12.9024 17.3166 13.2929 17.7071C13.6834 18.0976 14.3166 18.0976 14.7071 17.7071L16.7071 15.7071C17.0976 15.3166 17.0976 14.6834 16.7071 14.2929L14.7071 12.2929C14.3166 11.9024 13.6834 11.9024 13.2929 12.2929Z" fill="black"/>
</svg>
