<svg width="24" height="24" viewBox="0 0 24 24" fill="none" xmlns="http://www.w3.org/2000/svg">
<path fill-rule="evenodd" clip-rule="evenodd" d="M4 6C4 4.89543 4.89543 4 6 4H10.7574V7.24264C10.7574 8.8995 12.1005 10.2426 13.7574 10.2426H17V13.5C17 14.0523 17.4477 14.5 18 14.5C18.5523 14.5 19 14.0523 19 13.5V9.24264C19 8.18178 18.5786 7.16436 17.8284 6.41421L14.5858 3.17157C13.8356 2.42143 12.8182 2 11.7574 2H6C3.79086 2 2 3.79086 2 6V18C2 20.2091 3.79086 22 6 22H6.5C7.05228 22 7.5 21.5523 7.5 21C7.5 20.4477 7.05228 20 6.5 20H6C4.89543 20 4 19.1046 4 18V6ZM12.7574 7.24264V4.26794C12.9075 4.3546 13.0469 4.46111 13.1716 4.58579L16.4142 7.82843C16.5389 7.9531 16.6454 8.09254 16.7321 8.24264H13.7574C13.2051 8.24264 12.7574 7.79493 12.7574 7.24264ZM19.2226 16.2993C19.1118 15.9002 18.6984 15.6665 18.2993 15.7774C17.9002 15.8882 17.6665 16.3016 17.7774 16.7007L18.931 20.8539C19.1616 21.6839 20.3384 21.6839 20.569 20.8539L21.7226 16.7007C21.8335 16.3016 21.5998 15.8882 21.2007 15.7774C20.8016 15.6665 20.3882 15.9002 20.2774 16.2993L19.75 18.1978L19.2226 16.2993ZM11.1667 15.75C9.83198 15.75 8.75 16.832 8.75 18.1667V19.3333C8.75 20.668 9.83198 21.75 11.1667 21.75C12.0411 21.75 12.75 21.0411 12.75 20.1667V20C12.75 19.5858 12.4142 19.25 12 19.25C11.5858 19.25 11.25 19.5858 11.25 20V20.1667C11.25 20.2127 11.2127 20.25 11.1667 20.25C10.6604 20.25 10.25 19.8396 10.25 19.3333V18.1667C10.25 17.6604 10.6604 17.25 11.1667 17.25C11.2127 17.25 11.25 17.2873 11.25 17.3333V17.5C11.25 17.9142 11.5858 18.25 12 18.25C12.4142 18.25 12.75 17.9142 12.75 17.5V17.3333C12.75 16.4589 12.0411 15.75 11.1667 15.75ZM14.9577 15.75C14.0146 15.75 13.25 16.5146 13.25 17.4577C13.25 18.0576 13.5647 18.6135 14.0791 18.9221L15.6491 19.8641C15.7117 19.9017 15.75 19.9693 15.75 20.0423C15.75 20.157 15.657 20.25 15.5423 20.25H14C13.5858 20.25 13.25 20.5858 13.25 21C13.25 21.4142 13.5858 21.75 14 21.75H15.5423C16.4854 21.75 17.25 20.9854 17.25 20.0423C17.25 19.4424 16.9353 18.8865 16.4209 18.5779L14.8509 17.6359C14.7883 17.5983 14.75 17.5307 14.75 17.4577C14.75 17.343 14.843 17.25 14.9577 17.25H16.5C16.9142 17.25 17.25 16.9142 17.25 16.5C17.25 16.0858 16.9142 15.75 16.5 15.75H14.9577Z" fill="black"/>
</svg>
