<svg width="24" height="24" viewBox="0 0 24 24" fill="none" xmlns="http://www.w3.org/2000/svg">
<path fill-rule="evenodd" clip-rule="evenodd" d="M2 6C2 3.79086 3.79086 2 6 2H9.75736C10.3345 2 10.8989 2.12476 11.4142 2.35928C11.8461 2.55583 12.2438 2.82956 12.5858 3.17157L16.8284 7.41421C17.1704 7.75623 17.4442 8.15387 17.6407 8.5858C17.8752 9.10113 18 9.66548 18 10.2426V13.5C18 14.0523 17.5523 14.5 17 14.5C16.4477 14.5 16 14.0523 16 13.5V10.2426C16 9.95407 15.9377 9.67196 15.8204 9.4142C15.7534 9.26705 15.6685 9.1279 15.5672 9.00007H12C11.4477 9.00007 11 8.55236 11 8.00007V4.43287C10.8721 4.33149 10.733 4.24662 10.5858 4.17965C10.328 4.06235 10.0459 4 9.75736 4H6C4.89543 4 4 4.89543 4 6V18C4 19.1046 4.89543 20 6 20H6.5C7.05228 20 7.5 20.4477 7.5 21C7.5 21.5523 7.05228 22 6.5 22H6C3.79086 22 2 20.2091 2 18V6ZM8.75 16.5C8.75 16.0858 9.08579 15.75 9.5 15.75H10.5C11.7426 15.75 12.75 16.7574 12.75 18C12.75 19.2426 11.7426 20.25 10.5 20.25H10.25V21C10.25 21.4142 9.91421 21.75 9.5 21.75C9.08579 21.75 8.75 21.4142 8.75 21V19.5V16.5ZM10.25 18.75H10.5C10.9142 18.75 11.25 18.4142 11.25 18C11.25 17.5858 10.9142 17.25 10.5 17.25H10.25V18.75ZM13.25 16.5C13.25 16.0858 13.5858 15.75 14 15.75H14.25C15.9069 15.75 17.25 17.0931 17.25 18.75C17.25 20.4069 15.9069 21.75 14.25 21.75H14C13.5858 21.75 13.25 21.4142 13.25 21V16.5ZM14.75 20.1646C15.3326 19.9587 15.75 19.4031 15.75 18.75C15.75 18.0969 15.3326 17.5413 14.75 17.3354V20.1646ZM17.75 16.5C17.75 16.0858 18.0858 15.75 18.5 15.75H21C21.4142 15.75 21.75 16.0858 21.75 16.5C21.75 16.9142 21.4142 17.25 21 17.25H19.25V18.25H20C20.4142 18.25 20.75 18.5858 20.75 19C20.75 19.4142 20.4142 19.75 20 19.75H19.25V21C19.25 21.4142 18.9142 21.75 18.5 21.75C18.0858 21.75 17.75 21.4142 17.75 21V19V16.5Z" fill="black"/>
</svg>
