<svg width="24" height="24" viewBox="0 0 24 24" fill="none" xmlns="http://www.w3.org/2000/svg">
<path fill-rule="evenodd" clip-rule="evenodd" d="M4 6C4 4.89543 4.89543 4 6 4H10.7574V7.24264C10.7574 8.8995 12.1005 10.2426 13.7574 10.2426H17V13.5C17 14.0523 17.4477 14.5 18 14.5C18.5523 14.5 19 14.0523 19 13.5V9.24264C19 8.18178 18.5786 7.16436 17.8284 6.41421L14.5858 3.17157C13.8356 2.42143 12.8182 2 11.7574 2H6C3.79086 2 2 3.79086 2 6V18C2 20.2091 3.79086 22 6 22H6.5C7.05228 22 7.5 21.5523 7.5 21C7.5 20.4477 7.05228 20 6.5 20H6C4.89543 20 4 19.1046 4 18V6ZM12.7574 7.24264V4.26794C12.9075 4.3546 13.0469 4.46111 13.1716 4.58579L16.4142 7.82843C16.5389 7.9531 16.6454 8.09254 16.7321 8.24264H13.7574C13.2051 8.24264 12.7574 7.79493 12.7574 7.24264ZM9.5 15.75C9.08579 15.75 8.75 16.0858 8.75 16.5V21C8.75 21.4142 9.08579 21.75 9.5 21.75H10C11.5188 21.75 12.75 20.5188 12.75 19V18.5C12.75 16.9812 11.5188 15.75 10 15.75H9.5ZM10.25 20.225V17.275C10.8206 17.3908 11.25 17.8953 11.25 18.5V19C11.25 19.6047 10.8206 20.1092 10.25 20.225ZM14.75 17.75C14.75 17.4739 14.9739 17.25 15.25 17.25C15.5261 17.25 15.75 17.4739 15.75 17.75V19.75C15.75 20.0261 15.5261 20.25 15.25 20.25C14.9739 20.25 14.75 20.0261 14.75 19.75V17.75ZM15.25 15.75C14.1454 15.75 13.25 16.6454 13.25 17.75V19.75C13.25 20.8546 14.1454 21.75 15.25 21.75C16.3546 21.75 17.25 20.8546 17.25 19.75V17.75C17.25 16.6454 16.3546 15.75 15.25 15.75ZM20.1667 15.75C18.832 15.75 17.75 16.832 17.75 18.1667V19.3333C17.75 20.668 18.832 21.75 20.1667 21.75C21.0411 21.75 21.75 21.0411 21.75 20.1667V20C21.75 19.5858 21.4142 19.25 21 19.25C20.5858 19.25 20.25 19.5858 20.25 20V20.1667C20.25 20.2127 20.2127 20.25 20.1667 20.25C19.6604 20.25 19.25 19.8396 19.25 19.3333V18.1667C19.25 17.6604 19.6604 17.25 20.1667 17.25C20.2127 17.25 20.25 17.2873 20.25 17.3333V17.5C20.25 17.9142 20.5858 18.25 21 18.25C21.4142 18.25 21.75 17.9142 21.75 17.5V17.3333C21.75 16.4589 21.0411 15.75 20.1667 15.75Z" fill="black"/>
</svg>
