<svg width="24" height="24" viewBox="0 0 24 24" fill="none" xmlns="http://www.w3.org/2000/svg">
<path fill-rule="evenodd" clip-rule="evenodd" d="M7 1C4.79086 1 3 2.79086 3 5V19C3 21.2091 4.79086 23 7 23H17C19.2091 23 21 21.2091 21 19V9.24264C21 8.66548 20.8752 8.10113 20.6407 7.5858C20.4442 7.15387 20.1704 6.75623 19.8284 6.41421L15.5858 2.17157C15.2438 1.82956 14.8461 1.55583 14.4142 1.35928C13.8989 1.12476 13.3345 1 12.7574 1H7ZM5 5C5 3.89543 5.89543 3 7 3H12.7574C13.0459 3 13.328 3.06235 13.5858 3.17965C13.733 3.24662 13.8721 3.33149 14 3.43287V7.00007C14 7.55236 14.4477 8.00007 15 8.00007H18.5672C18.6685 8.1279 18.7534 8.26705 18.8204 8.4142C18.9377 8.67196 19 8.95406 19 9.24264V19C19 20.1046 18.1046 21 17 21H7C5.89543 21 5 20.1046 5 19V5ZM13 11.5C13 10.9477 12.5523 10.5 12 10.5C11.4477 10.5 11 10.9477 11 11.5V14.5858L10.7071 14.2929C10.3166 13.9024 9.68342 13.9024 9.29289 14.2929C8.90237 14.6834 8.90237 15.3166 9.29289 15.7071L11.2929 17.7071C11.6834 18.0976 12.3166 18.0976 12.7071 17.7071L14.7071 15.7071C15.0976 15.3166 15.0976 14.6834 14.7071 14.2929C14.3166 13.9024 13.6834 13.9024 13.2929 14.2929L13 14.5858V11.5Z" fill="black"/>
</svg>
