<svg width="24" height="24" viewBox="0 0 24 24" fill="none" xmlns="http://www.w3.org/2000/svg">
<path fill-rule="evenodd" clip-rule="evenodd" d="M9 1C6.79086 1 5 2.79086 5 5V12C5 12.5523 5.44772 13 6 13C6.55228 13 7 12.5523 7 12V5C7 3.89543 7.89543 3 9 3H14.7574C15.0459 3 15.328 3.06235 15.5858 3.17965C15.733 3.24662 15.8721 3.33149 16 3.43287V7.00007C16 7.55236 16.4477 8.00007 17 8.00007H20.5672C20.6685 8.1279 20.7534 8.26705 20.8204 8.4142C20.9377 8.67196 21 8.95406 21 9.24264V19C21 20.1046 20.1046 21 19 21H9C7.89543 21 7 20.1046 7 19C7 18.4477 6.55228 18 6 18C5.44772 18 5 18.4477 5 19C5 21.2091 6.79086 23 9 23H19C21.2091 23 23 21.2091 23 19V9.24264C23 8.66548 22.8752 8.10114 22.6407 7.5858C22.4442 7.15387 22.1704 6.75623 21.8284 6.41421L17.5858 2.17157C17.2438 1.82956 16.8461 1.55583 16.4142 1.35928C15.8989 1.12476 15.3345 1 14.7574 1H9ZM11.2071 12.2929C10.8166 11.9024 10.1834 11.9024 9.79289 12.2929C9.40237 12.6834 9.40237 13.3166 9.79289 13.7071L10.5858 14.5H2C1.44772 14.5 1 14.9477 1 15.5C1 16.0523 1.44772 16.5 2 16.5H10.5858L9.79289 17.2929C9.40237 17.6834 9.40237 18.3166 9.79289 18.7071C10.1834 19.0976 10.8166 19.0976 11.2071 18.7071L13.7071 16.2071C14.0976 15.8166 14.0976 15.1834 13.7071 14.7929L11.2071 12.2929Z" fill="black"/>
</svg>
