<svg width="24" height="24" viewBox="0 0 24 24" fill="none" xmlns="http://www.w3.org/2000/svg">
<path d="M16.1379 20.1046C15.5938 20.6573 14.8369 21 14 21H6C4.34315 21 3 19.6569 3 18V6C3 4.34315 4.34315 3 6 3H11.7574M10 16.5H21M21 16.5L18.5 14M21 16.5L18.5 19M18 9.24264V11.5M18 9.24264C18 8.44699 17.6839 7.68393 17.1213 7.12132L13.8787 3.87868C13.3161 3.31607 12.553 3 11.7574 3M18 9.24264H13.7574C12.6528 9.24264 11.7574 8.34721 11.7574 7.24264V3" stroke="black" stroke-width="2" stroke-linecap="round" stroke-linejoin="round"/>
</svg>
