<svg width="24" height="24" viewBox="0 0 24 24" fill="none" xmlns="http://www.w3.org/2000/svg">
<path fill-rule="evenodd" clip-rule="evenodd" d="M7 1C4.79086 1 3 2.79086 3 5V19C3 21.2091 4.79086 23 7 23H17C19.2091 23 21 21.2091 21 19V9.24264C21 8.66548 20.8752 8.10113 20.6407 7.5858C20.4442 7.15387 20.1704 6.75623 19.8284 6.41421L15.5858 2.17157C15.2438 1.82956 14.8461 1.55583 14.4142 1.35928C13.8989 1.12476 13.3345 1 12.7574 1H7ZM5 5C5 3.89543 5.89543 3 7 3H12.7574C13.0459 3 13.328 3.06235 13.5858 3.17965C13.733 3.24662 13.8721 3.33149 14 3.43287V7.00007C14 7.55236 14.4477 8.00007 15 8.00007H18.5672C18.6685 8.1279 18.7534 8.26705 18.8204 8.4142C18.9377 8.67196 19 8.95406 19 9.24264V19C19 20.1046 18.1046 21 17 21H7C5.89543 21 5 20.1046 5 19V5ZM15.634 10.7267C15.8657 10.9166 16 11.2004 16 11.5V16.5C16 17.3284 15.1046 18 14 18C12.8954 18 12 17.3284 12 16.5C12 15.6716 12.8954 15 14 15V13.2198L11 13.8198V17.5C11 18.3284 10.1046 19 9 19C7.89543 19 7 18.3284 7 17.5C7 16.6716 7.89543 16 9 16V12.5C9 12.0233 9.33646 11.6129 9.80388 11.5194L14.8039 10.5194C15.0977 10.4607 15.4023 10.5367 15.634 10.7267Z" fill="black"/>
</svg>
