<svg width="24" height="24" viewBox="0 0 24 24" fill="none" xmlns="http://www.w3.org/2000/svg">
<path fill-rule="evenodd" clip-rule="evenodd" d="M4 6C4 4.89543 4.89543 4 6 4H10.7574V7.24264C10.7574 8.8995 12.1005 10.2426 13.7574 10.2426H17V13.5C17 14.0523 17.4477 14.5 18 14.5C18.5523 14.5 19 14.0523 19 13.5V9.24264C19 8.18178 18.5786 7.16436 17.8284 6.41421L14.5858 3.17157C13.8356 2.42143 12.8182 2 11.7574 2H6C3.79086 2 2 3.79086 2 6V18C2 20.2091 3.79086 22 6 22H6.5C7.05228 22 7.5 21.5523 7.5 21C7.5 20.4477 7.05228 20 6.5 20H6C4.89543 20 4 19.1046 4 18V6ZM12.7574 7.24264V4.26794C12.9075 4.3546 13.0469 4.46111 13.1716 4.58579L16.4142 7.82843C16.5389 7.9531 16.6454 8.09254 16.7321 8.24264H13.7574C13.2051 8.24264 12.7574 7.79493 12.7574 7.24264ZM9.5 15.75C9.08579 15.75 8.75 16.0858 8.75 16.5V19.5V21C8.75 21.4142 9.08579 21.75 9.5 21.75C9.91421 21.75 10.25 21.4142 10.25 21V20.25H10.5C11.7426 20.25 12.75 19.2426 12.75 18C12.75 16.7574 11.7426 15.75 10.5 15.75H9.5ZM10.5 18.75H10.25V17.25H10.5C10.9142 17.25 11.25 17.5858 11.25 18C11.25 18.4142 10.9142 18.75 10.5 18.75ZM14 15.75C13.5858 15.75 13.25 16.0858 13.25 16.5V21C13.25 21.4142 13.5858 21.75 14 21.75H14.25C15.9069 21.75 17.25 20.4069 17.25 18.75C17.25 17.0931 15.9069 15.75 14.25 15.75H14ZM15.75 18.75C15.75 19.4031 15.3326 19.9587 14.75 20.1646V17.3354C15.3326 17.5413 15.75 18.0969 15.75 18.75ZM18.5 15.75C18.0858 15.75 17.75 16.0858 17.75 16.5V19V21C17.75 21.4142 18.0858 21.75 18.5 21.75C18.9142 21.75 19.25 21.4142 19.25 21V19.75H20C20.4142 19.75 20.75 19.4142 20.75 19C20.75 18.5858 20.4142 18.25 20 18.25H19.25V17.25H21C21.4142 17.25 21.75 16.9142 21.75 16.5C21.75 16.0858 21.4142 15.75 21 15.75H18.5Z" fill="black"/>
</svg>
