<svg width="24" height="24" viewBox="0 0 24 24" fill="none" xmlns="http://www.w3.org/2000/svg">
<path fill-rule="evenodd" clip-rule="evenodd" d="M4 6C4 4.89543 4.89543 4 6 4H10.7574V7.24264C10.7574 8.8995 12.1005 10.2426 13.7574 10.2426H17.0296C17.1381 10.6777 17.5314 11 18 11C18.5523 11 19 10.5523 19 10V9.24264C19 8.18178 18.5786 7.16436 17.8284 6.41421L14.5858 3.17157C13.8356 2.42143 12.8182 2 11.7574 2H6C3.79086 2 2 3.79086 2 6V18C2 20.2091 3.79086 22 6 22H12C12.5523 22 13 21.5523 13 21C13 20.4477 12.5523 20 12 20H6C4.89543 20 4 19.1046 4 18V6ZM12.7574 7.24264V4.26794C12.9075 4.3546 13.0469 4.46111 13.1716 4.58579L16.4142 7.82843C16.5389 7.9531 16.6454 8.09254 16.7321 8.24264H13.7574C13.2051 8.24264 12.7574 7.79493 12.7574 7.24264ZM18.3495 12.373C17.8329 12.0404 17.1672 12.0404 16.6507 12.373C15.9207 12.843 14.9325 13.206 14.1074 13.4372C13.4741 13.6146 12.9896 14.199 13.0042 14.9115C13.0473 17.0146 13.4272 18.4907 14.1497 19.5896C14.8764 20.6948 15.8688 21.2893 16.8208 21.7772C17.2471 21.9957 17.753 21.9957 18.1794 21.7772C19.1313 21.2893 20.1238 20.6948 20.8505 19.5896C21.573 18.4907 21.9529 17.0146 21.9959 14.9115C22.0105 14.199 21.5261 13.6146 20.8927 13.4372C20.0677 13.206 19.0795 12.843 18.3495 12.373ZM17.5 19.8755C17.5 19.8755 17.5001 19.8755 17.5001 19.8755C18.2529 19.4727 18.7868 19.0878 19.1794 18.4908C19.5852 17.8736 19.9095 16.9186 19.9839 15.2546C19.2132 15.0177 18.2966 14.6698 17.5001 14.1985C17.5001 14.1985 17.5 14.1986 17.5 14.1986V19.8755Z" fill="black"/>
</svg>
