<svg width="24" height="24" viewBox="0 0 24 24" fill="none" xmlns="http://www.w3.org/2000/svg">
<path fill-rule="evenodd" clip-rule="evenodd" d="M4 6C4 4.89543 4.89543 4 6 4H10.7574V7.24264C10.7574 8.8995 12.1005 10.2426 13.7574 10.2426H17V13.5C17 14.0523 17.4477 14.5 18 14.5C18.5523 14.5 19 14.0523 19 13.5V9.24264C19 8.18178 18.5786 7.16436 17.8284 6.41421L14.5858 3.17157C13.8356 2.42143 12.8182 2 11.7574 2H6C3.79086 2 2 3.79086 2 6V18C2 20.2091 3.79086 22 6 22H8C8.55228 22 9 21.5523 9 21C9 20.4477 8.55228 20 8 20H6C4.89543 20 4 19.1046 4 18V6ZM12.7574 7.24264V4.26794C12.9075 4.3546 13.0469 4.46111 13.1716 4.58579L16.4142 7.82843C16.5389 7.9531 16.6454 8.09254 16.7321 8.24264H13.7574C13.2051 8.24264 12.7574 7.79493 12.7574 7.24264ZM11 15.75C10.5858 15.75 10.25 16.0858 10.25 16.5C10.25 16.9142 10.5858 17.25 11 17.25H12.5423C12.657 17.25 12.75 17.343 12.75 17.4577C12.75 17.5307 12.7117 17.5983 12.6491 17.6359L11.0791 18.5779C10.5647 18.8865 10.25 19.4424 10.25 20.0423C10.25 20.9854 11.0146 21.75 11.9577 21.75H13.5C13.9142 21.75 14.25 21.4142 14.25 21C14.25 20.5858 13.9142 20.25 13.5 20.25H11.9577C11.843 20.25 11.75 20.157 11.75 20.0423C11.75 19.9693 11.7883 19.9017 11.8509 19.8641L13.4209 18.9221C13.9353 18.6135 14.25 18.0576 14.25 17.4577C14.25 16.5146 13.4854 15.75 12.5423 15.75H11ZM16.75 16.5C16.75 16.0858 16.4142 15.75 16 15.75C15.5858 15.75 15.25 16.0858 15.25 16.5V21C15.25 21.4142 15.5858 21.75 16 21.75C16.4142 21.75 16.75 21.4142 16.75 21V16.5ZM18.5 15.75C18.0858 15.75 17.75 16.0858 17.75 16.5V19.5V21C17.75 21.4142 18.0858 21.75 18.5 21.75C18.9142 21.75 19.25 21.4142 19.25 21V20.25H19.5C20.7426 20.25 21.75 19.2426 21.75 18C21.75 16.7574 20.7426 15.75 19.5 15.75H18.5ZM19.5 18.75H19.25V17.25H19.5C19.9142 17.25 20.25 17.5858 20.25 18C20.25 18.4142 19.9142 18.75 19.5 18.75Z" fill="black"/>
</svg>
