<svg width="24" height="24" viewBox="0 0 24 24" fill="none" xmlns="http://www.w3.org/2000/svg">
<path fill-rule="evenodd" clip-rule="evenodd" d="M5 5C5 3.89543 5.89543 3 7 3H12V7C12 9.20914 13.7909 11 16 11H19V19C19 20.1046 18.1046 21 17 21H7C5.89543 21 5 20.1046 5 19V5ZM17.7911 9L14 4.65465V7C14 8.10457 14.8954 9 16 9H17.7911ZM20.7747 9.61981C20.6481 9.31183 20.4701 9.02455 20.2457 8.77122L14.3502 2.01386L14.3502 2.01383L14.3441 2.00691C14.0891 1.72005 13.7845 1.4881 13.449 1.31949C13.0356 1.11172 12.575 1 12.1019 1H7C4.79086 1 3 2.79086 3 5V19C3 21.2091 4.79086 23 7 23H17C19.2091 23 21 21.2091 21 19V10.7604C21 10.3659 20.9223 9.97872 20.7747 9.61981ZM8 15C8 14.4477 8.44772 14 9 14H12.5C13.0523 14 13.5 14.4477 13.5 15V15.701C13.533 15.6568 13.5744 15.6171 13.624 15.584L15.5336 14.3109C15.733 14.178 16 14.3209 16 14.5606V17.4394C16 17.6791 15.733 17.822 15.5336 17.6891L13.624 16.416C13.5744 16.3829 13.533 16.3432 13.5 16.299V17C13.5 17.5523 13.0523 18 12.5 18H9C8.44772 18 8 17.5523 8 17V15Z" fill="black"/>
</svg>
