<svg width="24" height="24" viewBox="0 0 24 24" fill="none" xmlns="http://www.w3.org/2000/svg">
<path fill-rule="evenodd" clip-rule="evenodd" d="M6 2C3.79086 2 2 3.79086 2 6V17C2 19.2091 3.79086 21 6 21H12C12.5523 21 13 20.5523 13 20C13 19.4477 12.5523 19 12 19H6C4.89543 19 4 18.1046 4 17V6C4 4.89543 4.89543 4 6 4H9.75736C10.0459 4 10.328 4.06235 10.5858 4.17965C10.733 4.24662 10.8721 4.33149 11 4.43287V8.00007C11 8.55236 11.4477 9.00007 12 9.00007H15.5672C15.6685 9.1279 15.7534 9.26705 15.8204 9.4142C15.9377 9.67196 16 9.95407 16 10.2426V12C16 12.5523 16.4477 13 17 13C17.5523 13 18 12.5523 18 12V10.2426C18 9.66548 17.8752 9.10113 17.6407 8.5858C17.4442 8.15387 17.1704 7.75623 16.8284 7.41421L12.5858 3.17157C12.2438 2.82956 11.8461 2.55583 11.4142 2.35928C10.8989 2.12476 10.3345 2 9.75736 2H6ZM18 14C20.2091 14 22 15.7909 22 18C22 20.2091 20.2091 22 18 22C15.7909 22 14 20.2091 14 18C14 15.7909 15.7909 14 18 14ZM17.2768 17.2383C17.3838 16.9735 17.4961 16.8178 17.6017 16.7294C17.6942 16.652 17.8112 16.6002 18.0006 16.6002C18.4119 16.6002 18.6806 16.9142 18.6806 17.2668C18.6806 17.4252 18.6458 17.5222 18.6031 17.591C18.5578 17.6641 18.4791 17.7442 18.3359 17.8292C17.9809 18.04 17.6506 18.4392 17.6506 18.9684V19.04C17.6506 19.3714 17.9192 19.64 18.2506 19.64C18.5819 19.64 18.8506 19.3714 18.8506 19.04V18.9683C18.8506 18.9683 18.8505 18.9574 18.8634 18.9377C18.8781 18.9154 18.9059 18.8863 18.9486 18.861C19.2093 18.7062 19.4498 18.5024 19.6227 18.2238C19.7982 17.941 19.8806 17.6188 19.8806 17.2668C19.8806 16.3032 19.1253 15.4002 18.0006 15.4002C17.5499 15.4002 17.1549 15.5384 16.8313 15.8093C16.5209 16.0692 16.3132 16.4202 16.1642 16.7886C16.04 17.0958 16.1884 17.4455 16.4956 17.5697C16.8028 17.6939 17.1526 17.5456 17.2768 17.2383ZM18.3003 21.2002C18.6317 21.2002 18.9003 20.9316 18.9003 20.6002C18.9003 20.2688 18.6317 20.0002 18.3003 20.0002C17.9689 20.0002 17.7003 20.2688 17.7003 20.6002C17.7003 20.9316 17.9689 21.2002 18.3003 21.2002Z" fill="black"/>
</svg>
