<svg width="24" height="24" viewBox="0 0 24 24" fill="none" xmlns="http://www.w3.org/2000/svg">
<path fill-rule="evenodd" clip-rule="evenodd" d="M2 6C2 3.79086 3.79086 2 6 2H9.75736C10.3345 2 10.8989 2.12476 11.4142 2.35928C11.8461 2.55583 12.2438 2.82956 12.5858 3.17157L16.8284 7.41421C17.1704 7.75623 17.4442 8.15387 17.6407 8.5858C17.8752 9.10113 18 9.66548 18 10.2426V13.5C18 14.0523 17.5523 14.5 17 14.5C16.4477 14.5 16 14.0523 16 13.5V10.2426C16 9.95407 15.9377 9.67196 15.8204 9.4142C15.7534 9.26705 15.6685 9.1279 15.5672 9.00007H12C11.4477 9.00007 11 8.55236 11 8.00007V4.43287C10.8721 4.33149 10.733 4.24662 10.5858 4.17965C10.328 4.06235 10.0459 4 9.75736 4H6C4.89543 4 4 4.89543 4 6V18C4 19.1046 4.89543 20 6 20H6.5C7.05228 20 7.5 20.4477 7.5 21C7.5 21.5523 7.05228 22 6.5 22H6C3.79086 22 2 20.2091 2 18V6ZM8.75 16.5C8.75 16.0858 9.08579 15.75 9.5 15.75H10C11.5188 15.75 12.75 16.9812 12.75 18.5V19C12.75 20.5188 11.5188 21.75 10 21.75H9.5C9.08579 21.75 8.75 21.4142 8.75 21V16.5ZM10.25 17.275V20.225C10.8206 20.1092 11.25 19.6047 11.25 19V18.5C11.25 17.8953 10.8206 17.3908 10.25 17.275ZM15.25 17.25C14.9739 17.25 14.75 17.4739 14.75 17.75V19.75C14.75 20.0261 14.9739 20.25 15.25 20.25C15.5261 20.25 15.75 20.0261 15.75 19.75V17.75C15.75 17.4739 15.5261 17.25 15.25 17.25ZM13.25 17.75C13.25 16.6454 14.1454 15.75 15.25 15.75C16.3546 15.75 17.25 16.6454 17.25 17.75V19.75C17.25 20.8546 16.3546 21.75 15.25 21.75C14.1454 21.75 13.25 20.8546 13.25 19.75V17.75ZM17.75 18.1667C17.75 16.832 18.832 15.75 20.1667 15.75C21.0411 15.75 21.75 16.4589 21.75 17.3333V17.5C21.75 17.9142 21.4142 18.25 21 18.25C20.5858 18.25 20.25 17.9142 20.25 17.5V17.3333C20.25 17.2873 20.2127 17.25 20.1667 17.25C19.6604 17.25 19.25 17.6604 19.25 18.1667V19.3333C19.25 19.8396 19.6604 20.25 20.1667 20.25C20.2127 20.25 20.25 20.2127 20.25 20.1667V20C20.25 19.5858 20.5858 19.25 21 19.25C21.4142 19.25 21.75 19.5858 21.75 20V20.1667C21.75 21.0411 21.0411 21.75 20.1667 21.75C18.832 21.75 17.75 20.668 17.75 19.3333V18.1667Z" fill="black"/>
</svg>
