<svg width="24" height="24" viewBox="0 0 24 24" fill="none" xmlns="http://www.w3.org/2000/svg">
<path d="M16.5 21H7C5.34315 21 4 19.6569 4 18V8.5M12 3.213C11.7243 3.07446 11.4173 3 11.1019 3H7C5.91531 3 4.96507 3.57566 4.43813 4.43813M12 3.213C12.2237 3.32541 12.4267 3.48002 12.5967 3.67127L19.4948 11.4317C19.6455 11.6012 19.765 11.7936 19.8498 12M12 3.213V9C12 10.6569 13.3431 12 15 12H19.8498M19.8498 12C19.9482 12.2393 20 12.4974 20 12.7604V18C20 18.5722 19.8398 19.1069 19.5619 19.5619M3 3L4.43813 4.43813M21 21L19.5619 19.5619M19.5619 19.5619L4.43813 4.43813" stroke="black" stroke-width="2" stroke-linecap="round"/>
</svg>
