<svg width="24" height="24" viewBox="0 0 24 24" fill="none" xmlns="http://www.w3.org/2000/svg">
<path fill-rule="evenodd" clip-rule="evenodd" d="M4 6C4 4.89543 4.89543 4 6 4H10.7574V7.24264C10.7574 8.8995 12.1005 10.2426 13.7574 10.2426H17V11.5C17 12.0523 17.4477 12.5 18 12.5C18.5523 12.5 19 12.0523 19 11.5V9.24264C19 8.18178 18.5786 7.16436 17.8284 6.41421L14.5858 3.17157C13.8356 2.42143 12.8182 2 11.7574 2H6C3.79086 2 2 3.79086 2 6V18C2 20.2091 3.79086 22 6 22H12C12.5523 22 13 21.5523 13 21C13 20.4477 12.5523 20 12 20H6C4.89543 20 4 19.1046 4 18V6ZM12.7574 7.24264V4.26794C12.9075 4.3546 13.0469 4.46111 13.1716 4.58579L16.4142 7.82843C16.5389 7.9531 16.6454 8.09254 16.7321 8.24264H13.7574C13.2051 8.24264 12.7574 7.79493 12.7574 7.24264ZM18 14C20.2091 14 22 15.7909 22 18C22 20.2091 20.2091 22 18 22C15.7909 22 14 20.2091 14 18C14 15.7909 15.7909 14 18 14ZM20.0303 16.7197C20.3232 17.0126 20.3232 17.4874 20.0303 17.7803L18.0303 19.7803C17.7374 20.0732 17.2626 20.0732 16.9697 19.7803L15.9697 18.7803C15.6768 18.4874 15.6768 18.0126 15.9697 17.7197C16.2626 17.4268 16.7374 17.4268 17.0303 17.7197L17.5 18.1893L18.9697 16.7197C19.2626 16.4268 19.7374 16.4268 20.0303 16.7197Z" fill="black"/>
</svg>
