<svg width="24" height="24" viewBox="0 0 24 24" fill="none" xmlns="http://www.w3.org/2000/svg">
<path fill-rule="evenodd" clip-rule="evenodd" d="M2 6C2 3.79086 3.79086 2 6 2H9.75736C10.3345 2 10.8989 2.12476 11.4142 2.35928C11.8461 2.55583 12.2438 2.82956 12.5858 3.17157L16.8284 7.41421C17.1704 7.75623 17.4442 8.15387 17.6407 8.5858C17.8752 9.10113 18 9.66548 18 10.2426V13.5C18 14.0523 17.5523 14.5 17 14.5C16.4477 14.5 16 14.0523 16 13.5V10.2426C16 9.95407 15.9377 9.67196 15.8204 9.4142C15.7534 9.26705 15.6685 9.1279 15.5672 9.00007H12C11.4477 9.00007 11 8.55236 11 8.00007V4.43287C10.8721 4.33149 10.733 4.24662 10.5858 4.17965C10.328 4.06235 10.0459 4 9.75736 4H6C4.89543 4 4 4.89543 4 6V18C4 19.1046 4.89543 20 6 20H6.5C7.05228 20 7.5 20.4477 7.5 21C7.5 21.5523 7.05228 22 6.5 22H6C3.79086 22 2 20.2091 2 18V6ZM18.2993 15.7774C18.6984 15.6665 19.1118 15.9002 19.2226 16.2993L19.75 18.1978L20.2774 16.2993C20.3882 15.9002 20.8016 15.6665 21.2007 15.7774C21.5998 15.8882 21.8335 16.3016 21.7226 16.7007L20.569 20.8539C20.3384 21.6839 19.1616 21.6839 18.931 20.8539L17.7774 16.7007C17.6665 16.3016 17.9002 15.8882 18.2993 15.7774ZM8.75 18.1667C8.75 16.832 9.83198 15.75 11.1667 15.75C12.0411 15.75 12.75 16.4589 12.75 17.3333V17.5C12.75 17.9142 12.4142 18.25 12 18.25C11.5858 18.25 11.25 17.9142 11.25 17.5V17.3333C11.25 17.2873 11.2127 17.25 11.1667 17.25C10.6604 17.25 10.25 17.6604 10.25 18.1667V19.3333C10.25 19.8396 10.6604 20.25 11.1667 20.25C11.2127 20.25 11.25 20.2127 11.25 20.1667V20C11.25 19.5858 11.5858 19.25 12 19.25C12.4142 19.25 12.75 19.5858 12.75 20V20.1667C12.75 21.0411 12.0411 21.75 11.1667 21.75C9.83198 21.75 8.75 20.668 8.75 19.3333V18.1667ZM13.25 17.4577C13.25 16.5146 14.0146 15.75 14.9577 15.75H16.5C16.9142 15.75 17.25 16.0858 17.25 16.5C17.25 16.9142 16.9142 17.25 16.5 17.25H14.9577C14.843 17.25 14.75 17.343 14.75 17.4577C14.75 17.5307 14.7883 17.5983 14.8509 17.6359L16.4209 18.5779C16.9353 18.8865 17.25 19.4424 17.25 20.0423C17.25 20.9854 16.4854 21.75 15.5423 21.75H14C13.5858 21.75 13.25 21.4142 13.25 21C13.25 20.5858 13.5858 20.25 14 20.25H15.5423C15.657 20.25 15.75 20.157 15.75 20.0423C15.75 19.9693 15.7117 19.9017 15.6491 19.8641L14.0791 18.9221C13.5647 18.6135 13.25 18.0576 13.25 17.4577Z" fill="black"/>
</svg>
