<svg width="24" height="24" viewBox="0 0 24 24" fill="none" xmlns="http://www.w3.org/2000/svg">
<path fill-rule="evenodd" clip-rule="evenodd" d="M4 6C4 4.89543 4.89543 4 6 4H10.7574V7.24264C10.7574 8.8995 12.1005 10.2426 13.7574 10.2426H17V11.5C17 12.0523 17.4477 12.5 18 12.5C18.5523 12.5 19 12.0523 19 11.5V9.24264C19 8.18178 18.5786 7.16436 17.8284 6.41421L14.5858 3.17157C13.8356 2.42143 12.8182 2 11.7574 2H6C3.79086 2 2 3.79086 2 6V18C2 20.2091 3.79086 22 6 22H12C12.5523 22 13 21.5523 13 21C13 20.4477 12.5523 20 12 20H6C4.89543 20 4 19.1046 4 18V6ZM12.7574 7.24264V4.26794C12.9075 4.3546 13.0469 4.46111 13.1716 4.58579L16.4142 7.82843C16.5389 7.9531 16.6454 8.09254 16.7321 8.24264H13.7574C13.2051 8.24264 12.7574 7.79493 12.7574 7.24264ZM18 14C20.2091 14 22 15.7909 22 18C22 20.2091 20.2091 22 18 22C15.7909 22 14 20.2091 14 18C14 15.7909 15.7909 14 18 14ZM17.2768 17.2383C17.3838 16.9735 17.4961 16.8178 17.6017 16.7294C17.6942 16.652 17.8112 16.6002 18.0006 16.6002C18.4119 16.6002 18.6806 16.9142 18.6806 17.2668C18.6806 17.4252 18.6458 17.5222 18.6031 17.591C18.5578 17.6641 18.4791 17.7442 18.3359 17.8292C17.9809 18.04 17.6506 18.4392 17.6506 18.9684V19.04C17.6506 19.3714 17.9192 19.64 18.2506 19.64C18.5819 19.64 18.8506 19.3714 18.8506 19.04V18.9683C18.8506 18.9669 18.8505 18.9574 18.8634 18.9377C18.8781 18.9154 18.9059 18.8863 18.9486 18.861C19.2093 18.7062 19.4498 18.5024 19.6227 18.2238C19.7982 17.941 19.8806 17.6188 19.8806 17.2668C19.8806 16.3032 19.1253 15.4002 18.0006 15.4002C17.5499 15.4002 17.1549 15.5384 16.8313 15.8093C16.5209 16.0692 16.3132 16.4202 16.1642 16.7886C16.04 17.0958 16.1884 17.4455 16.4956 17.5697C16.8028 17.6939 17.1526 17.5456 17.2768 17.2383ZM18.3003 21.2002C18.6317 21.2002 18.9003 20.9316 18.9003 20.6002C18.9003 20.2688 18.6317 20.0002 18.3003 20.0002C17.9689 20.0002 17.7003 20.2688 17.7003 20.6002C17.7003 20.9316 17.9689 21.2002 18.3003 21.2002Z" fill="black"/>
</svg>
