<svg width="24" height="24" viewBox="0 0 24 24" fill="none" xmlns="http://www.w3.org/2000/svg">
<path fill-rule="evenodd" clip-rule="evenodd" d="M6 2C3.79086 2 2 3.79086 2 6V17C2 19.2091 3.79086 21 6 21H12C12.5523 21 13 20.5523 13 20C13 19.4477 12.5523 19 12 19H6C4.89543 19 4 18.1046 4 17V6C4 4.89543 4.89543 4 6 4H9.75736C10.0459 4 10.328 4.06235 10.5858 4.17965C10.733 4.24662 10.8721 4.33149 11 4.43287V8.00007C11 8.55236 11.4477 9.00007 12 9.00007H15.5672C15.6685 9.1279 15.7534 9.26705 15.8204 9.4142C15.9377 9.67196 16 9.95407 16 10.2426C16 10.7949 16.4477 11.2426 17 11.2426C17.5523 11.2426 18 10.7949 18 10.2426C18 9.66548 17.8752 9.10113 17.6407 8.5858C17.4442 8.15387 17.1704 7.75623 16.8284 7.41421L12.5858 3.17157C12.2438 2.82956 11.8461 2.55583 11.4142 2.35928C10.8989 2.12476 10.3345 2 9.75736 2H6ZM18.3495 12.373C17.8329 12.0404 17.1672 12.0404 16.6507 12.373C15.9207 12.843 14.9325 13.206 14.1074 13.4372C13.4741 13.6146 12.9896 14.199 13.0042 14.9115C13.0473 17.0146 13.4272 18.4907 14.1497 19.5896C14.8764 20.6948 15.8688 21.2893 16.8208 21.7772C17.2471 21.9957 17.753 21.9957 18.1794 21.7772C19.1313 21.2893 20.1238 20.6948 20.8505 19.5896C21.573 18.4907 21.9529 17.0146 21.9959 14.9115C22.0105 14.199 21.5261 13.6146 20.8927 13.4372C20.0677 13.206 19.0795 12.843 18.3495 12.373ZM17.5 19.8755C17.5 19.8755 17.5001 19.8755 17.5001 19.8755C18.2529 19.4727 18.7868 19.0878 19.1794 18.4908C19.5852 17.8736 19.9095 16.9186 19.9839 15.2546C19.2132 15.0177 18.2966 14.6698 17.5001 14.1985C17.5001 14.1985 17.5 14.1986 17.5 14.1986V19.8755Z" fill="black"/>
</svg>
