<svg width="24" height="24" viewBox="0 0 24 24" fill="none" xmlns="http://www.w3.org/2000/svg">
<path fill-rule="evenodd" clip-rule="evenodd" d="M6 2C3.79086 2 2 3.79086 2 6V17C2 19.2091 3.79086 21 6 21H12C12.5523 21 13 20.5523 13 20C13 19.4477 12.5523 19 12 19H6C4.89543 19 4 18.1046 4 17V6C4 4.89543 4.89543 4 6 4H9.75736C10.0459 4 10.328 4.06235 10.5858 4.17965C10.733 4.24662 10.8721 4.33149 11 4.43287V8.00007C11 8.55236 11.4477 9.00007 12 9.00007H15.5672C15.6685 9.1279 15.7534 9.26705 15.8204 9.4142C15.9377 9.67196 16 9.95407 16 10.2426V12C16 12.5523 16.4477 13 17 13C17.5523 13 18 12.5523 18 12V10.2426C18 9.66548 17.8752 9.10113 17.6407 8.5858C17.4442 8.15387 17.1704 7.75623 16.8284 7.41421L12.5858 3.17157C12.2438 2.82956 11.8461 2.55583 11.4142 2.35928C10.8989 2.12476 10.3345 2 9.75736 2H6ZM22 18C22 20.2091 20.2091 22 18 22C15.7909 22 14 20.2091 14 18C14 15.7909 15.7909 14 18 14C20.2091 14 22 15.7909 22 18ZM18.75 16C18.75 15.5858 18.4142 15.25 18 15.25C17.5858 15.25 17.25 15.5858 17.25 16V18C17.25 18.4142 17.5858 18.75 18 18.75C18.4142 18.75 18.75 18.4142 18.75 18V16ZM18 20.75C18.4142 20.75 18.75 20.4142 18.75 20C18.75 19.5858 18.4142 19.25 18 19.25C17.5858 19.25 17.25 19.5858 17.25 20C17.25 20.4142 17.5858 20.75 18 20.75Z" fill="black"/>
</svg>
