<svg width="24" height="24" viewBox="0 0 24 24" fill="none" xmlns="http://www.w3.org/2000/svg">
<path fill-rule="evenodd" clip-rule="evenodd" d="M4 6C4 4.89543 4.89543 4 6 4H10.7574V7.24264C10.7574 8.8995 12.1005 10.2426 13.7574 10.2426H17V11.5C17 12.0523 17.4477 12.5 18 12.5C18.5523 12.5 19 12.0523 19 11.5V9.24264C19 8.18178 18.5786 7.16436 17.8284 6.41421L14.5858 3.17157C13.8356 2.42143 12.8182 2 11.7574 2H6C3.79086 2 2 3.79086 2 6V18C2 20.2091 3.79086 22 6 22H12C12.5523 22 13 21.5523 13 21C13 20.4477 12.5523 20 12 20H6C4.89543 20 4 19.1046 4 18V6ZM12.7574 7.24264V4.26794C12.9075 4.3546 13.0469 4.46111 13.1716 4.58579L16.4142 7.82843C16.5389 7.9531 16.6454 8.09254 16.7321 8.24264H13.7574C13.2051 8.24264 12.7574 7.79493 12.7574 7.24264ZM22 18C22 15.7909 20.2091 14 18 14C15.7909 14 14 15.7909 14 18C14 20.2091 15.7909 22 18 22C20.2091 22 22 20.2091 22 18ZM15.9697 15.9697C16.2626 15.6768 16.7374 15.6768 17.0303 15.9697L18 16.9393L18.9697 15.9697C19.2626 15.6768 19.7374 15.6768 20.0303 15.9697C20.3232 16.2626 20.3232 16.7374 20.0303 17.0303L19.0607 18L20.0303 18.9697C20.3232 19.2626 20.3232 19.7374 20.0303 20.0303C19.7374 20.3232 19.2626 20.3232 18.9697 20.0303L18 19.0607L17.0303 20.0303C16.7374 20.3232 16.2626 20.3232 15.9697 20.0303C15.6768 19.7374 15.6768 19.2626 15.9697 18.9697L16.9393 18L15.9697 17.0303C15.6768 16.7374 15.6768 16.2626 15.9697 15.9697Z" fill="black"/>
</svg>
