<svg width="24" height="24" viewBox="0 0 24 24" fill="none" xmlns="http://www.w3.org/2000/svg">
<path fill-rule="evenodd" clip-rule="evenodd" d="M7 1C4.79086 1 3 2.79086 3 5V19C3 21.2091 4.79086 23 7 23H17C19.2091 23 21 21.2091 21 19V9.24264C21 8.66548 20.8752 8.10113 20.6407 7.5858C20.4442 7.15387 20.1704 6.75623 19.8284 6.41421L15.5858 2.17157C15.2438 1.82956 14.8461 1.55583 14.4142 1.35928C13.8989 1.12476 13.3345 1 12.7574 1H7ZM5 5C5 3.89543 5.89543 3 7 3H12.7574C13.0459 3 13.328 3.06235 13.5858 3.17965C13.733 3.24662 13.8721 3.33149 14 3.43287V7.00007C14 7.55236 14.4477 8.00007 15 8.00007H18.5672C18.6685 8.1279 18.7534 8.26705 18.8204 8.4142C18.9377 8.67196 19 8.95406 19 9.24264V19C19 20.1046 18.1046 21 17 21H7C5.89543 21 5 20.1046 5 19V5ZM9.45783 12.7127C9.29913 12.1837 8.74164 11.8835 8.21265 12.0422C7.68366 12.2009 7.38348 12.7584 7.54217 13.2873L9.04217 18.2873C9.16343 18.6915 9.52538 18.9761 9.94678 18.9986C10.3682 19.021 10.7583 18.7765 10.9219 18.3875L12.0546 15.693L13.0651 18.3549C13.2172 18.7555 13.6075 19.0146 14.0357 18.9994C14.4639 18.9841 14.8347 18.6977 14.9578 18.2873L16.4578 13.2873C16.6165 12.7584 16.3163 12.2009 15.7873 12.0422C15.2584 11.8835 14.7009 12.1837 14.5422 12.7127L13.889 14.89L13.0368 12.6451C12.8916 12.2628 12.5283 12.0073 12.1194 12.0002C11.7105 11.993 11.3385 12.2355 11.18 12.6125L10.1575 15.0449L9.45783 12.7127Z" fill="black"/>
</svg>
