<svg width="24" height="24" viewBox="0 0 24 24" fill="none" xmlns="http://www.w3.org/2000/svg">
<path fill-rule="evenodd" clip-rule="evenodd" d="M2 6C2 3.79086 3.79086 2 6 2H9.75736C10.3345 2 10.8989 2.12476 11.4142 2.35928C11.8461 2.55583 12.2438 2.82956 12.5858 3.17157L16.8284 7.41421C17.1704 7.75623 17.4442 8.15387 17.6407 8.5858C17.8752 9.10113 18 9.66548 18 10.2426V13.5C18 14.0523 17.5523 14.5 17 14.5C16.4477 14.5 16 14.0523 16 13.5V10.2426C16 9.95407 15.9377 9.67196 15.8204 9.4142C15.7534 9.26705 15.6685 9.1279 15.5672 9.00007H12C11.4477 9.00007 11 8.55236 11 8.00007V4.43287C10.8721 4.33149 10.733 4.24662 10.5858 4.17965C10.328 4.06235 10.0459 4 9.75736 4H6C4.89543 4 4 4.89543 4 6V18C4 19.1046 4.89543 20 6 20H6.5C7.05228 20 7.5 20.4477 7.5 21C7.5 21.5523 7.05228 22 6.5 22H6C3.79086 22 2 20.2091 2 18V6ZM10.25 16.5C10.25 16.0858 10.5858 15.75 11 15.75H12.5423C13.4854 15.75 14.25 16.5146 14.25 17.4577C14.25 18.0576 13.9353 18.6135 13.4209 18.9221L11.8509 19.8641C11.7883 19.9017 11.75 19.9693 11.75 20.0423C11.75 20.157 11.843 20.25 11.9577 20.25H13.5C13.9142 20.25 14.25 20.5858 14.25 21C14.25 21.4142 13.9142 21.75 13.5 21.75H11.9577C11.0146 21.75 10.25 20.9854 10.25 20.0423C10.25 19.4424 10.5647 18.8865 11.0791 18.5779L12.6491 17.6359C12.7117 17.5983 12.75 17.5307 12.75 17.4577C12.75 17.343 12.657 17.25 12.5423 17.25H11C10.5858 17.25 10.25 16.9142 10.25 16.5ZM16 15.75C16.4142 15.75 16.75 16.0858 16.75 16.5V21C16.75 21.4142 16.4142 21.75 16 21.75C15.5858 21.75 15.25 21.4142 15.25 21V16.5C15.25 16.0858 15.5858 15.75 16 15.75ZM17.75 16.5C17.75 16.0858 18.0858 15.75 18.5 15.75H19.5C20.7426 15.75 21.75 16.7574 21.75 18C21.75 19.2426 20.7426 20.25 19.5 20.25H19.25V21C19.25 21.4142 18.9142 21.75 18.5 21.75C18.0858 21.75 17.75 21.4142 17.75 21V19.5V16.5ZM19.25 18.75H19.5C19.9142 18.75 20.25 18.4142 20.25 18C20.25 17.5858 19.9142 17.25 19.5 17.25H19.25V18.75Z" fill="black"/>
</svg>
