<svg width="24" height="24" viewBox="0 0 24 24" fill="none" xmlns="http://www.w3.org/2000/svg">
<path fill-rule="evenodd" clip-rule="evenodd" d="M5 5C5 3.89543 5.89543 3 7 3H12V7C12 9.20914 13.7909 11 16 11H19V19C19 20.1046 18.1046 21 17 21H7C5.89543 21 5 20.1046 5 19V5ZM17.7911 9L14 4.65465V7C14 8.10457 14.8954 9 16 9H17.7911ZM20.7747 9.61981C20.6481 9.31183 20.4701 9.02455 20.2457 8.77122L14.3502 2.01386L14.3502 2.01383L14.3441 2.00691C14.0891 1.72005 13.7845 1.4881 13.449 1.31949C13.0356 1.11172 12.575 1 12.1019 1H7C4.79086 1 3 2.79086 3 5V19C3 21.2091 4.79086 23 7 23H17C19.2091 23 21 21.2091 21 19V10.7604C21 10.3659 20.9223 9.97872 20.7747 9.61981ZM13.6344 13.5315C13.9037 13.2081 14.3949 13.1556 14.7315 13.4144C16.4228 14.7146 16.4228 17.2854 14.7315 18.5857C14.3949 18.8444 13.9037 18.792 13.6344 18.4685C13.3652 18.1451 13.4197 17.6731 13.7563 17.4144C14.6666 16.7146 14.6666 15.2854 13.7563 14.5857C13.4197 14.3269 13.3652 13.855 13.6344 13.5315ZM8 15.5C8 14.9477 8.46592 14.5 9.04065 14.5H9.58997C9.91308 14.5 10.2318 14.4277 10.5208 14.2889L11.8614 13.6447C11.9998 13.5783 12.1626 13.675 12.1626 13.8236V18.1764C12.1626 18.3251 11.9998 18.4218 11.8614 18.3553L10.5208 17.7112C10.2318 17.5723 9.91308 17.5 9.58997 17.5H9.04065C8.46592 17.5 8 17.0523 8 16.5V15.5Z" fill="black"/>
</svg>
