<svg width="24" height="24" viewBox="0 0 24 24" fill="none" xmlns="http://www.w3.org/2000/svg">
<path fill-rule="evenodd" clip-rule="evenodd" d="M3 7C3 5.89543 3.89543 5 5 5H9.39445C10.0632 5 10.6876 5.3342 11.0585 5.8906L11.2774 6.2188C12.0192 7.3316 13.2681 8 14.6056 8H19C20.1046 8 21 8.89543 21 10V17C21 18.1046 20.1046 19 19 19H5C3.89543 19 3 18.1046 3 17V7ZM5 3C2.79086 3 1 4.79086 1 7V17C1 19.2091 2.79086 21 5 21H19C21.2091 21 23 19.2091 23 17V10C23 7.79086 21.2091 6 19 6H14.6056C13.9368 6 13.3124 5.6658 12.9415 5.1094L12.7226 4.7812C11.9808 3.6684 10.7319 3 9.39445 3H5ZM15.634 9.24C15.8657 9.44111 16 9.74162 16 10.0588V15.3529C16 16.2301 15.1046 16.9412 14 16.9412C12.8954 16.9412 12 16.2301 12 15.3529C12 14.4758 12.8954 13.7647 14 13.7647V11.8798L11 12.5151V16.4118C11 17.2889 10.1046 18 9 18C7.89543 18 7 17.2889 7 16.4118C7 15.5346 7.89543 14.8235 9 14.8235V11.1177C9 10.6129 9.33646 10.1784 9.80388 10.0794L14.8039 9.02057C15.0977 8.95836 15.4023 9.03889 15.634 9.24Z" fill="black"/>
</svg>
