<svg width="24" height="24" viewBox="0 0 24 24" fill="none" xmlns="http://www.w3.org/2000/svg">
<path fill-rule="evenodd" clip-rule="evenodd" d="M3 7C3 5.89543 3.89543 5 5 5H9.39445C10.0632 5 10.6876 5.3342 11.0585 5.8906L11.2774 6.2188C12.0192 7.3316 13.2681 8 14.6056 8H19C20.1046 8 21 8.89543 21 10V17C21 18.1046 20.1046 19 19 19H5C3.89543 19 3 18.1046 3 17V7ZM5 3C2.79086 3 1 4.79086 1 7V17C1 19.2091 2.79086 21 5 21H19C21.2091 21 23 19.2091 23 17V10C23 7.79086 21.2091 6 19 6H14.6056C13.9368 6 13.3124 5.6658 12.9415 5.1094L12.7226 4.7812C11.9808 3.6684 10.7319 3 9.39445 3H5ZM10.9281 11.9581C11.0932 11.5496 11.2637 11.3164 11.418 11.1873C11.5504 11.0764 11.7188 11 12.001 11C12.6064 11 13.001 11.4599 13.001 11.9792C13.001 12.103 12.9622 12.2116 12.8302 12.3492C12.6779 12.508 12.4276 12.6729 12.0692 12.8415L12.059 12.8463C11.91 12.9163 11.6298 13.048 11.3904 13.3033C11.1286 13.5824 10.9936 13.9165 10.915 14.2633L10.9117 14.2783L10.8558 14.544C10.742 15.0844 11.0879 15.6148 11.6283 15.7285C12.1687 15.8423 12.6991 15.4965 12.8129 14.956L12.867 14.699C12.8691 14.6898 12.8712 14.6814 12.8731 14.6739C12.8866 14.6673 12.9021 14.6599 12.9205 14.6513C13.7552 14.2587 15.001 13.487 15.001 11.9792C15.001 10.4418 13.7955 9 12.001 9C11.2831 9 10.6515 9.22051 10.134 9.65386C9.63823 10.069 9.30873 10.6275 9.07385 11.2086C8.86688 11.7206 9.11419 12.3035 9.62622 12.5105C10.1383 12.7174 10.7211 12.4701 10.9281 11.9581ZM11.7505 18.25C12.3028 18.25 12.7505 17.8023 12.7505 17.25C12.7505 16.6977 12.3028 16.25 11.7505 16.25C11.1982 16.25 10.7505 16.6977 10.7505 17.25C10.7505 17.8023 11.1982 18.25 11.7505 18.25Z" fill="black"/>
</svg>
