<svg width="24" height="24" viewBox="0 0 24 24" fill="none" xmlns="http://www.w3.org/2000/svg">
<path d="M9 20V19.5C9 17.8431 10.3431 16.5 12 16.5V16.5C13.6569 16.5 15 17.8431 15 19.5V20M9 20H5C3.34315 20 2 18.6569 2 17V7C2 5.34315 3.34315 4 5 4H9.39445C10.3975 4 11.3342 4.5013 11.8906 5.3359L12.1094 5.6641C12.6658 6.4987 13.6025 7 14.6056 7H19C20.6569 7 22 8.34315 22 10V17C22 18.6569 20.6569 20 19 20H15M9 20H15M14 12C14 13.1046 13.1046 14 12 14C10.8954 14 10 13.1046 10 12C10 10.8954 10.8954 10 12 10C13.1046 10 14 10.8954 14 12Z" stroke="black" stroke-width="2" stroke-linecap="round" stroke-linejoin="round"/>
</svg>
