<svg width="24" height="24" viewBox="0 0 24 24" fill="none" xmlns="http://www.w3.org/2000/svg">
<path fill-rule="evenodd" clip-rule="evenodd" d="M3 7C3 5.89543 3.89543 5 5 5H9.39445C10.0632 5 10.6876 5.3342 11.0585 5.8906L11.2774 6.2188C12.0192 7.3316 13.2681 8 14.6056 8H19C20.1046 8 21 8.89543 21 10V17C21 18.1046 20.1046 19 19 19H5C3.89543 19 3 18.1046 3 17V7ZM5 3C2.79086 3 1 4.79086 1 7V17C1 19.2091 2.79086 21 5 21H19C21.2091 21 23 19.2091 23 17V10C23 7.79086 21.2091 6 19 6H14.6056C13.9368 6 13.3124 5.6658 12.9415 5.1094L12.7226 4.7812C11.9808 3.6684 10.7319 3 9.39445 3H5ZM11.5 9.5C11.2239 9.5 11 9.72386 11 10C11 10.4007 10.5156 10.6016 10.2322 10.3182C10.037 10.123 9.7204 10.123 9.52514 10.3182L8.81803 11.0254C8.62277 11.2206 8.62277 11.5372 8.81803 11.7325C9.10127 12.0157 8.90056 12.5 8.5 12.5C8.22386 12.5 8 12.7239 8 13V14C8 14.2761 8.22386 14.5 8.5 14.5C8.90083 14.5 9.10147 14.9847 8.81804 15.2681C8.62278 15.4634 8.62278 15.78 8.81804 15.9753L9.52514 16.6824C9.72041 16.8776 10.037 16.8776 10.2323 16.6824C10.5155 16.3991 11 16.5995 11 17C11 17.2761 11.2239 17.5 11.5 17.5H12.5C12.7761 17.5 13 17.2761 13 17C13 16.5994 13.4845 16.3989 13.7678 16.6822C13.963 16.8775 14.2796 16.8775 14.4749 16.6822L15.182 15.9751C15.3773 15.7798 15.3773 15.4633 15.182 15.268C14.8986 14.9846 15.0992 14.5 15.5 14.5C15.7761 14.5 16 14.2761 16 14V13C16 12.7239 15.7761 12.5 15.5 12.5C15.0995 12.5 14.8988 12.0158 15.182 11.7326C15.3773 11.5373 15.3773 11.2208 15.182 11.0255L14.4749 10.3184C14.2796 10.1231 13.963 10.1231 13.7678 10.3184C13.4845 10.6017 13 10.4007 13 10C13 9.72386 12.7761 9.5 12.5 9.5H11.5ZM14 13.5C14 14.6046 13.1046 15.5 12 15.5C10.8954 15.5 10 14.6046 10 13.5C10 12.3954 10.8954 11.5 12 11.5C13.1046 11.5 14 12.3954 14 13.5Z" fill="black"/>
</svg>
