<svg width="24" height="24" viewBox="0 0 24 24" fill="none" xmlns="http://www.w3.org/2000/svg">
<path d="M3 7.5V17C3 18.6569 4.34315 20 6 20H15.5M3 3L4.43813 4.43813M21 21L19.5619 19.5619M4.43813 4.43813C4.89308 4.16018 5.42783 4 6 4H9.39445C10.3975 4 11.3342 4.5013 11.8906 5.3359L12.1094 5.6641C12.6658 6.4987 13.6025 7 14.6056 7H18C19.6569 7 21 8.34315 21 10V17C21 18.0847 20.4243 19.0349 19.5619 19.5619M4.43813 4.43813L19.5619 19.5619" stroke="black" stroke-width="2" stroke-linecap="round" stroke-linejoin="round"/>
</svg>
