<svg width="24" height="24" viewBox="0 0 24 24" fill="none" xmlns="http://www.w3.org/2000/svg">
<path fill-rule="evenodd" clip-rule="evenodd" d="M7 1C4.79086 1 3 2.79086 3 5V19C3 21.2091 4.79086 23 7 23H11C11.5523 23 12 22.5523 12 22C12 21.4477 11.5523 21 11 21H7C5.89543 21 5 20.1046 5 19V5C5 3.89543 5.89543 3 7 3H16C17.1046 3 18 3.89543 18 5V12.5C18 13.0523 18.4477 13.5 19 13.5C19.5523 13.5 20 13.0523 20 12.5V5C20 2.79086 18.2091 1 16 1H7ZM7 6C6.44772 6 6 6.44772 6 7C6 7.55228 6.44772 8 7 8H15C15.5523 8 16 7.55228 16 7C16 6.44772 15.5523 6 15 6H7ZM7 10C6.44772 10 6 10.4477 6 11C6 11.5523 6.44772 12 7 12H15C15.5523 12 16 11.5523 16 11C16 10.4477 15.5523 10 15 10H7ZM7 14C6.44772 14 6 14.4477 6 15C6 15.5523 6.44772 16 7 16H12C12.5523 16 13 15.5523 13 15C13 14.4477 12.5523 14 12 14H7ZM21 19C21 16.7909 19.2091 15 17 15C14.7909 15 13 16.7909 13 19C13 21.2091 14.7909 23 17 23C19.2091 23 21 21.2091 21 19ZM14.9697 16.9697C15.2626 16.6768 15.7374 16.6768 16.0303 16.9697L17 17.9393L17.9697 16.9697C18.2626 16.6768 18.7374 16.6768 19.0303 16.9697C19.3232 17.2626 19.3232 17.7374 19.0303 18.0303L18.0607 19L19.0303 19.9697C19.3232 20.2626 19.3232 20.7374 19.0303 21.0303C18.7374 21.3232 18.2626 21.3232 17.9697 21.0303L17 20.0607L16.0303 21.0303C15.7374 21.3232 15.2626 21.3232 14.9697 21.0303C14.6768 20.7374 14.6768 20.2626 14.9697 19.9697L15.9393 19L14.9697 18.0303C14.6768 17.7374 14.6768 17.2626 14.9697 16.9697Z" fill="black"/>
</svg>
