<svg width="24" height="24" viewBox="0 0 24 24" fill="none" xmlns="http://www.w3.org/2000/svg">
<path fill-rule="evenodd" clip-rule="evenodd" d="M7 1C4.79086 1 3 2.79086 3 5V19C3 21.2091 4.79086 23 7 23H11C11.5523 23 12 22.5523 12 22C12 21.4477 11.5523 21 11 21H7C5.89543 21 5 20.1046 5 19V5C5 3.89543 5.89543 3 7 3H16C17.1046 3 18 3.89543 18 5V12.5C18 13.0523 18.4477 13.5 19 13.5C19.5523 13.5 20 13.0523 20 12.5V5C20 2.79086 18.2091 1 16 1H7ZM7 6C6.44772 6 6 6.44772 6 7C6 7.55228 6.44772 8 7 8H15C15.5523 8 16 7.55228 16 7C16 6.44772 15.5523 6 15 6H7ZM7 10C6.44772 10 6 10.4477 6 11C6 11.5523 6.44772 12 7 12H15C15.5523 12 16 11.5523 16 11C16 10.4477 15.5523 10 15 10H7ZM7 14C6.44772 14 6 14.4477 6 15C6 15.5523 6.44772 16 7 16H12C12.5523 16 13 15.5523 13 15C13 14.4477 12.5523 14 12 14H7ZM17 15C19.2091 15 21 16.7909 21 19C21 21.2091 19.2091 23 17 23C14.7909 23 13 21.2091 13 19C13 16.7909 14.7909 15 17 15ZM16.2768 18.2383C16.3838 17.9735 16.4961 17.8178 16.6017 17.7294C16.6942 17.652 16.8112 17.6002 17.0006 17.6002C17.4119 17.6002 17.6806 17.9142 17.6806 18.2668C17.6806 18.4252 17.6458 18.5222 17.6031 18.591C17.5578 18.6641 17.4791 18.7442 17.3359 18.8292C16.9809 19.04 16.6506 19.4392 16.6506 19.9684V20.04C16.6506 20.3714 16.9192 20.64 17.2506 20.64C17.5819 20.64 17.8506 20.3714 17.8506 20.04L17.8506 19.9683C17.8506 19.9669 17.8505 19.9574 17.8634 19.9377C17.8781 19.9154 17.9059 19.8863 17.9486 19.861C18.2093 19.7062 18.4498 19.5024 18.6227 19.2238C18.7982 18.941 18.8806 18.6188 18.8806 18.2668C18.8806 17.3032 18.1253 16.4002 17.0006 16.4002C16.5499 16.4002 16.1549 16.5384 15.8313 16.8093C15.5209 17.0692 15.3132 17.4202 15.1642 17.7886C15.04 18.0958 15.1884 18.4455 15.4956 18.5697C15.8028 18.6939 16.1526 18.5456 16.2768 18.2383ZM17.3003 22.2002C17.6317 22.2002 17.9003 21.9316 17.9003 21.6002C17.9003 21.2688 17.6317 21.0002 17.3003 21.0002C16.9689 21.0002 16.7003 21.2688 16.7003 21.6002C16.7003 21.9316 16.9689 22.2002 17.3003 22.2002Z" fill="black"/>
</svg>
