<svg width="24" height="24" viewBox="0 0 24 24" fill="none" xmlns="http://www.w3.org/2000/svg">
<path fill-rule="evenodd" clip-rule="evenodd" d="M7 1C4.79086 1 3 2.79086 3 5V19C3 21.2091 4.79086 23 7 23H11C11.5523 23 12 22.5523 12 22C12 21.4477 11.5523 21 11 21H7C5.89543 21 5 20.1046 5 19V5C5 3.89543 5.89543 3 7 3H16C17.1046 3 18 3.89543 18 5V12.5C18 13.0523 18.4477 13.5 19 13.5C19.5523 13.5 20 13.0523 20 12.5V5C20 2.79086 18.2091 1 16 1H7ZM7 6C6.44772 6 6 6.44772 6 7C6 7.55228 6.44772 8 7 8H15C15.5523 8 16 7.55228 16 7C16 6.44772 15.5523 6 15 6H7ZM7 10C6.44772 10 6 10.4477 6 11C6 11.5523 6.44772 12 7 12H15C15.5523 12 16 11.5523 16 11C16 10.4477 15.5523 10 15 10H7ZM7 14C6.44772 14 6 14.4477 6 15C6 15.5523 6.44772 16 7 16H12C12.5523 16 13 15.5523 13 15C13 14.4477 12.5523 14 12 14H7ZM21 19C21 16.7909 19.2091 15 17 15C14.7909 15 13 16.7909 13 19C13 21.2091 14.7909 23 17 23C19.2091 23 21 21.2091 21 19ZM17.75 21C17.75 21.4142 17.4142 21.75 17 21.75C16.5858 21.75 16.25 21.4142 16.25 21V19C16.25 18.5858 16.5858 18.25 17 18.25C17.4142 18.25 17.75 18.5858 17.75 19V21ZM17 16.25C17.4142 16.25 17.75 16.5858 17.75 17C17.75 17.4142 17.4142 17.75 17 17.75C16.5858 17.75 16.25 17.4142 16.25 17C16.25 16.5858 16.5858 16.25 17 16.25Z" fill="black"/>
</svg>
