<svg width="24" height="24" viewBox="0 0 24 24" fill="none" xmlns="http://www.w3.org/2000/svg">
<path fill-rule="evenodd" clip-rule="evenodd" d="M6.06301 3.5C6.28503 2.63739 7.06808 2 8 2C8.93192 2 9.71497 2.63739 9.93699 3.5H11C12.1104 3.5 13.0799 4.1033 13.5987 5H13C11.6013 5 10.3367 5.57432 9.42928 6.5H6C5.44772 6.5 5 6.05228 5 5.5C4.44772 5.5 4 5.94772 4 6.5V16.5C4 17.0523 4.44772 17.5 5 17.5H8V19C8 19.1687 8.00836 19.3355 8.02469 19.5H5C3.34315 19.5 2 18.1569 2 16.5V6.5C2 4.84315 3.34315 3.5 5 3.5H6.06301ZM8 4.75C8.41421 4.75 8.75 4.41421 8.75 4C8.75 3.58579 8.41421 3.25 8 3.25C7.58579 3.25 7.25 3.58579 7.25 4C7.25 4.41421 7.58579 4.75 8 4.75Z" fill="black"/>
<path fill-rule="evenodd" clip-rule="evenodd" d="M12 10C12 9.44772 12.4477 9 13 9H17V11C17 11.5523 17.4477 12 18 12H20V19C20 19.5523 19.5523 20 19 20H13C12.4477 20 12 19.5523 12 19V10ZM13 7C11.3431 7 10 8.34315 10 10V19C10 20.6569 11.3431 22 13 22H19C20.6569 22 22 20.6569 22 19V11.3284C22 10.5328 21.6839 9.76972 21.1213 9.20711L19.7929 7.87868C19.2303 7.31607 18.4672 7 17.6716 7H13Z" fill="black"/>
</svg>
