<svg width="24" height="24" viewBox="0 0 24 24" fill="none" xmlns="http://www.w3.org/2000/svg">
<path d="M8.4 16.8004C6.94266 15.7058 6 13.963 6 12C6 8.68629 8.68629 6 12 6C15.3137 6 18 8.68629 18 12C18 13.9627 17.0576 15.7053 15.6006 16.8M18.001 20C20.4293 18.1755 22 15.2712 22 12C22 6.47715 17.5228 2 12 2C6.47715 2 2 6.47715 2 12C2 15.2716 3.57111 18.1763 6 20.0007M10 12C10 10.8954 10.8954 10 12 10C13.1046 10 14 10.8954 14 12C14 13.1046 13.1046 14 12 14C10.8954 14 10 13.1046 10 12Z" stroke="black" stroke-width="2" stroke-linecap="round" stroke-linejoin="round"/>
</svg>
