<svg width="24" height="24" viewBox="0 0 24 24" fill="none" xmlns="http://www.w3.org/2000/svg">
<path d="M7.71514 16.2C6.65419 15.1177 6 13.6353 6 12C6 8.68629 8.68629 6 12 6C15.3137 6 18 8.68629 18 12C18 13.6353 17.3458 15.1177 16.2849 16.2M10.5717 13.4C10.2181 13.0392 10 12.5451 10 12C10 10.8954 10.8954 10 12 10C13.1046 10 14 10.8954 14 12C14 12.5451 13.7819 13.0392 13.4283 13.4M19.1414 19C20.9097 17.1962 22 14.7255 22 12C22 6.47715 17.5228 2 12 2C6.47715 2 2 6.47715 2 12C2 14.7255 3.09032 17.1962 4.85857 19M12 16L6 22H18L12 16Z" stroke="black" stroke-width="2" stroke-linecap="round" stroke-linejoin="round"/>
</svg>
