<svg width="24" height="24" viewBox="0 0 24 24" fill="none" xmlns="http://www.w3.org/2000/svg">
<path fill-rule="evenodd" clip-rule="evenodd" d="M3 8C3 6.34315 4.34315 5 6 5C7.65685 5 9 6.34315 9 8V18C9 18.5523 8.55228 19 8 19C7.44772 19 7 18.5523 7 18V12C7 11.4477 6.55228 11 6 11C4.34315 11 3 9.65685 3 8ZM6 3C3.23858 3 1 5.23858 1 8C1 10.419 2.71776 12.4367 5 12.9V18C5 19.6569 6.34315 21 8 21C9.65685 21 11 19.6569 11 18V8C11 5.23858 8.76142 3 6 3ZM18 3C15.2386 3 13 5.23858 13 8V18C13 19.6569 14.3431 21 16 21C17.6569 21 19 19.6569 19 18V12.9C21.2822 12.4367 23 10.419 23 8C23 5.23858 20.7614 3 18 3ZM15 8C15 6.34315 16.3431 5 18 5C19.6569 5 21 6.34315 21 8C21 9.65685 19.6569 11 18 11C17.4477 11 17 11.4477 17 12V18C17 18.5523 16.5523 19 16 19C15.4477 19 15 18.5523 15 18V8ZM7 9C7.55228 9 8 8.55228 8 8C8 7.44772 7.55228 7 7 7C6.44772 7 6 7.44772 6 8C6 8.55228 6.44772 9 7 9ZM17 9C17.5523 9 18 8.55228 18 8C18 7.44772 17.5523 7 17 7C16.4477 7 16 7.44772 16 8C16 8.55228 16.4477 9 17 9Z" fill="black"/>
</svg>
