<svg width="24" height="24" viewBox="0 0 24 24" fill="none" xmlns="http://www.w3.org/2000/svg">
<path d="M11.7757 10.7657V2.59401C11.7757 2.09135 12.4458 1.81675 12.8871 2.13855L18.5124 6.24033C19.2083 6.74775 19.1502 7.6982 18.3965 8.13786L12.5049 11.5747M11.7757 10.7657L4 2.13855M11.7757 10.7657L12.5049 11.5747M11.7757 16.7657V21.406C11.7757 21.9087 12.4458 22.1832 12.8871 21.8615L14.9879 20.3296M12.5049 11.5747L14.1216 13.3684M14.1216 13.3684L18.3965 15.8621C19.1502 16.3018 19.2083 17.2523 18.5124 17.7597L18.2511 17.9502M14.1216 13.3684L18.2511 17.9502M18.2511 17.9502L21 21M5 15.9523L8.96045 13.6422" stroke="black" stroke-width="2" stroke-linecap="round" stroke-linejoin="round"/>
</svg>
