<svg width="24" height="24" viewBox="0 0 24 24" fill="none" xmlns="http://www.w3.org/2000/svg">
<path fill-rule="evenodd" clip-rule="evenodd" d="M7 1C4.79086 1 3 2.79086 3 5V19C3 21.2091 4.79086 23 7 23H17C19.2091 23 21 21.2091 21 19V5C21 2.79086 19.2091 1 17 1H7ZM5 5C5 3.89543 5.89543 3 7 3H17C18.1046 3 19 3.89543 19 5V19C19 20.1046 18.1046 21 17 21H7C5.89543 21 5 20.1046 5 19V5ZM7 4C6.44772 4 6 4.44772 6 5V8C6 8.55228 6.44772 9 7 9H17C17.5523 9 18 8.55228 18 8V5C18 4.44772 17.5523 4 17 4H7ZM8 7V6H16V7H8ZM9 12C9 12.5523 8.55228 13 8 13C7.44772 13 7 12.5523 7 12C7 11.4477 7.44772 11 8 11C8.55228 11 9 11.4477 9 12ZM13 12C13 12.5523 12.5523 13 12 13C11.4477 13 11 12.5523 11 12C11 11.4477 11.4477 11 12 11C12.5523 11 13 11.4477 13 12ZM16 13C16.5523 13 17 12.5523 17 12C17 11.4477 16.5523 11 16 11C15.4477 11 15 11.4477 15 12C15 12.5523 15.4477 13 16 13ZM9 15C9 15.5523 8.55228 16 8 16C7.44772 16 7 15.5523 7 15C7 14.4477 7.44772 14 8 14C8.55228 14 9 14.4477 9 15ZM12 16C12.5523 16 13 15.5523 13 15C13 14.4477 12.5523 14 12 14C11.4477 14 11 14.4477 11 15C11 15.5523 11.4477 16 12 16ZM17 15C17 15.5523 16.5523 16 16 16C15.4477 16 15 15.5523 15 15C15 14.4477 15.4477 14 16 14C16.5523 14 17 14.4477 17 15ZM8 19C8.55228 19 9 18.5523 9 18C9 17.4477 8.55228 17 8 17C7.44772 17 7 17.4477 7 18C7 18.5523 7.44772 19 8 19ZM13 18C13 18.5523 12.5523 19 12 19C11.4477 19 11 18.5523 11 18C11 17.4477 11.4477 17 12 17C12.5523 17 13 17.4477 13 18ZM16 19C16.5523 19 17 18.5523 17 18C17 17.4477 16.5523 17 16 17C15.4477 17 15 17.4477 15 18C15 18.5523 15.4477 19 16 19Z" fill="black"/>
</svg>
