<svg width="24" height="24" viewBox="0 0 24 24" fill="none" xmlns="http://www.w3.org/2000/svg">
<path fill-rule="evenodd" clip-rule="evenodd" d="M5 4C2.79086 4 1 5.79086 1 8V16C1 18.2091 2.79086 20 5 20H14H19C21.2091 20 23 18.2091 23 16V8C23 5.79086 21.2091 4 19 4H14H5ZM3 8C3 6.89543 3.89543 6 5 6H13V18H5C3.89543 18 3 17.1046 3 16V8ZM15 18V6H19C20.1046 6 21 6.89543 21 8V16C21 17.1046 20.1046 18 19 18H15ZM17 7C16.4477 7 16 7.44772 16 8C16 8.55228 16.4477 9 17 9H19C19.5523 9 20 8.55228 20 8C20 7.44772 19.5523 7 19 7H17ZM6 13C6 11.8954 6.89543 11 8 11C9.10457 11 10 11.8954 10 13C10 14.1046 9.10457 15 8 15C6.89543 15 6 14.1046 6 13ZM8 9C5.79086 9 4 10.7909 4 13C4 15.2091 5.79086 17 8 17C10.2091 17 12 15.2091 12 13C12 10.7909 10.2091 9 8 9ZM4.75 8.75C5.30228 8.75 5.75 8.30228 5.75 7.75C5.75 7.19772 5.30228 6.75 4.75 6.75C4.19772 6.75 3.75 7.19772 3.75 7.75C3.75 8.30228 4.19772 8.75 4.75 8.75Z" fill="black"/>
</svg>
