<svg width="24" height="24" viewBox="0 0 24 24" fill="none" xmlns="http://www.w3.org/2000/svg">
<path d="M11 6.5H13M22 10V17C22 18.6569 20.6569 20 19 20H5C3.34315 20 2 18.6569 2 17V10C2 8.34315 3.34315 7 5 7H5.41886C6.3631 7 7.20141 6.39579 7.5 5.5C7.79859 4.60421 8.6369 4 9.58114 4H14.4189C15.3631 4 16.2014 4.60421 16.5 5.5C16.7986 6.39579 17.6369 7 18.5811 7H19C20.6569 7 22 8.34315 22 10ZM16 13C16 15.2091 14.2091 17 12 17C9.79086 17 8 15.2091 8 13C8 10.7909 9.79086 9 12 9C14.2091 9 16 10.7909 16 13Z" stroke="black" stroke-width="2" stroke-linecap="round" stroke-linejoin="round"/>
</svg>
