<svg width="24" height="24" viewBox="0 0 24 24" fill="none" xmlns="http://www.w3.org/2000/svg">
<path fill-rule="evenodd" clip-rule="evenodd" d="M5 3C2.79086 3 1 4.79086 1 7V8C1 8.55228 1.44772 9 2 9C2.55228 9 3 8.55228 3 8V7C3 5.89543 3.89543 5 5 5H19C20.1046 5 21 5.89543 21 7V17C21 18.1046 20.1046 19 19 19H14C13.4477 19 13 19.4477 13 20C13 20.5523 13.4477 21 14 21H19C21.2091 21 23 19.2091 23 17V7C23 4.79086 21.2091 3 19 3H5ZM2 11C1.44772 11 1 11.4477 1 12C1 12.5523 1.44772 13 2 13C5.86599 13 9 16.134 9 20C9 20.5523 9.44772 21 10 21C10.5523 21 11 20.5523 11 20C11 15.0294 6.97056 11 2 11ZM2 15C1.44772 15 1 15.4477 1 16C1 16.5523 1.44772 17 2 17C3.65685 17 5 18.3431 5 20C5 20.5523 5.44772 21 6 21C6.55228 21 7 20.5523 7 20C7 17.2386 4.76142 15 2 15ZM2 21C2.55228 21 3 20.5523 3 20C3 19.4477 2.55228 19 2 19C1.44772 19 1 19.4477 1 20C1 20.5523 1.44772 21 2 21Z" fill="black"/>
</svg>
