<svg width="24" height="24" viewBox="0 0 24 24" fill="none" xmlns="http://www.w3.org/2000/svg">
<path fill-rule="evenodd" clip-rule="evenodd" d="M13 4C13 3.44772 12.5523 3 12 3C11.4477 3 11 3.44772 11 4V4.26756C10.6964 4.4432 10.4432 4.69637 10.2676 5H8.62642C8.35471 4.69367 7.95805 4.5 7.515 4.5H5.50423C4.42605 4.5 3.54542 5.35367 3.50564 6.4248C2.74377 7.17205 2.21652 8.16709 2.05631 9.2935L1.04055 16.4349C0.69853 18.8395 2.55649 21 4.9875 21H5.46483C7.13311 21 8.58278 19.86 8.98563 18.2415C9.16793 17.5091 9.82129 17 10.5656 17H13.4344C14.1787 17 14.8321 17.5091 15.0144 18.2415C15.4172 19.86 16.8669 21 18.5352 21H19.0125C21.2524 21 23.0042 19.1668 23 16.9981C22.9996 16.8119 22.9863 16.6238 22.9595 16.4349L21.9437 9.2935C21.7838 8.16927 21.2583 7.1759 20.4988 6.42913C20.4614 5.35738 19.5808 4.5 18.5 4.5H16.5C16.0558 4.5 15.6566 4.69313 15.3819 5H13.7324C13.5568 4.69637 13.3036 4.4432 13 4.26756V4ZM5.12673 7.65655C5.64071 7.24316 6.2893 7 6.9889 7H8H11H13H16H17.0111C17.7107 7 18.3593 7.24316 18.8733 7.65655C19.4489 8.11953 19.8524 8.7934 19.9636 9.57513L20.9794 16.7166C20.9932 16.8134 20.9998 16.9086 21 17.0019C21.0021 18.0903 20.1207 19 19.0125 19H18.5352C17.7908 19 17.1375 18.4909 16.9552 17.7585C16.5523 16.14 15.1026 15 13.4344 15H10.5656C8.89736 15 7.44769 16.14 7.04485 17.7585C6.86254 18.4909 6.20919 19 5.46483 19H4.9875C3.78311 19 2.84851 17.9266 3.02062 16.7166L4.03638 9.57513C4.14757 8.7934 4.55109 8.11953 5.12673 7.65655ZM9.01523 9.5C9.01523 8.94772 8.56752 8.5 8.01524 8.5C7.46295 8.5 7.01524 8.94772 7.01524 9.5V10.5H5.98007C5.42778 10.5 4.98007 10.9477 4.98007 11.5C4.98007 12.0523 5.42778 12.5 5.98007 12.5H7.01524V13.5C7.01524 14.0523 7.46295 14.5 8.01524 14.5C8.56752 14.5 9.01523 14.0523 9.01523 13.5V12.5H10.0152C10.5675 12.5 11.0152 12.0523 11.0152 11.5C11.0152 10.9477 10.5675 10.5 10.0152 10.5H9.01523V9.5ZM16.0001 10.5C16.5524 10.5 17.0001 10.0523 17.0001 9.5C17.0001 8.94772 16.5524 8.5 16.0001 8.5C15.4478 8.5 15.0001 8.94772 15.0001 9.5C15.0001 10.0523 15.4478 10.5 16.0001 10.5ZM14.0001 12.5C14.5524 12.5 15.0001 12.0523 15.0001 11.5C15.0001 10.9477 14.5524 10.5 14.0001 10.5C13.4478 10.5 13.0001 10.9477 13.0001 11.5C13.0001 12.0523 13.4478 12.5 14.0001 12.5ZM17.0001 13.5C17.0001 14.0523 16.5524 14.5 16.0001 14.5C15.4478 14.5 15.0001 14.0523 15.0001 13.5C15.0001 12.9477 15.4478 12.5 16.0001 12.5C16.5524 12.5 17.0001 12.9477 17.0001 13.5ZM18.0001 12.5C18.5524 12.5 19.0001 12.0523 19.0001 11.5C19.0001 10.9477 18.5524 10.5 18.0001 10.5C17.4478 10.5 17.0001 10.9477 17.0001 11.5C17.0001 12.0523 17.4478 12.5 18.0001 12.5Z" fill="black"/>
</svg>
