<svg width="24" height="24" viewBox="0 0 24 24" fill="none" xmlns="http://www.w3.org/2000/svg">
<path fill-rule="evenodd" clip-rule="evenodd" d="M4.5 4C3.84689 4 3.29127 4.4174 3.08535 5H3C1.89543 5 1 5.89543 1 7V17C1 18.1046 1.89543 19 3 19H21C22.1046 19 23 18.1046 23 17V7C23 5.89543 22.1046 5 21 5H20.9146C20.7087 4.4174 20.1531 4 19.5 4H17.5C16.8469 4 16.2913 4.4174 16.0854 5H7.91465C7.70873 4.4174 7.15311 4 6.5 4H4.5ZM3 7H4H7H17H20H21V17H3V7ZM9 10C9 9.44772 8.55228 9 8 9C7.44772 9 7 9.44772 7 10V11H6C5.44772 11 5 11.4477 5 12C5 12.5523 5.44772 13 6 13H7V14C7 14.5523 7.44772 15 8 15C8.55228 15 9 14.5523 9 14V13H10C10.5523 13 11 12.5523 11 12C11 11.4477 10.5523 11 10 11H9V10ZM18 11.5C18.5523 11.5 19 11.0523 19 10.5C19 9.94772 18.5523 9.5 18 9.5C17.4477 9.5 17 9.94772 17 10.5C17 11.0523 17.4477 11.5 18 11.5ZM15 14.5C15.5523 14.5 16 14.0523 16 13.5C16 12.9477 15.5523 12.5 15 12.5C14.4477 12.5 14 12.9477 14 13.5C14 14.0523 14.4477 14.5 15 14.5Z" fill="black"/>
</svg>
