<svg width="24" height="24" viewBox="0 0 24 24" fill="none" xmlns="http://www.w3.org/2000/svg">
<path fill-rule="evenodd" clip-rule="evenodd" d="M13 4C13 3.44772 12.5523 3 12 3C11.4477 3 11 3.44772 11 4V6.26756C10.6964 6.4432 10.4432 6.69637 10.2676 7H7.91465C7.70873 6.4174 7.15311 6 6.5 6H4.5C3.84689 6 3.29127 6.4174 3.08535 7H3C1.89543 7 1 7.89543 1 9V17C1 19.2091 2.79086 21 5 21H19C21.2091 21 23 19.2091 23 17V9C23 7.89543 22.1046 7 21 7H20.9146C20.7087 6.4174 20.1531 6 19.5 6H17.5C16.8469 6 16.2913 6.4174 16.0854 7H13.7324C13.5568 6.69637 13.3036 6.4432 13 6.26756V4ZM3 9H4H7H11H13H17H20H21V17C21 18.1046 20.1046 19 19 19H5C3.89543 19 3 18.1046 3 17V9ZM9 12C9 11.4477 8.55228 11 8 11C7.44772 11 7 11.4477 7 12V13H6C5.44772 13 5 13.4477 5 14C5 14.5523 5.44772 15 6 15H7V16C7 16.5523 7.44772 17 8 17C8.55228 17 9 16.5523 9 16V15H10C10.5523 15 11 14.5523 11 14C11 13.4477 10.5523 13 10 13H9V12ZM18 13.5C18.5523 13.5 19 13.0523 19 12.5C19 11.9477 18.5523 11.5 18 11.5C17.4477 11.5 17 11.9477 17 12.5C17 13.0523 17.4477 13.5 18 13.5ZM15 16.5C15.5523 16.5 16 16.0523 16 15.5C16 14.9477 15.5523 14.5 15 14.5C14.4477 14.5 14 14.9477 14 15.5C14 16.0523 14.4477 16.5 15 16.5Z" fill="black"/>
</svg>
