<svg width="24" height="24" viewBox="0 0 24 24" fill="none" xmlns="http://www.w3.org/2000/svg">
<path d="M12 10.9083V14M9 20V10.9083C9 10.3161 8.82469 9.73703 8.49615 9.24423L7.50385 7.75577C7.17531 7.26297 7 6.68395 7 6.09167V4C7 2.89543 7.89543 2 9 2H15C16.1046 2 17 2.89543 17 4V6.09167C17 6.68395 16.8247 7.26297 16.4962 7.75577L15.5038 9.24423C15.1753 9.73703 15 10.3161 15 10.9083V20C15 21.1046 14.1046 22 13 22H11C9.89543 22 9 21.1046 9 20Z" stroke="black" stroke-width="2" stroke-linecap="round" stroke-linejoin="round"/>
</svg>
