<svg width="24" height="24" viewBox="0 0 24 24" fill="none" xmlns="http://www.w3.org/2000/svg">
<path d="M5 13V12C5 8.13401 8.13401 5 12 5C15.866 5 19 8.13401 19 12V13M5 13H6.5C6.77614 13 7 13.2239 7 13.5V18.5C7 18.7761 6.77614 19 6.5 19H5C3.89543 19 3 18.1046 3 17V15C3 13.8954 3.89543 13 5 13ZM19 13H17.5C17.2239 13 17 13.2239 17 13.5V18.5C17 18.7761 17.2239 19 17.5 19H18H19C20.1046 19 21 18.1046 21 17V15C21 13.8954 20.1046 13 19 13Z" stroke="black" stroke-width="2" stroke-linecap="round" stroke-linejoin="round"/>
</svg>
