<svg width="24" height="24" viewBox="0 0 24 24" fill="none" xmlns="http://www.w3.org/2000/svg">
<path d="M2 16V13C2 7.47715 6.47715 3 12 3C17.5228 3 22 7.47715 22 13V16M16 14H18C18.5523 14 19 14.4477 19 15V20C19 20.5523 18.5523 21 18 21H16C15.4477 21 15 20.5523 15 20V15C15 14.4477 15.4477 14 16 14ZM6 14H8C8.55228 14 9 14.4477 9 15V20C9 20.5523 8.55228 21 8 21H6C5.44772 21 5 20.5523 5 20V15C5 14.4477 5.44772 14 6 14Z" stroke="black" stroke-width="2" stroke-linecap="round" stroke-linejoin="round"/>
</svg>
