<svg width="24" height="24" viewBox="0 0 24 24" fill="none" xmlns="http://www.w3.org/2000/svg">
<path fill-rule="evenodd" clip-rule="evenodd" d="M5 5C2.79086 5 1 6.79086 1 9V15C1 17.2091 2.79086 19 5 19H19C21.2091 19 23 17.2091 23 15V9C23 6.79086 21.2091 5 19 5H5ZM3 9C3 7.89543 3.89543 7 5 7H19C20.1046 7 21 7.89543 21 9V15C21 16.1046 20.1046 17 19 17H5C3.89543 17 3 16.1046 3 15V9ZM6 10C6 10.5523 5.55228 11 5 11C4.44772 11 4 10.5523 4 10C4 9.44772 4.44772 9 5 9C5.55228 9 6 9.44772 6 10ZM9.5 10C9.5 10.5523 9.05228 11 8.5 11C7.94772 11 7.5 10.5523 7.5 10C7.5 9.44772 7.94772 9 8.5 9C9.05228 9 9.5 9.44772 9.5 10ZM12 11C12.5523 11 13 10.5523 13 10C13 9.44772 12.5523 9 12 9C11.4477 9 11 9.44772 11 10C11 10.5523 11.4477 11 12 11ZM16.5 10C16.5 10.5523 16.0523 11 15.5 11C14.9477 11 14.5 10.5523 14.5 10C14.5 9.44772 14.9477 9 15.5 9C16.0523 9 16.5 9.44772 16.5 10ZM19 11C19.5523 11 20 10.5523 20 10C20 9.44772 19.5523 9 19 9C18.4477 9 18 9.44772 18 10C18 10.5523 18.4477 11 19 11ZM7.75 14C7.75 14.5523 7.30228 15 6.75 15C6.19772 15 5.75 14.5523 5.75 14C5.75 13.4477 6.19772 13 6.75 13C7.30228 13 7.75 13.4477 7.75 14ZM10.25 15C10.8023 15 11.25 14.5523 11.25 14C11.25 13.4477 10.8023 13 10.25 13C9.69772 13 9.25 13.4477 9.25 14C9.25 14.5523 9.69772 15 10.25 15ZM14.75 14C14.75 14.5523 14.3023 15 13.75 15C13.1977 15 12.75 14.5523 12.75 14C12.75 13.4477 13.1977 13 13.75 13C14.3023 13 14.75 13.4477 14.75 14ZM17.25 15C17.8023 15 18.25 14.5523 18.25 14C18.25 13.4477 17.8023 13 17.25 13C16.6977 13 16.25 13.4477 16.25 14C16.25 14.5523 16.6977 15 17.25 15Z" fill="black"/>
</svg>
