<svg width="24" height="24" viewBox="0 0 24 24" fill="none" xmlns="http://www.w3.org/2000/svg">
<path d="M3.5 16H2V18C2 19.1046 2.89543 20 4 20H20C21.1046 20 22 19.1046 22 18V16H20.5M3.5 16V6C3.5 4.89543 4.39543 4 5.5 4H10M3.5 16H8.19961C8.7055 16 9.18397 16.23 9.5 16.625C9.81603 17.02 10.2945 17.25 10.8004 17.25H13.1996C13.7055 17.25 14.184 17.02 14.5 16.625C14.816 16.23 15.2945 16 15.8004 16H20.5M20.5 16V6C20.5 4.89543 19.6046 4 18.5 4H14M10 4V5C10 5.27614 10.2239 5.5 10.5 5.5H13.5C13.7761 5.5 14 5.27614 14 5V4M10 4H14" stroke="black" stroke-width="2" stroke-linejoin="round"/>
</svg>
