<svg width="24" height="24" viewBox="0 0 24 24" fill="none" xmlns="http://www.w3.org/2000/svg">
<path d="M4 14C4 18.4183 7.58172 22 12 22C12.9842 22 13.9269 21.8223 14.7977 21.4972M20 14C20 16.0763 19.209 17.9679 17.9119 19.3899M12 18C9.79086 18 8 16.2091 8 14V13M4 2L8 7M20 22L17.9119 19.3899M8 7V6C8 3.79086 9.79086 2 12 2C14.2091 2 16 3.79086 16 6V14C16 14.8072 15.7609 15.5585 15.3497 16.1871M8 7L15.3497 16.1871M17.9119 19.3899L15.3497 16.1871" stroke="black" stroke-width="2" stroke-linecap="round"/>
</svg>
