<svg width="24" height="24" viewBox="0 0 24 24" fill="none" xmlns="http://www.w3.org/2000/svg">
<path d="M12 19C8.13401 19 5 15.866 5 12M12 19V22M12 19C12.8315 19 13.6292 18.855 14.3691 18.5889M19 12C19 13.8184 18.3067 15.4748 17.1699 16.7194M12 22H16M12 22H8M4 2L8 6.47059M20 20L17.1699 16.7194M8 6.47059V6C8 3.79086 9.79086 2 12 2C14.2091 2 16 3.79086 16 6V12C16 12.9292 15.6831 13.7845 15.1516 14.4635M8 6.47059L15.1516 14.4635M8 11.4706V12C8 14.2091 9.79086 16 12 16C12.0175 16 12.0349 15.9999 12.0523 15.9997M15.1516 14.4635L17.1699 16.7194" stroke="black" stroke-width="2" stroke-linecap="round"/>
</svg>
