<svg width="24" height="24" viewBox="0 0 24 24" fill="none" xmlns="http://www.w3.org/2000/svg">
<path fill-rule="evenodd" clip-rule="evenodd" d="M9 1C6.79086 1 5 2.79086 5 5V19C5 21.2091 6.79086 23 9 23H15C17.2091 23 19 21.2091 19 19V5C19 2.79086 17.2091 1 15 1H14H10H9ZM7 5C7 3.89543 7.89543 3 9 3H10H14H15C16.1046 3 17 3.89543 17 5V19C17 20.1046 16.1046 21 15 21H9C7.89543 21 7 20.1046 7 19V5ZM12 20C12.6904 20 13.25 19.4404 13.25 18.75C13.25 18.0596 12.6904 17.5 12 17.5C11.3096 17.5 10.75 18.0596 10.75 18.75C10.75 19.4404 11.3096 20 12 20Z" fill="black"/>
</svg>
