<svg width="24" height="24" viewBox="0 0 24 24" fill="none" xmlns="http://www.w3.org/2000/svg">
<path fill-rule="evenodd" clip-rule="evenodd" d="M18 4C18 3.44772 17.5523 3 17 3C16.4477 3 16 3.44772 16 4V11H5C2.79086 11 1 12.7909 1 15V17C1 19.2091 2.79086 21 5 21H19C21.2091 21 23 19.2091 23 17V15C23 12.7909 21.2091 11 19 11H18V4ZM3 15C3 13.8954 3.89543 13 5 13H17H19C20.1046 13 21 13.8954 21 15V17C21 18.1046 20.1046 19 19 19H5C3.89543 19 3 18.1046 3 17V15ZM6 17C6.55228 17 7 16.5523 7 16C7 15.4477 6.55228 15 6 15C5.44772 15 5 15.4477 5 16C5 16.5523 5.44772 17 6 17ZM10 17C10.5523 17 11 16.5523 11 16C11 15.4477 10.5523 15 10 15C9.44772 15 9 15.4477 9 16C9 16.5523 9.44772 17 10 17Z" fill="black"/>
</svg>
