<svg width="24" height="24" viewBox="0 0 24 24" fill="none" xmlns="http://www.w3.org/2000/svg">
<path fill-rule="evenodd" clip-rule="evenodd" d="M7.80088 3.71423C8.19534 3.32769 8.20175 2.69455 7.8152 2.30009C7.42866 1.90563 6.79552 1.89922 6.40106 2.28577C6.04472 2.63496 5.72087 3.01731 5.43447 3.42791C5.18319 3.78816 4.96069 4.17024 4.7704 4.57081C4.27609 5.61132 4 6.77479 4 7.99995C4 9.22512 4.27609 10.3886 4.7704 11.4291C4.96069 11.8297 5.18319 12.2117 5.43447 12.572C5.75042 13.025 6.37377 13.1361 6.82675 12.8201C7.27973 12.5041 7.3908 11.8808 7.07485 11.4278C6.88624 11.1574 6.71944 10.8709 6.57691 10.5709C6.20731 9.79288 6 8.92202 6 7.99995C6 7.07789 6.20731 6.20703 6.57691 5.42901C6.71944 5.12898 6.88624 4.84249 7.07485 4.57209C7.28983 4.26387 7.53309 3.97665 7.80088 3.71423ZM17.5989 2.28577C17.2045 1.89922 16.5713 1.90563 16.1848 2.30009C15.7982 2.69455 15.8047 3.32769 16.1991 3.71423C17.3116 4.80441 18 6.32089 18 7.99995C18 8.92202 17.7927 9.79288 17.4231 10.5709C17.2806 10.8709 17.1138 11.1574 16.9252 11.4278C16.6092 11.8808 16.7203 12.5041 17.1733 12.8201C17.6262 13.1361 18.2496 13.025 18.5655 12.572C18.8168 12.2117 19.0393 11.8297 19.2296 11.4291C19.7239 10.3886 20 9.22512 20 7.99995C20 5.76169 19.0795 3.73662 17.5989 2.28577ZM10.0159 5.74976C10.43 5.38429 10.4694 4.75236 10.1039 4.33829C9.73843 3.92422 9.10649 3.88482 8.69242 4.25029C7.65607 5.16501 7 6.50652 7 8.00001C7 9.49351 7.65607 10.835 8.69242 11.7497C9.10649 12.1152 9.73843 12.0758 10.1039 11.6617C10.4694 11.2477 10.43 10.6157 10.0159 10.2503C9.39143 9.69909 9 8.89589 9 8.00001C9 7.10414 9.39143 6.30093 10.0159 5.74976ZM15.3076 4.25029C14.8935 3.88482 14.2616 3.92422 13.8961 4.33829C13.5306 4.75236 13.57 5.3843 13.9841 5.74976C14.6086 6.30093 15 7.10414 15 8.00001C15 8.89589 14.6086 9.69909 13.9841 10.2503C13.57 10.6157 13.5306 11.2477 13.8961 11.6617C14.2616 12.0758 14.8935 12.1152 15.3076 11.7497C16.3439 10.835 17 9.49351 17 8.00001C17 6.50652 16.3439 5.16501 15.3076 4.25029ZM4 14C2.89543 14 2 14.8954 2 16V20C2 21.1046 2.89543 22 4 22H20C21.1046 22 22 21.1046 22 20V16C22 14.8954 21.1046 14 20 14H4ZM4 16H20V20H4V16ZM6 19C6.55228 19 7 18.5523 7 18C7 17.4477 6.55228 17 6 17C5.44772 17 5 17.4477 5 18C5 18.5523 5.44772 19 6 19Z" fill="black"/>
</svg>
