<svg width="24" height="24" viewBox="0 0 24 24" fill="none" xmlns="http://www.w3.org/2000/svg">
<path fill-rule="evenodd" clip-rule="evenodd" d="M5.63582 7.63604C7.26559 6.00626 9.51422 5 11.9998 5C14.4853 5 16.734 6.00626 18.3637 7.63604C18.7543 8.02656 19.3874 8.02656 19.778 7.63604C20.1685 7.24551 20.1685 6.61235 19.778 6.22183C17.7884 4.23231 15.0371 3 11.9998 3C8.96249 3 6.21112 4.23231 4.2216 6.22183C3.83108 6.61235 3.83108 7.24551 4.2216 7.63604C4.61213 8.02656 5.24529 8.02656 5.63582 7.63604ZM8.46424 10.4645C9.37016 9.55855 10.6188 9 11.9998 9C13.3808 9 14.6294 9.55855 15.5353 10.4645C15.9258 10.855 16.559 10.855 16.9495 10.4645C17.34 10.0739 17.34 9.44078 16.9495 9.05025C15.6839 7.7846 13.9325 7 11.9998 7C10.0671 7 8.31569 7.7846 7.05003 9.05025C6.65951 9.44078 6.65951 10.0739 7.05003 10.4645C7.44056 10.855 8.07372 10.855 8.46424 10.4645ZM5 12C2.79086 12 1 13.7909 1 16V17C1 19.2091 2.79086 21 5 21H19C21.2091 21 23 19.2091 23 17V16C23 13.7909 21.2091 12 19 12H5ZM3 16C3 14.8954 3.89543 14 5 14H19C20.1046 14 21 14.8954 21 16V17C21 18.1046 20.1046 19 19 19H5C3.89543 19 3 18.1046 3 17V16ZM5.5 17.5C6.05228 17.5 6.5 17.0523 6.5 16.5C6.5 15.9477 6.05228 15.5 5.5 15.5C4.94772 15.5 4.5 15.9477 4.5 16.5C4.5 17.0523 4.94772 17.5 5.5 17.5ZM9.5 17.5C10.0523 17.5 10.5 17.0523 10.5 16.5C10.5 15.9477 10.0523 15.5 9.5 15.5C8.94772 15.5 8.5 15.9477 8.5 16.5C8.5 17.0523 8.94772 17.5 9.5 17.5Z" fill="black"/>
</svg>
