<svg width="24" height="24" viewBox="0 0 24 24" fill="none" xmlns="http://www.w3.org/2000/svg">
<path fill-rule="evenodd" clip-rule="evenodd" d="M8.70711 3.29289C8.31658 2.90237 7.68342 2.90237 7.29289 3.29289C6.90237 3.68342 6.90237 4.31658 7.29289 4.70711L9.58579 7H5C2.79086 7 1 8.79086 1 11V14V17C1 19.2091 2.79086 21 5 21H11H19C21.2091 21 23 19.2091 23 17V11C23 8.79086 21.2091 7 19 7H14.4142L16.7071 4.70711C17.0976 4.31658 17.0976 3.68342 16.7071 3.29289C16.3166 2.90237 15.6834 2.90237 15.2929 3.29289L12 6.58579L8.70711 3.29289ZM5 9H10V10H3.26756C3.61337 9.4022 4.25972 9 5 9ZM3 12H10V13H3V12ZM3 15H10V16H3V15ZM3.26756 18H10V19H5C4.25972 19 3.61337 18.5978 3.26756 18ZM21 17C21 18.1046 20.1046 19 19 19H12V17V14V11V9H19C20.1046 9 21 9.89543 21 11V17ZM14 11.5C13.4477 11.5 13 11.9477 13 12.5C13 13.0523 13.4477 13.5 14 13.5H19C19.5523 13.5 20 13.0523 20 12.5C20 11.9477 19.5523 11.5 19 11.5H14ZM14.5 16.5C15.0523 16.5 15.5 16.0523 15.5 15.5C15.5 14.9477 15.0523 14.5 14.5 14.5C13.9477 14.5 13.5 14.9477 13.5 15.5C13.5 16.0523 13.9477 16.5 14.5 16.5ZM18.5 16.5C19.0523 16.5 19.5 16.0523 19.5 15.5C19.5 14.9477 19.0523 14.5 18.5 14.5C17.9477 14.5 17.5 14.9477 17.5 15.5C17.5 16.0523 17.9477 16.5 18.5 16.5Z" fill="black"/>
</svg>
