<svg width="24" height="24" viewBox="0 0 24 24" fill="none" xmlns="http://www.w3.org/2000/svg">
<path fill-rule="evenodd" clip-rule="evenodd" d="M20 4C20 3.44772 19.5523 3 19 3C18.4477 3 18 3.44772 18 4V7H12H11H5C2.79086 7 1 8.79086 1 11V14V17C1 19.2091 2.79086 21 5 21H11H19C21.2091 21 23 19.2091 23 17V11C23 9.13616 21.7252 7.57006 20 7.12602V4ZM3 11C3 9.89543 3.89543 9 5 9H11H12H19C20.1046 9 21 9.89543 21 11V17C21 18.1046 20.1046 19 19 19H11H5C3.89543 19 3 18.1046 3 17V14V11ZM6 14C6 12.8954 6.89543 12 8 12C9.10457 12 10 12.8954 10 14C10 15.1046 9.10457 16 8 16C6.89543 16 6 15.1046 6 14ZM8 10C5.79086 10 4 11.7909 4 14C4 16.2091 5.79086 18 8 18C10.2091 18 12 16.2091 12 14C12 11.7909 10.2091 10 8 10ZM14 11.5C13.4477 11.5 13 11.9477 13 12.5C13 13.0523 13.4477 13.5 14 13.5H19C19.5523 13.5 20 13.0523 20 12.5C20 11.9477 19.5523 11.5 19 11.5H14ZM14.5 16.5C15.0523 16.5 15.5 16.0523 15.5 15.5C15.5 14.9477 15.0523 14.5 14.5 14.5C13.9477 14.5 13.5 14.9477 13.5 15.5C13.5 16.0523 13.9477 16.5 14.5 16.5ZM18.5 16.5C19.0523 16.5 19.5 16.0523 19.5 15.5C19.5 14.9477 19.0523 14.5 18.5 14.5C17.9477 14.5 17.5 14.9477 17.5 15.5C17.5 16.0523 17.9477 16.5 18.5 16.5Z" fill="black"/>
</svg>
