<svg width="24" height="24" viewBox="0 0 24 24" fill="none" xmlns="http://www.w3.org/2000/svg">
<path d="M4 5V19C4 20.6569 5.34315 22 7 22H17C18.6569 22 20 20.6569 20 19V9.24264C20 8.44699 19.6839 7.68393 19.1213 7.12132L14.8787 2.87868C14.3161 2.31607 13.553 2 12.7574 2H7C5.34315 2 4 3.34315 4 5Z" stroke="black" stroke-width="2" stroke-linecap="round" stroke-linejoin="round"/>
<path d="M7 18V13C7 12.4477 7.44772 12 8 12H12C12.5523 12 13 12.4477 13 13V18C13 18.5523 12.5523 19 12 19H8C7.44772 19 7 18.5523 7 18Z" fill="black"/>
</svg>
