<svg width="24" height="24" viewBox="0 0 24 24" fill="none" xmlns="http://www.w3.org/2000/svg">
<path d="M6 16V12C6 10.8954 5.10457 10 4 10C2.89543 10 2 10.8954 2 12V16C2 17.1046 2.89543 18 4 18C5.10457 18 6 17.1046 6 16Z" stroke="black" stroke-width="2" stroke-linejoin="round"/>
<path d="M14 16V10C14 8.89543 13.1046 8 12 8C10.8954 8 10 8.89543 10 10V16C10 17.1046 10.8954 18 12 18C13.1046 18 14 17.1046 14 16Z" stroke="black" stroke-width="2" stroke-linejoin="round"/>
<path d="M22 16V8C22 6.89543 21.1046 6 20 6C18.8954 6 18 6.89543 18 8V16C18 17.1046 18.8954 18 20 18C21.1046 18 22 17.1046 22 16Z" stroke="black" stroke-width="2" stroke-linejoin="round"/>
</svg>
