<svg width="24" height="24" viewBox="0 0 24 24" fill="none" xmlns="http://www.w3.org/2000/svg">
<path d="M6 12.2V16C6 17.1046 5.10457 18 4 18C2.89543 18 2 17.1046 2 16V12C2 11.1138 2.57634 10.3623 3.37464 10.0997M14 13.6V10C14 8.89543 13.1046 8 12 8C10.8954 8 10 8.89543 10 10V10.4M14 13.6L10 10.4M14 13.6L18.2832 17.0266M10 15.4V16C10 17.1046 10.8954 18 12 18C12.344 18 12.6676 17.9132 12.9503 17.7602M10 10.4L2 4M19.3759 17.9007C19.5723 17.9651 19.7821 18 20 18C21.1046 18 22 17.1046 22 16V8C22 6.89543 21.1046 6 20 6C18.8954 6 18 6.89543 18 8V16C18 16.3753 18.1034 16.7265 18.2832 17.0266M19.3759 17.9007L18.2832 17.0266M19.3759 17.9007L22 20" stroke="black" stroke-width="2" stroke-linecap="round" stroke-linejoin="round"/>
</svg>
