<svg width="24" height="24" viewBox="0 0 24 24" fill="none" xmlns="http://www.w3.org/2000/svg">
<path fill-rule="evenodd" clip-rule="evenodd" d="M7 1C4.79086 1 3 2.79086 3 5V19C3 21.2091 4.79086 23 7 23H17C19.2091 23 21 21.2091 21 19V5C21 2.79086 19.2091 1 17 1H7ZM5 5C5 3.89543 5.89543 3 7 3H17C18.1046 3 19 3.89543 19 5V19C19 20.1046 18.1046 21 17 21H7C5.89543 21 5 20.1046 5 19V5ZM9 10C9 8.34315 10.3431 7 12 7C13.6569 7 15 8.34315 15 10C15 11.6569 13.6569 13 12 13C10.3431 13 9 11.6569 9 10ZM12 5C9.23858 5 7 7.23858 7 10C7 12.7614 9.23858 15 12 15C14.7614 15 17 12.7614 17 10C17 7.23858 14.7614 5 12 5ZM8.25 19.25C8.94036 19.25 9.5 18.6904 9.5 18C9.5 17.3096 8.94036 16.75 8.25 16.75C8.01906 16.75 7.80275 16.8126 7.61712 16.9218C7.56404 16.953 7.55834 17.0255 7.60188 17.069L8.17054 17.6377C8.24865 17.7158 8.24865 17.8424 8.17054 17.9205C8.09244 17.9986 7.96581 17.9986 7.8877 17.9205L7.31904 17.3519C7.2755 17.3083 7.20305 17.314 7.17182 17.3671C7.06263 17.5527 7 17.7691 7 18C7 18.6904 7.55964 19.25 8.25 19.25ZM13.25 18C13.25 17.3096 12.6904 16.75 12 16.75C11.3096 16.75 10.75 17.3096 10.75 18C10.75 18.2309 10.8126 18.4473 10.9218 18.6329C10.953 18.686 11.0255 18.6917 11.069 18.6481L11.6377 18.0795C11.7158 18.0014 11.8424 18.0014 11.9205 18.0795C11.9986 18.1576 11.9986 18.2842 11.9205 18.3623L11.3519 18.931C11.3083 18.9745 11.314 19.047 11.3671 19.0782C11.5527 19.1874 11.7691 19.25 12 19.25C12.6904 19.25 13.25 18.6904 13.25 18ZM14.5 18C14.5 18.6904 15.0596 19.25 15.75 19.25C16.4404 19.25 17 18.6904 17 18C17 17.7691 16.9374 17.5527 16.8282 17.3671C16.797 17.314 16.7245 17.3083 16.681 17.3519L16.1123 17.9205C16.0342 17.9986 15.9076 17.9986 15.8295 17.9205C15.7514 17.8424 15.7514 17.7158 15.8295 17.6377L16.3981 17.069C16.4417 17.0255 16.436 16.953 16.3829 16.9218C16.1973 16.8126 15.9809 16.75 15.75 16.75C15.0596 16.75 14.5 17.3096 14.5 18Z" fill="black"/>
</svg>
