<svg width="24" height="24" viewBox="0 0 24 24" fill="none" xmlns="http://www.w3.org/2000/svg">
<path fill-rule="evenodd" clip-rule="evenodd" d="M4 4C2.34315 4 1 5.34315 1 7V17C1 18.6569 2.34315 20 4 20H20C21.6569 20 23 18.6569 23 17V7C23 5.34315 21.6569 4 20 4H4ZM3 7C3 6.44772 3.44772 6 4 6H20C20.5523 6 21 6.44772 21 7V17C21 17.5523 20.5523 18 20 18H4C3.44772 18 3 17.5523 3 17V7ZM18.25 13.25C18.9404 13.25 19.5 12.6904 19.5 12C19.5 11.3096 18.9404 10.75 18.25 10.75C17.5596 10.75 17 11.3096 17 12C17 12.6904 17.5596 13.25 18.25 13.25Z" fill="black"/>
</svg>
