<svg width="24" height="24" viewBox="0 0 24 24" fill="none" xmlns="http://www.w3.org/2000/svg">
<path d="M19 11C19.5523 11 20 10.5523 20 10C20 9.44772 19.5523 9 19 9C18.4477 9 18 9.44772 18 10C18 10.5523 18.4477 11 19 11Z" fill="black"/>
<path d="M12 7H4C2.89543 7 2 7.89543 2 9V18C2 19.1046 2.89543 20 4 20H16M12 7L15 4M12 7L9 4M12 7H16M16 7H20C21.1046 7 22 7.89543 22 9V18C22 19.1046 21.1046 20 20 20H16M16 7V20M19 17V13" stroke="black" stroke-width="2" stroke-linecap="round" stroke-linejoin="round"/>
</svg>
