<svg width="24" height="24" viewBox="0 0 24 24" fill="none" xmlns="http://www.w3.org/2000/svg">
<path fill-rule="evenodd" clip-rule="evenodd" d="M9.70711 2.29289C9.31658 1.90237 8.68342 1.90237 8.29289 2.29289C7.90237 2.68342 7.90237 3.31658 8.29289 3.70711L9.58579 5H5C3.34315 5 2 6.34315 2 8V16V19C2 20.6569 3.34315 22 5 22H12H19C20.6569 22 22 20.6569 22 19V16V8C22 6.34315 20.6569 5 19 5H14.4142L15.7071 3.70711C16.0976 3.31658 16.0976 2.68342 15.7071 2.29289C15.3166 1.90237 14.6834 1.90237 14.2929 2.29289L12 4.58579L9.70711 2.29289ZM5 7H12H19C19.5523 7 20 7.44772 20 8V15H4V8C4 7.44772 4.44772 7 5 7ZM4 19V17H20V19C20 19.5523 19.5523 20 19 20H12H5C4.44772 20 4 19.5523 4 19ZM12 19.5C12.5523 19.5 13 19.0523 13 18.5C13 17.9477 12.5523 17.5 12 17.5C11.4477 17.5 11 17.9477 11 18.5C11 19.0523 11.4477 19.5 12 19.5Z" fill="black"/>
</svg>
