<svg width="24" height="24" viewBox="0 0 24 24" fill="none" xmlns="http://www.w3.org/2000/svg">
<path d="M7 7H12C13.6569 7 15 8.34315 15 10V12M7 7L3 3M7 7L14.8715 14.8715M12 17H6C4.34315 17 3 15.6569 3 14V10C3 9.42783 3.16018 8.89308 3.43813 8.43813M14.8715 14.8715C14.9551 14.5957 15 14.3031 15 14V12M14.8715 14.8715L21 21M15 12L19.3598 8.36682C20.0111 7.82405 21 8.2872 21 9.13504V14.865C21 15.7128 20.0111 16.176 19.3598 15.6332L15 12Z" stroke="black" stroke-width="2" stroke-linecap="round" stroke-linejoin="round"/>
</svg>
