<svg width="24" height="24" viewBox="0 0 24 24" fill="none" xmlns="http://www.w3.org/2000/svg">
<path d="M18 8.67321C18.6317 9.62612 18.9998 10.77 18.9998 12C18.9998 13.23 18.6317 14.3739 18 15.3268M5 10.9972V13.0028C5 14.1105 5.89543 15.0084 7 15.0084H7.89206C8.61704 15.0084 9.32839 15.206 9.95005 15.58L12.4855 17.1055C13.152 17.5066 14 17.0251 14 16.2457V7.75435C14 6.97488 13.152 6.49342 12.4855 6.89445L9.95005 8.41998C9.32839 8.79402 8.61704 8.99161 7.89206 8.99161H7C5.89543 8.99161 5 9.88954 5 10.9972Z" stroke="black" stroke-width="2" stroke-linecap="round" stroke-linejoin="round"/>
</svg>
