<svg width="24" height="24" viewBox="0 0 24 24" fill="none" xmlns="http://www.w3.org/2000/svg">
<path d="M18.5 12L21 9.50839M18.5 12L16 14.5084M18.5 12L16 9.50839M18.5 12L21 14.5084M3 10.9972V13.0028C3 14.1105 3.89543 15.0084 5 15.0084H5.89206C6.61704 15.0084 7.32839 15.206 7.95005 15.58L10.4855 17.1055C11.152 17.5066 12 17.0251 12 16.2457V7.75435C12 6.97488 11.152 6.49342 10.4855 6.89445L7.95005 8.41998C7.32839 8.79402 6.61704 8.99161 5.89206 8.99161H5C3.89543 8.99161 3 9.88954 3 10.9972Z" stroke="black" stroke-width="2" stroke-linecap="round" stroke-linejoin="round"/>
</svg>
