<svg width="24" height="24" viewBox="0 0 24 24" fill="none" xmlns="http://www.w3.org/2000/svg">
<path d="M18.1412 5C19.9095 6.80375 20.9998 9.27455 20.9998 12C20.9998 14.7255 19.9095 17.1962 18.1412 19M16 15.3175C16.6317 14.3673 16.9998 13.2266 16.9998 12C16.9998 10.7734 16.6317 9.63274 16 8.68249M3 11V13C3 14.1046 3.89543 15 5 15H5.89206C6.61704 15 7.32839 15.197 7.95005 15.57L10.4855 17.0913C11.152 17.4912 12 17.0111 12 16.2338V7.76619C12 6.9889 11.152 6.50879 10.4855 6.9087L7.95005 8.42997C7.32839 8.80297 6.61704 9 5.89206 9H5C3.89543 9 3 9.89543 3 11Z" stroke="black" stroke-width="2" stroke-linecap="round" stroke-linejoin="round"/>
</svg>
