<svg width="24" height="24" viewBox="0 0 24 24" fill="none" xmlns="http://www.w3.org/2000/svg">
<path d="M15.8482 15.8482C17.7469 14.5963 18.9999 12.4445 18.9999 10C18.9999 6.13401 15.8659 3 11.9999 3C8.13392 3 4.99991 6.13401 4.99991 10C4.99991 12.4445 6.25291 14.5963 8.15167 15.8482M15.8482 15.8482C14.744 16.5763 13.4214 17 11.9999 17C10.5784 17 9.25584 16.5763 8.15167 15.8482M15.8482 15.8482C19.9999 15.8482 20.9999 18 20.9997 20C20.9999 20.5 20.4999 21 19.9999 21L3.99992 20.9956C3.5 20.9956 3 20.5 3 20C3 18 3.99992 16 8.15167 15.8482M11.9999 12C10.8953 12 9.99991 11.1046 9.99991 10C9.99991 8.89543 10.8953 8 11.9999 8C13.1045 8 13.9999 8.89543 13.9999 10C13.9999 11.1046 13.1045 12 11.9999 12Z" stroke="black" stroke-width="2"/>
</svg>
