<svg width="24" height="24" viewBox="0 0 24 24" fill="none" xmlns="http://www.w3.org/2000/svg">
<path d="M18.4286 11.13C16.6246 9.67973 14.4028 8.82405 12 8.82405C11.0387 8.82405 10.1064 8.961 9.2182 9.2182M21 7.22836C18.4744 5.19796 15.364 4 12 4C9.70046 4 7.51939 4.55979 5.56261 5.56261M13.9859 13.9859C14.6641 14.2234 15.2945 14.5793 15.8572 15.0317M13.9859 13.9859L9.2182 9.2182M13.9859 13.9859L21 21M9.292 14.292C8.88503 14.4959 8.50028 14.7443 8.14286 15.0317M5.88619 10.8862C5.77992 10.9655 5.67499 11.0468 5.57143 11.13M9.2182 9.2182L5.56261 5.56261M3 3L5.56261 5.56261M12 18.4721C11.5194 18.4721 11.0751 18.6433 10.7143 18.9333L12 20L13.2857 18.9333C12.9249 18.6433 12.4806 18.4721 12 18.4721Z" stroke="black" stroke-width="2" stroke-linecap="round" stroke-linejoin="round"/>
</svg>
