<svg width="24" height="24" viewBox="0 0 24 24" fill="none" xmlns="http://www.w3.org/2000/svg">
<path d="M18.4286 11.13C16.6246 9.67973 14.4028 8.82405 12 8.82405C9.59717 8.82405 7.37545 9.67973 5.57143 11.13M21 7.22836C18.4744 5.19796 15.364 4 12 4C8.63604 4 5.52563 5.19796 3 7.22837M15.8572 15.0317C14.7747 14.1615 13.4417 13.6481 12 13.6481C10.5583 13.6481 9.22527 14.1615 8.14286 15.0317M12 18.4721C11.5194 18.4721 11.0751 18.6433 10.7143 18.9333L12 20L13.2857 18.9333C12.9249 18.6433 12.4806 18.4721 12 18.4721Z" stroke="black" stroke-width="2" stroke-linecap="round" stroke-linejoin="round"/>
</svg>
