<svg width="24" height="24" viewBox="0 0 24 24" fill="none" xmlns="http://www.w3.org/2000/svg">
<path fill-rule="evenodd" clip-rule="evenodd" d="M8.12132 3.29289C8.30886 3.10536 8.56321 3 8.82843 3H15.1716C15.4368 3 15.6911 3.10536 15.8787 3.29289L20.7071 8.12132C20.8946 8.30886 21 8.56321 21 8.82843V15.1716C21 15.4368 20.8946 15.6911 20.7071 15.8787L15.8787 20.7071C15.6911 20.8946 15.4368 21 15.1716 21H8.82843C8.56321 21 8.30886 20.8946 8.12132 20.7071L3.29289 15.8787C3.10536 15.6911 3 15.4368 3 15.1716V8.82843C3 8.56321 3.10536 8.30886 3.29289 8.12132L8.12132 3.29289ZM8.82843 1C8.03278 1 7.26972 1.31607 6.70711 1.87868L1.87868 6.70711C1.31607 7.26972 1 8.03278 1 8.82843V15.1716C1 15.9672 1.31607 16.7303 1.87868 17.2929L6.70711 22.1213C7.26972 22.6839 8.03278 23 8.82843 23H15.1716C15.9672 23 16.7303 22.6839 17.2929 22.1213L22.1213 17.2929C22.6839 16.7303 23 15.9672 23 15.1716V8.82843C23 8.03278 22.6839 7.26972 22.1213 6.70711L17.2929 1.87868C16.7303 1.31607 15.9672 1 15.1716 1H8.82843ZM13 8C13 7.44772 12.5523 7 12 7C11.4477 7 11 7.44772 11 8V13C11 13.5523 11.4477 14 12 14C12.5523 14 13 13.5523 13 13V8ZM12 17C12.5523 17 13 16.5523 13 16C13 15.4477 12.5523 15 12 15C11.4477 15 11 15.4477 11 16C11 16.5523 11.4477 17 12 17Z" fill="black"/>
</svg>
