<svg width="24" height="24" viewBox="0 0 24 24" fill="none" xmlns="http://www.w3.org/2000/svg">
<path fill-rule="evenodd" clip-rule="evenodd" d="M14.9394 4.66053C13.6754 2.44648 10.3244 2.44649 9.06033 4.66054L2.407 16.3143C1.13546 18.5415 2.94719 21 5.34657 21H18.6532C21.0526 21 22.8643 18.5415 21.5928 16.3143L14.9394 4.66053ZM10.7972 5.65214C11.2936 4.78262 12.7062 4.78262 13.2026 5.65214L19.8559 17.3059C20.2369 17.9733 19.7858 19 18.6532 19H5.34657C4.21399 19 3.76286 17.9733 4.14387 17.3059L10.7972 5.65214ZM12.9999 8.5C12.9999 7.94772 12.5522 7.5 11.9999 7.5C11.4476 7.5 10.9999 7.94772 10.9999 8.5V13.5C10.9999 14.0523 11.4476 14.5 11.9999 14.5C12.5522 14.5 12.9999 14.0523 12.9999 13.5V8.5ZM11.9999 17.5C12.5522 17.5 12.9999 17.0523 12.9999 16.5C12.9999 15.9477 12.5522 15.5 11.9999 15.5C11.4476 15.5 10.9999 15.9477 10.9999 16.5C10.9999 17.0523 11.4476 17.5 11.9999 17.5Z" fill="black"/>
</svg>
