<svg width="24" height="24" viewBox="0 0 24 24" fill="none" xmlns="http://www.w3.org/2000/svg">
<path fill-rule="evenodd" clip-rule="evenodd" d="M11.4241 3.15257C11.7785 2.94914 12.2215 2.94914 12.5759 3.15257L19.4583 7.10265C19.8016 7.29969 20 7.65043 20 8.01627V15.9837C20 16.3496 19.8016 16.7003 19.4583 16.8974L12.5759 20.8474C12.2215 21.0509 11.7785 21.0509 11.4241 20.8474L4.54174 16.8974C4.19843 16.7003 4 16.3496 4 15.9837V8.01627C4 7.65043 4.19843 7.29969 4.54174 7.10265L11.4241 3.15257ZM13.5715 1.41797C12.6005 0.860677 11.3995 0.860677 10.4285 1.41797L10.9263 2.28527L10.4285 1.41797L3.54618 5.36804C2.59586 5.91347 2 6.91774 2 8.01627V15.9837C2 17.0823 2.59586 18.0865 3.54618 18.632L10.4285 22.582C11.3995 23.1393 12.6005 23.1393 13.5715 22.582L20.4538 18.632C21.4041 18.0865 22 17.0823 22 15.9837V8.01627C22 6.91774 21.4041 5.91347 20.4538 5.36804L13.5715 1.41797ZM13 8C13 7.44772 12.5523 7 12 7C11.4477 7 11 7.44772 11 8V13C11 13.5523 11.4477 14 12 14C12.5523 14 13 13.5523 13 13V8ZM12 17C12.5523 17 13 16.5523 13 16C13 15.4477 12.5523 15 12 15C11.4477 15 11 15.4477 11 16C11 16.5523 11.4477 17 12 17Z" fill="black"/>
</svg>
