<svg width="24" height="24" viewBox="0 0 24 24" fill="none" xmlns="http://www.w3.org/2000/svg">
<path fill-rule="evenodd" clip-rule="evenodd" d="M6 2C3.79086 2 2 3.79086 2 6V18C2 20.2091 3.79086 22 6 22H18C20.2091 22 22 20.2091 22 18V6C22 3.79086 20.2091 2 18 2H6ZM4 6C4 4.89543 4.89543 4 6 4H18C19.1046 4 20 4.89543 20 6V18C20 19.1046 19.1046 20 18 20H6C4.89543 20 4 19.1046 4 18V6ZM13 8C13 7.44772 12.5523 7 12 7C11.4477 7 11 7.44772 11 8V13C11 13.5523 11.4477 14 12 14C12.5523 14 13 13.5523 13 13V8ZM12 17C12.5523 17 13 16.5523 13 16C13 15.4477 12.5523 15 12 15C11.4477 15 11 15.4477 11 16C11 16.5523 11.4477 17 12 17Z" fill="black"/>
</svg>
