<svg width="24" height="24" viewBox="0 0 24 24" fill="none" xmlns="http://www.w3.org/2000/svg">
<path d="M12.8866 6.16292L12.492 5.24407V5.24407L12.8866 6.16292ZM15.2122 5.1642L14.8176 4.24535V4.24535L15.2122 5.1642ZM15.2122 15.7965L14.8176 16.7154L15.2122 15.7965ZM12.8866 14.7978L12.492 15.7167L12.8866 14.7978ZM7.86073 19.1627L8.84718 18.9986L7.86073 19.1627ZM10 14.0433L10.1055 13.0488H10.1055L10 14.0433ZM11 9.5C11 8.94772 10.5523 8.5 10 8.5C9.44772 8.5 9 8.94772 9 9.5H11ZM9 11.5C9 12.0523 9.44772 12.5 10 12.5C10.5523 12.5 11 12.0523 11 11.5H9ZM21 11.72L21.2425 12.6901C21.6877 12.5789 22 12.1789 22 11.72H21ZM21 9.24H22C22 8.78113 21.6877 8.38115 21.2425 8.26986L21 9.24ZM6.5 7.97314H8.94742V5.97314H6.5V7.97314ZM13.2812 7.08177L15.6068 6.08305L14.8176 4.24535L12.492 5.24407L13.2812 7.08177ZM15.6068 14.8777L13.2812 13.879L12.492 15.7167L14.8176 16.7154L15.6068 14.8777ZM8.84713 21H9V19H8.84713V21ZM9 21C10.1065 21 11 20.1017 11 18.9979H9C9 18.9995 8.99985 19 8.9999 18.9998C8.99994 18.9996 9.00002 18.9993 9.00012 18.9991C9.00026 18.9988 9.00009 18.9993 8.99927 19.0001C8.99845 19.0009 8.99815 19.0009 8.99901 19.0005C8.99951 19.0003 9.0001 19.0001 9.00066 19C9.00128 18.9999 9.00117 19 9 19V21ZM8.84713 19C8.84633 19 8.84699 19 8.84795 19.0003C8.84852 19.0005 8.84839 19.0006 8.8479 19.0002C8.84741 18.9998 8.84726 18.9995 8.84733 18.9996C8.84761 19.0001 8.84744 19.0001 8.84718 18.9986L6.87428 19.3267C7.03463 20.2908 7.86784 21 8.84713 21V19ZM17 13.9545C17 14.6782 16.2636 15.1598 15.6068 14.8777L14.8176 16.7154C16.8002 17.5669 19 16.1083 19 13.9545H17ZM15.6068 6.08305C16.2636 5.80097 17 6.28252 17 7.00629H19C19 4.85246 16.8002 3.3939 14.8176 4.24535L15.6068 6.08305ZM2 10.4804C2 12.9677 4.01277 14.9876 6.5 14.9876V12.9876C5.12123 12.9876 4 11.867 4 10.4804H2ZM8.94742 7.97314C10.4374 7.97314 11.9118 7.66987 13.2812 7.08177L12.492 5.24407C11.3719 5.72513 10.166 5.97314 8.94742 5.97314V7.97314ZM6.5 5.97314C4.01277 5.97314 2 7.99305 2 10.4804H4C4 9.09372 5.12123 7.97314 6.5 7.97314V5.97314ZM13.2812 13.879C12.2681 13.4439 11.1974 13.1647 10.1055 13.0488L9.89453 15.0377C10.7876 15.1324 11.6633 15.3608 12.492 15.7167L13.2812 13.879ZM10.1055 13.0488C9.72156 13.0081 9.33502 12.9876 8.94742 12.9876V14.9876C9.26441 14.9876 9.58054 15.0044 9.89453 15.0377L10.1055 13.0488ZM8.94742 12.9876H7V14.9876H8.94742V12.9876ZM7 12.9876H6.5V14.9876H7V12.9876ZM9 9.5V11.5H11V9.5H9ZM11 18.9979V14.0433H9V18.9979H11ZM6.01355 14.1517L6.87428 19.3267L8.84718 18.9986L7.98645 13.8235L6.01355 14.1517ZM17 7.00629V8.49H19V7.00629H17ZM17 8.49V10.4804H19V8.49H17ZM17 10.4804V12.47H19V10.4804H17ZM17 12.47V13.9545H19V12.47H17ZM18.2425 13.4401L21.2425 12.6901L20.7575 10.7499L17.7575 11.4999L18.2425 13.4401ZM20 9.24V11.72H22V9.24H20ZM17.7575 9.46014L20.7575 10.2101L21.2425 8.26986L18.2425 7.51986L17.7575 9.46014Z" fill="black"/>
</svg>
