<svg width="24" height="24" viewBox="0 0 24 24" fill="none" xmlns="http://www.w3.org/2000/svg">
<path fill-rule="evenodd" clip-rule="evenodd" d="M13.1596 7.14737L17.9946 5.00622L17.9949 5.0068C17.9959 5.00865 17.997 5.01116 17.9979 5.01476C17.9988 5.01823 18 5.02448 18 5.03436V15.3331C18 15.3429 17.9988 15.3492 17.9979 15.3527C17.9974 15.3547 17.9969 15.3563 17.9963 15.3577C17.9959 15.3589 17.9954 15.3598 17.9949 15.3606L17.9946 15.3612L13.1596 13.2201C12.5348 12.9434 11.8609 12.8002 11.179 12.8002H9.58711C8.66337 12.8002 7.95916 13.6271 8.10625 14.5391L8.70654 18.2607C8.77495 18.6848 8.45837 19 8.13731 19C7.90974 19 7.67908 18.8478 7.59206 18.5781L6.06348 13.8397C5.86361 13.2201 5.28693 12.8002 4.63592 12.8002H4C3.47833 12.8002 3 12.3538 3 11.7336V8.63378C3 8.01361 3.47833 7.5672 4 7.5672H11.179C11.8609 7.5672 12.5348 7.42403 13.1596 7.14737ZM20 5.03436C20 3.62149 18.5691 2.56449 17.2012 3.17026L12.3497 5.31866C11.9787 5.48299 11.5805 5.5672 11.179 5.5672H4C2.31253 5.5672 1 6.97128 1 8.63378V11.7336C1 13.3962 2.31253 14.8002 4 14.8002H4.27185L5.68865 19.1921C6.03118 20.2539 7.0065 21 8.13731 21C9.76639 21 10.9332 19.5057 10.681 17.9422L10.1742 14.8002H11.179C11.5805 14.8002 11.9787 14.8844 12.3497 15.0488L17.2012 17.1972C18.5691 17.8029 20 16.7459 20 15.3331V5.03436ZM23 6.99996C23 6.44767 22.5523 5.99996 22 5.99996C21.4477 5.99996 21 6.44767 21 6.99996V13C21 13.5522 21.4477 14 22 14C22.5523 14 23 13.5522 23 13V6.99996ZM6 11C6.55228 11 7 10.5522 7 9.99996C7 9.44767 6.55228 8.99996 6 8.99996C5.44772 8.99996 5 9.44767 5 9.99996C5 10.5522 5.44772 11 6 11Z" fill="black"/>
</svg>
