<svg width="24" height="24" viewBox="0 0 24 24" fill="none" xmlns="http://www.w3.org/2000/svg">
<path fill-rule="evenodd" clip-rule="evenodd" d="M12.1596 7.14737L16.9946 5.00622L16.9949 5.0068C16.9959 5.00865 16.997 5.01116 16.9979 5.01476C16.9988 5.01823 17 5.02448 17 5.03436V15.3331C17 15.3429 16.9988 15.3492 16.9979 15.3527C16.997 15.3563 16.9959 15.3588 16.9949 15.3606L16.9946 15.3612L12.1596 13.2201C11.5348 12.9434 10.8609 12.8002 10.179 12.8002H9.58711C8.66337 12.8002 7.95916 13.6271 8.10625 14.5391L8.70654 18.2607C8.77495 18.6848 8.45837 19 8.13731 19C7.90974 19 7.67908 18.8478 7.59206 18.5781L6.06348 13.8397C5.86361 13.2201 5.28693 12.8002 4.63592 12.8002H4C3.47833 12.8002 3 12.3538 3 11.7336V8.63378C3 8.01361 3.47833 7.5672 4 7.5672H10.179C10.8609 7.5672 11.5348 7.42403 12.1596 7.14737ZM19 5.03436C19 3.62149 17.5691 2.56449 16.2012 3.17026L11.3497 5.31866C10.9787 5.48299 10.5805 5.5672 10.179 5.5672H4C2.31253 5.5672 1 6.97128 1 8.63378V11.7336C1 13.3962 2.31253 14.8002 4 14.8002H4.27185L5.68865 19.1921C6.03118 20.2539 7.0065 21 8.13731 21C9.76639 21 10.9332 19.5057 10.681 17.9422L10.1742 14.8002H10.179C10.5805 14.8002 10.9787 14.8844 11.3497 15.0488L16.2012 17.1972C17.5691 17.8029 19 16.7459 19 15.3331V13.8739C20.7252 13.4299 22 11.8638 22 9.99992C22 8.13608 20.7252 6.56998 19 6.12594V5.03436ZM6 10.9999C6.55228 10.9999 7 10.5522 7 9.99992C7 9.44763 6.55228 8.99992 6 8.99992C5.44772 8.99992 5 9.44763 5 9.99992C5 10.5522 5.44772 10.9999 6 10.9999Z" fill="black"/>
</svg>
