<svg width="24" height="24" viewBox="0 0 24 24" fill="none" xmlns="http://www.w3.org/2000/svg">
<path fill-rule="evenodd" clip-rule="evenodd" d="M15.6068 6.08309C16.2636 5.80101 17 6.28256 17 7.00633V13.9545C17 14.6783 16.2636 15.1598 15.6068 14.8777L13.2812 13.879C12.2681 13.4439 11.1974 13.1647 10.1055 13.0489C9.72156 13.0082 9.33502 12.9876 8.94742 12.9876H7H6.5C5.12123 12.9876 4 11.8671 4 10.4804C4 9.09376 5.12123 7.97318 6.5 7.97318H8.94742C10.4374 7.97318 11.9118 7.66991 13.2812 7.08181L15.6068 6.08309ZM19 7.00633C19 4.8525 16.8002 3.39394 14.8176 4.24539L12.492 5.24411C11.3719 5.72517 10.166 5.97318 8.94742 5.97318H6.5C4.01277 5.97318 2 7.99309 2 10.4804C2 12.8501 3.82684 14.7955 6.15036 14.9742L6.18022 15.1538L6.87428 19.3268C7.03463 20.2908 7.86784 21 8.84713 21H9C10.1065 21 11 20.1017 11 18.998V15.2254C11.5094 15.345 12.0087 15.5091 12.492 15.7167L14.8176 16.7154C16.8002 17.5669 19 16.1083 19 13.9545V13.3293C20.1652 12.9175 21 11.8063 21 10.5C21 9.19382 20.1652 8.08258 19 7.67075V7.00633ZM8.84718 18.9986L8.18006 14.9876H8.94742L9 14.9878V14.9897V18.998L8.99995 18.9994L8.99939 19H8.84771C8.84757 18.9999 8.84747 18.9998 8.8474 18.9997M8.84733 18.9996C8.84734 18.9996 8.84737 18.9997 8.8474 18.9997C8.84735 18.9995 8.84727 18.9992 8.84718 18.9986M11 9.50004C11 8.94775 10.5523 8.50004 10 8.50004C9.44772 8.50004 9 8.94775 9 9.50004V11.5C9 12.0523 9.44772 12.5 10 12.5C10.5523 12.5 11 12.0523 11 11.5V9.50004Z" fill="black"/>
</svg>
