<svg width="24" height="24" viewBox="0 0 24 24" fill="none" xmlns="http://www.w3.org/2000/svg">
<path fill-rule="evenodd" clip-rule="evenodd" d="M8.60688 4.79484C9.46912 4.3047 10.4647 3.99805 11.5269 3.92744C11.5091 4.11589 11.4999 4.30688 11.4999 4.5C11.4999 4.99007 11.5587 5.46641 11.6695 5.92238C10.9035 5.97179 10.197 6.19148 9.59524 6.53355C9.53893 6.56556 9.48356 6.59863 9.42914 6.63273C8.27971 7.35296 7.58227 8.50812 7.58227 9.76471V10.3852C7.58227 12.0669 7.14486 13.7203 6.31154 15.2132L5.03764 17.4954C5.05047 17.4982 5.06607 17.5 5.08487 17.5H8.99994H14.9999H18.915C18.9338 17.5 18.9494 17.4982 18.9622 17.4954L17.6883 15.2132C16.8579 13.7255 16.4206 12.0783 16.4176 10.4026C16.7687 10.4666 17.1304 10.5 17.4999 10.5C17.812 10.5 18.1185 10.4762 18.4177 10.4302C18.4254 11.7468 18.771 13.0495 19.4347 14.2384L20.7573 16.608C21.1386 17.2911 21.044 18.0507 20.6598 18.6076C20.2821 19.155 19.6387 19.5 18.915 19.5H14.9999H8.99994H5.08487C4.36119 19.5 3.71773 19.155 3.34006 18.6076C2.95586 18.0507 2.86123 17.2911 3.24254 16.608L4.56517 14.2384C5.2364 13.0359 5.58227 11.7171 5.58227 10.3852V9.76471C5.58227 7.7277 6.71625 5.97243 8.36719 4.93795C8.44588 4.88865 8.5258 4.84093 8.60688 4.79484ZM11.689 3C11.8768 2.27039 12.1983 1.59448 12.626 1H9.99994C9.44765 1 8.99994 1.44772 8.99994 2C8.99994 2.55228 9.44765 3 9.99994 3H11.689ZM9.2548 20.5692C9.62313 20.1576 10.2553 20.1226 10.6668 20.4909C11.0214 20.8082 11.4871 21 11.9999 21C12.5128 21 12.9785 20.8082 13.333 20.4909C13.7445 20.1226 14.3767 20.1576 14.7451 20.5692C15.1134 20.9807 15.0784 21.6129 14.6668 21.9812C13.9598 22.614 13.0238 23 11.9999 23C10.9761 23 10.04 22.614 9.33302 21.9812C8.92149 21.6129 8.88647 20.9807 9.2548 20.5692ZM16 4.5C16 3.67157 16.6716 3 17.5 3C18.3284 3 19 3.67157 19 4.5C19 5.32843 18.3284 6 17.5 6C16.6716 6 16 5.32843 16 4.5ZM17.5 1C15.567 1 14 2.567 14 4.5C14 6.433 15.567 8 17.5 8C19.433 8 21 6.433 21 4.5C21 2.567 19.433 1 17.5 1Z" fill="black"/>
</svg>
