<svg width="24" height="24" viewBox="0 0 24 24" fill="none" xmlns="http://www.w3.org/2000/svg">
<path fill-rule="evenodd" clip-rule="evenodd" d="M16 4.5C16 3.67157 16.6716 3 17.5 3C18.3284 3 19 3.67157 19 4.5C19 5.32843 18.3284 6 17.5 6C16.6716 6 16 5.32843 16 4.5ZM17.5 1C15.567 1 14 2.567 14 4.5C14 6.433 15.567 8 17.5 8C19.433 8 21 6.433 21 4.5C21 2.567 19.433 1 17.5 1ZM7.35348 1.23987C8.99893 0.652924 10.7943 1.17793 11.8615 2.44391C11.6276 3.08524 11.5 3.77768 11.5 4.49994C11.5 4.91971 11.5431 5.32941 11.6251 5.72486L11.6102 5.72216C10.8053 5.578 9.92931 5.63701 9.07238 5.94269C8.21557 6.24832 7.50914 6.75363 6.99109 7.36639C6.94863 7.41661 6.90745 7.46754 6.86755 7.51914C6.02636 8.60706 5.76604 9.97052 6.22417 11.2041L6.44728 11.8048C7.04903 13.4251 7.22415 15.1694 6.96244 16.8965L6.55426 19.5901C6.57623 19.595 6.61008 19.5961 6.65586 19.5797L19.9166 14.8495C19.946 14.839 19.9651 14.8268 19.9771 14.8168L17.9008 13.0132C16.9683 12.2032 16.1936 11.2509 15.6064 10.195C16.2017 10.3928 16.8383 10.4999 17.5 10.4999C17.7356 10.4999 17.9681 10.4864 18.1966 10.4599C18.5017 10.8317 18.841 11.1808 19.2124 11.5033L21.3325 13.3451C21.9248 13.8596 22.1077 14.6081 21.9408 15.2738C21.7762 15.9298 21.2834 16.4854 20.5885 16.7333L7.32781 21.4635C6.63415 21.7109 5.90376 21.5939 5.35984 21.2038C4.80859 20.8086 4.45044 20.1246 4.56883 19.3433L4.98502 16.5968C5.19673 15.1997 5.05421 13.7985 4.5724 12.5011L4.34929 11.9004C3.67578 10.0869 4.01347 8.16534 5.03389 6.64456C4.99375 6.55667 4.95657 6.4668 4.92249 6.37502C4.14508 4.28175 5.25392 1.98879 7.35348 1.23987ZM10.2702 3.66485C9.72698 3.07837 8.84924 2.82975 8.02542 3.12361C7.19772 3.41886 6.69345 4.16574 6.67574 4.95873C7.19129 4.58943 7.76964 4.28395 8.40043 4.05894C9.01837 3.83852 9.64751 3.70926 10.2702 3.66485ZM16.5698 20.2976C16.7554 20.8178 16.4841 21.3899 15.9639 21.5754L12.1286 22.9435C11.6085 23.1291 11.0363 22.8578 10.8508 22.3376C10.6652 21.8174 10.9365 21.2453 11.4567 21.0598L15.292 19.6917C15.8122 19.5061 16.3843 19.7774 16.5698 20.2976Z" fill="black"/>
</svg>
