<svg width="24" height="24" viewBox="0 0 24 24" fill="none" xmlns="http://www.w3.org/2000/svg">
<path d="M10 2.76389C10.5308 2.28885 11.2316 2 12 2C12.7684 2 13.4692 2.28885 14 2.76389M10 21.2361C10.5308 21.7111 11.2316 22 12 22C12.7684 22 13.4692 21.7111 14 21.2361M5.08493 18.5C4.27945 18.5 3.75557 17.7736 4.11579 17.1562L5.43842 14.8892C6.19069 13.5998 6.58234 12.1781 6.58234 10.7365V10.1429C6.58234 8.56735 7.49804 7.17514 8.89823 6.33576C8.96478 6.29586 9.03243 6.25722 9.10113 6.21986C9.93938 5.76399 10.9337 5.5 12 5.5C13.0663 5.5 14.0606 5.76399 14.8989 6.21986C14.9676 6.25722 15.0352 6.29586 15.1018 6.33576C16.502 7.17514 17.4177 8.56735 17.4177 10.1429V10.7365C17.4177 12.1781 17.8093 13.5998 18.5616 14.8892L19.8842 17.1562C20.2444 17.7736 19.7205 18.5 18.9151 18.5H5.08493Z" stroke="black" stroke-width="2" stroke-linecap="round"/>
</svg>
