<svg width="24" height="24" viewBox="0 0 24 24" fill="none" xmlns="http://www.w3.org/2000/svg">
<path d="M11.7126 22.0017L15.5776 20.6336M5.9137 3.5836C6.25949 2.95568 6.83514 2.44453 7.57757 2.18174C8.32001 1.91895 9.09884 1.95066 9.77875 2.21552M20.6837 14.1486L18.5778 12.3888C17.38 11.3879 16.4823 10.1344 15.9558 8.72768L15.739 8.14837C15.1636 6.61094 13.7704 5.56556 12.1108 5.22536C12.032 5.20919 11.9525 5.19461 11.8725 5.18165C10.896 5.0235 9.8388 5.10597 8.80849 5.47066C7.77818 5.83535 6.9138 6.43304 6.27032 7.1646C6.21759 7.22455 6.16634 7.2854 6.1166 7.34709C5.07021 8.64508 4.69386 10.3168 5.26926 11.8543L5.48607 12.4336C6.01255 13.8403 6.15338 15.3617 5.89739 16.8772L5.44731 19.5417C5.32473 20.2674 6.09624 20.7971 6.87455 20.5216L20.2381 15.7914C21.0164 15.5159 21.2573 14.6279 20.6837 14.1486Z" stroke="black" stroke-width="2" stroke-linecap="round"/>
</svg>
