<svg width="24" height="24" viewBox="0 0 24 24" fill="none" xmlns="http://www.w3.org/2000/svg">
<path fill-rule="evenodd" clip-rule="evenodd" d="M16 4.5C16 3.67157 16.6716 3 17.5 3C18.3284 3 19 3.67157 19 4.5C19 5.32843 18.3284 6 17.5 6C16.6716 6 16 5.32843 16 4.5ZM17.5 1C15.567 1 14 2.567 14 4.5C14 6.433 15.567 8 17.5 8C19.433 8 21 6.433 21 4.5C21 2.567 19.433 1 17.5 1ZM8.4749 4.52798C9.4844 4.17066 10.5217 4.04628 11.5113 4.13034C11.5039 4.25261 11.5001 4.37587 11.5001 4.50001C11.5001 5.08051 11.5825 5.64176 11.7363 6.17269L11.7127 6.16879C10.902 6.03749 10.0145 6.10462 9.14226 6.41336C8.27012 6.72206 7.55018 7.22377 7.02127 7.82507L6.28264 7.17537L7.02127 7.82507C6.97796 7.87431 6.93593 7.92421 6.89521 7.97472C6.03559 9.04102 5.77282 10.3466 6.2059 11.5038L6.42272 12.0831C7.01244 13.6588 7.16812 15.3588 6.88351 17.0437L6.45244 19.5957C6.47556 19.5956 6.50527 19.5916 6.54096 19.5789L19.9045 14.8487C19.9192 14.8435 19.9319 14.838 19.9427 14.8325L17.9367 13.1561C16.9235 12.3095 16.099 11.2947 15.5034 10.1598C16.128 10.3801 16.8001 10.5 17.5001 10.5C17.6987 10.5 17.895 10.4904 18.0887 10.4715C18.4205 10.8847 18.7984 11.2699 19.2191 11.6214L21.3251 13.3812C21.9317 13.8882 22.114 14.6411 21.9331 15.3082C21.7565 15.9591 21.2529 16.4931 20.5718 16.7341L7.20831 21.4643C6.52842 21.705 5.80505 21.6077 5.25718 21.2315C4.69748 20.8472 4.32823 20.1633 4.46136 19.3752L4.91144 16.7106C5.13881 15.3646 5.01285 14.0219 4.5496 12.7841L4.33279 12.2048C3.61507 10.2871 4.105 8.24915 5.33817 6.71948L6.11094 7.34246L5.33817 6.71948C5.39692 6.6466 5.4574 6.5748 5.51955 6.50414C6.2776 5.64234 7.28642 4.94866 8.4749 4.52798ZM9.41586 3.14733C8.95087 2.96619 8.41932 2.94463 7.91134 3.12443C7.40415 3.30396 7.01945 3.64887 6.78976 4.06599C6.52335 4.54977 5.9152 4.72598 5.43142 4.45958C4.94764 4.19317 4.77142 3.58502 5.03783 3.10124C5.4997 2.26251 6.26631 1.58512 7.24399 1.23906C8.22087 0.893279 9.24698 0.935147 10.1418 1.28373C10.6564 1.4842 10.9111 2.0639 10.7106 2.57851C10.5102 3.09313 9.93048 3.3478 9.41586 3.14733ZM16.5204 20.2999C16.7047 20.8205 16.432 21.392 15.9114 21.5763L12.0464 22.9443C11.5257 23.1286 10.9543 22.856 10.77 22.3353C10.5857 21.8147 10.8584 21.2433 11.379 21.059L15.2441 19.6909C15.7647 19.5066 16.3361 19.7793 16.5204 20.2999Z" fill="black"/>
</svg>
