<svg width="24" height="24" viewBox="0 0 24 24" fill="none" xmlns="http://www.w3.org/2000/svg">
<path fill-rule="evenodd" clip-rule="evenodd" d="M16 4.5C16 3.67157 16.6716 3 17.5 3C18.3284 3 19 3.67157 19 4.5C19 5.32843 18.3284 6 17.5 6C16.6716 6 16 5.32843 16 4.5ZM17.5 1C15.567 1 14 2.567 14 4.5C14 6.433 15.567 8 17.5 8C19.433 8 21 6.433 21 4.5C21 2.567 19.433 1 17.5 1ZM8.5432 4.61897C9.52946 4.26367 10.5408 4.12573 11.5081 4.18493C11.5027 4.28927 11.5 4.39432 11.5 4.50001C11.5 5.09659 11.587 5.67284 11.7492 6.21674C10.9538 6.10925 10.0825 6.19025 9.22106 6.5006C8.33647 6.81927 7.60251 7.3292 7.06046 7.93645C7.0161 7.98615 6.97303 8.0365 6.93127 8.08743C6.04765 9.16521 5.77601 10.4624 6.19068 11.5901L6.40108 12.1622C6.97592 13.7255 7.11067 15.4149 6.80411 17.091L6.34669 19.592C6.36668 19.5895 6.39013 19.5841 6.41703 19.5745L19.8843 14.7228C19.9037 14.7158 19.9201 14.7083 19.9339 14.7007L17.9639 13.0797C16.9732 12.2644 16.1668 11.2853 15.5831 10.1873C16.185 10.3901 16.8297 10.5 17.5 10.5C17.7235 10.5 17.9441 10.4878 18.1613 10.464C18.4775 10.8487 18.8362 11.2074 19.2347 11.5353L21.3261 13.2563C21.9441 13.7648 22.1162 14.5262 21.9262 15.1907C21.7419 15.8356 21.2359 16.3617 20.5622 16.6044L7.09489 21.4561C6.4215 21.6987 5.69777 21.6163 5.14418 21.2439C4.5747 20.8608 4.20766 20.1708 4.35227 19.3801L4.83675 16.7312C5.0813 15.3941 4.97098 14.0681 4.52398 12.8525L4.31357 12.2803C3.61146 10.371 4.13632 8.34201 5.38462 6.8194L6.0972 7.40361L5.38462 6.8194C5.4442 6.74673 5.50548 6.67511 5.56842 6.60461C6.33575 5.74498 7.35117 5.04841 8.5432 4.61897ZM9.49137 3.15067C9.02403 2.96538 8.49079 2.94342 7.98059 3.12722C7.4707 3.31091 7.07955 3.6655 6.84438 4.10015C6.58156 4.58589 5.97473 4.7666 5.48899 4.50379C5.00325 4.24097 4.82253 3.63414 5.08535 3.1484C5.54712 2.29496 6.31622 1.60099 7.30273 1.2456C8.28892 0.890324 9.32543 0.933422 10.2285 1.29146C10.7419 1.49501 10.9931 2.07622 10.7895 2.58963C10.586 3.10303 10.0048 3.35422 9.49137 3.15067ZM15.909 19.4962C16.3947 19.759 16.5754 20.3659 16.3126 20.8516C15.8509 21.7051 15.0818 22.399 14.0953 22.7544C13.1091 23.1097 12.0725 23.0666 11.1695 22.7086C10.6561 22.505 10.4049 21.9238 10.6084 21.4104C10.812 20.897 11.3932 20.6458 11.9066 20.8493C12.3739 21.0346 12.9072 21.0566 13.4174 20.8728C13.9273 20.6891 14.3184 20.3345 14.5536 19.8999C14.8164 19.4141 15.4232 19.2334 15.909 19.4962Z" fill="black"/>
</svg>
