<svg width="24" height="24" viewBox="0 0 24 24" fill="none" xmlns="http://www.w3.org/2000/svg">
<path fill-rule="evenodd" clip-rule="evenodd" d="M7.34596 1.24732C9.00084 0.641852 10.7894 1.18402 11.8544 2.46397C11.6251 3.09969 11.5001 3.78527 11.5001 4.50003C11.5001 4.9458 11.5487 5.38022 11.6409 5.79827L11.6059 5.79169C10.8054 5.64464 9.93385 5.70465 9.08009 6.01701C8.2263 6.32939 7.51941 6.84691 6.99917 7.47806C6.95654 7.52978 6.91516 7.58226 6.87506 7.63546C6.02892 8.75788 5.76229 10.1734 6.22708 11.4571L6.45019 12.0733C7.04937 13.728 7.22354 15.5085 6.96308 17.2715L6.55031 20.0654C6.55512 20.0671 6.56095 20.0686 6.56783 20.0696C6.58352 20.0718 6.61005 20.0721 6.64834 20.0581L9.44338 19.0355L15.1963 16.9306L19.909 15.2064C19.9474 15.1924 19.9683 15.1748 19.9798 15.1618C19.9863 15.1545 19.9909 15.1476 19.994 15.1417L17.8914 13.2683C16.8932 12.3789 16.0772 11.3234 15.4791 10.1511C16.1106 10.377 16.791 10.5 17.5001 10.5C17.6785 10.5 17.8552 10.4922 18.0296 10.477C18.379 10.9445 18.7778 11.3794 19.2219 11.7751L21.3421 13.6641C22.5817 14.7686 21.9516 16.5888 20.5962 17.0847L16.7045 18.5085C16.8897 20.3204 15.8407 22.0991 14.054 22.7527C12.2671 23.4065 10.3242 22.7222 9.30488 21.2158L7.33552 21.9363C5.97345 22.4346 4.32572 21.4385 4.56837 19.7962L4.98456 16.9792C5.19753 15.5377 5.05406 14.0919 4.56967 12.7542L4.34656 12.138C3.67641 10.2872 4.01478 8.32347 5.0406 6.76796C4.9968 6.6712 4.95645 6.57209 4.91976 6.47075C4.15523 4.35929 5.23638 2.01914 7.34596 1.24732ZM10.3061 3.73072C9.76323 3.08838 8.86239 2.82216 8.03314 3.12556C7.20463 3.42868 6.68359 4.21391 6.67484 5.05625C7.18809 4.68041 7.76409 4.36884 8.39291 4.13878C9.02494 3.90754 9.66899 3.77378 10.3061 3.73072ZM14.7005 19.2417L11.3043 20.4843C11.8522 20.9674 12.6372 21.1414 13.3668 20.8745C14.0966 20.6075 14.5879 19.9664 14.7005 19.2417ZM16 4.5C16 3.67157 16.6716 3 17.5 3C18.3284 3 19 3.67157 19 4.5C19 5.32843 18.3284 6 17.5 6C16.6716 6 16 5.32843 16 4.5ZM17.5 1C15.567 1 14 2.567 14 4.5C14 6.433 15.567 8 17.5 8C19.433 8 21 6.433 21 4.5C21 2.567 19.433 1 17.5 1Z" fill="black"/>
</svg>
