<svg width="24" height="24" viewBox="0 0 24 24" fill="none" xmlns="http://www.w3.org/2000/svg">
<path fill-rule="evenodd" clip-rule="evenodd" d="M16 4.5C16 3.67157 16.6716 3 17.5 3C18.3284 3 19 3.67157 19 4.5C19 5.32843 18.3284 6 17.5 6C16.6716 6 16 5.32843 16 4.5ZM17.5 1C15.567 1 14 2.567 14 4.5C14 6.433 15.567 8 17.5 8C19.433 8 21 6.433 21 4.5C21 2.567 19.433 1 17.5 1ZM7.4314 1.25169C9.05019 0.663342 10.822 1.13984 11.8935 2.35827C11.6393 3.02343 11.5 3.74542 11.5 4.49994C11.5 4.90371 11.5399 5.29817 11.6159 5.67959C10.8308 5.55966 9.97713 5.63181 9.13723 5.93707C8.27071 6.25201 7.55287 6.76637 7.0239 7.38735C6.98057 7.43822 6.93852 7.4898 6.89776 7.54202C6.03695 8.64506 5.76731 10.0114 6.21183 11.2309L6.42977 11.8288C7.01894 13.4453 7.17721 15.1877 6.89807 16.9145L6.46544 19.5909C6.48668 19.5922 6.51601 19.5895 6.55373 19.5757L19.8991 14.7254C19.9356 14.7121 19.9593 14.6961 19.9746 14.6819L17.9207 12.9096C17.0259 12.1375 16.2793 11.232 15.7073 10.2275C16.2734 10.4046 16.8755 10.4999 17.5 10.4999C17.7679 10.4999 18.0316 10.4824 18.2902 10.4484C18.5738 10.7849 18.8868 11.1016 19.2273 11.3954L21.3358 13.2148C21.9355 13.7322 22.1091 14.4875 21.936 15.1509C21.7658 15.803 21.2721 16.3543 20.5822 16.6051L7.23691 21.4554C6.54713 21.7061 5.81478 21.6005 5.26557 21.2109C4.70689 20.8144 4.35316 20.1248 4.47964 19.3424L4.9237 16.5954C5.14969 15.1973 5.01993 13.8011 4.55069 12.5138L4.33276 11.9158C3.67165 10.102 4.03383 8.17936 5.06906 6.65718C5.03017 6.57063 4.99419 6.48214 4.96127 6.39181C4.1973 4.29581 5.3409 2.01149 7.4314 1.25169ZM10.3574 3.64484C9.82546 3.07122 8.95416 2.82624 8.11458 3.13139C7.27467 3.43666 6.7653 4.18385 6.72805 4.96474C7.24505 4.5944 7.8238 4.28644 8.45405 4.05737C9.08338 3.82865 9.72394 3.69316 10.3574 3.64484ZM15.9665 19.4948C16.4532 19.7559 16.6362 20.362 16.3751 20.8487C15.9179 21.7012 15.1551 22.3968 14.1739 22.7534C13.1927 23.1101 12.161 23.0667 11.2627 22.7074C10.7499 22.5023 10.5005 21.9203 10.7056 21.4076C10.9107 20.8948 11.4927 20.6454 12.0055 20.8505C12.4651 21.0343 12.989 21.0561 13.4907 20.8737C13.9923 20.6914 14.3792 20.3387 14.6126 19.9035C14.8736 19.4168 15.4798 19.2338 15.9665 19.4948Z" fill="black"/>
</svg>
