<svg width="24" height="24" viewBox="0 0 24 24" fill="none" xmlns="http://www.w3.org/2000/svg">
<path d="M6.22743 6.72077C6.07788 6.51095 5.95348 6.27879 5.85993 6.02688C5.28171 4.46994 6.10082 2.74842 7.68945 2.18174C9.27809 1.61506 11.0347 2.41782 11.6129 3.97476C11.7064 4.22667 11.7634 4.48288 11.7865 4.73782M6.22743 6.72077C6.85984 5.97274 7.71402 5.36551 8.73641 5.00082C9.75879 4.63613 10.8114 4.56319 11.7865 4.73782M6.22743 6.72077C6.1756 6.78207 6.12527 6.84432 6.07645 6.90745C5.04937 8.23577 4.69461 9.95786 5.28673 11.5522L5.50984 12.153C6.05162 13.6118 6.21044 15.1846 5.97373 16.7467L5.55754 19.4931C5.44419 20.2411 6.21952 20.7971 6.99183 20.5216L20.2525 15.7914C21.0249 15.5159 21.2542 14.6016 20.6767 14.1L18.5566 12.2583C17.3507 11.2108 16.4408 9.90592 15.899 8.44709L15.6759 7.84633C15.0838 6.25196 13.6826 5.15625 12.0246 4.78572C11.9458 4.76811 11.8664 4.75213 11.7865 4.73782M11.7927 22.0017L15.628 20.6336" stroke="black" stroke-width="2" stroke-linecap="round"/>
</svg>
