<svg width="24" height="24" viewBox="0 0 24 24" fill="none" xmlns="http://www.w3.org/2000/svg">
<path fill-rule="evenodd" clip-rule="evenodd" d="M8.40034 4.56127C9.43229 4.19317 10.4955 4.07931 11.5077 4.19025C11.5025 4.29283 11.4999 4.39609 11.4999 4.49997C11.4999 5.11018 11.591 5.69912 11.7603 6.25393C11.7105 6.24333 11.6605 6.23351 11.6101 6.22449C10.8052 6.08033 9.92922 6.13935 9.07229 6.44502C8.21547 6.75065 7.50905 7.25596 6.99099 7.86872C6.94854 7.91894 6.90736 7.96987 6.86746 8.02147C6.02626 9.10939 5.76595 10.4728 6.22407 11.7064L6.44719 12.3072C7.04894 13.9275 7.22406 15.6717 6.96235 17.3988L6.55417 20.0924C6.57614 20.0974 6.60998 20.0984 6.65577 20.0821L9.45082 19.0851L15.2038 17.0329L19.9165 15.3519C19.946 15.3414 19.965 15.3292 19.977 15.3192L17.9007 13.5156C16.7897 12.5505 15.9026 11.3834 15.29 10.0799C15.9739 10.351 16.7195 10.5 17.4999 10.5C17.6128 10.5 17.7251 10.4968 17.8365 10.4907C18.227 11.0415 18.6877 11.55 19.2123 12.0057L21.3324 13.8474C21.9247 14.3619 22.1076 15.1104 21.9407 15.7761C21.7761 16.4322 21.2833 16.9877 20.5884 17.2356L16.7073 18.6201C16.8822 20.4015 15.8163 22.1304 14.0462 22.7618C12.2767 23.393 10.3337 22.7382 9.30953 21.2589L7.32771 21.9658C6.63406 22.2132 5.90367 22.0962 5.35974 21.7062C4.80849 21.3109 4.45035 20.6269 4.56873 19.8456L4.98492 17.0992C5.19664 15.702 5.05412 14.3008 4.57231 13.0035L4.34919 12.4027C3.62307 10.4475 4.0723 8.36682 5.28526 6.79809C5.34299 6.72342 5.40248 6.64987 5.46368 6.57748C6.21045 5.69418 7.21239 4.98503 8.40034 4.56127ZM10.5489 1.66406C10.7344 2.18424 10.4632 2.75635 9.94299 2.9419L6.10768 4.30998C5.5875 4.49553 5.01539 4.22426 4.82983 3.70408C4.64428 3.1839 4.91555 2.61179 5.43573 2.42624L9.27104 1.05816C9.79122 0.872604 10.3633 1.14387 10.5489 1.66406ZM11.3405 20.5344C11.8842 20.9755 12.6501 21.1364 13.3743 20.8781C14.0983 20.6198 14.5748 20.0159 14.6947 19.338L11.3405 20.5344ZM15.9999 4.50003C15.9999 3.6716 16.6715 3.00003 17.4999 3.00003C18.3283 3.00003 18.9999 3.6716 18.9999 4.50003C18.9999 5.32846 18.3283 6.00003 17.4999 6.00003C16.6715 6.00003 15.9999 5.32846 15.9999 4.50003ZM17.4999 1.00003C15.5669 1.00003 13.9999 2.56703 13.9999 4.50003C13.9999 6.43303 15.5669 8.00003 17.4999 8.00003C19.4329 8.00003 20.9999 6.43303 20.9999 4.50003C20.9999 2.56703 19.4329 1.00003 17.4999 1.00003Z" fill="black"/>
</svg>
