<svg width="24" height="24" viewBox="0 0 24 24" fill="none" xmlns="http://www.w3.org/2000/svg">
<path d="M6.22743 6.84198C6.07788 6.62677 5.95348 6.38864 5.85993 6.13027C5.28171 4.53336 6.10082 2.76763 7.68945 2.1864C9.27809 1.60518 11.0347 2.42855 11.6129 4.02546C11.7064 4.28384 11.7634 4.54663 11.7865 4.80812M6.22743 6.84198C6.85984 6.07474 7.71402 5.45192 8.73641 5.07786C9.75879 4.70381 10.8114 4.629 11.7865 4.80812M6.22743 6.84198C6.1756 6.90485 6.12527 6.9687 6.07645 7.03345C5.04937 8.39588 4.69461 10.1622 5.28673 11.7975L5.50984 12.4137C6.05162 13.91 6.21044 15.5231 5.97373 17.1253L5.55754 19.9423C5.44419 20.7095 6.21952 21.2797 6.99183 20.9972L9.78688 19.9745M11.7865 4.80812C11.8664 4.82279 11.9458 4.83918 12.0246 4.85724C13.6826 5.23729 15.0838 6.36113 15.6759 7.99644L15.899 8.61262C16.4408 10.1089 17.3507 11.4473 18.5566 12.5217L20.6767 14.4107C21.2542 14.9252 21.0249 15.863 20.2525 16.1455L15.5398 17.8697M15.5398 17.8697C16.1181 19.4666 15.299 21.2324 13.7103 21.8136C12.1217 22.3948 10.3651 21.5714 9.78688 19.9745M15.5398 17.8697L9.78688 19.9745" stroke="black" stroke-width="2"/>
</svg>
