<svg width="24" height="24" viewBox="0 0 24 24" fill="none" xmlns="http://www.w3.org/2000/svg">
<path d="M6.26266 6.73896C6.11471 6.53082 5.9922 6.30012 5.90082 6.04941C5.33603 4.49988 6.17424 2.77267 7.77301 2.1916C9.37179 1.61052 11.1257 2.39562 11.6905 3.94515C11.7819 4.19586 11.8365 4.45123 11.8572 4.70564M6.26266 6.73896C6.90418 5.98584 7.76675 5.37124 8.79566 4.99728C9.82456 4.62333 10.881 4.54048 11.8572 4.70564M6.26266 6.73896C6.21009 6.80068 6.159 6.86333 6.10943 6.92685C5.06646 8.26331 4.69394 9.98665 5.27232 11.5734L5.49025 12.1714C6.01945 13.6233 6.16347 15.1926 5.9109 16.755L5.46684 19.5021C5.3459 20.2502 6.11809 20.7981 6.89534 20.5157L20.2407 15.6653C21.0179 15.3828 21.2567 14.4674 20.6825 13.9719L18.574 12.1526C17.3748 11.1178 16.4749 9.8232 15.9457 8.3713L15.7278 7.77339C15.1494 6.18659 13.7547 5.10554 12.0955 4.75121C12.0166 4.73437 11.9372 4.71917 11.8572 4.70564M11.6341 21.779C12.3131 22.0506 13.0909 22.0831 13.8323 21.8136C14.5737 21.5442 15.1486 21.02 15.4939 20.3762" stroke="black" stroke-width="2" stroke-linecap="round"/>
</svg>
