<svg width="24" height="24" viewBox="0 0 24 24" fill="none" xmlns="http://www.w3.org/2000/svg">
<path fill-rule="evenodd" clip-rule="evenodd" d="M8.60932 5.37681C9.46384 4.89422 10.4491 4.5909 11.5 4.51742C11.5019 5.21331 11.6224 5.88134 11.8422 6.50239C11.0085 6.52771 10.2399 6.75283 9.59282 7.11828C9.53649 7.15009 9.48109 7.18296 9.42666 7.21684C8.27662 7.93278 7.58228 9.07864 7.58228 10.3214V10.9379C7.58228 12.6111 7.14422 14.2557 6.31019 15.7402L5.04248 17.9965C5.0544 17.9986 5.06844 18 5.08487 18H18.915C18.9314 18 18.9455 17.9986 18.9574 17.9965L17.6897 15.7402C16.8557 14.2557 16.4176 12.6111 16.4176 10.9379V10.4026C16.7687 10.4666 17.1304 10.5 17.4999 10.5C17.812 10.5 18.1184 10.4762 18.4176 10.4303V10.9379C18.4176 12.2588 18.7628 13.5671 19.4333 14.7605L20.756 17.1147C21.1396 17.7974 21.044 18.5573 20.6581 19.1131C20.2792 19.6586 19.6359 20 18.915 20H5.08487C4.36399 20 3.72066 19.6586 3.3418 19.1131C2.95584 18.5573 2.8603 17.7974 3.24391 17.1147L4.56654 14.7605C5.23705 13.5671 5.58228 12.2588 5.58228 10.9379V10.3214C5.58228 8.29202 6.71934 6.54635 8.36968 5.51897C8.44836 5.46999 8.52825 5.42259 8.60932 5.37681ZM11.6826 3.02492C11.8649 2.30375 12.1778 1.63457 12.5946 1.04401C12.4005 1.01503 12.202 1 11.9999 1C10.9761 1 10.04 1.38597 9.33303 2.01876C8.9215 2.38708 8.88648 3.01928 9.25481 3.43081C9.62313 3.84233 10.2553 3.87735 10.6669 3.50903C10.9467 3.2586 11.2957 3.08638 11.6826 3.02492ZM8.99994 22C8.99994 21.4477 9.44766 21 9.99994 21H13.9999C14.5522 21 14.9999 21.4477 14.9999 22C14.9999 22.5523 14.5522 23 13.9999 23H9.99994C9.44766 23 8.99994 22.5523 8.99994 22ZM16 4.5C16 3.67157 16.6716 3 17.5 3C18.3284 3 19 3.67157 19 4.5C19 5.32843 18.3284 6 17.5 6C16.6716 6 16 5.32843 16 4.5ZM17.5 1C15.567 1 14 2.567 14 4.5C14 6.433 15.567 8 17.5 8C19.433 8 21 6.433 21 4.5C21 2.567 19.433 1 17.5 1Z" fill="black"/>
</svg>
