<svg width="24" height="24" viewBox="0 0 24 24" fill="none" xmlns="http://www.w3.org/2000/svg">
<path d="M9.10113 5.6642C9.03516 5.42418 9 5.17196 9 4.91176C9 3.30364 10.3431 2 12 2C13.6569 2 15 3.30364 15 4.91176C15 5.17196 14.9648 5.42418 14.8989 5.6642M9.10113 5.6642C9.93938 5.1877 10.9337 4.91176 12 4.91176C13.0663 4.91176 14.0606 5.1877 14.8989 5.6642M9.10113 5.6642C9.03243 5.70324 8.96478 5.74364 8.89823 5.78534C7.49804 6.6627 6.58234 8.11791 6.58234 9.76471V10.3852C6.58234 11.892 6.19069 13.3781 5.43842 14.7258L4.11579 17.0954C3.75557 17.7407 4.27945 18.5 5.08493 18.5H9H15H18.9151C19.7205 18.5 20.2444 17.7407 19.8842 17.0954L18.5616 14.7258C17.8093 13.3781 17.4177 11.892 17.4177 10.3852V9.76471C17.4177 8.11791 16.502 6.6627 15.1018 5.78534C15.0352 5.74364 14.9676 5.70324 14.8989 5.6642M10 21.2361C10.5308 21.7111 11.2316 22 12 22C12.7684 22 13.4692 21.7111 14 21.2361M19.6026 6C20.3124 7.0758 20.8 8.31116 21 9.64068M3 9.64068C3.19999 8.31116 3.68757 7.0758 4.39736 6" stroke="black" stroke-width="2" stroke-linecap="round"/>
</svg>
