<svg width="24" height="24" viewBox="0 0 24 24" fill="none" xmlns="http://www.w3.org/2000/svg">
<path fill-rule="evenodd" clip-rule="evenodd" d="M12 1C12.2021 1 12.4007 1.01499 12.5947 1.04391C12.1778 1.63453 11.8649 2.30379 11.6826 3.02504C10.9809 3.13692 10.4009 3.61382 10.1433 4.25498C10.5846 4.13057 11.0451 4.04948 11.5192 4.01661C11.5064 4.17607 11.5 4.33728 11.5 4.5C11.5 5.0214 11.5665 5.52727 11.6915 6.00959C10.9225 6.05755 10.2122 6.28339 9.60647 6.63813C9.55025 6.67105 9.49495 6.70508 9.44058 6.74018C8.29349 7.48073 7.5823 8.6795 7.5823 10V10.6393C7.5823 12.3611 7.14773 14.0556 6.31764 15.5878L5.01776 17.9871C5.03005 17.993 5.0512 18 5.0849 18H18.915C18.9487 18 18.9699 17.993 18.9822 17.9871L17.6823 15.5878C16.8522 14.0556 16.4176 12.3611 16.4176 10.6393V10.4026C16.7687 10.4666 17.1304 10.5 17.5 10.5C17.812 10.5 18.1185 10.4762 18.4176 10.4303V10.6393C18.4176 12.0224 18.7663 13.3902 19.4408 14.6351L20.7634 17.0764C21.5493 18.5269 20.3383 20 18.915 20H5.0849C3.66163 20 2.45067 18.5269 3.2365 17.0764L4.55913 14.6351C5.23359 13.3902 5.5823 12.0224 5.5823 10.6393V10C5.5823 8.07469 6.5487 6.38493 8.01101 5.29886C8.00369 5.20009 7.99997 5.10042 7.99997 5C7.99997 2.79086 9.79083 1 12 1ZM8.99997 22C8.99997 21.4477 9.44768 21 9.99997 21H14C14.5523 21 15 21.4477 15 22C15 22.5523 14.5523 23 14 23H9.99997C9.44768 23 8.99997 22.5523 8.99997 22ZM16 4.5C16 3.67157 16.6716 3 17.5 3C18.3284 3 19 3.67157 19 4.5C19 5.32843 18.3284 6 17.5 6C16.6716 6 16 5.32843 16 4.5ZM17.5 1C15.567 1 14 2.567 14 4.5C14 6.433 15.567 8 17.5 8C19.433 8 21 6.433 21 4.5C21 2.567 19.433 1 17.5 1Z" fill="black"/>
</svg>
