<svg width="24" height="24" viewBox="0 0 24 24" fill="none" xmlns="http://www.w3.org/2000/svg">
<path d="M15.5398 17.9748C16.1181 19.5317 15.299 21.2532 13.7103 21.8199C12.1217 22.3866 10.3651 21.5838 9.78688 20.0269M15.5398 17.9748L20.2525 16.2937C21.0249 16.0182 21.2542 15.1039 20.6767 14.6023L18.5566 12.7606C17.3507 11.7131 16.4408 10.4082 15.899 8.9494L15.6759 8.34863C15.0838 6.75426 13.6826 5.65856 12.0246 5.28802C11.9458 5.27041 11.8664 5.25443 11.7865 5.24012C10.8114 5.06549 9.75879 5.13843 8.73641 5.50312C7.71402 5.86781 6.85984 6.47504 6.22743 7.22307C6.1756 7.28437 6.12527 7.34662 6.07645 7.40976C5.04937 8.73808 4.69461 10.4602 5.28673 12.0545L5.50984 12.6553C6.05162 14.1141 6.21044 15.6869 5.97373 17.249L5.55754 19.9954C5.44419 20.7434 6.21952 21.2994 6.99183 21.0239L9.78688 20.0269M15.5398 17.9748L9.78688 20.0269M5.7718 3.36808L9.60711 2" stroke="black" stroke-width="2" stroke-linecap="round"/>
</svg>
