<svg width="24" height="24" viewBox="0 0 24 24" fill="none" xmlns="http://www.w3.org/2000/svg">
<path fill-rule="evenodd" clip-rule="evenodd" d="M8.46163 4.47769C9.47633 4.11803 10.5195 3.99557 11.5142 4.08487C11.5048 4.22204 11.5001 4.36048 11.5001 4.50003C11.5001 5.06402 11.5779 5.60984 11.7234 6.12733L11.6944 6.12247C10.8848 5.98889 9.99933 6.05457 9.12979 6.36278C8.26036 6.67094 7.54283 7.1733 7.01587 7.7766C6.97271 7.82602 6.93083 7.8761 6.89027 7.9268C6.03401 8.99682 5.77151 10.3126 6.20908 11.4834L6.42701 12.0665C7.01886 13.65 7.17802 15.3577 6.89749 17.0502L6.47024 19.6277C6.49357 19.6284 6.52397 19.6248 6.56131 19.6115L19.9066 14.8814C19.9236 14.8753 19.9377 14.8689 19.9494 14.8625L17.9302 13.1634C16.9197 12.3131 16.0965 11.2955 15.5 10.1586C16.1256 10.3797 16.7988 10.5 17.5001 10.5C17.697 10.5 17.8917 10.4905 18.0838 10.472C18.4169 10.8892 18.796 11.2781 19.2179 11.6331L21.3264 13.4074C21.9304 13.9156 22.1129 14.6677 21.9345 15.3346C21.7601 15.9864 21.2583 16.5242 20.5748 16.7664L7.22947 21.4966C6.54717 21.7385 5.82254 21.6378 5.2753 21.2591C4.7171 20.8728 4.34992 20.189 4.48035 19.4021L4.92442 16.7231C5.14902 15.3681 5.02015 14.015 4.55359 12.7667L4.33566 12.1836L5.27237 11.8335L4.33566 12.1836C3.61648 10.2593 4.09903 8.21385 5.3287 6.67719C5.38728 6.60399 5.44758 6.53188 5.50956 6.46092C6.26564 5.5953 7.27325 4.8989 8.46163 4.47769ZM10.6455 1.66595C10.83 2.1865 10.5576 2.75807 10.037 2.94257L6.17726 4.31065C5.6567 4.49516 5.08514 4.22274 4.90063 3.70219C4.71612 3.18164 4.98854 2.61007 5.50909 2.42556L9.36888 1.05748C9.88943 0.872976 10.461 1.14539 10.6455 1.66595ZM15.9758 19.5418C16.4597 19.8079 16.6363 20.416 16.3702 20.8999C15.909 21.7386 15.1433 22.4162 14.1664 22.7625C13.1903 23.1085 12.1649 23.0666 11.2707 22.7178C10.7562 22.5171 10.5018 21.9372 10.7025 21.4227C10.9032 20.9082 11.483 20.6538 11.9976 20.8545C12.4614 21.0354 12.9916 21.057 13.4983 20.8774C14.0042 20.698 14.3883 20.3534 14.6177 19.9362C14.8838 19.4523 15.4919 19.2757 15.9758 19.5418ZM16 4.5C16 3.67157 16.6716 3 17.5 3C18.3284 3 19 3.67157 19 4.5C19 5.32843 18.3284 6 17.5 6C16.6716 6 16 5.32843 16 4.5ZM17.5 1C15.567 1 14 2.567 14 4.5C14 6.433 15.567 8 17.5 8C19.433 8 21 6.433 21 4.5C21 2.567 19.433 1 17.5 1Z" fill="black"/>
</svg>
