<svg width="24" height="24" viewBox="0 0 24 24" fill="none" xmlns="http://www.w3.org/2000/svg">
<path d="M5.84312 3.36808L9.7029 2M11.6341 21.7861C12.3131 22.051 13.0909 22.0827 13.8323 21.8199C14.5737 21.5571 15.1486 21.0459 15.4939 20.418M20.6825 14.1725L18.574 12.3982C17.3748 11.3891 16.4749 10.1265 15.9457 8.71062L15.7278 8.12753C15.1494 6.58005 13.7547 5.52578 12.0955 5.18023C12.0166 5.16381 11.9372 5.14898 11.8572 5.13578C10.881 4.97472 9.82456 5.05551 8.79566 5.4202C7.76675 5.7849 6.90418 6.38427 6.26266 7.11873C6.21009 7.17892 6.159 7.24002 6.10943 7.30197C5.06646 8.6053 4.69394 10.2859 5.27232 11.8334L5.49025 12.4165C6.01945 13.8324 6.16347 15.3629 5.9109 16.8866L5.46684 19.5656C5.3459 20.2952 6.11809 20.8296 6.89534 20.5541L20.2407 15.8239C21.0179 15.5484 21.2567 14.6557 20.6825 14.1725Z" stroke="black" stroke-width="2" stroke-linecap="round"/>
</svg>
