<svg width="24" height="24" viewBox="0 0 24 24" fill="none" xmlns="http://www.w3.org/2000/svg">
<path d="M5.96489 3.62427C6.31336 2.98022 6.89349 2.45595 7.64169 2.18641C8.38988 1.91686 9.17476 1.94939 9.85996 2.22106M11.5381 21.7789C12.2233 22.0506 13.0082 22.0831 13.7563 21.8136C14.5045 21.5441 15.0847 21.0198 15.4331 20.3757M20.6907 14.0284L18.5993 12.3075C17.4098 11.3286 16.5246 10.0957 16.0136 8.70631L15.8032 8.13413C15.2448 6.61563 13.8597 5.59501 12.1988 5.27719C12.1198 5.26209 12.0403 5.24857 11.9601 5.23666C10.9823 5.09134 9.92047 5.18572 8.88216 5.55978C7.84385 5.93383 6.96916 6.53708 6.31447 7.27052C6.26082 7.33063 6.20864 7.39161 6.15798 7.45341C5.09201 8.7536 4.69376 10.4167 5.25215 11.9352L5.46256 12.5074C5.97348 13.8968 6.09601 15.4045 5.82046 16.9111L5.33598 19.56C5.20403 20.2815 5.97164 20.7978 6.75599 20.5153L20.2233 15.6636C21.0077 15.3811 21.2603 14.4971 20.6907 14.0284Z" stroke="black" stroke-width="2" stroke-linecap="round"/>
</svg>
