<svg width="24" height="24" viewBox="0 0 24 24" fill="none" xmlns="http://www.w3.org/2000/svg">
<path fill-rule="evenodd" clip-rule="evenodd" d="M8.62335 5.34136C9.47533 4.87803 10.4557 4.58755 11.5 4.51686C11.5019 5.21291 11.6224 5.8811 11.8422 6.50229C11.0017 6.52669 10.2282 6.7452 9.57886 7.09835C9.5224 7.12906 9.46689 7.16077 9.41237 7.19345C8.25814 7.88538 7.58232 8.9789 7.58232 10.1429V10.7365C7.58232 12.3616 7.14034 13.9565 6.30214 15.3932L5.07304 17.4998L5.08491 17.5H18.915L18.9269 17.4998L17.6978 15.3931C16.8596 13.9565 16.4176 12.3616 16.4176 10.7365V10.4026C16.7687 10.4666 17.1304 10.5 17.5 10.5C17.812 10.5 18.1185 10.4762 18.4176 10.4303V10.7365C18.4176 11.9945 18.759 13.2432 19.4253 14.3853L20.7479 16.6522C21.1452 17.3332 21.0441 18.0951 20.6478 18.6445C20.2624 19.179 19.6201 19.5 18.915 19.5H5.08491C4.37987 19.5 3.73758 19.179 3.35212 18.6445C2.95587 18.0951 2.85472 17.3332 3.25203 16.6522L4.57466 14.3853C5.24101 13.2432 5.58232 11.9945 5.58232 10.7365V10.1429C5.58232 8.1558 6.7379 6.46489 8.38405 5.47807C8.46263 5.43096 8.54242 5.38538 8.62335 5.34136ZM11.6826 3.02492C11.865 2.30375 12.1778 1.63457 12.5947 1.04401C12.4006 1.01503 12.202 1 12 1C10.9761 1 10.0401 1.38597 9.33307 2.01876C8.92154 2.38708 8.88652 3.01928 9.25484 3.43081C9.62317 3.84233 10.2554 3.87735 10.6669 3.50903C10.9467 3.2586 11.2958 3.08638 11.6826 3.02492ZM9.25485 20.5692C9.62317 20.1576 10.2554 20.1226 10.6669 20.4909C11.0214 20.8082 11.4871 21 12 21C12.5129 21 12.9786 20.8082 13.3331 20.4909C13.7446 20.1226 14.3768 20.1576 14.7451 20.5692C15.1134 20.9807 15.0784 21.6129 14.6669 21.9812C13.9599 22.614 13.0238 23 12 23C10.9761 23 10.0401 22.614 9.33307 21.9812C8.92154 21.6129 8.88652 20.9807 9.25485 20.5692ZM16 4.5C16 3.67157 16.6716 3 17.5 3C18.3284 3 19 3.67157 19 4.5C19 5.32843 18.3284 6 17.5 6C16.6716 6 16 5.32843 16 4.5ZM17.5 1C15.567 1 14 2.567 14 4.5C14 6.433 15.567 8 17.5 8C19.433 8 21 6.433 21 4.5C21 2.567 19.433 1 17.5 1Z" fill="black"/>
</svg>
