<svg width="24" height="24" viewBox="0 0 24 24" fill="none" xmlns="http://www.w3.org/2000/svg">
<path d="M10 22H14M10 2.76389C10.5308 2.28885 11.2316 2 12 2C12.7684 2 13.4692 2.28885 14 2.76389M5.08493 19C4.27945 19 3.75557 18.2456 4.11579 17.6045L5.43842 15.2503C6.19069 13.9114 6.58234 12.4349 6.58234 10.9379V10.3214C6.58234 8.68533 7.49804 7.23956 8.89823 6.3679C8.96478 6.32647 9.03243 6.28634 9.10113 6.24754C9.93938 5.77414 10.9337 5.5 12 5.5C13.0663 5.5 14.0606 5.77414 14.8989 6.24754C14.9676 6.28634 15.0352 6.32647 15.1018 6.3679C16.502 7.23956 17.4177 8.68533 17.4177 10.3214V10.9379C17.4177 12.4349 17.8093 13.9114 18.5616 15.2503L19.8842 17.6045C20.2444 18.2456 19.7205 19 18.9151 19H5.08493Z" stroke="black" stroke-width="2" stroke-linecap="round"/>
</svg>
