<svg width="24" height="24" viewBox="0 0 24 24" fill="none" xmlns="http://www.w3.org/2000/svg">
<path d="M22 11V15.1716C22 15.702 21.7893 16.2107 21.4142 16.5858L16.5858 21.4142C16.2107 21.7893 15.702 22 15.1716 22H8.82843C8.29799 22 7.78929 21.7893 7.41421 21.4142L2.58579 16.5858C2.21071 16.2107 2 15.702 2 15.1716V8.82843C2 8.29799 2.21071 7.78929 2.58579 7.41421L7.41421 2.58579C7.78929 2.21071 8.29799 2 8.82843 2H13M21 5.5C21 6.88071 19.8807 8 18.5 8C17.1193 8 16 6.88071 16 5.5C16 4.11929 17.1193 3 18.5 3C19.8807 3 21 4.11929 21 5.5Z" stroke="black" stroke-width="2" stroke-linecap="round" stroke-linejoin="round"/>
</svg>
