<svg width="24" height="24" viewBox="0 0 24 24" fill="none" xmlns="http://www.w3.org/2000/svg">
<path d="M21 11.0163V15.9837C21 16.7159 20.6029 17.3934 19.956 17.7647L13.0737 21.7147C12.411 22.0951 11.589 22.0951 10.9263 21.7147L4.04396 17.7647C3.39715 17.3934 3 16.7159 3 15.9837V8.01627C3 7.28408 3.39715 6.60658 4.04396 6.23535L10.9263 2.28527C11.589 1.90491 12.411 1.90491 13.0737 2.28527M21 5.5C21 6.88071 19.8807 8 18.5 8C17.1193 8 16 6.88071 16 5.5C16 4.11929 17.1193 3 18.5 3C19.8807 3 21 4.11929 21 5.5Z" stroke="black" stroke-width="2" stroke-linecap="round" stroke-linejoin="round"/>
</svg>
