<svg width="24" height="24" viewBox="0 0 24 24" fill="none" xmlns="http://www.w3.org/2000/svg">
<path d="M13 3H4C2.89543 3 2 3.8958 2 5.00083V16.4311C2 17.5361 2.89543 18.4319 4 18.4319H4.5C4.77614 18.4319 5 18.6559 5 18.9322V21.499C5 21.8985 5.44507 22.1368 5.77735 21.9151L9.9923 19.104C10.6494 18.6658 11.4214 18.4319 12.2111 18.4319H19C20.1046 18.4319 21 17.5361 21 16.4311V11.0008M22 4.5C22 5.88071 20.8807 7 19.5 7C18.1193 7 17 5.88071 17 4.5C17 3.11929 18.1193 2 19.5 2C20.8807 2 22 3.11929 22 4.5Z" stroke="black" stroke-width="2" stroke-linecap="round"/>
</svg>
