<svg width="24" height="24" viewBox="0 0 24 24" fill="none" xmlns="http://www.w3.org/2000/svg">
<path d="M5 10H19M19 7H18.99M7.5 16V18V18.5C7.5 19.3284 6.82843 20 6 20C5.17157 20 4.5 19.3284 4.5 18.5V18M16.5 16V18V18.5C16.5 19.3284 17.1716 20 18 20C18.8284 20 19.5 19.3284 19.5 18.5V18M12 16V19M5 13H19C20.6569 13 22 11.6569 22 10V7C22 5.34315 20.6569 4 19 4H5C3.34315 4 2 5.34315 2 7V10C2 11.6569 3.34315 13 5 13Z" stroke="black" stroke-width="2" stroke-linecap="round" stroke-linejoin="round"/>
</svg>
