<svg width="24" height="24" viewBox="0 0 24 24" fill="none" xmlns="http://www.w3.org/2000/svg">
<path d="M9.5 17H4.5C3.11929 17 2 15.8807 2 14.5V9.83333M7 6.5V5.66667C7 4.74619 7.74619 4 8.66667 4H10.3333C11.2538 4 12 4.74619 12 5.66667V6.5M7 6.5H12M7 6.5H5.33333M12 6.5H14.5C15.0629 6.5 15.5824 6.68604 16.0002 7M5.33333 6.5H4.5C3.11929 6.5 2 7.61929 2 9V9.83333M5.33333 6.5V7.33333C5.33333 8.71405 4.21405 9.83333 2.83333 9.83333H2M13.6667 6.5V7.33333M5.33333 17V16.1667C5.33333 14.786 4.21405 13.6667 2.83333 13.6667H2M16.5033 19.9223C13.4073 18.9277 12.1147 15.8999 12.0003 12.552C11.9906 12.2676 12.1963 12.028 12.4679 11.9727C13.9387 11.6729 15.1052 11.0308 16.3798 10.1874C16.7576 9.93752 17.2424 9.93752 17.6202 10.1874C18.8948 11.0308 20.0613 11.6729 21.5321 11.9727C21.8037 12.028 22.0094 12.2676 21.9997 12.552C21.8853 15.8999 20.5927 18.9277 17.4967 19.9223C17.1741 20.0259 16.8259 20.0259 16.5033 19.9223Z" stroke="black" stroke-width="2" stroke-linecap="round" stroke-linejoin="round"/>
</svg>
