<svg width="24" height="24" viewBox="0 0 24 24" fill="none" xmlns="http://www.w3.org/2000/svg">
<path d="M9 6V5C9 3.89543 9.89543 3 11 3H13C14.1046 3 15 3.89543 15 5V6M9 6H15M9 6H7M15 6H18C19.6569 6 21 7.34315 21 9V18C21 19.6569 19.6569 21 18 21H6C4.34315 21 3 19.6569 3 18V10M7 6H6C4.34315 6 3 7.34315 3 9V10M7 6V7C7 8.65685 5.65685 10 4 10H3M17 6V7C17 8.65685 18.3431 10 20 10H21M17 21V20C17 18.3431 18.3431 17 20 17H21M7 21V20C7 18.3431 5.65685 17 4 17H3M11.702 16.4534C9.84436 15.8566 9.06882 14.0399 9.0002 12.0312C8.99437 11.8606 9.11776 11.7168 9.28073 11.6836C10.1632 11.5037 10.8631 11.1185 11.6279 10.6125C11.8546 10.4625 12.1454 10.4625 12.3721 10.6125C13.1369 11.1185 13.8368 11.5037 14.7193 11.6836C14.8822 11.7168 15.0056 11.8606 14.9998 12.0312C14.9312 14.0399 14.1556 15.8566 12.298 16.4534C12.1045 16.5155 11.8955 16.5155 11.702 16.4534Z" stroke="black" stroke-width="2" stroke-linecap="round" stroke-linejoin="round"/>
</svg>
