<svg width="24" height="24" viewBox="0 0 24 24" fill="none" xmlns="http://www.w3.org/2000/svg">
<path fill-rule="evenodd" clip-rule="evenodd" d="M10 1C8.89543 1 8 1.89543 8 3V7.12602C6.27477 7.57006 5 9.13616 5 11V18C5 19.8638 6.27477 21.4299 8 21.874V22C8 22.5523 8.44772 23 9 23C9.55228 23 10 22.5523 10 22H14C14 22.5523 14.4477 23 15 23C15.5523 23 16 22.5523 16 22V21.874C17.7252 21.4299 19 19.8638 19 18V11C19 9.13616 17.7252 7.57006 16 7.12602V3C16 1.89543 15.1046 1 14 1H10ZM14 7H10V3H14V7ZM7 11C7 9.89543 7.89543 9 9 9H15C16.1046 9 17 9.89543 17 11V18C17 19.1046 16.1046 20 15 20H9C7.89543 20 7 19.1046 7 18V11ZM8.00026 12.5416C8.09176 15.2199 9.12581 17.6422 11.6026 18.4378C11.8607 18.5207 12.1393 18.5207 12.3974 18.4378C14.8742 17.6422 15.9082 15.2199 15.9997 12.5416C16.0075 12.3141 15.843 12.1224 15.6257 12.0781C14.4491 11.8383 13.5158 11.3246 12.4961 10.65C12.1939 10.45 11.8061 10.45 11.5039 10.65C10.4842 11.3246 9.55094 11.8383 8.37431 12.0781C8.15701 12.1224 7.99249 12.3141 8.00026 12.5416ZM13.6476 13.5191C13.8212 13.6926 13.8212 13.974 13.6476 14.1476L11.8698 15.9254C11.6963 16.0989 11.4149 16.0989 11.2413 15.9254L10.3524 15.0365C10.1788 14.8629 10.1788 14.5815 10.3524 14.408C10.526 14.2344 10.8074 14.2344 10.9809 14.408L11.5556 14.9826L13.0191 13.5191C13.1926 13.3455 13.474 13.3455 13.6476 13.5191Z" fill="black"/>
</svg>
