<svg width="24" height="24" viewBox="0 0 24 24" fill="none" xmlns="http://www.w3.org/2000/svg">
<path d="M7 21V22M7 21C5.34315 21 4 19.6569 4 18V11C4 9.34315 5.34315 8 7 8M7 21H10M7 8V3C7 2.44772 7.44772 2 8 2H12C12.5523 2 13 2.44772 13 3V8M7 8H13M13 8C13.8885 8 14.6868 8.38625 15.2361 9" stroke="black" stroke-width="2" stroke-linecap="round" stroke-linejoin="round"/>
<path fill-rule="evenodd" clip-rule="evenodd" d="M15.5033 21.9223C12.4073 20.9277 11.1147 17.8999 11.0003 14.552C10.9906 14.2676 11.1963 14.028 11.4679 13.9727C12.9387 13.6729 14.1052 13.0308 15.3798 12.1874C15.7576 11.9375 16.2424 11.9375 16.6202 12.1874C17.8948 13.0308 19.0613 13.6729 20.5321 13.9727C20.8037 14.028 21.0094 14.2676 20.9997 14.552C20.8853 17.8999 19.5927 20.9277 16.4967 21.9223C16.1741 22.0259 15.8259 22.0259 15.5033 21.9223ZM18.0595 16.5595C18.2765 16.3425 18.2765 15.9908 18.0595 15.7738C17.8425 15.5569 17.4908 15.5569 17.2738 15.7738L15.4444 17.6032L14.7262 16.8849C14.5092 16.668 14.1575 16.668 13.9405 16.8849C13.7235 17.1019 13.7235 17.4537 13.9405 17.6706L15.0516 18.7817C15.2686 18.9987 15.6203 18.9987 15.8373 18.7817L18.0595 16.5595Z" fill="black"/>
</svg>
