<svg width="24" height="24" viewBox="0 0 24 24" fill="none" xmlns="http://www.w3.org/2000/svg">
<path d="M7 21V22M7 21C5.34315 21 4 19.6569 4 18V11C4 9.34315 5.34315 8 7 8M7 21H9M7 8V3C7 2.44772 7.44772 2 8 2H12C12.5523 2 13 2.44772 13 3V8M7 8H13M13 8C13.8885 8 14.6868 8.38625 15.2361 9M14.5033 21.9223C11.4073 20.9277 10.1147 17.8999 10.0003 14.552C9.99062 14.2676 10.1963 14.028 10.4679 13.9727C11.9387 13.6729 13.1052 13.0308 14.3798 12.1874C14.7576 11.9375 15.2424 11.9375 15.6202 12.1874C16.8948 13.0308 18.0613 13.6729 19.5321 13.9727C19.8037 14.028 20.0094 14.2676 19.9997 14.552C19.8853 17.8999 18.5927 20.9277 15.4967 21.9223C15.1741 22.0259 14.8259 22.0259 14.5033 21.9223Z" stroke="black" stroke-width="2" stroke-linecap="round" stroke-linejoin="round"/>
</svg>
