<svg width="24" height="24" viewBox="0 0 24 24" fill="none" xmlns="http://www.w3.org/2000/svg">
<path d="M9 21V22M9 21H15M9 21C7.34315 21 6 19.6569 6 18V11C6 9.34315 7.34315 8 9 8M15 21V22M15 21C16.6569 21 18 19.6569 18 18V11C18 9.34315 16.6569 8 15 8M9 8V3C9 2.44772 9.44772 2 10 2H14C14.5523 2 15 2.44772 15 3V8M9 8H15M11.702 17.4534C9.84436 16.8566 9.06882 15.0399 9.0002 13.0312C8.99437 12.8606 9.11776 12.7168 9.28073 12.6836C10.1632 12.5037 10.8631 12.1185 11.6279 11.6125C11.8546 11.4625 12.1454 11.4625 12.3721 11.6125C13.1369 12.1185 13.8368 12.5037 14.7193 12.6836C14.8822 12.7168 15.0056 12.8606 14.9998 13.0312C14.9312 15.0399 14.1556 16.8566 12.298 17.4534C12.1045 17.5155 11.8955 17.5155 11.702 17.4534Z" stroke="black" stroke-width="2" stroke-linecap="round" stroke-linejoin="round"/>
</svg>
