<svg width="24" height="24" viewBox="0 0 24 24" fill="none" xmlns="http://www.w3.org/2000/svg">
<path fill-rule="evenodd" clip-rule="evenodd" d="M12 1C8.96271 1 6.21134 2.23231 4.22183 4.22183C2.23231 6.21134 1 8.96271 1 12C1 18.0751 5.92487 23 12 23C15.0373 23 17.7887 21.7677 19.7782 19.7782C21.7677 17.7887 23 15.0373 23 12C23 5.92487 18.0751 1 12 1ZM10.4142 9L6.38227 4.96806C7.9224 3.73579 9.87458 3 12 3C16.9706 3 21 7.02944 21 12C21 14.1254 20.2642 16.0776 19.0319 17.6177L16.4142 15H17C18.1046 15 19 14.1046 19 13V11C19 9.89543 18.1046 9 17 9H14H10.4142ZM13.5858 15L17.6177 19.0319C16.0776 20.2642 14.1254 21 12 21C7.02944 21 3 16.9706 3 12C3 9.87458 3.73579 7.9224 4.96806 6.38227L7.58579 9H7C5.89543 9 5 9.89543 5 11V13C5 14.1046 5.89543 15 7 15H13.5858ZM7 11H9.58579L11.5858 13H7V11ZM17 13H15V11H17V13ZM12.4142 11H13V11.5858L12.4142 11ZM14.3632 5.70879C14.865 6.71644 15.3813 7.75315 17.2557 7.9982C17.4773 8.02717 17.5848 7.69992 17.4203 7.552C16.9744 7.15119 16.632 6.64922 16.2896 6.14725C15.6586 5.22221 15.0276 4.29717 13.7489 4.00517C13.5312 3.95546 13.4181 4.27647 13.569 4.43766C13.9131 4.80515 14.1367 5.25401 14.3632 5.70879Z" fill="black"/>
</svg>
