<svg width="24" height="24" viewBox="0 0 24 24" fill="none" xmlns="http://www.w3.org/2000/svg">
<path d="M7.40388 17.5H16.5961M7.40388 17.5C5.10954 17.5 3.10963 15.9385 2.55317 13.7127L2 11.5H20M7.40388 17.5L6 20M16.5961 17.5C18.8905 17.5 20.8904 15.9385 21.4468 13.7127L22 11.5H20M16.5961 17.5L18 20M20 11.5V5.5C20 4.67157 19.3284 4 18.5 4C18.0558 4 17.6566 4.19313 17.3819 4.5M17.3819 4.5V6.5L15.5 4.5H17.3819ZM13 7H13.01M15 9H15.01M11 9H11.01" stroke="black" stroke-width="2" stroke-linecap="round" stroke-linejoin="round"/>
</svg>
