<svg width="24" height="24" viewBox="0 0 24 24" fill="none" xmlns="http://www.w3.org/2000/svg">
<path d="M22 14V12C22 11.4477 21.5523 11 21 11H20M22 14V16M22 14H13.5M13.5 16V14M13.5 14V12C13.5 11.4477 13.9477 11 14.5 11H15.5M15.5 11V9C15.5 8.44772 15.9477 8 16.5 8H19C19.5523 8 20 8.44772 20 9V11M15.5 11H20M10.5 14V12C10.5 11.4477 10.0523 11 9.5 11H8.5M10.5 14V16M10.5 14H2M2 16V14M2 14V12C2 11.4477 2.44772 11 3 11H4M4 11V9C4 8.44772 4.44772 8 5 8H7.5C8.05228 8 8.5 8.44772 8.5 9V11M4 11H8.5" stroke="black" stroke-width="2" stroke-linecap="round" stroke-linejoin="round"/>
</svg>
