<svg width="24" height="24" viewBox="0 0 24 24" fill="none" xmlns="http://www.w3.org/2000/svg">
<path d="M2 20V17M22 20V17M22 17V14C22 12.8954 21.1046 12 20 12V12M22 17H2M2 17V14C2 12.8954 2.89543 12 4 12V12M4 12V7C4 5.34315 5.34315 4 7 4H17C18.6569 4 20 5.34315 20 7V12M4 12H7M20 12H17M7 12V10C7 9.44772 7.44772 9 8 9H9.5C10.0523 9 10.5 9.44772 10.5 10V12M7 12H10.5M10.5 12H13.5M17 12V10C17 9.44772 16.5523 9 16 9H14.5C13.9477 9 13.5 9.44772 13.5 10V12M17 12H13.5" stroke="black" stroke-width="2" stroke-linecap="round" stroke-linejoin="round"/>
</svg>
