<svg width="24" height="24" viewBox="0 0 24 24" fill="none" xmlns="http://www.w3.org/2000/svg">
<path d="M12 22C6.47715 22 2 17.5228 2 12M12 22C17.5228 22 22 17.5228 22 12M12 22V19M2 12C2 6.47715 6.47715 2 12 2M2 12H5M22 12C22 6.47715 17.5228 2 12 2M22 12H19M12 2V5M10.5856 13.4142L13.414 10.5858M8.11073 8.11095L9.26287 12.0282C9.6466 13.3329 10.667 14.3533 11.9717 14.737L15.8889 15.8891L14.7368 11.9719C14.353 10.6672 13.3327 9.64681 12.028 9.26308L8.11073 8.11095Z" stroke="black" stroke-width="2" stroke-linecap="round" stroke-linejoin="round"/>
</svg>
