<svg width="24" height="24" viewBox="0 0 24 24" fill="none" xmlns="http://www.w3.org/2000/svg">
<path d="M7 20H17M13.3216 10.924L10.765 12.5219C10.432 12.73 10 12.4906 10 12.0979V8.90212C10 8.50941 10.432 8.26998 10.765 8.47812L13.3216 10.076C13.6349 10.2718 13.6349 10.7282 13.3216 10.924ZM5 17H19C20.6569 17 22 15.6569 22 14V7C22 5.34315 20.6569 4 19 4H5C3.34315 4 2 5.34315 2 7V14C2 15.6569 3.34315 17 5 17Z" stroke="black" stroke-width="2" stroke-linecap="round" stroke-linejoin="round"/>
</svg>
