<svg width="24" height="24" viewBox="0 0 24 24" fill="none" xmlns="http://www.w3.org/2000/svg">
<path d="M19 20L8.79681 11.0593M8.79681 11.0593C7.47808 12.6253 5.03731 12.5523 3.81515 10.9104L2.5154 9.16416C1.79344 8.19421 1.83368 6.85737 2.61269 5.93229C3.38512 5.01502 4.68494 4.73929 5.76535 5.26352L7.76595 6.23425C9.60288 7.12555 10.1101 9.4997 8.79681 11.0593ZM4.5 20L15.1705 10.5144M15.1705 10.5144L19.7558 6.67161M15.1705 10.5144L14.8498 10.1326C13.7873 8.86799 13.9525 6.98256 15.2186 5.9214L17.5113 4M15.1705 10.5144L15.491 10.8959C16.5535 12.1605 18.4412 12.3255 19.7074 11.2643L22 9.34294" stroke="black" stroke-width="2" stroke-linecap="round" stroke-linejoin="round"/>
</svg>
