<svg width="24" height="24" viewBox="0 0 24 24" fill="none" xmlns="http://www.w3.org/2000/svg">
<path d="M6.5 21V9M6.5 3V9M6.5 9H5.99982C4.34297 9 2.99982 7.65685 2.99982 6V3M6.5 9H6.99982C8.65667 9 9.99982 7.65685 9.99982 6V3M17 21V11M17 11V11C19.0318 11 20.5226 9.09057 20.0299 7.11943L19.4932 4.97265C19.2033 3.81331 18.1617 3 16.9666 3V3C15.7614 3 14.7137 3.82693 14.4336 4.99914L13.9295 7.10948C13.4554 9.09384 14.9598 11 17 11V11Z" stroke="black" stroke-width="2" stroke-linecap="round" stroke-linejoin="round"/>
</svg>
