<svg width="24" height="24" viewBox="0 0 24 24" fill="none" xmlns="http://www.w3.org/2000/svg">
<path fill-rule="evenodd" clip-rule="evenodd" d="M6 4C6 3.44772 5.55228 3 5 3C4.44772 3 4 3.44772 4 4V5C2.34315 5 1 6.34315 1 8V11C1 12.6569 2.34315 14 4 14V20C4 20.5523 4.44772 21 5 21C5.55228 21 6 20.5523 6 20V14H18V20C18 20.5523 18.4477 21 19 21C19.5523 21 20 20.5523 20 20V14C21.6569 14 23 12.6569 23 11V8C23 6.34315 21.6569 5 20 5V4C20 3.44772 19.5523 3 19 3C18.4477 3 18 3.44772 18 4V5H6V4ZM3 8C3 7.44772 3.44772 7 4 7H5H19H20C20.5523 7 21 7.44772 21 8V11C21 11.5523 20.5523 12 20 12H19H5H4C3.44772 12 3 11.5523 3 11V8ZM7.20711 9L7.85355 8.35355C8.04882 8.15829 8.04882 7.84171 7.85355 7.64645C7.65829 7.45118 7.34171 7.45118 7.14645 7.64645L5.64645 9.14645C5.45118 9.34171 5.45118 9.65829 5.64645 9.85355L7.14645 11.3536C7.34171 11.5488 7.65829 11.5488 7.85355 11.3536C8.04882 11.1583 8.04882 10.8417 7.85355 10.6464L7.20711 10H10C10.2761 10 10.5 9.77614 10.5 9.5C10.5 9.22386 10.2761 9 10 9H7.20711ZM15 8C14.7239 8 14.5 8.22386 14.5 8.5C14.5 8.77614 14.7239 9 15 9H18C18.2761 9 18.5 8.77614 18.5 8.5C18.5 8.22386 18.2761 8 18 8H15ZM13 10C12.7239 10 12.5 10.2239 12.5 10.5C12.5 10.7761 12.7239 11 13 11H18C18.2761 11 18.5 10.7761 18.5 10.5C18.5 10.2239 18.2761 10 18 10H13Z" fill="black"/>
</svg>
