<svg width="24" height="24" viewBox="0 0 24 24" fill="none" xmlns="http://www.w3.org/2000/svg">
<path fill-rule="evenodd" clip-rule="evenodd" d="M6 4C6 3.44772 5.55228 3 5 3C4.44772 3 4 3.44772 4 4V5C2.34315 5 1 6.34315 1 8V11C1 12.6569 2.34315 14 4 14V20C4 20.5523 4.44772 21 5 21C5.55228 21 6 20.5523 6 20V14H18V20C18 20.5523 18.4477 21 19 21C19.5523 21 20 20.5523 20 20V14C21.6569 14 23 12.6569 23 11V8C23 6.34315 21.6569 5 20 5V4C20 3.44772 19.5523 3 19 3C18.4477 3 18 3.44772 18 4V5H6V4ZM3 8C3 7.44772 3.44772 7 4 7H5H19H20C20.5523 7 21 7.44772 21 8V11C21 11.5523 20.5523 12 20 12H19H5H4C3.44772 12 3 11.5523 3 11V8ZM16.8536 7.64645C16.6583 7.45118 16.3417 7.45118 16.1464 7.64645C15.9512 7.84171 15.9512 8.15829 16.1464 8.35355L16.7929 9H14C13.7239 9 13.5 9.22386 13.5 9.5C13.5 9.77614 13.7239 10 14 10H16.7929L16.1464 10.6464C15.9512 10.8417 15.9512 11.1583 16.1464 11.3536C16.3417 11.5488 16.6583 11.5488 16.8536 11.3536L18.3536 9.85355C18.5488 9.65829 18.5488 9.34171 18.3536 9.14645L16.8536 7.64645ZM6 8C5.72386 8 5.5 8.22386 5.5 8.5C5.5 8.77614 5.72386 9 6 9H9C9.27614 9 9.5 8.77614 9.5 8.5C9.5 8.22386 9.27614 8 9 8H6ZM6 10C5.72386 10 5.5 10.2239 5.5 10.5C5.5 10.7761 5.72386 11 6 11H11C11.2761 11 11.5 10.7761 11.5 10.5C11.5 10.2239 11.2761 10 11 10H6Z" fill="black"/>
</svg>
