<svg width="24" height="24" viewBox="0 0 24 24" fill="none" xmlns="http://www.w3.org/2000/svg">
<path d="M4 18.0001H20M8.27914 13.0047L17 15.251C17.7744 15.4504 18.5589 14.964 18.7244 14.1816C18.88 13.446 18.4288 12.7183 17.7007 12.5308L15.1431 11.872L14.2822 9.00488C14.0882 8.35888 13.6822 7.7971 13.1297 7.41022L11.1157 6L10.8333 10.7619L9.52624 10.4252C9.17829 10.3356 8.90517 10.0662 8.81079 9.71953L8.41631 8.27049C8.19298 7.45014 7.47542 6.86065 6.62732 6.8008L5.13517 6.69551L6.10869 10.793C6.36594 11.8757 7.20143 12.7271 8.27914 13.0047Z" stroke="black" stroke-width="2" stroke-linecap="round" stroke-linejoin="round"/>
</svg>
