<svg width="24" height="24" viewBox="0 0 24 24" fill="none" xmlns="http://www.w3.org/2000/svg">
<path d="M5 21H19M11.3502 17.6573C7.55903 12.1121 6.5 10.5347 6.5 7.53596C6.5 4.47854 8.96243 2 12 2C15.0376 2 17.5 4.47854 17.5 7.53596C17.5 10.5347 16.441 12.1121 12.6498 17.6573C12.3374 18.1142 11.6626 18.1142 11.3502 17.6573ZM12 10C10.6982 10 9.64286 8.92548 9.64286 7.6C9.64286 6.27452 10.6982 5.2 12 5.2C13.3018 5.2 14.3571 6.27452 14.3571 7.6C14.3571 8.92548 13.3018 10 12 10Z" stroke="black" stroke-width="2" stroke-linecap="round" stroke-linejoin="round"/>
</svg>
