<svg width="24" height="24" viewBox="0 0 24 24" fill="none" xmlns="http://www.w3.org/2000/svg">
<path d="M2 15.7843V4.67698C2 4.34058 2.32552 4.10016 2.64704 4.19909L6.79869 5.47652C7.90898 5.81815 9.09457 5.83012 10.2115 5.51099L13.7885 4.48901C14.9054 4.16988 16.091 4.18185 17.2013 4.52348L19.8823 5.34839C21.141 5.7357 22 6.89871 22 8.21572V19.323C22 19.6594 21.6745 19.8998 21.353 19.8009L17.2013 18.5235C16.091 18.1819 14.9054 18.1699 13.7885 18.489L10.2115 19.511C9.09457 19.8301 7.90898 19.8181 6.79869 19.4765L4.11774 18.6516C2.85897 18.2643 2 17.1013 2 15.7843Z" stroke="black" stroke-width="2" stroke-linecap="round" stroke-linejoin="round"/>
</svg>
