<svg width="24" height="24" viewBox="0 0 24 24" fill="none" xmlns="http://www.w3.org/2000/svg">
<path fill-rule="evenodd" clip-rule="evenodd" d="M3 16.7841V4.35378L6.50461 5.43212C7.79994 5.83069 9.18313 5.84466 10.4863 5.47234L14.0632 4.45036C14.994 4.18441 15.982 4.19439 16.9072 4.47908L19.5882 5.30399C20.4274 5.5622 21 6.33754 21 7.21555V19.6459L17.4954 18.5675C16.2001 18.169 14.8169 18.155 13.5137 18.5273L9.93681 19.5493C9.00601 19.8152 8.01802 19.8053 7.09278 19.5206L4.41183 18.6957C3.57265 18.4374 3 17.6621 3 16.7841ZM2.94113 2.24313C1.97655 1.94634 1 2.6676 1 3.6768V16.7841C1 18.5401 2.14529 20.0908 3.82366 20.6072L6.50461 21.4321C7.79994 21.8307 9.18313 21.8447 10.4863 21.4723L14.0632 20.4504C14.994 20.1844 15.982 20.1944 16.9072 20.4791L21.0589 21.7565C22.0235 22.0533 23 21.3321 23 20.3228V7.21555C23 5.45953 21.8547 3.90885 20.1763 3.39243L17.4954 2.56752C16.2001 2.16896 14.8169 2.15499 13.5137 2.52731L9.93681 3.54929C9.00601 3.81523 8.01802 3.80525 7.09278 3.52057L2.94113 2.24313ZM12.1851 7.09413C12.0911 6.96839 11.9089 6.96839 11.815 7.09413C10.9883 8.20066 10.4866 9.6696 10.3619 11.2153C10.35 11.3621 10.4647 11.4857 10.6084 11.4857H13.3916C13.5353 11.4857 13.65 11.3621 13.6381 11.2153C13.5134 9.6696 13.0118 8.20066 12.1851 7.09413ZM10.475 7.09863C10.5187 7.08449 10.5555 7.13356 10.5322 7.17397C9.83877 8.37245 9.44971 9.79864 9.34912 11.2413C9.33959 11.3781 9.22971 11.4857 9.09593 11.4857H7.12383C7.04967 11.4857 6.9916 11.4199 7.001 11.3445C7.25114 9.33892 8.63416 7.6941 10.475 7.09863ZM7.001 12.6551C6.9916 12.5797 7.04967 12.5139 7.12383 12.5139H9.09593C9.2297 12.5139 9.33959 12.6216 9.34912 12.7584C9.44971 14.201 9.83877 15.6272 10.5322 16.8257C10.5555 16.8661 10.5187 16.9152 10.475 16.901C8.63416 16.3055 7.25114 14.6607 7.001 12.6551ZM13.4678 16.8257C13.4445 16.8661 13.4813 16.9152 13.525 16.901C15.3658 16.3055 16.7489 14.6607 16.999 12.6551C17.0084 12.5797 16.9503 12.5139 16.8762 12.5139H14.9041C14.7703 12.5139 14.6604 12.6216 14.6509 12.7584C14.5503 14.201 14.1612 15.6272 13.4678 16.8257ZM16.999 11.3445C17.0084 11.4199 16.9503 11.4857 16.8762 11.4857H14.9041C14.7703 11.4857 14.6604 11.3781 14.6509 11.2413C14.5503 9.79864 14.1612 8.37245 13.4678 7.17397C13.4445 7.13356 13.4813 7.08449 13.525 7.09863C15.3658 7.6941 16.7489 9.33892 16.999 11.3445ZM10.6084 12.5139C10.4647 12.5139 10.35 12.6376 10.3619 12.7844C10.4866 14.3301 10.9883 15.799 11.815 16.9055C11.9089 17.0313 12.0911 17.0313 12.1851 16.9055C13.0118 15.799 13.5134 14.3301 13.6381 12.7844C13.65 12.6376 13.5353 12.5139 13.3916 12.5139H10.6084Z" fill="black"/>
</svg>
