<svg width="24" height="24" viewBox="0 0 24 24" fill="none" xmlns="http://www.w3.org/2000/svg">
<path fill-rule="evenodd" clip-rule="evenodd" d="M3 17.6462V4.4773L5.14305 5.33452C6.3351 5.81134 7.6649 5.81134 8.85695 5.33452L10.8858 4.52297C11.6011 4.23688 12.3989 4.23688 13.1142 4.52297L15.143 5.33452C16.3351 5.81134 17.6649 5.81134 18.857 5.33452L21 4.4773V17.6462C21 18.0551 20.751 18.4228 20.3714 18.5747L18.1142 19.4776C17.3989 19.7637 16.6011 19.7637 15.8858 19.4776L13.857 18.666C12.6649 18.1892 11.3351 18.1892 10.143 18.666L8.11417 19.4776C7.39894 19.7637 6.60106 19.7637 5.88583 19.4776L3.62861 18.5747C3.24895 18.4228 3 18.0551 3 17.6462ZM3.05709 2.34607C2.07179 1.95195 1 2.67759 1 3.73878V17.6462C1 18.8729 1.74685 19.976 2.88583 20.4316L5.14305 21.3345C6.3351 21.8113 7.6649 21.8113 8.85695 21.3345L10.8858 20.523C11.6011 20.2369 12.3989 20.2369 13.1142 20.523L15.143 21.3345C16.3351 21.8113 17.6649 21.8113 18.857 21.3345L21.1142 20.4316C22.2531 19.976 23 18.8729 23 17.6462V3.73878C23 2.67759 21.9282 1.95195 20.9429 2.34607L18.1142 3.47757C17.3989 3.76366 16.6011 3.76366 15.8858 3.47757L13.857 2.66602C12.6649 2.18919 11.3351 2.18919 10.143 2.66602L8.11417 3.47757C7.39894 3.76366 6.60106 3.76366 5.88583 3.47757L3.05709 2.34607ZM12.1851 6.59457C12.0911 6.46883 11.9089 6.46883 11.815 6.59457C10.9883 7.70111 10.4866 9.17004 10.3619 10.7157C10.35 10.8625 10.4647 10.9862 10.6084 10.9862H13.3916C13.5353 10.9862 13.65 10.8625 13.6381 10.7157C13.5134 9.17004 13.0118 7.70111 12.1851 6.59457ZM10.475 6.59907C10.5187 6.58494 10.5555 6.63401 10.5322 6.67442C9.83877 7.87289 9.44971 9.29908 9.34912 10.7417C9.33959 10.8785 9.22971 10.9862 9.09593 10.9862H7.12383C7.04967 10.9862 6.9916 10.9204 7.001 10.845C7.25114 8.83937 8.63416 7.19454 10.475 6.59907ZM7.001 12.1556C6.9916 12.0801 7.04967 12.0143 7.12383 12.0143H9.09593C9.2297 12.0143 9.33959 12.122 9.34912 12.2588C9.44971 13.7015 9.83877 15.1276 10.5322 16.3261C10.5555 16.3665 10.5187 16.4156 10.475 16.4015C8.63416 15.806 7.25114 14.1612 7.001 12.1556ZM13.4678 16.3261C13.4445 16.3665 13.4813 16.4156 13.525 16.4015C15.3658 15.806 16.7489 14.1612 16.999 12.1556C17.0084 12.0801 16.9503 12.0143 16.8762 12.0143H14.9041C14.7703 12.0143 14.6604 12.122 14.6509 12.2588C14.5503 13.7015 14.1612 15.1276 13.4678 16.3261ZM16.999 10.845C17.0084 10.9204 16.9503 10.9862 16.8762 10.9862H14.9041C14.7703 10.9862 14.6604 10.8785 14.6509 10.7417C14.5503 9.29908 14.1612 7.87289 13.4678 6.67442C13.4445 6.63401 13.4813 6.58494 13.525 6.59907C15.3658 7.19454 16.7489 8.83937 16.999 10.845ZM10.6084 12.0143C10.4647 12.0143 10.35 12.138 10.3619 12.2848C10.4866 13.8305 10.9883 15.2994 11.815 16.406C11.9089 16.5317 12.0911 16.5317 12.1851 16.406C13.0118 15.2994 13.5134 13.8305 13.6381 12.2848C13.65 12.138 13.5353 12.0143 13.3916 12.0143H10.6084Z" fill="black"/>
</svg>
