<svg width="24" height="24" viewBox="0 0 24 24" fill="none" xmlns="http://www.w3.org/2000/svg">
<path d="M2 16.6459V4.73852C2 4.38478 2.35726 4.14291 2.6857 4.27428L5.51444 5.40577C6.46808 5.78723 7.53192 5.78723 8.48556 5.40577L10.5144 4.59423C11.4681 4.21277 12.5319 4.21277 13.4856 4.59423L15.5144 5.40577C16.4681 5.78723 17.5319 5.78723 18.4856 5.40577L21.3143 4.27428C21.6427 4.14291 22 4.38478 22 4.73852V16.6459C22 17.4637 21.5021 18.1992 20.7428 18.5029L18.4856 19.4058C17.5319 19.7872 16.4681 19.7872 15.5144 19.4058L13.4856 18.5942C12.5319 18.2128 11.4681 18.2128 10.5144 18.5942L8.48556 19.4058C7.53192 19.7872 6.46808 19.7872 5.51444 19.4058L3.25722 18.5029C2.4979 18.1992 2 17.4637 2 16.6459Z" stroke="black" stroke-width="2" stroke-linecap="round" stroke-linejoin="round"/>
</svg>
