<svg width="24" height="24" viewBox="0 0 24 24" fill="none" xmlns="http://www.w3.org/2000/svg">
<path d="M10.5622 3H18C19.6569 3 21 4.34315 21 6V16M10.5622 3H6C4.34315 3 3 4.34315 3 6V7.90299M10.5622 3L7.5 9.92724M21 16V18C21 19.6569 19.6569 21 18 21H15.7941M21 16L12 11.9515M3 7.90299V18C3 19.6569 4.34315 21 6 21H8M3 7.90299L7.5 9.92724M12 11.9515L7.5 9.92724M12 11.9515L8 21M8 21H15.7941M15.7941 21L18.5 14.8787M16 9C16.8284 9 17.5 8.32841 17.5 7.50002C17.5 6.67161 16.8284 6 16 6C15.1716 6 14.5 6.67157 14.5 7.49998C14.5 8.32841 15.1716 9 16 9ZM16 9V11" stroke="black" stroke-width="2" stroke-linecap="round" stroke-linejoin="round"/>
</svg>
