<svg width="24" height="24" viewBox="0 0 24 24" fill="none" xmlns="http://www.w3.org/2000/svg">
<path d="M10.5622 3H18C19.6569 3 21 4.34315 21 6V16M10.5622 3H6C4.34315 3 3 4.34315 3 6V7.90299M10.5622 3L7.5 9.92724M21 16V18C21 19.6569 19.6569 21 18 21H15.7941M21 16L12 11.9515M3 7.90299V18C3 19.6569 4.34315 21 6 21H8M3 7.90299L7.5 9.92724M12 11.9515L7.5 9.92724M12 11.9515L8 21M8 21H15.7941M15.7941 21L18.5 14.8787M16.2637 10.8822C14.8851 8.97602 14.5 8.43379 14.5 7.40299C14.5 6.352 15.3954 5.5 16.5 5.5C17.6046 5.5 18.5 6.352 18.5 7.40299C18.5 8.43379 18.1149 8.97602 16.7363 10.8822C16.6796 10.9606 16.5886 10.9999 16.499 11C16.4095 10.9999 16.3204 10.9606 16.2637 10.8822Z" stroke="black" stroke-width="2" stroke-linecap="round" stroke-linejoin="round"/>
</svg>
