<svg width="24" height="24" viewBox="0 0 24 24" fill="none" xmlns="http://www.w3.org/2000/svg">
<path d="M7.56588 16.4341V9.33333M7.56588 16.4341L3 21M7.56588 16.4341L14.3407 9.65926M7.56588 9.33333V4M7.56588 9.33333H7.12776C5.67649 9.33333 4.5 8.13943 4.5 6.66667V4M7.56588 9.33333H8.00368C9.45496 9.33333 10.6315 8.13943 10.6315 6.66667V4M16.7631 20V12.2369M14.3407 9.65926C14.0221 9.07456 13.9048 8.36945 14.0735 7.65287L14.5151 5.77702C14.7604 4.73505 15.6782 4 16.7338 4C17.5977 4 18.3701 4.49239 18.7563 5.24371M14.3407 9.65926L18.7563 5.24371M18.7563 5.24371L21 3" stroke="black" stroke-width="2" stroke-linecap="round" stroke-linejoin="round"/>
</svg>
