<svg width="24" height="24" viewBox="0 0 24 24" fill="none" xmlns="http://www.w3.org/2000/svg">
<path fill-rule="evenodd" clip-rule="evenodd" d="M5 3.5C5 3.22386 5.22386 3 5.5 3H17C18.1046 3 19 3.89543 19 5V19C19 20.1046 18.1046 21 17 21H5.5C5.22386 21 5 20.7761 5 20.5V3.5ZM5.5 1C4.11929 1 3 2.11929 3 3.5V20.5C3 21.8807 4.11929 23 5.5 23H17C19.2091 23 21 21.2091 21 19V5C21 2.79086 19.2091 1 17 1H5.5ZM10 4C9.44772 4 9 4.44772 9 5C9 5.55228 9.44772 6 10 6H14C14.5523 6 15 5.55228 15 5C15 4.44772 14.5523 4 14 4H10ZM8 18C7.44772 18 7 18.4477 7 19C7 19.5523 7.44772 20 8 20H16C16.5523 20 17 19.5523 17 19C17 18.4477 16.5523 18 16 18H8ZM12.1666 7.58487C12.082 7.47171 11.918 7.47171 11.8335 7.58487C11.0895 8.58075 10.6379 9.90279 10.5257 11.2939C10.515 11.426 10.6182 11.5373 10.7476 11.5373H13.2524C13.3818 11.5373 13.485 11.426 13.4743 11.2939C13.3621 9.90279 12.9106 8.58075 12.1666 7.58487ZM10.6275 7.58893C10.6669 7.5762 10.7 7.62036 10.6789 7.65673C10.0549 8.73536 9.70474 10.0189 9.61421 11.3173C9.60563 11.4404 9.50673 11.5373 9.38634 11.5373H7.61144C7.5447 11.5373 7.49244 11.4781 7.5009 11.4102C7.72603 9.60519 8.97074 8.12485 10.6275 7.58893ZM7.5009 12.5898C7.49244 12.5219 7.5447 12.4627 7.61144 12.4627H9.38634C9.50673 12.4627 9.60563 12.5596 9.61421 12.6827C9.70474 13.9811 10.0549 15.2646 10.6789 16.3433C10.7 16.3796 10.6669 16.4238 10.6275 16.4111C8.97074 15.8752 7.72603 14.3948 7.5009 12.5898ZM13.3211 16.3433C13.3 16.3796 13.3331 16.4238 13.3725 16.4111C15.0293 15.8752 16.274 14.3948 16.4991 12.5898C16.5076 12.5219 16.4553 12.4627 16.3886 12.4627H14.6137C14.4933 12.4627 14.3944 12.5596 14.3858 12.6827C14.2953 13.9811 13.9451 15.2646 13.3211 16.3433ZM16.4991 11.4102C16.5076 11.4781 16.4553 11.5373 16.3886 11.5373H14.6137C14.4933 11.5373 14.3944 11.4404 14.3858 11.3173C14.2953 10.0189 13.9451 8.73536 13.3211 7.65673C13.3 7.62036 13.3331 7.5762 13.3725 7.58893C15.0293 8.12485 16.274 9.60519 16.4991 11.4102ZM10.7476 12.4627C10.6182 12.4627 10.515 12.574 10.5257 12.7061C10.6379 14.0972 11.0895 15.4192 11.8335 16.4151C11.918 16.5283 12.082 16.5283 12.1666 16.4151C12.9106 15.4192 13.3621 14.0972 13.4743 12.7061C13.485 12.574 13.3818 12.4627 13.2524 12.4627H10.7476Z" fill="black"/>
</svg>
