<svg width="24" height="24" viewBox="0 0 24 24" fill="none" xmlns="http://www.w3.org/2000/svg">
<path fill-rule="evenodd" clip-rule="evenodd" d="M5 3.5C5 3.22386 5.22386 3 5.5 3H17C18.1046 3 19 3.89543 19 5V19C19 20.1046 18.1046 21 17 21H5.5C5.22386 21 5 20.7761 5 20.5V3.5ZM5.5 1C4.11929 1 3 2.11929 3 3.5V20.5C3 21.8807 4.11929 23 5.5 23H17C19.2091 23 21 21.2091 21 19V5C21 2.79086 19.2091 1 17 1H5.5ZM8 15C7.44772 15 7 15.4477 7 16V19C7 19.5523 7.44772 20 8 20H16C16.5523 20 17 19.5523 17 19V16C17 15.4477 16.5523 15 16 15H8ZM9 18V17H15V18H9ZM12.1666 4.58487C12.082 4.47171 11.918 4.47171 11.8335 4.58487C11.0895 5.58075 10.6379 6.90279 10.5257 8.29389C10.515 8.42603 10.6182 8.53733 10.7476 8.53733H13.2524C13.3818 8.53733 13.485 8.42603 13.4743 8.29389C13.3621 6.90279 12.9106 5.58075 12.1666 4.58487ZM10.6275 4.58893C10.6669 4.5762 10.7 4.62036 10.6789 4.65673C10.0549 5.73536 9.70474 7.01893 9.61421 8.31731C9.60563 8.44041 9.50673 8.53733 9.38634 8.53733H7.61144C7.5447 8.53733 7.49244 8.47811 7.5009 8.41024C7.72603 6.60519 8.97074 5.12485 10.6275 4.58893ZM7.5009 9.58976C7.49244 9.52189 7.5447 9.46267 7.61144 9.46267H9.38634C9.50673 9.46267 9.60563 9.55958 9.61421 9.68269C9.70474 10.9811 10.0549 12.2646 10.6789 13.3433C10.7 13.3796 10.6669 13.4238 10.6275 13.4111C8.97074 12.8752 7.72603 11.3948 7.5009 9.58976ZM13.3211 13.3433C13.3 13.3796 13.3331 13.4238 13.3725 13.4111C15.0293 12.8752 16.274 11.3948 16.4991 9.58976C16.5076 9.52189 16.4553 9.46267 16.3886 9.46267H14.6137C14.4933 9.46267 14.3944 9.55958 14.3858 9.68269C14.2953 10.9811 13.9451 12.2646 13.3211 13.3433ZM16.4991 8.41024C16.5076 8.47811 16.4553 8.53733 16.3886 8.53733H14.6137C14.4933 8.53733 14.3944 8.44041 14.3858 8.31731C14.2953 7.01894 13.9451 5.73536 13.3211 4.65673C13.3 4.62036 13.3331 4.5762 13.3725 4.58893C15.0293 5.12485 16.274 6.60519 16.4991 8.41024ZM10.7476 9.46267C10.6182 9.46267 10.515 9.57397 10.5257 9.70611C10.6379 11.0972 11.0895 12.4192 11.8335 13.4151C11.918 13.5283 12.082 13.5283 12.1666 13.4151C12.9106 12.4192 13.3621 11.0972 13.4743 9.70611C13.485 9.57396 13.3818 9.46267 13.2524 9.46267H10.7476Z" fill="black"/>
</svg>
