<svg width="24" height="24" viewBox="0 0 24 24" fill="none" xmlns="http://www.w3.org/2000/svg">
<path d="M13.4286 17.9143L15.9319 18.8155C16.577 19.0477 17 19.6101 17 20.2354C17 20.6577 16.6196 21 16.1504 21H13M13.4286 17.9143L13 21M13.4286 17.9143L14.2136 12M10.5714 17.9143L8.06813 18.8155C7.42301 19.0477 7 19.6101 7 20.2354C7 20.6577 7.38038 21 7.84959 21H11M10.5714 17.9143L11 21M10.5714 17.9143L9.78645 12M11 21H13M14.7485 7.5C14.7529 7.78566 14.7373 8.0666 14.6996 8.33823L14.2136 12M14.7485 7.5C14.7299 6.30233 14.3592 5.02156 13.7889 3.99502C13.4203 3.33167 12.7102 3 12 3C11.2898 3 10.5797 3.33167 10.2111 3.99502C9.64084 5.02156 9.27006 6.30233 9.25152 7.5M14.7485 7.5L19.6169 10.3035C20.4786 10.7998 21 11.6571 21 12.5778V13.1982C21 13.4988 20.679 13.7148 20.3587 13.6299L14.2136 12M9.25152 7.5C9.2471 7.78566 9.26271 8.0666 9.30044 8.33823L9.78645 12M9.25152 7.5L4.38312 10.3035C3.52136 10.7998 3 11.6571 3 12.5778V13.1982C3 13.4988 3.32105 13.7148 3.64134 13.6299L9.78645 12" stroke="black" stroke-width="2" stroke-linecap="round" stroke-linejoin="round"/>
</svg>
