<svg width="24" height="24" viewBox="0 0 24 24" fill="none" xmlns="http://www.w3.org/2000/svg">
<path d="M3 14V13C3 11.8954 3.89543 11 5 11H6M3 14H4C5.10457 14 6 13.1046 6 12V11M3 14V18M6 11H7M18 11H19C20.1046 11 21 11.8954 21 13V14M18 11V12C18 13.1046 18.8954 14 20 14H21M18 11H17M21 14V18M21 18V19C21 20.1046 20.1046 21 19 21H18M21 18H20C18.8954 18 18 18.8954 18 20V21M18 21H6M6 21H5C3.89543 21 3 20.1046 3 19V18M6 21V20C6 18.8954 5.10457 18 4 18H3M10 10H12.5C13.8807 10 15 8.88071 15 7.5V7.5C15 6.11929 13.8807 5 12.5 5H8M8 5L10 3M8 5L10 7M12 18.5V18.5C13.3807 18.5 14.5 17.3807 14.5 16V16C14.5 14.6193 13.3807 13.5 12 13.5V13.5C10.6193 13.5 9.5 14.6193 9.5 16V16C9.5 17.3807 10.6193 18.5 12 18.5Z" stroke="black" stroke-width="2" stroke-linecap="round" stroke-linejoin="round"/>
</svg>
