<svg width="24" height="24" viewBox="0 0 24 24" fill="none" xmlns="http://www.w3.org/2000/svg">
<path d="M6.00009 22H16.4715C18.4202 22 20 20.4202 20 18.4715C20 16.9877 19.0718 15.6625 17.6773 15.1554L10.1613 12.4223C9.46412 12.1688 9 11.5061 9 10.7643C9 9.78989 9.78989 9 10.7643 9H17.4992M6.00009 22C5.91019 22.0001 5.82063 21.9609 5.76373 21.8822C4.3851 19.976 4 19.4338 4 18.403C4 17.352 4.89543 16.5 6 16.5C7.10457 16.5 8 17.352 8 18.403C8 19.4338 7.6149 19.976 6.23627 21.8822C6.17957 21.9606 6.08966 21.9999 6.00009 22ZM17.4992 9C17.3873 8.99976 17.2755 8.94979 17.2047 8.85007C15.4814 6.42403 15 5.73391 15 4.42198C15 3.08436 16.1193 2 17.5 2C18.8807 2 20 3.08436 20 4.42198C20 5.73391 19.5186 6.42403 17.7953 8.85007C17.7242 8.95026 17.6116 9.00024 17.4992 9Z" stroke="black" stroke-width="2" stroke-linecap="round" stroke-linejoin="round"/>
</svg>
