<svg width="24" height="24" viewBox="0 0 24 24" fill="none" xmlns="http://www.w3.org/2000/svg">
<path d="M6.5006 22C6.38823 22.0002 6.27578 21.9502 6.20466 21.8501C4.48138 19.424 4 18.7339 4 17.422C4 16.0844 5.11929 15 6.5 15C7.88071 15 9 16.0844 9 17.422C9 18.7339 8.51862 19.424 6.79534 21.8501C6.72447 21.9498 6.61257 21.9998 6.5006 22ZM6.5006 22H16.4715C18.4202 22 20 20.4202 20 18.4715C20 16.9877 19.0718 15.6625 17.6773 15.1554L10.1613 12.4223C9.46412 12.1688 9 11.5061 9 10.7643C9 9.78989 9.78989 9 10.7643 9H17.4992M17.4992 9C17.3873 8.99976 17.2755 8.94979 17.2047 8.85007C15.4814 6.42403 15 5.73391 15 4.42198C15 3.08436 16.1193 2 17.5 2C18.8807 2 20 3.08436 20 4.42198C20 5.73391 19.5186 6.42403 17.7953 8.85007C17.7242 8.95026 17.6116 9.00024 17.4992 9Z" stroke="black" stroke-width="2" stroke-linecap="round" stroke-linejoin="round"/>
</svg>
