<svg width="24" height="24" viewBox="0 0 24 24" fill="none" xmlns="http://www.w3.org/2000/svg">
<path d="M6.50159 22H6.5C6.38809 21.9998 6.27549 21.9498 6.20466 21.8501C4.48138 19.424 4 18.7339 4 17.422C4 16.0844 5.11929 15 6.5 15C7.88071 15 9 16.0844 9 17.422C9 18.7339 8.51862 19.424 6.79534 21.8501C6.72451 21.9498 6.61349 21.9998 6.50159 22ZM6.50159 22H16.4714C18.4202 22 20 20.2379 20 18.0643C20 16.4094 19.0717 14.9312 17.6773 14.3656L10.1613 11.3172C9.46409 11.0344 8.99997 10.2953 8.99997 9.46783C8.99997 8.38103 9.78985 7.5 10.7642 7.5H17.999M17.999 7.5C17.9095 7.49986 17.8204 7.46059 17.7637 7.38219C16.3851 5.47602 16 4.93379 16 3.90299C16 2.852 16.8954 2 18 2C19.1046 2 20 2.852 20 3.90299C20 4.93379 19.6149 5.47602 18.2363 7.38219C18.1796 7.46059 18.0886 7.49986 17.999 7.5Z" stroke="black" stroke-width="2" stroke-linecap="round" stroke-linejoin="round"/>
</svg>
