<svg width="24" height="24" viewBox="0 0 24 24" fill="none" xmlns="http://www.w3.org/2000/svg">
<path d="M6.25005 19C7.49266 19 8.5 17.9926 8.5 16.75C8.5 15.5074 7.49264 14.5 6.25 14.5C5.00736 14.5 4 15.5074 4 16.75C4 17.9926 5.00738 19 6.25005 19ZM6.25005 19L6.25 22H16.4712C18.4199 22 19.9997 20.481 19.9997 18.6072C19.9997 17.1805 19.0715 15.9062 17.677 15.4186L10.1611 12.7907C9.46383 12.5469 8.99971 11.9098 8.99971 11.1964C8.99971 10.2595 9.7896 9.5 10.764 9.5H17.75V6.5M17.75 6.5C18.9927 6.5 20 5.49261 20 4.25003C20 3.00741 18.9926 2 17.75 2C16.5074 2 15.5 3.00736 15.5 4.24997C15.5 5.49262 16.5074 6.5 17.75 6.5Z" stroke="black" stroke-width="2" stroke-linecap="round" stroke-linejoin="round"/>
</svg>
