<svg width="24" height="24" viewBox="0 0 24 24" fill="none" xmlns="http://www.w3.org/2000/svg">
<path d="M7 22H17M7 12H4V10.5C4 9.67157 4.67157 9 5.5 9V9C6.32843 9 7 9.67157 7 10.5V12ZM7 12V15M7 12V5C7 3.34315 8.34315 2 10 2H14C15.6569 2 17 3.34315 17 5V12M17 12V10.5C17 9.67157 17.6716 9 18.5 9V9C19.3284 9 20 9.67157 20 10.5V12H17ZM17 12V15M7 15V15C5.89543 15 5 15.8954 5 17V18.5C5 18.7761 5.22386 19 5.5 19H18.5C18.7761 19 19 18.7761 19 18.5V17C19 15.8954 18.1046 15 17 15V15M7 15H17" stroke="black" stroke-width="2" stroke-linecap="round" stroke-linejoin="round"/>
</svg>
