<svg width="24" height="24" viewBox="0 0 24 24" fill="none" xmlns="http://www.w3.org/2000/svg">
<path d="M8 7V6C8 4.89543 8.89543 4 10 4H14C15.1046 4 16 4.89543 16 6V7M8 7H6M8 7H9M16 7H19C20.6569 7 22 8.34315 22 10V17C22 18.6569 20.6569 20 19 20H15M16 7H15M6 7H5C3.34315 7 2 8.34315 2 10V11M6 7V8C6 9.65685 4.65685 11 3 11H2M2 11V17C2 18.6569 3.34315 20 5 20H9M18 7V8C18 9.65685 19.3431 11 21 11H22M18 20V19C18 17.3431 19.3431 16 21 16H22M6 20V19C6 17.3431 4.65685 16 3 16H2M9 7V20M9 7H15M9 20H15M15 7V20" stroke="black" stroke-width="2" stroke-linecap="round" stroke-linejoin="round"/>
</svg>
