<svg width="24" height="24" viewBox="0 0 24 24" fill="none" xmlns="http://www.w3.org/2000/svg">
<path d="M2 18.0002H22M4 10L7.14767 12.7981C7.97944 13.5374 9.15216 13.7556 10.1942 13.3649L18.6263 10.2028C19.3751 9.92203 19.7386 9.07359 19.4255 8.33775V8.33775C19.131 7.64593 18.344 7.30869 17.64 7.57269L15.1672 8.5L12.8174 6.64521C12.288 6.2273 11.6331 6 10.9586 6H8.5L11 10.0627L9.73624 10.5366C9.39981 10.6628 9.02156 10.5987 8.74539 10.3689L7.59113 9.40816C6.93765 8.86426 6.01173 8.79296 5.28269 9.23039L4 10Z" stroke="black" stroke-width="2" stroke-linecap="round" stroke-linejoin="round"/>
</svg>
