<svg width="24" height="24" viewBox="0 0 24 24" fill="none" xmlns="http://www.w3.org/2000/svg">
<path d="M9.75 12.0001H13.75M9.75 12.0001L9 10.7502M9.75 12.0001L9 13.25M13.75 12.0001H15.75M13.75 12.0001L12.75 9.50021M13.75 12.0001L12.75 14.5M18.5 6H5.5C5.22386 6 5 6.22386 5 6.5C5 7.88071 3.88071 9 2.5 9C2.22386 9 2 9.22386 2 9.5V14.5C2 14.7761 2.22386 15 2.5 15C3.88071 15 5 16.1193 5 17.5C5 17.7761 5.22386 18 5.5 18H18.5C18.7761 18 19 17.7761 19 17.5C19 16.1193 20.1193 15 21.5 15C21.7761 15 22 14.7761 22 14.5V9.5C22 9.22386 21.7761 9 21.5 9C20.1193 9 19 7.88071 19 6.5C19 6.22386 18.7761 6 18.5 6Z" stroke="black" stroke-width="2" stroke-linecap="round" stroke-linejoin="round"/>
</svg>
