<svg width="24" height="24" viewBox="0 0 24 24" fill="none" xmlns="http://www.w3.org/2000/svg">
<path d="M9.75 12.0001H13.75M9.75 12.0001L9 10.7502M9.75 12.0001L9 13.25M15.75 12.0001H13.75M13.75 12.0001L12.75 9.50021M13.75 12.0001L12.75 14.5M2 9.4999V8C2 6.89543 2.89543 6 4 6H20C21.1046 6 22 6.89543 22 8V9.4999C20.6193 9.4999 19.5 10.6192 19.5 11.9999C19.5 13.3806 20.6193 14.4999 22 14.4999V16C22 17.1046 21.1046 18 20 18H4C2.89543 18 2 17.1046 2 16V14.4999C3.38071 14.4999 4.5 13.3806 4.5 11.9999C4.5 10.6192 3.38071 9.4999 2 9.4999Z" stroke="black" stroke-width="2" stroke-linecap="round" stroke-linejoin="round"/>
</svg>
