<svg width="24" height="24" viewBox="0 0 24 24" fill="none" xmlns="http://www.w3.org/2000/svg">
<path d="M10.5 14.5H9.5V13M10.5 14.5V15.5M10.5 14.5H13.5M13.5 14.5H14.5V13M13.5 14.5V15.5M9.5 13V9.5C9.5 8.94772 9.94772 8.5 10.5 8.5H13.5C14.0523 8.5 14.5 8.94772 14.5 9.5V13M9.5 13H14.5M2 9.4999V7C2 5.89543 2.89543 5 4 5H20C21.1046 5 22 5.89543 22 7V9.4999C20.6193 9.4999 19.5 10.6192 19.5 11.9999C19.5 13.3806 20.6193 14.4999 22 14.4999V17C22 18.1046 21.1046 19 20 19H4C2.89543 19 2 18.1046 2 17V14.4999C3.38071 14.4999 4.5 13.3806 4.5 11.9999C4.5 10.6192 3.38071 9.4999 2 9.4999Z" stroke="black" stroke-width="2" stroke-linecap="round" stroke-linejoin="round"/>
</svg>
