<svg width="24" height="24" viewBox="0 0 24 24" fill="none" xmlns="http://www.w3.org/2000/svg">
<path fill-rule="evenodd" clip-rule="evenodd" d="M3 7.96456C4.53285 7.7453 5.7453 6.53285 5.96456 5H18.0354C18.2547 6.53285 19.4672 7.7453 21 7.96456V16.0354C19.4672 16.2547 18.2547 17.4672 18.0354 19H5.96456C5.7453 17.4672 4.53285 16.2547 3 16.0354V7.96456ZM5.5 3C4.67157 3 4 3.67157 4 4.5C4 5.32843 3.32843 6 2.5 6C1.67157 6 1 6.67157 1 7.5V16.5C1 17.3284 1.67157 18 2.5 18C3.32843 18 4 18.6716 4 19.5C4 20.3284 4.67157 21 5.5 21H18.5C19.3284 21 20 20.3284 20 19.5C20 18.6716 20.6716 18 21.5 18C22.3284 18 23 17.3284 23 16.5V7.5C23 6.67157 22.3284 6 21.5 6C20.6716 6 20 5.32843 20 4.5C20 3.67157 19.3284 3 18.5 3H5.5ZM12.1851 7.0943C12.0911 6.96857 11.9089 6.96857 11.815 7.0943C10.9883 8.20084 10.4866 9.66977 10.3619 11.2154C10.35 11.3623 10.4647 11.4859 10.6084 11.4859H13.3916C13.5353 11.4859 13.65 11.3623 13.6381 11.2154C13.5134 9.66977 13.0118 8.20084 12.1851 7.0943ZM10.475 7.09881C10.5187 7.08467 10.5555 7.13374 10.5322 7.17415C9.83877 8.37263 9.44971 9.79882 9.34912 11.2415C9.33959 11.3782 9.22971 11.4859 9.09593 11.4859H7.12383C7.04967 11.4859 6.9916 11.4201 7.001 11.3447C7.25114 9.3391 8.63416 7.69428 10.475 7.09881ZM7.001 12.6553C6.9916 12.5799 7.04967 12.5141 7.12383 12.5141H9.09593C9.2297 12.5141 9.33959 12.6218 9.34912 12.7585C9.44971 14.2012 9.83877 15.6274 10.5322 16.8259C10.5555 16.8663 10.5187 16.9153 10.475 16.9012C8.63416 16.3057 7.25114 14.6609 7.001 12.6553ZM13.4678 16.8259C13.4445 16.8663 13.4813 16.9153 13.525 16.9012C15.3658 16.3057 16.7489 14.6609 16.999 12.6553C17.0084 12.5799 16.9503 12.5141 16.8762 12.5141H14.9041C14.7703 12.5141 14.6604 12.6218 14.6509 12.7585C14.5503 14.2012 14.1612 15.6274 13.4678 16.8259ZM16.999 11.3447C17.0084 11.4201 16.9503 11.4859 16.8762 11.4859H14.9041C14.7703 11.4859 14.6604 11.3782 14.6509 11.2415C14.5503 9.79882 14.1612 8.37263 13.4678 7.17415C13.4445 7.13374 13.4813 7.08467 13.525 7.09881C15.3658 7.69428 16.7489 9.3391 16.999 11.3447ZM10.6084 12.5141C10.4647 12.5141 10.35 12.6377 10.3619 12.7846C10.4866 14.3302 10.9883 15.7992 11.815 16.9057C11.9089 17.0314 12.0911 17.0314 12.1851 16.9057C13.0118 15.7992 13.5134 14.3302 13.6381 12.7846C13.65 12.6377 13.5353 12.5141 13.3916 12.5141H10.6084Z" fill="black"/>
</svg>
