<svg width="24" height="24" viewBox="0 0 24 24" fill="none" xmlns="http://www.w3.org/2000/svg">
<path d="M10.5 14.5H9.5V13M10.5 14.5V15.5M10.5 14.5H13.5M13.5 14.5H14.5V13M13.5 14.5V15.5M9.5 13V9.5C9.5 8.94772 9.94772 8.5 10.5 8.5H13.5C14.0523 8.5 14.5 8.94772 14.5 9.5V13M9.5 13H14.5M18.5 5H5.5C5.22386 5 5 5.22386 5 5.5C5 6.88071 3.88071 8 2.5 8C2.22386 8 2 8.22386 2 8.5V15.5C2 15.7761 2.22386 16 2.5 16C3.88071 16 5 17.1193 5 18.5C5 18.7761 5.22386 19 5.5 19H18.5C18.7761 19 19 18.7761 19 18.5C19 17.1193 20.1193 16 21.5 16C21.7761 16 22 15.7761 22 15.5V8.5C22 8.22386 21.7761 8 21.5 8C20.1193 8 19 6.88071 19 5.5C19 5.22386 18.7761 5 18.5 5Z" stroke="black" stroke-width="2" stroke-linecap="round" stroke-linejoin="round"/>
</svg>
