<svg width="24" height="24" viewBox="0 0 24 24" fill="none" xmlns="http://www.w3.org/2000/svg">
<path fill-rule="evenodd" clip-rule="evenodd" d="M3 7C3 6.44772 3.44772 6 4 6H20C20.5523 6 21 6.44772 21 7V8.64484C19.5543 9.07511 18.5 10.4144 18.5 11.9999C18.5 13.5854 19.5543 14.9247 21 15.355V17C21 17.5523 20.5523 18 20 18H4C3.44771 18 3 17.5523 3 17V15.355C4.44574 14.9247 5.5 13.5854 5.5 11.9999C5.5 10.4144 4.44574 9.07511 3 8.64484V7ZM4 4C2.34315 4 1 5.34315 1 7V9.4999C1 10.0522 1.44772 10.4999 2 10.4999C2.82843 10.4999 3.5 11.1715 3.5 11.9999C3.5 12.8283 2.82843 13.4999 2 13.4999C1.44772 13.4999 1 13.9476 1 14.4999V17C1 18.6569 2.34315 20 4 20H20C21.6569 20 23 18.6569 23 17V14.4999C23 13.9476 22.5523 13.4999 22 13.4999C21.1716 13.4999 20.5 12.8283 20.5 11.9999C20.5 11.1715 21.1716 10.4999 22 10.4999C22.5523 10.4999 23 10.0522 23 9.4999V7C23 5.34315 21.6569 4 20 4H4ZM9.89977 10.5C9.95499 10.5 9.99977 10.4552 9.99977 10.4V8.5C9.99977 8.22386 10.2236 8 10.4998 8H11.4998C11.7759 8 11.9998 8.22386 11.9998 8.5V10.4C11.9998 10.4552 12.0445 10.5 12.0998 10.5H13.4998C13.7759 10.5 13.9998 10.7239 13.9998 11V11.9999L17.4998 11.9999C17.7058 11.9999 17.8234 12.2351 17.6998 12.3999L16.1997 14.3999C15.4443 15.4071 14.2588 15.9999 12.9998 15.9999L9.28057 16C8.36282 16 7.56284 15.3754 7.34025 14.4851L6.79665 12.3106C6.7572 12.1529 6.87654 12 7.03918 12L7.99976 12V11C7.99976 10.7239 8.22362 10.5 8.49976 10.5H9.89977Z" fill="black"/>
</svg>
