<svg width="24" height="24" viewBox="0 0 24 24" fill="none" xmlns="http://www.w3.org/2000/svg">
<path fill-rule="evenodd" clip-rule="evenodd" d="M3 8.96456C4.53285 8.7453 5.7453 7.53285 5.96456 6H18.0354C18.2547 7.53285 19.4672 8.7453 21 8.96456V15.0354C19.4672 15.2547 18.2547 16.4672 18.0354 18H5.96456C5.7453 16.4672 4.53285 15.2547 3 15.0354V8.96456ZM5.5 4C4.67157 4 4 4.67157 4 5.5C4 6.32843 3.32843 7 2.5 7C1.67157 7 1 7.67157 1 8.5V15.5C1 16.3284 1.67157 17 2.5 17C3.32843 17 4 17.6716 4 18.5C4 19.3284 4.67157 20 5.5 20H18.5C19.3284 20 20 19.3284 20 18.5C20 17.6716 20.6716 17 21.5 17C22.3284 17 23 16.3284 23 15.5V8.5C23 7.67157 22.3284 7 21.5 7C20.6716 7 20 6.32843 20 5.5C20 4.67157 19.3284 4 18.5 4H5.5ZM9.89977 10.5C9.95499 10.5 9.99977 10.4552 9.99977 10.4V8.5C9.99977 8.22386 10.2236 8 10.4998 8H11.4998C11.7759 8 11.9998 8.22386 11.9998 8.5V10.4C11.9998 10.4552 12.0445 10.5 12.0998 10.5H13.4998C13.7759 10.5 13.9998 10.7239 13.9998 11V11.9999L17.4998 11.9999C17.7058 11.9999 17.8234 12.2351 17.6998 12.3999L16.1997 14.3999C15.4443 15.4071 14.2588 15.9999 12.9998 15.9999L9.28057 16C8.36282 16 7.56284 15.3754 7.34025 14.4851L6.79665 12.3106C6.7572 12.1529 6.87654 12 7.03918 12L7.99976 12V11C7.99976 10.7239 8.22362 10.5 8.49976 10.5H9.89977Z" fill="black"/>
</svg>
