<svg width="24" height="24" viewBox="0 0 24 24" fill="none" xmlns="http://www.w3.org/2000/svg">
<path fill-rule="evenodd" clip-rule="evenodd" d="M10 2C10 1.44772 9.55228 1 9 1C8.44772 1 8 1.44772 8 2V4H6C4.34315 4 3 5.34315 3 7V10C3 11.6569 4.34315 13 6 13H8V14H6C4.34315 14 3 15.3431 3 17V20C3 21.6569 4.34315 23 6 23H18C19.6569 23 21 21.6569 21 20V17C21 15.3431 19.6569 14 18 14H16V13H18C19.6569 13 21 11.6569 21 10V7C21 5.34315 19.6569 4 18 4H16V2C16 1.44772 15.5523 1 15 1C14.4477 1 14 1.44772 14 2V4H10V2ZM10 14V13H14V14H10ZM5 7C5 6.44772 5.44772 6 6 6H9H15H18C18.5523 6 19 6.44772 19 7V10C19 10.5523 18.5523 11 18 11H15H9H6C5.44772 11 5 10.5523 5 10V7ZM5 17C5 16.4477 5.44772 16 6 16H9H15H18C18.5523 16 19 16.4477 19 17V20C19 20.5523 18.5523 21 18 21H6C5.44772 21 5 20.5523 5 20V17ZM16.8536 6.64645C16.6583 6.45118 16.3417 6.45118 16.1464 6.64645C15.9512 6.84171 15.9512 7.15829 16.1464 7.35355L16.7929 8H14C13.7239 8 13.5 8.22386 13.5 8.5C13.5 8.77614 13.7239 9 14 9H16.7929L16.1464 9.64645C15.9512 9.84171 15.9512 10.1583 16.1464 10.3536C16.3417 10.5488 16.6583 10.5488 16.8536 10.3536L18.3536 8.85355C18.5488 8.65829 18.5488 8.34171 18.3536 8.14645L16.8536 6.64645ZM6.5 7C6.22386 7 6 7.22386 6 7.5C6 7.77614 6.22386 8 6.5 8H9.5C9.77614 8 10 7.77614 10 7.5C10 7.22386 9.77614 7 9.5 7H6.5ZM6.5 9C6.22386 9 6 9.22386 6 9.5C6 9.77614 6.22386 10 6.5 10H11.5C11.7761 10 12 9.77614 12 9.5C12 9.22386 11.7761 9 11.5 9H6.5ZM7.70711 18L8.35355 17.3536C8.54882 17.1583 8.54882 16.8417 8.35355 16.6464C8.15829 16.4512 7.84171 16.4512 7.64645 16.6464L6.14645 18.1464C5.95118 18.3417 5.95118 18.6583 6.14645 18.8536L7.64645 20.3536C7.84171 20.5488 8.15829 20.5488 8.35355 20.3536C8.54882 20.1583 8.54882 19.8417 8.35355 19.6464L7.70711 19H10.5C10.7761 19 11 18.7761 11 18.5C11 18.2239 10.7761 18 10.5 18H7.70711ZM15 17C14.7239 17 14.5 17.2239 14.5 17.5C14.5 17.7761 14.7239 18 15 18H18C18.2761 18 18.5 17.7761 18.5 17.5C18.5 17.2239 18.2761 17 18 17H15ZM13 19C12.7239 19 12.5 19.2239 12.5 19.5C12.5 19.7761 12.7239 20 13 20H18C18.2761 20 18.5 19.7761 18.5 19.5C18.5 19.2239 18.2761 19 18 19H13Z" fill="black"/>
</svg>
