<svg width="24" height="24" viewBox="0 0 24 24" fill="none" xmlns="http://www.w3.org/2000/svg">
<path d="M11 2H18C19.1046 2 20 2.89543 20 4V14C20 15.1046 19.1046 16 18 16H15M11 2C9.89543 2 9 2.89543 9 4V8M11 2C10.262 2 9.89233 2.89233 10.4142 3.41421L14.1213 7.12132C14.6839 7.68393 15 8.44699 15 9.24264V10M9 8H13C14.1046 8 15 8.89543 15 10M9 8H6C4.89543 8 4 8.89543 4 10V20C4 21.1046 4.89543 22 6 22H13C14.1046 22 15 21.1046 15 20V16M15 16V10M9.20466 18.3501C7.48138 15.924 7 15.2339 7 13.922C7 12.5844 8.11929 11.5 9.5 11.5C10.8807 11.5 12 12.5844 12 13.922C12 15.2339 11.5186 15.924 9.79534 18.3501C9.65334 18.55 9.34666 18.55 9.20466 18.3501Z" stroke="black" stroke-width="2" stroke-linecap="round" stroke-linejoin="round"/>
</svg>
