<svg width="24" height="24" viewBox="0 0 24 24" fill="none" xmlns="http://www.w3.org/2000/svg">
<path fill-rule="evenodd" clip-rule="evenodd" d="M12 2C10.3431 2 9 3.34315 9 5V5.29547L4.65954 6.50118C3.08786 6.93777 2.00013 8.36873 2 9.99992V10V19C2 20.6569 3.34315 22 5 22H12C13.6569 22 15 20.6569 15 19V18.7045L19.8029 17.3704C21.1014 17.0097 22 15.8275 22 14.4798L22 5.06396C22 5.05326 21.9998 5.0426 21.9995 5.03198C21.9998 5.02136 22 5.0107 22 5C22 3.50377 20.9055 2.2647 19.4731 2.03724C19.3713 2.01201 19.2682 2 19.1659 2H19H12ZM4 10.0001V10C4 9.44772 4.44772 9 5 9H12C12.5523 9 13 9.44771 13 10V17.9444V19C13 19.5523 12.5523 20 12 20H5C4.44771 20 4 19.5523 4 19V10.0001ZM12 7H10.3363L19.5005 4.4544C19.5945 4.42829 19.6813 4.39337 19.761 4.35116C19.91 4.52594 20 4.75265 20 5C20 5.0107 20.0002 5.02136 20.0005 5.03198C20.0002 5.0426 20 5.05326 20 5.06396L20 14.4798C20 14.929 19.7005 15.3231 19.2676 15.4433L15 16.6288V10C15 8.34314 13.6569 7 12 7ZM11.037 4.72964L13.6637 4H12C11.5414 4 11.1549 4.3087 11.037 4.72964ZM8.61105 11.5566C8.55469 11.4811 8.44535 11.4811 8.38899 11.5566C7.89298 12.2205 7.59194 13.1019 7.51713 14.0293C7.51002 14.1174 7.57881 14.1916 7.66503 14.1916H9.33497C9.42119 14.1916 9.48998 14.1174 9.48287 14.0293C9.40806 13.1019 9.10706 12.2205 8.61105 11.5566ZM7.58502 11.5593C7.61124 11.5508 7.63332 11.5802 7.61929 11.6045C7.20326 12.3236 6.96982 13.1793 6.90947 14.0449C6.90375 14.1269 6.83782 14.1916 6.75756 14.1916H5.5743C5.5298 14.1916 5.49496 14.1521 5.5006 14.1068C5.65069 12.9035 6.48049 11.9166 7.58502 11.5593ZM5.5006 14.8932C5.49496 14.8479 5.5298 14.8084 5.5743 14.8084H6.75756C6.83782 14.8084 6.90375 14.8731 6.90947 14.9551C6.96982 15.8207 7.20326 16.6764 7.61929 17.3955C7.63332 17.4198 7.61125 17.4492 7.58502 17.4407C6.48049 17.0834 5.65068 16.0965 5.5006 14.8932ZM9.38071 17.3955C9.36668 17.4198 9.38875 17.4492 9.41498 17.4407C10.5195 17.0834 11.3493 16.0965 11.4994 14.8932C11.505 14.8479 11.4702 14.8084 11.4257 14.8084H10.2424C10.1622 14.8084 10.0962 14.8731 10.0905 14.9551C10.0302 15.8207 9.79674 16.6764 9.38071 17.3955ZM11.4994 14.1068C11.505 14.1521 11.4702 14.1916 11.4257 14.1916H10.2424C10.1622 14.1916 10.0962 14.1269 10.0905 14.0449C10.0302 13.1793 9.79674 12.3236 9.38071 11.6045C9.36668 11.5802 9.38876 11.5508 9.41498 11.5593C10.5195 11.9166 11.3493 12.9035 11.4994 14.1068ZM7.66503 14.8084C7.57881 14.8084 7.51002 14.8826 7.51713 14.9707C7.59194 15.8981 7.89298 16.7795 8.38899 17.4434C8.44535 17.5189 8.55469 17.5189 8.61105 17.4434C9.10706 16.7795 9.40806 15.8981 9.48287 14.9707C9.48998 14.8826 9.42119 14.8084 9.33497 14.8084H7.66503Z" fill="black"/>
</svg>
