<svg width="24" height="24" viewBox="0 0 24 24" fill="none" xmlns="http://www.w3.org/2000/svg">
<path fill-rule="evenodd" clip-rule="evenodd" d="M15.3503 3.02594C15.6327 2.92903 16 3.13485 16 3.54565V4.52182H10.9929L15.3503 3.02594ZM18 3.54565V4.69495C19.1772 5.1182 20 6.2673 20 7.58155V19.9399C20 21.6018 18.6844 22.9997 17 22.9997H7C5.31561 22.9997 4 21.6018 4 19.9399V7.58155C4 5.93989 5.02108 4.4573 6.57268 3.92465L14.701 1.1343C16.3613 0.564344 18 1.84761 18 3.54565ZM6 19.9399V7.58155C6 6.96833 6.47525 6.52182 7 6.52182H17C17.5247 6.52182 18 6.96833 18 7.58155V19.9399C18 20.5532 17.5247 20.9997 17 20.9997H7C6.47525 20.9997 6 20.5532 6 19.9399ZM12.1481 9.82511C12.0729 9.72452 11.9271 9.72452 11.852 9.82511C11.1906 10.7103 10.7893 11.8855 10.6895 13.122C10.68 13.2395 10.7717 13.3384 10.8867 13.3384H13.1133C13.2283 13.3384 13.32 13.2395 13.3105 13.122C13.2107 11.8855 12.8094 10.7103 12.1481 9.82511ZM10.78 9.82871C10.815 9.8174 10.8444 9.85665 10.8257 9.88898C10.271 10.8478 9.95977 11.9887 9.8793 13.1428C9.87167 13.2523 9.78376 13.3384 9.67675 13.3384H8.09906C8.03973 13.3384 7.99328 13.2858 8.0008 13.2254C8.20091 11.6209 9.30733 10.3051 10.78 9.82871ZM8.0008 14.2739C7.99328 14.2136 8.03973 14.1609 8.09906 14.1609H9.67675C9.78376 14.1609 9.87167 14.2471 9.8793 14.3565C9.95977 15.5106 10.271 16.6516 10.8257 17.6103C10.8444 17.6427 10.815 17.6819 10.78 17.6706C9.30732 17.1942 8.20091 15.8784 8.0008 14.2739ZM13.1743 17.6103C13.1556 17.6427 13.185 17.6819 13.22 17.6706C14.6927 17.1942 15.7991 15.8784 15.9992 14.2739C16.0067 14.2136 15.9603 14.1609 15.9009 14.1609H14.3233C14.2162 14.1609 14.1283 14.2471 14.1207 14.3565C14.0402 15.5106 13.729 16.6516 13.1743 17.6103ZM15.9992 13.2254C16.0067 13.2858 15.9603 13.3384 15.9009 13.3384H14.3233C14.2162 13.3384 14.1283 13.2523 14.1207 13.1428C14.0402 11.9887 13.729 10.8478 13.1743 9.88898C13.1556 9.85666 13.185 9.8174 13.22 9.82871C14.6927 10.3051 15.7991 11.6209 15.9992 13.2254ZM10.8867 14.1609C10.7717 14.1609 10.68 14.2599 10.6895 14.3773C10.7893 15.6138 11.1906 16.789 11.852 17.6742C11.9271 17.7748 12.0729 17.7748 12.1481 17.6742C12.8094 16.789 13.2107 15.6138 13.3105 14.3773C13.32 14.2599 13.2283 14.1609 13.1133 14.1609H10.8867Z" fill="black"/>
</svg>
