<svg width="24" height="24" viewBox="0 0 24 24" fill="none" xmlns="http://www.w3.org/2000/svg">
<path d="M5 7.58188V19.9403C5 21.0778 5.89543 22 7 22H17C18.1046 22 19 21.0778 19 19.9403V7.58188C19 6.44432 18.1046 5.52215 17 5.52215M5 7.58188C5 6.44432 5.89543 5.52215 7 5.52215H17M5 7.58188C5 6.35183 5.76428 5.25978 6.89737 4.87081L15.0257 2.08046C15.997 1.74702 17 2.49157 17 3.54598V5.52215M11.9999 16.25V12.25M11.9999 16.25L10.75 17M11.9999 16.25L13.2498 17M11.9999 12.25L11.9999 10M11.9999 12.25L9.5 13.25M11.9999 12.25L14.4998 13.25" stroke="black" stroke-width="2" stroke-linecap="round" stroke-linejoin="round"/>
</svg>
