<svg width="24" height="24" viewBox="0 0 24 24" fill="none" xmlns="http://www.w3.org/2000/svg">
<path d="M7.82316 2.91141C9.09421 2.32631 10.509 2 12 2C13.684 2 15.2708 2.41626 16.6631 3.15149M7.82316 2.91141C4.38607 4.49361 2 7.96816 2 12C2 14.2514 2.74447 16.3286 4 18M7.82316 2.91141L9.25078 4.93698C9.69746 5.57074 9.6849 6.42013 9.21969 7.04041L8.99948 7.33402C8.68165 7.75779 8.55938 8.29688 8.66326 8.81631C8.85348 9.76742 8.28166 10.7052 7.34903 10.9717L7.07474 11.0501C6.14263 11.3164 5.5 12.1683 5.5 13.1378V13.8197C5.5 14.5959 5.31927 15.3615 4.97214 16.0557L4 18M12 22C8.72852 22 5.82443 20.4287 4 18M12 22L11.6425 19.1397C11.5526 18.4206 11.7997 17.7003 12.3122 17.1878C12.7526 16.7474 13.3499 16.5 13.9727 16.5H14.3512C15.388 16.5 16.363 16.9928 16.9778 17.8275L18.3661 19.7123M12 22C14.4186 22 16.6367 21.1414 18.3661 19.7123M18.3661 19.7123C20.5856 17.8781 22 15.1042 22 12C22 10.7687 21.7775 9.58934 21.3704 8.5M21.3704 8.5L20.0161 10.214C19.365 11.0381 18.4159 11.573 17.3737 11.7033L17.0327 11.7459C15.9533 11.8808 15 11.0392 15 9.95151C15 9.33557 15.2096 8.73797 15.5944 8.25699L15.7251 8.09356C16.5423 7.07209 16.9267 5.77105 16.7957 4.4695L16.6631 3.15149M21.3704 8.5C20.5084 6.19315 18.8189 4.28993 16.6631 3.15149" stroke="black" stroke-width="2" stroke-linecap="round" stroke-linejoin="round"/>
</svg>
