<svg width="24" height="24" viewBox="0 0 24 24" fill="none" xmlns="http://www.w3.org/2000/svg">
<path d="M2.04035 11.0727C2.16916 9.67936 2.59396 8.29096 3.33946 6.99971C4.18146 5.54133 5.33534 4.37526 6.66821 3.53713M2.04035 11.0727C1.69202 14.8404 3.50804 18.644 6.99972 20.66C8.94946 21.7857 11.1206 22.1796 13.1959 21.9279M2.04035 11.0727L4.50835 10.8491C5.28054 10.7791 6.00986 11.2147 6.31443 11.9277L6.4586 12.2653C6.66668 12.7524 7.07241 13.1278 7.57419 13.2976C8.49299 13.6084 9.01925 14.5725 8.7837 15.5134L8.71443 15.7902C8.47901 16.7305 8.89551 17.7131 9.73504 18.1978L10.3256 18.5387C10.9978 18.9268 11.5705 19.4661 11.9981 20.1139L13.1959 21.9279M20.66 16.9997C19.0242 19.8329 16.2114 21.5623 13.1959 21.9279M20.66 16.9997L18.0041 15.8792C17.3364 15.5975 16.8362 15.0233 16.6486 14.3233C16.4874 13.7217 16.5718 13.0807 16.8832 12.5413L17.0725 12.2135C17.5908 11.3156 18.5051 10.7177 19.5354 10.6026L21.8618 10.3427M20.66 16.9997C21.8693 14.9051 22.2347 12.5549 21.8618 10.3427M17.075 3.38335C17.05 3.36863 17.0249 3.354 16.9997 3.33946C15.9334 2.7238 14.8007 2.32686 13.6538 2.13472M17.075 3.38335C17.3126 2.58494 18.0843 2 18.9995 2C20.1041 2 20.9995 2.852 20.9995 3.90299C20.9995 4.66848 20.7871 5.16454 20.1132 6.14985M17.075 3.38335C17.0258 3.54852 16.9995 3.72283 16.9995 3.90299C16.9995 4.93379 17.3846 5.47602 18.7632 7.38219C18.8199 7.46059 18.909 7.49986 18.9985 7.5C19.0881 7.49986 19.1791 7.46059 19.2358 7.38219C19.5906 6.89159 19.8796 6.49134 20.1132 6.14985M20.1132 6.14985C21.0146 7.40157 21.6085 8.84028 21.8618 10.3427M13.6538 2.13472L14.4611 4.16459C14.8492 5.14051 14.8379 6.22993 14.4296 7.1976L14.296 7.51425C13.8732 8.51644 12.6677 8.92126 11.7257 8.37739C11.1923 8.06942 10.7795 7.58908 10.5554 7.01537L10.4792 6.82042C10.0032 5.60199 9.06861 4.61863 7.87595 4.08128L6.66821 3.53713M13.6538 2.13472C11.225 1.72783 8.73204 2.23936 6.66821 3.53713" stroke="black" stroke-width="2" stroke-linecap="round" stroke-linejoin="round"/>
</svg>
