<svg width="24" height="24" viewBox="0 0 24 24" fill="none" xmlns="http://www.w3.org/2000/svg">
<path d="M8.65853 4.72913C9.67537 4.26105 10.8072 4 12 4C12.7565 4 13.4885 4.105 14.1821 4.30122M8.65853 4.72913C5.90886 5.99489 4 8.77453 4 12C4 12.7565 4.10506 13.4884 4.30134 14.1819M8.65853 4.72913L9.80062 6.34958C10.158 6.85659 10.1479 7.53611 9.77575 8.03233L9.59959 8.26722C9.34532 8.60624 9.2475 9.0375 9.33061 9.45305C9.48279 10.2139 9.02533 10.9642 8.27922 11.1774L8.05979 11.2401C7.31411 11.4531 6.8 12.1347 6.8 12.9102V13.4557C6.8 14.0767 6.65542 14.6892 6.37771 15.2446L5.6 16.8M12 20C9.38282 20 7.05954 18.743 5.6 16.8M12 20L11.714 17.7118C11.6421 17.1365 11.8398 16.5602 12.2497 16.1503C12.6021 15.7979 13.0799 15.6 13.5782 15.6H13.881C14.7104 15.6 15.4904 15.9942 15.9823 16.662L17.0929 18.1698M12 20C13.9349 20 15.7094 19.3131 17.0929 18.1698M5.6 16.8C5.01743 16.0245 4.5724 15.1397 4.30134 14.1819M17.0929 18.1698C18.8685 16.7025 20 14.4834 20 12C20 11.0149 19.822 10.0715 19.4963 9.2M19.4963 9.2L18.4129 10.5712C17.892 11.2305 17.1327 11.6584 16.299 11.7626L16.0261 11.7967C15.1627 11.9047 14.4 11.2314 14.4 10.3612C14.4 9.86846 14.5677 9.39037 14.8755 9.0056L14.9801 8.87485C15.6339 8.05767 15.9413 7.01684 15.8365 5.9756L15.7304 4.92119M19.4963 9.2C18.8067 7.35452 17.4551 5.83195 15.7304 4.92119M15.7304 4.92119C15.2421 4.66329 14.7238 4.45445 14.1821 4.30122M14.1821 4.30122C17.4618 2.15886 20.2928 1.37318 21.4598 2.5402C23.2458 4.32621 20.4584 10.0093 15.2338 15.2338C10.0093 20.4584 4.32621 23.2458 2.5402 21.4598C1.37316 20.2928 2.15889 17.4617 4.30134 14.1819" stroke="black" stroke-width="2" stroke-linecap="round" stroke-linejoin="round"/>
</svg>
