<svg width="24" height="24" viewBox="0 0 24 24" fill="none" xmlns="http://www.w3.org/2000/svg">
<path fill-rule="evenodd" clip-rule="evenodd" d="M12 1C10.8683 1 9.96602 1.70708 9.31488 2.57799C8.8045 3.26063 8.37551 4.13336 8.03136 5.12604C6.99959 4.92774 6.0293 4.8629 5.18292 4.96358C4.10312 5.09202 3.03965 5.51986 2.47376 6.5C1.90789 7.48013 2.0691 8.61503 2.49774 9.61437C2.83373 10.3977 3.37502 11.2056 4.06263 11.9999C3.37506 12.7943 2.83379 13.6021 2.49782 14.3854C2.06919 15.3848 1.90799 16.5197 2.47386 17.4998C3.03973 18.4799 4.10318 18.9077 5.18295 19.0362C6.0293 19.1369 6.99956 19.072 8.03129 18.8738C8.37544 19.8665 8.80444 20.7393 9.31483 21.4219C9.96598 22.2929 10.8682 23 12 23C13.1318 23 14.0341 22.2929 14.6852 21.422C15.1956 20.7394 15.6246 19.8666 15.9687 18.874C17.0005 19.0723 17.9708 19.1371 18.8172 19.0364C19.897 18.908 20.9604 18.4801 21.5263 17.5C22.0922 16.5199 21.931 15.3849 21.5023 14.3856C21.1663 13.6022 20.625 12.7943 19.9373 11.9999C20.625 11.2055 21.1664 10.3976 21.5024 9.61426C21.9311 8.61488 22.0923 7.47993 21.5264 6.49976C20.9605 5.51961 19.897 5.09177 18.8172 4.96334C17.9708 4.86266 17.0005 4.92752 15.9687 5.12584C15.6245 4.13321 15.1955 3.26053 14.6852 2.57792C14.034 1.70704 13.1318 1 12 1ZM5.41916 6.94958C5.97618 6.88332 6.6789 6.91548 7.49698 7.06106C7.35147 7.73764 7.23554 8.45434 7.15238 9.20101C6.54723 9.64643 5.98444 10.1053 5.47119 10.5696C4.93611 9.93395 4.55691 9.34149 4.3358 8.82598C4.02521 8.10189 4.09041 7.69988 4.20581 7.5C4.32122 7.30011 4.63677 7.04264 5.41916 6.94958ZM8.67902 10.5657C8.01504 11.0351 7.40963 11.5176 6.87161 11.9999C7.40963 12.4823 8.01503 12.9647 8.679 13.4341C8.91782 13.6029 9.07076 13.8678 9.09756 14.1591C9.17204 14.9686 9.28714 15.7341 9.43583 16.4411C10.1225 16.2164 10.8429 15.9333 11.5813 15.5931C11.8469 15.4706 12.1528 15.4707 12.4184 15.5931C13.1569 15.9334 13.8775 16.2165 14.5642 16.4413C14.7129 15.7341 14.8281 14.9686 14.9025 14.1589C14.9293 13.8677 15.0823 13.6027 15.3211 13.4339C15.985 12.9646 16.5903 12.4822 17.1283 11.9999C16.5903 11.5176 15.985 11.0352 15.3211 10.5659C15.0823 10.3971 14.9293 10.1322 14.9025 9.84094C14.828 9.03122 14.7129 8.26566 14.5642 7.55853C13.8774 7.78331 13.1569 8.06639 12.4184 8.40674C12.1528 8.52916 11.8469 8.52916 11.5813 8.40675C10.8429 8.06648 10.1225 7.78346 9.43587 7.55872C9.28717 8.26575 9.17206 9.03119 9.09757 9.84077C9.07078 10.132 8.91783 10.3969 8.67902 10.5657ZM4.33588 15.1738C4.55698 14.6583 4.93615 14.0659 5.47121 13.4302C5.98445 13.8946 6.54723 14.3534 7.15236 14.7988C7.23552 15.5455 7.35144 16.2622 7.49693 16.9387C6.67889 17.0843 5.97621 17.1164 5.41921 17.0502C4.63686 16.9571 4.32131 16.6996 4.20591 16.4998C4.09051 16.2999 4.02531 15.8979 4.33588 15.1738ZM10.9167 20.2244C10.5807 19.7751 10.2572 19.1504 9.97426 18.3691C10.633 18.1568 11.3116 17.8988 11.9998 17.5975C12.6882 17.8989 13.3669 18.1569 14.0258 18.3692C13.7428 19.1505 13.4193 19.7752 13.0834 20.2244C12.6116 20.8555 12.2309 21 12 21C11.7692 21 11.3885 20.8554 10.9167 20.2244ZM18.5809 17.0504C18.0239 17.1167 17.3212 17.0845 16.5031 16.9389C16.6486 16.2622 16.7646 15.5454 16.8477 14.7986C17.4528 14.3533 18.0155 13.8945 18.5287 13.4302C19.0639 14.0659 19.4431 14.6584 19.6643 15.174C19.9749 15.8981 19.9097 16.3001 19.7943 16.5C19.6789 16.6999 19.3633 16.9574 18.5809 17.0504ZM19.6644 8.82583C19.4432 9.34139 19.0639 9.93392 18.5288 10.5697C18.0156 10.1053 17.4528 9.64657 16.8477 9.20119C16.7646 8.45438 16.6486 7.73755 16.5031 7.06085C17.3212 6.91526 18.0239 6.88308 18.581 6.94934C19.3634 7.0424 19.679 7.29988 19.7944 7.49977C19.9098 7.69966 19.975 8.10169 19.6644 8.82583ZM13.0834 3.77553C13.4192 4.22477 13.7427 4.84937 14.0257 5.63058C13.3669 5.8429 12.6882 6.1009 11.9998 6.40229C11.3116 6.10098 10.633 5.84304 9.97432 5.63076C10.2573 4.8495 10.5808 4.22484 10.9167 3.77558C11.3885 3.14454 11.7692 3 12 3C12.2308 3 12.6116 3.14453 13.0834 3.77553ZM12 13.5C12.8284 13.5 13.5 12.8284 13.5 12C13.5 11.1716 12.8284 10.5 12 10.5C11.1716 10.5 10.5 11.1716 10.5 12C10.5 12.8284 11.1716 13.5 12 13.5Z" fill="black"/>
</svg>
