<svg width="24" height="24" viewBox="0 0 24 24" fill="none" xmlns="http://www.w3.org/2000/svg">
<path fill-rule="evenodd" clip-rule="evenodd" d="M4.50176 4.50142C5.0698 3.93338 6.36528 3.72936 8.45414 4.52168C9.00727 4.73149 9.58785 5.00228 10.1849 5.33087C9.30826 6.00134 8.43902 6.76139 7.60033 7.60008C6.76167 8.43874 6.00165 9.30794 5.3312 10.1845C5.00262 9.5875 4.73182 9.00692 4.52202 8.4538C3.72969 6.36494 3.93372 5.06946 4.50176 4.50142ZM9.16345 2.65168C10.0776 2.99844 11.0335 3.47812 11.9998 4.07604C12.9662 3.47812 13.922 2.99844 14.8362 2.65168C17.0534 1.81067 19.4409 1.61602 20.9121 3.08721C22.3833 4.55839 22.1887 6.94589 21.3476 9.16311C21.0009 10.0773 20.5212 11.0331 19.9233 11.9995C20.5213 12.9659 21.001 13.9217 21.3477 14.836C22.1887 17.0532 22.3834 19.4407 20.9122 20.9119C19.441 22.3831 17.0535 22.1884 14.8363 21.3474C13.9221 21.0006 12.9662 20.5209 11.9998 19.923C11.0334 20.5209 10.0776 21.0006 9.16335 21.3474C6.94613 22.1884 4.55864 22.3831 3.08745 20.9119C1.61627 19.4407 1.81091 17.0532 2.65193 14.836C2.9987 13.9217 3.47841 12.9659 4.07636 11.9995C3.47845 11.0331 2.99878 10.0773 2.65202 9.16311C1.81101 6.94589 1.61636 4.55839 3.08755 3.08721C4.55873 1.61602 6.94623 1.81067 9.16345 2.65168ZM9.01454 9.01429C9.99315 8.03569 11.0036 7.18537 11.9998 6.47668C12.9961 7.18537 14.0065 8.03569 14.9851 9.01429C15.9637 9.99286 16.814 11.0033 17.5227 11.9995C16.814 12.9957 15.9636 14.0062 14.985 14.9848C14.0065 15.9634 12.996 16.8136 11.9998 17.5223C11.0036 16.8136 9.99321 15.9634 9.01463 14.9848C8.03602 14.0062 7.1857 12.9957 6.477 11.9995C7.18568 11.0033 8.03597 9.99286 9.01454 9.01429ZM16.3993 7.60008C17.238 8.43874 17.998 9.30794 18.6685 10.1845C18.997 9.5875 19.2678 9.00692 19.4776 8.4538C20.27 6.36494 20.0659 5.06946 19.4979 4.50142C18.9299 3.93338 17.6344 3.72936 15.5455 4.52168C14.9924 4.73149 14.4118 5.00228 13.8148 5.33087C14.6914 6.00134 15.5606 6.76139 16.3993 7.60008ZM16.3992 16.399C17.2379 15.5603 17.998 14.691 18.6685 13.8144C18.9971 14.4115 19.2679 14.9921 19.4777 15.5453C20.2701 17.6341 20.066 18.9296 19.498 19.4977C18.93 20.0657 17.6345 20.2697 15.5456 19.4774C14.9925 19.2676 14.4118 18.9968 13.8148 18.6681C14.6914 17.9977 15.5606 17.2377 16.3992 16.399ZM7.60042 16.399C8.43909 17.2377 9.3083 17.9977 10.1849 18.6681C9.58782 18.9968 9.00721 19.2676 8.45405 19.4774C6.36519 20.2697 5.06971 20.0657 4.50166 19.4977C3.93362 18.9296 3.7296 17.6341 4.52192 15.5453C4.73175 14.9921 5.00256 14.4115 5.33119 13.8144C6.00166 14.691 6.76171 15.5603 7.60042 16.399ZM12 13.5C12.8284 13.5 13.5 12.8284 13.5 12C13.5 11.1716 12.8284 10.5 12 10.5C11.1716 10.5 10.5 11.1716 10.5 12C10.5 12.8284 11.1716 13.5 12 13.5Z" fill="black"/>
</svg>
