<svg width="24" height="24" viewBox="0 0 24 24" fill="none" xmlns="http://www.w3.org/2000/svg">
<path d="M18.364 18.364C14.8492 21.8787 9.15076 21.8787 5.63604 18.364M18.364 18.364C21.8787 14.8492 21.8787 9.15076 18.364 5.63604M18.364 18.364L14.8284 14.8284M18.364 18.364L19.0711 19.0711M5.63604 18.364C2.12132 14.8492 2.12132 9.15076 5.63604 5.63604M5.63604 18.364L9.17157 14.8284M5.63604 18.364L4.92893 19.0711M18.364 5.63604C14.8492 2.12132 9.15076 2.12132 5.63604 5.63604M18.364 5.63604L14.8284 9.17157M18.364 5.63604L19.0711 4.92893M5.63604 5.63604L9.17157 9.17157M5.63604 5.63604L4.92893 4.92893M14.8284 14.8284C13.2663 16.3905 10.7337 16.3905 9.17157 14.8284M14.8284 14.8284C16.3905 13.2663 16.3905 10.7337 14.8284 9.17157M9.17157 14.8284C7.60948 13.2663 7.60948 10.7337 9.17157 9.17157M14.8284 9.17157C13.2663 7.60948 10.7337 7.60948 9.17157 9.17157" stroke="black" stroke-width="2" stroke-linecap="round" stroke-linejoin="round"/>
</svg>
