<svg width="24" height="24" viewBox="0 0 24 24" fill="none" xmlns="http://www.w3.org/2000/svg">
<path fill-rule="evenodd" clip-rule="evenodd" d="M12 1C5.92487 1 1 5.92487 1 12C1 18.0751 5.92487 23 12 23C12.5523 23 13 22.5523 13 22C13 21.4477 12.5523 21 12 21C7.02944 21 3 16.9706 3 12C3 7.02944 7.02944 3 12 3C16.9706 3 21 7.02944 21 12C21 12.5523 21.4477 13 22 13C22.5523 13 23 12.5523 23 12C23 5.92487 18.0751 1 12 1ZM20 16C20 15.4477 20.4477 15 21 15C21.5523 15 22 15.4477 22 16C22 16.5523 21.5523 17 21 17C20.4477 17 20 16.5523 20 16ZM18 19C18 18.4477 18.4477 18 19 18C19.5523 18 20 18.4477 20 19C20 19.5523 19.5523 20 19 20C18.4477 20 18 19.5523 18 19ZM16 20C15.4477 20 15 20.4477 15 21C15 21.5523 15.4477 22 16 22C16.5523 22 17 21.5523 17 21C17 20.4477 16.5523 20 16 20Z" fill="black"/>
</svg>
