<svg width="24" height="24" viewBox="0 0 24 24" fill="none" xmlns="http://www.w3.org/2000/svg">
<path fill-rule="evenodd" clip-rule="evenodd" d="M12 1C5.92487 1 1 5.92487 1 12C1 12.5523 1.44772 13 2 13C2.55228 13 3 12.5523 3 12C3 7.02944 7.02944 3 12 3C16.9706 3 21 7.02944 21 12C21 12.5523 21.4477 13 22 13C22.5523 13 23 12.5523 23 12C23 5.92487 18.0751 1 12 1ZM4 16C4 15.4477 3.55228 15 3 15C2.44772 15 2 15.4477 2 16C2 16.5523 2.44772 17 3 17C3.55228 17 4 16.5523 4 16ZM5 18C5.55228 18 6 18.4477 6 19C6 19.5523 5.55228 20 5 20C4.44772 20 4 19.5523 4 19C4 18.4477 4.44772 18 5 18ZM20 19C20 18.4477 19.5523 18 19 18C18.4477 18 18 18.4477 18 19C18 19.5523 18.4477 20 19 20C19.5523 20 20 19.5523 20 19ZM13 22C13 21.4477 12.5523 21 12 21C11.4477 21 11 21.4477 11 22C11 22.5523 11.4477 23 12 23C12.5523 23 13 22.5523 13 22ZM8 20C8.55228 20 9 20.4477 9 21C9 21.5523 8.55228 22 8 22C7.44772 22 7 21.5523 7 21C7 20.4477 7.44772 20 8 20ZM17 21C17 20.4477 16.5523 20 16 20C15.4477 20 15 20.4477 15 21C15 21.5523 15.4477 22 16 22C16.5523 22 17 21.5523 17 21ZM21 15C21.5523 15 22 15.4477 22 16C22 16.5523 21.5523 17 21 17C20.4477 17 20 16.5523 20 16C20 15.4477 20.4477 15 21 15Z" fill="black"/>
</svg>
