<svg width="24" height="24" viewBox="0 0 24 24" fill="none" xmlns="http://www.w3.org/2000/svg">
<path fill-rule="evenodd" clip-rule="evenodd" d="M12 1C11.4477 1 11 1.44772 11 2C11 2.55228 11.4477 3 12 3C16.9706 3 21 7.02944 21 12C21 12.5523 21.4477 13 22 13C22.5523 13 23 12.5523 23 12C23 5.92487 18.0751 1 12 1ZM8 2C7.44772 2 7 2.44772 7 3C7 3.55228 7.44772 4 8 4C8.55228 4 9 3.55228 9 3C9 2.44772 8.55228 2 8 2ZM4 5C4 4.44772 4.44772 4 5 4C5.55228 4 6 4.44772 6 5C6 5.55228 5.55228 6 5 6C4.44772 6 4 5.55228 4 5ZM1 12C1 11.4477 1.44772 11 2 11C2.55228 11 3 11.4477 3 12C3 12.5523 2.55228 13 2 13C1.44772 13 1 12.5523 1 12ZM11 22C11 21.4477 11.4477 21 12 21C12.5523 21 13 21.4477 13 22C13 22.5523 12.5523 23 12 23C11.4477 23 11 22.5523 11 22ZM5 18C4.44772 18 4 18.4477 4 19C4 19.5523 4.44772 20 5 20C5.55228 20 6 19.5523 6 19C6 18.4477 5.55228 18 5 18ZM19 18C18.4477 18 18 18.4477 18 19C18 19.5523 18.4477 20 19 20C19.5523 20 20 19.5523 20 19C20 18.4477 19.5523 18 19 18ZM20 16C20 15.4477 20.4477 15 21 15C21.5523 15 22 15.4477 22 16C22 16.5523 21.5523 17 21 17C20.4477 17 20 16.5523 20 16ZM16 20C15.4477 20 15 20.4477 15 21C15 21.5523 15.4477 22 16 22C16.5523 22 17 21.5523 17 21C17 20.4477 16.5523 20 16 20ZM7 21C7 20.4477 7.44772 20 8 20C8.55228 20 9 20.4477 9 21C9 21.5523 8.55228 22 8 22C7.44772 22 7 21.5523 7 21ZM3 15C2.44772 15 2 15.4477 2 16C2 16.5523 2.44772 17 3 17C3.55228 17 4 16.5523 4 16C4 15.4477 3.55228 15 3 15ZM2 8C2 7.44772 2.44772 7 3 7C3.55228 7 4 7.44772 4 8C4 8.55228 3.55228 9 3 9C2.44772 9 2 8.55228 2 8Z" fill="black"/>
</svg>
