<svg width="24" height="24" viewBox="0 0 24 24" fill="none" xmlns="http://www.w3.org/2000/svg">
<path fill-rule="evenodd" clip-rule="evenodd" d="M13 2C13 2.55228 12.5523 3 12 3C11.4477 3 11 2.55228 11 2C11 1.44772 11.4477 1 12 1C12.5523 1 13 1.44772 13 2ZM23 12C23 12.5523 22.5523 13 22 13C21.4477 13 21 12.5523 21 12C21 11.4477 21.4477 11 22 11C22.5523 11 23 11.4477 23 12ZM19 6C19.5523 6 20 5.55228 20 5C20 4.44772 19.5523 4 19 4C18.4477 4 18 4.44772 18 5C18 5.55228 18.4477 6 19 6ZM20 19C20 19.5523 19.5523 20 19 20C18.4477 20 18 19.5523 18 19C18 18.4477 18.4477 18 19 18C19.5523 18 20 18.4477 20 19ZM5 6C5.55228 6 6 5.55228 6 5C6 4.44772 5.55228 4 5 4C4.44772 4 4 4.44772 4 5C4 5.55228 4.44772 6 5 6ZM4 8C4 8.55228 3.55228 9 3 9C2.44772 9 2 8.55228 2 8C2 7.44772 2.44772 7 3 7C3.55228 7 4 7.44772 4 8ZM8 4C8.55228 4 9 3.55228 9 3C9 2.44772 8.55228 2 8 2C7.44772 2 7 2.44772 7 3C7 3.55228 7.44772 4 8 4ZM17 3C17 3.55228 16.5523 4 16 4C15.4477 4 15 3.55228 15 3C15 2.44772 15.4477 2 16 2C16.5523 2 17 2.44772 17 3ZM21 9C21.5523 9 22 8.55228 22 8C22 7.44772 21.5523 7 21 7C20.4477 7 20 7.44772 20 8C20 8.55228 20.4477 9 21 9ZM22 16C22 16.5523 21.5523 17 21 17C20.4477 17 20 16.5523 20 16C20 15.4477 20.4477 15 21 15C21.5523 15 22 15.4477 22 16ZM16 22C16.5523 22 17 21.5523 17 21C17 20.4477 16.5523 20 16 20C15.4477 20 15 20.4477 15 21C15 21.5523 15.4477 22 16 22ZM3 12C3 11.4477 2.55228 11 2 11C1.44772 11 1 11.4477 1 12C1 18.0751 5.92487 23 12 23C12.5523 23 13 22.5523 13 22C13 21.4477 12.5523 21 12 21C7.02944 21 3 16.9706 3 12Z" fill="black"/>
</svg>
