<svg width="24" height="24" viewBox="0 0 24 24" fill="none" xmlns="http://www.w3.org/2000/svg">
<path d="M14 3C14 4.10457 13.1046 5 12 5C10.8954 5 10 4.10457 10 3C10 1.89543 10.8954 1 12 1C13.1046 1 14 1.89543 14 3Z" fill="black"/>
<path d="M7 6.25C7 7.2165 6.2165 8 5.25 8C4.2835 8 3.5 7.2165 3.5 6.25C3.5 5.2835 4.2835 4.5 5.25 4.5C6.2165 4.5 7 5.2835 7 6.25Z" fill="black"/>
<path d="M4 12C4 12.8284 3.32843 13.5 2.5 13.5C1.67157 13.5 1 12.8284 1 12C1 11.1716 1.67157 10.5 2.5 10.5C3.32843 10.5 4 11.1716 4 12Z" fill="black"/>
<path d="M5.75 18.5C5.75 19.1904 5.19036 19.75 4.5 19.75C3.80964 19.75 3.25 19.1904 3.25 18.5C3.25 17.8096 3.80964 17.25 4.5 17.25C5.19036 17.25 5.75 17.8096 5.75 18.5Z" fill="black"/>
<path d="M13 22C13 22.5523 12.5523 23 12 23C11.4477 23 11 22.5523 11 22C11 21.4477 11.4477 21 12 21C12.5523 21 13 21.4477 13 22Z" fill="black"/>
<path d="M20 19C20 19.5523 19.5523 20 19 20C18.4477 20 18 19.5523 18 19C18 18.4477 18.4477 18 19 18C19.5523 18 20 18.4477 20 19Z" fill="black"/>
<path d="M23 13C23 13.5523 22.5523 14 22 14C21.4477 14 21 13.5523 21 13C21 12.4477 21.4477 12 22 12C22.5523 12 23 12.4477 23 13Z" fill="black"/>
<path d="M21.75 6.75C21.75 7.99264 20.7426 9 19.5 9C18.2574 9 17.25 7.99264 17.25 6.75C17.25 5.50736 18.2574 4.5 19.5 4.5C20.7426 4.5 21.75 5.50736 21.75 6.75Z" fill="black"/>
</svg>
