<svg width="24" height="24" viewBox="0 0 24 24" fill="none" xmlns="http://www.w3.org/2000/svg">
<path fill-rule="evenodd" clip-rule="evenodd" d="M12 1C5.92487 1 1 5.92487 1 12C1 18.0751 5.92487 23 12 23C18.0751 23 23 18.0751 23 12C23 11.4477 22.5523 11 22 11C21.4477 11 21 11.4477 21 12C21 16.9706 16.9706 21 12 21C7.02944 21 3 16.9706 3 12C3 7.02944 7.02944 3 12 3C12.5523 3 13 2.55228 13 2C13 1.44772 12.5523 1 12 1ZM16 4C15.4477 4 15 3.55228 15 3C15 2.44772 15.4477 2 16 2C16.5523 2 17 2.44772 17 3C17 3.55228 16.5523 4 16 4ZM18 5C18 5.55228 18.4477 6 19 6C19.5523 6 20 5.55228 20 5C20 4.44772 19.5523 4 19 4C18.4477 4 18 4.44772 18 5ZM20 8C20 8.55228 20.4477 9 21 9C21.5523 9 22 8.55228 22 8C22 7.44772 21.5523 7 21 7C20.4477 7 20 7.44772 20 8Z" fill="black"/>
</svg>
