<svg width="24" height="24" viewBox="0 0 24 24" fill="none" xmlns="http://www.w3.org/2000/svg">
<path d="M12 12V4M12 12L6.46447 6.46447M12 12L17.5355 6.46447M12 12H20M12 12L17.5355 17.5355M12 12V20M12 12L6.46447 17.5355M12 12H4M12 4L14 2M12 4L10 2M6.46447 6.46447L6.5 3.5M6.46447 6.46447L3.5 6.5M17.5355 6.46447V3.5M17.5355 6.46447H20.5M20 12L22 10M20 12L22 14M17.5355 17.5355V20.5M17.5355 17.5355H20.5M12 20L10 22M12 20L14 22M6.46447 17.5355H3.5M6.46447 17.5355V20.5M4 12L2 10M4 12L2 14" stroke="black" stroke-width="2" stroke-linecap="round" stroke-linejoin="round"/>
</svg>
