<svg width="24" height="24" viewBox="0 0 24 24" fill="none" xmlns="http://www.w3.org/2000/svg">
<path d="M12 22V18.5M2 12H5.5M22 12H18.5M12 2V5.5M12 12V5.5M12 12L7.46447 7.46447M12 12L16.5355 7.46447M12 12H18.5M12 12L16.5355 16.5355M12 12V18.5M12 12L7.46447 16.5355M12 12H5.5M4.92893 4.92893L7.46447 7.46447M19.0711 19.0711L16.5355 16.5355M4.92893 19.0711L7.46447 16.5355M19.0711 4.92893L16.5355 7.46447M12 5.5L14 3.5M12 5.5L10 3.5M7.46447 7.46447L7.5 4.5M7.46447 7.46447L4.5 7.5M16.5355 7.46447V4.5M16.5355 7.46447H19.5M18.5 12L20.5 10M18.5 12L20.5 14M16.5355 16.5355V19.5M16.5355 16.5355H19.5M12 18.5L10 20.5M12 18.5L14 20.5M7.46447 16.5355H4.5M7.46447 16.5355V19.5M5.5 12L3.5 10M5.5 12L3.5 14" stroke="black" stroke-width="2" stroke-linecap="round" stroke-linejoin="round"/>
</svg>
