<svg width="24" height="24" viewBox="0 0 24 24" fill="none" xmlns="http://www.w3.org/2000/svg">
<path d="M6.75 3C10 4 14 4 17.25 3M6.75 3C6.5 6.5 4.5 9.5 2 12M6.75 3L9.375 7.5M17.25 3C17.5 6.5 19.5 9.5 22 12M17.25 3L14.625 7.5M22 12C19.5 14.5 18 17.5 17.25 21M22 12L17 12M17.25 21C14 20 10 20 6.75 21M17.25 21L14.625 16.5M6.75 21C6 17.5 4.5 14.5 2 12M6.75 21L9.375 16.5M2 12L7 12M9.375 7.5C11 8 13 8 14.625 7.5M9.375 7.5C9.25 9.25 8.25 10.75 7 12M9.375 7.5L14.625 16.5M14.625 7.5C14.75 9.25 15.75 10.75 17 12M14.625 7.5L9.375 16.5M17 12C15.75 13.25 15 14.75 14.625 16.5M17 12L7 12M14.625 16.5C13 16 11 16 9.375 16.5M9.375 16.5C9 14.75 8.25 13.25 7 12" stroke="black" stroke-width="2" stroke-linejoin="round"/>
</svg>
