<svg width="24" height="24" viewBox="0 0 24 24" fill="none" xmlns="http://www.w3.org/2000/svg">
<path fill-rule="evenodd" clip-rule="evenodd" d="M12 1C5.92487 1 1 5.92487 1 12C1 18.0751 5.92487 23 12 23C18.0751 23 23 18.0751 23 12C23 5.92487 18.0751 1 12 1ZM21 12C21 16.9706 16.9706 21 12 21C9.79086 21 8 19.2091 8 17C8 14.7909 9.79086 13 12 13C15.3137 13 18 10.3137 18 7C18 6.29926 17.8799 5.62658 17.6591 5.00142C19.6971 6.6514 21 9.17355 21 12ZM3 12C3 7.02944 7.02944 3 12 3C14.2091 3 16 4.79086 16 7C16 9.20914 14.2091 11 12 11C8.68629 11 6 13.6863 6 17C6 17.7007 6.12013 18.3734 6.34091 18.9986C4.30292 17.3486 3 14.8265 3 12ZM12 8.5C12.8284 8.5 13.5 7.82843 13.5 7C13.5 6.17157 12.8284 5.5 12 5.5C11.1716 5.5 10.5 6.17157 10.5 7C10.5 7.82843 11.1716 8.5 12 8.5ZM12 18.5C12.8284 18.5 13.5 17.8284 13.5 17C13.5 16.1716 12.8284 15.5 12 15.5C11.1716 15.5 10.5 16.1716 10.5 17C10.5 17.8284 11.1716 18.5 12 18.5Z" fill="black"/>
</svg>
