<svg width="24" height="24" viewBox="0 0 24 24" fill="none" xmlns="http://www.w3.org/2000/svg">
<path fill-rule="evenodd" clip-rule="evenodd" d="M4.79671 7.34543C5.2616 6.08242 6.24526 4.99104 7.47215 4.20843C8.70155 3.42423 10.0984 3 11.2954 3C11.5126 3 11.7269 3.00672 11.9377 3.01989C15.6941 3.2545 18.0908 5.43113 18.0908 8C18.0908 8.23546 18.0513 8.49548 17.9824 8.80994C17.9503 8.95675 17.9143 9.10459 17.875 9.26594L17.8668 9.29935C17.8255 9.46923 17.7808 9.65372 17.7412 9.84131C17.5378 10.805 17.8714 11.6985 18.3273 12.3536L19.4974 14.0347C19.4989 14.0368 19.4993 14.0379 19.4994 14.0381L19.4998 14.0398C19.5001 14.042 19.5002 14.0463 19.4988 14.0513L19.4987 14.0516L18.2238 14.5749C17.8486 14.7289 17.6036 15.0944 17.6036 15.5C17.6036 16.4843 17.5658 17.2059 17.4844 17.74C17.4021 18.2807 17.2868 18.543 17.1947 18.6736C17.0798 18.8364 16.8711 19 15.6803 19C13.8923 19 12.7334 18.5428 12.0116 17.8021C11.6262 17.4066 10.9931 17.3984 10.5975 17.7838C10.202 18.1692 10.1938 18.8023 10.5792 19.1979C11.6069 20.2526 13.0116 20.8047 14.6803 20.9563V22C14.6803 22.5523 15.128 23 15.6803 23C16.2326 23 16.6803 22.5523 16.6803 22V20.9557C17.496 20.8654 18.2848 20.5979 18.829 19.8264C19.1777 19.332 19.3583 18.7193 19.4616 18.0412C19.5419 17.514 19.5827 16.8941 19.5973 16.1731L20.2669 15.8982C21.462 15.4076 21.8612 13.9299 21.1389 12.8921L19.9688 11.2111C19.7165 10.8485 19.6435 10.513 19.6981 10.2544C19.7305 10.1007 19.7683 9.94389 19.8101 9.77246L19.8193 9.73462C19.8574 9.57809 19.8987 9.40852 19.9361 9.23793C20.0168 8.86976 20.0908 8.44716 20.0908 8C20.0908 3.94859 16.3865 1.29385 12.0623 1.02378C11.8097 1.00799 11.5539 1 11.2954 1C9.66545 1 7.90059 1.5629 6.39659 2.52226C4.89009 3.48322 3.56865 4.89184 2.91982 6.65457C2.65109 7.38465 2.5 8.17075 2.5 9C2.5 12.0773 3.368 13.9586 4.18576 15.4531C4.28618 15.6366 4.38217 15.8089 4.47326 15.9724C4.95328 16.834 5.29772 17.4523 5.44174 18.1913C5.67604 19.3935 5.46572 20.211 4.98497 21.6911C4.81436 22.2164 5.10187 22.7805 5.62714 22.9511C6.15241 23.1217 6.71654 22.8342 6.88715 22.3089C7.38083 20.789 7.74381 19.5482 7.40481 17.8087C7.1943 16.7286 6.66806 15.7921 6.18745 14.9368C6.103 14.7865 6.01996 14.6387 5.94029 14.4931C5.21584 13.1691 4.5 11.6243 4.5 9C4.5 8.41714 4.60565 7.86449 4.79671 7.34543ZM7.38669 9.45965C7.26332 9.49247 7.1337 9.50996 7 9.50996C6.17157 9.50996 5.5 8.83839 5.5 8.00996V8C5.5 7.17157 6.17157 6.5 7 6.5C7.75656 6.5 8.38229 7.0601 8.48517 7.78826L10.5547 9.16795C10.8329 9.35342 11 9.66565 11 10V14C11 14.5523 10.5523 15 10 15C9.44772 15 9 14.5523 9 14V10.5352L7.38669 9.45965ZM15.2309 9.49592L14 10.4806V14C14 14.5523 13.5523 15 13 15C12.4477 15 12 14.5523 12 14V10C12 9.69622 12.1381 9.4089 12.3753 9.21913L14.0028 7.91711C14.0508 7.13195 14.7028 6.51 15.5 6.51C16.3284 6.51 17 7.18157 17 8.01V8.01999C17 8.84842 16.3284 9.51999 15.5 9.51999C15.4081 9.51999 15.3182 9.51173 15.2309 9.49592Z" fill="black"/>
</svg>
