<svg width="24" height="24" viewBox="0 0 24 24" fill="none" xmlns="http://www.w3.org/2000/svg">
<path d="M5.93606 22C6.42327 20.5 6.70992 19.4709 6.42327 18C6.09846 16.3333 4.9075 15.1111 4.14962 13M15.6803 20C18 20 18.6036 19.5 18.6036 15.5L19.8871 14.9731C20.4738 14.7323 20.6854 13.991 20.3181 13.4634L19.1481 11.7823C18.7939 11.2735 18.5906 10.659 18.7197 10.0479C18.8638 9.36525 19.0908 8.68262 19.0908 8C19.0908 6.31877 18.3039 4.86827 17 3.81477M15.6803 20C13.7315 20 12.2698 19.5 11.2954 18.5M15.6803 20V22M3 10.0479L4.5 7.40492M11 10.0479L9.5 7.40492M4.5 7.40492L7 3L9.5 7.40492M4.5 7.40492H9.5M14 10.0479V3" stroke="black" stroke-width="2" stroke-linecap="round" stroke-linejoin="round"/>
</svg>
