<svg width="24" height="24" viewBox="0 0 24 24" fill="none" xmlns="http://www.w3.org/2000/svg">
<path d="M5.93606 22C6.42327 20.5 6.70992 19.4709 6.42327 18C5.93606 15.5 3.5 14 3.5 9C3.5 4.87342 7.88491 2 11.2954 2C15.6803 2 19.0908 4.5 19.0908 8C19.0908 8.68262 18.8638 9.36525 18.7197 10.0479C18.5906 10.659 18.794 11.2735 19.1481 11.7823L20.3181 13.4634C20.6854 13.991 20.4738 14.7323 19.8871 14.9731L18.6036 15.5C18.6036 19.5 18 20 15.6803 20M15.6803 20C13.7315 20 12.2698 19.5 11.2954 18.5M15.6803 20V22M9.4 7.97975C9.4 8.04042 9.40265 8.10045 9.40785 8.15973H9.38086C8.61823 8.15973 8 8.79555 8 9.57986C8 10.3642 8.61823 11 9.38086 11H13.2691C14.2251 11 15 10.203 15 9.21991C15 8.23679 14.2251 7.43982 13.2691 7.43982H13.1775C12.949 6.60886 12.2061 6 11.325 6C10.2619 6 9.4 6.88637 9.4 7.97975Z" stroke="black" stroke-width="2" stroke-linecap="round" stroke-linejoin="round"/>
</svg>
