<svg width="24" height="24" viewBox="0 0 24 24" fill="none" xmlns="http://www.w3.org/2000/svg">
<path d="M5.93606 22C6.42327 20.5 6.70992 19.4709 6.42327 18C5.93606 15.5 3.5 14 3.5 9C3.5 4.87342 7.88491 2 11.2954 2C15.6803 2 19.0908 4.5 19.0908 8C19.0908 8.68262 18.8638 9.36525 18.7197 10.0479C18.5906 10.659 18.794 11.2735 19.1481 11.7823L20.3181 13.4634C20.6854 13.991 20.4738 14.7323 19.8871 14.9731L18.6036 15.5C18.6036 19.5 18 20 15.6803 20M15.6803 20C13.7315 20 12.2698 19.5 11.2954 18.5M15.6803 20V22M12.8505 8.64955C12.1914 7.99052 11.8328 6.76715 11.654 5.91953C11.6293 5.8023 11.3707 5.8023 11.346 5.91953C11.1672 6.76715 10.8086 7.99052 10.1495 8.64955C9.49052 9.30857 8.26715 9.66719 7.41954 9.846C7.3023 9.87073 7.3023 10.1293 7.41954 10.154C8.26715 10.3328 9.49052 10.6914 10.1495 11.3505C10.8086 12.0095 11.1672 13.2328 11.346 14.0805C11.3707 14.1977 11.6293 14.1977 11.654 14.0805C11.8328 13.2328 12.1914 12.0095 12.8505 11.3505C13.5095 10.6914 14.7328 10.3328 15.5805 10.154C15.6977 10.1293 15.6977 9.87073 15.5805 9.846C14.7328 9.66719 13.5095 9.30857 12.8505 8.64955Z" stroke="black" stroke-width="2" stroke-linecap="round" stroke-linejoin="round"/>
</svg>
