<svg width="24" height="24" viewBox="0 0 24 24" fill="none" xmlns="http://www.w3.org/2000/svg">
<path fill-rule="evenodd" clip-rule="evenodd" d="M4.5 9C4.5 7.31522 5.39299 5.82813 6.74847 4.72937L6.78867 4.69701L8.19585 6.59544C8.38446 6.8499 8.68248 6.99996 8.99922 6.99996H10.873C11.1479 7.31266 11.5509 7.51 12 7.51C12.8284 7.51 13.5 6.83843 13.5 6.01V6C13.5 5.17157 12.8284 4.5 12 4.5C11.5558 4.5 11.1566 4.69311 10.882 4.99996H9.50274L8.5027 3.6508C9.44082 3.2272 10.4192 3 11.2954 3C15.4021 3 18.0908 5.29127 18.0908 8C18.0908 8.23546 18.0513 8.49548 17.9824 8.80994C17.9503 8.95675 17.9143 9.10459 17.875 9.26594L17.8668 9.29935C17.8255 9.46923 17.7808 9.65372 17.7412 9.84131C17.5378 10.805 17.8714 11.6985 18.3273 12.3536L19.4974 14.0347C19.4989 14.0368 19.4993 14.0379 19.4994 14.0381L19.4998 14.0398C19.5001 14.042 19.5002 14.0463 19.4988 14.0513L19.4987 14.0516L18.2238 14.5749C17.8486 14.7289 17.6036 15.0944 17.6036 15.5C17.6036 16.4843 17.5658 17.2059 17.4844 17.74C17.4021 18.2807 17.2868 18.543 17.1947 18.6736C17.0798 18.8364 16.8711 19 15.6803 19C13.8923 19 12.7334 18.5428 12.0116 17.8021C11.6262 17.4066 10.9931 17.3984 10.5975 17.7838C10.202 18.1692 10.1938 18.8023 10.5792 19.1979C11.6069 20.2526 13.0116 20.8047 14.6803 20.9563V22C14.6803 22.5523 15.128 23 15.6803 23C16.2326 23 16.6803 22.5523 16.6803 22V20.9557C17.496 20.8654 18.2848 20.5979 18.829 19.8264C19.1777 19.332 19.3583 18.7193 19.4616 18.0412C19.5419 17.514 19.5827 16.8941 19.5973 16.1731L20.2669 15.8982C21.462 15.4076 21.8612 13.9299 21.1389 12.8921L19.9688 11.2111C19.7165 10.8485 19.6435 10.513 19.6981 10.2544C19.7305 10.1007 19.7683 9.94389 19.8101 9.77246L19.8193 9.73462C19.8574 9.57809 19.8987 9.40852 19.9361 9.23793C20.0168 8.86976 20.0908 8.44716 20.0908 8C20.0908 3.70873 15.9585 1 11.2954 1C9.76539 1 8.10904 1.49609 6.65652 2.36203C6.56825 2.39426 6.48307 2.43958 6.40373 2.49839C6.36908 2.52408 6.33656 2.55158 6.30622 2.58067C6.0238 2.76506 5.75054 2.96374 5.48906 3.1757C3.79946 4.5453 2.5 6.5582 2.5 9C2.5 9.78415 2.55631 10.491 2.65405 11.1342C2.65552 11.1449 2.65716 11.1556 2.65899 11.1663C2.78457 11.9785 2.97625 12.6887 3.20381 13.3249C3.20667 13.3332 3.20964 13.3414 3.21271 13.3496C3.41677 13.9161 3.64913 14.4236 3.88825 14.8921C4.06512 15.2387 4.24458 15.5617 4.41138 15.8601L4.45684 15.9413L4.45685 15.9414C4.60849 16.2124 4.74666 16.4594 4.87396 16.7039C5.15171 17.2375 5.34642 17.7022 5.44174 18.1913C5.67604 19.3935 5.46572 20.211 4.98497 21.6911C4.81436 22.2164 5.10187 22.7805 5.62714 22.9511C6.15241 23.1217 6.71654 22.8342 6.88715 22.3089C7.38083 20.789 7.74381 19.5482 7.40481 17.8087C7.25652 17.0478 6.96402 16.3875 6.64797 15.7804C6.50594 15.5076 6.35285 15.234 6.20394 14.9679L6.2039 14.9678L6.15707 14.8841L6.07391 14.735L6.66809 14.9435C6.7745 14.9809 6.88645 15 6.99922 15H8.87304C9.14794 15.3127 9.55092 15.51 10 15.51C10.8284 15.51 11.5 14.8384 11.5 14.01V14C11.5 13.1716 10.8284 12.5 10 12.5C9.55577 12.5 9.15664 12.6931 8.88199 13H7.16959L4.94379 12.2189C4.89291 12.0518 4.84526 11.8787 4.80146 11.6988L7.14586 11H8.87308C9.14797 11.3127 9.55094 11.51 10 11.51C10.8284 11.51 11.5 10.8384 11.5 10.01V10C11.5 9.17157 10.8284 8.5 10 8.5C9.55575 8.5 9.15661 8.69313 8.88195 9H7C6.90327 9 6.80705 9.01403 6.71435 9.04166L4.51758 9.69644C4.50605 9.47301 4.5 9.24108 4.5 9Z" fill="black"/>
</svg>
