<svg width="24" height="24" viewBox="0 0 24 24" fill="none" xmlns="http://www.w3.org/2000/svg">
<path fill-rule="evenodd" clip-rule="evenodd" d="M4.5 9C4.5 7.31522 5.39299 5.82813 6.74847 4.72937C8.11323 3.62309 9.8443 3 11.2954 3C15.4021 3 18.0908 5.29127 18.0908 8C18.0908 8.23546 18.0513 8.49548 17.9824 8.80994C17.9503 8.95675 17.9143 9.10459 17.875 9.26594L17.8668 9.29935C17.8255 9.46923 17.7808 9.65372 17.7412 9.84131C17.5378 10.805 17.8714 11.6985 18.3273 12.3536L19.4974 14.0347C19.4989 14.0368 19.4993 14.0379 19.4994 14.0381L19.4998 14.0398C19.5001 14.042 19.5002 14.0463 19.4988 14.0513L19.4987 14.0516L18.2238 14.5749C17.8486 14.7289 17.6036 15.0944 17.6036 15.5C17.6036 16.4843 17.5658 17.2059 17.4844 17.74C17.4021 18.2807 17.2868 18.543 17.1947 18.6736C17.0798 18.8364 16.8711 19 15.6803 19C13.8923 19 12.7334 18.5428 12.0116 17.8021C11.6262 17.4066 10.9931 17.3984 10.5975 17.7838C10.202 18.1692 10.1938 18.8023 10.5792 19.1979C11.6069 20.2526 13.0116 20.8047 14.6803 20.9563V22C14.6803 22.5523 15.128 23 15.6803 23C16.2326 23 16.6803 22.5523 16.6803 22V20.9557C17.496 20.8654 18.2848 20.5979 18.829 19.8264C19.1777 19.332 19.3583 18.7193 19.4616 18.0412C19.5419 17.514 19.5827 16.8941 19.5973 16.1731L20.2669 15.8982C21.462 15.4076 21.8612 13.9299 21.1389 12.8921L19.9688 11.2111C19.7165 10.8485 19.6435 10.513 19.6981 10.2544C19.7305 10.1007 19.7683 9.94389 19.8101 9.77246L19.8193 9.73462C19.8574 9.57809 19.8987 9.40852 19.9361 9.23793C20.0168 8.86976 20.0908 8.44716 20.0908 8C20.0908 3.70873 15.9585 1 11.2954 1C9.33601 1 7.16938 1.81362 5.48906 3.1757C3.79946 4.5453 2.5 6.5582 2.5 9C2.5 11.6908 3.16304 13.4713 3.88825 14.8921C4.06512 15.2387 4.24458 15.5617 4.41138 15.8601L4.45684 15.9413L4.45685 15.9414C4.60849 16.2124 4.74666 16.4594 4.87396 16.7039C5.15171 17.2375 5.34642 17.7022 5.44174 18.1913C5.67604 19.3935 5.46572 20.211 4.98497 21.6911C4.81436 22.2164 5.10187 22.7805 5.62714 22.9511C6.15241 23.1217 6.71654 22.8342 6.88715 22.3089C7.38083 20.789 7.74381 19.5482 7.40481 17.8087C7.25652 17.0478 6.96402 16.3875 6.64797 15.7804C6.50594 15.5076 6.35285 15.234 6.20394 14.9679L6.2039 14.9678L6.15707 14.8841C5.99082 14.5867 5.8277 14.2926 5.66962 13.9829C5.05499 12.7787 4.5 11.3092 4.5 9ZM13.6031 7.55768C13.5366 7.38801 13.5 7.20328 13.5 7.01V7C13.5 6.17157 14.1716 5.5 15 5.5C15.8284 5.5 16.5 6.17157 16.5 7V7.01C16.5 7.7041 16.0286 8.28808 15.3884 8.45922L14.3947 10.4467C14.4626 10.6179 14.5 10.8046 14.5 11V11.01C14.5 11.8384 13.8284 12.51 13 12.51C12.1716 12.51 11.5 11.8384 11.5 11.01V11C11.5 10.972 11.5008 10.9441 11.5023 10.9165L10.274 9.68816L9.39467 11.4467C9.46264 11.6179 9.5 11.8046 9.5 12V12.01C9.5 12.8384 8.82843 13.51 8 13.51C7.17157 13.51 6.5 12.8384 6.5 12.01V12C6.5 11.308 6.9686 10.7254 7.6058 10.5523L8.60313 8.55768C8.53655 8.38801 8.5 8.20328 8.5 8.01V8C8.5 7.17157 9.17157 6.5 10 6.5C10.8284 6.5 11.5 7.17157 11.5 8V8.01C11.5 8.03481 11.4994 8.05948 11.4982 8.08399L12.726 9.31184L13.6031 7.55768Z" fill="black"/>
</svg>
