<svg width="24" height="24" viewBox="0 0 24 24" fill="none" xmlns="http://www.w3.org/2000/svg">
<path d="M12 11.9999L17.5 11.9999M12 11.9999L12 16M12 11.9999L12 8M12 16L12 19.3278C11.7098 20.2743 11.1103 20.9999 9.95402 20.9999C6.62885 20.9999 4.83818 18.9999 6.37356 16.4999C2.79227 16.4999 2.28097 13.4999 3.81609 11.9999C2.28097 10.4998 2.79227 7.49984 6.37356 7.49989C4.83818 4.99984 6.62885 2.99983 9.95402 2.99988C11.1104 2.99989 11.7099 3.72548 12 4.67199L12 8M12 16H17L18.5397 17.8476M12 8H17L18.5397 6.15236M18.5397 6.15236C18.7999 6.36941 19.1347 6.5 19.5 6.5C20.3284 6.5 21 5.82843 21 5C21 4.17157 20.3284 3.5 19.5 3.5C18.6716 3.5 18 4.17157 18 5C18 5.46311 18.2099 5.87721 18.5397 6.15236ZM18.5397 17.8476C18.2099 18.1228 18 18.5369 18 19C18 19.8284 18.6716 20.5 19.5 20.5C20.3284 20.5 21 19.8284 21 19C21 18.1716 20.3284 17.5 19.5 17.5C19.1347 17.5 18.7999 17.6306 18.5397 17.8476ZM18 12V12C18 12.8284 18.6716 13.5 19.5 13.5V13.5C20.3284 13.5 21 12.8284 21 12V12C21 11.1716 20.3284 10.5 19.5 10.5V10.5C18.6716 10.5 18 11.1716 18 12Z" stroke="black" stroke-width="2" stroke-linecap="round" stroke-linejoin="round"/>
</svg>
