<svg width="24" height="24" viewBox="0 0 24 24" fill="none" xmlns="http://www.w3.org/2000/svg">
<path fill-rule="evenodd" clip-rule="evenodd" d="M8.41186 6.55725L7.32098 4.30718C8.4787 3.53145 9.81439 3.07451 11 3.00836V6.93774L10.1464 13.7664C9.75581 14.0372 9.5 14.4887 9.5 15V15.01C9.5 15.8384 10.1716 16.51 11 16.51C11.8284 16.51 12.5 15.8384 12.5 15.01V15C12.5 14.6228 12.3608 14.2782 12.131 14.0146L12.9923 7.12403C12.9974 7.08289 13 7.04146 13 7V3.14479C13.7285 3.27236 14.4005 3.48049 15 3.75419V7.80742L14.4916 9.07835C13.9134 9.28661 13.5 9.84003 13.5 10.49V10.5C13.5 11.3284 14.1716 12 15 12C15.8284 12 16.5 11.3284 16.5 10.5V10.49C16.5 10.2521 16.4446 10.0272 16.3461 9.82738L16.9285 8.37139C16.9757 8.25327 17 8.12722 17 8V5.18933C17.7068 5.98655 18.0908 6.94822 18.0908 8C18.0908 8.23546 18.0513 8.49548 17.9824 8.80994C17.9503 8.95675 17.9143 9.10459 17.875 9.26594L17.8668 9.29935C17.8255 9.46923 17.7808 9.65372 17.7412 9.84131C17.5378 10.805 17.8714 11.6985 18.3273 12.3536L19.4974 14.0347C19.4989 14.0368 19.4993 14.0379 19.4994 14.0381L19.4998 14.0398C19.5001 14.042 19.5002 14.0463 19.4988 14.0513L19.4987 14.0516L18.2238 14.5749C17.8486 14.7289 17.6036 15.0944 17.6036 15.5C17.6036 16.4843 17.5658 17.2059 17.4844 17.74C17.4021 18.2807 17.2868 18.543 17.1947 18.6736C17.0798 18.8364 16.8711 19 15.6803 19C13.8923 19 12.7334 18.5428 12.0116 17.8021C11.6262 17.4066 10.9931 17.3984 10.5975 17.7838C10.202 18.1692 10.1938 18.8023 10.5792 19.1979C11.6069 20.2526 13.0116 20.8047 14.6803 20.9563V22C14.6803 22.5523 15.128 23 15.6803 23C16.2326 23 16.6803 22.5523 16.6803 22V20.9557C17.496 20.8654 18.2848 20.5979 18.829 19.8264C19.1777 19.332 19.3583 18.7193 19.4616 18.0412C19.5419 17.514 19.5827 16.8941 19.5973 16.1731L20.2669 15.8982C21.462 15.4076 21.8612 13.9299 21.1389 12.8921L19.9688 11.2111C19.7165 10.8485 19.6435 10.513 19.6981 10.2544C19.7305 10.1007 19.7683 9.94389 19.8101 9.77246L19.8193 9.73462C19.8574 9.57809 19.8987 9.40852 19.9361 9.23793C20.0168 8.86976 20.0908 8.44716 20.0908 8C20.0908 5.49187 18.629 3.46722 16.4887 2.2683C15.2198 1.55745 13.7023 1.1262 12.0623 1.02378C11.8097 1.00799 11.5539 1 11.2954 1C9.31159 1 7.11436 1.83406 5.42426 3.22869C4.33933 4.12395 3.42528 5.28135 2.91982 6.65457C2.65109 7.38465 2.5 8.17075 2.5 9C2.5 12.0773 3.368 13.9586 4.18576 15.4531C4.28618 15.6366 4.38217 15.8089 4.47326 15.9724C4.95328 16.834 5.29772 17.4523 5.44174 18.1913C5.67604 19.3935 5.46572 20.211 4.98497 21.6911C4.81436 22.2164 5.10187 22.7805 5.62714 22.9511C6.15241 23.1217 6.71654 22.8342 6.88715 22.3089C7.38083 20.789 7.74381 19.5482 7.40481 17.8087C7.1943 16.7286 6.66806 15.7921 6.18745 14.9368C6.103 14.7865 6.01996 14.6387 5.94029 14.4931C5.21584 13.1691 4.5 11.6243 4.5 9C4.5 8.41714 4.60565 7.86449 4.79671 7.34543C5.01527 6.75165 5.34837 6.19541 5.769 5.69054L6.6122 7.42974C6.53988 7.60555 6.5 7.79812 6.5 8V8.00996C6.5 8.83839 7.17157 9.50996 8 9.50996C8.82843 9.50996 9.5 8.83839 9.5 8.00996V8C9.5 7.3144 9.04003 6.73623 8.41186 6.55725Z" fill="black"/>
</svg>
