<svg width="24" height="24" viewBox="0 0 24 24" fill="none" xmlns="http://www.w3.org/2000/svg">
<path d="M5.93534 22C6.42255 20.5 6.7092 19.4709 6.42255 18C6.05118 16.0944 4.54757 14.7699 3.85352 12.0335M15.6796 20C17.7096 20 18.4254 19.6171 18.5725 16.8405C18.6154 16.0304 19.0929 15.2988 19.8434 14.9908L19.8864 14.9731C20.473 14.7323 20.6847 13.991 20.3174 13.4634L19.1474 11.7823C18.7932 11.2735 18.5899 10.659 18.7189 10.0479C18.863 9.36525 19.0901 8.68262 19.0901 8C19.0901 6.88157 18.7418 5.86526 18.1248 5M15.6796 20C13.7307 20 12.2691 19.5 11.2947 18.5M15.6796 20V22M6.2 4.77165C6.2 4.85659 6.20417 4.94063 6.21233 5.02362H6.16992C4.97151 5.02362 4 5.91376 4 7.01181C4 8.10986 4.97151 9 6.16992 9H12.2801C13.7822 9 15 7.88424 15 6.50787C15 5.13151 13.7822 4.01575 12.2801 4.01575H12.1361C11.777 2.85241 10.6097 2 9.225 2C7.55434 2 6.2 3.24091 6.2 4.77165Z" stroke="black" stroke-width="2" stroke-linecap="round" stroke-linejoin="round"/>
</svg>
