<svg width="24" height="24" viewBox="0 0 24 24" fill="none" xmlns="http://www.w3.org/2000/svg">
<path d="M12 15.9999L12 19.3278M12 15.9999C9.79086 15.9999 8 14.2091 8 12C8 9.79086 9.79086 7.99985 12 7.99985M12 15.9999C14.2091 15.9999 16 14.2091 16 12C16 9.79086 14.2091 7.99985 12 7.99985M12 7.99985L12 4.67199M12 4.67199C12.2902 3.72554 12.8897 3.00002 14.046 3C17.3711 2.99995 19.1618 4.99996 17.6264 7.50001C21.2077 7.49997 21.719 10.4999 20.1839 12C21.719 13.5 21.2077 16.5 17.6264 16.5C19.1618 19 17.3711 21.0001 14.046 21C12.8896 21 12.2901 20.2744 12 19.3278M12 4.67199C11.7099 3.72548 11.1104 2.99989 9.95402 2.99988C6.62885 2.99983 4.83818 4.99984 6.37356 7.49989C2.79227 7.49984 2.28097 10.4998 3.81609 11.9999C2.28097 13.4999 2.79227 16.4999 6.37356 16.4999C4.83818 18.9999 6.62885 20.9999 9.95402 20.9999C11.1103 20.9999 11.7098 20.2743 12 19.3278" stroke="black" stroke-width="2" stroke-linecap="round" stroke-linejoin="round"/>
</svg>
