<svg width="24" height="24" viewBox="0 0 24 24" fill="none" xmlns="http://www.w3.org/2000/svg">
<path d="M12 13.9999L12 4.67199M6.37356 7.49989C2.79227 7.49984 2.28097 10.4998 3.81609 11.9999C2.28097 13.4999 2.79227 16.4999 6.37356 16.4999C4.83818 18.9999 6.62885 20.9999 9.95402 20.9999C11.1103 20.9999 11.7098 20.2743 12 19.3278C12.2901 20.2744 12.8896 21 14.046 21C17.3711 21.0001 19.1618 19 17.6264 16.5C21.2077 16.5 21.719 13.5 20.1839 12C21.719 10.4999 21.2077 7.49997 17.6264 7.50001M6.37356 7.49989C4.83818 4.99984 6.62885 2.99983 9.95402 2.99988C11.1104 2.99989 11.7099 3.72548 12 4.67199M6.37356 7.49989L8 9V13M17.6264 7.50001C19.1618 4.99996 17.3711 2.99995 14.046 3C12.8897 3.00002 12.2902 3.72554 12 4.67199M17.6264 7.50001L16 9V13" stroke="black" stroke-width="2" stroke-linecap="round" stroke-linejoin="round"/>
</svg>
