<svg width="24" height="24" viewBox="0 0 24 24" fill="none" xmlns="http://www.w3.org/2000/svg">
<path fill-rule="evenodd" clip-rule="evenodd" d="M7.22622 6.97656C6.62624 5.99963 6.77597 5.35658 7.11248 4.94934C7.52118 4.45474 8.45329 3.99986 9.95453 3.99988C10.3035 3.99988 10.4977 4.10129 10.6308 4.22196C10.7654 4.3439 10.8948 4.53998 11.0005 4.83306L11.0005 6.88194C10.6937 7.1566 10.5005 7.55575 10.5005 8V8.01C10.5005 8.83843 11.1721 9.51 12.0005 9.51C12.8289 9.51 13.5005 8.83843 13.5005 8.01V8C13.5005 7.55575 13.3074 7.15661 13.0005 6.88195L13.0005 4.83308C13.1062 4.54004 13.2357 4.34399 13.3702 4.22206C13.5034 4.10141 13.6976 4 14.0465 4C15.5478 3.99998 16.4799 4.45486 16.8886 4.94946C17.2251 5.3567 17.3748 5.99975 16.7748 6.97668C16.5853 7.28526 16.5774 7.67218 16.7542 7.98821C16.931 8.30425 17.2648 8.50001 17.627 8.50001C19.1253 8.49999 19.7079 9.09963 19.8988 9.56616C20.1166 10.0984 19.9846 10.7971 19.4855 11.2848C19.293 11.4729 19.1844 11.7308 19.1844 12C19.1844 12.2692 19.293 12.5271 19.4855 12.7152C19.9846 13.2029 20.1166 13.9016 19.8988 14.4338C19.7255 14.8575 19.229 15.391 18.0169 15.4854L16.5005 14.0163C16.5005 14.0142 16.5005 14.0121 16.5005 14.01V14C16.5005 13.1716 15.8289 12.5 15.0005 12.5C14.1721 12.5 13.5005 13.1716 13.5005 14V14.01C13.5005 14.8384 14.1721 15.51 15.0005 15.51C15.0542 15.51 15.1072 15.5072 15.1594 15.5017L16.8357 17.1258C17.364 18.0455 17.2132 18.6577 16.8886 19.0505C16.4799 19.5451 15.5478 20 14.0465 20C13.6976 20 13.5034 19.8986 13.3702 19.7779C13.2164 19.6385 13.0692 19.4022 12.9566 19.0348C12.8278 18.6147 12.4399 18.3279 12.0005 18.3279C11.5611 18.3278 11.1732 18.6147 11.0444 19.0348C10.9318 19.4021 10.7846 19.6384 10.6308 19.7778C10.4977 19.8985 10.3035 19.9999 9.95453 19.9999C8.45329 19.9999 7.52118 19.545 7.11248 19.0504C6.78787 18.6576 6.63707 18.0453 7.16532 17.1257L8.84164 15.5017C8.89385 15.5072 8.94686 15.51 9.00052 15.51C9.82895 15.51 10.5005 14.8384 10.5005 14.01V14C10.5005 13.1716 9.82895 12.5 9.00052 12.5C8.17209 12.5 7.50052 13.1716 7.50052 14V14.01C7.50052 14.0121 7.50053 14.0142 7.50054 14.0163L5.98419 15.4853C4.77208 15.3909 4.27559 14.8574 4.10222 14.4337C3.88444 13.9015 4.01646 13.2027 4.5155 12.7151C4.70806 12.5269 4.81661 12.2691 4.81661 11.9999C4.81661 11.7306 4.70806 11.4728 4.5155 11.2846C4.01645 10.797 3.88445 10.0983 4.10222 9.56604C4.29311 9.09951 4.87575 8.49987 6.37407 8.49989C6.7362 8.49989 7.07003 8.30413 7.24682 7.98809C7.4236 7.67205 7.41573 7.28514 7.22622 6.97656ZM11.9739 2.74004L12.0006 2.76452L12.0272 2.7401C12.5554 2.26138 13.2391 2.00001 14.0465 2C15.8704 1.99997 17.4962 2.54508 18.4303 3.67548C19.139 4.53306 19.3376 5.58367 19.0664 6.66209C20.3851 6.98095 21.3174 7.75177 21.7499 8.80876C22.1819 9.86471 22.0393 11.0496 21.4548 12C22.0393 12.9504 22.1819 14.1353 21.7499 15.1912C21.3174 16.2482 20.3851 17.019 19.0664 17.3379C19.3376 18.4163 19.139 19.4669 18.4303 20.3245C17.4962 21.4549 15.8704 22 14.0465 22C13.2391 22 12.5554 21.7386 12.0271 21.2598L12.0005 21.2354L11.9739 21.2598C11.4456 21.7385 10.7619 21.9999 9.95456 21.9999C8.13063 21.9999 6.50482 21.4548 5.57074 20.3244C4.86209 19.4668 4.66345 18.4162 4.93463 17.3378C3.61591 17.0189 2.68367 16.2481 2.25117 15.1911C1.81911 14.1351 1.96176 12.9502 2.54628 11.9999C1.96176 11.0495 1.81911 9.86459 2.25118 8.80864C2.68367 7.75164 3.61592 6.98083 4.93463 6.66196C4.66345 5.58355 4.86209 4.53294 5.57074 3.67536C6.50482 2.54495 8.13063 1.99985 9.95456 1.99988C10.762 1.99989 11.4457 2.26128 11.9739 2.74004Z" fill="black"/>
</svg>
