<svg width="24" height="24" viewBox="0 0 24 24" fill="none" xmlns="http://www.w3.org/2000/svg">
<path d="M5.93606 22C6.42327 20.5 6.70992 19.4709 6.42327 18C5.93606 15.5 3.5 14 3.5 9C3.5 4.87342 7.88491 2 11.2954 2C15.6803 2 19.0908 4.5 19.0908 8C19.0908 8.68262 18.8638 9.36525 18.7197 10.0479C18.5906 10.659 18.794 11.2735 19.1481 11.7823L20.3181 13.4634C20.6854 13.991 20.4738 14.7323 19.8871 14.9731L18.6036 15.5C18.6036 19.5 18 20 15.6803 20M15.6803 20C13.7315 20 12.2698 19.5 11.2954 18.5M15.6803 20V22M16 8C14 3 5.5 5 7 11C10.8767 10.8061 12.8659 10.0623 16 8Z" stroke="black" stroke-width="2" stroke-linecap="round" stroke-linejoin="round"/>
</svg>
