<svg width="24" height="24" viewBox="0 0 24 24" fill="none" xmlns="http://www.w3.org/2000/svg">
<path d="M5.93606 22C6.42327 20.5 6.70992 19.4709 6.42327 18C5.93606 15.5 3.5 14 3.5 9C3.5 8.65774 3.53016 8.3241 3.58744 8H19.0908C19.0908 8.68262 18.8638 9.36525 18.7197 10.0479C18.5906 10.659 18.794 11.2735 19.1481 11.7823L20.3181 13.4634C20.6854 13.991 20.4738 14.7323 19.8871 14.9731L18.6036 15.5C18.6036 19.5 18 20 15.6803 20M15.6803 20C13.7315 20 12.2698 19.5 11.2954 18.5M15.6803 20V22M10.9633 2C14.6402 2 17.5 4.5 17.5 8H4.5C5.03099 4.41654 7.5 2 10.9633 2Z" stroke="black" stroke-width="2" stroke-linecap="round" stroke-linejoin="round"/>
</svg>
