<svg width="24" height="24" viewBox="0 0 24 24" fill="none" xmlns="http://www.w3.org/2000/svg">
<path d="M15 6H17L19 4M15 9H17L20 8M15 11.9999H21M15 18.5H17L19 20.5M15 15.5H17L20 16.5M12 19.3278C11.7098 20.2743 11.1103 20.9999 9.95402 20.9999C6.62885 20.9999 4.83818 18.9999 6.37356 16.4999C2.79227 16.4999 2.28097 13.4999 3.81609 11.9999C2.28097 10.4998 2.79227 7.49984 6.37356 7.49989C4.83818 4.99984 6.62885 2.99983 9.95402 2.99988C11.1104 2.99989 11.7099 3.72548 12 4.67199L12 19.3278Z" stroke="black" stroke-width="2" stroke-linecap="round" stroke-linejoin="round"/>
</svg>
