<svg width="24" height="24" viewBox="0 0 24 24" fill="none" xmlns="http://www.w3.org/2000/svg">
<path d="M22 12V17C22 18.6569 20.6569 20 19 20H5C3.34315 20 2 18.6569 2 17V10C2 8.34315 3.34315 7 5 7H6.26393C7.02148 7 7.714 6.572 8.05279 5.89443L8.44721 5.10557C8.786 4.428 9.47852 4 10.2361 4H11M14.0952 11.5C14.6556 12.0839 15 12.8768 15 13.75C15 15.5449 13.5449 17 11.75 17C9.95507 17 8.5 15.5449 8.5 13.75C8.5 12.8283 8.88366 11.9963 9.5 11.4048M21 3V9M13 7L15 3L17 7M13 7L12 9M13 7H17M18 9L17 7" stroke="black" stroke-width="2" stroke-linecap="round" stroke-linejoin="round"/>
</svg>
