<svg width="24" height="24" viewBox="0 0 24 24" fill="none" xmlns="http://www.w3.org/2000/svg">
<path fill-rule="evenodd" clip-rule="evenodd" d="M18.1377 3.69154C18.0398 3.27137 17.7383 3.0492 17.544 2.95423C17.348 2.85848 17.1532 2.83081 17 2.83081C16.8468 2.83081 16.652 2.85848 16.456 2.95423C16.2617 3.0492 15.9602 3.27137 15.8623 3.69154C15.793 3.98921 15.6994 4.31135 15.5784 4.60024C15.453 4.89949 15.3236 5.10146 15.2125 5.21255C15.1014 5.32364 14.8995 5.45306 14.6002 5.57841C14.3113 5.69941 13.9892 5.79305 13.6915 5.86236C13.2713 5.9602 13.0492 6.26171 12.9542 6.45605C12.8585 6.65199 12.8308 6.84679 12.8308 7.00002C12.8308 7.15325 12.8585 7.34805 12.9542 7.54399C13.0492 7.73833 13.2713 8.03985 13.6915 8.13769C13.9892 8.207 14.3113 8.30063 14.6002 8.42164C14.8995 8.54698 15.1014 8.6764 15.2125 8.78749C15.3236 8.89858 15.453 9.10055 15.5784 9.3998C15.6994 9.68869 15.793 10.0108 15.8623 10.3085C15.9602 10.7287 16.2617 10.9508 16.456 11.0458C16.652 11.1416 16.8468 11.1692 17 11.1692C17.1532 11.1692 17.348 11.1416 17.544 11.0458C17.7383 10.9508 18.0398 10.7287 18.1377 10.3085C18.207 10.0108 18.3006 9.68869 18.4216 9.3998C18.547 9.10055 18.6764 8.89858 18.7875 8.78749C18.8986 8.6764 19.1005 8.54698 19.3998 8.42164C19.6887 8.30063 20.0108 8.207 20.3085 8.13769C20.7287 8.03985 20.9508 7.73833 21.0458 7.54399C21.1415 7.34805 21.1692 7.15325 21.1692 7.00002C21.1692 6.84679 21.1415 6.65199 21.0458 6.45605C20.9508 6.26171 20.7287 5.9602 20.3085 5.86236C20.0108 5.79305 19.6887 5.69941 19.3998 5.57841C19.1005 5.45306 18.8986 5.32364 18.7875 5.21255C18.6764 5.10146 18.547 4.89949 18.4216 4.60024C18.3006 4.31135 18.207 3.98921 18.1377 3.69154ZM16.6267 6.62677C16.7675 6.48596 16.8912 6.33108 17 6.17035C17.1088 6.33108 17.2325 6.48596 17.3733 6.62677C17.5141 6.76757 17.6689 6.89124 17.8297 7.00002C17.6689 7.10881 17.5141 7.23247 17.3733 7.37328C17.2325 7.51408 17.1088 7.66896 17 7.8297C16.8912 7.66896 16.7675 7.51408 16.6267 7.37328C16.4859 7.23247 16.3311 7.10881 16.1703 7.00002C16.3311 6.89124 16.4859 6.76757 16.6267 6.62677ZM9.34164 5.55281C9.51103 5.21402 9.8573 5.00002 10.2361 5.00002H12C12.5523 5.00002 13 4.55231 13 4.00002C13 3.44774 12.5523 3.00002 12 3.00002H10.2361C9.09975 3.00002 8.06096 3.64203 7.55279 4.65838L7.15836 5.44724C6.98897 5.78602 6.6427 6.00002 6.26393 6.00002H5C2.79086 6.00002 1 7.79088 1 10V17C1 19.2092 2.79086 21 5 21H19C21.2091 21 23 19.2092 23 17V11C23 10.4477 22.5523 10 22 10C21.4477 10 21 10.4477 21 11V17C21 18.1046 20.1046 19 19 19H5C3.89543 19 3 18.1046 3 17V10C3 8.89545 3.89543 8.00002 5 8.00002H6.26393C7.40025 8.00002 8.43904 7.35802 8.94721 6.34166L9.34164 5.55281ZM9.5721 11.4476C10.0251 11.1316 10.1361 10.5082 9.82018 10.0553C9.50422 9.60229 8.88088 9.49122 8.4279 9.80718C7.26453 10.6187 6.5 11.97 6.5 13.5C6.5 15.9853 8.51472 18 11 18C12.7966 18 14.3453 16.9471 15.0664 15.4291C15.3034 14.9303 15.0911 14.3337 14.5923 14.0968C14.0934 13.8598 13.4969 14.0721 13.2599 14.5709C12.8576 15.4179 11.9958 16 11 16C9.61929 16 8.5 14.8807 8.5 13.5C8.5 12.6513 8.92198 11.901 9.5721 11.4476ZM13.4304 8.81235C13.5892 9.23365 13.8012 9.64013 14.0807 9.91968C14.3603 10.1992 14.7668 10.4112 15.1881 10.57C15.4123 10.6545 15.4123 11.3456 15.1881 11.4301C14.7668 11.5889 14.3603 11.8009 14.0807 12.0804C13.8012 12.36 13.5892 12.7664 13.4304 13.1877C13.3459 13.412 12.6549 13.412 12.5704 13.1877C12.4116 12.7664 12.1996 12.36 11.92 12.0804C11.6405 11.8009 11.234 11.5889 10.8127 11.4301C10.5885 11.3456 10.5885 10.6545 10.8127 10.57C11.234 10.4112 11.6405 10.1992 11.92 9.91968C12.1996 9.64013 12.4116 9.23365 12.5704 8.81235C12.6549 8.58813 13.3459 8.58813 13.4304 8.81235Z" fill="black"/>
</svg>
