<svg width="24" height="24" viewBox="0 0 24 24" fill="none" xmlns="http://www.w3.org/2000/svg">
<path d="M22 12V17C22 18.6569 20.6569 20 19 20H5C3.34315 20 2 18.6569 2 17V10C2 8.34315 3.34315 7 5 7H6.26393C7.02148 7 7.714 6.572 8.05279 5.89443L8.44721 5.10557C8.786 4.428 9.47852 4 10.2361 4H11M10 10.6273C9.09326 11.2598 8.5 12.3106 8.5 13.5C8.5 15.433 10.067 17 12 17C13.3962 17 14.6015 16.1825 15.1632 15M17 3.74316C17.129 3.32251 17.3954 3.00006 17.9093 3.00005C19.3872 3.00003 20.183 3.88892 19.5006 5.00004C21.0923 5.00002 21.3196 6.33334 20.6373 7.00002C21.3196 7.6667 21.0923 9.00003 19.5006 9.00001C20.183 10.1111 19.3872 11 17.9093 11C17.3954 11 17.1289 10.6775 17 10.2568M17 3.74316C16.8711 3.32249 16.6046 3.00001 16.0907 3C14.6128 2.99998 13.817 3.88886 14.4994 4.99999C12.9077 4.99997 12.6804 6.33328 13.3627 6.99996C12.6804 7.66665 12.9077 8.99998 14.4994 8.99996C13.817 10.1111 14.6128 11 16.0907 10.9999C16.6046 10.9999 16.871 10.6775 17 10.2568M17 3.74316L17 5.2222M17 10.2568L17 8.77773" stroke="black" stroke-width="2" stroke-linecap="round" stroke-linejoin="round"/>
</svg>
