<svg width="24" height="24" viewBox="0 0 24 24" fill="none" xmlns="http://www.w3.org/2000/svg">
<path d="M22 11V17C22 18.6569 20.6569 20 19 20H5C3.34315 20 2 18.6569 2 17V10C2 8.34315 3.34315 7 5 7H6.26393C7.02148 7 7.714 6.572 8.05279 5.89443L8.44721 5.10557C8.786 4.428 9.47852 4 10.2361 4H12M10 10.6273C9.09326 11.2598 8.5 12.3106 8.5 13.5C8.5 15.433 10.067 17 12 17C13.3962 17 14.6015 16.1825 15.1632 15M17.3505 6.64955C16.6914 5.99052 16.3328 4.76715 16.154 3.91953C16.1293 3.8023 15.8707 3.8023 15.846 3.91953C15.6672 4.76715 15.3086 5.99052 14.6495 6.64955C13.9905 7.30857 12.7672 7.66719 11.9195 7.846C11.8023 7.87073 11.8023 8.12927 11.9195 8.154C12.7672 8.33281 13.9905 8.69143 14.6495 9.35045C15.3086 10.0095 15.6672 11.2328 15.846 12.0805C15.8707 12.1977 16.1293 12.1977 16.154 12.0805C16.3328 11.2328 16.6914 10.0095 17.3505 9.35045C18.0095 8.69143 19.2328 8.33281 20.0805 8.154C20.1977 8.12927 20.1977 7.87073 20.0805 7.846C19.2328 7.66719 18.0095 7.30857 17.3505 6.64955Z" stroke="black" stroke-width="2" stroke-linecap="round" stroke-linejoin="round"/>
</svg>
