<svg width="24" height="24" viewBox="0 0 24 24" fill="none" xmlns="http://www.w3.org/2000/svg">
<path d="M12 6.74316C12.129 6.32251 12.3954 6.00006 12.9093 6.00005C14.3872 6.00003 15.183 6.88892 14.5006 8.00004C16.0923 8.00002 16.3196 9.33334 15.6373 10C16.3196 10.6667 16.0923 12 14.5006 12C15.183 13.1111 14.3872 14 12.9093 14C12.3954 14 12.1289 13.6775 12 13.2568M12 6.74316C11.8711 6.32249 11.6046 6.00001 11.0907 6C9.61282 5.99998 8.81697 6.88886 9.49936 7.99999C7.90768 7.99997 7.68043 9.33328 8.36271 9.99996C7.68043 10.6666 7.90768 12 9.49936 12C8.81697 13.1111 9.61282 14 11.0907 13.9999C11.6046 13.9999 11.871 13.6775 12 13.2568M12 6.74316L12 8.2222M12 13.2568L12 11.7777M16.5 17H18C19.6569 17 21 15.6569 21 14V6C21 4.34315 19.6569 3 18 3H6C4.34315 3 3 4.34315 3 6V14C3 15.6569 4.34315 17 6 17H7.5C8.44427 17 9.33344 17.4446 9.9 18.2L10.4 18.8667C11.2 19.9333 12.8 19.9333 13.6 18.8667L14.1 18.2C14.6666 17.4446 15.5557 17 16.5 17Z" stroke="black" stroke-width="2" stroke-linecap="round" stroke-linejoin="round"/>
</svg>
