<svg width="24" height="24" viewBox="0 0 24 24" fill="none" xmlns="http://www.w3.org/2000/svg">
<path fill-rule="evenodd" clip-rule="evenodd" d="M4 6C4 4.89543 4.89543 4 6 4H18C19.1046 4 20 4.89543 20 6V14C20 15.1046 19.1046 16 18 16H16.5C15.241 16 14.0554 16.5928 13.3 17.6L12.8 18.2667C12.4 18.8 11.6 18.8 11.2 18.2667L10.7 17.6C9.94458 16.5928 8.75903 16 7.5 16H6C4.89543 16 4 15.1046 4 14V6ZM6 2C3.79086 2 2 3.79086 2 6V14C2 16.2091 3.79086 18 6 18H7.5C8.12951 18 8.72229 18.2964 9.1 18.8L9.6 19.4667C10.8 21.0667 13.2 21.0667 14.4 19.4667L14.9 18.8C15.2777 18.2964 15.8705 18 16.5 18H18C20.2091 18 22 16.2091 22 14V6C22 3.79086 20.2091 2 18 2H6ZM10.1377 5.69152C10.0398 5.27135 9.73831 5.04918 9.54397 4.95421C9.34803 4.85846 9.15323 4.83079 9 4.83079C8.84677 4.83079 8.65197 4.85846 8.45603 4.95421C8.26169 5.04918 7.96017 5.27135 7.86234 5.69152C7.79303 5.98919 7.69939 6.31133 7.57838 6.60022C7.45304 6.89947 7.32362 7.10144 7.21253 7.21253C7.10144 7.32362 6.89947 7.45304 6.60022 7.57838C6.31133 7.69939 5.98919 7.79303 5.69152 7.86234C5.27135 7.96017 5.04918 8.26169 4.95421 8.45603C4.85846 8.65197 4.83079 8.84677 4.83079 9C4.83079 9.15323 4.85846 9.34803 4.95421 9.54397C5.04918 9.73831 5.27135 10.0398 5.69152 10.1377C5.98919 10.207 6.31133 10.3006 6.60022 10.4216C6.89947 10.547 7.10144 10.6764 7.21253 10.7875C7.32362 10.8986 7.45304 11.1005 7.57838 11.3998C7.69939 11.6887 7.79303 12.0108 7.86234 12.3085C7.96017 12.7287 8.26169 12.9508 8.45603 13.0458C8.65197 13.1415 8.84677 13.1692 9 13.1692C9.15323 13.1692 9.34803 13.1415 9.54397 13.0458C9.73831 12.9508 10.0398 12.7287 10.1377 12.3085C10.207 12.0108 10.3006 11.6887 10.4216 11.3998C10.547 11.1005 10.6764 10.8986 10.7875 10.7875C10.8986 10.6764 11.1005 10.547 11.3998 10.4216C11.6887 10.3006 12.0108 10.207 12.3085 10.1377L12.0817 9.16372L12.3085 10.1377C12.7287 10.0398 12.9508 9.73831 13.0458 9.54397C13.1415 9.34803 13.1692 9.15323 13.1692 9C13.1692 8.84677 13.1415 8.65197 13.0458 8.45603C12.9508 8.26169 12.7287 7.96017 12.3085 7.86234C12.0108 7.79303 11.6887 7.69939 11.3998 7.57838C11.1005 7.45304 10.8986 7.32362 10.7875 7.21253C10.6764 7.10144 10.547 6.89947 10.4216 6.60022C10.3006 6.31133 10.207 5.98919 10.1377 5.69152ZM8.62674 8.62674C8.76755 8.48594 8.89122 8.33106 9 8.17033C9.10878 8.33106 9.23245 8.48594 9.37326 8.62674C9.51406 8.76755 9.66894 8.89122 9.82967 9C9.66894 9.10878 9.51406 9.23245 9.37326 9.37326C9.23245 9.51406 9.10878 9.66894 9 9.82967C8.89122 9.66894 8.76755 9.51406 8.62674 9.37326C8.48594 9.23245 8.33106 9.10878 8.17033 9C8.33106 8.89122 8.48594 8.76755 8.62674 8.62674ZM16.4304 9.81233C16.5892 10.2336 16.8012 10.6401 17.0807 10.9197C17.3603 11.1992 17.7668 11.4112 18.1881 11.57C18.4123 11.6545 18.4123 12.3455 18.1881 12.4301C17.7668 12.5889 17.3603 12.8008 17.0807 13.0804C16.8012 13.3599 16.5892 13.7664 16.4304 14.1877C16.3459 14.4119 15.6549 14.4119 15.5704 14.1877C15.4116 13.7664 15.1996 13.3599 14.92 13.0804C14.6405 12.8008 14.234 12.5889 13.8127 12.4301C13.5885 12.3455 13.5885 11.6545 13.8127 11.57C14.234 11.4112 14.6405 11.1992 14.92 10.9197C15.1996 10.6401 15.4116 10.2336 15.5704 9.81233C15.6549 9.58811 16.3459 9.58811 16.4304 9.81233Z" fill="black"/>
</svg>
