<svg width="24" height="24" viewBox="0 0 24 24" fill="none" xmlns="http://www.w3.org/2000/svg">
<path fill-rule="evenodd" clip-rule="evenodd" d="M4 6C4 4.89543 4.89543 4 6 4H18C19.1046 4 20 4.89543 20 6V14C20 15.1046 19.1046 16 18 16H16.5C15.241 16 14.0554 16.5928 13.3 17.6L12.8 18.2667C12.4 18.8 11.6 18.8 11.2 18.2667L10.7 17.6C9.94458 16.5928 8.75903 16 7.5 16H6C4.89543 16 4 15.1046 4 14V6ZM6 2C3.79086 2 2 3.79086 2 6V14C2 16.2091 3.79086 18 6 18H7.5C8.12951 18 8.72229 18.2964 9.1 18.8L9.6 19.4667C10.8 21.0667 13.2 21.0667 14.4 19.4667L14.9 18.8C15.2777 18.2964 15.8705 18 16.5 18H18C20.2091 18 22 16.2091 22 14V6C22 3.79086 20.2091 2 18 2H6ZM13.1377 5.69152C13.0398 5.27135 12.7383 5.04918 12.544 4.95421C12.348 4.85846 12.1532 4.83079 12 4.83079C11.8468 4.83079 11.652 4.85846 11.456 4.95421C11.2617 5.04918 10.9602 5.27135 10.8623 5.69152C10.793 5.98919 10.6994 6.31133 10.5784 6.60022C10.453 6.89947 10.3236 7.10144 10.2125 7.21253C10.1014 7.32362 9.89947 7.45304 9.60022 7.57838C9.31133 7.69939 8.98919 7.79303 8.69152 7.86234C8.27135 7.96017 8.04918 8.26169 7.95421 8.45603C7.85846 8.65197 7.83079 8.84677 7.83079 9C7.83079 9.15323 7.85846 9.34803 7.95421 9.54397C8.04918 9.73831 8.27135 10.0398 8.69152 10.1377C8.98919 10.207 9.31133 10.3006 9.60022 10.4216C9.89947 10.547 10.1014 10.6764 10.2125 10.7875C10.3236 10.8986 10.453 11.1005 10.5784 11.3998C10.6994 11.6887 10.793 12.0108 10.8623 12.3085C10.9602 12.7287 11.2617 12.9508 11.456 13.0458C11.652 13.1415 11.8468 13.1692 12 13.1692C12.1532 13.1692 12.348 13.1415 12.544 13.0458C12.7383 12.9508 13.0398 12.7287 13.1377 12.3085C13.207 12.0108 13.3006 11.6887 13.4216 11.3998C13.547 11.1005 13.6764 10.8986 13.7875 10.7875C13.8986 10.6764 14.1005 10.547 14.3998 10.4216C14.6887 10.3006 15.0108 10.207 15.3085 10.1377L15.0817 9.16372L15.3085 10.1377C15.7287 10.0398 15.9508 9.73831 16.0458 9.54397C16.1415 9.34803 16.1692 9.15323 16.1692 9C16.1692 8.84677 16.1415 8.65197 16.0458 8.45603C15.9508 8.26169 15.7287 7.96017 15.3085 7.86234C15.0108 7.79303 14.6887 7.69939 14.3998 7.57838C14.1005 7.45304 13.8986 7.32362 13.7875 7.21253C13.6764 7.10144 13.547 6.89947 13.4216 6.60022C13.3006 6.31133 13.207 5.98919 13.1377 5.69152ZM11.6267 8.62674C11.7675 8.48594 11.8912 8.33106 12 8.17032C12.1088 8.33106 12.2325 8.48594 12.3733 8.62674C12.5141 8.76755 12.6689 8.89122 12.8297 9C12.6689 9.10878 12.5141 9.23245 12.3733 9.37326C12.2325 9.51406 12.1088 9.66894 12 9.82968C11.8912 9.66894 11.7675 9.51406 11.6267 9.37326C11.4859 9.23245 11.3311 9.10878 11.1703 9C11.3311 8.89122 11.4859 8.76755 11.6267 8.62674ZM8.43042 10.8123C8.3459 10.5881 7.65487 10.5881 7.57035 10.8123C7.41156 11.2336 7.19957 11.6401 6.92002 11.9197C6.64047 12.1992 6.23399 12.4112 5.8127 12.57C5.58848 12.6545 5.58848 13.3455 5.8127 13.4301C6.23399 13.5889 6.64047 13.8008 6.92002 14.0804C7.19957 14.3599 7.41156 14.7664 7.57035 15.1877C7.65487 15.4119 8.3459 15.4119 8.43042 15.1877C8.58922 14.7664 8.8012 14.3599 9.08075 14.0804C9.3603 13.8008 9.76678 13.5889 10.1881 13.4301C10.4123 13.3455 10.4123 12.6545 10.1881 12.57C9.76678 12.4112 9.3603 12.1992 9.08075 11.9197C8.8012 11.6401 8.58922 11.2336 8.43042 10.8123ZM16.4304 10.8123C16.5892 11.2336 16.8012 11.6401 17.0808 11.9197C17.3603 12.1992 17.7668 12.4112 18.1881 12.57C18.4123 12.6545 18.4123 13.3455 18.1881 13.4301C17.7668 13.5889 17.3603 13.8008 17.0808 14.0804C16.8012 14.3599 16.5892 14.7664 16.4304 15.1877C16.3459 15.4119 15.6549 15.4119 15.5704 15.1877C15.4116 14.7664 15.1996 14.3599 14.92 14.0804C14.6405 13.8008 14.234 13.5889 13.8127 13.4301C13.5885 13.3455 13.5885 12.6545 13.8127 12.57C14.234 12.4112 14.6405 12.1992 14.92 11.9197C15.1996 11.6401 15.4116 11.2336 15.5704 10.8123C15.6549 10.5881 16.3459 10.5881 16.4304 10.8123Z" fill="black"/>
</svg>
