<svg width="24" height="24" viewBox="0 0 24 24" fill="none" xmlns="http://www.w3.org/2000/svg">
<path d="M16.5 9V15M13.5 15L12.5 13M7.5 15L8.5 13M8.5 13L10.5 9L12.5 13M8.5 13H12.5M12 4.22222V2M12 4.22222H8.11111M12 4.22222H15.8889M8.11111 4.22222H7.55556C5.71461 4.22222 4.22222 5.71461 4.22222 7.55556V8.11111M8.11111 4.22222V2M15.8889 4.22222H16.4444C18.2854 4.22222 19.7778 5.71461 19.7778 7.55556V8.11111M15.8889 4.22222V2M19.7778 12H22M19.7778 12V8.11111M19.7778 12V15.8889M19.7778 8.11111H22M19.7778 15.8889V16.4444C19.7778 18.2854 18.2854 19.7778 16.4444 19.7778H15.8889M19.7778 15.8889H22M12 19.7778V22M12 19.7778H15.8889M12 19.7778H8.11111M15.8889 19.7778V22M8.11111 19.7778H7.55556C5.71461 19.7778 4.22222 18.2854 4.22222 16.4444V15.8889M8.11111 19.7778V22M4.22222 12H2M4.22222 12V15.8889M4.22222 12V8.11111M4.22222 15.8889H2M4.22222 8.11111H2" stroke="black" stroke-width="2" stroke-linecap="round" stroke-linejoin="round"/>
</svg>
