<svg width="24" height="24" viewBox="0 0 24 24" fill="none" xmlns="http://www.w3.org/2000/svg">
<path d="M16 7V9M15 8H17M12 4.22222V2M12 4.22222H8.11111M12 4.22222H15.8889M8.11111 4.22222H7.55556C5.71461 4.22222 4.22222 5.71461 4.22222 7.55556V8.11111M8.11111 4.22222V2M15.8889 4.22222H16.4444C18.2854 4.22222 19.7778 5.71461 19.7778 7.55556V8.11111M15.8889 4.22222V2M19.7778 12H22M19.7778 12V8.11111M19.7778 12V15.8889M19.7778 8.11111H22M19.7778 15.8889V16.4444C19.7778 18.2854 18.2854 19.7778 16.4444 19.7778H15.8889M19.7778 15.8889H22M12 19.7778V22M12 19.7778H15.8889M12 19.7778H8.11111M15.8889 19.7778V22M8.11111 19.7778H7.55556C5.71461 19.7778 4.22222 18.2854 4.22222 16.4444V15.8889M8.11111 19.7778V22M4.22222 12H2M4.22222 12V15.8889M4.22222 12V8.11111M4.22222 15.8889H2M4.22222 8.11111H2M11.5804 12.4196C11.0989 11.9381 10.8178 11.08 10.6637 10.4183C10.6365 10.3016 10.3635 10.3016 10.3363 10.4183C10.1822 11.08 9.90115 11.9381 9.41964 12.4196C8.93813 12.9011 8.08005 13.1822 7.41831 13.3363C7.30162 13.3635 7.30162 13.6365 7.41831 13.6637C8.08005 13.8178 8.93813 14.0989 9.41964 14.5804C9.90115 15.0619 10.1822 15.92 10.3363 16.5817C10.3635 16.6984 10.6365 16.6984 10.6637 16.5817C10.8178 15.92 11.0989 15.0619 11.5804 14.5804C12.0619 14.0989 12.92 13.8178 13.5817 13.6637C13.6984 13.6365 13.6984 13.3635 13.5817 13.3363C12.92 13.1822 12.0619 12.9011 11.5804 12.4196Z" stroke="black" stroke-width="2" stroke-linecap="round" stroke-linejoin="round"/>
</svg>
