<svg width="24" height="24" viewBox="0 0 24 24" fill="none" xmlns="http://www.w3.org/2000/svg">
<path d="M12 4.22222V2M12 4.22222H8.11111M12 4.22222H15.8889M8.11111 4.22222H7.55556C5.71461 4.22222 4.22222 5.71461 4.22222 7.55556V8.11111M8.11111 4.22222V2M15.8889 4.22222H16.4444C18.2854 4.22222 19.7778 5.71461 19.7778 7.55556V8.11111M15.8889 4.22222V2M19.7778 12H22M19.7778 12V8.11111M19.7778 12V15.8889M19.7778 8.11111H22M19.7778 15.8889V16.4444C19.7778 18.2854 18.2854 19.7778 16.4444 19.7778H15.8889M19.7778 15.8889H22M12 19.7778V22M12 19.7778H15.8889M12 19.7778H8.11111M15.8889 19.7778V22M8.11111 19.7778H7.55556C5.71461 19.7778 4.22222 18.2854 4.22222 16.4444V15.8889M8.11111 19.7778V22M4.22222 12H2M4.22222 12V15.8889M4.22222 12V8.11111M4.22222 15.8889H2M4.22222 8.11111H2M8.36271 12C7.68043 12.6666 7.90768 14 9.49936 14C8.81697 15.1111 9.61282 16 11.0907 15.9999C11.6046 15.9999 11.871 15.6775 12 15.2568C12.1289 15.6775 12.3954 16 12.9093 16C14.3872 16 15.183 15.1111 14.5006 14C16.0923 14 16.3196 12.6667 15.6373 12C16.3196 11.3333 16.0923 10 14.5006 10C15.183 8.88892 14.3872 8.00003 12.9093 8.00005C12.3954 8.00006 12.129 8.32251 12 8.74316C11.8711 8.32249 11.6046 8.00001 11.0907 8C9.61282 7.99998 8.81697 8.88886 9.49936 9.99999C7.90768 9.99997 7.68043 11.3333 8.36271 12Z" stroke="black" stroke-width="2" stroke-linecap="round" stroke-linejoin="round"/>
</svg>
