<svg width="24" height="24" viewBox="0 0 24 24" fill="none" xmlns="http://www.w3.org/2000/svg">
<path d="M8 12.1111V11M8 12.1111H6.05556M8 12.1111H9.94444M6.05556 12.1111H5.77778C4.8573 12.1111 4.11111 12.8573 4.11111 13.7778V14.0556M6.05556 12.1111V11M9.94444 12.1111H10.2222C11.1427 12.1111 11.8889 12.8573 11.8889 13.7778V14.0556M9.94444 12.1111V11M11.8889 16H13M11.8889 16V14.0556M11.8889 16V17.9444M11.8889 14.0556H13M11.8889 17.9444V18.2222C11.8889 19.1427 11.1427 19.8889 10.2222 19.8889H9.94444M11.8889 17.9444H13M8 19.8889V21M8 19.8889H9.94444M8 19.8889H6.05556M9.94444 19.8889V21M6.05556 19.8889H5.77778C4.8573 19.8889 4.11111 19.1427 4.11111 18.2222V17.9444M6.05556 19.8889V21M4.11111 16H3M4.11111 16V17.9444M4.11111 16V14.0556M4.11111 17.9444H3M4.11111 14.0556H3M17.3505 6.64955C16.6914 5.99052 16.3328 4.76715 16.154 3.91953C16.1293 3.8023 15.8707 3.8023 15.846 3.91953C15.6672 4.76715 15.3086 5.99052 14.6495 6.64955C13.9905 7.30857 12.7672 7.66719 11.9195 7.846C11.8023 7.87073 11.8023 8.12927 11.9195 8.154C12.7672 8.33281 13.9905 8.69143 14.6495 9.35045C15.3086 10.0095 15.6672 11.2328 15.846 12.0805C15.8707 12.1977 16.1293 12.1977 16.154 12.0805C16.3328 11.2328 16.6914 10.0095 17.3505 9.35045C18.0095 8.69143 19.2328 8.33281 20.0805 8.154C20.1977 8.12927 20.1977 7.87073 20.0805 7.846C19.2328 7.66719 18.0095 7.30857 17.3505 6.64955Z" stroke="black" stroke-width="2" stroke-linecap="round" stroke-linejoin="round"/>
</svg>
