<svg width="24" height="24" viewBox="0 0 24 24" fill="none" xmlns="http://www.w3.org/2000/svg">
<path d="M12 4.22222V2M12 4.22222H8.11111M12 4.22222H15.8889M8.11111 4.22222H7.55556C5.71461 4.22222 4.22222 5.71461 4.22222 7.55556V8.11111M8.11111 4.22222V2M15.8889 4.22222H16.4444C18.2854 4.22222 19.7778 5.71461 19.7778 7.55556V8.11111M15.8889 4.22222V2M19.7778 12H22M19.7778 12V8.11111M19.7778 12V15.8889M19.7778 8.11111H22M19.7778 15.8889V16.4444C19.7778 18.2854 18.2854 19.7778 16.4444 19.7778H15.8889M19.7778 15.8889H22M12 19.7778V22M12 19.7778H15.8889M12 19.7778H8.11111M15.8889 19.7778V22M8.11111 19.7778H7.55556C5.71461 19.7778 4.22222 18.2854 4.22222 16.4444V15.8889M8.11111 19.7778V22M4.22222 12H2M4.22222 12V15.8889M4.22222 12V8.11111M4.22222 15.8889H2M4.22222 8.11111H2M13.3505 10.6495C12.6914 9.99052 12.3328 8.76715 12.154 7.91953C12.1293 7.8023 11.8707 7.8023 11.846 7.91953C11.6672 8.76715 11.3086 9.99052 10.6495 10.6495C9.99052 11.3086 8.76715 11.6672 7.91953 11.846C7.8023 11.8707 7.8023 12.1293 7.91953 12.154C8.76715 12.3328 9.99052 12.6914 10.6495 13.3505C11.3086 14.0095 11.6672 15.2328 11.846 16.0805C11.8707 16.1977 12.1293 16.1977 12.154 16.0805C12.3328 15.2328 12.6914 14.0095 13.3505 13.3505C14.0095 12.6914 15.2328 12.3328 16.0805 12.154C16.1977 12.1293 16.1977 11.8707 16.0805 11.846C15.2328 11.6672 14.0095 11.3086 13.3505 10.6495Z" stroke="black" stroke-width="2" stroke-linecap="round" stroke-linejoin="round"/>
</svg>
