<svg width="24" height="24" viewBox="0 0 24 24" fill="none" xmlns="http://www.w3.org/2000/svg">
<path fill-rule="evenodd" clip-rule="evenodd" d="M17.1325 3.71306C17.0467 3.30652 16.7667 3.07395 16.5613 2.96683C16.361 2.86239 16.1596 2.83154 16 2.83154C15.8404 2.83154 15.639 2.86239 15.4387 2.96683C15.2333 3.07395 14.9533 3.30652 14.8675 3.71306C14.7849 4.1049 14.6643 4.56447 14.4973 4.98914C14.3248 5.42746 14.132 5.75281 13.9424 5.94237C13.7529 6.13193 13.4275 6.32478 12.9892 6.49719C12.5645 6.66424 12.105 6.7848 11.7131 6.86746C11.3066 6.95322 11.074 7.23323 10.9669 7.43865C10.8625 7.63894 10.8316 7.84038 10.8316 7.99993C10.8316 8.15949 10.8625 8.36092 10.9669 8.56121C11.074 8.76663 11.3066 9.04664 11.7131 9.1324C12.105 9.21506 12.5645 9.33563 12.9892 9.50267C13.4275 9.67509 13.7529 9.86794 13.9424 10.0575C14.132 10.2471 14.3248 10.5724 14.4973 11.0107C14.6643 11.4354 14.7849 11.895 14.8675 12.2868C14.9533 12.6933 15.2333 12.9259 15.4387 13.033C15.639 13.1375 15.8404 13.1683 16 13.1683C16.1596 13.1683 16.361 13.1375 16.5613 13.033C16.7667 12.9259 17.0467 12.6933 17.1325 12.2868C17.2151 11.895 17.3357 11.4354 17.5027 11.0107C17.6752 10.5724 17.868 10.2471 18.0576 10.0575C18.2471 9.86794 18.5725 9.67509 19.0108 9.50267C19.4355 9.33563 19.895 9.21506 20.2869 9.1324C20.6934 9.04664 20.926 8.76663 21.0331 8.56121C21.1375 8.36092 21.1684 8.15949 21.1684 7.99993C21.1684 7.84038 21.1375 7.63895 21.0331 7.43865C20.926 7.23323 20.6934 6.95322 20.2869 6.86746C19.895 6.7848 19.4355 6.66424 19.0108 6.49719C18.5725 6.32478 18.2471 6.13193 18.0576 5.94237C17.868 5.75281 17.6752 5.42746 17.5027 4.98914C17.3357 4.56447 17.2151 4.1049 17.1325 3.71306ZM15.3567 7.35658C15.6144 7.09884 15.8259 6.79698 16 6.48611C16.1741 6.79698 16.3856 7.09884 16.6433 7.35658C16.9011 7.61433 17.203 7.82581 17.5138 7.99993C17.203 8.17406 16.9011 8.38554 16.6433 8.64328C16.3856 8.90102 16.1741 9.20289 16 9.51375C15.8259 9.20289 15.6144 8.90102 15.3567 8.64328C15.0989 8.38554 14.797 8.17406 14.4862 7.99993C14.797 7.82581 15.0989 7.61433 15.3567 7.35658ZM9.36057 11.2296C9.8757 11.0304 10.1319 10.4514 9.93273 9.93628C9.73359 9.42114 9.15456 9.16498 8.63943 9.36412C6.78113 10.0825 5.41503 11.7968 5.22315 13.8559C3.38264 14.2754 2 15.909 2 17.8756C2 20.163 3.87043 21.9999 6.15625 21.9999H7H11.0219H15.0437C17.7714 21.9999 20 19.8084 20 17.0837C20 15.8386 19.5321 14.7007 18.7647 13.8361C18.398 13.423 17.766 13.3854 17.353 13.7521C16.9399 14.1187 16.9023 14.7507 17.2689 15.1638C17.7256 15.6783 18 16.3488 18 17.0837C18 18.6847 16.6861 19.9999 15.0437 19.9999H11.0219H7H6.15625C4.95577 19.9999 4 19.0393 4 17.8756C4 16.712 4.95577 15.7513 6.15625 15.7513H6.21794C6.49892 15.7513 6.76694 15.6331 6.9564 15.4256C7.14587 15.2181 7.23929 14.9405 7.21382 14.6607C7.20469 14.5604 7.2 14.4585 7.2 14.3554C7.2 12.9404 8.08937 11.721 9.36057 11.2296ZM6.43042 3.81214C6.58922 4.23344 6.8012 4.63992 7.08075 4.91947C7.3603 5.19902 7.76678 5.411 8.18808 5.5698C8.4123 5.65431 8.4123 6.34535 8.18808 6.42986C7.76678 6.58866 7.3603 6.80064 7.08075 7.08019C6.8012 7.35975 6.58922 7.76623 6.43042 8.18752C6.3459 8.41174 5.65487 8.41174 5.57035 8.18752C5.41156 7.76623 5.19957 7.35975 4.92002 7.08019C4.64047 6.80064 4.23399 6.58866 3.8127 6.42986C3.58848 6.34535 3.58848 5.65431 3.8127 5.5698C4.23399 5.411 4.64047 5.19902 4.92002 4.91947C5.19957 4.63992 5.41156 4.23344 5.57035 3.81214C5.65487 3.58792 6.3459 3.58792 6.43042 3.81214Z" fill="black"/>
</svg>
