<svg width="24" height="24" viewBox="0 0 24 24" fill="none" xmlns="http://www.w3.org/2000/svg">
<path d="M18.0168 13.5C18.6289 14.1895 19 15.0937 19 16.0838C19 18.2466 17.2287 20 15.0437 20H11.0219H7H6.15625C4.4131 20 3 18.6012 3 16.8757C3 15.1502 4.4131 13.7514 6.15625 13.7514H6.21794C6.20607 13.621 6.2 13.4889 6.2 13.3554C6.2 11.5087 7.36106 9.93045 9 9.29688M21 4V10M13 8L15 4L17 8M13 8L12 10M13 8H17M18 10L17 8" stroke="black" stroke-width="2" stroke-linecap="round" stroke-linejoin="round"/>
</svg>
