<svg width="24" height="24" viewBox="0 0 24 24" fill="none" xmlns="http://www.w3.org/2000/svg">
<path d="M18.0168 14.5C18.6289 15.1895 19 16.0938 19 17.0838C19 19.2467 17.2287 21 15.0437 21H11.0219H7H6.15625C4.4131 21 3 19.6012 3 17.8757C3 16.1502 4.4131 14.7514 6.15625 14.7514H6.21794C6.20607 14.621 6.2 14.4889 6.2 14.3555C6.2 12.5088 7.36106 10.9305 9 10.2969M17.3505 6.64955C16.6914 5.99052 16.3328 4.76715 16.154 3.91953C16.1293 3.8023 15.8707 3.8023 15.846 3.91953C15.6672 4.76715 15.3086 5.99052 14.6495 6.64955C13.9905 7.30857 12.7672 7.66719 11.9195 7.846C11.8023 7.87073 11.8023 8.12927 11.9195 8.154C12.7672 8.33281 13.9905 8.69143 14.6495 9.35045C15.3086 10.0095 15.6672 11.2328 15.846 12.0805C15.8707 12.1977 16.1293 12.1977 16.154 12.0805C16.3328 11.2328 16.6914 10.0095 17.3505 9.35045C18.0095 8.69143 19.2328 8.33281 20.0805 8.154C20.1977 8.12927 20.1977 7.87073 20.0805 7.846C19.2328 7.66719 18.0095 7.30857 17.3505 6.64955Z" stroke="black" stroke-width="2" stroke-linecap="round" stroke-linejoin="round"/>
</svg>
