<svg width="24" height="24" viewBox="0 0 24 24" fill="none" xmlns="http://www.w3.org/2000/svg">
<path d="M16.0437 13C18.2287 13 20 11.2467 20 9.0838C20 6.92095 18.2287 5.1676 16.0437 5.1676H15.8344C15.312 3.3395 13.614 2 11.6 2C9.16995 2 7.2 3.95 7.2 6.35546C7.2 6.48893 7.20607 6.621 7.21794 6.75141H7.15625C5.4131 6.75141 4 8.1502 4 9.8757C4 11.6012 5.4131 13 7.15625 13H8M16.0437 13H12.0219M16.0437 13V16L17.5561 19.3342M8 13V16L6.4439 19.3342M8 13H12.0219M6.4439 19.3342C6.18613 19.1252 5.85768 19 5.5 19C4.67157 19 4 19.6716 4 20.5C4 21.3284 4.67157 22 5.5 22C6.32843 22 7 21.3284 7 20.5C7 20.0293 6.78315 19.6092 6.4439 19.3342ZM12.0561 19C12.4138 19 12.7422 19.1252 13 19.3342C13.3393 19.6092 13.5561 20.0293 13.5561 20.5C13.5561 21.3284 12.8845 22 12.0561 22C11.2277 22 10.5561 21.3284 10.5561 20.5C10.5561 19.6716 11.2277 19 12.0561 19ZM12.0561 19L12.0219 13M17.5561 19.3342C17.2168 19.6092 17 20.0293 17 20.5C17 21.3284 17.6716 22 18.5 22C19.3284 22 20 21.3284 20 20.5C20 20.0293 19.7832 19.6092 19.4439 19.3342C19.1861 19.1252 18.8577 19 18.5 19C18.1423 19 17.8139 19.1252 17.5561 19.3342Z" stroke="black" stroke-width="2" stroke-linecap="round" stroke-linejoin="round"/>
</svg>
