<svg width="24" height="24" viewBox="0 0 24 24" fill="none" xmlns="http://www.w3.org/2000/svg">
<path d="M3 7V6.5C3 4.567 4.567 3 6.5 3H8M21 7V6.5C21 4.567 19.433 3 17.5 3H16M3 17V17.5C3 19.433 4.567 21 6.5 21H8M21 17V17.5C21 19.433 19.433 21 17.5 21H16M6.24194 11.2757C7.08068 10.123 9.02877 8 12 8C14.9712 8 16.9193 10.123 17.7581 11.2757C18.0807 11.7191 18.0806 12.2811 17.758 12.7245C16.9193 13.8771 14.9712 16 12 16C9.02879 16 7.08071 13.8771 6.24196 12.7245C5.91935 12.2811 5.91935 11.7191 6.24194 11.2757ZM12 13.5V13.5C12.8284 13.5 13.5 12.8284 13.5 12V12C13.5 11.1716 12.8284 10.5 12 10.5V10.5C11.1716 10.5 10.5 11.1716 10.5 12V12C10.5 12.8284 11.1716 13.5 12 13.5Z" stroke="black" stroke-width="2" stroke-linecap="round" stroke-linejoin="round"/>
</svg>
