<svg width="24" height="24" viewBox="0 0 24 24" fill="none" xmlns="http://www.w3.org/2000/svg">
<path d="M3 7V6.5C3 4.567 4.567 3 6.5 3H8M21 7V6.5C21 4.567 19.433 3 17.5 3H16M3 17V17.5C3 19.433 4.567 21 6.5 21H8M21 17V17.5C21 19.433 19.433 21 17.5 21H16M10 11V11.01M14 11V11.01M10 14H14M11.6007 18H12.3993C14.9998 18 17.1661 16.0067 17.3821 13.4152L17.5487 11.4152C17.7917 8.50013 15.4912 6 12.566 6H11.434C8.5088 6 6.20834 8.50013 6.45127 11.4152L6.61794 13.4152C6.83389 16.0067 9.00022 18 11.6007 18Z" stroke="black" stroke-width="2" stroke-linecap="round" stroke-linejoin="round"/>
</svg>
