<svg width="24" height="24" viewBox="0 0 24 24" fill="none" xmlns="http://www.w3.org/2000/svg">
<path d="M21 12V19C21 20.1046 20.1046 21 19 21H5C3.89543 21 3 20.1046 3 19V10.6056C3 9.60249 3.5013 8.6658 4.3359 8.1094L9 5M16 3.74316C16.129 3.32251 16.3954 3.00006 16.9093 3.00005C18.3872 3.00003 19.183 3.88892 18.5006 5.00004C20.0923 5.00002 20.3196 6.33334 19.6373 7.00002C20.3196 7.6667 20.0923 9.00003 18.5006 9.00001C19.183 10.1111 18.3872 11 16.9093 11C16.3954 11 16.1289 10.6775 16 10.2568M16 3.74316C15.8711 3.32249 15.6046 3.00001 15.0907 3C13.6128 2.99998 12.817 3.88886 13.4994 4.99999C11.9077 4.99997 11.6804 6.33328 12.3627 6.99996C11.6804 7.66665 11.9077 8.99998 13.4994 8.99996C12.817 10.1111 13.6128 11 15.0907 10.9999C15.6046 10.9999 15.871 10.6775 16 10.2568M16 3.74316L16 5.2222M16 10.2568L16 8.77773" stroke="black" stroke-width="2" stroke-linecap="round" stroke-linejoin="round"/>
</svg>
