<svg width="24" height="24" viewBox="0 0 24 24" fill="none" xmlns="http://www.w3.org/2000/svg">
<path fill-rule="evenodd" clip-rule="evenodd" d="M12.5547 3.83216C13.0142 3.5258 13.1384 2.90493 12.8321 2.44541C12.5257 1.98588 11.9048 1.8617 11.4453 2.16806L3.7812 7.27746C2.66841 8.01932 2 9.26824 2 10.6057V19.0001C2 20.657 3.34315 22.0001 5 22.0001H19C20.6569 22.0001 22 20.657 22 19.0001V9.00011C22 8.44782 21.5523 8.00011 21 8.00011C20.4477 8.00011 20 8.44782 20 9.00011V19.0001C20 19.5524 19.5523 20.0001 19 20.0001H5C4.44772 20.0001 4 19.5524 4 19.0001V10.6057C4 9.93695 4.3342 9.31249 4.8906 8.94156L12.5547 3.83216ZM16.6377 3.69163C16.5398 3.27146 16.2383 3.04928 16.044 2.95432C15.848 2.85856 15.6532 2.8309 15.5 2.8309C15.3468 2.8309 15.152 2.85856 14.956 2.95432C14.7617 3.04928 14.4602 3.27145 14.3623 3.69163C14.293 3.98929 14.1994 4.31143 14.0784 4.60033C13.953 4.89958 13.8236 5.10155 13.7125 5.21264C13.6014 5.32373 13.3995 5.45315 13.1002 5.57849C12.8113 5.6995 12.4892 5.79313 12.1915 5.86244C11.7713 5.96028 11.5492 6.2618 11.4542 6.45613C11.3585 6.65208 11.3308 6.84688 11.3308 7.00011C11.3308 7.15334 11.3585 7.34813 11.4542 7.54408C11.5492 7.73841 11.7713 8.03993 12.1915 8.13777L12.4183 7.16383L12.1915 8.13777C12.4892 8.20708 12.8113 8.30072 13.1002 8.42172C13.3995 8.54707 13.6014 8.67649 13.7125 8.78758C13.8236 8.89867 13.953 9.10064 14.0784 9.39989C14.1994 9.68878 14.293 10.0109 14.3623 10.3086C14.4602 10.7288 14.7617 10.9509 14.956 11.0459C15.152 11.1417 15.3468 11.1693 15.5 11.1693C15.6532 11.1693 15.848 11.1417 16.044 11.0459C16.2383 10.9509 16.5398 10.7288 16.6377 10.3086C16.707 10.0109 16.8006 9.68878 16.9216 9.39989C17.047 9.10064 17.1764 8.89867 17.2875 8.78758C17.3986 8.67649 17.6005 8.54707 17.8998 8.42172C18.1887 8.30072 18.5108 8.20708 18.8085 8.13777L18.5817 7.16383L18.8085 8.13777C19.2287 8.03993 19.4508 7.73841 19.5458 7.54408C19.6415 7.34813 19.6692 7.15334 19.6692 7.00011C19.6692 6.84688 19.6415 6.65208 19.5458 6.45613C19.4508 6.2618 19.2287 5.96028 18.8085 5.86244C18.5108 5.79313 18.1887 5.6995 17.8998 5.57849C17.6005 5.45315 17.3986 5.32373 17.2875 5.21264C17.1764 5.10155 17.047 4.89958 16.9216 4.60033C16.8006 4.31143 16.707 3.98929 16.6377 3.69163ZM15.1267 6.62685C15.2675 6.48605 15.3912 6.33117 15.5 6.17043C15.6088 6.33117 15.7325 6.48605 15.8733 6.62685C16.0141 6.76765 16.1689 6.89133 16.3297 7.00011C16.1689 7.10889 16.0141 7.23256 15.8733 7.37336C15.7325 7.51417 15.6088 7.66905 15.5 7.82978C15.3912 7.66905 15.2675 7.51417 15.1267 7.37336C14.9859 7.23256 14.8311 7.10889 14.6703 7.00011C14.8311 6.89133 14.9859 6.76765 15.1267 6.62685ZM10.4304 9.81232C10.5892 10.2336 10.8012 10.6401 11.0807 10.9196C11.3603 11.1992 11.7668 11.4112 12.1881 11.57C12.4123 11.6545 12.4123 12.3455 12.1881 12.43C11.7668 12.5888 11.3603 12.8008 11.0807 13.0804C10.8012 13.3599 10.5892 13.7664 10.4304 14.1877C10.3459 14.4119 9.65487 14.4119 9.57035 14.1877C9.41156 13.7664 9.19957 13.3599 8.92002 13.0804C8.64047 12.8008 8.23399 12.5888 7.8127 12.43C7.58848 12.3455 7.58848 11.6545 7.8127 11.57C8.23399 11.4112 8.64047 11.1992 8.92002 10.9196C9.19957 10.6401 9.41156 10.2336 9.57035 9.81232C9.65487 9.58809 10.3459 9.58809 10.4304 9.81232ZM16.4304 13.8123C16.5892 14.2336 16.8012 14.6401 17.0807 14.9196C17.3603 15.1992 17.7668 15.4112 18.1881 15.57C18.4123 15.6545 18.4123 16.3455 18.1881 16.43C17.7668 16.5888 17.3603 16.8008 17.0807 17.0804C16.8012 17.3599 16.5892 17.7664 16.4304 18.1877C16.3459 18.4119 15.6549 18.4119 15.5704 18.1877C15.4116 17.7664 15.1996 17.3599 14.92 17.0804C14.6405 16.8008 14.234 16.5888 13.8127 16.43C13.5885 16.3455 13.5885 15.6545 13.8127 15.57C14.234 15.4112 14.6405 15.1992 14.92 14.9196C15.1996 14.6401 15.4116 14.2336 15.5704 13.8123C15.6549 13.5881 16.3459 13.5881 16.4304 13.8123Z" fill="black"/>
</svg>
