<svg width="24" height="24" viewBox="0 0 24 24" fill="none" xmlns="http://www.w3.org/2000/svg">
<path fill-rule="evenodd" clip-rule="evenodd" d="M10.8906 4.94137C11.5624 4.4935 12.4376 4.4935 13.1094 4.94137L19.1094 8.94137C19.6658 9.3123 20 9.93676 20 10.6055V18.9999C20 19.5522 19.5523 19.9999 19 19.9999H5C4.44772 19.9999 4 19.5522 4 18.9999V10.6055C4 9.93676 4.3342 9.3123 4.8906 8.94137L10.8906 4.94137ZM14.2188 3.27727C12.8752 2.38154 11.1248 2.38154 9.7812 3.27727L3.7812 7.27727C2.66841 8.01913 2 9.26806 2 10.6055V18.9999C2 20.6568 3.34315 21.9999 5 21.9999H19C20.6569 21.9999 22 20.6568 22 18.9999V10.6055C22 9.26806 21.3316 8.01913 20.2188 7.27727L14.2188 3.27727ZM11.1377 8.69144C11.0398 8.27127 10.7383 8.0491 10.544 7.95413C10.348 7.85837 10.1532 7.83071 10 7.83071C9.84677 7.83071 9.65197 7.85837 9.45603 7.95413C9.26169 8.0491 8.96017 8.27127 8.86234 8.69144C8.79303 8.9891 8.69939 9.31125 8.57838 9.60014C8.45304 9.89939 8.32362 10.1014 8.21253 10.2124C8.10144 10.3235 7.89947 10.453 7.60022 10.5783C7.31133 10.6993 6.98919 10.7929 6.69152 10.8623C6.27135 10.9601 6.04918 11.2616 5.95421 11.4559C5.85846 11.6519 5.83079 11.8467 5.83079 11.9999C5.83079 12.1531 5.85846 12.3479 5.95421 12.5439C6.04918 12.7382 6.27135 13.0397 6.69152 13.1376C6.98919 13.2069 7.31133 13.3005 7.60022 13.4215C7.89947 13.5469 8.10144 13.6763 8.21253 13.7874C8.32362 13.8985 8.45304 14.1004 8.57838 14.3997C8.69939 14.6886 8.79303 15.0107 8.86234 15.3084C8.96017 15.7286 9.26169 15.9507 9.45603 16.0457C9.65197 16.1415 9.84677 16.1691 10 16.1691C10.1532 16.1691 10.348 16.1415 10.544 16.0457C10.7383 15.9507 11.0398 15.7286 11.1377 15.3084C11.207 15.0107 11.3006 14.6886 11.4216 14.3997C11.547 14.1004 11.6764 13.8985 11.7875 13.7874C11.8986 13.6763 12.1005 13.5469 12.3998 13.4215C12.6887 13.3005 13.0108 13.2069 13.3085 13.1376C13.7287 13.0397 13.9508 12.7382 14.0458 12.5439C14.1415 12.3479 14.1692 12.1531 14.1692 11.9999C14.1692 11.8467 14.1415 11.6519 14.0458 11.4559C13.9508 11.2616 13.7287 10.9601 13.3085 10.8623C13.0108 10.7929 12.6887 10.6993 12.3998 10.5783C12.1005 10.453 11.8986 10.3235 11.7875 10.2124C11.6764 10.1014 11.547 9.89939 11.4216 9.60014C11.3006 9.31124 11.207 8.9891 11.1377 8.69144ZM9.62674 11.6267C9.76755 11.4859 9.89122 11.331 10 11.1702C10.1088 11.331 10.2325 11.4859 10.3733 11.6267C10.5141 11.7675 10.6689 11.8911 10.8297 11.9999C10.6689 12.1087 10.5141 12.2324 10.3733 12.3732C10.2325 12.514 10.1088 12.6689 10 12.8296C9.89122 12.6689 9.76755 12.514 9.62674 12.3732C9.48594 12.2324 9.33106 12.1087 9.17032 11.9999C9.33106 11.8911 9.48594 11.7675 9.62674 11.6267ZM16.4304 13.8121C16.5892 14.2334 16.8012 14.6399 17.0807 14.9195C17.3603 15.199 17.7668 15.411 18.1881 15.5698C18.4123 15.6543 18.4123 16.3453 18.1881 16.4298C17.7668 16.5886 17.3603 16.8006 17.0807 17.0802C16.8012 17.3597 16.5892 17.7662 16.4304 18.1875C16.3459 18.4117 15.6549 18.4117 15.5704 18.1875C15.4116 17.7662 15.1996 17.3597 14.92 17.0802C14.6405 16.8006 14.234 16.5886 13.8127 16.4298C13.5885 16.3453 13.5885 15.6543 13.8127 15.5698C14.234 15.411 14.6405 15.199 14.92 14.9195C15.1996 14.6399 15.4116 14.2334 15.5704 13.8121C15.6549 13.5879 16.3459 13.5879 16.4304 13.8121Z" fill="black"/>
</svg>
