<svg width="24" height="24" viewBox="0 0 24 24" fill="none" xmlns="http://www.w3.org/2000/svg">
<path d="M12 9.74316C12.129 9.32251 12.3954 9.00006 12.9093 9.00005C14.3872 9.00003 15.183 9.88892 14.5006 11C16.0923 11 16.3196 12.3333 15.6373 13C16.3196 13.6667 16.0923 15 14.5006 15C15.183 16.1111 14.3872 17 12.9093 17C12.3954 17 12.1289 16.6775 12 16.2568M12 9.74316C11.8711 9.32249 11.6046 9.00001 11.0907 9C9.61282 8.99998 8.81697 9.88886 9.49936 11C7.90768 11 7.68043 12.3333 8.36271 13C7.68043 13.6666 7.90768 15 9.49936 15C8.81697 16.1111 9.61282 17 11.0907 16.9999C11.6046 16.9999 11.871 16.6775 12 16.2568M12 9.74316L12 11.2222M12 16.2568L12 14.7777M21 10.6056V19C21 20.1046 20.1046 21 19 21H5C3.89543 21 3 20.1046 3 19V10.6056C3 9.60249 3.5013 8.6658 4.3359 8.1094L10.3359 4.1094C11.3436 3.4376 12.6564 3.4376 13.6641 4.1094L19.6641 8.1094C20.4987 8.6658 21 9.60249 21 10.6056Z" stroke="black" stroke-width="2" stroke-linecap="round" stroke-linejoin="round"/>
</svg>
