<svg width="24" height="24" viewBox="0 0 24 24" fill="none" xmlns="http://www.w3.org/2000/svg">
<path d="M11.8906 12.1094C10.8678 11.0866 10.3619 9.0929 10.1428 7.92121C10.1207 7.80344 9.87926 7.80344 9.85723 7.92121C9.6381 9.0929 9.13215 11.0866 8.10936 12.1094C7.08658 13.1322 5.0929 13.6381 3.92121 13.8572C3.80344 13.8793 3.80344 14.1207 3.92121 14.1428C5.0929 14.3619 7.08658 14.8678 8.10936 15.8906C9.13215 16.9134 9.6381 18.9071 9.85723 20.0788C9.87926 20.1966 10.1207 20.1966 10.1428 20.0788C10.3619 18.9071 10.8678 16.9134 11.8906 15.8906C12.9134 14.8678 14.9071 14.3619 16.0788 14.1428C16.1966 14.1207 16.1966 13.8793 16.0788 13.8572C14.9071 13.6381 12.9134 13.1322 11.8906 12.1094Z" stroke="black" stroke-width="2" stroke-linecap="round" stroke-linejoin="round"/>
<path d="M18.0804 5.91964C17.5989 5.43813 17.3178 4.58005 17.1637 3.91831C17.1365 3.80162 16.8635 3.80162 16.8363 3.91831C16.6822 4.58005 16.4011 5.43813 15.9196 5.91964C15.4381 6.40114 14.5801 6.68219 13.9183 6.83628C13.8016 6.86345 13.8016 7.13655 13.9183 7.16372C14.5801 7.31781 15.4381 7.59886 15.9196 8.08036C16.4011 8.56187 16.6822 9.41995 16.8363 10.0817C16.8635 10.1984 17.1365 10.1984 17.1637 10.0817C17.3178 9.41995 17.5989 8.56187 18.0804 8.08036C18.5619 7.59886 19.42 7.31781 20.0817 7.16372C20.1984 7.13655 20.1984 6.86345 20.0817 6.83628C19.42 6.68219 18.5619 6.40114 18.0804 5.91964Z" stroke="black" stroke-width="2" stroke-linecap="round" stroke-linejoin="round"/>
</svg>
