<svg width="24" height="24" viewBox="0 0 24 24" fill="none" xmlns="http://www.w3.org/2000/svg">
<path fill-rule="evenodd" clip-rule="evenodd" d="M20.2082 3.79288C18.9893 2.57393 17.013 2.57392 15.794 3.79287L7.52512 12.0618C5.75688 12.3714 4.36642 13.2041 3.42589 14.6325C2.45901 16.1009 2.04459 18.0845 2.00412 20.4839C1.98991 21.3264 2.67998 22.0156 3.52768 21.9922C5.99349 21.9242 8.09643 21.411 9.60424 20.4167C11.0335 19.4742 11.9043 18.1065 11.995 16.4203L20.2082 8.20709C21.4272 6.98814 21.4272 5.01183 20.2082 3.79288ZM17.2082 5.20709C17.6461 4.76919 18.3561 4.76919 18.794 5.20709C19.2319 5.64499 19.2319 6.35497 18.794 6.79288L11.0011 14.5858L9.41532 13L17.2082 5.20709ZM5.09629 15.7324C5.65621 14.882 6.46666 14.3237 7.65917 14.0723L9.99152 16.4046C9.91275 17.3628 9.42097 18.1418 8.50319 18.7471C7.51113 19.4013 6.0082 19.8513 4.02073 19.9693C4.10892 18.0274 4.48715 16.6575 5.09629 15.7324ZM7.43085 4.81229C7.34633 4.58807 6.6553 4.58807 6.57078 4.81229C6.41198 5.23359 6.2 5.64007 5.92045 5.91962C5.6409 6.19917 5.23442 6.41115 4.81313 6.56995C4.58891 6.65447 4.5889 7.3455 4.81313 7.43002C5.23442 7.58881 5.6409 7.8008 5.92045 8.08035C6.2 8.3599 6.41199 8.76638 6.57078 9.18767C6.6553 9.4119 7.34633 9.4119 7.43085 9.18767C7.58964 8.76638 7.80163 8.3599 8.08118 8.08035C8.36073 7.8008 8.76721 7.58881 9.1885 7.43002C9.41273 7.3455 9.41273 6.65447 9.1885 6.56995C8.76721 6.41115 8.36073 6.19917 8.08118 5.91962C7.80163 5.64007 7.58964 5.23359 7.43085 4.81229ZM17.4308 14.8123C17.5896 15.2336 17.8016 15.6401 18.0812 15.9196C18.3607 16.1992 18.7672 16.4112 19.1885 16.57C19.4127 16.6545 19.4127 17.3455 19.1885 17.43C18.7672 17.5888 18.3607 17.8008 18.0812 18.0803C17.8016 18.3599 17.5896 18.7664 17.4308 19.1877C17.3463 19.4119 16.6553 19.4119 16.5708 19.1877C16.412 18.7664 16.2 18.3599 15.9205 18.0803C15.6409 17.8008 15.2344 17.5888 14.8131 17.43C14.5889 17.3455 14.5889 16.6545 14.8131 16.57C15.2344 16.4112 15.6409 16.1992 15.9205 15.9196C16.2 15.6401 16.412 15.2336 16.5708 14.8123C16.6553 14.5881 17.3463 14.5881 17.4308 14.8123Z" fill="black"/>
</svg>
