<svg width="24" height="24" viewBox="0 0 24 24" fill="none" xmlns="http://www.w3.org/2000/svg">
<path d="M14 8L18.2929 3.70711C18.6834 3.31658 19.3166 3.31658 19.7071 3.70711L20.2929 4.29289C20.6834 4.68342 20.6834 5.31658 20.2929 5.70711L16 10M14 8L3.70711 18.2929C3.31658 18.6834 3.31658 19.3166 3.70711 19.7071L4.29289 20.2929C4.68342 20.6834 5.31658 20.6834 5.70711 20.2929L16 10M14 8L16 10M8.08036 5.91964C7.59886 5.43813 7.31781 4.58005 7.16372 3.91831C7.13655 3.80162 6.86345 3.80162 6.83628 3.91831C6.68219 4.58005 6.40114 5.43813 5.91964 5.91964C5.43813 6.40114 4.58005 6.68219 3.91831 6.83628C3.80162 6.86345 3.80162 7.13655 3.91831 7.16372C4.58005 7.31781 5.43813 7.59886 5.91964 8.08036C6.40114 8.56187 6.68219 9.41995 6.83628 10.0817C6.86345 10.1984 7.13655 10.1984 7.16372 10.0817C7.31781 9.41995 7.59886 8.56187 8.08036 8.08036C8.56187 7.59886 9.41995 7.31781 10.0817 7.16372C10.1984 7.13655 10.1984 6.86345 10.0817 6.83628C9.41995 6.68219 8.56187 6.40114 8.08036 5.91964ZM18.0804 15.9196C17.5989 15.4381 17.3178 14.58 17.1637 13.9183C17.1365 13.8016 16.8635 13.8016 16.8363 13.9183C16.6822 14.58 16.4011 15.4381 15.9196 15.9196C15.4381 16.4011 14.5801 16.6822 13.9183 16.8363C13.8016 16.8635 13.8016 17.1365 13.9183 17.1637C14.5801 17.3178 15.4381 17.5989 15.9196 18.0804C16.4011 18.5619 16.6822 19.42 16.8363 20.0817C16.8635 20.1984 17.1365 20.1984 17.1637 20.0817C17.3178 19.42 17.5989 18.5619 18.0804 18.0804C18.5619 17.5989 19.4199 17.3178 20.0817 17.1637C20.1984 17.1365 20.1984 16.8635 20.0817 16.8363C19.42 16.6822 18.5619 16.4011 18.0804 15.9196Z" stroke="black" stroke-width="2" stroke-linecap="round" stroke-linejoin="round"/>
</svg>
