<svg width="24" height="24" viewBox="0 0 24 24" fill="none" xmlns="http://www.w3.org/2000/svg">
<path d="M12.3505 14.6495C11.6914 13.9905 11.3328 12.7672 11.154 11.9195C11.1293 11.8023 10.8707 11.8023 10.846 11.9195C10.6672 12.7672 10.3086 13.9905 9.64955 14.6495C8.99052 15.3086 7.76715 15.6672 6.91953 15.846C6.8023 15.8707 6.8023 16.1293 6.91953 16.154C7.76715 16.3328 8.99052 16.6914 9.64955 17.3505C10.3086 18.0095 10.6672 19.2328 10.846 20.0805C10.8707 20.1977 11.1293 20.1977 11.154 20.0805C11.3328 19.2328 11.6914 18.0095 12.3505 17.3505C13.0095 16.6914 14.2328 16.3328 15.0805 16.154C15.1977 16.1293 15.1977 15.8707 15.0805 15.846C14.2328 15.6672 13.0095 15.3086 12.3505 14.6495Z" stroke="black" stroke-width="2" stroke-linecap="round" stroke-linejoin="round"/>
<path d="M18.0804 7.91964C17.5989 7.43813 17.3178 6.58005 17.1637 5.91831C17.1365 5.80162 16.8635 5.80162 16.8363 5.91831C16.6822 6.58005 16.4011 7.43813 15.9196 7.91964C15.4381 8.40114 14.5801 8.68219 13.9183 8.83628C13.8016 8.86345 13.8016 9.13655 13.9183 9.16372C14.5801 9.31781 15.4381 9.59886 15.9196 10.0804C16.4011 10.5619 16.6822 11.42 16.8363 12.0817C16.8635 12.1984 17.1365 12.1984 17.1637 12.0817C17.3178 11.42 17.5989 10.5619 18.0804 10.0804C18.5619 9.59886 19.42 9.31781 20.0817 9.16372C20.1984 9.13655 20.1984 8.86345 20.0817 8.83628C19.42 8.68219 18.5619 8.40114 18.0804 7.91964Z" stroke="black" stroke-width="2" stroke-linecap="round" stroke-linejoin="round"/>
<path d="M8.08036 5.91964C7.59886 5.43813 7.31781 4.58005 7.16372 3.91831C7.13655 3.80162 6.86345 3.80162 6.83628 3.91831C6.68219 4.58005 6.40114 5.43813 5.91964 5.91964C5.43813 6.40114 4.58005 6.68219 3.91831 6.83628C3.80162 6.86345 3.80162 7.13655 3.91831 7.16372C4.58005 7.31781 5.43813 7.59886 5.91964 8.08036C6.40114 8.56187 6.68219 9.41995 6.83628 10.0817C6.86345 10.1984 7.13655 10.1984 7.16372 10.0817C7.31781 9.41995 7.59886 8.56187 8.08036 8.08036C8.56187 7.59886 9.41995 7.31781 10.0817 7.16372C10.1984 7.13655 10.1984 6.86345 10.0817 6.83628C9.41995 6.68219 8.56187 6.40114 8.08036 5.91964Z" stroke="black" stroke-width="2" stroke-linecap="round" stroke-linejoin="round"/>
</svg>
