<svg width="24" height="24" viewBox="0 0 24 24" fill="none" xmlns="http://www.w3.org/2000/svg">
<path fill-rule="evenodd" clip-rule="evenodd" d="M8.13782 3.69154C8.03998 3.27137 7.73846 3.0492 7.54413 2.95423C7.34818 2.85848 7.15338 2.83081 7.00015 2.83081C6.84692 2.83081 6.65212 2.85848 6.45618 2.95423C6.26184 3.0492 5.96033 3.27137 5.86249 3.69154C5.79318 3.98921 5.69954 4.31135 5.57854 4.60024C5.45319 4.89949 5.32377 5.10146 5.21268 5.21255C5.10159 5.32364 4.89962 5.45306 4.60037 5.5784C4.31148 5.69941 3.98934 5.79304 3.69168 5.86236C3.2715 5.96019 3.04933 6.26171 2.95436 6.45605C2.85861 6.65199 2.83094 6.84679 2.83094 7.00002C2.83094 7.15325 2.85861 7.34805 2.95436 7.54399C3.04933 7.73833 3.2715 8.03985 3.69168 8.13768C3.98934 8.207 4.31148 8.30063 4.60037 8.42164C4.89962 8.54698 5.10159 8.6764 5.21268 8.78749C5.32377 8.89858 5.45319 9.10055 5.57854 9.3998C5.69954 9.68869 5.79318 10.0108 5.86249 10.3085C5.96033 10.7287 6.26184 10.9508 6.45618 11.0458C6.65212 11.1416 6.84692 11.1692 7.00015 11.1692C7.15338 11.1692 7.34818 11.1416 7.54412 11.0458C7.73846 10.9508 8.03998 10.7287 8.13782 10.3085C8.20713 10.0108 8.30076 9.68869 8.42177 9.3998C8.54711 9.10055 8.67653 8.89858 8.78762 8.78749C8.89871 8.6764 9.10068 8.54698 9.39993 8.42164C9.68882 8.30063 10.011 8.207 10.3086 8.13768C10.7288 8.03985 10.951 7.73833 11.0459 7.54399C11.1417 7.34805 11.1694 7.15325 11.1694 7.00002C11.1694 6.84679 11.1417 6.65199 11.0459 6.45605C10.951 6.26171 10.7288 5.96019 10.3086 5.86236C10.011 5.79305 9.68882 5.69941 9.39993 5.5784C9.10068 5.45306 8.89871 5.32364 8.78762 5.21255C8.67653 5.10146 8.54711 4.89949 8.42177 4.60024C8.30076 4.31135 8.20713 3.98921 8.13782 3.69154ZM6.62689 6.62676C6.7677 6.48596 6.89137 6.33108 7.00015 6.17035C7.10893 6.33108 7.2326 6.48596 7.37341 6.62676C7.51421 6.76757 7.66909 6.89124 7.82982 7.00002C7.66909 7.1088 7.51421 7.23247 7.37341 7.37328C7.2326 7.51408 7.10893 7.66896 7.00015 7.82969C6.89137 7.66896 6.7677 7.51408 6.62689 7.37328C6.48609 7.23247 6.33121 7.1088 6.17048 7.00002C6.33121 6.89124 6.48609 6.76757 6.62689 6.62676ZM13.7073 10.2929C12.7644 9.3501 11.2359 9.3501 10.293 10.2929L3.29304 17.2929C2.35023 18.2357 2.35024 19.7643 3.29304 20.7071C4.23585 21.6499 5.76445 21.6499 6.70726 20.7071L13.7073 13.7071C14.6501 12.7643 14.6501 11.2357 13.7073 10.2929ZM11.7073 11.7071C11.869 11.5454 12.1313 11.5454 12.293 11.7071C12.4548 11.8689 12.4548 12.1312 12.293 12.2929L5.29304 19.2929C5.13128 19.4547 4.86902 19.4547 4.70726 19.2929C4.5455 19.1312 4.5455 18.8689 4.70726 18.7071L11.7073 11.7071ZM18.1378 13.6915C18.04 13.2714 17.7385 13.0492 17.5441 12.9542C17.3482 12.8585 17.1534 12.8308 17.0002 12.8308C16.8469 12.8308 16.6521 12.8585 16.4562 12.9542C16.2618 13.0492 15.9603 13.2714 15.8625 13.6915C15.7932 13.9892 15.6995 14.3113 15.5785 14.6002C15.4532 14.8995 15.3238 15.1015 15.2127 15.2126C15.1016 15.3236 14.8996 15.4531 14.6004 15.5784C14.3115 15.6994 13.9893 15.793 13.6917 15.8624C13.2715 15.9602 13.0493 16.2617 12.9544 16.456C12.8586 16.652 12.8309 16.8468 12.8309 17C12.8309 17.1532 12.8586 17.348 12.9544 17.544C13.0493 17.7383 13.2715 18.0398 13.6917 18.1377C13.9893 18.207 14.3115 18.3006 14.6004 18.4216C14.8996 18.547 15.1016 18.6764 15.2127 18.7875C15.3238 18.8986 15.4532 19.1005 15.5785 19.3998C15.6995 19.6887 15.7932 20.0108 15.8625 20.3085C15.9603 20.7287 16.2618 20.9508 16.4562 21.0458C16.6521 21.1416 16.8469 21.1692 17.0002 21.1692C17.1534 21.1692 17.3482 21.1416 17.5441 21.0458C17.7385 20.9508 18.04 20.7287 18.1378 20.3085C18.2071 20.0108 18.3008 19.6887 18.4218 19.3998C18.5471 19.1006 18.6765 18.8986 18.7876 18.7875C18.8987 18.6764 19.1007 18.547 19.3999 18.4216C19.6888 18.3006 20.011 18.207 20.3086 18.1377C20.7288 18.0398 20.951 17.7383 21.0459 17.544C21.1417 17.348 21.1694 17.1532 21.1694 17C21.1694 16.8468 21.1417 16.652 21.0459 16.456C20.951 16.2617 20.7288 15.9602 20.3086 15.8624C20.011 15.793 19.6888 15.6994 19.3999 15.5784C19.1007 15.4531 18.8987 15.3236 18.7876 15.2126C18.6765 15.1015 18.5471 14.8995 18.4218 14.6002C18.3008 14.3113 18.2071 13.9892 18.1378 13.6915ZM16.6269 16.6268C16.7677 16.486 16.8914 16.3311 17.0002 16.1703C17.1089 16.3311 17.2326 16.486 17.3734 16.6268C17.5142 16.7676 17.6691 16.8912 17.8298 17C17.6691 17.1088 17.5142 17.2325 17.3734 17.3733C17.2326 17.5141 17.1089 17.669 17.0002 17.8297C16.8914 17.669 16.7677 17.5141 16.6269 17.3733C16.4861 17.2325 16.3312 17.1088 16.1705 17C16.3312 16.8912 16.4861 16.7676 16.6269 16.6268ZM17.1639 3.91833C17.318 4.58007 17.599 5.43815 18.0805 5.91966C18.562 6.40116 19.4201 6.68221 20.0818 6.8363C20.1985 6.86347 20.1985 7.13657 20.0818 7.16374C19.4201 7.31783 18.562 7.59888 18.0805 8.08038C17.599 8.56189 17.318 9.41997 17.1639 10.0817C17.1367 10.1984 16.8636 10.1984 16.8364 10.0817C16.6823 9.41997 16.4013 8.56189 15.9198 8.08038C15.4383 7.59888 14.5802 7.31783 13.9185 7.16374C13.8018 7.13657 13.8018 6.86347 13.9185 6.8363C14.5802 6.68221 15.4383 6.40116 15.9198 5.91966C16.4013 5.43815 16.6823 4.58007 16.8364 3.91833C16.8636 3.80164 17.1367 3.80164 17.1639 3.91833Z" fill="black"/>
</svg>
