<svg width="24" height="24" viewBox="0 0 24 24" fill="none" xmlns="http://www.w3.org/2000/svg">
<path fill-rule="evenodd" clip-rule="evenodd" d="M18.1375 3.69154C18.0397 3.27137 17.7382 3.0492 17.5438 2.95423C17.3479 2.85848 17.1531 2.83081 16.9999 2.83081C16.8466 2.83081 16.6518 2.85848 16.4559 2.95423C16.2615 3.0492 15.96 3.27137 15.8622 3.69154C15.7929 3.98921 15.6992 4.31135 15.5782 4.60024C15.4529 4.89949 15.3235 5.10146 15.2124 5.21255C15.1013 5.32364 14.8993 5.45306 14.6001 5.57841C14.3112 5.69941 13.989 5.79305 13.6914 5.86236C13.2712 5.9602 13.049 6.26171 12.9541 6.45605C12.8583 6.65199 12.8306 6.84679 12.8306 7.00002C12.8306 7.15325 12.8583 7.34805 12.9541 7.54399C13.049 7.73833 13.2712 8.03985 13.6914 8.13769C13.989 8.207 14.3112 8.30063 14.6001 8.42164C14.8993 8.54698 15.1013 8.6764 15.2124 8.78749C15.3235 8.89858 15.4529 9.10055 15.5782 9.3998C15.6992 9.68869 15.7929 10.0108 15.8622 10.3085C15.96 10.7287 16.2615 10.9508 16.4559 11.0458C16.6518 11.1416 16.8466 11.1692 16.9998 11.1692C17.1531 11.1692 17.3479 11.1416 17.5438 11.0458C17.7382 10.9508 18.0397 10.7287 18.1375 10.3085C18.2068 10.0108 18.3005 9.68869 18.4215 9.3998C18.5468 9.10055 18.6762 8.89858 18.7873 8.78749C18.8984 8.6764 19.1004 8.54698 19.3996 8.42164C19.6885 8.30063 20.0107 8.207 20.3083 8.13769C20.7285 8.03985 20.9507 7.73833 21.0456 7.54399C21.1414 7.34805 21.1691 7.15325 21.1691 7.00002C21.1691 6.84679 21.1414 6.65199 21.0456 6.45605C20.9507 6.26171 20.7285 5.9602 20.3083 5.86236C20.0107 5.79305 19.6885 5.69941 19.3996 5.57841C19.1004 5.45306 18.8984 5.32364 18.7873 5.21255C18.6762 5.10146 18.5468 4.89949 18.4215 4.60024C18.3005 4.31135 18.2068 3.98921 18.1375 3.69154ZM16.6266 6.62677C16.7674 6.48596 16.8911 6.33108 16.9998 6.17035C17.1086 6.33108 17.2323 6.48596 17.3731 6.62677C17.5139 6.76757 17.6688 6.89124 17.8295 7.00002C17.6688 7.10881 17.5139 7.23247 17.3731 7.37328C17.2323 7.51408 17.1086 7.66896 16.9999 7.8297C16.8911 7.66896 16.7674 7.51408 16.6266 7.37328C16.4858 7.23247 16.3309 7.10881 16.1702 7.00002C16.3309 6.89124 16.4858 6.76757 16.6266 6.62677ZM13.4141 10C12.633 9.21897 11.3667 9.21897 10.5856 10L2.99985 17.5858C2.2188 18.3669 2.2188 19.6332 2.99985 20.4142L3.58564 21C4.36669 21.7811 5.63302 21.7811 6.41406 21L13.9999 13.4142C14.7809 12.6332 14.7809 11.3669 13.9998 10.5858L13.4141 10ZM11.9998 11.4142L12.5856 12L4.99985 19.5858L4.41406 19L11.9998 11.4142ZM7.16357 3.91833C7.1364 3.80164 6.8633 3.80164 6.83613 3.91833C6.68204 4.58007 6.40099 5.43815 5.91949 5.91966C5.43798 6.40117 4.5799 6.68222 3.91816 6.8363C3.80147 6.86347 3.80147 7.13657 3.91816 7.16374C4.5799 7.31783 5.43798 7.59888 5.91949 8.08038C6.40099 8.56189 6.68204 9.41997 6.83613 10.0817C6.8633 10.1984 7.1364 10.1984 7.16357 10.0817C7.31766 9.41997 7.5987 8.56189 8.08021 8.08038C8.56172 7.59888 9.4198 7.31783 10.0815 7.16374C10.1982 7.13657 10.1982 6.86347 10.0815 6.8363C9.4198 6.68222 8.56172 6.40117 8.08021 5.91966C7.5987 5.43815 7.31766 4.58007 7.16357 3.91833ZM17.1636 13.9183C17.3177 14.5801 17.5987 15.4382 18.0802 15.9197C18.5617 16.4012 19.4198 16.6822 20.0815 16.8363C20.1982 16.8635 20.1982 17.1366 20.0815 17.1637C19.4198 17.3178 18.5617 17.5989 18.0802 18.0804C17.5987 18.5619 17.3177 19.42 17.1636 20.0817C17.1364 20.1984 16.8633 20.1984 16.8361 20.0817C16.682 19.42 16.401 18.5619 15.9195 18.0804C15.438 17.5989 14.5799 17.3178 13.9182 17.1637C13.8015 17.1366 13.8015 16.8635 13.9182 16.8363C14.5799 16.6822 15.438 16.4012 15.9195 15.9197C16.401 15.4382 16.682 14.5801 16.8361 13.9183C16.8633 13.8016 17.1364 13.8016 17.1636 13.9183Z" fill="black"/>
</svg>
