<svg width="24" height="24" viewBox="0 0 24 24" fill="none" xmlns="http://www.w3.org/2000/svg">
<path d="M14 8L18 4C18.5523 3.44772 19.4477 3.44772 20 4V4C20.5523 4.55228 20.5523 5.44771 20 6L16 10M14 8L4 18C3.44772 18.5523 3.44772 19.4477 4 20V20C4.55228 20.5523 5.44772 20.5523 6 20L16 10M14 8L16 10M8.08036 5.91964C7.59886 5.43813 7.31781 4.58005 7.16372 3.91831C7.13655 3.80162 6.86345 3.80162 6.83628 3.91831C6.68219 4.58005 6.40114 5.43813 5.91964 5.91964C5.43813 6.40114 4.58005 6.68219 3.91831 6.83628C3.80162 6.86345 3.80162 7.13655 3.91831 7.16372C4.58005 7.31781 5.43813 7.59886 5.91964 8.08036C6.40114 8.56187 6.68219 9.41995 6.83628 10.0817C6.86345 10.1984 7.13655 10.1984 7.16372 10.0817C7.31781 9.41995 7.59886 8.56187 8.08036 8.08036C8.56187 7.59886 9.41995 7.31781 10.0817 7.16372C10.1984 7.13655 10.1984 6.86345 10.0817 6.83628C9.41995 6.68219 8.56187 6.40114 8.08036 5.91964ZM18.0804 15.9196C17.5989 15.4381 17.3178 14.58 17.1637 13.9183C17.1365 13.8016 16.8635 13.8016 16.8363 13.9183C16.6822 14.58 16.4011 15.4381 15.9196 15.9196C15.4381 16.4011 14.58 16.6822 13.9183 16.8363C13.8016 16.8635 13.8016 17.1365 13.9183 17.1637C14.58 17.3178 15.4381 17.5989 15.9196 18.0804C16.4011 18.5619 16.6822 19.42 16.8363 20.0817C16.8635 20.1984 17.1365 20.1984 17.1637 20.0817C17.3178 19.42 17.5989 18.5619 18.0804 18.0804C18.5619 17.5989 19.42 17.3178 20.0817 17.1637C20.1984 17.1365 20.1984 16.8635 20.0817 16.8363C19.42 16.6822 18.5619 16.4011 18.0804 15.9196Z" stroke="black" stroke-width="2" stroke-linecap="round" stroke-linejoin="round"/>
</svg>
