<svg width="24" height="24" viewBox="0 0 24 24" fill="none" xmlns="http://www.w3.org/2000/svg">
<path d="M9.35045 14.6495C8.69143 13.9905 8.33281 12.7672 8.154 11.9195C8.12927 11.8023 7.87073 11.8023 7.846 11.9195C7.66719 12.7672 7.30857 13.9905 6.64955 14.6495C5.99052 15.3086 4.76715 15.6672 3.91953 15.846C3.8023 15.8707 3.8023 16.1293 3.91953 16.154C4.76715 16.3328 5.99052 16.6914 6.64955 17.3505C7.30857 18.0095 7.66719 19.2328 7.846 20.0805C7.87073 20.1977 8.12927 20.1977 8.154 20.0805C8.33281 19.2328 8.69143 18.0095 9.35045 17.3505C10.0095 16.6914 11.2328 16.3328 12.0805 16.154C12.1977 16.1293 12.1977 15.8707 12.0805 15.846C11.2328 15.6672 10.0095 15.3086 9.35045 14.6495Z" stroke="black" stroke-width="2" stroke-linecap="round" stroke-linejoin="round"/>
<path d="M18.0804 11.9196C17.5989 11.4381 17.3178 10.58 17.1637 9.91831C17.1365 9.80162 16.8635 9.80162 16.8363 9.91831C16.6822 10.58 16.4011 11.4381 15.9196 11.9196C15.4381 12.4011 14.5801 12.6822 13.9183 12.8363C13.8016 12.8635 13.8016 13.1365 13.9183 13.1637C14.5801 13.3178 15.4381 13.5989 15.9196 14.0804C16.4011 14.5619 16.6822 15.42 16.8363 16.0817C16.8635 16.1984 17.1365 16.1984 17.1637 16.0817C17.3178 15.42 17.5989 14.5619 18.0804 14.0804C18.5619 13.5989 19.42 13.3178 20.0817 13.1637C20.1984 13.1365 20.1984 12.8635 20.0817 12.8363C19.42 12.6822 18.5619 12.4011 18.0804 11.9196Z" stroke="black" stroke-width="2" stroke-linecap="round" stroke-linejoin="round"/>
<path d="M12.0804 5.91964C11.5989 5.43813 11.3178 4.58005 11.1637 3.91831C11.1365 3.80162 10.8635 3.80162 10.8363 3.91831C10.6822 4.58005 10.4011 5.43813 9.91964 5.91964C9.43813 6.40114 8.58005 6.68219 7.91831 6.83628C7.80162 6.86345 7.80162 7.13655 7.91831 7.16372C8.58005 7.31781 9.43813 7.59886 9.91964 8.08036C10.4011 8.56187 10.6822 9.41995 10.8363 10.0817C10.8635 10.1984 11.1365 10.1984 11.1637 10.0817C11.3178 9.41995 11.5989 8.56187 12.0804 8.08036C12.5619 7.59886 13.4199 7.31781 14.0817 7.16372C14.1984 7.13655 14.1984 6.86345 14.0817 6.83628C13.4199 6.68219 12.5619 6.40114 12.0804 5.91964Z" stroke="black" stroke-width="2" stroke-linecap="round" stroke-linejoin="round"/>
</svg>
