<svg width="24" height="24" viewBox="0 0 24 24" fill="none" xmlns="http://www.w3.org/2000/svg">
<path fill-rule="evenodd" clip-rule="evenodd" d="M20.707 3.29292C19.7642 2.35012 18.2356 2.35011 17.2928 3.2929L8.02894 12.5565C6.47754 12.787 4.99839 13.1864 3.89566 14.2892C2.70192 15.483 2.13392 17.3057 2.02114 19.9561C1.9643 21.2921 3.42245 21.8531 4.34592 21.2971C5.15974 20.8071 5.94625 20.5149 6.69603 20.2899C6.99896 20.1989 7.28752 20.1212 7.57738 20.0432C7.65227 20.023 7.72724 20.0029 7.80257 19.9824C8.15898 19.8857 8.52519 19.7827 8.87017 19.6581C9.56428 19.4074 10.2791 19.0329 10.7895 18.3019C11.2299 17.6711 11.443 16.8832 11.4897 15.9242L20.707 6.70716C21.6498 5.76436 21.6498 4.23574 20.707 3.29292ZM5.3099 15.7034C5.91696 15.0963 6.79636 14.7786 8.14748 14.5621L9.48789 15.9025C9.44627 16.5776 9.30002 16.9416 9.14968 17.1569C8.97853 17.4021 8.70881 17.5899 8.19074 17.7771C7.92964 17.8714 7.63286 17.9562 7.27881 18.0522L7.07008 18.1085C6.77764 18.1872 6.45425 18.2743 6.121 18.3743C5.49491 18.5623 4.80502 18.8041 4.07847 19.1649C4.25804 17.2784 4.72838 16.2849 5.3099 15.7034ZM19.2928 5.29293L10.4996 14.0858L9.91383 13.5001L18.707 4.70713C18.8688 4.54537 19.131 4.54538 19.2928 4.70714C19.4545 4.8689 19.4545 5.13117 19.2928 5.29293ZM7.42994 4.81235C7.34542 4.58813 6.65439 4.58813 6.56988 4.81235C6.41108 5.23365 6.19909 5.64013 5.91954 5.91968C5.63999 6.19923 5.23352 6.41121 4.81222 6.57001C4.588 6.65453 4.588 7.34556 4.81222 7.43008C5.23352 7.58887 5.63999 7.80086 5.91954 8.08041C6.1991 8.35996 6.41108 8.76644 6.56988 9.18773C6.65439 9.41196 7.34542 9.41196 7.42994 9.18774C7.58874 8.76644 7.80072 8.35996 8.08027 8.08041C8.35982 7.80086 8.7663 7.58887 9.1876 7.43008C9.41182 7.34556 9.41182 6.65453 9.1876 6.57001C8.7663 6.41121 8.35982 6.19923 8.08027 5.91968C7.80072 5.64013 7.58874 5.23365 7.42994 4.81235ZM17.4299 14.8124C17.5887 15.2336 17.8007 15.6401 18.0803 15.9197C18.3598 16.1992 18.7663 16.4112 19.1876 16.57C19.4118 16.6545 19.4118 17.3456 19.1876 17.4301C18.7663 17.5889 18.3598 17.8009 18.0803 18.0804C17.8007 18.36 17.5887 18.7664 17.4299 19.1877C17.3454 19.412 16.6544 19.412 16.5699 19.1877C16.4111 18.7664 16.1991 18.36 15.9195 18.0804C15.64 17.8009 15.2335 17.5889 14.8122 17.4301C14.588 17.3456 14.588 16.6545 14.8122 16.57C15.2335 16.4112 15.64 16.1992 15.9195 15.9197C16.1991 15.6401 16.4111 15.2336 16.5699 14.8124C16.6544 14.5881 17.3454 14.5881 17.4299 14.8124Z" fill="black"/>
</svg>
