<svg width="24" height="24" viewBox="0 0 24 24" fill="none" xmlns="http://www.w3.org/2000/svg">
<path d="M9.35045 10.6495C8.69143 9.99052 8.33281 8.76715 8.154 7.91954C8.12927 7.8023 7.87073 7.8023 7.846 7.91954C7.66719 8.76715 7.30857 9.99052 6.64955 10.6495C5.99052 11.3086 4.76715 11.6672 3.91954 11.846C3.8023 11.8707 3.8023 12.1293 3.91954 12.154C4.76715 12.3328 5.99052 12.6914 6.64955 13.3505C7.30857 14.0095 7.66719 15.2328 7.846 16.0805C7.87073 16.1977 8.12927 16.1977 8.154 16.0805C8.33281 15.2328 8.69143 14.0095 9.35045 13.3505C10.0095 12.6914 11.2328 12.3328 12.0805 12.154C12.1977 12.1293 12.1977 11.8707 12.0805 11.846C11.2328 11.6672 10.0095 11.3086 9.35045 10.6495Z" stroke="black" stroke-width="2" stroke-linecap="round" stroke-linejoin="round"/>
<path d="M18.0804 15.9196C17.5989 15.4381 17.3178 14.5801 17.1637 13.9183C17.1365 13.8016 16.8635 13.8016 16.8363 13.9183C16.6822 14.5801 16.4011 15.4381 15.9196 15.9196C15.4381 16.4011 14.5801 16.6822 13.9183 16.8363C13.8016 16.8635 13.8016 17.1365 13.9183 17.1637C14.5801 17.3178 15.4381 17.5989 15.9196 18.0804C16.4011 18.5619 16.6822 19.42 16.8363 20.0817C16.8635 20.1984 17.1365 20.1984 17.1637 20.0817C17.3178 19.42 17.5989 18.5619 18.0804 18.0804C18.5619 17.5989 19.42 17.3178 20.0817 17.1637C20.1984 17.1365 20.1984 16.8635 20.0817 16.8363C19.42 16.6822 18.5619 16.4011 18.0804 15.9196Z" stroke="black" stroke-width="2" stroke-linecap="round" stroke-linejoin="round"/>
<path d="M18.0804 5.91964C17.5989 5.43813 17.3178 4.58005 17.1637 3.91831C17.1365 3.80162 16.8635 3.80162 16.8363 3.91831C16.6822 4.58005 16.4011 5.43813 15.9196 5.91964C15.4381 6.40114 14.5801 6.68219 13.9183 6.83628C13.8016 6.86345 13.8016 7.13655 13.9183 7.16372C14.5801 7.31781 15.4381 7.59886 15.9196 8.08036C16.4011 8.56187 16.6822 9.41995 16.8363 10.0817C16.8635 10.1984 17.1365 10.1984 17.1637 10.0817C17.3178 9.41995 17.5989 8.56187 18.0804 8.08036C18.5619 7.59886 19.42 7.31781 20.0817 7.16372C20.1984 7.13655 20.1984 6.86345 20.0817 6.83628C19.42 6.68219 18.5619 6.40114 18.0804 5.91964Z" stroke="black" stroke-width="2" stroke-linecap="round" stroke-linejoin="round"/>
</svg>
