<svg width="24" height="24" viewBox="0 0 24 24" fill="none" xmlns="http://www.w3.org/2000/svg">
<path fill-rule="evenodd" clip-rule="evenodd" d="M19.7706 3.35638C18.7924 2.37822 17.2059 2.38034 16.2304 3.36111L13.291 6.3162L2.87302 16.79C2.31387 17.3521 2 18.1128 2 18.9057V20.5668C2 21.4109 2.69631 22.0888 3.54017 22.0662L5.22984 22.021C5.99741 22.0004 6.72788 21.6863 7.27083 21.1434L17.7071 10.7071L20.6464 7.76775C21.6228 6.79144 21.6228 5.20853 20.6464 4.23222L19.7706 3.35638ZM17.6483 4.77154C17.8434 4.57538 18.1608 4.57496 18.3564 4.77059L19.2322 5.64643C19.4275 5.8417 19.4275 6.15828 19.2322 6.35354L16.9975 8.5883L15.4149 7.01699L17.6483 4.77154ZM14.0044 8.43498L15.5832 10.0025L5.85661 19.7292C5.67563 19.9101 5.43214 20.0148 5.17629 20.0217L4 20.0532V18.9057C4 18.6414 4.10462 18.3878 4.29101 18.2004L14.0044 8.43498ZM7.43003 4.8123C7.34552 4.58807 6.65448 4.58807 6.56997 4.8123C6.41117 5.23359 6.19919 5.64007 5.91964 5.91962C5.64009 6.19917 5.23361 6.41116 4.81231 6.56995C4.58809 6.65447 4.58809 7.3455 4.81231 7.43002C5.23361 7.58882 5.64009 7.8008 5.91964 8.08035C6.19919 8.3599 6.41117 8.76638 6.56997 9.18768C6.65448 9.4119 7.34552 9.4119 7.43003 9.18768C7.58883 8.76638 7.80081 8.3599 8.08036 8.08035C8.35991 7.8008 8.76639 7.58882 9.18769 7.43002C9.41191 7.3455 9.41191 6.65447 9.18769 6.56996C8.76639 6.41116 8.35991 6.19917 8.08036 5.91962C7.80081 5.64007 7.58883 5.23359 7.43003 4.8123ZM17.43 14.8123C17.5888 15.2336 17.8008 15.6401 18.0804 15.9196C18.3599 16.1992 18.7664 16.4112 19.1877 16.57C19.4119 16.6545 19.4119 17.3455 19.1877 17.43C18.7664 17.5888 18.3599 17.8008 18.0804 18.0804C17.8008 18.3599 17.5888 18.7664 17.43 19.1877C17.3455 19.4119 16.6545 19.4119 16.57 19.1877C16.4112 18.7664 16.1992 18.3599 15.9196 18.0804C15.6401 17.8008 15.2336 17.5888 14.8123 17.43C14.5881 17.3455 14.5881 16.6545 14.8123 16.57C15.2336 16.4112 15.6401 16.1992 15.9196 15.9196C16.1992 15.6401 16.4112 15.2336 16.57 14.8123C16.6545 14.5881 17.3455 14.5881 17.43 14.8123Z" fill="black"/>
</svg>
