<svg width="24" height="24" viewBox="0 0 24 24" fill="none" xmlns="http://www.w3.org/2000/svg">
<path d="M11.8906 8.10936C10.8678 7.08658 10.3619 5.0929 10.1428 3.92121C10.1207 3.80344 9.87926 3.80344 9.85723 3.92121C9.6381 5.0929 9.13215 7.08658 8.10936 8.10936C7.08658 9.13215 5.0929 9.6381 3.92121 9.85723C3.80344 9.87926 3.80344 10.1207 3.92121 10.1428C5.0929 10.3619 7.08658 10.8678 8.10936 11.8906C9.13215 12.9134 9.6381 14.9071 9.85723 16.0788C9.87926 16.1966 10.1207 16.1966 10.1428 16.0788C10.3619 14.9071 10.8678 12.9134 11.8906 11.8906C12.9134 10.8678 14.9071 10.3619 16.0788 10.1428C16.1966 10.1207 16.1966 9.87926 16.0788 9.85723C14.9071 9.6381 12.9134 9.13215 11.8906 8.10936Z" stroke="black" stroke-width="2" stroke-linecap="round" stroke-linejoin="round"/>
<path d="M18.0804 15.9196C17.5989 15.4381 17.3178 14.58 17.1637 13.9183C17.1365 13.8016 16.8635 13.8016 16.8363 13.9183C16.6822 14.58 16.4011 15.4381 15.9196 15.9196C15.4381 16.4011 14.58 16.6822 13.9183 16.8363C13.8016 16.8635 13.8016 17.1365 13.9183 17.1637C14.58 17.3178 15.4381 17.5989 15.9196 18.0804C16.4011 18.5619 16.6822 19.42 16.8363 20.0817C16.8635 20.1984 17.1365 20.1984 17.1637 20.0817C17.3178 19.42 17.5989 18.5619 18.0804 18.0804C18.5619 17.5989 19.42 17.3178 20.0817 17.1637C20.1984 17.1365 20.1984 16.8635 20.0817 16.8363C19.42 16.6822 18.5619 16.4011 18.0804 15.9196Z" stroke="black" stroke-width="2" stroke-linecap="round" stroke-linejoin="round"/>
</svg>
