<svg width="24" height="24" viewBox="0 0 24 24" fill="none" xmlns="http://www.w3.org/2000/svg">
<path d="M19 16V18M20 17H18M13.75 17.8C13.75 19.5673 12.239 21 10.375 21C8.51104 21 7 19.5673 7 17.8C7 16.0327 8.51104 14.6 10.375 14.6C12.239 14.6 13.75 16.0327 13.75 17.8ZM13.75 17.8V9.8V5.27116C13.75 5.17822 13.8661 5.13544 13.9271 5.20553C15.6618 7.19786 16.7793 7.85615 19 8M8.08036 5.91964C7.59886 5.43813 7.31781 4.58005 7.16372 3.91831C7.13655 3.80162 6.86345 3.80162 6.83628 3.91831C6.68219 4.58005 6.40114 5.43813 5.91964 5.91964C5.43813 6.40115 4.58005 6.68219 3.91831 6.83628C3.80162 6.86345 3.80162 7.13655 3.91831 7.16372C4.58005 7.31781 5.43813 7.59886 5.91964 8.08036C6.40114 8.56187 6.68219 9.41995 6.83628 10.0817C6.86345 10.1984 7.13655 10.1984 7.16372 10.0817C7.31781 9.41995 7.59886 8.56187 8.08036 8.08036C8.56187 7.59886 9.41995 7.31781 10.0817 7.16372C10.1984 7.13655 10.1984 6.86345 10.0817 6.83628C9.41995 6.68219 8.56187 6.40115 8.08036 5.91964Z" stroke="black" stroke-width="2" stroke-linecap="round" stroke-linejoin="round"/>
</svg>
