<svg width="24" height="24" viewBox="0 0 24 24" fill="none" xmlns="http://www.w3.org/2000/svg">
<path d="M15.75 17.8C15.75 19.5673 14.239 21 12.375 21C10.511 21 9 19.5673 9 17.8C9 16.0327 10.511 14.6 12.375 14.6C14.239 14.6 15.75 16.0327 15.75 17.8ZM15.75 17.8V9.8M15.75 9.8V7C15.75 5.89543 16.6454 5 17.75 5H19.75C20.4404 5 21 5.55964 21 6.25V6.8C21 8.45686 19.6569 9.8 18 9.8H15.75ZM9.35045 6.64955C8.69143 5.99052 8.33281 4.76715 8.154 3.91953C8.12927 3.8023 7.87073 3.8023 7.846 3.91953C7.66719 4.76715 7.30857 5.99052 6.64955 6.64955C5.99052 7.30857 4.76715 7.66719 3.91954 7.846C3.8023 7.87073 3.8023 8.12927 3.91954 8.154C4.76715 8.33281 5.99052 8.69143 6.64955 9.35045C7.30857 10.0095 7.66719 11.2328 7.846 12.0805C7.87073 12.1977 8.12927 12.1977 8.154 12.0805C8.33281 11.2328 8.69143 10.0095 9.35045 9.35045C10.0095 8.69143 11.2328 8.33281 12.0805 8.154C12.1977 8.12927 12.1977 7.87073 12.0805 7.846C11.2328 7.66719 10.0095 7.30857 9.35045 6.64955Z" stroke="black" stroke-width="2" stroke-linecap="round" stroke-linejoin="round"/>
</svg>
