<svg width="24" height="24" viewBox="0 0 24 24" fill="none" xmlns="http://www.w3.org/2000/svg">
<path d="M15.75 17.8C15.75 19.5673 14.239 21 12.375 21C10.511 21 9 19.5673 9 17.8C9 16.0327 10.511 14.6 12.375 14.6C14.239 14.6 15.75 16.0327 15.75 17.8ZM15.75 17.8V9.8M15.75 9.8V7C15.75 5.89543 16.6454 5 17.75 5H19.75C20.4404 5 21 5.55964 21 6.25V6.8C21 8.45686 19.6569 9.8 18 9.8H15.75ZM12 3V9M4 7L6 3L8 7M4 7L3 9M4 7H8M9 9L8 7" stroke="black" stroke-width="2" stroke-linecap="round" stroke-linejoin="round"/>
</svg>
