<svg width="24" height="24" viewBox="0 0 24 24" fill="none" xmlns="http://www.w3.org/2000/svg">
<path d="M19.5 11V14M18 12.5H21M17 20V18M16 19H18M6.06014 12.6962C6.62462 12.3427 7 11.7152 7 11C7 9.89543 6.10457 9 5 9C3.89543 9 3 9.89543 3 11C3 12.1046 3.89543 13 5 13C5.38939 13 5.75279 12.8887 6.06014 12.6962ZM6.06014 12.6962L8.93986 17.3038M8.93986 17.3038C9.2472 17.1113 9.61061 17 10 17C10.2952 17 10.5756 17.064 10.8278 17.1788M8.93986 17.3038C8.37538 17.6573 8 18.2848 8 19C8 20.1046 8.89543 21 10 21C11.1046 21 12 20.1046 12 19C12 18.1907 11.5193 17.4936 10.8278 17.1788M10.8278 17.1788L12.2727 14M15.0804 5.91964C14.5989 5.43813 14.3178 4.58005 14.1637 3.91831C14.1365 3.80162 13.8635 3.80162 13.8363 3.91831C13.6822 4.58005 13.4011 5.43813 12.9196 5.91964C12.4381 6.40115 11.5801 6.68219 10.9183 6.83628C10.8016 6.86345 10.8016 7.13655 10.9183 7.16372C11.5801 7.31781 12.4381 7.59886 12.9196 8.08036C13.4011 8.56187 13.6822 9.41995 13.8363 10.0817C13.8635 10.1984 14.1365 10.1984 14.1637 10.0817C14.3178 9.41995 14.5989 8.56187 15.0804 8.08036C15.5619 7.59886 16.42 7.31781 17.0817 7.16372C17.1984 7.13655 17.1984 6.86345 17.0817 6.83628C16.42 6.68219 15.5619 6.40115 15.0804 5.91964Z" stroke="black" stroke-width="2" stroke-linecap="round" stroke-linejoin="round"/>
</svg>
