<svg width="24" height="24" viewBox="0 0 24 24" fill="none" xmlns="http://www.w3.org/2000/svg">
<path d="M6.06014 12.6962C6.62462 12.3427 7 11.7152 7 11C7 9.89543 6.10457 9 5 9C3.89543 9 3 9.89543 3 11C3 12.1046 3.89543 13 5 13C5.38939 13 5.75279 12.8887 6.06014 12.6962ZM6.06014 12.6962L9.93986 17.3038M9.93986 17.3038C10.2472 17.1113 10.6106 17 11 17C11.2952 17 11.5756 17.064 11.8278 17.1788M9.93986 17.3038C9.37538 17.6573 9 18.2848 9 19C9 20.1046 9.89543 21 11 21C12.1046 21 13 20.1046 13 19C13 18.1907 12.5193 17.4936 11.8278 17.1788M11.8278 17.1788L13.2727 14M17.3505 6.64955C16.6914 5.99052 16.3328 4.76715 16.154 3.91953C16.1293 3.8023 15.8707 3.8023 15.846 3.91953C15.6672 4.76715 15.3086 5.99052 14.6495 6.64955C13.9905 7.30857 12.7672 7.66719 11.9195 7.846C11.8023 7.87073 11.8023 8.12927 11.9195 8.154C12.7672 8.33281 13.9905 8.69143 14.6495 9.35045C15.3086 10.0095 15.6672 11.2328 15.846 12.0805C15.8707 12.1977 16.1293 12.1977 16.154 12.0805C16.3328 11.2328 16.6914 10.0095 17.3505 9.35045C18.0095 8.69143 19.2328 8.33281 20.0805 8.154C20.1977 8.12927 20.1977 7.87073 20.0805 7.846C19.2328 7.66719 18.0095 7.30857 17.3505 6.64955Z" stroke="black" stroke-width="2" stroke-linecap="round" stroke-linejoin="round"/>
</svg>
