<svg width="24" height="24" viewBox="0 0 24 24" fill="none" xmlns="http://www.w3.org/2000/svg">
<path d="M6.06014 12.6962C6.62462 12.3427 7 11.7152 7 11C7 9.89543 6.10457 9 5 9C3.89543 9 3 9.89543 3 11C3 12.1046 3.89543 13 5 13C5.38939 13 5.75279 12.8887 6.06014 12.6962ZM6.06014 12.6962L9.93986 17.3038M9.93986 17.3038C10.2472 17.1113 10.6106 17 11 17C11.2952 17 11.5756 17.064 11.8278 17.1788M9.93986 17.3038C9.37538 17.6573 9 18.2848 9 19C9 20.1046 9.89543 21 11 21C12.1046 21 13 20.1046 13 19C13 18.1907 12.5193 17.4936 11.8278 17.1788M15.2727 12L11.8278 17.1788M21 3V9M18 9L17 7M12 9L13 7M13 7L15 3L17 7M13 7H17" stroke="black" stroke-width="2" stroke-linecap="round" stroke-linejoin="round"/>
</svg>
