<svg width="24" height="24" viewBox="0 0 24 24" fill="none" xmlns="http://www.w3.org/2000/svg">
<path d="M6.06014 12.6962C6.62462 12.3427 7 11.7152 7 11C7 9.89543 6.10457 9 5 9C3.89543 9 3 9.89543 3 11C3 12.1046 3.89543 13 5 13C5.38939 13 5.75279 12.8887 6.06014 12.6962ZM6.06014 12.6962L9.93986 17.3038M9.93986 17.3038C10.2472 17.1113 10.6106 17 11 17C11.2952 17 11.5756 17.064 11.8278 17.1788M9.93986 17.3038C9.37538 17.6573 9 18.2848 9 19C9 20.1046 9.89543 21 11 21C12.1046 21 13 20.1046 13 19C13 18.1907 12.5193 17.4936 11.8278 17.1788M11.8278 17.1788L13.2727 15M13.3627 6.99996C12.6804 7.66665 12.9077 8.99998 14.4994 8.99996C13.817 10.1111 14.6128 11 16.0907 10.9999C16.6046 10.9999 16.871 10.6775 17 10.2568C17.1289 10.6775 17.3954 11 17.9093 11C19.3872 11 20.183 10.1111 19.5006 9.00001C21.0923 9.00003 21.3196 7.6667 20.6373 7.00002C21.3196 6.33334 21.0923 5.00002 19.5006 5.00004C20.183 3.88892 19.3872 3.00003 17.9093 3.00005C17.3954 3.00006 17.129 3.32251 17 3.74316C16.8711 3.32249 16.6046 3.00001 16.0907 3C14.6128 2.99998 13.817 3.88886 14.4994 4.99999C12.9077 4.99997 12.6804 6.33328 13.3627 6.99996Z" stroke="black" stroke-width="2" stroke-linecap="round" stroke-linejoin="round"/>
</svg>
