<svg width="24" height="24" viewBox="0 0 24 24" fill="none" xmlns="http://www.w3.org/2000/svg">
<path d="M9.66667 13.5L10.4444 13.5075M13.5556 13.5H14.3333M10.4444 17.25H13.5556M18.2222 15H19M18.2222 15C18.2222 18.3137 15.5359 21 12.2222 21H11.7778C8.46407 21 5.77778 18.3137 5.77778 15M18.2222 15C18.2222 12.6886 16.9152 10.6825 15 9.68035M5.77778 15H5M5.77778 15C5.77778 12.6886 7.08476 10.6825 9 9.68035M9 9.68035C9.83053 9.24578 10.7755 9 11.7778 9H12.2222C13.2245 9 14.1695 9.24578 15 9.68035M9 9.68035V6.34017L7 3M15 9.68035V6.34017L17 3" stroke="black" stroke-width="2" stroke-linecap="round" stroke-linejoin="round"/>
</svg>
