<svg width="24" height="24" viewBox="0 0 24 24" fill="none" xmlns="http://www.w3.org/2000/svg">
<path d="M17 6V5C17 3.34315 15.6569 2 14 2H12H10C8.34315 2 7 3.34315 7 5V6M17 6H18.5C19.3284 6 20 6.67157 20 7.5V7.5C20 8.32843 19.3284 9 18.5 9H17M17 6V9M17 9V9C17 10.6569 15.6569 12 14 12H12M7 6H5.5C4.67157 6 4 6.67157 4 7.5V7.5C4 8.32843 4.67157 9 5.5 9H7M7 6V9M7 9V9C7 10.6569 8.34315 12 10 12H12M10 6V6.01M14 6V6.01M10 9H14M12 12V15M4 21V20C4 17.2386 6.23858 15 9 15H12M20 21V20C20 17.2386 17.7614 15 15 15H12" stroke="black" stroke-width="2" stroke-linecap="round" stroke-linejoin="round"/>
</svg>
