<svg width="24" height="24" viewBox="0 0 24 24" fill="none" xmlns="http://www.w3.org/2000/svg">
<path d="M17 6V5C17 3.34315 15.6569 2 14 2H12H10C8.34315 2 7 3.34315 7 5V6M17 6H18.5C19.3284 6 20 6.67157 20 7.5V7.5C20 8.32843 19.3284 9 18.5 9H17M17 6V9M17 9V9C17 10.6569 15.6569 12 14 12H12H10C8.34315 12 7 10.6569 7 9V9M7 6H5.5C4.67157 6 4 6.67157 4 7.5V7.5C4 8.32843 4.67157 9 5.5 9H7M7 6V9M10 6V6.01M14 6V6.01M10 9H14M7.44531 16.5C7.44531 17.3284 8.11689 18 8.94531 18C9.77374 18 10.4453 17.3284 10.4453 16.5C10.4453 15.6716 9.77374 15 8.94531 15C8.11689 15 7.44531 15.6716 7.44531 16.5ZM13.4453 16.5C13.4453 17.3284 14.1169 18 14.9453 18C15.7737 18 16.4453 17.3284 16.4453 16.5C16.4453 15.6716 15.7737 15 14.9453 15C14.1169 15 13.4453 15.6716 13.4453 16.5ZM6 12H18C19.1046 12 20 12.8954 20 14V19C20 20.1046 19.1046 21 18 21H6C4.89543 21 4 20.1046 4 19V14C4 12.8954 4.89543 12 6 12Z" stroke="black" stroke-width="2" stroke-linecap="round" stroke-linejoin="round"/>
</svg>
