<svg width="24" height="24" viewBox="0 0 24 24" fill="none" xmlns="http://www.w3.org/2000/svg">
<path d="M9.66667 8.5L10.4444 8.5075M13.5556 8.5H14.3333M10.4444 12.25H13.5556M18.2222 10V10C18.2222 13.3137 15.5359 16 12.2222 16H12M18.2222 10V10C18.2222 6.68629 15.5359 4 12.2222 4H11.9444M18.2222 10H19M5.77778 10V10C5.77778 6.68629 8.46407 4 11.7778 4H11.9444M5.77778 10V10C5.77778 13.3137 8.46407 16 11.7778 16H12M5.77778 10H5M11.9444 2V4M12 16V19M12 19H19.5C20.3284 19 21 19.6716 21 20.5V20.5C21 21.3284 20.3284 22 19.5 22H4.5C3.67157 22 3 21.3284 3 20.5V20.5C3 19.6716 3.67157 19 4.5 19H12Z" stroke="black" stroke-width="2" stroke-linecap="round" stroke-linejoin="round"/>
</svg>
