<svg width="24" height="24" viewBox="0 0 24 24" fill="none" xmlns="http://www.w3.org/2000/svg">
<path d="M9 6V9.68035M9 9.68035C7.08476 10.6825 5.77778 12.6886 5.77778 15M9 9.68035C9.83053 9.24578 10.7755 9 11.7778 9H12.2222C13.2245 9 14.1695 9.24578 15 9.68035M15 6L15 9.68035M15 9.68035C16.9152 10.6825 18.2222 12.6886 18.2222 15M9.66667 13.5L10.4444 13.5075M13.5556 13.5H14.3333M10.4444 17.25H13.5556M18.2222 15H19M18.2222 15C18.2222 18.3137 15.5359 21 12.2222 21H11.7778C8.46407 21 5.77778 18.3137 5.77778 15M5.77778 15H5M15 3V3C15.8284 3 16.5 3.67157 16.5 4.5V4.5C16.5 5.32843 15.8284 6 15 6V6C14.1716 6 13.5 5.32843 13.5 4.5V4.5C13.5 3.67157 14.1716 3 15 3ZM9 3V3C9.82843 3 10.5 3.67157 10.5 4.5V4.5C10.5 5.32843 9.82843 6 9 6V6C8.17157 6 7.5 5.32843 7.5 4.5V4.5C7.5 3.67157 8.17157 3 9 3Z" stroke="black" stroke-width="2" stroke-linecap="round" stroke-linejoin="round"/>
</svg>
