<svg width="24" height="24" viewBox="0 0 24 24" fill="none" xmlns="http://www.w3.org/2000/svg">
<path d="M18 7V6C18 4.34315 16.6569 3 15 3H12H9C7.34315 3 6 4.34315 6 6V7M18 7H19.5C20.3284 7 21 7.67157 21 8.5V8.5C21 9.32843 20.3284 10 19.5 10H18M18 7V10M18 10V10C18 11.6569 16.6569 13 15 13H12M6 7H4.5C3.67157 7 3 7.67157 3 8.5V8.5C3 9.32843 3.67157 10 4.5 10H6M6 7V10M6 10V10C6 11.6569 7.34315 13 9 13H12M10 7V7.01M14 7V7.01M10 10H14M12 13V16M12 16H5C3.89543 16 3 16.8954 3 18V19C3 20.1046 3.89543 21 5 21H19C20.1046 21 21 20.1046 21 19V18C21 16.8954 20.1046 16 19 16H12Z" stroke="black" stroke-width="2" stroke-linecap="round" stroke-linejoin="round"/>
</svg>
