<svg width="24" height="24" viewBox="0 0 24 24" fill="none" xmlns="http://www.w3.org/2000/svg">
<path d="M18 11V10C18 8.34315 16.6569 7 15 7H9M18 11H18.5C19.8807 11 21 12.1193 21 13.5V13.5C21 14.8807 19.8807 16 18.5 16H18M18 11V16M18 16V17C18 18.6569 16.6569 20 15 20H9C7.34315 20 6 18.6569 6 17V16M6 11V10C6 8.34315 7.34315 7 9 7V7M6 11H5.5C4.11929 11 3 12.1193 3 13.5V13.5C3 14.8807 4.11929 16 5.5 16H6M6 11V16M9 3V7M10 12V12.01M14 12V12.01M10 15H14M15 3V7" stroke="black" stroke-width="2" stroke-linecap="round" stroke-linejoin="round"/>
</svg>
