<svg width="24" height="24" viewBox="0 0 24 24" fill="none" xmlns="http://www.w3.org/2000/svg">
<path d="M17 6V5C17 3.34315 15.6569 2 14 2H12H10C8.34315 2 7 3.34315 7 5V6M17 6H18.5C19.3284 6 20 6.67157 20 7.5V7.5C20 8.32843 19.3284 9 18.5 9H17M17 6V9M17 9V9C17 10.6569 15.6569 12 14 12H12H10C8.34315 12 7 10.6569 7 9V9M7 6H5.5C4.67157 6 4 6.67157 4 7.5V7.5C4 8.32843 4.67157 9 5.5 9H7M7 6V9M10 6V6.01M14 6V6.01M10 9H14M8 12H16C17.1046 12 18 12.8954 18 14V19C18 20.1046 17.1046 21 16 21H8C6.89543 21 6 20.1046 6 19V14C6 12.8954 6.89543 12 8 12Z" stroke="black" stroke-width="2" stroke-linecap="round" stroke-linejoin="round"/>
</svg>
