<svg width="24" height="24" viewBox="0 0 24 24" fill="none" xmlns="http://www.w3.org/2000/svg">
<path d="M9.66667 13.5L10.4444 13.5075M13.5556 13.5H14.3333M10.4444 17.25H13.5556M18.2222 15V15C18.2222 18.3137 15.5359 21 12.2222 21H11.7778C8.46407 21 5.77778 18.3137 5.77778 15V15M18.2222 15V15C18.2222 11.6863 15.5359 9 12.2222 9H11.9444M18.2222 15H19M5.77778 15V15C5.77778 11.6863 8.46407 9 11.7778 9H11.9444M5.77778 15H5M11.9444 6V6C12.7729 6 13.4444 5.32843 13.4444 4.5V4.5C13.4444 3.67157 12.7729 3 11.9444 3V3C11.116 3 10.4444 3.67157 10.4444 4.5V4.5C10.4444 5.32843 11.116 6 11.9444 6V6ZM11.9444 6V9" stroke="black" stroke-width="2" stroke-linecap="round" stroke-linejoin="round"/>
</svg>
