<svg width="24" height="24" viewBox="0 0 24 24" fill="none" xmlns="http://www.w3.org/2000/svg">
<path d="M18 14V13C18 11.3431 16.6569 10 15 10H9M18 14H19.5C20.3284 14 21 14.6716 21 15.5V15.5C21 16.3284 20.3284 17 19.5 17H18M18 14V17M18 17V17C18 18.6569 16.6569 20 15 20H9C7.34315 20 6 18.6569 6 17V17M6 14V13C6 11.3431 7.34315 10 9 10V10M6 14H4.5C3.67157 14 3 14.6716 3 15.5V15.5C3 16.3284 3.67157 17 4.5 17H6M6 14V17M9 7V10M10 14V14.01M14 14V14.01M10 17H14M15 7V10M15 7V7C15.8284 7 16.5 6.32843 16.5 5.5V5.5C16.5 4.67157 15.8284 4 15 4V4C14.1716 4 13.5 4.67157 13.5 5.5V5.5C13.5 6.32843 14.1716 7 15 7ZM10.5 5.5V5.5C10.5 6.32843 9.82843 7 9 7V7C8.17157 7 7.5 6.32843 7.5 5.5V5.5C7.5 4.67157 8.17157 4 9 4V4C9.82843 4 10.5 4.67157 10.5 5.5Z" stroke="black" stroke-width="2" stroke-linecap="round" stroke-linejoin="round"/>
</svg>
