<svg width="24" height="24" viewBox="0 0 24 24" fill="none" xmlns="http://www.w3.org/2000/svg">
<path d="M9.66667 8.5L10.4444 8.5075M13.5556 8.5H14.3333M10.4444 12.25H13.5556M18.2222 10V10C18.2222 13.3137 15.5359 16 12.2222 16H12H11.7778C8.46407 16 5.77778 13.3137 5.77778 10V10M18.2222 10V10C18.2222 6.68629 15.5359 4 12.2222 4H11.9444M18.2222 10H19M5.77778 10V10C5.77778 6.68629 8.46407 4 11.7778 4H11.9444M5.77778 10H5M11.9444 2V4M5 18V20C5 21.1046 5.89543 22 7 22H17C18.1046 22 19 21.1046 19 20V18C19 16.8954 18.1046 16 17 16H7C5.89543 16 5 16.8954 5 18Z" stroke="black" stroke-width="2" stroke-linecap="round" stroke-linejoin="round"/>
</svg>
