<svg width="24" height="24" viewBox="0 0 24 24" fill="none" xmlns="http://www.w3.org/2000/svg">
<path d="M18 14V13C18 11.3431 16.6569 10 15 10H12M18 14H19.5C20.3284 14 21 14.6716 21 15.5V15.5C21 16.3284 20.3284 17 19.5 17H18M18 14V17M18 17V17C18 18.6569 16.6569 20 15 20H9C7.34315 20 6 18.6569 6 17V17M6 14V13C6 11.3431 7.34315 10 9 10H12M6 14H4.5C3.67157 14 3 14.6716 3 15.5V15.5C3 16.3284 3.67157 17 4.5 17H6M6 14V17M12 7V10M10 14V14.01M14 14V14.01M10 17H14M12 7V7C10.8954 7 10 6.10457 10 5V5C10 3.89543 10.8954 3 12 3V3C13.1046 3 14 3.89543 14 5V5C14 6.10457 13.1046 7 12 7Z" stroke="black" stroke-width="2" stroke-linecap="round" stroke-linejoin="round"/>
</svg>
