<svg width="24" height="24" viewBox="0 0 24 24" fill="none" xmlns="http://www.w3.org/2000/svg">
<path d="M12 8.74316C12.129 8.32251 12.3954 8.00006 12.9093 8.00005C14.3872 8.00003 15.183 8.88892 14.5006 10C16.0923 10 16.3196 11.3333 15.6373 12C16.3196 12.6667 16.0923 14 14.5006 14C15.183 15.1111 14.3872 16 12.9093 16C12.3954 16 12.1289 15.6775 12 15.2568M12 8.74316C11.8711 8.32249 11.6046 8.00001 11.0907 8C9.61282 7.99998 8.81697 8.88886 9.49936 9.99999C7.90768 9.99997 7.68043 11.3333 8.36271 12C7.68043 12.6666 7.90768 14 9.49936 14C8.81697 15.1111 9.61282 16 11.0907 15.9999C11.6046 15.9999 11.871 15.6775 12 15.2568M12 8.74316L12 10.2222M12 15.2568L12 13.7777M10.9715 2H13.0285C13.565 2 14 2.43497 14 2.97154C14 3.42037 14.3096 3.80515 14.7346 3.94946C15.0868 4.06904 15.4285 4.21107 15.7582 4.37385C16.1608 4.57265 16.6521 4.51949 16.9696 4.20197C17.3492 3.82242 17.9646 3.82242 18.3441 4.20197L19.798 5.6559C20.1776 6.03546 20.1776 6.65084 19.798 7.0304C19.4805 7.34792 19.4274 7.83918 19.6262 8.24182C19.7889 8.5715 19.931 8.91325 20.0505 9.26537C20.1949 9.69037 20.5796 10 21.0285 10C21.565 10 22 10.435 22 10.9715V13.0285C22 13.565 21.565 14 21.0285 14C20.5796 14 20.1949 14.3096 20.0505 14.7346C19.931 15.0868 19.7889 15.4285 19.6262 15.7582C19.4274 16.1608 19.4805 16.6521 19.798 16.9696C20.1776 17.3492 20.1776 17.9645 19.798 18.3441L18.3441 19.798C17.9645 20.1776 17.3492 20.1776 16.9696 19.798C16.6521 19.4805 16.1608 19.4274 15.7582 19.6262C15.4285 19.7889 15.0868 19.931 14.7346 20.0505C14.3096 20.1949 14 20.5796 14 21.0285C14 21.565 13.565 22 13.0285 22H10.9715C10.435 22 10 21.565 10 21.0285C10 20.5796 9.69037 20.1949 9.26537 20.0505C8.91325 19.931 8.5715 19.7889 8.24182 19.6262C7.83918 19.4274 7.34792 19.4805 7.0304 19.798C6.65085 20.1776 6.03546 20.1776 5.65591 19.798L4.20197 18.3441C3.82242 17.9646 3.82242 17.3492 4.20197 16.9696C4.51949 16.6521 4.57265 16.1608 4.37385 15.7582C4.21107 15.4285 4.06904 15.0868 3.94946 14.7346C3.80515 14.3096 3.42037 14 2.97154 14C2.43497 14 2 13.565 2 13.0285V10.9715C2 10.435 2.43497 10 2.97154 10C3.42037 10 3.80515 9.69036 3.94946 9.26537C4.06904 8.91325 4.21107 8.57149 4.37384 8.24181C4.57264 7.83917 4.51949 7.34791 4.20197 7.03039C3.82241 6.65084 3.82241 6.03546 4.20197 5.6559L5.6559 4.20197C6.03545 3.82241 6.65084 3.82241 7.03039 4.20197C7.34791 4.51949 7.83917 4.57264 8.24181 4.37384C8.57149 4.21107 8.91325 4.06904 9.26537 3.94946C9.69037 3.80515 10 3.42037 10 2.97154C10 2.43497 10.435 2 10.9715 2Z" stroke="black" stroke-width="2" stroke-linecap="round" stroke-linejoin="round"/>
</svg>
