<svg width="24" height="24" viewBox="0 0 24 24" fill="none" xmlns="http://www.w3.org/2000/svg">
<path d="M3 7V6.5C3 4.567 4.567 3 6.5 3H8M21 7V6.5C21 4.567 19.433 3 17.5 3H16M3 17V17.5C3 19.433 4.567 21 6.5 21H8M21 17V17.5C21 19.433 19.433 21 17.5 21H16M12.154 7.91953C12.3328 8.76715 12.6914 9.99052 13.3505 10.6495C14.0095 11.3086 15.2328 11.6672 16.0805 11.846C16.1977 11.8707 16.1977 12.1293 16.0805 12.154C15.2328 12.3328 14.0095 12.6914 13.3505 13.3505C12.6914 14.0095 12.3328 15.2328 12.154 16.0805C12.1293 16.1977 11.8707 16.1977 11.846 16.0805C11.6672 15.2328 11.3086 14.0095 10.6495 13.3505C9.99052 12.6914 8.76715 12.3328 7.91954 12.154C7.8023 12.1293 7.8023 11.8707 7.91954 11.846C8.76715 11.6672 9.99052 11.3086 10.6495 10.6495C11.3086 9.99052 11.6672 8.76715 11.846 7.91953C11.8707 7.8023 12.1293 7.8023 12.154 7.91953Z" stroke="black" stroke-width="2" stroke-linecap="round" stroke-linejoin="round"/>
</svg>
