<svg width="24" height="24" viewBox="0 0 24 24" fill="none" xmlns="http://www.w3.org/2000/svg">
<path fill-rule="evenodd" clip-rule="evenodd" d="M4 6.5C4 5.11929 5.11929 4 6.5 4H8C8.55228 4 9 3.55228 9 3C9 2.44772 8.55228 2 8 2H6.5C4.01472 2 2 4.01472 2 6.5V7C2 7.55228 2.44772 8 3 8C3.55228 8 4 7.55228 4 7V6.5ZM16 2C15.4477 2 15 2.44772 15 3C15 3.55228 15.4477 4 16 4H17.5C18.8807 4 20 5.11929 20 6.5V7C20 7.55228 20.4477 8 21 8C21.5523 8 22 7.55228 22 7V6.5C22 4.01472 19.9853 2 17.5 2H16ZM13.1377 5.69152C13.0398 5.27135 12.7383 5.04918 12.544 4.95421C12.348 4.85846 12.1532 4.83079 12 4.83079C11.8468 4.83079 11.652 4.85846 11.456 4.95421C11.2617 5.04918 10.9602 5.27135 10.8623 5.69152C10.793 5.98919 10.6994 6.31133 10.5784 6.60022C10.453 6.89947 10.3236 7.10144 10.2125 7.21253C10.1014 7.32362 9.89947 7.45304 9.60022 7.57838C9.31133 7.69939 8.98919 7.79303 8.69152 7.86234C8.27135 7.96017 8.04918 8.26169 7.95421 8.45603C7.85846 8.65197 7.83079 8.84677 7.83079 9C7.83079 9.15323 7.85846 9.34803 7.95421 9.54397C8.04918 9.73831 8.27135 10.0398 8.69152 10.1377C8.98919 10.207 9.31133 10.3006 9.60022 10.4216C9.89947 10.547 10.1014 10.6764 10.2125 10.7875C10.3236 10.8986 10.453 11.1005 10.5784 11.3998C10.6994 11.6887 10.793 12.0108 10.8623 12.3085C10.9602 12.7287 11.2617 12.9508 11.456 13.0458C11.652 13.1415 11.8468 13.1692 12 13.1692C12.1532 13.1692 12.348 13.1415 12.544 13.0458C12.7383 12.9508 13.0398 12.7287 13.1377 12.3085C13.207 12.0108 13.3006 11.6887 13.4216 11.3998C13.547 11.1005 13.6764 10.8986 13.7875 10.7875C13.8986 10.6764 14.1005 10.547 14.3998 10.4216C14.6887 10.3006 15.0108 10.207 15.3085 10.1377L15.0817 9.16372L15.3085 10.1377C15.7287 10.0398 15.9508 9.73831 16.0458 9.54397C16.1415 9.34803 16.1692 9.15323 16.1692 9C16.1692 8.84677 16.1415 8.65197 16.0458 8.45603C15.9508 8.26169 15.7287 7.96017 15.3085 7.86234C15.0108 7.79303 14.6887 7.69939 14.3998 7.57838C14.1005 7.45304 13.8986 7.32362 13.7875 7.21253C13.6764 7.10144 13.547 6.89947 13.4216 6.60022C13.3006 6.31133 13.207 5.98919 13.1377 5.69152ZM11.6267 8.62674C11.7675 8.48594 11.8912 8.33106 12 8.17032C12.1088 8.33106 12.2325 8.48594 12.3733 8.62674C12.5141 8.76755 12.6689 8.89122 12.8297 9C12.6689 9.10878 12.5141 9.23245 12.3733 9.37326C12.2325 9.51406 12.1088 9.66894 12 9.82968C11.8912 9.66894 11.7675 9.51406 11.6267 9.37326C11.4859 9.23245 11.3311 9.10878 11.1703 9C11.3311 8.89122 11.4859 8.76755 11.6267 8.62674ZM4 17C4 16.4477 3.55228 16 3 16C2.44772 16 2 16.4477 2 17V17.5C2 19.9853 4.01472 22 6.5 22H8C8.55228 22 9 21.5523 9 21C9 20.4477 8.55228 20 8 20H6.5C5.11929 20 4 18.8807 4 17.5V17ZM22 17C22 16.4477 21.5523 16 21 16C20.4477 16 20 16.4477 20 17V17.5C20 18.8807 18.8807 20 17.5 20H16C15.4477 20 15 20.4477 15 21C15 21.5523 15.4477 22 16 22H17.5C19.9853 22 22 19.9853 22 17.5V17ZM8.43042 12.8123C8.3459 12.5881 7.65487 12.5881 7.57035 12.8123C7.41156 13.2336 7.19957 13.6401 6.92002 13.9197C6.64047 14.1992 6.23399 14.4112 5.8127 14.57C5.58848 14.6545 5.58848 15.3455 5.8127 15.4301C6.23399 15.5889 6.64047 15.8008 6.92002 16.0804C7.19957 16.3599 7.41156 16.7664 7.57035 17.1877C7.65487 17.4119 8.3459 17.4119 8.43042 17.1877C8.58922 16.7664 8.8012 16.3599 9.08075 16.0804C9.3603 15.8008 9.76678 15.5889 10.1881 15.4301C10.4123 15.3455 10.4123 14.6545 10.1881 14.57C9.76678 14.4112 9.3603 14.1992 9.08075 13.9197C8.8012 13.6401 8.58922 13.2336 8.43042 12.8123ZM16.4304 12.8123C16.5892 13.2336 16.8012 13.6401 17.0808 13.9197C17.3603 14.1992 17.7668 14.4112 18.1881 14.57C18.4123 14.6545 18.4123 15.3455 18.1881 15.4301C17.7668 15.5889 17.3603 15.8008 17.0808 16.0804C16.8012 16.3599 16.5892 16.7664 16.4304 17.1877C16.3459 17.4119 15.6549 17.4119 15.5704 17.1877C15.4116 16.7664 15.1996 16.3599 14.92 16.0804C14.6405 15.8008 14.234 15.5889 13.8127 15.4301C13.5885 15.3455 13.5885 14.6545 13.8127 14.57C14.234 14.4112 14.6405 14.1992 14.92 13.9197C15.1996 13.6401 15.4116 13.2336 15.5704 12.8123C15.6549 12.5881 16.3459 12.5881 16.4304 12.8123Z" fill="black"/>
</svg>
