<svg width="24" height="24" viewBox="0 0 24 24" fill="none" xmlns="http://www.w3.org/2000/svg">
<path d="M17.0807 13.9197C16.8012 13.6401 16.5892 13.2336 16.4304 12.8123C16.3459 12.5881 15.6549 12.5881 15.5704 12.8123C15.4116 13.2336 15.1996 13.6401 14.92 13.9197C14.6405 14.1992 14.234 14.4112 13.8127 14.57C13.5885 14.6545 13.5885 15.3455 13.8127 15.4301C14.234 15.5889 14.6405 15.8008 14.92 16.0804C15.1996 16.3599 15.4116 16.7664 15.5704 17.1877C15.6549 17.4119 16.3459 17.4119 16.4304 17.1877C16.5892 16.7664 16.8012 16.3599 17.0807 16.0804C17.3603 15.8008 17.7668 15.5889 18.1881 15.4301C18.4123 15.3455 18.4123 14.6545 18.1881 14.57C17.7668 14.4112 17.3603 14.1992 17.0807 13.9197Z" fill="black"/>
<path d="M3 7V6.5C3 4.567 4.567 3 6.5 3H8M21 7V6.5C21 4.567 19.433 3 17.5 3H16M3 17V17.5C3 19.433 4.567 21 6.5 21H8M21 17V17.5C21 19.433 19.433 21 17.5 21H16M10.154 5.91953C10.3328 6.76715 10.6914 7.99052 11.3505 8.64955C12.0095 9.30857 13.2328 9.66719 14.0805 9.846C14.1977 9.87073 14.1977 10.1293 14.0805 10.154C13.2328 10.3328 12.0095 10.6914 11.3505 11.3505C10.6914 12.0095 10.3328 13.2328 10.154 14.0805C10.1293 14.1977 9.87073 14.1977 9.846 14.0805C9.66719 13.2328 9.30857 12.0095 8.64955 11.3505C7.99052 10.6914 6.76715 10.3328 5.91954 10.154C5.8023 10.1293 5.8023 9.87073 5.91954 9.846C6.76715 9.66719 7.99052 9.30857 8.64955 8.64955C9.30857 7.99052 9.66719 6.76715 9.846 5.91953C9.87073 5.8023 10.1293 5.8023 10.154 5.91953Z" stroke="black" stroke-width="2" stroke-linecap="round" stroke-linejoin="round"/>
</svg>
