<svg width="24" height="24" viewBox="0 0 24 24" fill="none" xmlns="http://www.w3.org/2000/svg">
<path d="M3 7V6.5C3 4.567 4.567 3 6.5 3H8M21 7V6.5C21 4.567 19.433 3 17.5 3H16M3 17V17.5C3 19.433 4.567 21 6.5 21H8M21 17V17.5C21 19.433 19.433 21 17.5 21H16M12 7.11473C12.1934 6.48377 12.5931 6.00009 13.364 6.00008C15.5808 6.00005 16.7745 7.33338 15.751 9.00007C18.1385 9.00004 18.4794 11 17.4559 12C18.4794 13.0001 18.1385 15 15.751 15C16.7745 16.6667 15.5808 18 13.364 18C12.5931 18 12.1934 17.5163 12 16.8852M12 7.11473C11.8066 6.48373 11.4069 6.00001 10.636 6C8.41923 5.99997 7.22546 7.3333 8.24904 8.99999C5.86151 8.99996 5.52065 10.9999 6.54406 11.9999C5.52065 13 5.86151 15 8.24904 14.9999C7.22546 16.6666 8.41923 17.9999 10.636 17.9999C11.4069 17.9999 11.8066 17.5162 12 16.8852M12 7.11473L12 9.33329M12 16.8852L12 14.6666M12 14C10.8954 14 10 13.1046 10 12C10 10.8954 10.8954 10 12 10C13.1046 10 14 10.8954 14 12C14 13.1046 13.1046 14 12 14Z" stroke="black" stroke-width="2" stroke-linecap="round" stroke-linejoin="round"/>
</svg>
