<svg width="24" height="24" viewBox="0 0 24 24" fill="none" xmlns="http://www.w3.org/2000/svg">
<path d="M13 20H5C3.34315 20 2 18.6569 2 17V7C2 5.34315 3.34315 4 5 4H13C14.6569 4 16 5.34315 16 7V7.93248C16 8.3564 16.4944 8.58798 16.8201 8.31659L19.5397 6.05023C20.5167 5.23607 22 5.93081 22 7.20256V16.7974C22 18.0692 20.5167 18.7639 19.5397 17.9498L16.8201 15.6834C16.4944 15.412 16 15.6436 16 16.0675V17C16 18.6569 14.6569 20 13 20Z" stroke="black" stroke-width="2" stroke-linecap="round" stroke-linejoin="round"/>
</svg>
