<svg width="24" height="24" viewBox="0 0 24 24" fill="none" xmlns="http://www.w3.org/2000/svg">
<path d="M13 9V15M5.88889 13L7.66667 9L9.44444 13M5.88889 13L5 15M5.88889 13H9.44444M10.3333 15L9.44444 13M22 16.7974V7.20256C22 5.93081 20.5167 5.23607 19.5397 6.05023L16.8201 8.31659C16.4944 8.58798 16 8.3564 16 7.93248V7C16 5.34315 14.6569 4 13 4H5C3.34315 4 2 5.34315 2 7V17C2 18.6569 3.34315 20 5 20H13C14.6569 20 16 18.6569 16 17V16.0675C16 15.6436 16.4944 15.412 16.8201 15.6834L19.5397 17.9498C20.5167 18.7639 22 18.0692 22 16.7974Z" stroke="black" stroke-width="2" stroke-linecap="round" stroke-linejoin="round"/>
</svg>
