<svg width="24" height="24" viewBox="0 0 24 24" fill="none" xmlns="http://www.w3.org/2000/svg">
<path d="M9.00001 8.74316C9.12896 8.32251 9.39542 8.00006 9.90932 8.00005C11.3872 8.00003 12.183 8.88892 11.5006 10C13.0923 10 13.3196 11.3333 12.6373 12C13.3196 12.6667 13.0923 14 11.5006 14C12.183 15.1111 11.3872 16 9.90932 16C9.3954 16 9.12895 15.6775 8.99999 15.2568M9.00001 8.74316C8.87105 8.32249 8.6046 8.00001 8.09068 8C6.61282 7.99998 5.81697 8.88886 6.49936 9.99999C4.90768 9.99997 4.68043 11.3333 5.36271 12C4.68043 12.6666 4.90768 14 6.49936 14C5.81697 15.1111 6.61282 16 8.09068 15.9999C8.60458 15.9999 8.87104 15.6775 8.99999 15.2568M9.00001 8.74316L9 10.2222M8.99999 15.2568L9 13.7777M22 16.7974V7.20256C22 5.93081 20.5167 5.23607 19.5397 6.05023L16.8201 8.31659C16.4944 8.58798 16 8.3564 16 7.93248V7C16 5.34315 14.6569 4 13 4H5C3.34315 4 2 5.34315 2 7V17C2 18.6569 3.34315 20 5 20H13C14.6569 20 16 18.6569 16 17V16.0675C16 15.6436 16.4944 15.412 16.8201 15.6834L19.5397 17.9498C20.5167 18.7639 22 18.0692 22 16.7974Z" stroke="black" stroke-width="2" stroke-linecap="round" stroke-linejoin="round"/>
</svg>
