<svg width="24" height="24" viewBox="0 0 24 24" fill="none" xmlns="http://www.w3.org/2000/svg">
<path fill-rule="evenodd" clip-rule="evenodd" d="M5 3C2.79086 3 1 4.79086 1 7V17C1 19.2091 2.79086 21 5 21H13C15.1646 21 16.9275 19.2807 16.9978 17.1332L18.8995 18.718C20.5279 20.0749 23 18.917 23 16.7974V7.20256C23 5.08297 20.5279 3.92507 18.8995 5.28201L16.9978 6.86677C16.9275 4.71931 15.1646 3 13 3H5ZM3 7C3 5.89543 3.89543 5 5 5H13C14.1046 5 15 5.89543 15 7V7.93248C15 9.20424 16.4833 9.89897 17.4603 9.08481L20.1799 6.81845C20.5056 6.54707 21 6.77864 21 7.20256V16.7974C21 17.2214 20.5056 17.4529 20.1799 17.1815L17.4603 14.9152C16.4833 14.101 15 14.7958 15 16.0675V17C15 18.1046 14.1046 19 13 19H5C3.89543 19 3 18.1046 3 17V7ZM9.13766 6.69152C9.03983 6.27135 8.73831 6.04918 8.54397 5.95421C8.34803 5.85846 8.15323 5.83079 8 5.83079C7.84677 5.83079 7.65197 5.85846 7.45603 5.95421C7.26169 6.04918 6.96017 6.27135 6.86234 6.69152C6.79303 6.98919 6.69939 7.31133 6.57838 7.60022C6.45304 7.89947 6.32362 8.10144 6.21253 8.21253C6.10144 8.32362 5.89947 8.45304 5.60022 8.57838C5.31133 8.69939 4.98919 8.79303 4.69152 8.86234C4.27135 8.96017 4.04918 9.26169 3.95421 9.45603C3.85846 9.65197 3.83079 9.84677 3.83079 10C3.83079 10.1532 3.85846 10.348 3.95421 10.544C4.04918 10.7383 4.27135 11.0398 4.69152 11.1377C4.98919 11.207 5.31133 11.3006 5.60022 11.4216C5.89947 11.547 6.10144 11.6764 6.21253 11.7875C6.32362 11.8986 6.45304 12.1005 6.57838 12.3998C6.69939 12.6887 6.79303 13.0108 6.86234 13.3085C6.96017 13.7287 7.26169 13.9508 7.45603 14.0458C7.65197 14.1415 7.84677 14.1692 8 14.1692C8.15323 14.1692 8.34803 14.1415 8.54397 14.0458C8.73831 13.9508 9.03983 13.7287 9.13766 13.3085C9.20697 13.0108 9.30061 12.6887 9.42162 12.3998C9.54696 12.1005 9.67638 11.8986 9.78747 11.7875C9.89856 11.6764 10.1005 11.547 10.3998 11.4216C10.6887 11.3006 11.0108 11.207 11.3085 11.1377L11.0817 10.1637L11.3085 11.1377C11.7287 11.0398 11.9508 10.7383 12.0458 10.544C12.1415 10.348 12.1692 10.1532 12.1692 10C12.1692 9.84677 12.1415 9.65197 12.0458 9.45603C11.9508 9.26169 11.7287 8.96017 11.3085 8.86234C11.0108 8.79303 10.6887 8.69939 10.3998 8.57838C10.1005 8.45304 9.89856 8.32362 9.78747 8.21253C9.67638 8.10144 9.54696 7.89947 9.42162 7.60022C9.30061 7.31133 9.20697 6.98919 9.13766 6.69152ZM7.62674 9.62674C7.76755 9.48594 7.89122 9.33106 8 9.17033C8.10878 9.33106 8.23245 9.48594 8.37326 9.62674C8.51406 9.76755 8.66894 9.89122 8.82967 10C8.66894 10.1088 8.51406 10.2325 8.37326 10.3733C8.23245 10.5141 8.10878 10.6689 8 10.8297C7.89122 10.6689 7.76755 10.5141 7.62674 10.3733C7.48594 10.2325 7.33106 10.1088 7.17033 10C7.33106 9.89122 7.48594 9.76755 7.62674 9.62674ZM12.4304 12.8123C12.5892 13.2336 12.8012 13.6401 13.0807 13.9197C13.3603 14.1992 13.7668 14.4112 14.1881 14.57C14.4123 14.6545 14.4123 15.3455 14.1881 15.4301C13.7668 15.5889 13.3603 15.8008 13.0807 16.0804C12.8012 16.3599 12.5892 16.7664 12.4304 17.1877C12.3459 17.4119 11.6549 17.4119 11.5704 17.1877C11.4116 16.7664 11.1996 16.3599 10.92 16.0804C10.6405 15.8008 10.234 15.5889 9.8127 15.4301C9.58848 15.3455 9.58848 14.6545 9.8127 14.57C10.234 14.4112 10.6405 14.1992 10.92 13.9197C11.1996 13.6401 11.4116 13.2336 11.5704 12.8123C11.6549 12.5881 12.3459 12.5881 12.4304 12.8123Z" fill="black"/>
</svg>
