<svg width="24" height="24" viewBox="0 0 24 24" fill="none" xmlns="http://www.w3.org/2000/svg">
<path fill-rule="evenodd" clip-rule="evenodd" d="M11 3C11 2.44772 11.4477 2 12 2C12.5523 2 13 2.44772 13 3C13 3.55228 12.5523 4 12 4C11.4477 4 11 3.55228 11 3ZM4 6C4 5.44772 4.44772 5 5 5C5.55228 5 6 5.44772 6 6C6 6.55228 5.55228 7 5 7C4.44772 7 4 6.55228 4 6ZM2 12C1.44772 12 1 12.4477 1 13C1 13.5523 1.44772 14 2 14C2.55228 14 3 13.5523 3 13C3 12.4477 2.55228 12 2 12ZM4 20C4 19.4477 4.44772 19 5 19C5.55228 19 6 19.4477 6 20C6 20.5523 5.55228 21 5 21C4.44772 21 4 20.5523 4 20ZM19 19C18.4477 19 18 19.4477 18 20C18 20.5523 18.4477 21 19 21C19.5523 21 20 20.5523 20 20C20 19.4477 19.5523 19 19 19ZM21 13C21 12.4477 21.4477 12 22 12C22.5523 12 23 12.4477 23 13C23 13.5523 22.5523 14 22 14C21.4477 14 21 13.5523 21 13ZM19 5C18.4477 5 18 5.44772 18 6C18 6.55228 18.4477 7 19 7C19.5523 7 20 6.55228 20 6C20 5.44772 19.5523 5 19 5ZM8.46447 16.5355C6.51185 14.5829 6.51184 11.4171 8.46447 9.46447C10.4171 7.51184 13.5829 7.51185 15.5355 9.46447C17.246 11.1749 17.4581 13.8163 16.1719 15.7577L12.7071 12.2929C12.3166 11.9024 11.6834 11.9024 11.2929 12.2929C10.9024 12.6834 10.9024 13.3166 11.2929 13.7071L14.7577 17.1719C12.8163 18.4581 10.1749 18.246 8.46447 16.5355ZM16.9497 8.05025C14.2161 5.31658 9.78392 5.31658 7.05025 8.05025C4.31658 10.7839 4.31658 15.2161 7.05025 17.9497C9.78392 20.6834 14.2161 20.6834 16.9497 17.9497C19.6834 15.2161 19.6834 10.7839 16.9497 8.05025Z" fill="black"/>
</svg>
