<svg width="24" height="24" viewBox="0 0 24 24" fill="none" xmlns="http://www.w3.org/2000/svg">
<path fill-rule="evenodd" clip-rule="evenodd" d="M11 3C11 2.44772 11.4477 2 12 2C12.5523 2 13 2.44772 13 3C13 3.55228 12.5523 4 12 4C11.4477 4 11 3.55228 11 3ZM4 6C4 5.44772 4.44772 5 5 5C5.55228 5 6 5.44772 6 6C6 6.55228 5.55228 7 5 7C4.44772 7 4 6.55228 4 6ZM2 12C1.44772 12 1 12.4477 1 13C1 13.5523 1.44772 14 2 14C2.55228 14 3 13.5523 3 13C3 12.4477 2.55228 12 2 12ZM4 20C4 19.4477 4.44772 19 5 19C5.55228 19 6 19.4477 6 20C6 20.5523 5.55228 21 5 21C4.44772 21 4 20.5523 4 20ZM19 19C18.4477 19 18 19.4477 18 20C18 20.5523 18.4477 21 19 21C19.5523 21 20 20.5523 20 20C20 19.4477 19.5523 19 19 19ZM21 13C21 12.4477 21.4477 12 22 12C22.5523 12 23 12.4477 23 13C23 13.5523 22.5523 14 22 14C21.4477 14 21 13.5523 21 13ZM19 5C18.4477 5 18 5.44772 18 6C18 6.55228 18.4477 7 19 7C19.5523 7 20 6.55228 20 6C20 5.44772 19.5523 5 19 5ZM12 6C8.13401 6 5 9.134 5 13C5 16.866 8.13401 20 12 20C15.866 20 19 16.866 19 13C19 9.13401 15.866 6 12 6ZM7 13C7 10.581 8.71776 8.56329 11 8.10002L11 13C11 13.5523 11.4477 14 12 14C12.5523 14 13 13.5523 13 13L13 8.10002C15.2822 8.56329 17 10.581 17 13C17 15.7614 14.7614 18 12 18C9.23858 18 7 15.7614 7 13Z" fill="black"/>
</svg>
