<svg width="24" height="24" viewBox="0 0 24 24" fill="none" xmlns="http://www.w3.org/2000/svg">
<path fill-rule="evenodd" clip-rule="evenodd" d="M7 6C3.68629 6 1 8.68629 1 12C1 15.3137 3.68629 18 7 18H17C20.3137 18 23 15.3137 23 12C23 8.68629 20.3137 6 17 6H7ZM3 12C3 9.79086 4.79086 8 7 8H17C19.2091 8 21 9.79086 21 12C21 14.2091 19.2091 16 17 16H7C4.79086 16 3 14.2091 3 12ZM7 14C5.89543 14 5 13.1046 5 12C5 10.8954 5.89543 10 7 10C8.10457 10 9 10.8954 9 12C9 13.1046 8.10457 14 7 14Z" fill="black"/>
</svg>
