<svg width="24" height="24" viewBox="0 0 24 24" fill="none" xmlns="http://www.w3.org/2000/svg">
<path fill-rule="evenodd" clip-rule="evenodd" d="M7 13C4.23858 13 2 15.2386 2 18C2 20.7614 4.23858 23 7 23H17C19.7614 23 22 20.7614 22 18C22 15.2386 19.7614 13 17 13H7ZM4 18C4 16.3431 5.34315 15 7 15H17C18.6569 15 20 16.3431 20 18C20 19.6569 18.6569 21 17 21H7C5.34315 21 4 19.6569 4 18ZM7 20C5.89543 20 5 19.1046 5 18C5 16.8954 5.89543 16 7 16C8.10457 16 9 16.8954 9 18C9 19.1046 8.10457 20 7 20Z" fill="black"/>
<path fill-rule="evenodd" clip-rule="evenodd" d="M7 1C4.23858 1 2 3.23858 2 6C2 8.76142 4.23858 11 7 11H17C19.7614 11 22 8.76142 22 6C22 3.23858 19.7614 1 17 1H7ZM4 6C4 4.34315 5.34315 3 7 3H17C18.6569 3 20 4.34315 20 6C20 7.65685 18.6569 9 17 9H7C5.34315 9 4 7.65685 4 6ZM17 8C15.8954 8 15 7.10457 15 6C15 4.89543 15.8954 4 17 4C18.1046 4 19 4.89543 19 6C19 7.10457 18.1046 8 17 8Z" fill="black"/>
</svg>
