<svg width="24" height="24" viewBox="0 0 24 24" fill="none" xmlns="http://www.w3.org/2000/svg">
<path fill-rule="evenodd" clip-rule="evenodd" d="M7 13C4.23858 13 2 15.2386 2 18C2 20.7614 4.23858 23 7 23H17C19.7614 23 22 20.7614 22 18C22 15.2386 19.7614 13 17 13H7ZM4 18C4 16.3431 5.34315 15 7 15H17C18.6569 15 20 16.3431 20 18C20 19.6569 18.6569 21 17 21H7C5.34315 21 4 19.6569 4 18ZM17 20C15.8954 20 15 19.1046 15 18C15 16.8954 15.8954 16 17 16C18.1046 16 19 16.8954 19 18C19 19.1046 18.1046 20 17 20Z" fill="black"/>
<path fill-rule="evenodd" clip-rule="evenodd" d="M7 1C4.23858 1 2 3.23858 2 6C2 8.76142 4.23858 11 7 11H17C19.7614 11 22 8.76142 22 6C22 3.23858 19.7614 1 17 1H7ZM4 6C4 4.34315 5.34315 3 7 3H17C18.6569 3 20 4.34315 20 6C20 7.65685 18.6569 9 17 9H7C5.34315 9 4 7.65685 4 6ZM7 8C5.89543 8 5 7.10457 5 6C5 4.89543 5.89543 4 7 4C8.10457 4 9 4.89543 9 6C9 7.10457 8.10457 8 7 8Z" fill="black"/>
</svg>
