<svg width="24" height="24" viewBox="0 0 24 24" fill="none" xmlns="http://www.w3.org/2000/svg">
<path fill-rule="evenodd" clip-rule="evenodd" d="M7 6C3.68629 6 1 8.68629 1 12C1 15.3137 3.68629 18 7 18H17C20.3137 18 23 15.3137 23 12C23 8.68629 20.3137 6 17 6H7ZM3 12C3 9.79086 4.79086 8 7 8H17C19.2091 8 21 9.79086 21 12C21 14.2091 19.2091 16 17 16H7C4.79086 16 3 14.2091 3 12ZM17 14C15.8954 14 15 13.1046 15 12C15 10.8954 15.8954 10 17 10C18.1046 10 19 10.8954 19 12C19 13.1046 18.1046 14 17 14Z" fill="black"/>
</svg>
