<svg width="24" height="24" viewBox="0 0 24 24" fill="none" xmlns="http://www.w3.org/2000/svg">
<path d="M19 14C19 14.5523 19.4477 15 20 15C20.5523 15 21 14.5523 21 14H19ZM12 5C11.4477 5 11 5.44772 11 6C11 6.55228 11.4477 7 12 7V5ZM19.47 5.348C19.9383 5.64071 20.5553 5.49834 20.848 5.03C21.1407 4.56166 20.9983 3.94471 20.53 3.652L19.47 5.348ZM16.53 1.152C16.0617 0.859291 15.4447 1.00166 15.152 1.47C14.8593 1.93834 15.0017 2.55529 15.47 2.848L16.53 1.152ZM21.2929 22.7071C21.6834 23.0976 22.3166 23.0976 22.7071 22.7071C23.0976 22.3166 23.0976 21.6834 22.7071 21.2929L21.2929 22.7071ZM4.70711 3.29289C4.31658 2.90237 3.68342 2.90237 3.29289 3.29289C2.90237 3.68342 2.90237 4.31658 3.29289 4.70711L4.70711 3.29289ZM12 21C8.13401 21 5 17.866 5 14H3C3 18.9706 7.02944 23 12 23V21ZM12 7C15.866 7 19 10.134 19 14H21C21 9.02944 16.9706 5 12 5V7ZM20.53 3.652L16.53 1.152L15.47 2.848L19.47 5.348L20.53 3.652ZM6.86003 6.61127C4.52885 8.23566 3 10.9392 3 14H5C5 11.6209 6.18595 9.51863 8.00343 8.25219L6.86003 6.61127ZM17.7478 17.9966C16.4814 19.8141 14.3791 21 12 21V23C15.0608 23 17.7643 21.4712 19.3887 19.14L17.7478 17.9966ZM6.72462 8.13884L6.79289 8.20711L8.20711 6.79289L8.13884 6.72462L6.72462 8.13884ZM19.2754 17.8612L8.20711 6.79289L6.79289 8.20711L17.8612 19.2754L19.2754 17.8612ZM17.8612 19.2754L21.2929 22.7071L22.7071 21.2929L19.2754 17.8612L17.8612 19.2754ZM8.13884 6.72462L4.70711 3.29289L3.29289 4.70711L6.72462 8.13884L8.13884 6.72462Z" fill="black"/>
</svg>
