<svg width="24" height="24" viewBox="0 0 24 24" fill="none" xmlns="http://www.w3.org/2000/svg">
<path fill-rule="evenodd" clip-rule="evenodd" d="M8.53001 2.84789C8.99835 2.55518 9.14072 1.93823 8.84801 1.46989C8.5553 1.00155 7.93835 0.859181 7.47001 1.15189L3.47001 3.65189C3.00168 3.9446 2.8593 4.56155 3.15201 5.02989C3.44472 5.49823 4.06167 5.6406 4.53001 5.34789L8.53001 2.84789ZM16.53 1.15189C16.0617 0.859181 15.4447 1.00155 15.152 1.46989C14.8593 1.93823 15.0017 2.55518 15.47 2.84789L19.47 5.34789C19.9383 5.6406 20.5553 5.49823 20.848 5.02989C21.1407 4.56155 20.9983 3.9446 20.53 3.65189L16.53 1.15189ZM12 4.99989C7.02945 4.99989 3.00001 9.02933 3.00001 13.9999C3.00001 18.9705 7.02945 22.9999 12 22.9999C16.9706 22.9999 21 18.9705 21 13.9999C21 9.02933 16.9706 4.99989 12 4.99989ZM5.00001 13.9999C5.00001 10.1339 8.13402 6.99989 12 6.99989C15.866 6.99989 19 10.1339 19 13.9999C19 17.8659 15.866 20.9999 12 20.9999C8.13402 20.9999 5.00001 17.8659 5.00001 13.9999ZM12.4617 10.3101C12.2909 9.89943 11.7092 9.89943 11.5384 10.3101L10.749 12.2081C10.6775 12.3801 10.5162 12.498 10.3306 12.5142L8.46229 12.6766C8.03356 12.7139 7.84908 13.2394 8.16042 13.5365L9.57962 14.8907C9.70831 15.0135 9.76207 15.1954 9.7208 15.3685L9.24016 17.3834C9.13697 17.816 9.6076 18.1579 9.98715 17.9261L11.7395 16.8558C11.8995 16.7581 12.1007 16.7581 12.2607 16.8558L14.013 17.9261C14.3926 18.1579 14.8632 17.816 14.76 17.3834L14.2795 15.3691C14.2382 15.1957 14.2922 15.0135 14.4214 14.8907L15.8454 13.5372C16.1577 13.2403 15.9734 12.7138 15.5441 12.6766L13.6696 12.5141C13.484 12.498 13.3227 12.38 13.2511 12.208L12.4617 10.3101Z" fill="black"/>
</svg>
