<svg width="24" height="24" viewBox="0 0 24 24" fill="none" xmlns="http://www.w3.org/2000/svg">
<path d="M3.47 3.652C3.00166 3.94471 2.85929 4.56166 3.152 5.03C3.44471 5.49834 4.06166 5.64071 4.53 5.348L3.47 3.652ZM8.53 2.848C8.99834 2.55529 9.14071 1.93834 8.848 1.47C8.55529 1.00166 7.93834 0.859291 7.47 1.152L8.53 2.848ZM19.47 5.348C19.9383 5.64071 20.5553 5.49834 20.848 5.03C21.1407 4.56166 20.9983 3.94471 20.53 3.652L19.47 5.348ZM16.53 1.152C16.0617 0.859291 15.4447 1.00166 15.152 1.47C14.8593 1.93834 15.0017 2.55529 15.47 2.848L16.53 1.152ZM11.9999 12.2119L11.2559 12.8801C11.4456 13.0913 11.7161 13.2119 11.9999 13.2119C12.2838 13.2119 12.5542 13.0913 12.7439 12.8801L11.9999 12.2119ZM11.9999 17.5L11.3603 18.2687C11.7309 18.5771 12.2689 18.5771 12.6396 18.2687L11.9999 17.5ZM12 21C8.13401 21 5 17.866 5 14H3C3 18.9706 7.02944 23 12 23V21ZM19 14C19 17.866 15.866 21 12 21V23C16.9706 23 21 18.9706 21 14H19ZM12 7C15.866 7 19 10.134 19 14H21C21 9.02944 16.9706 5 12 5V7ZM12 5C7.02944 5 3 9.02944 3 14H5C5 10.134 8.13401 7 12 7V5ZM4.53 5.348L8.53 2.848L7.47 1.152L3.47 3.652L4.53 5.348ZM20.53 3.652L16.53 1.152L15.47 2.848L19.47 5.348L20.53 3.652ZM12.7439 11.5437C11.7449 10.4314 9.97901 10.0595 8.62529 11.161L9.88763 12.7123C10.2875 12.387 10.8554 12.4342 11.2559 12.8801L12.7439 11.5437ZM8.62529 11.161C7.33185 12.2135 7.12218 14.0349 8.17 15.319L9.71958 14.0546C9.39034 13.6511 9.42754 13.0867 9.88763 12.7123L8.62529 11.161ZM15.8298 15.319C16.8682 14.0465 16.6971 12.2078 15.364 11.1526L14.1227 12.7208C14.5733 13.0774 14.6189 13.6395 14.2803 14.0546L15.8298 15.319ZM15.364 11.1526C14.0058 10.0774 12.2622 10.4233 11.2559 11.5437L12.7439 12.8801C13.1372 12.4423 13.6973 12.384 14.1227 12.7208L15.364 11.1526ZM8.17 15.319C8.57595 15.8165 9.40635 16.5752 10.069 17.1598C10.4137 17.4638 10.7358 17.7404 10.9716 17.9409C11.0896 18.0412 11.1862 18.1228 11.2536 18.1794C11.2873 18.2077 11.3137 18.2298 11.3318 18.2449C11.3409 18.2525 11.3478 18.2583 11.3526 18.2623C11.355 18.2643 11.3569 18.2658 11.3581 18.2669C11.3588 18.2674 11.3593 18.2678 11.3596 18.2681C11.3598 18.2683 11.36 18.2684 11.3601 18.2685C11.3601 18.2685 11.3602 18.2686 11.3602 18.2686C11.3602 18.2686 11.3603 18.2687 11.9999 17.5C12.6396 16.7313 12.6396 16.7313 12.6396 16.7314C12.6396 16.7313 12.6396 16.7313 12.6396 16.7313C12.6395 16.7313 12.6395 16.7312 12.6393 16.7311C12.6391 16.731 12.6388 16.7307 12.6383 16.7302C12.6373 16.7294 12.6357 16.7281 12.6336 16.7264C12.6294 16.7228 12.623 16.7175 12.6145 16.7104C12.5976 16.6963 12.5725 16.6753 12.5402 16.6481C12.4754 16.5937 12.3818 16.5148 12.2672 16.4173C12.0377 16.2221 11.7251 15.9537 11.3921 15.6599C10.6993 15.0488 10.0022 14.4009 9.71958 14.0546L8.17 15.319ZM11.9999 17.5C12.6396 18.2687 12.6396 18.2686 12.6397 18.2686C12.6397 18.2686 12.6397 18.2685 12.6398 18.2685C12.6399 18.2684 12.64 18.2683 12.6402 18.2681C12.6406 18.2678 12.6411 18.2674 12.6417 18.2669C12.643 18.2658 12.6448 18.2643 12.6472 18.2623C12.652 18.2583 12.659 18.2525 12.668 18.2449C12.6861 18.2298 12.7125 18.2077 12.7462 18.1794C12.8136 18.1228 12.9103 18.0412 13.0283 17.9409C13.264 17.7404 13.5862 17.4638 13.9308 17.1598C14.5935 16.5752 15.4239 15.8165 15.8298 15.319L14.2803 14.0546C13.9977 14.4009 13.3005 15.0488 12.6078 15.6599C12.2747 15.9537 11.9622 16.2221 11.7327 16.4173C11.618 16.5148 11.5244 16.5937 11.4597 16.6481C11.4273 16.6753 11.4022 16.6963 11.3853 16.7104C11.3769 16.7175 11.3705 16.7228 11.3662 16.7264C11.3641 16.7281 11.3626 16.7294 11.3616 16.7302C11.3611 16.7307 11.3607 16.731 11.3605 16.7311C11.3604 16.7312 11.3603 16.7313 11.3603 16.7313C11.3603 16.7313 11.3603 16.7313 11.3602 16.7314C11.3603 16.7313 11.3603 16.7313 11.9999 17.5Z" fill="black"/>
</svg>
