<svg width="24" height="24" viewBox="0 0 24 24" fill="none" xmlns="http://www.w3.org/2000/svg">
<path d="M3.47 3.652C3.00166 3.94471 2.85929 4.56166 3.152 5.03C3.44471 5.49834 4.06166 5.64071 4.53 5.348L3.47 3.652ZM8.53 2.848C8.99834 2.55529 9.14071 1.93834 8.848 1.47C8.55529 1.00166 7.93834 0.859291 7.47 1.152L8.53 2.848ZM19.47 5.348C19.9383 5.64071 20.5553 5.49834 20.848 5.03C21.1407 4.56166 20.9983 3.94471 20.53 3.652L19.47 5.348ZM16.53 1.152C16.0617 0.859291 15.4447 1.00166 15.152 1.47C14.8593 1.93834 15.0017 2.55529 15.47 2.848L16.53 1.152ZM12 11.5L12.7071 10.7929C12.3166 10.4024 11.6834 10.4024 11.2929 10.7929L12 11.5ZM11 16.5C11 17.0523 11.4477 17.5 12 17.5C12.5523 17.5 13 17.0523 13 16.5H11ZM9.29289 12.7929C8.90237 13.1834 8.90237 13.8166 9.29289 14.2071C9.68342 14.5976 10.3166 14.5976 10.7071 14.2071L9.29289 12.7929ZM13.2929 14.2071C13.6834 14.5976 14.3166 14.5976 14.7071 14.2071C15.0976 13.8166 15.0976 13.1834 14.7071 12.7929L13.2929 14.2071ZM12 21C8.13401 21 5 17.866 5 14H3C3 18.9706 7.02944 23 12 23V21ZM19 14C19 17.866 15.866 21 12 21V23C16.9706 23 21 18.9706 21 14H19ZM12 7C15.866 7 19 10.134 19 14H21C21 9.02944 16.9706 5 12 5V7ZM12 5C7.02944 5 3 9.02944 3 14H5C5 10.134 8.13401 7 12 7V5ZM4.53 5.348L8.53 2.848L7.47 1.152L3.47 3.652L4.53 5.348ZM20.53 3.652L16.53 1.152L15.47 2.848L19.47 5.348L20.53 3.652ZM11 11.5V16.5H13V11.5H11ZM11.2929 10.7929L9.29289 12.7929L10.7071 14.2071L12.7071 12.2071L11.2929 10.7929ZM11.2929 12.2071L13.2929 14.2071L14.7071 12.7929L12.7071 10.7929L11.2929 12.2071Z" fill="black"/>
</svg>
