<svg width="24" height="24" viewBox="0 0 24 24" fill="none" xmlns="http://www.w3.org/2000/svg">
<path d="M3.46882 3.6605C3.00089 3.95386 2.85938 4.57101 3.15274 5.03894C3.4461 5.50687 4.06325 5.64838 4.53118 5.35502L3.46882 3.6605ZM8.53118 2.84726C8.99911 2.5539 9.14062 1.93675 8.84726 1.46882C8.5539 1.00089 7.93675 0.859378 7.46882 1.15274L8.53118 2.84726ZM19.4688 5.35502C19.9367 5.64838 20.5539 5.50687 20.8473 5.03894C21.1406 4.57101 20.9991 3.95386 20.5312 3.6605L19.4688 5.35502ZM16.5312 1.15274C16.0633 0.859378 15.4461 1.00089 15.1527 1.46882C14.8594 1.93675 15.0009 2.5539 15.4688 2.84726L16.5312 1.15274ZM18.9457 13.1575C19.0139 13.7056 19.5134 14.0946 20.0615 14.0265C20.6095 13.9584 20.9986 13.4589 20.9305 12.9108L18.9457 13.1575ZM10.8759 22.9923C11.4239 23.0608 11.9237 22.6721 11.9923 22.1241C12.0608 21.5761 11.6721 21.0763 11.1241 21.0077L10.8759 22.9923ZM16.2483 16.784L15.4884 17.434C15.6784 17.6561 15.956 17.784 16.2483 17.784C16.5406 17.784 16.8182 17.6561 17.0082 17.434L16.2483 16.784ZM16.2483 20.75L15.5903 21.503C15.9672 21.8323 16.5294 21.8323 16.9063 21.503L16.2483 20.75ZM12 5.01242C7.02652 5.01242 3 9.0559 3 14.0373H5C5 10.1546 8.13693 7.01242 12 7.01242V5.01242ZM4.53118 5.35502L8.53118 2.84726L7.46882 1.15274L3.46882 3.6605L4.53118 5.35502ZM20.5312 3.6605L16.5312 1.15274L15.4688 2.84726L19.4688 5.35502L20.5312 3.6605ZM12 7.01242C15.5664 7.01242 18.5148 9.69103 18.9457 13.1575L20.9305 12.9108C20.3772 8.46014 16.5929 5.01242 12 5.01242V7.01242ZM11.1241 21.0077C7.67434 20.5762 5 17.6214 5 14.0373H3C3 18.6377 6.43304 22.4365 10.8759 22.9923L11.1241 21.0077ZM17.0082 16.1339C16.2141 15.2055 14.7568 14.8622 13.6391 15.8172L14.9383 17.3378C15.0344 17.2557 15.1158 17.2433 15.1868 17.2526C15.2713 17.2636 15.3861 17.3144 15.4884 17.434L17.0082 16.1339ZM13.6391 15.8172C12.6111 16.6956 12.4533 18.1944 13.2764 19.2537L14.8557 18.0265C14.6952 17.8201 14.7137 17.5296 14.9383 17.3378L13.6391 15.8172ZM19.2201 19.2537C20.0345 18.2058 19.9096 16.6916 18.8471 15.8085L17.5687 17.3465C17.7803 17.5224 17.8102 17.8087 17.6409 18.0265L19.2201 19.2537ZM18.8471 15.8085C17.7289 14.8791 16.29 15.1967 15.4884 16.1339L17.0082 17.434C17.111 17.3138 17.2229 17.2653 17.3043 17.2549C17.3735 17.246 17.4613 17.2573 17.5687 17.3465L18.8471 15.8085ZM13.2764 19.2537C13.582 19.6468 14.1923 20.2309 14.6621 20.666C14.9098 20.8955 15.1412 21.1041 15.3105 21.2553C15.3952 21.3309 15.4647 21.3924 15.5131 21.4352C15.5374 21.4566 15.5564 21.4733 15.5695 21.4848C15.5761 21.4906 15.5811 21.495 15.5846 21.4981C15.5864 21.4996 15.5877 21.5008 15.5887 21.5016C15.5892 21.502 15.5895 21.5024 15.5898 21.5026C15.5899 21.5027 15.59 21.5028 15.5901 21.5029C15.5902 21.5029 15.5902 21.503 15.5902 21.503C15.5903 21.503 15.5903 21.503 16.2483 20.75C16.9063 19.997 16.9063 19.997 16.9063 19.997C16.9063 19.997 16.9063 19.997 16.9063 19.997C16.9063 19.997 16.9062 19.9969 16.9062 19.9969C16.906 19.9967 16.9058 19.9965 16.9054 19.9962C16.9048 19.9957 16.9037 19.9947 16.9022 19.9934C16.8993 19.9909 16.8948 19.9869 16.8889 19.9817C16.8769 19.9712 16.8592 19.9556 16.8362 19.9354C16.7904 19.8949 16.7239 19.8361 16.6425 19.7634C16.4794 19.6178 16.2575 19.4176 16.0211 19.1987C15.5227 18.7371 15.042 18.2662 14.8557 18.0265L13.2764 19.2537ZM16.2483 20.75C16.9063 21.503 16.9063 21.503 16.9063 21.503C16.9064 21.503 16.9064 21.5029 16.9064 21.5029C16.9065 21.5028 16.9066 21.5027 16.9068 21.5026C16.907 21.5024 16.9074 21.502 16.9079 21.5016C16.9089 21.5008 16.9102 21.4996 16.912 21.4981C16.9154 21.495 16.9205 21.4906 16.9271 21.4848C16.9402 21.4733 16.9592 21.4566 16.9834 21.4352C17.0319 21.3924 17.1014 21.3309 17.1861 21.2553C17.3554 21.1041 17.5868 20.8955 17.8345 20.666C18.3043 20.2309 18.9146 19.6468 19.2201 19.2537L17.6409 18.0265C17.4546 18.2662 16.9739 18.7371 16.4755 19.1987C16.2391 19.4176 16.0172 19.6178 15.8541 19.7634C15.7727 19.8361 15.7062 19.8949 15.6603 19.9354C15.6374 19.9556 15.6196 19.9712 15.6077 19.9817C15.6018 19.9869 15.5973 19.9909 15.5944 19.9934C15.5929 19.9947 15.5918 19.9957 15.5911 19.9962C15.5908 19.9965 15.5906 19.9967 15.5904 19.9969C15.5903 19.9969 15.5903 19.997 15.5903 19.997C15.5903 19.997 15.5903 19.997 15.5903 19.997C15.5903 19.997 15.5903 19.997 16.2483 20.75Z" fill="black"/>
</svg>
