<svg width="24" height="24" viewBox="0 0 24 24" fill="none" xmlns="http://www.w3.org/2000/svg">
<path fill-rule="evenodd" clip-rule="evenodd" d="M8.53001 2.84789C8.99835 2.55518 9.14072 1.93823 8.84801 1.46989C8.5553 1.00155 7.93835 0.859181 7.47001 1.15189L3.47001 3.65189C3.00168 3.9446 2.8593 4.56155 3.15201 5.02989C3.44472 5.49823 4.06167 5.6406 4.53001 5.34789L8.53001 2.84789ZM16.53 1.15189C16.0617 0.859181 15.4447 1.00155 15.152 1.46989C14.8593 1.93823 15.0017 2.55518 15.47 2.84789L19.47 5.34789C19.9383 5.6406 20.5553 5.49823 20.848 5.02989C21.1407 4.56155 20.9983 3.9446 20.53 3.65189L16.53 1.15189ZM12 4.99989C7.02945 4.99989 3.00001 9.02933 3.00001 13.9999C3.00001 18.9705 7.02945 22.9999 12 22.9999C16.9706 22.9999 21 18.9705 21 13.9999C21 9.02933 16.9706 4.99989 12 4.99989ZM5.00001 13.9999C5.00001 10.1339 8.13402 6.99989 12 6.99989C15.866 6.99989 19 10.1339 19 13.9999C19 17.8659 15.866 20.9999 12 20.9999C8.13402 20.9999 5.00001 17.8659 5.00001 13.9999ZM8.31898 15.0843L8.31893 15.0842C8.17976 14.9587 8.11016 14.8959 8.05997 14.8379C7.64669 14.3605 7.64669 13.6393 8.05997 13.1619C8.11016 13.1039 8.17975 13.0411 8.31892 12.9155C8.7569 12.5204 8.97589 12.3229 9.18366 12.1716C10.872 10.9426 13.128 10.9426 14.8164 12.1716C15.0241 12.3229 15.2431 12.5204 15.6811 12.9155L15.6811 12.9156L15.6811 12.9156C15.8203 13.0411 15.8899 13.1039 15.9401 13.1619C16.3533 13.6393 16.3533 14.3605 15.9401 14.8379C15.8899 14.8959 15.8203 14.9587 15.6812 15.0842L15.6811 15.0843L15.6811 15.0843C15.2431 15.4794 15.0241 15.6769 14.8164 15.8281C13.128 17.0571 10.872 17.0571 9.18366 15.8281C8.9759 15.6769 8.75691 15.4794 8.31898 15.0843ZM13.2208 13.9999C13.2208 14.695 12.6742 15.2585 12 15.2585C11.3258 15.2585 10.7792 14.695 10.7792 13.9999C10.7792 13.3048 11.3258 12.7413 12 12.7413C12.6742 12.7413 13.2208 13.3048 13.2208 13.9999Z" fill="black"/>
</svg>
