<svg width="24" height="24" viewBox="0 0 24 24" fill="none" xmlns="http://www.w3.org/2000/svg">
<path fill-rule="evenodd" clip-rule="evenodd" d="M8.53119 2.84739C8.99912 2.55403 9.14063 1.93688 8.84727 1.46895C8.55391 1.00102 7.93676 0.859511 7.46883 1.15287L3.46883 3.66063C3.0009 3.954 2.85939 4.57115 3.15275 5.03907C3.44611 5.507 4.06326 5.64851 4.53119 5.35515L8.53119 2.84739ZM16.5312 1.15287C16.0633 0.859511 15.4461 1.00102 15.1528 1.46895C14.8594 1.93688 15.0009 2.55403 15.4688 2.84739L19.4688 5.35515C19.9368 5.64851 20.5539 5.507 20.8473 5.03907C21.1406 4.57115 20.9991 3.954 20.5312 3.66063L16.5312 1.15287ZM12 5.01255C7.02653 5.01255 3.00001 9.05603 3.00001 14.0374C3.00001 18.6378 6.43305 22.4367 10.8759 22.9924C11.4239 23.061 11.9237 22.6723 11.9923 22.1243C12.0608 21.5762 11.6721 21.0764 11.1241 21.0079C7.67435 20.5764 5.00001 17.6215 5.00001 14.0374C5.00001 10.1548 8.13694 7.01255 12 7.01255C15.5664 7.01255 18.5148 9.69117 18.9458 13.1576C19.0139 13.7057 19.5134 14.0948 20.0615 14.0266C20.6095 13.9585 20.9986 13.459 20.9305 12.9109C20.3772 8.46027 16.5929 5.01255 12 5.01255ZM17.344 15.2312C17.2159 14.9231 16.7794 14.9231 16.6512 15.2312L16.0589 16.6553C16.0052 16.7844 15.8843 16.8729 15.745 16.885L14.3432 17.0069C14.0215 17.0348 13.8831 17.4291 14.1167 17.652L15.1815 18.6681C15.2781 18.7602 15.3184 18.8967 15.2875 19.0266L14.9268 20.5384C14.8494 20.863 15.2025 21.1195 15.4873 20.9456L16.8021 20.1425C16.9221 20.0692 17.0731 20.0692 17.1932 20.1425L18.5079 20.9456C18.7927 21.1195 19.1458 20.863 19.0684 20.5384L18.7079 19.027C18.6769 18.897 18.7174 18.7602 18.8144 18.6681L19.8828 17.6525C20.1171 17.4298 19.9788 17.0348 19.6567 17.0069L18.2503 16.8849C18.111 16.8728 17.99 16.7843 17.9363 16.6552L17.344 15.2312Z" fill="black"/>
</svg>
