<svg width="24" height="24" viewBox="0 0 24 24" fill="none" xmlns="http://www.w3.org/2000/svg">
<path d="M4 4.5L8 2M20 4.5L16 2M13.5178 15.5178L15.25 17.25M13.5178 15.5178C13.0654 15.9702 12.4404 16.25 11.75 16.25C10.3693 16.25 9.25 15.1307 9.25 13.75C9.25 12.3693 10.3693 11.25 11.75 11.25C13.1307 11.25 14.25 12.3693 14.25 13.75C14.25 14.4404 13.9702 15.0654 13.5178 15.5178ZM12 22C7.58172 22 4 18.4183 4 14C4 9.58172 7.58172 6 12 6C16.4183 6 20 9.58172 20 14C20 18.4183 16.4183 22 12 22Z" stroke="black" stroke-width="2" stroke-linecap="round"/>
</svg>
