<svg width="24" height="24" viewBox="0 0 24 24" fill="none" xmlns="http://www.w3.org/2000/svg">
<path d="M3.47 3.652C3.00166 3.94471 2.85929 4.56166 3.152 5.03C3.44471 5.49834 4.06166 5.64071 4.53 5.348L3.47 3.652ZM8.53 2.848C8.99834 2.55529 9.14071 1.93834 8.848 1.47C8.55529 1.00166 7.93834 0.859291 7.47 1.152L8.53 2.848ZM19.47 5.348C19.9383 5.64071 20.5553 5.49834 20.848 5.03C21.1407 4.56166 20.9983 3.94471 20.53 3.652L19.47 5.348ZM16.53 1.152C16.0617 0.859291 15.4447 1.00166 15.152 1.47C14.8593 1.93834 15.0017 2.55529 15.47 2.848L16.53 1.152ZM10.2071 13.7929C9.81658 13.4024 9.18342 13.4024 8.79289 13.7929C8.40237 14.1834 8.40237 14.8166 8.79289 15.2071L10.2071 13.7929ZM11 16L10.2929 16.7071C10.6834 17.0976 11.3166 17.0976 11.7071 16.7071L11 16ZM15.2071 13.2071C15.5976 12.8166 15.5976 12.1834 15.2071 11.7929C14.8166 11.4024 14.1834 11.4024 13.7929 11.7929L15.2071 13.2071ZM12 21C8.13401 21 5 17.866 5 14H3C3 18.9706 7.02944 23 12 23V21ZM19 14C19 17.866 15.866 21 12 21V23C16.9706 23 21 18.9706 21 14H19ZM12 7C15.866 7 19 10.134 19 14H21C21 9.02944 16.9706 5 12 5V7ZM12 5C7.02944 5 3 9.02944 3 14H5C5 10.134 8.13401 7 12 7V5ZM4.53 5.348L8.53 2.848L7.47 1.152L3.47 3.652L4.53 5.348ZM20.53 3.652L16.53 1.152L15.47 2.848L19.47 5.348L20.53 3.652ZM8.79289 15.2071L10.2929 16.7071L11.7071 15.2929L10.2071 13.7929L8.79289 15.2071ZM11.7071 16.7071L15.2071 13.2071L13.7929 11.7929L10.2929 15.2929L11.7071 16.7071Z" fill="black"/>
</svg>
