<svg width="24" height="24" viewBox="0 0 24 24" fill="none" xmlns="http://www.w3.org/2000/svg">
<path fill-rule="evenodd" clip-rule="evenodd" d="M8.53119 2.84739C8.99912 2.55403 9.14063 1.93688 8.84727 1.46895C8.55391 1.00102 7.93676 0.859511 7.46883 1.15287L3.46883 3.66063C3.0009 3.954 2.85939 4.57115 3.15275 5.03907C3.44611 5.507 4.06326 5.64851 4.53119 5.35515L8.53119 2.84739ZM16.5312 1.15287C16.0633 0.859511 15.4461 1.00102 15.1528 1.46895C14.8594 1.93688 15.0009 2.55403 15.4688 2.84739L19.4688 5.35515C19.9368 5.64851 20.5539 5.507 20.8473 5.03907C21.1406 4.57115 20.9991 3.954 20.5312 3.66063L16.5312 1.15287ZM12 5.01255C7.02653 5.01255 3.00001 9.05603 3.00001 14.0374C3.00001 18.6378 6.43305 22.4367 10.8759 22.9924C11.4239 23.061 11.9237 22.6723 11.9923 22.1243C12.0608 21.5762 11.6721 21.0764 11.1241 21.0079C7.67435 20.5764 5.00001 17.6215 5.00001 14.0374C5.00001 10.1548 8.13694 7.01255 12 7.01255C15.5664 7.01255 18.5148 9.69117 18.9458 13.1576C19.0139 13.7057 19.5134 14.0948 20.0615 14.0266C20.6095 13.9585 20.9986 13.459 20.9305 12.9109C20.3772 8.46027 16.5929 5.01255 12 5.01255ZM14.5963 19.246C14.4374 19.1222 14.27 18.9606 13.9351 18.6373L13.935 18.6373C13.8286 18.5346 13.7754 18.4832 13.737 18.4358C13.421 18.0452 13.421 17.4551 13.737 17.0645C13.7754 17.017 13.8286 16.9657 13.9351 16.8629C14.27 16.5397 14.4374 16.378 14.5963 16.2543C15.8874 15.2487 17.6126 15.2487 18.9037 16.2543C19.0626 16.378 19.2301 16.5397 19.565 16.8629L19.565 16.863C19.6714 16.9657 19.7246 17.017 19.763 17.0645C20.079 17.4551 20.079 18.0452 19.763 18.4358C19.7246 18.4832 19.6714 18.5346 19.565 18.6373L19.5649 18.6374C19.23 18.9606 19.0626 19.1223 18.9037 19.246C17.6126 20.2515 15.8874 20.2515 14.5963 19.246ZM17.6835 17.7501C17.6835 18.3189 17.2656 18.7799 16.75 18.7799C16.2344 18.7799 15.8165 18.3189 15.8165 17.7501C15.8165 17.1814 16.2344 16.7204 16.75 16.7204C17.2656 16.7204 17.6835 17.1814 17.6835 17.7501Z" fill="black"/>
</svg>
