<svg width="24" height="24" viewBox="0 0 24 24" fill="none" xmlns="http://www.w3.org/2000/svg">
<path fill-rule="evenodd" clip-rule="evenodd" d="M8.53001 2.84789C8.99835 2.55518 9.14072 1.93823 8.84801 1.46989C8.5553 1.00155 7.93835 0.859181 7.47001 1.15189L3.47001 3.65189C3.00168 3.9446 2.8593 4.56155 3.15201 5.02989C3.44472 5.49823 4.06167 5.6406 4.53001 5.34789L8.53001 2.84789ZM16.53 1.15189C16.0617 0.859181 15.4447 1.00155 15.152 1.46989C14.8593 1.93823 15.0017 2.55518 15.47 2.84789L19.47 5.34789C19.9383 5.6406 20.5553 5.49823 20.848 5.02989C21.1407 4.56155 20.9983 3.9446 20.53 3.65189L16.53 1.15189ZM12 4.99989C7.02945 4.99989 3.00001 9.02933 3.00001 13.9999C3.00001 18.9705 7.02945 22.9999 12 22.9999C16.9706 22.9999 21 18.9705 21 13.9999C21 9.02933 16.9706 4.99989 12 4.99989ZM5.00001 13.9999C5.00001 10.1339 8.13402 6.99989 12 6.99989C15.866 6.99989 19 10.1339 19 13.9999C19 17.8659 15.866 20.9999 12 20.9999C8.13402 20.9999 5.00001 17.8659 5.00001 13.9999ZM9.50001 12.4999C9.50001 11.1192 10.6193 9.99989 12 9.99989C13.3807 9.99989 14.5 11.1192 14.5 12.4999V12.9999H15C15.5523 12.9999 16 13.4476 16 13.9999V16.9999C16 17.5522 15.5523 17.9999 15 17.9999H9.00001C8.44773 17.9999 8.00001 17.5522 8.00001 16.9999V13.9999C8.00001 13.4476 8.44773 12.9999 9.00001 12.9999H9.50001V12.4999ZM12.5 12.4999V12.9999H11.5V12.4999C11.5 12.2237 11.7239 11.9999 12 11.9999C12.2762 11.9999 12.5 12.2237 12.5 12.4999ZM12 16.2499C12.4142 16.2499 12.75 15.9141 12.75 15.4999C12.75 15.0857 12.4142 14.7499 12 14.7499C11.5858 14.7499 11.25 15.0857 11.25 15.4999C11.25 15.9141 11.5858 16.2499 12 16.2499Z" fill="black"/>
</svg>
