<svg width="24" height="24" viewBox="0 0 24 24" fill="none" xmlns="http://www.w3.org/2000/svg">
<path fill-rule="evenodd" clip-rule="evenodd" d="M8.53 2.84789C8.99833 2.55518 9.14071 1.93823 8.84799 1.46989C8.55528 1.00155 7.93833 0.859181 7.47 1.15189L3.47 3.65189C3.00166 3.9446 2.85929 4.56155 3.152 5.02989C3.44471 5.49823 4.06166 5.6406 4.53 5.34789L8.53 2.84789ZM16.53 1.15189C16.0617 0.859181 15.4447 1.00155 15.152 1.46989C14.8593 1.93823 15.0017 2.55518 15.47 2.84789L19.47 5.34789C19.9383 5.6406 20.5553 5.49823 20.848 5.02989C21.1407 4.56155 20.9983 3.9446 20.53 3.65189L16.53 1.15189ZM12 4.99989C7.02943 4.99989 3 9.02933 3 13.9999C3 18.9705 7.02943 22.9999 12 22.9999C16.9706 22.9999 21 18.9705 21 13.9999C21 9.02933 16.9706 4.99989 12 4.99989ZM5 13.9999C5 10.1339 8.134 6.99989 12 6.99989C15.866 6.99989 19 10.1339 19 13.9999C19 17.8659 15.866 20.9999 12 20.9999C8.134 20.9999 5 17.8659 5 13.9999ZM12.9474 11.5577C12.9474 11.6852 13.0499 11.7878 13.2551 11.9929L14.257 12.9948C14.4621 13.2 14.5647 13.3025 14.6921 13.3025C14.8196 13.3025 14.9222 13.2 15.1273 12.9948L15.5809 12.5412C15.6306 12.4915 15.6555 12.4667 15.6755 12.4447C16.1082 11.9686 16.1082 11.2416 15.6755 10.7656C15.6555 10.7436 15.6305 10.7187 15.5809 10.669L15.5808 10.669L15.5808 10.6689L15.5808 10.6689C15.5311 10.6193 15.5063 10.5944 15.4843 10.5744C15.0083 10.1417 14.2813 10.1417 13.8052 10.5744C13.7832 10.5944 13.7584 10.6193 13.7087 10.669L13.2551 11.1226C13.0499 11.3277 12.9474 11.4303 12.9474 11.5577ZM12.3848 12.1203C12.5122 12.1203 12.6148 12.2229 12.8199 12.428L13.8219 13.43C14.027 13.6351 14.1296 13.7377 14.1296 13.8651C14.1296 13.9926 14.027 14.0951 13.8219 14.3003L12.3496 15.7726L12.3495 15.7726L12.3495 15.7726L12.3495 15.7726C11.6274 16.4947 11.2663 16.8558 10.843 17.1349C10.4197 17.4141 9.94555 17.6037 8.99735 17.983L8.86154 18.0373C8.39912 18.2223 8.1679 18.3148 8.05151 18.1984C7.93511 18.082 8.0276 17.8508 8.21257 17.3883L8.26689 17.2525C8.64617 16.3043 8.83582 15.8302 9.11497 15.4069C9.39412 14.9835 9.75519 14.6225 10.4773 13.9003L10.4773 13.9003L11.9496 12.428C12.1548 12.2229 12.2573 12.1203 12.3848 12.1203Z" fill="black"/>
</svg>
