<svg width="24" height="24" viewBox="0 0 24 24" fill="none" xmlns="http://www.w3.org/2000/svg">
<path fill-rule="evenodd" clip-rule="evenodd" d="M8.53118 2.84739C8.99911 2.55403 9.14062 1.93688 8.84726 1.46895C8.5539 1.00102 7.93675 0.859511 7.46882 1.15287L3.46882 3.66063C3.00089 3.954 2.85938 4.57115 3.15274 5.03907C3.44611 5.507 4.06326 5.64851 4.53118 5.35515L8.53118 2.84739ZM16.5312 1.15287C16.0633 0.859511 15.4461 1.00102 15.1527 1.46895C14.8594 1.93688 15.0009 2.55403 15.4688 2.84739L19.4688 5.35515C19.9368 5.64851 20.5539 5.507 20.8473 5.03907C21.1406 4.57115 20.9991 3.954 20.5312 3.66063L16.5312 1.15287ZM12 5.01255C7.02652 5.01255 3 9.05603 3 14.0374C3 18.6378 6.43304 22.4367 10.8759 22.9924C11.4239 23.061 11.9237 22.6723 11.9923 22.1243C12.0608 21.5762 11.6721 21.0764 11.1241 21.0079C7.67434 20.5764 5 17.6215 5 14.0374C5 10.1548 8.13693 7.01255 12 7.01255C15.5664 7.01255 18.5148 9.69117 18.9457 13.1576C19.0139 13.7057 19.5134 14.0948 20.0615 14.0266C20.6095 13.9585 20.9986 13.459 20.9305 12.9109C20.3772 8.46027 16.5929 5.01255 12 5.01255ZM17.3201 16.9353C17.3201 17.0627 17.4226 17.1653 17.6278 17.3704L18.6297 18.3724C18.8348 18.5775 18.9374 18.6801 19.0649 18.6801C19.1923 18.6801 19.2949 18.5775 19.5 18.3724L19.5809 18.2915C19.6306 18.2418 19.6555 18.2169 19.6755 18.1949C20.1082 17.7188 20.1082 16.9919 19.6755 16.5158C19.6555 16.4938 19.6305 16.4689 19.5809 16.4192C19.5312 16.3695 19.5063 16.3447 19.4843 16.3247C19.0083 15.892 18.2813 15.892 17.8052 16.3247C17.7832 16.3447 17.7584 16.3695 17.7087 16.4192L17.6278 16.5001C17.4226 16.7053 17.3201 16.8078 17.3201 16.9353ZM16.7575 17.4979C16.8849 17.4979 16.9875 17.6004 17.1926 17.8056L18.1946 18.8075C18.3997 19.0126 18.5023 19.1152 18.5023 19.2426C18.5023 19.3701 18.3997 19.4727 18.1946 19.6778L17.3496 20.5228L17.3456 20.5267L17.3456 20.5268C17.2576 20.6138 17.2281 20.643 17.1947 20.6664C17.1779 20.6782 17.16 20.6886 17.1332 20.7041C17.0837 20.7328 17.0037 20.7792 16.843 20.8852C16.4197 21.1643 15.9456 21.354 14.9974 21.7332L14.8616 21.7876C14.3991 21.9725 14.1679 22.065 14.0515 21.9486C13.9351 21.8322 14.0276 21.601 14.2126 21.1386L14.2669 21.0028C14.6462 20.0546 14.8358 19.5805 15.115 19.1571C15.2209 18.9964 15.2673 18.9164 15.296 18.8669C15.3116 18.8401 15.3219 18.8223 15.3337 18.8054C15.3572 18.772 15.3863 18.7425 15.4735 18.6545L15.4773 18.6506L16.3223 17.8056C16.5275 17.6004 16.63 17.4979 16.7575 17.4979Z" fill="black"/>
</svg>
