<svg width="24" height="24" viewBox="0 0 24 24" fill="none" xmlns="http://www.w3.org/2000/svg">
<path fill-rule="evenodd" clip-rule="evenodd" d="M8.53119 2.84739C8.99912 2.55403 9.14063 1.93688 8.84727 1.46895C8.55391 1.00102 7.93676 0.859511 7.46883 1.15287L3.46883 3.66063C3.0009 3.954 2.85939 4.57115 3.15275 5.03907C3.44611 5.507 4.06326 5.64851 4.53119 5.35515L8.53119 2.84739ZM16.5312 1.15287C16.0633 0.859511 15.4461 1.00102 15.1528 1.46895C14.8594 1.93688 15.0009 2.55403 15.4688 2.84739L19.4688 5.35515C19.9368 5.64851 20.5539 5.507 20.8473 5.03907C21.1406 4.57115 20.9991 3.954 20.5312 3.66063L16.5312 1.15287ZM12 5.01255C7.02653 5.01255 3.00001 9.05603 3.00001 14.0374C3.00001 18.6378 6.43305 22.4367 10.8759 22.9924C11.4239 23.061 11.9237 22.6723 11.9923 22.1243C12.0608 21.5762 11.6721 21.0764 11.1241 21.0079C7.67435 20.5764 5.00001 17.6215 5.00001 14.0374C5.00001 10.1548 8.13694 7.01255 12 7.01255C15.5664 7.01255 18.5148 9.69117 18.9458 13.1576C19.0139 13.7057 19.5134 14.0948 20.0615 14.0266C20.6095 13.9585 20.9986 13.459 20.9305 12.9109C20.3772 8.46027 16.5929 5.01255 12 5.01255ZM14.8281 16.547C14.8281 15.5546 15.6326 14.7501 16.625 14.7501C17.6174 14.7501 18.4219 15.5546 18.4219 16.547V16.9064H18.7813C19.1782 16.9064 19.5 17.2282 19.5 17.6251V19.7814C19.5 20.1783 19.1782 20.5001 18.7813 20.5001H14.4688C14.0718 20.5001 13.75 20.1783 13.75 19.7814V17.6251C13.75 17.2282 14.0718 16.9064 14.4688 16.9064H14.8281V16.547ZM16.9844 16.547V16.9064H16.2656V16.547C16.2656 16.3485 16.4265 16.1876 16.625 16.1876C16.8235 16.1876 16.9844 16.3485 16.9844 16.547ZM16.625 19.2423C16.9227 19.2423 17.1641 19.001 17.1641 18.7033C17.1641 18.4055 16.9227 18.1642 16.625 18.1642C16.3273 18.1642 16.0859 18.4055 16.0859 18.7033C16.0859 19.001 16.3273 19.2423 16.625 19.2423Z" fill="black"/>
</svg>
