<svg width="24" height="24" viewBox="0 0 24 24" fill="none" xmlns="http://www.w3.org/2000/svg">
<path d="M3.46882 3.6605C3.00089 3.95386 2.85938 4.57101 3.15274 5.03894C3.4461 5.50687 4.06325 5.64838 4.53118 5.35502L3.46882 3.6605ZM8.53118 2.84726C8.99911 2.5539 9.14062 1.93675 8.84726 1.46882C8.5539 1.00089 7.93675 0.859378 7.46882 1.15274L8.53118 2.84726ZM19.4688 5.35502C19.9367 5.64838 20.5539 5.50687 20.8473 5.03894C21.1406 4.57101 20.9991 3.95386 20.5312 3.6605L19.4688 5.35502ZM16.5312 1.15274C16.0633 0.859378 15.4461 1.00089 15.1527 1.46882C14.8594 1.93675 15.0009 2.5539 15.4688 2.84726L16.5312 1.15274ZM18.9457 13.1575C19.0139 13.7056 19.5134 14.0946 20.0615 14.0265C20.6095 13.9584 20.9986 13.4589 20.9305 12.9108L18.9457 13.1575ZM10.8759 22.9923C11.4239 23.0608 11.9237 22.6721 11.9923 22.1241C12.0608 21.5761 11.6721 21.0763 11.1241 21.0077L10.8759 22.9923ZM17.5 16C17.5 15.4477 17.0523 15 16.5 15C15.9477 15 15.5 15.4477 15.5 16H17.5ZM15.5 21C15.5 21.5523 15.9477 22 16.5 22C17.0523 22 17.5 21.5523 17.5 21H15.5ZM19 19.5C19.5523 19.5 20 19.0523 20 18.5C20 17.9477 19.5523 17.5 19 17.5V19.5ZM14 17.5C13.4477 17.5 13 17.9477 13 18.5C13 19.0523 13.4477 19.5 14 19.5V17.5ZM12 5.01242C7.02652 5.01242 3 9.0559 3 14.0373H5C5 10.1546 8.13693 7.01242 12 7.01242V5.01242ZM4.53118 5.35502L8.53118 2.84726L7.46882 1.15274L3.46882 3.6605L4.53118 5.35502ZM20.5312 3.6605L16.5312 1.15274L15.4688 2.84726L19.4688 5.35502L20.5312 3.6605ZM12 7.01242C15.5664 7.01242 18.5148 9.69103 18.9457 13.1575L20.9305 12.9108C20.3772 8.46014 16.5929 5.01242 12 5.01242V7.01242ZM11.1241 21.0077C7.67434 20.5762 5 17.6214 5 14.0373H3C3 18.6377 6.43304 22.4365 10.8759 22.9923L11.1241 21.0077ZM17.5 18.5V16H15.5V18.5H17.5ZM15.5 18.5V21H17.5V18.5H15.5ZM16.5 19.5H19V17.5H16.5V19.5ZM16.5 17.5H14V19.5H16.5V17.5Z" fill="black"/>
</svg>
