<svg width="24" height="24" viewBox="0 0 24 24" fill="none" xmlns="http://www.w3.org/2000/svg">
<path fill-rule="evenodd" clip-rule="evenodd" d="M9 2C9 1.44772 8.55228 1 8 1C7.44772 1 7 1.44772 7 2H6C3.79086 2 2 3.79086 2 6V9V19C2 21.2091 3.79086 23 6 23H18C20.2091 23 22 21.2091 22 19V9V6C22 3.79086 20.2091 2 18 2H17C17 1.44772 16.5523 1 16 1C15.4477 1 15 1.44772 15 2H9ZM6 4H7C7 4.55228 7.44772 5 8 5C8.55228 5 9 4.55228 9 4H15C15 4.55228 15.4477 5 16 5C16.5523 5 17 4.55228 17 4H18C19.1046 4 20 4.89543 20 6V8H4V6C4 4.89543 4.89543 4 6 4ZM4 10H20V19C20 20.1046 19.1046 21 18 21H6C4.89543 21 4 20.1046 4 19V10ZM15.5 15.5C15.5 17.433 13.933 19 12 19C10.067 19 8.5 17.433 8.5 15.5C8.5 13.567 10.067 12 12 12C13.933 12 15.5 13.567 15.5 15.5ZM12 13.5C12.2761 13.5 12.5 13.7239 12.5 14V15.7929L13.1036 16.3964C13.2988 16.5917 13.2988 16.9083 13.1036 17.1036C12.9083 17.2988 12.5917 17.2988 12.3964 17.1036L11.7929 16.5C11.6054 16.3125 11.5 16.0581 11.5 15.7929V14C11.5 13.7239 11.7239 13.5 12 13.5Z" fill="black"/>
</svg>
