<svg width="24" height="24" viewBox="0 0 24 24" fill="none" xmlns="http://www.w3.org/2000/svg">
<path fill-rule="evenodd" clip-rule="evenodd" d="M9 2C9 1.44772 8.55228 1 8 1C7.44772 1 7 1.44772 7 2H6C3.79086 2 2 3.79086 2 6V9V19C2 21.2091 3.79086 23 6 23H12.5C13.0523 23 13.5 22.5523 13.5 22C13.5 21.4477 13.0523 21 12.5 21H6C4.89543 21 4 20.1046 4 19V10H20V13C20 13.5523 20.4477 14 21 14C21.5523 14 22 13.5523 22 13V9V6C22 3.79086 20.2091 2 18 2H17C17 1.44772 16.5523 1 16 1C15.4477 1 15 1.44772 15 2H9ZM6 4H7C7 4.55228 7.44772 5 8 5C8.55228 5 9 4.55228 9 4H15C15 4.55228 15.4477 5 16 5C16.5523 5 17 4.55228 17 4H18C19.1046 4 20 4.89543 20 6V8H4V6C4 4.89543 4.89543 4 6 4ZM18.3201 15.9351C18.3201 16.0626 18.4226 16.1652 18.6278 16.3703L19.6297 17.3722C19.8348 17.5774 19.9374 17.6799 20.0649 17.6799C20.1923 17.6799 20.2949 17.5774 20.5 17.3722L20.5809 17.2913C20.6306 17.2416 20.6555 17.2168 20.6755 17.1948C21.1082 16.7187 21.1082 15.9917 20.6755 15.5157C20.6555 15.4937 20.6305 15.4688 20.5809 15.4191L20.5807 15.419C20.5311 15.3693 20.5063 15.3445 20.4843 15.3245C20.0083 14.8918 19.2813 14.8918 18.8052 15.3245C18.7832 15.3445 18.7584 15.3694 18.7087 15.4191L18.6278 15.5C18.4226 15.7051 18.3201 15.8077 18.3201 15.9351ZM17.7575 16.4977C17.8849 16.4977 17.9875 16.6003 18.1926 16.8054L19.1946 17.8074C19.3997 18.0125 19.5023 18.1151 19.5023 18.2425C19.5023 18.37 19.3997 18.4725 19.1946 18.6777L18.3496 19.5227L18.3456 19.5266C18.2576 19.6137 18.2281 19.6429 18.1947 19.6663C18.1779 19.6781 18.16 19.6884 18.1332 19.704C18.0837 19.7327 18.0037 19.7791 17.843 19.885C17.4197 20.1642 16.9455 20.3538 15.9974 20.7331L15.8615 20.7874C15.3991 20.9724 15.1679 21.0649 15.0515 20.9485C14.9351 20.8321 15.0276 20.6009 15.2126 20.1385L15.2669 20.0026C15.6462 19.0544 15.8358 18.5803 16.115 18.157C16.2209 17.9963 16.2673 17.9163 16.296 17.8668C16.3116 17.84 16.3219 17.8221 16.3337 17.8053C16.3571 17.7719 16.3863 17.7424 16.4734 17.6544L16.4734 17.6544L16.4773 17.6504L17.3223 16.8054L17.3223 16.8054C17.5275 16.6003 17.63 16.4977 17.7575 16.4977Z" fill="black"/>
</svg>
