<svg width="24" height="24" viewBox="0 0 24 24" fill="none" xmlns="http://www.w3.org/2000/svg">
<path fill-rule="evenodd" clip-rule="evenodd" d="M9 2C9 1.44772 8.55228 1 8 1C7.44772 1 7 1.44772 7 2H6C3.79086 2 2 3.79086 2 6V9V19C2 21.2091 3.79086 23 6 23H18C20.2091 23 22 21.2091 22 19V9V6C22 3.79086 20.2091 2 18 2H17C17 1.44772 16.5523 1 16 1C15.4477 1 15 1.44772 15 2H9ZM6 4H7C7 4.55228 7.44772 5 8 5C8.55228 5 9 4.55228 9 4H15C15 4.55228 15.4477 5 16 5C16.5523 5 17 4.55228 17 4H18C19.1046 4 20 4.89543 20 6V8H4V6C4 4.89543 4.89543 4 6 4ZM4 10H20V19C20 20.1046 19.1046 21 18 21H6C4.89543 21 4 20.1046 4 19V10ZM8.31893 16.5844L8.31892 16.5844C8.17975 16.4588 8.11015 16.396 8.05996 16.338C7.64668 15.8606 7.64668 15.1394 8.05996 14.662C8.11015 14.604 8.17974 14.5412 8.31891 14.4156C8.75689 14.0205 8.97587 13.823 9.18364 13.6717C10.872 12.4428 13.128 12.4428 14.8164 13.6717C15.0241 13.823 15.2431 14.0205 15.6811 14.4157L15.6811 14.4157L15.6811 14.4157C15.8203 14.5412 15.8899 14.604 15.94 14.662C16.3533 15.1394 16.3533 15.8606 15.94 16.338C15.8899 16.396 15.8202 16.4588 15.6811 16.5843L15.6811 16.5844L15.6811 16.5844C15.2431 16.9795 15.0241 17.177 14.8164 17.3283C13.128 18.5572 10.872 18.5572 9.18364 17.3283C8.97588 17.177 8.75688 16.9795 8.31893 16.5844ZM13.2208 15.5C13.2208 16.1951 12.6742 16.7586 12 16.7586C11.3258 16.7586 10.7792 16.1951 10.7792 15.5C10.7792 14.8049 11.3258 14.2414 12 14.2414C12.6742 14.2414 13.2208 14.8049 13.2208 15.5Z" fill="black"/>
</svg>
