<svg width="24" height="24" viewBox="0 0 24 24" fill="none" xmlns="http://www.w3.org/2000/svg">
<path d="M9 2C9 1.44772 8.55228 1 8 1C7.44772 1 7 1.44772 7 2H9ZM17 2C17 1.44772 16.5523 1 16 1C15.4477 1 15 1.44772 15 2H17ZM7 4C7 4.55228 7.44772 5 8 5C8.55228 5 9 4.55228 9 4H7ZM15 4C15 4.55228 15.4477 5 16 5C16.5523 5 17 4.55228 17 4H15ZM12 13.2119L11.256 13.8801C11.4456 14.0913 11.7161 14.2119 12 14.2119C12.2838 14.2119 12.5543 14.0913 12.7439 13.8801L12 13.2119ZM12 18.5L11.3603 19.2687C11.731 19.5771 12.269 19.5771 12.6396 19.2687L12 18.5ZM18 21H6V23H18V21ZM6 21C4.89543 21 4 20.1046 4 19H2C2 21.2091 3.79086 23 6 23V21ZM20 19C20 20.1046 19.1046 21 18 21V23C20.2091 23 22 21.2091 22 19H20ZM18 4C19.1046 4 20 4.89543 20 6H22C22 3.79086 20.2091 2 18 2V4ZM6 2C3.79086 2 2 3.79086 2 6H4C4 4.89543 4.89543 4 6 4V2ZM6 4H8V2H6V4ZM9 3V2H7V3H9ZM8 4H16V2H8V4ZM16 4H18V2H16V4ZM17 3V2H15V3H17ZM7 3V4H9V3H7ZM15 3V4H17V3H15ZM4 19V9H2V19H4ZM4 9V6H2V9H4ZM20 6V9H22V6H20ZM20 9V19H22V9H20ZM3 10H21V8H3V10ZM12.7439 12.5437C11.7449 11.4314 9.97904 11.0595 8.62533 12.161L9.88767 13.7123C10.2875 13.387 10.8554 13.4342 11.256 13.8801L12.7439 12.5437ZM8.62533 12.161C7.33189 13.2135 7.12221 15.0349 8.17003 16.319L9.71962 15.0546C9.39037 14.6511 9.42757 14.0867 9.88767 13.7123L8.62533 12.161ZM15.8299 16.319C16.8683 15.0464 16.6972 13.2078 15.3641 12.1526L14.1228 13.7207C14.5733 14.0774 14.619 14.6395 14.2803 15.0546L15.8299 16.319ZM15.3641 12.1526C14.0058 11.0774 12.2623 11.4233 11.256 12.5437L12.7439 13.8801C13.1372 13.4423 13.6974 13.384 14.1228 13.7207L15.3641 12.1526ZM8.17003 16.319C8.57598 16.8165 9.40639 17.5752 10.0691 18.1597C10.4137 18.4638 10.7359 18.7404 10.9716 18.9409C11.0896 19.0412 11.1863 19.1227 11.2537 19.1794C11.2874 19.2077 11.3137 19.2298 11.3318 19.2449C11.3409 19.2525 11.3479 19.2583 11.3527 19.2623C11.3551 19.2643 11.3569 19.2658 11.3582 19.2669C11.3588 19.2674 11.3593 19.2678 11.3597 19.2681C11.3598 19.2683 11.36 19.2684 11.3601 19.2685C11.3601 19.2685 11.3602 19.2686 11.3602 19.2686C11.3603 19.2686 11.3603 19.2687 12 18.5C12.6396 17.7313 12.6396 17.7313 12.6396 17.7313C12.6396 17.7313 12.6396 17.7313 12.6396 17.7313C12.6396 17.7313 12.6395 17.7312 12.6394 17.7311C12.6392 17.731 12.6388 17.7307 12.6383 17.7302C12.6373 17.7294 12.6357 17.7281 12.6336 17.7263C12.6294 17.7228 12.623 17.7175 12.6146 17.7104C12.5977 17.6963 12.5725 17.6753 12.5402 17.6481C12.4755 17.5937 12.3818 17.5148 12.2672 17.4173C12.0377 17.2221 11.7252 16.9537 11.3921 16.6599C10.6994 16.0488 10.0022 15.4009 9.71962 15.0546L8.17003 16.319ZM12 18.5C12.6396 19.2687 12.6396 19.2686 12.6397 19.2686C12.6397 19.2686 12.6398 19.2685 12.6398 19.2685C12.6399 19.2684 12.6401 19.2683 12.6402 19.2681C12.6406 19.2678 12.6411 19.2674 12.6417 19.2669C12.643 19.2658 12.6449 19.2643 12.6473 19.2623C12.652 19.2583 12.659 19.2525 12.6681 19.2449C12.6862 19.2298 12.7126 19.2077 12.7463 19.1794C12.8136 19.1227 12.9103 19.0412 13.0283 18.9409C13.2641 18.7404 13.5862 18.4638 13.9308 18.1597C14.5935 17.5752 15.4239 16.8165 15.8299 16.319L14.2803 15.0546C13.9977 15.4009 13.3006 16.0488 12.6078 16.6599C12.2747 16.9537 11.9622 17.2221 11.7327 17.4173C11.6181 17.5148 11.5245 17.5937 11.4597 17.6481C11.4274 17.6753 11.4022 17.6963 11.3853 17.7104C11.3769 17.7175 11.3705 17.7228 11.3663 17.7263C11.3642 17.7281 11.3626 17.7294 11.3616 17.7302C11.3611 17.7307 11.3608 17.731 11.3605 17.7311C11.3604 17.7312 11.3603 17.7313 11.3603 17.7313C11.3603 17.7313 11.3603 17.7313 11.3603 17.7313C11.3603 17.7313 11.3603 17.7313 12 18.5Z" fill="black"/>
</svg>
