<svg width="24" height="24" viewBox="0 0 24 24" fill="none" xmlns="http://www.w3.org/2000/svg">
<path fill-rule="evenodd" clip-rule="evenodd" d="M9 2C9 1.44772 8.55228 1 8 1C7.44772 1 7 1.44772 7 2H6C3.79086 2 2 3.79086 2 6V9V19C2 21.2091 3.79086 23 6 23H18C20.2091 23 22 21.2091 22 19V9V6C22 3.79086 20.2091 2 18 2H17C17 1.44772 16.5523 1 16 1C15.4477 1 15 1.44772 15 2H9ZM6 4H7C7 4.55228 7.44772 5 8 5C8.55228 5 9 4.55228 9 4H15C15 4.55228 15.4477 5 16 5C16.5523 5 17 4.55228 17 4H18C19.1046 4 20 4.89543 20 6V8H4V6C4 4.89543 4.89543 4 6 4ZM4 10H20V19C20 20.1046 19.1046 21 18 21H6C4.89543 21 4 20.1046 4 19V10ZM12.9474 12.8079C12.9474 12.9353 13.0499 13.0379 13.2551 13.243L14.257 14.2449C14.4621 14.4501 14.5647 14.5526 14.6921 14.5526C14.8196 14.5526 14.9222 14.4501 15.1273 14.2449L15.5809 13.7913C15.6306 13.7416 15.6555 13.7168 15.6755 13.6948C16.1082 13.2187 16.1082 12.4917 15.6755 12.0157C15.6555 11.9937 15.6305 11.9688 15.5809 11.9191L15.5808 11.919L15.5807 11.919L15.5807 11.9189C15.5311 11.8693 15.5063 11.8445 15.4843 11.8245C15.0083 11.3918 14.2813 11.3918 13.8052 11.8245C13.7832 11.8445 13.7584 11.8694 13.7087 11.9191L13.2551 12.3727C13.0499 12.5778 12.9474 12.6804 12.9474 12.8079ZM12.3848 13.3704C12.5122 13.3704 12.6148 13.473 12.8199 13.6781L13.8219 14.6801C14.027 14.8852 14.1296 14.9878 14.1296 15.1152C14.1296 15.2427 14.027 15.3452 13.8219 15.5504L12.3496 17.0227L12.3495 17.0227C11.6274 17.7448 11.2664 18.1059 10.843 18.385C10.4197 18.6642 9.94555 18.8538 8.99735 19.2331L8.86155 19.2874C8.39912 19.4724 8.1679 19.5649 8.05151 19.4485C7.93512 19.3321 8.0276 19.1009 8.21257 18.6385L8.2669 18.5026C8.64618 17.5544 8.83582 17.0803 9.11497 16.657C9.39413 16.2336 9.75519 15.8726 10.4773 15.1505L10.4773 15.1504L11.9496 13.6781C12.1548 13.473 12.2573 13.3704 12.3848 13.3704Z" fill="black"/>
</svg>
