<svg width="24" height="24" viewBox="0 0 24 24" fill="none" xmlns="http://www.w3.org/2000/svg">
<path fill-rule="evenodd" clip-rule="evenodd" d="M9 2C9 1.44772 8.55228 1 8 1C7.44772 1 7 1.44772 7 2H6C3.79086 2 2 3.79086 2 6V9V19C2 21.2091 3.79086 23 6 23H12.5C13.0523 23 13.5 22.5523 13.5 22C13.5 21.4477 13.0523 21 12.5 21H6C4.89543 21 4 20.1046 4 19V10H20V13C20 13.5523 20.4477 14 21 14C21.5523 14 22 13.5523 22 13V9V6C22 3.79086 20.2091 2 18 2H17C17 1.44772 16.5523 1 16 1C15.4477 1 15 1.44772 15 2H9ZM6 4H7C7 4.55228 7.44772 5 8 5C8.55228 5 9 4.55228 9 4H15C15 4.55228 15.4477 5 16 5C16.5523 5 17 4.55228 17 4H18C19.1046 4 20 4.89543 20 6V8H4V6C4 4.89543 4.89543 4 6 4ZM21 18C21 19.6569 19.6569 21 18 21C16.3431 21 15 19.6569 15 18C15 16.3431 16.3431 15 18 15C19.6569 15 21 16.3431 21 18ZM18 16.2857C18.2367 16.2857 18.4286 16.4776 18.4286 16.7143V18.2511L18.9459 18.7684C19.1133 18.9358 19.1133 19.2071 18.9459 19.3745C18.7785 19.5418 18.5072 19.5418 18.3398 19.3745L17.8225 18.8571C17.6617 18.6964 17.5714 18.4784 17.5714 18.2511V16.7143C17.5714 16.4776 17.7633 16.2857 18 16.2857Z" fill="black"/>
</svg>
