<svg width="24" height="24" viewBox="0 0 24 24" fill="none" xmlns="http://www.w3.org/2000/svg">
<path fill-rule="evenodd" clip-rule="evenodd" d="M9 2C9 1.44772 8.55228 1 8 1C7.44772 1 7 1.44772 7 2H6C3.79086 2 2 3.79086 2 6V9V19C2 21.2091 3.79086 23 6 23H18C20.2091 23 22 21.2091 22 19V9V6C22 3.79086 20.2091 2 18 2H17C17 1.44772 16.5523 1 16 1C15.4477 1 15 1.44772 15 2H9ZM6 4H7C7 4.55228 7.44772 5 8 5C8.55228 5 9 4.55228 9 4H15C15 4.55228 15.4477 5 16 5C16.5523 5 17 4.55228 17 4H18C19.1046 4 20 4.89543 20 6V8H4V6C4 4.89543 4.89543 4 6 4ZM4 10H20V19C20 20.1046 19.1046 21 18 21H6C4.89543 21 4 20.1046 4 19V10ZM12.4617 11.3102C12.2909 10.8995 11.7092 10.8995 11.5384 11.3102L10.749 13.2082C10.6774 13.3802 10.5162 13.4982 10.3306 13.5143L8.46228 13.6767C8.03355 13.714 7.84906 14.2395 8.16041 14.5366L9.57961 15.8908C9.7083 16.0136 9.76206 16.1956 9.72079 16.3686L9.24015 18.3835C9.13696 18.8161 9.60758 19.158 9.98713 18.9262L11.7394 17.8559C11.8995 17.7582 12.1007 17.7582 12.2607 17.8559L14.013 18.9262C14.3926 19.158 14.8632 18.8161 14.76 18.3835L14.2795 16.3692C14.2382 16.1958 14.2922 16.0136 14.4214 15.8908L15.8454 14.5373C16.1577 14.2404 15.9734 13.7139 15.5441 13.6767L13.6696 13.5142C13.484 13.4981 13.3227 13.3802 13.2511 13.2081L12.4617 11.3102Z" fill="black"/>
</svg>
