<svg width="24" height="24" viewBox="0 0 24 24" fill="none" xmlns="http://www.w3.org/2000/svg">
<path d="M9 2C9 1.44772 8.55228 1 8 1C7.44772 1 7 1.44772 7 2H9ZM17 2C17 1.44772 16.5523 1 16 1C15.4477 1 15 1.44772 15 2H17ZM7 4C7 4.55228 7.44772 5 8 5C8.55228 5 9 4.55228 9 4H7ZM15 4C15 4.55228 15.4477 5 16 5C16.5523 5 17 4.55228 17 4H15ZM20 13C20 13.5523 20.4477 14 21 14C21.5523 14 22 13.5523 22 13H20ZM12.5 23C13.0523 23 13.5 22.5523 13.5 22C13.5 21.4477 13.0523 21 12.5 21V23ZM17.9983 16.784L17.2384 17.434C17.4284 17.6561 17.706 17.784 17.9983 17.784C18.2906 17.784 18.5682 17.6561 18.7582 17.434L17.9983 16.784ZM17.9983 20.75L17.3403 21.503C17.7172 21.8323 18.2794 21.8323 18.6563 21.503L17.9983 20.75ZM6 21C4.89543 21 4 20.1046 4 19H2C2 21.2091 3.79086 23 6 23V21ZM18 4C19.1046 4 20 4.89543 20 6H22C22 3.79086 20.2091 2 18 2V4ZM6 2C3.79086 2 2 3.79086 2 6H4C4 4.89543 4.89543 4 6 4V2ZM6 4H8V2H6V4ZM9 3V2H7V3H9ZM8 4H16V2H8V4ZM16 4H18V2H16V4ZM17 3V2H15V3H17ZM7 3V4H9V3H7ZM15 3V4H17V3H15ZM4 19V9H2V19H4ZM4 9V6H2V9H4ZM20 6V9H22V6H20ZM3 10H21V8H3V10ZM20 9V13H22V9H20ZM12.5 21H6V23H12.5V21ZM18.7582 16.1339C17.9641 15.2055 16.5068 14.8622 15.3891 15.8172L16.6883 17.3378C16.7844 17.2557 16.8658 17.2433 16.9368 17.2526C17.0213 17.2636 17.1361 17.3144 17.2384 17.434L18.7582 16.1339ZM15.3891 15.8172C14.3611 16.6956 14.2033 18.1944 15.0264 19.2537L16.6057 18.0265C16.4452 17.8201 16.4637 17.5296 16.6883 17.3378L15.3891 15.8172ZM20.9701 19.2537C21.7845 18.2058 21.6596 16.6916 20.5971 15.8085L19.3187 17.3465C19.5303 17.5224 19.5602 17.8087 19.3909 18.0265L20.9701 19.2537ZM20.5971 15.8085C19.4789 14.8791 18.04 15.1967 17.2384 16.1339L18.7582 17.434C18.861 17.3138 18.9729 17.2653 19.0543 17.2549C19.1235 17.246 19.2113 17.2573 19.3187 17.3465L20.5971 15.8085ZM15.0264 19.2537C15.332 19.6468 15.9423 20.2309 16.4121 20.666C16.6598 20.8955 16.8912 21.1041 17.0605 21.2553C17.1452 21.3309 17.2147 21.3924 17.2631 21.4352C17.2874 21.4566 17.3064 21.4733 17.3195 21.4848C17.3261 21.4906 17.3311 21.495 17.3346 21.4981C17.3364 21.4996 17.3377 21.5008 17.3387 21.5016C17.3392 21.502 17.3395 21.5024 17.3398 21.5026C17.3399 21.5027 17.34 21.5028 17.3401 21.5029C17.3402 21.5029 17.3402 21.503 17.3402 21.503C17.3403 21.503 17.3403 21.503 17.9983 20.75C18.6563 19.997 18.6563 19.997 18.6563 19.997C18.6563 19.997 18.6563 19.997 18.6563 19.997C18.6563 19.997 18.6562 19.9969 18.6562 19.9969C18.656 19.9967 18.6558 19.9965 18.6554 19.9962C18.6548 19.9957 18.6537 19.9947 18.6522 19.9934C18.6493 19.9909 18.6448 19.9869 18.6389 19.9817C18.6269 19.9712 18.6092 19.9556 18.5862 19.9354C18.5404 19.8949 18.4739 19.8361 18.3925 19.7634C18.2294 19.6178 18.0075 19.4176 17.7711 19.1987C17.2727 18.7371 16.792 18.2662 16.6057 18.0265L15.0264 19.2537ZM17.9983 20.75C18.6563 21.503 18.6563 21.503 18.6563 21.503C18.6564 21.503 18.6564 21.5029 18.6564 21.5029C18.6565 21.5028 18.6566 21.5027 18.6568 21.5026C18.657 21.5024 18.6574 21.502 18.6579 21.5016C18.6589 21.5008 18.6602 21.4996 18.662 21.4981C18.6654 21.495 18.6705 21.4906 18.6771 21.4848C18.6902 21.4733 18.7092 21.4566 18.7334 21.4352C18.7819 21.3924 18.8514 21.3309 18.9361 21.2553C19.1054 21.1041 19.3368 20.8955 19.5845 20.666C20.0543 20.2309 20.6646 19.6468 20.9701 19.2537L19.3909 18.0265C19.2046 18.2662 18.7239 18.7371 18.2255 19.1987C17.9891 19.4176 17.7672 19.6178 17.6041 19.7634C17.5227 19.8361 17.4562 19.8949 17.4103 19.9354C17.3874 19.9556 17.3696 19.9712 17.3577 19.9817C17.3518 19.9869 17.3473 19.9909 17.3444 19.9934C17.3429 19.9947 17.3418 19.9957 17.3411 19.9962C17.3408 19.9965 17.3406 19.9967 17.3404 19.9969C17.3403 19.9969 17.3403 19.997 17.3403 19.997C17.3403 19.997 17.3403 19.997 17.3403 19.997C17.3403 19.997 17.3403 19.997 17.9983 20.75Z" fill="black"/>
</svg>
