<svg width="24" height="24" viewBox="0 0 24 24" fill="none" xmlns="http://www.w3.org/2000/svg">
<path fill-rule="evenodd" clip-rule="evenodd" d="M9 2C9 1.44772 8.55228 1 8 1C7.44772 1 7 1.44772 7 2H6C3.79086 2 2 3.79086 2 6V9V19C2 21.2091 3.79086 23 6 23H12.5C13.0523 23 13.5 22.5523 13.5 22C13.5 21.4477 13.0523 21 12.5 21H6C4.89543 21 4 20.1046 4 19V10H20V13C20 13.5523 20.4477 14 21 14C21.5523 14 22 13.5523 22 13V9V6C22 3.79086 20.2091 2 18 2H17C17 1.44772 16.5523 1 16 1C15.4477 1 15 1.44772 15 2H9ZM6 4H7C7 4.55228 7.44772 5 8 5C8.55228 5 9 4.55228 9 4H15C15 4.55228 15.4477 5 16 5C16.5523 5 17 4.55228 17 4H18C19.1046 4 20 4.89543 20 6V8H4V6C4 4.89543 4.89543 4 6 4ZM15.8281 16.5469C15.8281 15.5545 16.6326 14.75 17.625 14.75C18.6174 14.75 19.4219 15.5545 19.4219 16.5469V16.9062H19.7812C20.1782 16.9062 20.5 17.228 20.5 17.625V19.7812C20.5 20.1782 20.1782 20.5 19.7812 20.5H15.4688C15.0718 20.5 14.75 20.1782 14.75 19.7812V17.625C14.75 17.228 15.0718 16.9062 15.4688 16.9062H15.8281V16.5469ZM17.9844 16.5469V16.9062H17.2656V16.5469C17.2656 16.3484 17.4265 16.1875 17.625 16.1875C17.8235 16.1875 17.9844 16.3484 17.9844 16.5469ZM17.625 19.2422C17.9227 19.2422 18.1641 19.0008 18.1641 18.7031C18.1641 18.4054 17.9227 18.1641 17.625 18.1641C17.3273 18.1641 17.0859 18.4054 17.0859 18.7031C17.0859 19.0008 17.3273 19.2422 17.625 19.2422Z" fill="black"/>
</svg>
