<svg width="24" height="24" viewBox="0 0 24 24" fill="none" xmlns="http://www.w3.org/2000/svg">
<path fill-rule="evenodd" clip-rule="evenodd" d="M9 2C9 1.44772 8.55228 1 8 1C7.44772 1 7 1.44772 7 2H6C3.79086 2 2 3.79086 2 6V9V19C2 21.2091 3.79086 23 6 23H12.5C13.0523 23 13.5 22.5523 13.5 22C13.5 21.4477 13.0523 21 12.5 21H6C4.89543 21 4 20.1046 4 19V10H20V13C20 13.5523 20.4477 14 21 14C21.5523 14 22 13.5523 22 13V9V6C22 3.79086 20.2091 2 18 2H17C17 1.44772 16.5523 1 16 1C15.4477 1 15 1.44772 15 2H9ZM6 4H7C7 4.55228 7.44772 5 8 5C8.55228 5 9 4.55228 9 4H15C15 4.55228 15.4477 5 16 5C16.5523 5 17 4.55228 17 4H18C19.1046 4 20 4.89543 20 6V8H4V6C4 4.89543 4.89543 4 6 4ZM15.5963 19.2458C15.4374 19.1221 15.27 18.9605 14.9351 18.6372L14.935 18.6372C14.8286 18.5345 14.7754 18.4831 14.737 18.4357C14.421 18.045 14.421 17.455 14.737 17.0643C14.7754 17.0169 14.8286 16.9655 14.935 16.8628C15.27 16.5395 15.4374 16.3779 15.5963 16.2542C16.8874 15.2486 18.6126 15.2486 19.9037 16.2542C20.0626 16.3779 20.23 16.5395 20.565 16.8628L20.565 16.8628C20.6714 16.9655 20.7246 17.0169 20.763 17.0643C21.079 17.455 21.079 18.045 20.763 18.4357C20.7246 18.4831 20.6714 18.5345 20.565 18.6372L20.5649 18.6372C20.23 18.9605 20.0626 19.1221 19.9037 19.2458C18.6126 20.2514 16.8874 20.2514 15.5963 19.2458ZM18.6835 17.75C18.6835 18.3187 18.2656 18.7798 17.75 18.7798C17.2344 18.7798 16.8165 18.3187 16.8165 17.75C16.8165 17.1813 17.2344 16.7202 17.75 16.7202C18.2656 16.7202 18.6835 17.1813 18.6835 17.75Z" fill="black"/>
</svg>
