<svg width="24" height="24" viewBox="0 0 24 24" fill="none" xmlns="http://www.w3.org/2000/svg">
<path fill-rule="evenodd" clip-rule="evenodd" d="M9 2C9 1.44772 8.55228 1 8 1C7.44772 1 7 1.44772 7 2H6C3.79086 2 2 3.79086 2 6V9V19C2 21.2091 3.79086 23 6 23H12.5C13.0523 23 13.5 22.5523 13.5 22C13.5 21.4477 13.0523 21 12.5 21H6C4.89543 21 4 20.1046 4 19V10H20V13C20 13.5523 20.4477 14 21 14C21.5523 14 22 13.5523 22 13V9V6C22 3.79086 20.2091 2 18 2H17C17 1.44772 16.5523 1 16 1C15.4477 1 15 1.44772 15 2H9ZM6 4H7C7 4.55228 7.44772 5 8 5C8.55228 5 9 4.55228 9 4H15C15 4.55228 15.4477 5 16 5C16.5523 5 17 4.55228 17 4H18C19.1046 4 20 4.89543 20 6V8H4V6C4 4.89543 4.89543 4 6 4ZM18.344 15.2311C18.2158 14.923 17.7794 14.923 17.6512 15.2311L17.0589 16.6552C17.0052 16.7842 16.8843 16.8727 16.745 16.8848L15.3432 17.0067C15.0215 17.0347 14.8831 17.429 15.1167 17.6519L16.1815 18.668C16.2781 18.7601 16.3184 18.8966 16.2874 19.0264L15.9268 20.5382C15.8494 20.8628 16.2025 21.1194 16.4873 20.9454L17.8021 20.1424C17.9221 20.0691 18.0731 20.0691 18.1932 20.1424L19.5079 20.9454C19.7927 21.1194 20.1458 20.8628 20.0684 20.5382L19.7079 19.0269C19.6769 18.8968 19.7174 18.7601 19.8143 18.6679L20.8828 17.6524C21.1171 17.4297 20.9788 17.0346 20.6567 17.0067L19.2503 16.8848C19.111 16.8727 18.99 16.7842 18.9363 16.6551L18.344 15.2311Z" fill="black"/>
</svg>
