<svg width="24" height="24" viewBox="0 0 24 24" fill="none" xmlns="http://www.w3.org/2000/svg">
<path fill-rule="evenodd" clip-rule="evenodd" d="M8 1C6.34315 1 5 2.34315 5 4V8V14V20C5 21.6569 6.34315 23 8 23H16C17.6569 23 19 21.6569 19 20V14V8V4C19 2.34315 17.6569 1 16 1H12H8ZM7 13V12.899C7.03333 12.933 7.067 12.9667 7.10102 13H7ZM7 15H11V16.2676C10.4022 16.6134 10 17.2597 10 18C10 19.1046 10.8954 20 12 20C13.1046 20 14 19.1046 14 18C14 17.2597 13.5978 16.6134 13 16.2676V15H17V20C17 20.5523 16.5523 21 16 21H8C7.44772 21 7 20.5523 7 20V15ZM16.899 13H17V12.899C16.9667 12.933 16.933 12.9667 16.899 13ZM12 3C9.23858 3 7 5.23858 7 8C7 10.7614 9.23858 13 12 13C14.7614 13 17 10.7614 17 8C17 5.23858 14.7614 3 12 3ZM13 5.5C13 4.94772 12.5523 4.5 12 4.5C11.4477 4.5 11 4.94772 11 5.5V8.08579C11 8.61622 11.2107 9.12493 11.5858 9.5L12.2929 10.2071C12.6834 10.5976 13.3166 10.5976 13.7071 10.2071C14.0976 9.81658 14.0976 9.18342 13.7071 8.79289L13 8.08579V5.5Z" fill="black"/>
</svg>
