<svg width="24" height="24" viewBox="0 0 24 24" fill="none" xmlns="http://www.w3.org/2000/svg">
<path fill-rule="evenodd" clip-rule="evenodd" d="M4 12C4 7.58172 7.58172 4 12 4C16.4183 4 20 7.58172 20 12C20 12.5523 20.4477 13 21 13C21.5523 13 22 12.5523 22 12C22 6.47715 17.5228 2 12 2C6.47715 2 2 6.47715 2 12C2 17.5228 6.47715 22 12 22C12.5523 22 13 21.5523 13 21C13 20.4477 12.5523 20 12 20C7.58172 20 4 16.4183 4 12ZM13.5 8C13.5 7.44772 13.0523 7 12.5 7C11.9477 7 11.5 7.44772 11.5 8V12.5858L9.79289 14.2929C9.40237 14.6834 9.40237 15.3166 9.79289 15.7071C10.1834 16.0976 10.8166 16.0976 11.2071 15.7071L13.0607 13.8536C13.342 13.5722 13.5 13.1907 13.5 12.7929V8ZM16.25 14H18.75C19.1642 14 19.5 14.3358 19.5 14.75V14.8944C19.5 15.2893 19.3831 15.6753 19.1641 16.0038L18.5924 16.8613C18.5365 16.9453 18.5365 17.0547 18.5924 17.1387L19.1641 17.9962C19.3831 18.3247 19.5 18.7107 19.5 19.1056V19.25C19.5 19.6642 19.1642 20 18.75 20H16.25C15.8358 20 15.5 19.6642 15.5 19.25V19.1056C15.5 18.7107 15.6169 18.3247 15.8359 17.9962L16.4075 17.1387C16.4635 17.0547 16.4635 16.9453 16.4075 16.8613L15.8359 16.0038C15.6169 15.6753 15.5 15.2893 15.5 14.8944V14.75C15.5 14.3358 15.8358 14 16.25 14Z" fill="black"/>
</svg>
