<svg width="24" height="24" viewBox="0 0 24 24" fill="none" xmlns="http://www.w3.org/2000/svg">
<path d="M12 9.5V12.0858C12 12.351 12.1054 12.6054 12.2929 12.7929L13 13.5M4.78817 6.15929L3.52124 6.6346C2.251 7.11115 1.64948 8.56335 2.2107 9.79852L2.77046 11.0305C3.05038 11.6465 3.05038 12.3535 2.77046 12.9695L2.2107 14.2015C1.64948 15.4366 2.251 16.8888 3.52124 17.3654L4.78817 17.8407C5.42171 18.0784 5.92161 18.5783 6.15929 19.2118L6.6346 20.4788C7.11115 21.749 8.56335 22.3505 9.79852 21.7893L11.0305 21.2295C11.6465 20.9496 12.3535 20.9496 12.9695 21.2295L14.2015 21.7893C15.4366 22.3505 16.8888 21.749 17.3654 20.4788L17.8407 19.2118C18.0784 18.5783 18.5783 18.0784 19.2118 17.8407L20.4788 17.3654C21.749 16.8888 22.3505 15.4366 21.7893 14.2015L21.2295 12.9695C20.9496 12.3535 20.9496 11.6465 21.2295 11.0305L21.7893 9.79852C22.3505 8.56335 21.749 7.11115 20.4788 6.6346L19.2118 6.15929C18.5783 5.92161 18.0784 5.42171 17.8407 4.78817L17.3654 3.52124C16.8888 2.251 15.4366 1.64948 14.2015 2.2107L12.9695 2.77046C12.3535 3.05038 11.6465 3.05038 11.0305 2.77046L9.79852 2.2107C8.56335 1.64948 7.11115 2.251 6.6346 3.52124L6.15929 4.78817C5.92161 5.42171 5.42171 5.92161 4.78817 6.15929ZM18 12C18 15.3137 15.3137 18 12 18C8.68629 18 6 15.3137 6 12C6 8.68629 8.68629 6 12 6C15.3137 6 18 8.68629 18 12Z" stroke="black" stroke-width="2" stroke-linecap="round" stroke-linejoin="round"/>
</svg>
