<svg width="24" height="24" viewBox="0 0 24 24" fill="none" xmlns="http://www.w3.org/2000/svg">
<path fill-rule="evenodd" clip-rule="evenodd" d="M4 12C4 7.58172 7.58172 4 12 4C16.4183 4 20 7.58172 20 12C20 12.5523 20.4477 13 21 13C21.5523 13 22 12.5523 22 12C22 6.47715 17.5228 2 12 2C6.47715 2 2 6.47715 2 12C2 17.5228 6.47715 22 12 22C12.5523 22 13 21.5523 13 21C13 20.4477 12.5523 20 12 20C7.58172 20 4 16.4183 4 12ZM13.5 8C13.5 7.44772 13.0523 7 12.5 7C11.9477 7 11.5 7.44772 11.5 8V12.5858L9.79289 14.2929C9.40237 14.6834 9.40237 15.3166 9.79289 15.7071C10.1834 16.0976 10.8166 16.0976 11.2071 15.7071L13.0607 13.8536C13.342 13.5722 13.5 13.1907 13.5 12.7929V8ZM16.764 14H19.0585C19.2528 14 19.3728 14.212 19.2728 14.3786L18.0909 16.3486C18.0509 16.4152 18.0989 16.5 18.1766 16.5H19.3C19.3824 16.5 19.4294 16.5941 19.38 16.66L16.7461 20.1719C16.6832 20.2557 16.5502 20.1988 16.5674 20.0955L16.9515 17.7911C16.9769 17.6387 16.8594 17.5 16.7049 17.5H15.7651C15.6323 17.5 15.5363 17.3728 15.5728 17.2451L16.4275 14.2538C16.4704 14.1036 16.6077 14 16.764 14Z" fill="black"/>
</svg>
