<svg width="24" height="24" viewBox="0 0 24 24" fill="none" xmlns="http://www.w3.org/2000/svg">
<path fill-rule="evenodd" clip-rule="evenodd" d="M4 12C4 7.58172 7.58172 4 12 4C16.4183 4 20 7.58172 20 12C20 12.5523 20.4477 13 21 13C21.5523 13 22 12.5523 22 12C22 6.47715 17.5228 2 12 2C6.47715 2 2 6.47715 2 12C2 17.5228 6.47715 22 12 22C12.5523 22 13 21.5523 13 21C13 20.4477 12.5523 20 12 20C7.58172 20 4 16.4183 4 12ZM13.5 8C13.5 7.44772 13.0523 7 12.5 7C11.9477 7 11.5 7.44772 11.5 8V12.5858L9.79289 14.2929C9.40237 14.6834 9.40237 15.3166 9.79289 15.7071C10.1834 16.0976 10.8166 16.0976 11.2071 15.7071L13.0607 13.8536C13.342 13.5722 13.5 13.1907 13.5 12.7929V8ZM16.3528 20.1941C16.3711 20.3544 16.5649 20.4197 16.9523 20.5502C17.0173 20.5721 17.0834 20.5921 17.1506 20.6101C18.8102 21.0548 20.5031 20.1179 20.932 18.5175C21.3608 16.9171 20.3631 15.2593 18.7035 14.8146C18.6363 14.7966 18.5691 14.7808 18.5018 14.7673C18.101 14.6867 17.9006 14.6464 17.8046 14.776C17.7086 14.9056 17.8418 15.1307 18.1084 15.5811C18.5028 16.2475 18.6402 17.0541 18.4279 17.8466C18.2155 18.6391 17.6932 19.2689 17.0184 19.6488C16.5624 19.9055 16.3344 20.0339 16.3528 20.1941Z" fill="black"/>
</svg>
