<svg width="24" height="24" viewBox="0 0 24 24" fill="none" xmlns="http://www.w3.org/2000/svg">
<path fill-rule="evenodd" clip-rule="evenodd" d="M4 2C2.34315 2 1 3.34315 1 5V15V19C1 20.6569 2.34315 22 4 22H20C21.6569 22 23 20.6569 23 19V15V5C23 3.34315 21.6569 2 20 2H4ZM3 5C3 4.44772 3.44772 4 4 4H20C20.5523 4 21 4.44772 21 5V14H3V5ZM3 19V16H21V19C21 19.5523 20.5523 20 20 20H4C3.44772 20 3 19.5523 3 19ZM7 5C5.89543 5 5 5.89543 5 7V11C5 12.1046 5.89543 13 7 13H8C9.10457 13 10 12.1046 10 11V7C10 5.89543 9.10457 5 8 5H7ZM7 7H8V11H7V7ZM18 6C18 5.44772 17.5523 5 17 5C16.4477 5 16 5.44772 16 6V12C16 12.5523 16.4477 13 17 13C17.5523 13 18 12.5523 18 12V6ZM14 7C14 7.55228 13.5523 8 13 8C12.4477 8 12 7.55228 12 7C12 6.44772 12.4477 6 13 6C13.5523 6 14 6.44772 14 7ZM13 18C13 18.5523 12.5523 19 12 19C11.4477 19 11 18.5523 11 18C11 17.4477 11.4477 17 12 17C12.5523 17 13 17.4477 13 18ZM8 18C8 18.5523 7.55228 19 7 19C6.44772 19 6 18.5523 6 18C6 17.4477 6.44772 17 7 17C7.55228 17 8 17.4477 8 18ZM18 18C18 18.5523 17.5523 19 17 19C16.4477 19 16 18.5523 16 18C16 17.4477 16.4477 17 17 17C17.5523 17 18 17.4477 18 18ZM14 11C14 11.5523 13.5523 12 13 12C12.4477 12 12 11.5523 12 11C12 10.4477 12.4477 10 13 10C13.5523 10 14 10.4477 14 11Z" fill="black"/>
</svg>
