<svg width="24" height="24" viewBox="0 0 24 24" fill="none" xmlns="http://www.w3.org/2000/svg">
<path d="M11 11C11.5523 11 12 10.5523 12 10C12 9.44772 11.5523 9 11 9V11ZM4 9C3.44772 9 3 9.44772 3 10C3 10.5523 3.44772 11 4 11V9ZM11.5 17C12.0523 17 12.5 16.5523 12.5 16C12.5 15.4477 12.0523 15 11.5 15V17ZM5.5 15C4.94772 15 4.5 15.4477 4.5 16C4.5 16.5523 4.94772 17 5.5 17V15ZM6 7C6.55228 7 7 6.55228 7 6C7 5.44772 6.55228 5 6 5V7ZM3.5 5C2.94772 5 2.5 5.44772 2.5 6C2.5 6.55228 2.94772 7 3.5 7V5ZM7 14C7.55228 14 8 13.5523 8 13C8 12.4477 7.55228 12 7 12V14ZM3 12C2.44772 12 2 12.4477 2 13C2 13.5523 2.44772 14 3 14V12ZM15 8.5C15 7.94772 14.5523 7.5 14 7.5C13.4477 7.5 13 7.94772 13 8.5H15ZM14.2929 12.2929L15 11.5858V11.5858L14.2929 12.2929ZM14.7929 14.2071C15.1834 14.5976 15.8166 14.5976 16.2071 14.2071C16.5976 13.8166 16.5976 13.1834 16.2071 12.7929L14.7929 14.2071ZM20 12C20 15.3137 17.3137 18 14 18V20C18.4183 20 22 16.4183 22 12H20ZM14 6C17.3137 6 20 8.68629 20 12H22C22 7.58172 18.4183 4 14 4V6ZM11 9H7.28988V11H11V9ZM7.28988 9H4V11H7.28988V9ZM8.24833 10.2852C8.98616 7.80612 11.2835 6 14 6V4C10.3745 4 7.3147 6.4109 6.33143 9.71475L8.24833 10.2852ZM11.5 15H8.25469V17H11.5V15ZM8.25469 15H5.5V17H8.25469V15ZM14 18C11.9619 18 10.1608 16.9848 9.07487 15.4279L7.4345 16.5721C8.87845 18.6422 11.2806 20 14 20V18ZM6 5H3.5V7H6V5ZM7 12H3V14H7V12ZM15 11.5858V8.5H13V11.5858H15ZM13.5858 13L14.7929 14.2071L16.2071 12.7929L15 11.5858L13.5858 13ZM13 11.5858C13 12.1162 13.2107 12.6249 13.5858 13L15 11.5858H13Z" fill="black"/>
</svg>
