<svg width="24" height="24" viewBox="0 0 24 24" fill="none" xmlns="http://www.w3.org/2000/svg">
<path d="M17 3H7C5.89543 3 5 3.89543 5 5V6.0775C5 7.29264 5.55236 8.44189 6.50122 9.20098L9.02391 11.2191C9.52432 11.6195 9.52432 12.3805 9.02391 12.7809L6.50122 14.799C5.55236 15.5581 5 16.7074 5 17.9225V19C5 20.1046 5.89543 21 7 21H17C18.1046 21 19 20.1046 19 19V17.9225C19 16.7074 18.4476 15.5581 17.4988 14.799L14.9761 12.7809C14.4757 12.3805 14.4757 11.6195 14.9761 11.2191L17.4988 9.20098C18.4476 8.44189 19 7.29264 19 6.0775V5C19 3.89543 18.1046 3 17 3Z" stroke="black" stroke-width="2" stroke-linecap="round"/>
</svg>
