<svg width="24" height="24" viewBox="0 0 24 24" fill="none" xmlns="http://www.w3.org/2000/svg">
<path fill-rule="evenodd" clip-rule="evenodd" d="M8 1C6.34315 1 5 2.34315 5 4V5.85926C5 7.53103 5.8355 9.09219 7.2265 10.0195L10.1972 12L7.2265 13.9805C5.83551 14.9078 5 16.469 5 18.1407V20C5 21.6569 6.34315 23 8 23H16C17.6569 23 19 21.6569 19 20V18.1407C19 16.469 18.1645 14.9078 16.7735 13.9805L13.8028 12L16.7735 10.0195C18.1645 9.09219 19 7.53103 19 5.85926V4C19 2.34315 17.6569 1 16 1H8ZM15.6641 8.35542L12 10.7981L8.3359 8.35542C7.5013 7.79902 7 6.86232 7 5.85926V4C7 3.44772 7.44772 3 8 3H16C16.5523 3 17 3.44772 17 4V5.85926C17 6.86232 16.4987 7.79902 15.6641 8.35542ZM8.3359 15.6446L12 13.2019L15.6641 15.6446C16.4987 16.201 17 17.1377 17 18.1407V20C17 20.5523 16.5523 21 16 21H15.8889L12.6689 18.102C12.2886 17.7598 11.7113 17.7598 11.331 18.102L8.11102 21H8C7.44772 21 7 20.5523 7 20V18.1407C7 17.1377 7.5013 16.201 8.3359 15.6446Z" fill="black"/>
</svg>
