<svg width="24" height="24" viewBox="0 0 24 24" fill="none" xmlns="http://www.w3.org/2000/svg">
<path fill-rule="evenodd" clip-rule="evenodd" d="M10 1C9.44772 1 9 1.44772 9 2C9 2.55228 9.44772 3 10 3H11V5.05499C9.26426 5.24703 7.67671 5.93298 6.38236 6.96815L5.70711 6.29289C5.31658 5.90237 4.68342 5.90237 4.29289 6.29289C3.90237 6.68342 3.90237 7.31658 4.29289 7.70711L4.96815 8.38236C3.73715 9.92157 3 11.8754 3 14C3 18.9706 7.02944 23 12 23C16.9706 23 21 18.9706 21 14C21 11.8754 20.2628 9.92157 19.0319 8.38236L19.7071 7.70711C20.0976 7.31658 20.0976 6.68342 19.7071 6.29289C19.3166 5.90237 18.6834 5.90237 18.2929 6.29289L17.6176 6.96815C16.3233 5.93298 14.7357 5.24703 13 5.05499V3H14C14.5523 3 15 2.55228 15 2C15 1.44772 14.5523 1 14 1H12H10ZM7.05025 9.05025C8.3181 7.78241 10.0667 7 12 7C13.9333 7 15.6819 7.78241 16.9497 9.05025C18.2176 10.3181 19 12.0667 19 14C19 17.866 15.866 21 12 21C8.13401 21 5 17.866 5 14C5 12.0667 5.78241 10.3181 7.05025 9.05025ZM7.00974 14.8052C6.93346 14.3485 7.31609 13.9704 7.77905 13.9704H11.1321C11.5951 13.9704 11.9704 13.5951 11.9704 13.1321V9.77905C11.9704 9.31609 12.3485 8.93346 12.8051 9.00974C15.1856 9.40737 17 11.477 17 13.9704C17 16.7482 14.7482 19 11.9704 19C9.477 19 7.40737 17.1856 7.00974 14.8052Z" fill="black"/>
</svg>
