<svg width="24" height="24" viewBox="0 0 24 24" fill="none" xmlns="http://www.w3.org/2000/svg">
<path d="M12 10V12.5858C12 12.851 12.1054 13.1054 12.2929 13.2929L13 14M8 6V3C8 2.44772 8.44772 2 9 2H15C15.5523 2 16 2.44772 16 3V6M8 6H16M8 6C6.89543 6 6 6.89543 6 8V16C6 17.1046 6.89543 18 8 18M8 18V21C8 21.5523 8.44772 22 9 22H15C15.5523 22 16 21.5523 16 21V18M8 18H16M16 18C17.1046 18 18 17.1046 18 16V12M16 6C17.1046 6 18 6.89543 18 8V12M18 12H19" stroke="black" stroke-width="2" stroke-linecap="round" stroke-linejoin="round"/>
</svg>
