<svg width="24" height="24" viewBox="0 0 24 24" fill="none" xmlns="http://www.w3.org/2000/svg">
<path d="M8 6V3C8 2.44772 8.44772 2 9 2H15C15.5523 2 16 2.44772 16 3V6M8 6H16M8 6C6.89543 6 6 6.89543 6 8V16C6 17.1046 6.89543 18 8 18M8 18V21C8 21.5523 8.44772 22 9 22H15C15.5523 22 16 21.5523 16 21V18M8 18H16M16 18C17.1046 18 18 17.1046 18 16V12M16 6C17.1046 6 18 6.89543 18 8V12M18 12H19M15 9V15M10 15H11C11.5523 15 12 14.5523 12 14V10C12 9.44772 11.5523 9 11 9H10C9.44772 9 9 9.44772 9 10V14C9 14.5523 9.44772 15 10 15Z" stroke="black" stroke-width="2" stroke-linecap="round" stroke-linejoin="round"/>
</svg>
