<svg width="24" height="24" viewBox="0 0 24 24" fill="none" xmlns="http://www.w3.org/2000/svg">
<path fill-rule="evenodd" clip-rule="evenodd" d="M12.2293 2.15401C12.1439 1.94866 11.8529 1.94866 11.7675 2.15401L11.3726 3.10315C11.3368 3.18916 11.2562 3.24816 11.1633 3.25623L10.2288 3.33746C10.0143 3.3561 9.92206 3.61888 10.0778 3.76745L10.7877 4.44466C10.8521 4.50607 10.8789 4.59704 10.8583 4.68357L10.6179 5.69117C10.5663 5.90751 10.8017 6.0785 10.9915 5.96257L11.868 5.42734C11.9481 5.37847 12.0487 5.37847 12.1288 5.42734L13.0053 5.96257C13.1951 6.0785 13.4305 5.90751 13.3789 5.69117L13.1386 4.68389C13.1179 4.59719 13.1449 4.50604 13.2096 4.44464L13.9219 3.76779C14.0781 3.61935 13.9859 3.35607 13.7711 3.33746L12.8335 3.25619C12.7407 3.24814 12.66 3.18915 12.6242 3.10311L12.2293 2.15401ZM18.2293 4.15401C18.1439 3.94866 17.8529 3.94866 17.7675 4.15401L17.3726 5.10315C17.3368 5.18916 17.2562 5.24816 17.1634 5.25623L16.2288 5.33746C16.0143 5.3561 15.9221 5.61888 16.0778 5.76745L16.7877 6.44466C16.8521 6.50607 16.8789 6.59704 16.8583 6.68357L16.6179 7.69117C16.5663 7.90751 16.8017 8.0785 16.9915 7.96257L17.868 7.42734C17.9481 7.37847 18.0487 7.37847 18.1288 7.42734L19.0053 7.96257C19.1951 8.0785 19.4305 7.90751 19.3789 7.69117L19.1386 6.68389C19.1179 6.59719 19.1449 6.50604 19.2096 6.44464L19.9219 5.76779C20.0781 5.61935 19.9859 5.35607 19.7711 5.33746L18.8335 5.25619C18.7407 5.24814 18.66 5.18915 18.6242 5.10311L18.2293 4.15401ZM5.76748 4.15401C5.85292 3.94866 6.1439 3.94866 6.22933 4.15401L6.62419 5.10311C6.65998 5.18915 6.74066 5.24814 6.83351 5.25619L7.77115 5.33746C7.98586 5.35607 8.07807 5.61935 7.92185 5.76779L7.20956 6.44464C7.14494 6.50604 7.1179 6.59719 7.13859 6.68389L7.37893 7.69117C7.43055 7.90751 7.19514 8.0785 7.00529 7.96257L6.12877 7.42734C6.04874 7.37847 5.94808 7.37847 5.86804 7.42734L4.99153 7.96257C4.80168 8.0785 4.56627 7.90751 4.61789 7.69117L4.8583 6.68357C4.87894 6.59704 4.85205 6.50607 4.78768 6.44466L4.0778 5.76745C3.92206 5.61888 4.01434 5.3561 4.22879 5.33746L5.16335 5.25623C5.25618 5.24816 5.33683 5.18916 5.37261 5.10315L5.76748 4.15401ZM12 9C9.79086 9 8 10.7909 8 13C8 14.0905 8.43508 15.0774 9.14338 15.8C9.87052 16.5417 10.8808 17 12 17C13.0905 17 14.0774 16.5649 14.8 15.8566C15.5417 15.1295 16 14.1192 16 13C16 10.7909 14.2091 9 12 9ZM6 13C6 9.68629 8.68629 7 12 7C15.3137 7 18 9.68629 18 13C18 14.5214 17.4327 15.9117 16.5 16.9687V21.1384C16.5 22.2901 15.2558 23.0122 14.2558 22.4408L11.9951 21.1489L9.6623 22.4556C8.66243 23.0156 7.42928 22.2929 7.42928 21.1469V16.8871C6.53868 15.8406 6 14.4824 6 13ZM9.42928 18.4227V20.2937L11.0177 19.404C11.6302 19.0609 12.3778 19.0641 12.9874 19.4125L14.5 20.2768V18.4557C13.7388 18.805 12.8919 19 12 19C11.0803 19 10.2085 18.7927 9.42928 18.4227ZM12 10C11.6687 10 11.4001 10.2686 11.4001 10.5999C11.4001 10.8504 11.5537 11.065 11.7718 11.1548L11.177 11.912C11.1669 11.9249 11.1514 11.9324 11.1351 11.9324H10.1875C10.1972 11.8895 10.2024 11.8449 10.2024 11.7991C10.2024 11.4678 9.93381 11.1992 9.60252 11.1992H9.59985C9.26856 11.1992 9 11.4678 9 11.7991C9 12.1304 9.26856 12.3989 9.59985 12.3989H9.60252C9.78316 12.3989 9.94515 12.3191 10.0551 12.1927L10.6179 12.9674C10.6315 12.9861 10.6315 13.0114 10.6179 13.0301L10.0549 13.8052C9.94488 13.679 9.78301 13.5993 9.60252 13.5993H9.59985C9.26856 13.5993 9 13.8679 9 14.1992C9 14.5305 9.26856 14.799 9.59985 14.799H9.60252C9.93381 14.799 10.2024 14.5305 10.2024 14.1992C10.2024 14.1531 10.1972 14.1083 10.1873 14.0652H11.1351C11.1514 14.0652 11.1669 14.0727 11.177 14.0855L11.7723 14.8433C11.5539 14.9329 11.4001 15.1477 11.4001 15.3984C11.4001 15.7297 11.6687 15.9982 12 15.9982H12.0026C12.3339 15.9982 12.6025 15.7297 12.6025 15.3984C12.6025 15.1502 12.4518 14.9373 12.2369 14.846L12.8714 14.0851C12.8817 14.0725 12.8972 14.0651 12.9136 14.0651H13.8152C13.8054 14.1082 13.8002 14.1531 13.8002 14.1992C13.8002 14.5305 14.0688 14.799 14.4001 14.799H14.4001C14.7314 14.799 15 14.5305 15 14.1992C15 13.8679 14.7314 13.5993 14.4001 13.5993H14.4001C14.2332 13.5993 14.0823 13.6674 13.9736 13.7774L13.4305 13.0298C13.417 13.0112 13.417 12.9862 13.4305 12.9676L13.9732 12.2206C14.082 12.3307 14.2331 12.3989 14.4001 12.3989H14.4001C14.7314 12.3989 15 12.1304 15 11.7991C15 11.4678 14.7314 11.1992 14.4001 11.1992H14.4001C14.0688 11.1992 13.8002 11.4678 13.8002 11.7991C13.8002 11.8449 13.8053 11.8895 13.8151 11.9323H12.9136C12.8972 11.9323 12.8817 11.925 12.8714 11.9123L12.2373 11.152C12.452 11.0607 12.6025 10.8478 12.6025 10.5999C12.6025 10.2686 12.3339 10 12.0026 10H12Z" fill="black"/>
</svg>
