<svg width="24" height="24" viewBox="0 0 24 24" fill="none" xmlns="http://www.w3.org/2000/svg">
<path d="M22 7.05888H17.8851C17.311 7.05888 16.7529 6.86994 16.2969 6.52121L15.5726 5.96736C14.066 4.81519 11.9641 4.85312 10.5 6.05888V6.05888L9.28575 7.05888M19 15.2944C17.4056 13.6531 15.203 10.9227 13.9581 9.34518C13.4167 8.65914 12.4354 8.50526 11.7148 8.99978L11.0348 9.46645C10.4371 9.87669 9.63064 9.79642 9.12548 9.27638V9.27638C8.51938 8.65244 8.5754 7.6439 9.24686 7.09091L9.28575 7.05888M19 15.2944C19.781 15.2944 22 15.2944 22 15.2944M19 15.2944C22 18.4232 10.7991 21.2642 9 19.4122C7.4379 17.8041 6.5621 16.9025 5 15.2944H2M2 7.05888H9.28575" stroke="black" stroke-width="2" stroke-linecap="round" stroke-linejoin="round"/>
</svg>
