<svg width="24" height="24" viewBox="0 0 24 24" fill="none" xmlns="http://www.w3.org/2000/svg">
<path fill-rule="evenodd" clip-rule="evenodd" d="M9 3C8.44772 3 8 3.44772 8 4H16C16 3.44772 15.5523 3 15 3H9ZM18 4C18 2.34315 16.6569 1 15 1H9C7.34315 1 6 2.34315 6 4H5C2.79086 4 1 5.79086 1 8V9V19C1 21.2091 2.79086 23 5 23H19C21.2091 23 23 21.2091 23 19V9V8C23 5.79086 21.2091 4 19 4H18ZM21 9V8C21 6.89543 20.1046 6 19 6H17H12H7H5C3.89543 6 3 6.89543 3 8V9C3 10.1046 3.89543 11 5 11H6.08296C6.0284 11.3252 6 11.6593 6 12C6 12.3407 6.0284 12.6748 6.08296 13H5C4.27143 13 3.58835 12.8052 3 12.4649V19C3 20.1046 3.89543 21 5 21H19C20.1046 21 21 20.1046 21 19V12.4649C20.4117 12.8052 19.7286 13 19 13H17.917C17.9716 12.6748 18 12.3407 18 12C18 11.6593 17.9716 11.3252 17.917 11H19C20.1046 11 21 10.1046 21 9ZM7 18H12H17C17.5523 18 18 18.4477 18 19C18 19.5523 17.5523 20 17 20H7C6.44772 20 6 19.5523 6 19C6 18.4477 6.44772 18 7 18ZM11.9732 8.46671L15.5947 12.0601C15.6332 12.0984 15.6954 12.0983 15.7339 12.0601L15.8748 11.9203C15.9896 11.8064 16.1747 11.8064 16.2895 11.9203C16.4055 12.0354 16.4055 12.223 16.2895 12.3381L13.9913 14.6185C13.8765 14.7324 13.6914 14.7324 13.5766 14.6185C13.4606 14.5034 13.4606 14.3158 13.5766 14.2007L13.7143 14.0641C13.7527 14.026 13.7527 13.964 13.7143 13.9259L12.7409 12.96C12.6629 12.8826 12.5371 12.8826 12.4592 12.96L9.24391 16.1504C9.04891 16.3439 8.73432 16.3438 8.5394 16.1502L7.85738 15.4729C7.66043 15.2773 7.6605 14.9587 7.85753 14.7632L11.0653 11.5802C11.1442 11.502 11.1441 11.3744 11.0652 11.2962L10.0929 10.3324C10.0544 10.2942 9.99219 10.2942 9.95365 10.3325L9.84691 10.4384C9.71323 10.571 9.49759 10.571 9.36392 10.4384C9.22876 10.3043 9.22876 10.0857 9.36392 9.95164L11.5932 7.73963C11.7268 7.60699 11.9425 7.60699 12.0762 7.73963C12.2113 7.87375 12.2113 8.0923 12.0762 8.22641L11.9732 8.32851C11.9349 8.36659 11.9349 8.42864 11.9732 8.46671Z" fill="black"/>
</svg>
