<svg width="24" height="24" viewBox="0 0 24 24" fill="none" xmlns="http://www.w3.org/2000/svg">
<path fill-rule="evenodd" clip-rule="evenodd" d="M9 3C8.44772 3 8 3.44772 8 4H16C16 3.44772 15.5523 3 15 3H9ZM18 4C18 2.34315 16.6569 1 15 1H9C7.34315 1 6 2.34315 6 4H5C2.79086 4 1 5.79086 1 8V9V19C1 21.2091 2.79086 23 5 23H19C21.2091 23 23 21.2091 23 19V9V8C23 5.79086 21.2091 4 19 4H18ZM21 9V8C21 6.89543 20.1046 6 19 6H17H12H7H5C3.89543 6 3 6.89543 3 8V9C3 10.1046 3.89543 11 5 11H6.08296C6.0284 11.3252 6 11.6593 6 12C6 12.3407 6.0284 12.6748 6.08296 13H5C4.27143 13 3.58835 12.8052 3 12.4649V19C3 20.1046 3.89543 21 5 21H19C20.1046 21 21 20.1046 21 19V12.4649C20.4117 12.8052 19.7286 13 19 13H17.917C17.9716 12.6748 18 12.3407 18 12C18 11.6593 17.9716 11.3252 17.917 11H19C20.1046 11 21 10.1046 21 9ZM7 18H12H17C17.5523 18 18 18.4477 18 19C18 19.5523 17.5523 20 17 20H7C6.44772 20 6 19.5523 6 19C6 18.4477 6.44772 18 7 18ZM12 7C11.5029 7 11.1 7.40294 11.1 7.89999C11.1 8.29965 11.3605 8.63846 11.721 8.7559L10.7894 10.111C10.7727 10.1354 10.7449 10.15 10.7153 10.15H9.27613C9.29465 10.0781 9.30449 10.0027 9.30449 9.92498C9.30449 9.42793 8.90155 9.02499 8.4045 9.02499H8.4C7.90294 9.02499 7.5 9.42793 7.5 9.92498C7.5 10.422 7.90294 10.825 8.4 10.825H8.4045C8.67516 10.825 8.91792 10.7055 9.0829 10.5164L9.96352 11.9017C9.98224 11.9312 9.98224 11.9688 9.96352 11.9983L9.08293 13.3836C8.91794 13.1945 8.67517 13.075 8.4045 13.075H8.4C7.90294 13.075 7.5 13.4779 7.5 13.975C7.5 14.472 7.90294 14.875 8.4 14.875H8.4045C8.90155 14.875 9.30449 14.472 9.30449 13.975C9.30449 13.8973 9.29465 13.8219 9.27615 13.75L10.7153 13.75C10.7449 13.75 10.7727 13.7646 10.7894 13.789L11.7209 15.1441C11.3605 15.2615 11.1 15.6003 11.1 15.9999C11.1 16.497 11.5029 16.8999 12 16.8999H12.0045C12.5015 16.8999 12.9045 16.497 12.9045 15.9999C12.9045 15.6041 12.6489 15.2679 12.2937 15.1474L13.2889 13.7837C13.304 13.7624 13.3269 13.7499 13.3511 13.7499H14.7283C14.7098 13.8219 14.7 13.8973 14.7 13.975C14.7 14.472 15.1029 14.875 15.6 14.875H15.6C16.0971 14.875 16.5 14.472 16.5 13.975C16.5 13.4779 16.0971 13.075 15.6 13.075H15.6C15.3515 13.075 15.1266 13.1756 14.9638 13.3383L14.1146 12.0024C14.0947 11.9711 14.0947 11.9288 14.1146 11.8975L14.9638 10.5616C15.1266 10.7243 15.3515 10.825 15.6 10.825H15.6C16.0971 10.825 16.5 10.422 16.5 9.92498C16.5 9.42793 16.0971 9.02499 15.6 9.02499H15.6C15.1029 9.02499 14.7 9.42793 14.7 9.92498C14.7 10.0027 14.7098 10.078 14.7283 10.1499H13.3511C13.3269 10.1499 13.304 10.1375 13.2889 10.1162L12.2937 8.7525C12.6489 8.63204 12.9045 8.29587 12.9045 7.89999C12.9045 7.40294 12.5015 7 12.0045 7H12Z" fill="black"/>
</svg>
