<svg width="24" height="24" viewBox="0 0 24 24" fill="none" xmlns="http://www.w3.org/2000/svg">
<path fill-rule="evenodd" clip-rule="evenodd" d="M9 3C8.44772 3 8 3.44772 8 4H16C16 3.44772 15.5523 3 15 3H9ZM18 4C18 2.34315 16.6569 1 15 1H9C7.34315 1 6 2.34315 6 4H5C2.79086 4 1 5.79086 1 8V9V19C1 21.2091 2.79086 23 5 23H19C21.2091 23 23 21.2091 23 19V9V8C23 5.79086 21.2091 4 19 4H18ZM21 9V8C21 6.89543 20.1046 6 19 6H17H12H7H5C3.89543 6 3 6.89543 3 8V9C3 10.1046 3.89543 11 5 11H6.08296C6.0284 11.3252 6 11.6593 6 12C6 12.3407 6.0284 12.6748 6.08296 13H5C4.27143 13 3.58835 12.8052 3 12.4649V19C3 20.1046 3.89543 21 5 21H19C20.1046 21 21 20.1046 21 19V12.4649C20.4117 12.8052 19.7286 13 19 13H17.917C17.9716 12.6748 18 12.3407 18 12C18 11.6593 17.9716 11.3252 17.917 11H19C20.1046 11 21 10.1046 21 9ZM7 18H12H17C17.5523 18 18 18.4477 18 19C18 19.5523 17.5523 20 17 20H7C6.44772 20 6 19.5523 6 19C6 18.4477 6.44772 18 7 18ZM10.4444 9.88287V9.33333C10.4444 8.59695 11.0414 8 11.7778 8H12.2222C12.9586 8 13.5556 8.59695 13.5556 9.33333V9.88287C13.5556 10.4349 13.427 10.9793 13.1802 11.473L12.9142 12.0049C12.8245 12.1844 12.7778 12.3822 12.7778 12.5829C12.7778 13.0587 13.1635 13.4444 13.6394 13.4444H14.463C15.0357 13.4444 15.5 13.9087 15.5 14.4815C15.5 14.7679 15.2679 15 14.9815 15H9.01852C8.73215 15 8.5 14.7679 8.5 14.4815C8.5 13.9087 8.9643 13.4444 9.53704 13.4444H10.3606C10.8365 13.4444 11.2222 13.0587 11.2222 12.5829C11.2222 12.3822 11.1755 12.1844 11.0858 12.0049L10.8198 11.473C10.573 10.9793 10.4444 10.4349 10.4444 9.88287Z" fill="black"/>
</svg>
