<svg width="24" height="24" viewBox="0 0 24 24" fill="none" xmlns="http://www.w3.org/2000/svg">
<path d="M5.99978 7H4.45692C3.60482 7 2.91406 7.69076 2.91406 8.54286C2.91406 9.39495 3.60482 10.0857 4.45692 10.0857M5.99978 7V8.54286C5.99978 9.39495 5.30902 10.0857 4.45692 10.0857M5.99978 7H7.99955M17.9136 7H19.4565C20.3086 7 20.9993 7.69076 20.9993 8.54286C20.9993 9.39495 20.3086 10.0857 19.4565 10.0857M17.9136 7V8.54286C17.9136 9.39495 18.6044 10.0857 19.4565 10.0857M17.9136 7H15.9996M15.9996 18H13.9996H11.9996M15.9996 18V7M15.9996 18H19.4565M7.99955 18H9.99956H11.9996M7.99955 18V7M7.99955 18H4.45692M4.45692 10.0857V18M19.4565 10.0857V18M15.9996 7H7.99955M2.99955 5L11.5657 3.09641C11.8515 3.03291 12.1477 3.03291 12.4334 3.09641L20.9996 5M19.4565 18H19.9996C20.5518 18 20.9996 18.4477 20.9996 19V20C20.9996 20.5523 20.5518 21 19.9996 21H3.99955C3.44727 21 2.99955 20.5523 2.99955 20V19C2.99955 18.4477 3.44727 18 3.99955 18H4.45692M11.9996 18V13" stroke="black" stroke-width="2" stroke-linecap="round" stroke-linejoin="round"/>
</svg>
