<svg width="24" height="24" viewBox="0 0 24 24" fill="none" xmlns="http://www.w3.org/2000/svg">
<path d="M5.99978 7H4.45692C3.60482 7 2.91406 7.69076 2.91406 8.54286C2.91406 9.39495 3.60482 10.0857 4.45692 10.0857C5.30902 10.0857 5.99978 9.39495 5.99978 8.54286V7ZM5.99978 7H6.99955M17.9136 7H19.4565C20.3086 7 20.9993 7.69076 20.9993 8.54286C20.9993 9.39495 20.3086 10.0857 19.4565 10.0857C18.6044 10.0857 17.9136 9.39495 17.9136 8.54286V7ZM17.9136 7H16.9996M16.9996 21H20.9996M16.9996 21H13.9996M16.9996 21V7M6.99955 21H2.99955M6.99955 21H9.99956M6.99955 21V7M9.99956 21V16C9.99956 15.4477 10.4473 15 10.9996 15H12.9996C13.5518 15 13.9996 15.4477 13.9996 16V21M9.99956 21H13.9996M16.9996 7H6.99955M16.9996 7V5C16.9996 3.89543 16.1041 3 14.9996 3H8.99955C7.89498 3 6.99955 3.89543 6.99955 5V7" stroke="black" stroke-width="2" stroke-linecap="round" stroke-linejoin="round"/>
</svg>
