<svg width="24" height="24" viewBox="0 0 24 24" fill="none" xmlns="http://www.w3.org/2000/svg">
<path fill-rule="evenodd" clip-rule="evenodd" d="M16.7 13.8C16.7 13.3582 17.0582 13 17.5 13H17.504C17.9458 13 18.304 13.3582 18.304 13.8C18.304 14.1519 18.0768 14.4507 17.7611 14.5578L18.6457 15.7699C18.6591 15.7889 18.6795 15.7999 18.701 15.7999H19.9252C19.9087 15.736 19.9 15.669 19.9 15.6C19.9 15.1582 20.2581 14.8 20.7 14.8H20.7C21.1418 14.8 21.5 15.1582 21.5 15.6C21.5 16.0418 21.1418 16.4 20.7 16.4H20.7C20.4791 16.4 20.2792 16.3105 20.1345 16.1658L19.3796 17.3533C19.3619 17.3812 19.3619 17.4187 19.3796 17.4466L20.1345 18.6341C20.2792 18.4894 20.4792 18.4 20.7 18.4H20.7C21.1418 18.4 21.5 18.7581 21.5 19.2C21.5 19.6418 21.1418 20 20.7 20H20.7C20.2581 20 19.9 19.6418 19.9 19.2C19.9 19.1309 19.9087 19.0639 19.9252 18.9999L18.701 18.9999C18.6795 18.9999 18.6591 19.011 18.6457 19.03L17.7611 20.2422C18.0768 20.3493 18.304 20.6481 18.304 21C18.304 21.4418 17.9458 21.7999 17.504 21.7999H17.5C17.0582 21.7999 16.7 21.4418 16.7 21C16.7 20.6447 16.9315 20.3436 17.2519 20.2392L16.424 19.0347C16.409 19.013 16.3844 19 16.358 19L15.0788 19C15.0952 19.0639 15.104 19.1309 15.104 19.2C15.104 19.6418 14.7458 20 14.304 20H14.3C13.8582 20 13.5 19.6418 13.5 19.2C13.5 18.7581 13.8582 18.4 14.3 18.4H14.304C14.5446 18.4 14.7604 18.5062 14.907 18.6743L15.6898 17.4429C15.7064 17.4167 15.7064 17.3833 15.6898 17.3571L14.907 16.1257C14.7604 16.2938 14.5446 16.4 14.304 16.4H14.3C13.8582 16.4 13.5 16.0418 13.5 15.6C13.5 15.1582 13.8582 14.8 14.3 14.8H14.304C14.7458 14.8 15.104 15.1582 15.104 15.6C15.104 15.669 15.0952 15.7361 15.0788 15.8H16.358C16.3844 15.8 16.409 15.787 16.424 15.7653L17.252 14.5608C16.9315 14.4564 16.7 14.1552 16.7 13.8Z" fill="black"/>
<path fill-rule="evenodd" clip-rule="evenodd" d="M12.9991 2C12.9991 1.44772 12.5514 1 11.9991 1C11.4468 1 10.9991 1.44772 10.9991 2V2.0357C8.37321 2.22642 6.2747 3.16953 4.75842 4.58388C3.06194 6.16632 2.15139 8.28646 2.01669 10.4378C1.9608 11.3306 2.68847 12 3.49912 12H7.99912H10.9991V20C10.9991 20.1748 10.9017 20.4332 10.667 20.6679C10.4324 20.9025 10.1739 21 9.99912 21C9.82435 21 9.56588 20.9025 9.33122 20.6679C9.09657 20.4332 8.99912 20.1748 8.99912 20C8.99912 19.4477 8.5514 19 7.99912 19C7.44683 19 6.99912 19.4477 6.99912 20C6.99912 20.8252 7.40166 21.5668 7.91701 22.0821C8.43235 22.5975 9.17388 23 9.99912 23C10.8243 23 11.5659 22.5975 12.0812 22.0821C12.3862 21.7772 12.6516 21.393 12.8175 20.9592C12.3171 20.5373 11.9991 19.9058 11.9991 19.2C11.9991 18.4711 12.3382 17.8214 12.8672 17.4C12.3382 16.9786 11.9991 16.3289 11.9991 15.6C11.9991 14.8122 12.3952 14.1169 12.9991 13.7024V12H15.9991H16.0672C16.4601 11.687 16.9577 11.5 17.4991 11.5H17.5031C18.0445 11.5 18.5421 11.687 18.935 12H20.4991C21.3098 12 22.0374 11.3306 21.9815 10.4378C21.8468 8.28646 20.9363 6.16632 19.2398 4.58388C17.7235 3.16953 15.625 2.22642 12.9991 2.0357V2ZM6.12262 6.0464C6.66969 5.5361 7.33214 5.09075 8.11588 4.74696C8.05778 4.86804 8.00286 4.99101 7.95104 5.11538C7.36549 6.52071 7.09249 8.26084 7.0197 10H4.07096C4.28403 8.52625 4.97027 7.12129 6.12262 6.0464ZM11.9991 10H9.02165C9.09372 8.4324 9.34101 6.97947 9.79719 5.88462C10.3442 4.57182 11.0716 4 11.9991 4C12.9266 4 13.654 4.57182 14.201 5.88462C14.6572 6.97947 14.9045 8.4324 14.9766 10H11.9991ZM16.0472 5.11538C15.9954 4.99101 15.9405 4.86804 15.8823 4.74695C16.6661 5.09075 17.3285 5.5361 17.8756 6.0464C19.028 7.12129 19.7142 8.52625 19.9273 10H16.9785C16.9057 8.26084 16.6327 6.52071 16.0472 5.11538Z" fill="black"/>
</svg>
