<svg width="24" height="24" viewBox="0 0 24 24" fill="none" xmlns="http://www.w3.org/2000/svg">
<path d="M19.3072 14.2947C19.3072 14.3807 19.2988 14.4647 19.2826 14.546L21.1218 14.5462C21.4127 14.5462 21.6486 14.7798 21.6486 15.0679C21.6486 15.3552 21.4141 15.5883 21.1243 15.5896L22 17.7223C22.0003 19.087 19.3858 19.087 19.3851 17.7223L20.2608 15.5897L18.5268 15.5894V19.9565H19.4048C19.6957 19.9565 19.9316 20.1901 19.9316 20.4783C19.9316 20.7664 19.6957 21 19.4048 21H16.5952C16.3042 21 16.0684 20.7664 16.0684 20.4783C16.0684 20.1901 16.3042 19.9565 16.5952 19.9565H17.4732V15.5894L15.7392 15.5896L16.6149 17.7222C16.6152 19.087 14.0007 19.087 14 17.7222L14.8757 15.5896C14.5859 15.5883 14.3514 15.3552 14.3514 15.0679C14.3514 14.7798 14.5873 14.5462 14.8782 14.5462L16.7174 14.546C16.7012 14.4647 16.6927 14.3807 16.6927 14.2947C16.6927 13.5797 17.278 13 18 13C18.722 13 19.3072 13.5797 19.3072 14.2947Z" fill="black"/>
<path fill-rule="evenodd" clip-rule="evenodd" d="M12.9991 2C12.9991 1.44772 12.5514 1 11.9991 1C11.4468 1 10.9991 1.44772 10.9991 2V2.0357C8.37321 2.22642 6.2747 3.16953 4.75842 4.58388C3.06194 6.16632 2.15139 8.28646 2.01669 10.4378C1.9608 11.3306 2.68847 12 3.49912 12H7.99912H10.9991V20C10.9991 20.1748 10.9017 20.4332 10.667 20.6679C10.4324 20.9025 10.1739 21 9.99912 21C9.82435 21 9.56588 20.9025 9.33122 20.6679C9.09657 20.4332 8.99912 20.1748 8.99912 20C8.99912 19.4477 8.5514 19 7.99912 19C7.44683 19 6.99912 19.4477 6.99912 20C6.99912 20.8252 7.40166 21.5668 7.91701 22.0821C8.43235 22.5975 9.17388 23 9.99912 23C10.8243 23 11.5659 22.5975 12.0812 22.0821C12.5966 21.5668 12.9991 20.8252 12.9991 20V19.923C12.421 19.417 11.9998 18.6619 11.9993 17.7232L11.9991 17.328L12.5363 16.0199C12.4168 15.7273 12.3507 15.4062 12.3507 15.0679C12.3507 14.5417 12.5106 14.0572 12.7826 13.6565L12.8295 13.5898C12.8824 13.5171 12.939 13.4474 12.9991 13.3809V12H15.626C16.2299 11.3814 17.0741 11 17.9993 11C18.9245 11 19.7687 11.3814 20.3726 12H20.4991C21.3098 12 22.0374 11.3306 21.9815 10.4378C21.8468 8.28646 20.9363 6.16632 19.2398 4.58388C17.7235 3.16953 15.625 2.22642 12.9991 2.0357V2ZM6.12262 6.0464C6.66969 5.5361 7.33214 5.09075 8.11588 4.74696C8.05778 4.86804 8.00286 4.99101 7.95104 5.11538C7.36549 6.52071 7.09249 8.26084 7.0197 10H4.07096C4.28403 8.52625 4.97027 7.12129 6.12262 6.0464ZM11.9991 10H9.02165C9.09372 8.4324 9.34101 6.97947 9.79719 5.88462C10.3442 4.57182 11.0716 4 11.9991 4C12.9266 4 13.654 4.57182 14.201 5.88462C14.6572 6.97947 14.9045 8.4324 14.9766 10H11.9991ZM16.0472 5.11538C15.9954 4.99101 15.9405 4.86804 15.8823 4.74695C16.6661 5.09075 17.3285 5.5361 17.8756 6.0464C19.028 7.12129 19.7142 8.52625 19.9273 10H16.9785C16.9057 8.26084 16.6327 6.52071 16.0472 5.11538Z" fill="black"/>
</svg>
