<svg width="24" height="24" viewBox="0 0 24 24" fill="none" xmlns="http://www.w3.org/2000/svg">
<path fill-rule="evenodd" clip-rule="evenodd" d="M11.9991 2C11.9991 1.44772 11.5514 1 10.9991 1C10.4468 1 9.99912 1.44772 9.99912 2V2.0357C7.37321 2.22642 5.2747 3.16953 3.75842 4.58388C2.06194 6.16632 1.15139 8.28646 1.01669 10.4378C0.9608 11.3306 1.68847 12 2.49912 12H6.99912H9.99912V20C9.99912 20.1748 9.90166 20.4332 9.66701 20.6679C9.43235 20.9025 9.17388 21 8.99912 21C8.82435 21 8.56588 20.9025 8.33122 20.6679C8.09657 20.4332 7.99912 20.1748 7.99912 20C7.99912 19.4477 7.5514 19 6.99912 19C6.44683 19 5.99912 19.4477 5.99912 20C5.99912 20.8252 6.40166 21.5668 6.91701 22.0821C7.43235 22.5975 8.17388 23 8.99912 23C9.82435 23 10.5659 22.5975 11.0812 22.0821C11.5966 21.5668 11.9991 20.8252 11.9991 20V12H14.9991H19.4991C20.3098 12 21.0374 11.3306 20.9815 10.4378C20.8468 8.28646 19.9363 6.16632 18.2398 4.58388C16.7235 3.16953 14.625 2.22642 11.9991 2.0357V2ZM5.12262 6.0464C5.66969 5.5361 6.33214 5.09075 7.11588 4.74696C7.05778 4.86804 7.00286 4.99101 6.95104 5.11538C6.36549 6.52071 6.09249 8.26084 6.0197 10H3.07096C3.28403 8.52625 3.97027 7.12129 5.12262 6.0464ZM10.9991 10H8.02165C8.09372 8.4324 8.34101 6.97947 8.79719 5.88462C9.34419 4.57182 10.0716 4 10.9991 4C11.9266 4 12.654 4.57182 13.201 5.88462C13.6572 6.97947 13.9045 8.4324 13.9766 10H10.9991ZM15.0472 5.11538C14.9954 4.99101 14.9405 4.86804 14.8823 4.74695C15.6661 5.09075 16.3285 5.5361 16.8756 6.0464C18.028 7.12129 18.7142 8.52625 18.9273 10H15.9785C15.9057 8.26084 15.6327 6.52071 15.0472 5.11538ZM17.4732 13.9667L21.0947 17.5601C21.1332 17.5984 21.1954 17.5984 21.2339 17.5601L21.3748 17.4203C21.4896 17.3064 21.6747 17.3064 21.7895 17.4203C21.9055 17.5354 21.9055 17.723 21.7895 17.8381L19.4913 20.1185C19.3765 20.2324 19.1914 20.2324 19.0766 20.1185C18.9606 20.0034 18.9606 19.8158 19.0766 19.7007L19.2143 19.5641C19.2527 19.526 19.2527 19.464 19.2143 19.4259L18.2409 18.46C18.1629 18.3826 18.0371 18.3826 17.9592 18.46L14.7439 21.6504C14.5489 21.8439 14.2343 21.8438 14.0394 21.6502L13.3574 20.9729C13.1604 20.7773 13.1605 20.4587 13.3575 20.2632L16.5653 17.0802C16.6442 17.002 16.6441 16.8744 16.5652 16.7962L15.5929 15.8324C15.5544 15.7942 15.4922 15.7942 15.4537 15.8325L15.3469 15.9384C15.2132 16.071 14.9976 16.071 14.8639 15.9384C14.7288 15.8043 14.7288 15.5857 14.8639 15.4516L17.0932 13.2396C17.2268 13.107 17.4425 13.107 17.5762 13.2396C17.7113 13.3737 17.7113 13.5923 17.5762 13.7264L17.4732 13.8285C17.4349 13.8666 17.4349 13.9286 17.4732 13.9667Z" fill="black"/>
</svg>
