<svg width="24" height="24" viewBox="0 0 24 24" fill="none" xmlns="http://www.w3.org/2000/svg">
<path fill-rule="evenodd" clip-rule="evenodd" d="M3 6C3 3.79086 4.79086 2 7 2H17C19.2091 2 21 3.79086 21 6V13.5278C20.4229 13.0113 19.7452 12.6048 19 12.3414V6C19 4.89543 18.1046 4 17 4H7C5.89543 4 5 4.89543 5 6V17C5 18.1046 5.89543 19 7 19H11.083C11.2034 19.7179 11.4513 20.3926 11.8027 21H7C4.79086 21 3 19.2091 3 17V6ZM7 7C7 6.44772 7.44772 6 8 6H16C16.5523 6 17 6.44772 17 7C17 7.55228 16.5523 8 16 8H8C7.44772 8 7 7.55228 7 7ZM7 11C7 10.4477 7.44772 10 8 10H15C15.5523 10 16 10.4477 16 11C16 11.5523 15.5523 12 15 12H8C7.44772 12 7 11.5523 7 11ZM21 18C21 20.2091 19.2091 22 17 22C14.7909 22 13 20.2091 13 18C13 15.7909 14.7909 14 17 14C19.2091 14 21 15.7909 21 18ZM16.5 15.9545C16.5 15.7035 16.7238 15.5 17 15.5H17.0025C17.2786 15.5 17.5025 15.7035 17.5025 15.9545C17.5025 16.1545 17.3605 16.3243 17.1632 16.3851L17.716 17.0738C17.7244 17.0846 17.7372 17.0909 17.7506 17.0909H18.5157C18.5054 17.0546 18.5 17.0165 18.5 16.9773C18.5 16.7262 18.7238 16.5227 19 16.5227H19C19.2761 16.5227 19.5 16.7262 19.5 16.9773C19.5 17.2283 19.2761 17.4318 19 17.4318H19C18.862 17.4318 18.737 17.381 18.6465 17.2988L18.1748 17.9735C18.1637 17.9893 18.1637 18.0106 18.1748 18.0265L18.6466 18.7012C18.737 18.619 18.862 18.5682 19 18.5682H19C19.2761 18.5682 19.5 18.7717 19.5 19.0227C19.5 19.2738 19.2761 19.4773 19 19.4773H19C18.7238 19.4773 18.5 19.2738 18.5 19.0227C18.5 18.9835 18.5055 18.9454 18.5157 18.9091H17.7506C17.7372 18.9091 17.7244 18.9154 17.716 18.9261L17.1632 19.6149C17.3605 19.6757 17.5025 19.8455 17.5025 20.0455C17.5025 20.2965 17.2786 20.5 17.0025 20.5H17C16.7238 20.5 16.5 20.2965 16.5 20.0455C16.5 19.8436 16.6447 19.6725 16.845 19.6132L16.3275 18.9288C16.3181 18.9165 16.3027 18.9091 16.2863 18.9091H15.4868C15.497 18.9454 15.5025 18.9835 15.5025 19.0227C15.5025 19.2738 15.2786 19.4773 15.0025 19.4773H15C14.7239 19.4773 14.5 19.2738 14.5 19.0227C14.5 18.7717 14.7239 18.5682 15 18.5682H15.0025C15.1529 18.5682 15.2877 18.6285 15.3794 18.724L15.8686 18.0244C15.879 18.0095 15.879 17.9905 15.8686 17.9756L15.3794 17.276C15.2877 17.3715 15.1529 17.4318 15.0025 17.4318H15C14.7239 17.4318 14.5 17.2283 14.5 16.9773C14.5 16.7262 14.7239 16.5227 15 16.5227H15.0025C15.2786 16.5227 15.5025 16.7262 15.5025 16.9773C15.5025 17.0165 15.497 17.0546 15.4867 17.0909H16.2863C16.3027 17.0909 16.3181 17.0835 16.3275 17.0712L16.845 16.3868C16.6447 16.3275 16.5 16.1564 16.5 15.9545Z" fill="black"/>
</svg>
