<svg width="24" height="24" viewBox="0 0 24 24" fill="none" xmlns="http://www.w3.org/2000/svg">
<path fill-rule="evenodd" clip-rule="evenodd" d="M3 6C3 3.79086 4.79086 2 7 2H17C19.2091 2 21 3.79086 21 6V13.5278C20.4229 13.0113 19.7452 12.6048 19 12.3414V6C19 4.89543 18.1046 4 17 4H7C5.89543 4 5 4.89543 5 6V17C5 18.1046 5.89543 19 7 19H11.083C11.2034 19.7179 11.4513 20.3926 11.8027 21H7C4.79086 21 3 19.2091 3 17V6ZM7 7C7 6.44772 7.44772 6 8 6H16C16.5523 6 17 6.44772 17 7C17 7.55228 16.5523 8 16 8H8C7.44772 8 7 7.55228 7 7ZM7 11C7 10.4477 7.44772 10 8 10H15C15.5523 10 16 10.4477 16 11C16 11.5523 15.5523 12 15 12H8C7.44772 12 7 11.5523 7 11ZM21 18C21 20.2091 19.2091 22 17 22C14.7909 22 13 20.2091 13 18C13 15.7909 14.7909 14 17 14C19.2091 14 21 15.7909 21 18ZM16.1111 16.6389V16.7046C16.1111 17.0998 16.2031 17.4896 16.3799 17.8431L16.4776 18.0385C16.5289 18.1411 16.5556 18.2541 16.5556 18.3688C16.5556 18.6407 16.3351 18.8611 16.0632 18.8611H15.5926C15.2653 18.8611 15 19.1264 15 19.4537C15 19.6173 15.1327 19.75 15.2963 19.75H18.7037C18.8673 19.75 19 19.6173 19 19.4537C19 19.1264 18.7347 18.8611 18.4074 18.8611H17.9368C17.6649 18.8611 17.4444 18.6407 17.4444 18.3688C17.4444 18.2541 17.4711 18.1411 17.5224 18.0385L17.6201 17.8431C17.7969 17.4896 17.8889 17.0998 17.8889 16.7046V16.6389C17.8889 16.148 17.4909 15.75 17 15.75C16.5091 15.75 16.1111 16.148 16.1111 16.6389Z" fill="black"/>
</svg>
