<svg width="24" height="24" viewBox="0 0 24 24" fill="none" xmlns="http://www.w3.org/2000/svg">
<path fill-rule="evenodd" clip-rule="evenodd" d="M3 6C3 3.79086 4.79086 2 7 2H17C19.2091 2 21 3.79086 21 6V13.5278C20.4229 13.0113 19.7452 12.6048 19 12.3414V6C19 4.89543 18.1046 4 17 4H7C5.89543 4 5 4.89543 5 6V17C5 18.1046 5.89543 19 7 19H11.083C11.2034 19.7179 11.4513 20.3926 11.8027 21H7C4.79086 21 3 19.2091 3 17V6ZM7 7C7 6.44772 7.44772 6 8 6H16C16.5523 6 17 6.44772 17 7C17 7.55228 16.5523 8 16 8H8C7.44772 8 7 7.55228 7 7ZM7 11C7 10.4477 7.44772 10 8 10H15C15.5523 10 16 10.4477 16 11C16 11.5523 15.5523 12 15 12H8C7.44772 12 7 11.5523 7 11ZM21 18C21 20.2091 19.2091 22 17 22C14.7909 22 13 20.2091 13 18C13 15.7909 14.7909 14 17 14C19.2091 14 21 15.7909 21 18ZM17.817 16.3092C17.817 16.3629 17.8117 16.4155 17.8016 16.4663L18.9511 16.4664C19.1329 16.4664 19.2803 16.6124 19.2803 16.7924C19.2803 16.972 19.1338 17.1177 18.9527 17.1185L19.5 18.4514C19.5002 19.3044 17.8661 19.3044 17.8657 18.4514L18.413 17.1186L17.3292 17.1184V19.8478H17.878C18.0598 19.8478 18.2072 19.9938 18.2072 20.1739C18.2072 20.354 18.0598 20.5 17.878 20.5H16.122C15.9402 20.5 15.7927 20.354 15.7927 20.1739C15.7927 19.9938 15.9402 19.8478 16.122 19.8478H16.6707V17.1184L15.587 17.1185L16.1343 18.4514C16.1345 19.3043 14.5004 19.3043 14.5 18.4514L15.0473 17.1185C14.8662 17.1177 14.7196 16.972 14.7196 16.7924C14.7196 16.6124 14.867 16.4664 15.0489 16.4664L16.1983 16.4663C16.1883 16.4155 16.183 16.3629 16.183 16.3092C16.183 15.8623 16.5488 15.5 17 15.5C17.4512 15.5 17.817 15.8623 17.817 16.3092Z" fill="black"/>
</svg>
