<svg width="24" height="24" viewBox="0 0 24 24" fill="none" xmlns="http://www.w3.org/2000/svg">
<path fill-rule="evenodd" clip-rule="evenodd" d="M3 6C3 3.79086 4.79086 2 7 2H17C19.2091 2 21 3.79086 21 6V13.5278C20.4229 13.0113 19.7452 12.6048 19 12.3414V6C19 4.89543 18.1046 4 17 4H7C5.89543 4 5 4.89543 5 6V17C5 18.1046 5.89543 19 7 19H11.083C11.2034 19.7179 11.4513 20.3926 11.8027 21H7C4.79086 21 3 19.2091 3 17V6ZM7 7C7 6.44772 7.44772 6 8 6H16C16.5523 6 17 6.44772 17 7C17 7.55228 16.5523 8 16 8H8C7.44772 8 7 7.55228 7 7ZM7 11C7 10.4477 7.44772 10 8 10H15C15.5523 10 16 10.4477 16 11C16 11.5523 15.5523 12 15 12H8C7.44772 12 7 11.5523 7 11ZM21 18C21 20.2091 19.2091 22 17 22C14.7909 22 13 20.2091 13 18C13 15.7909 14.7909 14 17 14C19.2091 14 21 15.7909 21 18ZM19.247 17.7834L17.2351 15.7871C17.2138 15.7659 17.2138 15.7314 17.2351 15.7103L17.2923 15.6536C17.3674 15.5791 17.3674 15.4576 17.2923 15.3831C17.2181 15.3094 17.0982 15.3094 17.024 15.3831L15.7855 16.612C15.7104 16.6865 15.7104 16.8079 15.7855 16.8824C15.8598 16.9561 15.9796 16.9561 16.0538 16.8824L16.1131 16.8236C16.1346 16.8024 16.1691 16.8023 16.1905 16.8236L16.667 17.2959C16.7459 17.3741 16.746 17.5017 16.6671 17.5799L15.1075 19.1274C14.9105 19.3229 14.9104 19.6415 15.1074 19.8371L15.1709 19.9002C15.3658 20.0938 15.6804 20.0939 15.8754 19.9004L17.4425 18.3455C17.5205 18.2681 17.6462 18.2681 17.7242 18.3455L18.2024 18.8199C18.2237 18.8411 18.2237 18.8756 18.2024 18.8967L18.1259 18.9726C18.0615 19.0366 18.0615 19.1408 18.1259 19.2047C18.1897 19.268 18.2925 19.268 18.3563 19.2047L19.633 17.9378C19.6975 17.8739 19.6975 17.7697 19.633 17.7057C19.5693 17.6425 19.4664 17.6425 19.4027 17.7057L19.3244 17.7834C19.303 17.8046 19.2684 17.8046 19.247 17.7834Z" fill="black"/>
</svg>
