<svg width="24" height="24" viewBox="0 0 24 24" fill="none" xmlns="http://www.w3.org/2000/svg">
<path fill-rule="evenodd" clip-rule="evenodd" d="M3 5C3 2.79086 4.79086 1 7 1H11.3431C12.6692 1 13.941 1.52678 14.8787 2.46447L19.5355 7.12132C20.4732 8.059 21 9.33077 21 10.6569V19C21 21.2091 19.2091 23 17 23H7C4.79086 23 3 21.2091 3 19V5ZM7 3C5.89543 3 5 3.89543 5 5V19C5 20.1046 5.89543 21 7 21H17C18.1046 21 19 20.1046 19 19V10.6569C19 10.0632 18.824 9.48765 18.501 9H15C13.8954 9 13 8.10457 13 7V3.49902C12.5123 3.17597 11.9368 3 11.3431 3H7ZM10.2222 12.3333V13.2718C10.2222 13.8237 10.3507 14.3681 10.5976 14.8619L10.9703 15.6074C11.0629 15.7925 11.1111 15.9967 11.1111 16.2036V16.3333C11.1111 16.8243 10.7131 17.2222 10.2222 17.2222H9.18518C8.53062 17.2222 8 17.7528 8 18.4074C8 18.7347 8.26531 19 8.59259 19H15.4074C15.7347 19 16 18.7347 16 18.4074C16 17.7528 15.4694 17.2222 14.8148 17.2222H13.7778C13.2869 17.2222 12.8889 16.8243 12.8889 16.3333V16.2036C12.8889 15.9967 12.9371 15.7925 13.0297 15.6074L13.4024 14.8619C13.6493 14.3681 13.7778 13.8237 13.7778 13.2718V12.3333C13.7778 11.597 13.1808 11 12.4444 11H11.5556C10.8192 11 10.2222 11.597 10.2222 12.3333Z" fill="black"/>
</svg>
