<svg width="24" height="24" viewBox="0 0 24 24" fill="none" xmlns="http://www.w3.org/2000/svg">
<path fill-rule="evenodd" clip-rule="evenodd" d="M3 5C3 2.79086 4.79086 1 7 1H10.3431C11.6692 1 12.941 1.52678 13.8787 2.46447L17.5355 6.12132C18.4732 7.059 19 8.33077 19 9.65685V12.3414C18.3744 12.1203 17.7013 12 17 12V9.65685C17 9.06318 16.824 8.48765 16.501 8H14C12.8954 8 12 7.10457 12 6V3.49902C11.5123 3.17597 10.9368 3 10.3431 3H7C5.89543 3 5 3.89543 5 5V17C5 18.1046 5.89543 19 7 19H11.083C11.2034 19.7179 11.4513 20.3926 11.8027 21H7C4.79086 21 3 19.2091 3 17V5ZM15.4444 15.3333V15.8829C15.4444 16.4349 15.573 16.9793 15.8198 17.473L16.0858 18.0049C16.1755 18.1844 16.2222 18.3822 16.2222 18.5829C16.2222 19.0587 15.8365 19.4444 15.3606 19.4444H14.537C13.9643 19.4444 13.5 19.9087 13.5 20.4815C13.5 20.7679 13.7321 21 14.0185 21H19.9815C20.2679 21 20.5 20.7679 20.5 20.4815C20.5 19.9087 20.0357 19.4444 19.463 19.4444H18.6394C18.1635 19.4444 17.7778 19.0587 17.7778 18.5829C17.7778 18.3822 17.8245 18.1844 17.9142 18.0049L18.1802 17.473C18.427 16.9793 18.5556 16.4349 18.5556 15.8829V15.3333C18.5556 14.597 17.9586 14 17.2222 14H16.7778C16.0414 14 15.4444 14.597 15.4444 15.3333Z" fill="black"/>
</svg>
