<svg width="24" height="24" viewBox="0 0 24 24" fill="none" xmlns="http://www.w3.org/2000/svg">
<path fill-rule="evenodd" clip-rule="evenodd" d="M7 1C4.79086 1 3 2.79086 3 5V17C3 19.2091 4.79086 21 7 21H11.8027C11.4513 20.3926 11.2034 19.7179 11.083 19H7C5.89543 19 5 18.1046 5 17V5C5 3.89543 5.89543 3 7 3H10.3431C10.9368 3 11.5123 3.17597 12 3.49902V6C12 7.10457 12.8954 8 14 8H16.501C16.824 8.48765 17 9.06318 17 9.65685V12C17.7013 12 18.3744 12.1203 19 12.3414V9.65685C19 8.33077 18.4732 7.059 17.5355 6.12132L13.8787 2.46447C12.941 1.52678 11.6692 1 10.3431 1H7ZM21 18C21 20.2091 19.2091 22 17 22C14.7909 22 13 20.2091 13 18C13 15.7909 14.7909 14 17 14C19.2091 14 21 15.7909 21 18ZM16.2793 16.1228C16.2793 15.7362 16.5927 15.4229 16.9793 15.4229H16.9824C17.369 15.4229 17.6824 15.7362 17.6824 16.1228C17.6824 16.3853 17.5379 16.6141 17.3241 16.7339L17.6254 17.0952C17.633 17.1045 17.6445 17.11 17.6567 17.11H18.0637C18.059 17.0775 18.0566 17.0443 18.0566 17.0105C18.0566 16.6239 18.37 16.3105 18.7566 16.3105H18.7567C19.1433 16.3105 19.4567 16.6239 19.4567 17.0105C19.4567 17.3971 19.1433 17.7105 18.7567 17.7105H18.7566C18.5773 17.7105 18.4138 17.6431 18.2899 17.5322L18.0396 17.8769C18.0296 17.8906 18.0296 17.9092 18.0396 17.9229L18.2897 18.2673C18.4136 18.1563 18.5772 18.0889 18.7566 18.0889H18.7567C19.1433 18.0889 19.4567 18.4023 19.4567 18.7889C19.4567 19.1755 19.1433 19.4889 18.7567 19.4889H18.7566C18.37 19.4889 18.0566 19.1755 18.0566 18.7889C18.0566 18.7552 18.059 18.7222 18.0636 18.6898H17.6567C17.6445 18.6898 17.633 18.6953 17.6254 18.7046L17.3238 19.0663C17.5378 19.1861 17.6824 19.4149 17.6824 19.6775C17.6824 20.0641 17.369 20.3775 16.9824 20.3775H16.9793C16.5927 20.3775 16.2793 20.0641 16.2793 19.6775C16.2793 19.4103 16.4291 19.178 16.6493 19.0601L16.3771 18.7136C16.3653 18.6986 16.3473 18.6898 16.3282 18.6898H15.8961C15.9007 18.7222 15.9031 18.7552 15.9031 18.7889C15.9031 19.1755 15.5897 19.4889 15.2031 19.4889H15.2C14.8134 19.4889 14.5 19.1755 14.5 18.7889C14.5 18.4023 14.8134 18.0889 15.2 18.0889H15.2031C15.3931 18.0889 15.5654 18.1646 15.6915 18.2874L15.9465 17.9365C15.9623 17.9147 15.9623 17.8852 15.9465 17.8634L15.6913 17.5121C15.5652 17.6349 15.393 17.7105 15.2031 17.7105H15.2C14.8134 17.7105 14.5 17.3971 14.5 17.0105C14.5 16.6239 14.8134 16.3105 15.2 16.3105H15.2031C15.5897 16.3105 15.9031 16.6239 15.9031 17.0105C15.9031 17.0443 15.9007 17.0775 15.8961 17.11H16.3282C16.3473 17.11 16.3653 17.1013 16.3771 17.0862L16.649 16.7402C16.429 16.6222 16.2793 16.39 16.2793 16.1228Z" fill="black"/>
</svg>
