<svg width="24" height="24" viewBox="0 0 24 24" fill="none" xmlns="http://www.w3.org/2000/svg">
<path fill-rule="evenodd" clip-rule="evenodd" d="M7 1C4.79086 1 3 2.79086 3 5V17C3 19.2091 4.79086 21 7 21H11.8027C11.4513 20.3926 11.2034 19.7179 11.083 19H7C5.89543 19 5 18.1046 5 17V5C5 3.89543 5.89543 3 7 3H10.3431C10.9368 3 11.5123 3.17597 12 3.49902V6C12 7.10457 12.8954 8 14 8H16.501C16.824 8.48765 17 9.06318 17 9.65685V12C17.7013 12 18.3744 12.1203 19 12.3414V9.65685C19 8.33077 18.4732 7.059 17.5355 6.12132L13.8787 2.46447C12.941 1.52678 11.6692 1 10.3431 1H7ZM21 18C21 20.2091 19.2091 22 17 22C14.7909 22 13 20.2091 13 18C13 15.7909 14.7909 14 17 14C19.2091 14 21 15.7909 21 18ZM17.817 16.317C17.817 16.3713 17.8117 16.4243 17.8016 16.4757L18.9511 16.4757C19.1329 16.4757 19.2803 16.6231 19.2803 16.805C19.2803 16.9863 19.1338 17.1334 18.9527 17.1342L19.5 18.48C19.5002 19.3413 17.8661 19.3413 17.8657 18.48L18.413 17.1343L17.3292 17.1341V19.89H17.878C18.0598 19.89 18.2072 20.0374 18.2072 20.2192C18.2072 20.4011 18.0598 20.5485 17.878 20.5485H16.122C15.9402 20.5485 15.7927 20.4011 15.7927 20.2192C15.7927 20.0374 15.9402 19.89 16.122 19.89H16.6707V17.1341L15.587 17.1342L16.1343 18.48C16.1345 19.3412 14.5004 19.3412 14.5 18.48L15.0473 17.1342C14.8662 17.1334 14.7196 16.9863 14.7196 16.805C14.7196 16.6231 14.867 16.4757 15.0489 16.4757L16.1983 16.4757C16.1883 16.4243 16.183 16.3713 16.183 16.317C16.183 15.8658 16.5488 15.5 17 15.5C17.4512 15.5 17.817 15.8658 17.817 16.317Z" fill="black"/>
</svg>
