<svg width="24" height="24" viewBox="0 0 24 24" fill="none" xmlns="http://www.w3.org/2000/svg">
<path fill-rule="evenodd" clip-rule="evenodd" d="M7 1C4.79086 1 3 2.79086 3 5V17C3 19.2091 4.79086 21 7 21H11.8027C11.4513 20.3926 11.2034 19.7179 11.083 19H7C5.89543 19 5 18.1046 5 17V5C5 3.89543 5.89543 3 7 3H10.3431C10.9368 3 11.5123 3.17597 12 3.49902V6C12 7.10457 12.8954 8 14 8H16.501C16.824 8.48765 17 9.06318 17 9.65685V12C17.7013 12 18.3744 12.1203 19 12.3414V9.65685C19 8.33077 18.4732 7.059 17.5355 6.12132L13.8787 2.46447C12.941 1.52678 11.6692 1 10.3431 1H7ZM21 18C21 20.2091 19.2091 22 17 22C14.7909 22 13 20.2091 13 18C13 15.7909 14.7909 14 17 14C19.2091 14 21 15.7909 21 18ZM15.8889 16.1111V16.1933C15.8889 16.6873 16.0039 17.1745 16.2248 17.6163L16.347 17.8606C16.4111 17.9888 16.4444 18.1302 16.4444 18.2735C16.4444 18.6134 16.1689 18.8889 15.829 18.8889H15.2407C14.8316 18.8889 14.5 19.2205 14.5 19.6296C14.5 19.8342 14.6658 20 14.8704 20H19.1296C19.3342 20 19.5 19.8342 19.5 19.6296C19.5 19.2205 19.1684 18.8889 18.7593 18.8889H18.171C17.8311 18.8889 17.5556 18.6134 17.5556 18.2735C17.5556 18.1302 17.5889 17.9888 17.653 17.8606L17.7752 17.6163C17.9961 17.1745 18.1111 16.6873 18.1111 16.1933V16.1111C18.1111 15.4975 17.6136 15 17 15C16.3864 15 15.8889 15.4975 15.8889 16.1111Z" fill="black"/>
</svg>
