<svg width="24" height="24" viewBox="0 0 24 24" fill="none" xmlns="http://www.w3.org/2000/svg">
<path fill-rule="evenodd" clip-rule="evenodd" d="M2 5C2 2.79086 3.79086 1 6 1H9.34315C10.6692 1 11.941 1.52678 12.8787 2.46447L16.5355 6.12132C17.4732 7.059 18 8.33077 18 9.65685V12.083C17.6748 12.0284 17.3407 12 17 12C16.6593 12 16.3252 12.0284 16 12.083V9.65685C16 9.06318 15.824 8.48765 15.501 8H13C11.8954 8 11 7.10457 11 6V3.49902C10.5123 3.17597 9.93682 3 9.34315 3H6C4.89543 3 4 3.89543 4 5V17C4 18.1046 4.89543 19 6 19H11.083C11.2034 19.7179 11.4513 20.3926 11.8027 21H6C3.79086 21 2 19.2091 2 17V5ZM18.6438 16.1438C18.6438 16.2198 18.6364 16.2941 18.6223 16.3659L20.2315 16.366C20.4861 16.366 20.6925 16.5724 20.6925 16.827C20.6925 17.0808 20.4873 17.2867 20.2337 17.2879L21 19.1721C21.0003 20.3778 18.7126 20.3778 18.712 19.1721L19.4782 17.288L17.9609 17.2877V21.146H18.7292C18.9838 21.146 19.1901 21.3524 19.1901 21.6069C19.1901 21.8615 18.9838 22.0679 18.7292 22.0679H16.2708C16.0162 22.0679 15.8098 21.8615 15.8098 21.6069C15.8098 21.3524 16.0162 21.146 16.2708 21.146H17.039V17.2877L15.5218 17.2878L16.288 19.172C16.2883 20.3777 14.0006 20.3777 14 19.172L14.7662 17.2879C14.5127 17.2867 14.3075 17.0808 14.3075 16.827C14.3075 16.5724 14.5139 16.366 14.7684 16.366L16.3777 16.3659C16.3636 16.2941 16.3561 16.2198 16.3561 16.1438C16.3561 15.5121 16.8683 15 17.5 15C18.1317 15 18.6438 15.5121 18.6438 16.1438Z" fill="black"/>
</svg>
