<svg width="24" height="24" viewBox="0 0 24 24" fill="none" xmlns="http://www.w3.org/2000/svg">
<path d="M11.3431 2H7C5.34315 2 4 3.34315 4 5V19C4 20.6569 5.34315 22 7 22H17C18.6569 22 20 20.6569 20 19V10.6569C20 9.59599 19.5786 8.57857 18.8284 7.82843L14.1716 3.17157C13.4214 2.42143 12.404 2 11.3431 2Z" stroke="black" stroke-width="2" stroke-linecap="round" stroke-linejoin="round"/>
<path d="M20 9L13 2V7C13 8.10457 13.8954 9 15 9H20Z" fill="black"/>
<path fill-rule="evenodd" clip-rule="evenodd" d="M11.3 11.7C11.3 11.3134 11.6134 11 12 11H12.0035C12.3901 11 12.7035 11.3134 12.7035 11.7C12.7035 12.0079 12.5047 12.2694 12.2284 12.3631L13.0025 13.4237C13.0142 13.4403 13.032 13.4499 13.0509 13.4499H14.122C14.1076 13.394 14.1 13.3354 14.1 13.275C14.1 12.8884 14.4134 12.575 14.8 12.575H14.8C15.1866 12.575 15.5 12.8884 15.5 13.275C15.5 13.6616 15.1866 13.975 14.8 13.975H14.8C14.6067 13.975 14.4318 13.8967 14.3052 13.7701L13.6447 14.8091C13.6292 14.8335 13.6292 14.8664 13.6447 14.8908L14.3052 15.9298C14.4318 15.8032 14.6068 15.725 14.8 15.725H14.8C15.1866 15.725 15.5 16.0384 15.5 16.425C15.5 16.8116 15.1866 17.125 14.8 17.125H14.8C14.4134 17.125 14.1 16.8116 14.1 16.425C14.1 16.3645 14.1076 16.3059 14.122 16.25L13.0509 16.25C13.032 16.25 13.0142 16.2596 13.0025 16.2762L12.2285 17.3369C12.5047 17.4306 12.7035 17.6921 12.7035 18C12.7035 18.3866 12.3901 18.7 12.0035 18.7H12C11.6134 18.7 11.3 18.3866 11.3 18C11.3 17.6891 11.5026 17.4256 11.7829 17.3343L11.0585 16.2804C11.0454 16.2614 11.0238 16.25 11.0008 16.25L9.88145 16.25C9.89584 16.3059 9.90349 16.3646 9.90349 16.425C9.90349 16.8116 9.59009 17.125 9.2035 17.125H9.2C8.8134 17.125 8.5 16.8116 8.5 16.425C8.5 16.0384 8.8134 15.725 9.2 15.725H9.2035C9.41402 15.725 9.60285 15.8179 9.73117 15.965L10.4161 14.8876C10.4306 14.8646 10.4306 14.8354 10.4161 14.8125L9.73115 13.735C9.60283 13.8821 9.41401 13.975 9.2035 13.975H9.2C8.8134 13.975 8.5 13.6616 8.5 13.275C8.5 12.8884 8.8134 12.575 9.2 12.575H9.2035C9.59009 12.575 9.90349 12.8884 9.90349 13.275C9.90349 13.3354 9.89584 13.3941 9.88144 13.45H11.0008C11.0238 13.45 11.0454 13.4386 11.0585 13.4197L11.783 12.3657C11.5026 12.2744 11.3 12.0108 11.3 11.7Z" fill="black"/>
</svg>
