<svg width="24" height="24" viewBox="0 0 24 24" fill="none" xmlns="http://www.w3.org/2000/svg">
<path fill-rule="evenodd" clip-rule="evenodd" d="M3 5C3 2.79086 4.79086 1 7 1H11.3431C12.6692 1 13.941 1.52678 14.8787 2.46447L19.5355 7.12132C20.4732 8.059 21 9.33077 21 10.6569V19C21 21.2091 19.2091 23 17 23H7C4.79086 23 3 21.2091 3 19V5ZM7 3C5.89543 3 5 3.89543 5 5V19C5 20.1046 5.89543 21 7 21H17C18.1046 21 19 20.1046 19 19V10.6569C19 10.0632 18.824 9.48765 18.501 9H15C13.8954 9 13 8.10457 13 7V3.49902C12.5123 3.17597 11.9368 3 11.3431 3H7ZM13.2319 12.546C13.2479 12.4647 13.2562 12.3807 13.2562 12.2947C13.2562 11.5797 12.6766 11 11.9616 11C11.2465 11 10.6669 11.5797 10.6669 12.2947C10.6669 12.3807 10.6753 12.4647 10.6913 12.546L8.86977 12.5462C8.58162 12.5462 8.34803 12.7798 8.34803 13.0679C8.34803 13.3552 8.58029 13.5883 8.86729 13.5896L8 15.7222C8.00067 17.087 10.5901 17.087 10.5898 15.7222L9.72246 13.5896L11.4398 13.5894V17.9565H10.5703C10.2821 17.9565 10.0485 18.1901 10.0485 18.4783C10.0485 18.7664 10.2821 19 10.5703 19H13.3529C13.641 19 13.8746 18.7664 13.8746 18.4783C13.8746 18.1901 13.641 17.9565 13.3529 17.9565H12.4833V13.5894L14.2007 13.5897L13.3334 15.7223C13.334 17.087 15.9234 17.087 15.9232 15.7223L15.0558 13.5896C15.3428 13.5883 15.5751 13.3552 15.5751 13.0679C15.5751 12.7798 15.3415 12.5462 15.0533 12.5462L13.2319 12.546Z" fill="black"/>
</svg>
