<svg width="24" height="24" viewBox="0 0 24 24" fill="none" xmlns="http://www.w3.org/2000/svg">
<path fill-rule="evenodd" clip-rule="evenodd" d="M3 5C3 2.79086 4.79086 1 7 1H10.3431C11.6692 1 12.941 1.52678 13.8787 2.46447L17.5355 6.12132C18.4732 7.059 19 8.33077 19 9.65685V13.207C18.5232 13.0722 18.02 13 17.5 13C17.3315 13 17.1647 13.0076 17 13.0224V9.65685C17 9.06318 16.824 8.48765 16.501 8H14C12.8954 8 12 7.10457 12 6V3.49902C11.5123 3.17597 10.9368 3 10.3431 3H7C5.89543 3 5 3.89543 5 5V17C5 18.1046 5.89543 19 7 19H12.0224C12.0868 19.7149 12.2881 20.3904 12.5997 21H7C4.79086 21 3 19.2091 3 17V5ZM16.8 15.2C16.8 14.8134 17.1134 14.5 17.5 14.5H17.5035C17.8901 14.5 18.2035 14.8134 18.2035 15.2C18.2035 15.5079 18.0047 15.7694 17.7284 15.8631L18.5025 16.9237C18.5142 16.9403 18.532 16.9499 18.5509 16.9499H19.622C19.6076 16.894 19.6 16.8354 19.6 16.775C19.6 16.3884 19.9134 16.075 20.3 16.075H20.3C20.6866 16.075 21 16.3884 21 16.775C21 17.1616 20.6866 17.475 20.3 17.475H20.3C20.1068 17.475 19.9318 17.3967 19.8052 17.2701L19.1447 18.3091C19.1292 18.3335 19.1292 18.3664 19.1447 18.3908L19.8052 19.4298C19.9318 19.3032 20.1068 19.225 20.3 19.225H20.3C20.6866 19.225 21 19.5384 21 19.925C21 20.3116 20.6866 20.625 20.3 20.625H20.3C19.9134 20.625 19.6 20.3116 19.6 19.925C19.6 19.8645 19.6076 19.8059 19.622 19.75H18.5509C18.532 19.75 18.5142 19.7596 18.5025 19.7762L17.7285 20.8369C18.0047 20.9306 18.2035 21.1921 18.2035 21.5C18.2035 21.8866 17.8901 22.2 17.5035 22.2H17.5C17.1134 22.2 16.8 21.8866 16.8 21.5C16.8 21.1891 17.0026 20.9256 17.2829 20.8343L16.5585 19.7804C16.5454 19.7614 16.5238 19.75 16.5008 19.75L15.3815 19.75C15.3958 19.8059 15.4035 19.8646 15.4035 19.925C15.4035 20.3116 15.0901 20.625 14.7035 20.625H14.7C14.3134 20.625 14 20.3116 14 19.925C14 19.5384 14.3134 19.225 14.7 19.225H14.7035C14.914 19.225 15.1028 19.3179 15.2312 19.465L15.9161 18.3876C15.9306 18.3646 15.9306 18.3354 15.9161 18.3125L15.2311 17.235C15.1028 17.3821 14.914 17.475 14.7035 17.475H14.7C14.3134 17.475 14 17.1616 14 16.775C14 16.3884 14.3134 16.075 14.7 16.075H14.7035C15.0901 16.075 15.4035 16.3884 15.4035 16.775C15.4035 16.8354 15.3958 16.8941 15.3814 16.95H16.5008C16.5238 16.95 16.5454 16.9386 16.5585 16.9197L17.283 15.8657C17.0026 15.7744 16.8 15.5108 16.8 15.2Z" fill="black"/>
</svg>
