<svg width="24" height="24" viewBox="0 0 24 24" fill="none" xmlns="http://www.w3.org/2000/svg">
<path fill-rule="evenodd" clip-rule="evenodd" d="M7 1C4.79086 1 3 2.79086 3 5V17C3 19.2091 4.79086 21 7 21H11.8027C11.4513 20.3926 11.2034 19.7179 11.083 19H7C5.89543 19 5 18.1046 5 17V5C5 3.89543 5.89543 3 7 3H10.3431C10.9368 3 11.5123 3.17597 12 3.49902V6C12 7.10457 12.8954 8 14 8H16.501C16.824 8.48765 17 9.06318 17 9.65685V12C17.7013 12 18.3744 12.1203 19 12.3414V9.65685C19 8.33077 18.4732 7.059 17.5355 6.12132L13.8787 2.46447C12.941 1.52678 11.6692 1 10.3431 1H7ZM21 18C21 20.2091 19.2091 22 17 22C14.7909 22 13 20.2091 13 18C13 15.7909 14.7909 14 17 14C19.2091 14 21 15.7909 21 18ZM19.247 17.7834L17.2351 15.7871C17.2138 15.7659 17.2138 15.7314 17.2351 15.7103L17.2923 15.6536C17.3674 15.5791 17.3674 15.4576 17.2923 15.3831C17.2181 15.3094 17.0982 15.3094 17.024 15.3831L15.7855 16.612C15.7104 16.6865 15.7104 16.8079 15.7855 16.8824C15.8598 16.9561 15.9796 16.9561 16.0538 16.8824L16.1131 16.8236C16.1346 16.8024 16.1691 16.8023 16.1905 16.8236L16.667 17.2959C16.7459 17.3741 16.746 17.5017 16.6671 17.5799L15.1075 19.1274C14.9105 19.3229 14.9104 19.6415 15.1074 19.8371L15.1709 19.9002C15.3658 20.0938 15.6804 20.0939 15.8754 19.9004L17.4425 18.3455C17.5205 18.2681 17.6462 18.2681 17.7242 18.3455L18.2024 18.8199C18.2237 18.8411 18.2237 18.8756 18.2024 18.8967L18.1259 18.9726C18.0615 19.0366 18.0615 19.1408 18.1259 19.2047C18.1897 19.268 18.2925 19.268 18.3563 19.2047L19.633 17.9378C19.6975 17.8739 19.6975 17.7697 19.633 17.7057C19.5693 17.6425 19.4664 17.6425 19.4027 17.7057L19.3244 17.7834C19.303 17.8046 19.2684 17.8046 19.247 17.7834Z" fill="black"/>
</svg>
