<svg width="24" height="24" viewBox="0 0 24 24" fill="none" xmlns="http://www.w3.org/2000/svg">
<path fill-rule="evenodd" clip-rule="evenodd" d="M3 5C3 2.79086 4.79086 1 7 1H11.3431C12.6692 1 13.941 1.52678 14.8787 2.46447L19.5355 7.12132C20.4732 8.059 21 9.33077 21 10.6569V19C21 21.2091 19.2091 23 17 23H7C4.79086 23 3 21.2091 3 19V5ZM7 3C5.89543 3 5 3.89543 5 5V19C5 20.1046 5.89543 21 7 21H17C18.1046 21 19 20.1046 19 19V10.6569C19 10.0632 18.824 9.48765 18.501 9H15C13.8954 9 13 8.10457 13 7V3.49902C12.5123 3.17597 11.9368 3 11.3431 3H7ZM11.9762 11.8593L15.1952 15.0534C15.2295 15.0874 15.2848 15.0874 15.3191 15.0534L15.4443 14.9291C15.5463 14.8279 15.7108 14.8279 15.8128 14.9291C15.916 15.0315 15.916 15.1982 15.8128 15.3006L13.77 17.3276C13.668 17.4288 13.5035 17.4288 13.4015 17.3276C13.2983 17.2253 13.2983 17.0585 13.4015 16.9562L13.5238 16.8348C13.5579 16.8009 13.5579 16.7458 13.5238 16.7119L12.6742 15.8689C12.5963 15.7915 12.4705 15.7915 12.3925 15.8689L9.58929 18.6504C9.39429 18.8439 9.0797 18.8438 8.88478 18.6502L8.35738 18.1264C8.16043 17.9309 8.1605 17.6123 8.35753 17.4168L11.1532 14.6427C11.2321 14.5644 11.2321 14.4369 11.1532 14.3587L10.3048 13.5177C10.2705 13.4838 10.2153 13.4838 10.181 13.5178L10.0861 13.6119C9.96732 13.7298 9.77564 13.7298 9.65681 13.6119C9.53668 13.4927 9.53668 13.2984 9.65681 13.1792L11.6384 11.213C11.7572 11.0951 11.9489 11.0951 12.0677 11.213C12.1878 11.3322 12.1878 11.5265 12.0677 11.6457L11.9762 11.7365C11.9421 11.7703 11.9421 11.8255 11.9762 11.8593Z" fill="black"/>
</svg>
