<svg width="24" height="24" viewBox="0 0 24 24" fill="none" xmlns="http://www.w3.org/2000/svg">
<path fill-rule="evenodd" clip-rule="evenodd" d="M3 5C3 2.79086 4.79086 1 7 1H10.3431C11.6692 1 12.941 1.52678 13.8787 2.46447L17.5355 6.12132C18.4732 7.059 19 8.33077 19 9.65685V13.3135L18.6935 13.0094L18.613 12.9295C18.1634 12.4833 17.5866 12.243 17 12.2085V9.65685C17 9.06318 16.824 8.48765 16.501 8H14C12.8954 8 12 7.10457 12 6V3.49902C11.5123 3.17597 10.9368 3 10.3431 3H7C5.89543 3 5 3.89543 5 5V17C5 18.1046 5.89543 19 7 19H11.945C11.3961 19.5466 11.1541 20.2846 11.2194 21H7C4.79086 21 3 19.2091 3 17V5ZM20.1952 18.0534L16.9762 14.8593C16.9421 14.8255 16.9421 14.7703 16.9762 14.7365L17.0677 14.6457C17.1878 14.5265 17.1878 14.3322 17.0677 14.213C16.9489 14.0951 16.7572 14.0951 16.6384 14.213L14.6568 16.1792C14.5367 16.2984 14.5367 16.4927 14.6568 16.6119C14.7756 16.7298 14.9673 16.7298 15.0861 16.6119L15.181 16.5178C15.2153 16.4838 15.2705 16.4838 15.3048 16.5177L16.1532 17.3587C16.2321 17.4369 16.2321 17.5644 16.1532 17.6427L13.3575 20.4168C13.1605 20.6123 13.1604 20.9309 13.3574 21.1264L13.8848 21.6502C14.0797 21.8438 14.3943 21.8439 14.5893 21.6504L17.3925 18.8689C17.4705 18.7915 17.5963 18.7915 17.6742 18.8689L18.5238 19.7119C18.5579 19.7458 18.5579 19.8009 18.5238 19.8348L18.4015 19.9562C18.2983 20.0585 18.2983 20.2253 18.4015 20.3276C18.5035 20.4288 18.668 20.4288 18.77 20.3276L20.8128 18.3006C20.916 18.1982 20.916 18.0315 20.8128 17.9291C20.7108 17.8279 20.5463 17.8279 20.4443 17.9291L20.3191 18.0534C20.2848 18.0874 20.2295 18.0874 20.1952 18.0534Z" fill="black"/>
</svg>
