<svg width="24" height="24" viewBox="0 0 24 24" fill="none" xmlns="http://www.w3.org/2000/svg">
<path d="M10.9 10.8999L12.4686 12.4686C13.0935 13.0934 14.1065 13.0934 14.7314 12.4686L16.0686 11.1313C16.6935 10.5065 16.6935 9.4934 16.0686 8.86856L11.1314 3.9313C10.5065 3.30646 9.49347 3.30646 8.86863 3.9313L8.2 4.59993M10.9 10.8999L9.1 9.09993M10.9 10.8999L4.7 17.0999C4.20294 17.597 3.39706 17.597 2.9 17.0999V17.0999C2.40294 16.6029 2.40294 15.797 2.9 15.2999L9.1 9.09993M9.1 9.09993L7.53137 7.5313C6.90653 6.90646 6.90653 5.8934 7.53137 5.26856L8.2 4.59993M5.6 7.19993L8.2 4.59993M8.2 4.59993L10.8 2M12.8 14.3999L15.4 11.7999L18 9.19993M21 21H12M14 20H19" stroke="black" stroke-width="2" stroke-linecap="round" stroke-linejoin="round"/>
</svg>
