<svg width="24" height="24" viewBox="0 0 24 24" fill="none" xmlns="http://www.w3.org/2000/svg">
<path d="M16.3129 13H19M16.3129 13C17.182 12.9997 17.887 12.2963 17.887 11.4287V4.57135C17.887 3.70561 17.1856 3.00339 16.3192 3.00001M16.3129 13H14.4513M12.8783 6.75V4.57135C12.8783 3.70352 13.583 3 14.4523 3M12.8783 6.75L12.8783 9.25M12.8783 6.75L4.25217 6.75C3.56062 6.75 3 7.30964 3 8C3 8.69036 3.56062 9.25 4.25217 9.25L12.8783 9.25M12.8783 9.25V11.4286C12.8783 12.2961 13.5824 12.9994 14.4513 13M14.4523 3L11.7652 3M14.4523 3L16.3129 3L16.3192 3.00001M16.3192 3.00001L19 3.00005M11.7652 13L14.4513 13M10 21H15.3826M15.3826 21H18C18.5523 21 19 20.5523 19 20V20C19 19.4477 18.5523 19 18 19H12.7652C12.2129 19 11.7652 19.4477 11.7652 20V20C11.7652 20.5523 12.2129 21 12.7652 21H15.3826ZM15.3826 21H21" stroke="black" stroke-width="2" stroke-linecap="round" stroke-linejoin="round"/>
</svg>
