<svg width="24" height="24" viewBox="0 0 24 24" fill="none" xmlns="http://www.w3.org/2000/svg">
<path d="M13.125 13.1249L15.0858 15.0857C15.8668 15.8667 17.1332 15.8668 17.9142 15.0857L19.5858 13.4141C20.3668 12.6331 20.3668 11.3668 19.5858 10.5857L13.4142 4.41413C12.6332 3.63308 11.3668 3.63308 10.5858 4.41413L9.75 5.24991M13.125 13.1249L10.875 10.8749M13.125 13.1249L5.375 20.8749C4.75368 21.4962 3.74632 21.4962 3.125 20.8749V20.8749C2.50368 20.2536 2.50368 19.2462 3.125 18.6249L10.875 10.8749M10.875 10.8749L8.91421 8.91413C8.13316 8.13308 8.13317 6.86675 8.91421 6.0857L9.75 5.24991M6.5 8.49991L9.75 5.24991M9.75 5.24991L13 2M15.5 17.4999L18.75 14.2499L22 10.9999" stroke="black" stroke-width="2" stroke-linecap="round" stroke-linejoin="round"/>
</svg>
