<svg width="24" height="24" viewBox="0 0 24 24" fill="none" xmlns="http://www.w3.org/2000/svg">
<path fill-rule="evenodd" clip-rule="evenodd" d="M13.4431 3.7393C13.4613 3.64783 13.4708 3.55328 13.4708 3.45652C13.4708 2.65211 12.8124 2 12.0002 2C11.188 2 10.5295 2.65211 10.5295 3.45652C10.5295 3.55328 10.5391 3.64783 10.5572 3.7393L8.48819 3.73945C8.16088 3.73945 7.89554 4.00224 7.89554 4.32641C7.89554 4.64964 8.15935 4.91185 8.48537 4.91336L7.5002 7.31244C7.50097 8.84783 10.4423 8.84783 10.442 7.31244L9.45676 4.91326L11.4075 4.91312V9.82609H10.4198C10.0925 9.82609 9.82713 10.0889 9.82713 10.413C9.82713 10.7372 10.0925 11 10.4198 11H13.5806C13.9079 11 14.1732 10.7372 14.1732 10.413C14.1732 10.0889 13.9079 9.82609 13.5806 9.82609H12.5928V4.91312L14.5436 4.91346L13.5584 7.31254C13.5592 8.84793 16.5005 8.84793 16.5002 7.31254L15.515 4.91336C15.841 4.91185 16.1048 4.64964 16.1048 4.32641C16.1048 4.00224 15.8395 3.73945 15.5122 3.73945L13.4431 3.7393ZM19.1514 12.6441C19.3456 12.452 19.6647 12.452 19.8589 12.6441C20.0473 12.8305 20.0473 13.1284 19.8589 13.3148L15.7337 17.3972C14.0486 19.0647 11.7737 20 9.40308 20H3.0002C2.44792 20 2.0002 20.4477 2.0002 21C2.0002 21.5523 2.44792 22 3.0002 22H9.40308C12.3005 22 15.081 20.8568 17.1405 18.8188L21.2657 14.7364C22.245 13.7673 22.245 12.1917 21.2657 11.2225C20.2922 10.2592 18.7181 10.2592 17.7446 11.2225L14.0394 14.8892C13.8672 15.0596 13.6662 15.1958 13.4473 15.2931C13.454 15.2203 13.4575 15.1465 13.4575 15.0718C13.4575 13.7393 12.3688 12.6769 11.0479 12.6769H8.05782C7.00294 12.6769 5.98918 13.0915 5.24011 13.8328L4.75803 14.3098C4.19466 14.8674 3.52279 15.2325 2.79501 15.385C2.25448 15.4984 1.90816 16.0284 2.02148 16.5689C2.13481 17.1095 2.66486 17.4558 3.2054 17.3425C4.32847 17.107 5.34157 16.5461 6.16483 15.7314L6.64691 15.2544C7.01934 14.8858 7.52666 14.6769 8.05782 14.6769H11.0479C11.284 14.6769 11.4575 14.8635 11.4575 15.0718C11.4575 15.28 11.284 15.4667 11.0479 15.4667H9.63837C9.08608 15.4667 8.63837 15.9144 8.63837 16.4667C8.63837 17.0189 9.08608 17.4667 9.63837 17.4667H11.0479H12.6285C13.6833 17.4667 14.6971 17.0521 15.4462 16.3108L19.1514 12.6441Z" fill="black"/>
</svg>
