<svg width="24" height="24" viewBox="0 0 24 24" fill="none" xmlns="http://www.w3.org/2000/svg">
<path fill-rule="evenodd" clip-rule="evenodd" d="M10.0002 4.66065V3.33333C10.0002 2.59695 10.5972 2 11.3335 2H12.6669C13.4032 2 14.0002 2.59695 14.0002 3.33333V4.66065C14.0002 5.21263 13.8717 5.75703 13.6248 6.25074L13.141 7.21847C13.0484 7.40361 13.0002 7.60776 13.0002 7.81476V8.11111C13.0002 8.60203 13.3982 9 13.8891 9H15.1669C15.9032 9 16.5002 9.59695 16.5002 10.3333C16.5002 10.7015 16.2017 11 15.8335 11H8.16687C7.79868 11 7.5002 10.7015 7.5002 10.3333C7.5002 9.59695 8.09716 9 8.83354 9H10.1113C10.6022 9 11.0002 8.60203 11.0002 8.11111V7.81476C11.0002 7.60776 10.952 7.40361 10.8594 7.21847L10.3756 6.25074C10.1287 5.75703 10.0002 5.21263 10.0002 4.66065ZM19.1514 12.6441C19.3456 12.452 19.6647 12.452 19.8589 12.6441C20.0473 12.8305 20.0473 13.1284 19.8589 13.3148L15.7337 17.3972C14.0486 19.0647 11.7737 20 9.40308 20H3.0002C2.44792 20 2.0002 20.4477 2.0002 21C2.0002 21.5523 2.44792 22 3.0002 22H9.40308C12.3005 22 15.081 20.8568 17.1405 18.8188L21.2657 14.7364C22.245 13.7673 22.245 12.1917 21.2657 11.2225C20.2922 10.2592 18.7181 10.2592 17.7446 11.2225L14.0394 14.8892C13.8672 15.0596 13.6662 15.1958 13.4473 15.2931C13.454 15.2203 13.4575 15.1465 13.4575 15.0718C13.4575 13.7393 12.3688 12.6769 11.0479 12.6769H8.05782C7.00294 12.6769 5.98918 13.0915 5.24011 13.8328L4.75803 14.3098C4.19466 14.8674 3.52279 15.2325 2.79501 15.385C2.25448 15.4984 1.90816 16.0284 2.02148 16.5689C2.13481 17.1095 2.66486 17.4558 3.2054 17.3425C4.32847 17.107 5.34157 16.5461 6.16483 15.7314L6.64691 15.2544C7.01934 14.8858 7.52666 14.6769 8.05782 14.6769H11.0479C11.284 14.6769 11.4575 14.8635 11.4575 15.0718C11.4575 15.28 11.284 15.4667 11.0479 15.4667H9.63837C9.08608 15.4667 8.63837 15.9144 8.63837 16.4667C8.63837 17.0189 9.08608 17.4667 9.63837 17.4667H11.0479H12.6285C13.6833 17.4667 14.6971 17.0521 15.4462 16.3108L19.1514 12.6441Z" fill="black"/>
</svg>
