<svg width="24" height="24" viewBox="0 0 24 24" fill="none" xmlns="http://www.w3.org/2000/svg">
<path fill-rule="evenodd" clip-rule="evenodd" d="M11.9734 3.96719L15.5949 7.56058C15.6334 7.59883 15.6956 7.59883 15.7341 7.56058L15.875 7.42076C15.9898 7.3069 16.1749 7.3069 16.2897 7.42076C16.4057 7.53588 16.4057 7.72348 16.2897 7.8386L13.9915 10.119C13.8767 10.2329 13.6916 10.2329 13.5768 10.119C13.4608 10.0039 13.4608 9.8163 13.5768 9.70117L13.7145 9.56458C13.7529 9.5265 13.7529 9.46445 13.7145 9.42637L12.7411 8.46049C12.6631 8.38312 12.5373 8.38312 12.4594 8.46049L9.24411 11.6509C9.04911 11.8444 8.73452 11.8443 8.5396 11.6507L7.85758 10.9734C7.66063 10.7778 7.6607 10.4592 7.85774 10.2637L11.0655 7.08072C11.1444 7.00246 11.1443 6.87493 11.0654 6.79671L10.0931 5.83292C10.0546 5.7947 9.99239 5.79472 9.95386 5.83296L9.84711 5.93888C9.71343 6.07152 9.4978 6.07152 9.36412 5.93888C9.22896 5.80477 9.22896 5.58623 9.36412 5.45212L11.5934 3.24011C11.7271 3.10746 11.9427 3.10746 12.0764 3.24011C12.2115 3.37422 12.2115 3.59278 12.0764 3.72688L11.9735 3.82899C11.9351 3.86706 11.9351 3.92911 11.9734 3.96719ZM19.1514 12.6446C19.3456 12.4524 19.6647 12.4524 19.8589 12.6446C20.0473 12.831 20.0473 13.1289 19.8589 13.3153L15.7337 17.3976C14.0486 19.0651 11.7737 20.0005 9.40308 20.0005H3.0002C2.44792 20.0005 2.0002 20.4482 2.0002 21.0005C2.0002 21.5528 2.44792 22.0005 3.0002 22.0005H9.40308C12.3005 22.0005 15.081 20.8573 17.1405 18.8192L21.2657 14.7369C22.245 13.7678 22.245 12.1921 21.2657 11.223C20.2922 10.2596 18.7181 10.2596 17.7446 11.223L14.0394 14.8897C13.8672 15.0601 13.6662 15.1963 13.4473 15.2936C13.454 15.2208 13.4575 15.1469 13.4575 15.0723C13.4575 13.7398 12.3688 12.6774 11.0479 12.6774H8.05782C7.00294 12.6774 5.98918 13.092 5.24011 13.8333L4.75803 14.3103C4.19466 14.8678 3.52279 15.2329 2.79501 15.3855C2.25448 15.4988 1.90816 16.0289 2.02148 16.5694C2.13481 17.11 2.66486 17.4563 3.2054 17.343C4.32847 17.1075 5.34157 16.5466 6.16483 15.7319L6.64691 15.2549C7.01934 14.8863 7.52666 14.6774 8.05782 14.6774H11.0479C11.284 14.6774 11.4575 14.864 11.4575 15.0723C11.4575 15.2805 11.284 15.4671 11.0479 15.4671H9.63837C9.08608 15.4671 8.63837 15.9149 8.63837 16.4671C8.63837 17.0194 9.08608 17.4671 9.63837 17.4671H11.0479H12.6285C13.6833 17.4671 14.6971 17.0526 15.4462 16.3113L19.1514 12.6446Z" fill="black"/>
</svg>
