<svg width="24" height="24" viewBox="0 0 24 24" fill="none" xmlns="http://www.w3.org/2000/svg">
<path fill-rule="evenodd" clip-rule="evenodd" d="M12.0002 2C11.5031 2 11.1002 2.40701 11.1002 2.90909C11.1002 3.31279 11.3607 3.65502 11.7212 3.77365L10.7897 5.14243C10.7729 5.1671 10.7451 5.18184 10.7155 5.18184H9.27634C9.29485 5.10919 9.30469 5.03303 9.30469 4.95455C9.30469 4.45247 8.90175 4.04545 8.4047 4.04545H8.4002C7.90314 4.04545 7.5002 4.45247 7.5002 4.95455C7.5002 5.45662 7.90314 5.86364 8.4002 5.86364H8.4047C8.67536 5.86364 8.91812 5.74295 9.08311 5.55194L9.96372 6.95127C9.98245 6.98103 9.98245 7.01904 9.96372 7.0488L9.08313 8.44809C8.91815 8.25706 8.67538 8.13636 8.4047 8.13636H8.4002C7.90314 8.13636 7.5002 8.54338 7.5002 9.04545C7.5002 9.54753 7.90314 9.95455 8.4002 9.95455H8.4047C8.90175 9.95455 9.30469 9.54753 9.30469 9.04545C9.30469 8.967 9.29485 8.89086 9.27635 8.81823L10.7155 8.81823C10.7451 8.81823 10.7729 8.83297 10.7897 8.85765L11.7211 10.2264C11.3607 10.345 11.1002 10.6872 11.1002 11.0909C11.1002 11.593 11.5031 12 12.0002 12H12.0047C12.5017 12 12.9047 11.593 12.9047 11.0909C12.9047 10.691 12.6491 10.3515 12.2939 10.2298L13.2891 8.85228C13.3042 8.83072 13.3271 8.81816 13.3513 8.81816L14.7285 8.81817C14.71 8.89081 14.7002 8.96697 14.7002 9.04545C14.7002 9.54753 15.1031 9.95455 15.6002 9.95455H15.6002C16.0973 9.95455 16.5002 9.54753 16.5002 9.04545C16.5002 8.54338 16.0973 8.13636 15.6002 8.13636H15.6002C15.3518 8.13636 15.1268 8.23802 14.964 8.4024L14.1148 7.05298C14.0949 7.0213 14.0949 6.97863 14.1148 6.94695L14.964 5.59757C15.1268 5.76197 15.3517 5.86364 15.6002 5.86364H15.6002C16.0973 5.86364 16.5002 5.45662 16.5002 4.95455C16.5002 4.45247 16.0973 4.04545 15.6002 4.04545H15.6002C15.1031 4.04545 14.7002 4.45247 14.7002 4.95455C14.7002 5.033 14.71 5.10914 14.7285 5.18177H13.3513C13.3271 5.18177 13.3042 5.16921 13.2891 5.14765L12.2939 3.77022C12.6491 3.64854 12.9047 3.30896 12.9047 2.90909C12.9047 2.40701 12.5017 2 12.0047 2H12.0002ZM19.1514 12.6441C19.3456 12.452 19.6647 12.452 19.8589 12.6441C20.0473 12.8305 20.0473 13.1284 19.8589 13.3148L15.7337 17.3972C14.0486 19.0647 11.7737 20 9.40308 20H3.0002C2.44792 20 2.0002 20.4477 2.0002 21C2.0002 21.5523 2.44792 22 3.0002 22H9.40308C12.3005 22 15.081 20.8568 17.1405 18.8188L21.2657 14.7364C22.245 13.7673 22.245 12.1917 21.2657 11.2225C20.2922 10.2592 18.7181 10.2592 17.7446 11.2225L14.0394 14.8892C13.8672 15.0596 13.6662 15.1958 13.4473 15.2931C13.454 15.2203 13.4575 15.1465 13.4575 15.0718C13.4575 13.7393 12.3688 12.6769 11.0479 12.6769H8.05782C7.00294 12.6769 5.98918 13.0915 5.24011 13.8328L4.75803 14.3098C4.19466 14.8674 3.52279 15.2325 2.79501 15.385C2.25448 15.4984 1.90816 16.0284 2.02148 16.5689C2.13481 17.1095 2.66486 17.4558 3.2054 17.3425C4.32847 17.107 5.34157 16.5461 6.16483 15.7314L6.64691 15.2544C7.01934 14.8858 7.52666 14.6769 8.05782 14.6769H11.0479C11.284 14.6769 11.4575 14.8635 11.4575 15.0718C11.4575 15.28 11.284 15.4667 11.0479 15.4667H9.63837C9.08608 15.4667 8.63837 15.9144 8.63837 16.4667C8.63837 17.0189 9.08608 17.4667 9.63837 17.4667H11.0479H12.6285C13.6833 17.4667 14.6971 17.0521 15.4462 16.3108L19.1514 12.6441Z" fill="black"/>
</svg>
