<svg width="24" height="24" viewBox="0 0 24 24" fill="none" xmlns="http://www.w3.org/2000/svg">
<path d="M8 8H6C5.44772 8 5 8.44772 5 9V9C5 9.55228 4.56055 10.119 4.12511 10.4587C3.21925 11.1654 2 12.6859 2 15C2 18.3137 4.68629 21 8 21C11.3137 21 14 18.3137 14 15C14 12.6859 12.7807 11.1654 11.8749 10.4587C11.4394 10.119 11 9.55228 11 9V9C11 8.44772 10.5523 8 10 8H8ZM8 8C8 4 10.5 3 13 3C15.5 3 16 4.5 16 6M16 6H18C18.5523 6 19 6.44772 19 7C19 7.55228 19.4394 8.11897 19.8749 8.45869C20.7807 9.1654 22 10.6859 22 13C22 15.7294 19.8749 17.5 18 18M16 6H14M10.5 15C10.5 16.3807 9.38071 17.5 8 17.5C6.61929 17.5 5.5 16.3807 5.5 15C5.5 13.6193 6.61929 12.5 8 12.5C9.38071 12.5 10.5 13.6193 10.5 15Z" stroke="black" stroke-width="2" stroke-linecap="round" stroke-linejoin="round"/>
</svg>
