<svg width="24" height="24" viewBox="0 0 24 24" fill="none" xmlns="http://www.w3.org/2000/svg">
<path d="M17.5838 8.34014C20.1495 9.68381 22.0003 11.9847 22.0003 15C22.0003 19 18.5003 19 18.0003 19C17.0003 19 14.0003 18.6 14.0003 15C14.0003 12.9117 15.6828 10.3859 17.5838 8.34014ZM17.5838 8.34014C15.92 7.4688 13.9556 7 12.0003 7C10.045 7 8.08026 7.4688 6.41648 8.34014M17.5838 8.34014C18.9599 6.85924 20.4505 5.62987 21.5003 5M6.41648 8.34014C3.85078 9.68381 2 11.9847 2 15C2 19 5.5 19 6 19C7 19 10 18.6 10 15C10 12.9117 8.31749 10.3859 6.41648 8.34014ZM6.41648 8.34014C5.04038 6.85924 3.54978 5.62987 2.5 5" stroke="black" stroke-width="2" stroke-linecap="round" stroke-linejoin="round"/>
</svg>
