<svg width="24" height="24" viewBox="0 0 24 24" fill="none" xmlns="http://www.w3.org/2000/svg">
<path d="M3 21C3 15.8 7 12.8333 9 12M9 12C9 14.4 11 15 12 15C12.5338 15 13.3526 14.829 14 14.3045M9 12C9 9.6 9 5.5 12 6C15 5.5 15 9.6 15 12M9 12C6.2472 13.1621 5.68341 11.2663 6 10C4 8.5 5 6.5 6.5 6.5C5.5628 4.6256 7.02803 3.19037 8.66853 3.47795C8.83508 3.50714 8.99936 3.3856 9.02485 3.21845C9.28614 1.50533 11.5293 1.58801 12 3C12.4707 1.58801 14.7139 1.50514 14.9752 3.21826C15.0006 3.38541 15.1649 3.50696 15.3315 3.47776C16.972 3.19018 18.4372 4.62541 17.5 6.49981C19 6.49981 20 8.5 18 10C18.3166 11.2663 17.7528 13.1621 15 12M15 12C15 13.1188 14.5654 13.8465 14 14.3045M15 12C17 12.8333 21 15.8 21 21M14 14.3045L15.4975 19.3178C15.7193 20.0604 15.0487 20.7622 14.2968 20.5742L12.7276 20.1819C12.2499 20.0625 11.7501 20.0625 11.2724 20.1819L9.70317 20.5742C8.95133 20.7622 8.28066 20.0604 8.50247 19.3178L10 14.3045" stroke="black" stroke-width="2" stroke-linecap="round" stroke-linejoin="round"/>
</svg>
