<svg width="24" height="24" viewBox="0 0 24 24" fill="none" xmlns="http://www.w3.org/2000/svg">
<path d="M3 21C3 15.8 7 12.8333 9 12M9 12C9 14.4 11 15 12 15C12.5338 15 13.3526 14.829 14 14.3045M9 12C9 9.6 9 5.5 12 6C15 5.5 15 9.6 15 12M9 12C6.2472 13.1621 5.68341 11.2663 6 10C4 8.5 5.5 6 7 6C7.5 4.5 8.5 3 12 3C15.5 3 16.5 4.5 17 6C18.5 6 20 8.5 18 10C18.3166 11.2663 17.7528 13.1621 15 12M15 12C15 13.1188 14.5654 13.8465 14 14.3045M15 12C17 12.8333 21 15.8 21 21M14 14.3045L15.2316 18.4276C15.6148 19.7103 14.654 21 13.3153 21H12H10.6847C9.346 21 8.38524 19.7103 8.76841 18.4276L10 14.3045" stroke="black" stroke-width="2" stroke-linecap="round" stroke-linejoin="round"/>
</svg>
