<svg width="24" height="24" viewBox="0 0 24 24" fill="none" xmlns="http://www.w3.org/2000/svg">
<path d="M2 13.1765H8M2 13.1765C2 15.4353 4 16 5 16C6 16 8 15.2941 8 13.1765M2 13.1765L5 4M8 13.1765L5 4M5 4C6.5 4 7 3 9 3H12M5 4H3M12 19V3M6 21V20.5C6 19.6716 6.67157 19 7.5 19H16.5C17.3284 19 18 19.6716 18 20.5V21M22 13.1765H16M22 13.1765C22 15.4353 20 16 19 16C18 16 16 15.2941 16 13.1765M22 13.1765L19 4M16 13.1765L19 4M19 4C17.5 4 17 3 15 3H12M19 4H21" stroke="black" stroke-width="2" stroke-linecap="round" stroke-linejoin="round"/>
</svg>
