<svg width="24" height="24" viewBox="0 0 24 24" fill="none" xmlns="http://www.w3.org/2000/svg">
<path d="M2 12.1765H8M2 12.1765C2 14.4353 4 15 5 15C6 15 8 14.2941 8 12.1765M2 12.1765L5 3M8 12.1765L5 3M5 3C6.24426 3 6.80044 2.31191 8.09547 2.07729C8.67826 1.9717 9.26297 2.17531 9.75577 2.50385L12 4M5 3H3M12 22V4M6 20V20.5C6 21.3284 6.67157 22 7.5 22H16.5C17.3284 22 18 21.3284 18 20.5V20M22 12.1765H16M22 12.1765C22 14.4353 20 15 19 15C18 15 16 14.2941 16 12.1765M22 12.1765L19 3M16 12.1765L19 3M19 3C17.7557 3 17.1996 2.31191 15.9045 2.07729C15.3217 1.9717 14.737 2.17531 14.2442 2.50385L12 4M19 3H21" stroke="black" stroke-width="2" stroke-linecap="round" stroke-linejoin="round"/>
</svg>
