<svg width="24" height="24" viewBox="0 0 24 24" fill="none" xmlns="http://www.w3.org/2000/svg">
<path fill-rule="evenodd" clip-rule="evenodd" d="M6 1C4.34315 1 3 2.34315 3 4V19C3 20.6569 4.34315 22 6 22H20C20.505 22 20.9308 21.6234 20.9925 21.1222C21.0542 20.6209 20.7325 20.1523 20.2425 20.0299C19.7749 19.9129 19.5 19.5126 19.5 19C19.5 18.4874 19.7749 18.0871 20.2425 17.9701C20.6877 17.8589 21 17.4589 21 17V4C21 2.34315 19.6569 1 18 1H6ZM5 4V16.1707C5.31278 16.0602 5.64936 16 6 16H19V4C19 3.44772 18.5523 3 18 3H6C5.44772 3 5 3.44772 5 4ZM6 18H17.6584C17.5523 18.3275 17.5 18.6678 17.5 19C17.5 19.3322 17.5523 19.6725 17.6584 20H6C5.44772 20 5 19.5523 5 19C5 18.4477 5.44772 18 6 18ZM10 10C9.44772 10 9 10.4477 9 11C9 11.5523 9.44772 12 10 12H14C14.5523 12 15 11.5523 15 11C15 10.4477 14.5523 10 14 10H10ZM8 13C7.44772 13 7 13.4477 7 14C7 14.5523 7.44772 15 8 15H16C16.5523 15 17 14.5523 17 14C17 13.4477 16.5523 13 16 13H8ZM13.1223 5.34536C13.1364 5.2746 13.1438 5.20147 13.1438 5.12663C13.1438 4.50441 12.6317 4 12 4C11.3683 4 10.8561 4.50441 10.8561 5.12663C10.8561 5.20147 10.8636 5.2746 10.8777 5.34536L9.26843 5.34547C9.01386 5.34547 8.80748 5.54874 8.80748 5.79949C8.80748 6.04951 9.01267 6.25233 9.26624 6.2535L8.5 8.1092C8.50059 9.29683 10.7883 9.29683 10.788 8.1092L10.0218 6.25342L13.9782 6.25357L13.212 8.10928C13.2126 9.29691 15.5003 9.29691 15.5 8.10928L14.7337 6.2535C14.9873 6.25233 15.1925 6.04951 15.1925 5.79949C15.1925 5.54874 14.9861 5.34547 14.7315 5.34547L13.1223 5.34536Z" fill="black"/>
</svg>
