<svg width="24" height="24" viewBox="0 0 24 24" fill="none" xmlns="http://www.w3.org/2000/svg">
<path fill-rule="evenodd" clip-rule="evenodd" d="M4 4C2.89543 4 2 4.89543 2 6V18C2 19.1046 2.89543 20 4 20H12H20C21.1046 20 22 19.1046 22 18V6C22 4.89543 21.1046 4 20 4H15C13.8053 4 12.7329 4.52376 12 5.35418C11.2671 4.52376 10.1947 4 9 4H4ZM9 6C10.1046 6 11 6.89543 11 8V18H4V6H9ZM15 6C13.8954 6 13 6.89543 13 8V18H20V6H15ZM6 13C5.44772 13 5 13.4477 5 14C5 14.5523 5.44772 15 6 15H9C9.55228 15 10 14.5523 10 14C10 13.4477 9.55228 13 9 13H6ZM8.30163 8.94175C8.31172 8.89222 8.31702 8.84103 8.31702 8.78864C8.31702 8.35309 7.95122 8 7.49999 8C7.04876 8 6.68296 8.35309 6.68296 8.78864C6.68296 8.84103 6.68825 8.89222 6.69835 8.94175L5.54888 8.94183C5.36704 8.94183 5.21963 9.08412 5.21963 9.25964C5.21963 9.43466 5.3662 9.57663 5.54732 9.57745L5 10.8764C5.00042 11.7078 6.6345 11.7078 6.63431 10.8764L6.08698 9.57739L8.913 9.5775L8.36569 10.8765C8.36611 11.7078 10.0002 11.7078 10 10.8765L9.45266 9.57745C9.63378 9.57663 9.78035 9.43466 9.78035 9.25964C9.78035 9.08412 9.63294 8.94183 9.4511 8.94183L8.30163 8.94175Z" fill="black"/>
</svg>
