<svg width="24" height="24" viewBox="0 0 24 24" fill="none" xmlns="http://www.w3.org/2000/svg">
<path fill-rule="evenodd" clip-rule="evenodd" d="M7 2C5.34315 2 4 3.34315 4 5V17C4 18.6569 5.34315 20 7 20V21C7 21.5523 7.44772 22 8 22C8.55228 22 9 21.5523 9 21V20H18.5C19.3284 20 20 19.3284 20 18.5V15V3.5C20 2.67157 19.3284 2 18.5 2H7ZM6 5V14.1707C6.31278 14.0602 6.64936 14 7 14H18V4H7C6.44772 4 6 4.44772 6 5ZM7 16H18V18H9V17H7V18C6.44772 18 6 17.5523 6 17C6 16.4477 6.44772 16 7 16ZM13.4429 7.24897C13.4611 7.15698 13.4706 7.06191 13.4706 6.96462C13.4706 6.15573 12.8122 5.5 12 5.5C11.1878 5.5 10.5293 6.15573 10.5293 6.96462C10.5293 7.06191 10.5389 7.15698 10.557 7.24897L8.48798 7.24911C8.16067 7.24911 7.89533 7.51336 7.89533 7.83933C7.89533 8.16437 8.15915 8.42803 8.48517 8.42954L7.5 10.842C7.50076 12.3859 10.4421 12.3859 10.4418 10.842L9.45656 8.42944L14.5434 8.42965L13.5582 10.8421C13.559 12.386 16.5003 12.386 16.5 10.8421L15.5148 8.42954C15.8408 8.42803 16.1046 8.16437 16.1046 7.83933C16.1046 7.51336 15.8393 7.24911 15.512 7.24911L13.4429 7.24897Z" fill="black"/>
</svg>
