<svg width="24" height="24" viewBox="0 0 24 24" fill="none" xmlns="http://www.w3.org/2000/svg">
<path fill-rule="evenodd" clip-rule="evenodd" d="M4 4.54286C4 4.24305 4.24305 4 4.54286 4C4.84267 4 5.08571 4.24305 5.08571 4.54286V5.08571H4.54286C4.24305 5.08571 4 4.84267 4 4.54286ZM7.08571 4.54286C7.08571 4.35655 7.06568 4.17491 7.02764 4H15.4286C16.5331 4 17.4286 4.89543 17.4286 6V14.9143H10.1714C9.06686 14.9143 8.17143 15.8097 8.17143 16.9143V19.4571C8.17143 19.757 7.92838 20 7.62857 20C7.32876 20 7.08571 19.757 7.08571 19.4571V6.08571V4.54286ZM19.4286 6V14.9143H20C21.1046 14.9143 22 15.8097 22 16.9143V19.4571C22 20.8615 20.8615 22 19.4571 22H7.62857C6.22419 22 5.08571 20.8615 5.08571 19.4571V7.08571H4.54286C3.13848 7.08571 2 5.94724 2 4.54286C2 3.13848 3.13848 2 4.54286 2H15.4286C17.6377 2 19.4286 3.79086 19.4286 6ZM19.4571 20H10.1134C10.1514 19.8251 10.1714 19.6435 10.1714 19.4571V16.9143L18.4286 16.9143L20 16.9143V19.4571C20 19.757 19.757 20 19.4571 20ZM10 12C9.44772 12 9 12.4477 9 13C9 13.5523 9.44772 14 10 14H14.5C15.0523 14 15.5 13.5523 15.5 13C15.5 12.4477 15.0523 12 14.5 12H10ZM12.4792 5.25189L15.2958 8.04674C15.3258 8.07649 15.3742 8.07649 15.4042 8.04674L15.5138 7.938C15.603 7.84944 15.747 7.84944 15.8362 7.938C15.9265 8.02753 15.9265 8.17345 15.8362 8.26298L14.0488 10.0366C13.9595 10.1252 13.8155 10.1252 13.7263 10.0366C13.636 9.9471 13.636 9.80119 13.7263 9.71165L13.8334 9.60541C13.8632 9.5758 13.8632 9.52753 13.8334 9.49792L13.1076 8.77774C13.0296 8.70037 12.9038 8.70037 12.8258 8.77774L10.4347 11.1504C10.2397 11.3439 9.92508 11.3438 9.73016 11.1502L9.35738 10.78C9.16043 10.5844 9.1605 10.2658 9.35753 10.0703L11.7412 7.70509C11.8201 7.62683 11.82 7.49929 11.7411 7.42108L11.0167 6.70301C10.9867 6.67328 10.9384 6.6733 10.9084 6.70304L10.8254 6.78542C10.7214 6.88859 10.5537 6.88859 10.4497 6.78542C10.3446 6.68112 10.3446 6.51114 10.4497 6.40683L12.1836 4.68638C12.2875 4.58321 12.4553 4.58321 12.5592 4.68638C12.6644 4.79069 12.6644 4.96068 12.5592 5.06498L12.4792 5.1444C12.4493 5.17401 12.4493 5.22227 12.4792 5.25189Z" fill="black"/>
</svg>
