<svg width="24" height="24" viewBox="0 0 24 24" fill="none" xmlns="http://www.w3.org/2000/svg">
<path fill-rule="evenodd" clip-rule="evenodd" d="M7.57143 2C5.36229 2 3.57143 3.79086 3.57143 6V15.9143H3C1.89543 15.9143 1 16.8097 1 17.9143V19.4571C1 20.8615 2.13848 22 3.54286 22H15.3714C16.7758 22 17.9143 20.8615 17.9143 19.4571V16.9342L15.9143 18.9817V19.4571C15.9143 19.757 15.6712 20 15.3714 20C15.224 20 15.0903 19.9412 14.9925 19.8458C14.6831 20.0611 14.339 20.2173 13.9772 20.3109L11.5633 20.9351C10.5818 21.189 9.72437 20.7258 9.29475 20H3.54286C3.24305 20 3 19.757 3 19.4571L3 17.9143L4.57143 17.9143H9.19494L9.6705 15.9871C9.6765 15.9627 9.68278 15.9385 9.68933 15.9143H5.57143V6C5.57143 4.89543 6.46686 4 7.57143 4H15.9724C15.9343 4.17491 15.9143 4.35655 15.9143 4.54286V6.08571V8.95923L17.8962 6.93033C18.6712 6.13685 19.6273 5.90541 20.524 6.0245C20.8236 5.60731 21 5.09568 21 4.54286C21 3.13848 19.8615 2 18.4571 2H7.57143ZM17.9143 4.54286C17.9143 4.24305 18.1573 4 18.4571 4C18.757 4 19 4.24304 19 4.54286C19 4.84267 18.757 5.08571 18.4571 5.08571H17.9143V4.54286ZM14.0947 9.0601L10.4732 5.46671C10.4349 5.42864 10.4349 5.36659 10.4732 5.32851L10.5762 5.22641C10.7113 5.0923 10.7113 4.87375 10.5762 4.73963C10.4425 4.60699 10.2268 4.60699 10.0932 4.73963L7.86392 6.95164C7.72876 7.08575 7.72876 7.30429 7.86391 7.4384C7.99759 7.57104 8.21323 7.57104 8.34691 7.4384L8.45365 7.33248C8.49219 7.29424 8.55435 7.29422 8.59291 7.33244L9.56523 8.29623C9.64413 8.37445 9.64417 8.50199 9.5653 8.58025L6.35753 11.7632C6.1605 11.9587 6.16043 12.2773 6.35738 12.4729L7.0394 13.1502C7.23432 13.3438 7.54891 13.3439 7.74391 13.1504L10.9592 9.96002C11.0371 9.88264 11.1629 9.88264 11.2409 9.96002L12.2143 10.9259C12.2527 10.964 12.2527 11.026 12.2143 11.0641L12.0766 11.2007C11.9606 11.3158 11.9606 11.5034 12.0766 11.6185C12.1914 11.7324 12.3765 11.7324 12.4913 11.6185L14.7895 9.33812C14.9055 9.223 14.9055 9.0354 14.7895 8.92028C14.6747 8.80642 14.4896 8.80642 14.3748 8.92028L14.2339 9.0601C14.1954 9.09835 14.1332 9.09835 14.0947 9.0601ZM20.358 11.908C20.4809 11.7822 20.5363 11.5975 20.5085 11.4149L15.1394 16.9114C15.1007 16.951 15.0381 16.951 14.9994 16.9114L13.0402 14.9057C13.0015 14.8661 13.0015 14.802 13.0402 14.7624L19.3259 8.32744C19.8117 7.83014 20.6754 7.90807 21.2551 8.50151C21.7538 9.01201 21.8798 9.7377 21.596 10.2471C22.1812 11.0693 22.141 12.2317 21.4077 12.9825L20.1544 14.2655C19.8646 14.5622 19.3947 14.5622 19.1048 14.2655C18.815 13.9688 18.815 13.4877 19.1048 13.191L20.358 11.908ZM11.0016 18.9369L11.6113 16.4658C11.6636 16.254 11.7662 16.0666 11.911 15.9183L12.2843 15.5362C12.323 15.4966 12.3856 15.4966 12.4243 15.5362L14.3835 17.5419C14.4222 17.5815 14.4222 17.6456 14.3835 17.6852L14.0102 18.0674C13.8654 18.2156 13.6823 18.3207 13.4755 18.3742L11.0616 18.9984C11.0253 19.0078 10.9924 18.9741 11.0016 18.9369Z" fill="black"/>
</svg>
