<svg width="24" height="24" viewBox="0 0 24 24" fill="none" xmlns="http://www.w3.org/2000/svg">
<path fill-rule="evenodd" clip-rule="evenodd" d="M4 4.54286C4 4.24305 4.24305 4 4.54286 4C4.84267 4 5.08571 4.24305 5.08571 4.54286V5.08571H4.54286C4.24305 5.08571 4 4.84267 4 4.54286ZM7.08571 4.54286C7.08571 4.35655 7.06568 4.17491 7.02764 4H15.4286C16.5331 4 17.4286 4.89543 17.4286 6V14.9143H10.1714C9.06686 14.9143 8.17143 15.8097 8.17143 16.9143V19.4571C8.17143 19.757 7.92838 20 7.62857 20C7.32876 20 7.08571 19.757 7.08571 19.4571V6.08571V4.54286ZM19.4286 6V14.9143H20C21.1046 14.9143 22 15.8097 22 16.9143V19.4571C22 20.8615 20.8615 22 19.4571 22H7.62857C6.22419 22 5.08571 20.8615 5.08571 19.4571V7.08571H4.54286C3.13848 7.08571 2 5.94724 2 4.54286C2 3.13848 3.13848 2 4.54286 2H15.4286C17.6377 2 19.4286 3.79086 19.4286 6ZM19.4571 20H10.1134C10.1514 19.8251 10.1714 19.6435 10.1714 19.4571V16.9143L18.4286 16.9143L20 16.9143V19.4571C20 19.757 19.757 20 19.4571 20ZM13.6223 7.36591C13.6364 7.29407 13.6438 7.21982 13.6438 7.14384C13.6438 6.51211 13.1317 6 12.5 6C11.8683 6 11.3561 6.51211 11.3561 7.14384C11.3561 7.21982 11.3636 7.29407 11.3777 7.36591L9.76843 7.36603C9.51386 7.36603 9.30748 7.5724 9.30748 7.82698C9.30748 8.08082 9.51267 8.28674 9.76624 8.28792L9 10.172C9.00059 11.3777 11.2883 11.3777 11.288 10.172L10.5218 8.28784L12.039 8.28773V12.146H11.2708C11.0162 12.146 10.8098 12.3524 10.8098 12.6069C10.8098 12.8615 11.0162 13.0679 11.2708 13.0679H13.7292C13.9838 13.0679 14.1901 12.8615 14.1901 12.6069C14.1901 12.3524 13.9838 12.146 13.7292 12.146H12.9609V8.28773L14.4782 8.288L13.712 10.1721C13.7126 11.3778 16.0003 11.3778 16 10.1721L15.2337 8.28792C15.4873 8.28674 15.6925 8.08082 15.6925 7.82698C15.6925 7.5724 15.4861 7.36603 15.2315 7.36603L13.6223 7.36591Z" fill="black"/>
</svg>
