<svg width="24" height="24" viewBox="0 0 24 24" fill="none" xmlns="http://www.w3.org/2000/svg">
<path fill-rule="evenodd" clip-rule="evenodd" d="M7.57143 2C5.36229 2 3.57143 3.79086 3.57143 6V15.9143H3C1.89543 15.9143 1 16.8097 1 17.9143V19.4571C1 20.8615 2.13848 22 3.54286 22H15.3714C16.7758 22 17.9143 20.8615 17.9143 19.4571V16.9342L15.9143 18.9817V19.4571C15.9143 19.757 15.6712 20 15.3714 20C15.224 20 15.0903 19.9412 14.9925 19.8458C14.6831 20.0611 14.339 20.2173 13.9772 20.3109L11.5633 20.9351C10.5818 21.189 9.72437 20.7258 9.29475 20H3.54286C3.24305 20 3 19.757 3 19.4571L3 17.9143L4.57143 17.9143H9.19494L9.6705 15.9871C9.6765 15.9627 9.68278 15.9385 9.68933 15.9143H5.57143V6C5.57143 4.89543 6.46686 4 7.57143 4H15.9724C15.9343 4.17491 15.9143 4.35655 15.9143 4.54286V6.08571V8.95923L17.8962 6.93033C18.6712 6.13685 19.6273 5.90541 20.524 6.0245C20.8236 5.60731 21 5.09568 21 4.54286C21 3.13848 19.8615 2 18.4571 2H7.57143ZM17.9143 4.54286C17.9143 4.24305 18.1573 4 18.4571 4C18.757 4 19 4.24304 19 4.54286C19 4.84267 18.757 5.08571 18.4571 5.08571H17.9143V4.54286ZM10.3 5.7C10.3 5.3134 10.6134 5 11 5H11.0035C11.3901 5 11.7035 5.3134 11.7035 5.7C11.7035 6.0079 11.5047 6.26936 11.2284 6.36306L12.0025 7.42367C12.0142 7.44028 12.032 7.44994 12.0509 7.44994H13.122C13.1076 7.39402 13.1 7.3354 13.1 7.27499C13.1 6.88839 13.4134 6.57499 13.8 6.57499H13.8C14.1866 6.57499 14.5 6.88839 14.5 7.27499C14.5 7.66158 14.1866 7.97498 13.8 7.97498H13.8C13.6067 7.97498 13.4318 7.8967 13.3052 7.77011L12.6447 8.80913C12.6292 8.83352 12.6292 8.86637 12.6447 8.89077L13.3052 9.92982C13.4318 9.80325 13.6068 9.72497 13.8 9.72497H13.8C14.1866 9.72497 14.5 10.0384 14.5 10.425C14.5 10.8116 14.1866 11.125 13.8 11.125H13.8C13.4134 11.125 13.1 10.8116 13.1 10.425C13.1 10.3645 13.1076 10.3059 13.122 10.25L12.0509 10.25C12.032 10.25 12.0142 10.2596 12.0025 10.2762L11.2285 11.3369C11.5047 11.4306 11.7035 11.6921 11.7035 12C11.7035 12.3866 11.3901 12.7 11.0035 12.7H11C10.6134 12.7 10.3 12.3866 10.3 12C10.3 11.6891 10.5026 11.4256 10.7829 11.3343L10.0585 10.2804C10.0454 10.2614 10.0238 10.25 10.0008 10.25L8.88145 10.25C8.89584 10.3059 8.90349 10.3646 8.90349 10.425C8.90349 10.8116 8.59009 11.125 8.2035 11.125H8.2C7.8134 11.125 7.5 10.8116 7.5 10.425C7.5 10.0384 7.8134 9.72497 8.2 9.72497H8.2035C8.41402 9.72497 8.60285 9.81791 8.73117 9.965L9.41607 8.88756C9.43063 8.86464 9.43063 8.83537 9.41607 8.81245L8.73115 7.73498C8.60283 7.88205 8.41401 7.97498 8.2035 7.97498H8.2C7.8134 7.97498 7.5 7.66158 7.5 7.27499C7.5 6.88839 7.8134 6.57499 8.2 6.57499H8.2035C8.59009 6.57499 8.90349 6.88839 8.90349 7.27499C8.90349 7.33542 8.89583 7.39406 8.88144 7.45H10.0008C10.0238 7.45 10.0454 7.43865 10.0585 7.41965L10.783 6.3657C10.5026 6.27436 10.3 6.01084 10.3 5.7ZM20.358 11.908C20.4809 11.7822 20.5363 11.5975 20.5085 11.4149L15.1394 16.9114C15.1007 16.951 15.0381 16.951 14.9994 16.9114L13.0402 14.9057C13.0015 14.8661 13.0015 14.802 13.0402 14.7624L19.3259 8.32744C19.8117 7.83014 20.6754 7.90807 21.2551 8.50151C21.7538 9.01201 21.8798 9.7377 21.596 10.2471C22.1812 11.0693 22.141 12.2317 21.4077 12.9825L20.1544 14.2655C19.8646 14.5622 19.3947 14.5622 19.1048 14.2655C18.815 13.9688 18.815 13.4877 19.1048 13.191L20.358 11.908ZM11.0016 18.9369L11.6113 16.4658C11.6636 16.254 11.7662 16.0666 11.911 15.9183L12.2843 15.5362C12.323 15.4966 12.3856 15.4966 12.4243 15.5362L14.3835 17.5419C14.4222 17.5815 14.4222 17.6456 14.3835 17.6852L14.0102 18.0674C13.8654 18.2156 13.6823 18.3207 13.4755 18.3742L11.0616 18.9984C11.0253 19.0078 10.9924 18.9741 11.0016 18.9369Z" fill="black"/>
</svg>
