<svg width="24" height="24" viewBox="0 0 24 24" fill="none" xmlns="http://www.w3.org/2000/svg">
<path fill-rule="evenodd" clip-rule="evenodd" d="M7.57143 2C5.36229 2 3.57143 3.79086 3.57143 6V15.9143H3C1.89543 15.9143 1 16.8097 1 17.9143V19.4571C1 20.8615 2.13848 22 3.54286 22H15.3714C16.7758 22 17.9143 20.8615 17.9143 19.4571V16.9342L15.9143 18.9817V19.4571C15.9143 19.757 15.6712 20 15.3714 20C15.224 20 15.0903 19.9412 14.9925 19.8458C14.6831 20.0611 14.339 20.2173 13.9772 20.3109L11.5633 20.9351C10.5818 21.189 9.72437 20.7258 9.29475 20H3.54286C3.24305 20 3 19.757 3 19.4571L3 17.9143L4.57143 17.9143H9.19494L9.6705 15.9871C9.6765 15.9627 9.68278 15.9385 9.68933 15.9143H5.57143V6C5.57143 4.89543 6.46686 4 7.57143 4H15.9724C15.9343 4.17491 15.9143 4.35655 15.9143 4.54286V6.08571V8.95923L17.8962 6.93033C18.6712 6.13685 19.6273 5.90541 20.524 6.0245C20.8236 5.60731 21 5.09568 21 4.54286C21 3.13848 19.8615 2 18.4571 2H7.57143ZM17.9143 4.54286C17.9143 4.24305 18.1573 4 18.4571 4C18.757 4 19 4.24304 19 4.54286C19 4.84267 18.757 5.08571 18.4571 5.08571H17.9143V4.54286ZM11.6438 6.13285C11.6438 6.2081 11.6364 6.28164 11.6223 6.35279L13.2315 6.3529C13.4861 6.3529 13.6925 6.5573 13.6925 6.80943C13.6925 7.06083 13.4873 7.26478 13.2337 7.26594L14 9.13198C14.0003 10.3262 11.7126 10.3262 11.712 9.13198L12.4782 7.26602L10.9609 7.26576V11.087H11.7292C11.9838 11.087 12.1901 11.2913 12.1901 11.5435C12.1901 11.7956 11.9838 12 11.7292 12H9.27079C9.01621 12 8.80984 11.7956 8.80984 11.5435C8.80984 11.2913 9.01621 11.087 9.27079 11.087H10.039V7.26576L8.52177 7.26587L9.28804 9.1319C9.28829 10.3261 7.00059 10.3261 7 9.1319L7.76624 7.26594C7.51267 7.26478 7.30748 7.06083 7.30748 6.80943C7.30748 6.5573 7.51386 6.3529 7.76843 6.3529L9.37769 6.35279C9.36355 6.28164 9.35615 6.2081 9.35615 6.13285C9.35615 5.50719 9.86826 5 10.5 5C11.1317 5 11.6438 5.50719 11.6438 6.13285ZM20.358 11.908C20.4809 11.7822 20.5363 11.5975 20.5085 11.4149L15.1394 16.9114C15.1007 16.951 15.0381 16.951 14.9994 16.9114L13.0402 14.9057C13.0015 14.8661 13.0015 14.802 13.0402 14.7624L19.3259 8.32744C19.8117 7.83014 20.6754 7.90807 21.2551 8.50151C21.7538 9.01201 21.8798 9.7377 21.596 10.2471C22.1812 11.0693 22.141 12.2317 21.4077 12.9825L20.1544 14.2655C19.8646 14.5622 19.3947 14.5622 19.1048 14.2655C18.815 13.9688 18.815 13.4877 19.1048 13.191L20.358 11.908ZM11.0016 18.9369L11.6113 16.4658C11.6636 16.254 11.7662 16.0666 11.911 15.9183L12.2843 15.5362C12.323 15.4966 12.3856 15.4966 12.4243 15.5362L14.3835 17.5419C14.4222 17.5815 14.4222 17.6456 14.3835 17.6852L14.0102 18.0674C13.8654 18.2156 13.6823 18.3207 13.4755 18.3742L11.0616 18.9984C11.0253 19.0078 10.9924 18.9741 11.0016 18.9369Z" fill="black"/>
</svg>
