<svg width="24" height="24" viewBox="0 0 24 24" fill="none" xmlns="http://www.w3.org/2000/svg">
<path d="M4.54286 3C3.69076 3 3 3.69076 3 4.54286C3 5.39495 3.69076 6.08571 4.54286 6.08571H6.08571M4.54286 3C5.39495 3 6.08571 3.69076 6.08571 4.54286V6.08571M4.54286 3H15.4286C17.0854 3 18.4286 4.34315 18.4286 6V15.9143M7.62857 21C8.48067 21 9.17143 20.3092 9.17143 19.4571V16.9143C9.17143 16.362 9.61914 15.9143 10.1714 15.9143H18.4286M7.62857 21C6.77647 21 6.08571 20.3092 6.08571 19.4571V6.08571M7.62857 21H19.4571C20.3092 21 21 20.3092 21 19.4571V16.9143C21 16.362 20.5523 15.9143 20 15.9143L18.4286 15.9143M10 7H14.5M10 11H14.5" stroke="black" stroke-width="2" stroke-linecap="round" stroke-linejoin="round"/>
</svg>
