<svg width="24" height="24" viewBox="0 0 24 24" fill="none" xmlns="http://www.w3.org/2000/svg">
<path fill-rule="evenodd" clip-rule="evenodd" d="M4 4.54286C4 4.24305 4.24305 4 4.54286 4C4.84267 4 5.08571 4.24305 5.08571 4.54286V5.08571H4.54286C4.24305 5.08571 4 4.84267 4 4.54286ZM7.08571 4.54286C7.08571 4.35655 7.06568 4.17491 7.02764 4H15.4286C16.5331 4 17.4286 4.89543 17.4286 6V14.9143H10.1714C9.06686 14.9143 8.17143 15.8097 8.17143 16.9143V19.4571C8.17143 19.757 7.92838 20 7.62857 20C7.32876 20 7.08571 19.757 7.08571 19.4571V6.08571V4.54286ZM19.4286 6V14.9143H20C21.1046 14.9143 22 15.8097 22 16.9143V19.4571C22 20.8615 20.8615 22 19.4571 22H7.62857C6.22419 22 5.08571 20.8615 5.08571 19.4571V7.08571H4.54286C3.13848 7.08571 2 5.94724 2 4.54286C2 3.13848 3.13848 2 4.54286 2H15.4286C17.6377 2 19.4286 3.79086 19.4286 6ZM19.4571 20H10.1134C10.1514 19.8251 10.1714 19.6435 10.1714 19.4571V16.9143L18.4286 16.9143L20 16.9143V19.4571C20 19.757 19.757 20 19.4571 20ZM10 11C9.44772 11 9 11.4477 9 12C9 12.5523 9.44772 13 10 13H14.5C15.0523 13 15.5 12.5523 15.5 12C15.5 11.4477 15.0523 11 14.5 11H10ZM12 5C11.7238 5 11.5 5.22386 11.5 5.5C11.5 5.72203 11.6447 5.91026 11.845 5.9755L11.3275 6.72832C11.3181 6.74189 11.3027 6.75 11.2863 6.75H10.4867C10.497 6.71004 10.5025 6.66816 10.5025 6.62499C10.5025 6.34885 10.2786 6.12499 10.0025 6.12499H10C9.72386 6.12499 9.5 6.34885 9.5 6.62499C9.5 6.90113 9.72386 7.12499 10 7.12499H10.0025C10.1529 7.12499 10.2877 7.05861 10.3794 6.95356L10.8686 7.72318C10.879 7.73955 10.879 7.76046 10.8686 7.77683L10.3794 8.54643C10.2877 8.44136 10.1529 8.37498 10.0025 8.37498H10C9.72386 8.37498 9.5 8.59884 9.5 8.87498C9.5 9.15112 9.72386 9.37497 10 9.37497H10.0025C10.2786 9.37497 10.5025 9.15112 10.5025 8.87498C10.5025 8.83182 10.497 8.78995 10.4868 8.75001L11.2863 8.75001C11.3027 8.75001 11.3181 8.75811 11.3275 8.77168L11.845 9.52447C11.6447 9.58972 11.5 9.77795 11.5 9.99997C11.5 10.2761 11.7238 10.5 12 10.5H12.0025C12.2786 10.5 12.5025 10.2761 12.5025 9.99997C12.5025 9.78005 12.3605 9.59329 12.1632 9.52636L12.716 8.76873C12.7244 8.75687 12.7372 8.74997 12.7506 8.74997H13.5157C13.5055 8.78992 13.5 8.83181 13.5 8.87498C13.5 9.15112 13.7238 9.37497 14 9.37497H14C14.2761 9.37497 14.5 9.15112 14.5 8.87498C14.5 8.59884 14.2761 8.37498 14 8.37498H14C13.862 8.37498 13.737 8.43089 13.6466 8.5213L13.1748 7.77912C13.1637 7.7617 13.1637 7.73823 13.1748 7.72081L13.6465 6.97865C13.737 7.06907 13.862 7.12499 14 7.12499H14C14.2761 7.12499 14.5 6.90113 14.5 6.62499C14.5 6.34885 14.2761 6.12499 14 6.12499H14C13.7238 6.12499 13.5 6.34885 13.5 6.62499C13.5 6.66814 13.5054 6.71002 13.5157 6.74996H12.7506C12.7372 6.74996 12.7244 6.74306 12.716 6.7312L12.1632 5.97361C12.3605 5.90669 12.5025 5.71993 12.5025 5.5C12.5025 5.22386 12.2786 5 12.0025 5H12Z" fill="black"/>
</svg>
