<svg width="24" height="24" viewBox="0 0 24 24" fill="none" xmlns="http://www.w3.org/2000/svg">
<path fill-rule="evenodd" clip-rule="evenodd" d="M4 4.54286C4 4.24305 4.24305 4 4.54286 4C4.84267 4 5.08571 4.24305 5.08571 4.54286V5.08571H4.54286C4.24305 5.08571 4 4.84267 4 4.54286ZM7.08571 4.54286C7.08571 4.35655 7.06568 4.17491 7.02764 4H15.4286C16.5331 4 17.4286 4.89543 17.4286 6V14.9143H10.1714C9.06686 14.9143 8.17143 15.8097 8.17143 16.9143V19.4571C8.17143 19.757 7.92838 20 7.62857 20C7.32876 20 7.08571 19.757 7.08571 19.4571V6.08571V4.54286ZM19.4286 6V14.9143H20C21.1046 14.9143 22 15.8097 22 16.9143V19.4571C22 20.8615 20.8615 22 19.4571 22H7.62857C6.22419 22 5.08571 20.8615 5.08571 19.4571V7.08571H4.54286C3.13848 7.08571 2 5.94724 2 4.54286C2 3.13848 3.13848 2 4.54286 2H15.4286C17.6377 2 19.4286 3.79086 19.4286 6ZM19.4571 20H10.1134C10.1514 19.8251 10.1714 19.6435 10.1714 19.4571V16.9143L18.4286 16.9143L20 16.9143V19.4571C20 19.757 19.757 20 19.4571 20ZM12.4762 6.3593L15.6952 9.55342C15.7295 9.58742 15.7848 9.58742 15.8191 9.55342L15.9443 9.42914C16.0463 9.32793 16.2108 9.32793 16.3128 9.42914C16.416 9.53147 16.416 9.69822 16.3128 9.80055L14.27 11.8276C14.168 11.9288 14.0035 11.9288 13.9015 11.8276C13.7983 11.7253 13.7983 11.5585 13.9015 11.4562L14.0238 11.3348C14.0579 11.3009 14.0579 11.2458 14.0238 11.2119L13.1742 10.3689C13.0963 10.2915 12.9705 10.2915 12.8925 10.3689L10.0893 13.1504C9.89429 13.3439 9.5797 13.3438 9.38478 13.1502L8.85738 12.6264C8.66043 12.4309 8.6605 12.1123 8.85753 11.9168L11.6532 9.14267C11.7321 9.06441 11.7321 8.93687 11.6532 8.85865L10.8048 8.01773C10.7705 7.98375 10.7153 7.98377 10.681 8.01776L10.5861 8.11191C10.4673 8.22982 10.2756 8.22982 10.1568 8.11191C10.0367 7.9927 10.0367 7.79844 10.1568 7.67924L12.1384 5.71301C12.2572 5.5951 12.4489 5.5951 12.5677 5.71301C12.6878 5.83222 12.6878 6.02649 12.5677 6.1457L12.4762 6.23646C12.4421 6.2703 12.4421 6.32545 12.4762 6.3593Z" fill="black"/>
</svg>
