<svg width="24" height="24" viewBox="0 0 24 24" fill="none" xmlns="http://www.w3.org/2000/svg">
<path fill-rule="evenodd" clip-rule="evenodd" d="M4 4.54286C4 4.24305 4.24305 4 4.54286 4C4.84267 4 5.08571 4.24305 5.08571 4.54286V5.08571H4.54286C4.24305 5.08571 4 4.84267 4 4.54286ZM7.08571 4.54286C7.08571 4.35655 7.06568 4.17491 7.02764 4H15.4286C16.5331 4 17.4286 4.89543 17.4286 6V14.9143H10.1714C9.06686 14.9143 8.17143 15.8097 8.17143 16.9143V19.4571C8.17143 19.757 7.92838 20 7.62857 20C7.32876 20 7.08571 19.757 7.08571 19.4571V6.08571V4.54286ZM19.4286 6V14.9143H20C21.1046 14.9143 22 15.8097 22 16.9143V19.4571C22 20.8615 20.8615 22 19.4571 22H7.62857C6.22419 22 5.08571 20.8615 5.08571 19.4571V7.08571H4.54286C3.13848 7.08571 2 5.94724 2 4.54286C2 3.13848 3.13848 2 4.54286 2H15.4286C17.6377 2 19.4286 3.79086 19.4286 6ZM19.4571 20H10.1134C10.1514 19.8251 10.1714 19.6435 10.1714 19.4571V16.9143L18.4286 16.9143L20 16.9143V19.4571C20 19.757 19.757 20 19.4571 20ZM10 12C9.44772 12 9 12.4477 9 13C9 13.5523 9.44772 14 10 14H14.5C15.0523 14 15.5 13.5523 15.5 13C15.5 12.4477 15.0523 12 14.5 12H10ZM12.962 6.15954C12.9741 6.09855 12.9804 6.03552 12.9804 5.97101C12.9804 5.43474 12.5415 5 12 5C11.4585 5 11.0196 5.43474 11.0196 5.97101C11.0196 6.03552 11.0259 6.09855 11.038 6.15954L9.65866 6.15963C9.44045 6.15963 9.26356 6.33483 9.26356 6.55094C9.26356 6.76643 9.43944 6.94124 9.65678 6.94224L9 8.54163C9.00051 9.56522 10.9614 9.56522 10.9612 8.54163L10.3044 6.94217L11.6049 6.94208V10.2174H10.9464C10.7282 10.2174 10.5513 10.3926 10.5513 10.6087C10.5513 10.8248 10.7282 11 10.9464 11H13.0536C13.2718 11 13.4487 10.8248 13.4487 10.6087C13.4487 10.3926 13.2718 10.2174 13.0536 10.2174H12.3951V6.94208L13.6956 6.9423L13.0388 8.54169C13.0393 9.56528 15.0002 9.56528 15 8.54169L14.3432 6.94224C14.5605 6.94124 14.7364 6.76643 14.7364 6.55094C14.7364 6.33483 14.5595 6.15963 14.3413 6.15963L12.962 6.15954Z" fill="black"/>
</svg>
