<svg width="24" height="24" viewBox="0 0 24 24" fill="none" xmlns="http://www.w3.org/2000/svg">
<path fill-rule="evenodd" clip-rule="evenodd" d="M4 4.54286C4 4.24305 4.24305 4 4.54286 4C4.84267 4 5.08571 4.24305 5.08571 4.54286V5.08571H4.54286C4.24305 5.08571 4 4.84267 4 4.54286ZM7.08571 4.54286C7.08571 4.35655 7.06568 4.17491 7.02764 4H15.4286C16.5331 4 17.4286 4.89543 17.4286 6V14.9143H10.1714C9.06686 14.9143 8.17143 15.8097 8.17143 16.9143V19.4571C8.17143 19.757 7.92838 20 7.62857 20C7.32876 20 7.08571 19.757 7.08571 19.4571V6.08571V4.54286ZM19.4286 6V14.9143H20C21.1046 14.9143 22 15.8097 22 16.9143V19.4571C22 20.8615 20.8615 22 19.4571 22H7.62857C6.22419 22 5.08571 20.8615 5.08571 19.4571V7.08571H4.54286C3.13848 7.08571 2 5.94724 2 4.54286C2 3.13848 3.13848 2 4.54286 2H15.4286C17.6377 2 19.4286 3.79086 19.4286 6ZM19.4571 20H10.1134C10.1514 19.8251 10.1714 19.6435 10.1714 19.4571V16.9143L18.4286 16.9143L20 16.9143V19.4571C20 19.757 19.757 20 19.4571 20ZM12.5 6C12.1134 6 11.8 6.3134 11.8 6.7C11.8 7.01084 12.0026 7.27436 12.283 7.3657L11.5585 8.41965C11.5454 8.43865 11.5238 8.45 11.5008 8.45H10.3814C10.3958 8.39406 10.4035 8.33542 10.4035 8.27499C10.4035 7.88839 10.0901 7.57499 9.7035 7.57499H9.7C9.3134 7.57499 9 7.88839 9 8.27499C9 8.66158 9.3134 8.97498 9.7 8.97498H9.7035C9.91401 8.97498 10.1028 8.88205 10.2311 8.73498L10.9161 9.81245C10.9306 9.83537 10.9306 9.86464 10.9161 9.88756L10.2312 10.965C10.1028 10.8179 9.91402 10.725 9.7035 10.725H9.7C9.3134 10.725 9 11.0384 9 11.425C9 11.8116 9.3134 12.125 9.7 12.125H9.7035C10.0901 12.125 10.4035 11.8116 10.4035 11.425C10.4035 11.3646 10.3958 11.3059 10.3815 11.25L11.5008 11.25C11.5238 11.25 11.5454 11.2614 11.5585 11.2804L12.2829 12.3343C12.0026 12.4256 11.8 12.6891 11.8 13C11.8 13.3866 12.1134 13.7 12.5 13.7H12.5035C12.8901 13.7 13.2035 13.3866 13.2035 13C13.2035 12.6921 13.0047 12.4306 12.7285 12.3369L13.5025 11.2762C13.5142 11.2596 13.532 11.25 13.5509 11.25L14.622 11.25C14.6076 11.3059 14.6 11.3645 14.6 11.425C14.6 11.8116 14.9134 12.125 15.3 12.125H15.3C15.6866 12.125 16 11.8116 16 11.425C16 11.0384 15.6866 10.725 15.3 10.725H15.3C15.1068 10.725 14.9318 10.8032 14.8052 10.9298L14.1447 9.89077C14.1292 9.86637 14.1292 9.83352 14.1447 9.80913L14.8052 8.77011C14.9318 8.8967 15.1067 8.97498 15.3 8.97498H15.3C15.6866 8.97498 16 8.66158 16 8.27499C16 7.88839 15.6866 7.57499 15.3 7.57499H15.3C14.9134 7.57499 14.6 7.88839 14.6 8.27499C14.6 8.3354 14.6076 8.39402 14.622 8.44994H13.5509C13.532 8.44994 13.5142 8.44028 13.5025 8.42367L12.7284 7.36306C13.0047 7.26936 13.2035 7.0079 13.2035 6.7C13.2035 6.3134 12.8901 6 12.5035 6H12.5Z" fill="black"/>
</svg>
