<svg width="24" height="24" viewBox="0 0 24 24" fill="none" xmlns="http://www.w3.org/2000/svg">
<path fill-rule="evenodd" clip-rule="evenodd" d="M4 4.54286C4 4.24305 4.24305 4 4.54286 4C4.84267 4 5.08571 4.24305 5.08571 4.54286V5.08571H4.54286C4.24305 5.08571 4 4.84267 4 4.54286ZM7.08571 4.54286C7.08571 4.35655 7.06568 4.17491 7.02764 4H15.4286C16.5331 4 17.4286 4.89543 17.4286 6V14.9143H10.1714C9.06686 14.9143 8.17143 15.8097 8.17143 16.9143V19.4571C8.17143 19.757 7.92838 20 7.62857 20C7.32876 20 7.08571 19.757 7.08571 19.4571V6.08571V4.54286ZM19.4286 6V14.9143H20C21.1046 14.9143 22 15.8097 22 16.9143V19.4571C22 20.8615 20.8615 22 19.4571 22H7.62857C6.22419 22 5.08571 20.8615 5.08571 19.4571V7.08571H4.54286C3.13848 7.08571 2 5.94724 2 4.54286C2 3.13848 3.13848 2 4.54286 2H15.4286C17.6377 2 19.4286 3.79086 19.4286 6ZM19.4571 20H10.1134C10.1514 19.8251 10.1714 19.6435 10.1714 19.4571V16.9143L18.4286 16.9143L20 16.9143V19.4571C20 19.757 19.757 20 19.4571 20ZM10 12C9.44772 12 9 12.4477 9 13C9 13.5523 9.44772 14 10 14H14.5C15.0523 14 15.5 13.5523 15.5 13C15.5 12.4477 15.0523 12 14.5 12H10ZM10.6667 6.49398V6.33333C10.6667 5.59695 11.2636 5 12 5C12.7364 5 13.3333 5.59695 13.3333 6.33333V6.49398C13.3333 7.04596 13.2048 7.59037 12.958 8.08407L12.7836 8.43277C12.7067 8.58659 12.6667 8.7562 12.6667 8.92817C12.6667 9.33603 12.9973 9.66667 13.4052 9.66667H14.1111C14.602 9.66667 15 10.0646 15 10.5556C15 10.801 14.801 11 14.5556 11H9.44444C9.19898 11 9 10.801 9 10.5556C9 10.0646 9.39797 9.66667 9.88889 9.66667H10.5948C11.0027 9.66667 11.3333 9.33603 11.3333 8.92817C11.3333 8.7562 11.2933 8.58659 11.2164 8.43277L11.042 8.08407C10.7952 7.59037 10.6667 7.04596 10.6667 6.49398Z" fill="black"/>
</svg>
