<svg width="24" height="24" viewBox="0 0 24 24" fill="none" xmlns="http://www.w3.org/2000/svg">
<path fill-rule="evenodd" clip-rule="evenodd" d="M4 4.54286C4 4.24305 4.24305 4 4.54286 4C4.84267 4 5.08571 4.24305 5.08571 4.54286V5.08571H4.54286C4.24305 5.08571 4 4.84267 4 4.54286ZM7.08571 4.54286C7.08571 4.35655 7.06568 4.17491 7.02764 4H15.4286C16.5331 4 17.4286 4.89543 17.4286 6V14.9143H10.1714C9.06686 14.9143 8.17143 15.8097 8.17143 16.9143V19.4571C8.17143 19.757 7.92838 20 7.62857 20C7.32876 20 7.08571 19.757 7.08571 19.4571V6.08571V4.54286ZM19.4286 6V14.9143H20C21.1046 14.9143 22 15.8097 22 16.9143V19.4571C22 20.8615 20.8615 22 19.4571 22H7.62857C6.22419 22 5.08571 20.8615 5.08571 19.4571V7.08571H4.54286C3.13848 7.08571 2 5.94724 2 4.54286C2 3.13848 3.13848 2 4.54286 2H15.4286C17.6377 2 19.4286 3.79086 19.4286 6ZM19.4571 20H10.1134C10.1514 19.8251 10.1714 19.6435 10.1714 19.4571V16.9143L18.4286 16.9143L20 16.9143V19.4571C20 19.757 19.757 20 19.4571 20ZM10.9444 7.88287V7.33333C10.9444 6.59695 11.5414 6 12.2778 6H12.7222C13.4586 6 14.0556 6.59695 14.0556 7.33333V7.88287C14.0556 8.43485 13.927 8.97925 13.6802 9.47296L13.4142 10.0049C13.3245 10.1844 13.2778 10.3822 13.2778 10.5829C13.2778 11.0587 13.6635 11.4444 14.1394 11.4444H14.963C15.5357 11.4444 16 11.9087 16 12.4815C16 12.7679 15.7679 13 15.4815 13H9.51852C9.23215 13 9 12.7679 9 12.4815C9 11.9087 9.4643 11.4444 10.037 11.4444H10.8606C11.3365 11.4444 11.7222 11.0587 11.7222 10.5829C11.7222 10.3822 11.6755 10.1844 11.5858 10.0049L11.3198 9.47296C11.073 8.97925 10.9444 8.43485 10.9444 7.88287Z" fill="black"/>
</svg>
