<svg width="24" height="24" viewBox="0 0 24 24" fill="none" xmlns="http://www.w3.org/2000/svg">
<path d="M8 18H6.23607C5.47852 18 4.786 18.428 4.44721 19.1056L3.72361 20.5528C3.39116 21.2177 3.87465 22 4.61803 22H19.382C20.1253 22 20.6088 21.2177 20.2764 20.5528L19.5528 19.1056C19.214 18.428 18.5215 18 17.7639 18H16M8 18L6.43849 9.41172C6.18334 8.00835 6.95158 6.61937 8.27593 6.08963L8.5 6M8 18H16M16 18L17.5615 9.41171C17.8167 8.00835 17.0484 6.61937 15.7241 6.08963L15.5 6M8.5 6L11.1758 5.23548C11.7145 5.08157 12.2855 5.08157 12.8242 5.23548L15.5 6M8.5 6V4.60555C8.5 3.60249 9.0013 2.6658 9.8359 2.1094L10 2M15.5 6V4.60555C15.5 3.60249 14.9987 2.6658 14.1641 2.1094L14 2M14 12C14 13.1046 13.1046 14 12 14C10.8954 14 10 13.1046 10 12C10 10.8954 10.8954 10 12 10C13.1046 10 14 10.8954 14 12Z" stroke="black" stroke-width="2" stroke-linecap="round" stroke-linejoin="round"/>
</svg>
