<svg width="24" height="24" viewBox="0 0 24 24" fill="none" xmlns="http://www.w3.org/2000/svg">
<path fill-rule="evenodd" clip-rule="evenodd" d="M9 2C7.12303 2 5.54801 3.29279 5.1168 5.03652C4.52094 5.09139 3.92023 5.22001 3.40387 5.49859C2.99352 5.71998 2.62573 6.04134 2.36791 6.49167C2.11232 6.93812 2 7.44968 2 8V21C2 21.5523 2.44772 22 3 22H6H10H14H18H21C21.5523 22 22 21.5523 22 21V8C22 7.44968 21.8877 6.93812 21.6321 6.49167C21.3743 6.04134 21.0065 5.71997 20.5961 5.49859C20.0798 5.22001 19.4791 5.09139 18.8832 5.03652C18.452 3.29279 16.877 2 15 2H9ZM4.35349 7.25877C4.51 7.17433 4.72356 7.10919 5 7.06539V20H4V8C4 7.7219 4.05557 7.56924 4.1036 7.48536C4.1494 7.40536 4.22094 7.33028 4.35349 7.25877ZM9 20H7V6C7 4.89543 7.89543 4 9 4H15C16.1046 4 17 4.89543 17 6V20H15V16C15 14.8954 14.1046 14 13 14H11C9.89543 14 9 14.8954 9 16V20ZM20 20H19V7.06539C19.2764 7.10919 19.49 7.17433 19.6465 7.25877C19.7791 7.33028 19.8506 7.40536 19.8964 7.48536C19.9444 7.56924 20 7.7219 20 8V20ZM13 16V20H11V16H13ZM12.2002 11.9114C13.7442 11.218 14.8974 10.4374 14.9935 7.52895C15.0013 7.29411 14.8364 7.09017 14.6085 7.03305C13.884 6.85151 12.9862 6.56369 12.2807 6.16959C12.1068 6.07243 11.8932 6.07243 11.7193 6.16959C11.0138 6.56369 10.116 6.85151 9.39154 7.03305C9.16361 7.09017 8.99873 7.29411 9.00649 7.52895C9.10256 10.4374 10.2558 11.218 11.7998 11.9114C11.927 11.9685 12.073 11.9685 12.2002 11.9114Z" fill="black"/>
</svg>
