<svg width="24" height="24" viewBox="0 0 24 24" fill="none" xmlns="http://www.w3.org/2000/svg">
<path fill-rule="evenodd" clip-rule="evenodd" d="M12 3L12 2H11.9999L12 3ZM11.9995 4L11.9996 4H12.0003L12.0004 4L12.0077 4.00004L12.042 4.00036C12.0735 4.00075 12.1217 4.00154 12.1852 4.00316C12.3124 4.00641 12.5002 4.01299 12.7364 4.02629C13.2095 4.05294 13.872 4.10635 14.6248 4.21301C16.1554 4.42988 17.9554 4.85324 19.3102 5.64592C19.5499 5.78617 19.6987 6.02164 19.6977 6.67286C19.6971 6.99758 19.6575 7.35976 19.6036 7.77523C19.5949 7.8426 19.5857 7.91196 19.5763 7.98284L19.5762 7.98328L19.5762 7.98341C19.5307 8.32604 19.4806 8.70383 19.4562 9.0609C19.3873 10.0714 19.559 11.2449 19.7179 12.3307L19.7179 12.3308L19.7179 12.3308C19.7465 12.5268 19.7748 12.7198 19.8011 12.9086C19.9847 14.2239 20.096 15.4205 19.8864 16.4537C19.6898 17.4225 19.2114 18.2495 18.124 18.8732C16.9791 19.53 15.0889 20 12 20C8.911 20 7.02082 19.53 5.8758 18.8732C4.78833 18.2495 4.30988 17.4224 4.11326 16.4536C3.90356 15.4204 4.01485 14.2238 4.19837 12.9086C4.22472 12.7197 4.25297 12.5266 4.28165 12.3306C4.44048 11.2448 4.61214 10.0714 4.54321 9.0609C4.51885 8.70379 4.4687 8.32596 4.42322 7.9833L4.42322 7.9833C4.41379 7.91226 4.40457 7.84274 4.39581 7.77523C4.34193 7.35976 4.30232 6.99758 4.30178 6.67286C4.30069 6.02164 4.44951 5.78617 4.68921 5.64592C6.04399 4.85325 7.84415 4.42988 9.37491 4.21301C10.1278 4.10635 10.7903 4.05294 11.2634 4.02629C11.4996 4.01299 11.6875 4.00641 11.8146 4.00316C11.8782 4.00154 11.9264 4.00075 11.9579 4.00036L11.9922 4.00004L11.9995 4ZM12 3C11.9999 2 11.9997 2 11.9995 2H11.999L11.9976 2L11.9935 2.00001L11.9802 2.00007L11.9334 2.00051C11.8935 2.001 11.8364 2.00195 11.7635 2.00381C11.618 2.00753 11.4095 2.01489 11.151 2.02946C10.6347 2.05854 9.9146 2.11658 9.09436 2.23279C7.47895 2.46165 5.37124 2.92968 3.6792 3.91969C2.52417 4.59549 2.30024 5.74993 2.30178 6.6762C2.30256 7.14023 2.35811 7.61369 2.41242 8.03245C2.42293 8.11349 2.43334 8.19217 2.44348 8.26882L2.44348 8.26883C2.48852 8.60936 2.52825 8.90968 2.54785 9.19701C2.60086 9.97418 2.46822 10.8913 2.30954 11.9884L2.30953 11.9885C2.27945 12.1965 2.24843 12.411 2.21756 12.6322C2.03511 13.9397 1.86803 15.4462 2.15322 16.8514C2.45149 18.321 3.24118 19.6677 4.88073 20.6081C6.46274 21.5155 8.75847 22 12 22C15.2414 22 17.5371 21.5155 19.1191 20.6081C20.7586 19.6677 21.5483 18.321 21.8465 16.8514C22.1316 15.4462 21.9644 13.9397 21.7819 12.6321C21.7511 12.4112 21.7201 12.197 21.6901 11.9893L21.69 11.9886C21.5313 10.8914 21.3986 9.97421 21.4516 9.19701C21.4712 8.90969 21.5109 8.60939 21.556 8.26888L21.556 8.26878C21.5661 8.19214 21.5765 8.11347 21.587 8.03245C21.6413 7.61369 21.6969 7.14023 21.6977 6.6762C21.6992 5.74994 21.4753 4.59549 20.3202 3.91969C18.6282 2.92969 16.5206 2.46165 14.9053 2.23279C14.0851 2.11658 13.3651 2.05854 12.8489 2.02946C12.5904 2.01489 12.3819 2.00753 12.2364 2.00381C12.1635 2.00195 12.1064 2.001 12.0665 2.00051L12.0197 2.00007L12.0064 2.00001L12.0023 2L12.0009 2H12.0004C12.0002 2 12 2 12 3ZM11.5348 8.30803C11.7056 7.89732 12.2876 7.89732 12.4585 8.30803L13.2482 10.2062C13.3198 10.3783 13.4811 10.4963 13.6668 10.5124L15.5421 10.6749C15.9715 10.7121 16.1559 11.2387 15.8435 11.5356L14.4189 12.8893C14.2897 13.0121 14.2356 13.1944 14.277 13.3678L14.7577 15.3823C14.8609 15.815 14.3901 16.157 14.0104 15.9251L12.2573 14.8547C12.0973 14.7569 11.896 14.7569 11.7359 14.8547L9.98286 15.9251C9.60316 16.157 9.13234 15.815 9.23557 15.3823L9.7164 13.3671C9.75769 13.1941 9.70391 13.0121 9.57517 12.8893L8.15539 11.5349C7.84392 11.2378 8.02848 10.7122 8.45738 10.6749L10.3265 10.5125C10.5122 10.4963 10.6735 10.3783 10.745 10.2063L11.5348 8.30803Z" fill="black"/>
</svg>
