<svg width="24" height="24" viewBox="0 0 24 24" fill="none" xmlns="http://www.w3.org/2000/svg">
<path fill-rule="evenodd" clip-rule="evenodd" d="M6.46014 4.01515C7.49217 2.67226 9.0101 1.9091 11.0362 1.73054C11.1538 1.30914 11.5405 1 11.9995 1C12.4584 1 12.8451 1.30914 12.9627 1.73054C14.9888 1.9091 16.5068 2.67226 17.5388 4.01515C18.6792 5.4991 19.0931 7.5282 19.195 9.74143C19.2234 10.3588 19.3924 10.9362 19.7 11.4134L20.3433 12.4116C20.9865 13.4098 20.2699 14.7241 19.0824 14.7241H18.3328V16.6667C18.3328 20.1645 15.4973 23 11.9995 23C8.50166 23 5.66613 20.1645 5.66613 16.6667V14.7241H4.91652C3.72902 14.7241 3.01239 13.4098 3.65566 12.4116L4.29896 11.4134C4.60649 10.9362 4.77551 10.3588 4.80394 9.74143C4.90587 7.5282 5.3197 5.4991 6.46014 4.01515ZM7.66613 14.7241H16.3328V16.6667C16.3328 19.0599 14.3927 21 11.9995 21C9.60623 21 7.66613 19.0599 7.66613 16.6667V14.7241ZM6.80183 9.83344C6.89812 7.74255 7.28595 6.22275 8.04594 5.23385C8.75682 4.30884 9.92091 3.68966 11.9995 3.68966C14.078 3.68966 15.2421 4.30884 15.953 5.23385C16.713 6.22275 17.1008 7.74255 17.1971 9.83344C17.2394 10.7515 17.4937 11.682 18.0188 12.4968L18.1654 12.7241H17.3328H6.66613H5.83358L5.9801 12.4968C6.5052 11.682 6.75955 10.7515 6.80183 9.83344ZM12.1993 10.9108C13.1715 10.4663 13.8973 9.94196 13.9895 8.1523C14.0016 7.91765 13.8356 7.71558 13.6085 7.65513C13.1849 7.54233 12.694 7.37895 12.2829 7.16499C12.1062 7.073 11.8927 7.073 11.716 7.16499C11.305 7.37895 10.8141 7.54233 10.3904 7.65513C10.1634 7.71558 9.9973 7.91765 10.0094 8.1523C10.1017 9.94196 10.8274 10.4663 11.7996 10.9108C11.9265 10.9688 12.0725 10.9688 12.1993 10.9108Z" fill="black"/>
</svg>
