<svg width="24" height="24" viewBox="0 0 24 24" fill="none" xmlns="http://www.w3.org/2000/svg">
<path fill-rule="evenodd" clip-rule="evenodd" d="M12.8714 1.46573C12.3747 1.03421 11.6253 1.03421 11.1286 1.46573C10.9686 1.60471 10.6983 1.76998 10.2836 1.97111C9.90189 2.15624 9.4588 2.34353 8.95227 2.55763L8.85009 2.60083C7.78016 3.05329 6.47892 3.60927 5.31824 4.39066C4.14862 5.17808 3.05413 6.23778 2.45873 7.73412C1.87247 9.20749 1.81999 10.9779 2.4652 13.1118V15.948V17.8952C2.4652 19.5229 3.45551 21.0346 5.03971 21.5904C7.68476 22.5185 9.92272 23.0004 12.1522 22.9999C14.3848 22.9994 16.5417 22.5154 19.0244 21.6031C20.5778 21.0322 21.5348 19.5357 21.5348 17.9366V15.948V13.1118C22.18 10.9779 22.1275 9.20749 21.5413 7.73412C20.9459 6.23778 19.8514 5.17808 18.6818 4.39066C17.5211 3.60926 16.2198 3.05329 15.1499 2.60083L15.0477 2.55762C14.5412 2.34353 14.0981 2.15624 13.7164 1.97111C13.3016 1.76998 13.0314 1.60471 12.8714 1.46573ZM4.4652 14.948V13.961H19.5348V14.948H4.4652ZM19.683 8.47355C20.0242 9.33105 20.1407 10.4514 19.7763 11.961H4.22371C3.85928 10.4514 3.97581 9.33105 4.31702 8.47355C4.71347 7.47721 5.4662 6.70206 6.43516 6.04972C7.41307 5.39137 8.54176 4.9027 9.62907 4.44289L9.74546 4.3937C10.2362 4.18636 10.7258 3.97945 11.1564 3.77065C11.444 3.63116 11.7339 3.47758 12 3.3041C12.2661 3.47758 12.556 3.63116 12.8436 3.77065C13.2742 3.97945 13.7638 4.18636 14.2545 4.3937L14.3709 4.44289C15.4582 4.9027 16.5869 5.39137 17.5648 6.04972C18.5338 6.70206 19.2865 7.47721 19.683 8.47355ZM4.4652 16.948H19.5348V17.9366C19.5348 18.7538 19.049 19.4632 18.3346 19.7258C15.9923 20.5865 14.0765 20.9995 12.1518 20.9999C10.2241 21.0003 8.22021 20.5868 5.70189 19.7032C4.96689 19.4453 4.4652 18.7253 4.4652 17.8952V16.948ZM12.2001 10.411C13.4582 9.84224 14.3975 9.18915 14.4921 6.84118C14.5016 6.60641 14.3363 6.40271 14.1087 6.34426C13.5335 6.19654 12.8409 5.971 12.2819 5.66763C12.1068 5.57261 11.8932 5.57261 11.7181 5.66763C11.1591 5.971 10.4665 6.19654 9.89131 6.34426C9.66373 6.40271 9.4984 6.60641 9.50787 6.84118C9.60254 9.18915 10.5418 9.84224 11.7999 10.411C11.9269 10.4685 12.0731 10.4685 12.2001 10.411Z" fill="black"/>
</svg>
