<svg width="24" height="24" viewBox="0 0 24 24" fill="none" xmlns="http://www.w3.org/2000/svg">
<path fill-rule="evenodd" clip-rule="evenodd" d="M11.9994 2L11.9994 1H11.9994L11.9994 2ZM11.9989 3L11.999 3H11.9997L11.9999 3L12.0072 3.00004L12.0415 3.00036C12.0729 3.00075 12.1211 3.00154 12.1847 3.00316C12.3118 3.00641 12.4997 3.01299 12.7358 3.02629C13.2089 3.05294 13.8714 3.10635 14.6242 3.21301C16.1548 3.42988 17.9549 3.85324 19.3097 4.64592C19.5494 4.78617 19.6982 5.02164 19.6971 5.67286C19.6966 5.99758 19.6569 6.35976 19.6031 6.77523C19.5943 6.8426 19.5851 6.91196 19.5757 6.98284L19.5756 6.98328L19.5756 6.98341C19.5302 7.32604 19.48 7.70383 19.4557 8.0609C19.3744 9.25186 19.7283 10.4431 20.0271 11.4488L20.0271 11.4488C20.0485 11.521 20.0697 11.5923 20.0904 11.6625C20.4227 12.7897 20.6682 13.7364 20.562 14.6638C20.3739 16.3062 18.9493 18.4933 11.9994 20.941C5.04946 18.4933 3.62472 16.3062 3.43656 14.6637C3.33032 13.7363 3.57577 12.7897 3.908 11.6625C3.92868 11.5923 3.94983 11.5211 3.97127 11.4489L3.97133 11.4487C4.27005 10.443 4.62388 9.25181 4.54265 8.0609C4.51829 7.70379 4.46814 7.32596 4.42266 6.9833C4.41323 6.91227 4.404 6.84274 4.39525 6.77523C4.34136 6.35976 4.30176 5.99758 4.30121 5.67286C4.30013 5.02164 4.44895 4.78617 4.68864 4.64592C6.04342 3.85325 7.84359 3.42988 9.37435 3.21301C10.1272 3.10635 10.7898 3.05294 11.2629 3.02629C11.499 3.01299 11.6869 3.00641 11.8141 3.00316C11.8776 3.00154 11.9259 3.00075 11.9573 3.00036L11.9916 3.00004L11.9989 3ZM11.9994 2C11.9994 1 11.9992 1 11.9989 1H11.9984L11.997 1L11.9929 1.00001L11.9796 1.00007L11.9329 1.00051C11.8929 1.001 11.8358 1.00195 11.763 1.00381C11.6174 1.00753 11.4089 1.01489 11.1504 1.02946C10.6341 1.05854 9.91403 1.11658 9.0938 1.23279C7.47839 1.46165 5.37068 1.92968 3.67863 2.91969C2.52361 3.59549 2.29967 4.74993 2.30122 5.6762C2.30199 6.14023 2.35755 6.61369 2.41186 7.03245C2.42236 7.11349 2.43277 7.19217 2.44291 7.26882L2.44291 7.26883C2.48796 7.60936 2.52768 7.90968 2.54728 8.19701C2.60318 9.01648 2.34756 9.88324 2.01585 11.008L1.98959 11.097C1.66851 12.1864 1.29078 13.5053 1.44956 14.8913C1.78852 17.8503 4.40516 20.4391 11.6734 22.9454C11.8846 23.0182 12.1142 23.0182 12.3254 22.9454C19.5936 20.4391 22.2102 17.8503 22.549 14.8913C22.7077 13.5053 22.3299 12.1864 22.0088 11.097L21.9826 11.0081L21.9826 11.0081C21.6508 9.8833 21.3951 9.01649 21.451 8.19701C21.4706 7.90969 21.5103 7.60939 21.5554 7.26888C21.5655 7.19221 21.5759 7.11351 21.5864 7.03245C21.6408 6.61369 21.6963 6.14023 21.6971 5.6762C21.6986 4.74994 21.4747 3.59549 20.3197 2.91969C18.6276 1.92969 16.5201 1.46165 14.9048 1.23279C14.0846 1.11658 13.3645 1.05854 12.8483 1.02946C12.5898 1.01489 12.3814 1.00753 12.2358 1.00381C12.163 1.00195 12.1058 1.001 12.0659 1.00051L12.0192 1.00007L12.0058 1.00001L12.0018 1L12.0004 1H11.9998C11.9996 1 11.9994 1 11.9994 2ZM11.5347 8.30803C11.7055 7.89732 12.2875 7.89732 12.4584 8.30803L13.2481 10.2062C13.3197 10.3783 13.481 10.4963 13.6667 10.5124L15.542 10.6749C15.9714 10.7121 16.1558 11.2387 15.8434 11.5356L14.4188 12.8893C14.2896 13.0121 14.2355 13.1944 14.2769 13.3678L14.7575 15.3823C14.8608 15.815 14.39 16.157 14.0103 15.9251L12.2572 14.8547C12.0972 14.7569 11.8958 14.7569 11.7358 14.8547L9.98275 15.9251C9.60305 16.157 9.13223 15.815 9.23546 15.3823L9.71629 13.3671C9.75758 13.1941 9.7038 13.0121 9.57506 12.8893L8.15528 11.5349C7.84381 11.2378 8.02837 10.7122 8.45727 10.6749L10.3264 10.5125C10.5121 10.4963 10.6733 10.3783 10.7449 10.2063L11.5347 8.30803Z" fill="black"/>
</svg>
