<svg width="24" height="24" viewBox="0 0 24 24" fill="none" xmlns="http://www.w3.org/2000/svg">
<path fill-rule="evenodd" clip-rule="evenodd" d="M11.141 4.0246C11.648 3.65586 12.3503 3.65586 12.8573 4.0246C15.1206 5.67069 17.1486 5.95385 19.9698 5.99411C19.9717 5.99414 19.9732 5.99432 19.9744 5.99457C20.1894 9.77523 19.7613 12.6091 18.5471 14.9128C17.3377 17.2074 15.2825 19.0999 11.9992 20.8691C8.84747 19.1708 6.8288 17.3595 5.603 15.1907C4.37406 13.0164 3.87721 10.3684 3.98503 6.87618C3.99909 6.42075 4.39544 5.99313 4.97869 5.96859C7.33729 5.86932 9.14824 5.47398 11.141 4.0246ZM14.0337 2.40716C12.8254 1.52834 11.173 1.52834 9.96465 2.40716C8.39372 3.54971 7.01006 3.88132 4.8946 3.97035C3.39468 4.03348 2.03626 5.18586 1.98598 6.81446C1.87165 10.5175 2.38954 13.5698 3.86186 16.1748C5.33555 18.7821 7.70061 20.8269 11.065 22.6376C11.6468 22.9507 12.3516 22.9507 12.9333 22.6376C16.4401 20.7503 18.8596 18.6093 20.3164 15.8453C21.7685 13.0902 22.198 9.84056 21.9702 5.86514C21.909 4.79672 21.0193 4.00889 19.9983 3.99432C17.3387 3.95636 15.8051 3.69554 14.0337 2.40716ZM11.535 8.30798C11.7058 7.89727 12.2878 7.89727 12.4587 8.30798L13.2484 10.2062C13.32 10.3782 13.4813 10.4962 13.667 10.5123L15.5423 10.6749C15.9717 10.7121 16.1561 11.2386 15.8437 11.5355L14.4191 12.8892C14.2899 13.012 14.2358 13.1943 14.2772 13.3677L14.7579 15.3823C14.8611 15.815 14.3903 16.1569 14.0106 15.9251L12.2575 14.8546C12.0975 14.7569 11.8962 14.7569 11.7361 14.8546L9.98305 15.9251C9.60335 16.1569 9.13253 15.815 9.23577 15.3823L9.7166 13.3671C9.75789 13.194 9.7041 13.0121 9.57536 12.8893L8.15559 11.5349C7.84412 11.2377 8.02867 10.7122 8.45758 10.6749L10.3267 10.5124C10.5124 10.4963 10.6736 10.3783 10.7452 10.2063L11.535 8.30798Z" fill="black"/>
</svg>
