<svg width="24" height="24" viewBox="0 0 24 24" fill="none" xmlns="http://www.w3.org/2000/svg">
<path d="M2 22.0004C2 22.0004 4.03843 19.4723 8.91632 18.6667M8.11811 10.252C8.11811 12 8.94386 15.031 10.1592 15.6681M8.11811 10.252H15.8819M8.11811 10.252H6L8.11719 8.25195C8.11719 6 9.44862 3 11.9991 3M10.1592 15.6681C10.707 15.9552 11.3339 16.1182 12 16.1182C12.6661 16.1182 13.2931 15.9552 13.8408 15.6681M10.1592 15.6681L8.91632 18.6667M8.91632 18.6667L12 22.0004L15.0837 18.6667M15.8819 10.252C15.8819 12 15.0561 15.031 13.8408 15.6681M15.8819 10.252H17.9982L15.881 8.25195C15.881 6 14.5495 3 11.9991 3M13.8408 15.6681L15.0837 18.6667M22 22.0004C22 22.0004 19.9616 19.4723 15.0837 18.6667M11.9991 3V2" stroke="black" stroke-width="2" stroke-linecap="round" stroke-linejoin="round"/>
</svg>
