<svg width="24" height="24" viewBox="0 0 24 24" fill="none" xmlns="http://www.w3.org/2000/svg">
<path d="M2 20.0004C2 20.0004 4.03843 17.4723 8.91632 16.6667L10.1592 13.6681M10.1592 13.6681C8.94386 13.031 8.11811 10 8.11811 8.25195C8.11811 6 9.44954 4 12 4C14.5505 4 15.8819 6 15.8819 8.25195C15.8819 10 15.0561 13.031 13.8408 13.6681M10.1592 13.6681C10.707 13.9552 11.3339 14.1182 12 14.1182C12.6661 14.1182 13.2931 13.9552 13.8408 13.6681M13.8408 13.6681L15.0837 16.6667C19.9616 17.4723 22 20.0004 22 20.0004" stroke="black" stroke-width="2" stroke-linecap="round" stroke-linejoin="round"/>
</svg>
