<svg width="24" height="24" viewBox="0 0 24 24" fill="none" xmlns="http://www.w3.org/2000/svg">
<path d="M3.54286 2C2.69076 2 2 2.69076 2 3.54286C2 4.39495 2.69076 5.08571 3.54286 5.08571H5.08571M3.54286 2C4.39495 2 5.08571 2.69076 5.08571 3.54286V5.08571M3.54286 2H16.4286C18.0854 2 19.4286 3.34315 19.4286 5V16.9143M6.62857 22C7.48067 22 8.17143 21.3092 8.17143 20.4571V17.9143C8.17143 17.362 8.61914 16.9143 9.17143 16.9143H19.4286M6.62857 22C5.77647 22 5.08571 21.3092 5.08571 20.4571V5.08571M6.62857 22H20.4571C21.3092 22 22 21.3092 22 20.4571V17.9143C22 17.362 21.5523 16.9143 21 16.9143L19.4286 16.9143M13.3728 10.3728C14.6019 9.14371 14.6019 7.15094 13.3728 5.92183C12.1437 4.69272 10.1509 4.69272 8.92183 5.92183C7.69272 7.15094 7.69272 9.14371 8.92183 10.3728C10.1509 11.6019 12.1437 11.6019 13.3728 10.3728ZM13.3728 10.3728L14.7443 11.7443M14.7443 11.7443L14.8101 11.6784C14.8979 11.5906 15.0402 11.5906 15.128 11.6784L15.9342 12.4845C16.0219 12.5723 16.0219 12.7147 15.9342 12.8025L15.8025 12.9342C15.7147 13.0219 15.5723 13.0219 15.4845 12.9342L14.6784 12.128C14.5906 12.0402 14.5906 11.8979 14.6784 11.8101L14.7443 11.7443ZM14.7443 11.7443L15.5 12.5" stroke="black" stroke-width="2" stroke-linecap="round" stroke-linejoin="round"/>
</svg>
