<svg width="24" height="24" viewBox="0 0 24 24" fill="none" xmlns="http://www.w3.org/2000/svg">
<path d="M8 6H16M13.3728 16.3728C14.6019 15.1437 14.6019 13.1509 13.3728 11.9218C12.1437 10.6927 10.1509 10.6927 8.92183 11.9218C7.69272 13.1509 7.69272 15.1437 8.92183 16.3728C10.1509 17.6019 12.1437 17.6019 13.3728 16.3728ZM13.3728 16.3728L14.7443 17.7443M14.7443 17.7443L14.8101 17.6784C14.8979 17.5906 15.0402 17.5906 15.128 17.6784L15.9342 18.4845C16.0219 18.5723 16.0219 18.7147 15.9342 18.8025L15.8025 18.9342C15.7147 19.0219 15.5723 19.0219 15.4845 18.9342L14.6784 18.128C14.5906 18.0402 14.5906 17.8979 14.6784 17.8101L14.7443 17.7443ZM14.7443 17.7443L15.5 18.5M7 22H17C18.6569 22 20 20.6569 20 19V5C20 3.34315 18.6569 2 17 2H7C5.34315 2 4 3.34315 4 5V19C4 20.6569 5.34315 22 7 22Z" stroke="black" stroke-width="2" stroke-linecap="round" stroke-linejoin="round"/>
</svg>
