<svg width="24" height="24" viewBox="0 0 24 24" fill="none" xmlns="http://www.w3.org/2000/svg">
<path fill-rule="evenodd" clip-rule="evenodd" d="M7 1C4.79086 1 3 2.79086 3 5V19C3 21.2091 4.79086 23 7 23H17C19.2091 23 21 21.2091 21 19V10.6569C21 9.33077 20.4732 8.059 19.5355 7.12132L14.8787 2.46447C13.941 1.52678 12.6692 1 11.3431 1H7ZM5 5C5 3.89543 5.89543 3 7 3H11.3431C11.9368 3 12.5123 3.17597 13 3.49902V7C13 8.10457 13.8954 9 15 9H18.501C18.824 9.48765 19 10.0632 19 10.6569V19C19 20.1046 18.1046 21 17 21H7C5.89543 21 5 20.1046 5 19V5ZM9.62894 12.6289C10.4675 11.7904 11.8271 11.7904 12.6657 12.6289C13.5043 13.4675 13.5043 14.8271 12.6657 15.6657C11.8271 16.5043 10.4675 16.5043 9.62894 15.6657C8.79035 14.8271 8.79035 13.4675 9.62894 12.6289ZM14.0799 11.2147C12.4603 9.59509 9.83435 9.59509 8.21472 11.2147C6.59509 12.8344 6.59509 15.4603 8.21472 17.0799C9.59056 18.4558 11.6926 18.6629 13.287 17.7012L13.614 18.0282C13.6281 18.3217 13.7472 18.611 13.9713 18.8351L14.7774 19.6413C15.2558 20.1196 16.0313 20.1196 16.5096 19.6413L15.8025 18.9342L16.5096 19.6413L16.5754 19.5754L16.6413 19.5096L15.9342 18.8025L16.6413 19.5096C17.1196 19.0313 17.1196 18.2558 16.6413 17.7774L15.8351 16.9713C15.611 16.7472 15.3217 16.6281 15.0282 16.614L14.7012 16.287C15.6629 14.6926 15.4558 12.5906 14.0799 11.2147Z" fill="black"/>
</svg>
