<svg width="24" height="24" viewBox="0 0 24 24" fill="none" xmlns="http://www.w3.org/2000/svg">
<path d="M9.30992 16.0868L11.8401 19.7675C11.9182 19.8811 12.0851 19.8835 12.1664 19.7721L14.8642 16.075C14.8978 16.0276 14.9487 16 15.0025 16L18.8226 16C18.9668 16 19.0506 15.8157 18.9665 15.6833L16.6992 12.1166C16.6549 12.0469 16.6549 11.953 16.6992 11.8833L18.9665 8.31652C19.0506 8.1842 18.9668 7.99988 18.8226 7.99988H15.0025C14.9487 7.99988 14.8978 7.97227 14.8642 7.92482L12.1664 4.22806C12.0851 4.11668 11.9182 4.11903 11.8401 4.23266L9.30992 7.91334C9.27261 7.96761 9.21097 8.00004 9.14511 8.00004H5.36412C5.20635 8.00004 5.1107 8.17418 5.19534 8.30733L7.47451 11.8928C7.51613 11.9583 7.51613 12.0419 7.47451 12.1074L5.19534 15.6928C5.1107 15.826 5.20635 16.0001 5.36412 16.0001L9.14511 16.0001C9.21097 16.0001 9.27261 16.0325 9.30992 16.0868Z" stroke="black" stroke-width="2" stroke-linecap="round" stroke-linejoin="round"/>
<path d="M12 3H12.01M12 21H12.01M20 7.5H20.01M4 7.5H4.01M4 16.5H4.01M20 16.5H20.01" stroke="black" stroke-width="3" stroke-linecap="round" stroke-linejoin="round"/>
</svg>
