<svg width="24" height="24" viewBox="0 0 24 24" fill="none" xmlns="http://www.w3.org/2000/svg">
<path d="M8.53958 17.1029L11.9058 21.7229C12.0056 21.8599 12.21 21.8599 12.3099 21.7229L15.6826 17.0938C15.7258 17.0345 15.7912 17 15.8604 17L20.7719 17C20.9574 17 21.065 16.7696 20.9569 16.6042L18.0418 12.1457C17.9848 12.0586 17.9848 11.9412 18.0418 11.8541L20.9569 7.39565C21.065 7.23025 20.9574 6.99986 20.7719 6.99986H15.8604C15.7912 6.99986 15.7258 6.96533 15.6826 6.90603L12.3099 2.2773C12.21 2.14027 12.0056 2.14027 11.9058 2.27731L8.53958 6.89727C8.49253 6.96185 8.41743 7.00005 8.33753 7.00005H3.46215C3.26349 7.00005 3.14419 7.22058 3.25291 7.38686L6.17975 11.8633C6.23409 11.9464 6.23409 12.0538 6.17975 12.1369L3.25291 16.6133C3.14419 16.7796 3.26349 17.0001 3.46215 17.0001L8.33753 17.0001C8.41743 17.0001 8.49253 17.0383 8.53958 17.1029Z" stroke="black" stroke-width="2" stroke-linecap="round" stroke-linejoin="round"/>
</svg>
