<svg width="24" height="24" viewBox="0 0 24 24" fill="none" xmlns="http://www.w3.org/2000/svg">
<path d="M5 18H4C3.44772 18 3 17.5523 3 17V17C3 15.8954 3.89543 15 5 15H8.14966C9.17157 15 10 14.1716 10 13.1497V13.1497C10 12.4135 9.70758 11.7076 9.18707 11.1871L9.14286 11.1429C8.4111 10.4111 8 9.41862 8 8.38376V5C8 3.34315 9.34315 2 11 2H13C14.6569 2 16 3.34315 16 5V8.38376C16 9.41862 15.5889 10.4111 14.8571 11.1429L14.8129 11.1871C14.2924 11.7076 14 12.4135 14 13.1497V13.1497C14 14.1716 14.8284 15 15.8503 15H19C20.1046 15 21 15.8954 21 17V17C21 17.5523 20.5523 18 20 18H19M5 18V19C5 20.1046 5.89543 21 7 21H17C18.1046 21 19 20.1046 19 19V18M5 18H19" stroke="black" stroke-width="2" stroke-linecap="round" stroke-linejoin="round"/>
</svg>
