<svg width="24" height="24" viewBox="0 0 24 24" fill="none" xmlns="http://www.w3.org/2000/svg">
<path d="M8 6V8.11146C8 9.35342 8.28916 10.5783 8.84458 11.6892L9.68328 13.3666C9.89156 13.7831 10 14.2425 10 14.7082V15C10 16.1046 9.10457 17 8 17H5.66667C4.19391 17 3 18.1939 3 19.6667C3 20.403 3.59695 21 4.33333 21H19.6667C20.403 21 21 20.403 21 19.6667C21 18.1939 19.8061 17 18.3333 17H16C14.8954 17 14 16.1046 14 15V14.7082C14 14.2425 14.1084 13.7831 14.3167 13.3666L15.1554 11.6892C15.7108 10.5783 16 9.35342 16 8.11146V6C16 4.34315 14.6569 3 13 3H11C9.34315 3 8 4.34315 8 6Z" stroke="black" stroke-width="2" stroke-linecap="round" stroke-linejoin="round"/>
</svg>
