<svg width="24" height="24" viewBox="0 0 24 24" fill="none" xmlns="http://www.w3.org/2000/svg">
<path d="M10 14H9.5C8.67157 14 8 13.3284 8 12.5V6C8 4.34315 9.34315 3 11 3H13C14.6569 3 16 4.34315 16 6V12.5C16 13.3284 15.3284 14 14.5 14H14M10 14V17M10 14H14M10 17H5.66667C4.19391 17 3 18.1939 3 19.6667V19.6667C3 20.403 3.59695 21 4.33333 21H19.6667C20.403 21 21 20.403 21 19.6667V19.6667C21 18.1939 19.8061 17 18.3333 17H14M10 17H14M14 17V14" stroke="black" stroke-width="2" stroke-linecap="round" stroke-linejoin="round"/>
</svg>
