<svg width="24" height="24" viewBox="0 0 24 24" fill="none" xmlns="http://www.w3.org/2000/svg">
<path fill-rule="evenodd" clip-rule="evenodd" d="M7 1C4.79086 1 3 2.79086 3 5V19C3 21.2091 4.79086 23 7 23H17C19.2091 23 21 21.2091 21 19V5C21 2.79086 19.2091 1 17 1H7ZM5 5C5 3.89543 5.89543 3 7 3H17C18.1046 3 19 3.89543 19 5V19C19 20.1046 18.1046 21 17 21H7C5.89543 21 5 20.1046 5 19V5ZM12 4C8.68629 4 6 6.68629 6 10C6 12.2221 7.20848 14.1608 8.99927 15.1967C9.88281 15.7078 10.9088 16 12 16C13.0912 16 14.1172 15.7078 15.0007 15.1967C16.7915 14.1608 18 12.2221 18 10C18 6.68629 15.3137 4 12 4ZM8 10C8 7.79086 9.79086 6 12 6C14.2091 6 16 7.79086 16 10C16 11.0193 15.619 11.9502 14.99 12.6573C14.4512 11.8573 13.5371 11.3311 12.5 11.3311H11.5C10.4629 11.3311 9.54878 11.8573 9.00997 12.6573C8.38102 11.9502 8 11.0193 8 10ZM12.5 13.3311C12.8459 13.3311 13.1508 13.5067 13.3304 13.7737C12.9148 13.9202 12.4673 14 12 14C11.5327 14 11.0852 13.9202 10.6696 13.7737C10.8492 13.5067 11.1541 13.3311 11.5 13.3311H12.5ZM8 17C7.44772 17 7 17.4477 7 18C7 18.5523 7.44772 19 8 19H16C16.5523 19 17 18.5523 17 18C17 17.4477 16.5523 17 16 17H8ZM13.5 9.09961C13.5 9.92804 12.8284 10.5996 12 10.5996C11.1716 10.5996 10.5 9.92804 10.5 9.09961C10.5 8.27118 11.1716 7.59961 12 7.59961C12.8284 7.59961 13.5 8.27118 13.5 9.09961Z" fill="black"/>
</svg>
