<svg width="24" height="24" viewBox="0 0 24 24" fill="none" xmlns="http://www.w3.org/2000/svg">
<path fill-rule="evenodd" clip-rule="evenodd" d="M7 1C4.79086 1 3 2.79086 3 5V19C3 21.2091 4.79086 23 7 23H17C19.2091 23 21 21.2091 21 19V5C21 2.79086 19.2091 1 17 1H7ZM5 5C5 3.89543 5.89543 3 7 3H17C18.1046 3 19 3.89543 19 5V19C19 20.1046 18.1046 21 17 21H7C5.89543 21 5 20.1046 5 19V5ZM8.66667 4C7.19391 4 6 5.19391 6 6.66667V13.3333C6 14.8061 7.19391 16 8.66667 16H9.22222H14.7778H15.3333C16.8061 16 18 14.8061 18 13.3333V6.66667C18 5.19391 16.8061 4 15.3333 4H8.66667ZM8 6.66667C8 6.29848 8.29848 6 8.66667 6H15.3333C15.7015 6 16 6.29848 16 6.66667V13.3333C16 13.6064 15.8358 13.8411 15.6008 13.9442C15.1637 12.6831 13.9653 11.7778 12.5556 11.7778H11.4444C10.0347 11.7778 8.83634 12.6831 8.39919 13.9442C8.16417 13.8411 8 13.6064 8 13.3333V6.66667ZM12.5556 13.7778C12.8172 13.7778 13.0596 13.86 13.2585 14H10.7415C10.9404 13.86 11.1828 13.7778 11.4444 13.7778H12.5556ZM8 17C7.44772 17 7 17.4477 7 18C7 18.5523 7.44772 19 8 19H16C16.5523 19 17 18.5523 17 18C17 17.4477 16.5523 17 16 17H8ZM14 9C14 10.1046 13.1046 11 12 11C10.8954 11 10 10.1046 10 9C10 7.89543 10.8954 7 12 7C13.1046 7 14 7.89543 14 9Z" fill="black"/>
</svg>
