<svg width="24" height="24" viewBox="0 0 24 24" fill="none" xmlns="http://www.w3.org/2000/svg">
<path d="M9 9L7.42229 12.1554C7.14458 12.7108 7 13.3233 7 13.9443V20C7 21.1046 7.89543 22 9 22H15C16.1046 22 17 21.1046 17 20V13.9443C17 13.3233 16.8554 12.7108 16.5777 12.1554L15 9M9 9H15M9 9V7C9 6.44772 9.44772 6 10 6H12M15 9V7C15 6.44772 14.5523 6 14 6H12M12 14V16M12 18V16M12 16H14M12 16H10M12 6V2M12 2H14M12 2H8L7.5 2.5" stroke="black" stroke-width="2" stroke-linecap="round" stroke-linejoin="round"/>
</svg>
