<svg width="24" height="24" viewBox="0 0 24 24" fill="none" xmlns="http://www.w3.org/2000/svg">
<path fill-rule="evenodd" clip-rule="evenodd" d="M4 5C4 4.44772 4.44772 4 5 4H11C11.5523 4 12 4.44772 12 5V11C12 11.5523 11.5523 12 11 12H8H5C4.44772 12 4 11.5523 4 11V5ZM5 2C3.34315 2 2 3.34315 2 5V11C2 12.6569 3.34315 14 5 14H7V18C7 20.2091 8.79086 22 11 22H16.5C18.7091 22 20.5 20.2091 20.5 18V11.5H21C21.5523 11.5 22 11.0523 22 10.5V5.5C22 4.94772 21.5523 4.5 21 4.5H20.5V3C20.5 2.44772 20.0523 2 19.5 2C18.9477 2 18.5 2.44772 18.5 3V4.5H18C17.4477 4.5 17 4.94772 17 5.5V10.5C17 11.0523 17.4477 11.5 18 11.5H18.5V18C18.5 19.1046 17.6046 20 16.5 20H11C9.89543 20 9 19.1046 9 18V14H11C12.6569 14 14 12.6569 14 11V5C14 3.34315 12.6569 2 11 2H5ZM20 6.5V9.5H19.5H19V6.5H19.5H20ZM8 10.4998C6.89543 10.4998 6 9.60438 6 8.49986C6 7.2693 7.17637 6.04906 7.72472 5.59964C7.80577 5.53321 7.90288 5.5 8 5.5C8.09712 5.5 8.19423 5.53321 8.27528 5.59964C8.82363 6.04906 10 7.2693 10 8.49986C10 9.60438 9.10457 10.4998 8 10.4998Z" fill="black"/>
</svg>
