<svg width="24" height="24" viewBox="0 0 24 24" fill="none" xmlns="http://www.w3.org/2000/svg">
<path d="M7.8125 12.675V9.74999C7.8125 9.50146 8.00402 9.29999 8.24028 9.29999H10.5931C11.479 9.29999 12.1972 10.0555 12.1972 10.9875C12.1972 11.9195 11.479 12.675 10.5931 12.675M7.8125 12.675V16.05C7.8125 16.2985 8.00402 16.5 8.24028 16.5H10.8069C11.811 16.5 12.625 15.6437 12.625 14.5875C12.625 13.5312 11.811 12.675 10.8069 12.675H10.5931M7.8125 12.675H10.5931M21 5H19M19 5H17M19 5V3M19 5V7M10 20.9998C6.13401 20.9998 3 17.7762 3 13.7998C3 9.36968 7.11731 4.97669 9.03652 3.35872C9.32019 3.11957 9.6601 3 10 3C10.3399 3 10.6798 3.11957 10.9635 3.35872C12.8827 4.97669 17 9.36968 17 13.7998C17 17.7762 13.866 20.9998 10 20.9998Z" stroke="black" stroke-width="2" stroke-linecap="round"/>
</svg>
