<svg width="24" height="24" viewBox="0 0 24 24" fill="none" xmlns="http://www.w3.org/2000/svg">
<path d="M9 16.5L9.75 14.2388M9.75 14.2388L11.5318 8.8668C11.6941 8.37773 12.3059 8.37773 12.4682 8.8668L14.25 14.2388M9.75 14.2388H14.25M14.25 14.2388L15 16.5M12 21.9998C7.58172 21.9998 4 18.4181 4 13.9998C4 9.07743 8.7055 4.19633 10.8989 2.39858C11.2231 2.13286 11.6115 2 12 2C12.3885 2 12.7769 2.13286 13.1011 2.39858C15.2945 4.19633 20 9.07743 20 13.9998C20 18.4181 16.4183 21.9998 12 21.9998Z" stroke="black" stroke-width="2" stroke-linecap="round"/>
</svg>
