<svg width="24" height="24" viewBox="0 0 24 24" fill="none" xmlns="http://www.w3.org/2000/svg">
<path d="M9.5 12.75V9.5C9.5 9.22386 9.71888 9 9.98889 9H12.6778C13.6903 9 14.5111 9.83947 14.5111 10.875C14.5111 11.9105 13.6903 12.75 12.6778 12.75M9.5 12.75V16.5C9.5 16.7761 9.71888 17 9.98889 17H12.9222C14.0697 17 15 16.0486 15 14.875C15 13.7014 14.0697 12.75 12.9222 12.75H12.6778M9.5 12.75H12.6778M12 21.9998C7.58172 21.9998 4 18.4181 4 13.9998C4 9.07743 8.7055 4.19633 10.8989 2.39858C11.2231 2.13286 11.6115 2 12 2C12.3885 2 12.7769 2.13286 13.1011 2.39858C15.2945 4.19633 20 9.07743 20 13.9998C20 18.4181 16.4183 21.9998 12 21.9998Z" stroke="black" stroke-width="2" stroke-linecap="round"/>
</svg>
