<svg width="24" height="24" viewBox="0 0 24 24" fill="none" xmlns="http://www.w3.org/2000/svg">
<path fill-rule="evenodd" clip-rule="evenodd" d="M9.68108 4.12328C9.78601 4.03482 9.8981 4 10 4C10.1019 4 10.214 4.03482 10.3189 4.12328C11.2219 4.88453 12.6663 6.32192 13.8762 8.08955C15.0967 9.87252 16 11.877 16 13.7998C16 17.2507 13.2873 19.9998 10 19.9998C6.71266 19.9998 4 17.2507 4 13.7998C4 11.877 4.90332 9.87252 6.12376 8.08955C7.33369 6.32192 8.77809 4.88453 9.68108 4.12328ZM10 2C9.4221 2 8.85438 2.20433 8.39197 2.59416C7.37574 3.45088 5.80189 5.01897 4.47336 6.95986C3.15534 8.88541 2 11.2925 2 13.7998C2 18.3018 5.55536 21.9998 10 21.9998C14.4446 21.9998 18 18.3018 18 13.7998C18 11.2925 16.8447 8.88541 15.5266 6.95986C14.1981 5.01897 12.6243 3.45088 11.608 2.59416C11.1456 2.20433 10.5779 2 10 2ZM17 4C16.4477 4 16 4.44772 16 5C16 5.55228 16.4477 6 17 6H19H21C21.5523 6 22 5.55228 22 5C22 4.44772 21.5523 4 21 4H19H17ZM7.46091 13.6194L7.6 13.2263L7.73909 13.6194H7.46091ZM8.49295 15.7502L8.26979 15.1194H6.93021L6.70705 15.7502C6.5689 16.1406 6.14034 16.3452 5.74985 16.2071C5.35935 16.0689 5.15479 15.6403 5.29295 15.2498L5.69295 14.1193L6.64326 11.4332C6.96557 10.5223 8.23443 10.5223 8.55674 11.4332L9.50705 14.1193L9.90705 15.2498C10.0452 15.6403 9.84065 16.0689 9.45016 16.2071C9.05966 16.3452 8.6311 16.1406 8.49295 15.7502ZM11.4489 10.75C10.8941 10.75 10.45 11.2009 10.45 11.75V13.375V15.25C10.45 15.7991 10.8941 16.25 11.4489 16.25H12.9422C13.9438 16.25 14.75 15.4354 14.75 14.4375C14.75 13.9792 14.5799 13.5595 14.299 13.2397C14.428 13.0008 14.5011 12.7275 14.5011 12.4375C14.5011 11.5087 13.7506 10.75 12.8178 10.75H11.4489ZM13.0011 12.4375C13.0011 12.5442 12.9159 12.625 12.8178 12.625H11.95V12.25H12.8178C12.9159 12.25 13.0011 12.3308 13.0011 12.4375ZM12.8178 14.125H11.95V14.75H12.9422C13.1091 14.75 13.25 14.6132 13.25 14.4375C13.25 14.2618 13.1091 14.125 12.9422 14.125H12.8178Z" fill="black"/>
</svg>
