<svg width="24" height="24" viewBox="0 0 24 24" fill="none" xmlns="http://www.w3.org/2000/svg">
<path fill-rule="evenodd" clip-rule="evenodd" d="M11.5328 3.17199C11.6776 3.05333 11.8418 3 12 3C12.1582 3 12.3224 3.05333 12.4672 3.17199C13.5071 4.02427 15.1658 5.62941 16.5554 7.60314C17.9567 9.59343 19 11.8391 19 13.9998C19 17.8658 15.866 20.9998 12 20.9998C8.134 20.9998 5 17.8658 5 13.9998C5 11.8391 6.04333 9.59343 7.4446 7.60314C8.8342 5.62941 10.4929 4.02427 11.5328 3.17199ZM12 1C11.3813 1 10.7686 1.21239 10.265 1.62517C9.11144 2.57063 7.32074 4.30492 5.80925 6.45177C4.30942 8.58207 3 11.2381 3 13.9998C3 18.9704 7.02944 22.9998 12 22.9998C16.9706 22.9998 21 18.9704 21 13.9998C21 11.2381 19.6906 8.58207 18.1908 6.45177C16.6793 4.30492 14.8886 2.57063 13.735 1.62517C13.2314 1.21239 12.6187 1 12 1ZM8.56091 13.8368L9 12.5957L9.43909 13.8368H8.56091ZM10.2929 16.2502L9.96979 15.3368H8.03021L7.70705 16.2502C7.5689 16.6406 7.14034 16.8452 6.74985 16.7071C6.35935 16.5689 6.15479 16.1403 6.29295 15.7498L6.79295 14.3366L7.98084 10.9791C8.32478 10.007 9.67522 10.007 10.0192 10.9791L11.2071 14.3366L11.7071 15.7498C11.8452 16.1403 11.6406 16.5689 11.2502 16.7071C10.8597 16.8452 10.4311 16.6406 10.2929 16.2502ZM13.8111 10.25C13.2219 10.25 12.75 10.7289 12.75 11.3125V13.3438V15.6875C12.75 16.2711 13.2219 16.75 13.8111 16.75H15.6778C16.8254 16.75 17.75 15.8164 17.75 14.6719C17.75 14.0981 17.5176 13.5774 17.1413 13.2007C17.3299 12.9029 17.4389 12.5498 17.4389 12.1719C17.4389 11.1136 16.5839 10.25 15.5222 10.25H13.8111ZM15.9389 12.1719C15.9389 12.408 15.7492 12.5938 15.5222 12.5938H14.25V11.75H15.5222C15.7492 11.75 15.9389 11.9357 15.9389 12.1719ZM15.5222 14.0938H14.25V15.25H15.6778C15.9907 15.25 16.25 14.9943 16.25 14.6719C16.25 14.3494 15.9907 14.0938 15.6778 14.0938H15.5222Z" fill="black"/>
</svg>
