<svg width="24" height="24" viewBox="0 0 24 24" fill="none" xmlns="http://www.w3.org/2000/svg">
<path d="M7.375 16.05L8.03125 14.0149M8.03125 14.0149L9.59036 9.18012C9.7323 8.73995 10.2677 8.73995 10.4096 9.18012L11.9688 14.0149M8.03125 14.0149H11.9688M11.9688 14.0149L12.625 16.05M21 5H19M17 5H19M19 5V3M19 5V7M10 20.9998C6.13401 20.9998 3 17.7762 3 13.7998C3 9.36968 7.11731 4.97669 9.03652 3.35872C9.32019 3.11957 9.6601 3 10 3C10.3399 3 10.6798 3.11957 10.9635 3.35872C12.8827 4.97669 17 9.36968 17 13.7998C17 17.7762 13.866 20.9998 10 20.9998Z" stroke="black" stroke-width="2" stroke-linecap="round"/>
</svg>
