<svg width="24" height="24" viewBox="0 0 24 24" fill="none" xmlns="http://www.w3.org/2000/svg">
<path d="M21 5H19M19 5H17M19 5V3M19 5V7M10 20.9998C6.13401 20.9998 3 17.7762 3 13.7998C3 9.36968 7.11731 4.97669 9.03652 3.35872C9.32019 3.11957 9.6601 3 10 3C10.3399 3 10.6798 3.11957 10.9635 3.35872C12.8827 4.97669 17 9.36968 17 13.7998C17 17.7762 13.866 20.9998 10 20.9998ZM10 16.95V16.95C11.6914 16.95 13.0625 15.5789 13.0625 13.8875V12.8125C13.0625 11.1211 11.6914 9.74999 10 9.74999V9.74999C8.30863 9.74999 6.9375 11.1211 6.9375 12.8125V13.8875C6.9375 15.5789 8.30863 16.95 10 16.95Z" stroke="black" stroke-width="2" stroke-linecap="round"/>
</svg>
