<svg width="24" height="24" viewBox="0 0 24 24" fill="none" xmlns="http://www.w3.org/2000/svg">
<path d="M12 13.5H14.5C15.3284 13.5 16 12.8284 16 12C16 11.1716 15.3284 10.5 14.5 10.5H12M12 13.5H9.5C8.67157 13.5 8 12.8284 8 12C8 11.1716 8.67157 10.5 9.5 10.5H12M12 13.5V10.5M12 19H14.5C15.3284 19 16 18.3284 16 17.5C16 16.6716 15.3284 16 14.5 16H12M12 19H9.5C8.67157 19 8 18.3284 8 17.5C8 16.6716 8.67157 16 9.5 16H12M12 19V16M12 8H14.5C15.3284 8 16 7.32843 16 6.5C16 5.67157 15.3284 5 14.5 5H12M12 8H9.5C8.67157 8 8 7.32843 8 6.5C8 5.67157 8.67157 5 9.5 5H12M12 8V5M17 22H7C5.34315 22 4 20.6569 4 19V5C4 3.34315 5.34315 2 7 2H17C18.6569 2 20 3.34315 20 5V19C20 20.6569 18.6569 22 17 22Z" stroke="black" stroke-width="2" stroke-linecap="round" stroke-linejoin="round"/>
</svg>
