<svg width="24" height="24" viewBox="0 0 24 24" fill="none" xmlns="http://www.w3.org/2000/svg">
<path d="M17.1588 3C19.2229 3 20.7931 4.8327 20.4537 6.84596L18.3375 19.4012C18.182 20.3238 17.3747 21 16.4287 21C15.5958 21 14.8563 20.473 14.5929 19.6917L12.9594 14.846C12.6521 13.9344 11.3479 13.9344 11.0406 14.8461L9.40706 19.6917C9.14367 20.473 8.4042 21 7.57128 21C6.62533 21 5.81803 20.3238 5.66252 19.4012L3.54628 6.84596C3.20693 4.8327 4.77706 3 6.84121 3C7.56397 3 8.26724 3.23179 8.84544 3.66059L10.7864 5.1C11.5056 5.63333 12.4944 5.63333 13.2136 5.1L15.1546 3.66059C15.7328 3.23179 16.436 3 17.1588 3ZM17.1588 3L16.387 6.6633C16.2989 7.08148 16.1248 7.46728 15.8835 7.80124M10.7864 11L11.3688 10.2801C11.7785 9.77382 12.3417 9.41457 12.9735 9.25663L14.179 8.95524C14.8784 8.78041 15.4766 8.36458 15.8835 7.80124M16.5 11.5L15.8835 7.80124" stroke="black" stroke-width="2" stroke-linecap="round" stroke-linejoin="round"/>
</svg>
