<svg width="24" height="24" viewBox="0 0 24 24" fill="none" xmlns="http://www.w3.org/2000/svg">
<path fill-rule="evenodd" clip-rule="evenodd" d="M12 1C8.88379 1 6.29565 2.47554 3.96982 3.87625C3.36403 4.24107 3 4.89697 3 5.59757V13.0968C3 16.1695 4.07447 18.2637 5.66247 19.7632C7.19669 21.2119 9.1674 22.057 10.8198 22.7595C11.5742 23.0802 12.4258 23.0802 13.1802 22.7595C14.8326 22.057 16.8033 21.2119 18.3375 19.7632C19.9255 18.2637 21 16.1695 21 13.0968V5.59757C21 4.89697 20.636 4.24108 20.0302 3.87625C17.7044 2.47554 15.1162 1 12 1ZM5.00178 5.58993L5.00226 5.58916C7.35638 4.17144 9.50491 3 12 3C14.4951 3 16.6436 4.17144 18.9977 5.58916C18.9979 5.58932 18.998 5.58958 18.9982 5.58993C18.9991 5.59158 19 5.59406 19 5.59757V13.0968C19 15.6303 18.1443 17.195 16.9644 18.309C15.7308 19.4739 14.096 20.1969 12.3977 20.9189C12.1433 21.027 11.8567 21.027 11.6023 20.9189C9.90401 20.1969 8.2692 19.4739 7.03557 18.309C5.85572 17.195 5 15.6303 5 13.0968V5.59757C5 5.59407 5.00086 5.59158 5.00178 5.58993ZM18.9977 5.58916C18.9979 5.58928 18.9982 5.58941 18.9984 5.58954C18.9977 5.58916 18.9975 5.58886 18.9975 5.58888C18.9975 5.58889 18.9976 5.58897 18.9977 5.58916ZM10.75 8.5C10.75 8.22386 10.9739 8 11.25 8H12.75C13.0261 8 13.25 8.22386 13.25 8.5V10.75H15.5C15.7761 10.75 16 10.9739 16 11.25V12.75C16 13.0261 15.7761 13.25 15.5 13.25H13.25V15.5C13.25 15.7761 13.0261 16 12.75 16H11.25C10.9739 16 10.75 15.7761 10.75 15.5V13.25H8.5C8.22386 13.25 8 13.0261 8 12.75V11.25C8 10.9739 8.22386 10.75 8.5 10.75H10.75V8.5Z" fill="black"/>
</svg>
