<svg width="24" height="24" viewBox="0 0 24 24" fill="none" xmlns="http://www.w3.org/2000/svg">
<path fill-rule="evenodd" clip-rule="evenodd" d="M13.3669 1.45585C12.5632 0.84805 11.4368 0.84805 10.6331 1.45585C9.26702 2.48885 7.01288 3.43839 4.89376 3.66052C3.86219 3.76865 3 4.63666 3 5.75065V13.0422C3 15.2528 4.17232 17.1266 5.59868 18.6429C7.02957 20.1641 8.83324 21.4486 10.3207 22.4748C11.3357 23.1751 12.6643 23.1751 13.6793 22.4748C15.1668 21.4486 16.9704 20.1641 18.4013 18.6429C19.8277 17.1266 21 15.2528 21 13.0422V5.75065C21 4.63666 20.1378 3.76865 19.1062 3.66052C16.9871 3.43839 14.733 2.48885 13.3669 1.45585L12.7751 2.23851L13.3669 1.45585ZM11.8394 3.0511C11.9295 2.98297 12.0705 2.98297 12.1606 3.0511C13.8174 4.30396 16.4166 5.38955 18.8977 5.64963C18.9241 5.65238 18.9526 5.66583 18.9742 5.68907C18.9934 5.70981 19 5.72987 19 5.75065V13.0422C19 14.5159 18.2176 15.9192 16.9445 17.2726C15.6759 18.6213 14.0353 19.7994 12.5436 20.8286L13.1114 21.6517L12.5436 20.8286C12.2123 21.0571 11.7877 21.0571 11.4564 20.8286C9.96468 19.7994 8.32407 18.6213 7.05547 17.2726C5.78236 15.9192 5 14.5159 5 13.0422V5.75065C5 5.72987 5.00658 5.70981 5.02584 5.68907C5.04741 5.66583 5.07594 5.65238 5.10226 5.64963C7.58336 5.38955 10.1826 4.30396 11.8394 3.0511ZM11.25 8.00008H12.75C13.0261 8.00008 13.25 8.22394 13.25 8.50008V10.7501H15.5C15.7761 10.7501 16 10.9739 16 11.2501V12.7501C16 13.0262 15.7761 13.2501 15.5 13.2501H13.25V15.5001C13.25 15.7762 13.0261 16.0001 12.75 16.0001H11.25C10.9739 16.0001 10.75 15.7762 10.75 15.5001V13.2501H8.5C8.22386 13.2501 8 13.0262 8 12.7501V11.2501C8 10.9739 8.22386 10.7501 8.5 10.7501H10.75V8.50008C10.75 8.22394 10.9739 8.00008 11.25 8.00008Z" fill="black"/>
</svg>
