<svg width="24" height="24" viewBox="0 0 24 24" fill="none" xmlns="http://www.w3.org/2000/svg">
<path d="M14.6087 3.59502C15.1059 3.8355 15.7039 3.62741 15.9444 3.13023C16.1849 2.63305 15.9768 2.03506 15.4796 1.79458L14.6087 3.59502ZM17.677 4.90377L16.8961 4.27908L17.677 4.90377ZM14.7514 15.4386L14.358 14.5192C13.99 14.6766 13.7514 15.0383 13.7514 15.4386H14.7514ZM7.5 9C7.5 9.55228 7.94772 10 8.5 10C9.05228 10 9.5 9.55228 9.5 9H7.5ZM12 6.5C12.5523 6.5 13 6.05228 13 5.5C13 4.94772 12.5523 4.5 12 4.5V6.5ZM13.7678 10.7678C13.3772 11.1583 13.3772 11.7915 13.7678 12.182C14.1583 12.5725 14.7915 12.5725 15.182 12.182L13.7678 10.7678ZM8.5 16.375L7.71913 15.7503L8.5 16.375ZM4 15.25C4 15.8023 4.44772 16.25 5 16.25C5.55228 16.25 6 15.8023 6 15.25H4ZM12.25 17C12.25 16.4477 11.8023 16 11.25 16C10.6977 16 10.25 16.4477 10.25 17H12.25ZM3.21913 21.3753C2.87412 21.8066 2.94404 22.4359 3.3753 22.7809C3.80657 23.1259 4.43586 23.056 4.78087 22.6247L3.21913 21.3753ZM20.7809 2.6247C21.1259 2.19343 21.056 1.56414 20.6247 1.21913C20.1934 0.874122 19.5641 0.944043 19.2191 1.3753L20.7809 2.6247ZM12 3C12.937 3 13.8211 3.21406 14.6087 3.59502L15.4796 1.79458C14.4263 1.28513 13.2451 1 12 1V3ZM16.8665 5.48958C17.5798 6.47645 18 7.68768 18 9H20C20 7.25315 19.439 5.63439 18.4874 4.31797L16.8665 5.48958ZM18 9C18 11.4749 16.5013 13.6021 14.358 14.5192L15.1447 16.3579C17.9978 15.1372 20 12.3035 20 9H18ZM13.7514 15.4386V17.1243H15.7514V15.4386H13.7514ZM6 9C6 5.68629 8.68629 3 12 3V1C7.58172 1 4 4.58172 4 9H6ZM9.87568 21C8.51252 21 7.31296 20.297 6.62064 19.2291L4.94244 20.3171C5.98786 21.9296 7.80648 23 9.87568 23V21ZM13.7514 17.1243C13.7514 19.2648 12.0162 21 9.87568 21V23C13.1207 23 15.7514 20.3694 15.7514 17.1243H13.7514ZM9.5 9C9.5 7.61929 10.6193 6.5 12 6.5V4.5C9.51472 4.5 7.5 6.51472 7.5 9H9.5ZM14.365 8.18672C14.4522 8.44039 14.5 8.71357 14.5 9H16.5C16.5 8.48938 16.4146 7.99663 16.2564 7.53652L14.365 8.18672ZM14.5 9C14.5 9.69063 14.2213 10.3143 13.7678 10.7678L15.182 12.182C15.9952 11.3687 16.5 10.2424 16.5 9H14.5ZM7.5 16.375V17.125H9.5V16.375H7.5ZM6 15.25V9H4V15.25H6ZM12.25 17.125V17H10.25V17.125H12.25ZM9.875 19.5C11.1867 19.5 12.25 18.4367 12.25 17.125H10.25C10.25 17.3321 10.0821 17.5 9.875 17.5V19.5ZM7.5 17.125C7.5 18.4367 8.56332 19.5 9.875 19.5V17.5C9.66789 17.5 9.5 17.3321 9.5 17.125H7.5ZM4.78087 22.6247L6.56241 20.3978L5.00067 19.1484L3.21913 21.3753L4.78087 22.6247ZM6.56241 20.3978L9.28087 16.9997L7.71913 15.7503L5.00067 19.1484L6.56241 20.3978ZM9.28087 16.9997L16.0916 8.48631L14.5298 7.23693L7.71913 15.7503L9.28087 16.9997ZM16.0916 8.48631L18.4578 5.52847L16.8961 4.27908L14.5298 7.23693L16.0916 8.48631ZM18.4578 5.52847L20.7809 2.6247L19.2191 1.3753L16.8961 4.27908L18.4578 5.52847Z" fill="black"/>
</svg>
