<svg width="24" height="24" viewBox="0 0 24 24" fill="none" xmlns="http://www.w3.org/2000/svg">
<path d="M17.1213 11.5274C17.6642 10.9573 18 10.1698 18 9.3C18 7.5603 16.6569 6.15 15 6.15C13.3431 6.15 12 7.5603 12 9.3V10.9649C12 11.3254 12.1381 11.6748 12.3788 11.9318C12.8767 12.4634 12.8809 13.3251 12.3788 13.8523C12.1363 14.1069 12 14.4523 12 14.8125V16.6125C12 17.296 12.5277 17.85 13.1786 17.85C13.8295 17.85 14.3571 17.296 14.3571 16.6125V16.5M3 14L4.52339 12.4552M6 11L4.52339 12.4552M4.52339 12.4552L3 11M4.52339 12.4552L6 14M15 3C18.3137 3 21 5.82061 21 9.3C21 11.9003 19.4996 14.1327 17.3583 15.0947V16.6119C17.3583 19.0354 15.4872 21 13.1792 21C10.8711 21 9 19.0354 9 16.6119V9.3C9 5.82061 11.6863 3 15 3Z" stroke="black" stroke-width="2" stroke-linecap="round" stroke-linejoin="round"/>
</svg>
