<svg width="24" height="24" viewBox="0 0 24 24" fill="none" xmlns="http://www.w3.org/2000/svg">
<path d="M16 6.34141C16.6256 6.12031 17.2987 6 18 6L19 6M16 6.34141C13.6696 7.16508 12 9.38756 12 12M16 6.34141L16 17.6586M12 12C12 14.6124 13.6696 16.8349 16 17.6586M12 12C12 9.38756 10.3304 7.16508 8 6.34141M12 12C12 14.6124 10.3304 16.8349 8 17.6586M16 17.6586C16.6256 17.8797 17.2987 18 18 18H19M22 6L19 6M19 6V18M19 18H22M8 6.34141C7.37444 6.12031 6.70127 6 6 6L5 6M8 6.34141L8 17.6586M8 17.6586C7.37444 17.8797 6.70127 18 6 18H5M2 6L5 6M5 6L5 18M5 18H2" stroke="black" stroke-width="2" stroke-linecap="round" stroke-linejoin="round"/>
</svg>
