<svg width="24" height="24" viewBox="0 0 24 24" fill="none" xmlns="http://www.w3.org/2000/svg">
<path d="M6 2V5M18 2V5M12 12C9.38756 12 7.16508 10.3304 6.34141 8M12 12C14.6124 12 16.8349 10.3304 17.6586 8M12 12C9.38756 12 7.16508 13.6696 6.34141 16M12 12C14.6124 12 16.8349 13.6696 17.6586 16M6.34141 8C6.12031 7.37444 6 6.70127 6 6V5M6.34141 8H17.6586M17.6586 8C17.8797 7.37444 18 6.70127 18 6V5M6 5H18M6.34141 16C6.12031 16.6256 6 17.2987 6 18V19M6.34141 16H17.6586M17.6586 16C17.8797 16.6256 18 17.2987 18 18V19M6 22V19M6 19H18M18 19V22" stroke="black" stroke-width="2" stroke-linecap="round" stroke-linejoin="round"/>
</svg>
