<svg width="24" height="24" viewBox="0 0 24 24" fill="none" xmlns="http://www.w3.org/2000/svg">
<path d="M14.7514 15.4386L14.358 14.5192C13.99 14.6766 13.7514 15.0383 13.7514 15.4386H14.7514ZM13.7678 10.7678C13.3772 11.1583 13.3772 11.7915 13.7678 12.182C14.1583 12.5725 14.7915 12.5725 15.182 12.182L13.7678 10.7678ZM8.94192 14.0581L9.64903 14.7652L9.64903 14.7652L8.94192 14.0581ZM8.94194 11.9242L9.65489 11.223L9.65489 11.223L8.94194 11.9242ZM12.25 17C12.25 16.4477 11.8023 16 11.25 16C10.6977 16 10.25 16.4477 10.25 17H12.25ZM12 3C15.3137 3 18 5.68629 18 9H20C20 4.58172 16.4183 1 12 1V3ZM18 9C18 11.4749 16.5013 13.6021 14.358 14.5192L15.1447 16.3579C17.9978 15.1372 20 12.3035 20 9H18ZM13.7514 15.4386V17.1243H15.7514V15.4386H13.7514ZM6 9C6 5.68629 8.68629 3 12 3V1C7.58172 1 4 4.58172 4 9H6ZM9.87568 21C7.7352 21 6 19.2648 6 17.1243H4C4 20.3694 6.63063 23 9.87568 23V21ZM13.7514 17.1243C13.7514 19.2648 12.0162 21 9.87568 21V23C13.1207 23 15.7514 20.3694 15.7514 17.1243H13.7514ZM9.5 9C9.5 7.61929 10.6193 6.5 12 6.5V4.5C9.51472 4.5 7.5 6.51472 7.5 9H9.5ZM12 6.5C13.3807 6.5 14.5 7.61929 14.5 9H16.5C16.5 6.51472 14.4853 4.5 12 4.5V6.5ZM14.5 9C14.5 9.69063 14.2213 10.3143 13.7678 10.7678L15.182 12.182C15.9952 11.3687 16.5 10.2424 16.5 9H14.5ZM7.5 9V10.8499H9.5V9H7.5ZM7.5 15.125V17.125H9.5V15.125H7.5ZM8.23482 13.351C7.76432 13.8215 7.5 14.4596 7.5 15.125H9.5C9.5 14.99 9.55361 14.8606 9.64903 14.7652L8.23482 13.351ZM8.22898 12.6254C8.43244 12.8323 8.42478 13.161 8.23482 13.351L9.64903 14.7652C10.6306 13.7836 10.6132 12.1974 9.65489 11.223L8.22898 12.6254ZM7.5 10.8499C7.5 11.5164 7.76671 12.1554 8.22898 12.6254L9.65489 11.223C9.55544 11.1219 9.5 10.9845 9.5 10.8499H7.5ZM6 17.1243V9H4V17.1243H6ZM12.25 17.125V17H10.25V17.125H12.25ZM9.875 19.5C11.1867 19.5 12.25 18.4367 12.25 17.125H10.25C10.25 17.3321 10.0821 17.5 9.875 17.5V19.5ZM7.5 17.125C7.5 18.4367 8.56332 19.5 9.875 19.5V17.5C9.66789 17.5 9.5 17.3321 9.5 17.125H7.5Z" fill="black"/>
</svg>
