<svg width="24" height="24" viewBox="0 0 24 24" fill="none" xmlns="http://www.w3.org/2000/svg">
<path d="M10.0136 11.7994L8.92019 10.706L10.7424 8.88383C10.522 7.33356 11.0081 5.70221 12.2006 4.50975C14.2136 2.49675 17.4773 2.49675 19.4903 4.50975C21.5032 6.52274 21.5032 9.78645 19.4903 11.7994C18.2978 12.9919 16.6664 13.478 15.1162 13.2576L13.294 15.0798L12.2006 13.9863M10.0136 11.7994L3.45292 18.3602C2.84903 18.9641 2.84903 19.9432 3.45292 20.5471C4.05682 21.151 5.03593 21.151 5.63983 20.5471L12.2006 13.9863M10.0136 11.7994L12.2006 13.9863M17.3033 6.69665C18.1085 7.50185 18.1085 8.80733 17.3033 9.61253" stroke="black" stroke-width="2" stroke-linecap="round" stroke-linejoin="round"/>
</svg>
