<svg width="24" height="24" viewBox="0 0 24 24" fill="none" xmlns="http://www.w3.org/2000/svg">
<path d="M12 6V3M15.6932 6.50566L16.3466 5.00283L16.6733 4.25142M19.046 7.95401L20.023 6.977M8.30681 6.50566L7.6534 5.00283L7.3267 4.25142M4.95401 7.95401L3.977 6.977M3.36291 13.9136C4.62102 12.1845 7.54315 9 12 9C16.4569 9 19.379 12.1845 20.6371 13.9136C21.121 14.5786 21.121 15.4217 20.6371 16.0867C19.3789 17.8157 16.4568 21 12 21C7.54319 21 4.62107 17.8157 3.36294 16.0867C2.87903 15.4217 2.87902 14.5786 3.36291 13.9136ZM10.125 15C9.7124 15 9.33092 14.8667 9.02127 14.6409C9.00723 14.7586 9 14.8785 9 15C9 16.6569 10.3431 18 12 18C13.6569 18 15 16.6569 15 15C15 13.3431 13.6569 12 12 12C11.8785 12 11.7586 12.0072 11.6409 12.0213C11.8667 12.3309 12 12.7124 12 13.125C12 14.1605 11.1605 15 10.125 15Z" stroke="black" stroke-width="2" stroke-linecap="round" stroke-linejoin="round"/>
</svg>
