<svg width="24" height="24" viewBox="0 0 24 24" fill="none" xmlns="http://www.w3.org/2000/svg">
<path d="M9 6V3C9 2.44772 9.44772 2 10 2L14 2C14.5523 2 15 2.44772 15 3V6M9 6H15M9 6C7.34315 6 6 7.34315 6 9V13M15 6C16.6569 6 18 7.34315 18 9V13M15 18H9M15 18C16.6569 18 18 16.6569 18 15V13M15 18V21C15 21.5523 14.5523 22 14 22H10C9.44772 22 9 21.5523 9 21V18M9 18C7.34315 18 6 16.6569 6 15V13M6 13H8L10 15L13 9L15 13H18" stroke="black" stroke-width="2" stroke-linecap="round" stroke-linejoin="round"/>
</svg>
