<svg width="24" height="24" viewBox="0 0 24 24" fill="none" xmlns="http://www.w3.org/2000/svg">
<path fill-rule="evenodd" clip-rule="evenodd" d="M10 1C8.89543 1 8 1.89543 8 3V5.12602C6.27477 5.57006 5 7.13616 5 9V15C5 16.8638 6.27477 18.4299 8 18.874V21C8 22.1046 8.89543 23 10 23H14C15.1046 23 16 22.1046 16 21V18.874C17.7252 18.4299 19 16.8638 19 15V9C19 7.13616 17.7252 5.57006 16 5.12602V3C16 1.89543 15.1046 1 14 1H10ZM14 5H10V3H14V5ZM10 21V19H14V21H10ZM7 9C7 7.89543 7.89543 7 9 7H15C16.1046 7 17 7.89543 17 9V15C17 16.1046 16.1046 17 15 17H9C7.89543 17 7 16.1046 7 15V9ZM11.9976 10.2425C11.2978 9.42992 10.1309 9.21135 9.25414 9.9554C8.37737 10.6994 8.25394 11.9435 8.94247 12.8235C9.42821 13.4443 10.7491 14.6493 11.4851 15.3053C11.7764 15.5649 12.2188 15.5649 12.5101 15.3053C13.2461 14.6493 14.567 13.4443 15.0527 12.8235C15.7413 11.9435 15.6329 10.6916 14.7411 9.9554C13.8492 9.21917 12.6974 9.42992 11.9976 10.2425Z" fill="black"/>
</svg>
