<svg width="24" height="24" viewBox="0 0 24 24" fill="none" xmlns="http://www.w3.org/2000/svg">
<path d="M10 5H9.5C8.67157 5 8 4.32843 8 3.5V3.5C8 2.67157 8.67157 2 9.5 2H14.5C15.3284 2 16 2.67157 16 3.5V3.5C16 4.32843 15.3284 5 14.5 5H14M10 5V9.98002C10 10.6493 9.83207 11.3079 9.51158 11.8954L5.61329 19.0423C4.88634 20.375 5.85097 22 7.36908 22H16.6309C18.149 22 19.1137 20.375 18.3867 19.0423L14.4884 11.8954C14.1679 11.3079 14 10.6493 14 9.98002V5M10 5H14" stroke="black" stroke-width="2" stroke-linecap="round" stroke-linejoin="round"/>
</svg>
