<svg width="24" height="24" viewBox="0 0 24 24" fill="none" xmlns="http://www.w3.org/2000/svg">
<path fill-rule="evenodd" clip-rule="evenodd" d="M5 5C5 3.89543 5.89543 3 7 3H12V7C12 9.20914 13.7909 11 16 11H19V19C19 20.1046 18.1046 21 17 21H7C5.89543 21 5 20.1046 5 19V5ZM17.7911 9L14 4.65465V7C14 8.10457 14.8954 9 16 9H17.7911ZM20.7747 9.61981C20.6481 9.31182 20.4701 9.02453 20.2457 8.77119L14.3502 2.01386L14.3502 2.01383L14.3441 2.00691C14.0891 1.72005 13.7845 1.4881 13.449 1.31949C13.0356 1.11172 12.575 1 12.1019 1H7C4.79086 1 3 2.79086 3 5V19C3 21.2091 4.79086 23 7 23H17C19.2091 23 21 21.2091 21 19V10.7604C21 10.3659 20.9223 9.97872 20.7747 9.61981ZM13.25 12.25C13.25 11.9739 13.0261 11.75 12.75 11.75H11.25C10.9739 11.75 10.75 11.9739 10.75 12.25V14C10.75 14.1381 10.6381 14.25 10.5 14.25H8.75C8.47386 14.25 8.25 14.4739 8.25 14.75V16.25C8.25 16.5261 8.47386 16.75 8.75 16.75H10.5C10.6381 16.75 10.75 16.8619 10.75 17V18.75C10.75 19.0261 10.9739 19.25 11.25 19.25H12.75C13.0261 19.25 13.25 19.0261 13.25 18.75V17C13.25 16.8619 13.3619 16.75 13.5 16.75H15.25C15.5261 16.75 15.75 16.5261 15.75 16.25V14.75C15.75 14.4739 15.5261 14.25 15.25 14.25H13.5C13.3619 14.25 13.25 14.1381 13.25 14V12.25Z" fill="black"/>
</svg>
