<svg width="24" height="24" viewBox="0 0 24 24" fill="none" xmlns="http://www.w3.org/2000/svg">
<path fill-rule="evenodd" clip-rule="evenodd" d="M13.25 3H14.75C15.0261 3 15.25 3.22386 15.25 3.5V5.75H17.5C17.7761 5.75 18 5.97386 18 6.25V7.75C18 8.02614 17.7761 8.25 17.5 8.25H15.25V10.5C15.25 10.7761 15.0261 11 14.75 11H13.25C12.9739 11 12.75 10.7761 12.75 10.5V8.25H10.5C10.2239 8.25 10 8.02614 10 7.75V6.25C10 5.97386 10.2239 5.75 10.5 5.75H12.75V3.5C12.75 3.22386 12.9739 3 13.25 3ZM20.1512 11.6441C20.3454 11.452 20.6645 11.452 20.8587 11.6441C21.0471 11.8305 21.0471 12.1284 20.8587 12.3148L16.7335 16.3972C15.0484 18.0647 12.7735 19 10.4029 19H2C1.44772 19 1 19.4477 1 20C1 20.5523 1.44772 21 2 21H10.4029C13.3003 21 16.0808 19.8568 18.1403 17.8188L22.2655 13.7364C23.2448 12.7673 23.2448 11.1917 22.2655 10.2225C21.292 9.25915 19.7179 9.25915 18.7444 10.2225L15.0392 13.8892C14.867 14.0596 14.666 14.1958 14.4471 14.2931C14.4538 14.2203 14.4572 14.1465 14.4572 14.0718C14.4572 12.7393 13.3686 11.6769 12.0477 11.6769H9.05762C8.00274 11.6769 6.98898 12.0915 6.23991 12.8328L5.75783 13.3098C5.05032 14.01 4.54787 14.3638 4 14.3638H3.99543H3.99086H3.98631H3.98176H3.97722H3.97268H3.96816H3.96364H3.95913H3.95462H3.95013H3.94564H3.94116H3.93669H3.93222H3.92776H3.92331H3.91887H3.91443H3.91H3.90558H3.90116H3.89676H3.89236H3.88796H3.88358H3.8792H3.87483H3.87046H3.8661H3.86175H3.85741H3.85307H3.84874H3.84442H3.8401H3.83579H3.83148H3.82719H3.8229H3.81861H3.81434H3.81007H3.8058H3.80155H3.79729H3.79305H3.78881H3.78458H3.78036H3.77614H3.77192H3.76772H3.76352H3.75932H3.75514H3.75095H3.74678H3.74261H3.73845H3.73429H3.73014H3.72599H3.72185H3.71772H3.71359H3.70947H3.70535H3.70124H3.69714H3.69304H3.68894H3.68486H3.68077H3.6767H3.67263H3.66856H3.6645H3.66045H3.6564H3.65235H3.64832H3.64428H3.64026H3.63623H3.63222H3.6282H3.6242H3.6202H3.6162H3.61221H3.60822H3.60424H3.60027H3.59629H3.59233H3.58837H3.58441H3.58046H3.57651H3.57257H3.56863H3.5647H3.56077H3.55685H3.55293H3.54902H3.54511H3.5412H3.5373H3.5334H3.52951H3.52563H3.52174H3.51787H3.51399H3.51012H3.50626H3.5024H3.49854H3.49469H3.49084H3.48699H3.48315H3.47932H3.47548H3.47165H3.46783H3.46401H3.46019H3.45638H3.45257H3.44877H3.44496H3.44117H3.43737H3.43358H3.4298H3.42601H3.42223H3.41846H3.41469H3.41092H3.40715H3.40339H3.39963H3.39588H3.39213H3.38838H3.38463H3.38089H3.37715H3.37342H3.36968H3.36595H3.36223H3.3585H3.35478H3.35107H3.34735H3.34364H3.33993H3.33623H3.33253H3.32883H3.32513H3.32144H3.31775H3.31406H3.31037H3.30669H3.30301H3.29933H3.29565H3.29198H3.28831H3.28464H3.28098H3.27731H3.27365H3.26999H3.26634H3.26268H3.25903H3.25538H3.25173H3.24809H3.24445H3.2408H3.23717H3.23353H3.22989H3.22626H3.22263H3.219H3.21537H3.21175H3.20812H3.2045H3.20088H3.19726H3.19365H3.19003H3.18642H3.18281H3.1792H3.17559H3.17198H3.16837H3.16477H3.16117H3.15757H3.15397H3.15037H3.14677H3.14317H3.13958H3.13598H3.13239H3.1288H3.12521H3.12162H3.11803H3.11444H3.11086H3.10727H3.10369H3.1001H3.09652H3.09294H3.08936H3.08578H3.0822H3.07862H3.07504H3.07146H3.06789H3.06431H3.06073H3.05716H3.05358H3.05001H3.04644H3.04286H3.03929H3.03572H3.03214H3.02857H3.025H3.02143H3.01786H3.01429H3.01071H3.00714H3.00357H3H2.99643H2.99286H2.98929H2.98572H2.98214H2.97857H2.975H2.97143H2.96786H2.96428H2.96071H2.95714H2.95356H2.94999H2.94642H2.94284H2.93927H2.93569H2.93211H2.92854H2.92496H2.92138H2.9178H2.91422H2.91064H2.90706H2.90348H2.8999H2.89631H2.89273H2.88914H2.88556H2.88197H2.87838H2.87479H2.8712H2.86761H2.86402H2.86042H2.85683H2.85323H2.84963H2.84603H2.84243H2.83883H2.83523H2.83163H2.82802H2.82441H2.8208H2.81719H2.81358H2.80997H2.80635H2.80274H2.79912H2.7955H2.79188H2.78825H2.78463H2.781H2.77737H2.77374H2.77011H2.76647H2.76283H2.7592H2.75555H2.75191H2.74827H2.74462H2.74097H2.73732H2.73366H2.73001H2.72635H2.72269H2.71902H2.71536H2.71169H2.70802H2.70435H2.70067H2.69699H2.69331H2.68963H2.68594H2.68225H2.67856H2.67487H2.67117H2.66747H2.66377H2.66007H2.65636H2.65265H2.64893H2.64522H2.64149H2.63777H2.63405H2.63032H2.62658H2.62285H2.61911H2.61537H2.61162H2.60787H2.60412H2.60037H2.59661H2.59285H2.58908H2.58531H2.58154H2.57777H2.57399H2.5702H2.56642H2.56263H2.55883H2.55504H2.55123H2.54743H2.54362H2.53981H2.53599H2.53217H2.52835H2.52452H2.52068H2.51685H2.51301H2.50916H2.50531H2.50146H2.4976H2.49374H2.48988H2.48601H2.48213H2.47826H2.47437H2.47049H2.4666H2.4627H2.4588H2.45489H2.45098H2.44707H2.44315H2.43923H2.4353H2.43137H2.42743H2.42349H2.41954H2.41559H2.41163H2.40767H2.40371H2.39973H2.39576H2.39178H2.38779H2.3838H2.3798H2.3758H2.3718H2.36778H2.36377H2.35974H2.35572H2.35168H2.34765H2.3436H2.33955H2.3355H2.33144H2.32737H2.3233H2.31923H2.31514H2.31106H2.30696H2.30286H2.29876H2.29465H2.29053H2.28641H2.28228H2.27815H2.27401H2.26986H2.26571H2.26155H2.25739H2.25322H2.24905H2.24486H2.24068H2.23648H2.23228H2.22808H2.22386H2.21964H2.21542H2.21119H2.20695H2.20271H2.19845H2.1942H2.18993H2.18566H2.18139H2.1771H2.17281H2.16852H2.16421H2.1599H2.15558H2.15126H2.14693H2.14259H2.13825H2.1339H2.12954H2.12517H2.1208H2.11642H2.11204H2.10764H2.10324H2.09884H2.09442H2.09H2.08557H2.08113H2.07669H2.07224H2.06778H2.06331H2.05884H2.05436H2.04987H2.04538H2.04087H2.03636H2.03184H2.02732H2.02278H2.01824H2.01369H2.00914H2.00457H2C1.44772 14.3638 1 14.8115 1 15.3638C1 15.916 1.44772 16.3638 2 16.3638H2.00457H2.00914H2.01369H2.01824H2.02278H2.02732H2.03184H2.03636H2.04087H2.04538H2.04987H2.05436H2.05884H2.06331H2.06778H2.07224H2.07669H2.08113H2.08557H2.09H2.09442H2.09884H2.10324H2.10764H2.11204H2.11642H2.1208H2.12517H2.12954H2.1339H2.13825H2.14259H2.14693H2.15126H2.15558H2.1599H2.16421H2.16852H2.17281H2.1771H2.18139H2.18566H2.18993H2.1942H2.19845H2.20271H2.20695H2.21119H2.21542H2.21964H2.22386H2.22808H2.23228H2.23648H2.24068H2.24486H2.24905H2.25322H2.25739H2.26155H2.26571H2.26986H2.27401H2.27815H2.28228H2.28641H2.29053H2.29465H2.29876H2.30286H2.30696H2.31106H2.31514H2.31923H2.3233H2.32737H2.33144H2.3355H2.33955H2.3436H2.34765H2.35168H2.35572H2.35974H2.36377H2.36778H2.3718H2.3758H2.3798H2.3838H2.38779H2.39178H2.39576H2.39973H2.40371H2.40767H2.41163H2.41559H2.41954H2.42349H2.42743H2.43137H2.4353H2.43923H2.44315H2.44707H2.45098H2.45489H2.4588H2.4627H2.4666H2.47049H2.47437H2.47826H2.48213H2.48601H2.48988H2.49374H2.4976H2.50146H2.50531H2.50916H2.51301H2.51685H2.52068H2.52452H2.52835H2.53217H2.53599H2.53981H2.54362H2.54743H2.55123H2.55504H2.55883H2.56263H2.56642H2.5702H2.57399H2.57777H2.58154H2.58531H2.58908H2.59285H2.59661H2.60037H2.60412H2.60787H2.61162H2.61537H2.61911H2.62285H2.62658H2.63032H2.63405H2.63777H2.64149H2.64522H2.64893H2.65265H2.65636H2.66007H2.66377H2.66747H2.67117H2.67487H2.67856H2.68225H2.68594H2.68963H2.69331H2.69699H2.70067H2.70435H2.70802H2.71169H2.71536H2.71902H2.72269H2.72635H2.73001H2.73366H2.73732H2.74097H2.74462H2.74827H2.75191H2.75555H2.7592H2.76283H2.76647H2.77011H2.77374H2.77737H2.781H2.78463H2.78825H2.79188H2.7955H2.79912H2.80274H2.80635H2.80997H2.81358H2.81719H2.8208H2.82441H2.82802H2.83163H2.83523H2.83883H2.84243H2.84603H2.84963H2.85323H2.85683H2.86042H2.86402H2.86761H2.8712H2.87479H2.87838H2.88197H2.88556H2.88914H2.89273H2.89631H2.8999H2.90348H2.90706H2.91064H2.91422H2.9178H2.92138H2.92496H2.92854H2.93211H2.93569H2.93927H2.94284H2.94642H2.94999H2.95356H2.95714H2.96071H2.96428H2.96786H2.97143H2.975H2.97857H2.98214H2.98572H2.98929H2.99286H2.99643H3H3.00357H3.00714H3.01071H3.01429H3.01786H3.02143H3.025H3.02857H3.03214H3.03572H3.03929H3.04286H3.04644H3.05001H3.05358H3.05716H3.06073H3.06431H3.06789H3.07146H3.07504H3.07862H3.0822H3.08578H3.08936H3.09294H3.09652H3.1001H3.10369H3.10727H3.11086H3.11444H3.11803H3.12162H3.12521H3.1288H3.13239H3.13598H3.13958H3.14317H3.14677H3.15037H3.15397H3.15757H3.16117H3.16477H3.16837H3.17198H3.17559H3.1792H3.18281H3.18642H3.19003H3.19365H3.19726H3.20088H3.2045H3.20812H3.21175H3.21537H3.219H3.22263H3.22626H3.22989H3.23353H3.23717H3.2408H3.24445H3.24809H3.25173H3.25538H3.25903H3.26268H3.26634H3.26999H3.27365H3.27731H3.28098H3.28464H3.28831H3.29198H3.29565H3.29933H3.30301H3.30669H3.31037H3.31406H3.31775H3.32144H3.32513H3.32883H3.33253H3.33623H3.33993H3.34364H3.34735H3.35107H3.35478H3.3585H3.36223H3.36595H3.36968H3.37342H3.37715H3.38089H3.38463H3.38838H3.39213H3.39588H3.39963H3.40339H3.40715H3.41092H3.41469H3.41846H3.42223H3.42601H3.4298H3.43358H3.43737H3.44117H3.44496H3.44877H3.45257H3.45638H3.46019H3.46401H3.46783H3.47165H3.47548H3.47932H3.48315H3.48699H3.49084H3.49469H3.49854H3.5024H3.50626H3.51012H3.51399H3.51787H3.52174H3.52563H3.52951H3.5334H3.5373H3.5412H3.54511H3.54902H3.55293H3.55685H3.56077H3.5647H3.56863H3.57257H3.57651H3.58046H3.58441H3.58837H3.59233H3.59629H3.60027H3.60424H3.60822H3.61221H3.6162H3.6202H3.6242H3.6282H3.63222H3.63623H3.64026H3.64428H3.64832H3.65235H3.6564H3.66045H3.6645H3.66856H3.67263H3.6767H3.68077H3.68486H3.68894H3.69304H3.69714H3.70124H3.70535H3.70947H3.71359H3.71772H3.72185H3.72599H3.73014H3.73429H3.73845H3.74261H3.74678H3.75095H3.75514H3.75932H3.76352H3.76772H3.77192H3.77614H3.78036H3.78458H3.78881H3.79305H3.79729H3.80155H3.8058H3.81007H3.81434H3.81861H3.8229H3.82719H3.83148H3.83579H3.8401H3.84442H3.84874H3.85307H3.85741H3.86175H3.8661H3.87046H3.87483H3.8792H3.88358H3.88796H3.89236H3.89676H3.90116H3.90558H3.91H3.91443H3.91887H3.92331H3.92776H3.93222H3.93669H3.94116H3.94564H3.95013H3.95462H3.95913H3.96364H3.96816H3.97268H3.97722H3.98176H3.98631H3.99086H3.99543H4C5.45213 16.3638 6.4855 15.4035 7.16463 14.7314L7.6467 14.2544C8.01913 13.8858 8.52646 13.6769 9.05762 13.6769H12.0477C12.2838 13.6769 12.4572 13.8635 12.4572 14.0718C12.4572 14.28 12.2838 14.4667 12.0477 14.4667H10.6382C10.0859 14.4667 9.63817 14.9144 9.63817 15.4667C9.63817 16.0189 10.0859 16.4667 10.6382 16.4667H12.0477H13.6283C14.6831 16.4667 15.6969 16.0521 16.446 15.3108L20.1512 11.6441Z" fill="black"/>
</svg>
