<svg width="24" height="24" viewBox="0 0 24 24" fill="none" xmlns="http://www.w3.org/2000/svg">
<path fill-rule="evenodd" clip-rule="evenodd" d="M5 6C5 4.89543 5.89543 4 7 4H11.7574V7.24264C11.7574 8.8995 13.1005 10.2426 14.7574 10.2426H18V11.5C18 12.0523 18.4477 12.5 19 12.5C19.5523 12.5 20 12.0523 20 11.5V9.24264C20 8.18178 19.5786 7.16436 18.8284 6.41421L15.5858 3.17157C14.8356 2.42143 13.8182 2 12.7574 2H7C4.79086 2 3 3.79086 3 6V18C3 20.2091 4.79086 22 7 22H11C11.5523 22 12 21.5523 12 21C12 20.4477 11.5523 20 11 20H7C5.89543 20 5 19.1046 5 18V6ZM13.7574 7.24264V4.26794C13.9075 4.3546 14.0469 4.46111 14.1716 4.58579L17.4142 7.82843C17.5389 7.9531 17.6454 8.09254 17.7321 8.24264H14.7574C14.2051 8.24264 13.7574 7.79493 13.7574 7.24264ZM18 14.5H16.5C16.2239 14.5 16 14.7239 16 15V16.75C16 16.8881 15.8881 17 15.75 17H14C13.7239 17 13.5 17.2239 13.5 17.5V19C13.5 19.2761 13.7239 19.5 14 19.5H15.75C15.8881 19.5 16 19.6119 16 19.75V21.5C16 21.7761 16.2239 22 16.5 22H18C18.2761 22 18.5 21.7761 18.5 21.5V19.75C18.5 19.6119 18.6119 19.5 18.75 19.5H20.5C20.7761 19.5 21 19.2761 21 19V17.5C21 17.2239 20.7761 17 20.5 17H18.75C18.6119 17 18.5 16.8881 18.5 16.75V15C18.5 14.7239 18.2761 14.5 18 14.5Z" fill="black"/>
</svg>
