<svg width="24" height="24" viewBox="0 0 24 24" fill="none" xmlns="http://www.w3.org/2000/svg">
<path d="M10.0477 17.4667H8.63817M10.0477 17.4667H11.6283C12.4213 17.4667 13.1818 17.1549 13.7426 16.6L17.4478 12.9333C18.0317 12.3556 18.9783 12.3556 19.5621 12.9333C20.146 13.5111 20.146 14.4479 19.5621 15.0256L15.4369 19.108C13.5646 20.9607 11.0369 22 8.40288 22H4M10.0477 17.4667C10.8262 17.4667 11.4572 16.8422 11.4572 16.0718C11.4572 15.3014 10.8262 14.6769 10.0477 14.6769H7.05762C6.2646 14.6769 5.50406 14.9887 4.94331 15.5436L4.46123 16.0206C4.314 16.1663 4.16005 16.302 4 16.4271M12 7V5M12 7V9M12 7H14M12 7H10M12 12V12C14.7614 12 17 9.76142 17 7V7C17 4.23858 14.7614 2 12 2V2C9.23858 2 7 4.23858 7 7V7C7 9.76142 9.23858 12 12 12Z" stroke="black" stroke-width="2" stroke-linecap="round" stroke-linejoin="round"/>
</svg>
