<svg width="24" height="24" viewBox="0 0 24 24" fill="none" xmlns="http://www.w3.org/2000/svg">
<path fill-rule="evenodd" clip-rule="evenodd" d="M3 7C3 5.89543 3.89543 5 5 5H9.39445C10.0632 5 10.6876 5.3342 11.0585 5.8906L11.2774 6.2188C12.0192 7.3316 13.2681 8 14.6056 8H19C20.1046 8 21 8.89543 21 10V11.5C21 12.0523 21.4477 12.5 22 12.5C22.5523 12.5 23 12.0523 23 11.5V10C23 7.79086 21.2091 6 19 6H14.6056C13.9368 6 13.3124 5.6658 12.9415 5.1094L12.7226 4.7812C11.9808 3.6684 10.7319 3 9.39445 3H5C2.79086 3 1 4.79086 1 7V17C1 19.2091 2.79086 21 5 21H14C14.5523 21 15 20.5523 15 20C15 19.4477 14.5523 19 14 19H5C3.89543 19 3 18.1046 3 17V7ZM20 13.5H18.5C18.2239 13.5 18 13.7239 18 14V15.75C18 15.8881 17.8881 16 17.75 16H16C15.7239 16 15.5 16.2239 15.5 16.5V18C15.5 18.2761 15.7239 18.5 16 18.5H17.75C17.8881 18.5 18 18.6119 18 18.75V20.5C18 20.7761 18.2239 21 18.5 21H20C20.2761 21 20.5 20.7761 20.5 20.5V18.75C20.5 18.6119 20.6119 18.5 20.75 18.5H22.5C22.7761 18.5 23 18.2761 23 18V16.5C23 16.2239 22.7761 16 22.5 16H20.75C20.6119 16 20.5 15.8881 20.5 15.75V14C20.5 13.7239 20.2761 13.5 20 13.5Z" fill="black"/>
</svg>
