<svg width="24" height="24" viewBox="0 0 24 24" fill="none" xmlns="http://www.w3.org/2000/svg">
<path fill-rule="evenodd" clip-rule="evenodd" d="M3 6C3 3.79086 4.79086 2 7 2H10.7574C11.3345 2 11.8989 2.12476 12.4142 2.35928C12.8461 2.55583 13.2438 2.82956 13.5858 3.17157L17.8284 7.41421C18.1704 7.75623 18.4442 8.15387 18.6407 8.5858C18.8752 9.10113 19 9.66548 19 10.2426V11.5C19 12.0523 18.5523 12.5 18 12.5C17.4477 12.5 17 12.0523 17 11.5V10.2426C17 9.95407 16.9377 9.67196 16.8204 9.4142C16.7534 9.26705 16.6685 9.1279 16.5672 9.00007H13C12.4477 9.00007 12 8.55236 12 8.00007V4.43287C11.8721 4.33149 11.733 4.24662 11.5858 4.17965C11.328 4.06235 11.0459 4 10.7574 4H7C5.89543 4 5 4.89543 5 6V18C5 19.1046 5.89543 20 7 20H11C11.5523 20 12 20.4477 12 21C12 21.5523 11.5523 22 11 22H7C4.79086 22 3 20.2091 3 18V6ZM18 14.5H16.5C16.2239 14.5 16 14.7239 16 15V16.75C16 16.8881 15.8881 17 15.75 17H14C13.7239 17 13.5 17.2239 13.5 17.5V19C13.5 19.2761 13.7239 19.5 14 19.5H15.75C15.8881 19.5 16 19.6119 16 19.75V21.5C16 21.7761 16.2239 22 16.5 22H18C18.2761 22 18.5 21.7761 18.5 21.5V19.75C18.5 19.6119 18.6119 19.5 18.75 19.5H20.5C20.7761 19.5 21 19.2761 21 19V17.5C21 17.2239 20.7761 17 20.5 17H18.75C18.6119 17 18.5 16.8881 18.5 16.75V15C18.5 14.7239 18.2761 14.5 18 14.5Z" fill="black"/>
</svg>
