<svg width="24" height="24" viewBox="0 0 24 24" fill="none" xmlns="http://www.w3.org/2000/svg">
<path fill-rule="evenodd" clip-rule="evenodd" d="M3 5C3 2.79086 4.79086 1 7 1H12.7574C13.3345 1 13.8989 1.12476 14.4142 1.35928C14.8461 1.55583 15.2438 1.82956 15.5858 2.17157L19.8284 6.41421C20.1704 6.75623 20.4442 7.15387 20.6407 7.5858C20.8752 8.10113 21 8.66548 21 9.24264V19C21 21.2091 19.2091 23 17 23H7C4.79086 23 3 21.2091 3 19V5ZM7 3C5.89543 3 5 3.89543 5 5V19C5 20.1046 5.89543 21 7 21H17C18.1046 21 19 20.1046 19 19V9.24264C19 8.95406 18.9377 8.67196 18.8204 8.4142C18.7534 8.26705 18.6685 8.1279 18.5672 8.00007H15C14.4477 8.00007 14 7.55236 14 7.00007V3.43287C13.8721 3.33149 13.733 3.24662 13.5858 3.17965C13.328 3.06235 13.0459 3 12.7574 3H7ZM12.75 9.75H11.25C10.9739 9.75 10.75 9.97386 10.75 10.25V12C10.75 12.1381 10.6381 12.25 10.5 12.25H8.75C8.47386 12.25 8.25 12.4739 8.25 12.75V14.25C8.25 14.5261 8.47386 14.75 8.75 14.75H10.5C10.6381 14.75 10.75 14.8619 10.75 15V16.75C10.75 17.0261 10.9739 17.25 11.25 17.25H12.75C13.0261 17.25 13.25 17.0261 13.25 16.75V15C13.25 14.8619 13.3619 14.75 13.5 14.75H15.25C15.5261 14.75 15.75 14.5261 15.75 14.25V12.75C15.75 12.4739 15.5261 12.25 15.25 12.25H13.5C13.3619 12.25 13.25 12.1381 13.25 12V10.25C13.25 9.97386 13.0261 9.75 12.75 9.75Z" fill="black"/>
</svg>
