<svg width="24" height="24" viewBox="0 0 24 24" fill="none" xmlns="http://www.w3.org/2000/svg">
<path fill-rule="evenodd" clip-rule="evenodd" d="M4.2786 4.46365C6.72005 2.31504 9.85657 2.68714 11.9934 4.55159C14.1277 2.68649 17.2314 2.34237 19.6988 4.45469C22.4076 6.77365 22.7256 10.7114 20.6482 13.4648C19.3326 15.2085 15.8559 18.4908 13.9906 20.215C12.8583 21.2616 11.1294 21.2616 9.99714 20.215C8.13183 18.4908 4.65512 15.2085 3.33953 13.4648C1.25363 10.7001 1.6318 6.793 4.2786 4.46365ZM5.59991 5.96504C7.35423 4.42113 9.71582 4.80197 11.2246 6.61874C11.4145 6.84752 11.6965 6.97987 11.9939 6.97987C12.2912 6.97987 12.5732 6.84752 12.7632 6.61874C14.2642 4.81124 16.5949 4.43029 18.3981 5.974C20.276 7.58157 20.5152 10.3203 19.0516 12.2602C17.8691 13.8275 14.5526 16.972 12.633 18.7463C12.2672 19.0845 11.7205 19.0845 11.3547 18.7463C9.43515 16.972 6.1186 13.8275 4.93609 12.2602C3.48098 10.3316 3.73762 7.60396 5.59991 5.96504ZM11.25 7.99995H12.75C13.0262 7.99995 13.25 8.22381 13.25 8.49995V10.75H15.5C15.7762 10.75 16 10.9738 16 11.25V12.75C16 13.0261 15.7762 13.25 15.5 13.25H13.25V15.5C13.25 15.7761 13.0262 16 12.75 16H11.25C10.9739 16 10.75 15.7761 10.75 15.5V13.25H8.50003C8.22389 13.25 8.00003 13.0261 8.00003 12.75V11.25C8.00003 10.9738 8.22389 10.75 8.50003 10.75H10.75V8.49995C10.75 8.22381 10.9739 7.99995 11.25 7.99995Z" fill="black"/>
</svg>
