<svg width="24" height="24" viewBox="0 0 24 24" fill="none" xmlns="http://www.w3.org/2000/svg">
<path d="M3.21111 11C2.63846 8.97276 3.23616 6.71319 4.93922 5.21439C7.19377 3.23025 10.1944 3.81312 11.9938 5.97991C13.7933 3.81312 16.7551 3.25113 19.0484 5.21439C20.7816 6.69811 21.3641 8.96716 20.781 11M3.21111 11C3.39655 11.6564 3.7047 12.2885 4.13778 12.8625C5.38683 14.518 8.78346 17.7315 10.6759 19.4807C11.4249 20.1731 12.5627 20.1731 13.3118 19.4807C15.2042 17.7315 18.6008 14.518 19.8499 12.8625C20.2824 12.2894 20.5926 11.657 20.781 11M3.21111 11H7L8.5 8.5L11.9938 16L15.5 8L17 11H20.781" stroke="black" stroke-width="2" stroke-linecap="round" stroke-linejoin="round"/>
</svg>
