<svg width="24" height="24" viewBox="0 0 24 24" fill="none" xmlns="http://www.w3.org/2000/svg">
<path fill-rule="evenodd" clip-rule="evenodd" d="M3 7C3 5.89543 3.89543 5 5 5H9.39445C10.0632 5 10.6876 5.3342 11.0585 5.8906L11.2774 6.2188C12.0192 7.3316 13.2681 8 14.6056 8H19C20.1046 8 21 8.89543 21 10V17C21 18.1046 20.1046 19 19 19H5C3.89543 19 3 18.1046 3 17V7ZM5 3C2.79086 3 1 4.79086 1 7V17C1 19.2091 2.79086 21 5 21H19C21.2091 21 23 19.2091 23 17V10C23 7.79086 21.2091 6 19 6H14.6056C13.9368 6 13.3124 5.6658 12.9415 5.1094L12.7226 4.7812C11.9808 3.6684 10.7319 3 9.39445 3H5ZM12.75 9.75H11.25C10.9739 9.75 10.75 9.97386 10.75 10.25V12C10.75 12.1381 10.6381 12.25 10.5 12.25H8.75C8.47386 12.25 8.25 12.4739 8.25 12.75V14.25C8.25 14.5261 8.47386 14.75 8.75 14.75H10.5C10.6381 14.75 10.75 14.8619 10.75 15V16.75C10.75 17.0261 10.9739 17.25 11.25 17.25H12.75C13.0261 17.25 13.25 17.0261 13.25 16.75V15C13.25 14.8619 13.3619 14.75 13.5 14.75H15.25C15.5261 14.75 15.75 14.5261 15.75 14.25V12.75C15.75 12.4739 15.5261 12.25 15.25 12.25H13.5C13.3619 12.25 13.25 12.1381 13.25 12V10.25C13.25 9.97386 13.0261 9.75 12.75 9.75Z" fill="black"/>
</svg>
