<svg width="24" height="24" viewBox="0 0 24 24" fill="none" xmlns="http://www.w3.org/2000/svg">
<path d="M4 22V14.392C4 13.5568 4.51577 12.809 5.29486 12.5146L11.6628 10.1078M11.6628 10.1078C11.5697 9.49295 11.3817 8.89277 11.1023 8.32965L10.84 7.80086C9.81926 5.74336 10.7276 3.24427 12.8254 2.33812C14.519 1.6066 16.6672 2.07985 17.746 3.5853C20.3986 7.28696 20.8092 12.541 18.4467 16.4372C17.5368 17.9379 15.6439 18.5816 13.9884 18.0254C12.2243 17.4328 11.1331 15.6534 11.3961 13.798L11.671 11.8586C11.7538 11.2744 11.7501 10.6846 11.6628 10.1078Z" stroke="black" stroke-width="2" stroke-linecap="round" stroke-linejoin="round"/>
</svg>
