<svg width="24" height="24" viewBox="0 0 24 24" fill="none" xmlns="http://www.w3.org/2000/svg">
<path d="M2 11.3946C2 11.3946 7 12.4573 12 12.4573C17 12.4573 22 11.3946 22 11.3946M2 11.3946L5.36778 8.11372C6.86606 6.65411 9.15766 6.62596 10.6873 8.04837C11.4389 8.74728 12.5611 8.74728 13.3127 8.04837C14.8423 6.62596 17.1339 6.65411 18.6322 8.11372L22 11.3946M2 11.3946L5.30705 15.2606C6.37203 16.5056 7.92891 17.141 9.50427 16.9736L10.806 16.8353C11.6 16.7509 12.4 16.7509 13.194 16.8353L14.4957 16.9736C16.0711 17.141 17.628 16.5056 18.693 15.2606L22 11.3946" stroke="black" stroke-width="2" stroke-linecap="round" stroke-linejoin="round"/>
</svg>
