<svg width="24" height="24" viewBox="0 0 24 24" fill="none" xmlns="http://www.w3.org/2000/svg">
<path d="M5 10V10C3.34315 10 2 11.3431 2 13V13C2 14.6569 3.34315 16 5 16H6M5 10L6 16M5 10L8.70971 8.14515C8.90198 8.04901 9.07749 7.92251 9.2295 7.7705L9.87868 7.12132C11.0503 5.94975 12.9497 5.94975 14.1213 7.12132L14.7705 7.7705C14.9225 7.92251 15.098 8.04901 15.2903 8.14515L19 10M6 16L8.4 17.8C9.43858 18.5789 10.7018 19 12 19V19C13.2982 19 14.5614 18.5789 15.6 17.8L18 16M19 10V10C20.6569 10 22 11.3431 22 13V13C22 14.6569 20.6569 16 19 16H18M19 10L18 16M14 15V15C14.5523 15 15 14.5523 15 14V14C15 13.4477 14.5523 13 14 13V13C13.4477 13 13 13.4477 13 14V14C13 14.5523 13.4477 15 14 15Z" stroke="black" stroke-width="2" stroke-linecap="round" stroke-linejoin="round"/>
</svg>
