<svg width="24" height="24" viewBox="0 0 24 24" fill="none" xmlns="http://www.w3.org/2000/svg">
<path d="M5 9V9C3.34315 9 2 10.3431 2 12V12C2 13.6569 3.34315 15 5 15V15M5 9L9.67505 5.66068C11.0658 4.66726 12.9342 4.66726 14.325 5.66068L19 9M5 9V15M5 9C9.46734 10 14.5327 10 19 9M5 15L7.35009 16.6786C10.1317 18.6655 13.8683 18.6655 16.6499 16.6786L19 15M5 15C9.46734 16 14.5327 16 19 15M19 9V9C20.6569 9 22 10.3431 22 12V12C22 13.6569 20.6569 15 19 15V15M19 9V15" stroke="black" stroke-width="2" stroke-linecap="round" stroke-linejoin="round"/>
</svg>
