<svg width="24" height="24" viewBox="0 0 24 24" fill="none" xmlns="http://www.w3.org/2000/svg">
<path d="M8 4.5H7C5.89543 4.5 5 5.39543 5 6.5V20C5 21.1046 5.89543 22 7 22H17C18.1046 22 19 21.1046 19 20V6.5C19 5.39543 18.1046 4.5 17 4.5H16M8 4.5V5C8 5.55228 8.44772 6 9 6H15C15.5523 6 16 5.55228 16 5V4.5M8 4.5V4C8 3.44772 8.44772 3 9 3H12M16 4.5V4C16 3.44772 15.5523 3 15 3H12M12 3V2" stroke="black" stroke-width="2" stroke-linecap="round" stroke-linejoin="round"/>
<path d="M12.75 10H11.25C10.9739 10 10.75 10.2239 10.75 10.5V12.75H8.5C8.22386 12.75 8 12.9739 8 13.25V14.75C8 15.0261 8.22386 15.25 8.5 15.25H10.75V17.5C10.75 17.7761 10.9739 18 11.25 18H12.75C13.0261 18 13.25 17.7761 13.25 17.5V15.25H15.5C15.7761 15.25 16 15.0261 16 14.75V13.25C16 12.9739 15.7761 12.75 15.5 12.75H13.25V10.5C13.25 10.2239 13.0261 10 12.75 10Z" fill="black"/>
</svg>
