<svg width="24" height="24" viewBox="0 0 24 24" fill="none" xmlns="http://www.w3.org/2000/svg">
<path d="M8 4.5H7C5.89543 4.5 5 5.39543 5 6.5V14M8 4.5V5C8 5.55228 8.44772 6 9 6H15C15.5523 6 16 5.55228 16 5V4.5M8 4.5V4C8 3.44772 8.44772 3 9 3H12M16 4.5H17C18.1046 4.5 19 5.39543 19 6.5V14M16 4.5V4C16 3.44772 15.5523 3 15 3H12M12 3V2M5 14V20C5 21.1046 5.89543 22 7 22H17C18.1046 22 19 21.1046 19 20V14M5 14H8L9.5 11.5L12 18L14.5 10L16 14H19" stroke="black" stroke-width="2" stroke-linecap="round" stroke-linejoin="round"/>
</svg>
