<svg width="24" height="24" viewBox="0 0 24 24" fill="none" xmlns="http://www.w3.org/2000/svg">
<path d="M21.8 10H2.20004M21.8 10C20.8734 5.43552 16.8379 2 12 2C7.16208 2 3.12658 5.43552 2.20004 10M21.8 10C21.9311 10.6462 22 11.3151 22 12C22 12.6849 21.9311 13.3538 21.8 14M2.20004 10C2.06886 10.6462 2 11.3151 2 12C2 12.6849 2.06886 13.3538 2.20004 14M21.8 14H2.20004M21.8 14C20.8734 18.5645 16.8379 22 12 22C7.16208 22 3.12658 18.5645 2.20004 14" stroke="black" stroke-width="2" stroke-linecap="round" stroke-linejoin="round"/>
</svg>
