<svg width="24" height="24" viewBox="0 0 24 24" fill="none" xmlns="http://www.w3.org/2000/svg">
<path d="M9 5L7.42229 8.15542C7.14458 8.71084 7 9.32329 7 9.94427V10M9 5H15M9 5V3C9 2.44772 9.44772 2 10 2H14C14.5523 2 15 2.44772 15 3V5M15 5L16.5777 8.15542C16.8554 8.71084 17 9.32329 17 9.94427V10M12 13V14.5M12 16V14.5M12 14.5H13.5M12 14.5H10.5M7 10H17M7 10V19M17 10V19M7 19V20C7 21.1046 7.89543 22 9 22H15C16.1046 22 17 21.1046 17 20V19M7 19H17" stroke="black" stroke-width="2" stroke-linecap="round" stroke-linejoin="round"/>
</svg>
