<svg width="24" height="24" viewBox="0 0 24 24" fill="none" xmlns="http://www.w3.org/2000/svg">
<path fill-rule="evenodd" clip-rule="evenodd" d="M13 1C10.9309 1 8.74249 1.71469 7.08145 3.05873C5.39954 4.41966 4.24115 6.44827 4.36824 8.99527C4.40113 9.65451 4.37565 10.2108 4.2154 10.6915L3.05132 14.1838C2.96324 14.448 2.98936 14.737 3.1234 14.9812C3.25743 15.2254 3.48724 15.4026 3.75747 15.4701L5 15.7808V17C5 18.6569 6.34315 20 8 20H8.65287L8.83799 21.1107C9.02811 22.2514 10.1432 22.9936 11.2689 22.7288L17.8758 21.1742C18.8524 20.9444 19.5077 20.0266 19.4078 19.0283L19.0785 15.7353C19.0533 15.483 19.1321 15.1877 19.3311 14.8987C21.5471 11.6816 21.3372 7.93832 19.8944 5.05279C18.7198 2.70347 16.1383 1 13 1ZM6.36575 8.8956C6.27508 7.07833 7.07804 5.63422 8.33951 4.6135C9.62184 3.57589 11.3588 3 13 3C15.4046 3 17.2802 4.29653 18.1056 5.94721C19.2846 8.30524 19.4136 11.2533 17.6841 13.7642C17.2742 14.3592 17.0069 15.1186 17.0884 15.9343L17.4177 19.2273L10.8108 20.7819L10.4864 18.8356C10.406 18.3534 9.98884 18 9.5 18H8C7.44772 18 7 17.5523 7 17V15C7 14.5411 6.6877 14.1411 6.24254 14.0299L5.29017 13.7918L6.11277 11.324C6.39278 10.484 6.40224 9.62684 6.36575 8.8956ZM11.75 5.5C11.75 5.22386 11.9739 5 12.25 5H13.75C14.0261 5 14.25 5.22386 14.25 5.5V7.75H16.5C16.7761 7.75 17 7.97386 17 8.25V9.75C17 10.0261 16.7761 10.25 16.5 10.25H14.25V12.5C14.25 12.7761 14.0261 13 13.75 13H12.25C11.9739 13 11.75 12.7761 11.75 12.5V10.25H9.5C9.22386 10.25 9 10.0261 9 9.75V8.25C9 7.97386 9.22386 7.75 9.5 7.75H11.75V5.5Z" fill="black"/>
</svg>
