<svg width="24" height="24" viewBox="0 0 24 24" fill="none" xmlns="http://www.w3.org/2000/svg">
<path d="M7.16953 15.9999C4.86607 15.9999 3.42196 13.5115 4.5648 11.5115L5.42852 10M13.505 15.9999C15.8785 15.9999 17.312 13.3742 16.0285 11.3777L15.1429 10M10.25 13.4999V15.9999C10.25 18.2091 12.0409 19.9999 14.25 19.9999H18C20.2091 19.9999 22 18.2091 22 15.9999V4M10.25 13.4999C9.14543 13.4999 8.25 12.6045 8.25 11.4999C8.25 10.3954 9.14543 9.49993 10.25 9.49993C11.3546 9.49993 12.25 10.3954 12.25 11.4999C12.25 12.6045 11.3546 13.4999 10.25 13.4999ZM5.42852 10L7.5462 6.29407C8.66352 4.33875 11.4567 4.26584 12.6745 6.16021L15.1429 10M5.42852 10H2M15.1429 10H18.5" stroke="black" stroke-width="2" stroke-linecap="round" stroke-linejoin="round"/>
</svg>
