<svg width="24" height="24" viewBox="0 0 24 24" fill="none" xmlns="http://www.w3.org/2000/svg">
<path d="M14.9835 9.5V7M14.9835 9.5H8.98347M14.9835 9.5H15.4835C15.7596 9.5 15.9835 9.72386 15.9835 10V10.5H16.4835C17.3119 10.5 17.9835 11.1716 17.9835 12C17.9835 12.8284 17.3119 13.5 16.4835 13.5H15.9835V14C15.9835 14.2761 15.7596 14.5 15.4835 14.5H14.9835M8.98347 9.5H8.48347C8.20732 9.5 7.98347 9.72386 7.98347 10V10.5H7.5C6.67799 10.5 6.0091 11.1616 6.00009 11.9836C5.99094 12.8184 6.66515 13.5 7.5 13.5H7.98347V14C7.98347 14.2761 8.20732 14.5 8.48347 14.5H8.98347M8.98347 9.5V7M8.98347 14.5V17M8.98347 14.5H14.9835M8.98347 17H8.50009C8.22395 17 8.00009 17.2239 8.00009 17.5V18H7.51663C6.69461 18 6.02573 18.6616 6.01672 19.4836C6.00756 20.3184 6.68177 21 7.51663 21H8.00009V21.5C8.00009 21.7761 8.22395 22 8.50009 22H15.5001C15.7762 22 16.0001 21.7761 16.0001 21.5V21H16.5001C17.3285 21 18.0001 20.3284 18.0001 19.5C18.0001 18.6716 17.3285 18 16.5001 18H16.0001V17.5C16.0001 17.2239 15.7762 17 15.5001 17H14.9835M8.98347 17H14.9835M14.9835 17V14.5M8.98347 7H8.48347C8.20732 7 7.98347 6.77614 7.98347 6.5V6H7.5C6.66515 6 5.99094 5.31836 6.00009 4.48356C6.0091 3.66159 6.67799 3 7.5 3H7.98347V2.5C7.98347 2.22386 8.20732 2 8.48347 2H15.4835C15.7596 2 15.9835 2.22386 15.9835 2.5V3H16.4835C17.3119 3 17.9835 3.67157 17.9835 4.5C17.9835 5.32843 17.3119 6 16.4835 6H15.9835V6.5C15.9835 6.77614 15.7596 7 15.4835 7H14.9835M8.98347 7H14.9835" stroke="black" stroke-width="2" stroke-linecap="round" stroke-linejoin="round"/>
</svg>
