<svg width="24" height="24" viewBox="0 0 24 24" fill="none" xmlns="http://www.w3.org/2000/svg">
<path d="M4.5 4.5L8.25 8.25M4.5 4.5L6 3M4.5 4.5L3 6M8.25 8.25L10.5 6L11.6893 7.18934C11.8883 7.38825 12 7.65804 12 7.93934V8.56066C12 8.84197 12.1117 9.11175 12.3107 9.31066L17.3787 14.3787C17.7765 14.7765 18 15.3161 18 15.8787L18 18M8.25 8.25L6 10.5L7.18934 11.6893C7.38825 11.8883 7.65804 12 7.93934 12H8.56066C8.84197 12 9.11175 12.1117 9.31066 12.3107L10.5 13.5M18 18H15.8787C15.3161 18 14.7765 17.7765 14.3787 17.3787L12.75 15.75M18 18L21 21M10.5 13.5L11.25 12.75M10.5 13.5L12.75 15.75M12.75 15.75L13.875 14.625" stroke="black" stroke-width="2" stroke-linecap="round" stroke-linejoin="round"/>
</svg>
