<svg width="24" height="24" viewBox="0 0 24 24" fill="none" xmlns="http://www.w3.org/2000/svg">
<path d="M10.8 5.1L8.88079 3.66059C8.30906 3.23179 7.61368 3 6.89901 3C4.85798 3 3.30545 4.8327 3.64099 6.84596L5.73353 19.4012C5.8873 20.3238 6.68555 21 7.6209 21C8.44448 21 9.17567 20.473 9.43611 19.6917L11.0513 14.8461C11.3552 13.9344 12.6448 13.9344 12.9487 14.846L14.5639 19.6917C14.8243 20.473 15.5555 21 16.3791 21C17.3145 21 18.1127 20.3238 18.2665 19.4012L20.359 6.84596C20.6945 4.8327 19.142 3 17.101 3C16.3863 3 15.6909 3.23179 15.1192 3.66059L13.2 5.1C12.4889 5.63333 11.5111 5.63333 10.8 5.1Z" stroke="black" stroke-width="2" stroke-linecap="round" stroke-linejoin="round"/>
</svg>
