<svg width="24" height="24" viewBox="0 0 24 24" fill="none" xmlns="http://www.w3.org/2000/svg">
<path d="M10 15C8.89544 15 8.00001 15.8955 8.00001 17C8.00001 18.1046 8.89544 19 10 19C11.1046 19 12 18.1046 12 17C12 15.8955 11.1046 15 10 15ZM10 15V10M16 6H19M16 9H18M16 12H19M16 3H18M5 17C5 15.3642 5.78555 13.9118 7 12.9996V5C7 3.34315 8.34315 2 10 2C11.6569 2 13 3.34315 13 5V12.9996C14.2145 13.9119 15 15.3642 15 17C15 19.7614 12.7614 22 10 22C7.23858 22 5 19.7614 5 17Z" stroke="black" stroke-width="2" stroke-linecap="round" stroke-linejoin="round"/>
</svg>
