<svg width="24" height="24" viewBox="0 0 24 24" fill="none" xmlns="http://www.w3.org/2000/svg">
<path d="M17.5 9.28571L18.3935 9.38144C18.9845 9.44477 19.5 8.98158 19.5 8.38713V6.63777C19.5 5.12934 18.3799 3.85548 16.8839 3.66244L5.45358 2.18756C4.75498 2.09742 4.18463 2.73851 4.35547 3.42187L4.99196 5.96784C5.29714 7.18855 6.33166 8.08911 7.58279 8.22316L11.5 8.64286M17.5 9.28571L19.5973 17.4353C19.8322 18.3481 19.3979 19.301 18.5548 19.7226L16.8944 20.5528C15.5646 21.2177 14 20.2507 14 18.7639V13.94C14 13.3155 13.9269 12.6931 13.7821 12.0856L13 8.80357M17.5 9.28571L13 8.80357M13 8.80357L11.5 8.64286M11.5 8.64286C11 10.5 12 12 11 13.5L13.5 13" stroke="black" stroke-width="2" stroke-linecap="round" stroke-linejoin="round"/>
</svg>
