<svg width="24" height="24" viewBox="0 0 24 24" fill="none" xmlns="http://www.w3.org/2000/svg">
<path d="M12 17C10.6193 17 9.36929 16.4404 8.46447 15.5355M12 17C13.3807 17 14.6307 16.4404 15.5355 15.5355M12 17V20M8.46447 15.5355C7.55964 14.6307 7 13.3807 7 12M8.46447 15.5355L7 17M7 12C7 10.6193 7.55964 9.36929 8.46447 8.46447M7 12H4M17 12C17 13.3807 16.4404 14.6307 15.5355 15.5355M17 12C17 10.6193 16.4404 9.36929 15.5355 8.46447M17 12H20M15.5355 15.5355L17 17M12 7C13.3807 7 14.6307 7.55964 15.5355 8.46447M12 7C10.6193 7 9.36929 7.55964 8.46447 8.46447M12 7V4M15.5355 8.46447L17 7M8.46447 8.46447L7 7M12 4C12.5523 4 13 3.55228 13 3C13 2.44772 12.5523 2 12 2C11.4477 2 11 2.44772 11 3C11 3.55228 11.4477 4 12 4ZM20 12C20 12.5523 20.4477 13 21 13C21.5523 13 22 12.5523 22 12C22 11.4477 21.5523 11 21 11C20.4477 11 20 11.4477 20 12ZM12 20C12.5523 20 13 20.4477 13 21C13 21.5523 12.5523 22 12 22C11.4477 22 11 21.5523 11 21C11 20.4477 11.4477 20 12 20ZM4 12C4 11.4477 3.55228 11 3 11C2.44772 11 2 11.4477 2 12C2 12.5523 2.44772 13 3 13C3.55228 13 4 12.5523 4 12ZM7 6C7 5.44772 6.55228 5 6 5C5.44772 5 5 5.44772 5 6C5 6.55228 5.44772 7 6 7C6.55228 7 7 6.55228 7 6ZM19 6C19 5.44772 18.5523 5 18 5C17.4477 5 17 5.44772 17 6C17 6.55228 17.4477 7 18 7C18.5523 7 19 6.55228 19 6ZM19 18C19 17.4477 18.5523 17 18 17C17.4477 17 17 17.4477 17 18C17 18.5523 17.4477 19 18 19C18.5523 19 19 18.5523 19 18ZM7 18C7 17.4477 6.55228 17 6 17C5.44772 17 5 17.4477 5 18C5 18.5523 5.44772 19 6 19C6.55228 19 7 18.5523 7 18Z" stroke="black" stroke-width="2" stroke-linecap="round" stroke-linejoin="round"/>
</svg>
