<svg width="24" height="24" viewBox="0 0 24 24" fill="none" xmlns="http://www.w3.org/2000/svg">
<path d="M14.5676 5.34589C13.7705 5.12665 12.9143 5 12 5C7.04794 5 3.80114 8.71531 2.40323 10.7326C1.86558 11.5084 1.86559 12.4919 2.40326 13.2678C2.63656 13.6044 2.92135 13.9884 3.25697 14.3944M18.1216 7.10274C19.732 8.28507 20.8964 9.72192 21.5968 10.7326C22.1344 11.5084 22.1344 12.4919 21.5967 13.2678C20.1988 15.2849 16.952 19 12 19C9.52888 19 7.48238 18.0749 5.87836 16.8973M18.1216 7.10274L22 4M18.1216 7.10274L15.1236 9.50113M5.87836 16.8973L8.87641 14.4989M5.87836 16.8973L2 20M8.87641 14.4989C9.60945 15.414 10.7363 16 12 16C14.2091 16 16 14.2091 16 12C16 11.0546 15.672 10.1858 15.1236 9.50113M8.87641 14.4989L15.1236 9.50113" stroke="black" stroke-width="2" stroke-linecap="round" stroke-linejoin="round"/>
</svg>
