<svg width="24" height="24" viewBox="0 0 24 24" fill="none" xmlns="http://www.w3.org/2000/svg">
<path d="M3 3H4.5C5.60457 3 6.5 3.89543 6.5 5V5M6.5 7V5M6.5 5H16M18.75 16.5V16.5C19.9926 16.5 21 17.5074 21 18.75V18.75C21 19.9926 19.9926 21 18.75 21V21C17.5074 21 16.5 19.9926 16.5 18.75V18.75C16.5 17.5074 17.5074 16.5 18.75 16.5V16.5ZM18.75 16.5V14M18.75 14V12C18.75 10.8954 17.8546 10 16.75 10H16M18.75 14H17.5M8.5 21V21C11.5376 21 14 18.5376 14 15.5V15.5C14 12.4624 11.5376 10 8.5 10V10C5.46243 10 3 12.4624 3 15.5V15.5C3 18.5376 5.46243 21 8.5 21Z" stroke="black" stroke-width="2" stroke-linecap="round" stroke-linejoin="round"/>
</svg>
