<svg width="24" height="24" viewBox="0 0 24 24" fill="none" xmlns="http://www.w3.org/2000/svg">
<path d="M13.9636 18.9012L14 18.8482L17.449 13.8289C18.1837 12.7597 18.1837 11.2403 17.449 10.1711L14 5.15175L13.9636 5.09877M17.9636 18.9012L21.449 13.8289C22.1837 12.7597 22.1837 11.2403 21.449 10.1711L17.9636 5.09877M6 12H8H10M6.03641 5.09877L2.55103 10.1711C1.81632 11.2403 1.81632 12.7597 2.55103 13.8289L6.03641 18.9012C7.04307 20.3663 8.95692 20.3663 9.96359 18.9012L13.449 13.8289C14.1837 12.7597 14.1837 11.2403 13.449 10.1711L9.96359 5.09877C8.95693 3.63374 7.04308 3.63374 6.03641 5.09877Z" stroke="black" stroke-width="2" stroke-linecap="round" stroke-linejoin="round"/>
</svg>
