<svg width="24" height="24" viewBox="0 0 24 24" fill="none" xmlns="http://www.w3.org/2000/svg">
<path d="M7 10C7 8.34315 8.34315 7 10 7H14C15.6569 7 17 8.34315 17 10V14C17 15.6569 15.6569 17 14 17M11 6C11 4.34315 12.3431 3 14 3H18C19.6569 3 21 4.34315 21 6V10C21 11.6569 19.6569 13 18 13M3 18V14C3 12.3431 4.34315 11 6 11H10C11.6569 11 13 12.3431 13 14V18C13 19.6569 11.6569 21 10 21H6C4.34315 21 3 19.6569 3 18Z" stroke="black" stroke-width="2" stroke-linecap="round" stroke-linejoin="round"/>
</svg>
