<svg width="24" height="24" viewBox="0 0 24 24" fill="none" xmlns="http://www.w3.org/2000/svg">
<path d="M8.5 10H11C12.6569 10 14 11.3431 14 13V15.5M8.5 10H6C4.34315 10 3 11.3431 3 13V18C3 19.6569 4.34315 21 6 21H11C12.6569 21 14 19.6569 14 18V15.5M8.5 10V9C8.5 7.61929 9.61929 6.5 11 6.5H14M14 15.5H15C16.3807 15.5 17.5 14.3807 17.5 13V10M14 6.5H15C16.3807 6.5 17.5 7.61929 17.5 9V10M14 6.5V5C14 3.89543 14.8954 3 16 3H19C20.1046 3 21 3.89543 21 5V8C21 9.10457 20.1046 10 19 10H17.5" stroke="black" stroke-width="2" stroke-linecap="round" stroke-linejoin="round"/>
</svg>
