<svg width="24" height="24" viewBox="0 0 24 24" fill="none" xmlns="http://www.w3.org/2000/svg">
<path d="M14.5002 7C14.0824 6.68604 13.5629 6.5 13 6.5H9C7.61929 6.5 6.5 7.61929 6.5 9V13C6.5 13.5629 6.68604 14.0824 7 14.5002M9 3.26756C8.70583 3.09739 8.36429 3 8 3H5C3.89543 3 3 3.89543 3 5V8C3 8.36429 3.09739 8.70583 3.26756 9M13 10H18C19.6569 10 21 11.3431 21 13V18C21 19.6569 19.6569 21 18 21H13C11.3431 21 10 19.6569 10 18V13C10 11.3431 11.3431 10 13 10Z" stroke="black" stroke-width="2" stroke-linecap="round" stroke-linejoin="round"/>
</svg>
