<svg width="24" height="24" viewBox="0 0 24 24" fill="none" xmlns="http://www.w3.org/2000/svg">
<path d="M12.9162 16.9162C12.9712 16.6192 13 16.313 13 16C13 13.2386 10.7614 11 8 11C7.68704 11 7.38079 11.0288 7.08376 11.0838M12.9162 16.9162C12.4859 19.2401 10.4485 21 8 21C5.23858 21 3 18.7614 3 16C3 13.5515 4.75992 11.5141 7.08376 11.0838M12.9162 16.9162C14.943 16.5409 16.5409 14.943 16.9162 12.9162M7.08376 11.0838C7.45912 9.05695 9.05695 7.45912 11.0838 7.08376M16.9162 12.9162C16.9712 12.6192 17 12.313 17 12C17 9.23858 14.7614 7 12 7C11.687 7 11.3808 7.02875 11.0838 7.08376M16.9162 12.9162C19.2401 12.4859 21 10.4485 21 8C21 5.23858 18.7614 3 16 3C13.5515 3 11.5141 4.75992 11.0838 7.08376" stroke="black" stroke-width="2" stroke-linecap="round" stroke-linejoin="round"/>
</svg>
