<svg width="24" height="24" viewBox="0 0 24 24" fill="none" xmlns="http://www.w3.org/2000/svg">
<path d="M9.0248 10.0247C8.85207 10.0084 8.67701 10 8.5 10C5.46243 10 3 12.4624 3 15.5C3 18.5376 5.46243 21 8.5 21C11.5376 21 14 18.5376 14 15.5C14 15.323 13.9916 15.1479 13.9753 14.9752M9.0248 10.0247C11.6435 10.2726 13.7274 12.3565 13.9753 14.9752M9.0248 10.0247C9.26224 7.76285 11.1752 6 13.5 6C13.6797 6 13.8569 6.01053 14.0312 6.03102M13.9753 14.9752C16.2371 14.7378 18 12.8248 18 10.5C18 10.3203 17.9895 10.143 17.969 9.96885M14.0312 6.03102C16.0919 6.27334 17.7267 7.90809 17.969 9.96885M14.0312 6.03102C14.2603 4.31977 15.726 3 17.5 3C19.433 3 21 4.567 21 6.5C21 8.27397 19.6802 9.73969 17.969 9.96885" stroke="black" stroke-width="2" stroke-linecap="round" stroke-linejoin="round"/>
</svg>
