<svg width="24" height="24" viewBox="0 0 24 24" fill="none" xmlns="http://www.w3.org/2000/svg">
<path d="M11.6771 3.5C12.0297 3.18882 12.4928 3 13 3H19C20.1046 3 21 3.89543 21 5V11C21 11.5072 20.8112 11.9703 20.5 12.3229M16.5 16.3229C16.8112 15.9703 17 15.5072 17 15V9C17 7.89543 16.1046 7 15 7H9C8.49278 7 8.02965 7.18882 7.67709 7.5M11 11H5C3.89543 11 3 11.8954 3 13V19C3 20.1046 3.89543 21 5 21H11C12.1046 21 13 20.1046 13 19V13C13 11.8954 12.1046 11 11 11Z" stroke="black" stroke-width="2" stroke-linecap="round" stroke-linejoin="round"/>
</svg>
