<svg width="24" height="24" viewBox="0 0 24 24" fill="none" xmlns="http://www.w3.org/2000/svg">
<path d="M17.2422 13C17.7209 12.285 18 11.4251 18 10.5C18 10.3203 17.9895 10.143 17.969 9.96885C17.7267 7.90809 16.0919 6.27334 14.0312 6.03102C13.8569 6.01053 13.6797 6 13.5 6C12.5749 6 11.715 6.27914 11 6.75777M16 3.33682C16.4546 3.12085 16.9632 3 17.5 3C19.433 3 21 4.567 21 6.5C21 7.0368 20.8792 7.54537 20.6632 8M14 15.5C14 18.5376 11.5376 21 8.5 21C5.46243 21 3 18.5376 3 15.5C3 12.4624 5.46243 10 8.5 10C8.67701 10 8.85207 10.0084 9.0248 10.0247C11.6435 10.2726 13.7274 12.3565 13.9753 14.9752C13.9916 15.1479 14 15.323 14 15.5Z" stroke="black" stroke-width="2" stroke-linecap="round" stroke-linejoin="round"/>
</svg>
