<svg width="24" height="24" viewBox="0 0 24 24" fill="none" xmlns="http://www.w3.org/2000/svg">
<path d="M17 10C17 8.34315 15.6569 7 14 7H10C8.34315 7 7 8.34315 7 10V14C7 15.6569 8.34315 17 10 17M13 6C13 4.34315 11.6569 3 10 3H6C4.34315 3 3 4.34315 3 6V10C3 11.6569 4.34315 13 6 13M21 18V14C21 12.3431 19.6569 11 18 11H14C12.3431 11 11 12.3431 11 14V18C11 19.6569 12.3431 21 14 21H18C19.6569 21 21 19.6569 21 18Z" stroke="black" stroke-width="2" stroke-linecap="round" stroke-linejoin="round"/>
</svg>
