<svg width="24" height="24" viewBox="0 0 24 24" fill="none" xmlns="http://www.w3.org/2000/svg">
<path d="M11.0838 16.9162C11.0288 16.6192 11 16.313 11 16C11 13.2386 13.2386 11 16 11C16.313 11 16.6192 11.0288 16.9162 11.0838M11.0838 16.9162C11.5141 19.2401 13.5515 21 16 21C18.7614 21 21 18.7614 21 16C21 13.5515 19.2401 11.5141 16.9162 11.0838M11.0838 16.9162C9.05695 16.5409 7.45912 14.943 7.08376 12.9162M16.9162 11.0838C16.5409 9.05695 14.943 7.45912 12.9162 7.08376M7.08376 12.9162C7.02875 12.6192 7 12.313 7 12C7 9.23858 9.23858 7 12 7C12.313 7 12.6192 7.02875 12.9162 7.08376M7.08376 12.9162C4.75992 12.4859 3 10.4485 3 8C3 5.23858 5.23858 3 8 3C10.4485 3 12.4859 4.75992 12.9162 7.08376" stroke="black" stroke-width="2" stroke-linecap="round" stroke-linejoin="round"/>
</svg>
