<svg width="24" height="24" viewBox="0 0 24 24" fill="none" xmlns="http://www.w3.org/2000/svg">
<path d="M14.9752 10.0247C15.1479 10.0084 15.323 10 15.5 10C18.5376 10 21 12.4624 21 15.5C21 18.5376 18.5376 21 15.5 21C12.4624 21 10 18.5376 10 15.5C10 15.323 10.0084 15.1479 10.0247 14.9752M14.9752 10.0247C12.3565 10.2726 10.2726 12.3565 10.0247 14.9752M14.9752 10.0247C14.7378 7.76285 12.8248 6 10.5 6C10.3203 6 10.143 6.01053 9.96885 6.03102M10.0247 14.9752C7.76285 14.7378 6 12.8248 6 10.5C6 10.3203 6.01053 10.143 6.03102 9.96885M9.96885 6.03102C7.90809 6.27334 6.27334 7.90809 6.03102 9.96885M9.96885 6.03102C9.73969 4.31977 8.27397 3 6.5 3C4.567 3 3 4.567 3 6.5C3 8.27397 4.31977 9.73969 6.03102 9.96885" stroke="black" stroke-width="2" stroke-linecap="round" stroke-linejoin="round"/>
</svg>
