<svg width="24" height="24" viewBox="0 0 24 24" fill="none" xmlns="http://www.w3.org/2000/svg">
<path d="M10.5 3.66891C9.76457 3.24349 8.91072 3 8 3C5.23858 3 3 5.23858 3 8C3 8.91072 3.24349 9.76457 3.66891 10.5M7.66891 14.5C7.38968 14.0173 7.18883 13.4836 7.08376 12.9162C7.02875 12.6192 7 12.313 7 12C7 9.23858 9.23858 7 12 7C12.313 7 12.6192 7.02875 12.9162 7.08376C13.4836 7.18883 14.0173 7.38968 14.5 7.66891M11 16C11 16.313 11.0288 16.6192 11.0838 16.9162C11.5141 19.2401 13.5515 21 16 21C18.7614 21 21 18.7614 21 16C21 13.5515 19.2401 11.5141 16.9162 11.0838C16.6192 11.0288 16.313 11 16 11C13.2386 11 11 13.2386 11 16Z" stroke="black" stroke-width="2" stroke-linecap="round" stroke-linejoin="round"/>
</svg>
