<svg width="24" height="24" viewBox="0 0 24 24" fill="none" xmlns="http://www.w3.org/2000/svg">
<path d="M9.49976 7C9.91763 6.68604 10.4371 6.5 11 6.5H15C16.3807 6.5 17.5 7.61929 17.5 9V13C17.5 13.5629 17.314 14.0824 17 14.5002M15 3.26756C15.2942 3.09739 15.6357 3 16 3H19C20.1046 3 21 3.89543 21 5V8C21 8.36429 20.9026 8.70583 20.7324 9M11 10H6C4.34315 10 3 11.3431 3 13V18C3 19.6569 4.34315 21 6 21H11C12.6569 21 14 19.6569 14 18V13C14 11.3431 12.6569 10 11 10Z" stroke="black" stroke-width="2" stroke-linecap="round" stroke-linejoin="round"/>
</svg>
