<svg width="24" height="24" viewBox="0 0 24 24" fill="none" xmlns="http://www.w3.org/2000/svg">
<path d="M13.5 3.66891C14.2354 3.24349 15.0893 3 16 3C18.7614 3 21 5.23858 21 8C21 8.91072 20.7565 9.76457 20.3311 10.5M16.3311 14.5C16.6103 14.0173 16.8112 13.4836 16.9162 12.9162C16.9712 12.6192 17 12.313 17 12C17 9.23858 14.7614 7 12 7C11.687 7 11.3808 7.02875 11.0838 7.08376C10.5164 7.18883 9.98271 7.38968 9.5 7.66891M13 16C13 16.313 12.9712 16.6192 12.9162 16.9162C12.4859 19.2401 10.4485 21 8 21C5.23858 21 3 18.7614 3 16C3 13.5515 4.75992 11.5141 7.08376 11.0838C7.38079 11.0288 7.68704 11 8 11C10.7614 11 13 13.2386 13 16Z" stroke="black" stroke-width="2" stroke-linecap="round" stroke-linejoin="round"/>
</svg>
