<svg width="24" height="24" viewBox="0 0 24 24" fill="none" xmlns="http://www.w3.org/2000/svg">
<path d="M12.3229 3.5C11.9703 3.18882 11.5072 3 11 3H5C3.89543 3 3 3.89543 3 5V11C3 11.5072 3.18882 11.9703 3.5 12.3229M7.5 16.3229C7.18882 15.9703 7 15.5072 7 15V9C7 7.89543 7.89543 7 9 7H15C15.5072 7 15.9703 7.18882 16.3229 7.5M13 11H19C20.1046 11 21 11.8954 21 13V19C21 20.1046 20.1046 21 19 21H13C11.8954 21 11 20.1046 11 19V13C11 11.8954 11.8954 11 13 11Z" stroke="black" stroke-width="2" stroke-linecap="round" stroke-linejoin="round"/>
</svg>
