<svg width="24" height="24" viewBox="0 0 24 24" fill="none" xmlns="http://www.w3.org/2000/svg">
<path d="M15.5 10H13C11.3431 10 10 11.3431 10 13V15.5M15.5 10H18C19.6569 10 21 11.3431 21 13V18C21 19.6569 19.6569 21 18 21H13C11.3431 21 10 19.6569 10 18V15.5M15.5 10V9C15.5 7.61929 14.3807 6.5 13 6.5H10M10 15.5H9C7.61929 15.5 6.5 14.3807 6.5 13V10M10 6.5H9C7.61929 6.5 6.5 7.61929 6.5 9V10M10 6.5V5C10 3.89543 9.10457 3 8 3H5C3.89543 3 3 3.89543 3 5V8C3 9.10457 3.89543 10 5 10H6.5" stroke="black" stroke-width="2" stroke-linecap="round" stroke-linejoin="round"/>
</svg>
