<svg width="24" height="24" viewBox="0 0 24 24" fill="none" xmlns="http://www.w3.org/2000/svg">
<path d="M6.75777 13C6.27914 12.285 6 11.4251 6 10.5C6 10.3203 6.01053 10.143 6.03102 9.96885C6.27334 7.90809 7.90809 6.27334 9.96885 6.03102C10.143 6.01053 10.3203 6 10.5 6C11.4251 6 12.285 6.27914 13 6.75777M8 3.33682C7.54537 3.12085 7.0368 3 6.5 3C4.567 3 3 4.567 3 6.5C3 7.0368 3.12085 7.54537 3.33682 8M10 15.5C10 18.5376 12.4624 21 15.5 21C18.5376 21 21 18.5376 21 15.5C21 12.4624 18.5376 10 15.5 10C15.323 10 15.1479 10.0084 14.9752 10.0247C12.3565 10.2726 10.2726 12.3565 10.0247 14.9752C10.0084 15.1479 10 15.323 10 15.5Z" stroke="black" stroke-width="2" stroke-linecap="round" stroke-linejoin="round"/>
</svg>
