<svg width="24" height="24" viewBox="0 0 24 24" fill="none" xmlns="http://www.w3.org/2000/svg">
<path d="M4.27054 8H19.7295M12 2C7.85566 2.01097 5.95201 3.21946 4.08283 7.3848C3.91704 7.75424 4.0059 8.18575 4.29773 8.47102L12 16L19.7023 8.47102C19.9941 8.18575 20.083 7.75424 19.9172 7.3848C18.048 3.21946 16.1443 2.01097 12 2ZM9.90793 22H14.0921C15.1966 22 16.0921 21.1046 16.0921 20V18C16.0921 16.8954 15.1966 16 14.0921 16H9.90793C8.80336 16 7.90793 16.8954 7.90793 18V20C7.90793 21.1046 8.80336 22 9.90793 22Z" stroke="black" stroke-width="2" stroke-linecap="round" stroke-linejoin="round"/>
</svg>
