<svg width="24" height="24" viewBox="0 0 24 24" fill="none" xmlns="http://www.w3.org/2000/svg">
<path d="M7.88589 17V20C7.88589 21.1046 8.78132 22 9.88589 22H14.1141C15.2187 22 16.1141 21.1046 16.1141 20V17M7.88589 17V16C7.88589 14.8954 8.78132 14 9.88589 14H14.1141C15.2187 14 16.1141 14.8954 16.1141 16V17M7.88589 17H16.1141M4.2289 8H19.7711M12 2C7.86628 2.01088 5.94983 3.20042 4.08477 7.28655C3.89467 7.70302 4.03359 8.19091 4.4085 8.46429L12 14L19.5915 8.46429C19.9664 8.19091 20.1053 7.70302 19.9152 7.28655C18.0502 3.20042 16.1337 2.01088 12 2Z" stroke="black" stroke-width="2" stroke-linecap="round" stroke-linejoin="round"/>
</svg>
