<svg width="24" height="24" viewBox="0 0 24 24" fill="none" xmlns="http://www.w3.org/2000/svg">
<path d="M4.5 8H19.5M8 17V20C8 21.1046 8.89543 22 10 22H14C15.1046 22 16 21.1046 16 20V17M8 17V16C8 14.8954 8.89543 14 10 14H14C15.1046 14 16 14.8954 16 16V17M8 17H16M12 2C7.41621 2.01103 6.24673 3.23345 4.25333 7.45722C4.09638 7.78979 4.13758 8.18344 4.35823 8.47764L8.5 14H15.5L19.6418 8.47764C19.8624 8.18344 19.9036 7.78979 19.7467 7.45722C17.7533 3.23345 16.5838 2.01103 12 2Z" stroke="black" stroke-width="2" stroke-linecap="round" stroke-linejoin="round"/>
</svg>
