<svg width="24" height="24" viewBox="0 0 24 24" fill="none" xmlns="http://www.w3.org/2000/svg">
<path d="M4.5 8H19.5M12 2C7.38791 2.0111 6.23242 3.24859 4.21632 7.53579C4.07966 7.82639 4.09326 8.1658 4.2507 8.44568L8.5 16H15.5L19.7493 8.44568C19.9067 8.1658 19.9203 7.82639 19.7837 7.53579C17.7676 3.24859 16.6121 2.0111 12 2ZM10 22H14C15.1046 22 16 21.1046 16 20V18C16 16.8954 15.1046 16 14 16H10C8.89543 16 8 16.8954 8 18V20C8 21.1046 8.89543 22 10 22Z" stroke="black" stroke-width="2" stroke-linecap="round" stroke-linejoin="round"/>
</svg>
