<svg width="24" height="24" viewBox="0 0 24 24" fill="none" xmlns="http://www.w3.org/2000/svg">
<path d="M9 17.9998H15M9 17.9998V14.9998M9 17.9998L8.31061 20.7575C8.15284 21.3886 8.63019 22 9.28076 22H14.7192C15.3698 22 15.8472 21.3886 15.6894 20.7575L15 17.9998M15 17.9998V14.9998M15 14.9998H9M15 14.9998L18.8318 8.86881C19.5269 7.75672 19.4286 6.31192 18.5607 5.32875C16.5493 3.0502 15.2884 2.10236 12 2C8.71158 2.10236 7.45073 3.0502 5.43933 5.32875C4.57143 6.31192 4.47309 7.75672 5.16815 8.86881L9 14.9998" stroke="black" stroke-width="2" stroke-linecap="round" stroke-linejoin="round"/>
</svg>
