<svg width="24" height="24" viewBox="0 0 24 24" fill="none" xmlns="http://www.w3.org/2000/svg">
<path d="M9 17.9998H15M9 17.9998V14.9998M9 17.9998L8.31061 20.7575C8.15284 21.3886 8.63019 22 9.28076 22H14.7192C15.3698 22 15.8472 21.3886 15.6894 20.7575L15 17.9998M15 17.9998V14.9998M15 14.9998L19.0062 8.58981C19.6142 7.61697 19.6382 6.3604 18.9097 5.47414C16.6596 2.73662 14.1457 2 12 2C11.6032 2.01235 11.2261 2.03701 10.8657 2.07484C9.80599 2.18607 9.19419 3.24449 9.44158 4.28093L9.49386 4.5M15 14.9998H12M9 14.9998L5.22583 9.71593C4.5596 8.78321 4.81201 7.48249 5.77875 6.86665L9.49386 4.5M9 14.9998H12M12 14.9998L9.49386 4.5" stroke="black" stroke-width="2" stroke-linecap="round" stroke-linejoin="round"/>
</svg>
