<svg width="24" height="24" viewBox="0 0 24 24" fill="none" xmlns="http://www.w3.org/2000/svg">
<path d="M15 18.0182V19.5C15 20.3284 14.3284 21 13.5 21H10.5C9.67157 21 9 20.3284 9 19.5V18.0182M15 18.0182H9M15 18.0182L19 9.07267M9 18.0182L5 9.07267M5 9.07267C8 11.5578 9.41854 12.0455 12 12.0547C14.5815 12.0455 16 11.5578 19 9.07267M5 9.07267C5 6.53327 5.16698 5.01916 7.5 5.59387C8 3.10946 9.5 2.11531 12 4.10295M19 9.07267C19 6.53327 18.833 4.97348 16.5 5.5482C16 3.06378 14.5 2.06963 12 4.05728" stroke="black" stroke-width="2" stroke-linecap="round" stroke-linejoin="round"/>
</svg>
