<svg width="24" height="24" viewBox="0 0 24 24" fill="none" xmlns="http://www.w3.org/2000/svg">
<path d="M9 18H15M9 18V15H15V18M9 18L8.31061 20.7577C8.15284 21.3889 8.63019 22.0002 9.28076 22.0002H14.7192C15.3698 22.0002 15.8472 21.3889 15.6894 20.7577L15 18M9.05777 14.9998L4.58945 8.92504C3.76202 7.80014 3.79159 6.21881 4.76771 5.22553C6.93367 3.02152 8.82404 2.1008 12 2C15.176 2.1008 17.0663 3.02152 19.2323 5.22553C20.2084 6.21881 20.238 7.80014 19.4105 8.92504L15.923 13.6664M15.923 13.6664L14.9422 14.9998M15.923 13.6664L12 11.4442M12 11.4442L4.15404 6.99977M12 11.4442L19.846 6.99977" stroke="black" stroke-width="2" stroke-linecap="round" stroke-linejoin="round"/>
</svg>
