<svg width="24" height="24" viewBox="0 0 24 24" fill="none" xmlns="http://www.w3.org/2000/svg">
<path d="M4.89614 10V7C4.89614 6.44772 5.34385 6 5.89614 6H6.66539M4.89614 10H19.1039M4.89614 10C3.70074 13.7935 3.70183 17.9831 4.89614 22M19.1039 10V7C19.1039 6.44772 18.6561 6 18.1039 6H17.3269M19.1039 10C20.2993 13.7935 20.2982 17.9831 19.1039 22M6.66539 6L10.1956 3.35106C11.2625 2.55051 12.7298 2.55051 13.7967 3.35106L17.3269 6M6.66539 6H17.3269M7.50551 14.6667C7.9837 16.9415 7.83925 17.56 11.2207 18C10.7426 15.7251 10.887 15.1066 7.50551 14.6667ZM17 14C16.5218 16.2749 17.0791 16.8934 13.6976 17.3333C14.1758 15.0585 13.6185 14.44 17 14Z" stroke="black" stroke-width="2" stroke-linecap="round" stroke-linejoin="round"/>
</svg>
