<svg width="24" height="24" viewBox="0 0 24 24" fill="none" xmlns="http://www.w3.org/2000/svg">
<path d="M12.0006 21V10M12.0006 10C9.29226 8.11472 9.16625 5.02138 12.0006 3C14.6348 4.95182 14.6267 8.05642 12.0006 10ZM20.0006 14C19.4214 17.4123 19.5964 18.3401 15.5006 19C16.0798 15.5877 15.9048 14.6599 20.0006 14ZM21.0006 6C20.4214 9.41228 20.5964 10.3401 16.5006 11C17.0798 7.58772 16.9048 6.65993 21.0006 6ZM4 14C4.57919 17.4123 4.40422 18.3401 8.5 19C7.92081 15.5877 8.09578 14.6599 4 14ZM3 6C3.57919 9.41228 3.40422 10.3401 7.5 11C6.92081 7.58772 7.09578 6.65993 3 6Z" stroke="black" stroke-width="2" stroke-linecap="round" stroke-linejoin="round"/>
</svg>
