<svg width="24" height="24" viewBox="0 0 24 24" fill="none" xmlns="http://www.w3.org/2000/svg">
<path d="M4.89614 6V3C4.89614 2.44772 5.34385 2 5.89614 2H18.1039C18.6561 2 19.1039 2.44772 19.1039 3V6M4.89614 6H19.1039M4.89614 6C3.70074 9.79354 3.70183 13.9831 4.89614 18M19.1039 6C20.2993 9.79354 20.2982 13.9831 19.1039 18M4.89614 18V21C4.89614 21.5523 5.34385 22 5.89614 22H18.1039C18.6561 22 19.1039 21.5523 19.1039 21V18M4.89614 18H19.1039M7 10.6667C7.47818 12.9415 7.33373 13.56 10.7152 14C10.237 11.7251 10.3815 11.1066 7 10.6667ZM16.4945 10C16.0163 12.2749 16.5736 12.8934 13.1921 13.3333C13.6702 11.0585 13.113 10.44 16.4945 10Z" stroke="black" stroke-width="2" stroke-linecap="round" stroke-linejoin="round"/>
</svg>
