<svg width="24" height="24" viewBox="0 0 24 24" fill="none" xmlns="http://www.w3.org/2000/svg">
<path d="M18.9938 18C20.2587 14.2184 20.3339 10.2837 19.2162 6.67052C19.0911 6.26596 18.7108 6 18.2873 6H16.9933M6.99902 6H5.71658C5.29311 6 4.9128 6.26596 4.78766 6.67052C3.67004 10.2837 3.74521 14.2184 5.01011 18H19L18.9942 21.0019C18.9932 21.5535 18.5458 22 17.9942 22H6.00646C5.45502 22 5.00765 21.5536 5.00647 21.0022L5 18M6.99902 6L10.1214 3.50066C11.2173 2.62343 12.775 2.62343 13.8709 3.50066L16.9933 6M6.99902 6H16.9933M7 10.6667C7.47818 12.9415 7.33373 13.56 10.7152 14C10.237 11.7251 10.3815 11.1066 7 10.6667ZM16.4945 10C16.0163 12.2749 16.5736 12.8934 13.1921 13.3333C13.6702 11.0585 13.113 10.44 16.4945 10Z" stroke="black" stroke-width="2" stroke-linecap="round" stroke-linejoin="round"/>
</svg>
