<svg width="24" height="24" viewBox="0 0 24 24" fill="none" xmlns="http://www.w3.org/2000/svg">
<path fill-rule="evenodd" clip-rule="evenodd" d="M9 7C9 5.34315 10.3431 4 12 4C13.6569 4 15 5.34315 15 7C15 8.65685 13.6569 10 12 10C10.3431 10 9 8.65685 9 7ZM12 2C9.23858 2 7 4.23858 7 7C7 9.76142 9.23858 12 12 12C14.7614 12 17 9.76142 17 7C17 4.23858 14.7614 2 12 2ZM4.56136 11.8182C4.89814 11.0324 5.54547 10.4435 6.32385 10.1697C6.71573 10.8699 7.23344 11.4903 7.84637 12H7.31879C6.91877 12 6.55723 12.2384 6.39965 12.6061L4.51654 17H19.4835L17.6004 12.6061C17.4428 12.2384 17.0812 12 16.6812 12H16.1536C16.7666 11.4903 17.2843 10.8699 17.6761 10.1697C18.4545 10.4434 19.1019 11.0324 19.4386 11.8182L21.9191 17.6061C21.9725 17.7306 22 17.8646 22 18V20C22 21.1046 21.1046 22 20 22H4C2.89543 22 2 21.1046 2 20V18C2 17.8646 2.02751 17.7306 2.08085 17.6061L4.56136 11.8182ZM8 13.5H11.9757L12 13.5L12.0243 13.5H16C16.5523 13.5 17 13.9477 17 14.5C17 15.0523 16.5523 15.5 16 15.5H8C7.44772 15.5 7 15.0523 7 14.5C7 13.9477 7.44772 13.5 8 13.5ZM4 19V20H20V19H4Z" fill="black"/>
</svg>
