<svg width="24" height="24" viewBox="0 0 24 24" fill="none" xmlns="http://www.w3.org/2000/svg">
<path fill-rule="evenodd" clip-rule="evenodd" d="M9 7C9 5.34315 10.3431 4 12 4C13.6569 4 15 5.34315 15 7C15 8.65685 13.6569 10 12 10C10.3431 10 9 8.65685 9 7ZM12 2C9.23858 2 7 4.23858 7 7C7 9.76142 9.23858 12 12 12C14.7614 12 17 9.76142 17 7C17 4.23858 14.7614 2 12 2ZM4.56136 11.8183C4.89814 11.0325 5.54549 10.4435 6.32389 10.1697C6.71579 10.87 7.23352 11.4903 7.84648 12.0001H7.31879C6.91877 12.0001 6.55723 12.2385 6.39965 12.6062L4.51654 17.0001H12H19.4835L17.6004 12.6062C17.4428 12.2385 17.0812 12.0001 16.6812 12.0001H16.1535C16.7665 11.4903 17.2842 10.87 17.6761 10.1697C18.4545 10.4435 19.1019 11.0325 19.4386 11.8183L21.9191 17.6062C21.9725 17.7306 22 17.8647 22 18.0001V20.0001C22 21.1047 21.1046 22.0001 20 22.0001H12H4C2.89543 22.0001 2 21.1047 2 20.0001V18.0001C2 17.8647 2.02751 17.7306 2.08085 17.6062L4.56136 11.8183ZM20 19.0001H13V20.0001H20V19.0001ZM11 20.0001V19.0001H4V20.0001H11ZM7 14.5001C7 13.9478 7.44772 13.5001 8 13.5001H16C16.5523 13.5001 17 13.9478 17 14.5001C17 15.0524 16.5523 15.5001 16 15.5001H8C7.44772 15.5001 7 15.0524 7 14.5001Z" fill="black"/>
</svg>
