<svg width="24" height="24" viewBox="0 0 24 24" fill="none" xmlns="http://www.w3.org/2000/svg">
<path d="M3 9L10.3359 4.1094C11.3436 3.4376 12.6564 3.4376 13.6641 4.1094L21 9M5 8V19C5 20.1046 5.89543 21 7 21H17C18.1046 21 19 20.1046 19 19V8M8.62189 10.7253C9.31725 9.88224 10.5969 9.74636 11.5161 10.4643C11.7877 10.6765 12.2123 10.6765 12.4839 10.4643C13.4031 9.74636 14.6827 9.88224 15.3781 10.7253C16.2073 11.7306 16.2073 13.3605 15.3781 14.3658L13.4649 16.4241C12.6737 17.2752 11.3263 17.2752 10.5351 16.4241L8.62189 14.3658C7.7927 13.3605 7.7927 11.7306 8.62189 10.7253Z" stroke="black" stroke-width="2" stroke-linecap="round" stroke-linejoin="round"/>
</svg>
