<svg width="24" height="24" viewBox="0 0 24 24" fill="none" xmlns="http://www.w3.org/2000/svg">
<path fill-rule="evenodd" clip-rule="evenodd" d="M10 4.00002C10 3.44772 10.4478 2.99999 11.0001 3L13.0005 3.00004C13.5528 3.00006 14.0005 3.44777 14.0005 4.00005L14.0005 9.00002C14.0005 9.5523 13.5527 10 13.0005 10H11.0001C10.4479 10 10.0001 9.55231 10.0001 9.00003L10 4.00002ZM11.0001 1C9.3432 0.999963 8.00001 2.34315 8.00004 4.00006L8.00013 9.00007C8.00016 10.6569 9.3433 12 11.0001 12H13.0005C14.6573 12 16.0005 10.6569 16.0005 9.00002L16.0005 4.00005C16.0005 2.34322 14.6574 1.00008 13.0005 1.00004L11.0001 1ZM5.56136 12.8182C5.79761 12.267 6.1867 11.8126 6.66664 11.4959C7.01588 12.101 7.4882 12.626 8.04938 13.0369C7.7624 13.1172 7.52077 13.3235 7.39965 13.6061L5.51654 18H18.4835L16.6004 13.6061C16.4793 13.3236 16.2378 13.1174 15.951 13.037C16.5122 12.6262 16.9845 12.1012 17.3337 11.4962C17.8135 11.8128 18.2024 12.2671 18.4386 12.8182L20.9191 18.6061C20.9725 18.7306 21 18.8646 21 19V20.5C21 21.8807 19.8807 23 18.5 23H5.5C4.11929 23 3 21.8807 3 20.5V19C3 18.8646 3.02751 18.7306 3.08085 18.6061L5.56136 12.8182ZM19 20H5V20.5C5 20.7761 5.22386 21 5.5 21H18.5C18.7761 21 19 20.7761 19 20.5V20ZM8 15.5C8 14.9477 8.44772 14.5 9 14.5H15C15.5523 14.5 16 14.9477 16 15.5C16 16.0523 15.5523 16.5 15 16.5H9C8.44772 16.5 8 16.0523 8 15.5Z" fill="black"/>
</svg>
