<svg width="24" height="24" viewBox="0 0 24 24" fill="none" xmlns="http://www.w3.org/2000/svg">
<path fill-rule="evenodd" clip-rule="evenodd" d="M9.39333 4.36148C9.72717 3.95674 10.3874 3.85154 10.9005 4.25228C11.5339 4.747 12.4661 4.747 13.0995 4.25229C13.6126 3.85154 14.2728 3.95674 14.6067 4.36148C15.1256 4.99068 15.1311 6.07075 14.6229 6.70935L12.7324 8.74312C12.3369 9.16869 11.6631 9.16869 11.2676 8.74312L9.3771 6.70935C8.86895 6.07075 8.87436 4.99068 9.39333 4.36148ZM7.85045 3.08888C8.87282 1.84937 10.6832 1.65304 12 2.57853C13.3168 1.65304 15.1272 1.84937 16.1495 3.08888C17.2835 4.46364 17.2835 6.62722 16.1495 8.00199C16.137 8.01721 16.124 8.03206 16.1106 8.04651L14.1973 10.1048C13.0106 11.3815 10.9894 11.3815 9.80267 10.1048L7.88945 8.04651C7.87601 8.03206 7.86301 8.01721 7.85045 8.00199C6.71652 6.62722 6.71652 4.46364 7.85045 3.08888ZM4.56136 10.8182C4.96124 9.88512 5.79895 9.22958 6.77402 9.0497L6.79078 9.06791L8.58667 10.9999H7.31879C6.91877 10.9999 6.55723 11.2383 6.39965 11.606L4.51654 15.9999H12H19.4835L17.6004 11.606C17.4428 11.2383 17.0812 10.9999 16.6812 10.9999H15.4133L17.2092 9.06791L17.226 9.0497C18.201 9.22958 19.0388 9.88512 19.4386 10.8182L21.9191 16.606C21.9725 16.7305 22 16.8645 22 16.9999V19.9999C22 21.1045 21.1046 21.9999 20 21.9999H12H4C2.89543 21.9999 2 21.1045 2 19.9999V16.9999C2 16.8645 2.02751 16.7305 2.08085 16.606L4.56136 10.8182ZM8 12.4999H11.25C11.7462 12.5833 12.2538 12.5833 12.75 12.4999H16C16.5523 12.4999 17 12.9477 17 13.4999C17 14.0522 16.5523 14.4999 16 14.4999H8C7.44772 14.4999 7 14.0522 7 13.4999C7 12.9477 7.44772 12.4999 8 12.4999ZM20 17.9999H13V19.9999H20V17.9999ZM11 19.9999V17.9999H4V19.9999H11Z" fill="black"/>
</svg>
