<svg width="24" height="24" viewBox="0 0 24 24" fill="none" xmlns="http://www.w3.org/2000/svg">
<path d="M11.9998 17.5C15.6725 17.3052 18.7507 12.4828 15.8536 10.0953C14.9186 9.32477 13.4085 9.31302 12.409 9.9975C12.1684 10.1623 11.8313 10.1623 11.5907 9.9975C10.5913 9.31302 9.08151 9.32477 8.1465 10.0953C5.24938 12.4828 8.32721 17.3052 11.9998 17.5ZM11.9998 17.5L15.6875 20.3681C16.2141 20.7776 16.8622 21 17.5293 21H19C20.1046 21 21 20.1046 21 19V10.6056C21 9.60249 20.4987 8.6658 19.6641 8.1094L13.6641 4.1094C12.6564 3.4376 11.3436 3.4376 10.3359 4.1094L4.3359 8.1094C3.5013 8.6658 3 9.60249 3 10.6056V19C3 20.1046 3.89543 21 5 21H6.47065C7.13779 21 7.7859 20.7776 8.31251 20.368L11.9998 17.5Z" stroke="black" stroke-width="2" stroke-linecap="round" stroke-linejoin="round"/>
</svg>
