<svg width="24" height="24" viewBox="0 0 24 24" fill="none" xmlns="http://www.w3.org/2000/svg">
<path fill-rule="evenodd" clip-rule="evenodd" d="M15.5005 3.00031L15.5005 10.0003C15.5005 11.1048 14.605 12.0003 13.5005 12.0003H10.5002C9.39561 12.0003 8.50018 11.1048 8.50016 10.0003L8.50004 3.00028C8.50002 1.89568 9.39548 1.00022 10.5001 1.00024L13.5005 1.00031C14.6051 1.00034 15.5005 1.89576 15.5005 3.00031ZM5.56038 12.8182C5.79664 12.2669 6.18572 11.8125 6.66567 11.4959C7.01491 12.1009 7.48722 12.626 8.0484 13.0369C7.76142 13.1172 7.51979 13.3234 7.39867 13.606L5.70601 17.5556C5.61585 17.7659 5.77016 17.9999 5.99902 17.9999H17.999C18.2279 17.9999 18.3822 17.7659 18.292 17.5556L16.5994 13.606C16.4783 13.3235 16.2368 13.1174 15.95 13.037C16.5112 12.6261 16.9835 12.1011 17.3328 11.4961C17.8125 11.8128 18.2015 12.2671 18.4377 12.8182L20.1303 16.7677C20.6429 17.9637 20.0691 19.2649 18.999 19.776V20.4999C18.999 21.8807 17.8797 22.9999 16.499 22.9999H7.49902C6.11831 22.9999 4.99902 21.8807 4.99902 20.4999V19.776C3.92897 19.2649 3.35514 17.9637 3.86772 16.7677L5.56038 12.8182ZM6.99902 19.9999V20.4999C6.99902 20.7761 7.22288 20.9999 7.49902 20.9999H16.499C16.7752 20.9999 16.999 20.7761 16.999 20.4999V19.9999H6.99902ZM7.99902 15.4999C7.99902 14.9477 8.44674 14.4999 8.99902 14.4999H14.999C15.5513 14.4999 15.999 14.9477 15.999 15.4999C15.999 16.0522 15.5513 16.4999 14.999 16.4999H8.99902C8.44674 16.4999 7.99902 16.0522 7.99902 15.4999Z" fill="black"/>
</svg>
