<svg width="24" height="24" viewBox="0 0 24 24" fill="none" xmlns="http://www.w3.org/2000/svg">
<path fill-rule="evenodd" clip-rule="evenodd" d="M15.9981 7C15.9981 9.20914 14.2072 11 11.9981 11C9.78894 11 7.99808 9.20914 7.99808 7C7.99808 4.79086 9.78894 3 11.9981 3C14.2072 3 15.9981 4.79086 15.9981 7ZM4.56104 11.8182C4.89763 11.0328 5.54438 10.4441 6.32215 10.1701C6.71398 10.8701 7.23157 11.4903 7.84434 11.9999H7.31848C6.91845 11.9999 6.55691 12.2383 6.39934 12.606L4.7059 16.5573C4.61611 16.7668 4.76979 16.9999 4.99774 16.9999H11.9987H18.9997C19.2286 16.9999 19.3829 16.7659 19.2927 16.5555L17.6 12.606C17.4425 12.2383 17.0809 11.9999 16.6809 11.9999H16.1518C16.7649 11.49 17.2826 10.8696 17.6745 10.1691C18.4535 10.4427 19.1014 11.0319 19.4383 11.8182L21.131 15.7677C21.6436 16.9637 21.0697 18.2648 19.9997 18.776V19.9999C19.9997 21.1045 19.1043 21.9999 17.9997 21.9999H11.9987H5.99774C4.89317 21.9999 3.99773 21.1045 3.99773 19.9999V18.7758C2.92864 18.2648 2.35541 16.9646 2.86761 15.7695L4.56104 11.8182ZM7.99969 13.4999H11.9548L11.9981 13.5001L12.0414 13.4999H15.9997C16.552 13.4999 16.9997 13.9476 16.9997 14.4999C16.9997 15.0522 16.552 15.4999 15.9997 15.4999H7.99969C7.4474 15.4999 6.99969 15.0522 6.99969 14.4999C6.99969 13.9476 7.4474 13.4999 7.99969 13.4999ZM5.99774 18.9999V19.9999H10.9987V18.9999H5.99774ZM12.9987 18.9999V19.9999H17.9997V18.9999H12.9987Z" fill="black"/>
</svg>
