<svg width="24" height="24" viewBox="0 0 24 24" fill="none" xmlns="http://www.w3.org/2000/svg">
<path d="M8 6.5H16M5 10V10C4.05322 10 3.41488 9.03194 3.78784 8.16171L5.4805 4.21216C5.79566 3.47679 6.51874 3 7.31879 3H16.6812C17.4813 3 18.2043 3.47679 18.5195 4.21216L20.2122 8.16171C20.5851 9.03194 19.9468 10 19 10V10M5 10H19M5 10V14M19 10V14M5 14V19C5 20.1046 5.89543 21 7 21H17C18.1046 21 19 20.1046 19 19V14M5 14H19" stroke="black" stroke-width="2" stroke-linecap="round" stroke-linejoin="round"/>
</svg>
