<svg width="24" height="24" viewBox="0 0 24 24" fill="none" xmlns="http://www.w3.org/2000/svg">
<path fill-rule="evenodd" clip-rule="evenodd" d="M15.5 3.00007L15.5 9.99996C15.5 11.1045 14.6046 12 13.5 12H10.5002C9.39561 12 8.50018 11.1045 8.50016 9.99999L8.50004 3.00004C8.50002 1.89543 9.39548 0.999974 10.5001 1L13.5 1.00007C14.6046 1.0001 15.5 1.89552 15.5 3.00007ZM5.56038 12.8181C5.79641 12.2674 6.18497 11.8133 6.66427 11.4967C7.01358 12.1016 7.48589 12.6265 8.04703 13.0372C7.76065 13.1178 7.5196 13.3238 7.39867 13.606L5.70601 17.5555C5.61585 17.7659 5.77016 17.9999 5.99902 17.9999H11.999H17.999C18.2279 17.9999 18.3822 17.7659 18.292 17.5555L16.5994 13.606C16.4781 13.323 16.236 13.1166 15.9486 13.0365C16.5098 12.6255 16.9821 12.1003 17.3313 11.4951C17.8118 11.8118 18.2012 12.2664 18.4377 12.8181L20.1303 16.7677C20.6429 17.9637 20.0691 19.2648 18.999 19.7759V20.4999C18.999 21.8806 17.8797 22.9999 16.499 22.9999H11.999H7.49902C6.11831 22.9999 4.99902 21.8806 4.99902 20.4999V19.7759C3.92897 19.2648 3.35514 17.9637 3.86772 16.7677L5.56038 12.8181ZM6.99902 19.9999V20.4999C6.99902 20.776 7.22288 20.9999 7.49902 20.9999H10.999V19.9999H6.99902ZM12.999 20.9999H16.499C16.7752 20.9999 16.999 20.776 16.999 20.4999V19.9999H12.999V20.9999ZM7.99902 15.4999C7.99902 14.9476 8.44674 14.4999 8.99902 14.4999H14.999C15.5513 14.4999 15.999 14.9476 15.999 15.4999C15.999 16.0522 15.5513 16.4999 14.999 16.4999H8.99902C8.44674 16.4999 7.99902 16.0522 7.99902 15.4999Z" fill="black"/>
</svg>
