<svg width="24" height="24" viewBox="0 0 24 24" fill="none" xmlns="http://www.w3.org/2000/svg">
<path fill-rule="evenodd" clip-rule="evenodd" d="M15.999 7C15.999 9.20914 14.2082 11 11.999 11C9.78989 11 7.99902 9.20914 7.99902 7C7.99902 4.79086 9.78989 3 11.999 3C14.2082 3 15.999 4.79086 15.999 7ZM4.56038 11.8182C4.89716 11.0324 5.54449 10.4435 6.32288 10.1697C6.71475 10.8699 7.23247 11.4903 7.8454 12H7.31782C6.91779 12 6.55625 12.2384 6.39867 12.6061L4.70601 16.5556C4.61585 16.766 4.77016 17 4.99902 17H18.999C19.2279 17 19.3822 16.766 19.292 16.5556L17.5994 12.6061C17.4418 12.2384 17.0803 12 16.6802 12H16.1527C16.7656 11.4903 17.2833 10.8699 17.6752 10.1697C18.4536 10.4435 19.1009 11.0324 19.4377 11.8182L21.1303 15.7678C21.6429 16.9638 21.0691 18.2649 19.999 18.7761V20C19.999 21.1046 19.1036 22 17.999 22H5.99902C4.89445 22 3.99902 21.1046 3.99902 20V18.7761C2.92897 18.2649 2.35514 16.9638 2.86772 15.7678L4.56038 11.8182ZM7.99902 13.5H11.9747L11.999 13.5001L12.0234 13.5H15.999C16.5513 13.5 16.999 13.9477 16.999 14.5C16.999 15.0523 16.5513 15.5 15.999 15.5H7.99902C7.44674 15.5 6.99902 15.0523 6.99902 14.5C6.99902 13.9477 7.44674 13.5 7.99902 13.5ZM5.99902 19V20H17.999V19H5.99902Z" fill="black"/>
</svg>
