<svg width="24" height="24" viewBox="0 0 24 24" fill="none" xmlns="http://www.w3.org/2000/svg">
<path fill-rule="evenodd" clip-rule="evenodd" d="M10 4.00002C10 3.44772 10.4478 2.99999 11.0001 3L13.0005 3.00004C13.5528 3.00006 14.0005 3.44777 14.0005 4.00005L14.0005 9.00002C14.0005 9.5523 13.5527 10 13.0005 10H11.0001C10.4479 10 10.0001 9.55231 10.0001 9.00003L10 4.00002ZM11.0001 1C9.3432 0.999963 8.00001 2.34315 8.00004 4.00006L8.00013 9.00007C8.00016 10.6569 9.3433 12 11.0001 12H13.0005C14.6573 12 16.0005 10.6569 16.0005 9.00002L16.0005 4.00005C16.0005 2.34322 14.6574 1.00008 13.0005 1.00004L11.0001 1ZM5.56136 12.8183C5.79762 12.2671 6.18672 11.8127 6.66669 11.496C7.01594 12.1011 7.48828 12.6261 8.04948 13.037C7.76246 13.1173 7.52078 13.3235 7.39965 13.6062L5.51654 18.0001H12H18.4835L16.6004 13.6062C16.4793 13.3237 16.2378 13.1175 15.9509 13.0371C16.5121 12.6263 16.9844 12.1012 17.3337 11.4962C17.8135 11.8129 18.2024 12.2672 18.4386 12.8183L20.9191 18.6062C20.9725 18.7307 21 18.8647 21 19.0001V20.5001C21 21.8808 19.8807 23.0001 18.5 23.0001H12H5.5C4.11929 23.0001 3 21.8808 3 20.5001V19.0001C3 18.8647 3.02751 18.7307 3.08085 18.6062L5.56136 12.8183ZM13 21.0001H18.5C18.7761 21.0001 19 20.7762 19 20.5001V20.0001H13V21.0001ZM5 20.0001V20.5001C5 20.7762 5.22386 21.0001 5.5 21.0001H11V20.0001H5ZM8 15.5001C8 14.9478 8.44772 14.5001 9 14.5001H15C15.5523 14.5001 16 14.9478 16 15.5001C16 16.0524 15.5523 16.5001 15 16.5001H9C8.44772 16.5001 8 16.0524 8 15.5001Z" fill="black"/>
</svg>
