<svg width="24" height="24" viewBox="0 0 24 24" fill="none" xmlns="http://www.w3.org/2000/svg">
<path fill-rule="evenodd" clip-rule="evenodd" d="M8.62092 3.72518C9.31628 2.88213 10.5959 2.74625 11.5151 3.46419C11.7867 3.67636 12.2113 3.67636 12.483 3.46419C13.4021 2.74625 14.6818 2.88213 15.3771 3.72518C16.2063 4.73048 16.2063 6.36039 15.3771 7.36569L13.4639 9.42395C12.6728 10.2751 11.3253 10.2751 10.5341 9.42395L8.62092 7.36569C7.79173 6.36039 7.79173 4.73048 8.62092 3.72518ZM4.56038 10.8182C4.96027 9.88512 5.79798 9.22958 6.77305 9.0497L6.78981 9.06791L8.58569 10.9999H7.31782C6.91779 10.9999 6.55625 11.2383 6.39867 11.606L4.70601 15.5556C4.61585 15.7659 4.77016 15.9999 4.99902 15.9999H11.999H18.999C19.2279 15.9999 19.3822 15.7659 19.292 15.5556L17.5994 11.606C17.4418 11.2383 17.0803 10.9999 16.6802 10.9999H15.4124L17.2082 9.06791L17.225 9.0497C18.2001 9.22958 19.0378 9.88512 19.4377 10.8182L21.1303 14.7677C21.6429 15.9637 21.0691 17.2649 19.999 17.776V19.4999C19.999 20.8807 18.8797 21.9999 17.499 21.9999H11.999H6.49902C5.11831 21.9999 3.99902 20.8807 3.99902 19.4999V17.776C2.92897 17.2649 2.35514 15.9637 2.86772 14.7677L4.56038 10.8182ZM7.99902 12.4999H11.249C11.7452 12.5833 12.2528 12.5833 12.7491 12.4999H15.999C16.5513 12.4999 16.999 12.9477 16.999 13.4999C16.999 14.0522 16.5513 14.4999 15.999 14.4999H7.99902C7.44674 14.4999 6.99902 14.0522 6.99902 13.4999C6.99902 12.9477 7.44674 12.4999 7.99902 12.4999ZM5.99902 17.9999V19.4999C5.99902 19.7761 6.22288 19.9999 6.49902 19.9999H10.999V17.9999H5.99902ZM12.999 17.9999V19.9999H17.499C17.7752 19.9999 17.999 19.7761 17.999 19.4999V17.9999H12.999Z" fill="black"/>
</svg>
