<svg width="24" height="24" viewBox="0 0 24 24" fill="none" xmlns="http://www.w3.org/2000/svg">
<path d="M12 20V10M12 10L18.5 6.5M12 10L13.977 12.3724C14.2813 12.7376 14.8007 12.8381 15.2193 12.6127L19 10.5769M12 10L5.5 6.50003M12 10L10.023 12.3724C9.71866 12.7376 9.19926 12.8381 8.78068 12.6127L5 10.577M19 10.5769L20.0971 9.9862C20.592 9.71969 20.7701 9.09768 20.4912 8.60959L19.4988 6.87296C19.1751 6.30647 18.6756 5.86096 18.0759 5.60394L13.1818 3.50647C12.4271 3.18305 11.5729 3.18305 10.8182 3.50648L5.92413 5.60397C5.32444 5.86099 4.82488 6.3065 4.50117 6.87299L3.5088 8.60963C3.2299 9.09771 3.40799 9.71972 3.90295 9.98624L5 10.577M19 10.5769V16.6812C19 17.4813 18.5232 18.2043 17.7878 18.5195L12.7878 20.6624C12.2847 20.878 11.7153 20.878 11.2122 20.6624L6.21217 18.5195C5.4768 18.2044 5 17.4813 5 16.6812V10.577" stroke="black" stroke-width="2" stroke-linecap="round" stroke-linejoin="round"/>
</svg>
