<svg width="24" height="24" viewBox="0 0 24 24" fill="none" xmlns="http://www.w3.org/2000/svg">
<path d="M12 18V5M12 5H17.5C18.4443 5 19.3334 5.44458 19.9 6.2L21.4 8.2C21.6472 8.52962 21.412 9 21 9H19M12 5L14.7 8.6C14.8889 8.85181 15.1852 9 15.5 9H19M12 5L6.49998 5.00003C5.55572 5.00003 4.66657 5.44461 4.1 6.20002L2.60001 8.2C2.35279 8.52962 2.58798 9 3.00001 9H5M12 5L9.3 8.6C9.11115 8.85181 8.81476 9 8.5 9H5M19 9V17C19 18.1046 18.1046 19 17 19H12H7C5.89543 19 5 18.1046 5 17V9" stroke="black" stroke-width="2" stroke-linecap="round" stroke-linejoin="round"/>
</svg>
