<svg width="24" height="24" viewBox="0 0 24 24" fill="none" xmlns="http://www.w3.org/2000/svg">
<path d="M12 20V10M12 10L20.5 6.5M12 10L3.5 6.5M19.6325 18.4558L12.9487 20.6838C12.3329 20.889 11.6671 20.889 11.0513 20.6838L4.36754 18.4558C3.55086 18.1836 3 17.4193 3 16.5585V7.44152C3 6.58066 3.55086 5.81638 4.36754 5.54415L11.0513 3.31623C11.6671 3.11096 12.3329 3.11096 12.9487 3.31623L19.6325 5.54415C20.4491 5.81638 21 6.58066 21 7.44152V16.5585C21 17.4193 20.4491 18.1836 19.6325 18.4558Z" stroke="black" stroke-width="2" stroke-linecap="round" stroke-linejoin="round"/>
</svg>
