<svg width="24" height="24" viewBox="0 0 24 24" fill="none" xmlns="http://www.w3.org/2000/svg">
<path d="M11 19V11M11 11L14.0451 13.6101C14.3252 13.8501 14.7146 13.9165 15.0584 13.7829L20.9317 11.4988C21.4967 11.2791 21.7378 10.6112 21.4435 10.0813L20.4612 8.31242C20.1673 7.78321 19.7202 7.35529 19.1786 7.08488L14.1889 4.59361C13.4318 4.21559 12.5502 4.17492 11.7615 4.48165L4.88318 7.15654C4.30839 7.38007 3.81646 7.77532 3.47436 8.28847L2.60949 9.5858C2.28256 10.0762 2.4485 10.7415 2.96744 11.021L4 11.577M11 11L4.5 7.5M11 11L9.02301 13.3724C8.71866 13.7376 8.19926 13.8381 7.78068 13.6127L4 11.577M11 11L20 7.5M20 11.8611V15.1319C20 15.9567 19.4936 16.6969 18.7249 16.9959L11.889 19.6543C11.3267 19.873 10.6957 19.8261 10.1718 19.5268L5.00773 16.5759C4.38458 16.2198 4 15.5571 4 14.8394V11.577" stroke="black" stroke-width="2" stroke-linecap="round" stroke-linejoin="round"/>
</svg>
