<svg width="24" height="24" viewBox="0 0 24 24" fill="none" xmlns="http://www.w3.org/2000/svg">
<path d="M12 19V4M12 4L17.8611 5.6746C18.5929 5.88368 19.2178 6.36307 19.6094 7.01568L21.3046 9.84099C21.5434 10.239 21.1581 10.7194 20.7177 10.5726L19 10M12 4L14.8211 8.23162C14.9374 8.40612 15.1057 8.53962 15.302 8.61325L19 10M12 4L6.13889 5.67463C5.40712 5.88371 4.78216 6.3631 4.39059 7.01571L2.69541 9.84098C2.45658 10.239 2.84189 10.7194 3.28227 10.5726L5 10M12 4L9.17892 8.23162C9.06259 8.40612 8.89435 8.53962 8.69799 8.61325L5 10M19 10V15.6812C19 16.4813 18.5232 17.2043 17.7878 17.5195L12.7878 19.6624C12.2847 19.878 11.7153 19.878 11.2122 19.6624L6.21216 17.5195C5.47679 17.2043 5 16.4813 5 15.6812V10" stroke="black" stroke-width="2" stroke-linecap="round" stroke-linejoin="round"/>
</svg>
