<svg width="24" height="24" viewBox="0 0 24 24" fill="none" xmlns="http://www.w3.org/2000/svg">
<path d="M8.4125 2.67962C9.6101 1.76609 11.4776 1.75977 12.6243 2.74413C16.1008 5.72847 12.407 11.7566 7.99981 12C3.59265 11.7566 -0.100741 5.72847 3.3758 2.74413C4.5225 1.75977 6.3896 1.76609 7.58712 2.67961C7.8254 2.86138 8.17422 2.86138 8.4125 2.67962Z" stroke="black" stroke-width="2" stroke-linecap="round" stroke-linejoin="round"/>
<path d="M17.409 14.4975C18.4085 13.813 19.9186 13.8248 20.8536 14.5953C23.7507 16.9828 20.6725 21.8053 16.9998 22C13.3272 21.8053 10.2494 16.9828 13.1465 14.5953C14.0815 13.8248 15.5913 13.813 16.5907 14.4975C16.8313 14.6623 17.1684 14.6623 17.409 14.4975Z" stroke="black" stroke-width="2" stroke-linecap="round" stroke-linejoin="round"/>
</svg>
