<svg width="24" height="24" viewBox="0 0 24 24" fill="none" xmlns="http://www.w3.org/2000/svg">
<path d="M17.5 6.12347C18.7659 5.78914 20.1436 6.14138 20.9894 7.08792C22.3369 8.59587 22.3369 11.0407 20.9894 12.5487L16.5 17.0069C15.9466 17.5565 15.0534 17.5565 14.5 17.0069M3.01058 7.08792C4.23139 5.72168 6.56049 5.59362 8.06175 6.98117C8.30313 7.20426 8.69687 7.20426 8.93825 6.98117C10.4395 5.59362 12.7686 5.72168 13.9894 7.08792C15.3369 8.59587 15.3369 11.0407 13.9894 12.5487L9.90928 16.6005C9.12937 17.375 7.87063 17.375 7.09072 16.6005L3.01058 12.5487C1.66314 11.0407 1.66314 8.59587 3.01058 7.08792Z" stroke="black" stroke-width="2" stroke-linecap="round" stroke-linejoin="round"/>
</svg>
