<svg width="24" height="24" viewBox="0 0 24 24" fill="none" xmlns="http://www.w3.org/2000/svg">
<path opacity="0.9" fill-rule="evenodd" clip-rule="evenodd" d="M14.2609 4.03449C14.942 3.87954 15.7607 4.26895 16.137 4.99662C16.5096 5.71723 17.3038 6.19869 18.1268 6.16908C18.892 6.14155 19.6504 6.65671 19.8734 7.38291C20.2995 8.77003 19.5981 10.1524 18.1903 11.0911C16.7885 12.0257 15.0161 12.2782 13.7604 11.6635C12.6027 10.8448 11.9198 9.11711 12.0074 7.38213C12.096 5.62646 12.9239 4.33864 14.2609 4.03449ZM17.9135 4.07794C17.1719 2.6438 15.4953 1.70258 13.8172 2.08431C11.2523 2.66781 10.1223 5.05488 10.0099 7.2813C9.89772 9.50397 10.7501 12.0413 12.6883 13.3536C12.7212 13.3759 12.7555 13.3962 12.7908 13.4144C14.8782 14.4902 17.467 13.9771 19.2998 12.7551C21.1465 11.5239 22.5624 9.32596 21.7853 6.79573C21.2809 5.15338 19.6701 4.11226 18.0549 4.17037C18.0552 4.17036 18.0265 4.16964 17.9837 4.14428C17.9414 4.11914 17.9197 4.09002 17.9135 4.07794ZM7.5004 9.06948C7.63671 8.73973 7.80918 8.42745 8.01195 8.13737C8.05512 9.03086 8.22014 9.96379 8.5248 10.867C8.18798 11.0599 7.78678 11.1428 7.37966 11.0727C6.04523 10.8428 4.59983 11.6964 4.19377 13.0185C3.52711 15.1891 4.65187 17.2876 6.7105 18.6602C8.76405 20.0294 11.4152 20.4329 13.3388 19.4739C14.4318 18.7127 15.2289 17.4454 15.6523 15.9948C16.386 15.9631 17.1076 15.8354 17.7943 15.6341C17.3628 17.8299 16.2452 19.9218 14.4108 21.1638C14.3779 21.1861 14.3436 21.2065 14.3083 21.2247C11.5517 22.6453 8.0846 21.9802 5.60098 20.3242C3.10343 18.6589 1.26417 15.7449 2.28191 12.4313C2.96934 10.1931 5.26923 8.7964 7.5004 9.06948Z" fill="black"/>
</svg>
