<svg width="24" height="24" viewBox="0 0 24 24" fill="none" xmlns="http://www.w3.org/2000/svg">
<path d="M8.57332 3.05431C6.95849 1.57784 4.41537 1.69925 3.08831 3.12382C1.63723 4.68151 1.63723 7.20703 3.08831 8.76473L7.62057 13.0819C8.39301 13.8177 9.60699 13.8177 10.3794 13.0819L14.9117 8.76473C16.3628 7.20703 16.3628 4.68151 14.9117 3.12382C13.5846 1.69925 11.0415 1.57784 9.42668 3.05431C9.19025 3.27048 8.80975 3.27048 8.57332 3.05431Z" stroke="black" stroke-width="2" stroke-linecap="round" stroke-linejoin="round"/>
<path d="M16.5846 15.0091C15.4285 14.1204 13.6955 14.2252 12.7774 15.1451C11.7409 16.1836 11.7409 17.8672 12.7774 18.9057L15.6954 21.4999C16.4454 22.1667 17.5546 22.1667 18.3046 21.4999L21.2226 18.9057C22.2591 17.8672 22.2591 16.1836 21.2226 15.1451C20.3045 14.2252 18.5715 14.1204 17.4154 15.0091C17.1746 15.1942 16.8254 15.1942 16.5846 15.0091Z" stroke="black" stroke-width="2" stroke-linecap="round" stroke-linejoin="round"/>
</svg>
