<svg width="24" height="24" viewBox="0 0 24 24" fill="none" xmlns="http://www.w3.org/2000/svg">
<path fill-rule="evenodd" clip-rule="evenodd" d="M13.4926 4.06464C14.3654 3.80637 15.5052 4.34232 15.8503 5.31496C16.1136 6.05708 16.8966 6.46076 17.6274 6.32195C18.7565 6.10747 19.768 6.83802 19.9521 7.61153C20.178 8.56092 19.574 9.63726 18.5323 9.95959L14.1821 10.9786C13.7661 11.076 13.3931 10.8331 13.296 10.5139L12.0418 6.39353C11.8317 5.44319 12.4455 4.3745 13.4926 4.06464ZM12.9251 2.14685C14.7102 1.61859 16.7762 2.55329 17.5962 4.30716C19.5351 4.10814 21.4624 5.31859 21.8978 7.14861C22.3856 9.19922 21.0905 11.2885 19.0749 11.8849C19.0565 11.8904 19.0379 11.8953 19.0192 11.8997L14.6382 12.9259C13.2563 13.2496 11.8043 12.4816 11.3827 11.0963L10.1184 6.9429C10.1124 6.92316 10.107 6.90324 10.1022 6.88317C9.61435 4.83255 10.9095 2.7433 12.9251 2.14685ZM7.79529 11.0906C8.03722 10.5029 8.39038 9.98402 8.82011 9.5473L9.46884 11.6786C9.50354 11.7926 9.54211 11.9041 9.58434 12.0131L9.57767 12.033C9.31018 12.8432 8.45481 13.2661 7.68063 13.1016C5.96413 12.737 4.36876 13.8158 4.07219 15.0448C3.72771 16.4722 4.64584 18.0714 6.22565 18.5464L12.395 19.9712C12.9636 20.1025 13.4752 19.7752 13.6086 19.343L14.981 14.898C15.0186 14.8902 15.0563 14.8819 15.0938 14.8731L17.2368 14.3711L15.5196 19.933C15.0532 21.4436 13.4549 22.2686 11.945 21.9199L5.74602 20.4883C5.72753 20.484 5.70917 20.4793 5.69096 20.4739C3.15242 19.7333 1.51155 17.1301 2.128 14.5756C2.69061 12.2442 5.26197 10.7077 7.79529 11.0906Z" fill="black"/>
</svg>
