<svg width="24" height="24" viewBox="0 0 24 24" fill="none" xmlns="http://www.w3.org/2000/svg">
<path d="M12 7H8M12 7C12 5 10.5 3 8 3C6.89543 3 6 3.89543 6 5C6 6.10457 6.89543 7 8 7M12 7H16M12 7C12 5 13.5 3 16 3C17.1046 3 18 3.89543 18 5C18 6.10457 17.1046 7 16 7M12 7V21M8 7H4C3.44772 7 3 7.44772 3 8V12.5C3 13.0523 3.44772 13.5 4 13.5H5M16 7H20C20.5523 7 21 7.44772 21 8V12.5C21 13.0523 20.5523 13.5 20 13.5H19M5 13.5V18C5 19.6569 6.34315 21 8 21H12M5 13.5H19M19 13.5V18C19 19.6569 17.6569 21 16 21H12" stroke="black" stroke-width="2" stroke-linecap="round" stroke-linejoin="round"/>
</svg>
