<svg width="24" height="24" viewBox="0 0 24 24" fill="none" xmlns="http://www.w3.org/2000/svg">
<path d="M12 9C12 5 9.5 3 7 3C5.5 3 4 4 4 6C4 7.5 5 9 7 9H9M12 9C12 5 14.5 3 17 3C18.5 3 20 4 20 6C20 7.5 19 9 17 9M12 9H9M12 9H15M17 9H20C20.5523 9 21 9.44772 21 10V13.5C21 14.0523 20.5523 14.5 20 14.5H19M17 9H15M5 14.5H4C3.44772 14.5 3 14.0523 3 13.5V10C3 9.44772 3.44772 9 4 9H9M5 14.5V18C5 19.6569 6.34315 21 8 21H9M5 14.5H19M19 14.5V18C19 19.6569 17.6569 21 16 21H15M9 9V21M9 21H12H15M15 9V21" stroke="black" stroke-width="2" stroke-linecap="round" stroke-linejoin="round"/>
</svg>
