<svg width="24" height="24" viewBox="0 0 24 24" fill="none" xmlns="http://www.w3.org/2000/svg">
<path d="M12 9C12 5 9.5 3 7 3C5.5 3 4 4 4 6C4 7.5 5 9 7 9M12 9C12 5 14.5 3 17 3C18.5 3 20 4 20 6C20 7.5 19 9 17 9M12 9H8.5M12 9H15.5M8.5 9H6C4.34315 9 3 10.3431 3 12V13C3 14.1046 3.89543 15 5 15M8.5 9V21M15.5 9H18C19.6569 9 21 10.3431 21 12V13C21 14.1046 20.1046 15 19 15M15.5 9L15.5664 21M5 15H19M5 15C3.89543 15 3 15.8954 3 17L3 18C3 19.6569 4.34315 21 6 21H8.5M19 15C20.1046 15 21 15.8954 21 17V18C21 19.6569 19.6569 21 18 21H15.5664M8.5 21H12H15.5664" stroke="black" stroke-width="2" stroke-linecap="round" stroke-linejoin="round"/>
</svg>
