<svg width="24" height="24" viewBox="0 0 24 24" fill="none" xmlns="http://www.w3.org/2000/svg">
<path d="M12 7C12 5 10.5 3 8 3C6.89543 3 6 3.89543 6 5C6 6.10457 6.89543 7 8 7H9M12 7C12 5 13.5 3 16 3C17.1046 3 18 3.89543 18 5C18 6.10457 17.1046 7 16 7M12 7H9M12 7H15M16 7H18C19.6569 7 21 8.34315 21 10V11.5C21 12.6046 20.1046 13.5 19 13.5M16 7H15M5 13.5H12H19M5 13.5C3.89543 13.5 3 12.6046 3 11.5V10C3 8.34315 4.34315 7 6 7H9M5 13.5C3.89543 13.5 3 14.3954 3 15.5L3 18C3 19.6569 4.34315 21 6 21H9M19 13.5C20.1046 13.5 21 14.3954 21 15.5V18C21 19.6569 19.6569 21 18 21H15M9 7V21M9 21H12H15M15 7V21" stroke="black" stroke-width="2" stroke-linecap="round" stroke-linejoin="round"/>
</svg>
