<svg width="24" height="24" viewBox="0 0 24 24" fill="none" xmlns="http://www.w3.org/2000/svg">
<path d="M12 9H8M12 9H16H18C19.6569 9 21 10.3431 21 12V13C21 14.1046 20.1046 15 19 15M12 9H6C4.34315 9 3 10.3431 3 12V13C3 14.1046 3.89543 15 5 15M12 9V15M12 9C12 5 9.5 3 7 3C5.5 3 4 4 4 6C4 7.5 5 9 7 9M12 9C12 5 14.5 3 17 3C18.5 3 20 4 20 6C20 7.5 19 9 17 9M5 15H12M5 15C3.89543 15 3 15.8954 3 17L3 18C3 19.6569 4.34315 21 6 21H12M12 21V15M12 21H18C19.6569 21 21 19.6569 21 18V17C21 15.8954 20.1046 15 19 15M12 15H19" stroke="black" stroke-width="2" stroke-linecap="round" stroke-linejoin="round"/>
</svg>
