<svg width="24" height="24" viewBox="0 0 24 24" fill="none" xmlns="http://www.w3.org/2000/svg">
<path d="M12 15.3333H9.77778M12 15.3333H14.2222H15.3333C16.2538 15.3333 17 16.0795 17 17V17.5556C17 18.1692 16.5025 18.6667 15.8889 18.6667M12 15.3333H8.66667C7.74619 15.3333 7 16.0795 7 17V17.5556C7 18.1692 7.49746 18.6667 8.11111 18.6667M12 15.3333V18.6667M12 15.3333C12 13.1111 10.6111 12 9.22222 12C8.38889 12 7.55556 12.5556 7.55556 13.6667C7.55556 14.5 8.11111 15.3333 9.22222 15.3333M12 15.3333C12 13.1111 13.3889 12 14.7778 12C15.6111 12 16.4444 12.5556 16.4444 13.6667C16.4444 14.5 15.8889 15.3333 14.7778 15.3333M8.11111 18.6667H12M8.11111 18.6667C7.49746 18.6667 7 19.1641 7 19.7778V20.3333C7 21.2538 7.74619 22 8.66667 22H12M12 22V18.6667M12 22H15.3333C16.2538 22 17 21.2538 17 20.3333V19.7778C17 19.1641 16.5025 18.6667 15.8889 18.6667M12 18.6667H15.8889M12.0477 6.53334H10.6382M12.0477 6.53334L13.6283 6.53334C14.4213 6.53334 15.1818 6.84508 15.7426 7.4L17.4478 9.06667C18.0316 9.64445 18.9783 9.64445 19.5621 9.06667C20.146 8.4889 20.146 7.55214 19.5621 6.97436L17.4369 4.89205C15.5646 3.03926 13.0369 2 10.4029 2H4M12.0477 6.53334C12.8262 6.53334 13.4572 7.15784 13.4572 7.92821C13.4572 8.69857 12.8262 9.32308 12.0477 9.32308L9.05762 9.32308C8.2646 9.32308 7.50406 9.01133 6.94331 8.45642L6.46123 7.97936C5.76791 7.29325 4.92543 6.83027 4 6.63625" stroke="black" stroke-width="2" stroke-linecap="round" stroke-linejoin="round"/>
</svg>
