<svg width="24" height="24" viewBox="0 0 24 24" fill="none" xmlns="http://www.w3.org/2000/svg">
<path d="M12.0477 7.53334H10.6382M12.0477 7.53334L13.6283 7.53334C14.4213 7.53334 15.1818 7.84508 15.7426 8.4L17.4478 10.0667C18.0316 10.6444 18.9783 10.6444 19.5621 10.0667C20.146 9.4889 20.146 8.55214 19.5621 7.97436L17.4369 5.89205C15.5646 4.03926 13.0369 3 10.4029 3H4M12.0477 7.53334C12.8262 7.53334 13.4572 8.15784 13.4572 8.92821C13.4572 9.69857 12.8262 10.3231 12.0477 10.3231L9.05762 10.3231C8.2646 10.3231 7.50406 10.0113 6.94331 9.45642L6.46123 8.97936C5.76791 8.29325 4.92543 7.83027 4 7.63625M15.8536 13.5953C14.9186 12.8248 13.4085 12.813 12.409 13.4975C12.1684 13.6623 11.8313 13.6623 11.5907 13.4975C10.5913 12.813 9.08151 12.8248 8.1465 13.5953C5.24938 15.9828 8.32721 20.8052 11.9998 21C15.6725 20.8052 18.7507 15.9828 15.8536 13.5953Z" stroke="black" stroke-width="2" stroke-linecap="round" stroke-linejoin="round"/>
</svg>
