<svg width="24" height="24" viewBox="0 0 24 24" fill="none" xmlns="http://www.w3.org/2000/svg">
<path d="M12 3.97476C11.1111 2.72025 9.45108 2.71998 8.62189 3.72528C7.7927 4.73058 7.7927 6.36049 8.62189 7.36579L10.5351 9.42406C11.3263 10.2752 12.6737 10.2752 13.4649 9.42406L13.6891 9.1829L15.3781 7.36579C16.2073 6.36049 16.2073 4.73058 15.3781 3.72528C14.5489 2.71998 12.8889 2.72025 12 3.97476ZM12 3.97476L11.1111 5.5L12.4444 6.5M11.0477 16.4667H9.63817M11.0477 16.4667H12.6283C13.4213 16.4667 14.1818 16.1549 14.7426 15.6L18.4478 11.9333C19.0317 11.3556 19.9783 11.3556 20.5621 11.9333C21.146 12.5111 21.146 13.4479 20.5621 14.0256L16.4369 18.108C14.5646 19.9607 12.0369 21 9.40288 21H3M11.0477 16.4667C11.8262 16.4667 12.4572 15.8422 12.4572 15.0718C12.4572 14.3014 11.8262 13.6769 11.0477 13.6769H8.05762C7.2646 13.6769 6.50406 13.9887 5.94331 14.5436L5.46123 15.0206C4.76791 15.7067 3.92543 16.1697 3 16.3638" stroke="black" stroke-width="2" stroke-linecap="round" stroke-linejoin="round"/>
</svg>
