<svg width="24" height="24" viewBox="0 0 24 24" fill="none" xmlns="http://www.w3.org/2000/svg">
<path d="M11.9999 3.84958C12.8512 2.82636 14.5013 2.70998 15.4682 3.5953C18.0756 5.98278 15.3052 10.8052 11.9999 11C8.69448 10.8052 5.92444 5.98278 8.53185 3.5953C9.49873 2.70998 11.1485 2.82636 11.9999 3.84958ZM11.9999 3.84958L10.5 5.5L13.5 6.5L11.9999 8M11.0477 16.4667H9.63817M11.0477 16.4667H12.6283C13.4213 16.4667 14.1818 16.1549 14.7426 15.6L18.4478 11.9333C19.0317 11.3556 19.9783 11.3556 20.5621 11.9333C21.146 12.5111 21.146 13.4479 20.5621 14.0256L16.4369 18.108C14.5646 19.9607 12.0369 21 9.40288 21H3M11.0477 16.4667C11.8262 16.4667 12.4572 15.8422 12.4572 15.0718C12.4572 14.3014 11.8262 13.6769 11.0477 13.6769H8.05762C7.2646 13.6769 6.50406 13.9887 5.94331 14.5436L5.46123 15.0206C4.76791 15.7067 3.92543 16.1697 3 16.3638" stroke="black" stroke-width="2" stroke-linecap="round" stroke-linejoin="round"/>
</svg>
