<svg width="24" height="24" viewBox="0 0 24 24" fill="none" xmlns="http://www.w3.org/2000/svg">
<path d="M12.4141 5.26425C14.1959 3.62892 17.1496 3.55447 18.9364 5.1906C24.1512 9.96555 18.6105 19.6105 11.9997 20C5.38897 19.6105 -0.151112 9.96555 5.0637 5.1906C6.85055 3.55447 9.80358 3.62892 11.5853 5.26425C11.8156 5.4756 12.1838 5.4756 12.4141 5.26425Z" stroke="black" stroke-width="2" stroke-linecap="round" stroke-linejoin="round"/>
<path d="M12.4265 8.24898C13.5482 7.21126 15.5667 6.32524 17.0317 7.71726C19.9471 10.4875 15.6957 16.774 11.9999 17C8.30412 16.774 4.05295 10.4874 6.96835 7.71712C8.43301 6.32536 10.4516 7.21129 11.5733 8.24899C11.8082 8.46628 12.1916 8.46628 12.4265 8.24898Z" stroke="black" stroke-width="2" stroke-linecap="round" stroke-linejoin="round"/>
</svg>
