<svg width="24" height="24" viewBox="0 0 24 24" fill="none" xmlns="http://www.w3.org/2000/svg">
<path d="M4 14.0448C2.53537 11.0308 2.51154 7.52749 5.0637 5.1906C6.85055 3.55447 9.80358 3.62892 11.5853 5.26425C11.8156 5.4756 12.1838 5.4756 12.4141 5.26425C14.1959 3.62892 17.1496 3.55447 18.9364 5.1906C20.3865 6.5184 21.005 8.22278 21 10M4 14.0448C5.52803 17.1893 8.62431 19.8011 11.9997 20C16.7722 19.7188 20.987 14.6139 21 10M4 14.0448H7L8 12L11 16L16 8L17 10H21" stroke="black" stroke-width="2" stroke-linecap="round" stroke-linejoin="round"/>
</svg>
