<svg width="24" height="24" viewBox="0 0 24 24" fill="none" xmlns="http://www.w3.org/2000/svg">
<path d="M12 21L4.39926 12.823C2.53358 10.5611 2.53358 6.89381 4.39926 4.63189C6.13478 2.52777 9.48795 2.38149 11.5573 4.64346C11.79 4.89777 12.21 4.89777 12.4427 4.64346C14.5121 2.38149 17.8652 2.52777 19.6007 4.63189C21.4664 6.89381 21.4664 10.5611 19.6007 12.823M9.70008 9.49951C11.0829 7.78648 13.1854 9.52714 14.2255 10.8739C14.4399 11.1516 14.8609 11.1516 15.0754 10.8739C16.1155 9.52725 18.2179 7.78697 19.6007 9.5C21.3992 11.7256 18.4659 14.176 17.7995 15.0001L15.236 17.4414C14.8989 17.7624 14.4015 17.7624 14.0645 17.4413L11.5013 14.9996C10.835 14.1755 7.90164 11.7251 9.70008 9.49951Z" stroke="black" stroke-width="2" stroke-linecap="round" stroke-linejoin="round"/>
</svg>
