<svg width="24" height="24" viewBox="0 0 24 24" fill="none" xmlns="http://www.w3.org/2000/svg">
<path d="M11.561 4.39732C9.77679 2.58182 6.84244 2.50714 5.0637 4.33943C3.22499 6.23349 2.72336 8.80869 3.13428 11.3684C3.21237 11.8549 3.66595 12.1806 4.15625 12.1324C10.955 11.4649 13.802 9.42569 17.2519 3.56477C17.3295 3.433 17.2721 3.2604 17.1265 3.21365C15.5314 2.70148 13.6981 3.11558 12.4383 4.39748C12.2027 4.63722 11.7966 4.63706 11.561 4.39732Z" stroke="black" stroke-width="2" stroke-linecap="round" stroke-linejoin="round"/>
<path d="M5.29195 15.9651C12.3994 15.3094 16.3723 12.3168 19.9059 6.3928C20.0068 6.2236 20.2544 6.22945 20.3341 6.40961C22.8488 12.0929 17.8421 20.6127 11.9997 21C9.30312 20.8213 6.78468 18.91 5.10168 16.3448C4.99924 16.1886 5.106 15.9823 5.29195 15.9651Z" stroke="black" stroke-width="2" stroke-linecap="round" stroke-linejoin="round"/>
</svg>
