<svg width="24" height="24" viewBox="0 0 24 24" fill="none" xmlns="http://www.w3.org/2000/svg">
<path d="M11.7071 4.65513C9.605 2.38099 6.1887 2.52415 4.42198 4.63189C3.20191 6.08744 2.76697 8.12496 3.11713 9.99545C3.25683 10.7417 3.93714 11.2328 4.69524 11.2737C11.1959 11.6243 14.3746 9.83692 17.3787 3.71798C17.5144 3.44159 17.3651 3.10819 17.061 3.05994C15.5168 2.81495 13.823 3.31592 12.585 4.65534C12.3532 4.9061 11.9389 4.90589 11.7071 4.65513Z" stroke="black" stroke-width="2" stroke-linecap="round" stroke-linejoin="round"/>
<path d="M19.8703 12.823L13.5026 19.5641C12.7507 20.36 11.4986 20.4034 10.6934 19.6615L5.6009 14.9694C5.42875 14.8108 5.54984 14.521 5.78384 14.5269C12.3881 14.6958 16.2486 12.1915 19.4835 6.32038C19.6756 5.97182 20.174 5.96534 20.3306 6.3312C21.2441 8.46571 21.3417 11.0676 19.8703 12.823Z" stroke="black" stroke-width="2" stroke-linecap="round" stroke-linejoin="round"/>
</svg>
