<svg width="24" height="24" viewBox="0 0 24 24" fill="none" xmlns="http://www.w3.org/2000/svg">
<path d="M4.39926 12.7316C2.53358 10.721 2.53358 7.46117 4.39926 5.45057C6.14124 3.57327 9.51296 3.44927 11.5804 5.48342C11.8093 5.70864 12.1907 5.70864 12.4196 5.48342C14.487 3.44927 17.8588 3.57327 19.6007 5.45057C20.749 6.68801 21.1905 8.39864 20.9254 10M4.39926 12.7316L10.6177 18.6782C11.3909 19.4176 12.6091 19.4176 13.3823 18.6782L19.6007 12.7316C20.3182 11.9584 20.7597 11.0005 20.9254 10M4.39926 12.7316H8L9 11L12 15L16 8L17 10H20.9254" stroke="black" stroke-width="2" stroke-linecap="round" stroke-linejoin="round"/>
</svg>
