<svg width="24" height="24" viewBox="0 0 24 24" fill="none" xmlns="http://www.w3.org/2000/svg">
<path d="M12.0423 21C5.40071 20.5618 -0.16597 9.71124 5.07321 4.33943C6.88251 2.48433 9.88252 2.58397 11.6679 4.46594C11.8742 4.6833 12.2105 4.6833 12.4167 4.46593C14.2021 2.58397 17.2015 2.48433 19.0108 4.33943C21.1667 6.54998 21.3895 9.6883 20.5363 12.647M20.5363 12.647C20.8669 11.265 20.7212 9.91235 19.8227 8.96813C18.4984 7.57637 16.6732 8.4623 15.6589 9.5C15.4465 9.71729 15.0998 9.71729 14.8874 9.49999C13.8732 8.46227 12.0481 7.57625 10.7234 8.96826C8.08727 11.7385 11.9314 18.025 15.2731 18.251C17.4759 18.1021 19.8969 15.3198 20.5363 12.647ZM20.5363 12.647C20.4046 13.1037 20.2473 13.556 20.0676 14" stroke="black" stroke-width="2" stroke-linecap="round" stroke-linejoin="round"/>
</svg>
