<svg width="24" height="24" viewBox="0 0 24 24" fill="none" xmlns="http://www.w3.org/2000/svg">
<path d="M17.9959 7C17.9432 5.53567 17.3855 4.14119 16.1657 3.04178C14.5927 1.62396 12.0025 1.67419 10.4142 3.06521C10.1814 3.26907 9.81805 3.26907 9.58529 3.06521C7.99711 1.67419 5.4074 1.62396 3.8344 3.04178C-0.120337 6.60635 2.88344 13.2726 7.5 15.3652M10.5 19L11.5374 20.1424C11.8409 20.4767 12.1659 20.7948 12.5485 21.0345C14.5143 22.2664 16.9743 22.3284 18.9451 21.1692C21.8942 19.4346 22.8908 15.4802 21.1247 12.3639L20.9516 12.0585C20.7226 11.6543 20.4333 11.289 20.0951 10.9767C19.2484 10.195 18.0315 10.0476 17.0741 10.6107L14.8844 11.8986C14.5035 12.1226 14.2281 11.9024 14 11.5L11.6137 7.7499C11.2146 7.04562 10.3507 6.79249 9.68418 7.1845C9.01767 7.57652 8.80092 8.46524 9.20006 9.16951L13.6718 17.0598C13.8963 17.456 13.4455 17.8698 13.0914 17.5925L12.3817 17.0368C12.2634 16.9441 12.1388 16.8594 12.0063 16.7884C11.348 16.4355 10.6061 16.1731 10 17C9.66037 17.4633 10 18.5 10.5 19Z" stroke="black" stroke-width="2" stroke-linecap="round" stroke-linejoin="round"/>
</svg>
