<svg width="24" height="24" viewBox="0 0 24 24" fill="none" xmlns="http://www.w3.org/2000/svg">
<path d="M18.364 5.63604C14.8492 2.12132 9.15076 2.12132 5.63604 5.63604M18.364 5.63604L15.8184 8.18162M18.364 5.63604C20.1207 7.39278 20.9994 9.69509 21 11.9976M18.364 18.364C14.8492 21.8787 9.15076 21.8787 5.63604 18.364M18.364 18.364L15.8184 15.8184M18.364 18.364C20.1219 16.606 21.0006 14.3017 21 11.9976M5.63604 18.364C2.12132 14.8492 2.12132 9.15076 5.63604 5.63604M5.63604 18.364L8.18162 15.8184M5.63604 5.63604L8.18162 8.18162M15.8184 8.18162C17.9272 10.2905 17.9272 13.7095 15.8184 15.8184M15.8184 8.18162C13.7095 6.07279 10.2905 6.07279 8.18162 8.18162M15.8184 15.8184C13.7095 17.9272 10.2905 17.9272 8.18162 15.8184M8.18162 15.8184C6.07279 13.7095 6.07279 10.2905 8.18162 8.18162M21 11.9976V6C21 4.34314 19.6569 3 18 3H6C4.34315 3 3 4.34315 3 6V18C3 19.6569 4.34315 21 6 21H18C19.6569 21 21 19.6569 21 18V11.9976Z" stroke="black" stroke-width="2" stroke-linecap="round" stroke-linejoin="round"/>
</svg>
