<svg width="24" height="24" viewBox="0 0 24 24" fill="none" xmlns="http://www.w3.org/2000/svg">
<path d="M19.0711 4.92893C22.9763 8.83418 22.9763 15.1658 19.0711 19.0711M19.0711 4.92893C15.1658 1.02369 8.83418 1.02369 4.92893 4.92893M19.0711 4.92893L16.2426 7.75736M19.0711 19.0711C15.1658 22.9763 8.83418 22.9763 4.92893 19.0711M19.0711 19.0711L16.2426 16.2426M4.92893 19.0711C1.02369 15.1658 1.02369 8.83418 4.92893 4.92893M4.92893 19.0711L7.75736 16.2426M4.92893 4.92893L7.75736 7.75736M16.2426 7.75736C18.5858 10.1005 18.5858 13.8995 16.2426 16.2426M16.2426 7.75736C13.8995 5.41421 10.1005 5.41421 7.75736 7.75736M16.2426 16.2426C13.8995 18.5858 10.1005 18.5858 7.75736 16.2426M7.75736 16.2426C5.41421 13.8995 5.41421 10.1005 7.75736 7.75736" stroke="black" stroke-width="2" stroke-linecap="round" stroke-linejoin="round"/>
</svg>
