<svg width="24" height="24" viewBox="0 0 24 24" fill="none" xmlns="http://www.w3.org/2000/svg">
<path d="M12 2C15.866 2 20 4.5 20 10M12 2C8.13401 2 4 4.5 4 10M12 2V5.8M20 10H16.2M20 10V14M4 10H7.8M4 10V14M12 5.8C14.3196 5.8 16.2 7.6804 16.2 10M12 5.8C9.6804 5.8 7.8 7.6804 7.8 10M16.2 10V14M7.8 10V14M20 14C20 19.5 15.866 22 12 22M20 14H16.2M12 22C8.13401 22 4 19.5 4 14M12 22V18.2M4 14H7.8M16.2 14C16.2 16.3196 14.3196 18.2 12 18.2M12 18.2C9.6804 18.2 7.8 16.3196 7.8 14" stroke="black" stroke-width="2" stroke-linecap="round" stroke-linejoin="round"/>
</svg>
