<svg width="24" height="24" viewBox="0 0 24 24" fill="none" xmlns="http://www.w3.org/2000/svg">
<path d="M12 2C17.5228 2 22 6.47715 22 12M12 2C6.47715 2 2 6.47715 2 12M12 2V6M22 12C22 17.5228 17.5228 22 12 22M22 12H18M12 22C6.47715 22 2 17.5228 2 12M12 22V18M2 12H6M12 6C15.3137 6 18 8.68629 18 12M12 6C8.68629 6 6 8.68629 6 12M18 12C18 15.3137 15.3137 18 12 18M12 18C8.68629 18 6 15.3137 6 12M20 4L18.5 5.5M20 20L18.5 18.5M4 4L5.5 5.5M5.5 18.5L4 20" stroke="black" stroke-width="2" stroke-linecap="round" stroke-linejoin="round"/>
</svg>
