<svg width="24" height="24" viewBox="0 0 24 24" fill="none" xmlns="http://www.w3.org/2000/svg">
<path d="M16 9L14 7.5M16 9L19.5 7.5M16 9V19.3736M14 7.5H10M14 7.5L15.5 4.5M10 7.5L8 9M10 7.5L8.5 4.5M8 9L4.5 7.5M8 9V19.3736M8 19.3736V19.7472C8 22.7472 4 22.7472 4 19.7472V8.10849C4 7.41891 4.35524 6.77798 4.94 6.4125L10.94 2.6625C11.5885 2.25716 12.4115 2.25716 13.06 2.6625L19.06 6.4125C19.6448 6.77798 20 7.41891 20 8.10849V19.7472C20 22.7472 16 22.7472 16 19.7472V19.3736M8 19.3736H16" stroke="black" stroke-width="2" stroke-linecap="round" stroke-linejoin="round"/>
</svg>
