<svg width="24" height="24" viewBox="0 0 24 24" fill="none" xmlns="http://www.w3.org/2000/svg">
<path d="M16 8L14 6M16 8L19.5 5.5M16 8V19.3736M14 6H10M14 6L16.5 2.5M10 6L8 8M10 6L7.5 2.5M8 8L4.5 5.5M8 8V19.3736M8 19.3736V19.7472C8 22.7472 4 22.7472 4 19.7472V5.82843C4 5.29799 4.21071 4.78929 4.58579 4.41421L6.41421 2.58579C6.78929 2.21071 7.29799 2 7.82843 2H16.1716C16.702 2 17.2107 2.21071 17.5858 2.58579L19.4142 4.41421C19.7893 4.78929 20 5.29799 20 5.82843V19.7472C20 22.7472 16 22.7472 16 19.7472V19.3736M8 19.3736H16" stroke="black" stroke-width="2" stroke-linecap="round" stroke-linejoin="round"/>
</svg>
