<svg width="24" height="24" viewBox="0 0 24 24" fill="none" xmlns="http://www.w3.org/2000/svg">
<path d="M19.0714 4.92897C15.1661 1.02372 8.83448 1.02372 4.92923 4.92897M19.0714 4.92897L16.2429 7.75739M19.0714 4.92897C22.1311 7.98872 22.7936 12.538 21.0587 16.2427M19.0714 19.0711L16.2429 16.2427M19.0714 19.0711C19.9169 18.2256 20.5793 17.2664 21.0587 16.2427M19.0714 19.0711C18.2259 19.9166 17.2667 20.579 16.2429 21.0584M4.92923 19.0711C1.02399 15.1659 1.02399 8.83421 4.92923 4.92897M4.92923 19.0711L7.75766 16.2427M4.92923 19.0711C7.98898 22.1309 12.5382 22.7933 16.2429 21.0584M4.92923 4.92897L7.75766 7.75739M16.2429 7.75739C18.5861 10.1005 18.5861 13.8995 16.2429 16.2427M16.2429 7.75739C13.8998 5.41425 10.1008 5.41425 7.75766 7.75739M16.2429 16.2427C13.8998 18.5858 10.1008 18.5858 7.75766 16.2427M7.75766 16.2427C5.41451 13.8995 5.41451 10.1005 7.75766 7.75739M21.0587 16.2427L21.6635 19.9408C21.829 20.9528 20.953 21.8288 19.9411 21.6633L16.2429 21.0584M21.0587 7.75739L21.6635 4.05926C21.829 3.0473 20.953 2.17131 19.9411 2.33682L16.2429 2.94164M2.9377 16.2427L2.33288 19.9408C2.16737 20.9528 3.04336 21.8288 4.05532 21.6633L7.75345 21.0584M2.95163 7.75736L2.3468 4.05922C2.1813 3.04727 3.05728 2.17128 4.06924 2.33678L7.76738 2.94161" stroke="black" stroke-width="2" stroke-linecap="round" stroke-linejoin="round"/>
</svg>
