<svg width="24" height="24" viewBox="0 0 24 24" fill="none" xmlns="http://www.w3.org/2000/svg">
<path fill-rule="evenodd" clip-rule="evenodd" d="M10 8C10 9.65685 8.65685 11 7 11C5.34315 11 4 9.65685 4 8C4 6.34315 5.34315 5 7 5C8.65685 5 10 6.34315 10 8ZM20 8C20 9.65685 18.6569 11 17 11C15.3431 11 14 9.65685 14 8C14 6.34315 15.3431 5 17 5C18.6569 5 20 6.34315 20 8ZM3 19C3 16.7909 4.79086 15 7 15C9.20914 15 11 16.7909 11 19C11 19.5523 11.4477 20 12 20C12.5523 20 13 19.5523 13 19C13 16.7909 14.7909 15 17 15C19.2091 15 21 16.7909 21 19C21 19.5523 21.4477 20 22 20C22.5523 20 23 19.5523 23 19C23 15.6863 20.3137 13 17 13C14.913 13 13.0749 14.0655 12 15.6822C10.9251 14.0655 9.08697 13 7 13C3.68629 13 1 15.6863 1 19C1 19.5523 1.44772 20 2 20C2.55228 20 3 19.5523 3 19Z" fill="black"/>
</svg>
