<svg width="24" height="24" viewBox="0 0 24 24" fill="none" xmlns="http://www.w3.org/2000/svg">
<path d="M8.00015 18C8.00015 15.7909 9.79101 13 12.0001 13C14.2093 13 16.0001 15.7909 16.0001 18C16.0001 16.3007 17.3433 13.9229 19.0002 13.9229C20.2088 13.9229 21.2505 15.1881 21.7257 16.5323C22.0018 17.3133 21.3286 17.9998 20.5002 17.9998L3.50002 18C2.67158 18 1.9984 17.3135 2.2745 16.5325C2.74966 15.1883 3.79136 13.9231 5 13.9231C6.65685 13.9231 8.00015 16.3007 8.00015 18ZM14.0001 8C14.0001 9.10457 13.1047 10 12.0001 10C10.8956 10 10.0001 9.10457 10.0001 8C10.0001 6.89543 10.8956 6 12.0001 6C13.1047 6 14.0001 6.89543 14.0001 8ZM21.0002 9C21.0002 10.1046 20.1047 11 19.0002 11C17.8956 11 17.0001 10.1046 17.0001 9C17.0001 7.89543 17.8956 7 19.0002 7C20.1047 7 21.0002 7.89543 21.0002 9ZM7 9.00023C7 10.1048 6.10457 11.0002 5 11.0002C3.89543 11.0002 3 10.1048 3 9.00023C3 7.89566 3.89543 7.00023 5 7.00023C6.10457 7.00023 7 7.89566 7 9.00023Z" stroke="black" stroke-width="2" stroke-linecap="round" stroke-linejoin="round"/>
</svg>
