<svg width="24" height="24" viewBox="0 0 24 24" fill="none" xmlns="http://www.w3.org/2000/svg">
<path fill-rule="evenodd" clip-rule="evenodd" d="M19.0004 6C19.0004 7.65685 17.6572 9 16.0004 9C14.3435 9 13.0004 7.65685 13.0004 6C13.0004 4.34315 14.3435 3 16.0004 3C17.6572 3 19.0004 4.34315 19.0004 6ZM11 10C11 11.6569 9.65685 13 8 13C6.34315 13 5 11.6569 5 10C5 8.34315 6.34315 7 8 7C9.65685 7 11 8.34315 11 10ZM14.0008 13.5347C14.5882 13.1948 15.27 13 16.0004 13C18.2095 13 20.0004 14.7909 20.0004 17C20.0004 17.5523 20.4481 18 21.0004 18C21.5527 18 22.0004 17.5523 22.0004 17C22.0004 13.6863 19.3141 11 16.0004 11C14.909 11 13.8828 11.2923 12.9992 11.8036C12.5212 12.0801 12.3579 12.6919 12.6344 13.1699C12.911 13.648 13.5228 13.8113 14.0008 13.5347ZM4 21C4 18.7909 5.79086 17 8 17C10.2091 17 12 18.7909 12 21C12 21.5523 12.4477 22 13 22C13.5523 22 14 21.5523 14 21C14 17.6863 11.3137 15 8 15C4.68629 15 2 17.6863 2 21C2 21.5523 2.44772 22 3 22C3.55228 22 4 21.5523 4 21Z" fill="black"/>
</svg>
