<svg width="24" height="24" viewBox="0 0 24 24" fill="none" xmlns="http://www.w3.org/2000/svg">
<path fill-rule="evenodd" clip-rule="evenodd" d="M12.0021 10C13.1067 10 14.0021 9.10457 14.0021 8C14.0021 6.89543 13.1067 6 12.0021 6C10.8975 6 10.0021 6.89543 10.0021 8C10.0021 9.10457 10.8975 10 12.0021 10ZM19.0021 11C20.1067 11 21.0021 10.1046 21.0021 9C21.0021 7.89543 20.1067 7 19.0021 7C17.8975 7 17.0021 7.89543 17.0021 9C17.0021 10.1046 17.8975 11 19.0021 11ZM7.00195 9.00023C7.00195 10.1048 6.10652 11.0002 5.00195 11.0002C3.89738 11.0002 3.00195 10.1048 3.00195 9.00023C3.00195 7.89566 3.89738 7.00023 5.00195 7.00023C6.10652 7.00023 7.00195 7.89566 7.00195 9.00023ZM9.00119 18C9.00119 17.138 9.3621 16.0932 9.97534 15.2681C10.596 14.4331 11.333 14 12.0012 14C12.6694 14 13.4064 14.4331 14.027 15.2681C14.6403 16.0932 15.0012 17.138 15.0012 18C15.0012 18.5523 15.4489 19 16.0012 19C16.5535 19 17.0012 18.5523 17.0012 18C17.0012 16.6528 16.4667 15.1977 15.6322 14.075C14.8051 12.9623 13.5422 12 12.0012 12C10.4602 12 9.19723 12.9623 8.37018 14.075C7.5357 15.1977 7.00119 16.6528 7.00119 18C7.00119 18.5523 7.4489 19 8.00119 19C8.55347 19 9.00119 18.5523 9.00119 18ZM5.00195 12.9229C3.68245 12.9229 2.66926 13.8469 2.05097 14.7658C1.41429 15.712 1.00195 16.9224 1.00195 17.9998C1.00195 18.5521 1.44967 18.9998 2.00195 18.9998C2.55424 18.9998 3.00195 18.5521 3.00195 17.9998C3.00195 17.3778 3.26119 16.5498 3.71029 15.8823C4.17779 15.1876 4.6646 14.9229 5.00195 14.9229C5.14409 14.9229 5.30754 14.965 5.49499 15.0753C5.971 15.3554 6.58392 15.1965 6.86398 14.7205C7.14405 14.2445 6.98522 13.6316 6.50921 13.3515C6.07103 13.0937 5.5612 12.9229 5.00195 12.9229ZM19.0012 12.9229C18.4419 12.9229 17.9321 13.0937 17.4939 13.3515C17.0179 13.6316 16.8591 14.2445 17.1392 14.7205C17.4192 15.1965 18.0321 15.3554 18.5081 15.0753C18.6956 14.965 18.8591 14.9229 19.0012 14.9229C19.3385 14.9229 19.8253 15.1876 20.2928 15.8823C20.742 16.5498 21.0012 17.3778 21.0012 17.9998C21.0012 18.5521 21.4489 18.9998 22.0012 18.9998C22.5535 18.9998 23.0012 18.5521 23.0012 17.9998C23.0012 16.9224 22.5888 15.712 21.9522 14.7658C21.3339 13.8469 20.3207 12.9229 19.0012 12.9229Z" fill="black"/>
</svg>
