<svg width="24" height="24" viewBox="0 0 24 24" fill="none" xmlns="http://www.w3.org/2000/svg">
<path fill-rule="evenodd" clip-rule="evenodd" d="M12.0001 10C13.1047 10 14.0001 9.10457 14.0001 8C14.0001 6.89543 13.1047 6 12.0001 6C10.8956 6 10.0001 6.89543 10.0001 8C10.0001 9.10457 10.8956 10 12.0001 10ZM19.0002 11C20.1047 11 21.0002 10.1046 21.0002 9C21.0002 7.89543 20.1047 7 19.0002 7C17.8956 7 17.0001 7.89543 17.0001 9C17.0001 10.1046 17.8956 11 19.0002 11ZM7 9.00023C7 10.1048 6.10457 11.0002 5 11.0002C3.89543 11.0002 3 10.1048 3 9.00023C3 7.89566 3.89543 7.00023 5 7.00023C6.10457 7.00023 7 7.89566 7 9.00023ZM9.00015 18C9.00015 17.138 9.36106 16.0932 9.9743 15.2681C10.595 14.4331 11.332 14 12.0001 14C12.6683 14 13.4053 14.4331 14.026 15.2681C14.6392 16.0932 15.0001 17.138 15.0001 18C15.0001 18.5523 15.4479 19 16.0001 19C16.5524 19 17.0001 18.5523 17.0001 18C17.0001 17.378 17.2594 16.5499 17.7085 15.8824C18.176 15.1876 18.6628 14.9229 19.0002 14.9229C19.3375 14.9229 19.8243 15.1876 20.2918 15.8823C20.7409 16.5498 21.0002 17.3778 21.0002 17.9998C21.0002 18.5521 21.4479 18.9998 22.0002 18.9998C22.5524 18.9998 23.0002 18.5521 23.0002 17.9998C23.0002 16.9224 22.5878 15.712 21.9511 14.7658C21.3328 13.8469 20.3197 12.9229 19.0002 12.9229C17.6936 12.9229 16.6873 13.829 16.0675 14.7389C15.9336 14.5078 15.7877 14.2856 15.6312 14.075C14.8041 12.9623 13.5411 12 12.0001 12C10.4592 12 9.19619 12.9623 8.36914 14.075C8.21261 14.2856 8.06663 14.5079 7.93276 14.739C7.31284 13.8291 6.30656 12.9231 5 12.9231C3.6805 12.9231 2.66731 13.8472 2.04902 14.766C1.41234 15.7122 1 16.9226 1 18C1 18.5523 1.44772 19 2 19C2.55228 19 3 18.5523 3 18C3 17.378 3.25923 16.55 3.70834 15.8826C4.17584 15.1878 4.66265 14.9231 5 14.9231C5.33737 14.9231 5.82422 15.1878 6.29175 15.8826C6.7409 16.55 7.00015 17.378 7.00015 18C7.00015 18.5523 7.44787 19 8.00015 19C8.55243 19 9.00015 18.5523 9.00015 18Z" fill="black"/>
</svg>
