<svg width="24" height="24" viewBox="0 0 24 24" fill="none" xmlns="http://www.w3.org/2000/svg">
<path d="M15.5 17H19.0004C20.1049 17 21.0375 16.0697 20.6069 15.0525C19.8476 13.2586 18.071 12 16.0004 12C15.0895 12 14.2355 12.2436 13.5 12.6691M11 10C11 11.6569 9.65685 13 8 13C6.34315 13 5 11.6569 5 10C5 8.34315 6.34315 7 8 7C9.65685 7 11 8.34315 11 10ZM8 16C5.92942 16 4.15279 17.2586 3.39346 19.0525C2.96289 20.0697 3.89543 21 5 21H11C12.1046 21 13.0371 20.0697 12.6065 19.0525C11.8472 17.2586 10.0706 16 8 16ZM19.0004 6C19.0004 7.65685 17.6572 9 16.0004 9C14.3435 9 13.0004 7.65685 13.0004 6C13.0004 4.34315 14.3435 3 16.0004 3C17.6572 3 19.0004 4.34315 19.0004 6Z" stroke="black" stroke-width="2" stroke-linecap="round" stroke-linejoin="round"/>
</svg>
