<svg width="24" height="24" viewBox="0 0 24 24" fill="none" xmlns="http://www.w3.org/2000/svg">
<path d="M18.001 14.2134C18.3139 14.0294 18.6505 13.9229 19.0012 13.9229C20.2099 13.9229 21.2516 15.1881 21.7267 16.5324C22.0028 17.3134 21.3297 17.9998 20.5013 17.9999L19 18M6.0021 14.2134C5.68928 14.0294 5.35264 13.9229 5.00195 13.9229C3.79331 13.9229 2.7516 15.1881 2.27645 16.5323C2.00035 17.3133 2.67353 17.9998 3.50195 17.9998H5.00104M12.0012 13C10.2682 13 8.79265 14.7174 8.23705 16.5242C7.99356 17.316 8.67276 18 9.50119 18H14.5012C15.3296 18 16.0088 17.316 15.7653 16.5242C15.2097 14.7174 13.7342 13 12.0012 13ZM14.0012 8C14.0012 9.10457 13.1058 10 12.0012 10C10.8966 10 10.0012 9.10457 10.0012 8C10.0012 6.89543 10.8966 6 12.0012 6C13.1058 6 14.0012 6.89543 14.0012 8ZM21.0012 9C21.0012 10.1046 20.1058 11 19.0012 11C17.8966 11 17.0012 10.1046 17.0012 9C17.0012 7.89543 17.8966 7 19.0012 7C20.1058 7 21.0012 7.89543 21.0012 9ZM7.00104 9.00023C7.00104 10.1048 6.10561 11.0002 5.00104 11.0002C3.89647 11.0002 3.00104 10.1048 3.00104 9.00023C3.00104 7.89566 3.89647 7.00023 5.00104 7.00023C6.10561 7.00023 7.00104 7.89566 7.00104 9.00023Z" stroke="black" stroke-width="2" stroke-linecap="round" stroke-linejoin="round"/>
</svg>
