<svg width="24" height="24" viewBox="0 0 24 24" fill="none" xmlns="http://www.w3.org/2000/svg">
<path d="M10 8C10 9.65685 8.65685 11 7 11C5.34315 11 4 9.65685 4 8C4 6.34315 5.34315 5 7 5C8.65685 5 10 6.34315 10 8ZM7 14C4.92942 14 3.15279 15.2586 2.39346 17.0525C1.96289 18.0697 2.89543 19 4 19H20C21.1046 19 22.0371 18.0697 21.6065 17.0525C20.8472 15.2586 19.0706 14 17 14C14.2386 14 12 16.2386 12 19C12 16.2386 9.76142 14 7 14ZM20 8C20 9.65685 18.6569 11 17 11C15.3431 11 14 9.65685 14 8C14 6.34315 15.3431 5 17 5C18.6569 5 20 6.34315 20 8Z" stroke="black" stroke-width="2" stroke-linecap="round" stroke-linejoin="round"/>
</svg>
