<svg width="24" height="24" viewBox="0 0 24 24" fill="none" xmlns="http://www.w3.org/2000/svg">
<path d="M7.31662 10.0001V12.0001C7.31662 13.1046 8.26064 14.0001 9.42505 14.0001C9.7421 14.0001 9.98739 14.2637 9.94806 14.5621L9.49504 18.0001C9.2974 19.5001 10.2832 21.0001 12.0299 21.0001C13.7765 21.0001 14.7529 19.4283 14.5647 18L14.1116 14.5621C14.0723 14.2637 14.3175 14 14.6345 14C15.799 14 16.7429 13.1046 16.7429 12V10M7.31662 10.0001L16.7429 10M7.31662 10.0001L7.02159 5.28292C6.84014 4.07806 7.82571 3.00008 9.10875 3.00008L14.8913 3C16.1743 3 17.1599 4.07798 16.9784 5.28284L16.7429 10" stroke="black" stroke-width="2" stroke-linejoin="round"/>
</svg>
