<svg width="24" height="24" viewBox="0 0 24 24" fill="none" xmlns="http://www.w3.org/2000/svg">
<path d="M9.81778 15.0607L8.9391 14.182M9.81778 15.0607C10.4036 15.6464 11.3533 15.6464 11.9391 15.0607L14.0002 13M9.81778 15.0607C9.81778 15.0607 10.7501 17.7499 9.25 19.25C7.74992 20.7501 6 21 3 21C4.5 19 2.98952 17.0103 4.99992 15C6.5 13.5 8.9391 14.182 8.9391 14.182M8.9391 14.182C8.35331 13.5962 8.35331 12.6464 8.9391 12.0607L11 9.99976M11 9.99976L17.3784 3.62132C18.2069 2.79289 19.55 2.79289 20.3784 3.62132C21.2069 4.44975 21.2069 5.79289 20.3784 6.62132L14.0002 13M11 9.99976L14.0002 13" stroke="black" stroke-width="2" stroke-linecap="round" stroke-linejoin="round"/>
</svg>
