<svg width="24" height="24" viewBox="0 0 24 24" fill="none" xmlns="http://www.w3.org/2000/svg">
<path d="M4.72194 10V12C4.72194 13.1046 5.65294 14 6.80139 14H8.81179C9.12449 14 9.36641 14.2637 9.32763 14.5621L8.88082 18C8.68589 19.5 10.2773 21 12 21C13.7227 21 15.3048 19.4283 15.1192 18L14.6723 14.5621C14.6336 14.2637 14.8755 14 15.1882 14H17.1986C18.3471 14 19.2781 13.1046 19.2781 12V10M4.72194 10H19.2781M4.72194 10L4.02129 5.28284C3.84233 4.07797 4.81439 3 6.07984 3H17.9202C19.1856 3 20.1577 4.07798 19.9787 5.28284L19.2781 10" stroke="black" stroke-width="2" stroke-linejoin="round"/>
</svg>
