<svg width="24" height="24" viewBox="0 0 24 24" fill="none" xmlns="http://www.w3.org/2000/svg">
<path d="M10.5 9.68722L9.36132 11.1106C8.83648 11.7666 8.88886 12.7124 9.48294 13.3065L10.6935 14.5171C11.2876 15.1111 12.2334 15.1635 12.8894 14.6387L14.3128 13.5M10.5 9.68722L14.8054 4.30551C16.1005 2.68663 18.5152 2.55289 19.9812 4.01885C21.4471 5.4848 21.3134 7.89954 19.6945 9.19464L14.3128 13.5M10.5 9.68722L14.3128 13.5M9.37844 14.6215C8.75705 14 6.5 13.5002 4.99992 15.0002C2.98952 17.0105 4.5 19.0002 3 21.0002C6 21.0002 7.74992 20.7503 9.25 19.2502C10.7501 17.7501 9.99997 15.2432 9.37844 14.6215Z" stroke="black" stroke-width="2" stroke-linecap="round" stroke-linejoin="round"/>
</svg>
