<svg width="24" height="24" viewBox="0 0 24 24" fill="none" xmlns="http://www.w3.org/2000/svg">
<path fill-rule="evenodd" clip-rule="evenodd" d="M20.0902 1.90981C18.8771 0.69673 16.9103 0.696729 15.6972 1.90981L13.5213 4.08579L12.7284 3.29289C12.3378 2.90237 11.7047 2.90237 11.3142 3.29289C10.9236 3.68342 10.9236 4.31658 11.3142 4.70711L12.107 5.5L8.71105 8.89599C8.33004 9.277 8.0304 9.73143 7.83028 10.2317L6.07152 14.6286C5.92296 15 6.01003 15.4242 6.29289 15.7071C6.57576 15.99 6.99997 16.077 7.37139 15.9285L11.7683 14.1697C12.2686 13.9696 12.723 13.67 13.104 13.2889L16.4894 9.90358L17.2929 10.7071C17.6834 11.0976 18.3166 11.0976 18.7071 10.7071C19.0976 10.3166 19.0976 9.68342 18.7071 9.29289L17.9036 8.48937L20.0902 6.30277C21.3033 5.08968 21.3033 3.12289 20.0902 1.90981ZM10.1253 10.3102L13.5213 6.91421L15.0858 8.47874L11.6898 11.8747C11.5003 12.0642 11.2743 12.2132 11.0255 12.3128L8.79505 13.2049L9.68723 10.9745C9.78676 10.7257 9.93578 10.4997 10.1253 10.3102ZM14.9355 5.5L16.5 7.06453L18.676 4.88855C19.108 4.45652 19.108 3.75606 18.676 3.32402C18.2439 2.89199 17.5435 2.89199 17.1114 3.32402L14.9355 5.5ZM5 23C6.10457 23 7 22.1032 7 20.9969C7 20.2996 6.78461 19.8181 6.55376 19.302C6.30422 18.7442 6.03662 18.146 6.00344 17.1913C5.9996 17.0807 5.91027 16.9896 5.80039 17.001C4.36979 17.1483 3 18.8559 3 20.9969C3 22.1032 3.89543 23 5 23Z" fill="black"/>
</svg>
