<svg width="24" height="24" viewBox="0 0 24 24" fill="none" xmlns="http://www.w3.org/2000/svg">
<path d="M12 14C13.1046 14 14 14.8954 14 16C14 17.1046 13.1046 18 12 18M12 14C10.8954 14 10 14.8954 10 16C10 17.1046 10.8954 18 12 18M12 14V2M12 18V22M18 10C19.1046 10 20 9.10457 20 8C20 6.89543 19.1046 6 18 6M18 10C16.8954 10 16 9.10457 16 8C16 6.89543 16.8954 6 18 6M18 10V22M18 6V2M6 10C7.10457 10 8 9.10457 8 8C8 6.89543 7.10457 6 6 6M6 10C4.89543 10 4 9.10457 4 8C4 6.89543 4.89543 6 6 6M6 10V22M6 6V2" stroke="black" stroke-width="2" stroke-linecap="round"/>
</svg>
