<svg width="24" height="24" viewBox="0 0 24 24" fill="none" xmlns="http://www.w3.org/2000/svg">
<path d="M10 12C10 13.1046 9.10457 14 8 14C6.89543 14 6 13.1046 6 12M10 12C10 10.8954 9.10457 10 8 10C6.89543 10 6 10.8954 6 12M10 12H22M6 12H2M14 18C14 19.1046 14.8954 20 16 20C17.1046 20 18 19.1046 18 18M14 18C14 16.8954 14.8954 16 16 16C17.1046 16 18 16.8954 18 18M14 18H2M18 18H22M14 6C14 7.10457 14.8954 8 16 8C17.1046 8 18 7.10457 18 6M14 6C14 4.89543 14.8954 4 16 4C17.1046 4 18 4.89543 18 6M14 6H2M18 6H22" stroke="black" stroke-width="2" stroke-linecap="round"/>
</svg>
