<svg width="24" height="24" viewBox="0 0 24 24" fill="none" xmlns="http://www.w3.org/2000/svg">
<path d="M14 21H6C4.34315 21 3 19.6569 3 18V16M21 13V6C21 4.34315 19.6569 3 18 3H6C4.34315 3 3 4.34315 3 6V16M3 16L5.43934 13.5607C6.02513 12.9749 6.97487 12.9749 7.56066 13.5607L7.93934 13.9393C8.52513 14.5251 9.47487 14.5251 10.0607 13.9393L12.5094 11.4906C13.1041 10.8959 14.0073 10.7367 14.7694 11.0924L18 12.6M17.9983 16.784C17.4985 16.1996 16.6649 16.0424 16.0387 16.5775C15.4124 17.1126 15.3242 18.0072 15.816 18.6401C16.3079 19.273 17.9983 20.75 17.9983 20.75C17.9983 20.75 19.6887 19.273 20.1805 18.6401C20.6723 18.0072 20.5949 17.107 19.9579 16.5775C19.3209 16.048 18.4981 16.1996 17.9983 16.784Z" stroke="black" stroke-width="2" stroke-linecap="round" stroke-linejoin="round"/>
<circle cx="8.5" cy="8.5" r="1.5" fill="black"/>
</svg>
