<svg width="24" height="24" viewBox="0 0 24 24" fill="none" xmlns="http://www.w3.org/2000/svg">
<path fill-rule="evenodd" clip-rule="evenodd" d="M6 2C3.79086 2 2 3.79086 2 6V16V18C2 20.2091 3.79086 22 6 22H12C12.5523 22 13 21.5523 13 21C13 20.4477 12.5523 20 12 20H6C4.89543 20 4 19.1046 4 18V16.4142L6.14645 14.2678C6.34171 14.0725 6.65829 14.0725 6.85355 14.2678L7.23223 14.6464C8.20855 15.6228 9.79146 15.6228 10.7678 14.6464L13.2166 12.1977C13.5139 11.9003 13.9655 11.8208 14.3465 11.9986L16.5771 13.0395C17.0776 13.2731 17.6726 13.0567 17.9062 12.5562C18.1397 12.0557 17.9234 11.4607 17.4229 11.2271L15.1923 10.1862C14.0491 9.65274 12.6944 9.89142 11.8023 10.7834L9.35355 13.2322C9.15829 13.4275 8.84171 13.4275 8.64645 13.2322L8.26777 12.8536C7.29146 11.8772 5.70854 11.8772 4.73223 12.8536L4 13.5858V6C4 4.89543 4.89543 4 6 4H18C19.1046 4 20 4.89543 20 6V13C20 13.5523 20.4477 14 21 14C21.5523 14 22 13.5523 22 13V6C22 3.79086 20.2091 2 18 2H6ZM8.5 10C9.32843 10 10 9.32843 10 8.5C10 7.67157 9.32843 7 8.5 7C7.67157 7 7 7.67157 7 8.5C7 9.32843 7.67157 10 8.5 10ZM15.8281 16.5469C15.8281 15.5545 16.6326 14.75 17.625 14.75C18.6174 14.75 19.4219 15.5545 19.4219 16.5469V16.9062H19.7812C20.1782 16.9062 20.5 17.228 20.5 17.625V19.7812C20.5 20.1782 20.1782 20.5 19.7812 20.5H15.4688C15.0718 20.5 14.75 20.1782 14.75 19.7812V17.625C14.75 17.228 15.0718 16.9062 15.4688 16.9062H15.8281V16.5469ZM17.9844 16.5469V16.9062H17.2656V16.5469C17.2656 16.3484 17.4265 16.1875 17.625 16.1875C17.8235 16.1875 17.9844 16.3484 17.9844 16.5469ZM17.625 19.2422C17.9227 19.2422 18.1641 19.0008 18.1641 18.7031C18.1641 18.4054 17.9227 18.1641 17.625 18.1641C17.3273 18.1641 17.0859 18.4054 17.0859 18.7031C17.0859 19.0008 17.3273 19.2422 17.625 19.2422Z" fill="black"/>
</svg>
