<svg width="24" height="24" viewBox="0 0 24 24" fill="none" xmlns="http://www.w3.org/2000/svg">
<path fill-rule="evenodd" clip-rule="evenodd" d="M6 2C3.79086 2 2 3.79086 2 6V16V18C2 20.2091 3.79086 22 6 22H12.5C13.0523 22 13.5 21.5523 13.5 21C13.5 20.4477 13.0523 20 12.5 20H6C4.89543 20 4 19.1046 4 18V16.4142L6.14645 14.2678C6.34171 14.0725 6.65829 14.0725 6.85355 14.2678L7.23223 14.6464C8.20855 15.6228 9.79146 15.6228 10.7678 14.6464L13.2166 12.1977C13.5139 11.9003 13.9655 11.8208 14.3465 11.9986L16.5771 13.0395C17.0776 13.2731 17.6726 13.0567 17.9062 12.5562C18.1397 12.0557 17.9234 11.4607 17.4229 11.2271L15.1923 10.1862C14.0491 9.65274 12.6944 9.89142 11.8023 10.7834L9.35355 13.2322C9.15829 13.4275 8.84171 13.4275 8.64645 13.2322L8.26777 12.8536C7.29146 11.8772 5.70854 11.8772 4.73223 12.8536L4 13.5858V6C4 4.89543 4.89543 4 6 4H18C19.1046 4 20 4.89543 20 6V13C20 13.5523 20.4477 14 21 14C21.5523 14 22 13.5523 22 13V6C22 3.79086 20.2091 2 18 2H6ZM8.5 10C9.32843 10 10 9.32843 10 8.5C10 7.67157 9.32843 7 8.5 7C7.67157 7 7 7.67157 7 8.5C7 9.32843 7.67157 10 8.5 10ZM18.6278 16.3703C18.4226 16.1652 18.3201 16.0626 18.3201 15.9351C18.3201 15.8077 18.4226 15.7051 18.6278 15.5L18.7087 15.4191C18.7584 15.3694 18.7832 15.3445 18.8052 15.3245C19.2813 14.8918 20.0083 14.8918 20.4843 15.3245C20.5063 15.3445 20.531 15.3693 20.5804 15.4187L20.5805 15.4187L20.5809 15.4191L20.5809 15.4191L20.5809 15.4192L20.581 15.4192L20.581 15.4192C20.6306 15.4688 20.6555 15.4937 20.6755 15.5157C21.1082 15.9917 21.1082 16.7187 20.6755 17.1948C20.6555 17.2168 20.6306 17.2416 20.5809 17.2913L20.5809 17.2913L20.5 17.3722C20.2949 17.5774 20.1923 17.6799 20.0649 17.6799C19.9374 17.6799 19.8348 17.5774 19.6297 17.3722L18.6278 16.3703ZM18.1926 16.8054C17.9875 16.6003 17.8849 16.4977 17.7575 16.4977C17.63 16.4977 17.5275 16.6003 17.3223 16.8054L16.4773 17.6504L16.4734 17.6544L16.4734 17.6544C16.3863 17.7424 16.3571 17.7719 16.3337 17.8053C16.3219 17.8221 16.3116 17.84 16.296 17.8668L16.296 17.8668C16.2673 17.9163 16.2209 17.9963 16.115 18.157C15.8358 18.5803 15.6462 19.0544 15.2669 20.0026L15.2126 20.1385C15.0276 20.6009 14.9351 20.8321 15.0515 20.9485C15.1679 21.0649 15.3991 20.9724 15.8615 20.7874L15.9974 20.7331L15.9974 20.7331L15.9975 20.7331C16.9456 20.3538 17.4197 20.1642 17.843 19.885C18.0037 19.7791 18.0837 19.7327 18.1332 19.704C18.16 19.6884 18.1779 19.6781 18.1947 19.6663C18.2281 19.6429 18.2576 19.6137 18.3456 19.5266L18.3496 19.5227L19.1946 18.6777C19.3997 18.4725 19.5023 18.37 19.5023 18.2425C19.5023 18.1151 19.3997 18.0125 19.1946 17.8074L18.1926 16.8054Z" fill="black"/>
</svg>
