<svg width="24" height="24" viewBox="0 0 24 24" fill="none" xmlns="http://www.w3.org/2000/svg">
<path fill-rule="evenodd" clip-rule="evenodd" d="M2.29289 2.29289C2.68342 1.90237 3.31658 1.90237 3.70711 2.29289L4.87885 3.46464C5.40776 3.16869 6.01751 3 6.66667 3H17.3333C19.3584 3 21 4.64162 21 6.66667V13.7778V17.3333C21 17.9825 20.8313 18.5922 20.5354 19.1211L21.7071 20.2929C22.0976 20.6834 22.0976 21.3166 21.7071 21.7071C21.3166 22.0976 20.6834 22.0976 20.2929 21.7071L19.1211 20.5354L19.1211 20.5354L17.5692 18.9834L17.5692 18.9834L12 13.4142L12 13.4142L10.5858 12L10.5858 12L5.01656 6.43078L5.01656 6.43083L3.46461 4.87889L3.46464 4.87885L2.29289 3.70711C1.90237 3.31658 1.90237 2.68342 2.29289 2.29289ZM14.7573 19L16.7573 21H6.66667C4.64162 21 3 19.3584 3 17.3333V15.5556V7.2427L5 9.24271V13.1413L5.4612 12.6801C6.11688 12.0245 7.06571 11.8406 7.88581 12.1285L10.5376 14.7803C9.64045 15.3216 8.4576 15.2051 7.68342 14.431L7.34681 14.0944C7.21664 13.9642 7.00558 13.9642 6.87541 14.0944L5 15.9698V17.3333C5 18.2538 5.74619 19 6.66667 19H14.7573ZM18.9834 17.5692L13.4765 12.0623C13.658 12.0052 13.8586 12.0153 14.0388 12.0994L19 14.4146V17.3333C19 17.4134 18.9944 17.4922 18.9834 17.5692ZM19 12.2076L14.8846 10.2871C13.9361 9.84444 12.8303 9.97588 12.0165 10.6022L9.99773 8.58352C10.0205 8.17227 9.87487 7.75343 9.56071 7.43926C9.24655 7.1251 8.8277 6.97943 8.41646 7.00224L6.43078 5.01656C6.50784 5.00565 6.58659 5 6.66667 5H17.3333C18.2538 5 19 5.74619 19 6.66667V12.2076Z" fill="black"/>
</svg>
