<svg width="24" height="24" viewBox="0 0 24 24" fill="none" xmlns="http://www.w3.org/2000/svg">
<path d="M14 21H6C4.34315 21 3 19.6569 3 18V16M21 13V6C21 4.34315 19.6569 3 18 3H6C4.34315 3 3 4.34315 3 6V16M3 16L5.43934 13.5607C6.02513 12.9749 6.97487 12.9749 7.56066 13.5607L7.93934 13.9393C8.52513 14.5251 9.47487 14.5251 10.0607 13.9393L12.5094 11.4906C13.1041 10.8959 14.0073 10.7367 14.7694 11.0924L18 12.6M19.2008 19.2008L20.5 20.5M19.2008 19.2008C18.8615 19.5401 18.3928 19.75 17.875 19.75C16.8395 19.75 16 18.9105 16 17.875C16 16.8395 16.8395 16 17.875 16C18.9105 16 19.75 16.8395 19.75 17.875C19.75 18.3928 19.5401 18.8615 19.2008 19.2008Z" stroke="black" stroke-width="2" stroke-linecap="round" stroke-linejoin="round"/>
<circle cx="8.5" cy="8.5" r="1.5" fill="black"/>
</svg>
