<svg width="24" height="24" viewBox="0 0 24 24" fill="none" xmlns="http://www.w3.org/2000/svg">
<path d="M13 21H6C4.34315 21 3 19.6569 3 18V16M3 16V6C3 4.34315 4.34315 3 6 3H18C19.6569 3 21 4.34315 21 6V14L14.7694 11.0924C14.0073 10.7367 13.1041 10.8959 12.5094 11.4906L10.0607 13.9393C9.47487 14.5251 8.52513 14.5251 7.93934 13.9393L7.56066 13.5607C6.97487 12.9749 6.02513 12.9749 5.43934 13.5607L3 16ZM20.5 18H15.5M15.5 18L17.5 20M15.5 18L17.5 16" stroke="black" stroke-width="2" stroke-linecap="round" stroke-linejoin="round"/>
<circle cx="8.5" cy="8.5" r="1.5" fill="black"/>
</svg>
