<svg width="24" height="24" viewBox="0 0 24 24" fill="none" xmlns="http://www.w3.org/2000/svg">
<path fill-rule="evenodd" clip-rule="evenodd" d="M6 2C3.79086 2 2 3.79086 2 6V16V18C2 20.2091 3.79086 22 6 22H13C13.5523 22 14 21.5523 14 21C14 20.4477 13.5523 20 13 20H6C4.89543 20 4 19.1046 4 18V16.4142L6.14645 14.2678C6.34171 14.0725 6.65829 14.0725 6.85355 14.2678L7.23223 14.6464C8.20855 15.6228 9.79146 15.6228 10.7678 14.6464L13.2166 12.1977C13.5139 11.9003 13.9655 11.8208 14.3465 11.9986L20.5771 14.9062C20.8868 15.0507 21.2489 15.0271 21.5372 14.8435C21.8255 14.6599 22 14.3418 22 14V6C22 3.79086 20.2091 2 18 2H6ZM4.73223 12.8536L4 13.5858V6C4 4.89543 4.89543 4 6 4H18C19.1046 4 20 4.89543 20 6V12.4298L15.1923 10.1862C14.0491 9.65274 12.6944 9.89142 11.8023 10.7834L9.35355 13.2322C9.15829 13.4275 8.84171 13.4275 8.64645 13.2322L8.26777 12.8536C7.29146 11.8772 5.70854 11.8772 4.73223 12.8536ZM21.2071 17.7071C21.5976 17.3166 21.5976 16.6834 21.2071 16.2929C20.8166 15.9024 20.1834 15.9024 19.7929 16.2929L17 19.0858L16.2071 18.2929C15.8166 17.9024 15.1834 17.9024 14.7929 18.2929C14.4024 18.6834 14.4024 19.3166 14.7929 19.7071L16.2929 21.2071C16.6834 21.5976 17.3166 21.5976 17.7071 21.2071L21.2071 17.7071ZM8.5 10C9.32843 10 10 9.32843 10 8.5C10 7.67157 9.32843 7 8.5 7C7.67157 7 7 7.67157 7 8.5C7 9.32843 7.67157 10 8.5 10Z" fill="black"/>
</svg>
