<svg width="24" height="24" viewBox="0 0 24 24" fill="none" xmlns="http://www.w3.org/2000/svg">
<path fill-rule="evenodd" clip-rule="evenodd" d="M6 2C3.79086 2 2 3.79086 2 6V16V18C2 20.2091 3.79086 22 6 22H14C14.5523 22 15 21.5523 15 21C15 20.4477 14.5523 20 14 20H6C4.89543 20 4 19.1046 4 18V16.4142L6.14645 14.2678C6.34171 14.0725 6.65829 14.0725 6.85355 14.2678L7.23223 14.6464C8.20855 15.6228 9.79146 15.6228 10.7678 14.6464L13.2166 12.1977C13.5139 11.9003 13.9655 11.8208 14.3465 11.9986L14.3465 11.9986L14.3538 12.0019L20.5844 14.8489C20.894 14.9903 21.2542 14.9646 21.5406 14.7806C21.8269 14.5967 22 14.2797 22 13.9393V6C22 3.79086 20.2091 2 18 2H6ZM4.73223 12.8536L4 13.5858V6C4 4.89543 4.89543 4 6 4H18C19.1046 4 20 4.89543 20 6V12.383L15.1883 10.1844C14.046 9.6533 12.6933 9.89245 11.8023 10.7834L9.35355 13.2322C9.15829 13.4275 8.84171 13.4275 8.64645 13.2322L8.26777 12.8536C7.29146 11.8772 5.70854 11.8772 4.73223 12.8536ZM8.5 10C9.32843 10 10 9.32843 10 8.5C10 7.67157 9.32843 7 8.5 7C7.67157 7 7 7.67157 7 8.5C7 9.32843 7.67157 10 8.5 10ZM15.5963 19.2458C15.4374 19.1221 15.27 18.9605 14.9351 18.6372L14.935 18.6372L14.935 18.6371L14.9349 18.637C14.8286 18.5344 14.7754 18.4831 14.737 18.4357C14.421 18.045 14.421 17.455 14.737 17.0643C14.7754 17.0169 14.8286 16.9655 14.935 16.8628C15.27 16.5395 15.4374 16.3779 15.5963 16.2542C16.8874 15.2486 18.6126 15.2486 19.9037 16.2542C20.0626 16.3779 20.23 16.5395 20.5649 16.8628L20.565 16.8628L20.565 16.8628L20.565 16.8628C20.6714 16.9655 20.7246 17.0169 20.763 17.0643C21.079 17.455 21.079 18.045 20.763 18.4357C20.7246 18.4831 20.6714 18.5345 20.565 18.6372L20.5649 18.6372C20.23 18.9605 20.0626 19.1221 19.9037 19.2458C18.6126 20.2514 16.8874 20.2514 15.5963 19.2458ZM18.6835 17.75C18.6835 18.3187 18.2656 18.7798 17.75 18.7798C17.2344 18.7798 16.8165 18.3187 16.8165 17.75C16.8165 17.1813 17.2344 16.7202 17.75 16.7202C18.2656 16.7202 18.6835 17.1813 18.6835 17.75Z" fill="black"/>
</svg>
