<svg width="24" height="24" viewBox="0 0 24 24" fill="none" xmlns="http://www.w3.org/2000/svg">
<path fill-rule="evenodd" clip-rule="evenodd" d="M6 2C3.79086 2 2 3.79086 2 6V16V18C2 20.2091 3.79086 22 6 22H12.5C13.0523 22 13.5 21.5523 13.5 21C13.5 20.4477 13.0523 20 12.5 20H6C4.89543 20 4 19.1046 4 18V16.4142L6.14645 14.2678C6.34171 14.0725 6.65829 14.0725 6.85355 14.2678L7.23223 14.6464C8.20855 15.6228 9.79146 15.6228 10.7678 14.6464L13.2166 12.1977C13.5139 11.9003 13.9655 11.8208 14.3465 11.9986L16.5771 13.0395C17.0776 13.2731 17.6726 13.0567 17.9062 12.5562C18.1397 12.0557 17.9234 11.4607 17.4229 11.2271L15.1923 10.1862C14.0491 9.65274 12.6944 9.89142 11.8023 10.7834L9.35355 13.2322C9.15829 13.4275 8.84171 13.4275 8.64645 13.2322L8.26777 12.8536C7.29146 11.8772 5.70854 11.8772 4.73223 12.8536L4 13.5858V6C4 4.89543 4.89543 4 6 4H18C19.1046 4 20 4.89543 20 6V13C20 13.5523 20.4477 14 21 14C21.5523 14 22 13.5523 22 13V6C22 3.79086 20.2091 2 18 2H6ZM8.5 10C9.32843 10 10 9.32843 10 8.5C10 7.67157 9.32843 7 8.5 7C7.67157 7 7 7.67157 7 8.5C7 9.32843 7.67157 10 8.5 10ZM18.344 15.2311C18.2158 14.923 17.7794 14.923 17.6512 15.2311L17.0589 16.6552C17.0052 16.7842 16.8843 16.8727 16.745 16.8848L15.3432 17.0067C15.0215 17.0347 14.8831 17.429 15.1167 17.6519L16.1815 18.668C16.2781 18.7601 16.3184 18.8966 16.2874 19.0264L15.9268 20.5382C15.8494 20.8628 16.2025 21.1194 16.4873 20.9454L17.8021 20.1424C17.9221 20.0691 18.0731 20.0691 18.1932 20.1424L19.5079 20.9454C19.7927 21.1194 20.1458 20.8628 20.0684 20.5382L19.7079 19.0269C19.6769 18.8968 19.7174 18.7601 19.8143 18.6679L20.8828 17.6524C21.1171 17.4297 20.9788 17.0346 20.6567 17.0067L19.2503 16.8848C19.111 16.8727 18.99 16.7842 18.9363 16.6551L18.344 15.2311Z" fill="black"/>
</svg>
