<svg width="24" height="24" viewBox="0 0 24 24" fill="none" xmlns="http://www.w3.org/2000/svg">
<path d="M10.5 10.5786L12.7908 8.28909C13.1771 7.90306 13.8032 7.90372 14.1886 8.29058L15.7119 9.81945C16.0966 10.2056 16.096 10.8305 15.7104 11.2158L13.4232 13.5017M10.5 10.5786L2.2896 18.7842C1.90405 19.1695 1.90338 19.7944 2.28812 20.1805L3.81139 21.7094C4.19682 22.0963 4.82294 22.0969 5.2092 21.7109L13.4232 13.5017M10.5 10.5786L13.4232 13.5017M12.2628 3.4089L11.75 2M17.2336 3.626L17.8673 2.26704M20.3779 6.77036L21.7369 6.13667M20.5949 11.7409L22.0039 12.2537" stroke="black" stroke-width="2" stroke-linecap="round" stroke-linejoin="round"/>
</svg>
