<svg width="24" height="24" viewBox="0 0 24 24" fill="none" xmlns="http://www.w3.org/2000/svg">
<path d="M7.95922 12L5.52627 14.4329C5.19359 14.7656 4.94293 15.1712 4.79415 15.6175L3 21L8.38246 19.2058C8.8288 19.0571 9.23437 18.8064 9.56705 18.4737L12 16.0408M7.95922 12L12 16.0408M7.95922 12L14 5.95922M12 16.0408L20.1631 7.87766C21.279 6.76183 21.279 4.9527 20.1631 3.83687C19.0473 2.72104 17.2382 2.72104 16.1223 3.83687L14 5.95922M14 5.95922L13.1621 5.12132C11.9905 3.94975 10.091 3.94975 8.91946 5.12132L6.04078 8" stroke="black" stroke-width="2" stroke-linecap="round" stroke-linejoin="round"/>
</svg>
