<svg width="24" height="24" viewBox="0 0 24 24" fill="none" xmlns="http://www.w3.org/2000/svg">
<path d="M16.1824 15.1862C16.4054 15.1862 16.6284 15.2712 16.7986 15.4414L17.7448 16.3876C18.0851 16.7279 18.0851 17.2797 17.7448 17.62L14.62 20.7448C14.2796 21.0851 13.7279 21.0851 13.3876 20.7448L12.4414 19.7986C12.2712 19.6284 12.1861 19.4053 12.1861 19.1823M16.1824 15.1862C15.9594 15.1862 15.7363 15.2712 15.5662 15.4414L12.4414 18.5662C12.2712 18.7363 12.1861 18.9593 12.1861 19.1823M16.1824 15.1862L15.0942 10.3359C14.6997 8.57775 13.2637 7.24374 11.4812 6.97967L4.9988 6.01932C4.42039 5.93363 3.88267 6.13929 3.51098 6.51098M12.1861 19.1823L7.33596 18.0941C5.57776 17.6996 4.24375 16.2636 3.97968 14.4812L3.01932 7.99879C2.93363 7.42038 3.13929 6.88267 3.51098 6.51098M3.51098 6.51098L9.07741 12.0774M9.07741 12.0774C8.92661 12.2282 8.83333 12.4365 8.83333 12.6667C8.83333 13.1269 9.20643 13.5 9.66667 13.5C10.1269 13.5 10.5 13.1269 10.5 12.6667C10.5 12.2064 10.1269 11.8333 9.66667 11.8333C9.43655 11.8333 9.22821 11.9266 9.07741 12.0774ZM18.5 8V5.5M18.5 5.5V3M18.5 5.5H21M18.5 5.5H16" stroke="black" stroke-width="2" stroke-linecap="round" stroke-linejoin="round"/>
</svg>
