<svg width="24" height="24" viewBox="0 0 24 24" fill="none" xmlns="http://www.w3.org/2000/svg">
<path d="M15.9755 4.94444L8.09971 12.8203C7.88473 13.0352 7.73819 13.3091 7.67856 13.6072L7 17L10.3928 16.3214C10.6909 16.2618 10.9648 16.1153 11.1797 15.9003L19.0556 8.02447M15.9755 4.94444L17.4689 3.45106C18.0703 2.84965 19.0454 2.84965 19.6468 3.45106L20.5489 4.35318C21.1504 4.95459 21.1504 5.92967 20.5489 6.53109L19.0556 8.02447M15.9755 4.94444L19.0556 8.02447M21 12V18C21 19.6569 19.6569 21 18 21H6C4.34315 21 3 19.6569 3 18V6C3 4.34315 4.34315 3 6 3H12.1797" stroke="black" stroke-width="2" stroke-linecap="round" stroke-linejoin="round"/>
</svg>
