<svg width="24" height="24" viewBox="0 0 24 24" fill="none" xmlns="http://www.w3.org/2000/svg">
<path d="M18.8189 14.0234C19.0865 14.0234 19.3541 14.1255 19.5583 14.3297L20.6937 15.4651C21.1021 15.8735 21.1021 16.5356 20.6937 16.944L16.944 20.6937C16.5356 21.1021 15.8735 21.1021 15.4651 20.6937L14.3296 19.5583C14.1254 19.3541 14.0233 19.0864 14.0233 18.8188M18.8189 14.0234C18.5512 14.0234 18.2836 14.1255 18.0794 14.3297L14.3296 18.0794C14.1255 18.2836 14.0234 18.5512 14.0233 18.8188M18.8189 14.0234L17.513 8.20313C17.0397 6.0933 15.3164 4.49249 13.1775 4.17561L5.39856 3.02318C4.70446 2.92036 4.0592 3.16715 3.61318 3.61318M14.0233 18.8188L8.20316 17.5129C6.09331 17.0396 4.4925 15.3163 4.17562 13.1774L3.02319 5.39854C2.92036 4.70445 3.16715 4.0592 3.61318 3.61318M3.61318 3.61318L10.2929 10.2929M10.2929 10.2929C10.1119 10.4739 10 10.7239 10 11C10 11.5523 10.4477 12 11 12C11.5523 12 12 11.5523 12 11C12 10.4477 11.5523 10 11 10C10.7239 10 10.4739 10.1119 10.2929 10.2929Z" stroke="black" stroke-width="2" stroke-linecap="round" stroke-linejoin="round"/>
</svg>
