<svg width="24" height="24" viewBox="0 0 24 24" fill="none" xmlns="http://www.w3.org/2000/svg">
<path d="M15.1862 7.81762C15.1862 7.5946 15.2712 7.37159 15.4414 7.20144L16.3876 6.25524C16.7279 5.91492 17.2797 5.91492 17.62 6.25524L20.7448 9.38004C21.0851 9.72036 21.0851 10.2721 20.7448 10.6124L19.7986 11.5586C19.6284 11.7288 19.4053 11.8139 19.1823 11.8139M15.1862 7.81762C15.1862 8.04064 15.2712 8.26368 15.4414 8.43384L18.5662 11.5586C18.7363 11.7288 18.9593 11.8139 19.1823 11.8139M15.1862 7.81762L10.3359 8.90581C8.57775 9.30028 7.24374 10.7363 6.97967 12.5188L6.01932 19.0012C5.93363 19.5796 6.13929 20.1173 6.51098 20.489M19.1823 11.8139L18.0941 16.664C17.6996 18.4222 16.2636 19.7563 14.4812 20.0203L7.99879 20.9807C7.42038 21.0664 6.88267 20.8607 6.51098 20.489M6.51098 20.489L12.0774 14.9226M12.0774 14.9226C12.2282 15.0734 12.4365 15.1667 12.6667 15.1667C13.1269 15.1667 13.5 14.7936 13.5 14.3333C13.5 13.8731 13.1269 13.5 12.6667 13.5C12.2064 13.5 11.8333 13.8731 11.8333 14.3333C11.8333 14.5635 11.9266 14.7718 12.0774 14.9226ZM5.5 8V5.5M5.5 5.5V3M5.5 5.5H8M5.5 5.5H3" stroke="black" stroke-width="2" stroke-linecap="round" stroke-linejoin="round"/>
</svg>
