<svg width="24" height="24" viewBox="0 0 24 24" fill="none" xmlns="http://www.w3.org/2000/svg">
<path fill-rule="evenodd" clip-rule="evenodd" d="M19.6978 2.76738L21.2326 4.30215C22.2558 5.32533 22.2558 6.98423 21.2326 8.00741L19.6276 9.61244C19.1108 10.1292 18.273 10.1292 17.7563 9.61244L14.3876 6.24373C13.8708 5.72698 13.8708 4.88916 14.3876 4.37241L15.9926 2.76739C17.0158 1.74421 18.6747 1.7442 19.6978 2.76738ZM5.11176 16.3684L12.4774 9.00272L14.9973 11.5226L7.63162 18.8882C7.49662 19.0232 7.32468 19.1153 7.13747 19.1527L4.27476 19.7252L4.8473 16.8625C4.88474 16.6753 4.97676 16.5034 5.11176 16.3684ZM13.887 7.58387C13.1085 6.80538 11.8463 6.80538 11.0678 7.58387L3.69754 14.9542C3.28334 15.3684 3.00101 15.8959 2.88614 16.4703L2.01942 20.8039C1.95385 21.1317 2.05647 21.4707 2.29289 21.7071C2.52932 21.9435 2.86826 22.0462 3.19612 21.9806L7.5297 21.1139C8.1041 20.999 8.63163 20.7167 9.04583 20.3025L16.4161 12.9322C17.1946 12.1537 17.1946 10.8915 16.4161 10.113L13.887 7.58387Z" fill="black"/>
</svg>
