<svg width="24" height="24" viewBox="0 0 24 24" fill="none" xmlns="http://www.w3.org/2000/svg">
<path d="M14.0234 5.18114C14.0234 4.91352 14.1255 4.64591 14.3297 4.44173L15.4651 3.30629C15.8735 2.8979 16.5356 2.8979 16.944 3.30629L20.6937 7.05605C21.1021 7.46443 21.1021 8.12655 20.6937 8.53493L19.5583 9.67037C19.3541 9.87458 19.0864 9.97668 18.8188 9.97665M14.0234 5.18114C14.0234 5.44877 14.1255 5.71641 14.3297 5.92061L18.0794 9.67037C18.2836 9.87453 18.5512 9.97663 18.8188 9.97665M14.0234 5.18114L8.20313 6.48697C6.0933 6.96034 4.49249 8.68358 4.17561 10.8225L3.02318 18.6014C2.92036 19.2955 3.16715 19.9408 3.61318 20.3868M18.8188 9.97665L17.5129 15.7968C17.0396 17.9067 15.3163 19.5075 13.1774 19.8244L5.39854 20.9768C4.70445 21.0796 4.0592 20.8329 3.61318 20.3868M3.61318 20.3868L10.2929 13.7071M10.2929 13.7071C10.4739 13.8881 10.7239 14 11 14C11.5523 14 12 13.5523 12 13C12 12.4477 11.5523 12 11 12C10.4477 12 10 12.4477 10 13C10 13.2761 10.1119 13.5261 10.2929 13.7071Z" stroke="black" stroke-width="2" stroke-linecap="round" stroke-linejoin="round"/>
</svg>
