<svg width="24" height="24" viewBox="0 0 24 24" fill="none" xmlns="http://www.w3.org/2000/svg">
<path d="M4.36442 14.1207C4.03931 14.4458 3.82391 14.8643 3.74832 15.3179L3.01542 19.7153C2.891 20.4618 3.5382 21.109 4.28473 20.9846L8.68215 20.2517C9.13567 20.1761 9.55424 19.9607 9.87935 19.6356M4.36442 14.1207L13.5 4.98508M4.36442 14.1207L9.87935 19.6356M9.87935 19.6356L19.0149 10.5M13.5 4.98508L14.3429 4.14218C15.8658 2.61928 18.3349 2.61927 19.8578 4.14218C21.3807 5.66508 21.3807 8.1342 19.8578 9.6571L19.0149 10.5M13.5 4.98508L19.0149 10.5" stroke="black" stroke-width="2" stroke-linecap="round" stroke-linejoin="round"/>
</svg>
