<svg width="24" height="24" viewBox="0 0 24 24" fill="none" xmlns="http://www.w3.org/2000/svg">
<path d="M3 8.85106V5.09998C3 3.7798 4.14713 2.78729 5.38174 3.03927L9 3.77776M3 8.85106V15.1489M3 8.85106L9 9.20094M3 15.1489V18.9C3 20.2202 4.14713 21.2127 5.38174 20.9607L9 20.2222M3 15.1489L9 14.7991M21 9.9007V14.0993M21 9.9007V7.95735C21 6.95244 20.3215 6.08846 19.3817 5.89665L15 5.00234M21 9.9007L15 9.55082M21 14.0993V16.0426C21 17.0476 20.3215 17.9115 19.3817 18.1034L15 18.9977M21 14.0993L15 14.4492M9 9.20094L15 9.55082M9 9.20094V14.7991M9 9.20094V3.77776M15 9.55082V5.00234M15 9.55082V14.4492M15 14.4492L9 14.7991M15 14.4492V18.9977M9 14.7991V20.2222M15 5.00234L9 3.77776M15 18.9977L9 20.2222" stroke="black" stroke-width="2" stroke-linejoin="round"/>
</svg>
