<svg width="24" height="24" viewBox="0 0 24 24" fill="none" xmlns="http://www.w3.org/2000/svg">
<path d="M21 8.85106V5.09998C21 3.7798 19.8529 2.78729 18.6183 3.03927L15 3.77776M21 8.85106V15.1489M21 8.85106L15 9.20094M21 15.1489V18.9C21 20.2202 19.8529 21.2127 18.6183 20.9607L15 20.2222M21 15.1489L15 14.7991M3 9.9007V14.0993M3 9.9007V7.95735C3 6.95244 3.67848 6.08846 4.61826 5.89665L9 5.00234M3 9.9007L9 9.55082M3 14.0993V16.0426C3 17.0476 3.67848 17.9115 4.61826 18.1033L9 18.9977M3 14.0993L9 14.4492M15 9.20094L9 9.55082M15 9.20094V14.7991M15 9.20094V3.77776M9 9.55082V5.00234M9 9.55082V14.4492M9 14.4492L15 14.7991M9 14.4492V18.9977M15 14.7991V20.2222M9 5.00234L15 3.77776M9 18.9977L15 20.2222" stroke="black" stroke-width="2" stroke-linejoin="round"/>
</svg>
