<svg width="24" height="24" viewBox="0 0 24 24" fill="none" xmlns="http://www.w3.org/2000/svg">
<path d="M14.8063 14.8063L12.7016 12.7016M14.8063 14.8063L12.7016 16.911M14.8063 14.8063L16.911 12.7016M12.7016 16.911L11.2984 15.5078M12.7016 16.911L10.5969 19.0157M10.5969 19.0157L9.19373 20.4188C8.4188 21.1937 7.16239 21.1937 6.38746 20.4188L3.5812 17.6125C2.80627 16.8376 2.80627 15.5812 3.5812 14.8063L14.8063 3.5812C15.5812 2.80627 16.8376 2.80627 17.6125 3.5812L20.4188 6.38746C21.1937 7.16239 21.1937 8.4188 20.4188 9.19373L19.0157 10.5969M10.5969 19.0157L8.49216 16.911M16.911 12.7016L15.5078 11.2984M16.911 12.7016L19.0157 10.5969M19.0157 10.5969L16.911 8.49216" stroke="black" stroke-width="2" stroke-linecap="round"/>
</svg>
