<svg width="24" height="24" viewBox="0 0 24 24" fill="none" xmlns="http://www.w3.org/2000/svg">
<path d="M9.19373 9.19373L11.2984 11.2984M9.19373 9.19373L11.2984 7.08903M9.19373 9.19373L7.08903 11.2984M11.2984 7.08903L12.7016 8.49216M11.2984 7.08903L13.4031 4.98433M13.4031 4.98433L14.8063 3.5812C15.5812 2.80627 16.8376 2.80627 17.6125 3.5812L20.4188 6.38746C21.1937 7.16239 21.1937 8.4188 20.4188 9.19373L9.19373 20.4188C8.4188 21.1937 7.16239 21.1937 6.38746 20.4188L3.5812 17.6125C2.80627 16.8376 2.80627 15.5812 3.5812 14.8063L4.98433 13.4031M13.4031 4.98433L15.5078 7.08903M7.08903 11.2984L8.49217 12.7016M7.08903 11.2984L4.98433 13.4031M4.98433 13.4031L7.08903 15.5078" stroke="black" stroke-width="2" stroke-linecap="round"/>
</svg>
