<svg width="24" height="24" viewBox="0 0 24 24" fill="none" xmlns="http://www.w3.org/2000/svg">
<path d="M12 3H6C4.34315 3 3 4.34315 3 6V18C3 19.6569 4.34315 21 6 21H18C19.6569 21 21 19.6569 21 18V12M21 8V4C21 3.72386 20.8881 3.47386 20.7071 3.29289M16 3H20C20.2761 3 20.5261 3.11193 20.7071 3.29289M9 10V14C9 14.2761 9.11193 14.5261 9.29289 14.7071M14 15H10C9.72386 15 9.47386 14.8881 9.29289 14.7071M9.29289 14.7071L20.7071 3.29289" stroke="black" stroke-width="2" stroke-linecap="round" stroke-linejoin="round"/>
</svg>
