<svg width="24" height="24" viewBox="0 0 24 24" fill="none" xmlns="http://www.w3.org/2000/svg">
<path d="M14 21H18C19.6569 21 21 19.6569 21 18V6C21 4.34315 19.6569 3 18 3H6C4.34315 3 3 4.34315 3 6V10M16 13V9C16 8.72386 15.8881 8.47386 15.7071 8.29289M11 8H15C15.2761 8 15.5261 8.11193 15.7071 8.29289M15.7071 8.29289L9.70711 14.2929M9.70711 14.2929C9.88807 14.4739 10 14.7239 10 15V20C10 20.5523 9.55228 21 9 21H4C3.72386 21 3.47386 20.8881 3.29289 20.7071C3.11193 20.5261 3 20.2761 3 20V15C3 14.4477 3.44772 14 4 14H9C9.27614 14 9.52614 14.1119 9.70711 14.2929Z" stroke="black" stroke-width="2" stroke-linecap="round" stroke-linejoin="round"/>
</svg>
