<svg width="24" height="24" viewBox="0 0 24 24" fill="none" xmlns="http://www.w3.org/2000/svg">
<path d="M15 3H6C4.34315 3 3 4.34315 3 6V18C3 19.6569 4.34315 21 6 21H18C19.6569 21 21 19.6569 21 18V9M15 3H18C19.6569 3 21 4.34315 21 6V9M15 3C14.4477 3 14 3.44772 14 4V9C14 9.27614 14.1119 9.52614 14.2929 9.70711M21 9C21 9.55228 20.5523 10 20 10H15C14.7239 10 14.4739 9.88807 14.2929 9.70711M8 11V15C8 15.2761 8.11193 15.5261 8.29289 15.7071M13 16H9C8.72386 16 8.47386 15.8881 8.29289 15.7071M8.29289 15.7071L14.2929 9.70711" stroke="black" stroke-width="2" stroke-linecap="round" stroke-linejoin="round"/>
</svg>
