<svg width="24" height="24" viewBox="0 0 24 24" fill="none" xmlns="http://www.w3.org/2000/svg">
<path d="M8.99998 21H18C19.6568 21 21 19.6569 21 18V6C21 4.34315 19.6568 3 18 3H5.99997C4.34312 3 2.99997 4.34315 2.99997 6L2.99988 15M8.99998 21H5.99988C4.34302 21 2.99988 19.6569 2.99988 18V15M8.99998 21C9.55226 21 9.99998 20.5523 9.99998 20V15C9.99998 14.7239 9.88805 14.4739 9.70708 14.2929M2.99988 15C2.99988 14.4477 3.44769 14 3.99997 14H8.99998C9.27612 14 9.52612 14.1119 9.70708 14.2929M16 13V9C16 8.72386 15.888 8.47386 15.7071 8.29289M11 8H15C15.2761 8 15.5261 8.11193 15.7071 8.29289M15.7071 8.29289L9.70708 14.2929" stroke="black" stroke-width="2" stroke-linecap="round" stroke-linejoin="round"/>
</svg>
