<svg width="24" height="24" viewBox="0 0 24 24" fill="none" xmlns="http://www.w3.org/2000/svg">
<path d="M14 8C14 6.89543 13.1046 6 12 6C10.8954 6 10 6.89543 10 8M14 8C14 8.08402 13.9948 8.16683 13.9848 8.24813M14 8H20M10 8C10 8.08402 10.0052 8.16683 10.0152 8.24813M10 8H4M13.9848 8.24813C13.8626 9.23561 13.0205 10 12 10C10.9795 10 10.1374 9.23561 10.0152 8.24813M13.9848 8.24813C16.8083 8.96889 19.0311 11.1917 19.7519 14.0152M10.0152 8.24813C7.1917 8.96889 4.96889 11.1917 4.24813 14.0152M4.24813 14.0152C4.16683 14.0052 4.08402 14 4 14C2.89543 14 2 14.8954 2 16C2 17.1046 2.89543 18 4 18C5.10457 18 6 17.1046 6 16C6 14.9795 5.23561 14.1374 4.24813 14.0152ZM19.7519 14.0152C18.7644 14.1374 18 14.9795 18 16C18 17.1046 18.8954 18 20 18C21.1046 18 22 17.1046 22 16C22 14.8954 21.1046 14 20 14C19.916 14 19.8332 14.0052 19.7519 14.0152ZM20 8L21 7L22 8L21 9L20 8ZM4 8L3 7L2 8L3 9L4 8Z" stroke="black" stroke-width="2" stroke-linecap="round" stroke-linejoin="round"/>
</svg>
