<svg width="24" height="24" viewBox="0 0 24 24" fill="none" xmlns="http://www.w3.org/2000/svg">
<path d="M17 7C18.1046 7 19 6.10457 19 5C19 3.89543 18.1046 3 17 3C15.8954 3 15 3.89543 15 5M17 7C15.8954 7 15 6.10457 15 5M17 7V17M15 5H9M9 5C9 6.10457 8.10457 7 7 7M9 5C9 3.89543 8.10457 3 7 3C5.89543 3 5 3.89543 5 5C5 6.10457 5.89543 7 7 7M7 7V17M9 19C9 20.1046 8.10457 21 7 21C5.89543 21 5 20.1046 5 19C5 17.8954 5.89543 17 7 17M9 19C9 17.8954 8.10457 17 7 17M9 19H15M15 19C15 20.1046 15.8954 21 17 21C18.1046 21 19 20.1046 19 19C19 17.8954 18.1046 17 17 17M15 19C15 17.8954 15.8954 17 17 17" stroke="black" stroke-width="2"/>
</svg>
