<svg width="24" height="24" viewBox="0 0 24 24" fill="none" xmlns="http://www.w3.org/2000/svg">
<path d="M13.9848 4.24813C13.9948 4.16683 14 4.08402 14 4C14 2.89543 13.1046 2 12 2C10.8954 2 10 2.89543 10 4C10 4.08402 10.0052 4.16683 10.0152 4.24813M13.9848 4.24813C13.8626 5.23561 13.0205 6 12 6C10.9795 6 10.1374 5.23561 10.0152 4.24813M13.9848 4.24813C16.8083 4.96889 19.0311 7.1917 19.7519 10.0152M10.0152 4.24813C7.1917 4.96889 4.96889 7.1917 4.24813 10.0152M4.24813 10.0152C4.16683 10.0052 4.08402 10 4 10C2.89543 10 2 10.8954 2 12C2 13.1046 2.89543 14 4 14C4.08402 14 4.16683 13.9948 4.24813 13.9848M4.24813 10.0152C5.23561 10.1374 6 10.9795 6 12C6 13.0205 5.23561 13.8626 4.24813 13.9848M4.24813 13.9848C4.96889 16.8083 7.1917 19.0311 10.0152 19.7519M10.0152 19.7519C10.1374 18.7644 10.9795 18 12 18C13.0205 18 13.8626 18.7644 13.9848 19.7519M10.0152 19.7519C10.0052 19.8332 10 19.916 10 20C10 21.1046 10.8954 22 12 22C13.1046 22 14 21.1046 14 20C14 19.916 13.9948 19.8332 13.9848 19.7519M13.9848 19.7519C16.8083 19.0311 19.0311 16.8083 19.7519 13.9848M19.7519 13.9848C19.8332 13.9948 19.916 14 20 14C21.1046 14 22 13.1046 22 12C22 10.8954 21.1046 10 20 10C19.916 10 19.8332 10.0052 19.7519 10.0152M19.7519 13.9848C18.7644 13.8626 18 13.0205 18 12C18 10.9795 18.7644 10.1374 19.7519 10.0152" stroke="black" stroke-width="2"/>
</svg>
