<svg width="24" height="24" viewBox="0 0 24 24" fill="none" xmlns="http://www.w3.org/2000/svg">
<path d="M7 17C7 18.1046 6.10457 19 5 19C3.89543 19 3 18.1046 3 17C3 15.8954 3.89543 15 5 15C5.39521 15 5.76366 15.1146 6.07389 15.3125M7 17H17M7 17C7 16.2906 6.63071 15.6675 6.07389 15.3125M17 17C17 18.1046 17.8954 19 19 19C20.1046 19 21 18.1046 21 17C21 15.8954 20.1046 15 19 15C18.6048 15 18.2363 15.1146 17.9261 15.3125M17 17C17 16.2906 17.3693 15.6675 17.9261 15.3125M17.9261 15.3125L13.0739 7.68754M6.07389 15.3125L10.9261 7.68754M10.9261 7.68754C11.2363 7.88537 11.6048 8 12 8C12.3952 8 12.7637 7.88537 13.0739 7.68754M10.9261 7.68754C10.3693 7.33246 10 6.70935 10 6C10 4.89543 10.8954 4 12 4C13.1046 4 14 4.89543 14 6C14 6.70935 13.6307 7.33246 13.0739 7.68754" stroke="black" stroke-width="2"/>
</svg>
