<svg width="24" height="24" viewBox="0 0 24 24" fill="none" xmlns="http://www.w3.org/2000/svg">
<path d="M19 7C20.1046 7 21 6.10457 21 5C21 3.89543 20.1046 3 19 3C17.8954 3 17 3.89543 17 5M19 7C17.8954 7 17 6.10457 17 5M19 7V17M17 5H7M7 5C7 6.10457 6.10457 7 5 7M7 5C7 3.89543 6.10457 3 5 3C3.89543 3 3 3.89543 3 5C3 6.10457 3.89543 7 5 7M5 7V17M7 19C7 20.1046 6.10457 21 5 21C3.89543 21 3 20.1046 3 19C3 17.8954 3.89543 17 5 17M7 19C7 17.8954 6.10457 17 5 17M7 19H17M17 19C17 20.1046 17.8954 21 19 21C20.1046 21 21 20.1046 21 19C21 17.8954 20.1046 17 19 17M17 19C17 17.8954 17.8954 17 19 17" stroke="black" stroke-width="2"/>
</svg>
