<svg width="24" height="24" viewBox="0 0 24 24" fill="none" xmlns="http://www.w3.org/2000/svg">
<path d="M7 7C7 5.89543 6.10457 5 5 5C3.89543 5 3 5.89543 3 7C3 8.10457 3.89543 9 5 9M7 7C7 8.10457 6.10457 9 5 9M7 7H17M5 9V15M5 15C6.10457 15 7 15.8954 7 17M5 15C3.89543 15 3 15.8954 3 17C3 18.1046 3.89543 19 5 19C6.10457 19 7 18.1046 7 17M7 17H17M19 15C20.1046 15 21 15.8954 21 17C21 18.1046 20.1046 19 19 19C17.8954 19 17 18.1046 17 17M19 15C17.8954 15 17 15.8954 17 17M19 15V9M19 9C20.1046 9 21 8.10457 21 7C21 5.89543 20.1046 5 19 5C17.8954 5 17 5.89543 17 7M19 9C17.8954 9 17 8.10457 17 7" stroke="black" stroke-width="2"/>
</svg>
