<svg width="24" height="24" viewBox="0 0 24 24" fill="none" xmlns="http://www.w3.org/2000/svg">
<path d="M5 7C3.89543 7 3 6.10457 3 5C3 3.89543 3.89543 3 5 3C6.10457 3 7 3.89543 7 5C7 5.55228 6.77614 6.05228 6.41421 6.41421M5 7V17M5 7C5.55228 7 6.05228 6.77614 6.41421 6.41421M7 19C7 20.1046 6.10457 21 5 21C3.89543 21 3 20.1046 3 19C3 17.8954 3.89543 17 5 17M7 19C7 17.8954 6.10457 17 5 17M7 19H17M17 19C17 20.1046 17.8954 21 19 21C20.1046 21 21 20.1046 21 19C21 17.8954 20.1046 17 19 17C18.4477 17 17.9477 17.2239 17.5858 17.5858M17 19C17 18.4477 17.2239 17.9477 17.5858 17.5858M6.41421 6.41421L17.5858 17.5858" stroke="black" stroke-width="2" stroke-linejoin="round"/>
</svg>
