<svg width="72" height="72" viewBox="0 0 72 72" fill="none" xmlns="http://www.w3.org/2000/svg">
<path fill-rule="evenodd" clip-rule="evenodd" d="M67.3049 15.0928C68.0766 15.0641 68.7971 15.6007 68.7971 16.4207C68.7971 17.0794 68.1385 17.6477 67.6862 17.9914C65.175 19.9449 62.287 21.4522 59.3582 22.6581C50.8057 26.1986 41.3027 27.4203 32.158 28.596C31.7292 28.6511 31.3012 28.7061 30.8742 28.7612C25.279 29.4983 19.6732 30.0364 14.0464 30.3952C11.9617 30.5278 9.87106 29.4169 8.12256 28.3693C6.31979 27.3021 4.58787 25.8822 3.59906 24.0056C2.77455 22.4305 2.66904 20.0519 4.12512 18.8023C5.22547 17.8542 6.92574 17.9039 8.28384 18.0004C9.37906 18.0851 10.4587 18.2793 11.5393 18.4736C12.0366 18.5631 12.5341 18.6526 13.0334 18.7315C14.1651 18.9067 15.3003 19.106 16.4347 19.3052C17.8373 19.5515 19.2387 19.7976 20.6304 19.9976C35.3495 22.1214 51.1071 21.1115 65.068 15.8012C65.2412 15.7354 65.4148 15.6623 65.5895 15.5888C66.1432 15.3557 66.7079 15.118 67.3049 15.0928ZM45.2949 38.8349C45.6627 39.6504 45.9099 40.5352 46.0621 41.4441C46.4676 43.8121 46.2294 46.3776 45.8179 48.6235C45.524 50.262 45.0733 51.8703 44.5533 53.447C43.1665 57.6932 41.1286 61.8052 37.9466 65.0082C37.4191 65.5448 36.7573 66.0377 35.9554 65.7152C35.7625 65.6368 35.5937 65.5147 35.4731 65.3444C35.2432 64.9914 35.3796 64.5377 35.4954 64.1525C35.5102 64.1034 35.5246 64.0554 35.5379 64.0089C35.6947 63.4828 35.8409 62.9477 35.9796 62.4111C37.3633 57.2078 38.6551 51.6005 38.3958 46.1817C38.337 44.9351 38.1848 43.6705 37.6437 42.555C37.098 41.4336 36.0911 40.4825 34.8626 40.2865C34.1617 40.1659 33.4322 40.3091 32.7931 40.6196C32.4916 40.7719 32.2052 40.9588 31.964 41.1939C31.5661 41.5677 31.2887 42.0697 31.0988 42.5852C30.4853 44.2025 30.7009 45.8229 30.9767 47.4795C31.1953 48.7773 30.9873 50.2228 29.8055 50.9931C28.8936 51.5809 27.6832 51.6246 26.6703 51.2312C25.6498 50.8393 24.8163 50.048 24.2465 49.1195C22.4844 46.2842 22.4467 42.1028 23.4235 38.9992C23.6285 38.3616 23.8682 37.7346 24.1741 37.1437C25.0605 35.3922 26.4412 33.9301 28.1249 32.9187C31.8344 30.6637 36.3669 30.6516 40.1187 32.8388C42.5289 34.2406 44.1433 36.3403 45.2949 38.8349Z" fill="#009490"/>
<path fill-rule="evenodd" clip-rule="evenodd" d="M28.7412 11.6308C28.7412 14.668 31.2027 17.125 34.2339 17.125C37.2652 17.125 39.7266 14.668 39.7266 11.6308C39.7266 11.1786 39.6166 10.7234 39.4297 10.3134C38.9639 9.31702 38.4288 8.83016 38.4816 7.63334C38.5509 6.02351 36.4829 5.99939 35.3674 5.99939C34.154 5.99939 32.8728 6.16821 31.7709 6.71688C30.8952 7.16003 30.143 7.83683 29.6109 8.65832C29.0638 9.50243 28.7623 10.4988 28.7412 11.5072V11.6308Z" fill="#EC1651"/>
</svg>
