<svg width="72" height="72" viewBox="0 0 72 72" fill="none" xmlns="http://www.w3.org/2000/svg">
<path fill-rule="evenodd" clip-rule="evenodd" d="M68.7606 35.619C68.7606 53.0862 54.0312 67.2348 35.8872 67.2348C17.7259 67.2348 3 53.0862 3 35.619C3 18.1584 17.7259 4 35.8872 4C54.0312 4 68.7606 18.1584 68.7606 35.619Z" fill="#FEFEFE"/>
<path fill-rule="evenodd" clip-rule="evenodd" d="M35.8875 65.641C53.1916 65.641 67.2119 52.1595 67.2119 35.5203C67.2119 18.8713 53.1916 5.38318 35.8875 5.38318C18.5764 5.38318 4.55273 18.8713 4.55273 35.5203C4.55273 52.1661 18.5764 65.641 35.8875 65.641Z" fill="#0083C9"/>
<mask id="mask0_527_1754" style="mask-type:luminance" maskUnits="userSpaceOnUse" x="4" y="5" width="64" height="61">
<path fill-rule="evenodd" clip-rule="evenodd" d="M35.8805 5.37659C53.1984 5.37659 67.2015 18.8614 67.2015 35.5104C67.2015 52.1595 53.1984 65.6443 35.8805 65.6443C18.5626 65.6443 4.55957 52.1595 4.55957 35.5104" fill="white"/>
</mask>
<g mask="url(#mask0_527_1754)">
<path fill-rule="evenodd" clip-rule="evenodd" d="M36.0183 50.05C49.7907 50.05 61.5976 53.7564 66.6404 58.9972C68.3444 55.2449 69.2703 51.1212 69.2703 46.7741C69.2703 29.4942 54.3723 15.4968 36.0183 15.4968C17.6746 15.4968 2.75244 29.5107 2.75244 46.7906C2.75244 51.1212 3.68529 55.2449 5.39953 58.9972C10.4321 53.7564 22.2459 50.05 36.0183 50.05Z" fill="#0083C9"/>
<path fill-rule="evenodd" clip-rule="evenodd" d="M36.0078 50.0959C49.7389 50.0959 61.5149 53.7563 66.5577 58.9412C68.2548 55.2381 69.1842 51.1441 69.1842 46.8496C69.1842 29.7011 54.3171 15.7661 36.0078 15.7661C17.7089 15.7661 2.83496 29.7011 2.83496 46.8496C2.83496 51.1506 3.76781 55.2381 5.46828 58.9412C10.4905 53.7563 22.2664 50.0959 36.0078 50.0959Z" fill="#0084CB"/>
<path fill-rule="evenodd" clip-rule="evenodd" d="M36.0077 50.1192C49.701 50.1192 61.439 53.7566 66.4716 58.9021C68.1617 55.2286 69.0945 51.1772 69.0945 46.8959C69.0945 29.8887 54.2585 16.026 36.0077 16.026C17.7501 16.026 2.9209 29.8985 2.9209 46.9123C2.9209 51.1838 3.8503 55.2286 5.537 58.9021C10.5558 53.7566 22.3076 50.1192 36.0077 50.1192Z" fill="#0086CC"/>
<path fill-rule="evenodd" clip-rule="evenodd" d="M36.0042 50.1455C49.6699 50.1455 61.3735 53.7566 66.3854 58.866C68.0756 55.222 69.005 51.2002 69.005 46.9616C69.005 30.1056 54.2102 16.3053 36.0042 16.3053C17.7913 16.3053 3 30.1056 3 46.9813C3 51.2002 3.91908 55.222 5.60578 58.866C10.6039 53.7566 22.342 50.1455 36.0042 50.1455Z" fill="#0088CD"/>
<path fill-rule="evenodd" clip-rule="evenodd" d="M35.9938 50.1848C49.6285 50.1848 61.3115 53.7564 66.3096 58.8329C67.9963 55.2153 68.9189 51.2198 68.9189 47.014C68.9189 30.2993 54.1654 16.5713 35.9938 16.5713C17.8291 16.5713 3.0791 30.2993 3.0791 47.0403C3.0791 51.2198 4.01195 55.2153 5.68144 58.8329C10.6865 53.7564 22.3729 50.1848 35.9938 50.1848Z" fill="#0089CE"/>
<path fill-rule="evenodd" clip-rule="evenodd" d="M35.9942 50.2175C49.5876 50.2175 61.2293 53.7694 66.2239 58.7868C67.9106 55.2086 68.8228 51.2328 68.8228 47.0993C68.8228 30.4831 54.1107 16.834 35.9942 16.834C17.8742 16.834 3.16553 30.4831 3.16553 47.0993C3.16553 51.2328 4.08116 55.2086 5.76098 58.7868C10.7419 53.7694 22.3973 50.2175 35.9942 50.2175Z" fill="#008BCF"/>
<path fill-rule="evenodd" clip-rule="evenodd" d="M35.9873 50.2539C49.5497 50.2539 61.157 53.7697 66.1448 58.7575C67.8212 55.2023 68.7333 51.2659 68.7333 47.1489C68.7333 30.6937 54.0694 17.0939 35.9873 17.0939C17.919 17.0939 3.23438 30.6937 3.23438 47.1554C3.23438 51.2659 4.16722 55.2023 5.83671 58.7575C10.797 53.7697 22.4249 50.2539 35.9873 50.2539Z" fill="#008DD1"/>
<path fill-rule="evenodd" clip-rule="evenodd" d="M35.9871 50.2802C49.5014 50.2802 61.1052 53.7762 66.0586 58.7082C67.7246 55.1957 68.6437 51.3021 68.6437 47.2145C68.6437 30.8875 54.0176 17.36 35.9871 17.36C17.967 17.36 3.32715 30.8941 3.32715 47.2244C3.32715 51.302 4.23934 55.2023 5.90539 58.7082C10.8657 53.7762 22.4626 50.2802 35.9871 50.2802Z" fill="#008FD2"/>
<path fill-rule="evenodd" clip-rule="evenodd" d="M35.9836 50.3164C49.4703 50.3164 61.0328 53.7763 65.9862 58.6754C67.6454 55.1794 68.5507 51.312 68.5507 47.2672C68.5507 31.0946 53.9625 17.6262 35.9836 17.6262C18.0117 17.6262 3.40283 31.0946 3.40283 47.2738C3.40283 51.3284 4.32535 55.1794 5.98796 58.6754C10.9276 53.7763 22.4866 50.3164 35.9836 50.3164Z" fill="#0091D3"/>
<path fill-rule="evenodd" clip-rule="evenodd" d="M35.9703 50.349C49.4157 50.349 60.9747 53.7761 65.8971 58.6423C67.5528 55.166 68.4788 51.3413 68.4788 47.3327C68.4788 31.2784 53.9044 17.9119 35.9703 17.9119C18.0431 17.9119 3.48584 31.285 3.48584 47.3327C3.48584 51.3413 4.40492 55.166 6.06064 58.6423C10.9934 53.7761 22.5318 50.349 35.9703 50.349Z" fill="#0093D4"/>
<path fill-rule="evenodd" clip-rule="evenodd" d="M35.9697 50.3916C49.3806 50.3916 60.8949 53.7759 65.8105 58.5995C67.4765 55.156 68.3715 51.3642 68.3715 47.3851C68.3715 31.482 53.859 18.1746 35.9697 18.1746C18.0872 18.1746 3.57129 31.482 3.57129 47.3917C3.57129 51.3675 4.46971 55.156 6.13232 58.5995C11.0513 53.7759 22.5621 50.3916 35.9697 50.3916Z" fill="#0094D6"/>
<path fill-rule="evenodd" clip-rule="evenodd" d="M35.9563 50.4181C49.3535 50.4181 60.8196 53.7827 65.7282 58.557C67.377 55.1562 68.2927 51.3973 68.2927 47.4445C68.2927 31.6695 53.8077 18.4442 35.9563 18.4442C18.1427 18.4442 3.65771 31.6826 3.65771 47.4445C3.65771 51.3973 4.55614 55.1562 6.2153 58.557C11.1136 53.7827 22.5866 50.4181 35.9563 50.4181Z" fill="#0096D7"/>
<path fill-rule="evenodd" clip-rule="evenodd" d="M35.9562 50.4542C49.3156 50.4542 60.7645 53.7827 65.6387 58.5339C67.2875 55.143 68.1997 51.4038 68.1997 47.497C68.1997 31.8698 53.7629 18.707 35.9562 18.707C18.1736 18.707 3.7334 31.8863 3.7334 47.52C3.7334 51.4104 4.63182 55.1496 6.27721 58.5339C11.1652 53.7827 22.6141 50.4542 35.9562 50.4542Z" fill="#0098D8"/>
<path fill-rule="evenodd" clip-rule="evenodd" d="M35.9566 50.474C49.2712 50.474 60.6788 53.7893 65.5702 58.4847C67.1984 55.1431 68.1071 51.4564 68.1071 47.5595C68.1071 32.0802 53.7151 18.97 35.9566 18.97C18.2187 18.97 3.81982 32.0802 3.81982 47.5694C3.81982 51.4564 4.71481 55.1431 6.35331 58.4847C11.2275 53.7893 22.6454 50.474 35.9566 50.474Z" fill="#009AD9"/>
<path fill-rule="evenodd" clip-rule="evenodd" d="M35.9561 50.5233C49.2259 50.5233 60.6163 53.7894 65.4905 58.4552C67.1118 55.1267 68.0102 51.4696 68.0102 47.6187C68.0102 32.2807 53.6526 19.2296 35.9561 19.2296C18.2629 19.2296 3.89502 32.2807 3.89502 47.6187C3.89502 51.4696 4.77968 55.1267 6.42162 58.4552C11.289 53.7894 22.6759 50.5233 35.9561 50.5233Z" fill="#009CDB"/>
<path fill-rule="evenodd" clip-rule="evenodd" d="M35.9461 50.5595C49.1884 50.5595 60.5409 53.7894 65.3911 58.4092C67.033 55.1267 67.9245 51.4927 67.9245 47.6812C67.9245 32.4779 53.5979 19.5089 35.9461 19.5089C18.3184 19.5089 3.97803 32.4779 3.97803 47.6877C3.97803 51.4927 4.87989 55.1267 6.50463 58.4092C11.3479 53.7894 22.7073 50.5595 35.9461 50.5595Z" fill="#009EDC"/>
<path fill-rule="evenodd" clip-rule="evenodd" d="M35.9461 50.589C49.1608 50.589 60.4789 53.7894 65.3118 58.3665C66.9469 55.1135 67.8453 51.5058 67.8453 47.737C67.8453 32.6717 53.5497 19.7717 35.9461 19.7717C18.3493 19.7717 4.05713 32.6783 4.05713 47.737C4.05713 51.5058 4.94867 55.1201 6.58029 58.3665C11.4166 53.7894 22.7519 50.589 35.9461 50.589Z" fill="#00A0DD"/>
<path fill-rule="evenodd" clip-rule="evenodd" d="M35.9425 50.6284C49.1057 50.6284 60.4169 53.809 65.2395 58.3335C66.8573 55.1135 67.7557 51.5386 67.7557 47.8092C67.7557 32.8688 53.5083 20.0345 35.9425 20.0345C18.394 20.0345 4.13623 32.8688 4.13623 47.8092C4.13623 51.5386 5.03466 55.1135 6.64907 58.3335C11.4854 53.809 22.7863 50.6284 35.9425 50.6284Z" fill="#00A2DE"/>
<path fill-rule="evenodd" clip-rule="evenodd" d="M35.9287 50.6577C49.0712 50.6577 60.3342 53.8088 65.1533 58.307C66.7712 55.0935 67.6593 51.5613 67.6593 47.8517C67.6593 33.069 53.4497 20.3103 35.9287 20.3103C18.4215 20.3103 4.21533 33.069 4.21533 47.8615C4.21533 51.5613 5.11376 55.0935 6.72473 58.307C11.537 53.8088 22.8069 50.6577 35.9287 50.6577Z" fill="#00A4E0"/>
<path fill-rule="evenodd" clip-rule="evenodd" d="M35.9286 50.6908C49.0298 50.6908 60.2756 53.809 65.0672 58.2645C66.6919 55.0872 67.5662 51.5878 67.5662 47.9209C67.5662 33.2827 53.4083 20.5734 35.9286 20.5734C18.473 20.5734 4.30127 33.2827 4.30127 47.9209C4.30127 51.5779 5.19281 55.0937 6.80722 58.2645C11.6023 53.809 22.8515 50.6908 35.9286 50.6908Z" fill="#00A6E1"/>
<path fill-rule="evenodd" clip-rule="evenodd" d="M35.9286 50.7172C48.9781 50.7172 60.1929 53.8222 64.9776 58.2153C66.6024 55.0774 67.4939 51.6273 67.4939 47.9735C67.4939 33.4668 53.3532 20.8396 35.9286 20.8396C18.5211 20.8396 4.37354 33.4668 4.37354 47.9735C4.37354 51.6273 5.26852 55.0774 6.87949 58.2153C11.6608 53.8222 22.8825 50.7172 35.9286 50.7172Z" fill="#00A8E2"/>
<path fill-rule="evenodd" clip-rule="evenodd" d="M35.9216 50.7563C48.9436 50.7563 60.1274 53.822 64.8949 58.1756C66.5196 55.064 67.3905 51.6402 67.3905 48.0423C67.3905 33.6539 53.2946 21.1121 35.9216 21.1121C18.5658 21.1121 4.45947 33.6703 4.45947 48.0423C4.45947 51.6336 5.35101 55.0705 6.94477 58.1756C11.7226 53.822 22.903 50.7563 35.9216 50.7563Z" fill="#00AAE4"/>
<path fill-rule="evenodd" clip-rule="evenodd" d="M35.9215 50.7859C48.9091 50.7859 60.055 53.8219 64.8191 58.1493C66.4266 55.064 67.2906 51.6566 67.2906 48.0915C67.2906 33.8576 53.2532 21.3815 35.9215 21.3815C18.607 21.3815 4.53857 33.8641 4.53857 48.0915C4.53857 51.6566 5.42323 55.064 7.03076 58.1493C11.7845 53.8219 22.9339 50.7859 35.9215 50.7859Z" fill="#00ADE5"/>
<path fill-rule="evenodd" clip-rule="evenodd" d="M35.9116 50.8158C48.8785 50.8158 59.9969 53.8321 64.7403 58.1003C66.3272 55.061 67.2119 51.6898 67.2119 48.1543C67.2119 34.0485 53.1951 21.6447 35.9116 21.6447C18.6522 21.6447 4.62158 34.0649 4.62158 48.1543C4.62158 51.6832 5.50624 55.0643 7.10688 58.1003C11.8434 53.8321 22.9653 50.8158 35.9116 50.8158Z" fill="#00AFE6"/>
<path fill-rule="evenodd" clip-rule="evenodd" d="M35.9114 50.8586C48.8233 50.8586 59.9279 53.8322 64.6507 58.0675C66.2376 55.0446 67.1119 51.6964 67.1119 48.2135C67.1119 34.2621 53.1398 21.9043 35.9114 21.9043C18.6933 21.9043 4.71094 34.2621 4.71094 48.2135C4.71094 51.6964 5.57494 55.0611 7.17214 58.0675C11.9052 53.8322 23.003 50.8586 35.9114 50.8586Z" fill="#00B1E8"/>
<path fill-rule="evenodd" clip-rule="evenodd" d="M35.9114 50.8781C48.7957 50.8781 59.8453 53.8353 64.575 58.0181C66.1687 55.0445 67.0327 51.7324 67.0327 48.2659C67.0327 34.446 53.0882 22.1736 35.9114 22.1736C18.7346 22.1736 4.77979 34.446 4.77979 48.2659C4.77979 51.7324 5.65067 55.0445 7.24787 58.0181C11.9706 53.8353 23.0306 50.8781 35.9114 50.8781Z" fill="#00B3E9"/>
<path fill-rule="evenodd" clip-rule="evenodd" d="M35.9043 50.9242C48.7404 50.9242 59.7797 53.8354 64.4852 57.9952C66.0756 55.0347 66.9464 51.7523 66.9464 48.3416C66.9464 34.6564 53.0501 22.4497 35.9043 22.4497C18.7826 22.4497 4.87939 34.6564 4.87939 48.3416C4.87939 51.7523 5.7434 55.0446 7.31994 57.9952C12.0358 53.8354 23.0613 50.9242 35.9043 50.9242Z" fill="#00B5EA"/>
<path fill-rule="evenodd" clip-rule="evenodd" d="M35.8871 50.9439C48.7095 50.9439 59.7109 53.8354 64.4095 57.9557C65.9929 55.0149 66.8569 51.7785 66.8569 48.3908C66.8569 34.8534 52.9985 22.6993 35.8871 22.6993C18.8308 22.6993 4.94824 34.8534 4.94824 48.3908C4.94824 51.7785 5.81224 55.0347 7.40256 57.9557C12.0875 53.8354 23.0992 50.9439 35.8871 50.9439Z" fill="#00B8EC"/>
<path fill-rule="evenodd" clip-rule="evenodd" d="M35.887 50.9931C48.6646 50.9931 59.6419 53.8353 64.3164 57.9162C65.9033 55.0083 66.7708 51.8178 66.7708 48.4499C66.7708 35.0571 52.9536 22.9884 35.887 22.9884C18.8651 22.9884 5.0376 35.0571 5.0376 48.4499C5.0376 51.8112 5.88783 55.0149 7.46438 57.9162C12.1562 53.8353 23.1163 50.9931 35.887 50.9931Z" fill="#03BAED"/>
<path fill-rule="evenodd" clip-rule="evenodd" d="M35.8874 51.0227C48.6237 51.0227 59.57 53.8353 64.2377 57.8604C65.8108 55.0084 66.6714 51.8343 66.6714 48.519C66.6714 35.2576 52.899 23.2513 35.8874 23.2513C18.8999 23.2513 5.11377 35.2576 5.11377 48.519C5.11377 51.8343 5.97433 55.0084 7.55088 57.8604C12.2151 53.8353 23.1442 51.0227 35.8874 51.0227Z" fill="#12BCEF"/>
<path fill-rule="evenodd" clip-rule="evenodd" d="M35.8873 51.0622C48.5823 51.0622 59.5079 53.842 64.1515 57.8375C65.7281 54.9855 66.5852 51.8673 66.5852 48.5749C66.5852 35.4482 52.8438 23.5176 35.8873 23.5176C18.9514 23.5176 5.20312 35.4482 5.20312 48.5749C5.20312 51.8574 6.04992 55.0085 7.61614 57.8375C12.2804 53.842 23.1888 51.0622 35.8873 51.0622Z" fill="#1BBFF0"/>
<path fill-rule="evenodd" clip-rule="evenodd" d="M35.8808 51.0884C48.5483 51.0884 59.4258 53.8484 64.0728 57.7881C65.639 54.9755 66.4858 51.8901 66.4858 48.6273C66.4858 35.6485 52.7926 23.7902 35.8808 23.7902C18.9829 23.7902 5.27588 35.6485 5.27588 48.6273C5.27588 51.8803 6.12955 54.9853 7.69922 57.7881C12.3394 53.8484 23.2168 51.0884 35.8808 51.0884Z" fill="#20C3F3"/>
<path fill-rule="evenodd" clip-rule="evenodd" d="M35.8805 51.1574C48.5204 51.1574 59.4082 53.9076 64.0449 57.8275C65.6008 55.0445 66.4442 51.9591 66.4442 48.7259C66.4442 35.8194 52.775 24.03 35.8805 24.03C19.0135 24.03 5.32715 35.8194 5.32715 48.7259C5.32715 51.9525 6.17738 55.0445 7.73672 57.8275C12.3631 53.9076 23.2337 51.1574 35.8805 51.1574Z" fill="#32C5F3"/>
<path fill-rule="evenodd" clip-rule="evenodd" d="M35.8872 51.2329C48.5133 51.2329 59.3667 53.9666 63.9965 57.8603C65.5524 55.0871 66.413 52.0313 66.413 48.8244C66.413 36.0033 52.7473 24.2764 35.8872 24.2764C19.0305 24.2764 5.35107 36.0033 5.35107 48.8244C5.35107 52.0247 6.21508 55.0937 7.76753 57.8603C12.3905 53.9666 23.2507 51.2329 35.8872 51.2329Z" fill="#3FC6F3"/>
<path fill-rule="evenodd" clip-rule="evenodd" d="M35.8868 51.3119C48.4854 51.3119 59.3388 54.0193 63.9549 57.8933C65.5108 55.1431 66.3713 52.0939 66.3713 48.9067C66.3713 36.171 52.7263 24.5197 35.8868 24.5197C19.0612 24.5197 5.40234 36.171 5.40234 48.9067C5.40234 52.0939 6.25258 55.1431 7.80503 57.8933C12.4383 54.0193 23.271 51.3119 35.8868 51.3119Z" fill="#4AC8F4"/>
<path fill-rule="evenodd" clip-rule="evenodd" d="M35.8871 51.404C48.4822 51.404 59.3046 54.0852 63.9138 57.923C65.4766 55.1958 66.3268 52.1762 66.3268 49.0021C66.3268 36.3617 52.699 24.7629 35.8871 24.7629C19.0855 24.7629 5.44043 36.3617 5.44043 49.0021C5.44043 52.1663 6.29411 55.2024 7.83967 57.923C12.4592 54.0852 23.2816 51.404 35.8871 51.404Z" fill="#54C9F4"/>
<path fill-rule="evenodd" clip-rule="evenodd" d="M35.8877 51.4695C48.4656 51.4695 59.2743 54.1343 63.8834 57.9655C65.429 55.2383 66.293 52.2384 66.293 49.0972C66.293 36.5357 52.679 25.0157 35.8877 25.0157C19.1033 25.0157 5.48926 36.5357 5.48926 49.0972C5.48926 52.2384 6.33261 55.2449 7.8885 57.9655C12.5011 54.1343 23.2856 51.4695 35.8877 51.4695Z" fill="#5CCBF4"/>
<path fill-rule="evenodd" clip-rule="evenodd" d="M35.8869 51.5484C48.4511 51.5484 59.246 54.2 63.8448 57.9951C65.3904 55.2843 66.2372 52.314 66.2372 49.1958C66.2372 36.7164 52.6609 25.2523 35.8869 25.2523C19.1198 25.2523 5.52979 36.7164 5.52979 49.1958C5.52979 52.314 6.37313 55.304 7.9187 57.9951C12.521 54.2 23.3262 51.5484 35.8869 51.5484Z" fill="#64CDF5"/>
<path fill-rule="evenodd" clip-rule="evenodd" d="M35.8872 51.6338C48.4341 51.6338 59.2221 54.2592 63.8037 58.0181C65.3562 55.3402 66.2064 52.3863 66.2064 49.2779C66.2064 36.884 52.6233 25.4922 35.8872 25.4922C19.1613 25.4922 5.56445 36.9004 5.56445 49.2779C5.56445 52.3863 6.41124 55.3402 7.95337 58.0181C12.5625 54.2592 23.3367 51.6338 35.8872 51.6338Z" fill="#6CCEF5"/>
<path fill-rule="evenodd" clip-rule="evenodd" d="M35.8869 51.6963C48.4201 51.6963 59.184 54.3183 63.776 58.0674C65.3112 55.3994 66.1752 52.452 66.1752 49.3765C66.1752 37.0647 52.6059 25.7452 35.8869 25.7452C19.1714 25.7452 5.59863 37.0647 5.59863 49.3765C5.59863 52.452 6.45919 55.4059 7.99099 58.0674C12.5898 54.3183 23.3537 51.6963 35.8869 51.6963Z" fill="#73D0F5"/>
<path fill-rule="evenodd" clip-rule="evenodd" d="M35.887 51.7752C48.3893 51.7752 59.1428 54.3709 63.7279 58.0937C65.2803 55.4585 66.1271 52.5309 66.1271 49.462C66.1271 37.2422 52.5888 25.9917 35.887 25.9917C19.1956 25.9917 5.65039 37.2422 5.65039 49.462C5.65039 52.5309 6.49718 55.4585 8.02898 58.0937C12.6209 54.3709 23.3642 51.7752 35.887 51.7752Z" fill="#7AD2F6"/>
<path fill-rule="evenodd" clip-rule="evenodd" d="M35.8868 51.8574C48.389 51.8574 59.1185 54.4367 63.6864 58.1299C65.2388 55.4914 66.0787 52.6 66.0787 49.5639C66.0787 37.4262 52.5645 26.2448 35.8868 26.2448C19.2229 26.2448 5.68115 37.4262 5.68115 49.5639C5.68115 52.6 6.54171 55.498 8.07007 58.1299C12.6482 54.4367 23.3777 51.8672 35.8868 51.8574Z" fill="#81D3F6"/>
<path fill-rule="evenodd" clip-rule="evenodd" d="M35.8869 51.9164C48.3685 51.9164 59.0807 54.5056 63.6624 58.1626C65.1804 55.5472 66.0341 52.6721 66.0341 49.6558C66.0341 37.597 52.5439 26.4812 35.8869 26.4812C19.2402 26.4812 5.73633 37.597 5.73633 49.6558C5.73633 52.6721 6.57968 55.557 8.11147 58.1626C12.6793 54.5056 23.3985 51.923 35.8869 51.9164Z" fill="#87D5F6"/>
<path fill-rule="evenodd" clip-rule="evenodd" d="M35.8868 52.0085C48.3477 52.0085 59.053 54.5484 63.6174 58.1858C65.1527 55.6065 66.0029 52.7478 66.0029 49.7545C66.0029 37.7614 52.5162 26.7278 35.8868 26.7278C19.2676 26.7278 5.76025 37.7614 5.76025 49.7545C5.76025 52.7478 6.61049 55.613 8.13884 58.1858C12.7136 54.5484 23.4224 52.0085 35.8868 52.0085Z" fill="#8ED7F7"/>
<path fill-rule="evenodd" clip-rule="evenodd" d="M35.8874 52.0775C48.3345 52.0775 59.0192 54.6142 63.5768 58.2252C65.1086 55.6492 65.9588 52.8136 65.9588 49.8366C65.9588 37.952 52.4962 26.9644 35.8874 26.9644C19.2889 26.9644 5.8125 37.952 5.8125 49.8366C5.8125 52.8136 6.65241 55.6558 8.17732 58.2252C12.7452 54.6142 23.4402 52.0775 35.8874 52.0775Z" fill="#94D9F7"/>
<path fill-rule="evenodd" clip-rule="evenodd" d="M35.8875 52.1662C48.314 52.1662 58.9918 54.6667 63.5356 58.2646C65.0674 55.7017 65.928 52.8825 65.928 49.9385C65.928 38.1294 52.4757 27.2305 35.8875 27.2305C19.3028 27.2305 5.86084 38.136 5.86084 49.9385C5.86084 52.8825 6.69386 55.7017 8.2291 58.2646C12.7866 54.6667 23.4576 52.1662 35.8875 52.1662Z" fill="#9ADBF7"/>
<path fill-rule="evenodd" clip-rule="evenodd" d="M35.8868 52.2382C48.3064 52.2382 58.9498 54.7289 63.497 58.3071C65.022 55.754 65.8722 52.9578 65.8722 50.0203C65.8722 38.2934 52.4371 27.4602 35.8868 27.4602C19.3262 27.4602 5.8877 38.2934 5.8877 50.0203C5.8877 52.9677 6.74137 55.7606 8.25252 58.3071C12.8032 54.7289 23.4707 52.2382 35.8868 52.2382Z" fill="#A0DDF8"/>
<path fill-rule="evenodd" clip-rule="evenodd" d="M35.8869 52.314C48.279 52.314 58.9155 54.7914 63.4765 58.3335C64.9773 55.81 65.8207 53.0303 65.8207 50.1191C65.8207 38.494 52.4235 27.7101 35.8869 27.7101C19.3504 27.7101 5.94287 38.4973 5.94287 50.1191C5.94287 53.0303 6.77245 55.81 8.29048 58.3335C12.8411 54.7914 23.488 52.314 35.8869 52.314Z" fill="#A6DEF8"/>
<path fill-rule="evenodd" clip-rule="evenodd" d="M35.8877 52.3961C48.266 52.3961 58.8991 54.844 63.4325 58.3565C64.9505 55.856 65.7973 53.0993 65.7973 50.2176C65.7973 38.655 52.3967 27.9434 35.8877 27.9434C19.3718 27.9434 5.97461 38.655 5.97461 50.2012C5.97461 53.0993 6.81452 55.8659 8.34631 58.3565C12.8763 54.844 23.5059 52.3961 35.8877 52.3961Z" fill="#ACE0F9"/>
<path fill-rule="evenodd" clip-rule="evenodd" d="M35.8869 52.4684C48.2445 52.4684 58.8569 54.9031 63.3938 58.4025C64.8946 55.9118 65.7414 53.1781 65.7414 50.303C65.7414 38.8488 52.3821 28.2095 35.8869 28.2095C19.3916 28.2095 6.02197 38.8488 6.02197 50.303C6.02197 53.1781 6.86188 55.9184 8.37302 58.4025C12.903 54.9031 23.5223 52.4684 35.8869 52.4684Z" fill="#B2E2F9"/>
<path fill-rule="evenodd" clip-rule="evenodd" d="M35.8876 52.5573C48.228 52.5573 58.8267 54.9592 63.3429 58.4356C64.8609 55.9614 65.7077 53.2473 65.7077 50.392C65.7077 39.0068 52.3552 28.4496 35.8876 28.4496C19.4199 28.4496 6.06055 39.0166 6.06055 50.392C6.06055 53.2539 6.89357 55.9614 8.40816 58.4356C12.9381 54.9592 23.5299 52.5573 35.8876 52.5573Z" fill="#B8E4F9"/>
<path fill-rule="evenodd" clip-rule="evenodd" d="M35.8873 52.6294C48.2105 52.6294 58.7954 55.0346 63.3082 58.4649C64.8228 56.017 65.6696 53.3128 65.6696 50.4871C65.6696 39.1873 52.3412 28.6991 35.8873 28.6991C19.4506 28.6991 6.09814 39.1939 6.09814 50.4871C6.09814 53.3194 6.94149 56.017 8.45264 58.4649C12.9689 55.0346 23.5606 52.6294 35.8873 52.6294Z" fill="#BDE6FA"/>
<path fill-rule="evenodd" clip-rule="evenodd" d="M35.8869 52.6984C48.193 52.6984 58.7572 55.0872 63.2631 58.5011C64.7811 56.0598 65.621 53.395 65.621 50.589C65.621 39.3746 52.3168 28.9489 35.8869 28.9489C19.4537 28.9489 6.14941 39.3746 6.14941 50.589C6.14941 53.4049 6.97555 56.0598 8.47981 58.5011C12.9995 55.0872 23.574 52.7149 35.8869 52.6984Z" fill="#C3E8FA"/>
<path fill-rule="evenodd" clip-rule="evenodd" d="M35.8872 52.774C48.176 52.774 58.7333 55.1431 63.2289 58.534C64.7504 56.1189 65.5903 53.464 65.5903 50.681C65.5903 39.5554 52.2894 29.192 35.8872 29.192C19.4918 29.192 6.1875 39.5554 6.1875 50.681C6.1875 53.4706 7.02052 56.1189 8.52478 58.534C13.0238 55.1431 23.5915 52.7839 35.8872 52.774Z" fill="#C9EAFA"/>
<path fill-rule="evenodd" clip-rule="evenodd" d="M35.8869 52.8529C48.1585 52.8529 58.7124 55.2088 63.1907 58.557C64.6984 56.1715 65.5418 53.5363 65.5418 50.773C65.5418 39.7295 52.2651 29.4352 35.8869 29.4352C19.5052 29.4352 6.22852 39.7295 6.22852 50.773C6.22852 53.5429 7.05465 56.1715 8.55891 58.557C13.0682 55.2088 23.6015 52.8529 35.8869 52.8529Z" fill="#CEECFB"/>
<path fill-rule="evenodd" clip-rule="evenodd" d="M35.8871 52.9348C48.1518 52.9348 58.6644 55.2611 63.1634 58.5929C64.6676 56.2272 65.5076 53.6051 65.5076 50.8582C65.5076 39.9067 52.248 29.6748 35.8871 29.6748C19.5261 29.6748 6.27002 39.9067 6.27002 50.8582C6.27002 53.615 7.10648 56.2272 8.59697 58.5929C13.0994 55.2611 23.6292 52.9348 35.8871 52.9348Z" fill="#D4EEFB"/>
<path fill-rule="evenodd" clip-rule="evenodd" d="M35.8874 53.0041C48.1349 53.0041 58.6302 55.3205 63.1293 58.6227C64.6232 56.2767 65.47 53.6744 65.47 50.957C65.47 40.0877 52.2208 29.9149 35.8874 29.9149C19.5436 29.9149 6.29785 40.0877 6.29785 50.9439C6.29785 53.6809 7.13087 56.2898 8.64202 58.6227C13.1307 55.3205 23.6399 53.0172 35.8874 53.0041Z" fill="#D9F0FB"/>
<path fill-rule="evenodd" clip-rule="evenodd" d="M35.887 53.0862C48.1173 53.0862 58.6093 55.3895 63.0842 58.6687C64.5747 56.3227 65.418 53.7565 65.418 51.049C65.418 40.2684 52.1998 30.1548 35.887 30.1548C19.5674 30.1548 6.3457 40.2684 6.3457 51.0392C6.3457 53.7565 7.17873 56.3227 8.6761 58.6687C13.1613 55.3895 23.6671 53.0862 35.887 53.0862Z" fill="#DFF2FC"/>
<path fill-rule="evenodd" clip-rule="evenodd" d="M35.8871 53.1585C48.0933 53.1585 58.5784 55.4454 63.0327 58.6917C64.53 56.3785 65.3665 53.8321 65.3665 51.1377C65.3665 40.4392 52.1689 30.4209 35.8871 30.4209C19.595 30.4209 6.39746 40.4392 6.39746 51.1377C6.39746 53.8353 7.22016 56.3785 8.70376 58.6917C13.189 55.4454 23.6878 53.1585 35.8871 53.1585Z" fill="#E5F4FC"/>
<path fill-rule="evenodd" clip-rule="evenodd" d="M35.8875 53.247C48.0799 53.247 58.5409 55.4912 63.002 58.7309C64.4959 56.4342 65.3393 53.9009 65.3393 51.2328C65.3393 40.6132 52.1417 30.6737 35.8875 30.6737C19.616 30.6737 6.42188 40.6132 6.42188 51.2262C6.42188 53.9074 7.25834 56.4342 8.74195 58.7309C13.2272 55.4912 23.7019 53.247 35.8875 53.247Z" fill="#EAF6FD"/>
<path fill-rule="evenodd" clip-rule="evenodd" d="M35.8871 53.3128C48.0623 53.3128 58.5061 55.557 62.9707 58.7573C64.4577 56.4737 65.2942 53.9667 65.2942 51.3282C65.2942 40.7973 52.1242 30.9071 35.8871 30.9071C19.6363 30.9071 6.46973 40.7973 6.46973 51.3282C6.46973 53.97 7.29586 56.4737 8.78291 58.7573C13.2578 55.557 23.7154 53.3128 35.8871 53.3128Z" fill="#F0F8FD"/>
<path fill-rule="evenodd" clip-rule="evenodd" d="M35.8868 53.3951C48.0379 53.3951 58.461 55.613 62.9325 58.7805C64.4195 56.5363 65.2595 54.0325 65.2595 51.4203C65.2595 40.965 52.0929 31.1504 35.8868 31.1504C19.6601 31.1504 6.51416 40.965 6.51416 51.4105C6.51416 54.0522 7.34374 56.5363 8.81702 58.7805C13.2919 55.613 23.7288 53.4049 35.8868 53.3951Z" fill="#F6FBFD"/>
<path fill-rule="evenodd" clip-rule="evenodd" d="M35.8874 53.4704C48.0351 53.4704 58.4375 55.6818 62.8952 58.8328C64.372 56.5755 65.2084 54.1046 65.2084 51.5056C65.2084 41.1554 52.09 31.3966 35.8874 31.3966C19.6813 31.3966 6.56641 41.1554 6.56641 51.5056C6.56641 54.121 7.38566 56.5755 8.86238 58.8328C13.3304 55.6818 23.7363 53.4704 35.8874 53.4704Z" fill="#FEFEFE"/>
</g>
<path fill-rule="evenodd" clip-rule="evenodd" d="M35.8874 43.1172C25.275 43.1172 15.4026 44.8554 7.2583 47.7698C12.1497 58.3205 23.1167 65.6412 35.8874 65.6412C48.6581 65.6412 59.6354 58.3139 64.5165 47.7698C56.3791 44.8554 46.5102 43.1172 35.8874 43.1172Z" fill="#0083C9"/>
</svg>
