<svg width="24" height="24" viewBox="0 0 24 24" fill="none" xmlns="http://www.w3.org/2000/svg">
<path d="M7.99977 17.4943L7.99986 17.0004C8.00007 15.8957 7.10458 15 5.99986 15H5.00009C3.89559 15 3.00018 15.8953 3.00009 16.9998L3 17.9998C2.9999 19.1045 3.89536 20 5 20H5.99977C7.10436 20 7.99979 19.1045 7.99977 18L7.99977 17.4943ZM7.99977 17.4943H20.9998M16.0002 6.5L3.00024 6.5M16.0007 6V7C16.0007 8.10457 16.8961 9 18.0007 9H19.0007C20.1053 9 21.0007 8.10457 21.0007 7V6C21.0007 4.89543 20.1053 4 19.0007 4L18.0007 4C16.8961 4 16.0007 4.89543 16.0007 6Z" stroke="black" stroke-width="2" stroke-linecap="round" stroke-linejoin="round"/>
</svg>
