<svg width="24" height="24" viewBox="0 0 24 24" fill="none" xmlns="http://www.w3.org/2000/svg">
<path d="M13.1111 8.94444C13.1111 7.87056 13.9817 7 15.0556 7C16.1294 7 17 7.87056 17 8.94444C17 10.0183 16.1294 10.8889 15.0556 10.8889C13.9817 10.8889 13.1111 10.0183 13.1111 8.94444ZM13.1111 8.94444H7M10.8889 15.0556C10.8889 16.1294 10.0183 17 8.94444 17C7.87056 17 7 16.1294 7 15.0556C7 13.9817 7.87056 13.1111 8.94444 13.1111C10.0183 13.1111 10.8889 13.9817 10.8889 15.0556ZM10.8889 15.0556H17M2 12C2 17.5228 6.47715 22 12 22C17.5228 22 22 17.5228 22 12C22 6.47715 17.5228 2 12 2C6.47715 2 2 6.47715 2 12Z" stroke="black" stroke-width="2" stroke-linecap="round" stroke-linejoin="round"/>
</svg>
