<svg width="24" height="24" viewBox="0 0 24 24" fill="none" xmlns="http://www.w3.org/2000/svg">
<path fill-rule="evenodd" clip-rule="evenodd" d="M4.1143 5.61031C2.84371 3.6131 4.27841 0.999969 6.64553 1L17.3574 1.00014C19.4634 1.00017 20.8312 3.06848 20.2127 4.93121C19.648 4.57261 19.0193 4.30578 18.3475 4.15171C18.4363 3.57774 17.9999 3.00015 17.3574 3.00014L6.6455 3C5.85647 2.99999 5.37823 3.87103 5.80176 4.53677L10.3776 11.7293C10.7842 12.3685 11.001 13.11 11.0026 13.8675L11.017 20.2944L12.4735 19.4771C12.788 19.3006 12.9831 18.9685 12.9841 18.6079L12.9964 14.4683C13.5724 14.9848 14.2488 15.3916 14.9929 15.6558L14.9841 18.6139C14.9809 19.6956 14.3957 20.6918 13.4523 21.2212L11.253 22.4554C10.2544 23.0158 9.02148 22.2958 9.01893 21.1507L9.00265 13.8719C9.00181 13.4932 8.89342 13.1225 8.69012 12.8029L4.1143 5.61031ZM14.1716 7.17157C15.7337 5.60948 18.2663 5.60948 19.8284 7.17157C21.3905 8.73367 21.3905 11.2663 19.8284 12.8284C18.2663 14.3905 15.7337 14.3905 14.1716 12.8284C12.6095 11.2663 12.6095 8.73367 14.1716 7.17157ZM18.9445 8.05546C19.2374 8.34835 19.2374 8.82322 18.9445 9.11612L18.0607 10L18.9445 10.8839C19.2374 11.1768 19.2374 11.6516 18.9445 11.9445C18.6516 12.2374 18.1768 12.2374 17.8839 11.9445L17 11.0607L16.1161 11.9445C15.8232 12.2374 15.3483 12.2374 15.0555 11.9445C14.7626 11.6516 14.7626 11.1768 15.0555 10.8839L15.9393 10L15.0555 9.11612C14.7626 8.82322 14.7626 8.34835 15.0555 8.05546C15.3483 7.76256 15.8232 7.76256 16.1161 8.05546L17 8.93934L17.8839 8.05546C18.1768 7.76256 18.6516 7.76256 18.9445 8.05546Z" fill="black"/>
</svg>
