<svg width="24" height="24" viewBox="0 0 24 24" fill="none" xmlns="http://www.w3.org/2000/svg">
<path d="M8.94444 10.8889C7.87056 10.8889 7 10.0183 7 8.94445C7 7.87056 7.87056 7 8.94444 7C10.0183 7 10.8889 7.87056 10.8889 8.94444C10.8889 10.0183 10.0183 10.8889 8.94444 10.8889ZM8.94444 10.8889V17M15.0556 13.1111C16.1294 13.1111 17 13.9817 17 15.0556C17 16.1294 16.1294 17 15.0556 17C13.9817 17 13.1111 16.1294 13.1111 15.0556C13.1111 13.9817 13.9817 13.1111 15.0556 13.1111ZM15.0556 13.1111L15.0556 7M18 21H6C4.34315 21 3 19.6569 3 18V6C3 4.34315 4.34315 3 6 3H18C19.6569 3 21 4.34315 21 6V18C21 19.6569 19.6569 21 18 21Z" stroke="black" stroke-width="2" stroke-linecap="round" stroke-linejoin="round"/>
</svg>
