<svg width="24" height="24" viewBox="0 0 24 24" fill="none" xmlns="http://www.w3.org/2000/svg">
<path fill-rule="evenodd" clip-rule="evenodd" d="M6.10505 3C5.37782 2.99999 4.89377 3.75158 5.19461 4.41367L8.64071 11.9981C8.87559 12.515 8.99772 13.076 8.99899 13.6438L9.01386 20.2944L10.4704 19.4771C10.7848 19.3006 10.9799 18.9685 10.981 18.6079L10.9907 15.3075C11.5009 16.0781 12.1842 16.7242 12.9852 17.1901L12.981 18.6138C12.9778 19.6956 12.3925 20.6918 11.4492 21.2212L9.24985 22.4554C8.25125 23.0158 7.01833 22.2957 7.01577 21.1507L6.999 13.6483C6.99836 13.3644 6.9373 13.0839 6.81986 12.8254L3.37375 5.241C2.47125 3.25473 3.92339 0.999964 6.10508 1L9.99856 1.00007L18.9976 1.00016C20.6544 1.00018 21.9976 2.34332 21.9976 4.00016V5.99995C21.9976 6.55223 21.5498 6.99995 20.9976 6.99995C20.4453 6.99995 19.9976 6.55223 19.9976 5.99995V4.00016C19.9976 3.44788 19.5498 3.00017 18.9976 3.00016L16.7213 3.00014C16.9688 3.69386 16.9656 4.48711 16.6227 5.24157L16.2751 6.00625C16.1831 6.00206 16.0906 5.99995 15.9976 5.99995C15.2641 5.99995 14.5613 6.13156 13.9117 6.37246L14.8019 4.41394C15.1029 3.75185 14.6189 3.00014 13.8916 3.00013L9.99853 3.00007L6.10505 3ZM20 12C20 9.79086 18.2091 8 16 8C13.7909 8 12 9.79086 12 12C12 14.2091 13.7909 16 16 16C18.2091 16 20 14.2091 20 12ZM14 11.25H15.25H16.75H18C18.4142 11.25 18.75 11.5858 18.75 12C18.75 12.4142 18.4142 12.75 18 12.75H16.75H15.25H14C13.5858 12.75 13.25 12.4142 13.25 12C13.25 11.5858 13.5858 11.25 14 11.25Z" fill="black"/>
</svg>
