<svg width="24" height="24" viewBox="0 0 24 24" fill="none" xmlns="http://www.w3.org/2000/svg">
<path fill-rule="evenodd" clip-rule="evenodd" d="M5 4C4.44772 4 4 4.44772 4 5V5.6202C4 6.20405 4.25513 6.75874 4.69842 7.13871L9.25396 11.0435C10.3622 11.9934 11 13.3801 11 14.8397V19.382L12.4472 18.6584C12.786 18.489 13 18.1427 13 17.7639V15.4722C13.5771 15.9887 14.2548 16.3952 15 16.6586V17.7639C15 18.9002 14.358 19.939 13.3416 20.4472L11.1708 21.5326C10.1735 22.0313 9 21.3061 9 20.191L9 14.8397C9 13.964 8.61731 13.1319 7.95237 12.562L3.39683 8.65722C2.51025 7.89729 2 6.7879 2 5.6202V5C2 3.34315 3.34315 2 5 2H19C20.6568 2 22 3.34315 22 5V5.6202C22 6.17916 21.8831 6.72476 21.6639 7.22506C21.2003 6.65301 20.6336 6.16793 19.9921 5.79812C19.9973 5.73922 20 5.67986 20 5.6202V5C20 4.44772 19.5523 4 19 4H5ZM17 7.0498C15.3388 7.0498 13.9171 8.07529 13.3334 9.52776C13.0529 9.38855 12.7034 9.43579 12.4697 9.66947C12.1768 9.96237 12.1768 10.4372 12.4697 10.7301L13.2697 11.5301C13.513 11.7735 13.8908 11.82 14.1859 11.6429L15.1859 11.0429C15.5411 10.8298 15.6562 10.3691 15.4431 10.0139C15.3297 9.82492 15.1462 9.70388 14.9458 9.6641C15.3829 8.99328 16.1396 8.5498 17 8.5498C17.5801 8.5498 18.1113 8.75049 18.5309 9.08684C18.8541 9.34592 19.3261 9.29395 19.5852 8.97076C19.8443 8.64757 19.7923 8.17555 19.4691 7.91647C18.793 7.37449 17.9334 7.0498 17 7.0498ZM20.7303 10.4695C20.487 10.2261 20.1092 10.1796 19.8141 10.3567L18.8141 10.9567C18.4589 11.1698 18.3438 11.6305 18.5569 11.9857C18.6703 12.1747 18.8538 12.2957 19.0542 12.3355C18.6171 13.0063 17.8604 13.4498 17 13.4498C16.4208 13.4498 15.8903 13.2497 15.4711 12.9143C15.1476 12.6556 14.6756 12.708 14.4169 13.0315C14.1581 13.3549 14.2106 13.8269 14.534 14.0857C15.2097 14.6261 16.0681 14.9498 17 14.9498C18.6612 14.9498 20.0829 13.9243 20.6666 12.4718C20.9471 12.6111 21.2966 12.5638 21.5303 12.3301C21.8232 12.0372 21.8232 11.5624 21.5303 11.2695L20.7303 10.4695Z" fill="black"/>
</svg>
