<svg width="24" height="24" viewBox="0 0 24 24" fill="none" xmlns="http://www.w3.org/2000/svg">
<path d="M6.5 21L6.51618 12M17.4943 3.00045V12M17.4943 16.0005L17.0004 16.0004C15.8957 16.0002 15 16.8956 15 18.0004V19.0001C15 20.1046 15.8953 21 16.9998 21.0001L17.9998 21.0002C19.1045 21.0003 20 20.1049 20 19.0002V18.0005C20 16.8959 19.1045 16.0004 18 16.0005L17.4943 16.0005ZM9 4.99952V5.99951C9 7.10408 8.10457 7.99951 7 7.99951H6C4.89543 7.99951 4 7.10408 4 5.99951V4.99952C4 3.89495 4.89543 2.99952 6 2.99952H7C8.10457 2.99952 9 3.89496 9 4.99952Z" stroke="black" stroke-width="2" stroke-linecap="round" stroke-linejoin="round"/>
</svg>
