<svg width="24" height="24" viewBox="0 0 24 24" fill="none" xmlns="http://www.w3.org/2000/svg">
<path d="M7 8.94444H10.0556M17 15.0556H13.9444M15.0556 7C13.9817 7 13.1111 7.87056 13.1111 8.94444C13.1111 10.0183 13.9817 10.8889 15.0556 10.8889C16.1294 10.8889 17 10.0183 17 8.94444C17 7.87056 16.1294 7 15.0556 7ZM8.94444 17C10.0183 17 10.8889 16.1294 10.8889 15.0556C10.8889 13.9817 10.0183 13.1111 8.94444 13.1111C7.87056 13.1111 7 13.9817 7 15.0556C7 16.1294 7.87056 17 8.94444 17ZM18 21H6C4.34315 21 3 19.6569 3 18V6C3 4.34315 4.34315 3 6 3H18C19.6569 3 21 4.34315 21 6V18C21 19.6569 19.6569 21 18 21Z" stroke="black" stroke-width="2" stroke-linecap="round" stroke-linejoin="round"/>
</svg>
