<svg width="24" height="24" viewBox="0 0 24 24" fill="none" xmlns="http://www.w3.org/2000/svg">
<path d="M15.0556 10.8889C16.1294 10.8889 17 10.0183 17 8.94445C17 7.87056 16.1294 7 15.0556 7C13.9817 7 13.1111 7.87056 13.1111 8.94444C13.1111 10.0183 13.9817 10.8889 15.0556 10.8889ZM15.0556 10.8889V17M8.94445 13.1111C7.87056 13.1111 7 13.9817 7 15.0556C7 16.1294 7.87056 17 8.94444 17C10.0183 17 10.8889 16.1294 10.8889 15.0556C10.8889 13.9817 10.0183 13.1111 8.94445 13.1111ZM8.94445 13.1111L8.94445 7M6 21H18C19.6569 21 21 19.6569 21 18V6C21 4.34315 19.6569 3 18 3H6C4.34315 3 3 4.34315 3 6V18C3 19.6569 4.34315 21 6 21Z" stroke="black" stroke-width="2" stroke-linecap="round" stroke-linejoin="round"/>
</svg>
