<svg width="24" height="24" viewBox="0 0 24 24" fill="none" xmlns="http://www.w3.org/2000/svg">
<path fill-rule="evenodd" clip-rule="evenodd" d="M6.10896 3C5.38172 2.99999 4.89768 3.75158 5.19851 4.41367L8.64462 11.9981C8.8795 12.515 9.00163 13.076 9.0029 13.6438L9.01777 20.2944L10.4743 19.4771C10.7887 19.3006 10.9838 18.9685 10.9849 18.6079L10.9946 15.3075C11.5048 16.0781 12.1881 16.7242 12.9891 17.1901L12.9849 18.6138C12.9817 19.6956 12.3964 20.6918 11.4531 21.2212L9.25376 22.4554C8.25516 23.0158 7.02223 22.2957 7.01967 21.1507L7.0029 13.6483C7.00227 13.3644 6.9412 13.0839 6.82376 12.8254L3.37766 5.241C2.47516 3.25473 3.92729 0.999964 6.10899 1L10.0025 1.00007L19.0015 1.00016C20.6583 1.00018 22.0015 2.34332 22.0015 4.00016V5.99995C22.0015 6.55223 21.5537 6.99995 21.0015 6.99995C20.4492 6.99995 20.0015 6.55223 20.0015 5.99995V4.00016C20.0015 3.44788 19.5537 3.00017 19.0015 3.00016L16.7252 3.00014C16.9727 3.69386 16.9695 4.48711 16.6266 5.24157L16.279 6.00625C16.187 6.00206 16.0945 5.99995 16.0015 5.99995C15.268 5.99995 14.5652 6.13156 13.9156 6.37246L14.8058 4.41394C15.1068 3.75185 14.6228 3.00014 13.8955 3.00013L10.0024 3.00007L6.10896 3ZM16 8C18.2091 8 20 9.79086 20 12C20 14.2091 18.2091 16 16 16C13.7909 16 12 14.2091 12 12C12 9.79086 13.7909 8 16 8ZM16 9.25C16.4142 9.25 16.75 9.58579 16.75 10V11.25H18C18.4142 11.25 18.75 11.5858 18.75 12C18.75 12.4142 18.4142 12.75 18 12.75H16.75V14C16.75 14.4142 16.4142 14.75 16 14.75C15.5858 14.75 15.25 14.4142 15.25 14V12.75H14C13.5858 12.75 13.25 12.4142 13.25 12C13.25 11.5858 13.5858 11.25 14 11.25H15.25V10C15.25 9.58579 15.5858 9.25 16 9.25Z" fill="black"/>
</svg>
