<svg width="24" height="24" viewBox="0 0 24 24" fill="none" xmlns="http://www.w3.org/2000/svg">
<path d="M10.75 9.125V9.75C10.75 10.4404 10.1904 11 9.5 11H8.25C7.55964 11 7 10.4404 7 9.75V8.5C7 7.80964 7.55964 7.25 8.25 7.25H9.5C10.1904 7.25 10.75 7.80964 10.75 8.5V9.125ZM10.75 9.125H17M13.25 15.125V14.5C13.25 13.8096 13.8096 13.25 14.5 13.25H15.75C16.4404 13.25 17 13.8096 17 14.5V15.75C17 16.4404 16.4404 17 15.75 17H14.5C13.8096 17 13.25 16.4404 13.25 15.75V15.125ZM13.25 15.125H7M2 12C2 17.5228 6.47715 22 12 22C17.5228 22 22 17.5228 22 12C22 6.47715 17.5228 2 12 2C6.47715 2 2 6.47715 2 12Z" stroke="black" stroke-width="2" stroke-linecap="round" stroke-linejoin="round"/>
</svg>
