<svg width="24" height="24" viewBox="0 0 24 24" fill="none" xmlns="http://www.w3.org/2000/svg">
<path d="M7 8.5H10.125M17 15.5H13.875M17 7.875V9.125C17 9.81536 16.4404 10.375 15.75 10.375H14.5C13.8096 10.375 13.25 9.81536 13.25 9.125V8.5V7.875C13.25 7.18464 13.8096 6.625 14.5 6.625H15.75C16.4404 6.625 17 7.18464 17 7.875ZM7 16.125V14.875C7 14.1846 7.55964 13.625 8.25 13.625H9.5C10.1904 13.625 10.75 14.1846 10.75 14.875V15.5V16.125C10.75 16.8154 10.1904 17.375 9.5 17.375H8.25C7.55964 17.375 7 16.8154 7 16.125ZM6 21H18C19.6569 21 21 19.6569 21 18V6C21 4.34315 19.6569 3 18 3H6C4.34315 3 3 4.34315 3 6V18C3 19.6569 4.34315 21 6 21Z" stroke="black" stroke-width="2" stroke-linecap="round" stroke-linejoin="round"/>
</svg>
