<svg width="24" height="24" viewBox="0 0 24 24" fill="none" xmlns="http://www.w3.org/2000/svg">
<path d="M17.4838 12L17.5 21M6.50571 12V3.00044M6.00017 21.0002L7.00017 21.0001C8.10468 21 9 20.1046 9 19.0001V18.0004C9 16.8956 8.10434 16.0001 6.99962 16.0004L6.00004 16.0004C4.89545 16.0004 4 16.8959 4 18.0004V19.0002C4 20.1049 4.89554 21.0003 6.00017 21.0002ZM18 7.9995H17C15.8954 7.9995 15 7.10407 15 5.9995V4.99951C15 3.89494 15.8954 2.99951 17 2.99951H18C19.1046 2.99951 20 3.89494 20 4.99951V5.9995C20 7.10407 19.1046 7.9995 18 7.9995Z" stroke="black" stroke-width="2" stroke-linecap="round" stroke-linejoin="round"/>
</svg>
