<svg width="24" height="24" viewBox="0 0 24 24" fill="none" xmlns="http://www.w3.org/2000/svg">
<path d="M8.94444 10.8889C7.87056 10.8889 7 10.0183 7 8.94445C7 7.87056 7.87056 7 8.94444 7C10.0183 7 10.8889 7.87056 10.8889 8.94444C10.8889 10.0183 10.0183 10.8889 8.94444 10.8889ZM8.94444 10.8889V17M15.0556 13.1111C16.1294 13.1111 17 13.9817 17 15.0556C17 16.1294 16.1294 17 15.0556 17C13.9817 17 13.1111 16.1294 13.1111 15.0556C13.1111 13.9817 13.9817 13.1111 15.0556 13.1111ZM15.0556 13.1111L15.0556 7M22 12C22 17.5228 17.5228 22 12 22C6.47715 22 2 17.5228 2 12C2 6.47715 6.47715 2 12 2C17.5228 2 22 6.47715 22 12Z" stroke="black" stroke-width="2" stroke-linecap="round" stroke-linejoin="round"/>
</svg>
