<svg width="24" height="24" viewBox="0 0 24 24" fill="none" xmlns="http://www.w3.org/2000/svg">
<path fill-rule="evenodd" clip-rule="evenodd" d="M5 4C4.44772 4 4 4.44772 4 5V5.91385C4 6.38172 4.16403 6.83479 4.46356 7.19422L8.07289 11.5254C8.67194 12.2443 9 13.1504 9 14.0861L9 19.382L10.4472 18.6584C10.786 18.489 11 18.1427 11 17.7639V16.3178C11.5059 17.0786 12.1807 17.7174 12.971 18.1804C12.8354 19.1492 12.2322 20.0019 11.3416 20.4472L9.17082 21.5326C8.17347 22.0313 7 21.3061 7 20.191L7 14.0862C7 13.6183 6.83597 13.1652 6.53644 12.8058L2.92711 8.47459C2.32806 7.75573 2 6.8496 2 5.91385V5C2 3.34315 3.34315 2 5 2H10H15H19C20.6569 2 22 3.34315 22 5V7C22 7.55228 21.5523 8 21 8C20.4477 8 20 7.55228 20 7V5C20 4.44772 19.5523 4 19 4H17.8293C17.9398 4.31278 18 4.64936 18 5V5.91385C18 6.37753 17.9194 6.83394 17.7653 7.26389C17.2072 7.09234 16.6144 7 16 7C15.8905 7 15.7817 7.00293 15.6737 7.00872C15.8857 6.68465 16 6.30441 16 5.91385V5C16 4.44771 15.5523 4 15 4H10H5ZM16.3734 10.091C16.3734 10.2397 16.4931 10.3593 16.7324 10.5987L17.9013 11.7676L17.9013 11.7676C18.1406 12.0069 18.2603 12.1266 18.409 12.1266C18.5577 12.1266 18.6773 12.0069 18.9167 11.7676L19.011 11.6732C19.069 11.6153 19.098 11.5862 19.1214 11.5606C19.6262 11.0052 19.6262 10.157 19.1214 9.60163C19.098 9.57597 19.069 9.5469 19.011 9.48895L19.0109 9.48887L19.0109 9.4888L19.0108 9.48873C18.953 9.43089 18.924 9.40194 18.8984 9.37864C18.343 8.87379 17.4948 8.87379 16.9394 9.37864C16.9138 9.40197 16.8848 9.43097 16.8268 9.48896L16.7324 9.58333C16.4931 9.82265 16.3734 9.94231 16.3734 10.091ZM15.7171 10.7474C15.8658 10.7474 15.9854 10.867 16.2247 11.1063L17.3937 12.2753C17.633 12.5146 17.7526 12.6342 17.7526 12.7829C17.7526 12.9316 17.633 13.0513 17.3937 13.2906L16.4078 14.2765L16.4032 14.281C16.3005 14.3826 16.2662 14.4167 16.2271 14.444C16.2075 14.4578 16.1867 14.4698 16.1554 14.488C16.0977 14.5214 16.0043 14.5756 15.8168 14.6992C15.3229 15.0249 14.7698 15.2461 13.6636 15.6886L13.5051 15.752C12.9656 15.9678 12.6959 16.0757 12.5601 15.9399C12.4243 15.8041 12.5322 15.5344 12.748 14.9949L12.8114 14.8364C13.2539 13.7302 13.4751 13.1771 13.8008 12.6832C13.9244 12.4957 13.9786 12.4023 14.012 12.3446L14.012 12.3446C14.0302 12.3133 14.0422 12.2925 14.056 12.2729C14.0833 12.2338 14.1174 12.1995 14.219 12.0968L14.2235 12.0922L15.2094 11.1063L15.2094 11.1063C15.4487 10.867 15.5684 10.7474 15.7171 10.7474Z" fill="black"/>
</svg>
