<svg width="24" height="24" viewBox="0 0 24 24" fill="none" xmlns="http://www.w3.org/2000/svg">
<path fill-rule="evenodd" clip-rule="evenodd" d="M6 2C3.79086 2 2 3.79086 2 6V18C2 20.2091 3.79086 22 6 22H18C20.2091 22 22 20.2091 22 18V6C22 3.79086 20.2091 2 18 2H6ZM4 6C4 4.89543 4.89543 4 6 4H18C19.1046 4 20 4.89543 20 6V18C20 19.1046 19.1046 20 18 20H6C4.89543 20 4 19.1046 4 18V6ZM9.73244 8.5C9.38663 9.0978 8.74028 9.5 8 9.5C6.89543 9.5 6 8.60457 6 7.5C6 6.39543 6.89543 5.5 8 5.5C8.74028 5.5 9.38663 5.9022 9.73244 6.5H17C17.5523 6.5 18 6.94772 18 7.5C18 8.05228 17.5523 8.5 17 8.5H9.73244ZM7 11C6.44772 11 6 11.4477 6 12C6 12.5523 6.44772 13 7 13H14.2676C14.6134 13.5978 15.2597 14 16 14C17.1046 14 18 13.1046 18 12C18 10.8954 17.1046 10 16 10C15.2597 10 14.6134 10.4022 14.2676 11H7ZM9.73244 17.5C9.38663 18.0978 8.74028 18.5 8 18.5C6.89543 18.5 6 17.6046 6 16.5C6 15.3954 6.89543 14.5 8 14.5C8.74028 14.5 9.38663 14.9022 9.73244 15.5H17C17.5523 15.5 18 15.9477 18 16.5C18 17.0523 17.5523 17.5 17 17.5H9.73244Z" fill="black"/>
</svg>
