<svg width="24" height="24" viewBox="0 0 24 24" fill="none" xmlns="http://www.w3.org/2000/svg">
<path fill-rule="evenodd" clip-rule="evenodd" d="M6.10505 3C5.37782 2.99999 4.89377 3.75158 5.19461 4.41367L8.64071 11.9981C8.87559 12.515 8.99772 13.076 8.99899 13.6438L9.01386 20.2944L10.4704 19.4771C10.7848 19.3006 10.9799 18.9685 10.981 18.6079L10.9923 14.7777C11.4251 15.7277 12.1204 16.5331 12.9854 17.101L12.981 18.6138C12.9778 19.6956 12.3925 20.6918 11.4492 21.2212L9.24985 22.4554C8.25125 23.0158 7.01833 22.2957 7.01577 21.1507L6.999 13.6483C6.99836 13.3644 6.9373 13.0839 6.81986 12.8254L3.37375 5.241C2.47125 3.25473 3.92339 0.999964 6.10508 1L9.99856 1.00007L18.9976 1.00016C20.6544 1.00018 21.9976 2.34332 21.9976 4.00016V5.99995C21.9976 6.55223 21.5498 6.99995 20.9976 6.99995C20.4453 6.99995 19.9976 6.55223 19.9976 5.99995V4.00016C19.9976 3.44788 19.5498 3.00017 18.9976 3.00016L16.7213 3.00014C16.9688 3.69386 16.9656 4.48711 16.6227 5.24157L15.8221 7.00282C14.9101 7.03181 14.0543 7.28278 13.3066 7.70348L14.8019 4.41394C15.1029 3.75185 14.6189 3.00014 13.8916 3.00013L9.99853 3.00007L6.10505 3ZM16.3734 9.091C16.3734 9.23969 16.4931 9.35935 16.7324 9.59867L17.9013 10.7676C18.1406 11.0069 18.2603 11.1266 18.409 11.1266C18.5577 11.1266 18.6774 11.0069 18.9167 10.7676L19.011 10.6732C19.069 10.6153 19.098 10.5862 19.1214 10.5606C19.6262 10.0052 19.6262 9.15703 19.1214 8.60163C19.098 8.57597 19.069 8.5469 19.011 8.48895L19.0109 8.4888C18.953 8.43092 18.924 8.40195 18.8984 8.37864C18.343 7.87379 17.4948 7.87379 16.9394 8.37864C16.9138 8.40197 16.8848 8.43097 16.8268 8.48896L16.7324 8.58333C16.4931 8.82265 16.3734 8.94231 16.3734 9.091ZM15.7171 9.74736C15.8658 9.74736 15.9854 9.86702 16.2247 10.1063L17.3937 11.2753C17.633 11.5146 17.7526 11.6342 17.7526 11.7829C17.7526 11.9316 17.633 12.0513 17.3937 12.2906L16.4078 13.2765L16.4032 13.281C16.3005 13.3826 16.2662 13.4167 16.2271 13.444C16.2075 13.4578 16.1867 13.4698 16.1554 13.488C16.0977 13.5214 16.0043 13.5756 15.8168 13.6992C15.3229 14.0249 14.7698 14.2461 13.6636 14.6886L13.5051 14.752C12.9656 14.9678 12.6959 15.0757 12.5601 14.9399C12.4243 14.8041 12.5322 14.5344 12.748 13.9949L12.8114 13.8364C13.2539 12.7302 13.4751 12.1771 13.8008 11.6832C13.9244 11.4957 13.9786 11.4023 14.012 11.3446L14.012 11.3446C14.0302 11.3133 14.0422 11.2925 14.056 11.2729C14.0833 11.2338 14.1174 11.1995 14.219 11.0968L14.2235 11.0922L15.2094 10.1063L15.2094 10.1063C15.4487 9.86701 15.5684 9.74736 15.7171 9.74736Z" fill="black"/>
</svg>
