<svg width="24" height="24" viewBox="0 0 24 24" fill="none" xmlns="http://www.w3.org/2000/svg">
<path fill-rule="evenodd" clip-rule="evenodd" d="M5 4C4.44772 4 4 4.44772 4 5V5.91385C4 6.38172 4.16403 6.83479 4.46356 7.19422L8.07289 11.5254C8.67194 12.2443 9 13.1504 9 14.0861L9 19.382L10.4472 18.6584C10.786 18.489 11 18.1427 11 17.7639V16.3178C11.5059 17.0786 12.1807 17.7174 12.971 18.1804C12.8354 19.1492 12.2322 20.0019 11.3416 20.4472L9.17082 21.5326C8.17347 22.0313 7 21.3061 7 20.191L7 14.0862C7 13.6183 6.83597 13.1652 6.53644 12.8058L2.92711 8.47459C2.32806 7.75573 2 6.8496 2 5.91385V5C2 3.34315 3.34315 2 5 2H10H15H19C20.6569 2 22 3.34315 22 5V7C22 7.55228 21.5523 8 21 8C20.4477 8 20 7.55228 20 7V5C20 4.44772 19.5523 4 19 4H17.8293C17.9398 4.31278 18 4.64936 18 5V5.91385C18 6.37753 17.9194 6.83394 17.7653 7.26389C17.2072 7.09234 16.6144 7 16 7C15.8905 7 15.7817 7.00293 15.6737 7.00872C15.8857 6.68465 16 6.30441 16 5.91385V5C16 4.44771 15.5523 4 15 4H10H5ZM20 13C20 10.7909 18.2091 9 16 9C13.7909 9 12 10.7909 12 13C12 15.2091 13.7909 17 16 17C18.2091 17 20 15.2091 20 13ZM14 12.25H15.25H16.75H18C18.4142 12.25 18.75 12.5858 18.75 13C18.75 13.4142 18.4142 13.75 18 13.75H16.75H15.25H14C13.5858 13.75 13.25 13.4142 13.25 13C13.25 12.5858 13.5858 12.25 14 12.25Z" fill="black"/>
</svg>
