<svg width="24" height="24" viewBox="0 0 24 24" fill="none" xmlns="http://www.w3.org/2000/svg">
<path fill-rule="evenodd" clip-rule="evenodd" d="M5 4C4.44772 4 4 4.44772 4 5V5.91385C4 6.38172 4.16403 6.83479 4.46356 7.19422L8.07289 11.5254C8.67194 12.2443 9 13.1504 9 14.0861L9 19.382L10.4472 18.6584C10.786 18.489 11 18.1427 11 17.7639V16.3178C11.5059 17.0786 12.1807 17.7174 12.971 18.1804C12.8354 19.1492 12.2322 20.0019 11.3416 20.4472L9.17082 21.5326C8.17347 22.0313 7 21.3061 7 20.191L7 14.0862C7 13.6183 6.83597 13.1652 6.53644 12.8058L2.92711 8.47459C2.32806 7.75573 2 6.8496 2 5.91385V5C2 3.34315 3.34315 2 5 2H10H15H19C20.6569 2 22 3.34315 22 5V7C22 7.55228 21.5523 8 21 8C20.4477 8 20 7.55228 20 7V5C20 4.44772 19.5523 4 19 4H17.8293C17.9398 4.31278 18 4.64936 18 5V5.91385C18 6.37753 17.9194 6.83394 17.7653 7.26389C17.2072 7.09234 16.6144 7 16 7C15.8905 7 15.7817 7.00293 15.6737 7.00872C15.8857 6.68465 16 6.30441 16 5.91385V5C16 4.44771 15.5523 4 15 4H10H5ZM16 9.0498C14.3388 9.0498 12.9171 10.0753 12.3334 11.5278C12.0529 11.3885 11.7034 11.4358 11.4697 11.6695C11.1768 11.9624 11.1768 12.4372 11.4697 12.7301L12.2697 13.5301C12.513 13.7735 12.8908 13.82 13.1859 13.6429L14.1859 13.0429C14.5411 12.8298 14.6562 12.3691 14.4431 12.0139C14.3297 11.8249 14.1462 11.7039 13.9458 11.6641C14.3829 10.9933 15.1396 10.5498 16 10.5498C16.5801 10.5498 17.1113 10.7505 17.5309 11.0868C17.8541 11.3459 18.3261 11.2939 18.5852 10.9708C18.8443 10.6476 18.7923 10.1755 18.4691 9.91647C17.793 9.37449 16.9334 9.0498 16 9.0498ZM19.7303 12.4695C19.487 12.2261 19.1092 12.1796 18.8141 12.3567L17.8141 12.9567C17.4589 13.1698 17.3438 13.6305 17.5569 13.9857C17.6703 14.1747 17.8538 14.2957 18.0542 14.3355C17.6171 15.0063 16.8604 15.4498 16 15.4498C15.4208 15.4498 14.8903 15.2497 14.4711 14.9143C14.1476 14.6556 13.6756 14.708 13.4169 15.0315C13.1581 15.3549 13.2106 15.8269 13.534 16.0857C14.2097 16.6261 15.0681 16.9498 16 16.9498C17.6612 16.9498 19.0829 15.9243 19.6666 14.4718C19.9471 14.6111 20.2966 14.5638 20.5303 14.3301C20.8232 14.0372 20.8232 13.5624 20.5303 13.2695L19.7303 12.4695Z" fill="black"/>
</svg>
