<svg width="24" height="24" viewBox="0 0 24 24" fill="none" xmlns="http://www.w3.org/2000/svg">
<path d="M13.25 8.5V9.125C13.25 9.81536 13.8096 10.375 14.5 10.375H15.75C16.4404 10.375 17 9.81536 17 9.125V7.875C17 7.18464 16.4404 6.625 15.75 6.625H14.5C13.8096 6.625 13.25 7.18464 13.25 7.875V8.5ZM13.25 8.5H7M10.75 15.5V14.875C10.75 14.1846 10.1904 13.625 9.5 13.625H8.25C7.55964 13.625 7 14.1846 7 14.875V16.125C7 16.8154 7.55964 17.375 8.25 17.375H9.5C10.1904 17.375 10.75 16.8154 10.75 16.125V15.5ZM10.75 15.5H17M6 21H18C19.6569 21 21 19.6569 21 18V6C21 4.34315 19.6569 3 18 3H6C4.34315 3 3 4.34315 3 6V18C3 19.6569 4.34315 21 6 21Z" stroke="black" stroke-width="2" stroke-linecap="round" stroke-linejoin="round"/>
</svg>
