<svg width="24" height="24" viewBox="0 0 24 24" fill="none" xmlns="http://www.w3.org/2000/svg">
<path fill-rule="evenodd" clip-rule="evenodd" d="M5 4C4.44772 4 4 4.44772 4 5V5.91385C4 6.38172 4.16403 6.83479 4.46356 7.19422L8.07289 11.5254C8.67194 12.2443 9 13.1504 9 14.0861L9 19.382L10.4472 18.6584C10.786 18.489 11 18.1427 11 17.7639V16.3178C11.5059 17.0786 12.1807 17.7174 12.971 18.1804C12.8354 19.1492 12.2322 20.0019 11.3416 20.4472L9.17082 21.5326C8.17347 22.0313 7 21.3061 7 20.191L7 14.0862C7 13.6183 6.83597 13.1652 6.53644 12.8058L2.92711 8.47459C2.32806 7.75573 2 6.8496 2 5.91385V5C2 3.34315 3.34315 2 5 2H10H15H19C20.6569 2 22 3.34315 22 5V7C22 7.55228 21.5523 8 21 8C20.4477 8 20 7.55228 20 7V5C20 4.44772 19.5523 4 19 4H17.8293C17.9398 4.31278 18 4.64936 18 5V5.91385C18 6.37753 17.9194 6.83394 17.7653 7.26389C17.2072 7.09234 16.6144 7 16 7C15.8905 7 15.7817 7.00293 15.6737 7.00872C15.8857 6.68465 16 6.30441 16 5.91385V5C16 4.44771 15.5523 4 15 4H10H5ZM13.1716 10.1716C14.7337 8.60948 17.2663 8.60948 18.8284 10.1716C20.3905 11.7337 20.3905 14.2663 18.8284 15.8284C17.2663 17.3905 14.7337 17.3905 13.1716 15.8284C11.6095 14.2663 11.6095 11.7337 13.1716 10.1716ZM17.9445 11.0555C18.2374 11.3483 18.2374 11.8232 17.9445 12.1161L17.0607 13L17.9445 13.8839C18.2374 14.1768 18.2374 14.6516 17.9445 14.9445C17.6516 15.2374 17.1768 15.2374 16.8839 14.9445L16 14.0607L15.1161 14.9445C14.8232 15.2374 14.3483 15.2374 14.0555 14.9445C13.7626 14.6516 13.7626 14.1768 14.0555 13.8839L14.9393 13L14.0555 12.1161C13.7626 11.8232 13.7626 11.3483 14.0555 11.0555C14.3483 10.7626 14.8232 10.7626 15.1161 11.0555L16 11.9393L16.8839 11.0555C17.1768 10.7626 17.6516 10.7626 17.9445 11.0555Z" fill="black"/>
</svg>
