<svg width="24" height="24" viewBox="0 0 24 24" fill="none" xmlns="http://www.w3.org/2000/svg">
<path fill-rule="evenodd" clip-rule="evenodd" d="M6 2C3.79086 2 2 3.79086 2 6V18C2 20.2091 3.79086 22 6 22H18C20.2091 22 22 20.2091 22 18V6C22 3.79086 20.2091 2 18 2H6ZM4 6C4 4.89543 4.89543 4 6 4H18C19.1046 4 20 4.89543 20 6V18C20 19.1046 19.1046 20 18 20H6C4.89543 20 4 19.1046 4 18V6ZM12 6.5C11.4477 6.5 11 6.94772 11 7.5C11 8.05228 11.4477 8.5 12 8.5H17C17.5523 8.5 18 8.05228 18 7.5C18 6.94772 17.5523 6.5 17 6.5H12ZM7 11C6.44772 11 6 11.4477 6 12C6 12.5523 6.44772 13 7 13H12C12.5523 13 13 12.5523 13 12C13 11.4477 12.5523 11 12 11H7ZM12 15.5C11.4477 15.5 11 15.9477 11 16.5C11 17.0523 11.4477 17.5 12 17.5H17C17.5523 17.5 18 17.0523 18 16.5C18 15.9477 17.5523 15.5 17 15.5H12ZM10 7.5C10 8.60457 9.10457 9.5 8 9.5C6.89543 9.5 6 8.60457 6 7.5C6 6.39543 6.89543 5.5 8 5.5C9.10457 5.5 10 6.39543 10 7.5ZM18 12C18 13.1046 17.1046 14 16 14C14.8954 14 14 13.1046 14 12C14 10.8954 14.8954 10 16 10C17.1046 10 18 10.8954 18 12ZM8 18.5C9.10457 18.5 10 17.6046 10 16.5C10 15.3954 9.10457 14.5 8 14.5C6.89543 14.5 6 15.3954 6 16.5C6 17.6046 6.89543 18.5 8 18.5Z" fill="black"/>
</svg>
