<svg width="24" height="24" viewBox="0 0 24 24" fill="none" xmlns="http://www.w3.org/2000/svg">
<path d="M10.75 8.5V9.125C10.75 9.81536 10.1904 10.375 9.5 10.375H8.25C7.55964 10.375 7 9.81536 7 9.125V7.875C7 7.18464 7.55964 6.625 8.25 6.625H9.5C10.1904 6.625 10.75 7.18464 10.75 7.875V8.5ZM10.75 8.5H17M13.25 15.5V14.875C13.25 14.1846 13.8096 13.625 14.5 13.625H15.75C16.4404 13.625 17 14.1846 17 14.875V16.125C17 16.8154 16.4404 17.375 15.75 17.375H14.5C13.8096 17.375 13.25 16.8154 13.25 16.125V15.5ZM13.25 15.5H7M6 21H18C19.6569 21 21 19.6569 21 18V6C21 4.34315 19.6569 3 18 3H6C4.34315 3 3 4.34315 3 6V18C3 19.6569 4.34315 21 6 21Z" stroke="black" stroke-width="2" stroke-linecap="round" stroke-linejoin="round"/>
</svg>
