<svg width="24" height="24" viewBox="0 0 24 24" fill="none" xmlns="http://www.w3.org/2000/svg">
<path fill-rule="evenodd" clip-rule="evenodd" d="M6 2C3.79086 2 2 3.79086 2 6V18C2 20.2091 3.79086 22 6 22H18C20.2091 22 22 20.2091 22 18V6C22 3.79086 20.2091 2 18 2H6ZM4 6C4 4.89543 4.89543 4 6 4H18C19.1046 4 20 4.89543 20 6V18C20 19.1046 19.1046 20 18 20H6C4.89543 20 4 19.1046 4 18V6ZM8.5 7C8.5 6.44771 8.05229 6 7.5 6C6.94772 6 6.5 6.44771 6.5 7L6.5 14.2676C5.9022 14.6134 5.5 15.2597 5.5 16C5.5 17.1046 6.39543 18 7.5 18C8.60457 18 9.5 17.1046 9.5 16C9.5 15.2597 9.0978 14.6134 8.5 14.2676L8.5 7ZM17.5 7C17.5 6.44771 17.0523 6 16.5 6C15.9477 6 15.5 6.44771 15.5 7V14.2676C14.9022 14.6134 14.5 15.2597 14.5 16C14.5 17.1046 15.3954 18 16.5 18C17.6046 18 18.5 17.1046 18.5 16C18.5 15.2597 18.0978 14.6134 17.5 14.2676V7ZM11 9.73243C10.4022 9.38663 10 8.74028 10 8C10 6.89543 10.8954 6 12 6C13.1046 6 14 6.89543 14 8C14 8.74028 13.5978 9.38663 13 9.73243V17C13 17.5523 12.5523 18 12 18C11.4477 18 11 17.5523 11 17V9.73243Z" fill="black"/>
</svg>
