<svg width="24" height="24" viewBox="0 0 24 24" fill="none" xmlns="http://www.w3.org/2000/svg">
<path fill-rule="evenodd" clip-rule="evenodd" d="M6 2C3.79086 2 2 3.79086 2 6V18C2 20.2091 3.79086 22 6 22H18C20.2091 22 22 20.2091 22 18V6C22 3.79086 20.2091 2 18 2H6ZM4 6C4 4.89543 4.89543 4 6 4H18C19.1046 4 20 4.89543 20 6V18C20 19.1046 19.1046 20 18 20H6C4.89543 20 4 19.1046 4 18V6ZM7 6.5C6.44772 6.5 6 6.94772 6 7.5C6 8.05228 6.44772 8.5 7 8.5H12C12.5523 8.5 13 8.05228 13 7.5C13 6.94772 12.5523 6.5 12 6.5H7ZM12 11C11.4477 11 11 11.4477 11 12C11 12.5523 11.4477 13 12 13H17C17.5523 13 18 12.5523 18 12C18 11.4477 17.5523 11 17 11H12ZM7 15.5C6.44772 15.5 6 15.9477 6 16.5C6 17.0523 6.44772 17.5 7 17.5H12C12.5523 17.5 13 17.0523 13 16.5C13 15.9477 12.5523 15.5 12 15.5H7ZM14 7.5C14 8.60457 14.8954 9.5 16 9.5C17.1046 9.5 18 8.60457 18 7.5C18 6.39543 17.1046 5.5 16 5.5C14.8954 5.5 14 6.39543 14 7.5ZM6 12C6 13.1046 6.89543 14 8 14C9.10457 14 10 13.1046 10 12C10 10.8954 9.10457 10 8 10C6.89543 10 6 10.8954 6 12ZM16 18.5C14.8954 18.5 14 17.6046 14 16.5C14 15.3954 14.8954 14.5 16 14.5C17.1046 14.5 18 15.3954 18 16.5C18 17.6046 17.1046 18.5 16 18.5Z" fill="black"/>
</svg>
