<svg width="24" height="24" viewBox="0 0 24 24" fill="none" xmlns="http://www.w3.org/2000/svg">
<path fill-rule="evenodd" clip-rule="evenodd" d="M4.1143 5.61031C2.84371 3.6131 4.27841 0.999969 6.64553 1L17.3574 1.00014C19.4634 1.00017 20.8312 3.06848 20.2127 4.93121C19.648 4.57261 19.0193 4.30578 18.3475 4.15171C18.4363 3.57774 17.9999 3.00015 17.3574 3.00014L6.6455 3C5.85647 2.99999 5.37823 3.87103 5.80176 4.53677L10.3776 11.7293C10.7842 12.3685 11.001 13.11 11.0026 13.8675L11.017 20.2944L12.4735 19.4771C12.788 19.3006 12.9831 18.9685 12.9841 18.6079L12.9964 14.4683C13.5724 14.9848 14.2488 15.3916 14.9929 15.6558L14.9841 18.6139C14.9809 19.6956 14.3957 20.6918 13.4523 21.2212L11.253 22.4554C10.2544 23.0158 9.02148 22.2958 9.01893 21.1507L9.00265 13.8719C9.00181 13.4932 8.89342 13.1225 8.69012 12.8029L4.1143 5.61031ZM17.3734 7.341C17.3734 7.48969 17.4931 7.60935 17.7324 7.84867L18.9013 9.0176C19.1406 9.25692 19.2603 9.37658 19.409 9.37658C19.5577 9.37658 19.6773 9.25692 19.9167 9.0176L20.011 8.92323C20.069 8.86526 20.098 8.83624 20.1214 8.81057C20.6262 8.25517 20.6262 7.40703 20.1214 6.85163C20.098 6.82597 20.069 6.7969 20.011 6.73895L20.0109 6.73887L20.0109 6.7388L20.0108 6.73873C19.953 6.68089 19.924 6.65194 19.8984 6.62864C19.343 6.12379 18.4948 6.12379 17.9394 6.62864C17.9138 6.65197 17.8848 6.68097 17.8268 6.73896L17.7324 6.83333C17.4931 7.07265 17.3734 7.19231 17.3734 7.341ZM16.7171 7.99736C16.8658 7.99736 16.9854 8.11702 17.2247 8.35633L18.3937 9.52527C18.633 9.76458 18.7526 9.88424 18.7526 10.0329C18.7526 10.1816 18.633 10.3013 18.3937 10.5406L17.4078 11.5265L17.4032 11.531C17.3005 11.6326 17.2662 11.6667 17.2271 11.694C17.2075 11.7078 17.1867 11.7198 17.1554 11.738C17.0977 11.7714 17.0043 11.8256 16.8168 11.9492C16.3229 12.2749 15.7698 12.4961 14.6636 12.9386L14.5051 13.002C13.9656 13.2178 13.6959 13.3257 13.5601 13.1899C13.4243 13.0541 13.5322 12.7844 13.748 12.2449L13.8114 12.0864C14.2539 10.9802 14.4751 10.4271 14.8008 9.93315C14.9244 9.74571 14.9786 9.65232 15.012 9.59458L15.012 9.59457C15.0302 9.5633 15.0422 9.54249 15.056 9.52286C15.0833 9.48383 15.1174 9.44947 15.219 9.34677L15.2235 9.34218L16.2094 8.35633L16.2094 8.35633C16.4487 8.11701 16.5684 7.99736 16.7171 7.99736Z" fill="black"/>
</svg>
