<svg width="24" height="24" viewBox="0 0 24 24" fill="none" xmlns="http://www.w3.org/2000/svg">
<path d="M12.0005 6.51618L21.0005 6.5M12.0004 17.4943H3.00093M21.0007 17.9998L21.0006 16.9998C21.0005 15.8953 20.1051 15 19.0006 15H18.0008C16.8961 15 16.0006 15.8957 16.0008 17.0004L16.0009 18C16.0009 19.1045 16.8963 20 18.0009 20H19.0007C20.1053 20 21.0008 19.1045 21.0007 17.9998ZM7.99999 6V7C7.99999 8.10457 7.10456 9 5.99999 9H5C3.89543 9 3 8.10457 3 7L3 6C3 4.89543 3.89543 4 5 4L5.99999 4C7.10456 4 7.99999 4.89543 7.99999 6Z" stroke="black" stroke-width="2" stroke-linecap="round" stroke-linejoin="round"/>
</svg>
