<svg width="24" height="24" viewBox="0 0 24 24" fill="none" xmlns="http://www.w3.org/2000/svg">
<path fill-rule="evenodd" clip-rule="evenodd" d="M6 2C3.79086 2 2 3.79086 2 6V18C2 20.2091 3.79086 22 6 22H18C20.2091 22 22 20.2091 22 18V6C22 3.79086 20.2091 2 18 2H6ZM4 6C4 4.89543 4.89543 4 6 4H18C19.1046 4 20 4.89543 20 6V18C20 19.1046 19.1046 20 18 20H6C4.89543 20 4 19.1046 4 18V6ZM7 6.5C6.44772 6.5 6 6.94772 6 7.5C6 8.05228 6.44772 8.5 7 8.5H14.2676C14.6134 9.0978 15.2597 9.5 16 9.5C17.1046 9.5 18 8.60457 18 7.5C18 6.39543 17.1046 5.5 16 5.5C15.2597 5.5 14.6134 5.9022 14.2676 6.5H7ZM9.73244 13C9.38663 13.5978 8.74028 14 8 14C6.89543 14 6 13.1046 6 12C6 10.8954 6.89543 10 8 10C8.74028 10 9.38663 10.4022 9.73244 11H17C17.5523 11 18 11.4477 18 12C18 12.5523 17.5523 13 17 13H9.73244ZM7 15.5C6.44772 15.5 6 15.9477 6 16.5C6 17.0523 6.44772 17.5 7 17.5H14.2676C14.6134 18.0978 15.2597 18.5 16 18.5C17.1046 18.5 18 17.6046 18 16.5C18 15.3954 17.1046 14.5 16 14.5C15.2597 14.5 14.6134 14.9022 14.2676 15.5H7Z" fill="black"/>
</svg>
