<svg width="24" height="24" viewBox="0 0 24 24" fill="none" xmlns="http://www.w3.org/2000/svg">
<path fill-rule="evenodd" clip-rule="evenodd" d="M6.10505 3C5.37782 2.99999 4.89377 3.75158 5.19461 4.41367L8.64071 11.9981C8.87559 12.515 8.99772 13.076 8.99899 13.6438L9.01386 20.2944L10.4704 19.4771C10.7848 19.3006 10.9799 18.9685 10.981 18.6079L10.9907 15.3075C11.5009 16.0781 12.1842 16.7242 12.9852 17.1901L12.981 18.6138C12.9778 19.6956 12.3925 20.6918 11.4492 21.2212L9.24985 22.4554C8.25125 23.0158 7.01833 22.2957 7.01577 21.1507L6.999 13.6483C6.99836 13.3644 6.9373 13.0839 6.81986 12.8254L3.37375 5.241C2.47125 3.25473 3.92339 0.999964 6.10508 1L9.99856 1.00007L18.9976 1.00016C20.6544 1.00018 21.9976 2.34332 21.9976 4.00016V5.99995C21.9976 6.55223 21.5498 6.99995 20.9976 6.99995C20.4453 6.99995 19.9976 6.55223 19.9976 5.99995V4.00016C19.9976 3.44788 19.5498 3.00017 18.9976 3.00016L16.7213 3.00014C16.9688 3.69386 16.9656 4.48711 16.6227 5.24157L16.2751 6.00625C16.1831 6.00206 16.0906 5.99995 15.9976 5.99995C15.2641 5.99995 14.5613 6.13156 13.9117 6.37246L14.8019 4.41394C15.1029 3.75185 14.6189 3.00014 13.8916 3.00013L9.99853 3.00007L6.10505 3ZM13.1716 9.17157C14.7337 7.60948 17.2663 7.60948 18.8284 9.17157C20.3905 10.7337 20.3905 13.2663 18.8284 14.8284C17.2663 16.3905 14.7337 16.3905 13.1716 14.8284C11.6095 13.2663 11.6095 10.7337 13.1716 9.17157ZM17.9445 10.0555C18.2374 10.3483 18.2374 10.8232 17.9445 11.1161L17.0607 12L17.9445 12.8839C18.2374 13.1768 18.2374 13.6516 17.9445 13.9445C17.6516 14.2374 17.1768 14.2374 16.8839 13.9445L16 13.0607L15.1161 13.9445C14.8232 14.2374 14.3483 14.2374 14.0555 13.9445C13.7626 13.6516 13.7626 13.1768 14.0555 12.8839L14.9393 12L14.0555 11.1161C13.7626 10.8232 13.7626 10.3483 14.0555 10.0555C14.3483 9.76256 14.8232 9.76256 15.1161 10.0555L16 10.9393L16.8839 10.0555C17.1768 9.76256 17.6516 9.76256 17.9445 10.0555Z" fill="black"/>
</svg>
