<svg width="24" height="24" viewBox="0 0 24 24" fill="none" xmlns="http://www.w3.org/2000/svg">
<path fill-rule="evenodd" clip-rule="evenodd" d="M6.10505 3C5.37782 2.99999 4.89377 3.75158 5.19461 4.41367L8.64071 11.9981C8.87559 12.515 8.99772 13.076 8.99899 13.6438L9.01386 20.2944L10.4704 19.4771C10.7848 19.3006 10.9799 18.9685 10.981 18.6079L10.9907 15.3075C11.5009 16.0781 12.1842 16.7242 12.9852 17.1901L12.981 18.6138C12.9778 19.6956 12.3925 20.6918 11.4492 21.2212L9.24985 22.4554C8.25125 23.0158 7.01833 22.2957 7.01577 21.1507L6.999 13.6483C6.99836 13.3644 6.9373 13.0839 6.81986 12.8254L3.37375 5.241C2.47125 3.25473 3.92339 0.999964 6.10508 1L9.99856 1.00007L18.9976 1.00016C20.6544 1.00018 21.9976 2.34332 21.9976 4.00016V5.99995C21.9976 6.55223 21.5498 6.99995 20.9976 6.99995C20.4453 6.99995 19.9976 6.55223 19.9976 5.99995V4.00016C19.9976 3.44788 19.5498 3.00017 18.9976 3.00016L16.7213 3.00014C16.9688 3.69386 16.9656 4.48711 16.6227 5.24157L16.2751 6.00625C16.1831 6.00206 16.0906 5.99995 15.9976 5.99995C15.2641 5.99995 14.5613 6.13156 13.9117 6.37246L14.8019 4.41394C15.1029 3.75185 14.6189 3.00014 13.8916 3.00013L9.99853 3.00007L6.10505 3ZM16 7.7998C14.317 7.7998 12.8653 8.78966 12.1952 10.2189C11.8788 10.1563 11.538 10.2475 11.2929 10.4927C10.9024 10.8832 10.9024 11.5164 11.2929 11.9069L12.0929 12.7069C12.4174 13.0314 12.921 13.0934 13.3145 12.8573L14.3145 12.2573C14.7881 11.9732 14.9416 11.3589 14.6575 10.8853C14.5752 10.7481 14.4652 10.6378 14.339 10.5572C14.7423 10.0932 15.3369 9.7998 16 9.7998C16.5212 9.7998 16.9977 9.97983 17.3745 10.2819C17.8054 10.6273 18.4348 10.558 18.7802 10.1271C19.1257 9.69621 19.0564 9.06685 18.6255 8.72141C17.9066 8.14516 16.9923 7.7998 16 7.7998ZM19.9071 11.2927C19.5826 10.9682 19.079 10.9062 18.6855 11.1423L17.6855 11.7423C17.2119 12.0265 17.0584 12.6407 17.3425 13.1143C17.4248 13.2515 17.5348 13.3618 17.661 13.4424C17.2577 13.9064 16.6631 14.1998 16 14.1998C15.4796 14.1998 15.0038 14.0203 14.6272 13.7191C14.196 13.3741 13.5667 13.4441 13.2217 13.8753C12.8767 14.3066 12.9466 14.9359 13.3779 15.2809C14.0962 15.8555 15.0093 16.1998 16 16.1998C17.683 16.1998 19.1347 15.21 19.8048 13.7807C20.1212 13.8433 20.462 13.7521 20.7071 13.5069C21.0976 13.1164 21.0976 12.4832 20.7071 12.0927L19.9071 11.2927Z" fill="black"/>
</svg>
