<svg width="24" height="24" viewBox="0 0 24 24" fill="none" xmlns="http://www.w3.org/2000/svg">
<path fill-rule="evenodd" clip-rule="evenodd" d="M5 4C4.44772 4 4 4.44772 4 5V5.6202C4 6.20405 4.25513 6.75874 4.69842 7.13871L9.60317 11.3428C10.4897 12.1027 11 13.2121 11 14.3798V19.382L12.4472 18.6584C12.786 18.489 13 18.1427 13 17.7639V15.4722C13.5771 15.9887 14.2548 16.3952 15 16.6586V17.7639C15 18.9002 14.358 19.939 13.3416 20.4472L11.1708 21.5326C10.1735 22.0313 9 21.3061 9 20.191L9 14.3798C9 13.796 8.74487 13.2413 8.30158 12.8613L3.39683 8.65722C2.51025 7.89729 2 6.7879 2 5.6202V5C2 3.34315 3.34315 2 5 2H19C20.6568 2 22 3.34315 22 5V5.6202C22 6.17916 21.8831 6.72476 21.6639 7.22506C21.2003 6.65301 20.6336 6.16793 19.9921 5.79812C19.9973 5.73922 20 5.67986 20 5.6202V5C20 4.44772 19.5523 4 19 4H5ZM21 11C21 8.79086 19.2091 7 17 7C14.7909 7 13 8.79086 13 11C13 13.2091 14.7909 15 17 15C19.2091 15 21 13.2091 21 11ZM15 10.25H16.25H17.75H19C19.4142 10.25 19.75 10.5858 19.75 11C19.75 11.4142 19.4142 11.75 19 11.75H17.75H16.25H15C14.5858 11.75 14.25 11.4142 14.25 11C14.25 10.5858 14.5858 10.25 15 10.25Z" fill="black"/>
</svg>
