<svg width="24" height="24" viewBox="0 0 24 24" fill="none" xmlns="http://www.w3.org/2000/svg">
<path d="M21 7V5C21 3.89543 20.1046 3 19 3H10M10 3H5C3.89543 3 3 3.89543 3 5V5.91385C3 6.61566 3.24605 7.29526 3.69534 7.8344L7.07289 11.8875C7.67194 12.6063 8 13.5125 8 14.4482L8 20.191C8 20.5627 8.39116 20.8044 8.72361 20.6382L10.8944 19.5528C11.572 19.214 12 18.5215 12 17.7639V14.4482C12 13.5125 12.3281 12.6063 12.9271 11.8875L16.3047 7.8344C16.7539 7.29526 17 6.61566 17 5.91385V5C17 3.89543 16.1046 3 15 3H10Z" stroke="black" stroke-width="2" stroke-linecap="round" stroke-linejoin="round"/>
</svg>
