<svg width="24" height="24" viewBox="0 0 24 24" fill="none" xmlns="http://www.w3.org/2000/svg">
<path fill-rule="evenodd" clip-rule="evenodd" d="M6 2C3.79086 2 2 3.79086 2 6V18C2 20.2091 3.79086 22 6 22H18C20.2091 22 22 20.2091 22 18V6C22 3.79086 20.2091 2 18 2H6ZM4 6C4 4.89543 4.89543 4 6 4H18C19.1046 4 20 4.89543 20 6V18C20 19.1046 19.1046 20 18 20H6C4.89543 20 4 19.1046 4 18V6ZM13 7C13 6.44771 12.5523 6 12 6C11.4477 6 11 6.44771 11 7V14.2676C10.4022 14.6134 10 15.2597 10 16C10 17.1046 10.8954 18 12 18C13.1046 18 14 17.1046 14 16C14 15.2597 13.5978 14.6134 13 14.2676V7ZM15.5 9.73244C14.9022 9.38663 14.5 8.74028 14.5 8C14.5 6.89543 15.3954 6 16.5 6C17.6046 6 18.5 6.89543 18.5 8C18.5 8.74028 18.0978 9.38663 17.5 9.73243V17C17.5 17.5523 17.0523 18 16.5 18C15.9477 18 15.5 17.5523 15.5 17V9.73244ZM6.5 9.73243C5.9022 9.38663 5.5 8.74028 5.5 8C5.5 6.89543 6.39543 6 7.5 6C8.60457 6 9.5 6.89543 9.5 8C9.5 8.74028 9.0978 9.38663 8.5 9.73243L8.5 17C8.5 17.5523 8.05229 18 7.5 18C6.94772 18 6.5 17.5523 6.5 17L6.5 9.73243Z" fill="black"/>
</svg>
