<svg width="24" height="24" viewBox="0 0 24 24" fill="none" xmlns="http://www.w3.org/2000/svg">
<path d="M21 6V4.00021C21 2.89565 20.1046 2.00022 19 2.00021L10.001 2.00012M10.001 2.00012L6.10752 2.00005C4.65305 2.00003 3.68496 3.5032 4.28663 4.82739L7.73273 12.4118C7.90889 12.7995 8.00049 13.2202 8.00144 13.6461L8.01822 21.1485C8.01907 21.5302 8.43004 21.7702 8.76291 21.5834L10.9622 20.3492C11.5911 19.9962 11.9813 19.3321 11.9834 18.6109L11.9981 13.6452C11.9994 13.2199 12.091 12.7998 12.267 12.4126L15.7147 4.82781C16.3167 3.50362 15.3486 2.00021 13.8941 2.00018L10.001 2.00012Z" stroke="black" stroke-width="2" stroke-linecap="round" stroke-linejoin="round"/>
</svg>
