<svg width="24" height="24" viewBox="0 0 24 24" fill="none" xmlns="http://www.w3.org/2000/svg">
<path fill-rule="evenodd" clip-rule="evenodd" d="M5 4C4.44772 4 4 4.44772 4 5V5.6202C4 6.20405 4.25513 6.75874 4.69842 7.13871L9.25396 11.0435C10.3622 11.9934 11 13.3801 11 14.8397V19.382L12.4472 18.6584C12.786 18.489 13 18.1427 13 17.7639V15.4722C13.5771 15.9887 14.2548 16.3952 15 16.6586V17.7639C15 18.9002 14.358 19.939 13.3416 20.4472L11.1708 21.5326C10.1735 22.0313 9 21.3061 9 20.191L9 14.8397C9 13.964 8.61731 13.1319 7.95237 12.562L3.39683 8.65722C2.51025 7.89729 2 6.7879 2 5.6202V5C2 3.34315 3.34315 2 5 2H19C20.6568 2 22 3.34315 22 5V5.6202C22 6.17916 21.8831 6.72476 21.6639 7.22506C21.2003 6.65301 20.6336 6.16793 19.9921 5.79812C19.9973 5.73922 20 5.67986 20 5.6202V5C20 4.44772 19.5523 4 19 4H5ZM17.6234 8.591C17.6234 8.73969 17.7431 8.85935 17.9824 9.09867L19.1513 10.2676C19.3906 10.5069 19.5103 10.6266 19.659 10.6266C19.8077 10.6266 19.9274 10.5069 20.1667 10.2676L20.261 10.1732C20.319 10.1153 20.348 10.0862 20.3714 10.0606C20.8762 9.50517 20.8762 8.65703 20.3714 8.10163C20.348 8.07597 20.319 8.0469 20.261 7.98895L20.2609 7.98887L20.2609 7.9888L20.2608 7.98873C20.203 7.93089 20.174 7.90194 20.1484 7.87864C19.593 7.37379 18.7448 7.37379 18.1894 7.87864C18.1638 7.90197 18.1348 7.93097 18.0768 7.98896L17.9824 8.08333C17.7431 8.32265 17.6234 8.44231 17.6234 8.591ZM16.9671 9.24736C17.1158 9.24736 17.2354 9.36702 17.4747 9.60633L18.6437 10.7753C18.883 11.0146 19.0026 11.1342 19.0026 11.2829C19.0026 11.4316 18.883 11.5513 18.6437 11.7906L17.6578 12.7765L17.6532 12.781C17.5505 12.8826 17.5162 12.9167 17.4771 12.944C17.4575 12.9578 17.4367 12.9698 17.4055 12.9879L17.4054 12.988C17.3477 13.0214 17.2543 13.0756 17.0668 13.1992C16.5729 13.5249 16.0198 13.7461 14.9136 14.1886L14.7551 14.252C14.2156 14.4678 13.9459 14.5757 13.8101 14.4399C13.6743 14.3041 13.7822 14.0344 13.998 13.4949L14.0614 13.3364C14.5039 12.2302 14.7251 11.6771 15.0508 11.1832C15.1744 10.9957 15.2286 10.9023 15.262 10.8446L15.262 10.8446C15.2802 10.8133 15.2922 10.7925 15.306 10.7729C15.3333 10.7338 15.3674 10.6995 15.469 10.5968L15.4735 10.5922L16.4594 9.60633C16.6987 9.36702 16.8184 9.24736 16.9671 9.24736Z" fill="black"/>
</svg>
