<svg width="24" height="24" viewBox="0 0 24 24" fill="none" xmlns="http://www.w3.org/2000/svg">
<path d="M9.125 10.75H9.75C10.4404 10.75 11 10.1904 11 9.5V8.25C11 7.55964 10.4404 7 9.75 7H8.5C7.80964 7 7.25 7.55964 7.25 8.25V9.5C7.25 10.1904 7.80964 10.75 8.5 10.75H9.125ZM9.125 10.75V17M15 13.25H14.375C13.6846 13.25 13.125 13.8096 13.125 14.5V15.75C13.125 16.4404 13.6846 17 14.375 17H15.625C16.3154 17 16.875 16.4404 16.875 15.75V14.5C16.875 13.8096 16.3154 13.25 15.625 13.25H15ZM15 13.25V7M12 22C17.5228 22 22 17.5228 22 12C22 6.47715 17.5228 2 12 2C6.47715 2 2 6.47715 2 12C2 17.5228 6.47715 22 12 22Z" stroke="black" stroke-width="2" stroke-linecap="round" stroke-linejoin="round"/>
</svg>
