<svg width="24" height="24" viewBox="0 0 24 24" fill="none" xmlns="http://www.w3.org/2000/svg">
<path d="M8.60317 11.8027L4.04763 7.89796C3.38269 7.32802 3 6.49597 3 5.6202V5C3 3.89543 3.89543 3 5 3H19C20.1046 3 21 3.89543 21 5V5.6202C21 6.49597 20.6173 7.32802 19.9524 7.89796L15.3968 11.8027C14.5103 12.5626 14 13.672 14 14.8397V17.7639C14 18.5215 13.572 19.214 12.8944 19.5528L10.7236 20.6382C10.3912 20.8044 10 20.5627 10 20.191L10 14.8397C10 13.672 9.48975 12.5626 8.60317 11.8027Z" stroke="black" stroke-width="2" stroke-linecap="round" stroke-linejoin="round"/>
</svg>
