<svg width="24" height="24" viewBox="0 0 24 24" fill="none" xmlns="http://www.w3.org/2000/svg">
<path d="M5 17C6.10457 17 7 17.8954 7 19C7 20.1046 6.10457 21 5 21C3.89543 21 3 20.1046 3 19C3 17.8954 3.89543 17 5 17ZM5 17L5 3M12 7C10.8954 7 10 6.10457 10 5C10 3.89543 10.8954 3 12 3C13.1046 3 14 3.89543 14 5C14 6.10457 13.1046 7 12 7ZM12 7L12 21M19 17C20.1046 17 21 17.8954 21 19C21 20.1046 20.1046 21 19 21C17.8954 21 17 20.1046 17 19C17 17.8954 17.8954 17 19 17ZM19 17V3" stroke="black" stroke-width="2" stroke-linecap="round" stroke-linejoin="round"/>
</svg>
