<svg width="24" height="24" viewBox="0 0 24 24" fill="none" xmlns="http://www.w3.org/2000/svg">
<path fill-rule="evenodd" clip-rule="evenodd" d="M5 4C4.44772 4 4 4.44772 4 5V5.6202C4 6.20405 4.25513 6.75874 4.69842 7.13871L9.60317 11.3428C10.4897 12.1027 11 13.2121 11 14.3798V19.382L12.4472 18.6584C12.786 18.489 13 18.1427 13 17.7639V15.4722C13.5771 15.9887 14.2548 16.3952 15 16.6586V17.7639C15 18.9002 14.358 19.939 13.3416 20.4472L11.1708 21.5326C10.1735 22.0313 9 21.3061 9 20.191L9 14.3798C9 13.796 8.74487 13.2413 8.30158 12.8613L3.39683 8.65722C2.51025 7.89729 2 6.7879 2 5.6202V5C2 3.34315 3.34315 2 5 2H19C20.6568 2 22 3.34315 22 5V5.6202C22 6.17916 21.8831 6.72476 21.6639 7.22506C21.2003 6.65301 20.6336 6.16793 19.9921 5.79812C19.9973 5.73922 20 5.67986 20 5.6202V5C20 4.44772 19.5523 4 19 4H5ZM14.1716 8.17157C15.7337 6.60948 18.2663 6.60948 19.8284 8.17157C21.3905 9.73367 21.3905 12.2663 19.8284 13.8284C18.2663 15.3905 15.7337 15.3905 14.1716 13.8284C12.6095 12.2663 12.6095 9.73367 14.1716 8.17157ZM18.9445 9.05546C19.2374 9.34835 19.2374 9.82322 18.9445 10.1161L18.0607 11L18.9445 11.8839C19.2374 12.1768 19.2374 12.6516 18.9445 12.9445C18.6516 13.2374 18.1768 13.2374 17.8839 12.9445L17 12.0607L16.1161 12.9445C15.8232 13.2374 15.3483 13.2374 15.0555 12.9445C14.7626 12.6516 14.7626 12.1768 15.0555 11.8839L15.9393 11L15.0555 10.1161C14.7626 9.82322 14.7626 9.34835 15.0555 9.05546C15.3483 8.76256 15.8232 8.76256 16.1161 9.05546L17 9.93934L17.8839 9.05546C18.1768 8.76256 18.6516 8.76256 18.9445 9.05546Z" fill="black"/>
</svg>
