<svg width="24" height="24" viewBox="0 0 24 24" fill="none" xmlns="http://www.w3.org/2000/svg">
<path fill-rule="evenodd" clip-rule="evenodd" d="M4.1143 5.61031C2.84371 3.6131 4.27841 0.999969 6.64553 1L17.3574 1.00014C19.4634 1.00017 20.8312 3.06848 20.2127 4.93121C19.648 4.57261 19.0193 4.30578 18.3475 4.15171C18.4363 3.57774 17.9999 3.00015 17.3574 3.00014L6.6455 3C5.85647 2.99999 5.37823 3.87103 5.80176 4.53677L10.3776 11.7293C10.7842 12.3685 11.001 13.11 11.0026 13.8675L11.017 20.2944L12.4735 19.4771C12.788 19.3006 12.9831 18.9685 12.9841 18.6079L12.9964 14.4683C13.5724 14.9848 14.2488 15.3916 14.9929 15.6558L14.9841 18.6139C14.9809 19.6956 14.3957 20.6918 13.4523 21.2212L11.253 22.4554C10.2544 23.0158 9.02148 22.2958 9.01893 21.1507L9.00265 13.8719C9.00181 13.4932 8.89342 13.1225 8.69012 12.8029L4.1143 5.61031ZM17 6C19.2091 6 21 7.79086 21 10C21 12.2091 19.2091 14 17 14C14.7909 14 13 12.2091 13 10C13 7.79086 14.7909 6 17 6ZM17 7.25C17.4142 7.25 17.75 7.58579 17.75 8V9.25H19C19.4142 9.25 19.75 9.58579 19.75 10C19.75 10.4142 19.4142 10.75 19 10.75H17.75V12C17.75 12.4142 17.4142 12.75 17 12.75C16.5858 12.75 16.25 12.4142 16.25 12V10.75H15C14.5858 10.75 14.25 10.4142 14.25 10C14.25 9.58579 14.5858 9.25 15 9.25H16.25V8C16.25 7.58579 16.5858 7.25 17 7.25Z" fill="black"/>
</svg>
