<svg width="24" height="24" viewBox="0 0 24 24" fill="none" xmlns="http://www.w3.org/2000/svg">
<path d="M17 8.5H13.875M7 15.5H10.125M7 7.875V9.125C7 9.81536 7.55964 10.375 8.25 10.375H9.5C10.1904 10.375 10.75 9.81536 10.75 9.125V8.5V7.875C10.75 7.18464 10.1904 6.625 9.5 6.625H8.25C7.55964 6.625 7 7.18464 7 7.875ZM17 16.125V14.875C17 14.1846 16.4404 13.625 15.75 13.625H14.5C13.8096 13.625 13.25 14.1846 13.25 14.875V15.5V16.125C13.25 16.8154 13.8096 17.375 14.5 17.375H15.75C16.4404 17.375 17 16.8154 17 16.125ZM6 21H18C19.6569 21 21 19.6569 21 18V6C21 4.34315 19.6569 3 18 3H6C4.34315 3 3 4.34315 3 6V18C3 19.6569 4.34315 21 6 21Z" stroke="black" stroke-width="2" stroke-linecap="round" stroke-linejoin="round"/>
</svg>
