<svg width="24" height="24" viewBox="0 0 24 24" fill="none" xmlns="http://www.w3.org/2000/svg">
<path fill-rule="evenodd" clip-rule="evenodd" d="M4.1143 5.61031C2.84371 3.6131 4.27841 0.999969 6.64553 1L17.3574 1.00014C19.4634 1.00017 20.8312 3.06848 20.2127 4.93121C19.648 4.57261 19.0193 4.30578 18.3475 4.15171C18.4363 3.57774 17.9999 3.00015 17.3574 3.00014L6.6455 3C5.85647 2.99999 5.37823 3.87103 5.80176 4.53677L10.3776 11.7293C10.7842 12.3685 11.001 13.11 11.0026 13.8675L11.017 20.2944L12.4735 19.4771C12.788 19.3006 12.9831 18.9685 12.9841 18.6079L12.9964 14.4683C13.5724 14.9848 14.2488 15.3916 14.9929 15.6558L14.9841 18.6139C14.9809 19.6956 14.3957 20.6918 13.4523 21.2212L11.253 22.4554C10.2544 23.0158 9.02148 22.2958 9.01893 21.1507L9.00265 13.8719C9.00181 13.4932 8.89342 13.1225 8.69012 12.8029L4.1143 5.61031ZM17 6.0498C15.3388 6.0498 13.9171 7.07529 13.3334 8.52776C13.0529 8.38855 12.7034 8.43579 12.4697 8.66947C12.1768 8.96237 12.1768 9.43724 12.4697 9.73013L13.2697 10.5301C13.513 10.7735 13.8908 10.82 14.1859 10.6429L15.1859 10.0429C15.5411 9.82981 15.6562 9.36912 15.4431 9.01393C15.3297 8.82492 15.1462 8.70388 14.9458 8.6641C15.3829 7.99328 16.1396 7.5498 17 7.5498C17.5801 7.5498 18.1113 7.75049 18.5309 8.08684C18.8541 8.34592 19.3261 8.29395 19.5852 7.97076C19.8443 7.64757 19.7923 7.17555 19.4691 6.91647C18.793 6.37449 17.9334 6.0498 17 6.0498ZM20.7303 9.46947C20.487 9.22612 20.1092 9.17962 19.8141 9.35668L18.8141 9.95669C18.4589 10.1698 18.3438 10.6305 18.5569 10.9857C18.6703 11.1747 18.8538 11.2957 19.0542 11.3355C18.6171 12.0063 17.8604 12.4498 17 12.4498C16.4208 12.4498 15.8903 12.2497 15.4711 11.9143C15.1476 11.6556 14.6756 11.708 14.4169 12.0315C14.1581 12.3549 14.2106 12.8269 14.534 13.0857C15.2097 13.6261 16.0681 13.9498 17 13.9498C18.6612 13.9498 20.0829 12.9243 20.6666 11.4718C20.9471 11.6111 21.2966 11.5638 21.5303 11.3301C21.8232 11.0372 21.8232 10.5624 21.5303 10.2695L20.7303 9.46947Z" fill="black"/>
</svg>
