<svg width="24" height="24" viewBox="0 0 24 24" fill="none" xmlns="http://www.w3.org/2000/svg">
<path d="M10.75 14.875V14.25C10.75 13.5596 10.1904 13 9.5 13H8.25C7.55964 13 7 13.5596 7 14.25V15.5C7 16.1904 7.55964 16.75 8.25 16.75H9.5C10.1904 16.75 10.75 16.1904 10.75 15.5V14.875ZM10.75 14.875H17M13.25 9.125V9.75C13.25 10.4404 13.8096 11 14.5 11H15.75C16.4404 11 17 10.4404 17 9.75V8.5C17 7.80964 16.4404 7.25 15.75 7.25H14.5C13.8096 7.25 13.25 7.80964 13.25 8.5V9.125ZM13.25 9.125H7M2 12C2 17.5228 6.47715 22 12 22C17.5228 22 22 17.5228 22 12C22 6.47715 17.5228 2 12 2C6.47715 2 2 6.47715 2 12Z" stroke="black" stroke-width="2" stroke-linecap="round" stroke-linejoin="round"/>
</svg>
