<svg width="24" height="24" viewBox="0 0 24 24" fill="none" xmlns="http://www.w3.org/2000/svg">
<path d="M7.5 9H10.5C11.118 9 11.4708 8.29443 11.1 7.8L8.1 3.8C7.8 3.4 7.2 3.4 6.9 3.8L3.9 7.8C3.52918 8.29443 3.88197 9 4.5 9H7.5ZM7.5 9V21M15 10L15.75 8.02148M15.75 8.02148L17.5318 3.32095C17.6941 2.89302 18.3059 2.89302 18.4682 3.32095L20.25 8.02148M15.75 8.02148H20.25M20.25 8.02148L21 10M15 14H20.5C20.706 14 20.8236 14.2058 20.7 14.35L15.3 20.65C15.1764 20.7942 15.294 21 15.5 21H21" stroke="black" stroke-width="2" stroke-linecap="round" stroke-linejoin="round"/>
</svg>
