<svg width="24" height="24" viewBox="0 0 24 24" fill="none" xmlns="http://www.w3.org/2000/svg">
<path d="M8 8H5.56047C4.93159 8 4.58196 7.27255 4.97482 6.78148L7.41435 3.73206C7.71459 3.35676 8.28541 3.35676 8.58565 3.73206L11.0252 6.78148C11.418 7.27255 11.0684 8 10.4395 8H8ZM8 8V21M19 10V4.60355C19 4.38083 18.7307 4.26929 18.5732 4.42678L17.5 5.5M20 15C20 16.1046 19.1046 17 18 17C16.8954 17 16 16.1046 16 15C16 13.8954 16.8954 13 18 13C19.1046 13 20 13.8954 20 15ZM20 15V18C20 19.1046 19.1046 20 18 20C17.4027 20 16.8665 19.7381 16.5 19.3229" stroke="black" stroke-width="2" stroke-linecap="round" stroke-linejoin="round"/>
</svg>
