<svg width="24" height="24" viewBox="0 0 24 24" fill="none" xmlns="http://www.w3.org/2000/svg">
<path d="M7 8H4.56047C3.93159 8 3.58196 7.27255 3.97482 6.78148L6.41435 3.73206C6.71459 3.35676 7.28541 3.35676 7.58565 3.73206L10.0252 6.78148C10.418 7.27255 10.0684 8 9.43953 8H7ZM7 8V21M18.25 14.5H15.75C14.6454 14.5 13.75 15.3954 13.75 16.5V19C13.75 20.1046 14.6454 21 15.75 21H18.25C19.3546 21 20.25 20.1046 20.25 19V16.5C20.25 15.3954 19.3546 14.5 18.25 14.5ZM20.1451 8.50386L17.8682 4.51943C17.4843 3.84761 16.5157 3.84761 16.1318 4.51943L13.8549 8.50386C13.474 9.17052 13.9554 10 14.7232 10H19.2768C20.0446 10 20.526 9.17052 20.1451 8.50386Z" stroke="black" stroke-width="2" stroke-linecap="round" stroke-linejoin="round"/>
</svg>
