<svg width="24" height="24" viewBox="0 0 24 24" fill="none" xmlns="http://www.w3.org/2000/svg">
<path d="M12 17L9.41421 19.5858C8.63316 20.3668 7.36683 20.3668 6.58579 19.5858L4 17M8 16V3M19 10V4.60355C19 4.38083 18.7307 4.26929 18.5732 4.42678L17.5 5.5M20 15C20 16.1046 19.1046 17 18 17C16.8954 17 16 16.1046 16 15C16 13.8954 16.8954 13 18 13C19.1046 13 20 13.8954 20 15ZM20 15V18C20 19.1046 19.1046 20 18 20C17.4027 20 16.8665 19.7381 16.5 19.3229" stroke="black" stroke-width="2" stroke-linecap="round" stroke-linejoin="round"/>
</svg>
