<svg width="24" height="24" viewBox="0 0 24 24" fill="none" xmlns="http://www.w3.org/2000/svg">
<path d="M7.5 15H10.5C11.118 15 11.4708 15.7056 11.1 16.2L8.1 20.2C7.8 20.6 7.2 20.6 6.9 20.2L3.9 16.2C3.52918 15.7056 3.88197 15 4.5 15H7.5ZM7.5 15V3M15 10L15.75 8.02148M15.75 8.02148L17.5318 3.32095C17.6941 2.89302 18.3059 2.89302 18.4682 3.32095L20.25 8.02148M15.75 8.02148H20.25M20.25 8.02148L21 10M15 14H20.5C20.706 14 20.8236 14.2058 20.7 14.35L15.3 20.65C15.1764 20.7942 15.294 21 15.5 21H21" stroke="black" stroke-width="2" stroke-linecap="round" stroke-linejoin="round"/>
</svg>
