<svg width="24" height="24" viewBox="0 0 24 24" fill="none" xmlns="http://www.w3.org/2000/svg">
<path d="M6 16V14C6 12.3431 7.34315 11 9 11H10M6 16V19C6 20.6569 7.34315 22 9 22H15C16.6569 22 18 20.6569 18 19V16M6 16H18M18 16V14C18 12.3431 16.6569 11 15 11H14M10 11V10M10 11H14M14 11V10M4.7392 6.538L11.6025 2.24844C11.8457 2.09644 12.1543 2.09643 12.3975 2.24844L19.2608 6.538C19.4738 6.67112 19.3795 7 19.1283 7H4.8717C4.62053 7 4.5262 6.67112 4.7392 6.538Z" stroke="black" stroke-width="2" stroke-linecap="round" stroke-linejoin="round"/>
</svg>
