<svg width="24" height="24" viewBox="0 0 24 24" fill="none" xmlns="http://www.w3.org/2000/svg">
<path d="M10 17L7.41421 19.5858C6.63316 20.3668 5.36683 20.3668 4.58579 19.5858L2 17M6 16V3M19.25 14.5H16.75C15.6454 14.5 14.75 15.3954 14.75 16.5V19C14.75 20.1046 15.6454 21 16.75 21H19.25C20.3546 21 21.25 20.1046 21.25 19V16.5C21.25 15.3954 20.3546 14.5 19.25 14.5ZM21.1451 8.50386L18.8682 4.51943C18.4843 3.84761 17.5157 3.84761 17.1318 4.51943L14.8549 8.50386C14.474 9.17052 14.9554 10 15.7232 10H20.2768C21.0446 10 21.526 9.17052 21.1451 8.50386Z" stroke="black" stroke-width="2" stroke-linecap="round" stroke-linejoin="round"/>
</svg>
