<svg width="24" height="24" viewBox="0 0 24 24" fill="none" xmlns="http://www.w3.org/2000/svg">
<path d="M19.0001 2L13.7438 5.75449C12.7007 6.49956 11.2994 6.49956 10.2563 5.7545L5 2M6.00005 16V14C6.00005 12.3431 7.3432 11 9.00005 11H9.5M6.00005 16V19C6.00005 20.6569 7.3432 22 9.00005 22H15.0001C16.6569 22 18.0001 20.6569 18.0001 19V16M6.00005 16H18.0001M18.0001 16V14C18.0001 12.3431 16.6569 11 15.0001 11H14.5M9.5 11V10M9.5 11H14.5M14.5 11V10" stroke="black" stroke-width="2" stroke-linecap="round" stroke-linejoin="round"/>
</svg>
