<svg width="24" height="24" viewBox="0 0 24 24" fill="none" xmlns="http://www.w3.org/2000/svg">
<path d="M7 16H9.43953C10.0684 16 10.418 16.7274 10.0252 17.2185L7.58565 20.2679C7.28541 20.6432 6.71459 20.6432 6.41435 20.2679L3.97482 17.2185C3.58196 16.7274 3.93159 16 4.56047 16H7ZM7 16V3M15.75 14.5H18.25C19.3546 14.5 20.25 15.3954 20.25 16.5V19C20.25 20.1046 19.3546 21 18.25 21H15.75C14.6454 21 13.75 20.1046 13.75 19V16.5C13.75 15.3954 14.6454 14.5 15.75 14.5ZM20.1451 8.50386L17.8682 4.51943C17.4843 3.84761 16.5157 3.84761 16.1318 4.51943L13.8549 8.50386C13.474 9.17052 13.9554 10 14.7232 10H19.2768C20.0446 10 20.526 9.17052 20.1451 8.50386Z" stroke="black" stroke-width="2" stroke-linecap="round" stroke-linejoin="round"/>
</svg>
