<svg width="24" height="24" viewBox="0 0 24 24" fill="none" xmlns="http://www.w3.org/2000/svg">
<path d="M8 16H10.4395C11.0684 16 11.418 16.7274 11.0252 17.2185L8.58565 20.2679C8.28541 20.6432 7.71459 20.6432 7.41435 20.2679L4.97482 17.2185C4.58196 16.7274 4.93159 16 5.56047 16H8ZM8 16V3M19 10V4.60355C19 4.38083 18.7307 4.26929 18.5732 4.42678L17.5 5.5M20 15C20 16.1046 19.1046 17 18 17C16.8954 17 16 16.1046 16 15C16 13.8954 16.8954 13 18 13C19.1046 13 20 13.8954 20 15ZM20 15V18C20 19.1046 19.1046 20 18 20C17.4027 20 16.8665 19.7381 16.5 19.3229" stroke="black" stroke-width="2" stroke-linecap="round" stroke-linejoin="round"/>
</svg>
