<svg width="24" height="24" viewBox="0 0 24 24" fill="none" xmlns="http://www.w3.org/2000/svg">
<path d="M3 11V20C3 20.5523 3.44772 21 4 21H6C6.55228 21 7 20.5523 7 20V9H5C3.89543 9 3 9.89543 3 11Z" stroke="black" stroke-width="2" stroke-linecap="round" stroke-linejoin="round"/>
<path d="M13 3H10H8.5C8.22386 3 8 3.22386 8 3.5V5.5C8 5.77614 8.22386 6 8.5 6H10V20C10 20.5523 10.4477 21 11 21H13C13.5523 21 14 20.5523 14 20V4C14 3.44772 13.5523 3 13 3Z" stroke="black" stroke-width="2" stroke-linecap="round" stroke-linejoin="round"/>
<path d="M17 9V20C17 20.5523 17.4477 21 18 21H20C20.5523 21 21 20.5523 21 20V11C21 9.89543 20.1046 9 19 9H17Z" stroke="black" stroke-width="2" stroke-linecap="round" stroke-linejoin="round"/>
</svg>
