<svg width="24" height="24" viewBox="0 0 24 24" fill="none" xmlns="http://www.w3.org/2000/svg">
<path d="M4 19C4 19 6 22 11 22C14.5 22 16 21 16 21M19 21.5L20 19L17.5 18.5M11 2C6.5 2 5.5 5 5.5 5L8 6.5C8 6.5 9.5 4.5 11.5 5C13.755 5.56375 12.5 8 12.5 8C12.5 8 2.7751 9.35642 6 15C8 18.5 13 16.5 13 16.5L14 17L17 15C17 15 16.2906 14.8235 16 14C15.2202 11.7904 16 8.5 16 6C16 5 15 2 11 2ZM12.5 11C12.5 11 9.3197 10.8944 8.5 12.5C7.87544 13.7234 9.37601 14.8645 10.5 14.5C12.4024 13.883 12.5 11 12.5 11Z" stroke="black" stroke-width="2" stroke-linecap="round" stroke-linejoin="round"/>
</svg>
