<svg width="24" height="24" viewBox="0 0 24 24" fill="none" xmlns="http://www.w3.org/2000/svg">
<path d="M12 14L8.91459 20.1708C8.6605 20.679 8.14111 21 7.57295 21H3.80902C3.43733 21 3.19558 20.6088 3.3618 20.2764L6.08541 14.8292C6.3395 14.321 6.85889 14 7.42705 14H12ZM12 14L15.0854 20.1708C15.3395 20.679 15.8589 21 16.4271 21H20.191C20.5627 21 20.8044 20.6088 20.6382 20.2764L12.4472 3.89443C12.263 3.5259 11.737 3.5259 11.5528 3.89443L9.58541 7.82918C9.37426 8.25147 9.37426 8.74853 9.58541 9.17082L12 14Z" stroke="black" stroke-width="2" stroke-linecap="round" stroke-linejoin="round"/>
</svg>
