<svg width="24" height="24" viewBox="0 0 24 24" fill="none" xmlns="http://www.w3.org/2000/svg">
<path d="M21 11L21.6969 13.7877C21.8725 14.49 21.5214 15.2175 20.8624 15.5171L12.3765 19.3743C11.5107 19.7679 10.5096 19.7275 9.67821 19.2657L3.00581 15.5588C2.4125 15.2292 2.11445 14.5422 2.27906 13.8837L3 11M21 11L12.2508 14.4997C11.4552 14.8179 10.5615 14.7807 9.79503 14.3975L3 11M21 11L20.75 10M3 11L3.25 10M17 5L17.6902 7.76069C17.8687 8.47494 17.5025 9.2132 16.8258 9.50321L12.2789 11.4519C11.4678 11.7995 10.5448 11.7724 9.7555 11.3777L8.07623 10.5381C7.4474 10.2237 7.12132 9.51473 7.29183 8.83267L8 6M17 5L11.9487 6.68377C11.3329 6.88904 10.6671 6.88904 10.0513 6.68377L8 6M17 5L16.75 4M8 6L8.25 5" stroke="black" stroke-width="2" stroke-linecap="round" stroke-linejoin="round"/>
</svg>
