<svg width="24" height="24" viewBox="0 0 24 24" fill="none" xmlns="http://www.w3.org/2000/svg">
<path d="M14.9048 12C15.2407 11.8972 15.5562 11.8135 15.8571 11.7485M15.8571 11.7485C17.6913 11.3524 17.9865 11.6501 20.0952 12.5385L22 10.3846L20.0952 9.30769V8.23077L17.7143 7.15385L18.1905 5L15.3333 6.07692C15.3333 6.07692 9.93601 3.82905 6.7619 6.07692C3.5878 8.3248 2.5903 11.251 2 19H5.33333L4.85714 17.3846L5.7619 12.5385M15.8571 11.7485V16.8462L17.2857 19H13.9524L12 14.6519M12.5238 13.6154L10.619 17.3846L11.0952 19H8.47619L7.52381 15.7692M7.52381 15.7692L8.95238 12.5385M7.52381 15.7692H5.15873" stroke="black" stroke-width="2" stroke-linecap="round" stroke-linejoin="round"/>
</svg>
