<svg width="24" height="24" viewBox="0 0 24 24" fill="none" xmlns="http://www.w3.org/2000/svg">
<path d="M7.9542 6.32115C8.98205 5.92703 10.3092 5.74679 12 5.73564C13.6908 5.74679 15.0179 5.9275 16.0458 6.32162M7.9542 6.32115C5.90223 3.88025 4.41396 3.35821 2.89695 4.78468C1.12546 6.45044 2.0599 8.1539 4.97822 10.4903M7.9542 6.32115C6.18371 7.00003 5.30129 8.31347 4.97822 10.4903M4.97822 10.4903C4.78915 11.7643 4.2885 13.4988 4.91984 15.2452C5.47082 16.7693 6.00208 17.7285 7.45986 18.5271M16.0458 6.32162C18.0978 3.88071 19.586 3.35867 21.1031 4.78515C22.8745 6.45091 21.9401 8.15436 19.0218 10.4908M16.0458 6.32162C17.8163 7.00049 18.6987 8.31393 19.0218 10.4908M19.0218 10.4908C19.2109 11.7647 19.7116 13.4993 19.0802 15.2457C18.5292 16.7697 17.9979 17.7288 16.5401 18.5273M7.45986 18.5271C7.85513 18.7436 8.49202 18.9796 9.1653 19.198C11.0064 19.7951 12.9937 19.7952 14.8347 19.1981C15.508 18.9797 16.1449 18.7438 16.5401 18.5273M7.45986 18.5271C7.54958 14.6834 9.18937 13.4151 12 13.3438M12 13.3438C14.8106 13.4151 16.4504 14.6836 16.5401 18.5273M12 13.3438L12 15.5M9 10V10.01M15 10V10.01" stroke="black" stroke-width="2" stroke-linecap="round" stroke-linejoin="round"/>
</svg>
