<svg width="24" height="24" viewBox="0 0 24 24" fill="none" xmlns="http://www.w3.org/2000/svg">
<path d="M8.35878 5.08904C9.28385 4.73433 10.4783 4.57211 12 4.56208C13.5217 4.57211 14.7162 4.73475 15.6412 5.08945M8.35878 5.08904C6.51201 2.89223 5.17257 2.42239 3.80725 3.70621C2.21291 5.2054 3.05391 6.73851 5.6804 8.84127M8.35878 5.08904C6.76534 5.70002 5.97116 6.88212 5.6804 8.84127M5.6804 8.84127C5.51023 9.98784 5.05965 11.5489 5.62786 13.1207C6.12374 14.4924 7.05 14.7 7.91387 16.0744M15.6412 5.08945C17.488 2.89264 18.8274 2.42281 20.1927 3.70663C21.7871 5.20582 20.9461 6.73892 18.3196 8.84169M15.6412 5.08945C17.2347 5.70044 18.0288 6.88254 18.3196 8.84169M18.3196 8.84169C18.4898 9.98826 18.9404 11.5493 18.3721 13.1211C17.8762 14.4927 16.95 14.7 16.0861 16.0745M7.91387 16.0744C7.90077 16.6354 8.4548 17.5475 9.17268 18.4368C10.7431 20.3823 13.2569 20.3823 14.8273 18.4368C15.5452 17.5475 16.0992 16.6355 16.0861 16.0745M7.91387 16.0744C7.99462 12.615 9.20551 11.1 12 11.1C14.7945 11.1 16.0054 12.6152 16.0861 16.0745M12 15.6L12 14.1797M12 15.6L11.1 16.5M12 15.6L12.9 16.5M9.3 8.4V8.409M14.7 8.4V8.409M12 14.1797H11.1M12 14.1797H12.9" stroke="black" stroke-width="2" stroke-linecap="round" stroke-linejoin="round"/>
</svg>
