<svg width="24" height="24" viewBox="0 0 24 24" fill="none" xmlns="http://www.w3.org/2000/svg">
<path d="M12 8H17.5C18.3284 8 19 8.67157 19 9.5V14.5C19 15.3284 18.3284 16 17.5 16H6.5C5.67157 16 5 15.3284 5 14.5V9.5C5 8.67157 5.67157 8 6.5 8H12ZM12 8L14.4142 5.58579C14.7893 5.21071 15.298 5 15.8284 5H19C20.6569 5 22 6.34315 22 8V16C22 17.6569 20.6569 19 19 19H5C3.34315 19 2 17.6569 2 16V8C2 6.34315 3.34315 5 5 5H8.17157C8.70201 5 9.21071 5.21071 9.58579 5.58579L12 8ZM16 11.5V12.5C16 12.7761 15.7761 13 15.5 13H14.5C14.2239 13 14 12.7761 14 12.5V11.5C14 11.2239 14.2239 11 14.5 11H15.5C15.7761 11 16 11.2239 16 11.5ZM10 11.5V12.5C10 12.7761 9.77614 13 9.5 13H8.5C8.22386 13 8 12.7761 8 12.5V11.5C8 11.2239 8.22386 11 8.5 11H9.5C9.77614 11 10 11.2239 10 11.5Z" stroke="black" stroke-width="2" stroke-linecap="round" stroke-linejoin="round"/>
</svg>
