<svg width="24" height="24" viewBox="0 0 24 24" fill="none" xmlns="http://www.w3.org/2000/svg">
<path d="M11 10.7431C11 11.2954 11.4477 11.7431 12 11.7431C12.5523 11.7431 13 11.2954 13 10.7431H11ZM14.2015 10.0573L13.9815 11.0328L13.9815 11.0328L14.2015 10.0573ZM14.8889 10.2123L15.109 9.23685L15.1089 9.23682L14.8889 10.2123ZM19 15.417H20H19ZM19 16.6684H18H19ZM9.375 19.3342V18.3342V19.3342ZM7.625 19.3342V18.3342V19.3342ZM7.625 16.6684V17.6684H7.625L7.625 16.6684ZM10.0501 16.6684V15.6684H10.0501L10.0501 16.6684ZM10.5903 16.6684L10.5903 17.6684H10.5903V16.6684ZM6.3125 16.6684V15.6684V16.6684ZM6.3125 14.0026V13.0026V14.0026ZM8.0625 14.0026V13.0026V14.0026ZM10.0556 14.0026V15.0026V14.0026ZM8.0625 11.3368V10.3368V11.3368ZM10.0556 11.3368V12.3368H10.0556L10.0556 11.3368ZM11.3626 12.3368C11.9149 12.3368 12.3626 11.889 12.3626 11.3368C12.3626 10.7845 11.9149 10.3368 11.3626 10.3368L11.3626 12.3368ZM9.375 22V21V22ZM8.0625 20.6671H7.0625H8.0625ZM13.75 22V23V22ZM14.9444 13.1093C14.9444 12.5571 14.4967 12.1093 13.9444 12.1093C13.3922 12.1093 12.9444 12.5571 12.9444 13.1093H14.9444ZM13.9444 14.5636H12.9444H13.9444ZM11.3626 12.3718H12.3626H11.3626ZM11.3626 14.5636H10.3626H11.3626ZM12.7778 20.6671H11.7778H12.7778ZM11.4713 19.3342L11.4758 18.3342H11.4713V19.3342ZM13 10.7431V7H11V10.7431H13ZM13.9815 11.0328L14.6689 11.1878L15.1089 9.23682L14.4215 9.08179L13.9815 11.0328ZM18 15.417V16.6684H20V15.417H18ZM9.375 20.3342H10.5903V18.3342H9.375V20.3342ZM9.375 18.3342H7.625V20.3342H9.375V18.3342ZM7.625 17.6684L10.0501 17.6684L10.0501 15.6684L7.625 15.6684L7.625 17.6684ZM10.0501 17.6684L10.5903 17.6684L10.5903 15.6684L10.0501 15.6684L10.0501 17.6684ZM7.625 15.6684H6.3125V17.6684H7.625V15.6684ZM6.3125 15.0026H8.0625V13.0026H6.3125V15.0026ZM8.0625 15.0026H10.0501V13.0026H8.0625V15.0026ZM10.0501 15.0026H10.0556V13.0026H10.0501V15.0026ZM8.0625 12.3368H10.0556V10.3368H8.0625V12.3368ZM10.0556 12.3368L11.3626 12.3368L11.3626 10.3368L10.0556 10.3368L10.0556 12.3368ZM7.75 12.6697C7.75 12.4712 7.9044 12.3368 8.0625 12.3368V10.3368C6.77085 10.3368 5.75 11.3958 5.75 12.6697H7.75ZM6.3125 15.6684C6.1544 15.6684 6 15.5339 6 15.3355H4C4 16.6093 5.02085 17.6684 6.3125 17.6684V15.6684ZM7.3125 18.0013C7.3125 17.8028 7.4669 17.6684 7.625 17.6684V15.6684C6.33335 15.6684 5.3125 16.7275 5.3125 18.0013H7.3125ZM7.625 18.3342C7.4669 18.3342 7.3125 18.1998 7.3125 18.0013H5.3125C5.3125 19.2751 6.33335 20.3342 7.625 20.3342V18.3342ZM9.375 21C9.2169 21 9.0625 20.8656 9.0625 20.6671H7.0625C7.0625 21.9409 8.08335 23 9.375 23V21ZM8.0625 13.0026C7.9044 13.0026 7.75 12.8681 7.75 12.6697H5.75C5.75 13.9435 6.77085 15.0026 8.0625 15.0026V13.0026ZM18 16.6684C18 19.0753 16.0827 21 13.75 21V23C17.2163 23 20 20.1506 20 16.6684H18ZM14.6687 11.1878C16.6051 11.6248 18 13.3755 18 15.417H20C20 12.4607 17.9768 9.88405 15.109 9.23685L14.6687 11.1878ZM9.0625 20.6671C9.0625 20.4686 9.21689 20.3342 9.375 20.3342V18.3342C8.08336 18.3342 7.0625 19.3933 7.0625 20.6671H9.0625ZM6 15.3355C6 15.137 6.1544 15.0026 6.3125 15.0026V13.0026C5.02085 13.0026 4 14.0617 4 15.3355H6ZM13.75 21H11.4653V23H13.75V21ZM11.4653 21H9.375V23H11.4653V21ZM12.9444 13.1093V14.5636H14.9444V13.1093H12.9444ZM10.3626 12.3718V12.5471H12.3626V12.3718H10.3626ZM10.3626 12.5471V12.7922H12.3626V12.5471H10.3626ZM10.3626 12.7922V14.5636H12.3626V12.7922H10.3626ZM12.3586 12.4577C12.2529 11.2808 11.2747 10.3368 10.0556 10.3368V12.3368C10.2048 12.3368 10.3504 12.456 10.3666 12.6365L12.3586 12.4577ZM10.0556 15.0026C11.2747 15.0026 12.2529 14.0585 12.3586 12.8817L10.3666 12.7028C10.3504 12.8834 10.2048 13.0026 10.0556 13.0026V15.0026ZM12.3626 15.3355C12.3626 14.0616 11.3417 13.0026 10.0501 13.0026V15.0026C10.2082 15.0026 10.3626 15.137 10.3626 15.3355H12.3626ZM10.0501 17.6684C11.3417 17.6684 12.3626 16.6093 12.3626 15.3355H10.3626C10.3626 15.5339 10.2082 15.6684 10.0501 15.6684V17.6684ZM12.9028 18.0013C12.9028 16.7275 11.8819 15.6684 10.5903 15.6684V17.6684C10.7484 17.6684 10.9028 17.8028 10.9028 18.0013H12.9028ZM10.5903 20.3342C11.8819 20.3342 12.9028 19.2751 12.9028 18.0013H10.9028C10.9028 18.1998 10.7484 18.3342 10.5903 18.3342V20.3342ZM11.4653 23C12.7569 23 13.7778 21.9409 13.7778 20.6671H11.7778C11.7778 20.8656 11.6234 21 11.4653 21V23ZM13.7778 20.6671C13.7778 19.3967 12.7626 18.34 11.4758 18.3342L11.4667 20.3342C11.6242 20.3349 11.7778 20.4692 11.7778 20.6671H13.7778ZM10.5903 20.3342H11.4713V18.3342H10.5903V20.3342ZM12.9444 14.5636C12.9444 14.7509 12.7992 14.8753 12.6535 14.8753V16.8753C13.9337 16.8753 14.9444 15.8252 14.9444 14.5636H12.9444ZM12.6535 14.8753C12.5078 14.8753 12.3626 14.7509 12.3626 14.5636H10.3626C10.3626 15.8252 11.3733 16.8753 12.6535 16.8753V14.8753ZM14.4215 9.08179C12.3195 8.6077 10.3626 10.2346 10.3626 12.3718H12.3626C12.3626 11.476 13.1695 10.8497 13.9815 11.0328L14.4215 9.08179Z" fill="black"/>
<path fill-rule="evenodd" clip-rule="evenodd" d="M11.9866 8C13.9198 8 15.5043 6.433 15.5043 4.5C15.5043 2.567 13.9353 1 12.0022 1C10.069 1 8.5 2.57385 8.5 4.50684C8.5 6.4323 10.061 8 11.9866 8ZM12.375 3C12.375 2.79289 12.2071 2.625 12 2.625C11.7929 2.625 11.625 2.79289 11.625 3V3.01875C11.1971 3.10562 10.875 3.48395 10.875 3.9375C10.875 4.45527 11.2947 4.875 11.8125 4.875H12.1875C12.2911 4.875 12.375 4.95895 12.375 5.0625C12.375 5.16605 12.2911 5.25 12.1875 5.25H12H11.25C11.0429 5.25 10.875 5.41789 10.875 5.625C10.875 5.83211 11.0429 6 11.25 6H11.625C11.625 6.20711 11.7929 6.375 12 6.375C12.2071 6.375 12.375 6.20711 12.375 6V5.98125C12.8029 5.89438 13.125 5.51606 13.125 5.0625C13.125 4.54473 12.7053 4.125 12.1875 4.125H11.8125C11.7089 4.125 11.625 4.04105 11.625 3.9375C11.625 3.83395 11.7089 3.75 11.8125 3.75H12H12.75C12.9571 3.75 13.125 3.58211 13.125 3.375C13.125 3.16789 12.9571 3 12.75 3H12.375Z" fill="black"/>
</svg>
