<svg width="24" height="24" viewBox="0 0 24 24" fill="none" xmlns="http://www.w3.org/2000/svg">
<path d="M17.0722 8H6.92769M17.0722 8C18.985 6.52023 19.1815 5.47405 17.0721 3C23.1406 4 21.4067 9.5 17.0722 11M17.0722 8V11M6.92769 8C5.01484 6.52023 4.81829 5.47405 6.92766 3C0.85925 4 2.59351 9.5 6.92809 11M6.92769 8L6.92809 11M17.0722 11L17.0722 12.9885C17.0722 13.6447 16.857 14.2828 16.4598 14.805L14.6415 17.195C14.2442 17.7172 14.0291 18.3553 14.0291 19.0114V19.5C14.0291 20.3284 13.3575 21 12.5291 21H11.4717C10.6432 21 9.97167 20.3284 9.97167 19.5V19.0116C9.97167 18.3553 9.7565 17.7172 9.35912 17.195L7.54063 14.805C7.14326 14.2828 6.92809 13.6447 6.92809 12.9884V11M9.97167 17.5C11.5 16 12.5 16 14.0291 17.5" stroke="black" stroke-width="2" stroke-linecap="round" stroke-linejoin="round"/>
</svg>
