<svg width="24" height="24" viewBox="0 0 24 24" fill="none" xmlns="http://www.w3.org/2000/svg">
<path d="M3 8.6317C5.73217 8.30174 5.7239 9.55282 5.08998 10.5264C4.45605 11.5 4.17686 13.5682 5.43099 13.8948M9.02513 17.2106C8.07674 17.5183 7.51963 18.2348 6.73298 20.1572C6.52667 20.6614 6.04158 21 5.49684 21V21C4.70394 21 4.09046 20.2989 4.20699 19.5146C4.96311 14.4256 5.76378 13.1331 8.92891 12.5264C10.2924 12.334 12.6006 11.7462 13.4937 10.6317C14 10 15.5104 8.2503 14 8.6317C12.1548 9.09762 11.6303 8.06109 11 7L13.4937 4.89492M9.02513 17.2106C10.1658 16.514 10.5 16 10.8703 15M9.02513 17.2106C10.583 17.3323 11.6308 17.4331 13 17L13.2697 19.7139C13.3423 20.4439 13.9564 21 14.6899 21V21C15.4782 21 16.1172 20.361 16.1172 19.5728V14.3685M13.4937 4.89492C14.8832 3.92231 16.1172 4.38962 16.9917 4.89492M13.4937 4.89492C12.0868 4.68633 11.5258 4.31075 10.8703 3M16.9917 4.89492C21.5 7.5 20.8173 13.3213 16.1172 17M16.9917 4.89492C18.3264 4.68286 18.9155 4.29338 19.6151 3M19.6151 12.3363C20.6482 14.5952 21.3464 16.5321 20.8205 18.215C20.6616 18.7236 20.1451 19 19.6123 19H19.5053C18.8026 19 18.3104 18.2847 18.3992 17.5876C18.5061 16.7491 18.4428 15.8404 18.0458 15.1091" stroke="black" stroke-width="2" stroke-linecap="round" stroke-linejoin="round"/>
</svg>
