<svg width="24" height="24" viewBox="0 0 24 24" fill="none" xmlns="http://www.w3.org/2000/svg">
<path d="M8.25 7.73684C8.25 9.1579 3 10.5789 3 14.3684C3 17.2105 5.1875 21 10 21C14.8125 21 17 17.2105 17 14.3684C17 10.5789 11.75 9.1579 11.75 7.73684M8.25 7.73684C8.25 6.62633 6.64692 5.8051 6.36387 4.3689C6.20197 3.54744 7.05597 3 7.89324 3H12.1068C12.944 3 13.798 3.54744 13.6361 4.3689C13.3531 5.8051 11.75 6.62633 11.75 7.73684M8.25 7.73684H11.75M11.6154 12.2647H10M10 12.2647H9.59615C8.92704 12.2647 8.38462 12.798 8.38462 13.4559C8.38462 14.1138 8.92704 14.6471 9.59615 14.6471H10.4038C11.073 14.6471 11.6154 15.1804 11.6154 15.8382C11.6154 16.4961 11.073 17.0294 10.4038 17.0294H10M10 12.2647V11.4706M10 17.0294H8.38462M10 17.0294V17.8235M19 4V10M19 4L21 6M19 4L17 6" stroke="black" stroke-width="2" stroke-linecap="round" stroke-linejoin="round"/>
</svg>
