<svg width="24" height="24" viewBox="0 0 24 24" fill="none" xmlns="http://www.w3.org/2000/svg">
<path fill-rule="evenodd" clip-rule="evenodd" d="M13.1314 4.2149C13.2215 4.0638 13.3484 3.91567 13.4808 3.7611C13.7294 3.47097 13.9974 3.15817 14.078 2.7605C14.1705 2.30413 13.6825 2 13.2041 2H10.7963C10.3179 2 9.8299 2.30413 9.92241 2.7605C10.003 3.15817 10.271 3.47097 10.5196 3.76109L10.5196 3.7611C10.652 3.91566 10.7789 4.0638 10.869 4.2149H13.1314ZM12.0002 12C9.2502 12 8.0002 9.89474 8.0002 8.31579C8.0002 7.0101 9.15417 6.21052 10.0307 5.60318C10.3229 5.40071 10.5843 5.2196 10.7618 5.04823H13.2386C13.4161 5.2196 13.6775 5.40071 13.9697 5.60318C14.8462 6.21053 16.0002 7.0101 16.0002 8.31579C16.0002 9.89474 14.7502 12 12.0002 12ZM12.0003 6.28928C12.237 6.28928 12.4289 6.47583 12.4289 6.70595V6.73046H12.9234C13.1601 6.73046 13.3519 6.917 13.3519 7.14712C13.3519 7.37724 13.1601 7.56379 12.9234 7.56379H11.7695C11.617 7.56379 11.5058 7.68015 11.5058 7.80889C11.5058 7.93762 11.617 8.05399 11.7695 8.05399H12.2311C12.8432 8.05399 13.3519 8.53019 13.3519 9.13242C13.3519 9.66837 12.949 10.1045 12.4289 10.194V10.2354C12.4289 10.4655 12.237 10.652 12.0003 10.652C11.7636 10.652 11.5717 10.4655 11.5717 10.2354V10.2108H11.0772C10.8405 10.2108 10.6486 10.0243 10.6486 9.79418C10.6486 9.56406 10.8405 9.37752 11.0772 9.37752H12.2311C12.3836 9.37752 12.4948 9.26115 12.4948 9.13242C12.4948 9.00368 12.3836 8.88732 12.2311 8.88732H11.7695C11.1574 8.88732 10.6486 8.41112 10.6486 7.80889C10.6486 7.27293 11.0515 6.83679 11.5717 6.74729V6.70595C11.5717 6.47583 11.7636 6.28928 12.0003 6.28928ZM18.4373 13.5962C18.5661 13.4679 18.7765 13.4679 18.9052 13.5962C19.0319 13.7223 19.0319 13.9252 18.9052 14.0513L15.2384 17.7039C13.7609 19.1756 11.7675 20 9.69165 20H4.0002C3.44792 20 3.0002 20.4477 3.0002 21C3.0002 21.5523 3.44792 22 4.0002 22H9.69165C12.2985 22 14.7988 20.9646 16.6498 19.1209L20.3167 15.4683C21.228 14.5605 21.228 13.087 20.3167 12.1792C19.4075 11.2736 17.935 11.2736 17.0259 12.1792L13.7323 15.4599C13.6339 15.5579 13.5244 15.6424 13.4066 15.7121L13.4066 15.6958C13.4066 14.4506 12.3943 13.4478 11.1537 13.4478H8.49586C7.527 13.4478 6.59703 13.8311 5.91075 14.5147L5.48224 14.9416C4.99548 15.4264 4.41746 15.7417 3.79372 15.8733C3.25334 15.9874 2.90772 16.5179 3.02175 17.0583C3.13579 17.5986 3.66631 17.9443 4.20669 17.8302C5.22816 17.6147 6.14788 17.1014 6.89369 16.3585L6.18796 15.6501L6.89369 16.3585L7.3222 15.9317C7.63281 15.6223 8.05492 15.4478 8.49586 15.4478H11.1537C11.2971 15.4478 11.4066 15.5625 11.4066 15.6958C11.4066 15.8291 11.2971 15.9439 11.1537 15.9439H9.9008C9.34851 15.9439 8.9008 16.3916 8.9008 16.9439C8.9008 17.4961 9.34851 17.9439 9.9008 17.9439H11.1537H12.5587C13.5275 17.9439 14.4575 17.5605 15.1438 16.8769L18.4373 13.5962Z" fill="black"/>
</svg>
