<svg width="24" height="24" viewBox="0 0 24 24" fill="none" xmlns="http://www.w3.org/2000/svg">
<path fill-rule="evenodd" clip-rule="evenodd" d="M13.1312 4.2149C13.2213 4.0638 13.3482 3.91567 13.4806 3.7611C13.7292 3.47097 13.9972 3.15817 14.0778 2.7605C14.1703 2.30413 13.6823 2 13.2039 2H10.7961C10.3177 2 9.8297 2.30413 9.92221 2.7605C10.0028 3.15817 10.2708 3.47097 10.5194 3.76109C10.6518 3.91566 10.7787 4.0638 10.8688 4.2149H13.1312ZM12 12C9.25 12 8 9.89474 8 8.31579C8 7.0101 9.15396 6.21052 10.0305 5.60318L10.0305 5.60317L10.0305 5.60315C10.3227 5.40069 10.5841 5.2196 10.7616 5.04823H13.2384C13.4159 5.2196 13.6773 5.40071 13.9695 5.60318C14.846 6.21053 16 7.0101 16 8.31579C16 9.89474 14.75 12 12 12ZM12.0001 6.28928C12.2368 6.28928 12.4287 6.47583 12.4287 6.70595V6.73046H12.9232C13.1599 6.73046 13.3517 6.917 13.3517 7.14712C13.3517 7.37724 13.1599 7.56379 12.9232 7.56379H11.7693C11.6168 7.56379 11.5056 7.68015 11.5056 7.80889C11.5056 7.93762 11.6168 8.05399 11.7693 8.05399H12.2309C12.843 8.05399 13.3517 8.53019 13.3517 9.13242C13.3517 9.66838 12.9488 10.1045 12.4287 10.194V10.2354C12.4287 10.4655 12.2368 10.652 12.0001 10.652C11.7634 10.652 11.5715 10.4655 11.5715 10.2354V10.2108H11.077C10.8403 10.2108 10.6484 10.0243 10.6484 9.79418C10.6484 9.56406 10.8403 9.37752 11.077 9.37752H12.2309C12.3834 9.37752 12.4946 9.26115 12.4946 9.13242C12.4946 9.00368 12.3834 8.88732 12.2309 8.88732H11.7693C11.1571 8.88732 10.6484 8.41112 10.6484 7.80889C10.6484 7.27293 11.0513 6.83679 11.5715 6.74729V6.70595C11.5715 6.47583 11.7634 6.28928 12.0001 6.28928ZM4.35 7C3.08804 7 2 7.99451 2 9.3V16.8897C2 17.8569 2.39936 18.7765 3.09717 19.4485L5.45636 21.7203C5.85418 22.1034 6.48723 22.0915 6.87032 21.6936C7.25341 21.2958 7.24146 20.6628 6.84364 20.2797L4.48445 18.0079C4.16957 17.7046 4 17.3016 4 16.8897V9.3C4 9.16955 4.12079 9 4.35 9C4.57921 9 4.7 9.16955 4.7 9.3V13.8564C4.7 14.8236 5.09936 15.7432 5.79717 16.4152L6.80508 17.3858L6.80636 17.387L7.70636 18.2537C8.10418 18.6367 8.73723 18.6248 9.12032 18.227C9.50341 17.8292 9.49146 17.1961 9.09364 16.813L8.19364 15.9463C8.14457 15.8991 8.12721 15.8471 8.12721 15.8C8.12721 15.7529 8.14457 15.7009 8.19364 15.6537C8.30345 15.5479 8.49655 15.5479 8.60636 15.6537L10.5155 17.4921C10.8304 17.7954 11 18.1984 11 18.6103V21C11 21.5523 11.4477 22 12 22C12.5523 22 13 21.5523 13 21V18.6103C13 18.1984 13.1696 17.7954 13.4845 17.4921L15.3936 15.6537C15.5034 15.5479 15.6965 15.5479 15.8064 15.6537C15.8554 15.7009 15.8728 15.7529 15.8728 15.8C15.8728 15.847 15.8555 15.8989 15.8067 15.9461L15.8064 15.9463L14.9064 16.813C14.5085 17.1961 14.4966 17.8292 14.8797 18.227C15.2628 18.6248 15.8958 18.6367 16.2936 18.2537L17.1936 17.387L17.1939 17.3867L18.2028 16.4152C18.9006 15.7432 19.3 14.8236 19.3 13.8564V9.3C19.3 9.16955 19.4208 9 19.65 9C19.8792 9 20 9.16955 20 9.3V16.8897C20 17.3016 19.8304 17.7046 19.5155 18.0079L17.1564 20.2797C16.7585 20.6628 16.7466 21.2958 17.1297 21.6936C17.5128 22.0915 18.1458 22.1034 18.5436 21.7203L20.9028 19.4485C21.6006 18.7765 22 17.8569 22 16.8897V9.3C22 7.99451 20.912 7 19.65 7C18.388 7 17.3 7.99451 17.3 9.3V13.8564C17.3 13.9941 17.281 14.1308 17.2441 14.2631C17.2276 14.2462 17.2108 14.2295 17.1936 14.213C16.3093 13.3615 14.8907 13.3615 14.0064 14.213L12.0972 16.0515C12.0641 16.0833 12.0317 16.1157 12 16.1487C11.9683 16.1157 11.9359 16.0833 11.9028 16.0515L9.99364 14.213C9.10933 13.3615 7.69066 13.3615 6.80636 14.213C6.78923 14.2295 6.77242 14.2462 6.75594 14.2631C6.71895 14.1308 6.7 13.9941 6.7 13.8564V9.3C6.7 7.99451 5.61196 7 4.35 7Z" fill="black"/>
</svg>
