<svg width="24" height="24" viewBox="0 0 24 24" fill="none" xmlns="http://www.w3.org/2000/svg">
<path d="M5.52779 13.5556C6.62643 14.1011 8.223 14.4444 10 14.4444C11.777 14.4444 13.3736 14.1011 14.4722 13.5556C15.4223 13.0838 16 12.4608 16 11.7778C16 11.0948 15.4223 10.4718 14.4722 10M5.52779 13.5556C4.57771 13.0838 4 12.4608 4 11.7778C4 11.0948 4.57771 10.4718 5.52779 10M5.52779 13.5556C4.57771 14.0273 4 14.6504 4 15.3333C4 16.8061 6.68629 18 10 18C10.3407 18 10.6748 17.9874 11 17.9631M5.52779 10C6.62643 10.5456 8.223 10.8889 10 10.8889C11.777 10.8889 13.3736 10.5456 14.4722 10M5.52779 10C4.57771 9.52822 4 8.9052 4 8.22222C4 7.53924 4.57771 6.91623 5.52779 6.44444M14.4722 10C15.4223 9.52822 16 8.9052 16 8.22222C16 7.53924 15.4223 6.91623 14.4722 6.44444M14.4722 6.44444C15.4223 5.97266 16 5.34965 16 4.66667C16 3.19391 13.3137 2 10 2C6.68629 2 4 3.19391 4 4.66667C4 5.34965 4.57771 5.97266 5.52779 6.44444M14.4722 6.44444C13.3736 6.99 11.777 7.33333 10 7.33333C8.223 7.33333 6.62643 6.99 5.52779 6.44444M18.2678 20.2678L20 22M18.2678 20.2678C17.8154 20.7202 17.1904 21 16.5 21C15.1193 21 14 19.8807 14 18.5C14 17.1193 15.1193 16 16.5 16C17.8807 16 19 17.1193 19 18.5C19 19.1904 18.7202 19.8154 18.2678 20.2678Z" stroke="black" stroke-width="2" stroke-linecap="round" stroke-linejoin="round"/>
</svg>
