<svg width="24" height="24" viewBox="0 0 24 24" fill="none" xmlns="http://www.w3.org/2000/svg">
<path d="M11.5642 2.77473L3.40917 17.2726C3.30606 17.4559 3.51943 17.6537 3.69442 17.5371L10.8906 12.7396C11.5624 12.2917 12.4376 12.2917 13.1094 12.7396L20.3056 17.5371C20.4806 17.6537 20.6939 17.4559 20.5908 17.2726L12.4358 2.77473C12.2446 2.43491 11.7554 2.43491 11.5642 2.77473Z" stroke="black" stroke-width="2" stroke-linecap="round" stroke-linejoin="round"/>
<path d="M3.94244 22H20.0576C20.2736 22 20.3362 21.705 20.1388 21.6172L13.2184 18.5415C12.4427 18.1968 11.5573 18.1968 10.7816 18.5415L3.86122 21.6172C3.66382 21.705 3.72643 22 3.94244 22Z" stroke="black" stroke-width="2" stroke-linecap="round" stroke-linejoin="round"/>
</svg>
