<svg width="24" height="24" viewBox="0 0 24 24" fill="none" xmlns="http://www.w3.org/2000/svg">
<path fill-rule="evenodd" clip-rule="evenodd" d="M10.6584 3.78889C11.5029 3.3666 12.4971 3.3666 13.3416 3.78889L17.8944 6.06528C18.572 6.40406 19 7.09659 19 7.85413V19C19 20.1046 18.1046 21 17 21H7C5.89543 21 5 20.1046 5 19V7.85413C5 7.09659 5.428 6.40406 6.10557 6.06528L10.6584 3.78889ZM14.2361 2.00003C12.8284 1.29621 11.1716 1.29621 9.76393 2.00003L5.21115 4.27643C3.85601 4.95399 3 6.33905 3 7.85413V19C3 21.2092 4.79086 23 7 23H17C19.2091 23 21 21.2092 21 19V7.85413C21 6.33905 20.144 4.95399 18.7889 4.27643L14.2361 2.00003ZM13.1312 11.2149C13.2213 11.0638 13.3482 10.9157 13.4806 10.7611L13.4806 10.7611C13.7292 10.471 13.9972 10.1582 14.0778 9.76053C14.1703 9.30416 13.6823 9.00003 13.2039 9.00003H10.7961C10.3177 9.00003 9.8297 9.30416 9.92221 9.76053C10.0028 10.1582 10.2708 10.471 10.5194 10.7611L10.5194 10.7611C10.6518 10.9157 10.7787 11.0638 10.8688 11.2149H13.1312ZM12 19C9.25 19 8 16.8948 8 15.3158C8 14.0101 9.15396 13.2106 10.0305 12.6032C10.3227 12.4007 10.5841 12.2196 10.7616 12.0483H13.2384C13.4159 12.2196 13.6773 12.4007 13.9695 12.6032C14.846 13.2106 16 14.0101 16 15.3158C16 16.8948 14.75 19 12 19ZM12.0001 13.2893C12.2368 13.2893 12.4287 13.4759 12.4287 13.706V13.7305H12.9232C13.1599 13.7305 13.3517 13.917 13.3517 14.1472C13.3517 14.3773 13.1599 14.5638 12.9232 14.5638H11.7693C11.6168 14.5638 11.5056 14.6802 11.5056 14.8089C11.5056 14.9377 11.6168 15.054 11.7693 15.054H12.2309C12.843 15.054 13.3517 15.5302 13.3517 16.1324C13.3517 16.6684 12.9488 17.1045 12.4287 17.194V17.2354C12.4287 17.4655 12.2368 17.6521 12.0001 17.6521C11.7634 17.6521 11.5715 17.4655 11.5715 17.2354V17.2109H11.077C10.8403 17.2109 10.6484 17.0243 10.6484 16.7942C10.6484 16.5641 10.8403 16.3775 11.077 16.3775H12.2309C12.3834 16.3775 12.4946 16.2612 12.4946 16.1324C12.4946 16.0037 12.3834 15.8874 12.2309 15.8874H11.7693C11.1571 15.8874 10.6484 15.4112 10.6484 14.8089C10.6484 14.273 11.0513 13.8368 11.5715 13.7473V13.706C11.5715 13.4759 11.7634 13.2893 12.0001 13.2893Z" fill="black"/>
</svg>
