<svg width="24" height="24" viewBox="0 0 24 24" fill="none" xmlns="http://www.w3.org/2000/svg">
<path fill-rule="evenodd" clip-rule="evenodd" d="M10.2 4.6C11.2667 3.8 12.7333 3.8 13.8 4.6L17 7H7L10.2 4.6ZM5.06349 9H18.9365C18.9782 9.16161 19 9.32945 19 9.5V19C19 20.1046 18.1046 21 17 21H7C5.89543 21 5 20.1046 5 19V9.5C5 9.32945 5.02175 9.16161 5.06349 9ZM15 3C13.2222 1.66667 10.7778 1.66667 9 3L4.6 6.3C3.59278 7.05542 3 8.24097 3 9.5V19C3 21.2091 4.79086 23 7 23H17C19.2091 23 21 21.2091 21 19V9.5C21 8.24097 20.4072 7.05542 19.4 6.3L15 3ZM13.1312 12.2149C13.2213 12.0638 13.3482 11.9156 13.4806 11.7611L13.4806 11.7611L13.4806 11.7611C13.7292 11.4709 13.9972 11.1581 14.0778 10.7605C14.1703 10.3041 13.6823 9.99997 13.2039 9.99997H10.7961C10.3177 9.99997 9.8297 10.3041 9.92221 10.7605C10.0028 11.1581 10.2708 11.4709 10.5194 11.7611L10.5194 11.7611C10.6518 11.9156 10.7787 12.0638 10.8688 12.2149H13.1312ZM12 20C9.25 20 8 17.8947 8 16.3158C8 15.0101 9.15396 14.2105 10.0305 13.6031C10.3227 13.4007 10.5841 13.2196 10.7616 13.0482H13.2384C13.4159 13.2196 13.6773 13.4007 13.9695 13.6031C14.846 14.2105 16 15.0101 16 16.3158C16 17.8947 14.75 20 12 20ZM12.0001 14.2892C12.2368 14.2892 12.4287 14.4758 12.4287 14.7059V14.7304H12.9232C13.1599 14.7304 13.3517 14.917 13.3517 15.1471C13.3517 15.3772 13.1599 15.5638 12.9232 15.5638H11.7693C11.6168 15.5638 11.5056 15.6801 11.5056 15.8089C11.5056 15.9376 11.6168 16.054 11.7693 16.054H12.2309C12.843 16.054 13.3517 16.5302 13.3517 17.1324C13.3517 17.6683 12.9488 18.1045 12.4287 18.194V18.2353C12.4287 18.4654 12.2368 18.652 12.0001 18.652C11.7634 18.652 11.5715 18.4654 11.5715 18.2353V18.2108H11.077C10.8403 18.2108 10.6484 18.0243 10.6484 17.7942C10.6484 17.564 10.8403 17.3775 11.077 17.3775H12.2309C12.3834 17.3775 12.4946 17.2611 12.4946 17.1324C12.4946 17.0037 12.3834 16.8873 12.2309 16.8873H11.7693C11.1571 16.8873 10.6484 16.4111 10.6484 15.8089C10.6484 15.2729 11.0513 14.8368 11.5715 14.7473V14.7059C11.5715 14.4758 11.7634 14.2892 12.0001 14.2892Z" fill="black"/>
</svg>
