<svg width="24" height="24" viewBox="0 0 24 24" fill="none" xmlns="http://www.w3.org/2000/svg">
<path d="M10 17.0194C10.127 17.0505 10.256 17.0799 10.3866 17.1074C13.4677 17.7556 17.951 16.4151 18 13.5C18.0929 7.97793 7.99916 6 7.99916 6L8 7M10 17.0194C7.32108 16.3624 5.48983 14.9012 5.99924 13C6.36527 11.634 7.88397 11.067 9 11C9.33075 10.9801 9.66706 11.0074 10 11.0681M10 17.0194V11.0681M10 17.0194V18.5M10 11.0681C11.9139 11.4174 13.7168 12.8753 13.7168 12.8753L13 13.5M10 11.0681V10M12 22C6.47715 22 2 17.5228 2 12C2 6.47715 6.47715 2 12 2C17.5228 2 22 6.47715 22 12C22 17.5228 17.5228 22 12 22Z" stroke="black" stroke-width="2" stroke-linecap="round" stroke-linejoin="round"/>
</svg>
