<svg width="24" height="24" viewBox="0 0 24 24" fill="none" xmlns="http://www.w3.org/2000/svg">
<path d="M10 7.26316C10 8.84211 4 10.4211 4 14.6316C4 17.7895 6.5 22 12 22C17.5 22 20 17.7895 20 14.6316C20 10.4211 14 8.84211 14 7.26316M10 7.26316C10 5.98672 8.03943 5.05425 7.81648 3.35349C7.70854 2.53005 8.54905 2 9.37953 2H14.6205C15.451 2 16.2915 2.53005 16.1835 3.35349C15.9606 5.05425 14 5.98672 14 7.26316M10 7.26316H14M10 17.5L14 12.5M14 17.5H14.01M10 12.5H10.01" stroke="black" stroke-width="2" stroke-linecap="round" stroke-linejoin="round"/>
</svg>
