<svg width="24" height="24" viewBox="0 0 24 24" fill="none" xmlns="http://www.w3.org/2000/svg">
<path d="M10 7C10 8.5 4 10 4 14C4 17 6.5 21 12 21C17.5 21 20 17 20 14C20 10 14 8.5 14 7M10 7C10 5.79759 8.07229 4.91647 7.82248 3.32646C7.69555 2.51856 8.53626 2 9.35407 2H14.6459C15.4637 2 16.3045 2.51856 16.1775 3.32646C15.9277 4.91647 14 5.79759 14 7M10 7H14M14 11.875H12M12 11.875H11.5C10.6716 11.875 10 12.4626 10 13.1875C10 13.9124 10.6716 14.5 11.5 14.5H12.5C13.3284 14.5 14 15.0876 14 15.8125C14 16.5374 13.3284 17.125 12.5 17.125H12M12 11.875V11M12 17.125H10M12 17.125V18" stroke="black" stroke-width="2" stroke-linecap="round" stroke-linejoin="round"/>
</svg>
