<svg width="24" height="24" viewBox="0 0 24 24" fill="none" xmlns="http://www.w3.org/2000/svg">
<path d="M8.00041 17V16C8.00041 13.7909 9.79127 12 12.0004 12C14.2095 12 16.0004 13.7909 16.0004 16V17H8.00041ZM8.00041 17V18C8.00041 20.2092 9.79127 22 12.0004 22C13.481 22 14.7737 21.1956 15.4653 20M9.00041 2.00004C7.16662 5.72917 5.57225 9.12405 9.00041 10C7.33148 10.7957 6.72521 11.4907 6.00136 13C4.19194 11.768 4 10.5 4 9.50004C4 7.65198 5.75804 4.70455 9.00041 2.00004ZM14.9996 2C16.8334 5.72913 18.4278 9.12401 14.9996 10C16.6685 10.7957 17.2748 11.4906 17.9986 13C19.8081 11.7679 20 10.5 20 9.5C20 7.65194 18.242 4.70451 14.9996 2Z" stroke="black" stroke-width="2" stroke-linecap="round" stroke-linejoin="round"/>
</svg>
