<svg width="24" height="24" viewBox="0 0 24 24" fill="none" xmlns="http://www.w3.org/2000/svg">
<path fill-rule="evenodd" clip-rule="evenodd" d="M13 6C13 8.20914 14.7909 10 17 10C19.2091 10 21 8.20914 21 6C21 3.79086 19.2091 2 17 2C14.7909 2 13 3.79086 13 6ZM17 3.5C17.2761 3.5 17.5 3.72386 17.5 4V4.13621C17.8143 4.22618 18.0785 4.39866 18.258 4.62035C18.4318 4.83497 18.3987 5.14981 18.184 5.32358C17.9694 5.49736 17.6546 5.46425 17.4808 5.24964C17.4209 5.17566 17.2609 5.06729 17 5.06729C16.805 5.06729 16.6686 5.12828 16.5898 5.19212C16.5071 5.25918 16.5 5.31473 16.5 5.32369C16.5 5.40715 16.5146 5.4482 16.5225 5.46456C16.5289 5.47781 16.5367 5.48798 16.5548 5.50026C16.6061 5.5349 16.7348 5.58008 17 5.58008C17.3348 5.58008 17.7061 5.62945 18.0048 5.83118C18.3417 6.05871 18.5 6.41825 18.5 6.83647C18.5 7.41812 18.0596 7.85538 17.5 8.02071V8.16016C17.5 8.4363 17.2761 8.66016 17 8.66016C16.7239 8.66016 16.5 8.4363 16.5 8.16016V8.02394C16.1857 7.93398 15.9215 7.7615 15.742 7.5398C15.5682 7.32519 15.6013 7.01034 15.816 6.83657C16.0306 6.6628 16.3454 6.69591 16.5192 6.91052C16.5791 6.9845 16.7391 7.09286 17 7.09286C17.195 7.09286 17.3314 7.03187 17.4102 6.96804C17.4929 6.90098 17.5 6.84543 17.5 6.83647C17.5 6.75301 17.4854 6.71196 17.4775 6.6956C17.4711 6.68235 17.4633 6.67217 17.4452 6.6599C17.3939 6.62525 17.2652 6.58008 17 6.58008C16.6652 6.58008 16.2939 6.5307 15.9952 6.32897C15.6583 6.10145 15.5 5.7419 15.5 5.32369C15.5 4.74204 15.9404 4.30478 16.5 4.13944V4C16.5 3.72386 16.7239 3.5 17 3.5ZM7 8C7 6.34315 8.34315 5 10 5C10.2605 5 10.5119 5.03297 10.7507 5.09445C11.2856 5.23212 11.8308 4.91013 11.9684 4.37528C12.1061 3.84042 11.7841 3.29524 11.2493 3.15758C10.8489 3.05453 10.4301 3 10 3C7.23858 3 5 5.23858 5 8C5 10.7614 7.23858 13 10 13C11.4935 13 12.835 12.3439 13.7497 11.3076C14.1152 10.8935 14.0758 10.2616 13.6617 9.89609C13.2477 9.53062 12.6157 9.57002 12.2503 9.98409C11.6991 10.6086 10.8959 11 10 11C8.34315 11 7 9.65685 7 8ZM10 14C6.13401 14 3 17.134 3 21C3 22.1046 3.89543 23 5 23H15C16.1046 23 17 22.1046 17 21C17 17.134 13.866 14 10 14ZM5 21C5 18.2386 7.23858 16 10 16C12.7614 16 15 18.2386 15 21H5Z" fill="black"/>
</svg>
