<svg width="24" height="24" viewBox="0 0 24 24" fill="none" xmlns="http://www.w3.org/2000/svg">
<path fill-rule="evenodd" clip-rule="evenodd" d="M16.5 2C16.2239 2 16 2.22386 16 2.5C16 2.90068 15.5156 3.10157 15.2322 2.81825C15.037 2.62298 14.7204 2.62298 14.5251 2.81825L13.818 3.52535C13.6228 3.72062 13.6228 4.0372 13.818 4.23246C14.1013 4.5157 13.9006 5 13.5 5C13.2239 5 13 5.22386 13 5.5V6.5C13 6.77614 13.2239 7 13.5 7C13.9008 7 14.1015 7.48472 13.818 7.76814C13.6228 7.96341 13.6228 8.27999 13.818 8.47525L14.5251 9.18236C14.7204 9.37762 15.037 9.37762 15.2323 9.18236C15.5155 8.89914 16 9.09946 16 9.5C16 9.77614 16.2239 10 16.5 10H17.5C17.7761 10 18 9.77614 18 9.5C18 9.0994 18.4845 8.89894 18.7678 9.18221C18.963 9.37747 19.2796 9.37747 19.4749 9.18221L20.182 8.4751C20.3773 8.27984 20.3773 7.96326 20.182 7.76799C19.8986 7.48461 20.0992 7 20.5 7C20.7761 7 21 6.77614 21 6.5V5.5C21 5.22386 20.7761 5 20.5 5C20.0995 5 19.8988 4.5158 20.182 4.23261C20.3773 4.03735 20.3773 3.72077 20.182 3.5255L19.4749 2.8184C19.2796 2.62313 18.963 2.62313 18.7678 2.8184C18.4845 3.10173 18 2.90069 18 2.5C18 2.22386 17.7761 2 17.5 2H16.5ZM19 6C19 7.10457 18.1046 8 17 8C15.8954 8 15 7.10457 15 6C15 4.89543 15.8954 4 17 4C18.1046 4 19 4.89543 19 6ZM7 8C7 6.34315 8.34315 5 10 5C10.2605 5 10.5119 5.03297 10.7507 5.09445C11.2856 5.23212 11.8308 4.91013 11.9684 4.37528C12.1061 3.84042 11.7841 3.29524 11.2493 3.15758C10.8489 3.05453 10.4301 3 10 3C7.23858 3 5 5.23858 5 8C5 10.7614 7.23858 13 10 13C11.4935 13 12.835 12.3439 13.7497 11.3076C14.1152 10.8935 14.0758 10.2616 13.6617 9.89609C13.2477 9.53062 12.6157 9.57002 12.2503 9.98409C11.6991 10.6086 10.8959 11 10 11C8.34315 11 7 9.65685 7 8ZM10 14C6.13401 14 3 17.134 3 21C3 22.1046 3.89543 23 5 23H15C16.1046 23 17 22.1046 17 21C17 17.134 13.866 14 10 14ZM5 21C5 18.2386 7.23858 16 10 16C12.7614 16 15 18.2386 15 21H5Z" fill="black"/>
</svg>
