<svg width="24" height="24" viewBox="0 0 24 24" fill="none" xmlns="http://www.w3.org/2000/svg">
<path fill-rule="evenodd" clip-rule="evenodd" d="M18.001 6C18.001 7.52344 17.1494 8.84796 15.8962 9.52343C15.9649 9.19307 16.001 8.85075 16.001 8.5C16.001 7.40752 15.6507 6.39688 15.0562 5.57431C15.2756 5.54716 15.4455 5.36004 15.4455 5.13325C15.4455 4.79445 15.2513 4.49495 15.0057 4.29614C14.8503 4.17033 14.6603 4.07161 14.4455 4.01352V3.79991C14.4455 3.55445 14.2465 3.35547 14.001 3.35547C13.7556 3.35547 13.5566 3.55445 13.5566 3.79991V4.01565C13.4867 4.03509 13.4189 4.059 13.3538 4.08704C12.6526 3.71239 11.8516 3.5 11.001 3.5C10.9596 3.5 10.9183 3.5005 10.8772 3.5015C11.6102 2.58618 12.7372 2 14.001 2C16.2102 2 18.001 3.79086 18.001 6ZM7.0002 8.5C7.0002 10.7091 8.79106 12.5 11.0002 12.5C13.2093 12.5 15.0002 10.7091 15.0002 8.5C15.0002 6.29086 13.2093 4.5 11.0002 4.5C8.79106 4.5 7.0002 6.29086 7.0002 8.5ZM11.0002 5.85547C11.2457 5.85547 11.4446 6.05445 11.4446 6.29991V6.51352C11.6595 6.57161 11.8494 6.67033 12.0048 6.79614C12.2504 6.99495 12.4446 7.29445 12.4446 7.63325C12.4446 7.87871 12.2457 8.07769 12.0002 8.07769C11.7547 8.07769 11.5554 7.87789 11.5554 7.63243C11.5532 7.62347 11.5383 7.56209 11.4456 7.48702C11.3512 7.41067 11.2004 7.34436 11.0002 7.34436C10.5789 7.34436 10.4446 7.60718 10.4446 7.69991C10.4446 7.89032 10.5005 7.93963 10.5335 7.96325C10.5965 8.00822 10.7343 8.05547 11.0002 8.05547C11.3343 8.05547 11.6965 8.10822 11.9835 8.31325C12.3005 8.53963 12.4446 8.89032 12.4446 9.29991C12.4446 9.86732 12.0162 10.3253 11.4446 10.4842V10.6999C11.4446 10.9454 11.2457 11.1444 11.0002 11.1444C10.7547 11.1444 10.5558 10.9454 10.5558 10.6999V10.4833C9.99598 10.3228 9.62243 9.86731 9.62243 9.36658C9.62243 9.12112 9.82141 8.92214 10.0669 8.92214C10.3123 8.92214 10.5113 9.12112 10.5113 9.36658C10.5113 9.40926 10.5979 9.65547 11.0002 9.65547C11.4215 9.65547 11.5558 9.39265 11.5558 9.29991C11.5558 9.10951 11.5 9.0602 11.4669 9.03657C11.4039 8.9916 11.2661 8.94436 11.0002 8.94436C10.6661 8.94436 10.3039 8.8916 10.0169 8.68657C9.69995 8.4602 9.55576 8.10951 9.55576 7.69991C9.55576 7.13251 9.98423 6.67457 10.5558 6.51565V6.29991C10.5558 6.05445 10.7547 5.85547 11.0002 5.85547ZM18.4373 13.5962C18.5661 13.4679 18.7765 13.4679 18.9052 13.5962C19.0319 13.7223 19.0319 13.9252 18.9052 14.0513L15.2384 17.7039C13.7609 19.1756 11.7675 20 9.69165 20H4.0002C3.44792 20 3.0002 20.4477 3.0002 21C3.0002 21.5523 3.44792 22 4.0002 22H9.69165C12.2985 22 14.7988 20.9646 16.6498 19.1209L20.3167 15.4683C21.228 14.5605 21.228 13.087 20.3167 12.1792C19.4075 11.2736 17.935 11.2736 17.0259 12.1792L13.7323 15.4599C13.6339 15.5579 13.5244 15.6424 13.4066 15.7121L13.4066 15.6958C13.4066 14.4506 12.3943 13.4478 11.1537 13.4478H8.49586C7.527 13.4478 6.59703 13.8311 5.91075 14.5147L5.48224 14.9416C4.99548 15.4264 4.41746 15.7417 3.79372 15.8733C3.25334 15.9874 2.90772 16.5179 3.02175 17.0583C3.13579 17.5986 3.66631 17.9443 4.20669 17.8302C5.22816 17.6147 6.14788 17.1014 6.89369 16.3585L6.18796 15.6501L6.89369 16.3585L7.3222 15.9317C7.63281 15.6223 8.05492 15.4478 8.49586 15.4478H11.1537C11.2971 15.4478 11.4066 15.5625 11.4066 15.6958C11.4066 15.8291 11.2971 15.9439 11.1537 15.9439H9.9008C9.34851 15.9439 8.9008 16.3916 8.9008 16.9439C8.9008 17.4961 9.34851 17.9439 9.9008 17.9439H11.1537H12.5587C13.5275 17.9439 14.4575 17.5605 15.1438 16.8769L18.4373 13.5962Z" fill="black"/>
</svg>
