<svg width="24" height="24" viewBox="0 0 24 24" fill="none" xmlns="http://www.w3.org/2000/svg">
<path d="M6 17C8.26463 17 8.94401 16 9 14M9 14C9.04122 12.5277 9.00553 9.8436 9.00056 7.49986C8.99997 7.22372 8.77614 7 8.5 7H8C6.89543 7 6 7.89543 6 9V12C6 13.1046 6.89543 14 8 14H9ZM12 14V7.5C12 7.22386 12.2239 7 12.5 7H15M18 14V9C18 7.89543 17.1046 7 16 7H15M15 7V14M12 17H18M21 6V18C21 19.6569 19.6569 21 18 21H6C4.34315 21 3 19.6569 3 18V6C3 4.34315 4.34315 3 6 3H18C19.6569 3 21 4.34315 21 6Z" stroke="black" stroke-width="2" stroke-linecap="round" stroke-linejoin="round"/>
</svg>
