<svg width="24" height="24" viewBox="0 0 24 24" fill="none" xmlns="http://www.w3.org/2000/svg">
<path d="M21 3C21 13.3831 18.1412 18.4562 12.9499 20.6407C12.343 20.8961 11.6579 20.894 11.0469 20.6485C6.20449 18.7029 3.39245 14.9308 3.03815 5.99988C2.99436 4.89618 3.89543 4 5 4H13.5258M21 3C16.3925 5.01084 13.8489 6.90821 12 10.2001M21 3C17.9392 9.48566 15.9686 11.3144 12 10.2001M21 3C17.6587 2.99998 15.1673 3.30901 13.5258 4M10 15C10.6132 13.1029 11.2494 11.5366 12 10.2001M12 10.2001C10.4827 7.04413 10.9913 5.06684 13.5258 4" stroke="black" stroke-width="2" stroke-linecap="round" stroke-linejoin="round"/>
</svg>
