<svg width="24" height="24" viewBox="0 0 24 24" fill="none" xmlns="http://www.w3.org/2000/svg">
<path fill-rule="evenodd" clip-rule="evenodd" d="M17 6C17 3.23858 14.7614 1 12 1C9.23858 1 7 3.23858 7 6C7 8.4209 8.71999 10.4399 11.0048 10.9011C11.0016 10.9336 11 10.9666 11 11V14.4996C10.1643 13.8719 9.12561 13.5 8 13.5H6C5.44772 13.5 5 13.9477 5 14.5V15C5 17.7614 7.23858 20 10 20H11V22C11 22.5523 11.4477 23 12 23C12.5523 23 13 22.5523 13 22V19V18.5H14C16.7614 18.5 19 16.2614 19 13.5V13C19 12.4477 18.5523 12 18 12H15C14.2714 12 13.5883 12.1948 13 12.5351V11C13 10.9665 12.9984 10.9335 12.9951 10.9008C15.2796 10.4392 17 8.42044 17 6ZM11.2531 3.43144C10.5316 3.62309 10 4.28071 10 5.0625C10 5.99448 10.7555 6.75 11.6875 6.75H12.3125C12.4161 6.75 12.5 6.83395 12.5 6.9375C12.5 7.04105 12.4161 7.125 12.3125 7.125H12H10.75C10.3358 7.125 10 7.46079 10 7.875C10 8.28921 10.3358 8.625 10.75 8.625H11.2604C11.3199 8.97971 11.6284 9.25 12 9.25C12.3911 9.25 12.7123 8.95064 12.7469 8.56856C13.4684 8.37691 14 7.71929 14 6.9375C14 6.00552 13.2445 5.25 12.3125 5.25H11.6875C11.5839 5.25 11.5 5.16605 11.5 5.0625C11.5 4.95895 11.5839 4.875 11.6875 4.875H12H13.25C13.6642 4.875 14 4.53921 14 4.125C14 3.71079 13.6642 3.375 13.25 3.375H12.7396C12.6801 3.02029 12.3716 2.75 12 2.75C11.6089 2.75 11.2877 3.04936 11.2531 3.43144ZM8 15.5C9.4865 15.5 10.7205 16.5811 10.9585 18H10C8.5135 18 7.27952 16.9189 7.04148 15.5H8ZM14 16.5H13V16C13 14.8954 13.8954 14 15 14H16.9585C16.7205 15.4189 15.4865 16.5 14 16.5Z" fill="black"/>
</svg>
