<svg width="24" height="24" viewBox="0 0 24 24" fill="none" xmlns="http://www.w3.org/2000/svg">
<path fill-rule="evenodd" clip-rule="evenodd" d="M12.0009 3C8.13487 3 5.00086 6.13401 5.00086 10C5.00086 11.0733 5.24283 12.0907 5.67477 13H2.50086C1.69557 13 0.949566 13.6702 1.02477 14.582C1.3212 18.1762 4.33075 21 8.00086 21H10.0009H12.0009H16.0009C19.8669 21 23.0009 17.866 23.0009 14V13.5C23.0009 12.6716 22.3293 12 21.5009 12H18.7107C18.8995 11.3658 19.0009 10.6943 19.0009 10C19.0009 6.13401 15.8669 3 12.0009 3ZM10.5159 14.6506C9.87693 14.1108 9.13926 13.683 8.33311 13.3982C7.50536 12.5054 7.00086 11.3124 7.00086 10C7.00086 7.23858 9.23944 5 12.0009 5C14.7623 5 17.0009 7.23858 17.0009 10C17.0009 10.7124 16.8524 11.3883 16.5851 12H16.0009C15.1148 12 14.2672 12.1647 13.4872 12.465C13.9403 12.1506 14.2509 11.6437 14.2509 11.0312C14.2509 9.9874 13.3486 9.25 12.3759 9.25H11.6259C11.356 9.25 11.2509 9.06399 11.2509 8.96875C11.2509 8.87351 11.356 8.6875 11.6259 8.6875H12.0009H13.5009C13.9151 8.6875 14.2509 8.35171 14.2509 7.9375C14.2509 7.52329 13.9151 7.1875 13.5009 7.1875H12.7483C12.7165 6.80253 12.394 6.5 12.0009 6.5C11.5953 6.5 11.265 6.82185 11.2513 7.22405C10.4334 7.38472 9.75086 8.06081 9.75086 8.96875C9.75086 10.0126 10.6531 10.75 11.6259 10.75H12.3759C12.6457 10.75 12.7509 10.936 12.7509 11.0312C12.7509 11.1265 12.6457 11.3125 12.3759 11.3125H12.0009H10.5009C10.0867 11.3125 9.75086 11.6483 9.75086 12.0625C9.75086 12.4767 10.0867 12.8125 10.5009 12.8125H11.2534C11.2776 13.1052 11.4699 13.3503 11.7335 13.4509C11.2803 13.7999 10.8712 14.2031 10.5159 14.6506ZM12.7492 12.7996C12.7752 12.786 12.8012 12.7725 12.8273 12.7592C12.8018 12.7653 12.7762 12.7709 12.7504 12.7759C12.7502 12.7839 12.7498 12.7918 12.7492 12.7996ZM7.4886 15.2248C8.24933 15.4615 8.93343 15.8758 9.49179 16.4204C9.17486 17.2196 9.00086 18.0904 9.00086 19H8.00086C5.58205 19 3.56366 17.2819 3.10073 15H6.00086C6.52052 15 7.01988 15.0789 7.4886 15.2248ZM16.0009 19H12.0009H11.0009C11.0009 18.1677 11.2035 17.3856 11.5611 16.6976L10.7898 16.2965L11.5611 16.6976C11.6117 16.6003 11.6653 16.505 11.722 16.4116L10.9997 15.9735L11.722 16.4116C12.6001 14.9638 14.1884 14 16.0009 14H17.1982H21.0009C21.0009 16.7614 18.7623 19 16.0009 19Z" fill="black"/>
</svg>
