<svg width="24" height="24" viewBox="0 0 24 24" fill="none" xmlns="http://www.w3.org/2000/svg">
<path fill-rule="evenodd" clip-rule="evenodd" d="M16.0043 5C16.0043 7.20914 14.1935 9 11.9844 9C9.78387 9 8 7.20834 8 5.00782C8 2.79868 9.79303 1 12.0022 1C14.2113 1 16.0043 2.79086 16.0043 5ZM10.2504 12H8.49609C6.92358 12 5.63362 10.7897 5.50639 9.24996C5.49502 9.11234 5.60804 9 5.74613 9H7.50043C9.07313 9 10.3632 10.2102 10.4902 11.7501C10.5015 11.8877 10.3885 12 10.2504 12ZM13.7461 12H15.5004C17.0729 12 18.3629 10.7897 18.4901 9.24996C18.5015 9.11234 18.3885 9 18.2504 9H16.4961C14.9234 9 13.6334 10.2102 13.5064 11.7501C13.495 11.8877 13.608 12 13.7461 12ZM12 3.125C12.2071 3.125 12.375 3.29289 12.375 3.5H12.75C12.9571 3.5 13.125 3.66789 13.125 3.875C13.125 4.08211 12.9571 4.25 12.75 4.25H12H11.8125C11.7089 4.25 11.625 4.33395 11.625 4.4375C11.625 4.54105 11.7089 4.625 11.8125 4.625H12.1875C12.7053 4.625 13.125 5.04473 13.125 5.5625C13.125 6.01606 12.8029 6.39438 12.375 6.48125V6.5C12.375 6.70711 12.2071 6.875 12 6.875C11.7929 6.875 11.625 6.70711 11.625 6.5H11.25C11.0429 6.5 10.875 6.33211 10.875 6.125C10.875 5.91789 11.0429 5.75 11.25 5.75H12H12.1875C12.2911 5.75 12.375 5.66605 12.375 5.5625C12.375 5.45895 12.2911 5.375 12.1875 5.375H11.8125C11.2947 5.375 10.875 4.95527 10.875 4.4375C10.875 3.98395 11.1971 3.60562 11.625 3.51875V3.5C11.625 3.29289 11.7929 3.125 12 3.125ZM11.9799 10.0006C12.3229 10.0006 12.6582 9.96601 12.9825 9.9002V15.3828C13.2486 15.7516 13.4066 16.2054 13.4066 16.6958L13.4066 16.7121C13.5244 16.6424 13.6339 16.5579 13.7323 16.4599L17.0259 13.1792C17.935 12.2736 19.4075 12.2736 20.3167 13.1792C21.228 14.087 21.228 15.5605 20.3167 16.4683L16.6498 20.1209C14.7988 21.9646 12.2985 23 9.69165 23H4.0002C3.44792 23 3.0002 22.5523 3.0002 22C3.0002 21.4477 3.44792 21 4.0002 21H9.69165C11.7675 21 13.7609 20.1757 15.2384 18.7039L18.9052 15.0513C19.0319 14.9252 19.0319 14.7223 18.9052 14.5962C18.7765 14.4679 18.5661 14.4679 18.4373 14.5962L15.1438 17.8769C14.4575 18.5605 13.5275 18.9439 12.5587 18.9439H11.1537H9.9008C9.34851 18.9439 8.9008 18.4962 8.9008 17.9439C8.9008 17.3916 9.34851 16.9439 9.9008 16.9439H11.1537C11.2971 16.9439 11.4066 16.8291 11.4066 16.6958C11.4066 16.6233 11.3761 16.5582 11.3222 16.5108C11.2772 16.4712 11.2197 16.4478 11.1537 16.4478H8.49586C8.05492 16.4478 7.63281 16.6223 7.3222 16.9317L6.89369 17.3585C6.14788 18.1014 5.22816 18.6147 4.20669 18.8302C3.66631 18.9443 3.13579 18.5987 3.02175 18.0583C2.90772 17.5179 3.25334 16.9874 3.79372 16.8733C4.41746 16.7417 4.99548 16.4264 5.48224 15.9416L5.91075 15.5147L6.59028 16.1969L5.91075 15.5147C6.59703 14.8311 7.527 14.4478 8.49586 14.4478H10.9825V9.90021C11.3048 9.966 11.6383 10.0006 11.9799 10.0006Z" fill="black"/>
</svg>
