<svg width="24" height="24" viewBox="0 0 24 24" fill="none" xmlns="http://www.w3.org/2000/svg">
<path d="M5.64383 7.44522L2.49976 11.3753C2.20758 11.7405 2.20758 12.2595 2.49976 12.6247L5.64383 16.5548C5.76193 16.7024 6 16.6189 6 16.4298V7.57016C6 7.3811 5.76193 7.29759 5.64383 7.44522Z" stroke="black" stroke-width="2" stroke-linecap="round" stroke-linejoin="round"/>
<path d="M18.3562 7.44522L21.5002 11.3753C21.7924 11.7405 21.7924 12.2595 21.5002 12.6247L18.3562 16.5548C18.2381 16.7024 18 16.6189 18 16.4298V7.57016C18 7.3811 18.2381 7.29759 18.3562 7.44522Z" stroke="black" stroke-width="2" stroke-linecap="round" stroke-linejoin="round"/>
<path d="M15.5172 5H8.48284C8.30466 5 8.21543 5.21543 8.34142 5.34142L11.2929 8.29289C11.6834 8.68342 12.3166 8.68342 12.7071 8.29289L15.6586 5.34142C15.7846 5.21543 15.6953 5 15.5172 5Z" stroke="black" stroke-width="2" stroke-linecap="round" stroke-linejoin="round"/>
<path d="M15.5172 19H8.48284C8.30466 19 8.21543 18.7846 8.34142 18.6586L11.2929 15.7071C11.6834 15.3166 12.3166 15.3166 12.7071 15.7071L15.6586 18.6586C15.7846 18.7846 15.6953 19 15.5172 19Z" stroke="black" stroke-width="2" stroke-linecap="round" stroke-linejoin="round"/>
</svg>
