<svg width="24" height="24" viewBox="0 0 24 24" fill="none" xmlns="http://www.w3.org/2000/svg">
<path d="M7 5.93648C4.01099 7.14681 2 9.40901 2 12C2 13.9582 3.14864 15.7286 5 16.999M7 5.93648C5.6388 9.42672 5.10582 11.7134 5 16.999M7 5.93648C7.77377 5.62316 8.61307 5.38033 9.5 5.22053M5 16.999C5.59829 17.4096 6.26998 17.7679 7 18.0635M17 18.0635C18.3612 14.5733 18.8942 12.2866 19 7.001M17 18.0635C19.989 16.8532 22 14.591 22 12C22 10.0418 20.8514 8.27144 19 7.001M17 18.0635C16.2262 18.3768 15.3869 18.6197 14.5 18.7795M19 7.001C18.4017 6.59043 17.73 6.23208 17 5.93648M9.5 5.22053C10.299 5.07657 11.1368 5 12 5C13.8214 5 15.5291 5.34088 17 5.93648M9.5 5.22053C8 13 12.5 12 17 5.93648M14.5 18.7795C16 11 11.5 12 7 18.0635M14.5 18.7795C13.701 18.9234 12.8632 19 12 19C10.1786 19 8.47087 18.6591 7 18.0635" stroke="black" stroke-width="2" stroke-linecap="round" stroke-linejoin="round"/>
</svg>
