<svg width="24" height="24" viewBox="0 0 24 24" fill="none" xmlns="http://www.w3.org/2000/svg">
<path d="M20 11V5.83333C20 4.82081 19.1941 4 18.2 4H3.8C2.80589 4 2 4.82081 2 5.83333V13.1667C2 14.1792 2.80589 15 3.8 15H11M16.4 8.125V10.875M5.6 8.125V10.875M22 15H19M22 15V18M22 15L17.7071 19.2929C17.3166 19.6834 16.6834 19.6834 16.2929 19.2929L14.7071 17.7071C14.3166 17.3166 13.6834 17.3166 13.2929 17.7071L11 20M12.8 9.5C12.8 10.5125 11.9941 11.3333 11 11.3333C10.0059 11.3333 9.2 10.5125 9.2 9.5C9.2 8.48748 10.0059 7.66667 11 7.66667C11.9941 7.66667 12.8 8.48748 12.8 9.5Z" stroke="black" stroke-width="2" stroke-linecap="round" stroke-linejoin="round"/>
</svg>
