<svg width="24" height="24" viewBox="0 0 24 24" fill="none" xmlns="http://www.w3.org/2000/svg">
<path d="M9.25 6.73684C9.25 8.15789 4 9.57895 4 13.3684C4 15.0883 4.80102 17.155 6.5 18.519M9.25 6.73684C9.25 5.45932 7.1285 4.56463 7.33567 2.67613C7.38132 2.26 7.77799 2 8.19662 2H13.8034C14.222 2 14.6187 2.26 14.6643 2.67613C14.8715 4.56463 12.75 5.45932 12.75 6.73684M9.25 6.73684H12.75M12.75 6.73684C12.75 8.11088 17.6584 9.48492 17.9831 13M20 17H17M20 17V20M20 17L15.7071 21.2929C15.3166 21.6834 14.6834 21.6834 14.2929 21.2929L12.7071 19.7071C12.3166 19.3166 11.6834 19.3166 11.2929 19.7071L9 22M12.5 11.25H11M11 11.25H10.625C10.0037 11.25 9.5 11.7537 9.5 12.375C9.5 12.9963 10.0037 13.5 10.625 13.5H11.375C11.9963 13.5 12.5 14.0037 12.5 14.625C12.5 15.2463 11.9963 15.75 11.375 15.75H11M11 11.25V10.5M11 15.75H9.5M11 15.75V16.5" stroke="black" stroke-width="2" stroke-linecap="round" stroke-linejoin="round"/>
</svg>
