<svg width="24" height="24" viewBox="0 0 24 24" fill="none" xmlns="http://www.w3.org/2000/svg">
<path d="M2.20004 10C3.12658 5.43552 7.16208 2 12 2C13.0936 2 14.1462 2.17555 15.1312 2.5M2.20004 10C2.06886 10.6462 2 11.3151 2 12C2 15.2712 3.57069 18.1755 5.99903 20M2.20004 10H21.8M21.8 10C21.9311 10.6462 22 11.3151 22 12C22 16.8379 18.5645 20.8734 14 21.8M21.8 10L5.99903 20M21.8 10C21.0829 6.46731 18.5035 3.61087 15.1312 2.5M5.99903 20C7.67051 21.2558 9.74835 22 12 22C12.6849 22 13.3538 21.9311 14 21.8M8 14L15.1312 2.5M15.1312 2.5L14 21.8" stroke="black" stroke-width="2" stroke-linecap="round" stroke-linejoin="round"/>
</svg>
