<svg width="24" height="24" viewBox="0 0 24 24" fill="none" xmlns="http://www.w3.org/2000/svg">
<path d="M4.00025 9.09267C3.89715 4.63083 6 2.99963 12.0003 2.99951C18.0005 2.99963 20.1034 4.63083 20.0003 9.09267C19.934 12.3401 19.3684 13.5642 17.5005 16.047C16.0005 18.0781 17.272 19.7843 21.0005 18.2323C15.9287 22.2962 11.5437 22.1403 14.5005 16.047C15.9269 13.1075 16.4919 11.5468 16.0005 9.09267C15.7972 8.07715 15.0005 7.0615 12.0003 7.0615C9 7.0615 8.20332 8.07715 8 9.09267C7.50865 11.5468 8.07361 13.1075 9.5 16.047C12.4568 22.1403 8.0718 22.2962 3 18.2323C6.72851 19.7843 8 18.0781 6.5 16.047C4.63213 13.5642 4.06648 12.3401 4.00025 9.09267Z" stroke="black" stroke-width="2" stroke-linecap="round" stroke-linejoin="round"/>
</svg>
