<svg width="24" height="24" viewBox="0 0 24 24" fill="none" xmlns="http://www.w3.org/2000/svg">
<path d="M20.8766 10.5063C20.1651 6.24662 16.4617 3 12 3C7.53831 3 3.83491 6.24662 3.12339 10.5063C2.9869 11.3234 3.67157 12 4.5 12H7C7.55229 12 7.98717 11.5453 8.12343 11.0101C8.56394 9.27976 10.1325 8 12 8C13.8675 8 15.4361 9.27976 15.8766 11.0101C16.0128 11.5453 16.4477 12 17 12H19.5C20.3284 12 21.0131 11.3234 20.8766 10.5063Z" stroke="black" stroke-width="2" stroke-linecap="round" stroke-linejoin="round"/>
<path d="M14.1716 15H9.82843C9.29799 15 8.78929 15.2107 8.41421 15.5858L5.98959 18.0104C5.79433 18.2057 5.79365 18.5227 5.99404 18.7127C6.81957 19.4954 7.82647 20.2996 8.88008 20.7675C9.24716 20.9306 9.66705 20.7995 9.92418 20.491L11.2318 18.9219C11.6316 18.4421 12.3684 18.4421 12.7682 18.9219L14.0758 20.491C14.3329 20.7995 14.7528 20.9306 15.1199 20.7675C16.1735 20.2996 17.1804 19.4954 18.006 18.7127C18.2064 18.5227 18.2057 18.2057 18.0104 18.0104L15.5858 15.5858C15.2107 15.2107 14.702 15 14.1716 15Z" stroke="black" stroke-width="2" stroke-linecap="round" stroke-linejoin="round"/>
</svg>
