<svg width="24" height="24" viewBox="0 0 24 24" fill="none" xmlns="http://www.w3.org/2000/svg">
<path d="M3.5 9.03451C3.17607 9.96308 3 10.961 3 12C3 13.0519 3.18046 14.0617 3.51212 15M3.5 9.03451C4.72571 5.52092 8.06846 3 12 3C15.9315 3 19.2743 5.52092 20.5 9.03451M3.5 9.03451C6.83785 11.3606 8.64835 11.4402 12 9.03451C15.1253 6.47255 17.0341 6.55476 20.5 9.03451M20.4879 15C19.2524 18.4956 15.9187 21 12 21C8.08134 21 4.74763 18.4956 3.51212 15M20.4879 15C20.8195 14.0617 21 13.0519 21 12C21 10.961 20.8239 9.96308 20.5 9.03451M20.4879 15C17.3313 11.8497 15.5282 11.9929 12 15C8.74159 17.3945 6.7455 17.2983 3.51212 15" stroke="black" stroke-width="2" stroke-linecap="round" stroke-linejoin="round"/>
</svg>
