<svg width="24" height="24" viewBox="0 0 24 24" fill="none" xmlns="http://www.w3.org/2000/svg">
<path d="M3.05493 13C3.01863 12.6717 3 12.338 3 12C3 10.961 3.17607 9.96308 3.5 9.03451C4.72571 5.52092 8.06846 3 12 3C14.3051 3 16.4077 3.86656 18 5.29168M3.05493 13C3.13159 13.6935 3.28703 14.3632 3.51212 15C3.76063 15.7031 4.09403 16.3661 4.5 16.9767M3.05493 13C10.3071 12.3454 13.539 10.6834 18 5.29168M18 5.29168C19.1235 6.29726 19.9929 7.58094 20.5 9.03451C20.6646 9.50634 20.791 9.99607 20.8756 10.5M4.5 16.9767C6.11238 19.4017 8.86954 21 12 21C15.9187 21 19.2524 18.4956 20.4879 15C20.8195 14.0617 21 13.0519 21 12C21 11.4889 20.9574 10.9878 20.8756 10.5M4.5 16.9767C12.5488 15.6581 18.0404 15.6347 20.8756 10.5" stroke="black" stroke-width="2" stroke-linecap="round" stroke-linejoin="round"/>
</svg>
