<svg width="24" height="24" viewBox="0 0 24 24" fill="none" xmlns="http://www.w3.org/2000/svg">
<path d="M4 13.0001C4 10.0001 8.7133 9.02832 13 9.00006L12 12.0001M4 13.0001V17.0001C4 19.5001 9 22.0001 17 22.0001L18 19.0001C9.30967 18.6061 6.25543 17.3395 4 13.0001ZM12 12.0001L11 15.0001C15.2867 14.9718 20 14 20 11M12 12.0001C8.29795 12.1818 6.50536 12.8319 5.22289 15.0001M12 12.0001C15.6798 11.8194 17.473 11.176 18.7539 9.03898M20 11V7C20 4.5 15 2 7 2L6 5C13.2099 5.32684 16.5404 6.25438 18.7539 9.03898M20 11C19.6158 10.2608 19.2084 9.61073 18.7539 9.03898M18.7539 9.03898C18.7617 9.02604 18.7694 9.01305 18.7771 9" stroke="black" stroke-width="2" stroke-linecap="round" stroke-linejoin="round"/>
</svg>
