<svg width="24" height="24" viewBox="0 0 24 24" fill="none" xmlns="http://www.w3.org/2000/svg">
<path d="M2 15L3.5 10.5M3.5 10.5L5.07692 6H6.91886C7.9427 6 8.66565 7.00305 8.34189 7.97434L7.95585 9.13246C7.68362 9.94914 6.91934 10.5 6.05848 10.5H3.5ZM19 18C13.5641 18 11.6785 16.6552 10.7949 12.5M10.7949 12.5C10.2416 10.6856 10.0641 9.37449 11.8205 8.9905C14.0641 8.5 14.0392 11.8228 10.7949 12.5ZM10.7949 12.5C5.0641 13.6962 7.5641 18.5 10.7949 16.1677L12.8462 14.3734M21.4872 7.1962C21 6 19.5942 6.05553 18.4103 7.1962C15.5 10 14.5 15 18.4103 15C20.3599 14.7373 21 13 20.7179 10.7848M19.5 11L20.7179 10.7848M22 10.5L20.7179 10.7848" stroke="black" stroke-width="2" stroke-linecap="round" stroke-linejoin="round"/>
</svg>
