<svg width="24" height="24" viewBox="0 0 24 24" fill="none" xmlns="http://www.w3.org/2000/svg">
<path d="M16.7368 9.38205C17.2335 10.3496 18.1287 12.5941 17.7895 13.2903C18.3495 14.7869 18.9379 15.1132 19.8947 15.871C19.8599 17.1359 20.1552 17.7398 20.6738 18.5483C20.823 18.7809 20.7598 19.0904 20.5285 19.2416L19.6554 19.8124C19.4825 19.9255 19.2572 19.9211 19.0915 19.7977C17.7906 18.829 17.3229 18.1761 17.7895 16.9032C14.9293 14.7199 13.7546 13.5566 13.5789 11.7419C10.9205 12.2387 9.41994 12.5686 7.78947 10.1935C7.55681 12.2402 5.88827 12.5031 3.06829 12.7021C2.49096 12.7428 2 12.2833 2 11.7045V11.3916C2 10.9803 2.25189 10.6109 2.63483 10.4607L4.63158 9.67742C6.25964 8.20427 6.24605 7.77783 4.63158 7.70354H3.48589C3.20946 7.70354 2.94537 7.58912 2.75632 7.38745L2.38527 6.99163C2.18032 6.773 2.2124 6.42443 2.4538 6.24688L4.10526 5.03226L4.63158 4L5.68421 5.03226C7.86239 5.45093 8.85744 5.95238 10.4211 7.09677C14.2016 9.65689 16.3581 11.2858 18.8421 7.09677C19.6675 5.60264 20.2762 4.9556 22 4.51613" stroke="black" stroke-width="2" stroke-linecap="round" stroke-linejoin="round"/>
</svg>
