<svg width="24" height="24" viewBox="0 0 24 24" fill="none" xmlns="http://www.w3.org/2000/svg">
<path d="M16.4444 9.03704V8.05556C16.4444 7.77941 16.2206 7.55556 15.9444 7.55556H12M7.55556 9.03704V8.05556C7.55556 7.77941 7.77941 7.55556 8.05556 7.55556H12M12 7.55556V16.4444M12 16.4444H10.5185M12 16.4444H13.4815M16.4444 12.6173L15.9506 12.1235M16.4444 12.6173L15.9506 13.1111M16.4444 12.6173H9.53086M8.04938 12.6173L7.55556 12.1235M8.04938 12.6173L7.55556 13.1111M8.04938 12.6173H9.53086M9.53086 12.6173L9.03704 12.1235M9.53086 12.6173L9.03704 13.1111M12 22C6.47715 22 2 17.5228 2 12C2 6.47715 6.47715 2 12 2C17.5228 2 22 6.47715 22 12C22 17.5228 17.5228 22 12 22Z" stroke="black" stroke-width="2" stroke-linecap="round" stroke-linejoin="round"/>
</svg>
