<svg width="24" height="24" viewBox="0 0 24 24" fill="none" xmlns="http://www.w3.org/2000/svg">
<path d="M7 12.5656C4.93037 11.5714 3.14018 9.9181 2 7.60561C3.13973 5.83221 3.99264 5.06738 6 4.00001C6.00031 7.64765 5.85757 9.96347 7 11.4344M7 12.5656C12.1911 15.0591 19.1402 13.4058 22 7.60561C20.8603 5.83221 20.0073 5.06738 18 4.00001C17.9997 7.64765 18.1424 9.96347 17 11.4344M7 12.5656C5.85757 14.0365 6.00031 16.3524 6 20C3.99264 18.9326 3.13973 18.1678 2 16.3944C6 8.28163 18 8.28169 22 16.3944C20.8603 18.1678 20.0073 18.9326 18 20C17.9997 16.3524 18.1424 14.0365 17 12.5656" stroke="black" stroke-width="2" stroke-linecap="round" stroke-linejoin="round"/>
</svg>
