<svg width="24" height="24" viewBox="0 0 24 24" fill="none" xmlns="http://www.w3.org/2000/svg">
<path d="M9 9.75H7.5M7.5 9.75H7.125C6.50368 9.75 6 10.2537 6 10.875C6 11.4963 6.50368 12 7.125 12H7.875C8.49632 12 9 12.5037 9 13.125C9 13.7463 8.49632 14.25 7.875 14.25H7.5M7.5 9.75V9M7.5 14.25H6M7.5 14.25V15M18 12H18.01M5 6L15.5858 6C16.6467 6 17.6641 6.42143 18.4142 7.17157L21.1213 9.87868C21.7071 10.4645 22 11.2322 22 12C22 12.7678 21.7071 13.5355 21.1213 14.1213L18.4142 16.8284C17.6641 17.5786 16.6467 18 15.5858 18H5C3.34315 18 2 16.6569 2 15V9C2 7.34315 3.34315 6 5 6Z" stroke="black" stroke-width="2" stroke-linecap="round" stroke-linejoin="round"/>
</svg>
