<svg width="24" height="24" viewBox="0 0 24 24" fill="none" xmlns="http://www.w3.org/2000/svg">
<path d="M5 6.34267C3.7492 7.88839 3 9.8567 3 12C3 15.9187 5.50442 19.2524 9 20.4879M5 6.34267L9 20.4879M5 6.34267C6.03608 5.06229 7.41632 4.07187 9 3.51212M9 20.4879C9.93834 20.8195 10.9481 21 12 21C13.0519 21 14.0617 20.8195 15 20.4879M9 20.4879L15 3.51212M19 6.34267L15 20.4879M19 6.34267C18.1886 5.3399 17.166 4.51499 16 3.93552C15.6772 3.7751 15.3434 3.63348 15 3.51212M19 6.34267C20.2508 7.88839 21 9.8567 21 12C21 15.9187 18.4956 19.2524 15 20.4879M15 20.4879L9 3.51212M9 3.51212C9.93834 3.18046 10.9481 3 12 3C13.0519 3 14.0617 3.18046 15 3.51212" stroke="black" stroke-width="2" stroke-linecap="round" stroke-linejoin="round"/>
</svg>
