<svg width="24" height="24" viewBox="0 0 24 24" fill="none" xmlns="http://www.w3.org/2000/svg">
<path d="M13.1111 2H10.8889L11.5 8H12.5L13.1111 2Z" stroke="black" stroke-width="2" stroke-linecap="round" stroke-linejoin="round"/>
<path d="M13.1111 22H10.8889L11.5 16H12.5L13.1111 22Z" stroke="black" stroke-width="2" stroke-linecap="round" stroke-linejoin="round"/>
<path d="M2 10.8889V13.1111L8 12.5V11.5L2 10.8889Z" stroke="black" stroke-width="2" stroke-linecap="round" stroke-linejoin="round"/>
<path d="M22 10.8889V13.1111L16 12.5V11.5L22 10.8889Z" stroke="black" stroke-width="2" stroke-linecap="round" stroke-linejoin="round"/>
<path d="M19.8576 18.2851L18.2862 19.8565L15 15.5L15.5 15L19.8576 18.2851Z" stroke="black" stroke-width="2" stroke-linecap="round" stroke-linejoin="round"/>
<path d="M5.71545 4.14301L4.1441 5.71436L8.5 9L9 8.5L5.71545 4.14301Z" stroke="black" stroke-width="2" stroke-linecap="round" stroke-linejoin="round"/>
<path d="M4.1441 18.2851L5.71545 19.8565L9 15.5L8.5 15L4.1441 18.2851Z" stroke="black" stroke-width="2" stroke-linecap="round" stroke-linejoin="round"/>
<path d="M18.2862 4.14301L19.8576 5.71436L15.5 9L15 8.5L18.2862 4.14301Z" stroke="black" stroke-width="2" stroke-linecap="round" stroke-linejoin="round"/>
</svg>
