<svg width="24" height="24" viewBox="0 0 24 24" fill="none" xmlns="http://www.w3.org/2000/svg">
<path d="M11 19C11 20.1046 10.1046 21 9 21C7.89543 21 7 20.1046 7 19C7 17.8954 7.89543 17 9 17C10.1046 17 11 17.8954 11 19Z" stroke="black" stroke-width="2"/>
<path d="M11 7C11 9.20914 9.20914 11 7 11C4.79086 11 3 9.20914 3 7C3 4.79086 4.79086 3 7 3C9.20914 3 11 4.79086 11 7Z" stroke="black" stroke-width="2"/>
<path d="M21 11C21 12.6569 19.6569 14 18 14C16.3431 14 15 12.6569 15 11C15 9.34315 16.3431 8 18 8C19.6569 8 21 9.34315 21 11Z" stroke="black" stroke-width="2"/>
</svg>
