<svg width="24" height="24" viewBox="0 0 24 24" fill="none" xmlns="http://www.w3.org/2000/svg">
<path d="M19 19V21M19 19C20.1046 19 21 18.1046 21 17V16C21 14.8954 20.1046 14 19 14M19 19C17.8954 19 17 18.1046 17 17V16C17 14.8954 17.8954 14 19 14M19 14V10M12 15V18M12 15C13.1046 15 14 14.1046 14 13V12C14 10.8954 13.1046 10 12 10M12 15C10.8954 15 10 14.1046 10 13V12C10 10.8954 10.8954 10 12 10M12 10V7M5 11V15M5 11C6.10457 11 7 10.1046 7 9V8C7 6.89543 6.10457 6 5 6M5 11C3.89543 11 3 10.1046 3 9V8C3 6.89543 3.89543 6 5 6M5 6V3" stroke="black" stroke-width="2" stroke-linecap="round"/>
</svg>
