<svg width="24" height="24" viewBox="0 0 24 24" fill="none" xmlns="http://www.w3.org/2000/svg">
<path d="M19 16V19M19 16C20.1046 16 21 15.1046 21 14V13C21 11.8954 20.1046 11 19 11M19 16C17.8954 16 17 15.1046 17 14V13C17 11.8954 17.8954 11 19 11M19 11V8M12 19V21M12 19C13.1046 19 14 18.1046 14 17V16C14 14.8954 13.1046 14 12 14M12 19C10.8954 19 10 18.1046 10 17V16C10 14.8954 10.8954 14 12 14M12 14V11M5 11V15M5 11C6.10457 11 7 10.1046 7 9V8C7 6.89543 6.10457 6 5 6M5 11C3.89543 11 3 10.1046 3 9V8C3 6.89543 3.89543 6 5 6M5 6V3" stroke="black" stroke-width="2" stroke-linecap="round"/>
</svg>
