<svg width="24" height="24" viewBox="0 0 24 24" fill="none" xmlns="http://www.w3.org/2000/svg">
<path d="M11 16C11 16.5523 11.4477 17 12 17C12.5523 17 13 16.5523 13 16H11ZM13 14C13 13.4477 12.5523 13 12 13C11.4477 13 11 13.4477 11 14H13ZM15 16C15 16.5523 15.4477 17 16 17C16.5523 17 17 16.5523 17 16H15ZM17 11C17 10.4477 16.5523 10 16 10C15.4477 10 15 10.4477 15 11H17ZM7 16C7 16.5523 7.44772 17 8 17C8.55228 17 9 16.5523 9 16H7ZM9 8C9 7.44772 8.55228 7 8 7C7.44772 7 7 7.44772 7 8H9ZM23 12C23 11.4477 22.5523 11 22 11C21.4477 11 21 11.4477 21 12H23ZM12 3C12.5523 3 13 2.55228 13 2C13 1.44772 12.5523 1 12 1V3ZM19.5 3C19.5 2.44772 19.0523 2 18.5 2C17.9477 2 17.5 2.44772 17.5 3H19.5ZM17.5 8C17.5 8.55228 17.9477 9 18.5 9C19.0523 9 19.5 8.55228 19.5 8H17.5ZM16 4.5C15.4477 4.5 15 4.94772 15 5.5C15 6.05228 15.4477 6.5 16 6.5V4.5ZM21 6.5C21.5523 6.5 22 6.05228 22 5.5C22 4.94772 21.5523 4.5 21 4.5V6.5ZM13 16V14H11V16H13ZM17 16V11H15V16H17ZM9 16V8H7V16H9ZM21 12C21 16.9706 16.9706 21 12 21V23C18.0751 23 23 18.0751 23 12H21ZM12 21C7.02944 21 3 16.9706 3 12H1C1 18.0751 5.92487 23 12 23V21ZM3 12C3 7.02944 7.02944 3 12 3V1C5.92487 1 1 5.92487 1 12H3ZM17.5 3V5.5H19.5V3H17.5ZM17.5 5.5V8H19.5V5.5H17.5ZM16 6.5H18.5V4.5H16V6.5ZM18.5 6.5H21V4.5H18.5V6.5Z" fill="black"/>
</svg>
