<svg width="24" height="24" viewBox="0 0 24 24" fill="none" xmlns="http://www.w3.org/2000/svg">
<path d="M4 3C4 2.44772 3.55228 2 3 2C2.44772 2 2 2.44772 2 3H4ZM21 22C21.5523 22 22 21.5523 22 21C22 20.4477 21.5523 20 21 20V22ZM21 8C21 7.44772 20.5523 7 20 7C19.4477 7 19 7.44772 19 8H21ZM9 8C9 7.44772 8.55228 7 8 7C7.44772 7 7 7.44772 7 8H9ZM2 3V17H4V3H2ZM7 22H21V20H7V22ZM2 17C2 19.7614 4.23858 22 7 22V20C5.34315 20 4 18.6569 4 17H2ZM14 17C16.3412 17 18.1238 15.7318 19.2804 14.0066C20.4244 12.3 21 10.0987 21 8H19C19 9.76727 18.5086 11.566 17.6191 12.8929C16.7422 14.2011 15.5248 15 14 15V17ZM7 8C7 10.0987 7.57562 12.3 8.71962 14.0066C9.87616 15.7318 11.6588 17 14 17V15C12.4752 15 11.2578 14.2011 10.3809 12.8929C9.49139 11.566 9 9.76727 9 8H7Z" fill="black"/>
</svg>
