<svg width="24" height="24" viewBox="0 0 24 24" fill="none" xmlns="http://www.w3.org/2000/svg">
<path d="M4 3C4 2.44772 3.55228 2 3 2C2.44772 2 2 2.44772 2 3H4ZM21 22C21.5523 22 22 21.5523 22 21C22 20.4477 21.5523 20 21 20V22ZM19 15C19 15.5523 19.4477 16 20 16C20.5523 16 21 15.5523 21 15H19ZM7 15C7 15.5523 7.44772 16 8 16C8.55228 16 9 15.5523 9 15H7ZM2 3V17H4V3H2ZM7 22H21V20H7V22ZM2 17C2 19.7614 4.23858 22 7 22V20C5.34315 20 4 18.6569 4 17H2ZM14 8C15.5248 8 16.7422 8.79885 17.6191 10.1071C18.5086 11.434 19 13.2327 19 15H21C21 12.9013 20.4244 10.7 19.2804 8.99344C18.1238 7.26815 16.3412 6 14 6V8ZM9 15C9 13.2327 9.49139 11.434 10.3809 10.1071C11.2578 8.79885 12.4752 8 14 8V6C11.6588 6 9.87616 7.26815 8.71962 8.99344C7.57562 10.7 7 12.9013 7 15H9Z" fill="black"/>
</svg>
