<svg width="24" height="24" viewBox="0 0 24 24" fill="none" xmlns="http://www.w3.org/2000/svg">
<path d="M15 7C15 5.89543 15.8954 5 17 5C18.1046 5 19 5.89543 19 7C19 7.93192 18.3626 8.71497 17.5 8.93699M15 7C15 8.10457 15.8954 9 17 9C17.1726 9 17.3402 8.97812 17.5 8.93699M15 7H9M9 7C9 5.89543 8.10457 5 7 5C5.89543 5 5 5.89543 5 7C5 7.93192 5.63739 8.71497 6.5 8.93699M9 7C9 8.10457 8.10457 9 7 9C6.82735 9 6.65981 8.97812 6.5 8.93699M6.5 8.93699L5.5 15.063M5.5 15.063C6.36261 15.285 7 16.0681 7 17C7 18.1046 6.10457 19 5 19C3.89543 19 3 18.1046 3 17C3 15.8954 3.89543 15 5 15C5.17265 15 5.34019 15.0219 5.5 15.063ZM17.5 8.93699L18.5 15.063M18.5 15.063C18.6598 15.0219 18.8274 15 19 15C20.1046 15 21 15.8954 21 17C21 18.1046 20.1046 19 19 19C17.8954 19 17 18.1046 17 17C17 16.0681 17.6374 15.285 18.5 15.063Z" stroke="black" stroke-width="2"/>
</svg>
