<svg width="24" height="24" viewBox="0 0 24 24" fill="none" xmlns="http://www.w3.org/2000/svg">
<path d="M15 17C15 18.1046 15.8954 19 17 19C18.1046 19 19 18.1046 19 17C19 16.0681 18.3626 15.285 17.5 15.063M15 17C15 15.8954 15.8954 15 17 15C17.1726 15 17.3402 15.0219 17.5 15.063M15 17H9M9 17C9 18.1046 8.10457 19 7 19C5.89543 19 5 18.1046 5 17C5 16.0681 5.63739 15.285 6.5 15.063M9 17C9 15.8954 8.10457 15 7 15C6.82735 15 6.65981 15.0219 6.5 15.063M6.5 15.063L5.5 8.93699M5.5 8.93699C6.36261 8.71497 7 7.93192 7 7C7 5.89543 6.10457 5 5 5C3.89543 5 3 5.89543 3 7C3 8.10457 3.89543 9 5 9C5.17265 9 5.34019 8.97812 5.5 8.93699ZM17.5 15.063L18.5 8.93699M18.5 8.93699C18.6598 8.97812 18.8274 9 19 9C20.1046 9 21 8.10457 21 7C21 5.89543 20.1046 5 19 5C17.8954 5 17 5.89543 17 7C17 7.93192 17.6374 8.71497 18.5 8.93699Z" stroke="black" stroke-width="2"/>
</svg>
