<svg width="24" height="24" viewBox="0 0 24 24" fill="none" xmlns="http://www.w3.org/2000/svg">
<path d="M3 9V18C3 19.6569 4.34315 21 6 21H18C19.6569 21 21 19.6569 21 18V9M3 9V6C3 4.34315 4.34315 3 6 3H18C19.6569 3 21 4.34315 21 6V9M3 9H21M6 6H6.01M10 6H10.01M14 6H14.01M18 6H18.01M10 12H7.5025C6.6731 12 6.00112 12.6731 6.0025 13.5025L6.005 15M10 12V18M10 12H14M10 18H7.5075C6.68005 18 6.00888 17.3299 6.0075 16.5025L6.005 15M10 18H14M14 12H16.5C17.3284 12 18 12.6716 18 13.5V15M14 12V18M14 18H16.5C17.3284 18 18 17.3284 18 16.5V15M6.005 15H18" stroke="black" stroke-width="2" stroke-linecap="round" stroke-linejoin="round"/>
</svg>
