<svg width="24" height="24" viewBox="0 0 24 24" fill="none" xmlns="http://www.w3.org/2000/svg">
<path d="M16 15.5C16 16.8807 14.6569 18 13 18C11.3431 18 10 16.8807 10 15.5C10 14.1193 11.3431 13 13 13C14.6569 13 16 14.1193 16 15.5ZM16 15.5V8M16 8V7C16 5.34315 17.3431 4 19 4H21C21.5523 4 22 4.44772 22 5V7C22 7.55228 21.5523 8 21 8H16ZM7 14.1667H6.16667C3.86548 14.1667 2 16.0321 2 18.3333V19.1667C2 19.6269 2.3731 20 2.83333 20C2.83333 20 7.48229 20 9.5 20M10.3333 8.33333C10.3333 10.1743 8.84095 11.6667 7 11.6667C5.15905 11.6667 3.66667 10.1743 3.66667 8.33333C3.66667 6.49238 5.15905 5 7 5C8.84095 5 10.3333 6.49238 10.3333 8.33333Z" stroke="black" stroke-width="2" stroke-linecap="round" stroke-linejoin="round"/>
</svg>
