<svg width="24" height="24" viewBox="0 0 24 24" fill="none" xmlns="http://www.w3.org/2000/svg">
<path d="M6 4H5C3.34315 4 2 5.34315 2 7V17C2 18.6569 3.34315 20 5 20H19C20.6569 20 22 18.6569 22 17V7C22 5.34315 20.6569 4 19 4H18M6 4L7.44721 6.89443C7.786 7.572 8.47852 8 9.23607 8H14.7639C15.5215 8 16.214 7.572 16.5528 6.89443L18 4M6 4H18M8 12V12C6.89543 12 6 12.8954 6 14V14C6 15.1046 6.89543 16 8 16V16M8 12V12C9.10457 12 10 12.8954 10 14V14C10 15.1046 9.10457 16 8 16V16M8 12H16M16 12V12C14.8954 12 14 12.8954 14 14V14C14 15.1046 14.8954 16 16 16V16M16 12V12C17.1046 12 18 12.8954 18 14V14C18 15.1046 17.1046 16 16 16V16M8 16H16" stroke="black" stroke-width="2" stroke-linecap="round" stroke-linejoin="round"/>
</svg>
