<svg width="24" height="24" viewBox="0 0 24 24" fill="none" xmlns="http://www.w3.org/2000/svg">
<path d="M11.1538 15.2C11.1538 16.1941 10.224 17 9.07692 17C7.92987 17 7 16.1941 7 15.2C7 14.2059 7.92987 13.4 9.07692 13.4C10.224 13.4 11.1538 14.2059 11.1538 15.2ZM11.1538 15.2V10.7V9.42308C11.1538 8.63713 11.791 8 12.5769 8C13.3629 8 14 8.63713 14 9.42308V10.7M2 15.5C2 17.9853 4.01472 20 6.5 20H16.5C19.5376 20 22 17.5376 22 14.5C22 11.624 19.7925 9.2635 16.9794 9.0206C16.7365 6.20752 14.376 4 11.5 4C8.46243 4 6 6.46243 6 9.5V11.0275C3.75002 11.2762 2 13.1837 2 15.5Z" stroke="black" stroke-width="2" stroke-linecap="round" stroke-linejoin="round"/>
</svg>
