<svg width="24" height="24" viewBox="0 0 24 24" fill="none" xmlns="http://www.w3.org/2000/svg">
<path d="M5 14.7222V12C5 10.067 5.7835 8.31701 7.05025 7.05025M5 14.7222C5 13.6483 5.87056 12.7778 6.94444 12.7778C8.01833 12.7778 8.88889 13.6483 8.88889 14.7222V17.0556C8.88889 18.1294 8.01833 19 6.94444 19C5.87056 19 5 18.1294 5 17.0556V14.7222ZM19 14V12C19 8.13401 15.866 5 12 5C11.3873 5 10.793 5.07872 10.2266 5.2266M15.1111 15.1111V17.0556C15.1111 18.1294 15.9817 19 17.0556 19C17.5925 19 18.0786 18.7824 18.4305 18.4305M15.1111 15.1111L7.05025 7.05025M15.1111 15.1111L18.4305 18.4305M3 3L7.05025 7.05025M18.4305 18.4305L21 21M18.0524 13.0524C18.3285 13.2176 18.5602 13.4493 18.7254 13.7254" stroke="black" stroke-width="2" stroke-linecap="round" stroke-linejoin="round"/>
</svg>
