<svg width="24" height="24" viewBox="0 0 24 24" fill="none" xmlns="http://www.w3.org/2000/svg">
<path d="M3 17V12C3 7.02944 7.02944 3 12 3V3C16.9706 3 21 7.02944 21 12V17M5.5 21V21C4.11929 21 3 19.8807 3 18.5V15.5C3 14.1193 4.11929 13 5.5 13V13C6.88071 13 8 14.1193 8 15.5V18.5C8 19.8807 6.88071 21 5.5 21ZM18.5 21V21C17.1193 21 16 19.8807 16 18.5V15.5C16 14.1193 17.1193 13 18.5 13V13C19.8807 13 21 14.1193 21 15.5V18.5C21 19.8807 19.8807 21 18.5 21Z" stroke="black" stroke-width="2" stroke-linecap="round" stroke-linejoin="round"/>
</svg>
