<svg width="24" height="24" viewBox="0 0 24 24" fill="none" xmlns="http://www.w3.org/2000/svg">
<path d="M3 18.5H5M21 5.5H19M14 18.5H17.75C19.5449 18.5 21 17.0449 21 15.25V15.25C21 13.4551 19.5449 12 17.75 12H6.25C4.45507 12 3 10.5449 3 8.75V8.75C3 6.95507 4.45507 5.5 6.25 5.5H10M11 18.5V17.5C11 16.6716 10.3284 16 9.5 16V16C8.67157 16 8 16.6716 8 17.5V18.5V19.5C8 20.3284 8.67157 21 9.5 21V21C10.3284 21 11 20.3284 11 19.5V18.5ZM13 5.5V6.5C13 7.32843 13.6716 8 14.5 8V8C15.3284 8 16 7.32843 16 6.5V5.5V4.5C16 3.67157 15.3284 3 14.5 3V3C13.6716 3 13 3.67157 13 4.5V5.5Z" stroke="black" stroke-width="2" stroke-linecap="round" stroke-linejoin="round"/>
</svg>
