<svg width="24" height="24" viewBox="0 0 24 24" fill="none" xmlns="http://www.w3.org/2000/svg">
<path d="M9 19.5V19.5C9 18.6716 8.32843 18 7.5 18V18C6.67157 18 6 18.6716 6 19.5V19.5M9 19.5V19.5C9 20.3284 8.32843 21 7.5 21V21C6.67157 21 6 20.3284 6 19.5V19.5M9 19.5H17.25C19.3211 19.5 21 17.8211 21 15.75V15.75C21 13.6789 19.3211 12 17.25 12H6.75C4.67893 12 3 10.3211 3 8.25V8.25C3 6.17893 4.67893 4.5 6.75 4.5H15M6 19.5H3M15 4.5V4.5C15 5.32843 15.6716 6 16.5 6V6C17.3284 6 18 5.32843 18 4.5V4.5M15 4.5V4.5C15 3.67157 15.6716 3 16.5 3V3C17.3284 3 18 3.67157 18 4.5V4.5M18 4.5H21" stroke="black" stroke-width="2" stroke-linecap="round" stroke-linejoin="round"/>
</svg>
