<svg width="24" height="24" viewBox="0 0 24 24" fill="none" xmlns="http://www.w3.org/2000/svg">
<path d="M2 7H11M22 7H20M22 17H13M2 17H4M14 7V7C14 6.17157 14.6716 5.5 15.5 5.5V5.5C16.3284 5.5 17 6.17157 17 7V7C17 7.82843 16.3284 8.5 15.5 8.5V8.5C14.6716 8.5 14 7.82843 14 7V7ZM10 17V17C10 16.1716 9.32843 15.5 8.5 15.5V15.5C7.67157 15.5 7 16.1716 7 17V17C7 17.8284 7.67157 18.5 8.5 18.5V18.5C9.32843 18.5 10 17.8284 10 17V17Z" stroke="black" stroke-width="2" stroke-linecap="round" stroke-linejoin="round"/>
</svg>
