<svg width="24" height="24" viewBox="0 0 24 24" fill="none" xmlns="http://www.w3.org/2000/svg">
<path d="M2 7H14M14 7V5.5C14 4.67157 14.6716 4 15.5 4V4C16.3284 4 17 4.67157 17 5.5V8.5C17 9.32843 16.3284 10 15.5 10V10C14.6716 10 14 9.32843 14 8.5V7ZM22 7H20M22 17H10M10 17V15.5C10 14.6716 9.32843 14 8.5 14V14C7.67157 14 7 14.6716 7 15.5V18.5C7 19.3284 7.67157 20 8.5 20V20C9.32843 20 10 19.3284 10 18.5V17ZM2 17H4" stroke="black" stroke-width="2" stroke-linecap="round" stroke-linejoin="round"/>
</svg>
