<svg width="24" height="24" viewBox="0 0 24 24" fill="none" xmlns="http://www.w3.org/2000/svg">
<path d="M15 7V7C15.5523 7 16 6.55228 16 6V6C16 5.44772 15.5523 5 15 5V5C14.4477 5 14 5.44772 14 6V6C14 6.55228 14.4477 7 15 7V7ZM15 7V13M7.5 5.5H7.51M10.5 5.5H10.51M12 15V15C12.5523 15 13 14.5523 13 14V14C13 13.4477 12.5523 13 12 13V13C11.4477 13 11 13.4477 11 14V14C11 14.5523 11.4477 15 12 15ZM12 19V19C14.7614 19 17 16.7614 17 14V14C17 11.2386 14.7614 9 12 9V9C9.23858 9 7 11.2386 7 14V14C7 16.7614 9.23858 19 12 19ZM7 22H17C18.6569 22 20 20.6569 20 19V5C20 3.34315 18.6569 2 17 2H7C5.34315 2 4 3.34315 4 5V19C4 20.6569 5.34315 22 7 22Z" stroke="black" stroke-width="2" stroke-linecap="round" stroke-linejoin="round"/>
</svg>
