<svg width="24" height="24" viewBox="0 0 24 24" fill="none" xmlns="http://www.w3.org/2000/svg">
<path d="M15.5 14.5H8.5M17.5 18H6.5M8 5.5C9.38071 5.5 10.5 6.61929 10.5 8C10.5 9.38071 9.38071 10.5 8 10.5C6.61929 10.5 5.5 9.38071 5.5 8C5.5 6.61929 6.61929 5.5 8 5.5ZM8 5.5V7M18.5 8C18.5 9.38071 17.3807 10.5 16 10.5C14.6193 10.5 13.5 9.38071 13.5 8C13.5 6.61929 14.6193 5.5 16 5.5C17.3807 5.5 18.5 6.61929 18.5 8ZM18.5 8H17M6 21H18C19.6569 21 21 19.6569 21 18V6C21 4.34315 19.6569 3 18 3H6C4.34315 3 3 4.34315 3 6V18C3 19.6569 4.34315 21 6 21Z" stroke="black" stroke-width="2" stroke-linecap="round" stroke-linejoin="round"/>
</svg>
