<svg width="24" height="24" viewBox="0 0 24 24" fill="none" xmlns="http://www.w3.org/2000/svg">
<path d="M5 7.5V6C5 4.89543 5.89543 4 7 4H17C18.1046 4 19 4.89543 19 6V7.5M5 7.5V11C5 12.1046 5.89543 13 7 13H17C18.1046 13 19 12.1046 19 11V7.5M5 7.5H4C2.89543 7.5 2 8.39543 2 9.5V15C2 16.1046 2.89543 17 4 17V17M19 7.5H20C21.1046 7.5 22 8.39543 22 9.5V15C22 16.1046 21.1046 17 20 17V17M4 17V18C4 19.1046 4.89543 20 6 20H8M4 17H8M20 17V18C20 19.1046 19.1046 20 18 20H16M20 17H16M12 17V20M12 17H16M12 17H8M12 20H16M12 20H8M16 17V20M8 17V20" stroke="black" stroke-width="2" stroke-linecap="round" stroke-linejoin="round"/>
</svg>
