<svg width="24" height="24" viewBox="0 0 24 24" fill="none" xmlns="http://www.w3.org/2000/svg">
<path d="M6.00525 16V16C7.28079 16 8.50671 15.4933 9.40865 14.5913L14.5913 9.40865C15.4933 8.50671 16.7192 8 17.9947 8V8C20.2039 8 22 9.79086 22 12V12C22 14.2091 20.2039 16 17.9947 16V16C16.7192 16 15.4933 15.4933 14.5913 14.5913L9.40865 9.40865C8.50671 8.50671 7.28079 8 6.00525 8V8C3.79611 8 2 9.79086 2 12V12C2 14.2091 3.79611 16 6.00525 16Z" stroke="black" stroke-width="2" stroke-linecap="round" stroke-linejoin="round"/>
</svg>
