<svg width="24" height="24" viewBox="0 0 24 24" fill="none" xmlns="http://www.w3.org/2000/svg">
<path d="M20 12V12C20 7.58172 16.4183 4 12 4V4C7.58172 4 4 7.58172 4 12V12M11.265 18.0219L13.8216 16.424C14.1349 16.2282 14.1349 15.7718 13.8216 15.576L11.265 13.9781C10.932 13.77 10.5 14.0094 10.5 14.4021V17.5979C10.5 17.9906 10.932 18.23 11.265 18.0219ZM4 20V20C2.89543 20 2 19.1046 2 18V14C2 12.8954 2.89543 12 4 12V12C5.10457 12 6 12.8954 6 14V18C6 19.1046 5.10457 20 4 20ZM20 20V20C18.8954 20 18 19.1046 18 18V14C18 12.8954 18.8954 12 20 12V12C21.1046 12 22 12.8954 22 14V18C22 19.1046 21.1046 20 20 20Z" stroke="black" stroke-width="2" stroke-linecap="round" stroke-linejoin="round"/>
</svg>
