<svg width="24" height="24" viewBox="0 0 24 24" fill="none" xmlns="http://www.w3.org/2000/svg">
<path d="M9 8.64582C8.37764 7.94069 8 7.01445 8 6C8 3.79086 9.79086 2 12 2C14.2091 2 16 3.79086 16 6C16 7.01445 15.6224 7.94069 15 8.64582M9 8.64582C9.73294 9.47625 10.8053 10 12 10C13.1947 10 14.2671 9.47625 15 8.64582M9 8.64582L9.91965 19.0877C9.96512 19.604 10.3975 20 10.9158 20H11M15 8.64582L14.0803 19.0877C14.0349 19.604 13.6025 20 13.0842 20H13M11 20V21C11 21.5523 11.4477 22 12 22V22C12.5523 22 13 21.5523 13 21V20M11 20H13M12 13V14" stroke="black" stroke-width="2" stroke-linecap="round" stroke-linejoin="round"/>
</svg>
