<svg width="24" height="24" viewBox="0 0 24 24" fill="none" xmlns="http://www.w3.org/2000/svg">
<path d="M9 8.25V12C9 13.6569 10.3431 15 12 15C12.7091 15 13.3607 14.754 13.8742 14.3427M9 8.25L4 2M9 8.25L13.8742 14.3427M15 10.25V5C15 3.34315 13.6569 2 12 2C10.9485 2 10.0234 2.54093 9.48775 3.35968M6 11.5V12C6 15.3137 8.68629 18 12 18M18 11.5V12C18 12.5891 17.9151 13.1583 17.7569 13.6961M12 18V22M12 18C13.4181 18 14.7214 17.508 15.7483 16.6854M12 22H15M12 22H9M13.8742 14.3427L15.7483 16.6854M15.7483 16.6854L20 22" stroke="black" stroke-width="2" stroke-linecap="round" stroke-linejoin="round"/>
</svg>
