<svg width="24" height="24" viewBox="0 0 24 24" fill="none" xmlns="http://www.w3.org/2000/svg">
<path d="M7 7H12M7 10.5H12M7 14H12M16.9341 18.4C16.9341 19.8359 15.6057 21 13.967 21C12.3284 21 11 19.8359 11 18.4C11 18.264 11.0119 18.1304 11.0349 18C11.2545 16.754 12.4836 15.8 13.967 15.8C14.6172 15.8 15.2185 15.9832 15.7073 16.294C16.4507 16.7665 16.9341 17.5338 16.9341 18.4ZM16.9341 18.4V10.0556C16.9341 8.9203 17.8443 8 18.967 8C20.0898 8 21 8.9203 21 10.0556V11.9M15.9585 5.5C15.7205 4.08114 14.4865 3 13 3H6C4.34315 3 3 4.34315 3 6V15C3 16.6569 4.34315 18 6 18H7.5" stroke="black" stroke-width="2" stroke-linecap="round" stroke-linejoin="round"/>
</svg>
