<svg width="24" height="24" viewBox="0 0 24 24" fill="none" xmlns="http://www.w3.org/2000/svg">
<path fill-rule="evenodd" clip-rule="evenodd" d="M6 2C3.79086 2 2 3.79086 2 6V15C2 17.2091 3.79086 19 6 19H7V20.5C7 21.2889 7.6684 22.0829 8.626 21.9603C10.4191 21.7306 11.8825 20.5162 12.3473 19H18C20.2091 19 22 17.2091 22 15V6C22 3.79086 20.2091 2 18 2H6ZM4 6C4 4.89543 4.89543 4 6 4H18C19.1046 4 20 4.89543 20 6V15C20 16.1046 19.1046 17 18 17H12C11.1346 17 10.5991 17.6813 10.4687 18.2851C10.3411 18.8762 9.81031 19.5178 9 19.8216V18.5C9 17.6716 8.32843 17 7.5 17H6C4.89543 17 4 16.1046 4 15V6ZM8.25035 12C6.98685 11.8744 6 10.8058 6 9.50615C6 8.12204 7.11929 7 8.5 7C9.88071 7 11 8.12204 11 9.50615C11 11.758 10.1097 13.7766 8.74912 13.9973C8.61283 14.0194 8.5 13.905 8.5 13.7666V12.2629C8.5 12.1245 8.38775 12.0136 8.25035 12ZM15.2503 12C13.9869 11.8744 13 10.8058 13 9.50615C13 8.12204 14.1193 7 15.5 7C16.8807 7 18 8.12204 18 9.50615C18 11.758 17.1097 13.7766 15.7491 13.9973C15.6128 14.0194 15.5 13.905 15.5 13.7666V12.2629C15.5 12.1245 15.3877 12.0136 15.2503 12Z" fill="black"/>
</svg>
