<svg width="24" height="24" viewBox="0 0 24 24" fill="none" xmlns="http://www.w3.org/2000/svg">
<path d="M14.4375 17.4C14.4375 19.3882 12.5487 21 10.2188 21C7.8888 21 6 19.3882 6 17.4C6 15.4118 7.8888 13.8 10.2188 13.8C12.5487 13.8 14.4375 15.4118 14.4375 17.4ZM14.4375 17.4V8.4M14.4375 8.4V5C14.4375 3.89543 15.3329 3 16.4375 3H20C20.5523 3 21 3.44772 21 4V7.4C21 7.95228 20.5523 8.4 20 8.4H14.4375ZM3 4H10M3 7H10M3 10H10" stroke="black" stroke-width="2" stroke-linecap="round" stroke-linejoin="round"/>
</svg>
