<svg width="24" height="24" viewBox="0 0 24 24" fill="none" xmlns="http://www.w3.org/2000/svg">
<path d="M9 18.5C9 19.8807 7.65685 21 6 21C4.34315 21 3 19.8807 3 18.5C3 17.1193 4.34315 16 6 16C7.65685 16 9 17.1193 9 18.5ZM9 18.5V14M16.7873 16.7873C17.1581 16.9241 17.5684 17 18 17C19.6569 17 21 15.8807 21 14.5M16.7873 16.7873L15.0816 15.0816M16.7873 16.7873L21 21M15.0816 15.0816C15.0282 14.895 15 14.7002 15 14.5C15 13.1193 16.3431 12 18 12C19.6569 12 21 13.1193 21 14.5M15.0816 15.0816L9 9M21 14.5V6C21 4.34315 19.6569 3 18 3H12C10.3431 3 9 4.34315 9 6V9M9 9L3 3" stroke="black" stroke-width="2" stroke-linecap="round" stroke-linejoin="round"/>
</svg>
