<svg width="24" height="24" viewBox="0 0 24 24" fill="none" xmlns="http://www.w3.org/2000/svg">
<path d="M12.8125 16.8C12.8125 18.5673 11.1755 20 9.15625 20C7.13696 20 5.5 18.5673 5.5 16.8C5.5 15.0327 7.13696 13.6 9.15625 13.6C11.1755 13.6 12.8125 15.0327 12.8125 16.8ZM12.8125 16.8V8.8M12.8125 8.8V5.6C12.8125 4.71634 13.54 4 14.4375 4H17.6875C18.1362 4 18.5 4.35817 18.5 4.8V8C18.5 8.44183 18.1362 8.8 17.6875 8.8H12.8125ZM3 3L21 21M3 21L21 3" stroke="black" stroke-width="2" stroke-linecap="round" stroke-linejoin="round"/>
</svg>
