<svg width="24" height="24" viewBox="0 0 24 24" fill="none" xmlns="http://www.w3.org/2000/svg">
<path d="M9 18.5C9 19.8807 7.65685 21 6 21C4.34315 21 3 19.8807 3 18.5C3 17.1193 4.34315 16 6 16C7.65685 16 9 17.1193 9 18.5ZM9 18.5V6C9 4.34315 10.3431 3 12 3H18C19.6569 3 21 4.34315 21 6V14.5M21 14.5C21 15.8807 19.6569 17 18 17C16.3431 17 15 15.8807 15 14.5C15 13.1193 16.3431 12 18 12C19.6569 12 21 13.1193 21 14.5Z" stroke="black" stroke-width="2" stroke-linecap="round" stroke-linejoin="round"/>
</svg>
