<svg width="24" height="24" viewBox="0 0 24 24" fill="none" xmlns="http://www.w3.org/2000/svg">
<path d="M13.0888 15.2937L16.8411 13.1018C17.2804 12.8452 17.5 12.4226 17.5 12C17.5 11.5774 17.2804 11.1548 16.8411 10.8982L13.0888 8.7063M6.5 15.2935L10.2523 13.1016C10.6914 12.845 10.9111 12.4225 10.9112 12C10.9112 11.5773 10.6916 11.1546 10.2523 10.8979L6.5 8.70605M12 22C17.5228 22 22 17.5228 22 12C22 6.47715 17.5228 2 12 2C6.47715 2 2 6.47715 2 12C2 17.5228 6.47715 22 12 22Z" stroke="black" stroke-width="2" stroke-linecap="round" stroke-linejoin="round"/>
</svg>
