<svg width="24" height="24" viewBox="0 0 24 24" fill="none" xmlns="http://www.w3.org/2000/svg">
<path d="M5 17V17C3.89543 17 3 16.1046 3 15V9C3 5.68629 5.68629 3 9 3V3C12.3137 3 15 5.68629 15 9V9.20972C15 10.2789 15.6841 11.228 16.6984 11.5661L19.6325 12.5442C20.4491 12.8164 21 13.5807 21 14.4415V15C21 16.1046 20.1046 17 19 17V17M5 17V19C5 20.1046 5.89543 21 7 21H17C18.1046 21 19 20.1046 19 19V17M5 17H8.5M19 17H15.5M12 17V18.5M12 17H8.5M12 17H15.5M8.5 17V18.5M15.5 17V18.5" stroke="black" stroke-width="2" stroke-linecap="round" stroke-linejoin="round"/>
</svg>
