<svg width="24" height="24" viewBox="0 0 24 24" fill="none" xmlns="http://www.w3.org/2000/svg">
<path d="M4.5 4.04148V11C4.5 11.5523 4.94772 12 5.5 12H6M4.5 4.04148C3.08114 4.27952 2 5.5135 2 7V17C2 18.6569 3.34315 20 5 20H6M4.5 4.04148C4.6626 4.0142 4.82964 4 5 4H7.5M19.5 4.04148V11C19.5 11.5523 19.0523 12 18.5 12H18M19.5 4.04148C20.9189 4.27952 22 5.5135 22 7V17C22 18.6569 20.6569 20 19 20H18M19.5 4.04148C19.3374 4.0142 19.1704 4 19 4H16.5M7.5 4V11C7.5 11.5523 7.05228 12 6.5 12H6M7.5 4H10.5M13.5 4V11C13.5 11.5523 13.0523 12 12.5 12H12M13.5 4H10.5M13.5 4H16.5M10.5 4V11C10.5 11.5523 10.9477 12 11.5 12H12M16.5 4V11C16.5 11.5523 16.9477 12 17.5 12H18M6 12V20M6 20H12M12 12V20M12 20H18M18 12V20" stroke="black" stroke-width="2" stroke-linecap="round" stroke-linejoin="round"/>
</svg>
