<svg width="24" height="24" viewBox="0 0 24 24" fill="none" xmlns="http://www.w3.org/2000/svg">
<path d="M10 14.5H22M10 19H22M5.32162 7.92398L2.765 9.52188C2.43198 9.73002 2 9.49059 2 9.09788V5.90199C2 5.50926 2.43199 5.26984 2.76501 5.478L5.32164 7.07599C5.63496 7.27183 5.63495 7.72815 5.32162 7.92398ZM10 7V8C10 9.10457 10.8954 10 12 10H20C21.1046 10 22 9.10457 22 8V7C22 5.89543 21.1046 5 20 5H12C10.8954 5 10 5.89543 10 7Z" stroke="black" stroke-width="2" stroke-linecap="round" stroke-linejoin="round"/>
</svg>
