<svg width="24" height="24" viewBox="0 0 24 24" fill="none" xmlns="http://www.w3.org/2000/svg">
<path d="M10.9112 15.2937L7.1589 13.1018C6.71963 12.8452 6.5 12.4226 6.5 12C6.5 11.5774 6.71963 11.1548 7.1589 10.8982L10.9112 8.7063M17.5 15.2935L13.7477 13.1016C13.3086 12.845 13.0889 12.4225 13.0888 12C13.0888 11.5773 13.3084 11.1546 13.7477 10.8979L17.5 8.70605M12 22C6.47715 22 2 17.5228 2 12C2 6.47715 6.47715 2 12 2C17.5228 2 22 6.47715 22 12C22 17.5228 17.5228 22 12 22Z" stroke="black" stroke-width="2" stroke-linecap="round" stroke-linejoin="round"/>
</svg>
