<svg width="24" height="24" viewBox="0 0 24 24" fill="none" xmlns="http://www.w3.org/2000/svg">
<path d="M8.4 16.8007C6.94266 15.706 6 13.9632 6 12.0002C6 10.0373 6.94266 8.29445 8.4 7.1998M15.6 16.8007C17.0573 15.706 18 13.9632 18 12.0002C18 10.0373 17.0573 8.29445 15.6 7.1998M18 3.99951C20.4289 5.82392 22 8.72861 22 12.0002C22 15.2719 20.4289 18.1766 18 20.001M6 3.99951C3.57111 5.82392 2 8.72861 2 12.0002C2 15.2719 3.57111 18.1766 6 20.001M12 13.5002C11.1716 13.5002 10.5 12.8287 10.5 12.0002C10.5 11.1718 11.1716 10.5002 12 10.5002C12.8284 10.5002 13.5 11.1718 13.5 12.0002C13.5 12.8287 12.8284 13.5002 12 13.5002Z" stroke="black" stroke-width="2" stroke-linecap="round" stroke-linejoin="round"/>
</svg>
