<svg width="24" height="24" viewBox="0 0 24 24" fill="none" xmlns="http://www.w3.org/2000/svg">
<path d="M7 5H17M9 2H15M13.5604 17.4C13.5604 18.2837 12.7634 19 11.7802 19C10.797 19 10 18.2837 10 17.4C10 17.3163 10.0072 17.2341 10.0209 17.1538C10.1527 16.3871 10.8902 15.8 11.7802 15.8C12.1703 15.8 12.5311 15.9128 12.8244 16.104C13.2704 16.3948 13.5604 16.8669 13.5604 17.4ZM13.5604 17.4V12.265C13.5604 11.5663 14.1066 11 14.7802 11C15.4539 11 16 11.5663 16 12.265V13.4M9.5 11V12.5M9.5 14V12.5M9.5 12.5H8M9.5 12.5H11M8 22H16C17.6569 22 19 20.6569 19 19V11C19 9.34315 17.6569 8 16 8H8C6.34315 8 5 9.34315 5 11V19C5 20.6569 6.34315 22 8 22Z" stroke="black" stroke-width="2" stroke-linecap="round" stroke-linejoin="round"/>
</svg>
