<svg width="24" height="24" viewBox="0 0 24 24" fill="none" xmlns="http://www.w3.org/2000/svg">
<path d="M11.5 7.5V12.45C11.5 12.6985 11.7015 12.9 11.95 12.9H14.2M20.9451 13C20.9814 12.6717 21 12.338 21 12C21 7.02944 16.9706 3 12 3C7.02944 3 3 7.02944 3 12C3 16.8028 6.76201 20.7269 11.5 20.9863M15 16.311V19.689C15 20.6902 16.065 21.3208 16.927 20.83L20.5606 18.7607C21.1465 18.427 21.1465 17.573 20.5606 17.2393L16.927 15.17C16.065 14.6792 15 15.3098 15 16.311Z" stroke="black" stroke-width="2" stroke-linecap="round" stroke-linejoin="round"/>
</svg>
