<svg width="24" height="24" viewBox="0 0 24 24" fill="none" xmlns="http://www.w3.org/2000/svg">
<path d="M20 12.5V13C20 15.2091 18.2091 17 16 17H8M3 12.5V11C3 8.79086 4.79086 7 7 7H16M17.6247 9.70024L20.0239 7.78087C20.5243 7.38054 20.5243 6.61946 20.0239 6.21913L17.6247 4.29976C16.9699 3.77595 16 4.24212 16 5.08062V8.91938C16 9.75788 16.9699 10.2241 17.6247 9.70024ZM6.3753 14.2998L3.97609 16.2191C3.47568 16.6195 3.47568 17.3805 3.97609 17.7809L6.37531 19.7002C7.03007 20.2241 8 19.7579 8 18.9194V15.0806C8 14.2421 7.03007 13.7759 6.3753 14.2998Z" stroke="black" stroke-width="2" stroke-linecap="round" stroke-linejoin="round"/>
</svg>
