<svg width="24" height="24" viewBox="0 0 24 24" fill="none" xmlns="http://www.w3.org/2000/svg">
<path d="M12 12H15.5604C16.8225 12 17.7691 10.8453 17.5216 9.60777L16.4823 4.41165C16.2019 3.00938 14.9706 2 13.5406 2H10.4594C9.02937 2 7.79812 3.00938 7.51767 4.41165L6.47845 9.60777C6.23093 10.8454 7.17752 12 8.43961 12H12ZM12 12V18M12 18L8 22M12 18L16 22M12 18V21M12 9V9C13.1046 9 14 8.10457 14 7V7C14 5.89543 13.1046 5 12 5V5C10.8954 5 10 5.89543 10 7V7C10 8.10457 10.8954 9 12 9Z" stroke="black" stroke-width="2" stroke-linecap="round" stroke-linejoin="round"/>
</svg>
