<svg width="24" height="24" viewBox="0 0 24 24" fill="none" xmlns="http://www.w3.org/2000/svg">
<path d="M10.25 5H8.5C7.67157 5 7 5.67157 7 6.5V6.5C7 7.32843 7.67157 8 8.5 8H10.25M10.25 5V8M10.25 5H13.75M10.25 8H13.75M13.75 5H15.5C16.3284 5 17 5.67157 17 6.5V6.5C17 7.32843 16.3284 8 15.5 8H13.75M13.75 5V8M12 15H12.01M12 19V19C14.2091 19 16 17.2091 16 15V15C16 12.7909 14.2091 11 12 11V11C9.79086 11 8 12.7909 8 15V15C8 17.2091 9.79086 19 12 19ZM7 22H17C18.6569 22 20 20.6569 20 19V5C20 3.34315 18.6569 2 17 2H7C5.34315 2 4 3.34315 4 5V19C4 20.6569 5.34315 22 7 22Z" stroke="black" stroke-width="2" stroke-linecap="round" stroke-linejoin="round"/>
</svg>
