<svg width="24" height="24" viewBox="0 0 24 24" fill="none" xmlns="http://www.w3.org/2000/svg">
<path d="M14 13.6V6.61803C14 5.87465 13.2177 5.39116 12.5528 5.72361L9.26687 7.36656C8.55322 7.72339 7.7768 7.93369 6.98334 7.98667M14 13.6L6.98334 7.98667M14 13.6L22 20M19.717 7.5C21.1087 8.55605 22 10.1794 22 12C22 13.8206 21.1087 15.4439 19.717 16.5M17.5 10.125C18.0799 10.565 18.4513 11.2414 18.4513 12C18.4513 12.7586 18.0799 13.435 17.5 13.875M2 4L6.98334 7.98667M2.65731 9.12585C2.246 9.63932 2 10.2909 2 11V13C2 14.6569 3.34315 16 5 16H6.58359C7.51506 16 8.43374 16.2169 9.26687 16.6334L12.5528 18.2764C12.9961 18.498 13.4916 18.357 13.7726 18.0181" stroke="black" stroke-width="2" stroke-linecap="round" stroke-linejoin="round"/>
</svg>
