<svg width="24" height="24" viewBox="0 0 24 24" fill="none" xmlns="http://www.w3.org/2000/svg">
<path d="M20.0487 10.125C20.6286 10.565 21 11.2414 21 12C21 12.7586 20.6286 13.435 20.0487 13.875M7 16H8.58359C9.51506 16 10.4337 16.2169 11.2669 16.6334L14.5528 18.2764C15.2177 18.6088 16 18.1253 16 17.382V6.61803C16 5.87465 15.2177 5.39116 14.5528 5.72361L11.2669 7.36656C10.4337 7.78313 9.51506 8 8.58359 8H7C5.34315 8 4 9.34315 4 11V13C4 14.6569 5.34315 16 7 16Z" stroke="black" stroke-width="2" stroke-linecap="round" stroke-linejoin="round"/>
</svg>
