<svg width="24" height="24" viewBox="0 0 24 24" fill="none" xmlns="http://www.w3.org/2000/svg">
<path d="M9.08623 2.27752C9.12802 1.99627 9.48534 1.90053 9.66216 2.1232L11.7455 4.74671C11.8756 4.91055 12.1244 4.91055 12.2545 4.74671L14.3378 2.1232C14.5147 1.90053 14.872 1.99627 14.9138 2.27752L15.4062 5.59122C15.437 5.79817 15.6524 5.92255 15.847 5.84572L18.963 4.61536C19.2275 4.51093 19.4891 4.77251 19.3846 5.03697L18.1543 8.15296C18.0774 8.34756 18.2018 8.563 18.4088 8.59376L21.7225 9.08623C22.0037 9.12802 22.0995 9.48534 21.8768 9.66216L19.2533 11.7455C19.0894 11.8756 19.0894 12.1244 19.2533 12.2545L21.8768 14.3378C22.0995 14.5147 22.0037 14.872 21.7225 14.9138L18.4088 15.4062C18.2018 15.437 18.0774 15.6524 18.1543 15.847L19.3846 18.963C19.4891 19.2275 19.2275 19.4891 18.963 19.3846L15.847 18.1543C15.6524 18.0774 15.437 18.2018 15.4062 18.4088L14.9138 21.7225C14.872 22.0037 14.5147 22.0995 14.3378 21.8768L12.2545 19.2533C12.1244 19.0894 11.8756 19.0894 11.7455 19.2533L9.66216 21.8768C9.48534 22.0995 9.12802 22.0037 9.08623 21.7225L8.59376 18.4088C8.563 18.2018 8.34756 18.0774 8.15296 18.1543L5.03697 19.3846C4.77251 19.4891 4.51093 19.2275 4.61536 18.963L5.84572 15.847C5.92255 15.6524 5.79817 15.437 5.59122 15.4062L2.27752 14.9138C1.99627 14.872 1.90053 14.5147 2.1232 14.3378L4.74671 12.2545C4.91055 12.1244 4.91055 11.8756 4.74671 11.7455L2.1232 9.66216C1.90053 9.48534 1.99627 9.12802 2.27752 9.08623L5.59122 8.59376C5.79817 8.563 5.92255 8.34756 5.84572 8.15296L4.61536 5.03697C4.51093 4.77251 4.77251 4.51093 5.03697 4.61536L8.15296 5.84572C8.34756 5.92255 8.563 5.79817 8.59376 5.59122L9.08623 2.27752Z" stroke="black" stroke-width="2"/>
</svg>
