<svg width="24" height="24" viewBox="0 0 24 24" fill="none" xmlns="http://www.w3.org/2000/svg">
<path d="M12 16.6401V22M12 16.6401C11.6662 16.6401 11.3324 16.7424 11.0697 16.947C10.2225 17.6069 9.15714 18 8 18C5.23858 18 3 15.7614 3 13C3 10.5807 4.71825 8.56271 7.00098 8.09982C7.00098 5.3384 9.23858 3 12 3C14.7614 3 16.999 5.3384 16.999 8.09982C19.2818 8.56271 21 10.5807 21 13C21 15.7614 18.7614 18 16 18C14.8429 18 13.7775 17.6069 12.9303 16.947C12.6676 16.7424 12.3338 16.6401 12 16.6401ZM12 22H16M12 22H8" stroke="black" stroke-width="2" stroke-linecap="round" stroke-linejoin="round"/>
</svg>
