<svg width="24" height="24" viewBox="0 0 24 24" fill="none" xmlns="http://www.w3.org/2000/svg">
<path d="M20 18.0125C20 19.6625 16.4183 21 12 21C7.58172 21 4 19.6625 4 18.0125M20 18.0125L19.5654 17.0388M20 18.0125C20 17.6716 19.8471 17.344 19.5654 17.0388M4 18.0125L4.4346 17.0388M4 18.0125C4 17.6716 4.15294 17.344 4.4346 17.0388M4.4346 17.0388L10.1724 4.18276C10.8762 2.60575 13.1238 2.60575 13.8276 4.18276L19.5654 17.0388M4.4346 17.0388C5.51598 15.8669 8.49472 15.0251 12 15.0251C15.5053 15.0251 18.484 15.8669 19.5654 17.0388" stroke="black" stroke-width="2"/>
</svg>
