<svg width="24" height="24" viewBox="0 0 24 24" fill="none" xmlns="http://www.w3.org/2000/svg">
<path d="M3.42048 7.26746C3.68696 6.82186 4.07049 6.44512 4.54307 6.18444L10.5431 2.87484C11.4491 2.37505 12.5509 2.37505 13.4569 2.87484L19.4569 6.18444C19.9295 6.44511 20.313 6.82185 20.5795 7.26744M3.42048 7.26746C3.14992 7.71987 3 8.24327 3 8.78824V15.2118C3 16.2935 3.59068 17.2902 4.54307 17.8156L10.5431 21.1252C10.9961 21.3751 11.4981 21.5 12.0001 21.5M3.42048 7.26746L10.5431 11.1964C10.9961 11.4463 11.4981 11.5712 12.0001 11.5712M20.5795 7.26744C20.8501 7.71986 21 8.24326 21 8.78824V15.2118C21 16.2935 20.4093 17.2902 19.4569 17.8156L13.4569 21.1252C13.0039 21.375 12.502 21.5 12.0001 21.5M20.5795 7.26744L13.4569 11.1964C13.0039 11.4462 12.502 11.5712 12.0001 11.5712M12.0001 11.5712V21.5" stroke="black" stroke-width="2" stroke-linecap="round" stroke-linejoin="round"/>
</svg>
