<svg width="24" height="24" viewBox="0 0 24 24" fill="none" xmlns="http://www.w3.org/2000/svg">
<path d="M3.24844 16.3987C3.50711 16.9896 3.95648 17.492 4.54307 17.8156L10.5431 21.1252C10.9961 21.3751 11.4981 21.5 12.0001 21.5M3.24844 16.3987C3.08714 16.0302 3 15.6272 3 15.2118V8.78824C3 8.24327 3.14992 7.71987 3.42048 7.26746M3.24844 16.3987L12.0001 11.5712M20.7516 16.3986C20.493 16.9896 20.0436 17.492 19.4569 17.8156L13.4569 21.1252C13.0039 21.375 12.502 21.5 12.0001 21.5M20.7516 16.3986C20.9129 16.0301 21 15.6272 21 15.2118V8.78824C21 8.24326 20.8501 7.71986 20.5795 7.26744M20.7516 16.3986L12.0001 11.5712M3.42048 7.26746C3.68696 6.82186 4.07049 6.44512 4.54307 6.18444L10.5431 2.87484C10.9961 2.62495 11.4981 2.5 12 2.5M3.42048 7.26746L10.5431 11.1964C10.9961 11.4463 11.4981 11.5712 12.0001 11.5712M20.5795 7.26744C20.313 6.82185 19.9295 6.44511 19.4569 6.18444L13.4569 2.87484C13.0039 2.62495 12.5019 2.5 12 2.5M20.5795 7.26744L13.4569 11.1964C13.0039 11.4462 12.502 11.5712 12.0001 11.5712M12.0001 11.5712V21.5M12.0001 11.5712L12 2.5" stroke="black" stroke-width="2" stroke-linecap="round" stroke-linejoin="round"/>
</svg>
