<svg width="24" height="24" viewBox="0 0 24 24" fill="none" xmlns="http://www.w3.org/2000/svg">
<path d="M15.7071 8.29289C15.5261 8.11193 15.2761 8 15 8H4C3.72386 8 3.47386 8.11193 3.29289 8.29289M15.7071 8.29289C15.8881 8.47386 16 8.72386 16 9V20C16 20.2761 15.8881 20.5261 15.7071 20.7071M15.7071 8.29289L20.7071 3.29289M20.7071 3.29289C20.5261 3.11193 20.2761 3 20 3H9C8.72365 3 8.47349 3.11209 8.29249 3.29329L3.29289 8.29289M20.7071 3.29289C20.8881 3.47386 21 3.72386 21 4V15C21 15.2761 20.8881 15.5261 20.7071 15.7071L15.7071 20.7071M3.29289 8.29289C3.11193 8.47386 3 8.72386 3 9V20C3 20.5523 3.44772 21 4 21H15C15.2761 21 15.5261 20.8881 15.7071 20.7071" stroke="black" stroke-width="2" stroke-linejoin="round"/>
</svg>
