<svg width="24" height="24" viewBox="0 0 24 24" fill="none" xmlns="http://www.w3.org/2000/svg">
<path d="M9.36146 19.6385L9.8199 20.097C10.4532 20.7303 11.2936 21.0305 12.1231 20.9976M9.36146 19.6385L7.36146 17.6385M9.36146 19.6385L12.0974 16.9026M7.36146 17.6385L5.36146 15.6385M7.36146 17.6385L12.0724 12.9276M5.36146 15.6385L3.90302 14.1801C3.71607 13.9932 3.55815 13.7882 3.42926 13.5708M5.36146 15.6385L12.0474 8.95256M3.42926 13.5708C2.72802 12.3879 2.88594 10.837 3.90303 9.81992L9.81991 3.90304C10.4245 3.29847 11.2177 2.99745 12.01 3.00002M3.42926 13.5708L12.0225 4.97756M12.01 3.00002C12.7957 3.00256 13.5806 3.30358 14.1801 3.90304L20.097 9.81992C21.301 11.024 21.301 12.9761 20.097 14.1801L14.1801 20.097C13.6094 20.6677 12.8706 20.9679 12.1231 20.9976M12.01 3.00002L12.0225 4.97756M12.1231 20.9976L12.0974 16.9026M12.0225 4.97756L12.0474 8.95256M12.0474 8.95256L12.0724 12.9276M12.0724 12.9276L12.0974 16.9026" stroke="black" stroke-width="2"/>
</svg>
