<svg width="24" height="24" viewBox="0 0 24 24" fill="none" xmlns="http://www.w3.org/2000/svg">
<path fill-rule="evenodd" clip-rule="evenodd" d="M7 2C4.23858 2 2 4.23858 2 7V17C2 19.7614 4.23858 22 7 22H17C19.7614 22 22 19.7614 22 17V7C22 4.23858 19.7614 2 17 2H7ZM4 7C4 5.34315 5.34315 4 7 4H17C18.6569 4 20 5.34315 20 7V17C20 18.6569 18.6569 20 17 20H7C5.34315 20 4 18.6569 4 17V7ZM15.5 9C16.3284 9 17 8.32843 17 7.5C17 6.67157 16.3284 6 15.5 6C14.6716 6 14 6.67157 14 7.5C14 8.32843 14.6716 9 15.5 9ZM8.5 18C9.32843 18 10 17.3284 10 16.5C10 15.6716 9.32843 15 8.5 15C7.67157 15 7 15.6716 7 16.5C7 17.3284 7.67157 18 8.5 18ZM10 7.5C10 8.32843 9.32843 9 8.5 9C7.67157 9 7 8.32843 7 7.5C7 6.67157 7.67157 6 8.5 6C9.32843 6 10 6.67157 10 7.5ZM15.5 18C16.3284 18 17 17.3284 17 16.5C17 15.6716 16.3284 15 15.5 15C14.6716 15 14 15.6716 14 16.5C14 17.3284 14.6716 18 15.5 18ZM10 11.9146C10 12.7431 9.32843 13.4146 8.5 13.4146C7.67157 13.4146 7 12.7431 7 11.9146C7 11.0862 7.67157 10.4146 8.5 10.4146C9.32843 10.4146 10 11.0862 10 11.9146ZM15.5 13.5C16.3284 13.5 17 12.8284 17 12C17 11.1716 16.3284 10.5 15.5 10.5C14.6716 10.5 14 11.1716 14 12C14 12.8284 14.6716 13.5 15.5 13.5Z" fill="black"/>
</svg>
