<svg width="24" height="24" viewBox="0 0 24 24" fill="none" xmlns="http://www.w3.org/2000/svg">
<path d="M3.4641 7C3.16506 7.5255 3 8.12947 3 8.75728V15.2427C3 15.8705 3.16506 16.4745 3.4641 17M3.4641 7C3.76314 6.47451 4.19615 6.02749 4.73205 5.71358L10.2679 2.47086C11.3397 1.84305 12.6603 1.84305 13.7321 2.47086L19.268 5.71358C19.8038 6.02749 20.2369 6.4745 20.5359 7M3.4641 7H7.73205M20.5359 7C20.8349 7.52549 21 8.12947 21 8.75728V15.2427C21 15.8705 20.8349 16.4745 20.5359 17M20.5359 7H16.2679M3.4641 17C3.76314 17.5255 4.19615 17.9725 4.73205 18.2864L10.2679 21.5291C11.3397 22.157 12.6603 22.157 13.7321 21.5291L19.268 18.2864C19.8038 17.9725 20.2369 17.5255 20.5359 17M3.4641 17H12M3.4641 17L7.73205 7M20.5359 17L16.2679 7M20.5359 17H12M16.2679 7H7.73205M16.2679 7L12 17M7.73205 7L12 17" stroke="black" stroke-width="2"/>
</svg>
