<svg width="24" height="24" viewBox="0 0 24 24" fill="none" xmlns="http://www.w3.org/2000/svg">
<path d="M6.97918 2.87868C7.54179 2.31607 8.30486 2 9.1005 2L14.8995 2C15.6951 2 16.4582 2.31607 17.0208 2.87868L21.1213 6.97918C21.6839 7.54179 22 8.30486 22 9.1005V14.8995C22 15.6951 21.6839 16.4582 21.1213 17.0208L17.0208 21.1213C16.4582 21.6839 15.6951 22 14.8995 22H9.1005C8.30485 22 7.54179 21.6839 6.97918 21.1213L2.87868 17.0208C2.31607 16.4582 2 15.6951 2 14.8995L2 9.1005C2 8.30485 2.31607 7.54179 2.87868 6.97918L6.97918 2.87868Z" stroke="black" stroke-width="2"/>
</svg>
