<svg width="24" height="24" viewBox="0 0 24 24" fill="none" xmlns="http://www.w3.org/2000/svg">
<path d="M19 13.3613H16C14.8954 13.3613 14 14.2745 14 15.401V18.4604C14 19.5868 14.8954 20.5 16 20.5H19C20.1046 20.5 21 19.5868 21 18.4604V15.401C21 14.2745 20.1046 13.3613 19 13.3613Z" stroke="black" stroke-width="2" stroke-linejoin="round"/>
<path d="M8.43437 7.96146L10.728 4.21897C11.3155 3.26034 12.6845 3.26034 13.272 4.21897L15.5656 7.96146C16.19 8.98033 15.4718 10.3019 14.2936 10.3019H9.70637C8.52822 10.3019 7.80995 8.98033 8.43437 7.96146Z" stroke="black" stroke-width="2" stroke-linejoin="round"/>
<path d="M6.5 20.5C8.433 20.5 10 18.902 10 16.9307C10 14.9594 8.433 13.3613 6.5 13.3613C4.567 13.3613 3 14.9594 3 16.9307C3 18.902 4.567 20.5 6.5 20.5Z" stroke="black" stroke-width="2" stroke-linejoin="round"/>
</svg>
