<svg width="24" height="24" viewBox="0 0 24 24" fill="none" xmlns="http://www.w3.org/2000/svg">
<path d="M11.5388 3.31674C11.7012 2.89442 12.2988 2.89442 12.4612 3.31674L14.6663 9.04994C14.7164 9.18043 14.8196 9.28355 14.9501 9.33374L20.6833 11.5388C21.1056 11.7012 21.1056 12.2988 20.6833 12.4612L14.9501 14.6663C14.8196 14.7164 14.7164 14.8196 14.6663 14.9501L12.4612 20.6833C12.2988 21.1056 11.7012 21.1056 11.5388 20.6833L9.33374 14.9501C9.28355 14.8196 9.18043 14.7164 9.04994 14.6663L3.31674 12.4612C2.89442 12.2988 2.89442 11.7012 3.31674 11.5388L9.04994 9.33374C9.18043 9.28355 9.28355 9.18043 9.33374 9.04994L11.5388 3.31674Z" stroke="black" stroke-width="2" stroke-linejoin="round"/>
</svg>
