<svg width="24" height="24" viewBox="0 0 24 24" fill="none" xmlns="http://www.w3.org/2000/svg">
<path d="M22 12C22 17.5228 17.5228 22 12 22M22 12C22 6.47715 17.5228 2 12 2M22 12C22 13.684 19.3983 15.125 15.7149 15.7149M22 12C22 10.316 19.3982 8.87502 15.7149 8.28513M12 22C6.47715 22 2 17.5228 2 12M12 22C10.316 22 8.87498 19.3983 8.28511 15.7149M12 22C13.684 22 15.125 19.3983 15.7149 15.7149M2 12C2 6.47715 6.47715 2 12 2M2 12C2 13.684 4.60173 15.125 8.28511 15.7149M2 12C2 10.316 4.60174 8.87495 8.28511 8.28508M12 2C10.316 2 8.87499 4.60172 8.28511 8.28508M12 2C13.684 2 15.125 4.60174 15.7149 8.28513M8.28511 15.7149C8.10118 14.5664 8 13.3127 8 12C8 10.6873 8.10118 9.43358 8.28511 8.28508M8.28511 15.7149C9.4336 15.8988 10.6873 16 12 16C13.3127 16 14.5664 15.8988 15.7149 15.7149M8.28511 8.28508C9.43356 8.10117 10.6872 8 11.9998 8C13.3126 8 14.5663 8.10119 15.7149 8.28513M15.7149 15.7149C15.8988 14.5664 16 13.3127 16 12C16 10.6873 15.8988 9.43362 15.7149 8.28513" stroke="black" stroke-width="2"/>
</svg>
