<svg width="24" height="24" viewBox="0 0 24 24" fill="none" xmlns="http://www.w3.org/2000/svg">
<path d="M11.0173 2.55529C11.4542 1.8149 12.5458 1.8149 12.9827 2.55529L14.9494 5.88834C15.1521 6.23189 15.5266 6.44354 15.9318 6.44363L19.8637 6.44449C20.7371 6.44468 21.2829 7.37022 20.8464 8.1108L18.8812 11.4447C18.6787 11.7883 18.6787 12.2117 18.8812 12.5553L20.8464 15.8892C21.2829 16.6298 20.7371 17.5553 19.8637 17.5555L15.9318 17.5564C15.5266 17.5565 15.1521 17.7681 14.9494 18.1117L12.9827 21.4447C12.5458 22.1851 11.4542 22.1851 11.0173 21.4447L9.05061 18.1117C8.84789 17.7681 8.47343 17.5565 8.06816 17.5564L4.13632 17.5555C3.26291 17.5553 2.71708 16.6298 3.15361 15.8892L5.11876 12.5553C5.32132 12.2117 5.32132 11.7883 5.11877 11.4447L3.15361 8.1108C2.71708 7.37022 3.26291 6.44468 4.13631 6.44449L8.06816 6.44363C8.47343 6.44354 8.84789 6.23189 9.05061 5.88834L11.0173 2.55529Z" stroke="black" stroke-width="2"/>
</svg>
