<svg width="24" height="24" viewBox="0 0 24 24" fill="none" xmlns="http://www.w3.org/2000/svg">
<path fill-rule="evenodd" clip-rule="evenodd" d="M6 2C3.79086 2 2 3.79086 2 6V20C2 20.5523 2.44772 21 3 21H7H11C11.5523 21 12 20.5523 12 20V15C12 13.8954 11.1046 13 10 13H8C6.89543 13 6 13.8954 6 15V19H4V6C4 4.89543 4.89543 4 6 4H12C13.1046 4 14 4.89543 14 6V10.5C14 11.0523 14.4477 11.5 15 11.5C15.5523 11.5 16 11.0523 16 10.5V6C16 3.79086 14.2091 2 12 2H6ZM10 19H8V15H10V19ZM6 5C5.44772 5 5 5.44772 5 6C5 6.55228 5.44772 7 6 7H7C7.55228 7 8 6.55228 8 6C8 5.44772 7.55228 5 7 5H6ZM11 5C10.4477 5 10 5.44772 10 6C10 6.55228 10.4477 7 11 7H12C12.5523 7 13 6.55228 13 6C13 5.44772 12.5523 5 12 5H11ZM6 9C5.44772 9 5 9.44772 5 10C5 10.5523 5.44772 11 6 11H7C7.55228 11 8 10.5523 8 10C8 9.44772 7.55228 9 7 9H6ZM11 9C10.4477 9 10 9.44772 10 10C10 10.5523 10.4477 11 11 11H12C12.5523 11 13 10.5523 13 10C13 9.44772 12.5523 9 12 9H11ZM18.3524 12.4484C17.8362 12.1171 17.1716 12.1171 16.6554 12.4484C15.9244 12.9175 14.9348 13.2798 14.1087 13.5105C13.4767 13.687 12.9895 14.2697 13.0042 14.984C13.0474 17.0831 13.4278 18.5569 14.1516 19.654C14.8794 20.7572 15.8729 21.3502 16.8255 21.8368C17.2514 22.0543 17.7564 22.0543 18.1823 21.8368C19.1349 21.3502 20.1285 20.7572 20.8562 19.654C21.58 18.5569 21.9604 17.0831 22.0036 14.984C22.0183 14.2697 21.5311 13.687 20.8991 13.5105C20.073 13.2798 19.0834 12.9175 18.3524 12.4484ZM17.5001 14.2764C17.5014 14.2756 17.5026 14.2749 17.5039 14.2741C18.3015 14.7447 19.2195 15.0921 19.9915 15.3286C19.9167 16.9866 19.5924 17.9379 19.1868 18.5527C18.7937 19.1485 18.2588 19.5327 17.5039 19.9351C17.5026 19.9344 17.5014 19.9337 17.5001 19.9331V14.2764Z" fill="black"/>
<path d="M21.0038 14.9634C20.9216 18.9615 19.5587 20.0109 17.7274 20.9462C17.5872 21.0179 17.4206 21.0179 17.2804 20.9462C15.4492 20.0109 14.0862 18.9615 14.004 14.9634C13.9993 14.7346 14.1565 14.5354 14.3776 14.4736C15.2434 14.2319 16.3427 13.8373 17.1956 13.29C17.3826 13.1699 17.6252 13.1699 17.8123 13.29C18.6651 13.8373 19.7644 14.2319 20.6302 14.4736C20.8513 14.5354 21.0085 14.7346 21.0038 14.9634Z" stroke="black" stroke-width="2" stroke-linecap="round" stroke-linejoin="round"/>
</svg>
