<svg width="24" height="24" viewBox="0 0 24 24" fill="none" xmlns="http://www.w3.org/2000/svg">
<path d="M4.00011 6L4 21M4.00011 6H3M4.00011 6H6M20.0002 6V21M20.0002 6H21M20.0002 6H7M4 21L7.01566 20.9999M4 21L3 20.9999M20.0002 21L16.9848 20.9999M20.0002 21L21 20.9999M7.00044 10H8.00044M7.01566 20.9999H16.9848M7.01566 20.9999L7.02462 17.5M16.9848 20.9999L17 17.5M7.02462 17.5L7 14.9999C7 14.4476 7.47904 13.9999 8.03133 13.9999H16.0004C16.5527 13.9999 17.0004 14.4476 17.0004 14.9999L17 17.5M7.02462 17.5H17M12.5004 10H11.5004M17.0004 10H16.0004M6 6V3M6 6H7M6 3H5M6 3H7M7 6V3M7 3H8" stroke="black" stroke-width="2" stroke-linecap="round" stroke-linejoin="round"/>
</svg>
