<svg width="24" height="24" viewBox="0 0 24 24" fill="none" xmlns="http://www.w3.org/2000/svg">
<path d="M5 12H3V10M5 12V19C5 20.1046 5.89543 21 7 21H10M5 12H7M19 12H21V10M19 12V19C19 20.1046 18.1046 21 17 21H14M19 12H17M7 5H5V3M7 5V12M7 5H8.5M7 12H17M17 5H19V3M17 5V12M17 5H15.5M12 5V3M12 5H8.5M12 5H15.5M8.5 5V3M15.5 5V3M10 8.5H10.5M13.5 8.5H14M10 21V18C10 16.8954 10.8954 16 12 16C13.1046 16 14 16.8954 14 18V21M10 21H14M7.75 15H8.25M15.75 15H16.25" stroke="black" stroke-width="2" stroke-linecap="round" stroke-linejoin="round"/>
</svg>
