<svg width="24" height="24" viewBox="0 0 24 24" fill="none" xmlns="http://www.w3.org/2000/svg">
<path d="M4.00022 11V21M4.00022 11H20.0002M4.00022 11H3L8 6H15M20.0002 11V21M20.0002 11H21L16 6M4.00022 21H3M4.00022 21H7.01566M20.0002 21H21M20.0002 21H16.9848M7.01566 21H16.9848M7.01566 21L7.02871 18M16.9848 21L16.9978 18M16 6V3M16 6H15M7.02871 18L7.01566 16C7.01566 15.4478 7.46338 15 8.01566 15H15.9848C16.5371 15 16.9848 15.4478 16.9848 16L16.9978 18M7.02871 18L16.9978 18M16 3H15M16 3H16.9848M15 3V6M15 3H14" stroke="black" stroke-width="2" stroke-linecap="round" stroke-linejoin="round"/>
</svg>
