<svg width="24" height="24" viewBox="0 0 24 24" fill="none" xmlns="http://www.w3.org/2000/svg">
<path d="M4.00011 7.26797L11.0079 3.26351C11.3153 3.08787 11.6576 3.00004 12 3C12.3425 2.99996 12.685 3.0878 12.9925 3.26351L20.0002 7.26797M4.00011 7.26797L3 7.83944M4.00011 7.26797L4 21M20.0002 7.26797L21.0002 7.83944M20.0002 7.26797V21M4 21L7.01566 21M4 21L3 21M20.0002 21L16.9848 21M20.0002 21L21 21M7.01566 21H16.9848M7.01566 21V17.5M16.9848 21L16.991 17.5M7.01566 14L7 11.5C7 10.9477 7.47904 10.5 8.03133 10.5H16.0004C16.5527 10.5 17.0004 10.9477 17.0004 11.5L16.991 17.5M7.01566 14H17.0157M7.01566 14V17.5M7.01566 17.5H16.991M11.5 7.5H12.5V6.5H11.5V7.5Z" stroke="black" stroke-width="2" stroke-linecap="round" stroke-linejoin="round"/>
</svg>
