<svg width="24" height="24" viewBox="0 0 24 24" fill="none" xmlns="http://www.w3.org/2000/svg">
<path d="M5.00022 9.6965L11.0079 6.26351C11.3153 6.08787 11.6576 6.00004 12 6C12.3425 5.99996 12.685 6.0878 12.9925 6.26351L19.0002 9.6965M5.00022 9.6965L3 10.8394M5.00022 9.6965V21M19.0002 9.6965L21.0002 10.8394M19.0002 9.6965V21M19.0002 6.393L13.9848 3.52703C13.3698 3.17564 12.6849 2.99996 12 3C11.3152 3.00004 10.6305 3.17571 10.0157 3.52703L3 7.53594M19.0002 6.393L21.0002 7.53594M19.0002 6.393L19 3.393M5.00022 21H3M5.00022 21H10.0157V16C10.0157 15.4477 10.4634 15 11.0157 15H12.9848C13.5371 15 13.9848 15.4477 13.9848 16V21H19.0002M19.0002 21H21M11.5 10.5H12.5V11.5H11.5V10.5Z" stroke="black" stroke-width="2" stroke-linecap="round" stroke-linejoin="round"/>
</svg>
