<svg width="24" height="24" viewBox="0 0 24 24" fill="none" xmlns="http://www.w3.org/2000/svg">
<path d="M10.5 8.5H12M12 8.5H13.5M12 8.5V7M12 8.5V10M7.5 13V6C7.5 4.89543 8.39543 4 9.5 4H14.5C15.6046 4 16.5 4.89543 16.5 6V13M7.5 13H3C2.44772 13 2 13.4477 2 14V20H10.5M7.5 13H16.5M16.5 13H21C21.5523 13 22 13.4477 22 14V20H13.5M10.5 20V18C10.5 17.4477 10.9477 17 11.5 17H12.5C13.0523 17 13.5 17.4477 13.5 18V20M10.5 20H13.5M5.5 16.5H7M17 16.5H18.5" stroke="black" stroke-width="2" stroke-linecap="round" stroke-linejoin="round"/>
</svg>
