<svg width="24" height="24" viewBox="0 0 24 24" fill="none" xmlns="http://www.w3.org/2000/svg">
<path d="M12 18.5V20M12 18.5H4M12 18.5H20M4 18.5H2C4 18 4.75 16.5 5 15.5H7M4 18.5V20M20 18.5H22C20 18 19.25 16.5 19 15.5H17M20 18.5V20M17 12.75H12H7M17 12.75H20C18 12.25 17.25 10.75 17 9.75H15M17 12.75V15.5M7 12.75H4C6 12.25 6.75 10.75 7 9.75H9M7 12.75V15.5M9 9.75V7M9 9.75H15M9 7H7C9 6.5 11.25 5 12 4C12.75 5 15 6.5 17 7H15M9 7H12H15M15 9.75V7M17 15.5H7" stroke="black" stroke-width="2" stroke-linecap="round" stroke-linejoin="round"/>
</svg>
