<svg width="24" height="24" viewBox="0 0 24 24" fill="none" xmlns="http://www.w3.org/2000/svg">
<path fill-rule="evenodd" clip-rule="evenodd" d="M6 2C3.79086 2 2 3.79086 2 6V20C2 20.5523 2.44772 21 3 21H7H11C11.5523 21 12 20.5523 12 20V15C12 13.8954 11.1046 13 10 13H8C6.89543 13 6 13.8954 6 15V19H4V6C4 4.89543 4.89543 4 6 4H12C13.1046 4 14 4.89543 14 6V11.5C14 12.0523 14.4477 12.5 15 12.5C15.5523 12.5 16 12.0523 16 11.5V6C16 3.79086 14.2091 2 12 2H6ZM10 19H8V15H10V19ZM6 5C5.44772 5 5 5.44772 5 6C5 6.55228 5.44772 7 6 7H7C7.55228 7 8 6.55228 8 6C8 5.44772 7.55228 5 7 5H6ZM11 5C10.4477 5 10 5.44772 10 6C10 6.55228 10.4477 7 11 7H12C12.5523 7 13 6.55228 13 6C13 5.44772 12.5523 5 12 5H11ZM6 9C5.44772 9 5 9.44772 5 10C5 10.5523 5.44772 11 6 11H7C7.55228 11 8 10.5523 8 10C8 9.44772 7.55228 9 7 9H6ZM11 9C10.4477 9 10 9.44772 10 10C10 10.5523 10.4477 11 11 11H12C12.5523 11 13 10.5523 13 10C13 9.44772 12.5523 9 12 9H11ZM18 14C20.2091 14 22 15.7909 22 18C22 20.2091 20.2091 22 18 22C15.7909 22 14 20.2091 14 18C14 15.7909 15.7909 14 18 14ZM20.0303 16.7197C20.3232 17.0126 20.3232 17.4874 20.0303 17.7803L18.0303 19.7803C17.7374 20.0732 17.2626 20.0732 16.9697 19.7803L15.9697 18.7803C15.6768 18.4874 15.6768 18.0126 15.9697 17.7197C16.2626 17.4268 16.7374 17.4268 17.0303 17.7197L17.5 18.1893L18.9697 16.7197C19.2626 16.4268 19.7374 16.4268 20.0303 16.7197Z" fill="black"/>
</svg>
