<svg width="24" height="24" viewBox="0 0 24 24" fill="none" xmlns="http://www.w3.org/2000/svg">
<path d="M4.00011 6L4 21M4.00011 6H3M4.00011 6H6M20.0002 6V21M20.0002 6H21M20.0002 6H7M4 21L7.01566 20.9999M4 21L3 20.9999M20.0002 21L16.9848 20.9999M20.0002 21L21 20.9999M7.01566 20.9999H16.9848M7.01566 20.9999V17.9999M16.9848 20.9999L16.991 17.9999M7.01566 17.9999L7 15.9999C7 15.4476 7.47904 14.9999 8.03133 14.9999H16.0004C16.5527 14.9999 17.0004 15.4476 17.0004 15.9999L16.991 17.9999M7.01566 17.9999H16.991M6 6V3M6 6H7M6 3H5M6 3H7M7 6V3M7 3H8M7.00044 11H8.00044V10H7.00044V11ZM12.5004 11H11.5004V10H12.5004V11ZM17.0004 11H16.0004V10H17.0004V11Z" stroke="black" stroke-width="2" stroke-linecap="round" stroke-linejoin="round"/>
</svg>
