<svg width="24" height="24" viewBox="0 0 24 24" fill="none" xmlns="http://www.w3.org/2000/svg">
<path d="M5 21H9M5 21H3M5 21V10M9 21H15M9 21V12M21 21H19M7 4L5.50385 6.24423C5.17531 6.73703 5 7.31605 5 7.90833V10M7 4L8.49615 6.24423C8.82469 6.73703 9 7.31605 9 7.90833V10M7 4V3M15 21H19M15 21V12M19 21V10M17 4L15.5038 6.24423C15.1753 6.73703 15 7.31605 15 7.90833V10M17 4L18.4962 6.24423C18.8247 6.73703 19 7.31605 19 7.90833V10M17 4V3M9 12H15M9 12V10M15 12V10M9 10H5M15 10H19" stroke="black" stroke-width="2" stroke-linecap="round" stroke-linejoin="round"/>
</svg>
