<svg width="24" height="24" viewBox="0 0 24 24" fill="none" xmlns="http://www.w3.org/2000/svg">
<path fill-rule="evenodd" clip-rule="evenodd" d="M6 2C3.79086 2 2 3.79086 2 6V20C2 20.5523 2.44772 21 3 21H7H11C11.5523 21 12 20.5523 12 20V15C12 13.8954 11.1046 13 10 13H8C6.89543 13 6 13.8954 6 15V19H4V6C4 4.89543 4.89543 4 6 4H12C13.1046 4 14 4.89543 14 6V11.5C14 12.0523 14.4477 12.5 15 12.5C15.5523 12.5 16 12.0523 16 11.5V6C16 3.79086 14.2091 2 12 2H6ZM10 19H8V15H10V19ZM6 5C5.44772 5 5 5.44772 5 6C5 6.55228 5.44772 7 6 7H7C7.55228 7 8 6.55228 8 6C8 5.44772 7.55228 5 7 5H6ZM11 5C10.4477 5 10 5.44772 10 6C10 6.55228 10.4477 7 11 7H12C12.5523 7 13 6.55228 13 6C13 5.44772 12.5523 5 12 5H11ZM6 9C5.44772 9 5 9.44772 5 10C5 10.5523 5.44772 11 6 11H7C7.55228 11 8 10.5523 8 10C8 9.44772 7.55228 9 7 9H6ZM11 9C10.4477 9 10 9.44772 10 10C10 10.5523 10.4477 11 11 11H12C12.5523 11 13 10.5523 13 10C13 9.44772 12.5523 9 12 9H11ZM18 14C20.2091 14 22 15.7909 22 18C22 20.2091 20.2091 22 18 22C15.7909 22 14 20.2091 14 18C14 15.7909 15.7909 14 18 14ZM17.2768 17.2383C17.3838 16.9735 17.4961 16.8178 17.6017 16.7294C17.6942 16.652 17.8112 16.6002 18.0006 16.6002C18.4119 16.6002 18.6806 16.9142 18.6806 17.2668C18.6806 17.4252 18.6458 17.5222 18.6031 17.591C18.5578 17.6641 18.4791 17.7442 18.3359 17.8292C17.9809 18.04 17.6506 18.4392 17.6506 18.9684V19.04C17.6506 19.3714 17.9192 19.64 18.2506 19.64C18.5819 19.64 18.8506 19.3714 18.8506 19.04V18.9683C18.8506 18.9669 18.8505 18.9574 18.8634 18.9377C18.8781 18.9154 18.9059 18.8863 18.9486 18.861C19.2093 18.7062 19.4498 18.5024 19.6227 18.2238C19.7982 17.941 19.8806 17.6188 19.8806 17.2668C19.8806 16.3032 19.1253 15.4002 18.0006 15.4002C17.5499 15.4002 17.1549 15.5384 16.8313 15.8093C16.5209 16.0692 16.3132 16.4202 16.1642 16.7886C16.04 17.0958 16.1884 17.4455 16.4956 17.5697C16.8028 17.6939 17.1526 17.5456 17.2768 17.2383ZM18.3003 21.2002C18.6317 21.2002 18.9003 20.9316 18.9003 20.6002C18.9003 20.2688 18.6317 20.0002 18.3003 20.0002C17.9689 20.0002 17.7003 20.2688 17.7003 20.6002C17.7003 20.9316 17.9689 21.2002 18.3003 21.2002Z" fill="black"/>
</svg>
