<svg width="24" height="24" viewBox="0 0 24 24" fill="none" xmlns="http://www.w3.org/2000/svg">
<path d="M5 21V6C5 5.44772 5.44772 5 6 5H8C8.55228 5 9 5.44772 9 6V11M5 21H9M5 21H3M9 11V16M9 11H16C16.5523 11 17 11.4477 17 12V16M9 16V21M9 16H17M9 21H19M19 21H21M19 21V17C19 16.4477 18.5523 16 18 16H17" stroke="black" stroke-width="2" stroke-linecap="round" stroke-linejoin="round"/>
<path d="M11.5 13.5H12M14 13.5H14.5M13.75 18.5H14.25M11.25 18.5H11.75M16.25 18.5H16.75" stroke="black" stroke-linecap="round" stroke-linejoin="round"/>
</svg>
