<svg width="24" height="24" viewBox="0 0 24 24" fill="none" xmlns="http://www.w3.org/2000/svg">
<path fill-rule="evenodd" clip-rule="evenodd" d="M6 2C3.79086 2 2 3.79086 2 6V20C2 20.5523 2.44772 21 3 21H7H11C11.5523 21 12 20.5523 12 20V15C12 13.8954 11.1046 13 10 13H8C6.89543 13 6 13.8954 6 15V19H4V6C4 4.89543 4.89543 4 6 4H12C13.1046 4 14 4.89543 14 6V11.5C14 12.0523 14.4477 12.5 15 12.5C15.5523 12.5 16 12.0523 16 11.5V6C16 3.79086 14.2091 2 12 2H6ZM10 19H8V15H10V19ZM6 5C5.44772 5 5 5.44772 5 6C5 6.55228 5.44772 7 6 7H7C7.55228 7 8 6.55228 8 6C8 5.44772 7.55228 5 7 5H6ZM11 5C10.4477 5 10 5.44772 10 6C10 6.55228 10.4477 7 11 7H12C12.5523 7 13 6.55228 13 6C13 5.44772 12.5523 5 12 5H11ZM6 9C5.44772 9 5 9.44772 5 10C5 10.5523 5.44772 11 6 11H7C7.55228 11 8 10.5523 8 10C8 9.44772 7.55228 9 7 9H6ZM11 9C10.4477 9 10 9.44772 10 10C10 10.5523 10.4477 11 11 11H12C12.5523 11 13 10.5523 13 10C13 9.44772 12.5523 9 12 9H11ZM22 18C22 15.7909 20.2091 14 18 14C15.7909 14 14 15.7909 14 18C14 19.4806 14.8044 20.7733 16 21.4649C16.5883 21.8052 17.2714 22 18 22C18.7286 22 19.4117 21.8052 20 21.4649C21.1956 20.7733 22 19.4806 22 18ZM19.2127 16.3642C19.2127 17.0269 18.6755 17.5642 18.0127 17.5642C17.35 17.5642 16.8127 17.0269 16.8127 16.3642C16.8127 15.7015 17.35 15.1642 18.0127 15.1642C18.6755 15.1642 19.2127 15.7015 19.2127 16.3642ZM20 19.7615C19.9004 18.9735 19.2277 18.3642 18.4127 18.3642H17.6127C16.7977 18.3642 16.1251 18.9735 16.0254 19.7615C16.0173 19.826 16.0457 19.8894 16.0979 19.9284C16.1986 20.0037 16.3039 20.0733 16.4133 20.1366C16.8832 20.4084 17.4285 20.5642 18.0127 20.5642C18.5969 20.5642 19.1423 20.4084 19.6121 20.1366C19.7216 20.0733 19.8269 20.0037 19.9276 19.9284C19.9797 19.8894 20.0082 19.826 20 19.7615Z" fill="black"/>
</svg>
