<svg width="24" height="24" viewBox="0 0 24 24" fill="none" xmlns="http://www.w3.org/2000/svg">
<path d="M5.00024 21V6C5.00024 4.34315 6.34339 3 8.00024 3H16.0002C17.6571 3 19.0002 4.34315 19.0002 6V21M5.00024 21H3M5.00024 21H8M19.0002 21H21M19.0002 21H16M8 21H16M8 21V18M16 21V18M8 15L16 15M8 15V12M8 15V18M16 15V12M16 15V18M8 12V10C8 9.44771 8.44772 9 9 9H15C15.5523 9 16 9.44772 16 10V12M8 12L16 12M8 18H16M8 6H16" stroke="black" stroke-width="2" stroke-linecap="round" stroke-linejoin="round"/>
</svg>
