<svg width="24" height="24" viewBox="0 0 24 24" fill="none" xmlns="http://www.w3.org/2000/svg">
<path d="M4.00011 3L4 21M4.00011 3H20.0002M4.00011 3H3M20.0002 3V21M20.0002 3H21M4 21L7.01566 21M4 21L3 21M20.0002 21L16.9848 21M20.0002 21L21 21M7 7H8M7.01566 21H16.9848M7.01566 21V17.5M16.9848 21L16.991 17.5M7.01566 14L7 11.5C7 10.9477 7.47904 10.5 8.03133 10.5H16.0004C16.5527 10.5 17.0004 10.9477 17.0004 11.5L16.991 17.5M7.01566 14H17.0157M7.01566 14V17.5M7.01566 17.5H16.991M12.5 7H11.5M17 7H16" stroke="black" stroke-width="2" stroke-linecap="round" stroke-linejoin="round"/>
</svg>
