<svg width="24" height="24" viewBox="0 0 24 24" fill="none" xmlns="http://www.w3.org/2000/svg">
<path fill-rule="evenodd" clip-rule="evenodd" d="M6 2C3.79086 2 2 3.79086 2 6V18C2 20.2091 3.79086 22 6 22H8C8.55228 22 9 21.5523 9 21C9 20.4477 8.55228 20 8 20H6C4.89543 20 4 19.1046 4 18V6C4 4.89543 4.89543 4 6 4H8C8.55228 4 9 3.55228 9 3C9 2.44772 8.55228 2 8 2H6ZM16 2C15.4477 2 15 2.44772 15 3C15 3.55228 15.4477 4 16 4H18C19.1046 4 20 4.89543 20 6V18C20 19.1046 19.1046 20 18 20H16C15.4477 20 15 20.4477 15 21C15 21.5523 15.4477 22 16 22H18C20.2091 22 22 20.2091 22 18V6C22 3.79086 20.2091 2 18 2H16ZM9.00006 12C9.00006 12.6904 8.44042 13.25 7.75006 13.25C7.05971 13.25 6.50006 12.6904 6.50006 12C6.50006 11.3096 7.05971 10.75 7.75006 10.75C8.44042 10.75 9.00006 11.3096 9.00006 12ZM17.5001 12C17.5001 12.6904 16.9404 13.25 16.2501 13.25C15.5597 13.25 15.0001 12.6904 15.0001 12C15.0001 11.3096 15.5597 10.75 16.2501 10.75C16.9404 10.75 17.5001 11.3096 17.5001 12ZM12 13.25C12.6904 13.25 13.25 12.6904 13.25 12C13.25 11.3096 12.6904 10.75 12 10.75C11.3096 10.75 10.75 11.3096 10.75 12C10.75 12.6904 11.3096 13.25 12 13.25Z" fill="black"/>
</svg>
