<svg width="24" height="24" viewBox="0 0 24 24" fill="none" xmlns="http://www.w3.org/2000/svg">
<path fill-rule="evenodd" clip-rule="evenodd" d="M8 2C5.79086 2 4 3.79086 4 6C4 7.99549 3.86909 8.95468 3.62915 9.57852C3.40457 10.1624 3.06488 10.5209 2.29289 11.2929C1.90237 11.6834 1.90237 12.3166 2.29289 12.7071C3.06488 13.4791 3.40457 13.8376 3.62915 14.4215C3.86909 15.0453 4 16.0045 4 18C4 20.2091 5.79086 22 8 22C8.55228 22 9 21.5523 9 21C9 20.4477 8.55228 20 8 20C6.89543 20 6 19.1046 6 18C6 15.9955 5.88091 14.7047 5.49585 13.7035C5.22704 13.0046 4.84112 12.4858 4.39622 12C4.84112 11.5142 5.22704 10.9954 5.49585 10.2965C5.88091 9.29532 6 8.00451 6 6C6 4.89543 6.89543 4 8 4C8.55228 4 9 3.55228 9 3C9 2.44772 8.55228 2 8 2ZM16 2C15.4477 2 15 2.44772 15 3C15 3.55228 15.4477 4 16 4C17.1046 4 18 4.89543 18 6C18 8.00451 18.1191 9.29532 18.5042 10.2965C18.773 10.9954 19.1589 11.5142 19.6038 12C19.1589 12.4858 18.773 13.0046 18.5042 13.7035C18.1191 14.7047 18 15.9955 18 18C18 19.1046 17.1046 20 16 20C15.4477 20 15 20.4477 15 21C15 21.5523 15.4477 22 16 22C18.2091 22 20 20.2091 20 18C20 16.0045 20.1309 15.0453 20.3708 14.4215C20.5954 13.8376 20.9351 13.4791 21.7071 12.7071C22.0976 12.3166 22.0976 11.6834 21.7071 11.2929C20.9351 10.5209 20.5954 10.1624 20.3708 9.57852C20.1309 8.95468 20 7.99549 20 6C20 3.79086 18.2091 2 16 2ZM9.50011 12C9.50011 12.6904 8.94046 13.25 8.25011 13.25C7.55975 13.25 7.00011 12.6904 7.00011 12C7.00011 11.3096 7.55975 10.75 8.25011 10.75C8.94046 10.75 9.50011 11.3096 9.50011 12ZM17 12C17 12.6904 16.4404 13.25 15.75 13.25C15.0596 13.25 14.5 12.6904 14.5 12C14.5 11.3096 15.0596 10.75 15.75 10.75C16.4404 10.75 17 11.3096 17 12ZM11.9999 13.25C12.6903 13.25 13.2499 12.6904 13.2499 12C13.2499 11.3096 12.6903 10.75 11.9999 10.75C11.3096 10.75 10.7499 11.3096 10.7499 12C10.7499 12.6904 11.3096 13.25 11.9999 13.25Z" fill="black"/>
</svg>
