<svg width="24" height="24" viewBox="0 0 24 24" fill="none" xmlns="http://www.w3.org/2000/svg">
<path d="M20 4.5C20 5.88071 16.4183 7 12 7C7.58172 7 4 5.88071 4 4.5M20 4.5C20 3.11929 16.4183 2 12 2C7.58172 2 4 3.11929 4 4.5M20 4.5V9.5M4 4.5V9.5M20 9.5C20 10.8807 16.4183 12 12 12C7.58172 12 4 10.8807 4 9.5M20 9.5V14.5M4 9.5V14.5M20 14.5C20 15.8807 16.4183 17 12 17C7.58172 17 4 15.8807 4 14.5M20 14.5V19.5C20 20.8807 16.4183 22 12 22C7.58172 22 4 20.8807 4 19.5V14.5" stroke="black" stroke-width="2"/>
</svg>
