<svg width="24" height="24" viewBox="0 0 24 24" fill="none" xmlns="http://www.w3.org/2000/svg">
<path d="M6 12C6 13.1046 5.10457 14 4 14C2.89543 14 2 13.1046 2 12C2 10.8954 2.89543 10 4 10C5.10457 10 6 10.8954 6 12ZM6 12H10.5M17 12C17 13.1046 17.8954 14 19 14C20.1046 14 21 13.1046 21 12C21 10.8954 20.1046 10 19 10C17.8954 10 17 10.8954 17 12ZM17 12H10.5M17 4C17 5.10457 17.8954 6 19 6C20.1046 6 21 5.10457 21 4C21 2.89543 20.1046 2 19 2C17.8954 2 17 2.89543 17 4ZM17 4H13.5C11.8431 4 10.5 5.34315 10.5 7V12M17 20C17 21.1046 17.8954 22 19 22C20.1046 22 21 21.1046 21 20C21 18.8954 20.1046 18 19 18C17.8954 18 17 18.8954 17 20ZM17 20H13.5C11.8431 20 10.5 18.6569 10.5 17V12" stroke="black" stroke-width="2"/>
</svg>
