<svg width="24" height="24" viewBox="0 0 24 24" fill="none" xmlns="http://www.w3.org/2000/svg">
<path fill-rule="evenodd" clip-rule="evenodd" d="M7 1C4.79086 1 3 2.79086 3 5V19C3 21.2091 4.79086 23 7 23H17C19.2091 23 21 21.2091 21 19V9.24264C21 8.66548 20.8752 8.10113 20.6407 7.5858C20.4442 7.15387 20.1704 6.75623 19.8284 6.41421L15.5858 2.17157C15.2438 1.82956 14.8461 1.55583 14.4142 1.35928C13.8989 1.12476 13.3345 1 12.7574 1H7ZM5 5C5 3.89543 5.89543 3 7 3H12.7574C13.0459 3 13.328 3.06235 13.5858 3.17965C13.733 3.24662 13.8721 3.33149 14 3.43287V7.00007C14 7.55236 14.4477 8.00007 15 8.00007H18.5672C18.6685 8.1279 18.7534 8.26705 18.8204 8.4142C18.9377 8.67196 19 8.95406 19 9.24264V19C19 20.1046 18.1046 21 17 21H7C5.89543 21 5 20.1046 5 19V5ZM10.2189 14.1951C10.6027 13.798 10.5921 13.165 10.195 12.7811C9.79795 12.3972 9.16488 12.4079 8.781 12.8049L7.53438 14.0943C6.76849 14.8732 6.76849 16.1268 7.53438 16.9057L8.781 18.1951C9.16488 18.5921 9.79795 18.6028 10.195 18.2189C10.5921 17.835 10.6027 17.202 10.2189 16.8049L8.96886 15.512L8.96891 15.512L8.96058 15.5036L8.96033 15.5033L8.9602 15.5027L8.95996 15.5L8.9602 15.4973L8.96033 15.4967L8.96058 15.4964L8.96063 15.4965L8.96886 15.488L10.2189 14.1951ZM15.2189 12.8049C14.835 12.4079 14.2019 12.3972 13.8048 12.7811C13.4078 13.165 13.3971 13.798 13.781 14.1951L15.031 15.488L15.0309 15.488L15.0393 15.4964L15.0395 15.4967L15.0397 15.4973L15.0399 15.5L15.0397 15.5027L15.0395 15.5033L15.0393 15.5036L15.0392 15.5035L15.031 15.512L13.781 16.8049C13.3971 17.202 13.4078 17.835 13.8048 18.2189C14.2019 18.6028 14.835 18.5921 15.2189 18.1951L16.4654 16.9057C17.2314 16.1268 17.2314 14.8732 16.4654 14.0943L15.2189 12.8049Z" fill="black"/>
</svg>
