<svg width="24" height="24" viewBox="0 0 24 24" fill="none" xmlns="http://www.w3.org/2000/svg">
<path d="M14.0001 2.213C13.7244 2.07446 13.4173 2 13.1019 2H9.00006C7.3432 2 6.00006 3.34315 6.00006 5V7M14.0001 2.213C14.2237 2.32541 14.4267 2.48002 14.5967 2.67127L21.4949 10.4317C21.6456 10.6012 21.765 10.7936 21.8499 11M14.0001 2.213V8C14.0001 9.65685 15.3432 11 17.0001 11H21.8499M21.8499 11C21.9482 11.2393 22.0001 11.4974 22.0001 11.7604V19C22.0001 20.6569 20.6569 22 19.0001 22H9.00006C7.3432 22 6.00006 20.6569 6.00006 19V18M3.53997 10.5L2.28997 11.7929C2.09666 11.9882 2 12.2441 2 12.5C2 12.7559 2.09666 13.0118 2.28997 13.2071L3.53997 14.5M8.53997 10.5L9.78997 11.7929C9.98328 11.9882 10.0799 12.2441 10.0799 12.5C10.0799 12.7559 9.98328 13.0118 9.78997 13.2071L8.53997 14.5" stroke="black" stroke-width="2" stroke-linecap="round" stroke-linejoin="round"/>
</svg>
