<svg width="24" height="24" viewBox="0 0 24 24" fill="none" xmlns="http://www.w3.org/2000/svg">
<path fill-rule="evenodd" clip-rule="evenodd" d="M7 1C4.79086 1 3 2.79086 3 5V7C3 7.55228 3.44772 8 4 8C4.55228 8 5 7.55228 5 7V5C5 3.89543 5.89543 3 7 3H12.7574C13.0459 3 13.328 3.06235 13.5858 3.17965C13.733 3.24662 13.8721 3.33149 14 3.43287V7.00007C14 7.55236 14.4477 8.00007 15 8.00007H18.5672C18.6685 8.1279 18.7534 8.26705 18.8204 8.4142C18.9377 8.67196 19 8.95406 19 9.24264V19C19 20.1046 18.1046 21 17 21H7C5.89543 21 5 20.1046 5 19V18C5 17.4477 4.55228 17 4 17C3.44772 17 3 17.4477 3 18V19C3 21.2091 4.79086 23 7 23H17C19.2091 23 21 21.2091 21 19V9.24264C21 8.66548 20.8752 8.10114 20.6407 7.5858C20.4442 7.15387 20.1704 6.75623 19.8284 6.41421L15.5858 2.17157C15.2438 1.82956 14.8461 1.55583 14.4142 1.35928C13.8989 1.12476 13.3345 1 12.7574 1H7ZM8.48058 10.1961C8.58889 9.65456 8.23768 9.12773 7.69612 9.01942C7.15456 8.91111 6.62773 9.26232 6.51942 9.80388L5.51942 14.8039C5.41111 15.3454 5.76232 15.8723 6.30388 15.9806C6.84544 16.0889 7.37227 15.7377 7.48058 15.1961L8.48058 10.1961ZM4.2589 11.1951C4.64278 10.798 4.6321 10.165 4.23505 9.78107C3.83799 9.39719 3.20492 9.40786 2.82103 9.80492L1.57442 11.0943C1.19056 11.4847 1 11.995 1 12.5C1 13.005 1.19056 13.5153 1.57442 13.9057L2.82103 15.1951C3.20492 15.5921 3.83799 15.6028 4.23505 15.2189C4.6321 14.835 4.64278 14.202 4.2589 13.8049L3.0089 12.512L3.00895 12.512L3.00061 12.5036L3.00037 12.5033L3.00024 12.5027L3 12.5L3.00024 12.4973L3.00037 12.4967L3.00061 12.4964L3.00066 12.4965L3.0089 12.488L4.2589 11.1951ZM11.2589 9.80492C10.875 9.40786 10.2419 9.39719 9.84489 9.78107C9.44783 10.165 9.43715 10.798 9.82103 11.1951L11.071 12.488L11.071 12.488L11.0793 12.4964L11.0796 12.4967L11.0797 12.4973L11.0799 12.5L11.0797 12.5027L11.0796 12.5033L11.0793 12.5036L11.0793 12.5035L11.071 12.512L9.82103 13.8049C9.43715 14.202 9.44783 14.835 9.84489 15.2189C10.2419 15.6028 10.875 15.5921 11.2589 15.1951L12.5055 13.9057C12.8894 13.5153 13.0799 13.005 13.0799 12.5C13.0799 11.995 12.8894 11.4847 12.5055 11.0943L11.2589 9.80492Z" fill="black"/>
</svg>
