<svg width="24" height="24" viewBox="0 0 24 24" fill="none" xmlns="http://www.w3.org/2000/svg">
<path fill-rule="evenodd" clip-rule="evenodd" d="M7 1C4.79086 1 3 2.79086 3 5V19C3 21.2091 4.79086 23 7 23H17C19.2091 23 21 21.2091 21 19V9.24264C21 8.66548 20.8752 8.10113 20.6407 7.5858C20.4442 7.15387 20.1704 6.75623 19.8284 6.41421L15.5858 2.17157C15.2438 1.82956 14.8461 1.55583 14.4142 1.35928C13.8989 1.12476 13.3345 1 12.7574 1H7ZM5 5C5 3.89543 5.89543 3 7 3H12.7574C13.0459 3 13.328 3.06235 13.5858 3.17965C13.733 3.24662 13.8721 3.33149 14 3.43287V7.00007C14 7.55236 14.4477 8.00007 15 8.00007H18.5672C18.6685 8.1279 18.7534 8.26705 18.8204 8.4142C18.9377 8.67196 19 8.95406 19 9.24264V19C19 20.1046 18.1046 21 17 21H7C5.89543 21 5 20.1046 5 19V5ZM13.9285 13.3714C14.1336 12.8586 13.8842 12.2766 13.3714 12.0715C12.8586 11.8664 12.2766 12.1158 12.0715 12.6286L10.0715 17.6286C9.86641 18.1414 10.1158 18.7234 10.6286 18.9285C11.1414 19.1336 11.7234 18.8842 11.9285 18.3714L13.9285 13.3714ZM9.21886 14.1951C9.60274 13.798 9.59206 13.165 9.19501 12.7811C8.79795 12.3972 8.16488 12.4079 7.781 12.8049L6.53438 14.0943C5.76849 14.8732 5.76849 16.1268 6.53438 16.9057L7.781 18.1951C8.16488 18.5921 8.79795 18.6028 9.19501 18.2189C9.59206 17.835 9.60274 17.202 9.21886 16.8049L7.96886 15.512L7.96891 15.512L7.96058 15.5036L7.96033 15.5033L7.96021 15.5027L7.95996 15.5L7.96021 15.4973L7.96033 15.4967L7.96058 15.4964L7.96063 15.4965L7.96886 15.488L9.21886 14.1951ZM16.2189 12.8049C15.835 12.4079 15.2019 12.3972 14.8048 12.7811C14.4078 13.165 14.3971 13.798 14.781 14.1951L16.031 15.488L16.0309 15.488L16.0393 15.4964L16.0395 15.4967L16.0397 15.4973L16.0399 15.5L16.0397 15.5027L16.0395 15.5033L16.0393 15.5036L16.0392 15.5035L16.031 15.512L14.781 16.8049C14.3971 17.202 14.4078 17.835 14.8048 18.2189C15.2019 18.6028 15.835 18.5921 16.2189 18.1951L17.4654 16.9057C18.2314 16.1268 18.2314 14.8732 17.4654 14.0943L16.2189 12.8049ZM7.96044 15.4963L7.96035 15.4966L7.96044 15.4963L7.96046 15.4963L7.96044 15.4963Z" fill="black"/>
</svg>
