<svg width="24" height="24" viewBox="0 0 24 24" fill="none" xmlns="http://www.w3.org/2000/svg">
<path d="M8.03997 11.5L6.78997 12.7929C6.59666 12.9882 6.5 13.2441 6.5 13.5C6.5 13.7559 6.59666 14.0118 6.78997 14.2071L8.03997 15.5M15.96 11.5L17.21 12.7929C17.4033 12.9882 17.5 13.2441 17.5 13.5C17.5 13.7559 17.4033 14.0118 17.21 14.2071L15.96 15.5M11 16L13 11M2 7V17C2 18.6569 3.34315 20 5 20H19C20.6569 20 22 18.6569 22 17V10C22 8.34315 20.6569 7 19 7H14.6056C13.6025 7 12.6658 6.4987 12.1094 5.6641L11.8906 5.3359C11.3342 4.5013 10.3975 4 9.39445 4H5C3.34315 4 2 5.34315 2 7Z" stroke="black" stroke-width="2" stroke-linecap="round" stroke-linejoin="round"/>
</svg>
