<svg width="24" height="24" viewBox="0 0 24 24" fill="none" xmlns="http://www.w3.org/2000/svg">
<path d="M9.49993 11.5L8.24993 12.7929C7.86331 13.1834 7.86331 13.8166 8.24993 14.2071L9.49993 15.5M14.4999 11.5L15.7499 12.7929C16.1366 13.1834 16.1366 13.8166 15.7499 14.2071L14.4999 15.5M2 7V17C2 18.6569 3.34315 20 5 20H19C20.6569 20 22 18.6569 22 17V10C22 8.34315 20.6569 7 19 7H14.6056C13.6025 7 12.6658 6.4987 12.1094 5.6641L11.8906 5.3359C11.3342 4.5013 10.3975 4 9.39445 4H5C3.34315 4 2 5.34315 2 7Z" stroke="black" stroke-width="2" stroke-linecap="round" stroke-linejoin="round"/>
</svg>
