<svg width="24" height="24" viewBox="0 0 24 24" fill="none" xmlns="http://www.w3.org/2000/svg">
<path fill-rule="evenodd" clip-rule="evenodd" d="M11.6337 4.2188L11.3386 3.7812C10.5882 2.6684 9.32498 2 7.97224 2H5.04584C2.81138 2 1 3.79086 1 6V7V17C1 19.2091 2.79086 21 5 21H19C21.2091 21 23 19.2091 23 17V10C23 7.79086 21.2091 6 19 6H15C13.6473 6 12.384 5.3316 11.6337 4.2188ZM3 17V8H14.6056H19C20.1046 8 21 8.89543 21 10V17C21 18.1046 20.1046 19 19 19H5C3.89543 19 3 18.1046 3 17ZM13.9285 11.3714C14.1336 10.8586 13.8842 10.2766 13.3714 10.0715C12.8586 9.86641 12.2766 10.1158 12.0715 10.6286L10.0715 15.6286C9.86641 16.1414 10.1158 16.7234 10.6286 16.9285C11.1414 17.1336 11.7234 16.8842 11.9285 16.3714L13.9285 11.3714ZM8.7589 12.1951C9.14278 11.798 9.1321 11.165 8.73505 10.7811C8.33799 10.3972 7.70492 10.4079 7.32103 10.8049L6.07447 12.0943C5.69058 12.4847 5.5 12.995 5.5 13.5C5.5 14.005 5.69058 14.5153 6.07447 14.9057L7.32103 16.1951C7.70492 16.5921 8.33799 16.6028 8.73505 16.2189C9.1321 15.835 9.14278 15.202 8.7589 14.8049L7.5089 13.512L7.50895 13.512L7.50061 13.5036L7.50037 13.5033L7.50024 13.5027L7.5 13.5L7.50024 13.4973L7.50037 13.4967L7.50061 13.4964L7.50066 13.4965L7.5089 13.488L8.7589 12.1951ZM16.679 10.8049C16.2951 10.4079 15.662 10.3972 15.265 10.7811C14.8679 11.165 14.8572 11.798 15.2411 12.1951L16.4911 13.488L16.491 13.488L16.4994 13.4964L16.4996 13.4967L16.4998 13.4973L16.5 13.5L16.4998 13.5027L16.4996 13.5033L16.4994 13.5036L16.4993 13.5035L16.4911 13.512L15.2411 14.8049C14.8572 15.202 14.8679 15.835 15.265 16.2189C15.662 16.6028 16.2951 16.5921 16.679 16.1951L17.9256 14.9057C18.3094 14.5153 18.5 14.005 18.5 13.5C18.5 12.995 18.3094 12.4847 17.9256 12.0943L16.679 10.8049Z" fill="black"/>
</svg>
