<svg width="24" height="24" viewBox="0 0 24 24" fill="none" xmlns="http://www.w3.org/2000/svg">
<path fill-rule="evenodd" clip-rule="evenodd" d="M11.6337 4.2188L11.3386 3.7812C10.5882 2.6684 9.32498 2 7.97224 2H5.04584C2.81138 2 1 3.79086 1 6V7V17C1 19.2091 2.79086 21 5 21H19C21.2091 21 23 19.2091 23 17V10C23 7.79086 21.2091 6 19 6H15C13.6473 6 12.384 5.3316 11.6337 4.2188ZM3 17V8H14.6056H19C20.1046 8 21 8.89543 21 10V17C21 18.1046 20.1046 19 19 19H5C3.89543 19 3 18.1046 3 17ZM10.2189 12.1951C10.6027 11.798 10.5921 11.165 10.195 10.7811C9.79795 10.3972 9.16488 10.4079 8.781 10.8049L7.53444 12.0943C6.76847 12.8732 6.76847 14.1268 7.53444 14.9057L8.781 16.1951C9.16488 16.5921 9.79795 16.6028 10.195 16.2189C10.5921 15.835 10.6027 15.202 10.2189 14.8049L8.96886 13.512L8.96891 13.512L8.96058 13.5036L8.96033 13.5033L8.9602 13.5027L8.95996 13.5L8.9602 13.4973L8.96033 13.4967L8.96058 13.4964L8.96063 13.4965L8.96886 13.488L10.2189 12.1951ZM15.2189 10.8049C14.835 10.4079 14.2019 10.3972 13.8048 10.7811C13.4078 11.165 13.3971 11.798 13.781 12.1951L15.031 13.488L15.0309 13.488L15.0393 13.4964L15.0395 13.4967L15.0397 13.4973L15.0399 13.5L15.0397 13.5027L15.0395 13.5033L15.0393 13.5036L15.0392 13.5035L15.031 13.512L13.781 14.8049C13.3971 15.202 13.4078 15.835 13.8048 16.2189C14.2019 16.6028 14.835 16.5921 15.2189 16.1951L16.4654 14.9057C17.2314 14.1268 17.2314 12.8732 16.4654 12.0943L15.2189 10.8049Z" fill="black"/>
</svg>
