<svg width="24" height="24" viewBox="0 0 24 24" fill="none" xmlns="http://www.w3.org/2000/svg">
<path d="M10.5 19.5C10.5 20.3284 11.1716 21 12 21C12.8284 21 13.5 20.3284 13.5 19.5M10.5 19.5C10.5 18.6716 11.1716 18 12 18M10.5 19.5H3M13.5 19.5C13.5 18.6716 12.8284 18 12 18M13.5 19.5H21M12 18V16M12 16C8.41015 16 5.5 13.0899 5.5 9.5M12 16C15.5899 16 18.5 13.0899 18.5 9.5M12 16C10.375 14.1042 9.5 11.8021 9.5 9.5M12 16C13.625 14.1042 14.5 11.8021 14.5 9.5M5.5 9.5C5.5 5.91015 8.41015 3 12 3M5.5 9.5H9.5M18.5 9.5C18.5 5.91015 15.5899 3 12 3M18.5 9.5H14.5M12 3C10.375 4.89583 9.5 7.19792 9.5 9.5M12 3C13.625 4.89583 14.5 7.19792 14.5 9.5M9.5 9.5H14.5" stroke="black" stroke-width="2" stroke-linecap="round"/>
</svg>
