<svg width="24" height="24" viewBox="0 0 24 24" fill="none" xmlns="http://www.w3.org/2000/svg">
<path fill-rule="evenodd" clip-rule="evenodd" d="M8 2C6.25681 2 4.7765 3.11451 4.22787 4.66675L4.22202 4.68377L2.22466 10.6759C2.15028 10.8879 2.09325 11.1081 2.05526 11.3345C2.01885 11.5516 2 11.774 2 12C2 13.1947 2.52376 14.2671 3.3542 15C2.6816 15.5938 2.21029 16.4105 2.05526 17.3345C2.01885 17.5516 2 17.774 2 18C2 20.2091 3.79086 22 6 22H18C20.2091 22 22 20.2091 22 18C22 17.774 21.9812 17.5516 21.9447 17.3345C21.7897 16.4105 21.3184 15.5938 20.6458 15C21.4762 14.2671 22 13.1947 22 12C22 11.774 21.9812 11.5516 21.9447 11.3345C21.9067 11.1081 21.8497 10.8879 21.7753 10.6758L19.778 4.68377L19.7721 4.66675C19.2235 3.11451 17.7432 2 16 2H8ZM6 8C5.72526 8 5.45706 8.02768 5.198 8.0804L6.11625 5.32563C6.39342 4.55149 7.13359 4 8 4H16C16.8664 4 17.6066 4.55147 17.8837 5.3256L18.802 8.0804C18.5429 8.02768 18.2747 8 18 8H6ZM4.0277 17.6655C4.18626 16.7203 5.00999 16 6 16H18C18.99 16 19.8137 16.7203 19.9723 17.6655C19.9904 17.7736 20 17.8853 20 18C20 19.1046 19.1046 20 18 20H6C4.89543 20 4 19.1046 4 18C4 17.8853 4.00955 17.7736 4.0277 17.6655ZM20 12C20 13.1046 19.1046 14 18 14H6C4.89543 14 4 13.1046 4 12C4 11.8853 4.00955 11.7736 4.0277 11.6655C4.0469 11.551 4.07582 11.44 4.11355 11.3332C4.38858 10.5551 5.13075 10 6 10H18C18.8693 10 19.6114 10.5551 19.8865 11.3332C19.9242 11.44 19.9531 11.551 19.9723 11.6655C19.9904 11.7736 20 11.8853 20 12ZM11 11C10.4477 11 10 11.4477 10 12C10 12.5523 10.4477 13 11 13H18C18.5523 13 19 12.5523 19 12C19 11.4477 18.5523 11 18 11H11ZM11 17C10.4477 17 10 17.4477 10 18C10 18.5523 10.4477 19 11 19H18C18.5523 19 19 18.5523 19 18C19 17.4477 18.5523 17 18 17H11ZM6.25 13.25C6.94036 13.25 7.5 12.6904 7.5 12C7.5 11.3096 6.94036 10.75 6.25 10.75C5.55964 10.75 5 11.3096 5 12C5 12.6904 5.55964 13.25 6.25 13.25ZM6.25 19.25C6.94036 19.25 7.5 18.6904 7.5 18C7.5 17.3096 6.94036 16.75 6.25 16.75C5.55964 16.75 5 17.3096 5 18C5 18.6904 5.55964 19.25 6.25 19.25Z" fill="black"/>
</svg>
