<svg width="24" height="24" viewBox="0 0 24 24" fill="none" xmlns="http://www.w3.org/2000/svg">
<path fill-rule="evenodd" clip-rule="evenodd" d="M8 2C6.01701 2 4.37277 3.44198 4.05526 5.33454L4.05509 5.3356L2.05526 17.3345L2.05516 17.3351C2.01881 17.552 2 17.7742 2 18C2 20.2091 3.79086 22 6 22H18C20.2091 22 22 20.2091 22 18C22 17.774 21.9812 17.5516 21.9447 17.3345L21.9446 17.334L19.9449 5.3356L19.9447 5.33454C19.6272 3.44198 17.983 2 16 2H8ZM6 14C5.50603 14 5.03308 14.0895 4.59642 14.2531L6.0277 5.66546L6.02777 5.66503C6.18651 4.72009 7.01014 4 8 4H16C16.9899 4 17.8136 4.72019 17.9723 5.66522L17.9723 5.66546L19.4036 14.2531C18.9669 14.0895 18.494 14 18 14H6ZM4.0277 17.6655C4.18626 16.7203 5.00999 16 6 16H18C18.99 16 19.8137 16.7203 19.9723 17.6655C19.9904 17.7736 20 17.8853 20 18C20 19.1046 19.1046 20 18 20H6C4.89543 20 4 19.1046 4 18C4 17.8853 4.00955 17.7736 4.0277 17.6655ZM11 17C10.4477 17 10 17.4477 10 18C10 18.5523 10.4477 19 11 19H18C18.5523 19 19 18.5523 19 18C19 17.4477 18.5523 17 18 17H11ZM6.25 19.25C6.94036 19.25 7.5 18.6904 7.5 18C7.5 17.3096 6.94036 16.75 6.25 16.75C5.55964 16.75 5 17.3096 5 18C5 18.6904 5.55964 19.25 6.25 19.25Z" fill="black"/>
</svg>
