<svg width="24" height="24" viewBox="0 0 24 24" fill="none" xmlns="http://www.w3.org/2000/svg">
<path fill-rule="evenodd" clip-rule="evenodd" d="M7 2C5.61423 2 4.45017 2.93869 4.10443 4.21346L2.20566 9.90689C2.11651 10.1347 2.05438 10.3759 2.02316 10.6263C2.00784 10.7491 2 10.8739 2 11V13C2 13.7684 2.28887 14.4693 2.76395 15.0001C2.36737 15.4433 2.10059 16.0053 2.02316 16.6263C2.00784 16.7491 2 16.8739 2 17V19C2 20.6569 3.34315 22 5 22H19C20.6569 22 22 20.6569 22 19V17C22 16.8739 21.9922 16.7491 21.9768 16.6263C21.8994 16.0053 21.6326 15.4433 21.2361 15.0001C21.7111 14.4693 22 13.7684 22 13V11C22 10.8739 21.9922 10.7491 21.9768 10.6263C21.9456 10.3759 21.8835 10.1347 21.7943 9.90689L19.8956 4.21344C19.5498 2.93868 18.3858 2 17 2H7ZM5 8C4.98322 8 4.96648 8.00014 4.94976 8.00041L6.01164 4.81637C6.01903 4.79424 6.02563 4.77185 6.03145 4.74926C6.14251 4.31774 6.53541 4 7 4H17C17.4646 4 17.8575 4.31774 17.9686 4.74926C17.9744 4.77185 17.981 4.79424 17.9884 4.81637L19.0502 8.00041C19.0335 8.00014 19.0168 8 19 8H5ZM4.00779 16.8737C4.06917 16.3815 4.4908 16 5 16H19C19.5092 16 19.9308 16.3815 19.9922 16.8737C19.9973 16.9147 20 16.9568 20 17V19C20 19.5523 19.5523 20 19 20H5C4.44772 20 4 19.5523 4 19V17C4 16.9568 4.00268 16.9147 4.00779 16.8737ZM20 13C20 13.5523 19.5523 14 19 14H5C4.44772 14 4 13.5523 4 13V11C4 10.9568 4.00268 10.9147 4.00779 10.8737C4.01866 10.7866 4.04068 10.7034 4.07232 10.6252C4.22141 10.2569 4.5819 10 5 10H19C19.4181 10 19.7786 10.2569 19.9277 10.6252C19.9593 10.7034 19.9813 10.7866 19.9922 10.8737C19.9973 10.9147 20 10.9568 20 11V13ZM11 11C10.4477 11 10 11.4477 10 12C10 12.5523 10.4477 13 11 13H18C18.5523 13 19 12.5523 19 12C19 11.4477 18.5523 11 18 11H11ZM11 17C10.4477 17 10 17.4477 10 18C10 18.5523 10.4477 19 11 19H18C18.5523 19 19 18.5523 19 18C19 17.4477 18.5523 17 18 17H11ZM6.25 13.25C6.94036 13.25 7.5 12.6904 7.5 12C7.5 11.3096 6.94036 10.75 6.25 10.75C5.55964 10.75 5 11.3096 5 12C5 12.6904 5.55964 13.25 6.25 13.25ZM6.25 19.25C6.94036 19.25 7.5 18.6904 7.5 18C7.5 17.3096 6.94036 16.75 6.25 16.75C5.55964 16.75 5 17.3096 5 18C5 18.6904 5.55964 19.25 6.25 19.25Z" fill="black"/>
</svg>
