<svg width="24" height="24" viewBox="0 0 24 24" fill="none" xmlns="http://www.w3.org/2000/svg">
<path fill-rule="evenodd" clip-rule="evenodd" d="M5 3C2.79086 3 1 4.79086 1 7V9C1 10.1947 1.52376 11.2671 2.35418 12C1.52376 12.7329 1 13.8053 1 15V17C1 19.2091 2.79086 21 5 21H19C21.2091 21 23 19.2091 23 17V15C23 13.8053 22.4762 12.7329 21.6458 12C22.4762 11.2671 23 10.1947 23 9V7C23 4.79086 21.2091 3 19 3H5ZM3 15C3 13.8954 3.89543 13 5 13H19C20.1046 13 21 13.8954 21 15V17C21 18.1046 20.1046 19 19 19H5C3.89543 19 3 18.1046 3 17V15ZM21 9C21 10.1046 20.1046 11 19 11H5C3.89543 11 3 10.1046 3 9V7C3 5.89543 3.89543 5 5 5H19C20.1046 5 21 5.89543 21 7V9ZM6.25 9.25C6.94036 9.25 7.5 8.69036 7.5 8C7.5 7.30964 6.94036 6.75 6.25 6.75C5.55964 6.75 5 7.30964 5 8C5 8.69036 5.55964 9.25 6.25 9.25ZM6.25 17.25C6.94036 17.25 7.5 16.6904 7.5 16C7.5 15.3096 6.94036 14.75 6.25 14.75C5.55964 14.75 5 15.3096 5 16C5 16.6904 5.55964 17.25 6.25 17.25Z" fill="black"/>
</svg>
