<svg width="24" height="24" viewBox="0 0 24 24" fill="none" xmlns="http://www.w3.org/2000/svg">
<path d="M12 21C7.02944 21 3 16.9706 3 12M12 21C16.9706 21 21 16.9706 21 12M12 21C9.75 18.375 8.53846 15.1875 8.53846 12M12 21C14.25 18.375 15.4615 15.1875 15.4615 12M3 12C3 7.02944 7.02944 3 12 3M3 12H8.53846M21 12C21 7.02944 16.9706 3 12 3M21 12H15.4615M12 3C9.75 5.625 8.53846 8.8125 8.53846 12M12 3C14.25 5.625 15.4615 8.8125 15.4615 12M8.53846 12H15.4615M20 6C18.8954 6 18 5.10457 18 4C18 2.89543 18.8954 2 20 2C21.1046 2 22 2.89543 22 4C22 5.10457 21.1046 6 20 6ZM4 6C2.89543 6 2 5.10457 2 4C2 2.89543 2.89543 2 4 2C5.10457 2 6 2.89543 6 4C6 5.10457 5.10457 6 4 6ZM20 22C18.8954 22 18 21.1046 18 20C18 18.8954 18.8954 18 20 18C21.1046 18 22 18.8954 22 20C22 21.1046 21.1046 22 20 22ZM4 22C2.89543 22 2 21.1046 2 20C2 18.8954 2.89543 18 4 18C5.10457 18 6 18.8954 6 20C6 21.1046 5.10457 22 4 22Z" stroke="black" stroke-width="2" stroke-linecap="round"/>
</svg>
