<svg width="24" height="24" viewBox="0 0 24 24" fill="none" xmlns="http://www.w3.org/2000/svg">
<path fill-rule="evenodd" clip-rule="evenodd" d="M6 3C3.23858 3 1 5.23858 1 8C1 9.6356 1.78534 11.0878 2.99952 12C1.78534 12.9122 1 14.3644 1 16C1 18.7614 3.23858 21 6 21H18C20.7614 21 23 18.7614 23 16C23 14.3644 22.2147 12.9122 21.0005 12C22.2147 11.0878 23 9.6356 23 8C23 5.23858 20.7614 3 18 3H6ZM3 16C3 14.3431 4.34315 13 6 13H18C19.6569 13 21 14.3431 21 16C21 17.6569 19.6569 19 18 19H6C4.34315 19 3 17.6569 3 16ZM21 8C21 9.65685 19.6569 11 18 11H6C4.34315 11 3 9.65685 3 8C3 6.34315 4.34315 5 6 5H18C19.6569 5 21 6.34315 21 8ZM6.25 9.25C6.94036 9.25 7.5 8.69036 7.5 8C7.5 7.30964 6.94036 6.75 6.25 6.75C5.55964 6.75 5 7.30964 5 8C5 8.69036 5.55964 9.25 6.25 9.25ZM6.25 17.25C6.94036 17.25 7.5 16.6904 7.5 16C7.5 15.3096 6.94036 14.75 6.25 14.75C5.55964 14.75 5 15.3096 5 16C5 16.6904 5.55964 17.25 6.25 17.25Z" fill="black"/>
</svg>
