<svg width="24" height="24" viewBox="0 0 24 24" fill="none" xmlns="http://www.w3.org/2000/svg">
<path fill-rule="evenodd" clip-rule="evenodd" d="M7 2C5.60075 2 4.42755 2.95704 4.09457 4.25074C4.0874 4.2786 4.08143 4.30676 4.07669 4.33514L2.05966 16.4027C2.04477 16.4763 2.03257 16.5508 2.02316 16.6263C2.00784 16.7491 2 16.8739 2 17V19C2 20.6569 3.34315 22 5 22H19C20.6569 22 22 20.6569 22 19V17C22 16.8739 21.9922 16.7491 21.9768 16.6263C21.9674 16.5508 21.9552 16.4762 21.9403 16.4026L19.9233 4.33514C19.9186 4.30676 19.9126 4.2786 19.9054 4.25074C19.5725 2.95704 18.3993 2 17 2H7ZM4.02506 16.7757L4.0058 16.8909C4.00199 16.9264 4 16.9628 4 17V19C4 19.5523 4.44772 20 5 20H19C19.5523 20 20 19.5523 20 19V17C20 16.9628 19.998 16.9264 19.9942 16.8908L19.9749 16.7757C19.8735 16.3317 19.4748 16 19 16H5C4.52517 16 4.12649 16.3317 4.02506 16.7757ZM19 14C19.1768 14 19.3501 14.0153 19.5185 14.0446L17.959 4.71483C17.8364 4.30094 17.4521 4 17 4H7C6.54786 4 6.16361 4.30094 6.04097 4.71483L4.48154 14.0446C4.64994 14.0153 4.82317 14 5 14H19ZM11 17C10.4477 17 10 17.4477 10 18C10 18.5523 10.4477 19 11 19H18C18.5523 19 19 18.5523 19 18C19 17.4477 18.5523 17 18 17H11ZM6.25 19.25C6.94036 19.25 7.5 18.6904 7.5 18C7.5 17.3096 6.94036 16.75 6.25 16.75C5.55964 16.75 5 17.3096 5 18C5 18.6904 5.55964 19.25 6.25 19.25Z" fill="black"/>
</svg>
