<svg width="24" height="24" viewBox="0 0 24 24" fill="none" xmlns="http://www.w3.org/2000/svg">
<path fill-rule="evenodd" clip-rule="evenodd" d="M9.11374 4.33325C9.38877 3.5551 10.1309 3 11.0002 3H19.0002C20.1048 3 21.0002 3.89543 21.0002 5V13C21.0002 13.8692 20.4451 14.6114 19.667 14.8864C19.1463 15.0705 18.8734 15.6418 19.0574 16.1625C19.2415 16.6833 19.8128 16.9562 20.3335 16.7721C21.8857 16.2235 23.0002 14.7432 23.0002 13V5C23.0002 2.79086 21.2093 1 19.0002 1H11.0002C9.25701 1 7.7767 2.11451 7.22806 3.66675C7.04401 4.18747 7.31694 4.75879 7.83765 4.94284C8.35837 5.12689 8.92969 4.85396 9.11374 4.33325ZM5 6C2.79086 6 1 7.79086 1 10V19C1 21.2091 2.79086 23 5 23H14C16.2091 23 18 21.2091 18 19V10C18 7.79086 16.2091 6 14 6H5ZM3 10C3 8.89543 3.89543 8 5 8H14C15.1046 8 16 8.89543 16 10V19C16 20.1046 15.1046 21 14 21H5C3.89543 21 3 20.1046 3 19V10ZM6 10C6 10.5523 5.55228 11 5 11C4.44772 11 4 10.5523 4 10C4 9.44771 4.44772 9 5 9C5.55228 9 6 9.44771 6 10ZM9 10C9 10.5523 8.55228 11 8 11C7.44772 11 7 10.5523 7 10C7 9.44771 7.44772 9 8 9C8.55228 9 9 9.44771 9 10ZM11 11C11.5523 11 12 10.5523 12 10C12 9.44771 11.5523 9 11 9C10.4477 9 10 9.44771 10 10C10 10.5523 10.4477 11 11 11Z" fill="black"/>
</svg>
