<svg width="24" height="24" viewBox="0 0 24 24" fill="none" xmlns="http://www.w3.org/2000/svg">
<path fill-rule="evenodd" clip-rule="evenodd" d="M9.11374 4.33325C9.38877 3.5551 10.1309 3 11.0002 3H19.0002C20.1048 3 21.0002 3.89543 21.0002 5V13C21.0002 13.8692 20.4451 14.6114 19.667 14.8864C19.1463 15.0705 18.8734 15.6418 19.0574 16.1625C19.2415 16.6833 19.8128 16.9562 20.3335 16.7721C21.8857 16.2235 23.0002 14.7432 23.0002 13V5C23.0002 2.79086 21.2093 1 19.0002 1H11.0002C9.25701 1 7.7767 2.11451 7.22806 3.66675C7.04401 4.18747 7.31694 4.75879 7.83765 4.94284C8.35837 5.12689 8.92969 4.85396 9.11374 4.33325ZM1 12V9.5C1 7.84315 2.84315 6 4.5 6H14.5C16.1569 6 18 7.84315 18 9.5V12V19C18 21.2091 16.2091 23 14 23H5C2.79086 23 1 21.2091 1 19V12ZM16 12H3V19C3 20.1046 3.89543 21 5 21H14C15.1046 21 16 20.1046 16 19V12ZM4 10C4.55228 10 5 9.55228 5 9C5 8.44772 4.55228 8 4 8C3.44772 8 3 8.44772 3 9C3 9.55228 3.44772 10 4 10ZM7 10C7.55228 10 8 9.55228 8 9C8 8.44772 7.55228 8 7 8C6.44772 8 6 8.44772 6 9C6 9.55228 6.44772 10 7 10ZM11 9C11 9.55228 10.5523 10 10 10C9.44772 10 9 9.55228 9 9C9 8.44772 9.44772 8 10 8C10.5523 8 11 8.44772 11 9Z" fill="black"/>
</svg>
