<svg width="24" height="24" viewBox="0 0 24 24" fill="none" xmlns="http://www.w3.org/2000/svg">
<path fill-rule="evenodd" clip-rule="evenodd" d="M20 3H4C2.34315 3 1 4.34315 1 6V9V17C1 19.2091 2.79086 21 5 21H19C21.2091 21 23 19.2091 23 17V9V6C23 4.34315 21.6569 3 20 3ZM21 9H3V17C3 18.1046 3.89543 19 5 19H19C20.1046 19 21 18.1046 21 17V9ZM4 7C4.55228 7 5 6.55228 5 6C5 5.44772 4.55228 5 4 5C3.44772 5 3 5.44772 3 6C3 6.55228 3.44772 7 4 7ZM7 7C7.55228 7 8 6.55228 8 6C8 5.44772 7.55228 5 7 5C6.44772 5 6 5.44772 6 6C6 6.55228 6.44772 7 7 7ZM11 6C11 6.55228 10.5523 7 10 7C9.44772 7 9 6.55228 9 6C9 5.44772 9.44772 5 10 5C10.5523 5 11 5.44772 11 6Z" fill="black"/>
</svg>
