<svg width="134" height="28" viewBox="0 0 134 28" fill="none" xmlns="http://www.w3.org/2000/svg">
<path d="M10.92 9.32H6.92V20H4.28V9.32H0.28V6.84H10.92V9.32ZM13.3934 20H10.8334V10.36H13.0334L13.1334 11.84C13.4401 11.36 13.8134 10.96 14.2534 10.64C14.7068 10.32 15.2268 10.16 15.8134 10.16C15.9601 10.16 16.1134 10.1733 16.2734 10.2C16.4468 10.2133 16.6201 10.2533 16.7934 10.32L16.7734 12.78C16.5868 12.7133 16.4001 12.6667 16.2134 12.64C16.0401 12.6 15.8601 12.58 15.6734 12.58C15.0334 12.58 14.4934 12.7867 14.0534 13.2C13.6134 13.6133 13.3934 14.2333 13.3934 15.06V20ZM17.2233 11.82C17.3566 11.6733 17.5499 11.5067 17.8033 11.32C18.0699 11.1333 18.3833 10.9533 18.7433 10.78C19.1033 10.6067 19.5166 10.46 19.9833 10.34C20.4499 10.22 20.9499 10.16 21.4833 10.16C22.0699 10.16 22.6233 10.24 23.1433 10.4C23.6766 10.5467 24.1366 10.78 24.5233 11.1C24.9233 11.42 25.2366 11.8267 25.4633 12.32C25.6899 12.8 25.8033 13.38 25.8033 14.06V20H23.6033L23.4233 18.72C23.0766 19.1867 22.6499 19.5533 22.1433 19.82C21.6499 20.0733 21.0499 20.2 20.3433 20.2C19.8366 20.2 19.3833 20.1267 18.9833 19.98C18.5833 19.82 18.2433 19.6133 17.9633 19.36C17.6833 19.0933 17.4699 18.78 17.3233 18.42C17.1766 18.06 17.1033 17.6733 17.1033 17.26C17.1033 16.8333 17.1899 16.44 17.3633 16.08C17.5366 15.7067 17.8033 15.3867 18.1633 15.12C18.5366 14.84 19.0033 14.6267 19.5633 14.48C20.1233 14.32 20.7899 14.24 21.5633 14.24H23.3633V14.1C23.3633 13.54 23.1966 13.1067 22.8633 12.8C22.5433 12.4933 22.0433 12.34 21.3633 12.34C21.0566 12.34 20.7633 12.38 20.4833 12.46C20.2033 12.54 19.9433 12.64 19.7033 12.76C19.4633 12.88 19.2499 13.0067 19.0633 13.14C18.8899 13.2733 18.7499 13.3933 18.6433 13.5L17.2233 11.82ZM23.3633 15.82L21.7233 15.8C21.0033 15.8 20.4899 15.9333 20.1833 16.2C19.8766 16.4533 19.7233 16.7533 19.7233 17.1C19.7233 17.3933 19.8366 17.6667 20.0633 17.92C20.3033 18.16 20.6633 18.28 21.1433 18.28C21.4099 18.28 21.6699 18.2267 21.9233 18.12C22.1899 18.0133 22.4299 17.8667 22.6433 17.68C22.8566 17.48 23.0299 17.24 23.1633 16.96C23.2966 16.68 23.3633 16.36 23.3633 16V15.82ZM36.3553 17.62C36.182 17.9933 35.942 18.34 35.6353 18.66C35.342 18.9667 35.002 19.2333 34.6153 19.46C34.2286 19.6867 33.802 19.86 33.3353 19.98C32.8686 20.1 32.382 20.16 31.8753 20.16C31.142 20.16 30.4553 20.0333 29.8153 19.78C29.1753 19.5267 28.622 19.18 28.1553 18.74C27.6886 18.2867 27.322 17.76 27.0553 17.16C26.7886 16.5467 26.6553 15.8867 26.6553 15.18C26.6553 14.4733 26.7886 13.82 27.0553 13.22C27.322 12.6067 27.6886 12.08 28.1553 11.64C28.622 11.1867 29.1753 10.8333 29.8153 10.58C30.4553 10.3267 31.142 10.2 31.8753 10.2C32.382 10.2 32.8686 10.26 33.3353 10.38C33.802 10.5 34.2286 10.6733 34.6153 10.9C35.002 11.1267 35.342 11.3933 35.6353 11.7C35.942 12.0067 36.182 12.3533 36.3553 12.74L34.2953 13.8C34.0686 13.4 33.742 13.0667 33.3153 12.8C32.902 12.5333 32.4353 12.4 31.9153 12.4C31.542 12.4 31.1886 12.4733 30.8553 12.62C30.522 12.7533 30.2286 12.9467 29.9753 13.2C29.722 13.4533 29.522 13.7467 29.3753 14.08C29.242 14.4133 29.1753 14.7733 29.1753 15.16C29.1753 15.56 29.242 15.9333 29.3753 16.28C29.522 16.6133 29.722 16.9067 29.9753 17.16C30.2286 17.4 30.522 17.5933 30.8553 17.74C31.1886 17.8867 31.542 17.96 31.9153 17.96C32.4353 17.96 32.902 17.8267 33.3153 17.56C33.742 17.2933 34.0686 16.96 34.2953 16.56L36.3553 17.62ZM39.7255 20H37.1655V5.6H39.7255V14.38L43.3455 10.36H46.6455L42.8455 14.22L47.0055 20H43.8855L40.9855 15.92L39.7255 17.2V20ZM47.5858 10.36H50.1658V20H47.5858V10.36ZM47.2058 7.72C47.2058 7.48 47.2458 7.26 47.3258 7.06C47.4191 6.84667 47.5391 6.66667 47.6858 6.52C47.8458 6.36 48.0258 6.24 48.2258 6.16C48.4258 6.06667 48.6391 6.02 48.8658 6.02C49.0924 6.02 49.3058 6.06667 49.5058 6.16C49.7191 6.24 49.8991 6.36 50.0458 6.52C50.2058 6.66667 50.3324 6.84667 50.4258 7.06C50.5191 7.26 50.5658 7.48 50.5658 7.72C50.5658 7.96 50.5191 8.18667 50.4258 8.4C50.3324 8.6 50.2058 8.78 50.0458 8.94C49.8991 9.08667 49.7191 9.20667 49.5058 9.3C49.3058 9.39333 49.0924 9.44 48.8658 9.44C48.6391 9.44 48.4258 9.39333 48.2258 9.3C48.0258 9.20667 47.8458 9.08667 47.6858 8.94C47.5391 8.78 47.4191 8.6 47.3258 8.4C47.2458 8.18667 47.2058 7.96 47.2058 7.72ZM54.4677 20H51.9077V10.36H54.1077L54.2277 11.86C54.6143 11.3533 55.0743 10.9467 55.6077 10.64C56.141 10.32 56.7277 10.16 57.3677 10.16C58.0343 10.16 58.6077 10.2733 59.0877 10.5C59.5677 10.7267 59.961 11.04 60.2677 11.44C60.5743 11.8267 60.801 12.2933 60.9477 12.84C61.0943 13.3733 61.1677 13.9533 61.1677 14.58V20H58.6077V14.82C58.6077 14.5 58.5743 14.2 58.5077 13.92C58.4543 13.64 58.3543 13.4 58.2077 13.2C58.0743 12.9867 57.8877 12.82 57.6477 12.7C57.4077 12.58 57.101 12.52 56.7277 12.52C56.4077 12.52 56.1077 12.5867 55.8277 12.72C55.5477 12.8533 55.3077 13.04 55.1077 13.28C54.9077 13.5067 54.7477 13.7733 54.6277 14.08C54.521 14.3867 54.4677 14.7133 54.4677 15.06V20ZM62.3795 11.82C62.5129 11.6733 62.7062 11.5067 62.9595 11.32C63.2262 11.1333 63.5395 10.9533 63.8995 10.78C64.2595 10.6067 64.6729 10.46 65.1395 10.34C65.6062 10.22 66.1062 10.16 66.6395 10.16C67.2262 10.16 67.7795 10.24 68.2995 10.4C68.8329 10.5467 69.2929 10.78 69.6795 11.1C70.0795 11.42 70.3929 11.8267 70.6195 12.32C70.8462 12.8 70.9595 13.38 70.9595 14.06V20H68.7595L68.5795 18.72C68.2329 19.1867 67.8062 19.5533 67.2995 19.82C66.8062 20.0733 66.2062 20.2 65.4995 20.2C64.9929 20.2 64.5395 20.1267 64.1395 19.98C63.7395 19.82 63.3995 19.6133 63.1195 19.36C62.8395 19.0933 62.6262 18.78 62.4795 18.42C62.3329 18.06 62.2595 17.6733 62.2595 17.26C62.2595 16.8333 62.3462 16.44 62.5195 16.08C62.6929 15.7067 62.9595 15.3867 63.3195 15.12C63.6929 14.84 64.1595 14.6267 64.7195 14.48C65.2795 14.32 65.9462 14.24 66.7195 14.24H68.5195V14.1C68.5195 13.54 68.3529 13.1067 68.0195 12.8C67.6995 12.4933 67.1995 12.34 66.5195 12.34C66.2129 12.34 65.9195 12.38 65.6395 12.46C65.3595 12.54 65.0995 12.64 64.8595 12.76C64.6195 12.88 64.4062 13.0067 64.2195 13.14C64.0462 13.2733 63.9062 13.3933 63.7995 13.5L62.3795 11.82ZM68.5195 15.82L66.8795 15.8C66.1595 15.8 65.6462 15.9333 65.3395 16.2C65.0329 16.4533 64.8795 16.7533 64.8795 17.1C64.8795 17.3933 64.9929 17.6667 65.2195 17.92C65.4595 18.16 65.8195 18.28 66.2995 18.28C66.5662 18.28 66.8262 18.2267 67.0795 18.12C67.3462 18.0133 67.5862 17.8667 67.7995 17.68C68.0129 17.48 68.1862 17.24 68.3195 16.96C68.4529 16.68 68.5195 16.36 68.5195 16V15.82ZM75.0106 20H72.4506V10.36H74.6506L74.7706 11.86C75.1573 11.3533 75.6173 10.9467 76.1506 10.64C76.684 10.32 77.2706 10.16 77.9106 10.16C78.5773 10.16 79.1506 10.2733 79.6306 10.5C80.1106 10.7267 80.504 11.04 80.8106 11.44C81.1173 11.8267 81.344 12.2933 81.4906 12.84C81.6373 13.3733 81.7106 13.9533 81.7106 14.58V20H79.1506V14.82C79.1506 14.5 79.1173 14.2 79.0506 13.92C78.9973 13.64 78.8973 13.4 78.7506 13.2C78.6173 12.9867 78.4306 12.82 78.1906 12.7C77.9506 12.58 77.644 12.52 77.2706 12.52C76.9506 12.52 76.6506 12.5867 76.3706 12.72C76.0906 12.8533 75.8506 13.04 75.6506 13.28C75.4506 13.5067 75.2906 13.7733 75.1706 14.08C75.064 14.3867 75.0106 14.7133 75.0106 15.06V20ZM92.3202 17.62C92.1468 17.9933 91.9068 18.34 91.6002 18.66C91.3068 18.9667 90.9668 19.2333 90.5802 19.46C90.1935 19.6867 89.7668 19.86 89.3002 19.98C88.8335 20.1 88.3468 20.16 87.8402 20.16C87.1068 20.16 86.4202 20.0333 85.7802 19.78C85.1402 19.5267 84.5868 19.18 84.1202 18.74C83.6535 18.2867 83.2868 17.76 83.0202 17.16C82.7535 16.5467 82.6202 15.8867 82.6202 15.18C82.6202 14.4733 82.7535 13.82 83.0202 13.22C83.2868 12.6067 83.6535 12.08 84.1202 11.64C84.5868 11.1867 85.1402 10.8333 85.7802 10.58C86.4202 10.3267 87.1068 10.2 87.8402 10.2C88.3468 10.2 88.8335 10.26 89.3002 10.38C89.7668 10.5 90.1935 10.6733 90.5802 10.9C90.9668 11.1267 91.3068 11.3933 91.6002 11.7C91.9068 12.0067 92.1468 12.3533 92.3202 12.74L90.2602 13.8C90.0335 13.4 89.7068 13.0667 89.2802 12.8C88.8668 12.5333 88.4002 12.4 87.8802 12.4C87.5068 12.4 87.1535 12.4733 86.8202 12.62C86.4868 12.7533 86.1935 12.9467 85.9402 13.2C85.6868 13.4533 85.4868 13.7467 85.3402 14.08C85.2068 14.4133 85.1402 14.7733 85.1402 15.16C85.1402 15.56 85.2068 15.9333 85.3402 16.28C85.4868 16.6133 85.6868 16.9067 85.9402 17.16C86.1935 17.4 86.4868 17.5933 86.8202 17.74C87.1535 17.8867 87.5068 17.96 87.8802 17.96C88.4002 17.96 88.8668 17.8267 89.2802 17.56C89.7068 17.2933 90.0335 16.96 90.2602 16.56L92.3202 17.62ZM101.473 18.96C101.299 19.0933 101.079 19.2333 100.813 19.38C100.559 19.5267 100.259 19.6667 99.9127 19.8C99.5793 19.92 99.206 20.02 98.7927 20.1C98.3927 20.18 97.9727 20.22 97.5327 20.22C96.7593 20.22 96.0593 20.0933 95.4327 19.84C94.806 19.5733 94.266 19.2133 93.8127 18.76C93.3727 18.3067 93.0327 17.7733 92.7927 17.16C92.5527 16.5467 92.4327 15.8933 92.4327 15.2C92.4327 14.4933 92.5593 13.84 92.8127 13.24C93.066 12.6267 93.4127 12.1 93.8527 11.66C94.306 11.2067 94.846 10.8533 95.4727 10.6C96.0993 10.3333 96.786 10.2 97.5327 10.2C98.3193 10.2 99.0193 10.3333 99.6327 10.6C100.259 10.8533 100.786 11.2067 101.213 11.66C101.639 12.1 101.959 12.6267 102.173 13.24C102.399 13.84 102.513 14.4933 102.513 15.2C102.513 15.3467 102.506 15.5 102.493 15.66C102.479 15.8067 102.459 15.9533 102.433 16.1L95.1327 16.08C95.2927 16.72 95.606 17.2067 96.0727 17.54C96.5527 17.86 97.106 18.02 97.7327 18.02C98.0793 18.02 98.386 17.9933 98.6527 17.94C98.9193 17.8733 99.1527 17.7933 99.3527 17.7C99.5527 17.6067 99.7193 17.5133 99.8527 17.42C99.9993 17.3267 100.113 17.24 100.193 17.16L101.473 18.96ZM99.9127 14.44C99.886 13.8133 99.6727 13.3133 99.2727 12.94C98.8727 12.5533 98.3193 12.36 97.6127 12.36C96.946 12.36 96.386 12.5467 95.9327 12.92C95.4927 13.28 95.206 13.7867 95.0727 14.44H99.9127Z" fill="#1E1E1E"/>
</svg>
