<svg width="24" height="24" viewBox="0 0 24 24" fill="none" xmlns="http://www.w3.org/2000/svg">
<path d="M17 17H5C3.89543 17 3 17.8954 3 19V19C3 20.1046 3.89543 21 5 21H19C20.1046 21 21 20.1046 21 19V19C21 17.8954 20.1046 17 19 17H17ZM17 17V9M17 9V9C15.3431 9 14 7.65685 14 6V6C14 4.34315 15.3431 3 17 3V3C18.6569 3 20 4.34315 20 6V6C20 7.65685 18.6569 9 17 9V9ZM9 11H8C6.89543 11 6 11.8954 6 13V13C6 13.5523 6.44772 14 7 14H10C10.5523 14 11 13.5523 11 13V13C11 11.8954 10.1046 11 9 11Z" stroke="black" stroke-width="2" stroke-linecap="round" stroke-linejoin="round"/>
</svg>
