<svg width="24" height="24" viewBox="0 0 24 24" fill="none" xmlns="http://www.w3.org/2000/svg">
<path d="M15 8V8C13.6193 8 12.5 6.88071 12.5 5.5V5.5C12.5 4.11929 13.6193 3 15 3V3C16.3807 3 17.5 4.11929 17.5 5.5V5.5C17.5 6.88071 16.3807 8 15 8V8ZM15 8V14M7 17H17M8.5 14H11M18.8292 12.6584L20.5777 16.1554C20.8554 16.7108 21 17.3233 21 17.9443V19C21 20.1046 20.1046 21 19 21H5C3.89543 21 3 20.1046 3 19V17.9443C3 17.3233 3.14458 16.7108 3.42229 16.1554L5.17082 12.6584C5.679 11.642 6.71779 11 7.8541 11H16.1459C17.2822 11 18.321 11.642 18.8292 12.6584Z" stroke="black" stroke-width="2" stroke-linecap="round" stroke-linejoin="round"/>
</svg>
