<svg width="24" height="24" viewBox="0 0 24 24" fill="none" xmlns="http://www.w3.org/2000/svg">
<path d="M12 9V9C10.3431 9 9 7.65685 9 6V6C9 4.34315 10.3431 3 12 3V3C13.6569 3 15 4.34315 15 6V6C15 7.65685 13.6569 9 12 9V9ZM12 9V14M7 17H17M18.8739 13.4565L20.43 16.05C20.803 16.6716 21 17.383 21 18.1079V19C21 20.1046 20.1046 21 19 21H5C3.89543 21 3 20.1046 3 19V18.1079C3 17.383 3.19703 16.6716 3.57003 16.05L5.12609 13.4565C5.66826 12.5529 6.64478 12 7.69857 12H16.3014C17.3552 12 18.3317 12.5529 18.8739 13.4565Z" stroke="black" stroke-width="2" stroke-linecap="round" stroke-linejoin="round"/>
</svg>
