<svg width="24" height="24" viewBox="0 0 24 24" fill="none" xmlns="http://www.w3.org/2000/svg">
<path d="M12.3075 14H7C4.79086 14 3 15.7909 3 18V19C3 20.1046 3.89543 21 5 21H19C20.1046 21 21 20.1046 21 19V18C21 15.7909 19.2091 14 17 14H12.3075ZM12.3075 14V9M12.3075 9V9C10.6506 9 9.30745 7.65685 9.30745 6V6C9.30745 4.34315 10.6506 3 12.3075 3V3C13.9643 3 15.3075 4.34315 15.3075 6V6C15.3075 7.65685 13.9643 9 12.3075 9V9ZM6.5 17.5H6.51M10 17.5H14.5" stroke="black" stroke-width="2" stroke-linecap="round" stroke-linejoin="round"/>
</svg>
