<svg width="24" height="24" viewBox="0 0 24 24" fill="none" xmlns="http://www.w3.org/2000/svg">
<path d="M12 8V8C10.3431 8 9 6.65685 9 5V5C9 3.34315 10.3431 2 12 2V2C13.6569 2 15 3.34315 15 5V5C15 6.65685 13.6569 8 12 8V8ZM12 8V14M4 14C4 15.6569 7.58172 17 12 17C16.4183 17 20 15.6569 20 14M4 14C4 12.3431 7.58172 11 12 11C16.4183 11 20 12.3431 20 14M4 14V19C4 20.6569 7.58172 22 12 22C16.4183 22 20 20.6569 20 19V14" stroke="black" stroke-width="2" stroke-linecap="round" stroke-linejoin="round"/>
</svg>
