<svg width="24" height="24" viewBox="0 0 24 24" fill="none" xmlns="http://www.w3.org/2000/svg">
<path d="M9 15H9.01M9 18H9.01M10.49 16.5H10.5M7.49023 16.5H7.50023M16.5 16.5V16.5C16.5 17.3284 15.8284 18 15 18V18C14.1716 18 13.5 17.3284 13.5 16.5V16.5C13.5 15.6716 14.1716 15 15 15V15C15.8284 15 16.5 15.6716 16.5 16.5ZM10 12H14C14.5523 12 15 11.5523 15 11V6C15 5.44772 14.5523 5 14 5H10C9.44772 5 9 5.44772 9 6V11C9 11.5523 9.44772 12 10 12ZM19 4V20C19 21.1046 18.1046 22 17 22H7C5.89543 22 5 21.1046 5 20V4C5 2.89543 5.89543 2 7 2H17C18.1046 2 19 2.89543 19 4Z" stroke="black" stroke-width="2" stroke-linecap="round" stroke-linejoin="round"/>
</svg>
