<svg width="24" height="24" viewBox="0 0 24 24" fill="none" xmlns="http://www.w3.org/2000/svg">
<path d="M12 13.6154C11.8517 13.6154 11.7033 13.6631 11.5866 13.7586C11.21 14.0666 10.7365 14.25 10.2222 14.25C8.99492 14.25 8 13.2053 8 11.9167C8 10.7877 8.76367 9.84593 9.77821 9.62992C9.77821 8.34125 10.7727 7.25 12 7.25C13.2273 7.25 14.2218 8.34125 14.2218 9.62992C15.2363 9.84593 16 10.7877 16 11.9167C16 13.2053 15.0051 14.25 13.7778 14.25C13.2635 14.25 12.79 14.0666 12.4135 13.7586C12.2967 13.6631 12.1483 13.6154 12 13.6154ZM12 13.6154V16.7498M12 16.7498H13.5M12 16.7498H10.5M20 5V19C20 20.6569 18.6569 22 17 22H7C5.34315 22 4 20.6569 4 19V5C4 3.34315 5.34315 2 7 2H17C18.6569 2 20 3.34315 20 5Z" stroke="black" stroke-width="2" stroke-linecap="round" stroke-linejoin="round"/>
</svg>
