<svg width="24" height="24" viewBox="0 0 24 24" fill="none" xmlns="http://www.w3.org/2000/svg">
<path d="M12 13.7245C12.1358 13.7245 12.2717 13.7842 12.3753 13.9034C13.2045 14.8574 14.5489 14.8577 15.3781 13.9037C16.2073 12.9497 16.2073 11.4027 15.3781 10.4487L12.6432 7.30219C12.293 6.89927 11.707 6.89927 11.3568 7.30219L8.62189 10.4487C7.7927 11.4027 7.7927 12.9494 8.62189 13.9034C9.45108 14.8574 10.7955 14.8574 11.6247 13.9034C11.7283 13.7842 11.8642 13.7245 12 13.7245ZM12 13.7245V17M12 17H13M12 17H11M20 5V19C20 20.6569 18.6569 22 17 22H7C5.34315 22 4 20.6569 4 19V5C4 3.34315 5.34315 2 7 2H17C18.6569 2 20 3.34315 20 5Z" stroke="black" stroke-width="2" stroke-linecap="round" stroke-linejoin="round"/>
</svg>
