<svg width="24" height="24" viewBox="0 0 24 24" fill="none" xmlns="http://www.w3.org/2000/svg">
<path fill-rule="evenodd" clip-rule="evenodd" d="M5 5C5 3.89543 5.89543 3 7 3H17C18.1046 3 19 3.89543 19 5V19C19 20.1046 18.1046 21 17 21H7C5.89543 21 5 20.1046 5 19V5ZM7 1C4.79086 1 3 2.79086 3 5V19C3 21.2091 4.79086 23 7 23H17C19.2091 23 21 21.2091 21 19V5C21 2.79086 19.2091 1 17 1H7ZM7 4C6.44772 4 6 4.44772 6 5C6 5.55228 6.44772 6 7 6H7.01C7.56228 6 8.01 5.55228 8.01 5C8.01 4.44772 7.56228 4 7.01 4H7ZM17 18C16.4477 18 16 18.4477 16 19C16 19.5523 16.4477 20 17 20H17.01C17.5623 20 18.01 19.5523 18.01 19C18.01 18.4477 17.5623 18 17.01 18H17ZM8.62189 9.15749C9.45108 8.28102 10.7955 8.28102 11.6247 9.15749C11.832 9.37661 12.168 9.37661 12.3753 9.15749C13.2045 8.28102 14.5489 8.28074 15.3781 9.15722C16.2073 10.0337 16.2073 11.455 15.3781 12.3315L12.6432 15.2224C12.4681 15.4075 12.234 15.5 12 15.5C11.766 15.5 11.5319 15.4075 11.3568 15.2224L8.62189 12.3315C7.7927 11.455 7.7927 10.034 8.62189 9.15749Z" fill="black"/>
</svg>
