<svg width="24" height="24" viewBox="0 0 24 24" fill="none" xmlns="http://www.w3.org/2000/svg">
<path d="M15.3278 8.67215L8.67215 15.3278M15.3278 8.67215C14.8643 8.20858 14.2206 7.99148 13.5 8.00026M15.3278 8.67215C15.7914 9.13573 16.0085 9.77937 15.9997 10.5M8.67215 15.3278C8.20858 14.8643 7.99148 14.2206 8.00026 13.5M8.67215 15.3278C9.13573 15.7914 9.77937 16.0085 10.5 15.9997M8.00026 13.5C8.01467 12.3159 8.63888 10.924 9.78144 9.78144C10.924 8.63888 12.3159 8.01467 13.5 8.00026M8.00026 13.5L13.5 8.00026M10.5 15.9997C11.6841 15.9853 13.076 15.3611 14.2186 14.2186C15.3611 13.076 15.9853 11.6841 15.9997 10.5M10.5 15.9997L15.9997 10.5M20 5V19C20 20.6569 18.6569 22 17 22H7C5.34315 22 4 20.6569 4 19V5C4 3.34315 5.34315 2 7 2H17C18.6569 2 20 3.34315 20 5Z" stroke="black" stroke-width="2" stroke-linecap="round" stroke-linejoin="round"/>
</svg>
