<svg width="24" height="24" viewBox="0 0 24 24" fill="none" xmlns="http://www.w3.org/2000/svg">
<path d="M7 5H7.01M17 19H17.01M14.2186 14.2186C16.0565 12.3806 16.5531 9.89743 15.3278 8.67215C14.1026 7.44687 11.6194 7.94352 9.78144 9.78144C7.94352 11.6194 7.44687 14.1026 8.67215 15.3278C9.89743 16.5531 12.3806 16.0565 14.2186 14.2186ZM20 5V19C20 20.6569 18.6569 22 17 22H7C5.34315 22 4 20.6569 4 19V5C4 3.34315 5.34315 2 7 2H17C18.6569 2 20 3.34315 20 5Z" stroke="black" stroke-width="2" stroke-linecap="round" stroke-linejoin="round"/>
</svg>
