<svg width="24" height="24" viewBox="0 0 24 24" fill="none" xmlns="http://www.w3.org/2000/svg">
<path fill-rule="evenodd" clip-rule="evenodd" d="M5 5C5 3.89543 5.89543 3 7 3H17C18.1046 3 19 3.89543 19 5V19C19 20.1046 18.1046 21 17 21H7C5.89543 21 5 20.1046 5 19V5ZM7 1C4.79086 1 3 2.79086 3 5V19C3 21.2091 4.79086 23 7 23H17C19.2091 23 21 21.2091 21 19V5C21 2.79086 19.2091 1 17 1H7ZM7 4C6.44772 4 6 4.44772 6 5C6 5.55228 6.44772 6 7 6H7.01C7.56228 6 8.01 5.55228 8.01 5C8.01 4.44772 7.56228 4 7.01 4H7ZM17 18C16.4477 18 16 18.4477 16 19C16 19.5523 16.4477 20 17 20H17.01C17.5623 20 18.01 19.5523 18.01 19C18.01 18.4477 17.5623 18 17.01 18H17ZM14.2218 10.3799C14.2218 9.09125 13.2273 8 12 8C10.7727 8 9.77821 9.09125 9.77821 10.3799C8.76367 10.5959 8 11.5377 8 12.6667C8 13.9553 8.99492 15 10.2222 15C10.6978 15 11.1386 14.8431 11.5 14.5759L11.5 14.83C11.5 15.1982 11.2015 15.4967 10.8333 15.4967C10.6492 15.4967 10.5 15.6459 10.5 15.83C10.5 15.922 10.5746 15.9967 10.6667 15.9967H13.3333C13.4254 15.9967 13.5 15.922 13.5 15.83C13.5 15.6459 13.3508 15.4967 13.1667 15.4967C12.7985 15.4967 12.5 15.1982 12.5 14.83L12.5 14.5759C12.8614 14.8431 13.3022 15 13.7778 15C15.0051 15 16 13.9553 16 12.6667C16 11.5377 15.2363 10.5959 14.2218 10.3799Z" fill="black"/>
</svg>
