<svg width="24" height="24" viewBox="0 0 24 24" fill="none" xmlns="http://www.w3.org/2000/svg">
<path fill-rule="evenodd" clip-rule="evenodd" d="M5 5C5 3.89543 5.89543 3 7 3H17C18.1046 3 19 3.89543 19 5V19C19 20.1046 18.1046 21 17 21H7C5.89543 21 5 20.1046 5 19V5ZM7 1C4.79086 1 3 2.79086 3 5V19C3 21.2091 4.79086 23 7 23H17C19.2091 23 21 21.2091 21 19V5C21 2.79086 19.2091 1 17 1H7ZM7 4C6.44772 4 6 4.44772 6 5C6 5.55228 6.44772 6 7 6H7.01C7.56228 6 8.01 5.55228 8.01 5C8.01 4.44772 7.56228 4 7.01 4H7ZM17 18C16.4477 18 16 18.4477 16 19C16 19.5523 16.4477 20 17 20H17.01C17.5623 20 18.01 19.5523 18.01 19C18.01 18.4477 17.5623 18 17.01 18H17ZM8.62189 13.7955C7.7927 12.8565 7.7927 11.3339 8.62189 10.3948L11.3568 7.29747C11.707 6.90084 12.293 6.90084 12.6432 7.29747L15.3781 10.3948C16.2073 11.3339 16.2073 12.8568 15.3781 13.7958C14.5893 14.6892 13.3342 14.7324 12.5 13.926V14.8333C12.5 15.2015 12.7985 15.5 13.1667 15.5C13.3508 15.5 13.5 15.6492 13.5 15.8333C13.5 15.9254 13.4254 16 13.3333 16H10.6667C10.5746 16 10.5 15.9254 10.5 15.8333C10.5 15.6492 10.6492 15.5 10.8333 15.5C11.2015 15.5 11.5 15.2015 11.5 14.8333V13.926C10.6658 14.7324 9.41071 14.6889 8.62189 13.7955Z" fill="black"/>
</svg>
