<svg width="24" height="24" viewBox="0 0 24 24" fill="none" xmlns="http://www.w3.org/2000/svg">
<path d="M8.49481 15.2481L12.9228 22M8.49481 15.2481L6.0348 11.4971M8.49481 15.2481C10.3324 13.3139 12.3962 12.765 14.46 12.2162M6.0348 11.4971L4.26261 8.79481C3.84953 8.16492 3.91324 7.35941 4.52872 6.87421C6.11277 5.62545 7.82631 5.16963 9.5399 4.71393M6.0348 11.4971C7.87236 9.56281 9.93618 9.01397 12 8.46513M17.9652 5.43319L15.8571 2.21877C15.6862 1.95816 15.2721 1.92699 15.0347 2.14355C13.3191 3.7089 11.4291 4.21152 9.5399 4.71393M17.9652 5.43319L19.7374 8.13545C20.1505 8.76533 20.0868 9.57085 19.4713 10.056C17.8872 11.3048 16.1736 11.7605 14.46 12.2162M17.9652 5.43319C16.1276 7.36744 14.0638 7.91629 12 8.46513M12 8.46513L9.5399 4.71393M12 8.46513L14.46 12.2162" stroke="black" stroke-width="2" stroke-linecap="round" stroke-linejoin="round"/>
</svg>
