<svg width="24" height="24" viewBox="0 0 24 24" fill="none" xmlns="http://www.w3.org/2000/svg">
<path d="M6 8V10C6 10.5523 6.44772 11 7 11H10C10.5523 11 11 10.5523 11 10V8M6 8V7C6 6.44772 6.44772 6 7 6H10C10.5523 6 11 6.44772 11 7V8M6 8H11M6 9H11M13 15V17C13 17.5523 13.4477 18 14 18H17C17.5523 18 18 17.5523 18 17V15M13 15V14C13 13.4477 13.4477 13 14 13H17C17.5523 13 18 13.4477 18 14V15M13 15H18M13 16H18M21 6V18C21 19.6569 19.6569 21 18 21H6C4.34315 21 3 19.6569 3 18V6C3 4.34315 4.34315 3 6 3H18C19.6569 3 21 4.34315 21 6Z" stroke="black" stroke-width="2" stroke-linecap="round" stroke-linejoin="round"/>
</svg>
