<svg width="24" height="24" viewBox="0 0 24 24" fill="none" xmlns="http://www.w3.org/2000/svg">
<path d="M5 6V7H7V6M5 6V5H7V6M5 6H7M13 6V7H15V6M13 6V5H15V6M13 6H15M9 10V11H11V10M9 10V9H11V10M9 10H11M17 10V11H19V10M17 10V9H19V10M17 10H19M5 14V15H7V14M5 14V13H7V14M5 14H7M13 14V15H15V14M13 14V13H15V14M13 14H15M9 18V19H11V18M9 18V17H11V18M9 18H11M17 18V19H19V18M17 18V17H19V18M17 18H19M21 6V18C21 19.6569 19.6569 21 18 21H6C4.34315 21 3 19.6569 3 18V6C3 4.34315 4.34315 3 6 3H18C19.6569 3 21 4.34315 21 6Z" stroke="black" stroke-width="2" stroke-linecap="round" stroke-linejoin="round"/>
</svg>
