<svg width="24" height="24" viewBox="0 0 24 24" fill="none" xmlns="http://www.w3.org/2000/svg">
<path d="M9 8V10M15 8V10M7.10557 20.4472L4.72361 21.6382C4.39116 21.8044 4 21.5627 4 21.191V10C4 5.58172 7.58172 2 12 2V2C16.4183 2 20 5.58172 20 10V21.191C20 21.5627 19.6088 21.8044 19.2764 21.6382L16.8944 20.4472C16.3314 20.1657 15.6686 20.1657 15.1056 20.4472L12.8944 21.5528C12.3314 21.8343 11.6686 21.8343 11.1056 21.5528L8.89443 20.4472C8.33137 20.1657 7.66863 20.1657 7.10557 20.4472ZM12 17.5V17.5C12.8284 17.5 13.5 16.8284 13.5 16V16C13.5 15.1716 12.8284 14.5 12 14.5V14.5C11.1716 14.5 10.5 15.1716 10.5 16V16C10.5 16.8284 11.1716 17.5 12 17.5Z" stroke="black" stroke-width="2" stroke-linecap="round" stroke-linejoin="round"/>
</svg>
