<svg width="24" height="24" viewBox="0 0 24 24" fill="none" xmlns="http://www.w3.org/2000/svg">
<path d="M18 5H19C20.6569 5 22 6.34315 22 8V8.7375C22 9.22572 21.8061 9.69395 21.4608 10.0392V10.0392C21.1627 10.3373 20.9759 10.7288 20.9318 11.1481L20.1885 18.2094C20.0813 19.2273 19.223 20 18.1995 20H14.4014C13.8024 20 13.4451 19.3324 13.7773 18.834L14.7974 17.3039C14.9314 17.1029 15.0278 16.8794 15.0821 16.6442L16.2173 11.7249C16.3619 11.0982 15.886 10.5 15.2429 10.5H3C2.44772 10.5 2 10.0523 2 9.5V7.75M18 5V4M18 5H5L2.65811 4.21937C2.33435 4.11145 2 4.35243 2 4.69371V7.75M11.5 10.5V11.5C11.5 13.1569 12.8431 14.5 14.5 14.5H15.625M2 7.75H3.5" stroke="black" stroke-width="2" stroke-linecap="round" stroke-linejoin="round"/>
</svg>
