<svg width="24" height="24" viewBox="0 0 24 24" fill="none" xmlns="http://www.w3.org/2000/svg">
<path d="M8.84713 9.18279C8.47132 9.06172 8.07778 9 7.68164 9C5.87997 9 4.34238 10.2589 4.04618 11.9765L3.03812 17.8221C2.83675 18.9898 3.44695 20.148 4.54254 20.6774L4.62085 20.7152C5.69505 21.2343 6.99241 21.0309 7.84164 20.2101L9.32264 18.7787C9.8459 18.273 10.5556 17.9889 11.2956 17.9889H12.7044C13.4444 17.9889 14.1541 18.273 14.6774 18.7787L16.1584 20.2101C17.0076 21.0308 18.305 21.2343 19.3791 20.7152L19.4575 20.6774C20.5531 20.148 21.1633 18.9898 20.9619 17.8221L19.9538 11.9765C19.6576 10.2589 18.12 9 16.3184 9C15.9222 9 15.5287 9.06172 15.1529 9.18279M16.1855 12.5956H16.1762M16.1855 16.1911H16.1762M18.0454 14.3933H18.0361M14.3254 14.3933H14.3161M13.4146 6.58579C13.0527 6.22386 12.5527 6 12.0004 6C11.4481 6 10.9481 6.22386 10.5862 6.58579M15.5359 4.46447C14.6311 3.55964 13.3811 3 12.0004 3C10.6197 3 9.36967 3.55964 8.46484 4.46447M7.75 15.75C6.92157 15.75 6.25 15.0784 6.25 14.25C6.25 13.4216 6.92157 12.75 7.75 12.75C8.57843 12.75 9.25 13.4216 9.25 14.25C9.25 15.0784 8.57843 15.75 7.75 15.75Z" stroke="black" stroke-width="2" stroke-linecap="round" stroke-linejoin="round"/>
</svg>
