<svg width="24" height="24" viewBox="0 0 24 24" fill="none" xmlns="http://www.w3.org/2000/svg">
<path d="M16.5002 9H16.4902M16.5002 13H16.4902M18.5 11H18.49M14.5002 11H14.4902M9 11V11C9 10.1716 8.32843 9.5 7.5 9.5V9.5C6.67157 9.5 6 10.1716 6 11V11C6 11.8284 6.67157 12.5 7.5 12.5V12.5C8.32843 12.5 9 11.8284 9 11ZM3.9818 17.9909L4.066 18.033C5.22097 18.6105 6.61588 18.3841 7.52896 17.471L9.12132 15.8787C9.68393 15.3161 10.447 15 11.2426 15H12.7574C13.553 15 14.3161 15.3161 14.8787 15.8787L16.471 17.471C17.3841 18.3841 18.779 18.6105 19.934 18.033L20.0182 17.9909C21.1962 17.4019 21.8523 16.1135 21.6357 14.8144L20.5519 8.31126C20.2334 6.40048 18.5802 5 16.6431 5V5C16.2171 5 15.794 5.06867 15.3899 5.20335L13.7698 5.74342C13.2599 5.91336 12.726 6 12.1886 6H11.8114C11.274 6 10.7401 5.91336 10.2302 5.74342L8.61006 5.20335C8.206 5.06867 7.78286 5 7.35694 5V5C5.4198 5 3.76659 6.40048 3.44812 8.31126L2.36426 14.8144C2.14775 16.1135 2.80383 17.4019 3.9818 17.9909Z" stroke="black" stroke-width="2" stroke-linecap="round" stroke-linejoin="round"/>
</svg>
