<svg width="24" height="24" viewBox="0 0 24 24" fill="none" xmlns="http://www.w3.org/2000/svg">
<path d="M8.01524 10V11.5001M8.01524 11.5001V13M8.01524 11.5001H9.5M8.01524 11.5001H6.5M16 6.5H8M16 6.5H17.0111C17.9464 6.5 18.8145 6.82596 19.5 7.37731M16 6.5C16 6.22386 16.2239 6 16.5 6H18.5C19.0523 6 19.5 6.44772 19.5 7V7.37731M8 6.5H6.9889C6.05363 6.5 5.18552 6.82596 4.5 7.37731M8 6.5C8.00834 6.22636 7.78877 6 7.515 6H5.50423C4.95626 6 4.51036 6.441 4.5043 6.98894L4.5 7.37731M4.5 7.37731C3.73284 7.99433 3.19436 8.89364 3.04634 9.93431L2.03058 16.5759C1.77352 18.3832 3.1698 20.0001 4.9875 20.0001H5.46483C6.67115 20.0001 7.72266 19.1755 8.01524 18.0001C8.30781 16.8247 9.35932 16.0001 10.5656 16.0001H13.4344C14.6407 16.0001 15.6922 16.8247 15.9848 18.0001C16.2773 19.1755 17.3289 20.0001 18.5352 20.0001H19.0125C20.6865 20.0001 22.0031 18.6287 22 17.0001C21.9997 16.8604 21.9897 16.7187 21.9694 16.5759L20.9537 9.93431C20.8056 8.89364 20.2672 7.99433 19.5 7.37731M16 9.50012H16.01M16 13.5001H16.01M14 11.5001H14.01M18 11.5001H18.01M12 6.5V4" stroke="black" stroke-width="2" stroke-linecap="round" stroke-linejoin="round"/>
</svg>
