<svg width="24" height="24" viewBox="0 0 24 24" fill="none" xmlns="http://www.w3.org/2000/svg">
<path fill-rule="evenodd" clip-rule="evenodd" d="M15 6C15 7.65685 13.6569 9 12 9C10.3431 9 9 7.65685 9 6C9 4.34315 10.3431 3 12 3C13.6569 3 15 4.34315 15 6ZM12.5625 4.5C12.5625 4.18934 12.3107 3.9375 12 3.9375C11.6893 3.9375 11.4375 4.18934 11.4375 4.5V6C11.4375 6.31066 11.6893 6.5625 12 6.5625C12.3107 6.5625 12.5625 6.31066 12.5625 6V4.5ZM12 8.0625C12.3107 8.0625 12.5625 7.81066 12.5625 7.5C12.5625 7.18934 12.3107 6.9375 12 6.9375C11.6893 6.9375 11.4375 7.18934 11.4375 7.5C11.4375 7.81066 11.6893 8.0625 12 8.0625ZM19 9H16.0004C16.4371 8.41859 16.75 7.73888 16.9 7H19C21.2091 7 23 8.79086 23 11V17C23 19.2091 21.2091 21 19 21H5C2.79086 21 1 19.2091 1 17V11C1 8.79086 2.79086 7 5 7H7.10002C7.25 7.73888 7.56292 8.41859 7.99963 9H5C3.89543 9 3 9.89543 3 11V17C3 18.1046 3.89543 19 5 19H19C20.1046 19 21 18.1046 21 17V11C21 9.89543 20.1046 9 19 9ZM15.5 12C15.5 11.4477 15.9477 11 16.5 11H16.51C17.0623 11 17.51 11.4477 17.51 12C17.51 12.5523 17.0623 13 16.51 13H16.5C15.9477 13 15.5 12.5523 15.5 12ZM7.5 11.5C8.05228 11.5 8.5 11.9477 8.5 12.5V13H9C9.55228 13 10 13.4477 10 14C10 14.5523 9.55228 15 9 15H8.5V15.5C8.5 16.0523 8.05228 16.5 7.5 16.5C6.94772 16.5 6.5 16.0523 6.5 15.5V15H6C5.44772 15 5 14.5523 5 14C5 13.4477 5.44772 13 6 13H6.5V12.5C6.5 11.9477 6.94772 11.5 7.5 11.5ZM13.5 14C13.5 13.4477 13.9477 13 14.5 13H14.51C15.0623 13 15.51 13.4477 15.51 14C15.51 14.5523 15.0623 15 14.51 15H14.5C13.9477 15 13.5 14.5523 13.5 14ZM17.5 14C17.5 13.4477 17.9477 13 18.5 13H18.51C19.0623 13 19.51 13.4477 19.51 14C19.51 14.5523 19.0623 15 18.51 15H18.5C17.9477 15 17.5 14.5523 17.5 14ZM15.51 16C15.51 15.4477 15.9577 15 16.51 15H16.52C17.0723 15 17.52 15.4477 17.52 16C17.52 16.5523 17.0723 17 16.52 17H16.51C15.9577 17 15.51 16.5523 15.51 16Z" fill="black"/>
</svg>
