<svg width="24" height="24" viewBox="0 0 24 24" fill="none" xmlns="http://www.w3.org/2000/svg">
<path d="M16.5 10H16.51M16.51 14H16.52M18.5 12H18.51M14.5 12H14.51M18 6H19C20.6569 6 22 7.34315 22 9V15C22 16.6569 20.6569 18 19 18H5C3.34315 18 2 16.6569 2 15V9C2 7.34315 3.34315 6 5 6H6M13.4146 6.58579C13.0527 6.22386 12.5527 6 12.0004 6C11.4481 6 10.9481 6.22386 10.5862 6.58579M15.5359 4.46447C14.6311 3.55964 13.3811 3 12.0004 3C10.6197 3 9.36967 3.55964 8.46484 4.46447M7.5 14V14C8.60457 14 9.5 13.1046 9.5 12V12C9.5 10.8954 8.60457 10 7.5 10V10C6.39543 10 5.5 10.8954 5.5 12V12C5.5 13.1046 6.39543 14 7.5 14Z" stroke="black" stroke-width="2" stroke-linecap="round" stroke-linejoin="round"/>
</svg>
