<svg width="24" height="24" viewBox="0 0 24 24" fill="none" xmlns="http://www.w3.org/2000/svg">
<path d="M7.5 12.5V14M7.5 15.5V14M7.5 14H9M7.5 14H6M16.5 12H16.51M16.51 16H16.52M18.5 14H18.51M14.5 14H14.51M13.4146 6.58579C13.0527 6.22386 12.5527 6 12.0004 6C11.4481 6 10.9481 6.22386 10.5862 6.58579M15.5359 4.46447C14.6311 3.55964 13.3811 3 12.0004 3C10.6197 3 9.36967 3.55964 8.46484 4.46447M7 8H5C3.34315 8 2 9.34315 2 11V17C2 18.6569 3.34315 20 5 20H19C20.6569 20 22 18.6569 22 17V11C22 9.34315 20.6569 8 19 8H17" stroke="black" stroke-width="2" stroke-linecap="round" stroke-linejoin="round"/>
</svg>
