<svg width="24" height="24" viewBox="0 0 24 24" fill="none" xmlns="http://www.w3.org/2000/svg">
<path d="M17.5 6.5L21 3M17.5 6.5L14 10M17.5 6.5L14 3M17.5 6.5L21 10M5.848 14.9022L3.13292 19.5959C2.78576 20.1961 3.15906 21 3.78493 21H9.21507C9.84094 21 10.2142 20.1961 9.86708 19.5959L7.152 14.9022C6.84183 14.3659 6.15817 14.3659 5.848 14.9022ZM17.5 14V14C19.433 14 21 15.567 21 17.5V17.5C21 19.433 19.433 21 17.5 21V21C15.567 21 14 19.433 14 17.5V17.5C14 15.567 15.567 14 17.5 14ZM5 3H8C9.10457 3 10 3.89543 10 5V8C10 9.10457 9.10457 10 8 10H5C3.89543 10 3 9.10457 3 8V5C3 3.89543 3.89543 3 5 3Z" stroke="black" stroke-width="2" stroke-linecap="round" stroke-linejoin="round"/>
</svg>
