<svg width="24" height="24" viewBox="0 0 24 24" fill="none" xmlns="http://www.w3.org/2000/svg">
<path fill-rule="evenodd" clip-rule="evenodd" d="M11.9998 3C10.0666 3 8.5 4.56724 8.5 6.50016C8.5 6.71815 8.52005 6.93235 8.55866 7.14077C8.65927 7.68381 9.18105 8.04247 9.72409 7.94187C10.2671 7.84126 10.6258 7.31947 10.5252 6.77643C10.5087 6.68761 10.5 6.59535 10.5 6.50016C10.5 5.67148 11.1715 5 11.9998 5C12.0951 5 12.1874 5.00875 12.2762 5.02522C12.8192 5.12592 13.3411 4.76733 13.4418 4.2243C13.5425 3.68128 13.1839 3.15944 12.6409 3.05875C12.4323 3.02008 12.218 3 11.9998 3ZM15.4415 5.86038C15.341 5.31732 14.8193 4.95855 14.2762 5.05904C13.7331 5.15954 13.3744 5.68125 13.4749 6.22431C13.4913 6.313 13.5 6.40512 13.5 6.50016C13.5 7.32868 12.8284 8.00032 11.9998 8.00032C11.9048 8.00032 11.8127 7.99161 11.724 7.97519C11.1809 7.87469 10.6592 8.23346 10.5587 8.77652C10.4582 9.31958 10.817 9.8413 11.3601 9.9418C11.5682 9.98032 11.7821 10.0003 11.9998 10.0003C13.9329 10.0003 15.5 8.43324 15.5 6.50016C15.5 6.28246 15.48 6.06853 15.4415 5.86038ZM17.0112 7.5H16.9C16.9656 7.17689 17 6.84247 17 6.5C17 5.9774 16.9198 5.47352 16.7711 5H18.5001C19.581 5 20.4616 5.85738 20.4989 6.92913C21.2572 7.67468 21.7822 8.66604 21.943 9.78802L22.9581 16.4247L22.9596 16.435L22.9596 16.435C22.9865 16.6239 22.9998 16.812 23.0001 16.9982C23.0043 19.1669 21.2525 21.0001 19.0126 21.0001H18.5353C16.867 21.0001 15.4174 19.8601 15.0145 18.2417C14.8322 17.5093 14.1788 17.0001 13.4345 17.0001H10.5658C9.82142 17.0001 9.16806 17.5093 8.98576 18.2417C8.58291 19.8601 7.13324 21.0001 5.46496 21.0001H4.98763C2.55662 21.0001 0.698662 18.8396 1.04068 16.435L1.04215 16.4247L1.04221 16.4247L2.05722 9.78803C2.21836 8.66387 2.74513 7.67084 3.50577 6.9248C3.54555 5.85367 4.42618 5 5.50437 5H7.2289C7.08018 5.47352 7 5.9774 7 6.5C7 6.84247 7.03443 7.17689 7.10002 7.5H6.98904C6.28943 7.5 5.64084 7.74316 5.12687 8.15655C4.55122 8.61953 4.1477 9.2934 4.03651 10.0751L4.03504 10.0855L4.03498 10.0855L3.02009 16.7214C2.85105 17.9295 3.7848 19.0001 4.98763 19.0001H5.46496C6.20932 19.0001 6.86267 18.491 7.04498 17.7586C7.44782 16.1401 8.89749 15.0001 10.5658 15.0001H13.4345C15.1028 15.0001 16.5524 16.1401 16.9553 17.7586C17.1376 18.491 17.7909 19.0001 18.5353 19.0001H19.0126C20.1208 19.0001 21.0022 18.0904 21.0001 17.002C21 16.9102 20.9935 16.8166 20.9802 16.7214L19.9653 10.0855L19.9637 10.0751L19.9638 10.0751C19.8526 9.2934 19.449 8.61953 18.8734 8.15655C18.3594 7.74316 17.7108 7.5 17.0112 7.5ZM15.4901 10.5001C15.4901 9.94783 15.9378 9.50012 16.4901 9.50012H16.5001C17.0524 9.50012 17.5001 9.94783 17.5001 10.5001C17.5001 11.0524 17.0524 11.5001 16.5001 11.5001H16.4901C15.9378 11.5001 15.4901 11.0524 15.4901 10.5001ZM7.51513 10C8.06742 10 8.51513 10.4477 8.51513 11V11.5001H8.9999C9.55218 11.5001 9.9999 11.9478 9.9999 12.5001C9.9999 13.0524 9.55218 13.5001 8.9999 13.5001H8.51513V14C8.51513 14.5523 8.06742 15 7.51513 15C6.96285 15 6.51513 14.5523 6.51513 14V13.5001H5.9999C5.44761 13.5001 4.9999 13.0524 4.9999 12.5001C4.9999 11.9478 5.44761 11.5001 5.9999 11.5001H6.51513V11C6.51513 10.4477 6.96285 10 7.51513 10ZM13.4901 12.5001C13.4901 11.9478 13.9378 11.5001 14.4901 11.5001H14.5001C15.0524 11.5001 15.5001 11.9478 15.5001 12.5001C15.5001 13.0524 15.0524 13.5001 14.5001 13.5001H14.4901C13.9378 13.5001 13.4901 13.0524 13.4901 12.5001ZM17.4901 12.5001C17.4901 11.9478 17.9378 11.5001 18.4901 11.5001H18.5001C19.0524 11.5001 19.5001 11.9478 19.5001 12.5001C19.5001 13.0524 19.0524 13.5001 18.5001 13.5001H18.4901C17.9378 13.5001 17.4901 13.0524 17.4901 12.5001ZM15.4901 14.5001C15.4901 13.9478 15.9378 13.5001 16.4901 13.5001H16.5001C17.0524 13.5001 17.5001 13.9478 17.5001 14.5001C17.5001 15.0524 17.0524 15.5001 16.5001 15.5001H16.4901C15.9378 15.5001 15.4901 15.0524 15.4901 14.5001Z" fill="black"/>
</svg>
