<svg width="24" height="24" viewBox="0 0 24 24" fill="none" xmlns="http://www.w3.org/2000/svg">
<path d="M8.49681 5.20564L10.1711 5.75178C10.698 5.92364 11.2497 6.01125 11.8051 6.01125H12.1949C12.7503 6.01125 13.302 5.92364 13.8289 5.75178L15.5032 5.20564C15.9208 5.06944 16.358 5 16.7982 5C18.8 5 20.5085 6.41624 20.8376 8.34852L21.9576 14.9248M16.6506 9.045H16.6402M18.7171 11.0675H18.7068M2 4L4.49755 5.99804M22 20L19.8891 18.3113M4.49755 5.99804C3.80932 6.5902 3.32257 7.40826 3.16243 8.34852L2.04236 14.9248C1.81861 16.2386 2.49661 17.5414 3.71394 18.1371L3.80095 18.1796C4.9945 18.7636 6.43601 18.5347 7.37959 17.6114L9.02515 16.0011C9.60656 15.4321 10.3951 15.1125 11.2173 15.1125H12.7827C13.6049 15.1125 14.3934 15.4321 14.9748 16.0011L16.6204 17.6114C17.4836 18.456 18.7635 18.7196 19.8891 18.3113M4.49755 5.99804L19.8891 18.3113M8.89978 11.0675C8.89978 11.9053 8.20577 12.5844 7.34967 12.5844C6.49356 12.5844 5.79956 11.9053 5.79956 11.0675C5.79956 10.2298 6.49356 9.55063 7.34967 9.55063C8.20577 9.55063 8.89978 10.2298 8.89978 11.0675Z" stroke="black" stroke-width="2" stroke-linecap="round" stroke-linejoin="round"/>
</svg>
