<svg width="24" height="24" viewBox="0 0 24 24" fill="none" xmlns="http://www.w3.org/2000/svg">
<path fill-rule="evenodd" clip-rule="evenodd" d="M15 6C15 4.34315 13.6569 3 12 3C10.3431 3 9 4.34315 9 6C9 7.65685 10.3431 9 12 9C13.6569 9 15 7.65685 15 6ZM10.4773 4.47725C10.6969 4.25758 11.0531 4.25758 11.2727 4.47725L12 5.2045L12.7273 4.47725C12.9469 4.25758 13.3031 4.25758 13.5227 4.47725C13.7424 4.69692 13.7424 5.05308 13.5227 5.27275L12.7955 6L13.5227 6.72725C13.7424 6.94692 13.7424 7.30308 13.5227 7.52275C13.3031 7.74242 12.9469 7.74242 12.7273 7.52275L12 6.7955L11.2727 7.52275C11.0531 7.74242 10.6969 7.74242 10.4773 7.52275C10.2576 7.30308 10.2576 6.94692 10.4773 6.72725L11.2045 6L10.4773 5.27275C10.2576 5.05308 10.2576 4.69692 10.4773 4.47725ZM19.8508 9.63456C19.605 8.13817 18.3581 7.05022 16.9 7.00166C16.9658 6.678 17.0003 6.34297 17.0003 5.99987C17.0003 5.6578 16.966 5.32375 16.9005 5.00099C19.3579 5.05022 21.4232 6.8677 21.8243 9.31044L22.9444 16.1303C23.2377 17.9161 22.3507 19.6973 20.7385 20.5154L20.6515 20.5595C19.0674 21.3633 17.1554 21.046 15.9081 19.7803L14.2626 18.1104C13.8675 17.7095 13.3349 17.487 12.7827 17.487H11.2173C10.6651 17.487 10.1325 17.7095 9.73742 18.1104L8.09187 19.7803C6.84462 21.046 4.93258 21.3633 3.34845 20.5595L3.26144 20.5154C1.64925 19.6973 0.762279 17.9161 1.05557 16.1303L2.17564 9.31044C2.57686 6.86747 4.64248 5.04987 7.10013 5.00098C7.03469 5.32374 7.00034 5.6578 7.00034 5.99987C7.00034 6.34296 7.0349 6.67798 7.10072 7.00164C5.64229 7.04987 4.395 8.13793 4.1492 9.63456L3.02913 16.4545C2.87492 17.3934 3.34395 18.3145 4.16641 18.7318L4.25342 18.776L3.82083 19.6285L4.25342 18.776C5.05639 19.1834 6.02738 19.0259 6.6673 18.3765L8.31286 16.7066C9.08063 15.9275 10.1251 15.487 11.2173 15.487H12.7827C13.8749 15.487 14.9193 15.9275 15.6871 16.7066L17.3327 18.3765C17.9726 19.0259 18.9436 19.1834 19.7466 18.776L19.8336 18.7318C20.656 18.3145 21.1251 17.3934 20.9708 16.4545L19.8508 9.63456ZM15.6402 10.1948C15.6402 9.6425 16.0879 9.19478 16.6402 9.19478H16.6506C17.2029 9.19478 17.6506 9.6425 17.6506 10.1948C17.6506 10.7471 17.2029 11.1948 16.6506 11.1948H16.6402C16.0879 11.1948 15.6402 10.7471 15.6402 10.1948ZM7.34966 9.71914C7.90194 9.71914 8.34966 10.1669 8.34966 10.7191V11.2922H8.89977C9.45205 11.2922 9.89977 11.7399 9.89977 12.2922C9.89977 12.8445 9.45205 13.2922 8.89977 13.2922H8.34966V13.8653C8.34966 14.4175 7.90194 14.8653 7.34966 14.8653C6.79737 14.8653 6.34966 14.4175 6.34966 13.8653V13.2922H5.79954C5.24726 13.2922 4.79954 12.8445 4.79954 12.2922C4.79954 11.7399 5.24726 11.2922 5.79954 11.2922H6.34966V10.7191C6.34966 10.1669 6.79737 9.71914 7.34966 9.71914ZM13.5734 12.2922C13.5734 11.7399 14.0211 11.2922 14.5734 11.2922H14.5838C15.136 11.2922 15.5838 11.7399 15.5838 12.2922C15.5838 12.8445 15.136 13.2922 14.5838 13.2922H14.5734C14.0211 13.2922 13.5734 12.8445 13.5734 12.2922ZM17.7068 12.2922C17.7068 11.7399 18.1545 11.2922 18.7068 11.2922H18.7171C19.2694 11.2922 19.7171 11.7399 19.7171 12.2922C19.7171 12.8445 19.2694 13.2922 18.7171 13.2922H18.7068C18.1545 13.2922 17.7068 12.8445 17.7068 12.2922ZM15.6402 14.3896C15.6402 13.8373 16.0879 13.3896 16.6402 13.3896H16.6506C17.2029 13.3896 17.6506 13.8373 17.6506 14.3896C17.6506 14.9419 17.2029 15.3896 16.6506 15.3896H16.6402C16.0879 15.3896 15.6402 14.9419 15.6402 14.3896Z" fill="black"/>
</svg>
