<svg width="24" height="24" viewBox="0 0 24 24" fill="none" xmlns="http://www.w3.org/2000/svg">
<path fill-rule="evenodd" clip-rule="evenodd" d="M12 3C13.6569 3 15 4.34315 15 6C15 7.65685 13.6569 9 12 9C10.3431 9 9 7.65685 9 6C9 4.34315 10.3431 3 12 3ZM11.4576 5.42876C11.5379 5.23011 11.6221 5.11333 11.7013 5.04705C11.7706 4.98897 11.8584 4.95015 12.0004 4.95015C12.3089 4.95015 12.5105 5.18563 12.5105 5.4501C12.5105 5.56887 12.4844 5.64164 12.4523 5.69325C12.4183 5.74805 12.3593 5.80815 12.252 5.87189C11.9856 6.03002 11.7379 6.32943 11.7379 6.7263V6.78003C11.7379 7.02856 11.9394 7.23003 12.1879 7.23003C12.4365 7.23003 12.6379 7.02856 12.6379 6.78003L12.6379 6.72624C12.6379 6.72519 12.6379 6.71807 12.6476 6.70327C12.6585 6.68655 12.6794 6.66476 12.7115 6.64575C12.907 6.52966 13.0873 6.37678 13.217 6.16786C13.3486 5.95576 13.4105 5.71408 13.4105 5.4501C13.4105 4.72741 12.844 4.05015 12.0004 4.05015C11.6624 4.05015 11.3662 4.15382 11.1235 4.35698C10.8907 4.55193 10.7349 4.81513 10.6232 5.09145C10.53 5.32187 10.6413 5.58416 10.8717 5.67731C11.1021 5.77045 11.3644 5.65918 11.4576 5.42876ZM12.2252 8.40015C12.4737 8.40015 12.6752 8.19867 12.6752 7.95015C12.6752 7.70162 12.4737 7.50015 12.2252 7.50015C11.9767 7.50015 11.7752 7.70162 11.7752 7.95015C11.7752 8.19867 11.9767 8.40015 12.2252 8.40015ZM17.0112 7.5H16.7712C16.92 7.02648 17.0001 6.5226 17.0001 6C17.0001 5.65753 16.9657 5.32311 16.9001 5H18.5001C19.581 5 20.4616 5.85738 20.4989 6.92913C21.2572 7.67468 21.7822 8.66604 21.943 9.78802L22.9581 16.4247L22.9596 16.435L22.9596 16.435C22.9865 16.6239 22.9998 16.812 23.0001 16.9982C23.0043 19.1669 21.2525 21.0001 19.0126 21.0001H18.5353C16.867 21.0001 15.4174 19.8601 15.0145 18.2417C14.8322 17.5093 14.1788 17.0001 13.4345 17.0001H10.5658C9.82142 17.0001 9.16806 17.5093 8.98576 18.2417C8.58291 19.8601 7.13324 21.0001 5.46496 21.0001H4.98763C2.55662 21.0001 0.698662 18.8396 1.04068 16.435L1.04215 16.4247L1.04221 16.4247L2.05722 9.78803C2.21836 8.66387 2.74513 7.67084 3.50577 6.9248C3.54555 5.85367 4.42618 5 5.50437 5H7.10015C7.03456 5.32311 7.00013 5.65753 7.00013 6C7.00013 6.5226 7.08031 7.02648 7.22903 7.5H6.98904C6.28943 7.5 5.64084 7.74316 5.12687 8.15655C4.55122 8.61953 4.1477 9.2934 4.03651 10.0751L4.03504 10.0855L4.03498 10.0855L3.02009 16.7214C2.85105 17.9295 3.7848 19.0001 4.98763 19.0001H5.46496C6.20932 19.0001 6.86267 18.491 7.04498 17.7586C7.44782 16.1401 8.89749 15.0001 10.5658 15.0001H13.4345C15.1028 15.0001 16.5524 16.1401 16.9553 17.7586C17.1376 18.491 17.7909 19.0001 18.5353 19.0001H19.0126C20.1208 19.0001 21.0022 18.0904 21.0001 17.002C21 16.9102 20.9935 16.8166 20.9802 16.7214L19.9653 10.0855L19.9637 10.0751L19.9638 10.0751C19.8526 9.2934 19.449 8.61953 18.8734 8.15655C18.3594 7.74316 17.7108 7.5 17.0112 7.5ZM15.4901 10.5001C15.4901 9.94783 15.9378 9.50012 16.4901 9.50012H16.5001C17.0524 9.50012 17.5001 9.94783 17.5001 10.5001C17.5001 11.0524 17.0524 11.5001 16.5001 11.5001H16.4901C15.9378 11.5001 15.4901 11.0524 15.4901 10.5001ZM7.51513 10C8.06742 10 8.51513 10.4477 8.51513 11V11.5001H8.9999C9.55218 11.5001 9.9999 11.9478 9.9999 12.5001C9.9999 13.0524 9.55218 13.5001 8.9999 13.5001H8.51513V14C8.51513 14.5523 8.06742 15 7.51513 15C6.96285 15 6.51513 14.5523 6.51513 14V13.5001H5.9999C5.44761 13.5001 4.9999 13.0524 4.9999 12.5001C4.9999 11.9478 5.44761 11.5001 5.9999 11.5001H6.51513V11C6.51513 10.4477 6.96285 10 7.51513 10ZM13.4901 12.5001C13.4901 11.9478 13.9378 11.5001 14.4901 11.5001H14.5001C15.0524 11.5001 15.5001 11.9478 15.5001 12.5001C15.5001 13.0524 15.0524 13.5001 14.5001 13.5001H14.4901C13.9378 13.5001 13.4901 13.0524 13.4901 12.5001ZM17.4901 12.5001C17.4901 11.9478 17.9378 11.5001 18.4901 11.5001H18.5001C19.0524 11.5001 19.5001 11.9478 19.5001 12.5001C19.5001 13.0524 19.0524 13.5001 18.5001 13.5001H18.4901C17.9378 13.5001 17.4901 13.0524 17.4901 12.5001ZM15.4901 14.5001C15.4901 13.9478 15.9378 13.5001 16.4901 13.5001H16.5001C17.0524 13.5001 17.5001 13.9478 17.5001 14.5001C17.5001 15.0524 17.0524 15.5001 16.5001 15.5001H16.4901C15.9378 15.5001 15.4901 15.0524 15.4901 14.5001Z" fill="black"/>
</svg>
