<svg width="24" height="24" viewBox="0 0 24 24" fill="none" xmlns="http://www.w3.org/2000/svg">
<path d="M16.5 11H16.51M16.51 15H16.52M18.5 13H18.51M14.5 13H14.51M12 7V5M7.5 15V15C8.60457 15 9.5 14.1046 9.5 13V13C9.5 11.8954 8.60457 11 7.5 11V11C6.39543 11 5.5 11.8954 5.5 13V13C5.5 14.1046 6.39543 15 7.5 15ZM5 19H19C20.6569 19 22 17.6569 22 16V10C22 8.34315 20.6569 7 19 7H5C3.34315 7 2 8.34315 2 10V16C2 17.6569 3.34315 19 5 19Z" stroke="black" stroke-width="2" stroke-linecap="round" stroke-linejoin="round"/>
</svg>
