<svg width="24" height="24" viewBox="0 0 24 24" fill="none" xmlns="http://www.w3.org/2000/svg">
<path fill-rule="evenodd" clip-rule="evenodd" d="M12 3C13.6569 3 15 4.34315 15 6C15 7.65685 13.6569 9 12 9C10.3431 9 9 7.65685 9 6C9 4.34315 10.3431 3 12 3ZM11.4576 5.42876C11.5379 5.23011 11.6221 5.11333 11.7013 5.04705C11.7706 4.98897 11.8584 4.95015 12.0004 4.95015C12.3089 4.95015 12.5105 5.18563 12.5105 5.4501C12.5105 5.56887 12.4844 5.64164 12.4523 5.69325C12.4183 5.74805 12.3593 5.80815 12.252 5.87189C11.9856 6.03002 11.7379 6.32943 11.7379 6.7263V6.78003C11.7379 7.02856 11.9394 7.23003 12.1879 7.23003C12.4365 7.23003 12.6379 7.02856 12.6379 6.78003L12.6379 6.72624C12.6379 6.72519 12.6379 6.71807 12.6476 6.70327C12.6585 6.68655 12.6794 6.66476 12.7115 6.64575C12.907 6.52966 13.0873 6.37678 13.217 6.16786C13.3486 5.95576 13.4105 5.71408 13.4105 5.4501C13.4105 4.72741 12.844 4.05015 12.0004 4.05015C11.6624 4.05015 11.3662 4.15382 11.1235 4.35698C10.8907 4.55193 10.7349 4.81513 10.6232 5.09145C10.53 5.32187 10.6413 5.58416 10.8717 5.67731C11.1021 5.77045 11.3644 5.65918 11.4576 5.42876ZM12.2252 8.40015C12.4737 8.40015 12.6752 8.19867 12.6752 7.95015C12.6752 7.70162 12.4737 7.50015 12.2252 7.50015C11.9767 7.50015 11.7752 7.70162 11.7752 7.95015C11.7752 8.19867 11.9767 8.40015 12.2252 8.40015ZM19.8508 9.63456C19.605 8.13805 18.3579 7.05005 16.8996 7.00165C16.9654 6.67801 17 6.34302 17 5.99996C17 5.65785 16.9656 5.32377 16.9002 5.00098C19.3577 5.05003 21.4231 6.86758 21.8243 9.31043L22.9444 16.1303C23.2377 17.9161 22.3507 19.6973 20.7385 20.5154L20.6515 20.5595C19.0674 21.3633 17.1554 21.046 15.9081 19.7803L14.2626 18.1104C13.8675 17.7095 13.3349 17.487 12.7827 17.487H11.2173C10.6651 17.487 10.1325 17.7095 9.73742 18.1104L8.09187 19.7803C6.84462 21.046 4.93258 21.3633 3.34845 20.5595L3.26144 20.5154C1.64925 19.6973 0.762279 17.9161 1.05557 16.1303L2.17564 9.31043C2.57684 6.86757 4.6423 5.05002 7.09981 5.00098C7.03436 5.32377 7 5.65785 7 5.99996C7 6.34302 7.03455 6.67801 7.10036 7.00164C5.64209 7.05004 4.39498 8.13805 4.1492 9.63456L3.02913 16.4545C2.87492 17.3934 3.34395 18.3145 4.16641 18.7318L4.25342 18.776L3.82083 19.6285L4.25342 18.776C5.05639 19.1834 6.02738 19.0259 6.6673 18.3765L8.31286 16.7066C9.08063 15.9275 10.1251 15.487 11.2173 15.487H12.7827C13.8749 15.487 14.9193 15.9275 15.6871 16.7066L17.3327 18.3765C17.9726 19.0259 18.9436 19.1834 19.7466 18.776L19.8336 18.7318C20.656 18.3145 21.1251 17.3934 20.9708 16.4545L19.8508 9.63456ZM15.6402 10.1948C15.6402 9.64249 16.0879 9.19478 16.6402 9.19478H16.6506C17.2029 9.19478 17.6506 9.64249 17.6506 10.1948C17.6506 10.7471 17.2029 11.1948 16.6506 11.1948H16.6402C16.0879 11.1948 15.6402 10.7471 15.6402 10.1948ZM4.79954 12.2922C4.79954 10.885 5.92746 9.71913 7.34966 9.71913C8.77185 9.71913 9.89977 10.885 9.89977 12.2922C9.89977 13.6993 8.77185 14.8652 7.34966 14.8652C5.92746 14.8652 4.79954 13.6993 4.79954 12.2922ZM7.34966 11.7191C7.05964 11.7191 6.79954 11.9618 6.79954 12.2922C6.79954 12.6226 7.05964 12.8652 7.34966 12.8652C7.63967 12.8652 7.89977 12.6226 7.89977 12.2922C7.89977 11.9618 7.63967 11.7191 7.34966 11.7191ZM13.5734 12.2922C13.5734 11.7399 14.0211 11.2922 14.5734 11.2922H14.5838C15.136 11.2922 15.5838 11.7399 15.5838 12.2922C15.5838 12.8445 15.136 13.2922 14.5838 13.2922H14.5734C14.0211 13.2922 13.5734 12.8445 13.5734 12.2922ZM17.7068 12.2922C17.7068 11.7399 18.1545 11.2922 18.7068 11.2922H18.7171C19.2694 11.2922 19.7171 11.7399 19.7171 12.2922C19.7171 12.8445 19.2694 13.2922 18.7171 13.2922H18.7068C18.1545 13.2922 17.7068 12.8445 17.7068 12.2922ZM15.6402 14.3896C15.6402 13.8373 16.0879 13.3896 16.6402 13.3896H16.6506C17.2029 13.3896 17.6506 13.8373 17.6506 14.3896C17.6506 14.9419 17.2029 15.3896 16.6506 15.3896H16.6402C16.0879 15.3896 15.6402 14.9419 15.6402 14.3896Z" fill="black"/>
</svg>
