<svg width="24" height="24" viewBox="0 0 24 24" fill="none" xmlns="http://www.w3.org/2000/svg">
<path fill-rule="evenodd" clip-rule="evenodd" d="M11.9998 3C10.0666 3 8.5 4.56724 8.5 6.50016C8.5 6.71815 8.52005 6.93235 8.55866 7.14077C8.65927 7.68381 9.18105 8.04247 9.72409 7.94187C10.2671 7.84126 10.6258 7.31947 10.5252 6.77643C10.5087 6.68761 10.5 6.59535 10.5 6.50016C10.5 5.67148 11.1715 5 11.9998 5C12.0951 5 12.1874 5.00875 12.2762 5.02522C12.8192 5.12592 13.3411 4.76733 13.4418 4.2243C13.5425 3.68128 13.1839 3.15944 12.6409 3.05875C12.4323 3.02008 12.218 3 11.9998 3ZM15.4415 5.86038C15.341 5.31732 14.8193 4.95855 14.2762 5.05904C13.7331 5.15954 13.3744 5.68125 13.4749 6.22431C13.4913 6.313 13.5 6.40512 13.5 6.50016C13.5 7.32868 12.8284 8.00032 11.9998 8.00032C11.9048 8.00032 11.8127 7.99161 11.724 7.97519C11.1809 7.87469 10.6592 8.23346 10.5587 8.77652C10.4582 9.31958 10.817 9.8413 11.3601 9.9418C11.5682 9.98032 11.7821 10.0003 11.9998 10.0003C13.9329 10.0003 15.5 8.43324 15.5 6.50016C15.5 6.28246 15.48 6.06853 15.4415 5.86038ZM19 9H16.3311C16.6777 8.40084 16.9035 7.72308 16.9753 7H19C21.2091 7 23 8.79086 23 11V17C23 19.2091 21.2091 21 19 21H5C2.79086 21 1 19.2091 1 17V11C1 8.79086 2.79086 7 5 7H7.02469C7.09648 7.72308 7.32231 8.40084 7.66891 9H5C3.89543 9 3 9.89543 3 11V17C3 18.1046 3.89543 19 5 19H19C20.1046 19 21 18.1046 21 17V11C21 9.89543 20.1046 9 19 9ZM4.5 14C4.5 12.3431 5.84315 11 7.5 11C9.15685 11 10.5 12.3431 10.5 14C10.5 15.6569 9.15685 17 7.5 17C5.84315 17 4.5 15.6569 4.5 14ZM7.5 13C6.94772 13 6.5 13.4477 6.5 14C6.5 14.5523 6.94772 15 7.5 15C8.05228 15 8.5 14.5523 8.5 14C8.5 13.4477 8.05228 13 7.5 13ZM15.5 12C15.5 11.4477 15.9477 11 16.5 11H16.51C17.0623 11 17.51 11.4477 17.51 12C17.51 12.5523 17.0623 13 16.51 13H16.5C15.9477 13 15.5 12.5523 15.5 12ZM13.5 14C13.5 13.4477 13.9477 13 14.5 13H14.51C15.0623 13 15.51 13.4477 15.51 14C15.51 14.5523 15.0623 15 14.51 15H14.5C13.9477 15 13.5 14.5523 13.5 14ZM17.5 14C17.5 13.4477 17.9477 13 18.5 13H18.51C19.0623 13 19.51 13.4477 19.51 14C19.51 14.5523 19.0623 15 18.51 15H18.5C17.9477 15 17.5 14.5523 17.5 14ZM15.51 16C15.51 15.4477 15.9577 15 16.51 15H16.52C17.0723 15 17.52 15.4477 17.52 16C17.52 16.5523 17.0723 17 16.52 17H16.51C15.9577 17 15.51 16.5523 15.51 16Z" fill="black"/>
</svg>
