<svg width="24" height="24" viewBox="0 0 24 24" fill="none" xmlns="http://www.w3.org/2000/svg">
<path fill-rule="evenodd" clip-rule="evenodd" d="M12 3C13.6569 3 15 4.34315 15 6C15 7.65685 13.6569 9 12 9C10.3431 9 9 7.65685 9 6C9 4.34315 10.3431 3 12 3ZM13.5227 5.03975C13.7424 5.25942 13.7424 5.61558 13.5227 5.83525L12.0227 7.33525C11.8031 7.55492 11.4469 7.55492 11.2273 7.33525L10.4773 6.58525C10.2576 6.36558 10.2576 6.00942 10.4773 5.78975C10.6969 5.57008 11.0531 5.57008 11.2727 5.78975L11.625 6.142L12.7273 5.03975C12.9469 4.82008 13.3031 4.82008 13.5227 5.03975ZM19 9H16.0004C16.4371 8.41859 16.75 7.73888 16.9 7H19C21.2091 7 23 8.79086 23 11V17C23 19.2091 21.2091 21 19 21H5C2.79086 21 1 19.2091 1 17V11C1 8.79086 2.79086 7 5 7H7.10002C7.25 7.73888 7.56292 8.41859 7.99963 9H5C3.89543 9 3 9.89543 3 11V17C3 18.1046 3.89543 19 5 19H19C20.1046 19 21 18.1046 21 17V11C21 9.89543 20.1046 9 19 9ZM4.5 14C4.5 12.3431 5.84315 11 7.5 11C9.15685 11 10.5 12.3431 10.5 14C10.5 15.6569 9.15685 17 7.5 17C5.84315 17 4.5 15.6569 4.5 14ZM7.5 13C6.94772 13 6.5 13.4477 6.5 14C6.5 14.5523 6.94772 15 7.5 15C8.05228 15 8.5 14.5523 8.5 14C8.5 13.4477 8.05228 13 7.5 13ZM15.5 12C15.5 11.4477 15.9477 11 16.5 11H16.51C17.0623 11 17.51 11.4477 17.51 12C17.51 12.5523 17.0623 13 16.51 13H16.5C15.9477 13 15.5 12.5523 15.5 12ZM13.5 14C13.5 13.4477 13.9477 13 14.5 13H14.51C15.0623 13 15.51 13.4477 15.51 14C15.51 14.5523 15.0623 15 14.51 15H14.5C13.9477 15 13.5 14.5523 13.5 14ZM17.5 14C17.5 13.4477 17.9477 13 18.5 13H18.51C19.0623 13 19.51 13.4477 19.51 14C19.51 14.5523 19.0623 15 18.51 15H18.5C17.9477 15 17.5 14.5523 17.5 14ZM15.51 16C15.51 15.4477 15.9577 15 16.51 15H16.52C17.0723 15 17.52 15.4477 17.52 16C17.52 16.5523 17.0723 17 16.52 17H16.51C15.9577 17 15.51 16.5523 15.51 16Z" fill="black"/>
</svg>
