<svg width="24" height="24" viewBox="0 0 24 24" fill="none" xmlns="http://www.w3.org/2000/svg">
<path d="M9.5 6H19C20.6569 6 22 7.34315 22 9V15M16.5 10H16.51M16.51 14H16.52M18.5 12H18.51M14.5 12H14.51M2 4L4.5432 6.03456M4.5432 6.03456L19.4568 17.9654M4.5432 6.03456C3.10314 6.25456 2 7.49845 2 9V15C2 16.6569 3.34315 18 5 18H19C19.1553 18 19.3079 17.9882 19.4568 17.9654M19.4568 17.9654L22 20M7.5 14C6.39543 14 5.5 13.1046 5.5 12C5.5 10.8954 6.39543 10 7.5 10C8.60457 10 9.5 10.8954 9.5 12C9.5 13.1046 8.60457 14 7.5 14Z" stroke="black" stroke-width="2" stroke-linecap="round" stroke-linejoin="round"/>
</svg>
