<svg width="24" height="24" viewBox="0 0 24 24" fill="none" xmlns="http://www.w3.org/2000/svg">
<path d="M8.49681 5.21326L10.1711 5.77962C10.698 5.95785 11.2497 6.0487 11.8051 6.0487H12.1949C12.7503 6.0487 13.302 5.95785 13.8289 5.77962L15.5032 5.21326C15.9208 5.07201 16.358 5 16.7982 5C18.8 5 20.5085 6.46869 20.8376 8.47254L21.9576 15.2924M7.34967 9.71917V11.2922M7.34967 11.2922V12.8653M7.34967 11.2922H5.79956M7.34967 11.2922H8.89978M16.6506 9.19482H16.6402M18.7171 11.2922H18.7068M2 4L4.51693 6.01782M21.9576 20L20.2584 18.6377M4.51693 6.01782C3.81846 6.63322 3.32407 7.48833 3.16243 8.47254L2.04236 15.2924C1.81861 16.6548 2.49661 18.0059 3.71394 18.6236L3.80095 18.6678C4.9945 19.2734 6.43601 19.036 7.37959 18.0784L9.02515 16.4085C9.60656 15.8185 10.3951 15.487 11.2173 15.487H12.7827C13.6049 15.487 14.3934 15.8185 14.9748 16.4085L16.6204 18.0784C17.564 19.036 19.0055 19.2734 20.1991 18.6678L20.2584 18.6377M4.51693 6.01782L20.2584 18.6377" stroke="black" stroke-width="2" stroke-linecap="round" stroke-linejoin="round"/>
</svg>
