<svg width="24" height="24" viewBox="0 0 24 24" fill="none" xmlns="http://www.w3.org/2000/svg">
<path d="M20.353 18.6824C19.9517 18.8852 19.4971 19.0001 19.0125 19.0001H18.5352C17.3289 19.0001 16.2773 18.1755 15.9848 17.0001C15.6922 15.8247 14.6407 15.0001 13.4344 15.0001H10.5656C9.35932 15.0001 8.30781 15.8247 8.01524 17.0001C7.72266 18.1755 6.67115 19.0001 5.46483 19.0001H4.9875C3.1698 19.0001 1.77352 17.3832 2.03058 15.5759L3.04634 8.93431C3.19436 7.89364 3.73284 6.99433 4.5 6.37731M20.353 18.6824L4.74447 6.19558M20.353 18.6824L22 20M8.01524 9V10.5001M8.01524 10.5001V12M8.01524 10.5001H9.5M8.01524 10.5001H6.5M9.5 5.5H16M16 5.5H17.0111C17.9464 5.5 18.8145 5.82596 19.5 6.37731M16 5.5C16 5.22386 16.2239 5 16.5 5H18.5C19.0523 5 19.5 5.44772 19.5 6V6.37731M4.74447 6.19558C4.66067 6.25305 4.57912 6.31368 4.5 6.37731M4.74447 6.19558L4.50414 6.00331M4.5 6.37731L4.50414 6.00331M4.50414 6.00331L2 4M19.5 6.37731C20.2672 6.99433 20.8056 7.89364 20.9537 8.93431L21.8814 15.0001M16 8.50012H16.01M18 10.5001H18.01" stroke="black" stroke-width="2" stroke-linecap="round" stroke-linejoin="round"/>
</svg>
