<svg width="24" height="24" viewBox="0 0 24 24" fill="none" xmlns="http://www.w3.org/2000/svg">
<path d="M8.01524 9V10.5001M8.01524 10.5001V12M8.01524 10.5001H9.5M8.01524 10.5001H6.5M16 5.5H8M16 5.5H17.0111C17.9464 5.5 18.8145 5.82596 19.5 6.37731M16 5.5C16 5.22386 16.2239 5 16.5 5H18.5C19.0523 5 19.5 5.44772 19.5 6V6.37731M8 5.5H6.9889C6.05363 5.5 5.18552 5.82596 4.5 6.37731M8 5.5C8.00834 5.22636 7.78877 5 7.515 5H5.50423C4.95626 5 4.51036 5.441 4.5043 5.98894L4.5 6.37731M4.5 6.37731C3.73284 6.99433 3.19436 7.89364 3.04634 8.93431L2.03058 15.5759C1.77352 17.3832 3.1698 19.0001 4.9875 19.0001H5.46483C6.67115 19.0001 7.72266 18.1755 8.01524 17.0001C8.30781 15.8247 9.35932 15.0001 10.5656 15.0001H13.4344C14.6407 15.0001 15.6922 15.8247 15.9848 17.0001C16.2773 18.1755 17.3289 19.0001 18.5352 19.0001H19.0125C20.6865 19.0001 22.0031 17.6287 22 16.0001C21.9997 15.8604 21.9897 15.7187 21.9694 15.5759L20.9537 8.93431C20.8056 7.89364 20.2672 6.99433 19.5 6.37731M16 8.50012H16.01M16 12.5001H16.01M14 10.5001H14.01M18 10.5001H18.01" stroke="black" stroke-width="2" stroke-linecap="round" stroke-linejoin="round"/>
</svg>
