<svg width="24" height="24" viewBox="0 0 24 24" fill="none" xmlns="http://www.w3.org/2000/svg">
<path fill-rule="evenodd" clip-rule="evenodd" d="M11.9998 3C10.0666 3 8.5 4.56724 8.5 6.50016C8.5 6.71815 8.52005 6.93235 8.55866 7.14077C8.65927 7.68381 9.18105 8.04247 9.72409 7.94187C10.2671 7.84126 10.6258 7.31947 10.5252 6.77643C10.5087 6.68761 10.5 6.59535 10.5 6.50016C10.5 5.67148 11.1715 5 11.9998 5C12.0951 5 12.1874 5.00875 12.2762 5.02522C12.8192 5.12592 13.3411 4.76733 13.4418 4.2243C13.5425 3.68128 13.1839 3.15944 12.6409 3.05875C12.4323 3.02008 12.218 3 11.9998 3ZM15.4415 5.86038C15.341 5.31732 14.8193 4.95855 14.2762 5.05904C13.7331 5.15954 13.3744 5.68125 13.4749 6.22431C13.4913 6.313 13.5 6.40512 13.5 6.50016C13.5 7.32868 12.8284 8.00032 11.9998 8.00032C11.9048 8.00032 11.8127 7.99161 11.724 7.97519C11.1809 7.87469 10.6592 8.23346 10.5587 8.77652C10.4582 9.31958 10.817 9.8413 11.3601 9.9418C11.5682 9.98032 11.7821 10.0003 11.9998 10.0003C13.9329 10.0003 15.5 8.43324 15.5 6.50016C15.5 6.28246 15.48 6.06853 15.4415 5.86038ZM9.41195 10.7789C9.02392 10.5437 8.67044 10.2573 8.36092 9.92888C8.05179 9.7941 7.71018 9.71917 7.34966 9.71917C5.92746 9.71917 4.79954 10.8851 4.79954 12.2922C4.79954 13.6994 5.92746 14.8653 7.34966 14.8653C8.77185 14.8653 9.89977 13.6994 9.89977 12.2922C9.89977 11.7295 9.71939 11.2054 9.41195 10.7789ZM16.1117 9.34573C15.9843 9.52955 15.8448 9.70441 15.6944 9.86918C15.6593 9.97126 15.6402 10.0808 15.6402 10.1948C15.6402 10.7471 16.0879 11.1948 16.6402 11.1948H16.6506C17.2029 11.1948 17.6506 10.7471 17.6506 10.1948C17.6506 9.64253 17.2029 9.19482 16.6506 9.19482H16.6402C16.4462 9.19482 16.2651 9.25008 16.1117 9.34573ZM17 6.5C17 6.6705 16.9915 6.839 16.9748 7.00511C18.4006 7.0877 19.6092 8.16387 19.8508 9.6346L20.9708 16.4545C21.1251 17.3935 20.656 18.3145 19.8336 18.7318L19.7466 18.776C18.9436 19.1834 17.9726 19.0259 17.3327 18.3765L15.6871 16.7066C14.9193 15.9275 13.8749 15.487 12.7827 15.487H11.2173C10.1251 15.487 9.08063 15.9275 8.31286 16.7066L6.6673 18.3765C6.02738 19.0259 5.05639 19.1834 4.25342 18.776L3.82083 19.6285L4.25342 18.776L4.16641 18.7318C3.34395 18.3145 2.87492 17.3935 3.02913 16.4545L4.1492 9.6346C4.39074 8.16386 5.59942 7.08768 7.0252 7.00511C7.00853 6.839 7 6.6705 7 6.5C7 5.97742 7.08017 5.47357 7.22888 5.00007L7.20181 5C4.69964 5 2.58238 6.83388 2.17564 9.31047L1.05557 16.1304C0.762279 17.9161 1.64925 19.6974 3.26144 20.5154L3.34845 20.5595C4.93258 21.3633 6.84462 21.046 8.09187 19.7803L9.73742 18.1104C10.1325 17.7095 10.6651 17.487 11.2173 17.487H12.7827C13.3349 17.487 13.8675 17.7095 14.2626 18.1104L15.9081 19.7803C17.1554 21.046 19.0674 21.3633 20.6515 20.5595L20.7385 20.5154C22.3507 19.6974 23.2377 17.9161 22.9444 16.1304L21.8243 9.31047C21.4176 6.83389 19.3003 5 16.7982 5L16.7711 5.00007C16.9198 5.47357 17 5.97742 17 6.5ZM7.34966 11.7192C7.05964 11.7192 6.79954 11.9618 6.79954 12.2922C6.79954 12.6226 7.05964 12.8653 7.34966 12.8653C7.63967 12.8653 7.89977 12.6226 7.89977 12.2922C7.89977 11.9618 7.63967 11.7192 7.34966 11.7192ZM13.5734 12.2922C13.5734 11.7399 14.0211 11.2922 14.5734 11.2922H14.5838C15.136 11.2922 15.5838 11.7399 15.5838 12.2922C15.5838 12.8445 15.136 13.2922 14.5838 13.2922H14.5734C14.0211 13.2922 13.5734 12.8445 13.5734 12.2922ZM17.7068 12.2922C17.7068 11.7399 18.1545 11.2922 18.7068 11.2922H18.7171C19.2694 11.2922 19.7171 11.7399 19.7171 12.2922C19.7171 12.8445 19.2694 13.2922 18.7171 13.2922H18.7068C18.1545 13.2922 17.7068 12.8445 17.7068 12.2922ZM15.6402 14.3896C15.6402 13.8374 16.0879 13.3896 16.6402 13.3896H16.6506C17.2029 13.3896 17.6506 13.8374 17.6506 14.3896C17.6506 14.9419 17.2029 15.3896 16.6506 15.3896H16.6402C16.0879 15.3896 15.6402 14.9419 15.6402 14.3896Z" fill="black"/>
</svg>
