<svg width="24" height="24" viewBox="0 0 24 24" fill="none" xmlns="http://www.w3.org/2000/svg">
<path d="M7.5 10.5V13.5M6 12H9M16.5002 10H16.4902M16.5002 14H16.4902M18.5 12H18.49M14.5002 12H14.4902M12 7V4M3.9818 18.9909L4.066 19.033C5.22097 19.6105 6.61588 19.3841 7.52896 18.471L9.12132 16.8787C9.68393 16.3161 10.447 16 11.2426 16H12.7574C13.553 16 14.3161 16.3161 14.8787 16.8787L16.471 18.471C17.3841 19.3841 18.779 19.6105 19.934 19.033L20.0182 18.9909C21.1962 18.4019 21.8523 17.1135 21.6357 15.8144L20.5519 9.31126C20.2334 7.40048 18.5802 6 16.6431 6V6C16.2171 6 15.794 6.06867 15.3899 6.20335L13.7698 6.74342C13.2599 6.91336 12.726 7 12.1886 7H11.8114C11.274 7 10.7401 6.91336 10.2302 6.74342L8.61006 6.20335C8.206 6.06867 7.78286 6 7.35694 6V6C5.4198 6 3.76659 7.40048 3.44812 9.31126L2.36426 15.8144C2.14775 17.1135 2.80383 18.4019 3.9818 18.9909Z" stroke="black" stroke-width="2" stroke-linecap="round" stroke-linejoin="round"/>
</svg>
