<svg width="24" height="24" viewBox="0 0 24 24" fill="none" xmlns="http://www.w3.org/2000/svg">
<path d="M16.5 10H16.51M16.51 14H16.52M18.5 12H18.51M14.5 12H14.51M7.5 14V14C8.60457 14 9.5 13.1046 9.5 12V12C9.5 10.8954 8.60457 10 7.5 10V10C6.39543 10 5.5 10.8954 5.5 12V12C5.5 13.1046 6.39543 14 7.5 14ZM5 18H19C20.6569 18 22 16.6569 22 15V9C22 7.34315 20.6569 6 19 6H5C3.34315 6 2 7.34315 2 9V15C2 16.6569 3.34315 18 5 18Z" stroke="black" stroke-width="2" stroke-linecap="round" stroke-linejoin="round"/>
</svg>
