<svg width="24" height="24" viewBox="0 0 24 24" fill="none" xmlns="http://www.w3.org/2000/svg">
<path fill-rule="evenodd" clip-rule="evenodd" d="M12 3C13.6569 3 15 4.34315 15 6C15 7.65685 13.6569 9 12 9C10.3431 9 9 7.65685 9 6C9 4.34315 10.3431 3 12 3ZM11.4576 5.42876C11.5379 5.23011 11.6221 5.11333 11.7013 5.04705C11.7706 4.98897 11.8584 4.95015 12.0004 4.95015C12.3089 4.95015 12.5105 5.18563 12.5105 5.4501C12.5105 5.56887 12.4844 5.64164 12.4523 5.69325C12.4183 5.74805 12.3593 5.80815 12.252 5.87189C11.9856 6.03002 11.7379 6.32943 11.7379 6.7263V6.78003C11.7379 7.02856 11.9394 7.23003 12.1879 7.23003C12.4365 7.23003 12.6379 7.02856 12.6379 6.78003L12.6379 6.72624C12.6379 6.72519 12.6379 6.71807 12.6476 6.70327C12.6585 6.68655 12.6794 6.66476 12.7115 6.64575C12.907 6.52966 13.0873 6.37678 13.217 6.16786C13.3486 5.95576 13.4105 5.71408 13.4105 5.4501C13.4105 4.72741 12.844 4.05015 12.0004 4.05015C11.6624 4.05015 11.3662 4.15382 11.1235 4.35698C10.8907 4.55193 10.7349 4.81513 10.6232 5.09145C10.53 5.32187 10.6413 5.58416 10.8717 5.67731C11.1021 5.77045 11.3644 5.65918 11.4576 5.42876ZM12.2252 8.40015C12.4737 8.40015 12.6752 8.19867 12.6752 7.95015C12.6752 7.70162 12.4737 7.50015 12.2252 7.50015C11.9767 7.50015 11.7752 7.70162 11.7752 7.95015C11.7752 8.19867 11.9767 8.40015 12.2252 8.40015ZM19 9H16.0004C16.4371 8.41859 16.75 7.73888 16.9 7H19C21.2091 7 23 8.79086 23 11V17C23 19.2091 21.2091 21 19 21H5C2.79086 21 1 19.2091 1 17V11C1 8.79086 2.79086 7 5 7H7.10002C7.25 7.73888 7.56292 8.41859 7.99963 9H5C3.89543 9 3 9.89543 3 11V17C3 18.1046 3.89543 19 5 19H19C20.1046 19 21 18.1046 21 17V11C21 9.89543 20.1046 9 19 9ZM15.5 12C15.5 11.4477 15.9477 11 16.5 11H16.51C17.0623 11 17.51 11.4477 17.51 12C17.51 12.5523 17.0623 13 16.51 13H16.5C15.9477 13 15.5 12.5523 15.5 12ZM7.5 11.5C8.05228 11.5 8.5 11.9477 8.5 12.5V13H9C9.55228 13 10 13.4477 10 14C10 14.5523 9.55228 15 9 15H8.5V15.5C8.5 16.0523 8.05228 16.5 7.5 16.5C6.94772 16.5 6.5 16.0523 6.5 15.5V15H6C5.44772 15 5 14.5523 5 14C5 13.4477 5.44772 13 6 13H6.5V12.5C6.5 11.9477 6.94772 11.5 7.5 11.5ZM13.5 14C13.5 13.4477 13.9477 13 14.5 13H14.51C15.0623 13 15.51 13.4477 15.51 14C15.51 14.5523 15.0623 15 14.51 15H14.5C13.9477 15 13.5 14.5523 13.5 14ZM17.5 14C17.5 13.4477 17.9477 13 18.5 13H18.51C19.0623 13 19.51 13.4477 19.51 14C19.51 14.5523 19.0623 15 18.51 15H18.5C17.9477 15 17.5 14.5523 17.5 14ZM15.51 16C15.51 15.4477 15.9577 15 16.51 15H16.52C17.0723 15 17.52 15.4477 17.52 16C17.52 16.5523 17.0723 17 16.52 17H16.51C15.9577 17 15.51 16.5523 15.51 16Z" fill="black"/>
</svg>
