<svg width="24" height="24" viewBox="0 0 24 24" fill="none" xmlns="http://www.w3.org/2000/svg">
<path fill-rule="evenodd" clip-rule="evenodd" d="M7 1C6.44772 1 6 1.44772 6 2V20C6 20.3148 6.14819 20.6111 6.4 20.8C8.63849 22.4789 11.3829 23 14 23H18C19.1046 23 20 22.1046 20 21V13V4C20 3.68524 19.8518 3.38885 19.6 3.2C17.3615 1.52113 14.6171 1 12 1H7ZM15 5H18V12H15V5ZM15 21V14H18V21H15ZM13 13V20.9704C11.164 20.8587 9.43825 20.4205 8 19.4802V3.77412C9.57268 4.53897 11.2961 4.8817 13 4.97359V13ZM17.25 6.5C17.25 6.08579 16.9142 5.75 16.5 5.75C16.0858 5.75 15.75 6.08579 15.75 6.5V7.5C15.75 7.91421 16.0858 8.25 16.5 8.25C16.9142 8.25 17.25 7.91421 17.25 7.5V6.5ZM17.25 9.5C17.25 9.08579 16.9142 8.75 16.5 8.75C16.0858 8.75 15.75 9.08579 15.75 9.5V10.5C15.75 10.9142 16.0858 11.25 16.5 11.25C16.9142 11.25 17.25 10.9142 17.25 10.5V9.5Z" fill="black"/>
</svg>
