<svg width="24" height="24" viewBox="0 0 24 24" fill="none" xmlns="http://www.w3.org/2000/svg">
<path d="M7 15.5012V12.4382M7 12.4382V8.93757C7 8.69591 7.22612 8.5 7.50505 8.5H9.5C10.7552 8.5 11.7727 9.38159 11.7727 10.4691C11.7727 11.5566 10.7552 12.4382 9.5 12.4382H7ZM17 15.5039V8.93841C17 8.54861 16.592 8.3534 16.3534 8.62903L15.1061 10.0698M6 21H18C19.6569 21 21 19.6569 21 18V6C21 4.34315 19.6569 3 18 3H6C4.34315 3 3 4.34315 3 6V18C3 19.6569 4.34315 21 6 21Z" stroke="black" stroke-width="2" stroke-linecap="round" stroke-linejoin="round"/>
</svg>
