<svg width="24" height="24" viewBox="0 0 24 24" fill="none" xmlns="http://www.w3.org/2000/svg">
<path fill-rule="evenodd" clip-rule="evenodd" d="M11 1C10.826 1 10.655 1.04542 10.5039 1.13176L4.51158 4.55592C3.57686 5.09004 3 6.08407 3 7.16065V18.4914C3 19.8308 3.88793 21.008 5.17584 21.376L10.7253 22.9615C10.8146 22.9871 10.9071 23 11 23H15C16.1046 23 17 22.1046 17 21H19C20.1046 21 21 20.1046 21 19V6C21 4.89543 20.1046 4 19 4H17V3C17 1.89543 16.1046 1 15 1H11ZM19 19H17V6H19V19ZM10 20.6743V3.72318L5.50386 6.2924C5.19229 6.47044 5 6.80179 5 7.16065V18.4914C5 18.9379 5.29598 19.3303 5.72528 19.4529L10 20.6743ZM15 20V21H12V3H15V5V20ZM13.5 3.75C13.0858 3.75 12.75 4.08579 12.75 4.5C12.75 4.91421 13.0858 5.25 13.5 5.25H13.51C13.9242 5.25 14.26 4.91421 14.26 4.5C14.26 4.08579 13.9242 3.75 13.51 3.75H13.5ZM14.25 12C14.25 11.5858 13.9142 11.25 13.5 11.25C13.0858 11.25 12.75 11.5858 12.75 12V14C12.75 14.4142 13.0858 14.75 13.5 14.75C13.9142 14.75 14.25 14.4142 14.25 14V12ZM14.25 17C14.25 16.5858 13.9142 16.25 13.5 16.25C13.0858 16.25 12.75 16.5858 12.75 17V19C12.75 19.4142 13.0858 19.75 13.5 19.75C13.9142 19.75 14.25 19.4142 14.25 19V17Z" fill="black"/>
</svg>
