<svg width="24" height="24" viewBox="0 0 24 24" fill="none" xmlns="http://www.w3.org/2000/svg">
<path d="M3 17V12.625M3 12.625V7.625C3 7.27982 3.29848 7 3.66667 7H8C9.65685 7 11 8.2592 11 9.8125C11 11.3658 9.65685 12.625 8 12.625H3ZM15.2952 8.875C15.5997 7.79673 16.6738 7 17.952 7C19.467 7 20.6952 8.11929 20.6952 9.5C20.6952 10.8807 19.467 12 17.952 12C19.6354 12 21 13.1193 21 14.5C21 15.8807 19.6354 17 17.952 17C16.5317 17 15.3384 16.2033 15 15.125" stroke="black" stroke-width="2" stroke-linecap="round" stroke-linejoin="round"/>
</svg>
