<svg width="24" height="24" viewBox="0 0 24 24" fill="none" xmlns="http://www.w3.org/2000/svg">
<path d="M6 15.5012V12.4382M6 12.4382V8.93757C6 8.69591 6.22612 8.5 6.50505 8.5H8.5C9.75519 8.5 10.7727 9.38159 10.7727 10.4691C10.7727 11.5566 9.75519 12.4382 8.5 12.4382H6ZM14.1968 9.8125C14.3998 9.05771 15.1158 8.5 15.968 8.5C16.978 8.5 17.7968 9.2835 17.7968 10.25C17.7968 11.2165 16.978 12 15.968 12C17.0902 12 18 12.7835 18 13.75C18 14.7165 17.0902 15.5 15.968 15.5C15.0212 15.5 14.2256 14.9423 14 14.1875M12 22V22C17.5228 22 22 17.5228 22 12V12C22 6.47715 17.5228 2 12 2V2C6.47715 2 2 6.47715 2 12V12C2 17.5228 6.47715 22 12 22Z" stroke="black" stroke-width="2" stroke-linecap="round" stroke-linejoin="round"/>
</svg>
