<svg width="24" height="24" viewBox="0 0 24 24" fill="none" xmlns="http://www.w3.org/2000/svg">
<path d="M6 15.5012V12.4382M6 12.4382V8.93757C6 8.69591 6.22612 8.5 6.50505 8.5H8.5C9.75519 8.5 10.7727 9.38159 10.7727 10.4691C10.7727 11.5566 9.75519 12.4382 8.5 12.4382H6ZM14.0276 10.6875C13.8293 9.48438 14.7216 8.5 16.0105 8.5C17.2003 8.5 18.085 9.57667 17.9935 10.6875C17.7952 13.0938 14.0276 12.4375 14.0276 15.5H17.9935M6 21H18C19.6569 21 21 19.6569 21 18V6C21 4.34315 19.6569 3 18 3H6C4.34315 3 3 4.34315 3 6V18C3 19.6569 4.34315 21 6 21Z" stroke="black" stroke-width="2" stroke-linecap="round" stroke-linejoin="round"/>
</svg>
