<svg width="24" height="24" viewBox="0 0 24 24" fill="none" xmlns="http://www.w3.org/2000/svg">
<path d="M6.5 15.5012V12.4382M6.5 12.4382V8.93757C6.5 8.69591 6.72612 8.5 7.00505 8.5H9C10.2552 8.5 11.2727 9.38159 11.2727 10.4691C11.2727 11.5566 10.2552 12.4382 9 12.4382H6.5ZM16.6 15.5V13.9688M16.6 13.9688V8.5L13 13.9688H16.6ZM16.6 13.9688H17.5M6 21H18C19.6569 21 21 19.6569 21 18V6C21 4.34315 19.6569 3 18 3H6C4.34315 3 3 4.34315 3 6V18C3 19.6569 4.34315 21 6 21Z" stroke="black" stroke-width="2" stroke-linecap="round" stroke-linejoin="round"/>
</svg>
