<svg width="24" height="24" viewBox="0 0 24 24" fill="none" xmlns="http://www.w3.org/2000/svg">
<path fill-rule="evenodd" clip-rule="evenodd" d="M1 6C1 4.34315 2.34315 3 4 3H8H16H20C21.6569 3 23 4.34315 23 6V18C23 19.6569 21.6569 21 20 21H4C2.34315 21 1 19.6569 1 18V6ZM15 5H9V6.80269C9.88252 6.29218 10.9071 6 12 6C13.0929 6 14.1175 6.29218 15 6.80269V5ZM16.9869 8.66253C16.9955 8.60963 17 8.55534 17 8.5V5H20C20.5523 5 21 5.44772 21 6V18C21 18.5523 20.5523 19 20 19H4C3.44772 19 3 18.5523 3 18V6C3 5.44772 3.44772 5 4 5H7V8.5C7 8.55534 7.0045 8.60963 7.01314 8.66253C6.37326 9.61674 6 10.7648 6 12C6 15.3137 8.68629 18 12 18C15.3137 18 18 15.3137 18 12C18 10.7648 17.6267 9.61674 16.9869 8.66253ZM12 8C9.79086 8 8 9.79086 8 12C8 14.2091 9.79086 16 12 16C14.2091 16 16 14.2091 16 12C16 9.79086 14.2091 8 12 8ZM4 16.75C4 17.4404 4.55964 18 5.25 18C5.94036 18 6.5 17.4404 6.5 16.75C6.5 16.0596 5.94036 15.5 5.25 15.5C4.55964 15.5 4 16.0596 4 16.75ZM18.75 18C18.0596 18 17.5 17.4404 17.5 16.75C17.5 16.0596 18.0596 15.5 18.75 15.5C19.4404 15.5 20 16.0596 20 16.75C20 17.4404 19.4404 18 18.75 18Z" fill="black"/>
</svg>
