<svg width="24" height="24" viewBox="0 0 24 24" fill="none" xmlns="http://www.w3.org/2000/svg">
<path fill-rule="evenodd" clip-rule="evenodd" d="M4.91759 5C4.63056 5 4.43134 5.10708 4.33003 5.23248C3.49772 6.26264 3 7.57184 3 9C3 9.92205 3.2073 10.7929 3.57689 11.5709C3.78071 12 4.03417 12.4013 4.33004 12.7675C4.43134 12.8929 4.63055 13 4.91759 13H5V5H4.91759ZM7 13H17V5H7V13ZM19 13H19.0824C19.3695 13 19.5687 12.8929 19.67 12.7675C19.9658 12.4013 20.2193 12 20.4231 11.5709C20.7927 10.7929 21 9.92205 21 9C21 7.57184 20.5023 6.26264 19.67 5.23248C19.5687 5.10708 19.3694 5 19.0824 5H19V13ZM2.77433 3.97557C3.3309 3.2867 4.15781 3 4.91759 3H6H18H19.0824C19.8422 3 20.6691 3.2867 21.2257 3.97557C22.335 5.34861 23 7.098 23 9C23 10.0593 22.7936 11.0725 22.4182 12C22.7936 12.9275 23 13.9407 23 15C23 16.902 22.335 18.6514 21.2257 20.0244C20.6691 20.7133 19.8422 21 19.0824 21H4.91759C4.1578 21 3.3309 20.7133 2.77433 20.0244C1.66501 18.6514 1 16.902 1 15C1 13.9407 1.20641 12.9275 1.58181 12C1.20641 11.0725 1 10.0593 1 9C1 7.098 1.66501 5.34861 2.77433 3.97557ZM3.03966 14.3056C3.01347 14.5333 3 14.765 3 15C3 16.4282 3.49772 17.7374 4.33003 18.7675C4.43134 18.8929 4.63056 19 4.91759 19H19.0824C19.3694 19 19.5687 18.8929 19.67 18.7675C20.5023 17.7374 21 16.4282 21 15C21 14.765 20.9865 14.5333 20.9603 14.3056C20.4245 14.7923 19.7291 15 19.0824 15H18H6H4.91759C4.27087 15 3.57552 14.7923 3.03966 14.3056ZM9.25 17C9.25 16.5858 9.58579 16.25 10 16.25H10.01C10.4242 16.25 10.76 16.5858 10.76 17C10.76 17.4142 10.4242 17.75 10.01 17.75H10C9.58579 17.75 9.25 17.4142 9.25 17ZM13.25 17C13.25 16.5858 13.5858 16.25 14 16.25H14.01C14.4242 16.25 14.76 16.5858 14.76 17C14.76 17.4142 14.4242 17.75 14.01 17.75H14C13.5858 17.75 13.25 17.4142 13.25 17ZM6.5 18.5C7.32843 18.5 8 17.8284 8 17C8 16.1716 7.32843 15.5 6.5 15.5C5.67157 15.5 5 16.1716 5 17C5 17.8284 5.67157 18.5 6.5 18.5ZM17.5 18.5C18.3284 18.5 19 17.8284 19 17C19 16.1716 18.3284 15.5 17.5 15.5C16.6716 15.5 16 16.1716 16 17C16 17.8284 16.6716 18.5 17.5 18.5Z" fill="black"/>
</svg>
