<svg width="24" height="24" viewBox="0 0 24 24" fill="none" xmlns="http://www.w3.org/2000/svg">
<path d="M6 9.99982V8C6 6.89543 6.89543 6 8 6H9.99982C9.68597 6.41783 9.5 6.9372 9.5 7.5C9.5 8.88071 10.6193 10 12 10C13.3807 10 14.5 8.88071 14.5 7.5C14.5 6.9372 14.314 6.41783 14.0002 6H16C17.1046 6 18 6.89543 18 8V9.99982C18.4178 9.68597 18.9372 9.5 19.5 9.5C20.8807 9.5 22 10.6193 22 12C22 13.3807 20.8807 14.5 19.5 14.5C18.9372 14.5 18.4178 14.314 18 14.0002V16C18 17.1046 17.1046 18 16 18H14.0002C14.314 17.5822 14.5 17.0628 14.5 16.5C14.5 15.1193 13.3807 14 12 14C10.6193 14 9.5 15.1193 9.5 16.5C9.5 17.0628 9.68597 17.5822 9.99982 18H8C6.89543 18 6 17.1046 6 16V14.0002C5.58217 14.314 5.0628 14.5 4.5 14.5C3.11929 14.5 2 13.3807 2 12C2 10.6193 3.11929 9.5 4.5 9.5C5.0628 9.5 5.58217 9.68597 6 9.99982Z" stroke="black" stroke-width="2" stroke-linecap="round" stroke-linejoin="round"/>
</svg>
