<svg width="24" height="24" viewBox="0 0 24 24" fill="none" xmlns="http://www.w3.org/2000/svg">
<path d="M6 7.99982V6C6 4.89543 6.89543 4 8 4H10.4997C10.1859 4.41783 10 4.9372 10 5.5C10 6.88071 11.119 8 12.4997 8C13.8804 8 14.9997 6.88071 14.9997 5.5C14.9997 4.9372 14.8138 4.41783 14.4999 4H19C20.1046 4 21 4.89543 21 6V8.00002C20.5821 7.68605 20.0627 7.5 19.4997 7.5C18.119 7.5 17 8.61929 17 10C17 11.3807 18.119 12.5 19.4997 12.5C20.0627 12.5 20.5821 12.3139 21 12V14C21 15.1046 20.1046 16 19 16H14.4999C14.8138 16.4178 14.9997 16.9372 14.9997 17.5C14.9997 18.8807 13.8804 20 12.4997 20C11.119 20 10 18.8807 10 17.5C10 16.9372 10.1859 16.4178 10.4997 16H8C6.89543 16 6 15.1046 6 14V12.0002C5.58217 12.314 5.0628 12.5 4.5 12.5C3.11929 12.5 2 11.3807 2 10C2 8.61929 3.11929 7.5 4.5 7.5C5.0628 7.5 5.58217 7.68597 6 7.99982Z" stroke="black" stroke-width="2" stroke-linecap="round" stroke-linejoin="round"/>
</svg>
