<svg width="24" height="24" viewBox="0 0 24 24" fill="none" xmlns="http://www.w3.org/2000/svg">
<path d="M12 3V5.76756C12.2942 5.59739 12.6357 5.5 13 5.5C14.1046 5.5 15 6.39543 15 7.5C15 8.60457 14.1046 9.5 13 9.5C12.6357 9.5 12.2942 9.40261 12 9.23244V12M12 3H6C4.34315 3 3 4.34315 3 6V12M12 3H18C19.6569 3 21 4.34315 21 6V12M12 12V14.7676C11.7058 14.5974 11.3643 14.5 11 14.5C9.89543 14.5 9 15.3954 9 16.5C9 17.6046 9.89543 18.5 11 18.5C11.3643 18.5 11.7058 18.4026 12 18.2324V21M12 12H9.23244C9.40261 11.7058 9.5 11.3643 9.5 11C9.5 9.89543 8.60457 9 7.5 9C6.39543 9 5.5 9.89543 5.5 11C5.5 11.3643 5.59739 11.7058 5.76756 12H3M12 12H14.7676C14.5974 12.2942 14.5 12.6357 14.5 13C14.5 14.1046 15.3954 15 16.5 15C17.6046 15 18.5 14.1046 18.5 13C18.5 12.6357 18.4026 12.2942 18.2324 12H21M12 21H6C4.34315 21 3 19.6569 3 18V12M12 21H18C19.6569 21 21 19.6569 21 18V12" stroke="black" stroke-width="2" stroke-linecap="round" stroke-linejoin="round"/>
</svg>
