<svg width="24" height="24" viewBox="0 0 24 24" fill="none" xmlns="http://www.w3.org/2000/svg">
<path d="M6 22H14C14.5523 22 15 21.5523 15 21V19C15 18.4477 14.5523 18 14 18H9C8.44772 18 8 17.5523 8 17V15C8 14.4477 7.55228 14 7 14H5C4.44772 14 4 14.4477 4 15V20C4 21.1046 4.89543 22 6 22Z" stroke="black" stroke-width="2" stroke-linecap="round" stroke-linejoin="round"/>
<path d="M15 2H13C12.4477 2 12 2.44772 12 3V8C12 9.10457 12.8954 10 14 10H15C15.5523 10 16 10.4477 16 11V13C16 13.5523 16.4477 14 17 14H19C19.5523 14 20 13.5523 20 13V8C20 6.89543 19.1046 6 18 6H17C16.4477 6 16 5.55228 16 5V3C16 2.44772 15.5523 2 15 2Z" stroke="black" stroke-width="2" stroke-linecap="round" stroke-linejoin="round"/>
</svg>
