<svg width="24" height="24" viewBox="0 0 24 24" fill="none" xmlns="http://www.w3.org/2000/svg">
<path d="M4 21H14C14.5523 21 15 20.5523 15 20V18C15 17.4477 14.5523 17 14 17H12C11.4477 17 11 16.5523 11 16V14C11 13.4477 10.5523 13 10 13H8C7.44772 13 7 13.4477 7 14V16C7 16.5523 6.55228 17 6 17H4C3.44772 17 3 17.4477 3 18V20C3 20.5523 3.44772 21 4 21Z" stroke="black" stroke-width="2" stroke-linecap="round" stroke-linejoin="round"/>
<path d="M18 3H20C20.5523 3 21 3.44772 21 4V14C21 14.5523 20.5523 15 20 15H18C17.4477 15 17 14.5523 17 14V12C17 11.4477 16.5523 11 16 11H14C13.4477 11 13 10.5523 13 10V8C13 7.44772 13.4477 7 14 7H16C16.5523 7 17 6.55228 17 6V4C17 3.44772 17.4477 3 18 3Z" stroke="black" stroke-width="2" stroke-linecap="round" stroke-linejoin="round"/>
</svg>
