<svg width="24" height="24" viewBox="0 0 24 24" fill="none" xmlns="http://www.w3.org/2000/svg">
<path d="M3 11C3 9.89543 3.89543 9 5 9H9M3 11V11C3 9.71942 3.50871 8.49129 4.41421 7.58579L6 6M3 11V15M9 9V21M9 9H13C14.1046 9 15 9.89543 15 11V15M9 9L15 3M9 21H13M9 21H5C3.89543 21 3 20.1046 3 19V15M13 21C14.1046 21 15 20.1046 15 19V15M13 21V21C14.2806 21 15.5087 20.4913 16.4142 19.5858L18 18M15 3H10.2426C9.44699 3 8.68393 3.31607 8.12132 3.87868L6 6M15 3H18C19.6569 3 21 4.34315 21 6V9M3 15H15M15 15L21 9M21 9V13.7574C21 14.553 20.6839 15.3161 20.1213 15.8787L18 18M14.5 9.5L20 4M6 6H15C16.6569 6 18 7.34315 18 9V18" stroke="black" stroke-width="2" stroke-linecap="round" stroke-linejoin="round"/>
</svg>
