<svg width="24" height="24" viewBox="0 0 24 24" fill="none" xmlns="http://www.w3.org/2000/svg">
<path d="M7.5 14.5L3.99998 18C3.44771 18.5523 3.44771 19.4477 3.99998 20V20C4.55227 20.5523 5.44771 20.5523 5.99998 19.9999L9.49964 16.5M7.5 14.5L5.5 12.5M7.5 14.5L9.49964 16.5M9.49964 16.5L11.5 18.5M9.49964 11.5L15.8245 5.17514C16.5935 4.40619 17.5569 3.86068 18.6119 3.59693L20.5954 3.10106C20.7785 3.05528 20.9444 3.22113 20.8986 3.40423L20.4027 5.38772C20.139 6.44271 19.5934 7.40619 18.8245 8.17514L12.4996 14.5L9.49964 11.5Z" stroke="black" stroke-width="2" stroke-linecap="round" stroke-linejoin="round"/>
</svg>
