<svg width="24" height="24" viewBox="0 0 24 24" fill="none" xmlns="http://www.w3.org/2000/svg">
<path d="M6 6V6C4.34315 6 3 7.34315 3 9L3 18C3 19.6569 4.34315 21 6 21H18C19.6569 21 21 19.6569 21 18V9C21 7.34315 19.6569 6 18 6V6M6 6L6 4.5C6 3.67157 6.67157 3 7.5 3L8.5 3C9.32843 3 10 3.67157 10 4.5V6M6 6H10M10 6L14 6M18 6V4.5C18 3.67157 17.3284 3 16.5 3H15.5C14.6716 3 14 3.67157 14 4.5V6M18 6H14M16 9V13M18 11H14M10 11H6" stroke="black" stroke-width="2" stroke-linecap="round" stroke-linejoin="round"/>
</svg>
