<svg width="24" height="24" viewBox="0 0 24 24" fill="none" xmlns="http://www.w3.org/2000/svg">
<path fill-rule="evenodd" clip-rule="evenodd" d="M15.5 2C14.1193 2 13 3.11929 13 4.5V5L11 5V4.5C11 3.11929 9.88071 2 8.5 2H7.5C6.11929 2 5 3.11929 5 4.5V5.12602C3.27477 5.57006 2 7.13616 2 9V18C2 20.2091 3.79086 22 6 22H18C20.2091 22 22 20.2091 22 18V9C22 7.13616 20.7252 5.57006 19 5.12602V4.5C19 3.11929 17.8807 2 16.5 2H15.5ZM17 5H15V4.5C15 4.22386 15.2239 4 15.5 4H16.5C16.7761 4 17 4.22386 17 4.5V5ZM9 4.5V5H7V4.5C7 4.22386 7.22386 4 7.5 4H8.5C8.77614 4 9 4.22386 9 4.5ZM10 7H14H18C19.1046 7 20 7.89543 20 9V18C20 19.1046 19.1046 20 18 20H6C4.89543 20 4 19.1046 4 18L4 9C4 7.89543 4.89543 7 6 7H10ZM11.1147 9H13.1815C13.4925 9 13.6948 9.35204 13.5557 9.65125L12.4878 11.9488C12.3487 12.248 12.5509 12.6 12.8619 12.6H14.5808C14.9448 12.6 15.1352 13.0654 14.8892 13.3541L10.93 18L11.7667 14.4H9.41867C9.13312 14.4 8.93149 14.0991 9.02179 13.8077L10.3209 9.6154C10.4348 9.24789 10.7546 9 11.1147 9Z" fill="black"/>
</svg>
