<svg width="24" height="24" viewBox="0 0 24 24" fill="none" xmlns="http://www.w3.org/2000/svg">
<path d="M6 6V6C4.34315 6 3 7.34315 3 9L3 18C3 19.6569 4.34315 21 6 21H18C19.6569 21 21 19.6569 21 18V13.5V9C21 7.34315 19.6569 6 18 6V6M6 6L6 4.5C6 3.67157 6.67157 3 7.5 3L8.5 3C9.32843 3 10 3.67157 10 4.5V6M6 6H10M10 6L14 6M18 6V4.5C18 3.67157 17.3284 3 16.5 3H15.5C14.6716 3 14 3.67157 14 4.5V6M18 6H14M10.6209 15.1068C10.6293 15.115 10.6378 15.1232 10.6463 15.1314C11.8546 16.2895 13.8136 16.2895 15.0219 15.1314C15.9332 14.2579 16.0921 12.9127 15.9587 11.5545C15.8798 10.7512 15.2364 10.1212 14.4329 10.0446C12.9973 9.90792 11.5694 10.0528 10.6463 10.9375C9.44656 12.0874 9.43809 13.9468 10.6209 15.1068ZM10.6209 15.1068C9.19874 15.6701 7.75149 15.1527 7 14.4324M10.6209 15.1068C11.4068 14.7954 12.1851 14.1541 12.8341 13.0345" stroke="black" stroke-width="2" stroke-linecap="round" stroke-linejoin="round"/>
</svg>
