<svg width="24" height="24" viewBox="0 0 24 24" fill="none" xmlns="http://www.w3.org/2000/svg">
<path fill-rule="evenodd" clip-rule="evenodd" d="M9.5 5.5C9.5 4.94772 9.05228 4.5 8.5 4.5C7.94772 4.5 7.5 4.94772 7.5 5.5V8.13507C6.3152 8.30776 5.5 9.38889 5.5 10.5556V11.2778C5.5 13.7983 7.17117 16.0069 9.5 16.5059V18.5C9.5 19.0523 9.94772 19.5 10.5 19.5C11.0523 19.5 11.5 19.0523 11.5 18.5V16.5059C13.8288 16.0069 15.5 13.7983 15.5 11.2778V10.5556C15.5 9.38889 14.6848 8.30776 13.5 8.13507V5.5C13.5 4.94772 13.0523 4.5 12.5 4.5C11.9477 4.5 11.5 4.94772 11.5 5.5V8.11111H9.5V5.5ZM7.5 10.5556C7.5 10.2332 7.7231 10.1111 7.83333 10.1111H8.5H12.5H13.1667C13.2769 10.1111 13.5 10.2332 13.5 10.5556V11.2778C13.5 13.1956 12.083 14.6111 10.5 14.6111C8.917 14.6111 7.5 13.1956 7.5 11.2778V10.5556ZM5 5H6.07523C6.02609 5.20708 6 5.42384 6 5.64706V7H5C3.89543 7 3 7.89543 3 9V15C3 16.1046 3.89543 17 5 17H6.86429C7.21943 17.2542 7.59957 17.4722 8 17.649V18.3529C8 18.5762 8.02609 18.7929 8.07523 19H5C2.79086 19 1 17.2091 1 15V9C1 6.79086 2.79086 5 5 5ZM15 5.64706V7H16C17.1046 7 18 7.89543 18 9V15C18 16.1046 17.1046 17 16 17H14.1357C13.7806 17.2542 13.4004 17.4722 13 17.649V18.3529C13 18.5762 12.9739 18.7929 12.9248 19H16C17.8638 19 19.4299 17.7252 19.874 16H20.5C21.8807 16 23 14.8807 23 13.5V10.5C23 9.11929 21.8807 8 20.5 8H19.874C19.4299 6.27477 17.8638 5 16 5H14.9248C14.9739 5.20708 15 5.42384 15 5.64706ZM20 14H20.5C20.7761 14 21 13.7761 21 13.5V10.5C21 10.2239 20.7761 10 20.5 10H20V14Z" fill="black"/>
</svg>
