<svg width="24" height="24" viewBox="0 0 24 24" fill="none" xmlns="http://www.w3.org/2000/svg">
<path fill-rule="evenodd" clip-rule="evenodd" d="M5 7H7.07233L9.09274 5H5C2.79086 5 1 6.79086 1 9V15C1 17.2091 2.79086 19 5 19H5.36705C5.07398 18.4205 4.94106 17.7404 5.04074 17H5C3.89543 17 3 16.1046 3 15V9C3 7.89543 3.89543 7 5 7ZM16 7H15.9596C16.0593 6.25961 15.9265 5.57949 15.6336 5H16C17.8638 5 19.4299 6.27477 19.874 8H20.5C21.8807 8 23 9.11929 23 10.5V13.5C23 14.8807 21.8807 16 20.5 16H19.874C19.4299 17.7252 17.8638 19 16 19H11.9071L13.9275 17H16C17.1046 17 18 16.1046 18 15V9C18 7.89543 17.1046 7 16 7ZM20 14H20.5C20.7761 14 21 13.7761 21 13.5V10.5C21 10.2239 20.7761 10 20.5 10H20V14ZM7.93165 11.7778L11.6113 8.13531L11.0944 10.3866C10.8787 11.3261 11.5924 12.2222 12.5564 12.2222H13.0683L9.38872 15.8647L9.90559 13.6134C10.1213 12.6739 9.40756 11.7778 8.44362 11.7778H7.93165ZM13.9462 6.90331C14.2823 5.43922 12.4965 4.44483 11.429 5.50163L5.66056 11.2117C4.70822 12.1545 5.37579 13.7778 6.71583 13.7778H7.81582L7.05382 17.0967C6.71768 18.5608 8.50347 19.5552 9.57105 18.4984L15.3394 12.7883C16.2918 11.8455 15.6242 10.2222 14.2842 10.2222H13.1842L13.9462 6.90331Z" fill="black"/>
</svg>
