<svg width="24" height="24" viewBox="0 0 24 24" fill="none" xmlns="http://www.w3.org/2000/svg">
<path fill-rule="evenodd" clip-rule="evenodd" d="M3 9C3 7.89543 3.89543 7 5 7H16C17.1046 7 18 7.89543 18 9V15C18 16.1046 17.1046 17 16 17H5C3.89543 17 3 16.1046 3 15V9ZM5 5C2.79086 5 1 6.79086 1 9V15C1 17.2091 2.79086 19 5 19H16C17.8638 19 19.4299 17.7252 19.874 16H20.5C21.8807 16 23 14.8807 23 13.5V10.5C23 9.11929 21.8807 8 20.5 8H19.874C19.4299 6.27477 17.8638 5 16 5H5ZM20.5 14H20V10H20.5C20.7761 10 21 10.2239 21 10.5V13.5C21 13.7761 20.7761 14 20.5 14ZM10 9H6C5.44772 9 5 9.44772 5 10V14C5 14.5523 5.44772 15 6 15H10C10.5523 15 11 14.5523 11 14V10C11 9.44772 10.5523 9 10 9Z" fill="black"/>
</svg>
