<svg width="24" height="24" viewBox="0 0 24 24" fill="none" xmlns="http://www.w3.org/2000/svg">
<path d="M19 9V9C19 7.34315 17.6569 6 16 6H5C3.34315 6 2 7.34315 2 9V15C2 16.6569 3.34315 18 5 18H16C17.6569 18 19 16.6569 19 15V15M19 9H20.5C21.3284 9 22 9.67157 22 10.5V13.5C22 14.3284 21.3284 15 20.5 15H19M19 9V15" stroke="black" stroke-width="2" stroke-linecap="round" stroke-linejoin="round"/>
<path fill-rule="evenodd" clip-rule="evenodd" d="M11.8378 9.205L14.4012 13.3065C15.0256 14.3055 14.3074 15.6015 13.1292 15.6015H8.0024C6.82424 15.6015 6.10598 14.3055 6.7304 13.3065L9.29381 9.205C9.88131 8.265 11.2503 8.265 11.8378 9.205ZM11.3555 11.4148C11.3555 10.9621 11.0016 10.5951 10.565 10.5951C10.1284 10.5951 9.77454 10.9621 9.77454 11.4148C9.77454 11.6807 9.9772 12.022 10.2039 12.4038C10.3267 12.6106 10.4565 12.8293 10.565 13.0543C10.6735 12.8293 10.8033 12.6106 10.9262 12.4038C11.1528 12.022 11.3555 11.6807 11.3555 11.4148ZM10.9602 13.8741C10.9602 14.1004 10.7833 14.2839 10.565 14.2839C10.3467 14.2839 10.1698 14.1004 10.1698 13.8741C10.1698 13.6477 10.3467 13.4642 10.565 13.4642C10.7833 13.4642 10.9602 13.6477 10.9602 13.8741Z" fill="black"/>
</svg>
