<svg width="24" height="24" viewBox="0 0 24 24" fill="none" xmlns="http://www.w3.org/2000/svg">
<path d="M12.0004 11V6.64228M12.0004 11H14.0482C14.3243 11 14.5482 11.2239 14.5482 11.5V13.6437C14.5482 14.3122 14.7157 14.97 15.0354 15.557L17.1948 19.5217C17.5578 20.188 17.0754 21 16.3166 21H7.68336C6.92458 21 6.44224 20.188 6.80517 19.5217L8.96458 15.557C9.28431 14.97 9.45182 14.3122 9.45182 13.6437V11.5C9.45182 11.2239 9.67568 11 9.95182 11H12.0004ZM12.0004 6.64228C12.5446 3.11836 9.3819 2.96975 7.24641 3.0034C6.69419 3.0121 6.24253 3.47151 6.35262 4.01271C6.67668 5.60589 7.9004 7.8867 12.0004 6.64228ZM12.0004 7.41833C12.0004 5.00384 14.3208 4.46736 16.2543 4.34817C17.0811 4.29719 17.7043 5.00729 17.2937 5.72679C16.516 7.08944 14.7516 8.53168 12.0004 7.41833Z" stroke="black" stroke-width="2" stroke-linecap="round" stroke-linejoin="round"/>
</svg>
