<svg width="24" height="24" viewBox="0 0 24 24" fill="none" xmlns="http://www.w3.org/2000/svg">
<g clip-path="url(#clip0_6219_1213)">
<path fill-rule="evenodd" clip-rule="evenodd" d="M10.2 3.17862C13.3053 2.54456 16.5696 3.60055 18.7102 5.99962H18.4999C17.9476 5.99962 17.4999 6.44733 17.4999 6.99962C17.4999 7.5519 17.9476 7.99962 18.4999 7.99962H20.6599C21.0625 7.99962 21.4259 7.75811 21.5818 7.38687L22.4219 5.38691C22.6357 4.87771 22.3963 4.29155 21.8872 4.07768C21.378 3.86381 20.7918 4.10321 20.5779 4.61241L20.4395 4.94205C17.83 1.81391 13.7104 0.420591 9.79985 1.21904C9.25873 1.32953 8.90963 1.85776 9.02011 2.39888C9.1306 2.94 9.65883 3.2891 10.2 3.17862ZM5.38706 1.57764C4.87785 1.36382 4.29171 1.60328 4.07789 2.11249C3.86406 2.6217 4.10352 3.20784 4.61274 3.42167L4.94191 3.55989C1.81377 6.16944 0.42052 10.2891 1.21912 14.1997C1.32962 14.7409 1.85786 15.0899 2.39898 14.9794C2.9401 14.8689 3.28918 14.3407 3.17867 13.7996C2.54447 10.694 3.60055 7.42951 5.99987 5.28879L5.9999 5.49979C5.99997 6.05207 6.44775 6.49973 7.00003 6.49966C7.55232 6.49958 7.99997 6.05181 7.9999 5.49952L7.99962 3.33923C7.99956 2.93658 7.75803 2.57324 7.38678 2.41735L5.38706 1.57764ZM22.7801 9.79958C22.6696 9.25846 22.1414 8.90938 21.6003 9.01988C21.0592 9.13037 20.7101 9.65861 20.8206 10.1997C21.4547 13.3051 20.3988 16.5693 17.9999 18.71L17.9999 18.4998C18 17.9475 17.5523 17.4997 17 17.4997C16.4477 17.4996 16 17.9472 15.9999 18.4995L15.9996 20.6597C15.9996 21.0625 16.2411 21.426 16.6125 21.5819L18.6128 22.4217C19.122 22.6355 19.7081 22.396 19.9219 21.8868C20.1357 21.3775 19.8962 20.7914 19.387 20.5776L19.0574 20.4393C22.1855 17.8297 23.5787 13.7101 22.7801 9.79958ZM3.33938 15.9996C2.93662 15.9996 2.57316 16.2412 2.41729 16.6126L1.57783 18.6126C1.36408 19.1219 1.60364 19.708 2.11288 19.9217C2.62213 20.1355 3.20823 19.8959 3.42197 19.3867L3.5601 19.0576C6.16972 22.1856 10.2894 23.5788 14.2 22.7801C14.7411 22.6695 15.0902 22.1413 14.9797 21.6002C14.8692 21.0591 14.3409 20.71 13.7998 20.8205C10.6943 21.4548 7.42983 20.3988 5.28905 17.9997L5.49988 17.9997C6.05217 17.9997 6.49989 17.552 6.4999 16.9997C6.49991 16.4474 6.0522 15.9997 5.49992 15.9997L3.33938 15.9996ZM12.975 7.20166C12.965 7.18215 12.9547 7.16283 12.9441 7.1437C12.6748 6.65712 12.2539 6.37071 11.8198 6.21028C11.4007 6.05539 10.9591 6.01307 10.5962 6.00255C10.3745 5.99613 10.1087 6.00279 9.914 6.00767H9.91399C9.82335 6.00994 9.74812 6.01182 9.6999 6.01182C9.3133 6.01182 8.9999 6.31031 8.9999 6.67851C8.9999 7.08777 9.07903 8.01554 9.58286 8.74045C9.84898 9.12336 10.2494 9.4705 10.8245 9.6231C11.1275 9.70349 11.4531 9.72301 11.7999 9.68333V10.7404H11.1662C10.5218 10.7404 9.99951 11.2379 9.99951 11.8516V15.6187C9.99951 16.9338 11.1189 17.9999 12.4997 17.9999C13.8805 17.9999 14.9999 16.9338 14.9999 15.6187V11.8516C14.9999 11.2379 14.4776 10.7404 13.8332 10.7404H13.1999V10.1769C13.4295 10.1976 13.6543 10.1852 13.8724 10.1404C14.3978 10.0325 14.8104 9.75232 15.1149 9.43715C15.4179 9.12368 15.6341 8.75621 15.7752 8.41903C15.913 8.0897 15.9999 7.73916 15.9999 7.445C15.9999 7.0768 15.6865 6.77832 15.2999 6.77832L15.2637 6.77831C14.8127 6.77808 13.9957 6.77769 13.2822 7.05894C13.1791 7.09957 13.0761 7.1468 12.975 7.20166Z" fill="black"/>
</g>
<defs>
<clipPath id="clip0_6219_1213">
<rect width="24" height="24" fill="white"/>
</clipPath>
</defs>
</svg>
