<svg width="24" height="24" viewBox="0 0 24 24" fill="none" xmlns="http://www.w3.org/2000/svg">
<path d="M12 11V6.64228M12 11H14.7143C14.9904 11 15.2143 11.2239 15.2143 11.5V18C15.2143 19.6569 13.8711 21 12.2143 21H11.785C10.1282 21 8.78502 19.6569 8.78502 18V11.5C8.78502 11.2239 9.00887 11 9.28502 11H12ZM12 6.64228C12.462 3.20024 9.85024 2.97848 7.99905 3.00139C7.4468 3.00822 6.99548 3.47063 7.09179 4.01445C7.3739 5.60755 8.43797 7.88625 12 6.64228ZM12 7.41833C12 5.09687 13.8642 4.51149 15.5014 4.36389C16.3265 4.2895 16.9626 5.00455 16.5913 5.74509C15.9108 7.10231 14.3803 8.52669 12 7.41833Z" stroke="black" stroke-width="2" stroke-linecap="round" stroke-linejoin="round"/>
</svg>
