<svg width="24" height="24" viewBox="0 0 24 24" fill="none" xmlns="http://www.w3.org/2000/svg">
<g clip-path="url(#clip0_6219_1257)">
<path fill-rule="evenodd" clip-rule="evenodd" d="M10.2 3.17886C13.3053 2.5448 16.5696 3.6008 18.7102 5.99986H18.4999C17.9476 5.99986 17.4999 6.44758 17.4999 6.99986C17.4999 7.55215 17.9476 7.99986 18.4999 7.99986H20.6599C21.0625 7.99986 21.4259 7.75836 21.5818 7.38711L22.4219 5.38715C22.6357 4.87796 22.3963 4.2918 21.8872 4.07793C21.378 3.86405 20.7918 4.10346 20.5779 4.61265L20.4395 4.9423C17.83 1.81416 13.7104 0.420836 9.79985 1.21929C9.25873 1.32977 8.90963 1.85801 9.02011 2.39913C9.1306 2.94025 9.65883 3.28935 10.2 3.17886ZM5.38706 1.57789C4.87785 1.36406 4.29171 1.60352 4.07789 2.11274C3.86406 2.62195 4.10352 3.20809 4.61274 3.42191L4.94191 3.56013C1.81377 6.16969 0.42052 10.2894 1.21912 14.2C1.32962 14.7411 1.85786 15.0902 2.39898 14.9797C2.9401 14.8692 3.28918 14.3409 3.17867 13.7998C2.54447 10.6942 3.60055 7.42976 5.99987 5.28903L5.9999 5.50003C5.99997 6.05232 6.44775 6.49997 7.00003 6.4999C7.55232 6.49983 7.99997 6.05205 7.9999 5.49977L7.99962 3.33948C7.99956 2.93683 7.75803 2.57349 7.38678 2.4176L5.38706 1.57789ZM22.7801 9.79982C22.6696 9.25871 22.1414 8.90962 21.6003 9.02012C21.0592 9.13062 20.7101 9.65886 20.8206 10.2C21.4547 13.3053 20.3988 16.5695 17.9999 18.7102L17.9999 18.5C18 17.9477 17.5523 17.5 17 17.4999C16.4477 17.4998 16 17.9475 15.9999 18.4998L15.9996 20.66C15.9996 21.0628 16.2411 21.4262 16.6125 21.5822L18.6128 22.4219C19.122 22.6357 19.7081 22.3962 19.9219 21.887C20.1357 21.3778 19.8962 20.7917 19.387 20.5779L19.0574 20.4395C22.1855 17.83 23.5787 13.7104 22.7801 9.79982ZM3.33938 15.9999C2.93662 15.9999 2.57316 16.2415 2.41729 16.6128L1.57783 18.6129C1.36408 19.1221 1.60364 19.7082 2.11288 19.922C2.62213 20.1357 3.20823 19.8962 3.42197 19.3869L3.5601 19.0578C6.16972 22.1859 10.2894 23.579 14.2 22.7803C14.7411 22.6698 15.0902 22.1415 14.9797 21.6004C14.8692 21.0593 14.3409 20.7102 13.7998 20.8208C10.6943 21.455 7.42983 20.3991 5.28905 17.9999L5.49988 17.9999C6.05217 17.9999 6.49989 17.5522 6.4999 16.9999C6.49991 16.4476 6.0522 15.9999 5.49992 15.9999L3.33938 15.9999ZM15.4148 14.6862C14.3651 15.7068 13.1461 16.2769 12.0208 15.865C11.825 15.9761 11.6255 16.072 11.4231 16.1534C9.40883 16.9626 7.38064 16.2252 6.30283 15.1773C5.90684 14.7924 5.89791 14.1593 6.28289 13.7633C6.66787 13.3673 7.30098 13.3583 7.69697 13.7433C8.26174 14.2924 9.35747 14.7099 10.4526 14.3768C9.9092 13.1733 10.3724 11.7262 11.6388 10.495C12.3536 9.80013 13.1268 9.54271 14.0279 9.24275L14.0279 9.24275L14.0279 9.24274C14.6703 9.02889 15.3776 8.79341 16.175 8.36239C16.4802 8.19738 16.8689 8.35866 16.9161 8.70244C17.2335 11.0152 16.6411 13.494 15.4148 14.6862Z" fill="black"/>
</g>
<defs>
<clipPath id="clip0_6219_1257">
<rect width="24" height="24" fill="white"/>
</clipPath>
</defs>
</svg>
