<svg width="24" height="24" viewBox="0 0 24 24" fill="none" xmlns="http://www.w3.org/2000/svg">
<path fill-rule="evenodd" clip-rule="evenodd" d="M5.1147 3H7.18153C7.49253 3 7.6948 3.35204 7.55572 3.65125L6.48776 5.94875C6.34868 6.24796 6.55095 6.6 6.86194 6.6H8.58083C8.94483 6.6 9.13518 7.06545 8.88921 7.35408L4.92999 12L5.76669 8.4H3.41867C3.13312 8.4 2.93149 8.09909 3.02179 7.8077L4.32094 3.6154C4.43482 3.24789 4.75456 3 5.1147 3ZM10.9846 11.597C11.8505 10.767 13.0289 10.2982 14.441 10.1048C15.8565 9.9109 17.4437 10.0032 19.0413 10.2413C19.4118 10.2965 19.6996 10.5824 19.7577 10.9456C20.2563 14.0598 20.0771 16.8872 18.3518 18.5409C16.6647 20.1579 14.0947 20.4309 12.1096 19.3599C13.3622 18.5344 14.5322 17.2978 15.5334 15.5704C15.8103 15.0926 15.6475 14.4807 15.1697 14.2038C14.6918 13.9268 14.08 14.0896 13.803 14.5675C12.785 16.3239 11.6301 17.3905 10.4931 17.9967C8.99513 16.0721 9.15843 13.3473 10.9846 11.597ZM19.7357 19.9848C17.0665 22.5432 12.8335 22.6656 10.0146 20.3521C6.95288 21.2897 3.94342 20.1543 2.30804 18.5868C1.90933 18.2046 1.89591 17.5716 2.27807 17.1729C2.66023 16.7742 3.29325 16.7608 3.69196 17.1429C4.71868 18.127 6.55287 18.8988 8.5055 18.64C6.83879 15.97 7.20428 12.45 9.60066 10.1531C10.8649 8.94131 12.489 8.35345 14.1696 8.12327C15.8468 7.89355 17.6425 8.01072 19.3361 8.26313C20.5623 8.44587 21.5355 9.39851 21.7326 10.6294C22.2392 13.7937 22.2477 17.5771 19.7357 19.9848Z" fill="black"/>
</svg>
