<svg width="24" height="24" viewBox="0 0 24 24" fill="none" xmlns="http://www.w3.org/2000/svg">
<path fill-rule="evenodd" clip-rule="evenodd" d="M4.1147 2H6.18153C6.49253 2 6.6948 2.35204 6.55572 2.65125L5.48776 4.94875C5.34868 5.24796 5.55095 5.6 5.86194 5.6H7.58083C7.94484 5.6 8.13519 6.06545 7.88922 6.35408L3.92999 11L4.76669 7.4H2.41867C2.13313 7.4 1.93149 7.09909 2.02179 6.8077L3.32094 2.6154C3.43482 2.24789 3.75456 2 4.1147 2ZM17.9135 9.69275C18.3704 9.31879 18.8251 8.90539 19.2663 8.46797C19.213 9.00278 19.1186 9.5599 18.9965 10.1291C18.7922 11.0812 18.5259 12.004 18.2743 12.8756L18.2743 12.8756L18.2743 12.8757C18.1927 13.1582 18.1128 13.4353 18.037 13.7062C17.9669 13.9565 17.9971 14.2243 18.1212 14.4527C18.5412 15.2266 19.2506 15.4821 19.8817 15.511C19.4956 15.8744 19.041 16.1497 18.4408 16.5132C18.1501 16.6892 17.8253 16.8859 17.4576 17.1233C17.0912 17.3599 16.9203 17.8067 17.0355 18.2274C17.2659 19.0694 17.8336 19.6784 18.3889 20.1113C18.4507 20.1595 18.5135 20.2064 18.5769 20.2519C17.2189 20.6444 15.7157 20.9246 14.3119 20.9869C13.1804 21.0372 12.2104 20.9424 11.4454 20.715C12.9138 19.9359 14.5836 18.7444 15.6086 17.0058C15.8891 16.5301 15.7308 15.917 15.255 15.6365C14.7792 15.356 14.1662 15.5143 13.8857 15.9901C12.9147 17.637 11.0784 18.7328 9.59779 19.3896C8.78851 18.2722 8.48844 17.1017 8.47337 15.7502C8.45992 14.5434 8.67181 13.2225 8.97583 11.675C9.05499 11.7692 9.13622 11.8599 9.22025 11.948C9.68515 12.435 10.1965 12.7965 10.8095 13.189C11.077 13.3603 11.4099 13.3944 11.7065 13.2807C12.0032 13.167 12.2281 12.9192 12.3127 12.613C12.6387 11.432 12.9127 10.5297 13.2669 9.76058C13.4076 10.2031 13.6234 10.6388 13.9551 11.0691C14.2165 11.4083 14.665 11.5434 15.0702 11.405C16.0092 11.0844 16.9932 10.4459 17.9135 9.69275ZM2.6858 18.5375C3.73149 19.5229 5.61395 20.2967 7.61246 20.0131C6.80247 18.6794 6.49021 17.2723 6.47349 15.7725C6.45362 13.9895 6.85509 12.0364 7.28525 9.94365L7.28525 9.94364L7.37562 9.50337C7.61699 8.32401 9.17278 8.15817 9.7146 9.16097C10.0907 9.85697 10.3725 10.2585 10.667 10.5671C10.7064 10.6084 10.7468 10.6488 10.7885 10.6886C11.2516 9.20773 11.7939 7.96798 12.8352 6.7777C13.6508 5.84551 14.9907 6.54713 15.002 7.58869C15.0096 8.28874 15.0485 8.77105 15.1769 9.16809C15.6262 8.91838 16.1232 8.57349 16.6468 8.145C17.4723 7.4694 18.3113 6.62946 19.0648 5.74474C19.6867 5.01448 21.0714 5.19497 21.2361 6.36307C21.4298 7.73653 21.2402 9.20533 20.952 10.5487C20.7315 11.576 20.4374 12.5946 20.1824 13.4779L20.1756 13.5014C20.4254 13.4687 20.7442 13.3738 21.1282 13.2342C22.101 12.8806 23.1821 13.8506 22.6797 14.9211C21.7692 16.8611 20.6184 17.5491 19.3557 18.3041L19.3551 18.3045C19.4312 18.3796 19.5187 18.4562 19.6187 18.5341C19.9999 18.8313 20.4721 19.0814 20.9573 19.3208C21.8866 19.7793 21.9159 21.1824 20.8625 21.5914C19.0029 22.3135 16.62 22.8864 14.4006 22.985C12.4933 23.0697 10.4548 22.8146 9.06063 21.7367C5.98601 22.6645 2.96115 21.545 1.3142 19.9931C0.912255 19.6143 0.893456 18.9814 1.27221 18.5795C1.65097 18.1775 2.28386 18.1587 2.6858 18.5375Z" fill="black"/>
</svg>
