<svg width="24" height="24" viewBox="0 0 24 24" fill="none" xmlns="http://www.w3.org/2000/svg">
<path d="M9.29075 18.6002C9.27356 18.584 9.3077 18.6165 9.29075 18.6002ZM9.29075 18.6002C6.42723 19.7152 3.51316 18.6911 2 17.2653M9.29075 18.6002C10.8733 17.9839 13.4405 16.7142 14.7471 14.4979M9.29075 18.6002C6.635 15.6166 7.41212 12.3124 8.35531 7.70387C8.40299 7.47089 8.72176 7.42711 8.83481 7.63634C9.62959 9.10729 10.1589 9.585 11.3487 10.3469C11.9364 8.21835 12.4008 6.7929 13.5878 5.43616C13.7344 5.26867 13.9997 5.37699 14.0021 5.59952C14.0148 6.7722 14.1051 7.62564 14.7471 8.45866C16.3014 7.92797 18.2545 6.23843 19.8261 4.39311C19.961 4.23469 20.2168 4.29668 20.2459 4.50273C20.5848 6.90562 19.5978 9.83866 19 11.9756C19.4513 12.8069 20.5405 12.5118 21.4698 12.174C21.6739 12.0998 21.8667 12.2996 21.7744 12.4962C20.8258 14.5173 19.7167 14.8552 18 15.9635C18.3015 17.065 19.537 17.7352 20.5149 18.2176C20.706 18.3119 20.6992 18.5821 20.5005 18.6592C16.9547 20.0361 11.3981 20.84 9.29075 18.6002Z" stroke="black" stroke-width="2" stroke-linecap="round" stroke-linejoin="round"/>
</svg>
