<svg width="24" height="24" viewBox="0 0 24 24" fill="none" xmlns="http://www.w3.org/2000/svg">
<path fill-rule="evenodd" clip-rule="evenodd" d="M13.1147 1H15.1815C15.4925 1 15.6948 1.35204 15.5557 1.65125L14.4878 3.94875C14.3487 4.24796 14.5509 4.6 14.8619 4.6H16.5808C16.9448 4.6 17.1352 5.06545 16.8892 5.35408L12.93 10L13.7667 6.4H11.4187C11.1331 6.4 10.9315 6.09909 11.0218 5.8077L12.3209 1.6154C12.4348 1.24789 12.7546 1 13.1147 1ZM9.08288 16.0953C9.6705 16.178 10.3084 16.1526 10.9992 16.0132V18.0327C9.96949 18.0989 8.77637 18.2738 7.59629 18.6317C6.01583 19.1111 4.37472 19.9448 3.22213 21.3716C2.87508 21.8012 2.94203 22.4309 3.37166 22.7779C3.80128 23.125 4.4309 23.058 4.77794 22.6284C5.58838 21.6251 6.81454 20.9588 8.17675 20.5456C9.53229 20.1345 10.9396 20 11.9992 20C13.0588 20 14.4666 20.1345 15.8226 20.5457C17.1853 20.9588 18.4118 21.6252 19.2221 22.6284C19.5692 23.058 20.1988 23.125 20.6284 22.7779C21.058 22.4309 21.125 21.8012 20.7779 21.3716C19.6253 19.9447 17.9837 19.111 16.4029 18.6317C15.2225 18.2738 14.0291 18.0989 12.9992 18.0327V17.0895C14.2345 17.3471 15.3362 17.0992 16.2511 16.5234C17.4396 15.7754 18.2011 14.5477 18.6053 13.5072C18.8941 12.7639 18.7263 12.0079 18.2679 11.474C17.8243 10.9572 17.1428 10.6807 16.4298 10.7311C15.366 10.8063 14.028 11.0246 12.9363 11.7484C12.8829 11.7838 12.8304 11.8202 12.7787 11.8577C12.7534 11.785 12.7264 11.7135 12.6977 11.6433C12.3388 10.7652 11.7456 10.1552 11.0498 9.7516C9.73294 8.98772 8.06582 8.98276 6.97702 9.00546C5.91411 9.02761 4.91701 9.9337 5.07617 11.1524C5.2187 12.2437 5.62233 13.856 6.75727 14.9635C7.34614 15.5381 8.11555 15.9591 9.08288 16.0953ZM9.36163 14.1148C9.78802 14.1748 10.3434 14.1451 11.0591 13.9414C11.0866 13.2492 10.991 12.7539 10.8463 12.4C10.669 11.9663 10.3938 11.6832 10.0463 11.4816C9.28912 11.0424 8.19386 10.9832 7.07461 11.0039C7.20939 11.9279 7.53354 12.9265 8.15407 13.5321C8.45535 13.8261 8.83905 14.0412 9.36163 14.1148ZM15.1858 14.8307C14.6607 15.1611 13.9741 15.3385 13.0466 15.0354C13.179 14.1985 13.574 13.7252 14.0415 13.4153C14.6931 12.9833 15.6057 12.7944 16.5709 12.7261C16.6718 12.719 16.7265 12.7543 16.7451 12.7714C16.7441 12.7746 16.7428 12.7784 16.7411 12.783C16.4302 13.5831 15.8886 14.3884 15.1858 14.8307Z" fill="black"/>
</svg>
