<svg width="24" height="24" viewBox="0 0 24 24" fill="none" xmlns="http://www.w3.org/2000/svg">
<path d="M12 15V7.68293M12 15H20.3063C20.6476 15 20.8886 15.3343 20.7806 15.6581L19.4558 19.6325C19.1836 20.4491 18.4193 21 17.5585 21H6.44152C5.58066 21 4.81638 20.4491 4.54415 19.6325L3.21937 15.6581C3.11145 15.3343 3.35243 15 3.69371 15H12ZM12 7.68293C12.5713 3.12274 9.22607 2.95881 6.99866 3.00524C6.44649 3.01675 5.99703 3.47527 6.06855 4.0229C6.33567 6.06824 7.5254 9.35721 12 7.68293ZM12 8.68071C12 5.5431 14.4721 4.8721 16.5012 4.72861C17.3275 4.67017 17.974 5.37286 17.674 6.14506C16.959 7.98574 15.0676 10.2111 12 8.68071Z" stroke="black" stroke-width="2" stroke-linecap="round" stroke-linejoin="round"/>
</svg>
