<svg width="24" height="24" viewBox="0 0 24 24" fill="none" xmlns="http://www.w3.org/2000/svg">
<path fill-rule="evenodd" clip-rule="evenodd" d="M13.6143 2H15.6811C15.9921 2 16.1944 2.35204 16.0553 2.65125L14.9874 4.94875C14.8483 5.24796 15.0505 5.6 15.3615 5.6H17.0804C17.4444 5.6 17.6348 6.06545 17.3888 6.35408L13.4296 11L14.2663 7.4H11.9183C11.6327 7.4 11.4311 7.09909 11.5214 6.8077L12.8205 2.6154C12.9344 2.24789 13.2542 2 13.6143 2ZM7.47232 17.5893C8.50699 17.7731 9.67798 17.7115 10.9996 17.3677V17.5V22C10.9996 22.5522 11.4473 23 11.9996 23C12.5519 23 12.9996 22.5522 12.9996 22V18.973C13.8553 19.2276 14.6732 19.3119 15.4484 19.2457C16.6505 19.1432 17.6847 18.6843 18.5416 18.0449C20.2273 16.787 21.2598 14.8123 21.7135 13.2528C22.1762 11.6622 20.8201 10.4718 19.4653 10.52C17.8645 10.5769 15.7813 10.7966 14.077 11.7649C13.6588 12.0025 13.2608 12.2865 12.8979 12.625C12.8017 12.2005 12.6712 11.8064 12.5076 11.4413C11.9533 10.2038 11.0581 9.38522 10.0321 8.86269C8.08036 7.86865 5.60638 7.93604 4.00492 7.97966L3.97104 7.98058C2.91194 8.00939 1.94365 8.89404 2.05115 10.0859C2.19177 11.6449 2.68263 14.0825 4.22334 15.7882C5.0167 16.6666 6.08252 17.3425 7.47232 17.5893ZM15.2783 17.253C14.6381 17.3076 13.8907 17.2115 13.0265 16.8665C13.0985 16.0499 13.3096 15.4189 13.5952 14.9248C13.9503 14.3105 14.4529 13.8515 15.0649 13.5038C16.3249 12.788 17.9924 12.5736 19.5363 12.5187C19.6649 12.5142 19.745 12.5656 19.7776 12.6023C19.793 12.6195 19.7974 12.6321 19.7988 12.6382C19.7997 12.642 19.8036 12.6581 19.7931 12.6941C19.4184 13.9821 18.5778 15.5224 17.3455 16.4419C16.7435 16.8911 16.0576 17.1865 15.2783 17.253ZM10.6824 12.2589C10.9904 12.9465 11.1689 13.9101 11.0685 15.2656C9.69744 15.705 8.63731 15.7649 7.822 15.6201C6.91061 15.4583 6.23214 15.0284 5.70753 14.4476C4.63075 13.2555 4.18749 11.4047 4.04988 9.97918C5.75458 9.93315 7.69868 9.91871 9.12446 10.6449C9.79759 10.9877 10.3382 11.4905 10.6824 12.2589Z" fill="black"/>
</svg>
