<svg width="24" height="24" viewBox="0 0 24 24" fill="none" xmlns="http://www.w3.org/2000/svg">
<path d="M12 15V7.68293M12 15C9 15 4 16 3 21M12 15C15 15 20 16 21 21M12 7.68293C12.5713 3.12274 9.22607 2.95881 6.99866 3.00524C6.44649 3.01675 5.99703 3.47527 6.06855 4.0229C6.33567 6.06824 7.5254 9.35721 12 7.68293ZM12 8.68071C12 5.5431 14.4721 4.8721 16.5012 4.72861C17.3275 4.67017 17.974 5.37286 17.674 6.14506C16.959 7.98574 15.0676 10.2111 12 8.68071Z" stroke="black" stroke-width="2" stroke-linecap="round" stroke-linejoin="round"/>
</svg>
