<svg width="24" height="24" viewBox="0 0 24 24" fill="none" xmlns="http://www.w3.org/2000/svg">
<path fill-rule="evenodd" clip-rule="evenodd" d="M7 3C7 2.44772 6.55228 2 6 2C5.44772 2 5 2.44772 5 3V7C3.34315 7 2 8.34315 2 10V11C2 14.5265 4.60771 17.4439 8 17.9291V21C8 21.5523 8.44772 22 9 22C9.55228 22 10 21.5523 10 21V17.9291C10.5401 17.8519 11.0602 17.713 11.5532 17.5198C11.2743 16.9179 11.0922 16.262 11.0269 15.5721C10.4074 15.8472 9.72154 16 9 16C6.23858 16 4 13.7614 4 11V10C4 9.44772 4.44772 9 5 9H6H12H13C13.4885 9 13.8952 9.35029 13.9826 9.8134C14.5562 9.47924 15.1908 9.23694 15.865 9.10754C15.4851 7.88652 14.3461 7 13 7V3C13 2.44772 12.5523 2 12 2C11.4477 2 11 2.44772 11 3V7H7V3Z" fill="black"/>
<path fill-rule="evenodd" clip-rule="evenodd" d="M21 15C21 17.2091 19.2091 19 17 19C14.7909 19 13 17.2091 13 15C13 12.7909 14.7909 11 17 11C19.2091 11 21 12.7909 21 15ZM16.5573 12.5H17.5908C17.7463 12.5 17.8474 12.6956 17.7779 12.8618L17.2439 14.1382C17.1743 14.3044 17.2755 14.5 17.431 14.5H18.2904C18.4724 14.5 18.5676 14.7586 18.4446 14.9189L16.465 17.5L16.8833 15.5H15.7093C15.5666 15.5 15.4657 15.3328 15.5109 15.1709L16.1605 12.8419C16.2174 12.6377 16.3773 12.5 16.5573 12.5Z" fill="black"/>
</svg>
