<svg width="24" height="24" viewBox="0 0 24 24" fill="none" xmlns="http://www.w3.org/2000/svg">
<path d="M10 12.6667H9.33333C8.59695 12.6667 8 13.2636 8 14V14C8 15.5122 8.83912 16.8284 10.0771 17.5084C10.4168 17.6949 10.6667 18.0315 10.6667 18.419V18.419C10.6667 18.924 11.076 19.3333 11.581 19.3333H12M10 12.6667V11M10 12.6667H14M14 12.6667H14.6667C15.403 12.6667 16 13.2636 16 14V14C16 15.5122 15.1609 16.8284 13.9229 17.5084C13.5832 17.6949 13.3333 18.0315 13.3333 18.419V18.419C13.3333 18.924 12.924 19.3333 12.419 19.3333H12M14 12.6667V11M12 19.3333V21M6.54404 11.5C6.19474 10.7389 6 9.89221 6 9C6 5.68629 8.68629 3 12 3C15.3137 3 18 5.68629 18 9C18 9.89221 17.8053 10.7389 17.456 11.5M9.99023 8H10.0002M14.0002 8H14.0102" stroke="black" stroke-width="2" stroke-linecap="round" stroke-linejoin="round"/>
</svg>
