<svg width="24" height="24" viewBox="0 0 24 24" fill="none" xmlns="http://www.w3.org/2000/svg">
<path d="M8.50006 12.5L8.00006 12C7.44777 11.4477 6.55233 11.4477 6.00004 12C4.86588 13.1342 4.50807 14.7507 4.92661 16.1892C5.04143 16.5838 4.97641 17.0237 4.68578 17.3143C4.30704 17.6931 4.30704 18.3071 4.68578 18.6859L5.00002 19.0001M8.50006 12.5L10 11M8.50006 12.5L11.5001 15.5001M11.5001 15.5001L12.0001 16.0001C12.5524 16.5524 12.5524 17.4478 12.0001 18.0001C10.866 19.1342 9.24944 19.4921 7.81094 19.0735C7.41628 18.9587 6.97644 19.0237 6.6858 19.3143C6.30706 19.6931 5.69301 19.6931 5.31427 19.3143L5.00002 19.0001M11.5001 15.5001L13 14M5.00002 19.0001L3 21.0001M19.0002 5.00002L19.3145 5.31427C19.6932 5.69301 19.6932 6.30706 19.3145 6.6858C19.0238 6.97644 18.9588 7.41628 19.0737 7.81094C19.4922 9.24944 19.1344 10.866 18.0002 12.0001C17.4479 12.5524 16.5525 12.5524 16.0002 12.0001L15.5002 11.5001L12.5002 8.50007L12.0002 8.00006C11.4479 7.44777 11.4479 6.55233 12.0002 6.00004C13.1343 4.86588 14.7508 4.50807 16.1893 4.92661C16.584 5.04143 17.0238 4.97641 17.3145 4.68578C17.6932 4.30704 18.3073 4.30704 18.686 4.68578L19.0002 5.00002ZM19.0002 5.00002L21.0003 3" stroke="black" stroke-width="2" stroke-linecap="round" stroke-linejoin="round"/>
</svg>
