<svg width="24" height="24" viewBox="0 0 24 24" fill="none" xmlns="http://www.w3.org/2000/svg">
<path fill-rule="evenodd" clip-rule="evenodd" d="M7 3C7 2.44772 6.55228 2 6 2C5.44772 2 5 2.44772 5 3V7C3.34315 7 2 8.34315 2 10V11C2 14.5265 4.60771 17.4439 8 17.9291V21C8 21.5523 8.44772 22 9 22C9.55228 22 10 21.5523 10 21V17.9291C10.5401 17.8519 11.0602 17.713 11.5532 17.5198C11.2743 16.9179 11.0922 16.262 11.0269 15.5721C10.4074 15.8472 9.72154 16 9 16C6.23858 16 4 13.7614 4 11V10C4 9.44772 4.44772 9 5 9H6H12H13C13.4885 9 13.8952 9.35029 13.9826 9.8134C14.5562 9.47924 15.1908 9.23694 15.865 9.10754C15.4851 7.88652 14.3461 7 13 7V3C13 2.44772 12.5523 2 12 2C11.4477 2 11 2.44772 11 3V7H7V3Z" fill="black"/>
<path fill-rule="evenodd" clip-rule="evenodd" d="M19.8284 12.1716C18.2663 10.6095 15.7337 10.6095 14.1716 12.1716C12.6095 13.7337 12.6095 16.2663 14.1716 17.8284C15.7337 19.3905 18.2663 19.3905 19.8284 17.8284C21.3905 16.2663 21.3905 13.7337 19.8284 12.1716ZM16.1161 13.0555C15.8232 12.7626 15.3483 12.7626 15.0555 13.0555C14.7626 13.3483 14.7626 13.8232 15.0555 14.1161L15.9393 15L15.0555 15.8839C14.7626 16.1768 14.7626 16.6516 15.0555 16.9445C15.3483 17.2374 15.8232 17.2374 16.1161 16.9445L17 16.0607L17.8839 16.9445C18.1768 17.2374 18.6516 17.2374 18.9445 16.9445C19.2374 16.6516 19.2374 16.1768 18.9445 15.8839L18.0607 15L18.9445 14.1161C19.2374 13.8232 19.2374 13.3483 18.9445 13.0555C18.6516 12.7626 18.1768 12.7626 17.8839 13.0555L17 13.9393L16.1161 13.0555Z" fill="black"/>
</svg>
