<svg width="24" height="24" viewBox="0 0 24 24" fill="none" xmlns="http://www.w3.org/2000/svg">
<path d="M9 7H8C6.89543 7 6 7.89543 6 9V9C6 11.3619 7.36476 13.4051 9.34872 14.3839C9.72879 14.5715 10 14.9419 10 15.3658L10 16C10 16.5523 10.4477 17 11 17H12M9 7V3M9 7H15M15 7H16C17.1046 7 18 7.89543 18 9V9C18 11.3619 16.6352 13.4051 14.6513 14.3839C14.2712 14.5715 14 14.9419 14 15.3658V16C14 16.5523 13.5523 17 13 17H12M15 7V3M12 17V21" stroke="black" stroke-width="2" stroke-linecap="round" stroke-linejoin="round"/>
</svg>
