<svg width="24" height="24" viewBox="0 0 24 24" fill="none" xmlns="http://www.w3.org/2000/svg">
<path d="M5.72214 18.2777L5.31817 17.8738C4.92765 17.4833 4.92765 16.8501 5.31817 16.4596L5.41175 16.366C5.71144 16.0663 5.77933 15.6128 5.65619 15.2072C5.16693 13.5959 5.55927 11.7742 6.83321 10.5003C7.44683 9.88663 8.44172 9.88663 9.05534 10.5003L9.61088 11.0558L12.9441 14.389L13.4996 14.9445C14.1132 15.5582 14.1132 16.553 13.4996 17.1667C12.2257 18.4406 10.404 18.8329 8.79265 18.3437C8.38712 18.2205 7.93357 18.2884 7.63389 18.5881L7.54031 18.6817C7.14979 19.0722 6.51662 19.0722 6.1261 18.6817L5.72214 18.2777ZM5.72214 18.2777L3 21M17.9447 6.05563L18.3487 6.4596C18.7392 6.85012 18.7392 7.48328 18.3487 7.87381L18.2551 7.96739C17.9554 8.26707 17.8875 8.72061 18.0107 9.12615C18.4999 10.7375 18.1076 12.5592 16.8337 13.8331C16.22 14.4467 15.2252 14.4467 14.6115 13.8331L14.056 13.2776L10.7228 9.94438L10.1673 9.38884C9.55362 8.77521 9.55362 7.78033 10.1673 7.1667C11.4412 5.89276 13.2629 5.50043 14.8742 5.98969C15.2798 6.11283 15.7333 6.04493 16.033 5.74525L16.1266 5.65167C16.5171 5.26115 17.1502 5.26115 17.5408 5.65167L17.9447 6.05563ZM17.9447 6.05563L21 3" stroke="black" stroke-width="2" stroke-linecap="round" stroke-linejoin="round"/>
</svg>
