<svg width="24" height="24" viewBox="0 0 24 24" fill="none" xmlns="http://www.w3.org/2000/svg">
<path d="M12 19.3333C14.2091 19.3333 16 17.5425 16 15.3333V15.3333C16 14.2288 15.1046 13.3333 14 13.3333V13.3333M12 19.3333C9.79086 19.3333 8 17.5425 8 15.3333V15.3333C8 14.2288 8.89543 13.3333 10 13.3333V13.3333M12 19.3333V21M10 13.3333V11.5M10 13.3333H14M14 13.3333V11.5M6.54404 11.5C6.19474 10.7389 6 9.89221 6 9C6 5.68629 8.68629 3 12 3C15.3137 3 18 5.68629 18 9C18 9.89221 17.8053 10.7389 17.456 11.5M9.99023 8H10.0002M14.0002 8H14.0102" stroke="black" stroke-width="2" stroke-linecap="round" stroke-linejoin="round"/>
</svg>
