<svg width="24" height="24" viewBox="0 0 24 24" fill="none" xmlns="http://www.w3.org/2000/svg">
<path d="M5.94436 18.0557C7.96933 20.0807 11.2525 20.0807 13.2774 18.0557L13.6965 17.6366C14.4775 16.8556 14.4775 15.5893 13.6965 14.8082L13.2774 14.3892L9.6109 10.7226L9.19184 10.3036C8.41079 9.52251 7.14446 9.52251 6.36342 10.3036L5.94436 10.7226C3.91939 12.7476 3.91939 16.0307 5.94436 18.0557ZM5.94436 18.0557L3 21M18.0547 5.94436C16.0297 3.91939 12.7466 3.91939 10.7216 5.94436L10.3026 6.36342C9.52153 7.14447 9.52154 8.4108 10.3026 9.19184L10.7216 9.6109L14.3882 13.2774L14.8072 13.6965C15.5883 14.4775 16.8546 14.4775 17.6357 13.6965L18.0547 13.2774C20.0797 11.2525 20.0797 7.96933 18.0547 5.94436ZM18.0547 5.94436L21 3" stroke="black" stroke-width="2" stroke-linecap="round" stroke-linejoin="round"/>
</svg>
