<svg width="24" height="24" viewBox="0 0 24 24" fill="none" xmlns="http://www.w3.org/2000/svg">
<path d="M5.09524 18.9048C6.83099 20.6405 9.6452 20.6405 11.381 18.9048L11.9048 18.381C12.4833 17.8024 12.4833 16.8643 11.9048 16.2857L11.381 15.7619M5.09524 18.9048C3.35949 17.169 3.35949 14.3548 5.09524 12.619L5.61905 12.0952C6.19763 11.5167 7.1357 11.5167 7.71429 12.0952L8.2381 12.619M5.09524 18.9048L3 21M8.2381 12.619L9.85714 11M8.2381 12.619L11.381 15.7619M11.381 15.7619L13 14.1429M18.9056 5.09524C17.1698 3.35949 14.3556 3.35949 12.6199 5.09524L12.096 5.61905C11.5175 6.19763 11.5175 7.1357 12.096 7.71429L12.6199 8.2381L15.7627 11.381L16.2865 11.9048C16.8651 12.4833 17.8032 12.4833 18.3818 11.9048L18.9056 11.381C20.6413 9.6452 20.6413 6.83099 18.9056 5.09524ZM18.9056 5.09524L21.0008 3" stroke="black" stroke-width="2" stroke-linecap="round" stroke-linejoin="round"/>
</svg>
