<svg width="24" height="24" viewBox="0 0 24 24" fill="none" xmlns="http://www.w3.org/2000/svg">
<path fill-rule="evenodd" clip-rule="evenodd" d="M7 3C7 2.44772 6.55228 2 6 2C5.44772 2 5 2.44772 5 3V7C3.34315 7 2 8.34315 2 10V11C2 14.5265 4.60771 17.4439 8 17.9291V21C8 21.5523 8.44772 22 9 22C9.55228 22 10 21.5523 10 21V17.9291C10.5401 17.8519 11.0602 17.713 11.5532 17.5198C11.2743 16.9179 11.0922 16.262 11.0269 15.5721C10.4074 15.8472 9.72154 16 9 16C6.23858 16 4 13.7614 4 11V10C4 9.44772 4.44772 9 5 9H6H12H13C13.4885 9 13.8952 9.35029 13.9826 9.8134C14.5562 9.47924 15.1908 9.23694 15.865 9.10754C15.4851 7.88652 14.3461 7 13 7V3C13 2.44772 12.5523 2 12 2C11.4477 2 11 2.44772 11 3V7H7V3Z" fill="black"/>
<path fill-rule="evenodd" clip-rule="evenodd" d="M17 11C19.2091 11 21 12.7909 21 15C21 17.2091 19.2091 19 17 19C14.7909 19 13 17.2091 13 15C13 12.7909 14.7909 11 17 11ZM19.75 15C19.75 14.5858 19.4142 14.25 19 14.25H15C14.5858 14.25 14.25 14.5858 14.25 15C14.25 15.4142 14.5858 15.75 15 15.75H19C19.4142 15.75 19.75 15.4142 19.75 15Z" fill="black"/>
</svg>
