<svg width="24" height="24" viewBox="0 0 24 24" fill="none" xmlns="http://www.w3.org/2000/svg">
<path d="M9 9C11.7119 7.13772 12.131 5.78298 12 3C14.5586 4.76884 15.3736 6.10018 15 9M9 9H15M9 9C7.34315 9 6 10.3431 6 12C6 13.6569 7.34315 15 9 15H15C16.6569 15 18 13.6569 18 12C18 10.3431 16.6569 9 15 9M21 18V18C21 16.3431 19.6569 15 18 15H6C4.34315 15 3 16.3431 3 18V18C3 19.6569 4.34315 21 6 21H18C19.6569 21 21 19.6569 21 18Z" stroke="black" stroke-width="2" stroke-linecap="round" stroke-linejoin="round"/>
</svg>
