<svg width="24" height="24" viewBox="0 0 24 24" fill="none" xmlns="http://www.w3.org/2000/svg">
<path d="M8 21H19.0361C20.0252 21 20.7435 20.0595 20.4833 19.1053L19.5 15.5M8 21H4.96388C3.97482 21 3.25649 20.0595 3.51673 19.1053L4.5 15.5M8 21L10 10M10 10H16.4724C17.3743 10 18.1646 10.6036 18.4019 11.4738L19.5 15.5M10 10H7.52759C6.62569 10 5.83537 10.6036 5.59806 11.4738L4.5 15.5M14 10L16 21M4.5 15.5H19.5M7.01 2H7M16.99 2H17M15.5 5.5L15.5355 5.53553M12 6.99V7M8.5 5.5L8.46447 5.53553M10 2C10 3.10457 10.8954 4 12 4C13.1046 4 14 3.10457 14 2" stroke="black" stroke-width="2" stroke-linecap="round" stroke-linejoin="round"/>
</svg>
