<svg width="24" height="24" viewBox="0 0 24 24" fill="none" xmlns="http://www.w3.org/2000/svg">
<path fill-rule="evenodd" clip-rule="evenodd" d="M16 3C16 2.44772 15.5523 2 15 2C14.4477 2 14 2.44772 14 3V3.01C14 3.56228 14.4477 4.01 15 4.01C15.5523 4.01 16 3.56228 16 3.01V3ZM12.1716 3.75736C11.781 3.36683 11.1479 3.36683 10.7574 3.75736C10.3668 4.14788 10.3668 4.78105 10.7574 5.17157L10.7929 5.20711C11.1834 5.59763 11.8166 5.59763 12.2071 5.20711C12.5976 4.81658 12.5976 4.18342 12.2071 3.79289L12.1716 3.75736ZM19.2426 5.17157C19.6332 4.78105 19.6332 4.14789 19.2426 3.75736C18.8521 3.36684 18.219 3.36683 17.8284 3.75736L17.7929 3.79289C17.4024 4.18342 17.4024 4.81658 17.7929 5.20711C18.1834 5.59763 18.8166 5.59763 19.2071 5.20711L19.2426 5.17157ZM15 5C13.3431 5 12 6.34315 12 8C12 9.65685 13.3431 11 15 11C16.6569 11 18 9.65685 18 8C18 6.34315 16.6569 5 15 5ZM14 8C14 7.44772 14.4477 7 15 7C15.5523 7 16 7.44772 16 8C16 8.55228 15.5523 9 15 9C14.4477 9 14 8.55228 14 8ZM10 7C9.44772 7 9 7.44772 9 8C9 8.55228 9.44772 9 10 9H10.01C10.5623 9 11.01 8.55228 11.01 8C11.01 7.44772 10.5623 7 10.01 7H10ZM19.99 7C19.4377 7 18.99 7.44772 18.99 8C18.99 8.55228 19.4377 9 19.99 9H20C20.5523 9 21 8.55228 21 8C21 7.44772 20.5523 7 20 7H19.99ZM12.2071 12.2071C12.5976 11.8166 12.5976 11.1834 12.2071 10.7929C11.8166 10.4024 11.1834 10.4024 10.7929 10.7929L10.7574 10.8284C10.3668 11.219 10.3668 11.8521 10.7574 12.2426C11.1479 12.6332 11.7811 12.6332 12.1716 12.2426L12.2071 12.2071ZM19.2071 10.7929C18.8166 10.4024 18.1834 10.4024 17.7929 10.7929C17.4024 11.1834 17.4024 11.8166 17.7929 12.2071L17.8284 12.2426C18.219 12.6332 18.8521 12.6332 19.2426 12.2426C19.6332 11.8521 19.6332 11.219 19.2426 10.8284L19.2071 10.7929ZM16 12.99C16 12.4377 15.5523 11.99 15 11.99C14.4477 11.99 14 12.4377 14 12.99V13C14 13.5523 14.4477 14 15 14C15.5523 14 16 13.5523 16 13V12.99ZM20.4768 13.7905L20.3601 13.2459C19.6152 14.0069 18.7096 14.6099 17.6982 15H18.6906L19.6324 19.3952C19.6991 19.7065 19.4618 20 19.1435 20H16.8663L16.2096 15.403C15.8158 15.4668 15.4118 15.5 15 15.5C14.7287 15.5 14.4609 15.4856 14.1971 15.4575L14.846 20H9.152L9.86629 15H12.3018C10.5955 14.3418 9.1903 13.0778 8.35005 11.4715L8.13169 13H5.73598L6.63802 8.79047C6.72863 8.36763 7.07884 8.05553 7.5 8.00668L7.5 8C7.5 7.3074 7.59388 6.63672 7.76962 6H7.61582C6.20121 6 4.97882 6.9882 4.68241 8.37141L3.52119 13.7905L2.40996 18.9762C2.07648 20.5325 3.26286 22 4.85447 22H7.99899H19.1435C20.7351 22 21.9215 20.5325 21.588 18.9762L20.4768 13.7905ZM7.13169 20L7.84598 15H5.30741L4.36557 19.3952C4.29887 19.7065 4.53615 20 4.85447 20H7.13169Z" fill="black"/>
</svg>
