<svg width="24" height="24" viewBox="0 0 24 24" fill="none" xmlns="http://www.w3.org/2000/svg">
<path fill-rule="evenodd" clip-rule="evenodd" d="M20.3146 14.1354L20.4701 14.7575L21.5042 18.8937C21.8986 20.4715 20.7053 22 19.0788 22H11H7.56154C6.18494 22 4.98499 21.0631 4.65111 19.7276L3.52985 15.2425L2.4958 11.1063C2.10133 9.52847 3.29473 8 4.92115 8H7.99999H8.5C8.5 9.60115 9.00174 11.0851 9.85658 12.3032L10.2808 14H11.4993C12.7529 14.9419 14.3113 15.5 16 15.5C17.6061 15.5 19.0944 14.9951 20.3146 14.1354ZM4.43608 10.6213C4.35719 10.3057 4.59587 10 4.92115 10H7.21921L8.21921 14H5.28077L4.43608 10.6213ZM15.7808 16H18.7192L19.5639 19.3787C19.6428 19.6943 19.4041 20 19.0788 20H16.7808L15.7808 16ZM13.7192 16L14.7192 20H11.7808L10.7808 16H13.7192ZM8.71921 16L9.71921 20H7.56154C7.10267 20 6.70269 19.6877 6.5914 19.2425L5.78077 16H8.71921Z" fill="black"/>
<path d="M16 3V3.01M19.5355 4.46447L19.5 4.5M21 8H20.99M19.5355 11.5355L19.5 11.5M16 13V12.99M12.4645 11.5355L12.5 11.5M11 8H11.01M12.4645 4.46447L12.5 4.5M16 10V10C17.1046 10 18 9.10457 18 8V8C18 6.89543 17.1046 6 16 6V6C14.8954 6 14 6.89543 14 8V8C14 9.10457 14.8954 10 16 10Z" stroke="black" stroke-width="2" stroke-linecap="round" stroke-linejoin="round"/>
</svg>
