<svg width="24" height="24" viewBox="0 0 24 24" fill="none" xmlns="http://www.w3.org/2000/svg">
<path d="M8 19H5.08114C4.0573 19 3.33435 17.997 3.65811 17.0257L4.5 14.5M8 19L10 10M8 19H12M10 10H16.5585C17.4193 10 18.1836 10.5509 18.4558 11.3675L19.5 14.5M10 10H7.44152C6.58066 10 5.81638 10.5509 5.54415 11.3675L4.5 14.5M14 10L16 19M16 19H12M16 19H18.9189C19.9427 19 20.6657 17.997 20.3419 17.0257L19.5 14.5M4.5 14.5H19.5M12 19V22M12 22H8M12 22H16M7.01 2H7M16.99 2H17M15.5 5.5L15.5355 5.53553M12 6.99V7M8.5 5.5L8.46447 5.53553M10 2C10 3.10457 10.8954 4 12 4C13.1046 4 14 3.10457 14 2" stroke="black" stroke-width="2" stroke-linecap="round" stroke-linejoin="round"/>
</svg>
