<svg width="24" height="24" viewBox="0 0 24 24" fill="none" xmlns="http://www.w3.org/2000/svg">
<path d="M11 22H19.0788C20.0547 22 20.7707 21.0829 20.534 20.1362L19.5 16M11 22H7.56155C6.64382 22 5.84385 21.3754 5.62127 20.4851L4.5 16M11 22L8 10M8 10H16.4384C17.3562 10 18.1561 10.6246 18.3787 11.5149L19.5 16M8 10H4.92116C3.94531 10 3.22927 10.9171 3.46595 11.8638L4.5 16M13 10L16 22M4.5 16H19.5M7.01 2H7M16.99 2H17M15.5 5.5L15.5355 5.53553M12 6.99V7M8.5 5.5L8.46447 5.53553M10 2C10 3.10457 10.8954 4 12 4C13.1046 4 14 3.10457 14 2" stroke="black" stroke-width="2" stroke-linecap="round" stroke-linejoin="round"/>
</svg>
