<svg width="24" height="24" viewBox="0 0 24 24" fill="none" xmlns="http://www.w3.org/2000/svg">
<path d="M8 17H4.85548C3.90051 17 3.18868 16.1195 3.38878 15.1857L4.5 10M8 17L10 3M8 17H12M10 3H16.3832C17.3262 3 18.1412 3.6588 18.3388 4.58094L19.5 10M10 3H7.61683C6.67376 3 5.85883 3.6588 5.66123 4.58094L4.5 10M14 3L16 17M16 17H12M16 17H19.1445C20.0995 17 20.8113 16.1195 20.6112 15.1857L19.5 10M4.5 10H19.5M12 17V21M12 21H8M12 21H16" stroke="black" stroke-width="2" stroke-linecap="round" stroke-linejoin="round"/>
</svg>
