<svg width="24" height="24" viewBox="0 0 24 24" fill="none" xmlns="http://www.w3.org/2000/svg">
<path d="M12 21V17M12 21H16M12 21H8M12 17H19.1445C20.0995 17 20.8113 16.1195 20.6112 15.1857L19.5 10M12 17H11M8 3H16.3832C17.3262 3 18.1412 3.6588 18.3388 4.58094L19.5 10M8 3H4.85548C3.90051 3 3.18868 3.88053 3.38878 4.81429L4.5 10M8 3L11 17M11 17H7.61683C6.67376 17 5.85883 16.3412 5.66123 15.4191L4.5 10M13 3L16 17M4.5 10H19.5" stroke="black" stroke-width="2" stroke-linecap="round" stroke-linejoin="round"/>
</svg>
