<svg width="24" height="24" viewBox="0 0 24 24" fill="none" xmlns="http://www.w3.org/2000/svg">
<path fill-rule="evenodd" clip-rule="evenodd" d="M16 3C16 2.44772 15.5523 2 15 2C14.4477 2 14 2.44772 14 3V3.01C14 3.56228 14.4477 4.01 15 4.01C15.5523 4.01 16 3.56228 16 3.01V3ZM12.1716 3.75736C11.781 3.36683 11.1479 3.36683 10.7574 3.75736C10.3668 4.14788 10.3668 4.78105 10.7574 5.17157L10.7929 5.20711C11.1834 5.59763 11.8166 5.59763 12.2071 5.20711C12.5976 4.81658 12.5976 4.18342 12.2071 3.79289L12.1716 3.75736ZM19.2426 5.17157C19.6332 4.78105 19.6332 4.14789 19.2426 3.75736C18.8521 3.36684 18.219 3.36683 17.8284 3.75736L17.7929 3.79289C17.4024 4.18342 17.4024 4.81658 17.7929 5.20711C18.1834 5.59763 18.8166 5.59763 19.2071 5.20711L19.2426 5.17157ZM15 5C13.3431 5 12 6.34315 12 8C12 9.65685 13.3431 11 15 11C16.6569 11 18 9.65685 18 8C18 6.34315 16.6569 5 15 5ZM14 8C14 7.44772 14.4477 7 15 7C15.5523 7 16 7.44772 16 8C16 8.55228 15.5523 9 15 9C14.4477 9 14 8.55228 14 8ZM10 7C9.44772 7 9 7.44772 9 8C9 8.55228 9.44772 9 10 9H10.01C10.5623 9 11.01 8.55228 11.01 8C11.01 7.44772 10.5623 7 10.01 7H10ZM19.99 7C19.4377 7 18.99 7.44772 18.99 8C18.99 8.55228 19.4377 9 19.99 9H20C20.5523 9 21 8.55228 21 8C21 7.44772 20.5523 7 20 7H19.99ZM12.2071 12.2071C12.5976 11.8166 12.5976 11.1834 12.2071 10.7929C11.8166 10.4024 11.1834 10.4024 10.7929 10.7929L10.7574 10.8284C10.3668 11.219 10.3668 11.8521 10.7574 12.2426C11.1479 12.6332 11.7811 12.6332 12.1716 12.2426L12.2071 12.2071ZM19.2071 10.7929C18.8166 10.4024 18.1834 10.4024 17.7929 10.7929C17.4024 11.1834 17.4024 11.8166 17.7929 12.2071L17.8284 12.2426C18.219 12.6332 18.8521 12.6332 19.2426 12.2426C19.6332 11.8521 19.6332 11.219 19.2426 10.8284L19.2071 10.7929ZM16 12.99C16 12.4377 15.5523 11.99 15 11.99C14.4477 11.99 14 12.4377 14 12.99V13C14 13.5523 14.4477 14 15 14C15.5523 14 16 13.5523 16 13V12.99ZM7.56154 4H8.65456C8.26768 4.61245 7.96701 5.2848 7.76962 6H7.56154C7.10267 6 6.70269 6.3123 6.5914 6.75746L5.78077 10H7.76962C8.11195 11.2404 8.76491 12.3518 9.63953 13.2455L9.18045 16H12H14.8195L14.7354 15.4954C14.8232 15.4985 14.9114 15.5 15 15.5C15.5955 15.5 16.1749 15.4306 16.7304 15.2994L16.8471 16H19.0788C19.4041 16 19.6428 15.6943 19.5639 15.3787L19.2622 14.172C19.8954 13.7339 20.4579 13.2009 20.9291 12.5935L21.5042 14.8937C21.8986 16.4715 20.7053 18 19.0788 18H16H13V20H16C16.5523 20 17 20.4477 17 21C17 21.5523 16.5523 22 16 22H12H7.99999C7.4477 22 6.99999 21.5523 6.99999 21C6.99999 20.4477 7.4477 20 7.99999 20H11V18H7.99999H4.92115C3.29473 18 2.10133 16.4715 2.4958 14.8937L3.52985 10.7575L4.65111 6.27239C4.98499 4.93689 6.18494 4 7.56154 4ZM7.81953 12H5.28077L4.43608 15.3787C4.35719 15.6943 4.59587 16 4.92115 16H7.15286L7.81953 12Z" fill="black"/>
</svg>
