<svg width="24" height="24" viewBox="0 0 24 24" fill="none" xmlns="http://www.w3.org/2000/svg">
<path d="M12 22V19M12 22H16M12 22H8M12 19H18.9189C19.9427 19 20.6657 17.997 20.3419 17.0257L19.5 14.5M12 19H11M8 10H16.5585C17.4193 10 18.1836 10.5509 18.4558 11.3675L19.5 14.5M8 10H5.08114C4.0573 10 3.33435 11.003 3.65811 11.9743L4.5 14.5M8 10L11 19M11 19H7.44152C6.58066 19 5.81638 18.4491 5.54415 17.6325L4.5 14.5M13 10L16 19M4.5 14.5H19.5M7.01 2H7M16.99 2H17M15.5 5.5L15.5355 5.53553M12 6.99V7M8.5 5.5L8.46447 5.53553M10 2C10 3.10457 10.8954 4 12 4C13.1046 4 14 3.10457 14 2" stroke="black" stroke-width="2" stroke-linecap="round" stroke-linejoin="round"/>
</svg>
