<svg width="24" height="24" viewBox="0 0 24 24" fill="none" xmlns="http://www.w3.org/2000/svg">
<path d="M11 11L13 20.5L15.5 10.5M11 11L15.5 10.5M11 11L5.77539 8.15039M15.5 10.5L17.5 6.5M11.9147 20.3488L8.66411 18.3985C8.23683 18.1421 7.92064 17.7355 7.77745 17.2582L5.61673 10.0558C5.24791 8.82636 5.70205 7.49854 6.74649 6.75251L11.0201 3.69991C11.623 3.26931 12.4144 3.20721 13.077 3.53852L16.5053 5.25263C17.4345 5.71726 18.0572 6.62962 18.1513 7.66431L18.8923 15.8149C18.9587 16.5452 18.62 17.2533 18.0099 17.6601L14.0531 20.2979C13.41 20.7267 12.5775 20.7465 11.9147 20.3488Z" stroke="black" stroke-width="2" stroke-linecap="round" stroke-linejoin="round"/>
</svg>
