<svg width="24" height="24" viewBox="0 0 24 24" fill="none" xmlns="http://www.w3.org/2000/svg">
<path d="M11 11L13 20.5M11 11L15.5 10.5M11 11L6.5 8.5M6 8.71429L7 20.5M15.5 10.5L19 18.5M15.5 10.5L17.5 6.5M13 21H8.33333C7.46785 21 6.62572 20.7193 5.93333 20.2L3.8 18.6C3.29639 18.2223 3 17.6295 3 17V12.2426C3 11.447 3.31607 10.6839 3.87868 10.1213L5.51681 8.48319C5.8379 8.1621 6.1944 7.8785 6.57946 7.63784L12.8371 3.72682C13.5379 3.28881 14.4359 3.32696 15.0971 3.82282L17.1765 5.38241C17.7102 5.78268 18.0953 6.34943 18.2708 6.99305L20.5419 15.3204C20.8252 16.359 20.5302 17.4698 19.769 18.231L19.5008 18.4992C19.1715 18.8285 18.77 19.0767 18.3281 19.224L13 21Z" stroke="black" stroke-width="2" stroke-linecap="round" stroke-linejoin="round"/>
</svg>
