<svg width="24" height="24" viewBox="0 0 24 24" fill="none" xmlns="http://www.w3.org/2000/svg">
<path d="M4 11.7143L16.1942 20.4244M3.6 12L8.4 20M16.5 20.1667L8.48486 6.80811M16.8414 20.0483L14.1431 3.85832M3.87868 10.1213L7.31151 6.68849C7.76752 6.23248 8.29406 5.85297 8.87087 5.56456L12.5335 3.73325C13.3862 3.3069 14.4213 3.54169 15.0066 4.29423L20.3681 11.1875C20.7776 11.7141 21 12.3622 21 13.0293V15.7574C21 16.553 20.6839 17.3161 20.1213 17.8787L17.8787 20.1213C17.3161 20.6839 16.553 21 15.7574 21H9.94427C9.32329 21 8.71084 20.8554 8.15542 20.5777L4.10557 18.5528C3.428 18.214 3 17.5215 3 16.7639V12.2426C3 11.447 3.31607 10.6839 3.87868 10.1213Z" stroke="black" stroke-width="2" stroke-linecap="round" stroke-linejoin="round"/>
</svg>
