<svg width="24" height="24" viewBox="0 0 24 24" fill="none" xmlns="http://www.w3.org/2000/svg">
<path d="M11.9991 21L11.9991 17M7.5 12H16.4992M7.5 12L5.65217 14.6398C4.95627 15.634 5.66751 17 6.88103 17H17.1182C18.3317 17 19.0429 15.634 18.347 14.6398L16.4992 12M7.5 12V12C6.89763 12 6.56415 11.3018 6.94274 10.8333L9.23208 8M16.4992 12V12C17.1016 12 17.435 11.3018 17.0565 10.8333L14.7671 8M14.7671 8V8C15.2636 8 15.5397 7.42568 15.2295 7.03798L13.5003 4.87653C12.7307 3.91449 11.2675 3.91449 10.4979 4.87653L8.76934 7.03721C8.45893 7.42522 8.73519 8 9.23208 8V8M14.7671 8H9.23208" stroke="black" stroke-width="2" stroke-linecap="round" stroke-linejoin="round"/>
</svg>
