<svg width="24" height="24" viewBox="0 0 24 24" fill="none" xmlns="http://www.w3.org/2000/svg">
<path fill-rule="evenodd" clip-rule="evenodd" d="M5.47716 6.16479C6.99457 3.62215 11.0049 3.62215 12.5223 6.16479C13.1264 7.17701 13.571 8.44361 13.8073 10.0428C13.9446 10.9718 13.1584 11.8889 11.9997 11.8889V13.8889C14.1547 13.8889 16.1329 12.0995 15.7858 9.75043C15.5188 7.94311 15.0019 6.41707 14.2397 5.13986C11.9464 1.29713 6.05303 1.29713 3.75974 5.13986C2.99752 6.41707 2.48068 7.94311 2.21363 9.75043C1.86653 12.0995 3.84473 13.8889 5.99973 13.8889C6.55202 13.8889 6.99973 13.4412 6.99973 12.8889C6.99973 12.3366 6.55202 11.8889 5.99973 11.8889C4.84103 11.8889 4.05487 10.9718 4.19215 10.0428C4.42844 8.44361 4.87308 7.17701 5.47716 6.16479ZM7.46958 9.08363C7.08622 8.68607 6.45315 8.67456 6.0556 9.05792C5.65804 9.44128 5.64653 10.0743 6.02989 10.4719L7.99973 12.5147V16C7.99973 16.5523 8.44745 17 8.99973 17C9.55202 17 9.99973 16.5523 9.99973 16V12.5147L11.9696 10.4719C12.3529 10.0743 12.3414 9.44128 11.9439 9.05792C11.5463 8.67456 10.9132 8.68607 10.5299 9.08363L8.99973 10.6705L7.46958 9.08363ZM17.1144 13H19.1813C19.4923 13 19.6945 13.352 19.5554 13.6512L18.4875 15.9487C18.3484 16.2479 18.5507 16.6 18.8617 16.6H20.5806C20.9446 16.6 21.1349 17.0654 20.8889 17.3541L16.9297 22L17.7664 18.4H15.4184C15.1329 18.4 14.9312 18.0991 15.0215 17.8077L16.3207 13.6154C16.4346 13.2479 16.7543 13 17.1144 13Z" fill="black"/>
</svg>
