<svg width="24" height="24" viewBox="0 0 24 24" fill="none" xmlns="http://www.w3.org/2000/svg">
<path fill-rule="evenodd" clip-rule="evenodd" d="M4 8.22222C4 5.30348 6.27254 3 9 3C11.7275 3 14 5.30348 14 8.22222C14 10.2051 12.9444 11.9159 11.4082 12.7999C10.9296 13.0754 10.7648 13.6867 11.0403 14.1654C11.3157 14.6441 11.9271 14.8089 12.4058 14.5334C14.5587 13.2945 16 10.9247 16 8.22222C16 4.26809 12.9 1 9 1C5.10004 1 2 4.26809 2 8.22222C2 10.9247 3.44131 13.2945 5.59423 14.5334C6.07292 14.8089 6.68427 14.6441 6.95973 14.1654C7.23519 13.6867 7.07045 13.0754 6.59176 12.7999C5.05556 11.9159 4 10.2051 4 8.22222ZM7.46984 9.08364C7.08648 8.68608 6.45342 8.67457 6.05586 9.05793C5.65831 9.44129 5.6468 10.0744 6.03016 10.4719L8 12.5147V16C8 16.5523 8.44772 17 9 17C9.55228 17 10 16.5523 10 16V12.5147L11.9698 10.4719C12.3532 10.0744 12.3417 9.44129 11.9441 9.05793C11.5466 8.67457 10.9135 8.68608 10.5302 9.08364L9 10.6705L7.46984 9.08364ZM17.1147 13H19.1815C19.4925 13 19.6948 13.352 19.5557 13.6512L18.4878 15.9488C18.3487 16.248 18.5509 16.6 18.8619 16.6H20.5808C20.9448 16.6 21.1352 17.0654 20.8892 17.3541L16.93 22L17.7667 18.4H15.4187C15.1331 18.4 14.9315 18.0991 15.0218 17.8077L16.3209 13.6154C16.4348 13.2479 16.7546 13 17.1147 13Z" fill="black"/>
</svg>
