<svg width="24" height="24" viewBox="0 0 24 24" fill="none" xmlns="http://www.w3.org/2000/svg">
<path fill-rule="evenodd" clip-rule="evenodd" d="M6.98733 5.73021C6.82807 4.73929 7.01159 4.07074 7.31269 3.67334C7.59803 3.29673 8.11279 3 9 3C9.88721 3 10.402 3.29673 10.6873 3.67334C10.9884 4.07074 11.1719 4.73929 11.0127 5.73021C10.9662 6.01944 11.0489 6.3145 11.2389 6.53747C11.4289 6.76044 11.7071 6.88889 12 6.88889C12.4408 6.88889 12.9534 7.03052 13.3353 7.3432C13.6823 7.62734 14 8.11362 14 9C14 9.63678 13.844 10.1643 13.5642 10.5125C13.3144 10.8235 12.8716 11.1111 12 11.1111C11.4477 11.1111 11 11.5588 11 12.1111C11 12.6634 11.4477 13.1111 12 13.1111C13.3784 13.1111 14.4356 12.621 15.1233 11.7653C15.781 10.9468 16 9.91878 16 9C16 7.55304 15.4427 6.48377 14.6022 5.79569C14.1301 5.40911 13.5954 5.16417 13.0707 5.02764C13.0687 4.06856 12.8235 3.18102 12.2814 2.46555C11.5355 1.48105 10.3628 1 9 1C7.63721 1 6.46447 1.48105 5.71856 2.46555C5.17649 3.18102 4.93131 4.06856 4.92926 5.02764C4.40463 5.16417 3.86995 5.40911 3.39777 5.79569C2.55733 6.48377 2 7.55304 2 9C2 9.91878 2.21904 10.9468 2.87674 11.7653C3.56435 12.621 4.62161 13.1111 6 13.1111C6.55228 13.1111 7 12.6634 7 12.1111C7 11.5588 6.55228 11.1111 6 11.1111C5.12839 11.1111 4.68565 10.8235 4.43576 10.5125C4.15596 10.1643 4 9.63678 4 9C4 8.11362 4.31767 7.62734 4.66473 7.3432C5.04665 7.03052 5.55916 6.88889 6 6.88889C6.29294 6.88889 6.57115 6.76044 6.76114 6.53747C6.95114 6.3145 7.03381 6.01944 6.98733 5.73021ZM7.46984 8.30586C7.08648 7.90831 6.45342 7.8968 6.05586 8.28016C5.65831 8.66352 5.6468 9.29658 6.03016 9.69414L8 11.7369V16C8 16.5523 8.44772 17 9 17C9.55228 17 10 16.5523 10 16V11.7369L11.9698 9.69414C12.3532 9.29658 12.3417 8.66352 11.9441 8.28016C11.5466 7.8968 10.9135 7.90831 10.5302 8.30586L9 9.89269L7.46984 8.30586ZM17.1147 13H19.1815C19.4925 13 19.6948 13.352 19.5557 13.6512L18.4878 15.9488C18.3487 16.248 18.5509 16.6 18.8619 16.6H20.5808C20.9448 16.6 21.1352 17.0654 20.8892 17.3541L16.93 22L17.7667 18.4H15.4187C15.1331 18.4 14.9315 18.0991 15.0218 17.8077L16.3209 13.6154C16.4348 13.2479 16.7546 13 17.1147 13Z" fill="black"/>
</svg>
