<svg width="24" height="24" viewBox="0 0 24 24" fill="none" xmlns="http://www.w3.org/2000/svg">
<g clip-path="url(#clip0_6219_1260)">
<path fill-rule="evenodd" clip-rule="evenodd" d="M10.2 3.17862C13.3053 2.54456 16.5696 3.60055 18.7102 5.99962H18.4999C17.9476 5.99962 17.4999 6.44733 17.4999 6.99962C17.4999 7.5519 17.9476 7.99962 18.4999 7.99962H20.6599C21.0625 7.99962 21.4259 7.75811 21.5818 7.38687L22.4219 5.38691C22.6357 4.87771 22.3963 4.29155 21.8872 4.07768C21.378 3.86381 20.7918 4.10321 20.5779 4.61241L20.4395 4.94205C17.83 1.81391 13.7104 0.420591 9.79985 1.21904C9.25873 1.32953 8.90963 1.85776 9.02011 2.39888C9.1306 2.94 9.65883 3.2891 10.2 3.17862ZM5.38706 1.57764C4.87785 1.36382 4.29171 1.60328 4.07789 2.11249C3.86406 2.6217 4.10352 3.20784 4.61274 3.42167L4.94191 3.55989C1.81377 6.16944 0.42052 10.2891 1.21912 14.1997C1.32962 14.7409 1.85786 15.0899 2.39898 14.9794C2.9401 14.8689 3.28918 14.3407 3.17867 13.7996C2.54447 10.694 3.60055 7.42951 5.99987 5.28879L5.9999 5.49979C5.99997 6.05207 6.44775 6.49973 7.00003 6.49966C7.55232 6.49958 7.99997 6.05181 7.9999 5.49952L7.99962 3.33923C7.99956 2.93658 7.75803 2.57324 7.38678 2.41735L5.38706 1.57764ZM22.7801 9.79958C22.6696 9.25846 22.1414 8.90938 21.6003 9.01988C21.0592 9.13037 20.7101 9.65861 20.8206 10.1997C21.4547 13.3051 20.3988 16.5693 17.9999 18.71L17.9999 18.4998C18 17.9475 17.5523 17.4997 17 17.4997C16.4477 17.4996 16 17.9472 15.9999 18.4995L15.9996 20.6597C15.9996 21.0625 16.2411 21.426 16.6125 21.5819L18.6128 22.4217C19.122 22.6355 19.7081 22.396 19.9219 21.8868C20.1357 21.3775 19.8962 20.7914 19.387 20.5776L19.0574 20.4393C22.1855 17.8297 23.5787 13.7101 22.7801 9.79958ZM3.33938 15.9996C2.93662 15.9996 2.57316 16.2412 2.41729 16.6126L1.57783 18.6126C1.36408 19.1219 1.60364 19.708 2.11288 19.9217C2.62213 20.1355 3.20823 19.8959 3.42197 19.3867L3.5601 19.0576C6.16972 22.1856 10.2894 23.5788 14.2 22.7801C14.7411 22.6695 15.0902 22.1413 14.9797 21.6002C14.8692 21.0591 14.3409 20.71 13.7998 20.8205C10.6943 21.4548 7.42983 20.3988 5.28905 17.9997L5.49988 17.9997C6.05217 17.9997 6.49989 17.552 6.4999 16.9997C6.49991 16.4474 6.0522 15.9997 5.49992 15.9997L3.33938 15.9996ZM12.0032 6.99966C12.2266 6.99966 12.4398 7.09651 12.5915 7.26689C12.8977 7.6107 13.1955 7.93601 13.4752 8.24153C13.8608 8.66274 14.212 9.04638 14.5034 9.38916C15.0201 9.99709 15.4553 10.594 15.7222 11.2802C15.4061 11.5677 14.9883 11.9247 14.503 12.2448C13.9919 12.5818 13.4533 12.8455 12.9247 12.9584C12.8284 12.7521 12.6942 12.5248 12.504 12.3042C12.0362 11.7617 11.3097 11.3418 10.2094 11.175C9.58784 11.0808 8.91936 11.1115 8.29638 11.2495C8.46546 10.8246 8.70056 10.4292 8.98864 10.0354C9.38818 9.48922 9.92914 8.89852 10.5522 8.21824L10.5522 8.21819L10.5522 8.21818C10.8256 7.91961 11.1149 7.60378 11.4149 7.26689C11.5666 7.09651 11.7799 6.99966 12.0032 6.99966ZM15.362 13.6521C15.5891 13.5023 15.8029 13.3463 15.9999 13.193C15.8415 15.3306 14.1042 16.9997 12.0032 16.9997C10.4225 16.9997 9.05195 16.0569 8.39991 14.6832C8.1685 14.1957 8.02775 13.6544 7.9999 13.084C8.54149 12.8417 9.29686 12.721 9.97804 12.8242C10.7866 12.9468 11.1417 13.2214 11.3101 13.4167C11.4877 13.6226 11.5454 13.8329 11.6099 14.0675L11.6134 14.0804C11.7118 14.4382 12.0263 14.6848 12.3843 14.6848C13.5214 14.6848 14.5664 14.1768 15.362 13.6521Z" fill="black"/>
</g>
<defs>
<clipPath id="clip0_6219_1260">
<rect width="24" height="24" fill="white"/>
</clipPath>
</defs>
</svg>
