<svg width="24" height="24" viewBox="0 0 24 24" fill="none" xmlns="http://www.w3.org/2000/svg">
<g clip-path="url(#clip0_6219_1277)">
<path fill-rule="evenodd" clip-rule="evenodd" d="M10.2 3.17862C13.3053 2.54456 16.5696 3.60055 18.7102 5.99962H18.4999C17.9476 5.99962 17.4999 6.44733 17.4999 6.99962C17.4999 7.5519 17.9476 7.99962 18.4999 7.99962H20.6599C21.0625 7.99962 21.4259 7.75811 21.5818 7.38687L22.4219 5.38691C22.6357 4.87771 22.3963 4.29155 21.8872 4.07768C21.378 3.86381 20.7918 4.10321 20.5779 4.61241L20.4395 4.94205C17.83 1.81391 13.7104 0.420591 9.79985 1.21904C9.25873 1.32953 8.90963 1.85776 9.02011 2.39888C9.1306 2.94 9.65883 3.2891 10.2 3.17862ZM5.38706 1.57764C4.87785 1.36382 4.29171 1.60328 4.07789 2.11249C3.86406 2.6217 4.10352 3.20784 4.61274 3.42167L4.94191 3.55989C1.81377 6.16944 0.42052 10.2891 1.21912 14.1997C1.32962 14.7409 1.85786 15.0899 2.39898 14.9794C2.9401 14.8689 3.28918 14.3407 3.17867 13.7996C2.54447 10.694 3.60055 7.42951 5.99987 5.28879L5.9999 5.49979C5.99997 6.05207 6.44775 6.49973 7.00003 6.49966C7.55232 6.49958 7.99997 6.05181 7.9999 5.49952L7.99962 3.33923C7.99956 2.93658 7.75803 2.57324 7.38678 2.41735L5.38706 1.57764ZM22.7801 9.79958C22.6696 9.25846 22.1414 8.90938 21.6003 9.01988C21.0592 9.13037 20.7101 9.65861 20.8206 10.1997C21.4547 13.3051 20.3988 16.5693 17.9999 18.71L17.9999 18.4998C18 17.9475 17.5523 17.4997 17 17.4997C16.4477 17.4996 16 17.9472 15.9999 18.4995L15.9996 20.6597C15.9996 21.0625 16.2411 21.426 16.6125 21.5819L18.6128 22.4217C19.122 22.6355 19.7081 22.396 19.9219 21.8868C20.1357 21.3775 19.8962 20.7914 19.387 20.5776L19.0574 20.4393C22.1855 17.8297 23.5787 13.7101 22.7801 9.79958ZM3.33938 15.9996C2.93662 15.9996 2.57316 16.2412 2.41729 16.6126L1.57783 18.6126C1.36408 19.1219 1.60364 19.708 2.11288 19.9217C2.62213 20.1355 3.20823 19.8959 3.42197 19.3867L3.5601 19.0576C6.16972 22.1856 10.2894 23.5788 14.2 22.7801C14.7411 22.6695 15.0902 22.1413 14.9797 21.6002C14.8692 21.0591 14.3409 20.71 13.7998 20.8205C10.6943 21.4548 7.42983 20.3988 5.28905 17.9997L5.49988 17.9997C6.05217 17.9997 6.49989 17.552 6.4999 16.9997C6.49991 16.4474 6.0522 15.9997 5.49992 15.9997L3.33938 15.9996ZM11.9999 6.9999C12.2248 6.9999 12.4395 7.09675 12.5923 7.26713C12.8945 7.60402 13.1857 7.91986 13.4611 8.21844L13.4611 8.21845L13.4611 8.21848L13.4611 8.21849C14.0885 8.89877 14.6333 9.48946 15.0357 10.0356C15.546 10.7284 15.8912 11.4262 15.9999 12.2802C15.9547 12.2975 15.906 12.3158 15.8428 12.3386C15.559 12.4411 15.3191 12.5041 15.1146 12.5041C15.1147 12.5041 15.1123 12.5041 15.1073 12.5037L15.1013 12.5032C15.097 12.5027 15.0918 12.5021 15.0856 12.5012C15.0662 12.4985 15.0402 12.4937 15.0065 12.4857C14.9379 12.4693 14.852 12.443 14.7458 12.4051C14.5724 12.3432 14.3852 12.2656 14.1677 12.1754L14.1676 12.1754C14.1095 12.1513 14.0492 12.1262 13.9864 12.1004C13.4506 11.8798 12.7007 11.5781 12.0006 11.5781C11.3005 11.5781 10.5506 11.8798 10.0148 12.1004C9.95236 12.1261 9.89225 12.151 9.83445 12.175L9.83378 12.1753L9.83356 12.1754C9.61601 12.2656 9.42882 12.3432 9.25538 12.4051C9.14914 12.443 9.06334 12.4693 8.99467 12.4857C8.96103 12.4937 8.93498 12.4985 8.91563 12.5012C8.90613 12.5026 8.89896 12.5033 8.89392 12.5037L8.88824 12.504C8.8871 12.5041 8.88657 12.5041 8.88661 12.5041C8.68213 12.5041 8.44215 12.4411 8.15843 12.3386C8.09457 12.3156 8.04546 12.2971 7.9999 12.2797C8.10864 11.4259 8.45383 10.7283 8.96407 10.0356C9.36641 9.48946 9.91118 8.89877 10.5386 8.21849L10.5386 8.21845L10.5386 8.21843C10.814 7.91985 11.1053 7.60402 11.4074 7.26713C11.5602 7.09675 11.7749 6.9999 11.9999 6.9999ZM15.1146 14.1707C15.3801 14.1707 15.6352 14.1284 15.8644 14.071C15.3616 15.7707 13.8156 16.9999 11.9999 16.9999C10.184 16.9999 8.63791 15.7705 8.13525 14.0706C8.36484 14.1282 8.62044 14.1707 8.88661 14.1707C9.20369 14.1707 9.52879 14.071 9.7829 13.9803C9.99791 13.9036 10.2337 13.8057 10.4556 13.7136C10.509 13.6914 10.5616 13.6696 10.613 13.6485C11.2016 13.4061 11.6627 13.2448 12.0006 13.2448C12.3385 13.2448 12.7996 13.4061 13.3882 13.6485C13.4389 13.6693 13.4909 13.6909 13.5437 13.7128L13.5456 13.7136L13.5456 13.7136L13.5457 13.7137C13.7676 13.8058 14.0033 13.9036 14.2183 13.9803C14.4724 14.071 14.7975 14.1707 15.1146 14.1707Z" fill="black"/>
</g>
<defs>
<clipPath id="clip0_6219_1277">
<rect width="24" height="24" fill="white"/>
</clipPath>
</defs>
</svg>
