<svg width="24" height="24" viewBox="0 0 24 24" fill="none" xmlns="http://www.w3.org/2000/svg">
<path fill-rule="evenodd" clip-rule="evenodd" d="M12.7433 2.33104C12.5537 2.12032 12.2835 2 12 2C11.7165 2 11.4463 2.12032 11.2567 2.33104C10.5768 3.08644 9.93175 3.78338 9.32871 4.43488C7.98709 5.88432 6.85361 7.1089 6.00838 8.25222C4.72881 9.98306 4 11.6588 4 13.8889C4 18.3536 7.56693 22 12 22C16.4331 22 20 18.3536 20 13.8889C20 13.5856 19.8623 13.2986 19.6257 13.1088C19.3891 12.9191 19.0792 12.8469 18.7831 12.9127C18.4998 12.9757 18.2269 13.1223 18.0567 13.2161C17.9386 13.2811 17.8562 13.3286 17.7774 13.374L17.7774 13.374L17.7774 13.374C17.6847 13.4274 17.5971 13.4779 17.4626 13.5505C17.0423 13.7774 16.7323 13.8889 16.5 13.8889C16.5045 13.8889 16.5031 13.8885 16.4949 13.8862L16.4949 13.8862C16.4635 13.8775 16.3325 13.8412 16.0565 13.694C15.8076 13.5613 15.5385 13.3945 15.2243 13.1997C15.1401 13.1475 15.0527 13.0933 14.9616 13.0372C14.5529 12.7857 14.0844 12.5063 13.6078 12.2904C13.1397 12.0785 12.5817 11.8889 12 11.8889C11.4183 11.8889 10.8603 12.0785 10.3922 12.2904C9.91557 12.5063 9.44709 12.7857 9.0384 13.0372C8.94728 13.0933 8.85988 13.1475 8.77573 13.1997C8.4615 13.3945 8.19245 13.5613 7.94347 13.694C7.66745 13.8412 7.53652 13.8775 7.50509 13.8862C7.49689 13.8885 7.49546 13.8889 7.5 13.8889C7.26769 13.8889 6.95775 13.7774 6.53743 13.5505C6.40284 13.4779 6.31526 13.4274 6.22259 13.374L6.22246 13.3739C6.16334 13.3398 6.10214 13.3046 6.02533 13.2616C6.14166 11.8659 6.66032 10.7347 7.61662 9.44115C8.3944 8.38907 9.40981 7.29241 10.6997 5.89933C11.1056 5.46093 11.5387 4.99317 12.0001 4.48821C12.2633 4.77608 12.5185 5.05318 12.7654 5.3205C13.1402 5.72619 13.7729 5.75126 14.1785 5.37651C14.5842 5.00175 14.6093 4.36909 14.2346 3.9634C13.7639 3.45388 13.2669 2.91283 12.7433 2.33104ZM12 20C9.28816 20 6.98031 18.1612 6.24478 15.6236C6.61349 15.7709 7.04299 15.8889 7.5 15.8889C8.02194 15.8889 8.52958 15.6481 8.88465 15.4587C9.19707 15.2921 9.53931 15.0798 9.85997 14.8808L9.86 14.8808C9.93702 14.833 10.0128 14.786 10.0866 14.7405C10.4904 14.492 10.8657 14.2715 11.2172 14.1123C11.5772 13.9493 11.8317 13.8889 12 13.8889C12.1683 13.8889 12.4228 13.9493 12.7828 14.1123C13.1343 14.2715 13.5096 14.492 13.9134 14.7405C13.9872 14.786 14.063 14.833 14.14 14.8808C14.4607 15.0798 14.8029 15.2921 15.1153 15.4587C15.4704 15.6481 15.9781 15.8889 16.5 15.8889C16.957 15.8889 17.3865 15.7709 17.7552 15.6236C17.0197 18.1612 14.7118 20 12 20ZM17.1147 3H19.1815C19.4925 3 19.6948 3.35204 19.5557 3.65125L18.4878 5.94875C18.3487 6.24796 18.5509 6.6 18.8619 6.6H20.5808C20.9448 6.6 21.1352 7.06545 20.8892 7.35408L16.93 12L17.7667 8.4H15.4187C15.1331 8.4 14.9315 8.09909 15.0218 7.8077L16.3209 3.6154C16.4348 3.24789 16.7546 3 17.1147 3Z" fill="black"/>
</svg>
