<svg width="24" height="24" viewBox="0 0 24 24" fill="none" xmlns="http://www.w3.org/2000/svg">
<g clip-path="url(#clip0_6219_1203)">
<path fill-rule="evenodd" clip-rule="evenodd" d="M10.2 3.17862C13.3053 2.54456 16.5696 3.60055 18.7102 5.99962H18.4999C17.9476 5.99962 17.4999 6.44733 17.4999 6.99962C17.4999 7.5519 17.9476 7.99962 18.4999 7.99962H20.6599C21.0625 7.99962 21.4259 7.75811 21.5818 7.38687L22.4219 5.38691C22.6357 4.87771 22.3963 4.29155 21.8872 4.07768C21.378 3.86381 20.7918 4.10321 20.5779 4.61241L20.4395 4.94205C17.83 1.81391 13.7104 0.420591 9.79985 1.21904C9.25873 1.32953 8.90963 1.85776 9.02011 2.39888C9.1306 2.94 9.65883 3.2891 10.2 3.17862ZM5.38706 1.57764C4.87785 1.36382 4.29171 1.60328 4.07789 2.11249C3.86406 2.6217 4.10352 3.20784 4.61274 3.42167L4.94191 3.55989C1.81377 6.16944 0.42052 10.2891 1.21912 14.1997C1.32962 14.7409 1.85786 15.0899 2.39898 14.9794C2.9401 14.8689 3.28918 14.3407 3.17867 13.7996C2.54447 10.694 3.60055 7.42951 5.99987 5.28879L5.9999 5.49979C5.99997 6.05207 6.44775 6.49973 7.00003 6.49966C7.55232 6.49958 7.99997 6.05181 7.9999 5.49952L7.99962 3.33923C7.99956 2.93658 7.75803 2.57324 7.38678 2.41735L5.38706 1.57764ZM22.7801 9.79958C22.6696 9.25846 22.1414 8.90938 21.6003 9.01988C21.0592 9.13037 20.7101 9.65861 20.8206 10.1997C21.4547 13.3051 20.3988 16.5693 17.9999 18.71L17.9999 18.4998C18 17.9475 17.5523 17.4997 17 17.4997C16.4477 17.4996 16 17.9472 15.9999 18.4995L15.9996 20.6597C15.9996 21.0625 16.2411 21.426 16.6125 21.5819L18.6128 22.4217C19.122 22.6355 19.7081 22.396 19.9219 21.8868C20.1357 21.3775 19.8962 20.7914 19.387 20.5776L19.0574 20.4393C22.1855 17.8297 23.5787 13.7101 22.7801 9.79958ZM3.33938 15.9996C2.93662 15.9996 2.57316 16.2412 2.41729 16.6126L1.57783 18.6126C1.36408 19.1219 1.60364 19.708 2.11288 19.9217C2.62213 20.1355 3.20823 19.8959 3.42197 19.3867L3.5601 19.0576C6.16972 22.1856 10.2894 23.5788 14.2 22.7801C14.7411 22.6695 15.0902 22.1413 14.9797 21.6002C14.8692 21.0591 14.3409 20.71 13.7998 20.8205C10.6943 21.4548 7.42983 20.3988 5.28905 17.9997L5.49988 17.9997C6.05217 17.9997 6.49989 17.552 6.4999 16.9997C6.49991 16.4474 6.0522 15.9997 5.49992 15.9997L3.33938 15.9996ZM10.8276 7.54553C11.4638 6.81802 12.536 6.81802 13.1722 7.54553C13.278 7.66654 13.3821 7.785 13.4842 7.90117L13.485 7.90206C14.1677 8.67895 14.7609 9.35387 15.1835 10.0116C15.7011 10.8173 15.9999 11.6467 15.9999 12.7057C15.9999 15.0875 14.1996 16.9999 11.9999 16.9999C9.80016 16.9999 7.9999 15.0875 7.9999 12.7057C7.9999 11.6467 8.29867 10.8173 8.81633 10.0116C9.23891 9.35387 9.83206 8.67894 10.5148 7.90205L10.5149 7.90201C10.6172 7.78557 10.7215 7.66684 10.8276 7.54553ZM10.1718 12.0676C10.5031 12.0676 10.7718 12.3596 10.7718 12.7198C10.7718 13.02 10.9107 13.3577 11.1654 13.6318C11.4208 13.9067 11.7332 14.0537 12.0004 14.0537C12.3317 14.0537 12.6004 14.3457 12.6003 14.7058C12.6003 15.066 12.3317 15.358 12.0003 15.358C11.3532 15.358 10.7514 15.0218 10.321 14.5587C9.88999 14.0947 9.57177 13.4394 9.57177 12.7198C9.57177 12.3596 9.8404 12.0676 10.1718 12.0676Z" fill="black"/>
</g>
<defs>
<clipPath id="clip0_6219_1203">
<rect width="24" height="24" fill="white"/>
</clipPath>
</defs>
</svg>
