<svg width="24" height="24" viewBox="0 0 24 24" fill="none" xmlns="http://www.w3.org/2000/svg">
<path fill-rule="evenodd" clip-rule="evenodd" d="M11.9903 4.49867C11.9919 4.49694 11.9927 4.49632 11.9929 4.49621L11.9937 4.49579C11.9946 4.49538 11.997 4.49463 12.0005 4.49463C12.004 4.49463 12.0061 4.49537 12.0066 4.49557L12.0067 4.49561C12.0067 4.49562 12.0067 4.49562 12.0067 4.49561L12.0071 4.49597L12.0087 4.49757C12.2224 4.73129 12.4309 4.95796 12.634 5.17805C13.0085 5.58396 13.6411 5.60942 14.047 5.23492C14.453 4.86042 14.4784 4.22777 14.1039 3.82185C13.9023 3.60328 13.6959 3.37889 13.4847 3.14794C12.6862 2.27466 11.3102 2.2787 10.5143 3.14903C10.0973 3.60502 9.69529 4.0392 9.31 4.45527C7.87443 6.00554 6.6717 7.30436 5.79826 8.54301C4.64566 10.1776 4 11.7897 4 13.8888C4 18.3536 7.56693 21.9999 12 21.9999C16.4331 21.9999 20 18.3536 20 13.8888C20 13.3366 19.5523 12.8888 19 12.8888C18.4477 12.8888 18 13.3366 18 13.8888C18 17.2788 15.2989 19.9999 12 19.9999C8.70108 19.9999 6 17.2788 6 13.8888C6 12.2838 6.46631 11.0661 7.43276 9.69558C8.22228 8.57594 9.30278 7.40844 10.718 5.87927C11.1154 5.4499 11.5391 4.99202 11.9903 4.49867ZM9 13.8889C9 13.3366 8.55228 12.8889 8 12.8889C7.44772 12.8889 7 13.3366 7 13.8889C7 15.2561 7.64087 16.5245 8.53644 17.4367C9.42939 18.3461 10.6734 19 12 19C12.5523 19 13 18.5523 13 18C13 17.4477 12.5523 17 12 17C11.3266 17 10.5706 16.6538 9.96356 16.0355C9.35913 15.4199 9 14.6327 9 13.8889ZM17.1147 2.99995H19.1815C19.4925 2.99995 19.6948 3.35199 19.5557 3.6512L18.4878 5.9487C18.3487 6.24791 18.5509 6.59995 18.8619 6.59995H20.5808C20.9448 6.59995 21.1352 7.0654 20.8892 7.35403L16.93 11.9999L17.7667 8.39995H15.4187C15.1331 8.39995 14.9315 8.09904 15.0218 7.80765L16.3209 3.61534C16.4348 3.24784 16.7546 2.99995 17.1147 2.99995Z" fill="black"/>
</svg>
