<svg width="24" height="24" viewBox="0 0 24 24" fill="none" xmlns="http://www.w3.org/2000/svg">
<path fill-rule="evenodd" clip-rule="evenodd" d="M12.7433 2.33104C12.5537 2.12032 12.2835 2 12 2C11.7165 2 11.4463 2.12032 11.2567 2.33104C10.569 3.09516 9.91257 3.8045 9.30138 4.46495C8.49796 5.33313 7.77271 6.11684 7.15736 6.82944C6.05398 8.10721 5.17454 9.29701 4.62873 10.6182C4.21131 11.6285 4 12.6874 4 13.8889C4 18.3536 7.56693 22 12 22C15.1732 22 17.9047 20.1284 19.1979 17.4325C19.7122 16.3603 20 15.1571 20 13.8889C20 13.3366 19.5523 12.8889 19 12.8889C18.4477 12.8889 18 13.3366 18 13.8889C18 14.661 17.8599 15.3977 17.6048 16.0755C16.7139 16.1482 15.5927 16.092 14.6639 15.7969C14.1064 15.6199 13.6854 15.378 13.413 15.0918C13.1616 14.8277 13 14.4904 13 14C13 12.7505 12.1628 11.72 10.9143 11.0549C9.97331 10.5536 8.72644 10.2096 7.17909 10.0698C7.56877 9.4698 8.06221 8.84169 8.67109 8.13659C9.27618 7.43586 9.95457 6.70333 10.7282 5.86795L10.7283 5.86791C11.126 5.4384 11.549 4.9817 12.0001 4.48816C12.2633 4.77605 12.5185 5.05317 12.7654 5.3205C13.1402 5.72619 13.7729 5.75126 14.1785 5.37651C14.5842 5.00175 14.6093 4.36909 14.2346 3.9634C13.7639 3.45388 13.2669 2.91283 12.7433 2.33104ZM14.0584 17.7031C14.7983 17.9381 15.5973 18.0554 16.3562 18.0915C15.2602 19.2697 13.7111 20 12 20C8.70108 20 6 17.2789 6 13.8889C6 13.1975 6.08678 12.5868 6.25442 12.0137C8.00026 12.0838 9.21126 12.4138 9.97395 12.8201C10.8372 13.28 11 13.7495 11 14C11 15.0096 11.3631 15.839 11.9643 16.4707C12.5446 17.0803 13.3041 17.4635 14.0584 17.7031ZM17.1147 3H19.1815C19.4925 3 19.6948 3.35204 19.5557 3.65125L18.4878 5.94875C18.3487 6.24796 18.5509 6.6 18.8619 6.6H20.5808C20.9448 6.6 21.1352 7.06545 20.8892 7.35408L16.93 12L17.7667 8.4H15.4187C15.1331 8.4 14.9315 8.09909 15.0218 7.8077L16.3209 3.6154C16.4348 3.24789 16.7546 3 17.1147 3Z" fill="black"/>
</svg>
