<svg width="24" height="24" viewBox="0 0 24 24" fill="none" xmlns="http://www.w3.org/2000/svg">
<path fill-rule="evenodd" clip-rule="evenodd" d="M10.9903 4.49858C10.9924 4.49626 10.9934 4.49562 10.9955 4.49471C10.9987 4.49336 11.0064 4.49083 11.019 4.49063C11.0466 4.49021 11.076 4.5009 11.0978 4.52127L11.1533 4.57305L11.1533 4.57306C11.3559 4.76191 11.5315 4.92565 11.7661 5.17912C12.1412 5.58444 12.7739 5.60891 13.1793 5.23377C13.5846 4.85863 13.609 4.22594 13.2339 3.82061C12.9477 3.51134 12.7237 3.30261 12.5197 3.11252L12.5197 3.11252L12.4627 3.05942C11.656 2.3062 10.3211 2.26665 9.51431 3.14894C9.09735 3.60493 8.69529 4.03911 8.31 4.45518C6.87443 6.00546 5.6717 7.30428 4.79826 8.54293C3.64566 10.1775 3 11.7896 3 13.8888C3 18.3535 6.56693 21.9999 11 21.9999C15.4331 21.9999 19 18.3535 19 13.8888C19 13.3365 18.5523 12.8888 18 12.8888C17.4477 12.8888 17 13.3365 17 13.8888C17 17.2787 14.2989 19.9999 11 19.9999C7.70108 19.9999 5 17.2787 5 13.8888C5 12.2837 5.46631 11.0661 6.43276 9.6955C7.22228 8.57585 8.30278 7.40836 9.71801 5.87919C10.1154 5.44982 10.5391 4.99193 10.9903 4.49858ZM16.1147 2.99986H18.1815C18.4925 2.99986 18.6948 3.3519 18.5557 3.65111L17.4878 5.94862C17.3487 6.24782 17.5509 6.59986 17.8619 6.59986H19.5808C19.9448 6.59986 20.1352 7.06531 19.8892 7.35394L15.93 11.9999L16.7667 8.39986H14.4187C14.1331 8.39986 13.9315 8.09895 14.0218 7.80756L15.3209 3.61526C15.4348 3.24775 15.7546 2.99986 16.1147 2.99986Z" fill="black"/>
</svg>
