<svg width="24" height="24" viewBox="0 0 24 24" fill="none" xmlns="http://www.w3.org/2000/svg">
<path fill-rule="evenodd" clip-rule="evenodd" d="M10.7433 2.33104C11.2217 2.86258 11.6829 3.36518 12.1243 3.84336C11.9527 4.04491 11.7927 4.24166 11.6477 4.43231C11.3873 4.7748 11.1469 5.13024 10.935 5.50456C10.6371 5.18251 10.3256 4.84469 10 4.48835C9.53867 4.9932 9.10566 5.46086 8.69982 5.89918L8.69967 5.89933C7.40981 7.29241 6.3944 8.38907 5.61662 9.44115C4.52119 10.9229 4 12.1916 4 13.8889C4 17.2789 6.70108 20 10 20C12.6213 20 14.8652 18.2819 15.6764 15.8754C16.1056 15.9572 16.5482 16 17 16C17.2483 16 17.4939 15.9871 17.736 15.9618C16.8338 19.4292 13.7222 22 10 22C5.56693 22 2 18.3536 2 13.8889C2 11.6588 2.72881 9.98306 4.00838 8.25222C4.85361 7.1089 5.98709 5.88432 7.32871 4.43488C7.93175 3.78338 8.57684 3.08644 9.25671 2.33104C9.44635 2.12032 9.71651 2 10 2C10.2835 2 10.5537 2.12032 10.7433 2.33104ZM6 12.8889C6.55228 12.8889 7 13.3366 7 13.8889C7 14.6327 7.35913 15.4199 7.96356 16.0355C8.57061 16.6538 9.32657 17 10 17C10.5523 17 11 17.4478 11 18C11 18.5523 10.5523 19 9.99999 19C8.67343 19 7.42939 18.3462 6.53644 17.4367C5.64087 16.5246 5 15.2562 5 13.8889C5 13.3366 5.44772 12.8889 6 12.8889ZM17.7338 2.32068C17.5446 2.11623 17.2786 2 17 2C16.7214 2 16.4554 2.11623 16.2662 2.32068C15.8919 2.72492 15.5312 3.1039 15.1901 3.46216L15.19 3.46223C14.4129 4.2786 13.7381 4.98746 13.2397 5.64287C12.4671 6.65893 12 7.68402 12 9.04938C12 11.7952 14.2503 14 17 14C19.7497 14 22 11.7952 22 9.04938C22 7.68402 21.5329 6.65893 20.7603 5.64287C20.2619 4.98747 19.5871 4.27863 18.81 3.46228L18.81 3.46223C18.4689 3.10395 18.1081 2.72495 17.7338 2.32068ZM14 9.04938C14 8.23288 14.2472 7.62216 14.8317 6.85344C15.2611 6.28879 15.8154 5.70687 16.5396 4.94651C16.686 4.79282 16.8394 4.63185 17 4.46225C17.1606 4.63176 17.3138 4.79265 17.4601 4.94626L17.4604 4.9465C18.1846 5.70687 18.7389 6.28879 19.1683 6.85344C19.7528 7.62216 20 8.23288 20 9.04938C20 10.6673 18.6686 12 17 12C15.3314 12 14 10.6673 14 9.04938Z" fill="black"/>
</svg>
