<svg width="24" height="24" viewBox="0 0 24 24" fill="none" xmlns="http://www.w3.org/2000/svg">
<path d="M5.7037 17C6.83971 19.3682 9.23227 21 12 21C15.866 21 19 17.8162 19 13.8889C19 12.8659 18.8304 11.9763 18.5 11.1317M5.7037 17C5.25292 16.0603 5 15.0046 5 13.8889C5 10.1847 7.22393 8.22929 11.2523 3.8239C11.653 3.38567 12.3469 3.38557 12.7476 3.8238C15.6635 7.01264 17.634 8.9178 18.5 11.1317M5.7037 17C4.34074 13.8 7.5 11.375 10 12C12.5 12.625 12.8333 15 13 16C15.4 16 17.6667 12.4211 18.5 11.1317" stroke="black" stroke-width="2" stroke-linecap="round" stroke-linejoin="round"/>
</svg>
