<svg width="24" height="24" viewBox="0 0 24 24" fill="none" xmlns="http://www.w3.org/2000/svg">
<path d="M10.5001 7.67686V4C10.5001 2.89543 11.3955 2 12.5001 2H13.5V7.67686M11.6039 10.9605L8.41955 12.799C7.46296 13.3513 6.23977 13.0236 5.68749 12.067L5.1875 11.201L10.104 8.36241M13.8953 8.36346L17.0797 10.202C18.0363 10.7543 18.3641 11.9775 17.8118 12.9341L17.3118 13.8001L12.3953 10.9615M14 15L15 22H9L10 15M14 9C14 10.1046 13.1046 11 12 11C10.8954 11 10 10.1046 10 9C10 7.89543 10.8954 7 12 7C13.1046 7 14 7.89543 14 9Z" stroke="black" stroke-width="2" stroke-linecap="round" stroke-linejoin="round"/>
</svg>
