<svg width="24" height="24" viewBox="0 0 24 24" fill="none" xmlns="http://www.w3.org/2000/svg">
<path d="M10.5001 8.67686V4C10.5001 3.44771 10.9478 3 11.5001 3H12.5C13.0523 3 13.5 3.44772 13.5 4V8.67686M11.6039 11.9605L7.36002 14.3207C6.88282 14.5861 6.28096 14.4197 6.00795 13.9468L5.50808 13.081C5.22881 12.5973 5.39993 11.9785 5.88807 11.7071L10.1039 9.36241M13.8953 9.36346L18.1116 11.7071C18.5999 11.9786 18.7711 12.5974 18.4918 13.0812L17.9919 13.947C17.7189 14.4198 17.1172 14.5863 16.64 14.321L12.3953 11.9615M13.5 16L14 21H9.99999L10.5 16M14 10C14 11.1046 13.1046 12 12 12C10.8954 12 9.99999 11.1046 9.99999 10C9.99999 8.89543 10.8954 8 12 8C13.1046 8 14 8.89543 14 10Z" stroke="black" stroke-width="2" stroke-linecap="round" stroke-linejoin="round"/>
</svg>
