<svg width="24" height="24" viewBox="0 0 24 24" fill="none" xmlns="http://www.w3.org/2000/svg">
<path d="M14.0009 9.00038C14.0009 10.105 13.1055 11.0004 12.0009 11.0004M14.0009 9.00038C14.0009 7.89581 13.1055 7.00038 12.0009 7.00038M14.0009 9.00038L17.0004 6.00013C17.5526 5.44783 17.5526 4.55249 17.0003 4.00026V4.00026C16.448 3.44792 15.5525 3.44798 15.0002 4.00038L12.0009 7.00038M14.0009 9.00038L17.0006 12.0002C17.5528 12.5525 17.5528 13.4479 17.0005 14.0002V14.0002C16.4482 14.5525 15.5528 14.5525 15.0005 14.0002L12.0009 11.0004M12.0009 11.0004C10.8964 11.0004 10.0009 10.105 10.0009 9.00038M12.0009 11.0004L9 14.0005C8.44769 14.5527 7.55237 14.5526 7.00014 14.0004V14.0004C6.4478 13.448 6.44786 12.5525 7.00027 12.0002L10.0009 9.00038M10.0009 9.00038C10.0009 7.89581 10.8964 7.00038 12.0009 7.00038M10.0009 9.00038L7.00036 6C6.44804 5.44772 6.44803 4.55227 7.00033 3.99997V3.99997C7.5526 3.4477 8.448 3.44768 9.00029 3.99994L12.0009 7.00038M10.5 17.0001L9.65592 20.379C9.57709 20.6945 9.81576 21.0001 10.141 21.0001H13.8597C14.185 21.0001 14.4236 20.6945 14.3448 20.379L13.5007 17.0001" stroke="black" stroke-width="2" stroke-linecap="round" stroke-linejoin="round"/>
</svg>
