<svg width="24" height="24" viewBox="0 0 24 24" fill="none" xmlns="http://www.w3.org/2000/svg">
<path d="M14.0009 8.00038C14.0009 9.10495 13.1055 10.0004 12.0009 10.0004M14.0009 8.00038C14.0009 6.89581 13.1055 6.00038 12.0009 6.00038M14.0009 8.00038L18.0002 4.00013L17.061 3.06092C16.4751 2.47509 15.5253 2.47514 14.9395 3.06105L12.0009 6.00038M14.0009 8.00038L16.9399 10.9396C17.5257 11.5254 17.5256 12.4751 16.9399 13.0609L16.0005 14.0002L12.0009 10.0004M12.0009 10.0004C10.8964 10.0004 10.0009 9.10495 10.0009 8.00038M12.0009 10.0004L9.06066 12.9399C8.47485 13.5255 7.52521 13.5254 6.93948 12.9397L6 12.0002L10.0009 8.00038M10.0009 8.00038C10.0009 6.89581 10.8964 6.00038 12.0009 6.00038M10.0009 8.00038L7.06102 5.06066C6.4752 4.47488 6.47519 3.52511 7.06099 2.93931L8.00029 2L12.0009 6.00038M10.5 16.0001L9.59769 21.418C9.54694 21.7227 9.78195 22.0001 10.0909 22.0001H13.9098C14.2188 22.0001 14.4538 21.7227 14.403 21.418L13.5007 16.0001" stroke="black" stroke-width="2" stroke-linecap="round" stroke-linejoin="round"/>
</svg>
