<svg width="24" height="24" viewBox="0 0 24 24" fill="none" xmlns="http://www.w3.org/2000/svg">
<path d="M8 11.989V12M16 11.978V11.989M10.5 2.21475C5.70212 2.94271 2 7.0465 2 12C2 16.9535 5.70137 21.0573 10.4993 21.7853M10.5 2.21475V2H13.5V2.21475M10.5 2.21475V5.57211M13.5 2.21475C18.2979 2.94271 22 7.0465 22 12C22 16.9535 18.2971 21.0573 13.4993 21.7853M13.5 2.21475V22H10.5V5.57211M10.5 5.57211C7.55005 6.25273 5.33333 8.87229 5.33333 12C5.33333 15.1277 7.5493 17.7473 10.4993 18.4279M13.5 5.57211C16.45 6.25273 18.6667 8.87229 18.6667 12C18.6667 15.1277 16.4492 17.7473 13.4993 18.4279" stroke="black" stroke-width="2" stroke-linecap="round" stroke-linejoin="round"/>
</svg>
