<svg width="24" height="24" viewBox="0 0 24 24" fill="none" xmlns="http://www.w3.org/2000/svg">
<path fill-rule="evenodd" clip-rule="evenodd" d="M3 12C3 7.32587 6.49148 3.45826 11.001 2.95535C11.0243 2.42379 11.4627 2 12 2C12.5373 2 12.9757 2.42379 12.999 2.95535C17.5085 3.45826 21 7.32587 21 12C21 16.6741 17.5085 20.5417 12.999 21.0446C12.9757 21.5762 12.5373 22 12 22C11.4627 22 11.0243 21.5762 11.001 21.0446C6.49148 20.5417 3 16.6741 3 12ZM19 12C19 15.5867 16.3839 18.5363 13 19.028V4.97202C16.3839 5.46367 19 8.41334 19 12ZM11 4.97202V19.028C7.6161 18.5363 5 15.5867 5 12C5 8.41334 7.6161 5.46367 11 4.97202ZM9.5 12C9.5 11.1716 8.82843 10.5 8 10.5C7.17157 10.5 6.5 11.1716 6.5 12V12.01C6.5 12.8384 7.17157 13.51 8 13.51C8.82843 13.51 9.5 12.8384 9.5 12.01V12ZM17.5 12C17.5 11.1716 16.8284 10.5 16 10.5C15.1716 10.5 14.5 11.1716 14.5 12V12.01C14.5 12.8384 15.1716 13.51 16 13.51C16.8284 13.51 17.5 12.8384 17.5 12.01V12Z" fill="black"/>
</svg>
