<svg width="24" height="24" viewBox="0 0 24 24" fill="none" xmlns="http://www.w3.org/2000/svg">
<path d="M21 12H22M21 12C21 14.4853 19.9926 16.7353 18.364 18.364M21 12C21 9.5147 19.9926 7.26469 18.3639 5.63601M12 21V22M12 21C14.4853 21 16.7353 19.9926 18.364 18.364M12 21C9.5147 21 7.26469 19.9926 5.63601 18.3639M3 12H2M3 12C3 9.51472 4.00736 7.26472 5.63604 5.63604M3 12C3 14.4853 4.00735 16.7353 5.63601 18.3639M12 3V2M12 3C9.51472 3 7.26472 4.00736 5.63604 5.63604M12 3C14.4853 3 16.7353 4.00735 18.3639 5.63601M5.63604 5.63604L4.9289 4.9289M18.364 18.364L19.071 19.071M18.3639 5.63601L19.071 4.9289M5.63601 18.3639L4.9289 19.071" stroke="black" stroke-width="2" stroke-linecap="round" stroke-linejoin="round"/>
</svg>
