<svg width="24" height="24" viewBox="0 0 24 24" fill="none" xmlns="http://www.w3.org/2000/svg">
<path d="M20.1 12H21M20.1 12C20.1 14.2368 19.1934 16.2618 17.7276 17.7276M20.1 12C20.1 9.76323 19.1934 7.73822 17.7275 6.27241M12 20.1V21M12 20.1C14.2368 20.1 16.2618 19.1934 17.7276 17.7276M12 20.1C9.76323 20.1 7.73822 19.1934 6.27241 17.7275M3.9 12H3M3.9 12C3.9 9.76325 4.80662 7.73825 6.27244 6.27244M3.9 12C3.9 14.2367 4.80661 16.2617 6.27241 17.7275M12 3.9V3M12 3.9C9.76325 3.9 7.73825 4.80662 6.27244 6.27244M12 3.9C14.2367 3.9 16.2617 4.80661 17.7275 6.27241M6.27244 6.27244L5.63601 5.63601M17.7276 17.7276L20.1 21M17.7275 6.27241L18.3639 5.63601M6.27241 17.7275L4 21" stroke="black" stroke-width="2" stroke-linecap="round" stroke-linejoin="round"/>
</svg>
