<svg width="24" height="24" viewBox="0 0 24 24" fill="none" xmlns="http://www.w3.org/2000/svg">
<path d="M19.2 9.77778H20M19.2 9.77778C19.2 11.7108 18.3941 13.4608 17.0912 14.7275M19.2 9.77778C19.2 7.84477 18.3941 6.09476 17.0911 4.82801M12 16.7778V17.5556M12 16.7778C13.9882 16.7778 15.7882 15.9943 17.0912 14.7275M12 16.7778C10.0118 16.7778 8.21175 15.9943 6.90881 14.7275M4.8 9.77778H4M4.8 9.77778C4.8 7.84478 5.60589 6.09478 6.90883 4.82803M4.8 9.77778C4.8 11.7108 5.60588 13.4608 6.90881 14.7275M12 2.77778V2M12 2.77778C10.0118 2.77778 8.21178 3.56128 6.90883 4.82803M12 2.77778C13.9882 2.77778 15.7882 3.56127 17.0911 4.82801M6.90883 4.82803L6.34312 4.27803M17.0912 14.7275L17.7143 15.3333M17.0911 4.82801L17.6568 4.27803M6.90881 14.7275L6.28571 15.3333M6.34312 22L17.1429 15.3333M17.7143 22L6.85714 15.3333" stroke="black" stroke-width="2" stroke-linecap="round" stroke-linejoin="round"/>
</svg>
