<svg width="24" height="24" viewBox="0 0 24 24" fill="none" xmlns="http://www.w3.org/2000/svg">
<path d="M10.2 11C10.2 12.9361 9.79706 14.6889 9.14558 15.9577M10.2 11C10.2 9.0639 9.79705 7.31109 9.14557 6.04232M10.2 11H11M6.6 18.0112C7.59411 18.0112 8.49411 17.2264 9.14558 15.9577M6.6 18.0112C10.861 19.3575 13.405 19.3014 17.4 18.0112C18.2484 17.7372 19.2941 17.2261 19.9456 15.9574C20.5971 14.6886 21 12.9358 21 10.9997C21 9.06363 20.597 7.31082 19.9456 6.04205C19.2941 4.77328 18.2484 4.26281 17.4 3.98881C13.405 2.69861 10.861 2.64248 6.6 3.98881M6.6 18.0112V19M6.6 18.0112C5.91791 18.0112 5.28012 17.6417 4.73652 17M6.6 3.98881C5.60589 3.98881 4.70589 4.77357 4.05442 6.04234C3.40294 7.31112 3 9.06391 3 11C3 12.9361 3.40294 14.6889 4.0544 15.9576C4.25888 16.3559 4.48785 16.7064 4.73652 17M6.6 3.98881C7.59411 3.98881 8.4941 4.77356 9.14557 6.04232M6.6 3.98881V3M9.14558 15.9577L10 16.5M9.14557 6.04232L10 5.5M14 15.9574L17 21M4.73652 17L3 21" stroke="black" stroke-width="2" stroke-linecap="round" stroke-linejoin="round"/>
</svg>
