<svg width="24" height="24" viewBox="0 0 24 24" fill="none" xmlns="http://www.w3.org/2000/svg">
<path d="M9.02257 2.8265C8.18202 2.60385 7.24326 3.05822 6.40497 3.97281C5.56668 4.88741 4.82887 6.26223 4.39024 7.8805C3.95161 9.49876 3.89519 11.0541 4.15857 12.2605C4.42195 13.4669 5.00514 14.3244 5.84569 14.5471M9.02257 2.8265C9.86311 3.04914 10.4463 3.90663 10.7097 5.11303M9.02257 2.8265C12.9303 2.65548 15.0686 3.27215 18.1542 5.24531C18.8095 5.66434 19.578 6.32522 19.8414 7.53162C20.1048 8.73803 20.0484 10.2934 19.6098 11.9116C19.1711 13.5299 18.4333 14.9047 17.595 15.8193C16.7567 16.7339 15.7568 16.9269 14.9774 16.9659C11.3072 17.1495 9.14343 16.6267 5.84569 14.5471M9.02257 2.8265L9.24659 2M10.478 9.49305C10.0394 11.1113 9.30158 12.4861 8.46329 13.4007M10.478 9.49305C10.9167 7.87476 10.9731 6.31944 10.7097 5.11303M10.478 9.49305L11.1544 9.67222M8.46329 13.4007C7.625 14.3153 6.68624 14.7697 5.84569 14.5471M8.46329 13.4007L9.06285 14.0454M5.84569 14.5471L5.62167 15.3736M10.7097 5.11303L11.555 4.8511M14 13L9.5 17M4 22L9.5 17M9.5 17L15 22" stroke="black" stroke-width="2" stroke-linecap="round" stroke-linejoin="round"/>
</svg>
