<svg width="24" height="24" viewBox="0 0 24 24" fill="none" xmlns="http://www.w3.org/2000/svg">
<path d="M10 12C10 13.9361 9.55228 15.6889 8.82843 16.9577M10 12C10 10.0639 9.55228 8.31109 8.82841 7.04232M10 12H10.8889M6 19.0112C7.10457 19.0112 8.10457 18.2264 8.82843 16.9577M6 19.0112C4.89542 19.0112 3.89542 18.2264 3.17156 16.9576C2.44771 15.6889 2 13.9361 2 12C2 10.0639 2.44772 8.31112 3.17157 7.04234C3.89543 5.77357 4.89543 4.98881 6 4.98881M6 19.0112C10.7344 20.3575 13.5611 20.3014 18 19.0112C18.9427 18.7372 20.1046 18.2261 20.8284 16.9574C21.5523 15.6886 22 13.9358 22 11.9997C22 10.0636 21.5523 8.31082 20.8284 7.04205C20.1046 5.77328 18.9427 5.26281 18 4.98881C13.5611 3.69861 10.7344 3.64248 6 4.98881M6 19.0112V20M6 4.98881C7.10456 4.98881 8.10456 5.77356 8.82841 7.04232M6 4.98881V4M8.82843 16.9577L9.77778 17.5M8.82841 7.04232L9.77778 6.5" stroke="black" stroke-width="2" stroke-linecap="round" stroke-linejoin="round"/>
</svg>
