<svg width="24" height="24" viewBox="0 0 24 24" fill="none" xmlns="http://www.w3.org/2000/svg">
<path d="M13.1703 2H10.8297C9.88314 2 9.1732 2.86599 9.35884 3.79418L9.85291 6.26456C9.92288 6.61443 9.61442 6.92288 9.26456 6.85291L6.79417 6.35883C5.86599 6.1732 5 6.88314 5 7.82971V10.1703C5 11.1169 5.86599 11.8268 6.79418 11.6412L9.34337 11.1313C9.6711 11.0658 9.96963 11.334 9.93937 11.6669L9.14871 20.3642C9.06885 21.2426 9.7605 22 10.6425 22H13.3575C14.2395 22 14.9311 21.2426 14.8513 20.3642L14.0606 11.6669C14.0304 11.334 14.3289 11.0658 14.6566 11.1313L17.2058 11.6412C18.134 11.8268 19 11.1169 19 10.1703V7.82971C19 6.88314 18.134 6.1732 17.2058 6.35884L14.7354 6.85291C14.3856 6.92288 14.0771 6.61442 14.1471 6.26456L14.6412 3.79417C14.8268 2.86599 14.1169 2 13.1703 2Z" stroke="black" stroke-width="2" stroke-linecap="round" stroke-linejoin="round"/>
</svg>
