<svg width="24" height="24" viewBox="0 0 24 24" fill="none" xmlns="http://www.w3.org/2000/svg">
<path d="M14 8V10C14 11.1046 14.8954 12 16 12C17.1046 12 18 11.1046 18 10V8C18 7.29873 17.8797 6.62556 17.6586 6M14 8C14 6.89543 13.1046 6 12 6M14 8L17.6586 6M12 6V2M12 6C10.8954 6 10 6.89543 10 8M12 2C14.6124 2 16.8349 3.66962 17.6586 6M12 2C9.38756 2 7.16508 3.66962 6.34141 6M10 18V20C10 21.1046 9.10457 22 8 22C6.89543 22 6 21.1046 6 20V15.5M10 18L6 15.5M10 18V13M6 15.5V10.5M10 13V8M10 13L6 10.5M10 8L6.34141 6M6 10.5V8C6 7.29873 6.12031 6.62556 6.34141 6" stroke="black" stroke-width="2" stroke-linecap="round" stroke-linejoin="round"/>
</svg>
