<svg width="24" height="24" viewBox="0 0 24 24" fill="none" xmlns="http://www.w3.org/2000/svg">
<path d="M14 6.5V4.62132C14 4.2235 13.842 3.84197 13.5607 3.56066L12.3536 2.35355C12.1583 2.15829 11.8417 2.15829 11.6464 2.35355L10.4393 3.56066C10.158 3.84196 10 4.2235 10 4.62132V6.5C10 6.77614 9.77614 7 9.5 7H7.62132C7.2235 7 6.84197 7.15803 6.56066 7.43934L5.35355 8.64645C5.15829 8.84171 5.15829 9.15829 5.35355 9.35355L6.56066 10.5607C6.84196 10.842 7.2235 11 7.62132 11H9.5C9.77614 11 10 11.2239 10 11.5V19.3787C10 19.7765 10.158 20.158 10.4393 20.4393L11.6464 21.6464C11.8417 21.8417 12.1583 21.8417 12.3536 21.6464L13.5607 20.4393C13.842 20.158 14 19.7765 14 19.3787V11.5C14 11.2239 14.2239 11 14.5 11H16.3787C16.7765 11 17.158 10.842 17.4393 10.5607L18.6464 9.35355C18.8417 9.15829 18.8417 8.84171 18.6464 8.64645L17.4393 7.43934C17.158 7.15804 16.7765 7 16.3787 7H14.5C14.2239 7 14 6.77614 14 6.5Z" stroke="black" stroke-width="2" stroke-linecap="round" stroke-linejoin="round"/>
</svg>
