<svg width="24" height="24" viewBox="0 0 24 24" fill="none" xmlns="http://www.w3.org/2000/svg">
<path fill-rule="evenodd" clip-rule="evenodd" d="M5 10C5 6.13401 8.13401 3 12 3C15.866 3 19 6.13401 19 10V20C19 20.5523 18.5523 21 18 21H6C5.44772 21 5 20.5523 5 20V10ZM12 1C7.02944 1 3 5.02944 3 10V20C3 21.6569 4.34315 23 6 23H18C19.6569 23 21 21.6569 21 20V10C21 5.02944 16.9706 1 12 1ZM13.1429 7.9V9.3C13.1429 9.41046 13.2324 9.5 13.3429 9.5H14.6429C14.7797 9.5 14.9106 9.55608 15.0049 9.65517L15.8686 10.5621C15.9422 10.6393 15.9422 10.7607 15.8686 10.8379L15.0049 11.7448C14.9106 11.8439 14.7797 11.9 14.6429 11.9H13.3429C13.2324 11.9 13.1429 11.9895 13.1429 12.1V17.1C13.1429 17.2284 13.0935 17.3519 13.0049 17.4448L12.1448 18.3479C12.066 18.4307 11.934 18.4307 11.8552 18.3479L10.9951 17.4448C10.9065 17.3519 10.8571 17.2284 10.8571 17.1V12.1C10.8571 11.9895 10.7676 11.9 10.6571 11.9H9.35714C9.2203 11.9 9.08945 11.8439 8.99507 11.7448L8.13136 10.8379C8.0578 10.7607 8.0578 10.6393 8.13136 10.5621L8.99507 9.65517C9.08945 9.55608 9.2203 9.5 9.35714 9.5H10.6571C10.7676 9.5 10.8571 9.41046 10.8571 9.3V7.9C10.8571 7.77161 10.9065 7.64814 10.9951 7.55517L11.8552 6.65207C11.934 6.56931 12.066 6.56931 12.1448 6.65207L13.0049 7.55517C13.0935 7.64814 13.1429 7.77161 13.1429 7.9Z" fill="black"/>
</svg>
