<svg width="24" height="24" viewBox="0 0 24 24" fill="none" xmlns="http://www.w3.org/2000/svg">
<path d="M12.5 2H11.5C10.6716 2 10 2.67157 10 3.5V6.5C10 6.77614 9.77614 7 9.5 7H6.5C5.67157 7 5 7.67157 5 8.5V9.5C5 10.3284 5.67157 11 6.5 11H9.5C9.77614 11 10 11.2239 10 11.5V20.5C10 21.3284 10.6716 22 11.5 22H12.5C13.3284 22 14 21.3284 14 20.5V11.5C14 11.2239 14.2239 11 14.5 11H17.5C18.3284 11 19 10.3284 19 9.5V8.5C19 7.67157 18.3284 7 17.5 7H14.5C14.2239 7 14 6.77614 14 6.5V3.5C14 2.67157 13.3284 2 12.5 2Z" stroke="black" stroke-width="2" stroke-linecap="round" stroke-linejoin="round"/>
</svg>
