<svg width="24" height="24" viewBox="0 0 24 24" fill="none" xmlns="http://www.w3.org/2000/svg">
<path fill-rule="evenodd" clip-rule="evenodd" d="M5 10C5 6.13401 8.13401 3 12 3C15.866 3 19 6.13401 19 10V20C19 20.5523 18.5523 21 18 21H6C5.44772 21 5 20.5523 5 20V10ZM12 1C7.02944 1 3 5.02944 3 10V20C3 21.6569 4.34315 23 6 23H18C19.6569 23 21 21.6569 21 20V10C21 5.02944 16.9706 1 12 1ZM11.1247 7.55952L12.8499 6.65381C12.9831 6.58389 13.1429 6.68048 13.1429 6.83089V9.3C13.1429 9.41046 13.2324 9.5 13.3429 9.5H14.5414C14.7343 9.5 14.91 9.61091 14.9929 9.78503L15.8638 11.614C15.927 11.7467 15.8302 11.9 15.6832 11.9H13.3429C13.2324 11.9 13.1429 11.9895 13.1429 12.1V16.9978C13.1429 17.1836 13.0398 17.3541 12.8753 17.4405L11.1501 18.3462C11.0169 18.4161 10.8571 18.3195 10.8571 18.1691V12.1C10.8571 11.9895 10.7676 11.9 10.6571 11.9H9.45856C9.2657 11.9 9.09004 11.7891 9.00713 11.615L8.13618 9.78599C8.07298 9.65327 8.16976 9.5 8.31676 9.5H10.6571C10.7676 9.5 10.8571 9.41046 10.8571 9.3V8.00222C10.8571 7.81639 10.9602 7.6459 11.1247 7.55952Z" fill="black"/>
</svg>
