<svg width="24" height="24" viewBox="0 0 24 24" fill="none" xmlns="http://www.w3.org/2000/svg">
<path fill-rule="evenodd" clip-rule="evenodd" d="M5 10C5 6.13401 8.13401 3 12 3C15.866 3 19 6.13401 19 10V20C19 20.5523 18.5523 21 18 21H6C5.44772 21 5 20.5523 5 20V10ZM12 1C7.02944 1 3 5.02944 3 10V20C3 21.6569 4.34315 23 6 23H18C19.6569 23 21 21.6569 21 20V10C21 5.02944 16.9706 1 12 1ZM13.1429 7.64286V9.3C13.1429 9.41046 13.2324 9.5 13.3429 9.5H14.8C15.4627 9.5 16 10.0373 16 10.7C16 11.3627 15.4627 11.9 14.8 11.9H13.3429C13.2324 11.9 13.1429 11.9895 13.1429 12.1V17.3571C13.1429 17.9883 12.6312 18.5 12 18.5C11.3688 18.5 10.8571 17.9883 10.8571 17.3571V12.1C10.8571 11.9895 10.7676 11.9 10.6571 11.9H9.2C8.53726 11.9 8 11.3627 8 10.7C8 10.0373 8.53726 9.5 9.2 9.5H10.6571C10.7676 9.5 10.8571 9.41046 10.8571 9.3V7.64286C10.8571 7.01167 11.3688 6.5 12 6.5C12.6312 6.5 13.1429 7.01167 13.1429 7.64286Z" fill="black"/>
</svg>
