<svg width="24" height="24" viewBox="0 0 24 24" fill="none" xmlns="http://www.w3.org/2000/svg">
<path d="M7.23713 7.29789C6.78734 7.73256 6.1749 8 5.5 8C4.11929 8 3 6.88071 3 5.5C3 4.11929 4.11929 3 5.5 3C6.1749 3 6.78734 3.26744 7.23713 3.70211C7.47055 3.9277 7.66017 4.19833 7.79198 4.5M7.23713 7.29789C7.70751 6.8433 8 6.20581 8 5.5C8 5.14445 7.92578 4.80623 7.79198 4.5M7.23713 7.29789L8.4276 7.6495C9.97169 8.10556 10.0977 10.2439 8.61782 10.8781C6.94166 11.5964 5.61951 12.9512 4.94224 14.6444L4 17M20 17C18.5297 8.65116 16.042 5.84661 7.79198 4.5M4.5 21H19.5C20.3284 21 21 20.3284 21 19.5V18.5C21 17.6716 20.3284 17 19.5 17H4.5C3.67157 17 3 17.6716 3 18.5V19.5C3 20.3284 3.67157 21 4.5 21Z" stroke="black" stroke-width="2" stroke-linecap="round" stroke-linejoin="round"/>
</svg>
