<svg width="24" height="24" viewBox="0 0 24 24" fill="none" xmlns="http://www.w3.org/2000/svg">
<path d="M19 7C20.1046 7 21 6.10457 21 5C21 3.89543 20.1046 3 19 3C17.8954 3 17 3.89543 17 5M19 7C17.8954 7 17 6.10457 17 5M19 7V8C19 9.48056 18.1956 10.7733 17 11.4649M17 5H14C9.58172 5 6 8.58172 6 13V16M13 12H15C15.7286 12 16.4117 11.8052 17 11.4649M18 16L17 11.4649M3 19V18C3 16.8954 3.89543 16 5 16H19C20.1046 16 21 16.8954 21 18V19C21 20.1046 20.1046 21 19 21H5C3.89543 21 3 20.1046 3 19Z" stroke="black" stroke-width="2" stroke-linecap="round" stroke-linejoin="round"/>
</svg>
