<svg width="24" height="24" viewBox="0 0 24 24" fill="none" xmlns="http://www.w3.org/2000/svg">
<path fill-rule="evenodd" clip-rule="evenodd" d="M5 10C5 6.13401 8.13401 3 12 3C15.866 3 19 6.13401 19 10V20C19 20.5523 18.5523 21 18 21H6C5.44772 21 5 20.5523 5 20V10ZM12 1C7.02944 1 3 5.02944 3 10V20C3 21.6569 4.34315 23 6 23H18C19.6569 23 21 21.6569 21 20V10C21 5.02944 16.9706 1 12 1ZM10.8571 7C10.8571 6.72386 11.081 6.5 11.3571 6.5H12.6429C12.919 6.5 13.1429 6.72386 13.1429 7V9.3C13.1429 9.41046 13.2324 9.5 13.3429 9.5H15.5C15.7761 9.5 16 9.72386 16 10V11.4C16 11.6761 15.7761 11.9 15.5 11.9H13.3429C13.2324 11.9 13.1429 11.9895 13.1429 12.1V18C13.1429 18.2761 12.919 18.5 12.6429 18.5H11.3571C11.081 18.5 10.8571 18.2761 10.8571 18V12.1C10.8571 11.9895 10.7676 11.9 10.6571 11.9H8.5C8.22386 11.9 8 11.6761 8 11.4V10C8 9.72386 8.22386 9.5 8.5 9.5H10.6571C10.7676 9.5 10.8571 9.41046 10.8571 9.3V7Z" fill="black"/>
</svg>
