<svg width="24" height="24" viewBox="0 0 24 24" fill="none" xmlns="http://www.w3.org/2000/svg">
<path d="M5.5 4.63726C5.13353 4.24647 4.59735 4 4 4C2.89543 4 2 4.84276 2 5.88235C2 6.92195 2.89543 7.76471 4 7.76471C4.59735 7.76471 5.13353 7.51823 5.5 7.12745M5.5 4.63726C5.81118 4.96909 6 5.40497 6 5.88235C6 6.35974 5.81118 6.79562 5.5 7.12745M5.5 4.63726H8C14.6274 4.63726 20 9.69381 20 15.9314V16.2353M20 16.2353H5M20 16.2353H20.5C21.3284 16.2353 22 16.9069 22 17.7353V18.5C22 19.3284 21.3284 20 20.5 20H4.5C3.67157 20 3 19.3284 3 18.5V17.7353C3 16.9069 3.67157 16.2353 4.5 16.2353H5M5 16.2353V15.2941C5 13.7347 6.34315 12.4706 8 12.4706H13M5.5 7.12745C7.98105 8.63563 7.84116 10.6456 7 12.4706" stroke="black" stroke-width="2" stroke-linecap="round" stroke-linejoin="round"/>
</svg>
