<svg width="24" height="24" viewBox="0 0 24 24" fill="none" xmlns="http://www.w3.org/2000/svg">
<path d="M20.3229 17.5C20.7381 17.8665 21 18.4027 21 19C21 20.1046 20.1046 21 19 21C17.8954 21 17 20.1046 17 19C17 18.6357 17.0974 18.2942 17.2676 18M20.3229 17.5C19.9703 17.1888 19.5072 17 19 17C18.2597 17 17.6134 17.4022 17.2676 18M20.3229 17.5V10.6615C20.3229 6.43015 16.8928 3 12.6615 3C8.43015 3 5 6.43015 5 10.6615V13M5 13H4.5C3.67157 13 3 13.6716 3 14.5C3 15.3284 3.67157 16 4.5 16H17.2676M5 13H17.2676M17.2676 18V16M17.2676 16V13M17.2676 13V11" stroke="black" stroke-width="2" stroke-linecap="round" stroke-linejoin="round"/>
</svg>
