<svg width="24" height="24" viewBox="0 0 24 24" fill="none" xmlns="http://www.w3.org/2000/svg">
<path d="M13.2764 2.3618L10.5528 3.72361C10.214 3.893 10 4.23926 10 4.61803V6.5C10 6.77614 9.77614 7 9.5 7H5.80902C5.43733 7 5.19558 7.39116 5.3618 7.72361L6.72361 10.4472C6.893 10.786 7.23926 11 7.61803 11H9.5C9.77614 11 10 11.2239 10 11.5V21.191C10 21.5627 10.3912 21.8044 10.7236 21.6382L13.4472 20.2764C13.786 20.107 14 19.7607 14 19.382V11.5C14 11.2239 14.2239 11 14.5 11H18.191C18.5627 11 18.8044 10.6088 18.6382 10.2764L17.2764 7.55279C17.107 7.214 16.7607 7 16.382 7H14.5C14.2239 7 14 6.77614 14 6.5V2.80902C14 2.43733 13.6088 2.19558 13.2764 2.3618Z" stroke="black" stroke-width="2" stroke-linecap="round" stroke-linejoin="round"/>
</svg>
