<svg width="24" height="24" viewBox="0 0 24 24" fill="none" xmlns="http://www.w3.org/2000/svg">
<path d="M14 6.5V4C14 2.89543 13.1046 2 12 2C10.8954 2 10 2.89543 10 4V6.5C10 6.77614 9.77614 7 9.5 7H7C5.89543 7 5 7.89543 5 9C5 10.1046 5.89543 11 7 11H9.5C9.77614 11 10 11.2239 10 11.5V20C10 21.1046 10.8954 22 12 22C13.1046 22 14 21.1046 14 20V11.5C14 11.2239 14.2239 11 14.5 11H17C18.1046 11 19 10.1046 19 9C19 7.89543 18.1046 7 17 7H14.5C14.2239 7 14 6.77614 14 6.5Z" stroke="black" stroke-width="2" stroke-linecap="round" stroke-linejoin="round"/>
</svg>
