<svg width="24" height="24" viewBox="0 0 24 24" fill="none" xmlns="http://www.w3.org/2000/svg">
<path d="M16.5 3.99976C16.9561 3.39267 17.6822 3 18.5 3C19.8807 3 21 4.11929 21 5.5C21 6.88071 19.8807 8 18.5 8C17.9371 8 17.4176 7.81396 16.9998 7.5M16.5 3.99976C16.186 4.41763 16 4.93709 16 5.5C16 6.3178 16.3927 7.04389 16.9998 7.5M16.5 3.99976H16C9.92487 3.99976 5 8.92462 5 14.9998V17M19 17C18.6167 14.2787 17.5 12 16 10C15.2945 9.05929 15.4838 8.07422 16.9998 7.5M21 18.5V19.5C21 20.3284 20.3284 21 19.5 21H4.5C3.67157 21 3 20.3284 3 19.5V18.5C3 17.6716 3.67157 17 4.5 17H19.5C20.3284 17 21 17.6716 21 18.5Z" stroke="black" stroke-width="2" stroke-linecap="round" stroke-linejoin="round"/>
</svg>
