<svg width="24" height="24" viewBox="0 0 24 24" fill="none" xmlns="http://www.w3.org/2000/svg">
<path fill-rule="evenodd" clip-rule="evenodd" d="M5 10C5 6.13401 8.13401 3 12 3C15.866 3 19 6.13401 19 10V20C19 20.5523 18.5523 21 18 21H6C5.44772 21 5 20.5523 5 20V10ZM12 1C7.02944 1 3 5.02944 3 10V20C3 21.6569 4.34315 23 6 23H18C19.6569 23 21 21.6569 21 20V10C21 5.02944 16.9706 1 12 1ZM10.3988 7.09356C10.3401 6.78544 10.5763 6.5 10.8899 6.5H13.1101C13.4237 6.5 13.6599 6.78544 13.6012 7.09356L13.199 9.20516C13.1723 9.34539 13.2969 9.46765 13.4366 9.43832L15.3972 9.02658C15.7079 8.96133 16 9.19842 16 9.51591V11.8841C16 12.2016 15.7079 12.4387 15.3972 12.3734L13.4064 11.9554C13.2752 11.9278 13.1545 12.0347 13.1661 12.1683L13.6673 17.9569C13.6925 18.2489 13.4623 18.5 13.1691 18.5H10.8309C10.5377 18.5 10.3075 18.2489 10.3327 17.9569L10.8339 12.1683C10.8455 12.0347 10.7248 11.9278 10.5936 11.9554L8.60276 12.3734C8.29205 12.4387 8 12.2016 8 11.8841V9.51591C8 9.19842 8.29205 8.96133 8.60276 9.02658L10.5634 9.43832C10.7031 9.46766 10.8277 9.34539 10.801 9.20516L10.3988 7.09356Z" fill="black"/>
</svg>
