<svg width="24" height="24" viewBox="0 0 24 24" fill="none" xmlns="http://www.w3.org/2000/svg">
<path fill-rule="evenodd" clip-rule="evenodd" d="M12.2649 2.18685L12.5975 3.05144C12.6383 3.15753 12.7337 3.22988 12.843 3.23761L13.7336 3.30064C13.9902 3.3188 14.0946 3.65423 13.8972 3.82636L13.2122 4.42374C13.1282 4.49704 13.0917 4.61409 13.1185 4.72497L13.3362 5.62851C13.399 5.88887 13.1256 6.09617 12.9078 5.95343L12.1518 5.45803C12.059 5.39724 11.9411 5.39724 11.8483 5.45803L11.0923 5.95342C10.8745 6.09617 10.6011 5.88887 10.6639 5.62851L10.8816 4.72497C10.9084 4.61409 10.8719 4.49704 10.7879 4.42374L10.1029 3.82636C9.90548 3.65423 10.0099 3.3188 10.2665 3.30064L11.1571 3.23761C11.2664 3.22988 11.3618 3.15753 11.4026 3.05144L11.7353 2.18685C11.8311 1.93772 12.169 1.93772 12.2649 2.18685ZM14.2812 8.25183C13.1112 6.78939 10.8869 6.78939 9.71698 8.25183L7.98843 10.4125C7.55659 10.9523 7.54724 11.6266 7.82395 12.1515L6.16488 14.2048C5.67214 14.8146 5.68288 15.5868 6.02687 16.165L5.42418 16.8538C4.00981 18.4702 5.15776 21 7.30565 21H10.9991L10.9991 22C10.9991 22.5523 11.4468 23 11.9991 23C12.5514 23 12.9991 22.5523 12.9991 22L12.9991 21H16.6935C18.8414 21 19.9893 18.4702 18.5749 16.8538L17.9723 16.165C18.3162 15.5868 18.327 14.8146 17.8342 14.2048L16.175 12.1513C16.4514 11.6266 16.4419 10.9528 16.0103 10.4133L14.2812 8.25183ZM8.09363 15L9.70967 13H14.2894L15.9055 15H8.09363ZM6.92935 18.1708L7.95373 17H16.0454L17.0698 18.1708C17.3526 18.494 17.123 19 16.6935 19H11.9991H7.30565C6.87607 19 6.64648 18.494 6.92935 18.1708ZM13.9184 11H10.0797L11.2787 9.50122C11.648 9.0396 12.3501 9.0396 12.7194 9.50122L13.9184 11Z" fill="black"/>
</svg>
