<svg width="24" height="24" viewBox="0 0 24 24" fill="none" xmlns="http://www.w3.org/2000/svg">
<path d="M15 19C11.134 19 8 15.866 8 12C8 8.13401 11.134 5 15 5C18.866 5 21 7 22 10C21 5 17.5228 2 12 2C6.47715 2 2 6.47715 2 12C2 17.5228 6.47715 22 12 22C17.5228 22 21 19 22 14C21 17 18.866 19 15 19ZM15 19V15M15 15C15 15 13.3493 14.0479 13 13C12.5723 11.7169 14.0065 10.0222 14.6753 9.32293C14.8547 9.13532 15.1453 9.13532 15.3247 9.32293C15.9935 10.0222 17.4277 11.7169 17 13C16.6507 14.0479 15 15 15 15Z" stroke="black" stroke-width="2" stroke-linecap="round" stroke-linejoin="round"/>
</svg>
