<svg width="24" height="24" viewBox="0 0 24 24" fill="none" xmlns="http://www.w3.org/2000/svg">
<path d="M15.9993 16.0093C14.8899 17.1164 13.4359 17.67 11.9819 17.67M15.9993 16.0093C17.1086 14.9022 17.6633 13.4511 17.6633 12M15.9993 16.0093L13.321 13.3364M15.9993 16.0093L19 19M11.9819 17.67C10.5279 17.67 9.07394 17.1164 7.96458 16.0093M11.9819 17.67V13.89M11.9819 17.67L12 22M7.96458 16.0093C6.85522 14.9022 6.30054 13.4511 6.30054 12M7.96458 16.0093L10.6428 13.3364M7.96458 16.0093L5 19M15.9993 7.9907C17.1086 9.09784 17.6633 10.5489 17.6633 12M15.9993 7.9907C14.8899 6.88357 13.4359 6.33 11.9819 6.33M15.9993 7.9907L13.321 10.6636M15.9993 7.9907L19 5M17.6633 12H13.8757M17.6633 12H22M7.96458 7.9907C9.07394 6.88357 10.5279 6.33 11.9819 6.33M7.96458 7.9907C6.85522 9.09784 6.30054 10.5489 6.30054 12M7.96458 7.9907L10.6428 10.6636M7.96458 7.9907L5 5M11.9819 6.33V10.11M11.9819 6.33L12 2M6.30054 12H10.0881M6.30054 12H2M13.321 10.6636C12.9513 10.2945 12.4666 10.11 11.9819 10.11M13.321 10.6636C13.6908 11.0326 13.8757 11.5163 13.8757 12M13.321 13.3364C12.9513 13.7055 12.4666 13.89 11.9819 13.89M13.321 13.3364C13.6908 12.9674 13.8757 12.4837 13.8757 12M10.6428 13.3364C11.0126 13.7055 11.4973 13.89 11.9819 13.89M10.6428 13.3364C10.273 12.9674 10.0881 12.4837 10.0881 12M10.6428 10.6636C11.0126 10.2945 11.4973 10.11 11.9819 10.11M10.6428 10.6636C10.273 11.0326 10.0881 11.5163 10.0881 12M12 21C16.9705 21 21 16.9606 21 12C21 7.0394 16.9706 3 12 3C7.04356 3 3.01992 7.01743 3.00007 11.9639C2.98012 16.9386 7.0153 21 12 21Z" stroke="black" stroke-width="2" stroke-linecap="round" stroke-linejoin="round"/>
</svg>
