<svg width="24" height="24" viewBox="0 0 24 24" fill="none" xmlns="http://www.w3.org/2000/svg">
<path d="M16.4557 16.4548C15.2256 17.6849 13.6132 18.3 12.0009 18.3M16.4557 16.4548C17.6859 15.2246 18.3009 13.6123 18.3009 12M16.4557 16.4548L13.4859 13.4849M16.4557 16.4548L16.9009 16.9M12.0009 18.3C10.3886 18.3 8.77631 17.6849 7.54616 16.4548M12.0009 18.3V14.1M12.0009 18.3V19M7.54616 16.4548C6.31601 15.2246 5.70093 13.6123 5.70093 12M7.54616 16.4548L10.516 13.4849M7.54616 16.4548L7.10093 16.9M16.4557 7.54523C17.6859 8.77538 18.3009 10.3877 18.3009 12M16.4557 7.54523C15.2256 6.31508 13.6132 5.7 12.0009 5.7M16.4557 7.54523L13.4859 10.5151M16.4557 7.54523L16.9009 7.1M18.3009 12H14.1009M18.3009 12H19.0009M7.54616 7.54523C8.77631 6.31508 10.3886 5.7 12.0009 5.7M7.54616 7.54523C6.31601 8.77538 5.70093 10.3877 5.70093 12M7.54616 7.54523L10.516 10.5151M7.54616 7.54523L7.10093 7.1M12.0009 5.7V9.9M12.0009 5.7V5M5.70093 12H9.90093M5.70093 12H5.00093M13.4859 10.5151C13.0758 10.105 12.5384 9.9 12.0009 9.9M13.4859 10.5151C13.8959 10.9251 14.1009 11.4626 14.1009 12M13.4859 13.4849C13.0758 13.895 12.5384 14.1 12.0009 14.1M13.4859 13.4849C13.8959 13.0749 14.1009 12.5374 14.1009 12M10.516 13.4849C10.9261 13.895 11.4635 14.1 12.0009 14.1M10.516 13.4849C10.106 13.0749 9.90093 12.5374 9.90093 12M10.516 10.5151C10.9261 10.105 11.4635 9.9 12.0009 9.9M10.516 10.5151C10.106 10.9251 9.90093 11.4626 9.90093 12M12.0209 22C17.5327 22 22.0009 17.5118 22.0009 12C22.0009 6.48822 17.5328 2 12.021 2C6.52485 2 2.0631 6.46381 2.0411 11.9599C2.01897 17.4873 6.49352 22 12.0209 22Z" stroke="black" stroke-width="2" stroke-linecap="round" stroke-linejoin="round"/>
</svg>
