<svg width="24" height="24" viewBox="0 0 24 24" fill="none" xmlns="http://www.w3.org/2000/svg">
<g clip-path="url(#clip0_6315_1281)">
<path fill-rule="evenodd" clip-rule="evenodd" d="M13.5 2C13.5 1.17157 12.8284 0.5 12 0.5C11.1716 0.5 10.5 1.17157 10.5 2V2.01C10.5 2.45425 10.6931 2.85339 11 3.12805V3.86084C9.55788 4.03702 8.1536 4.59584 6.95151 5.5373L6.49821 5.08399C6.4994 5.05948 6.5 5.03481 6.5 5.01V5C6.5 4.17157 5.82843 3.5 5 3.5C4.17157 3.5 3.5 4.17157 3.5 5V5.01C3.5 5.83843 4.17157 6.51 5 6.51C5.03122 6.51 5.06221 6.50905 5.09295 6.50717L5.5373 6.95151C4.59584 8.1536 4.03702 9.55788 3.86084 11H3.12805C2.85339 10.6931 2.45425 10.5 2.01 10.5H2C1.17157 10.5 0.5 11.1716 0.5 12C0.5 12.8284 1.17157 13.5 2 13.5H2.01C2.45425 13.5 2.85339 13.3069 3.12805 13H3.86084C4.03702 14.4421 4.59584 15.8464 5.5373 17.0485L5.0835 17.5023C5.05586 17.5008 5.02802 17.5 5 17.5C4.17157 17.5 3.5 18.1716 3.5 19V19.01C3.5 19.8384 4.17157 20.51 5 20.51C5.82843 20.51 6.5 19.8384 6.5 19.01V19C6.5 18.972 6.49923 18.9441 6.49771 18.9165L6.95151 18.4627C8.1536 19.4042 9.55788 19.963 11 20.1392V20.8819C10.6931 21.1566 10.5 21.5557 10.5 22C10.5 22.8284 11.1716 23.5 12 23.5H12.01C12.8384 23.5 13.51 22.8284 13.51 22C13.51 21.5509 13.3127 21.148 13 20.8731V20.1392C14.4421 19.963 15.8464 19.4042 17.0485 18.4627L17.5023 18.9165C17.5008 18.9441 17.5 18.972 17.5 19V19.01C17.5 19.8384 18.1716 20.51 19 20.51C19.8284 20.51 20.5 19.8384 20.5 19.01V19C20.5 18.1716 19.8284 17.5 19 17.5C18.972 17.5 18.9441 17.5008 18.9165 17.5023L18.4627 17.0485C19.4042 15.8464 19.963 14.4421 20.1392 13H20.8719C20.8904 13.0206 20.9095 13.0408 20.9293 13.0607L20.9393 13.0707C21.5251 13.6564 22.4749 13.6564 23.0607 13.0707C23.6464 12.4849 23.6464 11.5351 23.0607 10.9493L23.0507 10.9393C22.4649 10.3536 21.5151 10.3536 20.9293 10.9393C20.9095 10.9592 20.8904 10.9794 20.8719 11H20.1392C19.963 9.55788 19.4042 8.1536 18.4627 6.95151L18.907 6.50717C18.9378 6.50905 18.9688 6.51 19 6.51C19.8284 6.51 20.5 5.83843 20.5 5.01V5C20.5 4.17157 19.8284 3.5 19 3.5C18.1716 3.5 17.5 4.17157 17.5 5V5.01C17.5 5.03481 17.5006 5.05948 17.5018 5.08399L17.0485 5.5373C15.8464 4.59584 14.4421 4.03702 13 3.86084V3.12805C13.3069 2.85339 13.5 2.45425 13.5 2.01V2ZM8.37977 6.96556C9.17397 6.39299 10.0732 6.03137 11 5.88071V8.74992C10.7973 8.81212 10.5993 8.89367 10.4088 8.99457L8.37977 6.96556ZM6.96556 8.37977L8.99457 10.4088C8.89367 10.5993 8.81212 10.7973 8.74992 11H5.88071C6.03137 10.0732 6.39299 9.17397 6.96556 8.37977ZM5.88071 13H8.74992C8.81212 13.2027 8.89367 13.4007 8.99457 13.5912L6.96556 15.6202C6.39299 14.826 6.03137 13.9268 5.88071 13ZM8.37977 17.0344L10.4088 15.0054C10.5993 15.1063 10.7973 15.1879 11 15.2501V18.1193C10.0732 17.9686 9.17397 17.607 8.37977 17.0344ZM13 18.1193V15.2501C13.2027 15.1879 13.4007 15.1063 13.5912 15.0054L15.6202 17.0344C14.826 17.607 13.9268 17.9686 13 18.1193ZM17.0344 15.6202L15.0054 13.5912C15.1063 13.4007 15.1879 13.2027 15.2501 13H18.1193C17.9686 13.9268 17.607 14.826 17.0344 15.6202ZM18.1193 11H15.2501C15.1879 10.7973 15.1063 10.5993 15.0054 10.4088L17.0344 8.37977C17.607 9.17397 17.9686 10.0732 18.1193 11ZM13 8.74992C13.2027 8.81212 13.4007 8.89367 13.5912 8.99457L15.6202 6.96556C14.826 6.39299 13.9268 6.03137 13 5.88071V8.74992ZM11.01 11.0101C11.2836 10.7365 11.6402 10.6 12 10.6C12.3598 10.6 12.7164 10.7365 12.9899 11.0101C13.2635 11.2836 13.4 11.6402 13.4 12C13.4 12.3598 13.2635 12.7164 12.9899 12.9899C12.7164 13.2635 12.3598 13.4 12 13.4C11.6402 13.4 11.2836 13.2635 11.01 12.9899C10.7365 12.7164 10.6 12.3598 10.6 12C10.6 11.6402 10.7365 11.2836 11.01 11.0101Z" fill="black"/>
</g>
<defs>
<clipPath id="clip0_6315_1281">
<rect width="24" height="24" fill="white"/>
</clipPath>
</defs>
</svg>
