<svg width="24" height="24" viewBox="0 0 24 24" fill="none" xmlns="http://www.w3.org/2000/svg">
<path d="M14.1213 14.1213L19 19M14.1213 14.1213C13.5355 14.7071 12.7678 15 12 15M14.1213 14.1213C14.7071 13.5355 15 12.7678 15 12M9.87868 14.1213L5 19M9.87868 14.1213C10.4645 14.7071 11.2322 15 12 15M9.87868 14.1213C9.29289 13.5355 9 12.7678 9 12M14.1213 9.87868L19 5M14.1213 9.87868C13.5355 9.29289 12.7678 9 12 9M14.1213 9.87868C14.7071 10.4645 15 11.2322 15 12M9.87868 9.87868L5 5M9.87868 9.87868C10.4645 9.29289 11.2322 9 12 9M9.87868 9.87868C9.29289 10.4645 9 11.2322 9 12M12 9V2M12 15V22M15 12H22M9 12H2M18.364 18.364C14.8492 21.8787 9.15076 21.8787 5.63604 18.364C2.12132 14.8492 2.12132 9.15076 5.63604 5.63604C9.15076 2.12132 14.8492 2.12132 18.364 5.63604C21.8787 9.15076 21.8787 14.8492 18.364 18.364Z" stroke="black" stroke-width="2" stroke-linecap="round" stroke-linejoin="round"/>
</svg>
