<svg width="24" height="24" viewBox="0 0 24 24" fill="none" xmlns="http://www.w3.org/2000/svg">
<path d="M14.1213 14.1213L19.5 18.5L18.5 19.5L14.1213 14.1213ZM14.1213 14.1213C13.5355 14.7071 12.7678 15 12 15M14.1213 14.1213C14.7071 13.5355 15 12.7678 15 12M9.87868 14.1213L4.5 18.5L5.5 19.5L9.87868 14.1213ZM9.87868 14.1213C10.4645 14.7071 11.2322 15 12 15M9.87868 14.1213C9.29289 13.5355 9 12.7678 9 12M14.1213 9.87868L18.5 4.5L19.5 5.5L14.1213 9.87868ZM14.1213 9.87868C13.5355 9.29289 12.7678 9 12 9M14.1213 9.87868C14.7071 10.4645 15 11.2322 15 12M9.87868 9.87868L5.5 4.5L4.5 5.5L9.87868 9.87868ZM9.87868 9.87868C10.4645 9.29289 11.2322 9 12 9M9.87868 9.87868C9.29289 10.4645 9 11.2322 9 12M12 9L11 2H13L12 9ZM12 15L11 22H13L12 15ZM15 12L22 11V13L15 12ZM9 12L2 11V13.1213L9 12ZM18.364 18.364C14.8492 21.8787 9.15076 21.8787 5.63604 18.364C2.12132 14.8492 2.12132 9.15076 5.63604 5.63604C9.15076 2.12132 14.8492 2.12132 18.364 5.63604C21.8787 9.15076 21.8787 14.8492 18.364 18.364Z" stroke="black" stroke-width="2" stroke-linecap="round" stroke-linejoin="round"/>
</svg>
