<svg width="24" height="24" viewBox="0 0 24 24" fill="none" xmlns="http://www.w3.org/2000/svg">
<path d="M10.2 10.5696C10.2 10.5696 9.32924 8.61107 9.3 7.5C9.26718 6.2527 10.2751 4.85617 11.0687 3.95445C11.5716 3.38305 12.4284 3.38305 12.9313 3.95445C13.7249 4.85617 14.7328 6.2527 14.7 7.5C14.6708 8.61107 13.8 10.5696 13.8 10.5696M12 17.85V17.859M15.15 16.95V16.959M17.4 14.7V14.709M8.85 16.95V16.959M6.6 14.7V14.709M12 21C7.71565 21 4.13051 18.0063 3.22227 13.9967C2.97716 12.9146 3.90444 12.0191 5.01226 11.9584C8.24592 11.7815 9.82427 11.0296 12 9.3C14.1757 11.0296 15.7541 11.7815 18.9877 11.9584C20.0956 12.0191 21.0228 12.9146 20.7777 13.9967C19.8695 18.0063 16.2843 21 12 21Z" stroke="black" stroke-width="2" stroke-linecap="round" stroke-linejoin="round"/>
</svg>
