<svg width="24" height="24" viewBox="0 0 24 24" fill="none" xmlns="http://www.w3.org/2000/svg">
<path d="M10.1694 10.2884C10.7658 9.93171 11.3573 9.50048 12 8.98451C12.6427 9.50048 13.2342 9.93171 13.8306 10.2884M10.1694 10.2884C10.1694 10.2884 9.28383 8.277 9.25409 7.13598C9.21945 5.80687 10.3244 4.31277 11.1429 3.39255C11.6085 2.86915 12.3915 2.86915 12.8571 3.39255C13.6756 4.31277 14.7805 5.80687 14.7459 7.13598C14.7162 8.277 13.8306 10.2884 13.8306 10.2884M10.1694 10.2884C9.07955 10.9401 7.97337 11.3428 6.50818 11.5583M13.8306 10.2884C14.8039 10.8704 15.7901 11.2538 17.0335 11.4826M12 14.9923V15.0015M14.7452 14.992V15.0013M17.4918 14.5301V14.5394M9.25338 14.983V14.9923M6.50818 14.5301V14.5394M6.50818 11.5583C5.95876 11.6391 5.35885 11.6936 4.6904 11.725C3.67598 11.7727 2.828 12.6005 3.02998 13.6054C3.24886 14.6945 3.65737 15.7141 4.21921 16.6275M6.50818 11.5583C10.9363 12.6431 13.2747 12.6845 17.0335 11.4826M17.0335 11.4826C17.7045 11.6061 18.4504 11.6846 19.3096 11.725C20.324 11.7727 21.172 12.6005 20.97 13.6054C20.7511 14.6945 20.3426 15.7141 19.7808 16.6275M4.21921 16.6275C5.83387 19.2523 8.71482 21 12 21C15.2852 21 18.1661 19.2523 19.7808 16.6275M4.21921 16.6275C10.5089 18.4516 13.9164 18.4554 19.7808 16.6275" stroke="black" stroke-width="2" stroke-linecap="round" stroke-linejoin="round"/>
</svg>
