<svg width="24" height="24" viewBox="0 0 24 24" fill="none" xmlns="http://www.w3.org/2000/svg">
<path d="M10.1694 10.2884C8.67087 11.1845 7.14148 11.6098 4.6904 11.725C3.67598 11.7727 2.828 12.6005 3.02998 13.6054C3.12575 14.082 3.25782 14.5452 3.42316 14.992M10.1694 10.2884C10.7658 9.93171 11.3573 9.50048 12 8.98451C12.6427 9.50048 13.2342 9.93171 13.8306 10.2884M10.1694 10.2884C10.1694 10.2884 9.28383 8.277 9.25409 7.13598C9.21945 5.80687 10.3244 4.31277 11.1429 3.39255C11.6085 2.86915 12.3915 2.86915 12.8571 3.39255C13.6756 4.31277 14.7805 5.80687 14.7459 7.13598C14.7162 8.277 13.8306 10.2884 13.8306 10.2884M13.8306 10.2884C15.3291 11.1845 16.8585 11.6098 19.3096 11.725C20.324 11.7727 21.172 12.6005 20.97 13.6054C20.1221 17.8245 16.4283 21 12 21C9.43942 21 7.12441 19.9383 5.46319 18.227M3.42316 14.992C6.73088 14.9597 8.6368 14.6239 10.8802 13.3654C11.5748 12.9757 12.4252 12.9757 13.1198 13.3654C15.363 14.6239 17.2684 14.9597 20.5761 14.992M3.42316 14.992C3.87523 16.2137 4.57597 17.313 5.46319 18.227M5.46319 18.227C8.03493 18.0657 9.40681 17.7466 10.9598 16.9562C11.6129 16.6237 12.3857 16.6237 13.0388 16.9562C14.5918 17.7466 15.9636 18.0657 18.5354 18.227" stroke="black" stroke-width="2" stroke-linecap="round" stroke-linejoin="round"/>
</svg>
