<svg width="24" height="24" viewBox="0 0 24 24" fill="none" xmlns="http://www.w3.org/2000/svg">
<path d="M10.1694 10.2884C8.67087 11.1845 7.14148 11.6098 4.6904 11.725C3.67598 11.7727 2.828 12.6005 3.02998 13.6054C3.19362 14.4197 3.46327 15.1951 3.82374 15.9163M10.1694 10.2884C10.7658 9.93171 11.3573 9.50048 12 8.98451C12.6427 9.50048 13.2342 9.93171 13.8306 10.2884M10.1694 10.2884C10.1694 10.2884 9.28383 8.277 9.25409 7.13598C9.21945 5.80687 10.3244 4.31277 11.1429 3.39255C11.6085 2.86915 12.3915 2.86915 12.8571 3.39255C13.6756 4.31277 14.7805 5.80687 14.7459 7.13598C14.7162 8.277 13.8306 10.2884 13.8306 10.2884M13.8306 10.2884C15.3291 11.1845 16.8585 11.6098 19.3096 11.725C20.324 11.7727 21.172 12.6005 20.97 13.6054C20.1221 17.8245 16.4283 21 12 21C8.42635 21 5.33103 18.9319 3.82374 15.9163M3.82374 15.9163C7.14905 15.7046 8.94338 15.3104 10.9093 14.2483C11.5895 13.8808 12.4105 13.8808 13.0907 14.2483C15.0566 15.3104 16.8509 15.7046 20.1763 15.9163" stroke="black" stroke-width="2" stroke-linecap="round" stroke-linejoin="round"/>
</svg>
