<svg width="24" height="24" viewBox="0 0 24 24" fill="none" xmlns="http://www.w3.org/2000/svg">
<path d="M7.32743 8.85V12.9C7.32743 13.913 7.67536 14.8479 8.26195 15.6M7.32743 8.85C7.32743 8.34348 7.50123 7.87605 7.79452 7.5M7.32743 8.85V7.5M16.6726 8.85V12.9C16.6726 13.913 16.325 14.8479 15.7384 15.6M16.6726 8.85C16.6726 8.34348 16.4988 7.87605 16.2055 7.5M16.6726 8.85V7.5M7.32743 7.5H4.40234C3.50556 7.5 2.83941 8.29976 3.03395 9.14286L4.19866 14.1905C4.38869 15.014 5.14717 15.6 6.02318 15.6H8.26195M7.32743 7.5H7.79452M7.32743 7.5C7.32743 5.01472 9.41941 3 12 3C14.5806 3 16.6726 5.01472 16.6726 7.5M7.79452 7.5C8.22075 6.9535 8.89937 6.6 9.66372 6.6C10.954 6.6 12 7.60736 12 8.85C12 7.60736 13.046 6.6 14.3363 6.6C15.1006 6.6 15.7792 6.9535 16.2055 7.5M16.6726 7.5H19.5977C20.4944 7.5 21.1606 8.29976 20.9661 9.14286L19.8013 14.1905C19.6113 15.014 18.8528 15.6 17.9768 15.6H15.7384M16.6726 7.5H16.2055M8.26195 15.6C8.96146 16.4969 10.0006 17.1339 11.1956 17.3336M15.7384 15.6C15.3227 16.133 14.787 16.5741 14.17 16.8863M14.17 16.8863C13.6882 16.2802 13.4019 15.5223 13.4019 14.7V13.8M14.17 16.8863C14.6599 17.5027 15.352 17.9621 16.1509 18.1726C16.6849 18.3134 17.14 18.7477 17.14 19.3V19.5C17.14 20.3284 16.4602 21.0174 15.6518 20.8363C13.6676 20.3917 12.0301 19.0776 11.1956 17.3336M11.1956 17.3336C10.8122 16.5322 10.5984 15.6402 10.5984 14.7V13.8M11.9908 11.1H12" stroke="black" stroke-width="2" stroke-linecap="round" stroke-linejoin="round"/>
</svg>
