<svg width="24" height="24" viewBox="0 0 24 24" fill="none" xmlns="http://www.w3.org/2000/svg">
<path d="M13.5311 6.5V4.5C13.5311 3.67157 12.8456 3 12 3C11.1544 3 10.4689 3.67157 10.4689 4.5V6.5M13.5311 6.5C13.5311 5.67157 14.2166 5 15.0622 5C15.9077 5 16.5932 5.67157 16.5932 6.5V12L18.7066 11.5399C19.6046 11.3444 20.3159 12.3383 19.8559 13.1187C19.2591 14.1313 18.5869 15.367 18.1243 16.5C17.1036 19 14.5368 21 12 21C9.46323 21 6.89641 19 5.8757 16.5C5.41311 15.367 4.74089 14.1313 4.14405 13.1187C3.68405 12.3383 4.39541 11.3444 5.29337 11.5399L7.40677 12V6.5C7.40677 5.67157 8.09226 5 8.93785 5C9.78344 5 10.4689 5.67157 10.4689 6.5M13.5311 6.5V12M10.4689 6.5V12" stroke="black" stroke-width="2" stroke-linecap="round" stroke-linejoin="round"/>
</svg>
