<svg width="24" height="24" viewBox="0 0 24 24" fill="none" xmlns="http://www.w3.org/2000/svg">
<path d="M13.5 6.5V4.5C13.5 3.67157 12.8284 3 12 3C11.1716 3 10.5 3.67157 10.5 4.5V6.5M13.5 6.5C13.5 5.67157 14.1716 5 15 5C15.8284 5 16.5 5.67157 16.5 6.5V12L18.5705 11.5399C19.4502 11.3444 20.1472 12.3383 19.6965 13.1187C19.1118 14.1313 18.4532 15.367 18 16.5C17 19 14.4853 21 12 21C9.51472 21 7 19 6 16.5C5.54681 15.367 4.88823 14.1313 4.3035 13.1187C3.85284 12.3383 4.54976 11.3444 5.4295 11.5399L7.5 12V6.5C7.5 5.67157 8.17157 5 9 5C9.82843 5 10.5 5.67157 10.5 6.5M13.5 6.5V12M10.5 6.5V12M12 17.5V17.5C12.8284 17.5 13.5 16.8284 13.5 16V16C13.5 15.1716 12.8284 14.5 12 14.5V14.5C11.1716 14.5 10.5 15.1716 10.5 16V16C10.5 16.8284 11.1716 17.5 12 17.5Z" stroke="black" stroke-width="2" stroke-linecap="round" stroke-linejoin="round"/>
</svg>
