<svg width="24" height="24" viewBox="0 0 24 24" fill="none" xmlns="http://www.w3.org/2000/svg">
<path d="M6.66667 16.6667L5.41421 15.4142C4.63316 14.6332 4.63316 13.3668 5.41421 12.5858L6.66667 11.3333M6.66667 16.6667L14.6667 8.66667M6.66667 16.6667L9.33333 19.3333M14.6667 8.66667L13.4142 7.41421C12.6332 6.63316 11.3668 6.63317 10.5858 7.41422L9.33333 8.66667M14.6667 8.66667L17.3333 11.3333M9.33333 19.3333L10.5858 20.5858C11.3668 21.3668 12.6332 21.3668 13.4142 20.5858L14.6667 19.3333M9.33333 19.3333L17.3333 11.3333M17.3333 11.3333L18.5858 12.5858C19.3668 13.3668 19.3668 14.6332 18.5858 15.4142L17.3333 16.6667M6.66667 11.3333L14.6667 19.3333M6.66667 11.3333L9.33333 8.66667M14.6667 19.3333L17.3333 16.6667M9.33333 8.66667L17.3333 16.6667M14 4C14 5.10457 13.1046 7 12 7C10.8954 7 10 5.10457 10 4C10 2.89543 10.8954 2 12 2C13.1046 2 14 2.89543 14 4Z" stroke="black" stroke-width="2" stroke-linecap="round" stroke-linejoin="round"/>
</svg>
