<svg width="24" height="24" viewBox="0 0 24 24" fill="none" xmlns="http://www.w3.org/2000/svg">
<path d="M16.8633 5.04953L14.9476 3.18703C13.3197 1.60432 10.6803 1.60432 9.05237 3.18703L7.13666 5.04953M16.8633 5.04953L18.7791 6.91203C20.407 8.49474 20.407 11.0608 18.7791 12.6435L16.8633 14.506M16.8633 5.04953L12 9.77778M7.13666 14.506L9.05237 16.3685C9.77788 17.0739 10.7043 17.4649 11.6525 17.5415M7.13666 14.506L5.22095 12.6435C3.59302 11.0608 3.59302 8.49474 5.22095 6.91203L7.13666 5.04953M7.13666 14.506L12 9.77778M12 9.77778L16.8633 14.506M12 9.77778L7.13666 5.04953M16.8633 14.506L14.9476 16.3685C14.2174 17.0784 13.2838 17.4699 12.3291 17.543M7.42857 19.7778C9.7316 19.7937 10.9283 19.3342 11.6525 17.5415M17.7143 22C15.5683 21.3704 13.351 20.2233 12.3291 17.543M12.3291 17.543C12.104 17.5602 11.8776 17.5597 11.6525 17.5415" stroke="black" stroke-width="2" stroke-linecap="round" stroke-linejoin="round"/>
</svg>
