<svg width="24" height="24" viewBox="0 0 24 24" fill="none" xmlns="http://www.w3.org/2000/svg">
<path d="M15.5 9.5L14.1213 8.12132C12.9497 6.94975 11.0503 6.94975 9.87868 8.12132L8.5 9.5M15.5 9.5L16.8787 10.8787C18.0503 12.0503 18.0503 13.9497 16.8787 15.1213L15.5 16.5M15.5 9.5L12 13M8.5 16.5L9.87868 17.8787C11.0503 19.0503 12.9497 19.0503 14.1213 17.8787L15.5 16.5M8.5 16.5L7.12132 15.1213C5.94975 13.9497 5.94975 12.0503 7.12132 10.8787L8.5 9.5M8.5 16.5L12 13M12 13L15.5 16.5M12 13L8.5 9.5M9 21C10 21 11.4064 21.4388 12 19C12.6879 22.1309 14 22 16 22M14 4C14 5.10457 13.1046 7 12 7C10.8954 7 10 5.10457 10 4C10 2.89543 10.8954 2 12 2C13.1046 2 14 2.89543 14 4Z" stroke="black" stroke-width="2" stroke-linecap="round" stroke-linejoin="round"/>
</svg>
