<svg width="24" height="24" viewBox="0 0 24 24" fill="none" xmlns="http://www.w3.org/2000/svg">
<path d="M6.66667 14.6662L5.41421 13.4138C4.63316 12.6327 4.63316 11.3664 5.41421 10.5853L6.66667 9.33287M6.66667 14.6662L14.6667 6.6662M6.66667 14.6662L9.33333 17.3329M14.6667 6.6662L13.4142 5.41375C12.6332 4.6327 11.3668 4.6327 10.5858 5.41375L9.33333 6.6662M14.6667 6.6662L17.3333 9.33287M9.33333 17.3329L10.5858 18.5853C11.3668 19.3664 12.6332 19.3664 13.4142 18.5853L14.6667 17.3329M9.33333 17.3329L17.3333 9.33287M17.3333 9.33287L18.5858 10.5853C19.3668 11.3664 19.3668 12.6327 18.5858 13.4138L17.3333 14.6662M6.66667 9.33287L14.6667 17.3329M6.66667 9.33287L9.33333 6.6662M14.6667 17.3329L17.3333 14.6662M9.33333 6.6662L17.3333 14.6662M12 4.49982C11.5 2.5 10.5729 1.96568 8 1.99954M12 19.4997C12.5 21.4995 13.4271 22.0339 16 22" stroke="black" stroke-width="2" stroke-linecap="round" stroke-linejoin="round"/>
</svg>
