<svg width="24" height="24" viewBox="0 0 24 24" fill="none" xmlns="http://www.w3.org/2000/svg">
<path d="M15.4995 8.49955L14.1209 7.12087C12.9493 5.94929 11.0498 5.94929 9.87823 7.12087L8.49955 8.49955M15.4995 8.49955L16.8782 9.87822C18.0498 11.0498 18.0498 12.9493 16.8782 14.1209L15.4995 15.4995M15.4995 8.49955L11.9995 11.9995M8.49955 15.4995L9.87822 16.8782C11.0498 18.0498 12.9493 18.0498 14.1209 16.8782L15.4995 15.4995M8.49955 15.4995L7.12087 14.1209C5.94929 12.9493 5.94929 11.0498 7.12087 9.87823L8.49955 8.49955M8.49955 15.4995L11.9995 11.9995M11.9995 11.9995L15.4995 15.4995M11.9995 11.9995L8.49955 8.49955M15 3.00078C14 3.00078 12.5936 2.56199 12 5.00078C11.3121 1.86984 10 2.00078 8 2.00078M9 21C10 21 11.4064 21.4388 12 19C12.6879 22.1309 14 22 16 22" stroke="black" stroke-width="2" stroke-linecap="round" stroke-linejoin="round"/>
</svg>
