<svg width="24" height="24" viewBox="0 0 24 24" fill="none" xmlns="http://www.w3.org/2000/svg">
<path d="M5.81233 13.0938L4.90616 12.1877C3.69795 10.9795 3.69795 9.02054 4.90616 7.81233L5.81233 6.90616M5.81233 13.0938L8.90616 10M5.81233 13.0938L8.90616 16.1877M15.0938 3.81233L14.1877 2.90616C12.9795 1.69795 11.0205 1.69795 9.81233 2.90616L8.90616 3.81233M15.0938 3.81233L12 6.90616M15.0938 3.81233L18.1877 6.90616M8.90616 10L12 6.90616M8.90616 10L5.81233 6.90616M8.90616 10L12 13.0938M12 6.90616L8.90616 3.81233M12 6.90616L15.0938 10M8.90616 16.1877L9.81233 17.0938C11.0205 18.3021 12.9795 18.3021 14.1877 17.0938L15.0938 16.1877M8.90616 16.1877L12 13.0938M18.1877 6.90616L19.0938 7.81233C20.3021 9.02054 20.3021 10.9795 19.0938 12.1877L18.1877 13.0938M18.1877 6.90616L15.0938 10M12 13.0938L15.0938 10M12 13.0938L15.0938 16.1877M15.0938 10L18.1877 13.0938M5.81233 6.90616L8.90616 3.81233M15.0938 16.1877L18.1877 13.0938M8 21C10.0708 21.0284 10.983 20.6487 12 19C13.4319 21.4321 14.3492 22.0149 17 22" stroke="black" stroke-width="2" stroke-linecap="round" stroke-linejoin="round"/>
</svg>
