<svg width="24" height="24" viewBox="0 0 24 24" fill="none" xmlns="http://www.w3.org/2000/svg">
<path d="M12 20C4.69816 18.7724 2.72962 16.8169 2 11.4286C5.23754 11.7507 7.45632 12.3874 9.00041 13.7522M12 20C19.3018 18.7724 21.2704 16.8169 22 11.4286C18.7707 11.7498 16.5429 12.4006 14.9995 13.758M12 20C14 17.4491 14.9746 15.5357 14.9995 13.758M12 20C9.99777 17.4463 9.02325 15.5315 9.00041 13.7522M14.9995 13.758C15.0258 11.8838 13.9963 10.1605 12 8C10.0058 10.1582 8.97638 11.8802 9.00041 13.7522M21 6V6C21 7.10457 20.1046 8 19 8V8C17.8954 8 17 7.10457 17 6V6C17 4.89543 17.8954 4 19 4V4C20.1046 4 21 4.89543 21 6ZM7 6V6C7 7.10457 6.10457 8 5 8V8C3.89543 8 3 7.10457 3 6V6C3 4.89543 3.89543 4 5 4V4C6.10457 4 7 4.89543 7 6Z" stroke="black" stroke-width="2" stroke-linecap="round" stroke-linejoin="round"/>
</svg>
