<svg width="24" height="24" viewBox="0 0 24 24" fill="none" xmlns="http://www.w3.org/2000/svg">
<path d="M6 18V8C6 6.89543 6.91026 6 8.01483 6V6C8.55842 6 8.99669 5.5628 9.07485 5.02486C9.30307 3.45422 10.0579 2.75033 11.6632 2.12564C11.8794 2.04154 12.1206 2.04154 12.3368 2.12564C13.9421 2.75033 14.6969 3.45422 14.9251 5.02486C15.0033 5.5628 15.4416 6 15.9852 6V6C17.0897 6 18 6.89543 18 8V18M6 18H18M6 18H5.5C4.67157 18 4 18.6716 4 19.5V20.5C4 21.3284 4.67157 22 5.5 22H18.5C19.3284 22 20 21.3284 20 20.5V19.5C20 18.6716 19.3284 18 18.5 18H18" stroke="black" stroke-width="2" stroke-linecap="round" stroke-linejoin="round"/>
</svg>
