<svg width="24" height="24" viewBox="0 0 24 24" fill="none" xmlns="http://www.w3.org/2000/svg">
<path d="M6 18V8.14074C6 6.80332 6.6684 5.5544 7.7812 4.81253L10.3359 3.1094C11.3436 2.4376 12.6564 2.4376 13.6641 3.1094L16.2188 4.81253C17.3316 5.5544 18 6.80332 18 8.14074V18M6 18H5.5C4.67157 18 4 18.6716 4 19.5V20.5C4 21.3284 4.67157 22 5.5 22H18.5C19.3284 22 20 21.3284 20 20.5V19.5C20 18.6716 19.3284 18 18.5 18H18M6 18H9.5M18 18H14.5M9.5 18V8.84929C9.5 8.32239 9.77645 7.83413 10.2283 7.56305L11.2283 6.96305C11.7033 6.67803 12.2967 6.67803 12.7717 6.96305L13.7717 7.56305C14.2236 7.83413 14.5 8.32239 14.5 8.84929V18M9.5 18H14.5" stroke="black" stroke-width="2" stroke-linecap="round" stroke-linejoin="round"/>
</svg>
