<svg width="24" height="24" viewBox="0 0 24 24" fill="none" xmlns="http://www.w3.org/2000/svg">
<path d="M6 18V8.26249C6 7.01295 7.01295 6 8.26249 6V6C8.67244 6 9.00139 5.67071 9.04495 5.26308C9.23085 3.52368 9.97893 2.78106 11.6632 2.12564C11.8794 2.04154 12.1206 2.04154 12.3368 2.12564C14.0211 2.78106 14.7692 3.52368 14.955 5.26308C14.9986 5.67071 15.3276 6 15.7375 6V6C16.987 6 18 7.01295 18 8.26249V18M6 18H5.5C4.67157 18 4 18.6716 4 19.5V20.5C4 21.3284 4.67157 22 5.5 22H18.5C19.3284 22 20 21.3284 20 20.5V19.5C20 18.6716 19.3284 18 18.5 18H18M6 18H9.5M18 18H14.5M9.5 18V11.4419C9.5 10.5305 9.91427 9.66858 10.6259 9.09927L11.3753 8.49976C11.7405 8.20758 12.2595 8.20758 12.6247 8.49976L13.3741 9.09927C14.0857 9.66858 14.5 10.5305 14.5 11.4419V18M9.5 18H14.5" stroke="black" stroke-width="2" stroke-linecap="round" stroke-linejoin="round"/>
</svg>
