<svg width="24" height="24" viewBox="0 0 24 24" fill="none" xmlns="http://www.w3.org/2000/svg">
<path d="M5 21V9.90161C5 8.10733 5.96143 6.45061 7.51931 5.5604L11.0077 3.56702C11.6226 3.21566 12.3774 3.21566 12.9923 3.56702L16.4807 5.5604C18.0386 6.45061 19 8.10733 19 9.90161V21M5 21H3M5 21H9M19 21H21M19 21H15M9 21V11.6056C9 10.6025 9.5013 9.6658 10.3359 9.1094L11.4453 8.3698C11.7812 8.14587 12.2188 8.14587 12.5547 8.3698L13.6641 9.1094C14.4987 9.6658 15 10.6025 15 11.6056V21M9 21H15" stroke="black" stroke-width="2" stroke-linecap="round" stroke-linejoin="round"/>
</svg>
