<svg width="24" height="24" viewBox="0 0 24 24" fill="none" xmlns="http://www.w3.org/2000/svg">
<path d="M6 18V8.14074C6 6.80332 6.6684 5.5544 7.7812 4.81253L11.4453 2.3698C11.7812 2.14587 12.2188 2.14587 12.5547 2.3698L16.2188 4.81253C17.3316 5.5544 18 6.80332 18 8.14074V18M6 18H18M6 18H5.5C4.67157 18 4 18.6716 4 19.5V20.5C4 21.3284 4.67157 22 5.5 22H18.5C19.3284 22 20 21.3284 20 20.5V19.5C20 18.6716 19.3284 18 18.5 18H18" stroke="black" stroke-width="2" stroke-linecap="round" stroke-linejoin="round"/>
</svg>
