<svg width="24" height="24" viewBox="0 0 24 24" fill="none" xmlns="http://www.w3.org/2000/svg">
<path d="M12 10.0001V10.0001C8.99318 10.0001 6.55556 12.4377 6.55556 15.4445V15.4445C6.55556 16.3036 7.25199 17 8.11108 17H15.8889C16.748 17 17.4444 16.3036 17.4444 15.4445V15.4445C17.4444 12.4377 15.0068 10.0001 12 10.0001V10.0001ZM12 10.0001V7.33358M10.8333 3C8.28098 5.55228 10.9405 8.57836 13.5346 6.80108C13.7353 6.66355 13.9357 6.49725 14.1332 6.29975M19.5 17H4.5C3.67157 17 3 17.6716 3 18.5V19.5C3 20.3284 3.67157 21 4.5 21H19.5C20.3284 21 21 20.3284 21 19.5V18.5C21 17.6716 20.3284 17 19.5 17Z" stroke="black" stroke-width="2" stroke-linecap="round" stroke-linejoin="round"/>
</svg>
