<svg width="24" height="24" viewBox="0 0 24 24" fill="none" xmlns="http://www.w3.org/2000/svg">
<path d="M12 7.60011H11.6888C9.28334 7.60011 7.33333 9.55012 7.33333 11.9556V11.9556C7.33333 12.6429 7.89048 13.2 8.57775 13.2H15.4222C16.1095 13.2 16.6667 12.6429 16.6667 11.9556V11.9556C16.6667 9.55012 14.7167 7.60011 12.3112 7.60011H12ZM12 7.60011V5.46686M11 2C8.81227 4.04183 11.0918 6.46269 13.3153 5.04086C13.4874 4.93084 13.6591 4.7978 13.8284 4.6398M7.57143 17V20.5C7.57143 21.3284 8.243 22 9.07143 22H14.9286C15.757 22 16.4286 21.3284 16.4286 20.5V17M17.1 17H6.9C5.85066 17 5 16.1493 5 15.1V15.1C5 14.0507 5.85066 13.2 6.9 13.2H17.1C18.1493 13.2 19 14.0507 19 15.1V15.1C19 16.1493 18.1493 17 17.1 17Z" stroke="black" stroke-width="2" stroke-linecap="round" stroke-linejoin="round"/>
</svg>
