<svg width="24" height="24" viewBox="0 0 24 24" fill="none" xmlns="http://www.w3.org/2000/svg">
<path d="M12 9.00014V9.00014C8.99318 9.00014 6.55556 11.4377 6.55556 14.4445V14.4445C6.55556 15.3036 7.25199 16 8.11108 16H15.8889C16.748 16 17.4444 15.3036 17.4444 14.4445V14.4445C17.4444 11.4377 15.0068 9.00014 12 9.00014V9.00014ZM12 9.00014V6.33358M5 16H19M10.8333 2C8.28098 4.55228 10.9405 7.57836 13.5346 5.80108C13.7353 5.66355 13.9357 5.49725 14.1332 5.29975M8 16.5V20.5C8 21.3284 8.67157 22 9.5 22H14.5C15.3284 22 16 21.3284 16 20.5V16.5" stroke="black" stroke-width="2" stroke-linecap="round" stroke-linejoin="round"/>
</svg>
