<svg width="24" height="24" viewBox="0 0 24 24" fill="none" xmlns="http://www.w3.org/2000/svg">
<path d="M12.7143 2C9.39938 2 9.16128 6.02037 12 6.5979M12.7143 6.66667C12.4578 6.66667 12.2197 6.64259 12 6.5979M12 9V9C9.23858 9 7 11.2386 7 14V14.4444C7 15.3036 7.69645 16 8.55556 16H15.4444C16.3036 16 17 15.3036 17 14.4444V14C17 11.2386 14.7614 9 12 9V9ZM12 9V6.5979M20 20V18C20 16.8954 19.1046 16 18 16H6C4.89543 16 4 16.8954 4 18V20C4 21.1046 4.89543 22 6 22H18C19.1046 22 20 21.1046 20 20Z" stroke="black" stroke-width="2" stroke-linecap="round" stroke-linejoin="round"/>
</svg>
