<svg width="24" height="24" viewBox="0 0 24 24" fill="none" xmlns="http://www.w3.org/2000/svg">
<path d="M3 19C4.21516 20.5969 5.16474 20.9139 7 21C9.20914 21 11 19.2091 11 17C11 15.7368 10.4145 14.6104 9.5 13.8773M7 13H6M7 13H8C9.65685 13 11 11.6569 11 10C11 8.34315 9.65685 7 8 7C5.87316 7.02156 5.77572 7.23031 4 8M7 13C7.94595 13 8.8152 13.3284 9.5 13.8773M9.5 13.8773C11.8596 15.5589 14 16 14 13V12.5C14 10.567 15.567 9 17.5 9C19.433 9 21 10.567 21 12.5V16C21 19 19.6738 21 17.5 21C15.8431 21 14 19.6569 14 18M13 3C15.7754 5.46174 17.4205 6.09228 21 6M19 3H19.01" stroke="black" stroke-width="2" stroke-linecap="round" stroke-linejoin="round"/>
</svg>
