<svg width="24" height="24" viewBox="0 0 24 24" fill="none" xmlns="http://www.w3.org/2000/svg">
<path d="M21 20.0002L5 20.0002C5 20.0002 2 20.0002 2 18.0002M21 20.0002H22M21 20.0002L21 16.9998M5 7.00003L21 7M21 7H22M21 7V9.99984M21 13.4998H22M21 13.4998V9.99984M21 13.4998V16.9998M21 9.99984H22M21 16.9998H22M2 18.0002C2 16.7701 3.13474 16.2966 4.00845 16.1143C4.54909 16.0015 5 15.5524 5 15.0002V5C5 4.44772 4.54909 4.00131 4.00845 4.11412C3.13474 4.29642 2 4.76996 2 6L2 18.0002ZM9.9492 15.0002C10.4543 15.0002 10.9189 15.2601 11.2702 15.6125C11.6836 16.0272 12.3213 16.5002 13.079 16.5002C14.2519 16.5002 15.87 14.7718 16.5817 13.9388C16.8009 13.6822 16.8009 13.3181 16.5817 13.0615C15.87 12.2286 14.2519 10.5002 13.079 10.5002C12.3213 10.5002 11.6837 10.9731 11.2702 11.3879C10.9189 11.7402 10.4543 12.0002 9.9492 12.0002" stroke="black" stroke-width="2" stroke-linecap="round" stroke-linejoin="round"/>
</svg>
