<svg width="24" height="24" viewBox="0 0 24 24" fill="none" xmlns="http://www.w3.org/2000/svg">
<path d="M5 3L5 21M5 3V2M5 3H8.5M19 3V21M19 3V2M19 3H15.5M19 21V22M19 21H15.5M5 21V22M5 21H8.5M12 3V2M12 3L8.5 3M12 3L15.5 3M8.5 3V2M15.5 3V2M12 21V22M12 21H8.5M12 21H15.5M8.5 21V22M15.5 21V22M13.4142 7.41421L15.4142 9.41421C15.7893 9.78929 16 10.298 16 10.8284V16C16 17.1046 15.1046 18 14 18H10C8.89543 18 8 17.1046 8 16L8 10.8284C8 10.298 8.21071 9.78929 8.58579 9.41421L10.5858 7.41421C11.3668 6.63317 12.6332 6.63316 13.4142 7.41421Z" stroke="black" stroke-width="2" stroke-linecap="round" stroke-linejoin="round"/>
</svg>
