<svg width="24" height="24" viewBox="0 0 24 24" fill="none" xmlns="http://www.w3.org/2000/svg">
<path d="M5 3L5 21M5 3V2M5 3H8.5M19 3V21M19 3V2M19 3H15.5M19 21V22M19 21H15.5M5 21V22M5 21H8.5M12 3V2M12 3L8.5 3M12 3L15.5 3M8.5 3V2M15.5 3V2M12 21V22M12 21H8.5M12 21H15.5M8.5 21V22M15.5 21V22M16 11C16 9.48193 13.6955 7.38773 12.5848 6.46662C12.2427 6.18289 11.7573 6.18289 11.4152 6.46662C10.3045 7.38773 8 9.48193 8 11C8 11.9807 8.63058 12.8059 9.1836 13.3411C9.65339 13.7957 10 14.397 10 15.0507V15.0507C10 15.575 10.425 16 10.9493 16H13.0507C13.575 16 14 15.575 14 15.0507V15.0507C14 14.397 14.3466 13.7957 14.8164 13.3411C15.3694 12.8059 16 11.9807 16 11Z" stroke="black" stroke-width="2" stroke-linecap="round" stroke-linejoin="round"/>
</svg>
