<svg width="24" height="24" viewBox="0 0 24 24" fill="none" xmlns="http://www.w3.org/2000/svg">
<path d="M21 6.99979L5 6.99983M21 6.99979L22 6.99979M21 6.99979L21 9.99967M21 19.9998L5 19.9998C5 19.9998 2 19.9998 2 17.9998M21 19.9998L22 19.9998M21 19.9998L21 16.9997M21 13.4997L22 13.4997M21 13.4997L21 9.99967M21 13.4997L21 16.9997M21 9.99967L22 9.99967M21 16.9997L22 16.9997M2 17.9998C2 16.7698 3.13474 16.2962 4.00845 16.1139C4.54909 16.0011 5 15.5521 5 14.9998L5 5C5 4.44772 4.54909 4.00131 4.00845 4.11412C3.13474 4.29642 2 4.76997 2 6L2 17.9998ZM9 10.5L15 10.5C16.6569 10.5 18 11.8431 18 13.5C18 15.1569 16.6569 16.5 15 16.5L9 16.5" stroke="black" stroke-width="2" stroke-linecap="round" stroke-linejoin="round"/>
</svg>
