<svg width="24" height="24" viewBox="0 0 24 24" fill="none" xmlns="http://www.w3.org/2000/svg">
<path d="M21 6.99979L5 6.99983M21 6.99979L22 6.99979M21 6.99979L21 9.99967M21 19.9998L5 19.9998C5 19.9998 2 19.9998 2 17.9998M21 19.9998L22 19.9998M21 19.9998L21 16.9997M21 13.4997L22 13.4997M21 13.4997L21 9.99967M21 13.4997L21 16.9997M21 9.99967L22 9.99967M21 16.9997L22 16.9997M2 17.9998C2 16.7698 3.13474 16.2962 4.00845 16.1139C4.54909 16.0011 5 15.5521 5 14.9998L5 5C5 4.44772 4.54909 4.00131 4.00845 4.11412C3.13474 4.29642 2 4.76997 2 6L2 17.9998ZM8.99999 10.4997L13.3333 10.4997C13.7661 10.4997 14.1871 10.64 14.5333 10.8997L17.4667 13.0997C17.7333 13.2997 17.7333 13.6997 17.4667 13.8997L14.5333 16.0997C14.1871 16.3593 13.7661 16.4997 13.3333 16.4997L8.99999 16.4997" stroke="black" stroke-width="2" stroke-linecap="round" stroke-linejoin="round"/>
</svg>
