<svg width="24" height="24" viewBox="0 0 24 24" fill="none" xmlns="http://www.w3.org/2000/svg">
<path d="M12 17.4444V3M9.3 5.77778H14.7M6.6 9.33333H17.4M6.55556 21H6.61762C7.75962 21 8.85562 20.55 9.66814 19.7475L14.3319 15.1414C15.1444 14.3389 16.2404 13.8889 17.3824 13.8889H17.4444C19.4081 13.8889 21 15.4808 21 17.4444V17.4444C21 19.4081 19.4081 21 17.4444 21H17.3824C16.2404 21 15.1444 20.55 14.3319 19.7475L9.66814 15.1414C8.85562 14.3389 7.75962 13.8889 6.61761 13.8889H6.55556C4.59188 13.8889 3 15.4808 3 17.4444V17.4444C3 19.4081 4.59188 21 6.55556 21Z" stroke="black" stroke-width="2" stroke-linecap="round" stroke-linejoin="round"/>
</svg>
