<svg width="24" height="24" viewBox="0 0 24 24" fill="none" xmlns="http://www.w3.org/2000/svg">
<path d="M9.87478 15.1246L11.5217 20.4541C11.6669 20.924 12.3319 20.924 12.4771 20.4541L14.124 15.1246M9.87478 15.1246L4.47754 15.1247C3.99927 15.1247 3.79395 14.5177 4.17401 14.2273L8.5617 10.8754M9.87478 15.1246H14.124M9.87478 15.1246L8.5617 10.8754M8.5617 10.8754L6.89894 5.49462C6.75521 5.02952 7.29334 4.65415 7.68018 4.94968L11.9994 8.24926M8.5617 10.8754L11.9994 8.24926M11.9994 8.24926L16.3186 4.94968C16.7054 4.65415 17.2436 5.02952 17.0998 5.49462L15.4371 10.8754M11.9994 8.24926L15.4371 10.8754M15.4371 10.8754L19.8248 14.2273C20.2048 14.5177 19.9995 15.1246 19.5212 15.1246L14.124 15.1246M15.4371 10.8754L14.124 15.1246M12 2C17.5228 2 22 6.47715 22 12C22 17.5228 17.5228 22 12 22C6.47715 22 2 17.5228 2 12C2 6.47715 6.47715 2 12 2Z" stroke="black" stroke-width="2" stroke-linecap="round" stroke-linejoin="round"/>
</svg>
