<svg width="24" height="24" viewBox="0 0 24 24" fill="none" xmlns="http://www.w3.org/2000/svg">
<path d="M19.1949 7.10288L18.5296 5.3737C18.3379 4.87543 17.6621 4.87543 17.4704 5.3737L16.8051 7.10288C16.7235 7.31507 16.5327 7.45975 16.3141 7.47522L14.5329 7.60128C14.0197 7.6376 13.8109 8.30845 14.2056 8.65273L15.5757 9.84748C15.7438 9.99408 15.8166 10.2282 15.7632 10.4499L15.3276 12.257C15.2021 12.7777 15.7489 13.1923 16.1846 12.9068L17.6965 11.9161C17.8821 11.7945 18.1179 11.7945 18.3034 11.9161L19.8154 12.9069C20.2511 13.1923 20.7979 12.7777 20.6724 12.257L20.2368 10.4499C20.1834 10.2282 20.2562 9.99408 20.4243 9.84748L21.7944 8.65273C22.1891 8.30845 21.9803 7.6376 21.4671 7.60128L19.6859 7.47522C19.4673 7.45975 19.2765 7.31507 19.1949 7.10288Z" stroke="black" stroke-width="2" stroke-linecap="round" stroke-linejoin="round"/>
<path d="M11.6954 22C6.34077 22 2 17.5228 2 12C2 6.47715 6.34077 2 11.6954 2C12.5823 2 13.4415 2.12284 14.2577 2.35293C11.0895 3.35904 8.78677 6.40216 8.78677 10C8.78677 14.4183 12.2594 18 16.5431 18C17.7852 18 18.9591 17.6988 20 17.1635C18.3022 20.0621 15.2182 22 11.6954 22Z" stroke="black" stroke-width="2" stroke-linecap="round" stroke-linejoin="round"/>
</svg>
