<svg width="24" height="24" viewBox="0 0 24 24" fill="none" xmlns="http://www.w3.org/2000/svg">
<path fill-rule="evenodd" clip-rule="evenodd" d="M3 12C3 7.02944 7.02944 3 12 3C14.017 3 15.6885 3.42703 17.0261 4.1891C16.3956 4.06394 15.7204 4 15 4C10.5817 4 7 7.58172 7 12C7 16.4183 10.5817 20 15 20C15.7204 20 16.3956 19.9361 17.0261 19.8109C15.6885 20.573 14.017 21 12 21C7.02944 21 3 16.9706 3 12ZM12 1C5.92487 1 1 5.92487 1 12C1 18.0751 5.92487 23 12 23C14.9456 23 17.4324 22.1972 19.3284 20.6497C21.2243 19.1023 22.4438 16.88 22.9806 14.1961C23.0842 13.6782 22.7671 13.1691 22.2567 13.0335C21.7462 12.8979 21.2183 13.1827 21.0513 13.6838C20.5971 15.0464 19.9109 16.1075 18.9665 16.8313C18.0288 17.5499 16.7535 18 15 18C11.6863 18 9 15.3137 9 12C9 8.68629 11.6863 6 15 6C16.7535 6 18.0288 6.45015 18.9665 7.16872C19.9109 7.89251 20.5971 8.95364 21.0513 10.3162C21.2183 10.8173 21.7462 11.1021 22.2567 10.9665C22.7671 10.8309 23.0842 10.3218 22.9806 9.80388C22.4438 7.11997 21.2243 4.89773 19.3284 3.35029C17.4324 1.80278 14.9456 1 12 1ZM16.0296 7.8737L16.6949 9.60288C16.7765 9.81507 16.9673 9.95975 17.1859 9.97522L18.9671 10.1013C19.4803 10.1376 19.6891 10.8085 19.2944 11.1527L17.9243 12.3475C17.7562 12.4941 17.6834 12.7282 17.7368 12.9499L18.1724 14.757C18.2979 15.2777 17.7511 15.6923 17.3154 15.4069L15.8034 14.4161C15.6179 14.2945 15.3821 14.2945 15.1966 14.4161L13.6846 15.4068C13.2489 15.6923 12.7021 15.2777 12.8276 14.757L13.2632 12.9499C13.3166 12.7282 13.2438 12.4941 13.0757 12.3475L11.7056 11.1527C11.3109 10.8085 11.5197 10.1376 12.0329 10.1013L13.8141 9.97522C14.0327 9.95975 14.2235 9.81507 14.3051 9.60288L14.9704 7.8737C15.1621 7.37543 15.8379 7.37543 16.0296 7.8737Z" fill="black"/>
</svg>
