<svg width="24" height="24" viewBox="0 0 24 24" fill="none" xmlns="http://www.w3.org/2000/svg">
<path fill-rule="evenodd" clip-rule="evenodd" d="M3 12C3 7.02944 7.02944 3 12 3C14.017 3 15.6885 3.42703 17.0261 4.1891C16.3956 4.06394 15.7204 4 15 4C10.5817 4 7 7.58172 7 12C7 16.4183 10.5817 20 15 20C15.7204 20 16.3956 19.9361 17.0261 19.8109C15.6885 20.573 14.017 21 12 21C7.02944 21 3 16.9706 3 12ZM12 1C5.92487 1 1 5.92487 1 12C1 18.0751 5.92487 23 12 23C14.9456 23 17.4324 22.1972 19.3284 20.6497C21.2243 19.1023 22.4438 16.88 22.9806 14.1961C23.0842 13.6782 22.7671 13.1691 22.2567 13.0335C21.7462 12.8979 21.2183 13.1827 21.0513 13.6838C20.5971 15.0464 19.9109 16.1075 18.9665 16.8313C18.0288 17.5499 16.7535 18 15 18C11.6863 18 9 15.3137 9 12C9 8.68629 11.6863 6 15 6C16.7535 6 18.0288 6.45015 18.9665 7.16872C19.9109 7.89251 20.5971 8.95364 21.0513 10.3162C21.2183 10.8173 21.7462 11.1021 22.2567 10.9665C22.7671 10.8309 23.0842 10.3218 22.9806 9.80388C22.4438 7.11997 21.2243 4.89773 19.3284 3.35029C17.4324 1.80278 14.9456 1 12 1ZM15.7427 7.70107C15.9917 8.31671 16.4314 9.16485 17.0588 9.5C17.6644 9.82351 18.6092 9.75684 19.2638 9.65293C19.4664 9.62079 19.6341 9.90718 19.5078 10.0687C19.1106 10.5764 18.6176 11.3396 18.6176 12C18.6176 12.6604 19.1106 13.4236 19.5078 13.9313C19.6341 14.0928 19.4664 14.3792 19.2638 14.3471C18.6092 14.2432 17.6644 14.1765 17.0588 14.5C16.4314 14.8351 15.9917 15.6833 15.7427 16.2989C15.6661 16.4884 15.3339 16.4884 15.2572 16.2989C15.0083 15.6833 14.5685 14.8351 13.9411 14.5C13.3355 14.1765 12.3907 14.2432 11.7361 14.3471C11.5336 14.3792 11.3658 14.0929 11.4921 13.9314C11.8893 13.4237 12.3823 12.6604 12.3823 12C12.3823 11.3396 11.8893 10.5763 11.4921 10.0686C11.3658 9.90713 11.5336 9.62077 11.7361 9.65291C12.3907 9.75681 13.3355 9.82349 13.9411 9.5C14.5685 9.16486 15.0083 8.31671 15.2572 7.70106C15.3339 7.5116 15.6661 7.51161 15.7427 7.70107Z" fill="black"/>
</svg>
