<svg width="24" height="24" viewBox="0 0 24 24" fill="none" xmlns="http://www.w3.org/2000/svg">
<path d="M18.3505 8.64955C17.6914 7.99052 17.3328 6.76715 17.154 5.91953C17.1293 5.8023 16.8707 5.8023 16.846 5.91953C16.6672 6.76715 16.3086 7.99052 15.6495 8.64955C14.9905 9.30857 13.7672 9.66719 12.9195 9.846C12.8023 9.87073 12.8023 10.1293 12.9195 10.154C13.7672 10.3328 14.9905 10.6914 15.6495 11.3505C16.3086 12.0095 16.6672 13.2328 16.846 14.0805C16.8707 14.1977 17.1293 14.1977 17.154 14.0805C17.3328 13.2328 17.6914 12.0095 18.3505 11.3505C19.0095 10.6914 20.2328 10.3328 21.0805 10.154C21.1977 10.1293 21.1977 9.87073 21.0805 9.846C20.2328 9.66719 19.0095 9.30857 18.3505 8.64955Z" stroke="black" stroke-width="2" stroke-linecap="round" stroke-linejoin="round"/>
<path d="M11.6954 22C6.34077 22 2 17.5228 2 12C2 6.47715 6.34077 2 11.6954 2C12.5823 2 13.4415 2.12284 14.2577 2.35293C11.0895 3.35904 8.78677 6.40216 8.78677 10C8.78677 14.4183 12.2594 18 16.5431 18C17.7852 18 18.9591 17.6988 20 17.1635C18.3022 20.0621 15.2182 22 11.6954 22Z" stroke="black" stroke-width="2" stroke-linecap="round" stroke-linejoin="round"/>
</svg>
