<svg width="24" height="24" viewBox="0 0 24 24" fill="none" xmlns="http://www.w3.org/2000/svg">
<path d="M19.0588 7C18.3006 6.595 17.8165 5.44087 17.612 4.85317C17.5784 4.75667 17.4216 4.75666 17.388 4.85317C17.1835 5.44087 16.6993 6.59501 15.9411 7C15.2074 7.3919 13.9759 7.21116 13.3656 7.08533C13.2652 7.06463 13.186 7.20003 13.253 7.27765C13.6519 7.73994 14.3823 8.69612 14.3823 9.5C14.3823 10.3039 13.6519 11.2601 13.253 11.7224C13.186 11.8 13.2652 11.9354 13.3656 11.9147C13.9759 11.7888 15.2074 11.6081 15.9411 12C16.6993 12.405 17.1835 13.5591 17.388 14.1468C17.4216 14.2433 17.5784 14.2433 17.612 14.1468C17.8165 13.5591 18.3006 12.405 19.0588 12C19.7925 11.6081 21.024 11.7888 21.6343 11.9147C21.7348 11.9354 21.814 11.8 21.747 11.7223C21.3481 11.26 20.6176 10.3039 20.6176 9.5C20.6176 8.69612 21.3481 7.73997 21.747 7.27767C21.814 7.20005 21.7348 7.06464 21.6343 7.08534C21.024 7.21118 19.7925 7.39193 19.0588 7Z" stroke="black" stroke-width="2" stroke-linecap="round" stroke-linejoin="round"/>
<path d="M11.6954 22C6.34077 22 2 17.5228 2 12C2 6.47715 6.34077 2 11.6954 2C12.5823 2 13.4415 2.12284 14.2577 2.35293C11.0895 3.35904 8.78677 6.40216 8.78677 10C8.78677 14.4183 12.2594 18 16.5431 18C17.7852 18 18.9591 17.6988 20 17.1635C18.3022 20.0621 15.2182 22 11.6954 22Z" stroke="black" stroke-width="2" stroke-linecap="round" stroke-linejoin="round"/>
</svg>
