<svg width="24" height="24" viewBox="0 0 24 24" fill="none" xmlns="http://www.w3.org/2000/svg">
<path fill-rule="evenodd" clip-rule="evenodd" d="M3 12C3 7.02944 7.02944 3 12 3C14.017 3 15.6885 3.42703 17.0261 4.1891C16.3956 4.06394 15.7204 4 15 4C10.5817 4 7 7.58172 7 12C7 16.4183 10.5817 20 15 20C15.7204 20 16.3956 19.9361 17.0261 19.8109C15.6885 20.573 14.017 21 12 21C7.02944 21 3 16.9706 3 12ZM12 1C5.92487 1 1 5.92487 1 12C1 18.0751 5.92487 23 12 23C14.9456 23 17.4324 22.1972 19.3284 20.6497C21.2243 19.1023 22.4438 16.88 22.9806 14.1961C23.0842 13.6782 22.7671 13.1691 22.2567 13.0335C21.7462 12.8979 21.2183 13.1827 21.0513 13.6838C20.5971 15.0464 19.9109 16.1075 18.9665 16.8313C18.0288 17.5499 16.7535 18 15 18C11.6863 18 9 15.3137 9 12C9 8.68629 11.6863 6 15 6C16.7535 6 18.0288 6.45015 18.9665 7.16872C19.9109 7.89251 20.5971 8.95364 21.0513 10.3162C21.2183 10.8173 21.7462 11.1021 22.2567 10.9665C22.7671 10.8309 23.0842 10.3218 22.9806 9.80388C22.4438 7.11997 21.2243 4.89773 19.3284 3.35029C17.4324 1.80278 14.9456 1 12 1ZM15.8866 8.82364C16.0949 9.49636 16.4036 10.2027 16.8505 10.6495C17.2973 11.0964 18.0036 11.4051 18.6764 11.6134C18.9053 11.6842 18.9053 12.3158 18.6764 12.3866C18.0036 12.5949 17.2973 12.9036 16.8505 13.3505C16.4036 13.7973 16.0949 14.5036 15.8866 15.1764C15.8158 15.4053 15.1842 15.4053 15.1134 15.1764C14.9051 14.5036 14.5964 13.7973 14.1495 13.3505C13.7027 12.9036 12.9964 12.5949 12.3236 12.3866C12.0947 12.3158 12.0947 11.6842 12.3236 11.6134C12.9964 11.4051 13.7027 11.0964 14.1495 10.6495C14.5964 10.2027 14.9051 9.49636 15.1134 8.82364C15.1842 8.59474 15.8158 8.59474 15.8866 8.82364Z" fill="black"/>
</svg>
