<svg width="24" height="24" viewBox="0 0 24 24" fill="none" xmlns="http://www.w3.org/2000/svg">
<path d="M13.5 13.5H17.5C17.7761 13.5 18 13.7239 18 14V20.5C18 21.3284 18.6716 22 19.5 22H20.5C20.7761 22 21 21.7761 21 21.5V12.5C21 11.3954 20.1046 10.5 19 10.5H13.5M13.5 13.5V19C13.5 20.1046 12.6046 21 11.5 21H3.5C3.22386 21 3 20.7761 3 20.5L3 19.5C3 18.6716 3.67157 18 4.5 18H10C10.2761 18 10.5 17.7761 10.5 17.5V13.5M13.5 13.5H10.5M10.5 13.5H5C3.89543 13.5 3 12.6046 3 11.5V2.5C3 2.22386 3.22386 2 3.5 2H4.5C5.32843 2 6 2.67157 6 3.5V10C6 10.2761 6.22386 10.5 6.5 10.5H10.5M10.5 10.5L10.5 5C10.5 3.89543 11.3954 3 12.5 3L20.5 3C20.7761 3 21 3.22386 21 3.5V4.5C21 5.32843 20.3284 6 19.5 6L14 6C13.7239 6 13.5 6.22386 13.5 6.5V10.5M10.5 10.5H13.5" stroke="black" stroke-width="2" stroke-linecap="round" stroke-linejoin="round"/>
</svg>
