<svg width="24" height="24" viewBox="0 0 24 24" fill="none" xmlns="http://www.w3.org/2000/svg">
<path d="M3 3V8C3 10.2091 4.79086 12 7 12H17C19.2091 12 21 13.7909 21 16V21M21 3H16C13.7909 3 12 4.79086 12 7V17C12 19.2091 10.2091 21 8 21H3M18 7.5C18 6.67157 17.3284 6 16.5 6C15.6716 6 15 6.67157 15 7.5C15 8.32843 15.6716 9 16.5 9C17.3284 9 18 8.32843 18 7.5ZM9 16.5C9 15.6716 8.32843 15 7.5 15C6.67157 15 6 15.6716 6 16.5C6 17.3284 6.67157 18 7.5 18C8.32843 18 9 17.3284 9 16.5ZM18 16.5C18 15.6716 17.3284 15 16.5 15C15.6716 15 15 15.6716 15 16.5C15 17.3284 15.6716 18 16.5 18C17.3284 18 18 17.3284 18 16.5ZM9 7.5V7.5C9 8.32843 8.32843 9 7.5 9V9C6.67157 9 6 8.32843 6 7.5V7.5C6 6.67157 6.67157 6 7.5 6V6C8.32843 6 9 6.67157 9 7.5Z" stroke="black" stroke-width="2" stroke-linecap="round" stroke-linejoin="round"/>
</svg>
