<svg width="24" height="24" viewBox="0 0 24 24" fill="none" xmlns="http://www.w3.org/2000/svg">
<path d="M13 16H15.5C15.7761 16 16 16.2239 16 16.5V20.5C16 21.3284 16.6716 22 17.5 22H18.5C18.7761 22 19 21.7761 19 21.5V15C19 13.8954 18.1046 13 17 13H14M13 16V20C13 21.1046 12.1046 22 11 22H5.5C5.22386 22 5 21.7761 5 21.5L5 20.5C5 19.6716 5.67157 19 6.5 19H9.5C9.77614 19 10 18.7761 10 18.5V16M13 16H10M10 16H7C5.89543 16 5 15.1046 5 14V7.5C5 7.22386 5.22386 7 5.5 7H6.5C7.32843 7 8 7.67157 8 8.5V12.5C8 12.7761 8.22386 13 8.5 13H11M11 13V9C11 7.89543 11.8954 7 13 7L18.5 7C18.7761 7 19 7.22386 19 7.5V8.5C19 9.32843 18.3284 10 17.5 10H14.5C14.2239 10 14 10.2239 14 10.5L14 13M11 13H14M13 3C13 2.44772 12.5523 2 12 2C11.4477 2 11 2.44772 11 3C11 3.55228 11.4477 4 12 4C12.5523 4 13 3.55228 13 3ZM19 3C19 2.44772 18.5523 2 18 2C17.4477 2 17 2.44772 17 3C17 3.55228 17.4477 4 18 4C18.5523 4 19 3.55228 19 3ZM6 4V4C5.44772 4 5 3.55228 5 3V3C5 2.44772 5.44772 2 6 2V2C6.55228 2 7 2.44772 7 3V3C7 3.55228 6.55228 4 6 4Z" stroke="black" stroke-width="2" stroke-linecap="round" stroke-linejoin="round"/>
</svg>
