<svg width="24" height="24" viewBox="0 0 24 24" fill="none" xmlns="http://www.w3.org/2000/svg">
<path d="M14 14H16.5C16.7761 14 17 14.2239 17 14.5V19.5C17 20.3284 17.6716 21 18.5 21H19.5C20.3284 21 21 20.3284 21 19.5V12C21 10.8954 20.1046 10 19 10H14M14 14V19C14 20.1046 13.1046 21 12 21H4.5C3.67157 21 3 20.3284 3 19.5L3 18.5C3 17.6716 3.67157 17 4.5 17H9.5C9.77614 17 10 16.7761 10 16.5V14M14 14H10M10 14H5C3.89543 14 3 13.1046 3 12V4.5C3 3.67157 3.67157 3 4.5 3H5.5C6.32843 3 7 3.67157 7 4.5V9.5C7 9.77614 7.22386 10 7.5 10H10M10 10L10 5C10 3.89543 10.8954 3 12 3L19.5 3C20.3284 3 21 3.67157 21 4.5V5.5C21 6.32843 20.3284 7 19.5 7L14.5 7C14.2239 7 14 7.22386 14 7.5L14 10M10 10H14" stroke="black" stroke-width="2" stroke-linecap="round" stroke-linejoin="round"/>
</svg>
