<svg width="24" height="24" viewBox="0 0 24 24" fill="none" xmlns="http://www.w3.org/2000/svg">
<path d="M15.5 3.5L14 7.5M20.5 8.5L16.5 10M20.5 15.5L16.5 14.2222M15.5 20.5L14 17M8.5 3.5L10 7.5M3.5 8.5L7.5 10M3.5 15.5L7.5 14.2222M8.5 20.5L10 17M8.66667 17.5556C8.66667 18.7829 7.67174 19.7778 6.44444 19.7778C5.21715 19.7778 4.22222 18.7829 4.22222 17.5556C4.22222 16.3283 5.21715 15.3333 6.44444 15.3333C7.67174 15.3333 8.66667 16.3283 8.66667 17.5556ZM6.44444 12C6.44444 13.2273 5.44952 14.2222 4.22222 14.2222C2.99492 14.2222 2 13.2273 2 12C2 10.7727 2.99492 9.77778 4.22222 9.77778C5.44952 9.77778 6.44444 10.7727 6.44444 12ZM8.66667 6.44444C8.66667 7.67174 7.67174 8.66667 6.44444 8.66667C5.21715 8.66667 4.22222 7.67174 4.22222 6.44444C4.22222 5.21715 5.21715 4.22222 6.44444 4.22222C7.67174 4.22222 8.66667 5.21715 8.66667 6.44444ZM14.2222 4.22222C14.2222 5.44952 13.2273 6.44444 12 6.44444C10.7727 6.44444 9.77778 5.44952 9.77778 4.22222C9.77778 2.99492 10.7727 2 12 2C13.2273 2 14.2222 2.99492 14.2222 4.22222ZM19.7778 6.44444C19.7778 7.67174 18.7829 8.66667 17.5556 8.66667C16.3283 8.66667 15.3333 7.67174 15.3333 6.44444C15.3333 5.21715 16.3283 4.22222 17.5556 4.22222C18.7829 4.22222 19.7778 5.21715 19.7778 6.44444ZM22 12C22 13.2273 21.0051 14.2222 19.7778 14.2222C18.5505 14.2222 17.5556 13.2273 17.5556 12C17.5556 10.7727 18.5505 9.77778 19.7778 9.77778C21.0051 9.77778 22 10.7727 22 12ZM19.7778 17.5556C19.7778 18.7829 18.7829 19.7778 17.5556 19.7778C16.3283 19.7778 15.3333 18.7829 15.3333 17.5556C15.3333 16.3283 16.3283 15.3333 17.5556 15.3333C18.7829 15.3333 19.7778 16.3283 19.7778 17.5556ZM14.2222 19.7778C14.2222 21.0051 13.2273 22 12 22C10.7727 22 9.77778 21.0051 9.77778 19.7778C9.77778 18.5505 10.7727 17.5556 12 17.5556C13.2273 17.5556 14.2222 18.5505 14.2222 19.7778Z" stroke="black" stroke-width="2" stroke-linecap="round" stroke-linejoin="round"/>
</svg>
