<svg width="24" height="24" viewBox="0 0 24 24" fill="none" xmlns="http://www.w3.org/2000/svg">
<path d="M8 20C9.10457 20 10 19.1046 10 18C10 16.8954 9.10457 16 8 16C6.89543 16 6 16.8954 6 18C6 19.1046 6.89543 20 8 20Z" stroke="black" stroke-width="2" stroke-linecap="round" stroke-linejoin="round"/>
<path d="M6 15.5C7.10457 15.5 8 14.6046 8 13.5C8 12.3954 7.10457 11.5 6 11.5C4.89543 11.5 4 12.3954 4 13.5C4 14.6046 4.89543 15.5 6 15.5Z" stroke="black" stroke-width="2" stroke-linecap="round" stroke-linejoin="round"/>
<path d="M8 11C9.10457 11 10 10.1045 10 8.99997C10 7.8954 9.10457 6.99997 8 6.99997C6.89543 6.99997 6 7.8954 6 8.99997C6 10.1045 6.89543 11 8 11Z" stroke="black" stroke-width="2" stroke-linecap="round" stroke-linejoin="round"/>
<path d="M11.5 9.99995L12.5 9.99998C13.0523 9.99999 13.5 9.55227 13.5 8.99998V3.00009C13.5 2.44777 13.0522 2.00004 12.4999 2.00009L11.4999 2.00018C10.9477 2.00023 10.5 2.44793 10.5 3.00018V8.99995C10.5 9.55223 10.9477 9.99994 11.5 9.99995Z" stroke="black" stroke-width="2" stroke-linecap="round" stroke-linejoin="round"/>
<path d="M16 11C17.1046 11 18 10.1045 18 8.99997C18 7.8954 17.1046 6.99997 16 6.99997C14.8954 6.99997 14 7.8954 14 8.99997C14 10.1045 14.8954 11 16 11Z" stroke="black" stroke-width="2" stroke-linecap="round" stroke-linejoin="round"/>
<path d="M18 15.5C19.1046 15.5 20 14.6046 20 13.5C20 12.3954 19.1046 11.5 18 11.5C16.8954 11.5 16 12.3954 16 13.5C16 14.6046 16.8954 15.5 18 15.5Z" stroke="black" stroke-width="2" stroke-linecap="round" stroke-linejoin="round"/>
<path d="M16 20C17.1046 20 18 19.1046 18 18C18 16.8954 17.1046 16 16 16C14.8954 16 14 16.8954 14 18C14 19.1046 14.8954 20 16 20Z" stroke="black" stroke-width="2" stroke-linecap="round" stroke-linejoin="round"/>
<path d="M12 22C13.1046 22 14 21.1046 14 20C14 18.8954 13.1046 18 12 18C10.8954 18 10 18.8954 10 20C10 21.1046 10.8954 22 12 22Z" stroke="black" stroke-width="2" stroke-linecap="round" stroke-linejoin="round"/>
</svg>
