<svg width="24" height="24" viewBox="0 0 24 24" fill="none" xmlns="http://www.w3.org/2000/svg">
<path d="M6.44444 19.7778C7.67174 19.7778 8.66667 18.7829 8.66667 17.5556C8.66667 16.3283 7.67174 15.3333 6.44444 15.3333C5.21715 15.3333 4.22222 16.3283 4.22222 17.5556C4.22222 18.7829 5.21715 19.7778 6.44444 19.7778Z" stroke="black" stroke-width="2" stroke-linecap="round" stroke-linejoin="round"/>
<path d="M4.22222 14.2222C5.44952 14.2222 6.44444 13.2273 6.44444 12C6.44444 10.7727 5.44952 9.77778 4.22222 9.77778C2.99492 9.77778 2 10.7727 2 12C2 13.2273 2.99492 14.2222 4.22222 14.2222Z" stroke="black" stroke-width="2" stroke-linecap="round" stroke-linejoin="round"/>
<path d="M6.44444 8.66667C7.67174 8.66667 8.66667 7.67174 8.66667 6.44444C8.66667 5.21714 7.67174 4.22222 6.44444 4.22222C5.21715 4.22222 4.22222 5.21714 4.22222 6.44444C4.22222 7.67174 5.21715 8.66667 6.44444 8.66667Z" stroke="black" stroke-width="2" stroke-linecap="round" stroke-linejoin="round"/>
<path d="M12 6.44444C12.9718 6.44444 14.1461 4.42781 14.593 2.97879C14.7558 2.45113 14.3306 2.00028 13.7784 2.00018L12 2L10.2221 2.00025C9.66985 2.00032 9.24424 2.4512 9.40701 2.9789C9.85395 4.4279 11.0283 6.44444 12 6.44444Z" stroke="black" stroke-width="2" stroke-linecap="round" stroke-linejoin="round"/>
<path d="M17.5556 8.66667C18.7829 8.66667 19.7778 7.67174 19.7778 6.44444C19.7778 5.21714 18.7829 4.22222 17.5556 4.22222C16.3283 4.22222 15.3333 5.21714 15.3333 6.44444C15.3333 7.67174 16.3283 8.66667 17.5556 8.66667Z" stroke="black" stroke-width="2" stroke-linecap="round" stroke-linejoin="round"/>
<path d="M19.7778 14.2222C21.0051 14.2222 22 13.2273 22 12C22 10.7727 21.0051 9.77778 19.7778 9.77778C18.5505 9.77778 17.5556 10.7727 17.5556 12C17.5556 13.2273 18.5505 14.2222 19.7778 14.2222Z" stroke="black" stroke-width="2" stroke-linecap="round" stroke-linejoin="round"/>
<path d="M17.5556 19.7778C18.7829 19.7778 19.7778 18.7829 19.7778 17.5556C19.7778 16.3283 18.7829 15.3333 17.5556 15.3333C16.3283 15.3333 15.3333 16.3283 15.3333 17.5556C15.3333 18.7829 16.3283 19.7778 17.5556 19.7778Z" stroke="black" stroke-width="2" stroke-linecap="round" stroke-linejoin="round"/>
<path d="M12 22C13.2273 22 14.2222 21.0051 14.2222 19.7778C14.2222 18.5505 13.2273 17.5556 12 17.5556C10.7727 17.5556 9.77778 18.5505 9.77778 19.7778C9.77778 21.0051 10.7727 22 12 22Z" stroke="black" stroke-width="2" stroke-linecap="round" stroke-linejoin="round"/>
</svg>
