<svg width="24" height="24" viewBox="0 0 24 24" fill="none" xmlns="http://www.w3.org/2000/svg">
<path d="M8.85 6.6L12 3L15.15 6.6L13.35 7.5V15.6H14.55C15.3784 15.6 16.05 14.9284 16.05 14.1V9.3L21 12.45L18.75 13.8V16.3C18.75 17.4046 17.8546 18.3 16.75 18.3H13.35V20C13.35 20.5523 12.9023 21 12.35 21H11.65C11.0977 21 10.65 20.5523 10.65 20V18.3H7.25C6.14543 18.3 5.25 17.4046 5.25 16.3V13.8L3 12.45L7.95 9.3V14.1C7.95 14.9284 8.62157 15.6 9.45 15.6H10.65V7.5L8.85 6.6Z" stroke="black" stroke-width="2" stroke-linecap="round" stroke-linejoin="round"/>
</svg>
