<svg width="24" height="24" viewBox="0 0 24 24" fill="none" xmlns="http://www.w3.org/2000/svg">
<path d="M12 12C10.7241 12 9.55977 12.4779 8.67634 13.2645C7.64781 14.1803 7 15.5145 7 17C7 19.7614 9.23858 22 12 22C14.7614 22 17 19.7614 17 17C17 15.5145 16.3522 14.1803 15.3237 13.2645C14.4402 12.4779 13.2759 12 12 12ZM12 12V10M12 10L14.5915 9.13617M12 10L9.5 9.16667M14.5 2H18V8L14.5915 9.13617M14.5 2L14.5915 9.13617M14.5 2H9.5M9.5 2H6V8L9.5 9.16667M9.5 2V9.16667" stroke="black" stroke-width="2" stroke-linecap="round" stroke-linejoin="round"/>
</svg>
