<svg width="24" height="24" viewBox="0 0 24 24" fill="none" xmlns="http://www.w3.org/2000/svg">
<path d="M8.76791 9.94392C8.50051 10.1152 8.24758 10.3071 8.01139 10.5174C6.77716 11.6164 5.99978 13.2174 5.99978 15C5.99978 18.3137 8.68607 21 11.9998 21C15.3135 21 17.9998 18.3137 17.9998 15C17.9998 13.2174 17.2224 11.6164 15.9882 10.5174C15.752 10.3072 15.4991 10.1153 15.2318 9.944M8.76791 9.94392C9.70072 9.34642 10.8098 9 11.9998 9M8.76791 9.94392L3 5L4.99978 3M11.9998 9L18.9998 3M11.9998 9C13.1898 9 14.2989 9.34645 15.2318 9.944M11.9998 9L4.99978 3M18.9998 3H4.99978M18.9998 3L20.9998 5L15.2318 9.944M12.2937 18V12.3773C12.2937 12.0418 11.9167 11.8738 11.6962 12.1111L10.8318 13.0411" stroke="black" stroke-width="2" stroke-linecap="round" stroke-linejoin="round"/>
</svg>
