<svg width="24" height="24" viewBox="0 0 24 24" fill="none" xmlns="http://www.w3.org/2000/svg">
<path fill-rule="evenodd" clip-rule="evenodd" d="M6 1C5.44772 1 5 1.44772 5 2V8C5 8.43043 5.27543 8.81257 5.68377 8.94868L9.18377 10.1153L11 10.7208V11.0831C9.86375 11.2739 8.83503 11.7843 8.01136 12.5177C6.77874 13.6152 6 15.2173 6 17C6 20.3137 8.68629 23 12 23C15.3137 23 18 20.3137 18 17C18 15.2173 17.2213 13.6152 15.9886 12.5177C15.165 11.7843 14.1363 11.2739 13 11.0831V10.7208L14.9077 10.0849L18.3162 8.94868C18.7246 8.81257 19 8.43043 19 8V2C19 1.44772 18.5523 1 18 1H14.5H9.5H6ZM13.5822 8.41851L12 8.94591L10.5 8.44591V3H13.5127L13.5822 8.41851ZM8.5 3V7.77924L7 7.27924V3H8.5ZM15.5738 7.75462L15.5129 3H17V7.27924L15.5738 7.75462ZM9.34133 14.0114C10.0487 13.3815 10.9786 13 12 13C13.0214 13 13.9513 13.3815 14.6587 14.0114C15.4831 14.7454 16 15.8117 16 17C16 19.2091 14.2091 21 12 21C9.79086 21 8 19.2091 8 17C8 15.8117 8.51689 14.7454 9.34133 14.0114ZM11.7675 14.904C11.8529 14.6987 12.1439 14.6987 12.2293 14.904L12.6242 15.8531C12.66 15.9391 12.7407 15.9981 12.8335 16.0062L13.7711 16.0875C13.9859 16.1061 14.0781 16.3693 13.9219 16.5178L13.2096 17.1946C13.1449 17.256 13.1179 17.3472 13.1386 17.4339L13.3789 18.4412C13.4305 18.6575 13.1951 18.8285 13.0053 18.7126L12.1288 18.1773C12.0487 18.1285 11.9481 18.1285 11.868 18.1773L10.9915 18.7126C10.8017 18.8285 10.5663 18.6575 10.6179 18.4412L10.8583 17.4336C10.8789 17.347 10.8521 17.2561 10.7877 17.1947L10.0778 16.5175C9.92206 16.3689 10.0143 16.1061 10.2288 16.0875L11.1634 16.0062C11.2562 15.9982 11.3368 15.9392 11.3726 15.8532L11.7675 14.904Z" fill="black"/>
</svg>
