<svg width="24" height="24" viewBox="0 0 24 24" fill="none" xmlns="http://www.w3.org/2000/svg">
<path d="M17.0002 12.8082L18.3497 12.3968C18.9021 12.2284 19.1634 11.5977 18.8918 11.088L18.0092 9.43134C17.8656 9.16172 17.8656 8.83828 18.0092 8.56866L18.8918 6.91202C19.1634 6.40235 18.9021 5.77156 18.3497 5.60317L16.5542 5.05584C16.2619 4.96676 16.0332 4.73805 15.9442 4.44583L15.3968 2.65032C15.2284 2.09792 14.5977 1.83664 14.088 2.10818L12.4313 2.99077C12.1617 3.13442 11.8383 3.13442 11.5687 2.99077L9.91202 2.10818C9.40235 1.83664 8.77156 2.09792 8.60317 2.65032L8.05584 4.44583C7.96676 4.73805 7.73805 4.96676 7.44583 5.05584L5.65032 5.60317C5.09792 5.77156 4.83664 6.40234 5.10818 6.91202L5.99077 8.56866C6.13442 8.83828 6.13442 9.16172 5.99077 9.43134L5.10818 11.088C4.83664 11.5977 5.09792 12.2284 5.65032 12.3968L7 12.8083M17.0002 12.8082L16.5542 12.9442C16.2619 13.0332 16.0332 13.2619 15.9442 13.5542L15.3968 15.3497C15.2284 15.9021 14.5977 16.1634 14.088 15.8918L12.4313 15.0092C12.1617 14.8656 11.8383 14.8656 11.5687 15.0092L9.91202 15.8918C9.40234 16.1634 8.77156 15.9021 8.60317 15.3497L8.05584 13.5542C7.96676 13.2619 7.73805 13.0332 7.44583 12.9442L7 12.8083M17.0002 12.8082V22L12.0002 19L7 22V12.8083M16 9C16 11.2091 14.2091 13 12 13C9.79086 13 8 11.2091 8 9C8 6.79086 9.79086 5 12 5C14.2091 5 16 6.79086 16 9Z" stroke="black" stroke-width="2" stroke-linecap="round" stroke-linejoin="round"/>
</svg>
