<svg width="24" height="24" viewBox="0 0 24 24" fill="none" xmlns="http://www.w3.org/2000/svg">
<path d="M8.76791 9.94392C8.50051 10.1152 8.24758 10.3071 8.01139 10.5174C6.77716 11.6164 5.99978 13.2174 5.99978 15C5.99978 18.3137 8.68607 21 11.9998 21C15.3135 21 17.9998 18.3137 17.9998 15C17.9998 13.2174 17.2224 11.6164 15.9882 10.5174C15.752 10.3072 15.4991 10.1153 15.2318 9.944M8.76791 9.94392C9.70072 9.34642 10.8098 9 11.9998 9M8.76791 9.94392L3 5L4.99978 3M11.9998 9L18.9998 3M11.9998 9C13.1898 9 14.2989 9.34645 15.2318 9.944M11.9998 9L4.99978 3M18.9998 3H4.99978M18.9998 3L20.9998 5L15.2318 9.944M10.4851 13.25C10.6557 12.6461 11.2571 12.2 11.9729 12.2C12.8214 12.2 13.5091 12.8268 13.5091 13.6C13.5091 14.3731 12.8214 15 11.9729 15C12.9156 15 13.6798 15.6268 13.6798 16.4C13.6798 17.1732 12.9156 17.8 11.9729 17.8C11.1776 17.8 10.5093 17.3538 10.3198 16.75" stroke="black" stroke-width="2" stroke-linecap="round" stroke-linejoin="round"/>
</svg>
