<svg width="24" height="24" viewBox="0 0 24 24" fill="none" xmlns="http://www.w3.org/2000/svg">
<path d="M8.01161 10.5174C6.77738 11.6164 6 13.2174 6 15C6 18.3137 8.68629 21 12 21C15.3137 21 18 18.3137 18 15C18 13.2174 17.2226 11.6164 15.9884 10.5174M8.01161 10.5174C9.07173 9.57351 10.4689 9 12 9M8.01161 10.5174L3 3H8L12 9M12 9L16 3H21L15.9884 10.5174M12 9C13.5311 9 14.9283 9.57351 15.9884 10.5174M12.2939 18V12.3773C12.2939 12.0418 11.9169 11.8738 11.6964 12.1111L11.1202 12.7311L10.832 13.0411" stroke="black" stroke-width="2" stroke-linecap="round" stroke-linejoin="round"/>
</svg>
