<svg width="24" height="24" viewBox="0 0 24 24" fill="none" xmlns="http://www.w3.org/2000/svg">
<path d="M17.5 13.3306C18.4394 12.1391 19 10.635 19 9C19 5.13401 15.866 2 12 2C8.13401 2 5 5.13401 5 9C5 10.635 5.56057 12.1391 6.5 13.3306M17.5 13.3306C17.2445 13.6546 16.961 13.9555 16.6531 14.2297C15.4163 15.3309 13.7863 16 12 16C10.2137 16 8.58368 15.3309 7.34688 14.2297C7.039 13.9555 6.75549 13.6546 6.5 13.3306M17.5 13.3306V22L12 19L6.5 22V13.3306" stroke="black" stroke-width="2" stroke-linecap="round" stroke-linejoin="round"/>
</svg>
