<svg width="24" height="24" viewBox="0 0 24 24" fill="none" xmlns="http://www.w3.org/2000/svg">
<path d="M13.9788 2H10.0212C9.20151 2 8.53705 2.67157 8.53705 3.5C8.53705 4.32843 9.20151 5 10.0212 5H10.5159V8.05573C10.5159 8.67671 10.3728 9.28916 10.0981 9.84458L5.1586 19.8292C4.6652 20.8265 5.38277 22 6.48604 22H17.514C18.6172 22 19.3348 20.8265 18.8414 19.8292L13.9019 9.84458C13.6272 9.28916 13.4841 8.67671 13.4841 8.05573V5H13.9788C14.7985 5 15.463 4.32843 15.463 3.5C15.463 2.67157 14.7985 2 13.9788 2Z" stroke="black" stroke-width="2" stroke-linejoin="round"/>
</svg>
