<svg width="24" height="24" viewBox="0 0 24 24" fill="none" xmlns="http://www.w3.org/2000/svg">
<path d="M12 5.07653L7.31623 3.55089C6.6687 3.33998 6 3.81095 6 4.47793V14.4169C6 15.2581 6.55086 16.005 7.36754 16.271L12 17.7799M12 5.07653L16.6838 3.55089C17.3313 3.33998 18 3.81095 18 4.47793V14.4169C18 15.2581 17.4491 16.005 16.6325 16.271L12 17.7799M12 5.07653V17.7799M21 6.05371V14.9626C21 16.6451 19.8983 18.1387 18.2649 18.6708L13.2649 20.2994C12.4438 20.5669 11.5562 20.5669 10.7351 20.2994L5.73509 18.6708C4.10172 18.1387 3 16.6451 3 14.9626V6.05371" stroke="black" stroke-width="2" stroke-linecap="round" stroke-linejoin="round"/>
</svg>
