<svg width="24" height="24" viewBox="0 0 24 24" fill="none" xmlns="http://www.w3.org/2000/svg">
<path d="M10 15.3333C10 16.2538 10.7036 17 11.5714 17H20.2143M10 15.3333C10 14.4129 10.7036 13.6667 11.5714 13.6667H20.2143M10 15.3333V4.66667C10 3.74619 10.7036 3 11.5714 3H20.6071C20.8241 3 21 3.18655 21 3.41667V13.25C21 13.4801 20.8241 13.6667 20.6071 13.6667H20.2143M20.2143 13.6667V17M20.2143 17H21M14 7H17M3 19.3333C3 20.2538 3.70355 21 4.57143 21H14M3 19.3333C3 18.4129 3.70355 17.6667 4.57143 17.6667H7M3 19.3333V7.66667C3 6.74619 3.70355 6 4.57143 6H6" stroke="black" stroke-width="2" stroke-linecap="round"/>
</svg>
