<svg width="24" height="24" viewBox="0 0 24 24" fill="none" xmlns="http://www.w3.org/2000/svg">
<path d="M9 6C8.44772 6 8 6.44772 8 7C8 7.55228 8.44772 8 9 8V6ZM15 8C15.5523 8 16 7.55228 16 7C16 6.44772 15.5523 6 15 6V8ZM7 21C7 21.5523 7.44772 22 8 22C8.55228 22 9 21.5523 9 21H7ZM7 18C6.44772 18 6 17.5523 6 17H4C4 18.6569 5.34315 20 7 20V18ZM7 14C5.34315 14 4 15.3431 4 17H6C6 16.4477 6.44772 16 7 16V14ZM7 4H18.5V2H7V4ZM18.5 4C18.2239 4 18 3.77614 18 3.5H20C20 2.67157 19.3284 2 18.5 2V4ZM7 2C5.34315 2 4 3.34315 4 5H6C6 4.44772 6.44772 4 7 4V2ZM4 5V17H6V5H4ZM18 3.5V15H20V3.5H18ZM9 8H15V6H9V8ZM7 16H19V14H7V16ZM18.5 18H7V20H18.5V18ZM18 18.5C18 18.2239 18.2239 18 18.5 18V20C19.3284 20 20 19.3284 20 18.5H18ZM18 15V18.5H20V15H18ZM7 17V21H9V17H7Z" fill="black"/>
</svg>
