<svg width="24" height="24" viewBox="0 0 24 24" fill="none" xmlns="http://www.w3.org/2000/svg">
<path d="M12 6.14621C11.5847 6.14621 11.1694 6.06092 10.7816 5.89034L4.40614 3.0864C3.74485 2.79557 3 3.27457 3 3.99067V15.3925C3 16.5657 3.6982 17.6288 4.78159 18.1053L10.7816 20.7441C11.1694 20.9147 11.5847 21 12 21M12 6.14621C12.4153 6.14621 12.8306 6.06092 13.2184 5.89034L19.5939 3.0864C20.2551 2.79557 21 3.27457 21 3.99067V15.3925C21 16.5657 20.3018 17.6288 19.2184 18.1053L13.2184 20.7441C12.8306 20.9147 12.4153 21 12 21M12 6.14621V21M8.78937 9.01413L6.39858 7.96266" stroke="black" stroke-width="2" stroke-linecap="round"/>
</svg>
