<svg width="24" height="24" viewBox="0 0 24 24" fill="none" xmlns="http://www.w3.org/2000/svg">
<path d="M12 11.9728C10.4134 10.1847 7.41074 9.19444 4.88772 9.00216C4.39792 8.96483 4 9.41594 4 9.96922V17.9928C4 18.546 4.39792 18.992 4.88772 19.0293C7.41074 19.2216 10.4134 20.2118 12 22M12 11.9728C13.5866 10.1847 16.5893 9.19444 19.1123 9.00216C19.6021 8.96483 20 9.41594 20 9.96922V17.9928C20 18.546 19.6021 18.992 19.1123 19.0293C16.5893 19.2216 13.5866 20.2118 12 22M12 11.9728V22M6.66667 13.2655C7.57567 13.4569 8.49026 13.7426 9.33333 14.1226M15 5C15 6.65685 13.6569 8 12 8C10.3431 8 9 6.65685 9 5C9 3.34315 10.3431 2 12 2C13.6569 2 15 3.34315 15 5Z" stroke="black" stroke-width="2" stroke-linecap="round" stroke-linejoin="round"/>
</svg>
