<svg width="24" height="24" viewBox="0 0 24 24" fill="none" xmlns="http://www.w3.org/2000/svg">
<path d="M7 14H9M12 13C12 11.3431 13.3431 10 15 10H19C19.5523 10 20 10.4477 20 11V18C20 18.5523 19.5523 19 19 19H15C13.3431 19 12 20.3431 12 22M12 13C12 11.3431 10.6569 10 9 10H5C4.44772 10 4 10.4477 4 11V18C4 18.5523 4.44772 19 5 19H9C10.6569 19 12 20.3431 12 22M12 13V22M15 5C15 6.65685 13.6569 8 12 8C10.3431 8 9 6.65685 9 5C9 3.34315 10.3431 2 12 2C13.6569 2 15 3.34315 15 5Z" stroke="black" stroke-width="2" stroke-linecap="round" stroke-linejoin="round"/>
</svg>
