<svg width="24" height="24" viewBox="0 0 24 24" fill="none" xmlns="http://www.w3.org/2000/svg">
<path d="M12 5.97284C10.2151 4.18466 6.83708 3.19444 3.99869 3.00216C3.44766 2.96483 3 3.41594 3 3.96922V16.9928C3 17.546 3.44766 17.992 3.99869 18.0293C6.83708 18.2216 10.2151 19.2118 12 21M12 5.97284C13.7849 4.18466 17.1629 3.19444 20.0013 3.00216C20.5523 2.96483 21 3.41594 21 3.96922V16.9928C21 17.546 20.5523 17.992 20.0013 18.0293C17.1629 18.2216 13.7849 19.2118 12 21M12 5.97284V21M6 7.26554C7.02263 7.45686 8.05155 7.74256 9 8.12263" stroke="black" stroke-width="2" stroke-linecap="round" stroke-linejoin="round"/>
</svg>
