<svg width="24" height="24" viewBox="0 0 24 24" fill="none" xmlns="http://www.w3.org/2000/svg">
<path d="M12 11.1462C11.6309 11.1462 11.2617 11.0609 10.917 10.8903L5.2499 8.0864C4.66209 7.79557 4 8.27457 4 8.99067V16.3925C4 17.5657 4.62062 18.6288 5.58363 19.1053L10.917 21.7441C11.2617 21.9147 11.6309 22 12 22M12 11.1462C12.3691 11.1462 12.7383 11.0609 13.083 10.8903L18.7501 8.0864C19.3379 7.79557 20 8.27457 20 8.99067V16.3925C20 17.5657 19.3794 18.6288 18.4164 19.1053L13.083 21.7441C12.7383 21.9147 12.3691 22 12 22M12 11.1462V22M9.14611 14.0141L7.02096 12.9627M15 5C15 6.65685 13.6569 8 12 8C10.3431 8 9 6.65685 9 5C9 3.34315 10.3431 2 12 2C13.6569 2 15 3.34315 15 5Z" stroke="black" stroke-width="2" stroke-linecap="round"/>
</svg>
