<svg width="24" height="24" viewBox="0 0 24 24" fill="none" xmlns="http://www.w3.org/2000/svg">
<path d="M7 18C7 18.5523 6.55228 19 6 19H4C3.44772 19 3 18.5523 3 18V16M7 18V16M7 18C7 18.5523 7.44772 19 8 19H10C10.5523 19 11 18.5523 11 18V16M3 8V6C3 5.44772 3.44772 5 4 5H6C6.55228 5 7 5.44772 7 6V8M3 8H7M3 8V16M7 8V16M3 16H7M7 16V11M7 16H11M12 9V7C12 6.44772 12.4477 6 13 6H15C15.5523 6 16 6.44772 16 7V9M12 9H16M12 9V16M16 9V16M12 16V18C12 18.5523 12.4477 19 13 19H15C15.5523 19 16 18.5523 16 18V16M12 16H16M17.5 7V5C17.5 4.44772 17.9477 4 18.5 4H20C20.5523 4 21 4.44772 21 5V7M17.5 7H21M17.5 7V16M21 7V16M17.5 16V18C17.5 18.5523 17.9477 19 18.5 19H20C20.5523 19 21 18.5523 21 18V16M17.5 16H21M7 11V9C7 8.44772 7.44772 8 8 8H10C10.5523 8 11 8.44772 11 9V11M7 11H11M11 11V16" stroke="black" stroke-width="2" stroke-linejoin="round"/>
</svg>
