<svg width="24" height="24" viewBox="0 0 24 24" fill="none" xmlns="http://www.w3.org/2000/svg">
<path d="M22 10V17C22 18.6569 20.6569 20 19 20H5C3.34315 20 2 18.6569 2 17V10M22 10C22 8.34315 20.6569 7 19 7M22 10L15.5777 13.2111C13.3255 14.3373 10.6745 14.3373 8.42229 13.2111L2 10M2 10C2 8.34315 3.34315 7 5 7M19 7H15M19 7V6M5 7H9M5 7V6M9 7V6C9 4.89543 9.89543 4 11 4H13C14.1046 4 15 4.89543 15 6V7M9 7H15M12 13V15" stroke="black" stroke-width="2" stroke-linecap="round" stroke-linejoin="round"/>
</svg>
