<svg width="24" height="24" viewBox="0 0 24 24" fill="none" xmlns="http://www.w3.org/2000/svg">
<path d="M10 6H14M9 9H15M9.52328 16.2004C9.41649 16.9713 9.65209 17.7824 10.2301 18.3753C11.2058 19.3763 12.7877 19.3763 13.7634 18.3753C14.3413 17.7824 14.5771 16.9711 14.4703 16.2003M9.52328 16.2004C9.59676 15.67 9.83236 15.1587 10.2301 14.7507C11.2058 13.7498 12.7877 13.7498 13.7634 14.7507C14.1611 15.1587 14.3968 15.6699 14.4703 16.2003M9.52328 16.2004L7.76922 18M14.4703 16.2003L16.2245 18M16.2245 18L17.2968 19.1001L15.5301 20.1875L14.4701 21.9999L11.9968 19.4628L9.52341 22L8.46342 20.1877L6.69678 19.1003L7.76922 18M16.2245 18H17C18.1046 18 19 17.1046 19 16V4C19 2.89543 18.1046 2 17 2H7C5.89543 2 5 2.89543 5 4V16C5 17.1046 5.89543 18 7 18H7.76922" stroke="black" stroke-width="2" stroke-linecap="round" stroke-linejoin="round"/>
</svg>
