<svg width="24" height="24" viewBox="0 0 24 24" fill="none" xmlns="http://www.w3.org/2000/svg">
<path fill-rule="evenodd" clip-rule="evenodd" d="M6 7C6 6.44772 6.44772 6 7 6H17C17.5523 6 18 6.44772 18 7V15C18 15.5523 18.4477 16 19 16C19.5523 16 20 15.5523 20 15V7C20 5.34315 18.6569 4 17 4H7C5.34315 4 4 5.34315 4 7V15C4 15.5523 4.44772 16 5 16C5.55228 16 6 15.5523 6 15V7ZM3 18C2.44772 18 2 18.4477 2 19C2 19.5523 2.44772 20 3 20H21C21.5523 20 22 19.5523 22 19C22 18.4477 21.5523 18 21 18H3ZM8 15C8 14.4477 8.44772 14 9 14H12C12.5523 14 13 14.4477 13 15V15.75C13 15.8881 12.8881 16 12.75 16H8.25C8.11193 16 8 15.8881 8 15.75V15Z" fill="black"/>
</svg>
