<svg width="24" height="24" viewBox="0 0 24 24" fill="none" xmlns="http://www.w3.org/2000/svg">
<path d="M12 10.5C11.0151 10.5 10.0302 10.4184 9 10.2552C7.48025 10.0144 5.86202 9.59602 4 9.00002C4 9.00002 2 10.2535 2 13C2 15.7465 4 17 4 17C10.2484 15 13.7516 15 20 17C20 17 22 15.7465 22 13C22 10.2535 20 9.00002 20 9.00002C18.138 9.59602 16.5197 10.0144 15 10.2552C13.9698 10.4184 12.9849 10.5 12 10.5ZM12 10.5V9.00002M12 10.5L15.199 10.1801C16.2214 10.0779 17 9.21755 17 8.19005V8.00002C17 6.89545 16.1046 6.00002 15 6.00002C13.3431 6.00002 12 7.34317 12 9.00002M12 10.5L8.80099 10.1801C7.77859 10.0779 7 9.21753 7 8.19002V8C7 6.89543 7.89543 6 9 6C10.6569 6 12 7.34317 12 9.00002" stroke="black" stroke-width="2" stroke-linejoin="round"/>
<path d="M10.4268 19.9272L11.8232 18.5481C11.9209 18.4517 12.0791 18.4517 12.1768 18.5481L13.5732 19.9272C13.7307 20.0827 14 19.9726 14 19.7526V10.9876C14 10.4422 13.5523 10 13 10H11C10.4477 10 10 10.4422 10 10.9876V19.7526C10 19.9726 10.2693 20.0827 10.4268 19.9272Z" fill="black"/>
</svg>
