<svg width="24" height="24" viewBox="0 0 24 24" fill="none" xmlns="http://www.w3.org/2000/svg">
<path fill-rule="evenodd" clip-rule="evenodd" d="M7 4.8C7 3.21552 8.32605 2 9.875 2H16.4733C16.8821 2 17.2828 2.08476 17.6503 2.24531C17.9584 2.37991 18.2443 2.56831 18.4917 2.80582L21.1434 5.3514L20.4508 6.07279L21.1434 5.35141C21.3909 5.58901 21.5908 5.86712 21.7352 6.17165C21.9075 6.53513 22 6.93515 22 7.34558V17.2C22 18.7845 20.674 20 19.125 20H13C12.4477 20 12 19.5523 12 19C12 18.4477 12.4477 18 13 18H19.125C19.6471 18 20 17.6037 20 17.2V7.34558C20 7.23658 19.9756 7.12872 19.928 7.02835C19.9235 7.01884 19.9187 7.00939 19.9138 7H17.6C17.2686 7 17 6.73137 17 6.4V4.16162C16.9533 4.12938 16.903 4.10135 16.8497 4.07804C16.734 4.02751 16.6057 4 16.4733 4H9.875C9.35288 4 9 4.39625 9 4.8V7C9 7.55228 8.55228 8 8 8C7.44772 8 7 7.55228 7 7V4.8ZM7.64837 10.0388L7.04225 10.3643C6.70435 10.5458 6.29565 10.5458 5.95775 10.3643L5.35163 10.0388C5.17427 9.9435 4.95073 10.0315 4.89407 10.2189L4.68308 10.9167C4.5784 11.2629 4.30472 11.548 3.93645 11.6612L3.21972 11.8815C3.03515 11.9382 2.9468 12.1397 3.03354 12.3061L3.40089 13.0108C3.57088 13.3325 3.57088 13.7156 3.40089 14.0373L3.03515 14.7294C2.948 14.8943 3.03352 15.0951 3.21605 15.1541L3.93645 15.3869C4.30472 15.5001 4.5784 15.7853 4.68308 16.1315L4.89407 16.8293C4.95073 17.0167 5.17427 17.1047 5.35163 17.0094L5.95776 16.6838C6.29565 16.5024 6.70435 16.5024 7.04225 16.6838L7.64837 17.0094C7.82573 17.1047 8.04927 17.0167 8.10593 16.8293L8.31692 16.1315C8.4216 15.7853 8.69528 15.5001 9.06355 15.3869L9.78028 15.1667C9.96485 15.1099 10.0532 14.9085 9.96646 14.7421L9.59911 14.0373C9.42912 13.7156 9.42912 13.3325 9.59911 13.0108L9.96486 12.3187C10.052 12.1538 9.96648 11.9531 9.78395 11.8941L9.06355 11.6612C8.69528 11.548 8.4216 11.2629 8.31692 10.9167L8.10593 10.2189C8.04927 10.0315 7.82573 9.9435 7.64837 10.0388ZM3.49202 20.4937V16.418L3.57102 16.4422L3.90011 17.5306C4.09792 18.1848 4.87195 18.5412 5.52646 18.1897L6.5 17.6668L7.47354 18.1897C8.12805 18.5412 8.90208 18.1848 9.09989 17.5306L9.42898 16.4422L9.50878 16.4177V20.4937C9.50878 20.8915 9.05228 21.1334 8.7017 20.9214L6.78107 19.7596C6.60959 19.6559 6.39132 19.6559 6.21984 19.7596L4.29909 20.9214C3.94851 21.1334 3.49202 20.8915 3.49202 20.4937Z" fill="black"/>
</svg>
