<svg width="24" height="24" viewBox="0 0 24 24" fill="none" xmlns="http://www.w3.org/2000/svg">
<path d="M10 16.0001C10 18.2092 8.20914 20 6 20H4C2.89543 20 2 19.1046 2 18.0001V16.0001C2 15.6358 2.09739 15.2942 2.26756 15.0001M10 16.0001C10 14.8955 9.10457 14.0001 8 14.0001H4C3.25972 14.0001 2.61337 14.4023 2.26756 15.0001M10 16.0001C11 15.0001 13 15.0001 14 16.0001M14 16.0001C14 18.2092 15.7909 20 18 20H20C21.1046 20 22 19.1046 22 18.0001V16.0001C22 15.6358 21.9026 15.2942 21.7324 15.0001M14 16.0001C14 14.8955 14.8954 14.0001 16 14.0001H20C20.7403 14.0001 21.3866 14.4023 21.7324 15.0001M2.26756 15.0001L4.58368 7.3713C4.85285 6.48473 5.42145 5.71909 6.19237 5.20514L8 4.00005M21.7324 15.0001L19.4163 7.37125C19.1471 6.48467 18.5786 5.71903 17.8076 5.20509L16 4" stroke="black" stroke-width="2" stroke-linecap="round" stroke-linejoin="round"/>
</svg>
