<svg width="24" height="24" viewBox="0 0 24 24" fill="none" xmlns="http://www.w3.org/2000/svg">
<path d="M9.87398 11C9.42994 9.27477 7.86384 8 6 8C3.79086 8 2 9.79086 2 12C2 14.2091 3.79086 16 6 16C8.20914 16 10 14.2091 10 12C10 11.6547 9.95625 11.3196 9.87398 11ZM9.87398 11C11 10 13 10 14.126 11M14.126 11C14.0438 11.3196 14 11.6547 14 12C14 14.2091 15.7909 16 18 16C20.2091 16 22 14.2091 22 12C22 9.79086 20.2091 8 18 8C16.1362 8 14.5701 9.27477 14.126 11Z" stroke="black" stroke-width="2"/>
</svg>
