<svg width="24" height="24" viewBox="0 0 24 24" fill="none" xmlns="http://www.w3.org/2000/svg">
<path d="M9.87398 15C9.42994 13.2748 7.86384 12 6 12C4.32131 12 2.88415 13.0341 2.29076 14.5M9.87398 15C9.95625 15.3196 10 15.6547 10 16C10 18.2091 8.20914 20 6 20C3.79086 20 2 18.2091 2 16C2 15.4696 2.10325 14.9632 2.29076 14.5M9.87398 15C11 14 13 14 14.126 15M14.126 15C14.0438 15.3196 14 15.6547 14 16C14 18.2091 15.7909 20 18 20C20.2091 20 22 18.2091 22 16C22 15.4695 21.8967 14.9632 21.7092 14.5M14.126 15C14.5701 13.2748 16.1362 12 18 12C19.6787 12 21.1159 13.0341 21.7092 14.5M2.29076 14.5L4.10003 6.71994C4.34688 5.65843 5.14999 4.81429 6.19789 4.51489L8 4M21.7092 14.5L19.9 6.71989C19.6531 5.65838 18.85 4.81424 17.8021 4.51484L16 3.99995" stroke="black" stroke-width="2" stroke-linecap="round" stroke-linejoin="round"/>
</svg>
