<svg width="24" height="24" viewBox="0 0 24 24" fill="none" xmlns="http://www.w3.org/2000/svg">
<path d="M17.5833 2C19.5278 3.94449 20.5 6.49306 20.5 9.04163C20.5 11.5902 19.5278 14.1388 17.5833 16.0833C15.8828 17.7837 13.7204 18.7406 11.5 18.9541M3.5 16.0833C4.00001 16.5833 4.53996 17.019 5.10958 17.3904C7.03319 18.6448 9.29518 19.166 11.5 18.9541M11.5 18.9541V22M11.5 22H6.5M11.5 22H16.5M17.5125 9.04163C17.5125 12.8915 14.3915 16.0125 10.5416 16.0125C6.69173 16.0125 3.57077 12.8915 3.57077 9.04163C3.57077 5.19173 6.69173 2.07077 10.5416 2.07077C14.3915 2.07077 17.5125 5.19173 17.5125 9.04163Z" stroke="black" stroke-width="2" stroke-linecap="round" stroke-linejoin="round"/>
</svg>
