<svg width="24" height="24" viewBox="0 0 24 24" fill="none" xmlns="http://www.w3.org/2000/svg">
<path d="M6.19722 12.3351L2.35909 10.1937C1.8803 9.92653 1.8803 9.07347 2.35909 8.80633L10.0353 4.5234C11.2861 3.82553 12.7139 3.82553 13.9647 4.5234L21.6409 8.80633C22.1197 9.07347 22.1197 9.92653 21.6409 10.1937L17.8028 12.3351M6.19722 12.3351L10.0353 14.4766C11.2861 15.1745 12.7139 15.1745 13.9647 14.4766L17.8028 12.3351M6.19722 12.3351L4.5 17C4.5 17 6.95707 20 12 20C17.0429 20 19.5 17 19.5 17L17.8028 12.3351" stroke="black" stroke-width="2" stroke-linecap="round" stroke-linejoin="round"/>
</svg>
