<svg width="24" height="24" viewBox="0 0 24 24" fill="none" xmlns="http://www.w3.org/2000/svg">
<path d="M6.7775 11.0619L3.32318 9.50449C2.89227 9.3102 2.89227 8.68979 3.32319 8.49551L10.2318 5.38066C11.3575 4.87311 12.6425 4.87311 13.7682 5.38066L20.6768 8.49551C21.1077 8.6898 21.1077 9.3102 20.6768 9.50449L17.2225 11.0619M6.7775 11.0619L10.2318 12.6193C11.3575 13.1269 12.6425 13.1269 13.7682 12.6193L17.2225 11.0619M6.7775 11.0619L5.7775 17C5.7775 17 7.81605 19 12 19C16.184 19 18.2225 17 18.2225 17L17.2225 11.0619M12 9L9.5 11.5V15.5" stroke="black" stroke-width="2" stroke-linecap="round" stroke-linejoin="round"/>
</svg>
