<svg width="24" height="24" viewBox="0 0 24 24" fill="none" xmlns="http://www.w3.org/2000/svg">
<path d="M3 21H11.5M14.5 21H21M14.5 21C17.5376 21 20 18.5376 20 15.5C20 12.4624 17.5376 10 14.5 10M14.5 21H11.5M14.5 10L11.9833 14.4903C11.7102 14.9777 11.1052 15.1447 10.6321 14.8633L9.34708 14.0991M14.5 10L15.4673 8.27408M9.34708 14.0991L8.06209 13.3348C7.58897 13.0535 7.42687 12.4303 7.70003 11.9429L11.184 5.72662M9.34708 14.0991L8.85249 14.9815M13.9309 3.88247L13.5026 3.62772C13.0295 3.34634 12.4245 3.51332 12.1514 4.00069L11.184 5.72662M13.9309 3.88247L14.4255 3L16.1388 4.01898L15.6442 4.90145M13.9309 3.88247L15.6442 4.90145M15.6442 4.90145L16.0726 5.15619C16.5457 5.43758 16.7078 6.06078 16.4346 6.54815L15.4673 8.27408M11.5 21V18M11.5 18H13M11.5 18H5M15.4673 8.27408L11.184 5.72662" stroke="black" stroke-width="2" stroke-linecap="round" stroke-linejoin="round"/>
</svg>
