<svg width="24" height="24" viewBox="0 0 24 24" fill="none" xmlns="http://www.w3.org/2000/svg">
<path d="M14.3499 6.37584L5.61593 11.3902C5.13357 11.6671 4.9683 12.2805 5.24679 12.7601M14.3499 6.37584L16.3669 9.84987M14.3499 6.37584C13.7929 5.41651 14.1234 4.18983 15.0881 3.63596L15.9615 3.13453C16.4439 2.85759 17.0607 3.02194 17.3392 3.5016L20.3647 8.71265C20.6432 9.19231 20.4779 9.80566 19.9956 10.0826L19.1222 10.584C18.1575 11.1379 16.9239 10.8092 16.3669 9.84987M16.3669 9.84987L12.4175 12.1173C12.5966 12.0418 12.7934 12 13 12C13.8284 12 14.5 12.6716 14.5 13.5C14.5 13.9443 14.3069 14.3434 14 14.6181M5.24679 12.7601L3.5 13.763L4.50851 15.5L6.2553 14.4971M5.24679 12.7601L6.2553 14.4971M6.2553 14.4971C6.53379 14.9768 7.15058 15.1411 7.63295 14.8642L12.1018 12.2986C11.7364 12.5721 11.5 13.0085 11.5 13.5C11.5 13.9443 11.6931 14.3434 12 14.6181M12 14.6181C12.2654 14.8556 12.6158 15 13 15C13.3842 15 13.7346 14.8556 14 14.6181M12 14.6181L7.5 21M14 14.6181L18.5 21" stroke="black" stroke-width="2" stroke-linecap="round" stroke-linejoin="round"/>
</svg>
