<svg width="24" height="24" viewBox="0 0 24 24" fill="none" xmlns="http://www.w3.org/2000/svg">
<path d="M12 6.5C12 5 13 3.5 14 3M6.25 12C6.25 10.4521 6.89844 9.25356 8 9M8.5 21.0002C9.53552 21.0002 10.437 20.4641 11.0656 19.947C11.5805 19.5236 12.4195 19.5235 12.9344 19.947C13.563 20.464 14.4645 21.0001 15.5 21.0002C18.5 21.0003 21 15 21 12C21 9.5 20.3068 6.98373 17.5 6.00016C16.7182 5.72619 15.8421 5.86102 15.0229 6.16125C13.119 6.859 10.881 6.85903 8.97706 6.16135C8.15789 5.86116 7.2818 5.72636 6.5 6.00032C3.6932 6.9839 3 9.5 3 12C3 15 5.5 21 8.5 21.0002Z" stroke="black" stroke-width="2" stroke-linecap="round" stroke-linejoin="round"/>
</svg>
