<svg width="24" height="24" viewBox="0 0 24 24" fill="none" xmlns="http://www.w3.org/2000/svg">
<path d="M10.25 14H8.5H6.75M10.25 14H12H13.75M10.25 14L11 15.9998M6.75 14H5C3.34315 14 2 15.3431 2 17C2 18.6569 3.34315 20 5 20H19C20.6569 20 22 18.6569 22 17C22 15.3431 20.6569 14 19 14H17.25M6.75 14L7.5 15.9998M13.75 14H15.5H17.25M13.75 14L14.5 15.9998M17.25 14L18 16M10.25 4H8.5H6.75M10.25 4H12H13.75M10.25 4L11 5.99978M6.75 4H5C3.34315 4 2 5.34315 2 7C2 8.65685 3.34315 10 5 10H19C20.6569 10 22 8.65685 22 7C22 5.34315 20.6569 4 19 4H17.25M6.75 4L7.5 5.99978M13.75 4H15.5H17.25M13.75 4L14.5 5.99978M17.25 4L18 6" stroke="black" stroke-width="2" stroke-linecap="round" stroke-linejoin="round"/>
</svg>
