<svg width="24" height="24" viewBox="0 0 24 24" fill="none" xmlns="http://www.w3.org/2000/svg">
<path d="M21.2361 12C20.6868 11.3862 19.8885 11 19 11H17.25M21.2361 12C21.7111 12.5308 22 13.2316 22 14C22 15.6569 20.6569 17 19 17H5C3.34315 17 2 15.6569 2 14C2 13.2316 2.28885 12.5308 2.76389 12M21.2361 12C21.7111 11.4692 22 10.7684 22 10C22 8.34315 20.6569 7 19 7H17.25H13.75H10.25H6.75H5C3.34315 7 2 8.34315 2 10C2 10.7684 2.28885 11.4692 2.76389 12M2.76389 12C3.31321 11.3863 4.1115 11 5 11H6.75M10.25 11L11 12.9998M10.25 11H6.75M10.25 11H13.75M6.75 11L7.5 12.9998M13.75 11L14.5 12.9998M13.75 11H17.25M17.25 11L18 13" stroke="black" stroke-width="2" stroke-linecap="round" stroke-linejoin="round"/>
</svg>
