<svg width="24" height="24" viewBox="0 0 24 24" fill="none" xmlns="http://www.w3.org/2000/svg">
<path d="M13.318 5.4099L14.636 4.09188C16.0919 2.63604 18.4523 2.63604 19.9081 4.09188C21.364 5.54773 21.364 7.90812 19.9081 9.36396L9.36396 19.9081C7.90812 21.364 5.54773 21.364 4.09188 19.9081C2.63604 18.4523 2.63604 16.0919 4.09188 14.636L5.4099 13.318M13.318 5.4099L12 6.72792L10.682 8.04594M13.318 5.4099L16.4081 5.9969M10.682 8.04594L9.36396 9.36396L8.04594 10.682M10.682 8.04594L13.7721 8.63294M8.04594 10.682L6.72792 12L5.4099 13.318M8.04594 10.682L11.136 11.269M5.4099 13.318L8.5 13.905" stroke="black" stroke-width="2" stroke-linecap="round" stroke-linejoin="round"/>
</svg>
