<svg width="24" height="24" viewBox="0 0 24 24" fill="none" xmlns="http://www.w3.org/2000/svg">
<path d="M6 16.9998H4.99989C3.89538 16.9998 3 16.1044 3 14.9999C3 13.8954 3.89538 13 4.99989 13H7.17157C7.70201 13 8.21071 12.7893 8.58579 12.4142L12.4142 8.58579C12.7893 8.21071 13 7.70201 13 7.17157V5C13 3.89543 13.8954 3 15 3C16.1046 3 17 3.89543 17 5V6C17 6.55228 17.4477 7 18 7H19C20.1046 7 21 7.89543 21 9C21 10.1046 20.1046 11 19 11H16.8284C16.298 11 15.7893 11.2107 15.4142 11.5858L11.5858 15.4142C11.2107 15.7893 11 16.298 11 16.8284V18.9997C11 20.1042 10.1046 20.9997 9.00007 20.9997C7.89547 20.9997 7 20.1043 7 18.9997V17.9998C7 17.4475 6.55228 16.9998 6 16.9998Z" stroke="black" stroke-width="2" stroke-linecap="round" stroke-linejoin="round"/>
</svg>
