<svg width="24" height="24" viewBox="0 0 24 24" fill="none" xmlns="http://www.w3.org/2000/svg">
<path d="M5.00003 17.9998H4.49989C3.67152 17.9998 3 17.3282 3 16.4999C3 15.6715 3.67152 15 4.49989 15H6.17157C6.70201 15 7.21071 14.7893 7.58579 14.4142L14.4142 7.58579C14.7893 7.21071 15 6.70201 15 6.17157V4.5C15 3.67157 15.6716 3 16.5 3C17.3284 3 18 3.67157 18 4.5V5C18 5.55228 18.4477 6 19 6H19.5C20.3284 6 21 6.67157 21 7.5C21 8.32843 20.3284 9 19.5 9H17.8284C17.298 9 16.7893 9.21071 16.4142 9.58579L9.58579 16.4142C9.21071 16.7893 9 17.298 9 17.8284V19.4997C9 20.3281 8.32847 20.9997 7.50007 20.9997C6.67161 20.9997 6 20.3282 6 19.4997V18.9997C6 18.4475 5.5523 17.9998 5.00003 17.9998Z" stroke="black" stroke-width="2" stroke-linecap="round" stroke-linejoin="round"/>
</svg>
