<svg width="24" height="24" viewBox="0 0 24 24" fill="none" xmlns="http://www.w3.org/2000/svg">
<path d="M13.0829 21C14.8085 21 16.1569 19.4675 15.9852 17.7015L15.3955 11.6359C15.3548 11.2176 15.4083 10.7953 15.5518 10.4016C16.7241 7.18634 14.7692 3.77846 11.6662 3.1154M13.0829 21H17.8576C19.716 21 21.1681 19.4675 20.9832 17.7015L20.3481 11.6359C20.3043 11.2176 20.3619 10.7953 20.5165 10.4016C21.9227 6.82029 19.1506 3 15.1457 3H12.8525C12.4431 3 12.0467 3.03991 11.6662 3.1154M13.0829 21H5.91712C4.19146 21 2.84305 19.4675 3.01476 17.7015L3.6045 11.6359C3.64518 11.2176 3.59168 10.7953 3.44816 10.4016C2.14239 6.82029 4.71646 3 8.43528 3H10.5647C10.9448 3 11.313 3.03991 11.6662 3.1154M6.27159 9C6.17619 8.06614 6.65567 7.18775 7.40866 6.74377C7.86549 6.47442 8.42299 6.36495 9.01386 6.5" stroke="black" stroke-width="2" stroke-linecap="round" stroke-linejoin="round"/>
</svg>
