<svg width="24" height="24" viewBox="0 0 24 24" fill="none" xmlns="http://www.w3.org/2000/svg">
<path d="M12.0829 20H4.91712C3.19146 20 1.84305 18.6378 2.01476 17.068L2.6045 11.6764C2.64518 11.3045 2.59168 10.9291 2.44816 10.5792C1.14239 7.39581 3.71646 4 7.43528 4H9.56472M12.0829 20C13.8085 20 15.157 18.6378 14.9852 17.068L14.3955 11.6764C14.3778 11.5147 14.3779 11.3524 14.3955 11.1918M12.0829 20H19.0826C20.8083 20 22.1567 18.6378 21.985 17.068L21.3952 11.6764C21.3776 11.5147 21.3777 11.3524 21.3952 11.1918M9.56472 4C13.2835 4 15.8576 7.39581 14.5518 10.5792C14.4707 10.777 14.4183 10.983 14.3955 11.1918M9.56472 4H16.5645C20.2833 4 22.8573 7.39581 21.5516 10.5792C21.4704 10.777 21.4181 10.983 21.3952 11.1918M5.58317 10.2222L5.45891 9.96663C4.70549 8.41683 6.20295 6.7432 8.01386 7.11111M21.3952 11.1918H14.3955" stroke="black" stroke-width="2" stroke-linecap="round" stroke-linejoin="round"/>
</svg>
