<svg width="24" height="24" viewBox="0 0 24 24" fill="none" xmlns="http://www.w3.org/2000/svg">
<path d="M4.5 17V18C4.5 19.6569 5.84315 21 7.5 21H16.5C18.1569 21 19.5 19.6569 19.5 18V17M4.5 17H19.5M4.5 17C3.67157 17 3 16.3284 3 15.5V14C3 13.1716 3.67157 12.5 4.5 12.5M19.5 17C20.3284 17 21 16.3284 21 15.5V14C21 13.1716 20.3284 12.5 19.5 12.5M4.5 12.5C3.67157 12.5 3 11.8284 3 11V9.5C3 8.67157 3.67157 8 4.5 8H19.5C20.3284 8 21 8.67157 21 9.5V11C21 11.8284 20.3284 12.5 19.5 12.5M4.5 12.5H6M19.5 12.5H14M6 12.5H14M6 12.5L8.68299 14.8476C9.43704 15.5074 10.563 15.5074 11.317 14.8476L14 12.5M19 7.28571V7.28571C19 4.91878 17.0812 3 14.7143 3H9.28571C6.91878 3 5 4.91878 5 7.28571V7.28571C5 7.6802 5.3198 8 5.71429 8H18.2857C18.6802 8 19 7.6802 19 7.28571Z" stroke="black" stroke-width="2" stroke-linecap="round" stroke-linejoin="round"/>
</svg>
