<svg width="24" height="24" viewBox="0 0 24 24" fill="none" xmlns="http://www.w3.org/2000/svg">
<path d="M9 7H9.01M12.5 7.5H12.51M14.99 6H15M19.25 13.5C20.2165 13.5 21 14.2835 21 15.25C21 16.2165 20.2165 17 19.25 17H4.75C3.7835 17 3 16.2165 3 15.25C3 14.2835 3.7835 13.5 4.75 13.5M19.25 13.5C20.2165 13.5 21 12.7165 21 11.75C21 10.7835 20.2165 10 19.25 10H4.75C3.7835 10 3 10.7835 3 11.75C3 12.7165 3.7835 13.5 4.75 13.5M19.25 13.5H16.9443C16.3233 13.5 15.7108 13.6446 15.1554 13.9223L14.8944 14.0528C14.3314 14.3343 13.6686 14.3343 13.1056 14.0528L12.8446 13.9223C12.2892 13.6446 11.6767 13.5 11.0557 13.5H4.75M19 9V9C19 5.68629 16.3137 3 13 3H11C7.68629 3 5 5.68629 5 9V9C5 9.55228 5.44772 10 6 10H18C18.5523 10 19 9.55228 19 9ZM19 18V18C19 19.6569 17.6569 21 16 21H8C6.34315 21 5 19.6569 5 18V18C5 17.4477 5.44772 17 6 17H18C18.5523 17 19 17.4477 19 18Z" stroke="black" stroke-width="2" stroke-linecap="round" stroke-linejoin="round"/>
</svg>
