<svg width="24" height="24" viewBox="0 0 24 24" fill="none" xmlns="http://www.w3.org/2000/svg">
<path d="M2.99889 12.5625L2.99973 19.26C2.99961 20.1482 3.73067 21.0002 4.83464 21.0002H16.5H18.726C19.8796 21.0002 20.861 20.2405 20.9861 19.2346C20.9946 19.1665 20.9991 19.0971 20.9995 19.0269L20.9994 12.2885M2.99889 12.5625C2.98463 12.1214 3.15134 11.6674 3.53976 11.301L11.3553 3.92848C12.1545 3.1746 13.2997 2.76331 14.3552 3.14456C14.4075 3.16348 14.4597 3.18294 14.5117 3.20295C15.8238 3.70801 17.0051 4.55692 17.9955 5.65059C19.4948 7.30612 20.5566 9.52249 20.9729 11.956C20.9922 12.0688 21.0007 12.1798 20.9994 12.2885M2.99889 12.5625C3.02696 13.4314 3.75249 14.25 4.83464 14.25H6.09451H11.9055H18.726C19.9534 14.25 20.9858 13.3899 20.9994 12.2885M3 15.7599C2.99988 16.648 3.73094 17.5 4.83491 17.5H16.5002H18.7263C19.8799 17.5 20.8612 16.7403 20.9864 15.7345C20.9948 15.6663 20.9994 15.597 20.9998 15.5267M9 11H9.01M11.5 8H11.51M13.49 11.5H13.5M16.49 9.5H16.5M15 6.5H15.01" stroke="black" stroke-width="2" stroke-linecap="round" stroke-linejoin="round"/>
</svg>
