<svg width="24" height="24" viewBox="0 0 24 24" fill="none" xmlns="http://www.w3.org/2000/svg">
<path d="M12 18C9.23858 18 7 15.3137 7 12C7 8.68629 9.23858 6 12 6M12 18C14.7614 18 17 15.3137 17 12C17 8.68629 14.7614 6 12 6M12 18C14.4237 18 16.4447 19.5408 16.9027 21.2699C16.9933 21.6119 16.6427 21.8571 16.3143 21.7257L15.75 21.5C14.9476 21.179 14.0524 21.179 13.25 21.5V21.5C12.4476 21.821 11.5524 21.821 10.75 21.5V21.5C9.94757 21.179 9.05243 21.179 8.25 21.5L7.6857 21.7257C7.35726 21.8571 7.00672 21.6119 7.09729 21.2699C7.55532 19.5408 9.57626 18 12 18ZM12 6C14.4237 6 16.4447 4.45924 16.9027 2.73007C16.9933 2.38813 16.6427 2.14291 16.3143 2.27428L15.75 2.5C14.9476 2.82097 14.0524 2.82097 13.25 2.5V2.5C12.4476 2.17903 11.5524 2.17903 10.75 2.5V2.5C9.94757 2.82097 9.05243 2.82097 8.25 2.5L7.6857 2.27428C7.35726 2.14291 7.00672 2.38813 7.09729 2.73007C7.55532 4.45924 9.57626 6 12 6ZM12 13V13C12.5523 13 13 12.5523 13 12V12C13 11.4477 12.5523 11 12 11V11C11.4477 11 11 11.4477 11 12V12C11 12.5523 11.4477 13 12 13Z" stroke="black" stroke-width="2" stroke-linecap="round" stroke-linejoin="round"/>
</svg>
