<svg width="24" height="24" viewBox="0 0 24 24" fill="none" xmlns="http://www.w3.org/2000/svg">
<path d="M12 18C9.23858 18 7 15.3137 7 12C7 8.68629 9.23858 6 12 6M12 18C14.7614 18 17 15.3137 17 12C17 8.68629 14.7614 6 12 6M12 18C14.3064 18 16.2481 19.3952 16.8254 21.0203C17.0102 21.5408 16.5523 22 16 22H8C7.44772 22 6.98979 21.5408 7.17465 21.0203C7.75189 19.3952 9.69357 18 12 18ZM12 6C14.3064 6 16.2481 4.60478 16.8254 2.97966C17.0102 2.45924 16.5523 2 16 2H8C7.44772 2 6.98979 2.45924 7.17465 2.97966C7.75189 4.60478 9.69357 6 12 6ZM11 12H13" stroke="black" stroke-width="2" stroke-linecap="round" stroke-linejoin="round"/>
</svg>
