<svg width="24" height="24" viewBox="0 0 24 24" fill="none" xmlns="http://www.w3.org/2000/svg">
<path d="M14.5117 3.20295C14.4597 3.18294 14.4075 3.16348 14.3552 3.14456C13.2997 2.76331 12.1545 3.1746 11.3553 3.92848L3.53976 11.301C3.15134 11.6674 2.98463 12.1214 2.99889 12.5625M14.5117 3.20295C15.8238 3.70801 17.0051 4.55692 17.9955 5.65059M14.5117 3.20295C13.6225 3.58603 13 4.47032 13 5.5C13 6.88071 14.1193 8 15.5 8C16.8302 8 17.9177 6.96118 17.9955 5.65059M17.9955 5.65059C19.4948 7.30612 20.5566 9.52249 20.9729 11.956C20.9922 12.0688 21.0007 12.1798 20.9994 12.2885M11.9055 14.25H18.726C19.9534 14.25 20.9858 13.3899 20.9994 12.2885M11.9055 14.25H6.09451M11.9055 14.25C11.9672 14.0103 12 13.759 12 13.5C12 11.8431 10.6569 10.5 9 10.5C7.34315 10.5 6 11.8431 6 13.5C6 13.759 6.03281 14.0103 6.09451 14.25M6.09451 14.25H4.83464C3.75249 14.25 3.02696 13.4314 2.99889 12.5625M16.5 21.0002H18.726C19.8796 21.0002 20.861 20.2405 20.9861 19.2346M16.5 21.0002H4.83464C3.73067 21.0002 2.99961 20.1482 2.99973 19.26L2.99889 12.5625M16.5 21.0002C16.186 20.5823 16 20.0629 16 19.5C16 18.1193 17.1193 17 18.5 17C19.7911 17 20.8536 17.9787 20.9861 19.2346M20.9861 19.2346C20.9946 19.1665 20.9991 19.0971 20.9995 19.0269L20.9994 12.2885" stroke="black" stroke-width="2" stroke-linecap="round" stroke-linejoin="round"/>
</svg>
