<svg width="24" height="24" viewBox="0 0 24 24" fill="none" xmlns="http://www.w3.org/2000/svg">
<path fill-rule="evenodd" clip-rule="evenodd" d="M12.4488 4.33825C12.9724 4.00677 13.5455 3.91542 14.0154 4.08518C14.0613 4.10174 14.1069 4.11878 14.1525 4.1363C15.2158 4.54558 16.1984 5.21969 17.0514 6.10468C16.8807 6.03719 16.6947 6.0001 16.5 6.0001C15.6716 6.0001 15 6.67167 15 7.5001C15 8.32853 15.6716 9.0001 16.5 9.0001C17.3284 9.0001 18 8.32853 18 7.5001C18 7.40192 17.9906 7.30594 17.9726 7.21303C18.9615 8.59083 19.6724 10.2842 19.9872 12.1247C19.9964 12.1783 20.0001 12.2288 19.9995 12.2763C19.9943 12.6992 19.5471 13.2501 18.726 13.2501H11.9055H8.79934C8.92696 13.0295 9 12.7733 9 12.5001C9 11.6717 8.32843 11.0001 7.5 11.0001C6.67157 11.0001 6 11.6717 6 12.5001C6 12.7733 6.07304 13.0295 6.20066 13.2501H6.09451H4.83464C4.30195 13.2501 4.00933 12.8695 3.99836 12.5303C3.99337 12.3758 4.0459 12.1984 4.22595 12.0286L10.2567 6.33959C10.5264 6.73813 10.9826 7.0001 11.5 7.0001C12.3284 7.0001 13 6.32853 13 5.5001C13 5.03163 12.7852 4.61332 12.4488 4.33825ZM14.3552 3.14466L14.6949 2.20413C13.1799 1.65688 11.651 2.27493 10.6691 3.20116L2.85357 10.5737C2.2617 11.132 1.98055 11.8552 1.99889 12.5769L1.99973 19.26V19.2602V19.2603C1.99968 20.6912 3.16901 22.0003 4.83464 22.0003H16.5H18.726C20.2707 22.0003 21.778 20.9697 21.9784 19.3582L20.9861 19.2348L21.9784 19.3582C21.9918 19.251 21.9989 19.1424 21.9995 19.0326H21.9995V19.0269L21.9994 12.2941C22.0011 12.1264 21.9876 11.9571 21.9586 11.7875C21.5126 9.18058 20.3728 6.78603 18.7368 4.97944C17.6545 3.78438 16.3465 2.83778 14.8709 2.2698C14.8125 2.24731 14.7538 2.22542 14.6949 2.20413L14.3552 3.14466ZM3.99973 19.26L3.99921 15.1333C4.25967 15.2089 4.53941 15.2501 4.83464 15.2501H6.09451H11.1454C11.0516 15.4817 11 15.7349 11 16.0001C11 17.1047 11.8954 18.0001 13 18.0001C14.1046 18.0001 15 17.1047 15 16.0001C15 15.7349 14.9484 15.4817 14.8546 15.2501H18.726C19.1616 15.2501 19.5961 15.167 19.9995 15.0113L19.9995 19.0235C19.9993 19.0535 19.9973 19.0828 19.9937 19.1113C19.944 19.5114 19.4885 20.0003 18.726 20.0003H16.5H7.91458C7.9699 19.8438 8 19.6755 8 19.5001C8 18.6717 7.32843 18.0001 6.5 18.0001C5.67157 18.0001 5 18.6717 5 19.5001C5 19.6755 5.0301 19.8438 5.08542 20.0003H4.83464C4.29242 20.0003 3.99968 19.6055 3.99973 19.2603V19.26ZM15 11.0001C15 11.5524 14.5523 12.0001 14 12.0001C13.4477 12.0001 13 11.5524 13 11.0001C13 10.4478 13.4477 10.0001 14 10.0001C14.5523 10.0001 15 10.4478 15 11.0001ZM19 18.0001C19 18.5524 18.5523 19.0001 18 19.0001C17.4477 19.0001 17 18.5524 17 18.0001C17 17.4478 17.4477 17.0001 18 17.0001C18.5523 17.0001 19 17.4478 19 18.0001Z" fill="black"/>
</svg>
