<svg width="24" height="24" viewBox="0 0 24 24" fill="none" xmlns="http://www.w3.org/2000/svg">
<path d="M11 8C11 6.34315 9.65685 5 8 5H5C4.44772 5 4 5.44772 4 6C4 7.65685 5.34315 9 7 9H10C10.5523 9 11 8.55229 11 8ZM11 8C11 4.5 13.5 2 16 2M11 8C11 11 13.5 12.5 16 14M11 8C11 11 7.5 13 7.5 16.5M7.5 22C5.567 22 4 20.433 4 18.5C4 16.567 5.567 15 7.5 15C9.433 15 11 16.567 11 18.5C11 20.433 9.433 22 7.5 22ZM17 18C15.3431 18 14 16.6569 14 15C14 13.3431 15.3431 12 17 12C18.6569 12 20 13.3431 20 15C20 16.6569 18.6569 18 17 18Z" stroke="black" stroke-width="2" stroke-linecap="round" stroke-linejoin="round"/>
</svg>
