<svg width="24" height="24" viewBox="0 0 24 24" fill="none" xmlns="http://www.w3.org/2000/svg">
<path d="M5 9.062C6.36473 7.83229 8.98797 7 12 7C12.5556 7 13.098 7.02832 13.6217 7.08224M5 9.062C4.36284 9.63612 4 10.2969 4 11C4 13.2091 7.58172 15 12 15C16.4183 15 20 13.2091 20 11C20 10.2969 19.6372 9.63612 19 9.062M5 9.062C3.5 10.4136 3 12 3 14C3 16 3.63527 17.2968 5 18.6803C6.36473 20.0637 8.98797 21 12 21C15.012 21 17.6353 20.0637 19 18.6803C20.5 17.1597 21 16 21 14C21 12 20.3647 10.2917 19 9.062M19 9.062C18.5545 8.66062 17.975 8.30158 17.2916 8M12 11.5C10.3431 11.5 9 11.2761 9 11C9 10.7239 10.3431 10.5 12 10.5C13.6569 10.5 15 10.7239 15 11C15 11.2761 13.6569 11.5 12 11.5ZM12 11.5L14.4303 5.42422C14.7881 4.52981 15.5536 3.8616 16.4881 3.62797L19 3" stroke="black" stroke-width="2" stroke-linecap="round" stroke-linejoin="round"/>
</svg>
