<svg width="24" height="24" viewBox="0 0 24 24" fill="none" xmlns="http://www.w3.org/2000/svg">
<path d="M10 6H10.01M12 10H12.01M14 7H14.01M12 15H12.01M8 13H8.01M8 17H8.01M16 13H16.01M18 9H18.01M16 17H16.01M6 10H6.01M9.57001 2.56769C10.0655 2.70826 10.599 2.61538 11.016 2.31596C11.6026 1.89468 12.3974 1.89468 12.984 2.31596C13.401 2.61538 13.9345 2.70826 14.43 2.56769C15.1272 2.36992 15.874 2.6383 16.2793 3.23226C16.5674 3.65443 17.0366 3.92186 17.5509 3.9571C18.2746 4.00668 18.8834 4.51107 19.0585 5.20609C19.183 5.70007 19.5312 6.1098 20.0023 6.3166C20.6651 6.60756 21.0625 7.28713 20.9863 7.99936C20.9322 8.50558 21.1174 9.00819 21.4885 9.3616C22.0106 9.85884 22.1486 10.6316 21.8303 11.2752C21.604 11.7326 21.604 12.2674 21.8303 12.7248C22.1486 13.3684 22.0106 14.1412 21.4885 14.6384C21.1174 14.9918 20.9322 15.4944 20.9863 16.0006C21.0625 16.7129 20.6651 17.3924 20.0023 17.6834C19.5312 17.8902 19.183 18.2999 19.0585 18.7939C18.8834 19.4889 18.2746 19.9933 17.5509 20.0429C17.0366 20.0781 16.5674 20.3456 16.2793 20.7677C15.874 21.3617 15.1272 21.6301 14.43 21.4323C13.9345 21.2917 13.401 21.3846 12.984 21.684C12.3974 22.1053 11.6026 22.1053 11.016 21.684C10.599 21.3846 10.0655 21.2917 9.57001 21.4323C8.87282 21.6301 8.12598 21.3617 7.72066 20.7677C7.43258 20.3456 6.96343 20.0781 6.44909 20.0429C5.72544 19.9933 5.1166 19.4889 4.94149 18.7939C4.81702 18.2999 4.46881 17.8902 3.99769 17.6834C3.33486 17.3924 2.93747 16.7129 3.01368 16.0006C3.06784 15.4944 2.88256 14.9918 2.51149 14.6384C1.98942 14.1412 1.85141 13.3684 2.16975 12.7248C2.39601 12.2674 2.39601 11.7326 2.16975 11.2752C1.85141 10.6316 1.98942 9.85884 2.51149 9.3616C2.88256 9.00819 3.06784 8.50558 3.01368 7.99936C2.93747 7.28713 3.33486 6.60756 3.99769 6.3166C4.46881 6.1098 4.81702 5.70007 4.94149 5.20609C5.1166 4.51107 5.72544 4.00668 6.44909 3.9571C6.96343 3.92186 7.43258 3.65443 7.72066 3.23226C8.12598 2.6383 8.87282 2.36992 9.57001 2.56769Z" stroke="black" stroke-width="2" stroke-linecap="round" stroke-linejoin="round"/>
</svg>
