<svg width="24" height="24" viewBox="0 0 24 24" fill="none" xmlns="http://www.w3.org/2000/svg">
<path d="M10 6H10.01M13 11H13.01M14 6H14.01M8 13H8.01M8 17H8.01M18 9H18.01M6 10H6.01M12 2C16.8424 2 20.8809 5.44193 21.8025 10.0128C22.0209 11.0955 21.0955 11.9791 20.0128 12.1975C16.0842 12.9896 12.9896 16.0842 12.1975 20.0128C11.9791 21.0955 11.0955 22.0209 10.0128 21.8025C5.44193 20.8809 2 16.8424 2 12C2 6.47715 6.47715 2 12 2Z" stroke="black" stroke-width="2" stroke-linecap="round" stroke-linejoin="round"/>
</svg>
