<svg width="24" height="24" viewBox="0 0 24 24" fill="none" xmlns="http://www.w3.org/2000/svg">
<path d="M8.79582 17L7.55051 8.90545M8.79582 17L8.84261 17.3041C8.99271 18.2798 9.83221 19 10.8194 19H13.3877C14.3748 19 15.2143 18.2798 15.3644 17.3041L15.4112 17M8.79582 17H7M15.4112 17L16.6429 8.99421M15.4112 17H17M16.6429 8.99421L16.771 8.16145C16.9691 6.87343 16.3006 5.60726 15.0291 5.32202C14.2338 5.14363 13.2405 5 12.1035 5C10.9666 5 9.97323 5.14363 9.17797 5.32202C7.9064 5.60726 7.23789 6.87343 7.43605 8.16145L7.55051 8.90545M16.6429 8.99421C18.0103 9.63966 19.1058 10.5377 19.9754 11.5M7.55051 8.90545C6.09256 9.55591 4.93483 10.4928 4.02459 11.5M4.02459 11.5C3.29485 12.3075 2.72418 13.1603 2.28541 13.947C1.48752 15.3776 2.46743 17 3.92716 17H7M4.02459 11.5L7 17M17 17H20.0728C21.5326 17 22.5125 15.3776 21.7146 13.947C21.2758 13.1603 20.7051 12.3075 19.9754 11.5M17 17L19.9754 11.5" stroke="black" stroke-width="2" stroke-linecap="round" stroke-linejoin="round"/>
</svg>
