<svg width="24" height="24" viewBox="0 0 24 24" fill="none" xmlns="http://www.w3.org/2000/svg">
<path fill-rule="evenodd" clip-rule="evenodd" d="M15.4864 2.16456C15.5772 1.61978 15.2092 1.10456 14.6644 1.01376C14.1196 0.922967 13.6044 1.29099 13.5136 1.83576L13.1529 4.00016H8.94152C7.65023 4.00016 6.50381 4.82645 6.09547 6.05147L5.77507 7.01266C4.77639 7.12444 4 7.97163 4 9.00016V10.0002C4 10.7833 4.45007 11.4612 5.10565 11.7895C5.09233 11.9172 5.09115 12.0482 5.10325 12.1812L5.75607 19.3623C5.94337 21.4226 7.67083 23.0002 9.73964 23.0002H14.2604C16.3292 23.0002 18.0566 21.4226 18.2439 19.3623L18.8968 12.1812C18.9088 12.0482 18.9077 11.9172 18.8943 11.7895C19.5499 11.4612 20 10.7833 20 10.0002V9.00016C20 7.97163 19.2236 7.12444 18.2249 7.01266L17.9045 6.05147C17.5091 4.86503 16.4213 4.05261 15.1801 4.0026L15.4864 2.16456ZM16.1126 7.00016H7.88743L7.99284 6.68393C8.12895 6.27559 8.51109 6.00016 8.94152 6.00016H14H15.0585C15.4889 6.00016 15.8711 6.27559 16.0072 6.68393L16.1126 7.00016ZM16.905 10.0002H7.09503H6V9.00016H6.5H17.5H18V10.0002H16.905ZM7.09503 12.0002L16.905 12.0002L16.7231 14.0002H7.27685L7.09503 12.0002ZM7.64049 18.0002L7.74786 19.1812C7.84151 20.2114 8.70524 21.0002 9.73964 21.0002H14.2604C15.2948 21.0002 16.1585 20.2114 16.2521 19.1812L16.3595 18.0002H7.64049ZM12.0865 16.9994C12.46 16.9419 12.75 16.5165 12.75 16.0002C12.75 15.4815 12.4573 15.0546 12.0814 15.0002L12.0667 15.031C11.8945 15.3917 11.9776 15.6688 12.0712 15.9751L12.0727 15.9798C12.1629 16.2748 12.2615 16.597 12.0865 16.9994ZM11.9135 15.0009C11.54 15.0585 11.25 15.4839 11.25 16.0002C11.25 16.5188 11.5426 16.9457 11.9185 17.0002L11.9332 16.9693C12.1054 16.6086 12.0224 16.3315 11.9287 16.0253L11.9272 16.0205C11.837 15.7255 11.7385 15.4033 11.9135 15.0009Z" fill="black"/>
</svg>
