<svg width="24" height="24" viewBox="0 0 24 24" fill="none" xmlns="http://www.w3.org/2000/svg">
<path d="M17.5 11H18.5C19.8807 11 21 12.1193 21 13.5V13.5C21 14.8807 19.8807 16 18.5 16H17.5M7.5 9.5V13M10 3C9 4 11 5 10 6M5.99961 6C6.49961 5.5 6.24961 5 5.99961 4.5M14 4.5C14.25 5 14.5 5.5 14 6M10 21V21C13.866 21 17 17.866 17 14V11C17 9.89543 16.1046 9 15 9H5C3.89543 9 3 9.89543 3 11V14C3 17.866 6.13401 21 10 21Z" stroke="black" stroke-width="2" stroke-linecap="round" stroke-linejoin="round"/>
</svg>
