<svg width="24" height="24" viewBox="0 0 24 24" fill="none" xmlns="http://www.w3.org/2000/svg">
<path d="M17.5 11H19C20.1046 11 21 11.8954 21 13V16M8.5 9.5V13M8.5 13H9C9.55228 13 10 13.4477 10 14V15C10 15.5523 9.55228 16 9 16H8C7.44772 16 7 15.5523 7 15V14C7 13.4477 7.44772 13 8 13H8.5ZM10 3C9 4 11 5 10 6M5.99961 6C6.49961 5.5 6.24961 5 5.99961 4.5M14 4.5C14.25 5 14.5 5.5 14 6M8 21H12C14.7614 21 17 18.7614 17 16V11C17 9.89543 16.1046 9 15 9H5C3.89543 9 3 9.89543 3 11V16C3 18.7614 5.23858 21 8 21Z" stroke="black" stroke-width="2" stroke-linecap="round" stroke-linejoin="round"/>
</svg>
