<svg width="24" height="24" viewBox="0 0 24 24" fill="none" xmlns="http://www.w3.org/2000/svg">
<path d="M3 21H17M17.5 6H19C20.1046 6 21 6.89543 21 8V10C21 11.1046 20.1046 12 19 12H17.5M8.5 3.5V7M8.5 7H9C9.55228 7 10 7.44772 10 8V9C10 9.55228 9.55228 10 9 10H8C7.44772 10 7 9.55228 7 9V8C7 7.44772 7.44772 7 8 7H8.5ZM8 17H12C14.7614 17 17 14.7614 17 12V5C17 3.89543 16.1046 3 15 3H5C3.89543 3 3 3.89543 3 5V12C3 14.7614 5.23858 17 8 17Z" stroke="black" stroke-width="2" stroke-linecap="round" stroke-linejoin="round"/>
</svg>
