<svg width="24" height="24" viewBox="0 0 24 24" fill="none" xmlns="http://www.w3.org/2000/svg">
<path d="M5 7H19M6.33333 12L6.8133 19.1996C6.91836 20.7755 8.22727 22 9.80666 22H14.1933C15.7727 22 17.0816 20.7755 17.1867 19.1996L17.5333 14M6.33333 12L6.10665 8.59978C6.04893 7.73401 6.73563 7 7.60333 7H16.3967C17.2644 7 17.9511 7.734 17.8933 8.59978L17.5333 14M6.33333 12C8.43934 11.0974 10.0023 11.8241 11.5 12.7096M17.5333 14C15.0458 15.0974 13.3211 13.7862 11.5 12.7096M11.5 12.7096L14.0314 4.93845C14.3261 4.03375 15.0325 3.32248 15.9352 3.02159L19 2" stroke="black" stroke-width="2" stroke-linecap="round" stroke-linejoin="round"/>
</svg>
