<svg width="24" height="24" viewBox="0 0 24 24" fill="none" xmlns="http://www.w3.org/2000/svg">
<path d="M6.33333 12L6.8133 19.1996C6.91836 20.7754 8.22727 22 9.80666 22H14.1933C15.7727 22 17.0816 20.7755 17.1867 19.1996L17.5333 14M6.33333 12L6.10647 9.27765C6.03772 8.45269 5.67879 7.67879 5.09343 7.09343L5 7H13.3599M6.33333 12C8.43934 11.0974 10.0023 11.8241 11.5 12.7096M17.5333 14L17.8997 9.28915C17.9644 8.4572 18.3243 7.67574 18.9143 7.08568L19 7H13.3599M17.5333 14C15.0458 15.0974 13.3211 13.7862 11.5 12.7096M11.5 12.7096L13.3599 7M11.5 12.7096L9.64012 18.4191M13.3599 7L14.0314 4.93845C14.3261 4.03375 15.0325 3.32248 15.9352 3.02159L19 2M12.99 16.5H13M14.49 19.1996H14.5" stroke="black" stroke-width="2" stroke-linecap="round" stroke-linejoin="round"/>
</svg>
