<svg width="24" height="24" viewBox="0 0 24 24" fill="none" xmlns="http://www.w3.org/2000/svg">
<path d="M6.5 6H6C5.44772 6 5 6.44772 5 7V9C5 9.55228 5.44772 10 6 10H18C18.5523 10 19 9.55228 19 9V7C19 6.44772 18.5523 6 18 6H17.5M6.5 6L7.12127 3.51493C7.34385 2.62459 8.14382 2 9.06155 2H14.9384C15.8562 2 16.6561 2.62459 16.8787 3.51493L17.5 6M6.5 6H17.5M6.25 13L6.09025 11.083C6.04167 10.5 6.50176 10 7.0868 10H16.9132C17.4982 10 17.9583 10.5 17.9097 11.083L17.75 13M6.25 13H17.75M6.25 13L6.66667 18M17.75 13L17.3333 18M6.66667 18L6.77076 19.2491C6.90033 20.804 8.20013 22 9.7604 22H14.2396C15.7999 22 17.0997 20.804 17.2292 19.2491L17.3333 18M6.66667 18H17.3333" stroke="black" stroke-width="2" stroke-linecap="round" stroke-linejoin="round"/>
</svg>
