<svg width="24" height="24" viewBox="0 0 24 24" fill="none" xmlns="http://www.w3.org/2000/svg">
<path d="M10.0692 13.9332L8.5 15.4978M10.0692 13.9332C8.32458 12.1882 8.78956 8.5499 10.9216 5.493C12.8842 2.67912 17.1614 2.11691 19.522 4.47741C21.8826 6.8379 21.3222 11.1198 18.5061 13.0791C15.4474 15.2072 11.814 15.6765 10.0692 13.9332ZM13 9C13.25 7.5 15 6.5 16 6.5M9 16.9999V19.4999C9 20.3284 8.32843 20.9999 7.5 20.9999V20.9999C6.67157 20.9999 6 20.3284 6 19.4999V18.7499C6 18.3357 5.66421 17.9999 5.25 17.9999H4.5C3.67157 17.9999 3 17.3284 3 16.4999V16.4999C3 15.6715 3.67157 14.9999 4.5 14.9999H7C8.10457 14.9999 9 15.8954 9 16.9999Z" stroke="black" stroke-width="2" stroke-linecap="round" stroke-linejoin="round"/>
</svg>
