<svg width="24" height="24" viewBox="0 0 24 24" fill="none" xmlns="http://www.w3.org/2000/svg">
<path d="M9 10.5V10.5C9 9.94772 9.44772 9.5 10 9.5V9.5M14.0578 18.5992V18.5992C14.6615 17.8949 15.5183 17.4568 16.4428 17.3798L17.8496 17.2625C19.6303 17.1141 21 15.6256 21 13.8387V13.8387C21 12.69 20.4259 11.6173 19.4701 10.9801L19 10.6667C18.3753 10.2502 18 9.549 18 8.79815V8.52228C18 5.47241 15.5276 3 12.4777 3H10.9047C9.0141 3 7.16921 3.58155 5.62034 4.66576V4.66576C3.97808 5.81535 3 7.69389 3 9.69853V12.5675C3 15.8118 5.07595 18.692 8.15369 19.7179L9.00025 20.0001C10.8141 20.6047 12.8135 20.0509 14.0578 18.5992ZM14 10.5V10.5C14 12.7091 12.2091 14.5 10 14.5V14.5C7.79086 14.5 6 12.7091 6 10.5V10.5C6 8.29086 7.79086 6.5 10 6.5V6.5C12.2091 6.5 14 8.29086 14 10.5Z" stroke="black" stroke-width="2" stroke-linecap="round" stroke-linejoin="round"/>
</svg>
