<svg width="24" height="24" viewBox="0 0 24 24" fill="none" xmlns="http://www.w3.org/2000/svg">
<path d="M12.5 13V13C12.5 13.5523 12.0523 14 11.5 14V14M12 2C13.6869 2 15.1299 3.04425 15.7179 4.52159C16.0829 5.43875 16.2922 6.43829 16.8397 7.25962L19.1603 10.7404C19.7078 11.5617 20 12.5268 20 13.5139V14.3962C20 16.5484 18.6228 18.4591 16.5811 19.1396L12.4179 20.5274C9.80954 21.3968 6.94195 20.4129 5.41683 18.1252V18.1252C4.49741 16.7461 4.05266 15.1048 4.14999 13.4502L4.25258 11.7062C4.41079 9.01656 5.64762 6.50457 7.68293 4.73918L7.90258 4.54866C8.32136 4.18542 8.65585 3.736 9.02685 3.32406C9.759 2.51111 10.8198 2 12 2ZM15.5 13V13C15.5 15.2091 13.7091 17 11.5 17V17C9.29086 17 7.5 15.2091 7.5 13V13C7.5 10.7909 9.29086 9 11.5 9V9C13.7091 9 15.5 10.7909 15.5 13Z" stroke="black" stroke-width="2" stroke-linecap="round" stroke-linejoin="round"/>
</svg>
