<svg width="24" height="24" viewBox="0 0 24 24" fill="none" xmlns="http://www.w3.org/2000/svg">
<path d="M6.76557 10H5.92116C4.94531 10 4.22927 10.9171 4.46595 11.8638L6.4319 19.7276C6.76578 21.0631 7.96573 22 9.34233 22H14.6577C16.0343 22 17.2342 21.0631 17.5681 19.7276L19.534 11.8638C19.7707 10.9171 19.0547 10 18.0788 10H16.118C15.4328 10 14.8064 10.3871 14.5 11V11C14.1936 11.6129 13.5672 12 12.882 12H11.118C10.4328 12 9.80643 11.6129 9.5 11V11C9.19357 10.3871 8.56717 10 7.88196 10H6.76557ZM6.76557 10L4.53133 6.44314C4.23779 5.97583 4.37829 5.35907 4.84527 5.06502L5.68924 4.53357C6.15696 4.23905 6.77489 4.37982 7.06889 4.84786L9.02694 7.96502M9.02694 7.96502L8.18264 3.54538C8.07904 3.00308 8.43454 2.47943 8.97679 2.37559L9.95545 2.18817C10.4981 2.08426 11.0221 2.44003 11.1258 2.98268L12.5579 10.4793M9.02694 7.96502L9.60672 11M12.5579 10.4793L13.7554 4.97773C13.8729 4.43789 14.4059 4.09563 14.9457 4.21341L16.774 4.61235M12.5579 10.4793L12.8083 11.7901M16.4941 6.48443L16.774 4.61235M16.4941 6.48443L16.0121 9.70867M16.4941 6.48443L15.7923 9.70867M16.774 4.61235L16.8888 3.84446C16.9705 3.2981 17.4797 2.92148 18.026 3.00336L19.0114 3.15105C19.5574 3.23288 19.9338 3.74179 19.8522 4.28786L19.0418 9.70867M9 18C9 17 9 15 10.5 15C12 15 12 18 12 18C12 18 12 15 13.5 15C15 15 15 17 15 18" stroke="black" stroke-width="2" stroke-linecap="round" stroke-linejoin="round"/>
</svg>
