<svg width="24" height="24" viewBox="0 0 24 24" fill="none" xmlns="http://www.w3.org/2000/svg">
<path d="M6.5 9.5L4 4M11.5 11.5L9.18666 2M8.5 9.5L7.5 5.5M13.5 11L13 6M15.5 9.5L16.5 3M18 9.5L20 4M9.5 15.5H14.5M11 18.5H13M7.88197 10H5.92116C4.94531 10 4.22927 10.9171 4.46595 11.8638L6.4319 19.7276C6.76578 21.0631 7.96573 22 9.34233 22H14.6577C16.0343 22 17.2342 21.0631 17.5681 19.7276L19.534 11.8638C19.7707 10.9171 19.0547 10 18.0788 10H16.118C15.4328 10 14.8064 10.3871 14.5 11V11C14.1936 11.6129 13.5672 12 12.882 12H11.118C10.4328 12 9.80643 11.6129 9.5 11V11C9.19357 10.3871 8.56717 10 7.88197 10Z" stroke="black" stroke-width="2" stroke-linecap="round" stroke-linejoin="round"/>
</svg>
