<svg width="24" height="24" viewBox="0 0 24 24" fill="none" xmlns="http://www.w3.org/2000/svg">
<path d="M11 7C11 4.79086 9.20914 3 7 3C4.79086 3 3 4.79086 3 7C3 9.03981 4.52684 10.723 6.5 10.9691M20.1278 13.1053L18.918 13.2799C17.9128 13.425 16.8882 13.3543 15.9124 13.0726V13.0726C14.6163 12.6985 13.2408 12.6985 11.9448 13.0726V13.0726C10.969 13.3543 9.94438 13.425 8.93916 13.2799L7.87519 13.1263M20.1278 13.1053L20.7554 8.71213C20.8845 7.80848 20.1833 7 19.2705 7H8.72951C7.81669 7 7.1155 7.80848 7.24459 8.71213L7.87519 13.1263M20.1278 13.1053L19.368 18.4243C19.1568 19.9022 17.8911 21 16.3981 21H11.6019C10.1089 21 8.84317 19.9022 8.63204 18.4243L7.87519 13.1263" stroke="black" stroke-width="2" stroke-linecap="round" stroke-linejoin="round"/>
<path d="M7.16133 5.34299C7.16133 5.60697 6.93918 5.87096 6.83684 5.97856C6.80966 6.00715 6.76299 6.00715 6.73581 5.97856C6.63348 5.87096 6.41133 5.60697 6.41133 5.34299C6.41133 5.15356 6.57922 5 6.78633 5C6.99343 5 7.16133 5.15356 7.16133 5.34299Z" fill="black"/>
<path d="M5.53881 8.15327C5.76743 8.02127 5.88497 7.69689 5.92699 7.55447C5.93815 7.51663 5.91482 7.47622 5.87648 7.46697C5.73212 7.43215 5.39243 7.37175 5.16381 7.50375C4.99976 7.59846 4.95072 7.82064 5.05427 8C5.15783 8.17936 5.37476 8.24798 5.53881 8.15327Z" fill="black"/>
<path d="M5.16418 6.4963C5.3928 6.6283 5.7325 6.5679 5.87685 6.53308C5.91519 6.52383 5.93853 6.48342 5.92736 6.44558C5.88534 6.30316 5.7678 5.97878 5.53918 5.84679C5.37513 5.75207 5.1582 5.82069 5.05465 6.00005C4.95109 6.17941 5.00013 6.40159 5.16418 6.4963Z" fill="black"/>
</svg>
