<svg width="24" height="24" viewBox="0 0 24 24" fill="none" xmlns="http://www.w3.org/2000/svg">
<path fill-rule="evenodd" clip-rule="evenodd" d="M4 7C4 5.34315 5.34315 4 7 4C8.30622 4 9.41746 4.83481 9.82929 6H8.86224C7.28832 6 5.982 7.21634 5.86986 8.78626L5.80095 9.75105C4.74109 9.28838 4 8.23024 4 7ZM7 2C9.41896 2 11.4367 3.71776 11.9 6H18.1378C19.7117 6 21.018 7.21634 21.1301 8.78626L21.426 12.9288L21.6149 15.5725C21.863 19.0457 19.1122 22 15.6301 22H11.3699C7.88783 22 5.13704 19.0457 5.38513 15.5725L5.57397 12.9288L5.65343 11.8163C3.54578 11.2281 2 9.29521 2 7C2 4.23858 4.23858 2 7 2ZM8.86224 8H11H18.1378C18.6624 8 19.0978 8.40545 19.1352 8.92875L19.3648 12.1432L18.3466 12.2901C17.4819 12.4149 16.6005 12.3542 15.7611 12.1119C14.2839 11.6854 12.7161 11.6854 11.2389 12.1119C10.3995 12.3542 9.51813 12.4149 8.65344 12.2901L7.63518 12.1432L7.86478 8.92875C7.90216 8.40545 8.3376 8 8.86224 8ZM18.6323 14.2696L19.5077 14.1433L19.62 15.715C19.7853 18.0305 17.9515 20 15.6301 20H11.3699C9.04851 20 7.21466 18.0305 7.38005 15.715L7.49231 14.1433L8.36774 14.2696C9.51349 14.435 10.6813 14.3545 11.7935 14.0334C12.9084 13.7116 14.0916 13.7116 15.2065 14.0334C16.3187 14.3545 17.4865 14.435 18.6323 14.2696ZM7.16133 5.34299C7.16133 5.60697 6.93918 5.87096 6.83684 5.97856C6.80966 6.00715 6.76299 6.00715 6.73581 5.97856C6.63348 5.87096 6.41133 5.60697 6.41133 5.34299C6.41133 5.15356 6.57922 5 6.78633 5C6.99343 5 7.16133 5.15356 7.16133 5.34299ZM5.53881 8.15327C5.76743 8.02127 5.88497 7.69689 5.92699 7.55447C5.93815 7.51663 5.91482 7.47622 5.87648 7.46697C5.73212 7.43215 5.39243 7.37175 5.16381 7.50375C4.99976 7.59846 4.95072 7.82064 5.05427 8C5.15783 8.17936 5.37476 8.24798 5.53881 8.15327ZM5.87685 6.53308C5.7325 6.5679 5.3928 6.6283 5.16418 6.4963C5.00013 6.40159 4.95109 6.17941 5.05465 6.00005C5.1582 5.82069 5.37513 5.75207 5.53918 5.84679C5.7678 5.97878 5.88534 6.30316 5.92736 6.44558C5.93853 6.48342 5.91519 6.52383 5.87685 6.53308Z" fill="black"/>
</svg>
