<svg width="24" height="24" viewBox="0 0 24 24" fill="none" xmlns="http://www.w3.org/2000/svg">
<path d="M18 14.1392L17.0251 14.2799C16.0199 14.425 14.9953 14.3543 14.0195 14.0726V14.0726C12.7234 13.6985 11.348 13.6985 10.0519 14.0726V14.0726C9.07612 14.3543 8.05152 14.425 7.0463 14.2799L6 14.1289M9 6H9.01M11 2H11.01M12.49 4.5H12.5M15.49 6H15.5M16.1479 9H7.85206C6.80699 9 5.93811 9.80461 5.85795 10.8466L5.33129 17.6932C5.15259 20.0164 6.98947 22 9.31951 22H14.6805C17.0105 22 18.8474 20.0164 18.6687 17.6932L18.142 10.8466C18.0619 9.80461 17.193 9 16.1479 9Z" stroke="black" stroke-width="2" stroke-linecap="round" stroke-linejoin="round"/>
</svg>
