<svg width="24" height="24" viewBox="0 0 24 24" fill="none" xmlns="http://www.w3.org/2000/svg">
<path d="M9.5 10.5C9.5 11.8807 8.38071 13 7 13C5.61929 13 4.5 11.8807 4.5 10.5C4.5 9.11929 5.61929 8 7 8C8.38071 8 9.5 9.11929 9.5 10.5ZM9.5 10.5C9.5 11.8807 10.6193 13 12 13C13.3807 13 14.5 11.8807 14.5 10.5M9.5 10.5C9.5 9.11929 10.6193 8 12 8C13.3807 8 14.5 9.11929 14.5 10.5M14.5 10.5C14.5 11.8807 15.6193 13 17 13C18.3807 13 19.5 11.8807 19.5 10.5C19.5 9.11929 18.3807 8 17 8C15.6193 8 14.5 9.11929 14.5 10.5ZM12 15C12 16.3807 13.1193 17.5 14.5 17.5C15.8807 17.5 17 16.3807 17 15C17 13.6193 15.8807 12.5 14.5 12.5C13.1193 12.5 12 13.6193 12 15ZM12 15C12 16.3807 10.8807 17.5 9.5 17.5C8.11929 17.5 7 16.3807 7 15C7 13.6193 8.11929 12.5 9.5 12.5C10.8807 12.5 12 13.6193 12 15ZM12 22C10.6193 22 9.5 20.8807 9.5 19.5C9.5 18.1193 10.6193 17 12 17C13.3807 17 14.5 18.1193 14.5 19.5C14.5 20.8807 13.3807 22 12 22ZM10 2H7C6.44772 2 6 2.44772 6 3C6 4.65685 7.34315 6 9 6H12C12.5523 6 13 5.55229 13 5C13 3.34315 11.6569 2 10 2Z" stroke="black" stroke-width="2" stroke-linecap="round" stroke-linejoin="round"/>
</svg>
