<svg width="24" height="24" viewBox="0 0 24 24" fill="none" xmlns="http://www.w3.org/2000/svg">
<path d="M4.92884 14.8231L3.8742 15.8776C3.32859 16.4232 3.03719 17.1268 3 17.8411C2.95736 18.6599 3.24876 19.4929 3.8742 20.1184C5.04524 21.2894 6.94387 21.2894 8.11492 20.1184L9.16956 19.0638M4.92884 14.8231L14.8238 4.92805M4.92884 14.8231C3.36745 13.2617 3.36745 10.7302 4.92884 9.16878L9.16956 4.92805C10.7309 3.36665 13.2625 3.36665 14.8238 4.92805M14.8238 4.92805L15.8771 3.87487C17.0481 2.70382 18.9468 2.70382 20.1178 3.87487C20.7432 4.50025 21.0346 5.33314 20.992 6.1519C20.9549 6.8663 20.6635 7.56994 20.1178 8.1156L19.0646 9.16878M19.0646 9.16878L9.16956 19.0638M19.0646 9.16878C20.626 10.7302 20.626 13.2617 19.0646 14.8231L14.8238 19.0638C13.2625 20.6252 10.7309 20.6252 9.16956 19.0638M15.5308 8.46216C15.3083 9.12956 14.7846 9.65327 14.1172 9.87573C13.4498 10.0982 12.9261 10.6219 12.7037 11.2893C12.4812 11.9567 11.9575 12.4804 11.2901 12.7029C10.6227 12.9254 10.099 13.4491 9.87651 14.1165C9.65404 14.7839 9.13033 15.3076 8.46293 15.53" stroke="black" stroke-width="2" stroke-linecap="round" stroke-linejoin="round"/>
</svg>
