<svg width="24" height="24" viewBox="0 0 24 24" fill="none" xmlns="http://www.w3.org/2000/svg">
<path d="M4.929 14.8231L3.87437 15.8776C3.32877 16.4232 3.03737 17.1267 3.00018 17.841C2.95754 18.6599 3.24893 19.4929 3.87437 20.1183C5.0454 21.2893 6.94401 21.2893 8.11504 20.1183L9.16967 19.0638M4.929 14.8231L14.8239 4.92804M4.929 14.8231C3.36762 13.2617 3.36762 10.7302 4.929 9.16876L9.16967 4.92804C10.731 3.36665 13.2625 3.36665 14.8239 4.92804M14.8239 4.92804L15.8771 3.87486C17.0482 2.70382 18.9468 2.70383 20.1178 3.87486C20.7432 4.50024 21.0346 5.33313 20.992 6.15189C20.9549 6.86628 20.6635 7.56992 20.1178 8.11558L19.0646 9.16876M19.0646 9.16876L9.16967 19.0638M19.0646 9.16876C20.626 10.7302 20.626 13.2617 19.0646 14.8231L14.8239 19.0638C13.2625 20.6252 10.731 20.6252 9.16967 19.0638M17 7L15.7491 8.25M6.99277 17L8.24367 15.75M12.6218 11.375L11.3709 12.625" stroke="black" stroke-width="2" stroke-linecap="round" stroke-linejoin="round"/>
</svg>
