<svg width="24" height="24" viewBox="0 0 24 24" fill="none" xmlns="http://www.w3.org/2000/svg">
<path d="M7.48373 16.3304C7.74943 15.9318 8.11453 15.6095 8.54295 15.3953M12.6977 11.28L12.6808 11.3194C12.4936 11.7563 12.1455 12.1044 11.7086 12.2916M16.1657 7.59334C15.8785 7.78483 15.6632 8.06661 15.5541 8.39411M20.2847 12C20.4419 12.8799 20.1805 13.8199 19.5005 14.4998L14.5005 19.4998C13.8206 20.1798 12.8806 20.4411 12.0007 20.284M12.0007 3.71571C11.1207 3.55841 10.1806 3.81978 9.50052 4.49981L4.5003 9.50003C3.82027 10.1801 3.5589 11.1202 3.7162 12.0002M7.6943 20.1951L20.1946 7.69434C20.7315 7.15742 21 6.45369 21 5.74997C21 5.04618 20.7316 4.34239 20.1946 3.80542C19.1207 2.73153 17.3796 2.73153 16.3057 3.80542L3.80542 16.3061C3.26845 16.8431 2.99998 17.5469 3 18.2507C3.00002 18.9544 3.26849 19.6581 3.80541 20.1951C4.8793 21.269 6.62042 21.269 7.6943 20.1951Z" stroke="black" stroke-width="2" stroke-linecap="round" stroke-linejoin="round"/>
</svg>
