<svg width="24" height="24" viewBox="0 0 24 24" fill="none" xmlns="http://www.w3.org/2000/svg">
<path d="M7 8H6C4.89543 8 4 8.89543 4 10V10C4 11.1046 4.89543 12 6 12H18C19.1046 12 20 11.1046 20 10V10C20 8.89543 19.1046 8 18 8H17M7 8H17M7 8C5 8 5.5 3 9.5 4.5C11.7301 5.3363 12.9351 3.72327 11.9023 2C16 2 18.5 5 17 8M5.5 12H18.5C18.7761 12 19 12.2239 19 12.5V13C19 14.1046 18.1046 15 17 15H7C5.89543 15 5 14.1046 5 13V12.5C5 12.2239 5.22386 12 5.5 12ZM16.3371 15H7.66286C7.33068 15 7.09084 15.318 7.1821 15.6374L8.48194 20.1868C8.78859 21.2601 9.76955 22 10.8858 22H13.1142C14.2304 22 15.2114 21.2601 15.5181 20.1868L16.8179 15.6374C16.9092 15.318 16.6693 15 16.3371 15Z" stroke="black" stroke-width="2" stroke-linecap="round" stroke-linejoin="round"/>
</svg>
