<svg width="24" height="24" viewBox="0 0 24 24" fill="none" xmlns="http://www.w3.org/2000/svg">
<path d="M10 16L6 20C5.44772 20.5523 4.55228 20.5523 4 20V20C3.44772 19.4477 3.44772 18.5523 4 18L8 14M13.5 4.5V4.5C14.8807 3.11929 17.1193 3.11929 18.5 4.5L19.5 5.5C20.8807 6.88071 20.8807 9.11929 19.5 10.5V10.5M13.5 4.5L7.41421 10.5858C6.63317 11.3668 6.63316 12.6332 7.41421 13.4142L10.5858 16.5858C11.3668 17.3668 12.6332 17.3668 13.4142 16.5858L19.5 10.5M13.5 4.5L19.5 10.5M11 7L17 13M8.5 9.5L14.5 15.5" stroke="black" stroke-width="2" stroke-linecap="round" stroke-linejoin="round"/>
</svg>
