<svg width="24" height="24" viewBox="0 0 24 24" fill="none" xmlns="http://www.w3.org/2000/svg">
<path d="M10 16L6 20C5.44772 20.5523 4.55228 20.5523 4 20V20C3.44772 19.4477 3.44772 18.5523 4 18L8 14M10 12H10.01M12 14H12.01M13 11H13.01M14 8H14.01M16 10H16.01M17 7H17.01M19 5V5C20.6569 6.65685 20.6569 9.34314 19 11L13.4142 16.5858C12.6332 17.3668 11.3668 17.3668 10.5858 16.5858L7.41421 13.4142C6.63316 12.6332 6.63316 11.3668 7.41421 10.5858L13 5C14.6569 3.34315 17.3431 3.34315 19 5Z" stroke="black" stroke-width="2" stroke-linecap="round" stroke-linejoin="round"/>
</svg>
