<svg width="24" height="24" viewBox="0 0 24 24" fill="none" xmlns="http://www.w3.org/2000/svg">
<path d="M7 9H5.5C4.67157 9 4 9.67157 4 10.5V10.5C4 11.3284 4.67157 12 5.5 12H18C19.1046 12 20 11.1046 20 10V10C20 8.89543 19.1046 8 18 8H17M7 9C5 9 5 4.5 9.5 5.5C11.8251 6.01668 12 3.5 10 2C16 2 17.8333 5.5 17 8M7 9H9.5M17 8C16.5082 9.47539 14.5 9.5 14 9.5M5.5 12H18.5C18.7761 12 19 12.2239 19 12.5V13C19 14.1046 18.1046 15 17 15H7C5.89543 15 5 14.1046 5 13V12.5C5 12.2239 5.22386 12 5.5 12ZM16.3371 15H7.66286C7.33068 15 7.09084 15.318 7.1821 15.6374L8.48194 20.1868C8.78859 21.2601 9.76955 22 10.8858 22H13.1142C14.2304 22 15.2114 21.2601 15.5181 20.1868L16.8179 15.6374C16.9092 15.318 16.6693 15 16.3371 15Z" stroke="black" stroke-width="2" stroke-linecap="round" stroke-linejoin="round"/>
</svg>
