<svg width="24" height="24" viewBox="0 0 24 24" fill="none" xmlns="http://www.w3.org/2000/svg">
<path d="M10 16L6 20C5.44772 20.5523 4.55228 20.5523 4 20V20C3.44772 19.4477 3.44772 18.5523 4 18L8 14M9 9L13 5C14.6569 3.34315 17.3431 3.34315 19 5V5C20.6569 6.65685 20.6569 9.34314 19 11L15 15M9 9L7.41421 10.5858C6.63317 11.3668 6.63316 12.6332 7.41421 13.4142L10.5858 16.5858C11.3668 17.3668 12.6332 17.3668 13.4142 16.5858L15 15M9 9L15 15M13.5 8H14M16 10L15.5 10.5M17 7L16.5 6.5" stroke="black" stroke-width="2" stroke-linecap="round" stroke-linejoin="round"/>
</svg>
