<svg width="24" height="24" viewBox="0 0 24 24" fill="none" xmlns="http://www.w3.org/2000/svg">
<path d="M7 7.0221H17M7 7.0221H6.5C5.67157 7.0221 5 7.69664 5 8.52873C5 9.36082 5.67157 10.0354 6.5 10.0354H7M7 7.0221C7 4.24847 9.23858 2 12 2C14.7614 2 17 4.24847 17 7.0221M17 7.0221H17.5C18.3284 7.0221 19 7.69664 19 8.52873C19 9.36082 18.3284 10.0354 17.5 10.0354H17M7 10.0354L8.45376 15M7 10.0354H12M17 10.0354L13.9187 20.558C13.3557 22.4807 10.6443 22.4807 10.0813 20.558L9.69964 19.2547M17 10.0354H16.285M8.45376 15L12 10.0354M8.45376 15L9.69964 19.2547M12 10.0354H16.285M16.285 10.0354L9.69964 19.2547" stroke="black" stroke-width="2" stroke-linecap="round" stroke-linejoin="round"/>
</svg>
