<svg width="24" height="24" viewBox="0 0 24 24" fill="none" xmlns="http://www.w3.org/2000/svg">
<path d="M12 10H12.01M12 18H12.01M15.4634 12H15.47M15.4641 16H15.47M8.53516 16H8.55M8.5359 12H8.55M12 22C7.58172 22 4 18.4183 4 14C4 9.58172 7.58172 6 12 6C16.4183 6 20 9.58172 20 14C20 18.4183 16.4183 22 12 22ZM9 2H6C5.44772 2 5 2.44772 5 3C5 4.65685 6.34315 6 8 6H11C11.5523 6 12 5.55229 12 5C12 3.34315 10.6569 2 9 2Z" stroke="black" stroke-width="2" stroke-linecap="round" stroke-linejoin="round"/>
</svg>
