<svg width="24" height="24" viewBox="0 0 24 24" fill="none" xmlns="http://www.w3.org/2000/svg">
<path d="M11 16.4748C12.3682 16.6228 13.861 16.1182 14.9896 14.9896C16.1182 13.861 16.6228 12.3682 16.4748 11M6.35297 6.35297C3.87506 8.83088 2.98951 12.2385 3.78164 15.1253C3.89026 15.5211 3.77675 15.9445 3.54125 16.2807C3.20016 16.7676 3 17.3604 3 18C3 19.6569 4.34315 21 6 21C6.6396 21 7.23244 20.7998 7.71932 20.4588C8.05548 20.2233 8.47892 20.1097 8.87473 20.2184C11.7615 21.0105 15.1691 20.1249 17.647 17.647C20.1249 15.1691 21.0105 11.7615 20.2184 8.87473C20.1097 8.47892 20.2233 8.05548 20.4588 7.71932C20.7998 7.23244 21 6.6396 21 6C21 4.34315 19.6569 3 18 3C17.3604 3 16.7676 3.20015 16.2807 3.54125C15.9445 3.77675 15.5211 3.89026 15.1253 3.78164C12.2385 2.98951 8.83088 3.87506 6.35297 6.35297Z" stroke="black" stroke-width="2" stroke-linecap="round" stroke-linejoin="round"/>
</svg>
