<svg width="24" height="24" viewBox="0 0 24 24" fill="none" xmlns="http://www.w3.org/2000/svg">
<path d="M3 21L9.90381 14.0962M9.90381 14.0962C8.72754 12.9199 8 11.2949 8 9.5C8 7.05864 9.34594 4.93165 11.3363 3.82056M9.90381 14.0962C11.0801 15.2725 12.7051 16 14.5 16C18.0899 16 21 13.0899 21 9.5C21 5.91015 18.0899 3 14.5 3C13.3515 3 12.2726 3.29787 11.3363 3.82056M11.3363 3.82056C7.15286 6.15592 9.5 14.5 15 13C16.5 12.5909 17.5 11 17.5 9.5C17.5 7.5 16.1569 6.5 14.5 6.5C12.5 6.5 12 9.5 14.5 9.5" stroke="black" stroke-width="2" stroke-linecap="round" stroke-linejoin="round"/>
</svg>
