<svg width="24" height="24" viewBox="0 0 24 24" fill="none" xmlns="http://www.w3.org/2000/svg">
<path fill-rule="evenodd" clip-rule="evenodd" d="M16.3714 2.92825C16.8842 2.72314 17.1336 2.14117 16.9285 1.62839C16.7234 1.1156 16.1414 0.866188 15.6286 1.0713C13.6366 1.8681 12.2579 3.67275 11.5572 5.68663C11.1924 6.73503 11 7.86728 11 8.99978C11 9.55206 11.4477 9.99978 12 9.99978C12.5523 9.99978 13 9.55206 13 8.99978C13 8.36012 13.0767 7.72034 13.2234 7.1062C16.5057 7.68451 19 10.5512 19 13.9998C19 17.8658 15.866 20.9998 12 20.9998C8.13401 20.9998 5 17.8658 5 13.9998C5 12.5384 5.44674 11.1843 6.21101 10.063C6.52205 9.6066 6.40424 8.98449 5.94787 8.67345C5.4915 8.36241 4.86939 8.48022 4.55835 8.93659C3.57496 10.3794 3 12.124 3 13.9998C3 18.9703 7.02944 22.9998 12 22.9998C16.9706 22.9998 21 18.9703 21 13.9998C21 9.6985 17.9831 6.10249 13.9494 5.2116C14.5468 4.13354 15.386 3.32241 16.3714 2.92825ZM17.0002 13.9998C17.0002 13.4475 16.5525 12.9998 16.0002 12.9998C15.4479 12.9998 15.0002 13.4475 15.0002 13.9998C15.0002 15.6566 13.657 16.9998 12 16.9998C11.4477 16.9998 11 17.4475 11 17.9998C11 18.5521 11.4477 18.9998 12 18.9998C14.7615 18.9998 17.0002 16.7613 17.0002 13.9998ZM7.5 2.99978H4.5C4.22386 2.99978 4 3.22364 4 3.49978C4 5.43277 5.567 6.99978 7.5 6.99978H10.5C10.7761 6.99978 11 6.77592 11 6.49978C11 4.56678 9.433 2.99978 7.5 2.99978Z" fill="black"/>
</svg>
