<svg width="24" height="24" viewBox="0 0 24 24" fill="none" xmlns="http://www.w3.org/2000/svg">
<path d="M12 12V6.5M12 12V17.5M12 12H17.5M12 12H6.5M12 12L8 8M12 12L16 8M12 12L16 16M12 12L8 16M12 18V18C15.3137 18 18 15.3137 18 12V12C18 8.68629 15.3137 6 12 6V6C8.68629 6 6 8.68629 6 12V12C6 15.3137 8.68629 18 12 18ZM12 22V22C17.5228 22 22 17.5228 22 12V12C22 6.47715 17.5228 2 12 2V2C6.47715 2 2 6.47715 2 12V12C2 17.5228 6.47715 22 12 22Z" stroke="black" stroke-width="2" stroke-linecap="round" stroke-linejoin="round"/>
</svg>
