<svg width="24" height="24" viewBox="0 0 24 24" fill="none" xmlns="http://www.w3.org/2000/svg">
<path fill-rule="evenodd" clip-rule="evenodd" d="M16.3714 2.92825C16.8842 2.72314 17.1336 2.14117 16.9285 1.62839C16.7234 1.1156 16.1414 0.866188 15.6286 1.0713C13.8657 1.77648 12.5831 3.27105 11.8257 5.00143C6.93557 5.09432 3 9.08745 3 13.9998C3 18.9703 7.02944 22.9998 12 22.9998C16.9706 22.9998 21 18.9703 21 13.9998C21 9.69861 17.9828 6.10215 13.9494 5.21148C14.5469 4.13348 15.386 3.3224 16.3714 2.92825ZM12 6.99978C12.1412 6.99978 12.2815 7.00396 12.4206 7.01221C12.4337 7.01328 12.4468 7.01409 12.4598 7.01464C16.1115 7.25144 19 10.2883 19 13.9998C19 17.8658 15.866 20.9998 12 20.9998C8.13401 20.9998 5 17.8658 5 13.9998C5 10.1338 8.13401 6.99978 12 6.99978ZM12 8.24978C10.4124 8.24978 8.97386 8.89419 7.93414 9.93391C6.89441 10.9736 6.25 12.4122 6.25 13.9998C6.25 15.5874 6.89441 17.0259 7.93414 18.0656C8.97386 19.1054 10.4124 19.7498 12 19.7498C13.5876 19.7498 15.0261 19.1054 16.0659 18.0656C17.1056 17.0259 17.75 15.5874 17.75 13.9998C17.75 12.4122 17.1056 10.9736 16.0659 9.93391C15.0261 8.89419 13.5876 8.24978 12 8.24978ZM11.25 12.1891L9.57195 10.5111C10.0653 10.167 10.6346 9.92511 11.25 9.81565V12.1891ZM12.75 12.1891V9.81565C13.3654 9.92511 13.9347 10.167 14.428 10.5111L12.75 12.1891ZM13.8107 13.2498L15.4887 11.5717C15.8328 12.065 16.0747 12.6344 16.1841 13.2498H13.8107ZM13.8107 14.7498H16.1841C16.0747 15.3651 15.8328 15.9345 15.4887 16.4278L13.8107 14.7498ZM12.75 15.8104L14.428 17.4885C13.9347 17.8326 13.3654 18.0744 12.75 18.1839V15.8104ZM11.25 15.8104V18.1839C10.6346 18.0744 10.0653 17.8326 9.57195 17.4885L11.25 15.8104ZM10.1893 14.7498L8.51129 16.4278C8.16718 15.9345 7.92533 15.3651 7.81588 14.7498H10.1893ZM10.1893 13.2498H7.81588C7.92533 12.6344 8.16718 12.0651 8.51129 11.5717L10.1893 13.2498Z" fill="black"/>
</svg>
