<svg width="24" height="24" viewBox="0 0 24 24" fill="none" xmlns="http://www.w3.org/2000/svg">
<path d="M16.5291 7.47085C16.8332 8.25529 17 9.10817 17 10C17 10.4217 16.9627 10.8347 16.8913 11.2358M16.5291 7.47085C15.5151 4.85484 12.9742 3 10 3C6.13401 3 3 6.13401 3 10C3 12.9742 4.85484 15.5151 7.47085 16.5291M16.5291 7.47085C19.1452 8.4849 21 11.0258 21 14C21 17.866 17.866 21 14 21C11.0258 21 8.4849 19.1452 7.47085 16.5291M11.2358 16.8913C10.8347 16.9627 10.4217 17 10 17C9.10817 17 8.25529 16.8332 7.47085 16.5291M11.2358 16.8913C14.1112 16.3791 16.3791 14.1112 16.8913 11.2358M11.2358 16.8913C11.954 17.5781 12.9278 18 14 18C16.2091 18 18 16.2091 18 14C18 12.9278 17.5781 11.954 16.8913 11.2358M8 10H12" stroke="black" stroke-width="2" stroke-linecap="round" stroke-linejoin="round"/>
</svg>
