<svg width="24" height="24" viewBox="0 0 24 24" fill="none" xmlns="http://www.w3.org/2000/svg">
<path d="M12.0007 6C12.0007 4 13.5007 2 16.0007 2H19M15.0002 16C15.0002 17.6569 13.657 19.0001 12 19.0001M9.00072 2H6C5.44772 2 5 2.44772 5 3C5 4.65685 6.34315 6 8 6H11.0007C11.553 6 12.0007 5.55229 12.0007 5C12.0007 3.34315 10.6576 2 9.00072 2ZM12.0002 22.0003C8.6864 22.0003 6 19.314 6 16.0003C6 14.0372 6.94281 12.2942 8.40034 11.1995C9.02526 10.7301 9.50004 10.0432 9.5001 9.26167L9.50016 8.4998C9.50027 7.11917 10.6195 6 12.0002 6V6C13.381 6 14.5003 7.11941 14.5002 8.5002L14.5001 9.26111C14.5 10.0428 14.9749 10.7299 15.6 11.1994C17.0576 12.2941 18.0005 14.0371 18.0005 16.0003C18.0005 19.314 15.3141 22.0003 12.0002 22.0003Z" stroke="black" stroke-width="2" stroke-linecap="round" stroke-linejoin="round"/>
</svg>
