<svg width="24" height="24" viewBox="0 0 24 24" fill="none" xmlns="http://www.w3.org/2000/svg">
<path d="M12 18.5V15C12 13.3431 13.3431 12 15 12H18.5M12 18.5V22M12 18.5C15.5899 18.5 18.5 15.5899 18.5 12M12 18.5C9.91687 18.5 8.06262 17.5201 6.87306 15.996C6.13645 15.0523 5.65471 13.8999 5.53134 12.6424C5.51061 12.4311 5.5 12.2168 5.5 12C5.5 10.9048 5.77085 9.87291 6.24922 8.96759M12 22C17.5228 22 22 17.5228 22 12M12 22C6.47715 22 2 17.5228 2 12C2 6.47715 6.47715 2 12 2C17.5228 2 22 6.47715 22 12M18.5 12H22M18.5 12C18.5 9.0576 16.5449 6.57184 13.8629 5.7709C13.2728 5.59467 12.6475 5.5 12 5.5C11.3525 5.5 10.7272 5.59467 10.1371 5.7709C9.72896 5.89278 9.3377 6.05366 8.96759 6.24922M8.96759 6.24922C7.81069 6.86052 6.86052 7.81069 6.24922 8.96759M8.96759 6.24922C9.58322 6.59018 10 7.24642 10 8C10 9.10457 9.10457 10 8 10C7.24642 10 6.59018 9.58322 6.24922 8.96759M8.5 13L9 13.5M13.5 9H14" stroke="black" stroke-width="2" stroke-linecap="round" stroke-linejoin="round"/>
</svg>
