<svg width="24" height="24" viewBox="0 0 24 24" fill="none" xmlns="http://www.w3.org/2000/svg">
<path d="M16.1768 14.9923L13.9434 19.777C13.1822 21.4077 10.8178 21.4077 10.0566 19.777L9.22151 17.9879M16.1768 14.9923L17.6407 11.856M16.1768 14.9923C16.1185 14.9974 16.0596 15 16 15C14.8954 15 14 14.1046 14 13C14 11.8954 14.8954 11 16 11C16.6791 11 17.2792 11.3385 17.6407 11.856M17.6407 11.856L18.7289 9.52461M18.7289 9.52461L19.8064 7.21628C20.2359 6.29613 19.9396 5.19146 19.0284 4.71538C16.933 3.62054 14.5405 3 12 3C9.45954 3 7.06699 3.62054 4.97159 4.71538C4.06043 5.19146 3.76408 6.29613 4.19359 7.21628L5.27106 9.52461M18.7289 9.52461C16.8919 8.06358 14.5503 7.18808 12 7.18808C9.44969 7.18808 7.10806 8.06358 5.27106 9.52461M9.22151 17.9879L7.61855 14.5538M9.22151 17.9879C10.2218 17.8777 11 17.0297 11 16C11 14.8954 10.1046 14 9 14C8.46419 14 7.9776 14.2107 7.61855 14.5538M7.61855 14.5538L5.27106 9.52461M10 11L11 10" stroke="black" stroke-width="2" stroke-linecap="round" stroke-linejoin="round"/>
</svg>
