<svg width="24" height="24" viewBox="0 0 24 24" fill="none" xmlns="http://www.w3.org/2000/svg">
<path d="M12 5.5V9C12 10.6569 13.3431 12 15 12H18.5M12 5.5V2M12 5.5C15.5899 5.5 18.5 8.41015 18.5 12M12 5.5C9.91687 5.5 8.06262 6.47993 6.87306 8.00396M12 2C17.5228 2 22 6.47715 22 12M12 2C6.47715 2 2 6.47715 2 12C2 17.5228 6.47715 22 12 22C17.5228 22 22 17.5228 22 12M18.5 12H22M18.5 12C18.5 14.9424 16.5449 17.4282 13.8629 18.2291M5.53134 11.3576C5.8967 11.7527 6.41947 12 7 12C8.10457 12 9 11.1046 9 10C9 8.89543 8.10457 8 7 8C6.95736 8 6.91504 8.00133 6.87306 8.00396M5.53134 11.3576C5.65471 10.1001 6.13645 8.9477 6.87306 8.00396M5.53134 11.3576C5.51061 11.5689 5.5 11.7832 5.5 12C5.5 14.9424 7.45508 17.4282 10.1371 18.2291M10.1371 18.2291C10.0486 18.0032 10 17.7573 10 17.5C10 16.3954 10.8954 15.5 12 15.5C13.1046 15.5 14 16.3954 14 17.5C14 17.7573 13.9514 18.0032 13.8629 18.2291M10.1371 18.2291C10.7272 18.4053 11.3525 18.5 12 18.5C12.6475 18.5 13.2728 18.4053 13.8629 18.2291" stroke="black" stroke-width="2" stroke-linecap="round" stroke-linejoin="round"/>
</svg>
