<svg width="24" height="24" viewBox="0 0 24 24" fill="none" xmlns="http://www.w3.org/2000/svg">
<path d="M4 11C4 9.69203 4.83705 8.57957 6.00468 8.16905C6.00157 8.1131 6 8.05673 6 8C6 6.34315 7.34315 5 9 5C9 3.89543 9.89543 3 11 3C11.8724 3 12.6143 3.55857 12.8877 4.33759C13.2057 4.12437 13.5883 4 14 4C14.7449 4 15.3947 4.40723 15.7389 5.01121C15.8249 5.00379 15.912 5 16 5C17.6569 5 19 6.34315 19 8C19 8.11274 18.9938 8.22403 18.9817 8.33355C19.6149 9.0412 20 9.97563 20 11M10 8H10.01M13 7H13.01M15.49 8.5H15.5M9.94733 21H14.0527C15.3425 21 16.6983 20.8619 17.6446 19.9855C19.4986 18.2687 20.7292 14.9796 20.9604 11.9985C21.0031 11.4479 20.5523 11 20 11H4C3.44772 11 2.99685 11.4479 3.03957 11.9985C3.27081 14.9796 4.50143 18.2687 6.35539 19.9855C7.30173 20.8619 8.65755 21 9.94733 21Z" stroke="black" stroke-width="2" stroke-linecap="round" stroke-linejoin="round"/>
</svg>
