<svg width="24" height="24" viewBox="0 0 24 24" fill="none" xmlns="http://www.w3.org/2000/svg">
<path d="M3.95598 12.0001H2.95047C2.39515 12.0001 1.93919 12.4495 2.00664 12.9976C2.45465 16.6389 5.29661 20.0001 8.98349 20.0001H15.0165C18.7034 20.0001 21.5454 16.6389 21.9934 12.9976C22.0608 12.4495 21.6049 12.0001 21.0495 12.0001H20.044M3.95598 12.0001C3.95598 8.66916 5.2947 6.82394 7.67487 5.26887C8.96962 4.42295 10.4848 3.99999 12 4C13.5152 4.00001 15.0304 4.42296 16.3251 5.26887C18.7053 6.82394 20.044 8.66916 20.044 12.0001M3.95598 12.0001H20.044M9.49 7.5H9.5M14.49 7.5H14.5M12 9.5H12.01M6.99 9.5H7M17 9.5H17.01" stroke="black" stroke-width="2" stroke-linecap="round" stroke-linejoin="round"/>
</svg>
