<svg width="24" height="24" viewBox="0 0 24 24" fill="none" xmlns="http://www.w3.org/2000/svg">
<path d="M8.5 11H8.51M11.99 11H12M15.5 11H15.51M10 14H10.01M14 14H14.01M12 17H12.01M9 2H6C5.44772 2 5 2.44772 5 3C5 4.65685 6.34315 6 8 6H11C11.5523 6 12 5.55229 12 5C12 3.34315 10.6569 2 9 2ZM9.98451 6H14.0155C17.3549 6 20.0545 8.87976 19.0297 12.2013C17.9927 15.5625 16.2781 18.8039 14.3689 20.9157C13.0618 22.3614 10.9382 22.3614 9.63112 20.9157C7.72194 18.8039 6.00727 15.5625 4.97029 12.2013C3.94551 8.87976 6.64515 6 9.98451 6Z" stroke="black" stroke-width="2" stroke-linecap="round" stroke-linejoin="round"/>
</svg>
