<svg width="24" height="24" viewBox="0 0 24 24" fill="none" xmlns="http://www.w3.org/2000/svg">
<path d="M8.5 11H8.51M11.99 11H12M15.5 11H15.51M10 14H10.01M14 14H14.01M12 17H12.01M12 6H9.98451C6.64515 6 3.94551 8.87976 4.97029 12.2013C6.00727 15.5625 7.72194 18.8039 9.63112 20.9157C10.9382 22.3614 13.0618 22.3614 14.3689 20.9157C16.2781 18.8039 17.9927 15.5625 19.0297 12.2013C20.0545 8.87976 17.3549 6 14.0155 6H12ZM12 6C12.01 3 10.01 2 8 2M15 2H18C18.5523 2 19 2.44772 19 3C19 4.65685 17.6569 6 16 6H13C12.4477 6 12 5.55229 12 5C12 3.34315 13.3431 2 15 2Z" stroke="black" stroke-width="2" stroke-linecap="round" stroke-linejoin="round"/>
</svg>
