<svg width="24" height="24" viewBox="0 0 24 24" fill="none" xmlns="http://www.w3.org/2000/svg">
<path d="M4 16V16C2.89543 16 2 16.8954 2 18V18C2 19.1046 2.89543 20 4 20H20C21.1046 20 22 19.1046 22 18V18C22 16.8954 21.1046 16 20 16V16M4 16H20M4 16V11.5M20 16V11.5M12 7H7C5.34315 7 4 8.34315 4 10V11.5M12 7H17C18.6569 7 20 8.34315 20 10V11.5M12 7V4M4 11.5L5.07753 11.7694C5.6728 11.9182 6.30166 11.8492 6.85047 11.5748L7 11.5C7.62951 11.1852 8.37049 11.1852 9 11.5V11.5C9.62951 11.8148 10.3705 11.8148 11 11.5V11.5C11.6295 11.1852 12.3705 11.1852 13 11.5V11.5C13.6295 11.8148 14.3705 11.8148 15 11.5V11.5C15.6295 11.1852 16.3705 11.1852 17 11.5L17.1495 11.5748C17.6983 11.8492 18.3272 11.9182 18.9225 11.7694L20 11.5" stroke="black" stroke-width="2" stroke-linecap="round" stroke-linejoin="round"/>
</svg>
