<svg width="24" height="24" viewBox="0 0 24 24" fill="none" xmlns="http://www.w3.org/2000/svg">
<path d="M4 16V16C2.89543 16 2 16.8954 2 18V18C2 19.1046 2.89543 20 4 20H20C21.1046 20 22 19.1046 22 18V18C22 16.8954 21.1046 16 20 16V16M4 16H20M4 16V8M20 16V8M4 8V8C4 5.79086 5.79086 4 8 4H16C18.2091 4 20 5.79086 20 8V8M4 8H10C11.1046 8 12 8.89543 12 10V10.5C12 11.3284 12.6716 12 13.5 12V12C14.3284 12 15 11.3284 15 10.5V10C15 8.89543 15.8954 8 17 8H20M7 11H7.01M9.49 13H9.5M17.2402 13.5H17.2502" stroke="black" stroke-width="2" stroke-linecap="round" stroke-linejoin="round"/>
</svg>
