<svg width="24" height="24" viewBox="0 0 24 24" fill="none" xmlns="http://www.w3.org/2000/svg">
<path d="M4 16V16C2.89543 16 2 16.8954 2 18V18C2 19.1046 2.89543 20 4 20H20C21.1046 20 22 19.1046 22 18V18C22 16.8954 21.1046 16 20 16V16M4 16V12M4 16H20M20 16V12M4 8V8C4 5.79086 5.79086 4 8 4H16C18.2091 4 20 5.79086 20 8V8M4 8V12M4 8H7.45934C8.4771 8 9.4855 8.1942 10.4305 8.57219L12.0464 9.21855C13.2693 9.70774 14.6548 9.56349 15.7507 8.83284L15.9923 8.6718C16.6494 8.23375 17.4214 8 18.2111 8H20M20 8V12M4 12H5.2889C6.0786 12 6.85063 12.2338 7.5077 12.6718L8.3906 13.2604C9.0624 13.7083 9.9376 13.7083 10.6094 13.2604L11.4923 12.6718C12.1494 12.2338 12.9214 12 13.7111 12H20" stroke="black" stroke-width="2" stroke-linecap="round" stroke-linejoin="round"/>
</svg>
