<svg width="24" height="24" viewBox="0 0 24 24" fill="none" xmlns="http://www.w3.org/2000/svg">
<path d="M16.8203 17.1339L20.8639 6.011C21.507 4.24182 19.7582 2.49297 17.989 3.13613L6.86614 7.17968M16.8203 17.1339L15.9099 19.6382C15.547 20.6365 14.5107 21.2343 13.4847 20.9125C11.125 20.1725 8.89634 18.8618 7.01727 16.9827C5.13821 15.1037 3.82753 12.875 3.08747 10.5153C2.76565 9.48926 3.36353 8.453 4.36182 8.09008L6.86614 7.17968M16.8203 17.1339C14.3809 16.8558 12.0014 15.7713 10.115 13.885C8.22865 11.9986 7.14423 9.61908 6.86614 7.17968M11.0854 8.47669L11.078 8.48409M12.5647 11.4353L12.5573 11.4427M15.5233 12.9146L15.5159 12.922M14.0514 7.72964L14.044 7.73704M16.2704 9.94861L16.263 9.956M17.0026 6.99738L16.9952 7.00478" stroke="black" stroke-width="2" stroke-linecap="round" stroke-linejoin="round"/>
</svg>
