<svg width="24" height="24" viewBox="0 0 24 24" fill="none" xmlns="http://www.w3.org/2000/svg">
<path d="M18.7289 14.4754L13.9434 4.22303C13.1822 2.59232 10.8178 2.59232 10.0566 4.22303L5.27106 14.4754M18.7289 14.4754L19.8064 16.7837C20.2359 17.7039 19.9396 18.8085 19.0284 19.2846C16.933 20.3795 14.5405 21 12 21C9.45954 21 7.06699 20.3795 4.97159 19.2846C4.06043 18.8085 3.76408 17.7039 4.19359 16.7837L5.27106 14.4754M18.7289 14.4754C16.8919 15.9364 14.5503 16.8119 12 16.8119C9.44969 16.8119 7.10806 15.9364 5.27106 14.4754M9 12.5V12.51M12 13.5V13.51M15 12.5V12.51M10.5 9.99V10M13.5 9.99V10M12 7.5V7.51" stroke="black" stroke-width="2" stroke-linecap="round" stroke-linejoin="round"/>
</svg>
