<svg width="24" height="24" viewBox="0 0 24 24" fill="none" xmlns="http://www.w3.org/2000/svg">
<path d="M8.60092 4.42016C5.56918 7.45191 5.56918 12.3673 8.60092 15.3991C11.6327 18.4308 16.5481 18.4308 19.5798 15.3991M8.60092 4.42016L7.81671 3.63595C6.9505 2.76974 5.52266 2.76045 4.84474 3.78078C1.98297 8.088 2.45083 13.9542 6.2483 17.7517C10.0458 21.5492 15.912 22.017 20.2192 19.1553C21.2395 18.4773 21.2303 17.0495 20.3641 16.1833L19.5798 15.3991M8.60092 4.42016L19.5798 15.3991M9.38513 9.90962L9.39297 9.91746M11.7378 12.2622L11.7456 12.2701M14.0904 14.6149L14.0982 14.6227" stroke="black" stroke-width="2" stroke-linecap="round" stroke-linejoin="round"/>
</svg>
