<svg width="24" height="24" viewBox="0 0 24 24" fill="none" xmlns="http://www.w3.org/2000/svg">
<path d="M10 5H8.62006C7.48745 5 6.54171 5.86048 6.43917 6.98429L6.164 10M11 17C8.06008 17 5.75477 14.4849 6.02094 11.5679L6.164 10M11 17C13.9399 17 16.2452 14.4849 15.9791 11.5679L15.836 10M11 17V22M11 22H15M11 22H7M6.164 10H11M15.836 10L15.5608 6.98429C15.4777 6.07372 14.8411 5.33603 14 5.08886M15.836 10H11M11 10L14.4313 3.99517C14.7975 3.35432 15.3871 2.87095 16.0874 2.63754L18 2" stroke="black" stroke-width="2" stroke-linecap="round" stroke-linejoin="round"/>
</svg>
