<svg width="24" height="24" viewBox="0 0 24 24" fill="none" xmlns="http://www.w3.org/2000/svg">
<path d="M13.9649 21.7309C15.1305 21.4347 16 21 16 21L18 17L14 16.3333M13.9649 21.7309C13.7983 21.6377 13.6416 21.5203 13.5 21.3786C13.0858 20.9644 12.5429 20.7573 12 20.7573M13.9649 21.7309C14.2855 21.9103 14.6427 22 15 22C15.5429 22 16.0858 21.7929 16.5 21.3786C17.3284 20.5502 18.6716 20.5502 19.5 21.3786C19.6515 21.5302 19.8203 21.654 20 21.7501M10.0351 21.7309C8.87036 21.4349 8 21 8 21L6 17L10 16.3333M10.0351 21.7309C9.71453 21.9103 9.35727 22 9 22C8.45711 22 7.91421 21.7929 7.5 21.3786C6.67157 20.5502 5.32843 20.5502 4.5 21.3786C4.34846 21.5302 4.17969 21.654 4 21.7501M10.0351 21.7309C10.2017 21.6377 10.3584 21.5203 10.5 21.3786C10.9142 20.9644 11.4571 20.7573 12 20.7573M12 16V20.7573M12 16L10 16.3333M12 16L14 16.3333M10 16.3333V14H12M14 16.3333V14H12M12 14V12M12 2V4M12 4V12M12 4H20C19 6.90524 19 11.0948 20 14C17.5 13 15.5 12 12 12M12 4H4C5 6.90524 5 11.0948 4 14C6.5 13 8.5 12 12 12" stroke="black" stroke-width="2" stroke-linecap="round" stroke-linejoin="round"/>
</svg>
