<svg width="24" height="24" viewBox="0 0 24 24" fill="none" xmlns="http://www.w3.org/2000/svg">
<path d="M17.4563 12.4275C16.5837 12.9522 16 13.9081 16 15.0004C16 16.6572 17.3431 18.0004 19 18.0004C20.6569 18.0004 22 16.6572 22 15.0004C22 13.3435 20.6569 12.0004 19 12.0004C18.4354 12.0004 17.9073 12.1563 17.4563 12.4275ZM17.4563 12.4275L16 10.0004M17.4563 12.4275L19 15.0004M6.87434 12.6575L5 15.0004H8M6.87434 12.6575L9 10.0004M6.87434 12.6575C6.36084 12.2461 5.70916 12 5 12C3.34315 12 2 13.3431 2 15C2 16.6569 3.34315 18 5 18C6.65672 18 7.99979 16.6571 8 15.0004M9 10.0004H16M9 10.0004L12 15.0004M9 10.0004L7.79986 8H7M16 10.0004L12 15.0004M16 10.0004L13.8913 6.48553C13.7105 6.18431 13.385 6 13.0337 6H12M8 15.0004H12" stroke="black" stroke-width="2" stroke-linecap="round" stroke-linejoin="round"/>
</svg>
