<svg width="24" height="24" viewBox="0 0 24 24" fill="none" xmlns="http://www.w3.org/2000/svg">
<path d="M15.5 17H8.5M15.5 17C15.5 18.1046 16.3954 19 17.5 19C18.6046 19 19.5 18.1046 19.5 17M15.5 17C15.5 15.8954 16.3954 15 17.5 15C18.6046 15 19.5 15.8954 19.5 17M8.5 17C8.5 18.1046 7.60457 19 6.5 19C5.39543 19 4.5 18.1046 4.5 17M8.5 17C8.5 15.8954 7.60457 15 6.5 15C5.39543 15 4.5 15.8954 4.5 17M4.5 17H2V11M19.5 17H22V13C22 11.8954 21.1046 11 20 11H16M16 11V7C16 5.89543 15.1046 5 14 5H11M16 11H11M2 11V7C2 5.89543 2.89543 5 4 5H6M2 11H6M6 11V5M6 11H11M6 5H11M11 5V11" stroke="black" stroke-width="2" stroke-linecap="round" stroke-linejoin="round"/>
</svg>
