<svg width="24" height="24" viewBox="0 0 24 24" fill="none" xmlns="http://www.w3.org/2000/svg">
<path d="M18 19C19.1046 19 20 18.1046 20 17V12M18 19V21H17V19M18 19H17M6 19C4.89543 19 4 18.1046 4 17V12M6 19V21H7V19M6 19H7M4 12H12M4 12V11M20 12H12M20 12V11M12 12V7M4 7H12M4 7V8M4 7C4 4 9 3 12 3C15 3 20 4 20 7M12 7H20M20 7V8M20 8H21V11H20M20 8V11M4 8H3V11H4M4 8V11M7 16H7.5M17 16H16.5M7 19H10M17 19H14M10 19V18C10 17.4477 10.4477 17 11 17H13C13.5523 17 14 17.4477 14 18V19M10 19H14" stroke="black" stroke-width="2" stroke-linecap="round" stroke-linejoin="round"/>
</svg>
