<svg width="24" height="24" viewBox="0 0 24 24" fill="none" xmlns="http://www.w3.org/2000/svg">
<path d="M15.5 17H8.5M15.5 17C15.5 18.1046 16.3954 19 17.5 19C18.6046 19 19.5 18.1046 19.5 17M15.5 17C15.5 15.8954 16.3954 15 17.5 15C18.6046 15 19.5 15.8954 19.5 17M8.5 17C8.5 18.1046 7.60457 19 6.5 19C5.39543 19 4.5 18.1046 4.5 17M8.5 17C8.5 15.8954 7.60457 15 6.5 15C5.39543 15 4.5 15.8954 4.5 17M4.5 17H3C2.44772 17 2 16.5523 2 16V11M19.5 17H21C21.5523 17 22 16.5523 22 16V11M22 11L21.2785 6.6712C21.1178 5.70683 20.2834 5 19.3057 5H17M22 11H17M2 11V7C2 5.89543 2.89543 5 4 5H7M2 11H7M12 5H17M12 5H7M12 5V6M17 5V11M17 11H16M7 5V11M7 11H7.5M12 9L10.5 11.25H13.125L11.625 13.5" stroke="black" stroke-width="2" stroke-linecap="round" stroke-linejoin="round"/>
</svg>
