<svg width="24" height="24" viewBox="0 0 24 24" fill="none" xmlns="http://www.w3.org/2000/svg">
<path fill-rule="evenodd" clip-rule="evenodd" d="M10.5002 4C11.0525 4 11.5002 3.55228 11.5002 3C11.5002 2.44772 11.0525 2 10.5002 2C9.94793 2 9.50021 2.44772 9.50021 3C9.50021 3.55228 9.94793 4 10.5002 4ZM13.5002 4.5C14.0525 4.5 14.5002 4.05228 14.5002 3.5C14.5002 2.94772 14.0525 2.5 13.5002 2.5C12.9479 2.5 12.5002 2.94772 12.5002 3.5C12.5002 4.05228 12.9479 4.5 13.5002 4.5ZM3.21714 3.02381C2.67801 2.90401 2.14383 3.24394 2.02403 3.78307C1.90422 4.3222 2.24415 4.85638 2.78328 4.97619L11.0002 6.80217V10H9.50021H6.50021C4.84336 10 3.50021 11.3431 3.50021 13V16V19C3.50021 20.6569 4.84336 22 6.50021 22H17.5002C19.1571 22 20.5002 20.6569 20.5002 19V16V13C20.5002 11.3431 19.1571 10 17.5002 10H14.5002H13.0002V7.24655L20.7833 8.97572C21.3225 9.0955 21.8566 8.75554 21.9764 8.2164C22.0962 7.67726 21.7562 7.1431 21.2171 7.02332L12.2171 5.02381L12.2171 5.0238L3.21714 3.02381ZM5.50021 13C5.50021 12.4477 5.94793 12 6.50021 12H8.50021V15H5.50021V13ZM10.5002 15V12H12.0002H13.5002V15H10.5002ZM15.5002 15V12H17.5002C18.0525 12 18.5002 12.4477 18.5002 13V15H15.5002ZM14.5002 17H18.5002V19C18.5002 19.5523 18.0525 20 17.5002 20H6.50021C5.94793 20 5.50021 19.5523 5.50021 19V17H9.50021H14.5002Z" fill="black"/>
</svg>
