<svg width="24" height="24" viewBox="0 0 24 24" fill="none" xmlns="http://www.w3.org/2000/svg">
<path d="M15.5 18C15.5 19.1046 16.3954 20 17.5 20C18.6046 20 19.5 19.1046 19.5 18M15.5 18C15.5 16.8954 16.3954 16 17.5 16C18.6046 16 19.5 16.8954 19.5 18M15.5 18H13M8.5 18C8.5 19.1046 7.60457 20 6.5 20C5.39543 20 4.5 19.1046 4.5 18M8.5 18C8.5 16.8954 7.60457 16 6.5 16C5.39543 16 4.5 16.8954 4.5 18M8.5 18H13M4.5 18H3C2.44772 18 2 17.5523 2 17V5C2 4.44772 2.44771 4 3 4H13V13M19.5 18H21C21.5523 18 22 17.5523 22 17V14.4482C22 13.9491 21.9067 13.4584 21.7286 13M21.7286 13C21.5729 12.5991 21.3524 12.2229 21.0729 11.8875L17.5997 7.71963C17.2197 7.26365 16.6568 7 16.0632 7H13V13M21.7286 13H13M13 13V18" stroke="black" stroke-width="2" stroke-linecap="round" stroke-linejoin="round"/>
</svg>
