<svg width="24" height="24" viewBox="0 0 24 24" fill="none" xmlns="http://www.w3.org/2000/svg">
<path d="M15 17H9M15 17C15 18.1046 15.8954 19 17 19C18.1046 19 19 18.1046 19 17M15 17C15 15.8954 15.8954 15 17 15C18.1046 15 19 15.8954 19 17M9 17C9 18.1046 8.10457 19 7 19C5.89543 19 5 18.1046 5 17M9 17C9 15.8954 8.10457 15 7 15C5.89543 15 5 15.8954 5 17M5 17H2V13C2 11.8954 2.89543 11 4 11H5M19 17H22V15C22 12.7909 20.2091 11 18 11H17M17 11L15.6838 7.05132C15.2754 5.82629 14.129 5 12.8377 5H9M17 11H9M5 11L5.5822 7.5068C5.82329 6.06024 7.07486 5 8.54138 5H9M5 11H9M9 5V11" stroke="black" stroke-width="2" stroke-linecap="round" stroke-linejoin="round"/>
</svg>
