<svg width="24" height="24" viewBox="0 0 24 24" fill="none" xmlns="http://www.w3.org/2000/svg">
<path d="M15.5 17H8.5M15.5 17C15.5 18.1046 16.3954 19 17.5 19C18.6046 19 19.5 18.1046 19.5 17M15.5 17C15.5 15.8954 16.3954 15 17.5 15C18.6046 15 19.5 15.8954 19.5 17M8.5 17C8.5 18.1046 7.60457 19 6.5 19C5.39543 19 4.5 18.1046 4.5 17M8.5 17C8.5 15.8954 7.60457 15 6.5 15C5.39543 15 4.5 15.8954 4.5 17M4.5 17H3C2.44772 17 2 16.5523 2 16V12M19.5 17H21C21.5523 17 22 16.5523 22 16V13.4482C22 12.9491 21.9067 12.4584 21.7286 12M21.7286 12C21.5729 11.5991 21.3524 11.2229 21.0729 10.8875L17.5997 6.71963C17.2197 6.26365 16.6568 6 16.0632 6H13V12M21.7286 12H13M13 12V5H3C2.44771 5 2 5.44772 2 6V12M13 12H2" stroke="black" stroke-width="2" stroke-linecap="round" stroke-linejoin="round"/>
</svg>
