<svg width="24" height="24" viewBox="0 0 24 24" fill="none" xmlns="http://www.w3.org/2000/svg">
<path d="M4 16V19C4 19.5523 4.44772 20 5 20M4 16C4 14.3431 5.34315 13 7 13M4 16V4C4 2.89543 4.89543 2 6 2H18C19.1046 2 20 2.89543 20 4V16M20 16V19C20 19.5523 19.5523 20 19 20M20 16C20 14.3431 18.6569 13 17 13M8 16.5H8.5M16 16.5H15.5M5 20V22H6V20M5 20H6M6 20H18M19 20V22H18V20M19 20H18M7 13H17M7 13L7.3199 9.80099C7.42214 8.77859 8.28247 8 9.30998 8H14.69C15.7175 8 16.5779 8.77859 16.6801 9.80099L17 13" stroke="black" stroke-width="2" stroke-linecap="round" stroke-linejoin="round"/>
</svg>
