<svg width="24" height="24" viewBox="0 0 24 24" fill="none" xmlns="http://www.w3.org/2000/svg">
<path d="M6 14H6.5M18 14H17.5M4 18V21H6V18M4 18H6M4 18C3.44772 18 3 17.5523 3 17V13C3 12.1115 3.38625 11.3132 4 10.7639M6 18H9.5M20 18V21H18V18M20 18H18M20 18C20.5523 18 21 17.5523 21 17V13C21 12.1115 20.6137 11.3132 20 10.7639M18 18H14.5M9.5 10V18M9.5 10H12M9.5 10H7M9.5 18H12M14.5 10H18C18.7684 10 19.4692 10.2889 20 10.7639M14.5 10V18M14.5 10H14M14.5 18H12M12 10V18M12 10H14M4 10.7639C4.53076 10.2889 5.23165 10 6 10H7M4 10.7639V5C4 3.89543 4.89543 3 6 3H18C19.1046 3 20 3.89543 20 5V10.7639M7 10L10 6M14 10L17 6" stroke="black" stroke-width="2" stroke-linecap="round" stroke-linejoin="round"/>
</svg>
