<svg width="24" height="24" viewBox="0 0 24 24" fill="none" xmlns="http://www.w3.org/2000/svg">
<path fill-rule="evenodd" clip-rule="evenodd" d="M8.45941 5C7.50605 5 6.68522 5.67292 6.49825 6.60777L6.2198 8H15.7802L15.5017 6.60777C15.3148 5.67292 14.494 5 13.5406 5H8.45941ZM18.883 8.47002C19.418 8.756 19.8803 9.16004 20.2353 9.64735C19.0928 9.01384 17.6848 9.05312 16.5753 9.76519C16.4512 9.84484 16.3087 9.92352 16.1529 10H5C3.89543 10 3 10.8954 3 12V15H4H12.0493C12.1011 15.7079 12.1952 16.3741 12.3393 17H5V18C5 18.5523 4.55228 19 4 19H3C2.44772 19 2 18.5523 2 18V16.7324C1.4022 16.3866 1 15.7403 1 15V12C1 10.4716 1.85719 9.14345 3.11704 8.47002C2.91558 8.09188 2.9742 7.61159 3.29289 7.29289C3.5831 7.00269 4.0073 6.92814 4.36635 7.06925L4.53709 6.21554C4.91103 4.34584 6.55269 3 8.45941 3H13.5406C15.4473 3 17.089 4.34584 17.4629 6.21554L17.6337 7.06925C17.9927 6.92814 18.4169 7.00269 18.7071 7.29289C19.0258 7.61159 19.0844 8.09188 18.883 8.47002ZM5 12.5C5 11.9477 5.44772 11.5 6 11.5H6.5C7.05228 11.5 7.5 11.9477 7.5 12.5C7.5 13.0523 7.05228 13.5 6.5 13.5H6C5.44772 13.5 5 13.0523 5 12.5ZM17.6555 11.4484C18.1716 11.1171 18.8362 11.1171 19.3524 11.4484L21.8991 12.5105C22.5311 12.687 23.0183 13.2697 23.0036 13.984C22.9605 16.0831 22.58 17.5569 21.8562 18.654C21.1285 19.7572 20.1349 20.3502 19.1823 20.8368C18.7564 21.0543 18.2514 21.0543 17.8255 20.8368C16.8729 20.3502 15.8794 19.7572 15.1516 18.654C14.4278 17.5569 14.0474 16.0831 14.0042 13.984C13.9895 13.2697 14.4767 12.687 15.1087 12.5105C15.9348 12.2798 16.9244 11.9175 17.6555 11.4484ZM18.5078 18.9V13.2811C18.6447 13.3395 18.7637 13.3895 18.8762 13.4368L18.8769 13.4371C19.0849 13.5246 19.2709 13.6028 19.5078 13.7071C20.014 13.9299 20.5271 14.1117 20.9917 14.2544C20.9245 15.7539 20.6545 16.6773 20.3059 17.2956C20.0918 17.6754 19.8294 17.9736 19.5078 18.2354C19.1652 18.5143 18.7 18.8 18.5078 18.9Z" fill="black"/>
</svg>
