<svg width="24" height="24" viewBox="0 0 24 24" fill="none" xmlns="http://www.w3.org/2000/svg">
<path fill-rule="evenodd" clip-rule="evenodd" d="M8.45941 5C7.50605 5 6.68522 5.67292 6.49825 6.60777L6.2198 8H15.7802L15.5017 6.60777C15.3148 5.67292 14.494 5 13.5406 5H8.45941ZM18.883 8.47002C19.9522 9.04155 20.7313 10.0846 20.9427 11.3215C20.3334 11.1131 19.6799 11 19 11C18.9114 11 18.8233 11.0019 18.7357 11.0057C18.3907 10.4048 17.7426 10 17 10H5C3.89543 10 3 10.8954 3 12V15H4H13.3414C13.1203 15.6256 13 16.2987 13 17H5V18C5 18.5523 4.55228 19 4 19H3C2.44772 19 2 18.5523 2 18V16.7324C1.4022 16.3866 1 15.7403 1 15V12C1 10.4716 1.85719 9.14345 3.11704 8.47002C2.91558 8.09188 2.9742 7.61159 3.29289 7.29289C3.5831 7.00269 4.0073 6.92814 4.36635 7.06925L4.53709 6.21554C4.91103 4.34584 6.55269 3 8.45941 3H13.5406C15.4473 3 17.089 4.34584 17.4629 6.21554L17.6337 7.06925C17.9927 6.92814 18.4169 7.00269 18.7071 7.29289C19.0258 7.61159 19.0844 8.09188 18.883 8.47002ZM16 11.5C16.1455 11.5 16.2838 11.5311 16.4085 11.587C15.7214 11.9165 15.1068 12.373 14.5951 12.9261C14.5341 12.7968 14.5 12.6524 14.5 12.5C14.5 11.9477 14.9477 11.5 15.5 11.5H16ZM5 12.5C5 11.9477 5.44772 11.5 6 11.5H6.5C7.05228 11.5 7.5 11.9477 7.5 12.5C7.5 13.0523 7.05228 13.5 6.5 13.5H6C5.44772 13.5 5 13.0523 5 12.5ZM19 13C21.2091 13 23 14.7909 23 17C23 19.2091 21.2091 21 19 21C16.7909 21 15 19.2091 15 17C15 14.7909 16.7909 13 19 13ZM17.2816 17.8482C16.5728 17.1395 16.5728 15.9903 17.2816 15.2816C17.9903 14.5728 19.1395 14.5728 19.8482 15.2816C20.4017 15.835 20.523 16.6569 20.2121 17.328C20.1741 17.4103 20.1862 17.5089 20.2503 17.573L21.1269 18.4495C21.291 18.6137 21.291 18.8799 21.1269 19.0441L21.0441 19.1269C20.8799 19.291 20.6137 19.291 20.4495 19.1269L19.573 18.2503C19.5089 18.1862 19.4103 18.1741 19.328 18.2121C18.6569 18.523 17.835 18.4017 17.2816 17.8482Z" fill="black"/>
</svg>
