<svg width="24" height="24" viewBox="0 0 24 24" fill="none" xmlns="http://www.w3.org/2000/svg">
<path fill-rule="evenodd" clip-rule="evenodd" d="M3 4.5C2.44772 4.5 2 4.94772 2 5.5C2 5.99159 2.35472 6.40034 2.82217 6.48423L2.13655 10.5979C2.07877 10.9446 1.94808 11.2751 1.75312 11.5675C1.26205 12.3042 1 13.1696 1 14.0549V16C1 17.1046 1.89543 18 3 18H3.20802C3.5938 18.883 4.47484 19.5 5.5 19.5C6.52516 19.5 7.4062 18.883 7.79198 18H16.208C16.5938 18.883 17.4748 19.5 18.5 19.5C19.5252 19.5 20.4062 18.883 20.792 18H21C22.1046 18 23 17.1046 23 16V15V13.3397C23 11.8801 22.3622 10.4934 21.254 9.54346L17.336 6.1852C16.0673 5.09775 14.4514 4.5 12.7805 4.5H4H3ZM4.10934 10.9267L4.84713 6.5H12.7805C13.974 6.5 15.1282 6.92696 16.0344 7.70372L19.9524 11.062C20.6173 11.6319 21 12.464 21 13.3397V15V16H20.792C20.4062 15.117 19.5252 14.5 18.5 14.5C17.4748 14.5 16.5938 15.117 16.208 16H7.79198C7.4062 15.117 6.52516 14.5 5.5 14.5C4.47484 14.5 3.5938 15.117 3.20802 16H3V14.0549C3 13.5645 3.14517 13.085 3.41723 12.6769C3.76914 12.1491 4.00504 11.5525 4.10934 10.9267ZM5 17C5 16.7239 5.22386 16.5 5.5 16.5C5.77614 16.5 6 16.7239 6 17C6 17.2761 5.77614 17.5 5.5 17.5C5.22386 17.5 5 17.2761 5 17ZM18 17C18 16.7239 18.2239 16.5 18.5 16.5C18.7761 16.5 19 16.7239 19 17C19 17.2761 18.7761 17.5 18.5 17.5C18.2239 17.5 18 17.2761 18 17ZM8.00009 7.75V12.25C8.00009 12.3881 7.88816 12.5 7.75009 12.5H6.60508C6.01346 12.5 5.55117 11.9892 5.61004 11.4005L5.91004 8.4005C5.96116 7.8893 6.39133 7.5 6.90508 7.5H7.75009C7.88816 7.5 8.00009 7.61193 8.00009 7.75ZM17.2501 11.5H9.24998C9.11191 11.5 8.99998 11.3881 8.99998 11.25V7.75C8.99998 7.61193 9.11191 7.5 9.24998 7.5H12.8903C13.6065 7.5 14.299 7.75618 14.8427 8.22223L17.4128 10.4252C17.4682 10.4727 17.5001 10.542 17.5001 10.615V11.25C17.5001 11.3881 17.3882 11.5 17.2501 11.5Z" fill="black"/>
</svg>
