<svg width="24" height="24" viewBox="0 0 24 24" fill="none" xmlns="http://www.w3.org/2000/svg">
<path d="M7 13.5H7.5M17 13.5H16.5M4 17V19H5V17M4 17H5M4 17C3.44772 17 3 16.5523 3 16V13C3 11.3431 4.34315 10 6 10M5 17H19M20 17V19H19V17M20 17H19M20 17C20.5523 17 21 16.5523 21 16V13C21 11.3431 19.6569 10 18 10M6 10H18M6 10L6.51767 7.41165C6.79812 6.00938 8.02937 5 9.45941 5H14.5406C15.9706 5 17.2019 6.00938 17.4823 7.41165L18 10M6 10L5 9M18 10L19 9" stroke="black" stroke-width="2" stroke-linecap="round" stroke-linejoin="round"/>
</svg>
