<svg width="24" height="24" viewBox="0 0 24 24" fill="none" xmlns="http://www.w3.org/2000/svg">
<path fill-rule="evenodd" clip-rule="evenodd" d="M8.45941 5C7.50605 5 6.68522 5.67292 6.49825 6.60777L6.2198 8H15.7802L15.5017 6.60777C15.3148 5.67292 14.494 5 13.5406 5H8.45941ZM18.883 8.47002C19.9522 9.04155 20.7313 10.0846 20.9427 11.3215C20.3334 11.1131 19.6799 11 19 11C18.9114 11 18.8233 11.0019 18.7357 11.0057C18.3907 10.4048 17.7426 10 17 10H5C3.89543 10 3 10.8954 3 12V15H4H13.3414C13.1203 15.6256 13 16.2987 13 17H5V18C5 18.5523 4.55228 19 4 19H3C2.44772 19 2 18.5523 2 18V16.7324C1.4022 16.3866 1 15.7403 1 15V12C1 10.4716 1.85719 9.14345 3.11704 8.47002C2.91558 8.09188 2.9742 7.61159 3.29289 7.29289C3.5831 7.00269 4.0073 6.92814 4.36635 7.06925L4.53709 6.21554C4.91103 4.34584 6.55269 3 8.45941 3H13.5406C15.4473 3 17.089 4.34584 17.4629 6.21554L17.6337 7.06925C17.9927 6.92814 18.4169 7.00269 18.7071 7.29289C19.0258 7.61159 19.0844 8.09188 18.883 8.47002ZM16 11.5C16.1455 11.5 16.2838 11.5311 16.4085 11.587C15.7214 11.9165 15.1068 12.373 14.5951 12.9261C14.5341 12.7968 14.5 12.6524 14.5 12.5C14.5 11.9477 14.9477 11.5 15.5 11.5H16ZM5 12.5C5 11.9477 5.44772 11.5 6 11.5H6.5C7.05228 11.5 7.5 11.9477 7.5 12.5C7.5 13.0523 7.05228 13.5 6.5 13.5H6C5.44772 13.5 5 13.0523 5 12.5ZM23 17C23 14.7909 21.2091 13 19 13C16.7909 13 15 14.7909 15 17C15 19.2091 16.7909 21 19 21C21.2091 21 23 19.2091 23 17ZM16.9697 14.9697C17.2626 14.6768 17.7374 14.6768 18.0303 14.9697L19 15.9393L19.9697 14.9697C20.2626 14.6768 20.7374 14.6768 21.0303 14.9697C21.3232 15.2626 21.3232 15.7374 21.0303 16.0303L20.0607 17L21.0303 17.9697C21.3232 18.2626 21.3232 18.7374 21.0303 19.0303C20.7374 19.3232 20.2626 19.3232 19.9697 19.0303L19 18.0607L18.0303 19.0303C17.7374 19.3232 17.2626 19.3232 16.9697 19.0303C16.6768 18.7374 16.6768 18.2626 16.9697 17.9697L17.9393 17L16.9697 16.0303C16.6768 15.7374 16.6768 15.2626 16.9697 14.9697Z" fill="black"/>
</svg>
