<svg width="24" height="24" viewBox="0 0 24 24" fill="none" xmlns="http://www.w3.org/2000/svg">
<path fill-rule="evenodd" clip-rule="evenodd" d="M8.45941 5C7.50605 5 6.68522 5.67292 6.49825 6.60777L6.2198 8H15.7802L15.5017 6.60777C15.3148 5.67292 14.494 5 13.5406 5H8.45941ZM18.883 8.47002C19.9522 9.04155 20.7313 10.0846 20.9427 11.3215C20.3334 11.1131 19.6799 11 19 11C18.9114 11 18.8233 11.0019 18.7357 11.0057C18.3907 10.4048 17.7426 10 17 10H5C3.89543 10 3 10.8954 3 12V15H4H13.3414C13.1203 15.6256 13 16.2987 13 17H5V18C5 18.5523 4.55228 19 4 19H3C2.44772 19 2 18.5523 2 18V16.7324C1.4022 16.3866 1 15.7403 1 15V12C1 10.4716 1.85719 9.14345 3.11704 8.47002C2.91558 8.09188 2.9742 7.61159 3.29289 7.29289C3.5831 7.00269 4.0073 6.92814 4.36635 7.06925L4.53709 6.21554C4.91103 4.34584 6.55269 3 8.45941 3H13.5406C15.4473 3 17.089 4.34584 17.4629 6.21554L17.6337 7.06925C17.9927 6.92814 18.4169 7.00269 18.7071 7.29289C19.0258 7.61159 19.0844 8.09188 18.883 8.47002ZM16 11.5C16.1455 11.5 16.2838 11.5311 16.4085 11.587C15.7214 11.9165 15.1068 12.373 14.5951 12.9261C14.5341 12.7968 14.5 12.6524 14.5 12.5C14.5 11.9477 14.9477 11.5 15.5 11.5H16ZM5 12.5C5 11.9477 5.44772 11.5 6 11.5H6.5C7.05228 11.5 7.5 11.9477 7.5 12.5C7.5 13.0523 7.05228 13.5 6.5 13.5H6C5.44772 13.5 5 13.0523 5 12.5ZM19 13C21.2091 13 23 14.7909 23 17C23 19.2091 21.2091 21 19 21C16.7909 21 15 19.2091 15 17C15 14.7909 16.7909 13 19 13ZM18.2768 16.2383C18.3838 15.9735 18.4961 15.8178 18.6017 15.7294C18.6942 15.652 18.8112 15.6002 19.0006 15.6002C19.4119 15.6002 19.6806 15.9142 19.6806 16.2668C19.6806 16.4252 19.6458 16.5222 19.6031 16.591C19.5578 16.6641 19.4791 16.7442 19.3359 16.8292C18.9809 17.04 18.6506 17.4392 18.6506 17.9684V18.04C18.6506 18.3714 18.9192 18.64 19.2506 18.64C19.5819 18.64 19.8506 18.3714 19.8506 18.04V17.9683C19.8506 17.9669 19.8505 17.9574 19.8634 17.9377C19.8781 17.9154 19.9059 17.8863 19.9486 17.861C20.2093 17.7062 20.4498 17.5024 20.6227 17.2238C20.7982 16.941 20.8806 16.6188 20.8806 16.2668C20.8806 15.3032 20.1253 14.4002 19.0006 14.4002C18.5499 14.4002 18.1549 14.5384 17.8313 14.8093C17.5209 15.0692 17.3132 15.4202 17.1642 15.7886C17.04 16.0958 17.1884 16.4455 17.4956 16.5697C17.8028 16.6939 18.1526 16.5456 18.2768 16.2383ZM19.3003 20.2002C19.6317 20.2002 19.9003 19.9316 19.9003 19.6002C19.9003 19.2688 19.6317 19.0002 19.3003 19.0002C18.9689 19.0002 18.7003 19.2688 18.7003 19.6002C18.7003 19.9316 18.9689 20.2002 19.3003 20.2002Z" fill="black"/>
</svg>
