<svg width="24" height="24" viewBox="0 0 24 24" fill="none" xmlns="http://www.w3.org/2000/svg">
<path d="M7 11.5H7.5M17 11.5H16.5M4 15V17H5V15M4 15H5M4 15C3.44772 15 3 14.5523 3 14V11C3 9.34315 4.34315 8 6 8M5 15H19M20 15V17H19V15M20 15H19M20 15C20.5523 15 21 14.5523 21 14V11C21 9.34315 19.6569 8 18 8M6 8H18M6 8L6.51767 5.41165C6.79812 4.00938 8.02937 3 9.45941 3H14.5406C15.9706 3 17.2019 4.00938 17.4823 5.41165L18 8M6 8L5 7M18 8L19 7M3 19H11M21 19H13M13 19V21H11V19M13 19H11" stroke="black" stroke-width="2" stroke-linecap="round" stroke-linejoin="round"/>
</svg>
