<svg width="24" height="24" viewBox="0 0 24 24" fill="none" xmlns="http://www.w3.org/2000/svg">
<path d="M6 14.5H6.5M18 14.5H17.5M4 18V21H6V18M4 18H6M4 18C3.44772 18 3 17.5523 3 17V14C3 13.1115 3.38625 12.3132 4 11.7639M6 18H9.5M20 18V21H18V18M20 18H18M20 18C20.5523 18 21 17.5523 21 17V14C21 13.1115 20.6137 12.3132 20 11.7639M18 18H14.5M9.5 11H6C5.23165 11 4.53076 11.2889 4 11.7639M9.5 11V18M9.5 11H12M9.5 18H12M14.5 11H18C18.7684 11 19.4692 11.2889 20 11.7639M14.5 11V18M14.5 11H12M14.5 18H12M12 11V18M4 11.7639V8C4 6.89543 4.89543 6 6 6H8M20 11.7639V8C20 6.89543 19.1046 6 18 6H16M8 6V3M8 6H16M8 3H6M8 3H16M16 6V3M16 3H18" stroke="black" stroke-width="2" stroke-linecap="round" stroke-linejoin="round"/>
</svg>
