<svg width="24" height="24" viewBox="0 0 24 24" fill="none" xmlns="http://www.w3.org/2000/svg">
<path d="M16 17H10.5M16 17C16 18.1046 16.8954 19 18 19C19.1046 19 20 18.1046 20 17M16 17C16 15.8954 16.8954 15 18 15C19.1046 15 20 15.8954 20 17M10.5 17C10.5 18.1046 9.60457 19 8.5 19C7.39543 19 6.5 18.1046 6.5 17M10.5 17C10.5 15.8954 9.60457 15 8.5 15C7.39543 15 6.5 15.8954 6.5 17M6.5 17H4.5V12M20 17H22V13C22 11.8954 21.1046 11 20 11H18M18 11L15.1875 6.7812C14.4456 5.6684 13.1967 5 11.8593 5H9M18 11H9.5M2 12V10M2 12V14M2 12H4.5M9 5H6.92013C6.40004 5 5.96678 5.39866 5.92359 5.91695L5.5 11M9 5L9.5 11M9.5 11H5.5M5.5 11V11C4.94772 11 4.5 11.4477 4.5 12V12" stroke="black" stroke-width="2" stroke-linecap="round" stroke-linejoin="round"/>
</svg>
