<svg width="24" height="24" viewBox="0 0 24 24" fill="none" xmlns="http://www.w3.org/2000/svg">
<path fill-rule="evenodd" clip-rule="evenodd" d="M8 4.80877C8.55228 4.80877 9 4.36105 9 3.80877C9 3.41478 8.49109 2.5651 8.19936 2.11039C8.15215 2.0368 8.07607 2 8 2C7.92393 2 7.84785 2.0368 7.80064 2.11039C7.50891 2.5651 7 3.41478 7 3.80877C7 4.36105 7.44772 4.80877 8 4.80877ZM13 3.80877C13 4.36105 12.5523 4.80877 12 4.80877C11.4477 4.80877 11 4.36105 11 3.80877C11 3.41478 11.5089 2.5651 11.8006 2.11039C11.8479 2.0368 11.9239 2 12 2C12.0761 2 12.1521 2.0368 12.1994 2.11039C12.4911 2.5651 13 3.41478 13 3.80877ZM17 3.80877C17 4.36105 16.5523 4.80877 16 4.80877C15.4477 4.80877 15 4.36105 15 3.80877C15 3.41478 15.5089 2.5651 15.8006 2.11039C15.8479 2.0368 15.9239 2 16 2C16.0761 2 16.1521 2.0368 16.1994 2.11039C16.4911 2.5651 17 3.41478 17 3.80877ZM7.49825 9.60777C7.68522 8.67292 8.50605 8 9.45941 8H14.5406C15.494 8 16.3148 8.67292 16.5017 9.60777L16.7802 11H7.2198L7.49825 9.60777ZM22 15C22 13.4716 21.1428 12.1435 19.883 11.47C20.0844 11.0919 20.0258 10.6116 19.7071 10.2929C19.4169 10.0027 18.9927 9.92814 18.6337 10.0692L18.4629 9.21554C18.089 7.34584 16.4473 6 14.5406 6H9.45941C7.55269 6 5.91103 7.34584 5.53709 9.21554L5.36635 10.0692C5.0073 9.92814 4.5831 10.0027 4.29289 10.2929C3.9742 10.6116 3.91558 11.0919 4.11704 11.47C2.85719 12.1435 2 13.4716 2 15V18C2 18.7403 2.4022 19.3866 3 19.7324V21C3 21.5523 3.44772 22 4 22H5C5.55228 22 6 21.5523 6 21V20H18V21C18 21.5523 18.4477 22 19 22H20C20.5523 22 21 21.5523 21 21V19.7324C21.5978 19.3866 22 18.7403 22 18V15ZM4 15C4 13.8954 4.89543 13 6 13H18C19.1046 13 20 13.8954 20 15V18H19H5H4V15ZM7 14.5C6.44772 14.5 6 14.9477 6 15.5C6 16.0523 6.44772 16.5 7 16.5H7.5C8.05228 16.5 8.5 16.0523 8.5 15.5C8.5 14.9477 8.05228 14.5 7.5 14.5H7ZM16.5 14.5C15.9477 14.5 15.5 14.9477 15.5 15.5C15.5 16.0523 15.9477 16.5 16.5 16.5H17C17.5523 16.5 18 16.0523 18 15.5C18 14.9477 17.5523 14.5 17 14.5H16.5Z" fill="black"/>
</svg>
