<svg width="24" height="24" viewBox="0 0 24 24" fill="none" xmlns="http://www.w3.org/2000/svg">
<path fill-rule="evenodd" clip-rule="evenodd" d="M12 5C11.4477 5 11 5.44772 11 6C11 6.55228 11.4477 7 12 7H13.0337L14.2339 9.00039H9.00019H9L7.41429 9.00008L6.70711 8.29289C6.31658 7.90237 5.68342 7.90237 5.29289 8.29289C4.90237 8.68342 4.90237 9.31658 5.29289 9.70711L6.29289 10.7071C6.46198 10.8762 6.68539 10.9785 6.92211 10.997L6.63926 11.3505C6.13869 11.1254 5.58347 11 5 11C2.79086 11 1 12.7909 1 15C1 17.2091 2.79086 19 5 19C6.86372 19 8.42974 17.7254 8.8739 16.0003L13.0001 16C13.5458 16 13.9907 15.5625 13.9999 15.0169C14.0235 13.6156 14.5793 12.2719 15.6695 11.3932L16.1499 12.1939C15.4397 12.9153 15 13.9062 15 15.0004C15 17.2095 16.7909 19.0004 19 19.0004C21.2091 19.0004 23 17.2095 23 15.0004C23 12.7913 21.2091 11.0004 19 11.0004C18.6062 11.0004 18.2249 11.0576 17.8644 11.1641L16.8575 9.48592L16.8575 9.48589L14.7488 5.97107C14.3873 5.36862 13.7363 5 13.0337 5H12ZM9.48063 11.0004H13.3003C12.6443 11.8959 12.245 12.9377 12.083 14.0001L8 14.0004H7.99992H7.08062L7.65521 13.2822L9.48063 11.0004ZM5 16.0004H6.73221C6.38635 16.598 5.74012 17 5 17C3.89543 17 3 16.1046 3 15C3 13.8954 3.89543 13 5 13C5.10265 13 5.20339 13.0077 5.30169 13.0225L4.21913 14.3757C3.979 14.6759 3.93218 15.0871 4.0987 15.4336C4.26522 15.78 4.61559 16.0004 5 16.0004ZM17 15.0004C17 14.6482 17.0909 14.317 17.2511 14.0291L18.1425 15.5149C18.4267 15.9885 19.0409 16.142 19.5145 15.8579C19.9881 15.5737 20.1416 14.9595 19.8575 14.4859L18.9664 13.0007L19 13.0004C20.1046 13.0004 21 13.8958 21 15.0004C21 16.105 20.1046 17.0004 19 17.0004C17.8954 17.0004 17 16.105 17 15.0004ZM18 6C17.1716 6 16.5 6.67157 16.5 7.5C16.5 8.32843 17.1716 9 18 9C18.2761 9 18.5 8.77614 18.5 8.5V6.5C18.5 6.22386 18.2761 6 18 6Z" fill="black"/>
</svg>
