<svg width="24" height="24" viewBox="0 0 24 24" fill="none" xmlns="http://www.w3.org/2000/svg">
<path fill-rule="evenodd" clip-rule="evenodd" d="M12 5C11.4477 5 11 5.44772 11 6C11 6.55228 11.4477 7 12 7H13.0337L13.3566 7.53822L9.15785 9.36845C7.99547 8.50898 6.55628 8 5 8H2C1.44772 8 1 8.44772 1 9C1 9.55228 1.44772 10 2 10H5C6.28115 10 7.44773 10.4807 8.33302 11.2732C9.35758 12.1904 10 13.52 10 15.0008C10 15.2661 10.1054 15.5205 10.293 15.708C10.4807 15.8956 10.7351 16.0009 11.0004 16.0008L13.0004 16C13.5459 15.9998 13.9907 15.5623 13.9999 15.0169C14.0235 13.6156 14.5793 12.2719 15.6695 11.3932L16.1499 12.1939C15.4397 12.9153 15 13.9062 15 15.0004C15 17.2095 16.7909 19.0004 19 19.0004C21.2091 19.0004 23 17.2095 23 15.0004C23 12.7913 21.2091 11.0004 19 11.0004C18.6062 11.0004 18.2249 11.0576 17.8644 11.1641L16.8575 9.48592L16.8575 9.48589L15.6574 7.48553L14.7488 5.97107C14.3873 5.36862 13.7363 5 13.0337 5H12ZM10.6679 10.892L14.3942 9.26768L14.6333 9.66615C13.1604 10.7458 12.3349 12.3483 12.0829 14.0004L11.929 14.0004C11.7643 12.8504 11.32 11.7904 10.6679 10.892ZM17 15.0004C17 14.6482 17.0909 14.317 17.2511 14.0291L18.1425 15.5149C18.4267 15.9885 19.0409 16.142 19.5145 15.8579C19.9881 15.5737 20.1416 14.9595 19.8575 14.4859L18.9664 13.0007L19 13.0004C20.1046 13.0004 21 13.8958 21 15.0004C21 16.105 20.1046 17.0004 19 17.0004C17.8954 17.0004 17 16.105 17 15.0004ZM3 15C3 13.8954 3.89543 13 5 13C5.74024 13 6.38668 13.4024 6.7325 14.0004H5C4.44772 14.0004 4 14.4481 4 15.0004C4 15.5527 4.44772 16.0004 5 16.0004H6.73221C6.38635 16.598 5.74012 17 5 17C3.89543 17 3 16.1046 3 15ZM5 11C2.79086 11 1 12.7909 1 15C1 17.2091 2.79086 19 5 19C7.20897 19 8.99972 17.2094 9 15.0005V15.0004C9 12.7914 7.20931 11 5 11ZM18 6C17.1716 6 16.5 6.67157 16.5 7.5C16.5 8.32843 17.1716 9 18 9C18.2761 9 18.5 8.77614 18.5 8.5V6.5C18.5 6.22386 18.2761 6 18 6Z" fill="black"/>
</svg>
