<svg width="24" height="24" viewBox="0 0 24 24" fill="none" xmlns="http://www.w3.org/2000/svg">
<path fill-rule="evenodd" clip-rule="evenodd" d="M13 3C12.4477 3 12 3.44772 12 4C12 4.55228 12.4477 5 13 5H14.3364C14.8184 5 15.2319 5.34391 15.3196 5.81791L16.3931 11.6143C14.2809 12.3706 12.6944 14.2306 12.3295 16.5H12C11.4606 16.5 11.1447 16.3497 10.93 16.1588C10.6948 15.9498 10.4892 15.609 10.3328 15.0877C10.0089 14.0078 10 12.5467 10 11C10 10.4477 9.55228 10 9 10H7C3.68629 10 1 12.6863 1 16V17.5C1 18.0523 1.44772 18.5 2 18.5H2.14494C2.57521 19.9457 3.91449 21 5.5 21C7.08551 21 8.42479 19.9457 8.85506 18.5H12H13.25C13.8023 18.5 14.25 18.0523 14.25 17.5C14.25 15.4182 15.7478 13.6841 17.7248 13.3203C17.9755 13.2742 18.2345 13.25 18.5 13.25C19.5891 13.25 20.5805 13.6584 21.3331 14.3319C21.7446 14.7003 22.3768 14.6653 22.7451 14.2537C23.1135 13.8422 23.0784 13.21 22.6669 12.8417C21.5618 11.8526 20.1001 11.25 18.5 11.25C18.4532 11.25 18.4065 11.2505 18.3599 11.2515L17.2862 5.45373C17.0229 4.03173 15.7825 3 14.3364 3H13ZM8.41717 15.6623C8.50228 15.946 8.60835 16.2287 8.74208 16.5H8H3V16C3 13.7909 4.79086 12 7 12H8.00343C8.01713 13.2223 8.08483 14.5545 8.41717 15.6623ZM5.5 19C5.05575 19 4.65661 18.8069 4.38195 18.5H6.61805C6.34339 18.8069 5.94425 19 5.5 19ZM6 7C5.44772 7 5 7.44772 5 8C5 8.55228 5.44772 9 6 9H9C9.55228 9 10 8.55228 10 8C10 7.44772 9.55228 7 9 7H6ZM17 17.5C17 16.6716 17.6716 16 18.5 16C19.3284 16 20 16.6716 20 17.5C20 18.3284 19.3284 19 18.5 19C17.6716 19 17 18.3284 17 17.5ZM18.5 14C16.567 14 15 15.567 15 17.5C15 19.433 16.567 21 18.5 21C20.433 21 22 19.433 22 17.5C22 15.567 20.433 14 18.5 14ZM19.5 5.5C18.6716 5.5 18 6.17157 18 7C18 7.82843 18.6716 8.5 19.5 8.5C19.7761 8.5 20 8.27614 20 8V6C20 5.72386 19.7761 5.5 19.5 5.5Z" fill="black"/>
</svg>
