<svg width="24" height="24" viewBox="0 0 24 24" fill="none" xmlns="http://www.w3.org/2000/svg">
<path d="M22 11.9998C22 13.4998 19.5 13.5 18 13.5H15L12.0664 18.9482C11.7175 19.596 11.0412 20 10.3054 20H9L11 13.5002H5.5L4.6 14.7002C4.22229 15.2038 3.62951 15.5002 3 15.5002H2L3 11.9998L2 8.5H3C3.62951 8.5 4.22229 8.79639 4.6 9.3L5.5 10.5H11L9 4H10.3054C11.0412 4 11.7175 4.40398 12.0664 5.05179L15 10.4999L18 10.4998C19.5 10.4998 22 10.4998 22 11.9998Z" stroke="black" stroke-width="2" stroke-linecap="round" stroke-linejoin="round"/>
</svg>
