<svg width="24" height="24" viewBox="0 0 24 24" fill="none" xmlns="http://www.w3.org/2000/svg">
<path d="M11 10.5H5.5L4.3 8.9C4.11115 8.64819 3.81476 8.5 3.5 8.5H2L2.67845 11.8923C2.86542 12.8271 3.68623 13.5 4.63958 13.5L11 13.5002L9 20H10.3054C11.0412 20 11.7175 19.596 12.0664 18.9482L15 13.5H20C21.1046 13.5 22.0852 12.4781 21.3424 11.6605C20.4974 10.7303 19.0183 10.4998 18 10.4998L15 10.4999M11 10.5L9 4H10.3054C11.0412 4 11.7175 4.40398 12.0664 5.05179L15 10.4999M11 10.5L15 10.4999" stroke="black" stroke-width="2" stroke-linecap="round" stroke-linejoin="round"/>
</svg>
