<svg width="24" height="24" viewBox="0 0 24 24" fill="none" xmlns="http://www.w3.org/2000/svg">
<path d="M7 14.5H7.5M17 14.5H16.5M4 18V20H5V18M4 18H5M4 18C3.44772 18 3 17.5523 3 17V14C3 12.3431 4.34315 11 6 11M5 18H19M20 18V20H19V18M20 18H19M20 18C20.5523 18 21 17.5523 21 17V14C21 12.3431 19.6569 11 18 11M6 11H18M6 11L6.51767 8.41165C6.79812 7.00938 8.02937 6 9.45941 6M6 11L5 10M18 11L17.4823 8.41165C17.2019 7.00938 15.9706 6 14.5406 6H14.5M18 11L19 10M9.45941 6L10 4H14L14.5 6M9.45941 6H14.5" stroke="black" stroke-width="2" stroke-linecap="round" stroke-linejoin="round"/>
</svg>
