<svg width="24" height="24" viewBox="0 0 24 24" fill="none" xmlns="http://www.w3.org/2000/svg">
<path d="M2 19L22.0001 18.9999M20.6133 8C19.2912 6.18193 17.1474 5 14.7274 5H4C2.89543 5 2 5.89543 2 7V12.9999C2 14.1045 2.89543 14.9999 4 14.9999L5 14.9999M20.6133 8H15.8685C15.0698 8 14.5934 8.89015 15.0365 9.5547L15.1094 9.6641C15.6658 10.4987 16.6025 11 17.6056 11H21.8891M20.6133 8C21.2484 8.87337 21.6938 9.89353 21.8891 11M21.8891 11C21.962 11.4132 22.0001 11.8385 22.0001 12.2726C22.0001 13.7789 20.779 14.9999 19.2728 14.9999L18 15M5 14.9999V15.25C5 15.9404 5.55965 16.5 6.25001 16.5C6.94036 16.5 7.5 15.9403 7.5 15.25V14.9999M5 14.9999L7.5 14.9999M7.5 14.9999H9.75M18 15L15 15M18 15C18 15.8284 17.3284 16.5 16.5 16.5C15.6716 16.5 15 15.8284 15 15M15 15L12.75 14.9998M12.75 14.9998L9.75 14.9999M12.75 14.9998C12.75 15.8282 12.0784 16.4999 11.25 16.4999C10.4216 16.4999 9.75 15.8283 9.75 14.9999M12 8H5V11H12V8Z" stroke="black" stroke-width="2" stroke-linecap="round" stroke-linejoin="round"/>
</svg>
