<svg width="24" height="24" viewBox="0 0 24 24" fill="none" xmlns="http://www.w3.org/2000/svg">
<path d="M5 15V19C5 20.1046 5.89543 21 7 21M5 15H12M5 15V10M19 15V19C19 20.1046 18.1046 21 17 21M19 15H12M19 15V10M12 15V10M5 10H12M5 10C5 7 9 7 12 7C15 7 19 7 19 10M12 10H19M7.5 18H8M16.5 18H16M7 21V22M7 21H10M17 21V22M17 21H14M10 21V20C10 19.4477 10.4477 19 11 19H13C13.5523 19 14 19.4477 14 20V21M10 21H14M12 4L8.63344 2.31672C8.21687 2.10844 7.75753 2 7.2918 2H4M12 4L15.3666 2.31672C15.7831 2.10844 16.2425 2 16.7082 2H20M12 4V5" stroke="black" stroke-width="2" stroke-linecap="round" stroke-linejoin="round"/>
</svg>
