<svg width="24" height="24" viewBox="0 0 24 24" fill="none" xmlns="http://www.w3.org/2000/svg">
<path fill-rule="evenodd" clip-rule="evenodd" d="M11 3C9.89543 3 9 3.89543 9 5V8H4C2.89543 8 2 8.89543 2 10V11.7546C1.74905 11.9558 1.51054 12.1717 1.28576 12.4011C0.899215 12.7955 0.905636 13.4287 1.3001 13.8152C1.69456 14.2018 2.3277 14.1953 2.71424 13.8009C2.97665 13.5331 3.26388 13.2898 3.5721 13.0748C4.54356 12.3972 5.72389 12 7 12C8.67908 12 10.1956 12.6884 11.2858 13.8009C11.4738 13.9928 11.7313 14.101 12 14.101C12.2687 14.101 12.5262 13.9928 12.7142 13.8009C13.8044 12.6884 15.3209 12 17 12C18.2761 12 19.4564 12.3972 20.4279 13.0748C20.7361 13.2898 21.0233 13.5331 21.2858 13.8009C21.6723 14.1953 22.3054 14.2018 22.6999 13.8152C23.0944 13.4287 23.1008 12.7955 22.7142 12.4011C22.4895 12.1717 22.2509 11.9558 22 11.7546V10C22 8.89543 21.1046 8 20 8H17.677L16.6828 5.51444C16.0754 3.9958 14.6045 3 12.9689 3H11ZM15.523 8H11V5H12.9689C13.7867 5 14.5221 5.4979 14.8259 6.25722L15.523 8ZM6.97506 10C5.92401 10.0032 4.91963 10.2095 4 10.5818V10H6.97506ZM12 11.7547C10.6369 10.6622 8.90686 10.0058 7.02495 10H10H16.975C15.0931 10.0058 13.3631 10.6622 12 11.7547ZM20 10.5818C19.0804 10.2095 18.076 10.0032 17.0249 10H20V10.5818ZM5.07979 13.3232C4.7987 13.4396 4.66522 13.7619 4.78165 14.043C4.78703 14.056 4.78293 14.071 4.77174 14.0795C4.50811 14.2804 4.27649 14.5138 4.0803 14.7713C4.07166 14.7826 4.05648 14.7868 4.04331 14.7814C3.76222 14.6649 3.43996 14.7984 3.32353 15.0795L3.04244 15.7581C2.92601 16.0393 3.05949 16.3615 3.34058 16.478C3.35377 16.4834 3.36157 16.4971 3.35966 16.5113C3.31631 16.8319 3.31508 17.1605 3.35937 17.4888C3.36128 17.503 3.35345 17.5167 3.34022 17.5222C3.05913 17.6387 2.92565 17.9609 3.04208 18.242L3.32317 18.9207C3.4396 19.2018 3.76186 19.3353 4.04295 19.2188C4.05618 19.2133 4.07144 19.2175 4.08012 19.2289C4.28087 19.4923 4.514 19.7237 4.77129 19.9198C4.78271 19.9285 4.7869 19.9437 4.7814 19.957C4.66497 20.2381 4.79845 20.5604 5.07954 20.6768L5.75816 20.9579C6.03925 21.0744 6.3615 20.9409 6.47793 20.6598C6.4834 20.6466 6.49711 20.6388 6.51126 20.6407C6.83213 20.6841 7.16096 20.6853 7.48948 20.6409C7.50341 20.6391 7.5169 20.6467 7.52228 20.6597C7.63871 20.9408 7.96097 21.0743 8.24206 20.9579L8.92068 20.6768C9.20176 20.5603 9.33525 20.2381 9.21882 19.957C9.21344 19.944 9.21754 19.929 9.22872 19.9205C9.49234 19.7196 9.72394 19.4863 9.92011 19.2287C9.92874 19.2174 9.9439 19.2133 9.95705 19.2187C10.2381 19.3351 10.5604 19.2016 10.6768 18.9205L10.9579 18.2419C11.0744 17.9608 10.9409 17.6385 10.6598 17.5221C10.6466 17.5167 10.6389 17.503 10.6408 17.4889C10.6842 17.1679 10.6854 16.8389 10.641 16.5103C10.6391 16.4966 10.6467 16.4834 10.6594 16.4781C10.9405 16.3616 11.074 16.0394 10.9576 15.7583L10.6765 15.0796C10.56 14.7985 10.2378 14.665 9.95669 14.7815C9.94394 14.7868 9.92925 14.7827 9.92089 14.7718C9.71985 14.5079 9.4863 14.276 9.22853 14.0797C9.21728 14.0711 9.21315 14.0561 9.21856 14.043C9.335 13.7619 9.20152 13.4396 8.92042 13.3232L8.24181 13.0421C7.96072 12.9257 7.63847 13.0592 7.52203 13.3403C7.5166 13.3534 7.50297 13.3612 7.48889 13.3593C7.16812 13.3159 6.8394 13.3147 6.51099 13.359C6.49706 13.3609 6.48356 13.3532 6.47818 13.3402C6.36175 13.0591 6.03949 12.9256 5.75841 13.0421L5.07979 13.3232ZM8.5 17C8.5 17.8284 7.82843 18.5 7 18.5C6.17157 18.5 5.5 17.8284 5.5 17C5.5 16.1716 6.17157 15.5 7 15.5C7.82843 15.5 8.5 16.1716 8.5 17ZM15.0798 13.3232C14.7987 13.4396 14.6652 13.7619 14.7817 14.043C14.787 14.056 14.7829 14.071 14.7717 14.0795C14.5081 14.2804 14.2765 14.5138 14.0803 14.7713C14.0717 14.7826 14.0565 14.7868 14.0433 14.7814C13.7622 14.6649 13.44 14.7984 13.3235 15.0795L13.0424 15.7581C12.926 16.0393 13.0595 16.3615 13.3406 16.478C13.3538 16.4834 13.3616 16.4971 13.3597 16.5113C13.3163 16.8319 13.3151 17.1605 13.3594 17.4888C13.3613 17.503 13.3535 17.5167 13.3402 17.5222C13.0591 17.6387 12.9256 17.9609 13.0421 18.242L13.3232 18.9207C13.4396 19.2018 13.7619 19.3353 14.0429 19.2188C14.0562 19.2133 14.0714 19.2175 14.0801 19.2289C14.2809 19.4923 14.514 19.7237 14.7713 19.9198C14.7827 19.9285 14.7869 19.9437 14.7814 19.957C14.665 20.2381 14.7985 20.5604 15.0795 20.6768L15.7582 20.9579C16.0392 21.0744 16.3615 20.9409 16.4779 20.6598C16.4834 20.6466 16.4971 20.6388 16.5113 20.6407C16.8321 20.6841 17.161 20.6853 17.4895 20.6409C17.5034 20.6391 17.5169 20.6467 17.5223 20.6597C17.6387 20.9408 17.961 21.0743 18.2421 20.9579L18.9207 20.6768C19.2018 20.5603 19.3352 20.2381 19.2188 19.957C19.2134 19.944 19.2175 19.929 19.2287 19.9205C19.4923 19.7196 19.7239 19.4863 19.9201 19.2287C19.9287 19.2174 19.9439 19.2133 19.9571 19.2187C20.2381 19.3351 20.5604 19.2016 20.6768 18.9205L20.9579 18.2419C21.0744 17.9608 20.9409 17.6385 20.6598 17.5221C20.6466 17.5167 20.6389 17.503 20.6408 17.4889C20.6842 17.1679 20.6854 16.8389 20.641 16.5103C20.6391 16.4966 20.6467 16.4834 20.6594 16.4781C20.9405 16.3616 21.074 16.0394 20.9576 15.7583L20.6765 15.0796C20.56 14.7985 20.2378 14.665 19.9567 14.7815C19.9439 14.7868 19.9292 14.7827 19.9209 14.7718C19.7198 14.5079 19.4863 14.276 19.2285 14.0797C19.2173 14.0711 19.2132 14.0561 19.2186 14.043C19.335 13.7619 19.2015 13.4396 18.9204 13.3232L18.2418 13.0421C17.9607 12.9257 17.6385 13.0592 17.522 13.3403C17.5166 13.3534 17.503 13.3612 17.4889 13.3593C17.1681 13.3159 16.8394 13.3147 16.511 13.359C16.4971 13.3609 16.4836 13.3532 16.4782 13.3402C16.3618 13.0591 16.0395 12.9256 15.7584 13.0421L15.0798 13.3232ZM18.5 17C18.5 17.8284 17.8284 18.5 17 18.5C16.1716 18.5 15.5 17.8284 15.5 17C15.5 16.1716 16.1716 15.5 17 15.5C17.8284 15.5 18.5 16.1716 18.5 17Z" fill="black"/>
</svg>
