<svg width="24" height="24" viewBox="0 0 24 24" fill="none" xmlns="http://www.w3.org/2000/svg">
<path d="M6 11.8997C3.57111 12.7207 2 14.0278 2 15.5C2 17.9853 6.47715 20 12 20C17.5228 20 22 17.9853 22 15.5C22 14.0278 20.4289 12.7207 18 11.8997M6 11.8997V10.05C6 6.70868 8.68629 4 12 4C15.3137 4 18 6.70868 18 10.05V11.8997M6 11.8997V13.3087C6 13.6734 6.19621 14.0145 6.53183 14.1572C8.0046 14.7832 10.0023 15 12 15C13.9977 15 15.9954 14.7832 17.4682 14.1572C17.8038 14.0145 18 13.6734 18 13.3087V11.8997M12 7C13.6569 7 15 8.34315 15 10" stroke="black" stroke-width="2" stroke-linecap="round" stroke-linejoin="round"/>
</svg>
