<svg width="24" height="24" viewBox="0 0 24 24" fill="none" xmlns="http://www.w3.org/2000/svg">
<path d="M15.5 17H8.5M15.5 17C15.5 18.1046 16.3954 19 17.5 19C18.6046 19 19.5 18.1046 19.5 17M15.5 17C15.5 15.8954 16.3954 15 17.5 15C18.6046 15 19.5 15.8954 19.5 17M8.5 17C8.5 18.1046 7.60457 19 6.5 19C5.39543 19 4.5 18.1046 4.5 17M8.5 17C8.5 15.8954 7.60457 15 6.5 15C5.39543 15 4.5 15.8954 4.5 17M4.5 17H2V11.331C2 11.2205 2.00458 11.1101 2.01372 11M19.5 17H22V12.4482C22 11.9491 21.9067 11.4584 21.7286 11M2.01372 11C2.0228 10.8907 2.03638 10.7817 2.05442 10.6735L2.72147 6.6712C2.8822 5.70683 3.71658 5 4.69425 5H8M2.01372 11H8M21.7286 11C21.5729 10.5991 21.3524 10.2229 21.0729 9.88746L17.5997 5.71963C17.2197 5.26365 16.6568 5 16.0632 5H14M21.7286 11H14M14 5V11M14 5H8M14 11H8M8 5V11" stroke="black" stroke-width="2" stroke-linecap="round" stroke-linejoin="round"/>
</svg>
