<svg width="24" height="24" viewBox="0 0 24 24" fill="none" xmlns="http://www.w3.org/2000/svg">
<path d="M15.5 17H8.5M15.5 17C15.5 18.1046 16.3954 19 17.5 19C18.6046 19 19.5 18.1046 19.5 17M15.5 17C15.5 15.8954 16.3954 15 17.5 15C18.6046 15 19.5 15.8954 19.5 17M8.5 17C8.5 18.1046 7.60457 19 6.5 19C5.39543 19 4.5 18.1046 4.5 17M8.5 17C8.5 15.8954 7.60457 15 6.5 15C5.39543 15 4.5 15.8954 4.5 17M4.5 17H3C2.44772 17 2 16.5523 2 16V6C2 5.44772 2.44771 5 3 5H13M19.5 17H21C21.5523 17 22 16.5523 22 16V13.0623C22 12.7018 21.9513 12.3446 21.8564 12M13 5H16.8394C17.5571 5 18.2198 5.38457 18.5758 6.00772L21.473 11.0777C21.6395 11.3691 21.768 11.6791 21.8564 12M13 5V12H21.8564M7.5 7.75L6 10H8.625L7.125 12.25" stroke="black" stroke-width="2" stroke-linecap="round" stroke-linejoin="round"/>
</svg>
