<svg width="24" height="24" viewBox="0 0 24 24" fill="none" xmlns="http://www.w3.org/2000/svg">
<path d="M13.9649 21.7309C15.1305 21.4347 16 21 16 21C16.324 18.7319 17.068 16.6737 18.0959 15.0977M13.9649 21.7309C13.7983 21.6377 13.6416 21.5203 13.5 21.3787C12.6716 20.5503 11.3284 20.5503 10.5 21.3787C10.3584 21.5203 10.2017 21.6377 10.0351 21.7309M13.9649 21.7309C14.2855 21.9103 14.6427 22 15 22C15.5429 22 16.0858 21.7929 16.5 21.3787C17.3284 20.5503 18.6716 20.5503 19.5 21.3787C19.6515 21.5302 19.8203 21.654 20 21.7501M5.90415 15.0977C7.29851 14.5673 9.39818 14 12 14M5.90415 15.0977C5.3459 14.2417 4.70392 13.5279 4 13C4 13 4.71607 12.5402 6 12.0616M5.90415 15.0977C6.932 16.6737 7.67598 18.7319 8 21C8 21 8.87036 21.435 10.0351 21.7309M12 14C14.6018 14 16.7015 14.5673 18.0959 15.0977M12 14V11M12 14V19M18.0959 15.0977C18.6541 14.2417 19.2961 13.5279 20 13C20 13 19.2839 12.5402 18 12.0616M6 12.0616C7.39391 11.5419 9.45713 11 12 11M6 12.0616L7.5 8M12 11C14.5429 11 16.6061 11.5419 18 12.0616M18 12.0616L16.4248 8M12 8V5M12 8H7.5M12 8H16.4248M12 5H10M12 5H14M7.5 8L8.60795 5H10M16.4248 8L15.2614 5H14M10 5V2H14V5M10.0351 21.7309C9.71453 21.9103 9.35727 22 9 22C8.45711 22 7.91421 21.7929 7.5 21.3787C6.67157 20.5503 5.32843 20.5503 4.5 21.3787C4.34846 21.5302 4.17969 21.654 4 21.7501" stroke="black" stroke-width="2" stroke-linecap="round" stroke-linejoin="round"/>
</svg>
