<svg width="24" height="24" viewBox="0 0 24 24" fill="none" xmlns="http://www.w3.org/2000/svg">
<path d="M5 14H6.5M8 14H6.5M6.5 14V12.5M6.5 14V15.5M17 14H19M4 19H20C21.1046 19 22 18.1046 22 17V11C22 9.89543 21.1046 9 20 9H18.4415C17.5807 9 16.8164 8.44914 16.5442 7.63246L16.4558 7.36754C16.1836 6.55086 15.4193 6 14.5585 6H9.44152C8.58066 6 7.81638 6.55086 7.54415 7.36754L7.45585 7.63246C7.18362 8.44914 6.41934 9 5.55848 9H4C2.89543 9 2 9.89543 2 11V17C2 18.1046 2.89543 19 4 19ZM19.5 5H20.5C20.7761 5 21 5.22386 21 5.5C21 5.77614 20.7761 6 20.5 6H19.5C19.2239 6 19 5.77614 19 5.5C19 5.22386 19.2239 5 19.5 5ZM3.5 5H4.5C4.77614 5 5 5.22386 5 5.5C5 5.77614 4.77614 6 4.5 6H3.5C3.22386 6 3 5.77614 3 5.5C3 5.22386 3.22386 5 3.5 5Z" stroke="black" stroke-width="2" stroke-linecap="round" stroke-linejoin="round"/>
</svg>
