<svg width="24" height="24" viewBox="0 0 24 24" fill="none" xmlns="http://www.w3.org/2000/svg">
<path d="M6 18H5C4.44772 18 4 18.4477 4 19V21C4 21.5523 4.44772 22 5 22H19C19.5523 22 20 21.5523 20 21V19C20 18.4477 19.5523 18 19 18H18M6 18L12 15.2308M6 18H18M12 15.2308L18.0164 12.454C18.4037 12.2752 18.4037 11.7248 18.0164 11.546L12 8.76923M12 15.2308L18 18M12 15.2308L5.98362 12.454C5.59633 12.2752 5.59633 11.7248 5.98362 11.546L12 8.76923M6 6H5C4.44772 6 4 5.55228 4 5V3C4 2.44772 4.44772 2 5 2H19C19.5523 2 20 2.44772 20 3V5C20 5.55228 19.5523 6 19 6H18M6 6L12 8.76923M6 6H18M12 8.76923L18 6" stroke="black" stroke-width="2" stroke-linejoin="round"/>
</svg>
