<svg width="24" height="24" viewBox="0 0 24 24" fill="none" xmlns="http://www.w3.org/2000/svg">
<path d="M7.5579 6.64445L4.75215 8.11207C4.13954 8.43251 3.61686 8.87911 3.22548 9.4165L3.14499 9.52702C2.76605 10.0473 2.47839 10.6115 2.28618 11.1995M7.5579 6.64445C10.2848 5.21808 13.4661 4.6972 16.564 5.16984L22 5.99917V6.90752C22 8.17526 21.8734 9.43776 21.6233 10.6795M7.5579 6.64445L7.22918 11.1952M2.28618 11.1995C1.96056 12.1957 1.90887 13.2603 2.15136 14.2961L3.06005 18.1779C3.17231 18.6574 3.63527 19 4.17104 19H13.867C16.7088 19 19.2524 17.3864 20.2502 14.9507L20.5532 14.2113C21.0236 13.0628 21.3813 11.8809 21.6233 10.6795M2.28618 11.1995C3.98152 11.1995 5.63705 11.1995 7.22918 11.1952M21.6233 10.6795C18.754 11.094 13.4802 11.1781 7.22918 11.1952M15.1827 14.3197H16.3189" stroke="black" stroke-width="2" stroke-linecap="round" stroke-linejoin="round"/>
</svg>
