<svg width="24" height="24" viewBox="0 0 24 24" fill="none" xmlns="http://www.w3.org/2000/svg">
<path d="M20.7162 11C20.9023 11.4672 21 11.9689 21 12.4797V15.416C20.3875 15.1484 19.7111 15 19 15C16.2386 15 14 17.2386 14 20H5C3.89543 20 3 19.1046 3 18V11M20.7162 11C20.5545 10.5938 20.326 10.2137 20.037 9.87653L16.1973 5.39683C15.4374 4.51025 14.328 4 13.1603 4H5C3.89543 4 3 4.89543 3 6V11M20.7162 11H3M7 14H8" stroke="black" stroke-width="2" stroke-linecap="round" stroke-linejoin="round"/>
</svg>
