<svg width="24" height="24" viewBox="0 0 24 24" fill="none" xmlns="http://www.w3.org/2000/svg">
<path d="M22 10V17M2 12V16M14 4H17M14 4H11M14 4V6M12.5 12L11 14.25H13.625L12.125 16.5M19 11V16.9296C19 17.5983 18.6658 18.2228 18.1094 18.5937L16.7558 19.4962C16.263 19.8247 15.6839 20 15.0917 20H10.9083C10.3161 20 9.73703 19.8247 9.24423 19.4962L7.50385 18.3359C7.17531 18.1169 6.7893 18 6.39445 18H6C5.44772 18 5 17.5523 5 17V12C5 11.4477 5.44772 11 6 11H6.39445C6.7893 11 7.17531 10.8831 7.50385 10.6641L9.24423 9.50385C9.73703 9.17531 10.3161 9 10.9083 9H17C18.1046 9 19 9.89543 19 11Z" stroke="black" stroke-width="2" stroke-linecap="round" stroke-linejoin="round"/>
</svg>
