<svg width="24" height="24" viewBox="0 0 24 24" fill="none" xmlns="http://www.w3.org/2000/svg">
<path d="M18.8901 4.19054L20.0896 6.22207C20.7521 7.34406 20.3446 8.78663 19.1793 9.44415L12.8497 13.0158C11.6845 13.6733 10.2028 13.2968 9.54034 12.1748L8.94057 11.159M18.8901 4.19054C18.2276 3.06855 16.746 2.69203 15.5807 3.34954L9.25112 6.92116C8.08588 7.57868 7.67831 9.02125 8.3408 10.1432L8.94057 11.159M18.8901 4.19054L21 3M8.94057 11.159L7.44547 12.0026C6.08518 12.7702 5.60235 14.4937 6.36588 15.8563C7.12942 17.2189 6.64659 18.9423 5.28629 19.7099L3 21" stroke="black" stroke-width="2" stroke-linecap="round" stroke-linejoin="round"/>
</svg>
