<svg width="24" height="24" viewBox="0 0 24 24" fill="none" xmlns="http://www.w3.org/2000/svg">
<path d="M11.2832 14.2001C11.509 14.2737 11.7501 14.3134 12.0005 14.3134C12.2074 14.3134 12.408 14.2863 12.5989 14.2353M11.2832 14.2001C10.5434 13.9591 9.96735 13.3552 9.76524 12.5986M11.2832 14.2001L9.44096 18.8058C8.65202 20.7781 6.24809 21.5248 4.48057 20.3464L4.29384 20.2219C3.44767 19.6578 2.76336 18.8826 2.30855 17.973C1.74611 16.8481 1.96657 15.4895 2.85588 14.6002L2.92801 14.5281C3.47499 13.9811 4.28407 13.7901 5.01793 14.0348L5.3332 14.1398C5.93414 14.3402 6.59092 14.2853 7.1503 13.9881L9.76524 12.5986M9.76524 12.5986C9.71423 12.4077 9.68704 12.207 9.68704 12C9.68704 11.7499 9.72674 11.509 9.80019 11.2833M14.2007 12.717C14.2742 12.4913 14.3139 12.2503 14.3139 12C14.3139 11.7928 14.2867 11.592 14.2356 11.4009M14.2007 12.717C13.9597 13.457 13.3557 14.0332 12.5989 14.2353M14.2007 12.717L18.8058 14.559C20.7781 15.348 21.5248 17.7519 20.3464 19.5194L20.2219 19.7062C19.6578 20.5523 18.8826 21.2366 17.973 21.6914C16.8481 22.2539 15.4895 22.0334 14.6002 21.1441L14.5281 21.072C13.9811 20.525 13.7901 19.7159 14.0348 18.9821L14.1398 18.6668C14.3402 18.0659 14.2853 17.4091 13.9881 16.8497L12.5989 14.2353M11.4012 9.76493C11.5923 9.71381 11.7932 9.68655 12.0005 9.68655C12.2505 9.68655 12.4913 9.72622 12.7169 9.79961M11.4012 9.76493C10.6447 9.96725 10.041 10.5434 9.80019 11.2833M11.4012 9.76493L10.0119 7.1503C9.7147 6.59092 9.65985 5.93414 9.86016 5.3332L9.96525 5.01793C10.2099 4.28407 10.0189 3.47499 9.47188 2.92801L9.39976 2.85588C8.51045 1.96657 7.15186 1.74611 6.02696 2.30855C5.11735 2.76336 4.34218 3.44767 3.77806 4.29384L3.65357 4.48057C2.47523 6.24809 3.22187 8.65202 5.19422 9.44096L9.80019 11.2833M12.7169 9.79961C12.8714 9.8499 13.0189 9.91602 13.1572 9.99605C13.6814 10.2993 14.0756 10.8023 14.2356 11.4009M12.7169 9.79961L14.559 5.19422C15.348 3.22187 17.7519 2.47523 19.5194 3.65357L19.7062 3.77806C20.5523 4.34218 21.2366 5.11735 21.6914 6.02696C22.2539 7.15186 22.0334 8.51045 21.1441 9.39976L21.072 9.47188C20.525 10.0189 19.7159 10.2099 18.9821 9.96525L18.6668 9.86016C18.0659 9.65985 17.4091 9.7147 16.8497 10.0119L14.2356 11.4009" stroke="black" stroke-width="2" stroke-linecap="round" stroke-linejoin="round"/>
</svg>
