<svg width="24" height="24" viewBox="0 0 24 24" fill="none" xmlns="http://www.w3.org/2000/svg">
<path d="M7 20V19C7 18.4477 6.55228 18 6 18H5C4.44772 18 4 18.4477 4 19V21C4 21.5523 4.44772 22 5 22H6C6.55228 22 7 21.5523 7 21V20ZM7 20H12M17 20V21C17 21.5523 17.4477 22 18 22H19C19.5523 22 20 21.5523 20 21V19C20 18.4477 19.5523 18 19 18H18C17.4477 18 17 18.4477 17 19V20ZM17 20H12M12 20V5M17 4V5C17 5.55228 17.4477 6 18 6H19C19.5523 6 20 5.55228 20 5V3C20 2.44772 19.5523 2 19 2H18C17.4477 2 17 2.44772 17 3V4ZM17 4H13M7 4V3C7 2.44772 6.55228 2 6 2H5C4.44772 2 4 2.44772 4 3V5C4 5.55228 4.44772 6 5 6H6C6.55228 6 7 5.55228 7 5V4ZM7 4H11M11 4C11 3.44772 11.4477 3 12 3C12.5523 3 13 3.44772 13 4M11 4C11 4.55228 11.4477 5 12 5M13 4C13 4.55228 12.5523 5 12 5" stroke="black" stroke-width="2" stroke-linecap="round" stroke-linejoin="round"/>
</svg>
