<svg width="24" height="24" viewBox="0 0 24 24" fill="none" xmlns="http://www.w3.org/2000/svg">
<path d="M7 19V20.5M7 20.5V22M7 20.5H12M17 22V20.5M17 20.5V19M17 20.5H12M12 20.5V14.5M17 5V3.5M17 3.5V2M17 3.5H13M7 2V3.5M7 3.5V5M7 3.5H11M11 3.5C11 2.94772 11.4477 2.5 12 2.5C12.5523 2.5 13 2.94772 13 3.5M11 3.5C11 4.05228 11.4477 4.5 12 4.5M13 3.5C13 4.05228 12.5523 4.5 12 4.5M12 4.5V14.5M7 13V14.5M7 14.5V16M7 14.5H12M17 16V14.5M17 14.5V13M17 14.5H12" stroke="black" stroke-width="2" stroke-linecap="round" stroke-linejoin="round"/>
</svg>
