<svg width="24" height="24" viewBox="0 0 24 24" fill="none" xmlns="http://www.w3.org/2000/svg">
<path d="M3 3H5M5 3V8.08752C5 8.85874 5.36644 9.59315 6.00691 10.1055L8.82873 12.363C9.2557 12.7046 9.5 13.1942 9.5 13.7083V21L12.5 19.2V13.7083C12.5 13.1942 12.7443 12.7046 13.1713 12.363L15.9931 10.1055C16.6336 9.59315 17 8.85874 17 8.08752V6.6M5 3H17M17 3H19M17 3V6.6M17 6.6H19C20.1046 6.6 21 7.49543 21 8.6V10.2" stroke="black" stroke-width="2" stroke-linecap="round" stroke-linejoin="round"/>
</svg>
