<svg width="24" height="24" viewBox="0 0 24 24" fill="none" xmlns="http://www.w3.org/2000/svg">
<path fill-rule="evenodd" clip-rule="evenodd" d="M9.20711 3.70711C9.59763 3.31658 9.59763 2.68342 9.20711 2.29289C8.81658 1.90237 8.18342 1.90237 7.79289 2.29289L7.29289 2.79289L6.91789 3.16789L6.54289 3.54289L5.79289 4.29289L5.04289 5.04289L4.66789 5.41789L4.29289 5.79289L3.79289 6.29289C3.40237 6.68342 3.40237 7.31658 3.79289 7.70711C4.18342 8.09763 4.81658 8.09763 5.20711 7.70711L5.375 7.53921L6 8.16421V9.5H5C3.34315 9.5 2 10.8431 2 12.5V19C2 20.6569 3.34315 22 5 22H19C20.6569 22 22 20.6569 22 19V15.7426C22 14.6818 21.5786 13.6644 20.8284 12.9142L18.5858 10.6716C17.8356 9.92143 16.8182 9.5 15.7574 9.5H11.25V6.5C11.25 6.23478 11.1446 5.98043 10.9571 5.79289L9.03921 3.875L9.20711 3.70711ZM7.70711 7.04289L6.78921 6.125L7.20711 5.70711L7.625 5.28921L9.25 6.91421V9.5H8V7.75C8 7.48478 7.89464 7.23043 7.70711 7.04289ZM7 11.5H10.25H15.7574C16.2878 11.5 16.7965 11.7107 17.1716 12.0858L19.4142 14.3284C19.7893 14.7035 20 15.2122 20 15.7426V19C20 19.5523 19.5523 20 19 20H5C4.44772 20 4 19.5523 4 19V12.5C4 11.9477 4.44772 11.5 5 11.5H7ZM16.2071 13.2929C15.8166 12.9024 15.1834 12.9024 14.7929 13.2929C14.4024 13.6834 14.4024 14.3166 14.7929 14.7071L16.7929 16.7071C17.1834 17.0976 17.8166 17.0976 18.2071 16.7071C18.5976 16.3166 18.5976 15.6834 18.2071 15.2929L16.2071 13.2929ZM8.5 19C9.32843 19 10 18.3285 10 17.5C10 16.3355 9.09583 14.8695 8.69147 14.2721C8.59804 14.1341 8.40196 14.1341 8.30853 14.2721C7.90417 14.8695 7 16.3355 7 17.5C7 18.3285 7.67157 19 8.5 19Z" fill="black"/>
</svg>
