<svg width="24" height="24" viewBox="0 0 24 24" fill="none" xmlns="http://www.w3.org/2000/svg">
<path fill-rule="evenodd" clip-rule="evenodd" d="M7.20711 3.70711C7.59763 3.31658 7.59763 2.68342 7.20711 2.29289C6.81658 1.90237 6.18342 1.90237 5.79289 2.29289L2.29289 5.79289C1.90237 6.18342 1.90237 6.81658 2.29289 7.20711C2.68342 7.59763 3.31658 7.59763 3.70711 7.20711L7.20711 3.70711ZM13.6569 2C12.3308 2 11.059 2.52678 10.1213 3.46447L6.29289 7.29289L3.46446 10.1213C2.52678 11.059 2 12.3308 2 13.6569V18C2 20.2091 3.79086 22 6 22H18C20.2091 22 22 20.2091 22 18V6C22 3.79086 20.2091 2 18 2H13.6569ZM11.5355 4.87868C12.0981 4.31607 12.8612 4 13.6569 4H15.5858L13.4645 6.12132C12.9019 6.68393 12.1388 7 11.3431 7H9.41421L11.5355 4.87868ZM14.8787 7.53554L18.3785 4.03576C19.3021 4.21265 20 5.02482 20 6V18C20 19.1046 19.1046 20 18 20H6C4.89543 20 4 19.1046 4 18V13.6569C4 12.8612 4.31607 12.0981 4.87868 11.5355L7.41421 9H11.3431C12.6692 9 13.941 8.47322 14.8787 7.53554ZM12 18C12.8284 18 13.5 17.3285 13.5 16.5C13.5 15.3355 12.5958 13.8695 12.1915 13.2721C12.098 13.1341 11.902 13.1341 11.8085 13.2721C11.4042 13.8695 10.5 15.3355 10.5 16.5C10.5 17.3285 11.1716 18 12 18Z" fill="black"/>
</svg>
