<svg width="24" height="24" viewBox="0 0 24 24" fill="none" xmlns="http://www.w3.org/2000/svg">
<path d="M4 3.75L5.5 2M12 14L13.5 12.5M12 14L10.5 15.5M12 14L13.5 15.5M12 14L10.5 12.5M20 6V20C20 21.1046 19.1046 22 18 22H6C4.89543 22 4 21.1046 4 20V9.30169C4 8.5644 4.27151 7.85292 4.76269 7.30307L5.92675 6M20 6V4C20 2.89543 19.1046 2 18 2H10.8428C9.98842 2 9.17461 2.36425 8.60545 3.00138L5.92675 6M20 6H5.92675M17 18V10C17 9.44772 16.5523 9 16 9H8C7.44772 9 7 9.44772 7 10V18C7 18.5523 7.44772 19 8 19H16C16.5523 19 17 18.5523 17 18Z" stroke="black" stroke-width="2" stroke-linecap="round" stroke-linejoin="round"/>
</svg>
