<svg width="24" height="24" viewBox="0 0 24 24" fill="none" xmlns="http://www.w3.org/2000/svg">
<path d="M9 10.375C7.55025 10.375 6.375 11.5503 6.375 13C6.375 14.4497 7.55025 15.625 9 15.625C10.4497 15.625 11.625 14.4497 11.625 13C11.625 11.5503 10.4497 10.375 9 10.375ZM9 10.375H15.4912M19 6H9C5.13401 6 2 9.13401 2 13C2 16.866 5.13401 20 9 20C12.866 20 16 16.866 16 13C16 12.0717 15.8193 11.1856 15.4912 10.375M19 6V10.375M19 6C19 4.89543 19.8954 4 21 4C21.5523 4 22 4.44772 22 5V12C22 12.5523 21.5523 13 21 13C19.8954 13 19 12.1046 19 11V10.375M19 10.375H15.4912" stroke="black" stroke-width="2" stroke-linejoin="round"/>
</svg>
