<svg width="24" height="24" viewBox="0 0 24 24" fill="none" xmlns="http://www.w3.org/2000/svg">
<path d="M9.61224 15.8571L4.46939 21L3 19.5306L8.14286 14.3878M9.61224 15.8571L8.14286 14.3878M9.61224 15.8571L11.0816 17.3265C11.8932 18.1381 13.2089 18.1381 14.0204 17.3265L19.6789 11.6681C20.3106 11.0363 20.8739 10.3031 20.9708 9.41496C21.0942 8.28426 20.887 6.5605 19.1633 4.83673C17.4395 3.11297 15.7157 2.90584 14.585 3.02922C13.6969 3.12612 12.9637 3.68941 12.3319 4.32114L6.67347 9.97959C5.86195 10.7911 5.86195 12.1068 6.67347 12.9184L8.14286 14.3878M12.1837 12.551L11.449 11.8163M15.4898 9.97959L14.0204 8.5102" stroke="black" stroke-width="2" stroke-linecap="round" stroke-linejoin="round"/>
</svg>
