<svg width="24" height="24" viewBox="0 0 24 24" fill="none" xmlns="http://www.w3.org/2000/svg">
<path d="M14.9729 11.8226L15.0749 11.9246C15.869 12.7187 17.0483 12.9915 18.1209 12.6291L19.0113 12.3284C19.9889 11.9981 20.7199 11.1711 20.9268 10.1612C21.1677 8.98511 20.806 7.77233 19.963 6.92935L17.0706 4.03695C16.2276 3.19394 15.0148 2.83231 13.8387 3.07326C12.8289 3.28012 12.0019 4.01108 11.6717 4.98866L11.3709 5.87901C11.0085 6.95168 11.2812 8.13092 12.0754 8.92508L12.1774 9.0271M14.9729 11.8226L5.79551 21L3 18.2045L5.11787 16.0866M14.9729 11.8226L12.1774 9.0271M12.1774 9.0271L7.23573 13.9688M5.11787 16.0866L5.81674 16.7855M5.11787 16.0866L7.23573 13.9688M7.23573 13.9688L8.28405 15.0171M16.7484 7.95047L16.0496 7.2516" stroke="black" stroke-width="2" stroke-linecap="round" stroke-linejoin="round"/>
</svg>
