<svg width="24" height="24" viewBox="0 0 24 24" fill="none" xmlns="http://www.w3.org/2000/svg">
<path fill-rule="evenodd" clip-rule="evenodd" d="M14.6935 4.02337C15.5667 3.92809 16.9761 4.06379 18.4562 5.5439C19.9363 7.024 20.072 8.43333 19.9767 9.30655C19.9186 9.83927 19.5678 10.365 18.9718 10.961L13.3133 16.6195C12.8923 17.0405 12.2097 17.0405 11.7887 16.6195L10.3194 15.1501L8.84996 13.6807L7.38058 12.2113C6.95958 11.7903 6.95958 11.1078 7.38058 10.6868L13.039 5.02831C13.6351 4.43224 14.1608 4.0815 14.6935 4.02337ZM19.8704 4.12968C17.9029 2.16226 15.8648 1.8837 14.4766 2.03517C13.233 2.17086 12.2922 2.94669 11.6248 3.61409L5.96636 9.27254C4.76432 10.4746 4.76432 12.4235 5.96636 13.6255L6.72864 14.3878L2.29289 18.8236C2.10536 19.0111 2 19.2655 2 19.5307C2 19.7959 2.10536 20.0502 2.29289 20.2378L3.76228 21.7072C4.15281 22.0977 4.78597 22.0977 5.17649 21.7072L9.61224 17.2714L10.3745 18.0337C11.5766 19.2357 13.5255 19.2357 14.7275 18.0337L20.386 12.3752C21.0534 11.7078 21.8292 10.767 21.9649 9.52349C22.1164 8.1353 21.8378 6.09711 19.8704 4.12968ZM4.41421 19.5307L8.14286 15.802L8.19803 15.8572L4.46939 19.5858L4.41421 19.5307ZM15.7275 6.80315C15.337 6.41263 14.7038 6.41263 14.3133 6.80315C13.9228 7.19368 13.9228 7.82684 14.3133 8.21737L15.7827 9.68675C16.1732 10.0773 16.8064 10.0773 17.1969 9.68675C17.5874 9.29623 17.5874 8.66307 17.1969 8.27254L15.7275 6.80315ZM14.1561 9.10928C13.7656 8.71875 13.1324 8.71875 12.7419 9.10928C12.3513 9.4998 12.3513 10.133 12.7419 10.5235L13.4766 11.2582C13.8671 11.6487 14.5003 11.6487 14.8908 11.2582C15.2813 10.8677 15.2813 10.2345 14.8908 9.84397L14.1561 9.10928ZM12.5 15.5001C13.0523 15.5001 13.5 15.0523 13.5 14.5001C13.5 13.9478 13.0523 13.5001 12.5 13.5001C11.9477 13.5001 11.5 13.9478 11.5 14.5001C11.5 15.0523 11.9477 15.5001 12.5 15.5001Z" fill="black"/>
</svg>
