<svg width="24" height="24" viewBox="0 0 24 24" fill="none" xmlns="http://www.w3.org/2000/svg">
<path d="M6 5V2H11V5M6 5H11M6 5C4.89543 5 4 5.89543 4 7V20C4 21.1046 4.89543 22 6 22H18C19.1046 22 20 21.1046 20 20V12.0585C20 10.7667 19.3761 9.55438 18.325 8.80354L14.0431 5.74507C13.3647 5.26049 12.5518 5 11.7181 5H11M17 12.5V17.5C17 18.3284 16.3284 19 15.5 19C14.6716 19 14 18.3284 14 17.5V12.5C14 11.6716 14.6716 11 15.5 11C16.3284 11 17 11.6716 17 12.5Z" stroke="black" stroke-width="2" stroke-linecap="round" stroke-linejoin="round"/>
</svg>
