<svg width="24" height="24" viewBox="0 0 24 24" fill="none" xmlns="http://www.w3.org/2000/svg">
<path fill-rule="evenodd" clip-rule="evenodd" d="M10 1C7.79086 1 6 2.79086 6 5V6.5C6 7.05228 6.44772 7.5 7 7.5H7.5V8.5H7C6.44772 8.5 6 8.94772 6 9.5V11C6 13.0398 7.52684 14.723 9.5 14.9691V15.8775C8.58684 16.6095 8 17.7358 8 19C8 21.2091 9.79086 23 12 23C14.2091 23 16 21.2091 16 19C16 17.7358 15.4132 16.6095 14.5 15.8775V14.9691C16.4732 14.723 18 13.0398 18 11V9.5C18 8.94772 17.5523 8.5 17 8.5H16.5V7.5H17C17.5523 7.5 18 7.05228 18 6.5V5C18 2.79086 16.2091 1 14 1H10ZM9.5 8.5V7.5H14.5V8.5H9.5ZM15.5 5.5H16V5C16 3.89543 15.1046 3 14 3H10C8.89543 3 8 3.89543 8 5V5.5H8.5H15.5ZM15.5 10.5H16V11C16 12.1046 15.1046 13 14 13H13.5C12.9477 13 12.5 13.4477 12.5 14V16.4013C12.5 16.7583 12.6903 17.0882 12.9993 17.267C13.5997 17.6143 14 18.261 14 19C14 20.1046 13.1046 21 12 21C10.8954 21 10 20.1046 10 19C10 18.261 10.4003 17.6143 11.0007 17.267C11.3097 17.0882 11.5 16.7583 11.5 16.4013V14C11.5 13.4477 11.0523 13 10.5 13H10C8.89543 13 8 12.1046 8 11V10.5H8.5H15.5ZM12 20C12.5523 20 13 19.5523 13 19C13 18.4477 12.5523 18 12 18C11.4477 18 11 18.4477 11 19C11 19.5523 11.4477 20 12 20Z" fill="black"/>
</svg>
