<svg width="24" height="24" viewBox="0 0 24 24" fill="none" xmlns="http://www.w3.org/2000/svg">
<path d="M18.5 6H20C20.5523 6 21 6.44772 21 7V17C21 17.5523 20.5523 18 20 18H18.5M18.5 6V4.5C18.5 3.67157 17.8284 3 17 3C16.1716 3 15.5 3.67157 15.5 4.5V6M18.5 6H15.5M15.5 6H11.5M11.5 6V4.5C11.5 3.67157 10.8284 3 10 3C9.17157 3 8.5 3.67157 8.5 4.5V6M11.5 6H8.5M8.5 6H4C3.44772 6 3 6.44772 3 7V9.39445C3 10.3975 3.5013 11.3342 4.3359 11.8906L4.6641 12.1094C5.4987 12.6658 6 13.6025 6 14.6056V17C6 17.5523 6.44772 18 7 18H8.5M18.5 18V19.5C18.5 20.3284 17.8284 21 17 21C16.1716 21 15.5 20.3284 15.5 19.5V18M18.5 18H15.5M15.5 18H11.5M11.5 18V19.5C11.5 20.3284 10.8284 21 10 21C9.17157 21 8.5 20.3284 8.5 19.5V18M11.5 18H8.5M6 9V9.5M18 9V15M14 9V15M10 9V15" stroke="black" stroke-width="2" stroke-linecap="round" stroke-linejoin="round"/>
</svg>
