<svg width="24" height="24" viewBox="0 0 24 24" fill="none" xmlns="http://www.w3.org/2000/svg">
<path d="M7.77764 22H7.1593C5.99428 22 5.07584 21.0082 5.16519 19.8466L5.78647 11.7699C5.9067 10.2069 7.21003 9 8.77764 9M7.77764 22H16.2214M7.77764 22L8.02764 18.75M16.2214 22H16.8398C18.0048 22 18.9233 21.0082 18.8339 19.8466L18.2126 11.7699C18.0924 10.2069 16.7891 9 15.2214 9M16.2214 22L15.9714 18.75M15.2214 9H8.77764M15.2214 9L15.4714 12.25M8.77764 9L8.52764 12.25M8.27764 15.5H15.7214M8.27764 15.5L8.52764 12.25M8.27764 15.5L8.02764 18.75M15.7214 15.5L15.4714 12.25M15.7214 15.5L15.9714 18.75M8.52764 12.25H15.4714M8.02764 18.75H15.9714M13.9995 6H9.99954C8.89497 6 7.99954 5.10457 7.99954 4C7.99954 2.89543 8.89497 2 9.99954 2H13.9995C15.1041 2 15.9995 2.89543 15.9995 4C15.9995 5.10457 15.1041 6 13.9995 6Z" stroke="black" stroke-width="2" stroke-linecap="round" stroke-linejoin="round"/>
</svg>
