<svg width="24" height="24" viewBox="0 0 24 24" fill="none" xmlns="http://www.w3.org/2000/svg">
<path d="M8.97628 15.5H15.0231M8.37355 18.75H15.6258M9.579 12.25H14.4203M11.5612 2H12.4381C13.3559 2 14.1558 2.62459 14.3784 3.51493L14.689 4.75746C14.8468 5.38861 14.3695 6 13.7189 6H10.2805C9.62988 6 9.15252 5.38861 9.31031 4.75746L9.62094 3.51493C9.84353 2.62459 10.6435 2 11.5612 2ZM10.1817 9H13.8176C15.6802 9 17.2964 10.2856 17.7152 12.1006L19.1517 18.3254C19.5855 20.2053 18.1578 22 16.2285 22H7.77083C5.84157 22 4.41384 20.2053 4.84765 18.3254L6.28416 12.1006C6.70299 10.2856 8.3191 9 10.1817 9Z" stroke="black" stroke-width="2" stroke-linecap="round" stroke-linejoin="round"/>
</svg>
