<svg width="24" height="24" viewBox="0 0 24 24" fill="none" xmlns="http://www.w3.org/2000/svg">
<path d="M8.77861 15.5H15.2224M9.02861 12.25H14.9724M8.52861 18.75H15.4724M7.16027 22H7.77861H16.2224H16.8408C18.0058 22 18.9242 21.0082 18.8349 19.8466L18.2136 11.7699C18.0934 10.2069 16.79 9 15.2224 9H8.77861C7.211 9 5.90768 10.2069 5.78745 11.7699L5.16617 19.8466C5.07681 21.0082 5.99525 22 7.16027 22ZM14.0005 6H10.0005C8.89595 6 8.00052 5.10457 8.00052 4C8.00052 2.89543 8.89595 2 10.0005 2H14.0005C15.1051 2 16.0005 2.89543 16.0005 4C16.0005 5.10457 15.1051 6 14.0005 6Z" stroke="black" stroke-width="2" stroke-linecap="round" stroke-linejoin="round"/>
</svg>
