<svg width="24" height="24" viewBox="0 0 24 24" fill="none" xmlns="http://www.w3.org/2000/svg">
<path d="M10.1817 9H13.8176M10.1817 9C8.3191 9 6.70299 10.2856 6.28416 12.1006L4.84765 18.3254C4.41384 20.2053 5.84157 22 7.77083 22M10.1817 9L8.97628 15.5M13.8176 9C15.6802 9 17.2964 10.2856 17.7152 12.1006L19.1517 18.3254C19.5855 20.2053 18.1578 22 16.2285 22M13.8176 9L15.0231 15.5M7.77083 22H16.2285M7.77083 22L8.37355 18.75M16.2285 22L15.6258 18.75M8.97628 15.5H15.0231M8.97628 15.5L8.37355 18.75M15.0231 15.5L15.6258 18.75M8.37355 18.75H15.6258M11.5612 2H12.4381C13.3559 2 14.1558 2.62459 14.3784 3.51493L14.689 4.75746C14.8468 5.38861 14.3695 6 13.7189 6H10.2805C9.62988 6 9.15252 5.38861 9.31031 4.75746L9.62094 3.51493C9.84353 2.62459 10.6435 2 11.5612 2Z" stroke="black" stroke-width="2" stroke-linecap="round" stroke-linejoin="round"/>
</svg>
