<svg width="24" height="24" viewBox="0 0 24 24" fill="none" xmlns="http://www.w3.org/2000/svg">
<path d="M10.3527 8.54119L7.5 14.831M10.3527 8.54119L13.0716 9.84474M10.3527 8.54119L9.89953 8.32394C9.39899 8.08396 9.18243 7.47222 9.41583 6.95758L10.4043 4.7782C10.6626 4.20851 11.3533 4.00844 11.8629 4.35565L12.1594 4.55761M7.5 14.831L10.8101 14.831M7.5 14.831C6.5807 14.831 5.7403 15.3651 5.32918 16.2105L3 21H21V18.9437C21 17.808 20.1046 16.8874 19 16.8874H13.618C13.2393 16.8874 12.893 16.6673 12.7236 16.319L12.5321 15.9253C12.206 15.2546 11.5394 14.831 10.8101 14.831M13.0716 9.84474L13.5248 10.062C14.0253 10.302 14.6203 10.0793 14.8537 9.56468L15.065 9.09876C15.24 8.71278 15.6863 8.54579 16.0617 8.72577L16.1936 8.78902C16.4961 8.93407 16.8558 8.79949 16.9969 8.48841C17.1233 8.20961 17.0323 7.87764 16.7829 7.70771L14.6881 6.28048M13.0716 9.84474L10.8101 14.831M12.1594 4.55761L14.6881 6.28048M12.1594 4.55761L12.4618 3.89083C12.8119 3.11888 13.7043 2.7849 14.4552 3.14486C15.206 3.50483 15.5308 4.42244 15.1807 5.19439L14.6881 6.28048" stroke="black" stroke-width="2" stroke-linecap="round" stroke-linejoin="round"/>
</svg>
