<svg width="24" height="24" viewBox="0 0 24 24" fill="none" xmlns="http://www.w3.org/2000/svg">
<path d="M6.50007 19L6.00007 22H18.0001L17.5001 19M6.50007 19L6.72153 17.6712C6.88226 16.7068 7.71664 16 8.69432 16H12.0001M6.50007 19H17.5001M17.5001 19L17.2786 17.6712C17.1179 16.7068 16.2835 16 15.3058 16H12.0001M12.0001 16L9.22811 6.89231M9.22811 6.89231C8.99773 6.96234 8.75326 7 8.5 7C7.11929 7 6 5.88071 6 4.5C6 3.11929 7.11929 2 8.5 2C9.88071 2 11 3.11929 11 4.5C11 5.62745 10.2537 6.58058 9.22811 6.89231Z" stroke="black" stroke-width="2" stroke-linecap="round" stroke-linejoin="round"/>
</svg>
