<svg width="24" height="24" viewBox="0 0 24 24" fill="none" xmlns="http://www.w3.org/2000/svg">
<path d="M12.6585 13.5688L13.9756 14.8684L17.4878 11.4028L16.6098 10.5363M12.6585 13.5688L10.0244 10.9696M12.6585 13.5688L10.3537 15.8431M10.0244 10.9696L8.70732 9.66994L12.2195 6.20432L13.0976 7.07073M10.0244 10.9696L7.71951 13.2439M4.31707 19.2004L4.7561 19.6336C5.24103 20.1121 6.02726 20.1121 6.5122 19.6336L8.04878 18.1174M4.31707 19.2004L3.87805 18.7672C3.39312 18.2887 3.39312 17.5129 3.87805 17.0344L5.41463 15.5182M4.31707 19.2004L3 20.5M16.6098 10.5363L19.2439 7.93714L16.6098 5.33792M16.6098 10.5363L13.0976 7.07073M13.0976 7.07073L15.7317 4.47152L16.6098 5.33792M16.6098 5.33792L17.9268 4.03831C18.6542 3.32056 19.8336 3.32056 20.561 4.03831L21 4.47152M7.71951 13.2439L10.3537 15.8431M7.71951 13.2439L5.41463 15.5182M10.3537 15.8431L8.04878 18.1174M5.41463 15.5182L8.04878 18.1174" stroke="black" stroke-width="2" stroke-linecap="round" stroke-linejoin="round"/>
</svg>
