<svg width="24" height="24" viewBox="0 0 24 24" fill="none" xmlns="http://www.w3.org/2000/svg">
<path d="M3.33782 17C4.82872 19.5773 7.43686 21.4275 10.5 21.8883C10.9893 21.9619 11.4902 22 12 22C12.5098 22 13.0107 21.9619 13.5 21.8883C16.5631 21.4275 19.1713 19.5773 20.6622 17M3.33782 17C2.64463 15.8017 2.19296 14.4462 2.04938 13C2.01672 12.6711 2 12.3375 2 12C2 11.3151 2.06886 10.6462 2.20004 10C2.23267 9.83925 2.26915 9.67991 2.30939 9.52206C2.60919 8.34608 3.11742 7.25342 3.79241 6.28571C5.59948 3.69502 8.60179 2 12 2C15.3982 2 18.4005 3.69502 20.2076 6.28571C20.8826 7.25342 21.3908 8.34608 21.6906 9.52206C21.7309 9.67991 21.7673 9.83925 21.8 10C21.9311 10.6462 22 11.3151 22 12C22 12.3375 21.9833 12.6711 21.9506 13C21.807 14.4462 21.3554 15.8017 20.6622 17M3.33782 17H8M20.6622 17H16M8 17C8 16.726 8.02754 16.4585 8.08001 16.2C8.09307 16.1357 8.10766 16.072 8.12376 16.0088C8.24368 15.5384 8.44697 15.1014 8.71697 14.7143C9.43979 13.678 10.6407 13 12 13C12.5596 13 13.0924 13.1149 13.5761 13.3225M8 17H16M16 17C16 16.726 15.9725 16.4585 15.92 16.2C15.9069 16.1357 15.8923 16.072 15.8762 16.0088C15.7563 15.5384 15.553 15.1014 15.283 14.7143C14.8578 14.1047 14.2671 13.619 13.5761 13.3225M15 10L13.5761 13.3225M12 5V5.5M16.9498 7.05025L16.5962 7.40381M19 12H18.5M5 12H5.5M7.05029 7.05025L7.40385 7.40381" stroke="black" stroke-width="2" stroke-linecap="round" stroke-linejoin="round"/>
</svg>
