<svg width="24" height="24" viewBox="0 0 24 24" fill="none" xmlns="http://www.w3.org/2000/svg">
<path d="M20.2076 6.28571C18.4005 3.69502 15.3982 2 12 2C8.60179 2 5.59948 3.69502 3.79241 6.28571C3.11742 7.25342 2.60919 8.34608 2.30939 9.52206C2.26915 9.67991 2.23267 9.83925 2.20004 10C2.06886 10.6462 2 11.3151 2 12C2 12.3375 2.01672 12.6711 2.04938 13C2.50177 17.5565 6.01265 21.2132 10.5 21.8883C10.9893 21.9619 11.4902 22 12 22C12.5098 22 13.0107 21.9619 13.5 21.8883C17.9873 21.2133 21.4982 17.5565 21.9506 13C21.9833 12.6711 22 12.3375 22 12C22 11.3151 21.9311 10.6462 21.8 10C21.7673 9.83925 21.7309 9.67991 21.6906 9.52206C21.3908 8.34608 20.8826 7.25342 20.2076 6.28571Z" stroke="black" stroke-width="2" stroke-linejoin="round"/>
</svg>
