<svg width="24" height="24" viewBox="0 0 24 24" fill="none" xmlns="http://www.w3.org/2000/svg">
<path d="M12 19V13M12 19C15.866 19 19 15.866 19 12C19 10.9047 18.7485 9.86824 18.3 8.94511M12 19C8.13401 19 5 15.866 5 12C5 10.9047 5.25154 9.86825 5.7 8.94511M12 13C12.5523 13 13 12.5523 13 12C13 11.8435 12.9641 11.6955 12.9 11.5636M12 13C11.4477 13 11 12.5523 11 12C11 11.8435 11.0359 11.6955 11.1 11.5636M11.1 11.5636C11.2621 11.23 11.6042 11 12 11C12.3958 11 12.7379 11.23 12.9 11.5636M11.1 11.5636L5.7 8.94511M12.9 11.5636L18.3 8.94511M18.3 8.94511C17.1655 6.60979 14.7707 5 12 5C9.22926 5 6.83451 6.60979 5.7 8.94511M22 12C22 17.5228 17.5228 22 12 22C6.47715 22 2 17.5228 2 12C2 10.4354 2.35934 8.95464 3 7.63587C3.2293 7.16388 3.49463 6.71264 3.79241 6.28571C5.59948 3.69502 8.60179 2 12 2C15.3982 2 18.4005 3.69502 20.2076 6.28571C20.5054 6.71264 20.7707 7.16388 21 7.63587C21.6407 8.95464 22 10.4354 22 12Z" stroke="black" stroke-width="2"/>
</svg>
