<svg width="24" height="24" viewBox="0 0 24 24" fill="none" xmlns="http://www.w3.org/2000/svg">
<path d="M10 9H14M10 9C8.89543 9 8 8.10457 8 7V5.32456C8 5.10959 8.03466 4.89603 8.10263 4.6921L8.54415 3.36754C8.81638 2.55086 9.58066 2 10.4415 2H13.5585C14.4193 2 15.1836 2.55086 15.4558 3.36754L15.8974 4.6921C15.9653 4.89603 16 5.10959 16 5.32456V7C16 8.10457 15.1046 9 14 9M10 9V17.9998M14 9V18M10 17.9998C9.68604 18.4176 9.5 18.9371 9.5 19.5C9.5 20.8807 10.6193 22 12 22C13.3807 22 14.5 20.8807 14.5 19.5C14.5 18.9372 14.3139 18.4178 14 18M10 17.9998C10.4561 17.3927 11.1822 17 12 17C12.8179 17 13.5439 17.3928 14 18M9 11.25L15 12.25M9 13.75L15 14.75" stroke="black" stroke-width="2" stroke-linecap="round" stroke-linejoin="round"/>
</svg>
