<svg width="24" height="24" viewBox="0 0 24 24" fill="none" xmlns="http://www.w3.org/2000/svg">
<path d="M17.75 20.5613C18.0924 20.8358 18.527 21 19 21C20.1046 21 21 20.1046 21 19C21 18.527 20.8358 18.0924 20.5613 17.75M17.75 20.5613C17.2928 20.1948 17 19.6316 17 19C17 17.8954 17.8954 17 19 17C19.6316 17 20.1948 17.2928 20.5613 17.75M17.75 20.5613L5.25 12.1765M5.25 12.1765C6.03895 12.697 6.98409 13 8 13C10.7614 13 13 10.7614 13 8C13 7.0329 12.7254 6.12993 12.25 5.36479M5.25 12.1765C3.89444 11.2821 3 9.74552 3 8C3 5.23858 5.23858 3 8 3C9.52065 3 10.8828 3.67884 11.7998 4.75C11.9648 4.94278 12.1155 5.14826 12.25 5.36479M20.5613 17.75L12.25 5.36479M9 8C9 8.55228 8.55228 9 8 9C7.44772 9 7 8.55228 7 8C7 7.44772 7.44772 7 8 7C8.55228 7 9 7.44772 9 8Z" stroke="black" stroke-width="2" stroke-linejoin="round"/>
</svg>
