<svg width="24" height="24" viewBox="0 0 24 24" fill="none" xmlns="http://www.w3.org/2000/svg">
<path d="M18 12C18 12.9202 17.7929 13.7919 17.4227 14.5713C17.1263 15.1952 16.7254 15.7599 16.2426 16.2426M18 12C18 11.0798 17.7929 10.2081 17.4227 9.42874C17.1263 8.80481 16.7254 8.24014 16.2426 7.75736M18 12H12M12 18C12.9202 18 13.7919 17.7929 14.5713 17.4227C15.1952 17.1263 15.7599 16.7254 16.2426 16.2426M12 18C11.0798 18 10.2081 17.7929 9.42874 17.4227C8.80481 17.1263 8.24014 16.7254 7.75736 16.2426M12 18V12M6 12C6 12.9202 6.20713 13.7919 6.57732 14.5713C6.87369 15.1952 7.27458 15.7599 7.75736 16.2426M6 12C6 11.0798 6.20713 10.2081 6.57732 9.42874C6.87369 8.80481 7.27458 8.24014 7.75736 7.75736M6 12H12M12 6C11.0798 6 10.2081 6.20713 9.42874 6.57732C8.80481 6.87369 8.24014 7.27458 7.75736 7.75736M12 6C12.9202 6 13.7919 6.20713 14.5713 6.57732C15.1952 6.87369 15.7599 7.27458 16.2426 7.75736M12 6V12M12 12L16.2426 7.75736M12 12L16.2426 16.2426M12 12L7.75736 16.2426M12 12L7.75736 7.75736M22 12C22 17.5228 17.5228 22 12 22C6.47715 22 2 17.5228 2 12C2 6.47715 6.47715 2 12 2C17.5228 2 22 6.47715 22 12Z" stroke="black" stroke-width="2"/>
</svg>
