<svg width="24" height="24" viewBox="0 0 24 24" fill="none" xmlns="http://www.w3.org/2000/svg">
<path fill-rule="evenodd" clip-rule="evenodd" d="M14.8087 1.05961C14.2906 0.87229 13.7186 1.13924 13.5294 1.65664L13.041 2.99253C12.3262 2.81764 11.5797 2.72503 10.8125 2.72503C5.67362 2.72503 1.5 6.87331 1.5 12C1.5 17.1267 5.67362 21.275 10.8125 21.275C11.5797 21.275 12.3263 21.1823 13.0411 21.0074L13.5296 22.3434C13.7188 22.8608 14.2908 23.1278 14.8088 22.9404C16.3666 22.3772 17.8278 21.4736 19.0752 20.2318C23.6416 15.6861 23.6416 8.31403 19.0752 3.76827C17.8278 2.52645 16.3665 1.62288 14.8087 1.05961ZM10.8125 4.72503C11.3402 4.72503 11.8541 4.78049 12.3488 4.88566L11.9045 6.10108C11.8132 6.35075 11.8251 6.62649 11.9375 6.86738C12.0499 7.10828 12.2536 7.29449 12.5036 7.38488C13.1604 7.62234 13.7769 8.00312 14.3054 8.52927C16.2315 10.4466 16.2315 13.5534 14.3054 15.4708C13.7769 15.997 13.1604 16.3777 12.5037 16.6152C12.2537 16.7056 12.05 16.8918 11.9376 17.1327C11.8252 17.3736 11.8133 17.6493 11.9046 17.899L12.3489 19.1143C11.8541 19.2195 11.3402 19.275 10.8125 19.275C6.76964 19.275 3.5 16.0136 3.5 12C3.5 7.98641 6.76964 4.72503 10.8125 4.72503ZM14.5955 4.56533L15.048 3.32768C15.9926 3.78452 16.8785 4.40356 17.6642 5.18568C21.4453 8.94967 21.4453 15.0504 17.6642 18.8144C16.8786 19.5965 15.9927 20.2155 15.0481 20.6724L14.5955 19.4346L14.1024 18.086C14.6827 17.7745 15.2274 17.3751 15.7165 16.8882C18.4278 14.1891 18.4278 9.81101 15.7165 7.11185C15.2274 6.625 14.6826 6.22553 14.1023 5.91403L14.5955 4.56533ZM9.8125 12C9.8125 11.4477 10.2602 11 10.8125 11C11.3648 11 11.8125 11.4477 11.8125 12C11.8125 12.5523 11.3648 13 10.8125 13C10.2602 13 9.8125 12.5523 9.8125 12ZM10.8125 9.00002C9.15565 9.00002 7.8125 10.3432 7.8125 12C7.8125 13.6569 9.15565 15 10.8125 15C12.4694 15 13.8125 13.6569 13.8125 12C13.8125 10.3432 12.4694 9.00002 10.8125 9.00002ZM8.99995 8.40005C9.55224 8.40005 9.99995 7.95233 9.99995 7.40005C9.99995 6.84776 9.55224 6.40005 8.99995 6.40005C8.44767 6.40005 7.99995 6.84776 7.99995 7.40005C7.99995 7.95233 8.44767 8.40005 8.99995 8.40005ZM8.99995 17.6C9.55224 17.6 9.99995 17.1523 9.99995 16.6C9.99995 16.0477 9.55224 15.6 8.99995 15.6C8.44767 15.6 7.99995 16.0477 7.99995 16.6C7.99995 17.1523 8.44767 17.6 8.99995 17.6ZM6.69995 12C6.69995 12.5523 6.25224 13 5.69995 13C5.14767 13 4.69995 12.5523 4.69995 12C4.69995 11.4478 5.14767 11 5.69995 11C6.25224 11 6.69995 11.4478 6.69995 12Z" fill="black"/>
</svg>
