<svg width="24" height="24" viewBox="0 0 24 24" fill="none" xmlns="http://www.w3.org/2000/svg">
<path d="M17.4227 14.5713C17.7929 13.7919 18 12.9202 18 12C18 11.0798 17.7929 10.2081 17.4227 9.42874M17.4227 14.5713C16.8299 15.8191 15.8191 16.8299 14.5713 17.4227M17.4227 14.5713C15.9709 14.0463 15 13.0912 15 12C15 10.9088 15.9709 9.95374 17.4227 9.42874M14.5713 17.4227C13.7919 17.7929 12.9202 18 12 18C11.0798 18 10.2081 17.7929 9.42874 17.4227M14.5713 17.4227C14.0463 15.9709 13.0912 15 12 15C10.9088 15 9.95374 15.9709 9.42874 17.4227M9.42874 17.4227C8.18087 16.8299 7.17007 15.8191 6.57732 14.5713M6.57732 14.5713C6.20713 13.7919 6 12.9202 6 12C6 11.0798 6.20713 10.2081 6.57732 9.42874M6.57732 14.5713C8.02908 14.0463 9 13.0912 9 12C9 10.9088 8.02908 9.95374 6.57732 9.42874M6.57732 9.42874C7.17007 8.18087 8.18087 7.17007 9.42874 6.57732M9.42874 6.57732C10.2081 6.20713 11.0798 6 12 6C12.9202 6 13.7919 6.20713 14.5713 6.57732M9.42874 6.57732C9.95374 8.02908 10.9088 9 12 9C13.0912 9 14.0463 8.02908 14.5713 6.57732M14.5713 6.57732C15.8191 7.17007 16.8299 8.18087 17.4227 9.42874M22 12C22 17.5228 17.5228 22 12 22C6.47715 22 2 17.5228 2 12C2 6.47715 6.47715 2 12 2C17.5228 2 22 6.47715 22 12Z" stroke="black" stroke-width="2"/>
</svg>
