<svg width="24" height="24" viewBox="0 0 24 24" fill="none" xmlns="http://www.w3.org/2000/svg">
<path d="M10 22H14M10 22C7.79086 22 6 20.2091 6 18V15M10 22V19M14 22C16.2091 22 18 20.2091 18 18V15M14 22V19M18 15V10M18 15L14 19M18 10V6C18 5.69101 17.965 5.39021 17.8987 5.10135M18 10L14 14M14 2H10M14 2C15.9002 2 17.4909 3.32493 17.8987 5.10135M14 2V9M10 2C8.09985 2 6.50915 3.32493 6.10135 5.10135M10 2V9M6 10V6C6 5.69101 6.03503 5.39021 6.10135 5.10135M6 10V15M6 10L10 14M6 15L10 19M6.10135 5.10135L10 9M17.8987 5.10135L14 9M10 9V14M10 14V19M14 9V14M14 14V19" stroke="black" stroke-width="2" stroke-linecap="round" stroke-linejoin="round"/>
</svg>
