<svg width="24" height="24" viewBox="0 0 24 24" fill="none" xmlns="http://www.w3.org/2000/svg">
<path fill-rule="evenodd" clip-rule="evenodd" d="M3 9C3 8.81128 3.0915 8.53032 3.47296 8.16957C3.85653 7.80683 4.46523 7.43409 5.30032 7.10005C6.96497 6.43419 9.33323 6 12 6C14.6668 6 17.035 6.43419 18.6997 7.10005C19.5348 7.43409 20.1435 7.80683 20.527 8.16957C20.9085 8.53032 21 8.81128 21 9C21 9.18872 20.9085 9.46968 20.527 9.83043C20.1435 10.1932 19.5348 10.5659 18.6997 10.9C17.035 11.5658 14.6668 12 12 12C9.33323 12 6.96497 11.5658 5.30032 10.9C4.46523 10.5659 3.85653 10.1932 3.47296 9.83043C3.0915 9.46968 3 9.18872 3 9ZM19.4425 12.7569C20.0089 12.5303 20.5351 12.2702 21 11.9754V12V15C21 15.1887 20.9085 15.4697 20.527 15.8304C20.1435 16.1932 19.5348 16.5659 18.6997 16.9C17.035 17.5658 14.6668 18 12 18C9.33323 18 6.96497 17.5658 5.30032 16.9C4.46523 16.5659 3.85653 16.1932 3.47296 15.8304C3.0915 15.4697 3 15.1887 3 15V12V11.9754C3.46486 12.2702 3.99114 12.5303 4.55754 12.7569C6.51218 13.5388 9.14392 14 12 14C14.8561 14 17.4878 13.5388 19.4425 12.7569ZM23 12V9C23 8.08415 22.5319 7.31282 21.9013 6.71646C21.2728 6.1221 20.417 5.63292 19.4425 5.2431C17.4878 4.46124 14.8561 4 12 4C9.14392 4 6.51218 4.46124 4.55754 5.2431C3.58299 5.63292 2.72723 6.1221 2.09874 6.71646C1.46814 7.31282 1 8.08415 1 9V12V15C1 15.9159 1.46814 16.6872 2.09874 17.2835C2.72723 17.8779 3.58299 18.3671 4.55754 18.7569C6.51218 19.5388 9.14392 20 12 20C14.8561 20 17.4878 19.5388 19.4425 18.7569C20.417 18.3671 21.2728 17.8779 21.9013 17.2835C22.5319 16.6872 23 15.9159 23 15V12ZM12 10.5C15.3137 10.5 18 9.82843 18 9C18 8.17157 15.3137 7.5 12 7.5C8.68629 7.5 6 8.17157 6 9C6 9.82843 8.68629 10.5 12 10.5Z" fill="black"/>
</svg>
