<svg width="24" height="24" viewBox="0 0 24 24" fill="none" xmlns="http://www.w3.org/2000/svg">
<path d="M7.85044 18H4.07529C2.79321 18 1.81797 16.8903 2.02874 15.6712L3.26746 8.50681C3.51757 7.06024 4.81593 6 6.33728 6H17.6627C19.1841 6 20.4824 7.06024 20.7325 8.50681L21.9713 15.6713C22.182 16.8903 21.2068 18 19.9247 18.0001L16.6683 18.0001M7.85044 18L9.14718 14L6.5537 13M7.85044 18L16.6683 18.0001M6.5537 13L5.77566 15M6.5537 13L8.10979 9.00004M16.6683 18.0001L17.965 14L15.3715 13M15.3715 13L14.5935 15M15.3715 13L16.9276 9.00004" stroke="black" stroke-width="2" stroke-linecap="round" stroke-linejoin="round"/>
</svg>
