<svg width="24" height="24" viewBox="0 0 24 24" fill="none" xmlns="http://www.w3.org/2000/svg">
<path d="M6.3999 12.2671L5.40681 12.1497C5.35366 12.5995 5.60948 13.0289 6.03036 13.1963C6.45124 13.3637 6.93207 13.2272 7.20235 12.8638L6.3999 12.2671ZM7.20235 14.1864C6.87278 13.7432 6.24635 13.6511 5.80318 13.9807C5.36 14.3103 5.26789 14.9367 5.59746 15.3799L7.20235 14.1864ZM6.8199 8.7126V7.7126C6.31301 7.7126 5.88629 8.09186 5.82681 8.59525L6.8199 8.7126ZM10.1799 9.7126C10.7322 9.7126 11.1799 9.26488 11.1799 8.7126C11.1799 8.16031 10.7322 7.7126 10.1799 7.7126V9.7126ZM7 4H17V2H7V4ZM20 7V17H22V7H20ZM17 20H7V22H17V20ZM4 17V7H2V17H4ZM7 20C5.34315 20 4 18.6569 4 17H2C2 19.7614 4.23858 22 7 22V20ZM20 17C20 18.6569 18.6569 20 17 20V22C19.7614 22 22 19.7614 22 17H20ZM17 4C18.6569 4 20 5.34315 20 7H22C22 4.23858 19.7614 2 17 2V4ZM7 2C4.23858 2 2 4.23858 2 7H4C4 5.34315 5.34315 4 7 4V2ZM16.5999 12.0376C16.5999 12.8241 16.3751 13.4932 16.0631 13.939C15.7488 14.388 15.4106 14.5376 15.1499 14.5376V16.5376C16.2423 16.5376 17.1291 15.9037 17.7015 15.0859C18.2762 14.265 18.5999 13.1841 18.5999 12.0376H16.5999ZM15.1499 14.5376C14.8892 14.5376 14.551 14.388 14.2367 13.939C13.9247 13.4932 13.6999 12.8241 13.6999 12.0376H11.6999C11.6999 13.1841 12.0236 14.265 12.5983 15.0859C13.1707 15.9037 14.0575 16.5376 15.1499 16.5376V14.5376ZM13.6999 12.0376C13.6999 11.2511 13.9247 10.582 14.2367 10.1362C14.551 9.68723 14.8892 9.5376 15.1499 9.5376V7.5376C14.0575 7.5376 13.1707 8.17146 12.5983 8.98926C12.0236 9.81022 11.6999 10.8911 11.6999 12.0376H13.6999ZM15.1499 9.5376C15.4106 9.5376 15.7488 9.68723 16.0631 10.1362C16.3751 10.582 16.5999 11.2511 16.5999 12.0376H18.5999C18.5999 10.8911 18.2762 9.81022 17.7015 8.98926C17.1291 8.17146 16.2423 7.5376 15.1499 7.5376V9.5376ZM9.5999 13.5251C9.5999 14.1303 9.06543 14.7126 8.2899 14.7126V16.7126C10.0659 16.7126 11.5999 15.3361 11.5999 13.5251H9.5999ZM8.2899 12.3376C9.06543 12.3376 9.5999 12.9199 9.5999 13.5251H11.5999C11.5999 11.714 10.0659 10.3376 8.2899 10.3376V12.3376ZM7.20235 12.8638C7.43166 12.5554 7.82474 12.3376 8.2899 12.3376V10.3376C7.19253 10.3376 6.20425 10.8544 5.59746 11.6703L7.20235 12.8638ZM8.2899 14.7126C7.82474 14.7126 7.43166 14.4948 7.20235 14.1864L5.59746 15.3799C6.20425 16.1958 7.19253 16.7126 8.2899 16.7126V14.7126ZM7.39299 12.3844L7.81299 8.82994L5.82681 8.59525L5.40681 12.1497L7.39299 12.3844ZM6.8199 9.7126H10.1799V7.7126H6.8199V9.7126Z" fill="black"/>
</svg>
