<svg width="24" height="24" viewBox="0 0 24 24" fill="none" xmlns="http://www.w3.org/2000/svg">
<path d="M12.3 17C12.3 17.5523 12.7477 18 13.3 18C13.8523 18 14.3 17.5523 14.3 17H12.3ZM13.3 7H14.3C14.3 6.55247 14.0027 6.15943 13.572 6.0377C13.1413 5.91597 12.6822 6.0952 12.448 6.47651L13.3 7ZM8.5 14.8125L7.64797 14.289C7.45838 14.5976 7.45045 14.9845 7.62722 15.3006C7.80399 15.6167 8.13785 15.8125 8.5 15.8125V14.8125ZM14.5 15.8125C15.0523 15.8125 15.5 15.3648 15.5 14.8125C15.5 14.2602 15.0523 13.8125 14.5 13.8125V15.8125ZM7 4H17V2H7V4ZM20 7V17H22V7H20ZM17 20H7V22H17V20ZM4 17V7H2V17H4ZM7 20C5.34315 20 4 18.6569 4 17H2C2 19.7614 4.23858 22 7 22V20ZM20 17C20 18.6569 18.6569 20 17 20V22C19.7614 22 22 19.7614 22 17H20ZM17 4C18.6569 4 20 5.34315 20 7H22C22 4.23858 19.7614 2 17 2V4ZM7 2C4.23858 2 2 4.23858 2 7H4C4 5.34315 5.34315 4 7 4V2ZM14.3 17V14.8125H12.3V17H14.3ZM14.3 14.8125V7H12.3V14.8125H14.3ZM12.448 6.47651L7.64797 14.289L9.35203 15.336L14.152 7.52349L12.448 6.47651ZM8.5 15.8125H13.3V13.8125H8.5V15.8125ZM13.3 15.8125H14.5V13.8125H13.3V15.8125Z" fill="black"/>
</svg>
