<svg width="24" height="24" viewBox="0 0 24 24" fill="none" xmlns="http://www.w3.org/2000/svg">
<path d="M6.60654 9.8125C6.81971 9.05771 7.57153 8.5 8.46629 8.5C9.52682 8.5 10.3865 9.2835 10.3865 10.25C10.3865 11.2165 9.52682 12 8.46629 12C9.64465 12 10.5999 12.7835 10.5999 13.75C10.5999 14.7165 9.64465 15.5 8.46629 15.5C7.47212 15.5 6.63676 14.9423 6.3999 14.1875M2 8.82843V15.1716C2 15.702 2.21071 16.2107 2.58579 16.5858L7.41421 21.4142C7.78929 21.7893 8.29799 22 8.82843 22H15.1716C15.702 22 16.2107 21.7893 16.5858 21.4142L21.4142 16.5858C21.7893 16.2107 22 15.702 22 15.1716V8.82843C22 8.29799 21.7893 7.78929 21.4142 7.41421L16.5858 2.58579C16.2107 2.21071 15.702 2 15.1716 2H8.82843C8.29799 2 7.78929 2.21071 7.41421 2.58579L2.58579 7.41421C2.21071 7.78929 2 8.29799 2 8.82843ZM17.5999 12C17.5999 13.933 16.503 15.5 15.1499 15.5C13.7968 15.5 12.6999 13.933 12.6999 12C12.6999 10.067 13.7968 8.5 15.1499 8.5C16.503 8.5 17.5999 10.067 17.5999 12Z" stroke="black" stroke-width="2" stroke-linecap="round" stroke-linejoin="round"/>
</svg>
