<svg width="24" height="24" viewBox="0 0 24 24" fill="none" xmlns="http://www.w3.org/2000/svg">
<path d="M9.40265 10.0643C9.66255 10.5516 10.2683 10.736 10.7556 10.4761C11.2429 10.2162 11.4273 9.61047 11.1674 9.12316L9.40265 10.0643ZM21 12C21 16.9706 16.9706 21 12 21V23C18.0751 23 23 18.0751 23 12H21ZM12 21C7.02944 21 3 16.9706 3 12H1C1 18.0751 5.92487 23 12 23V21ZM3 12C3 7.02944 7.02944 3 12 3V1C5.92487 1 1 5.92487 1 12H3ZM12 3C16.9706 3 21 7.02944 21 12H23C23 5.92487 18.0751 1 12 1V3ZM16.6 12C16.6 12.7865 16.3752 13.4556 16.0632 13.9014C15.7489 14.3504 15.4107 14.5 15.15 14.5V16.5C16.2424 16.5 17.1292 15.8661 17.7016 15.0483C18.2763 14.2274 18.6 13.1465 18.6 12H16.6ZM15.15 14.5C14.8893 14.5 14.5511 14.3504 14.2368 13.9014C13.9248 13.4556 13.7 12.7865 13.7 12H11.7C11.7 13.1465 12.0237 14.2274 12.5984 15.0483C13.1708 15.8661 14.0576 16.5 15.15 16.5V14.5ZM13.7 12C13.7 11.2135 13.9248 10.5444 14.2368 10.0986C14.5511 9.64964 14.8893 9.5 15.15 9.5V7.5C14.0576 7.5 13.1708 8.13387 12.5984 8.95166C12.0237 9.77262 11.7 10.8535 11.7 12H13.7ZM15.15 9.5C15.4107 9.5 15.7489 9.64964 16.0632 10.0986C16.3752 10.5444 16.6 11.2135 16.6 12H18.6C18.6 10.8535 18.2763 9.77262 17.7016 8.95166C17.1292 8.13387 16.2424 7.5 15.15 7.5V9.5ZM9.6 13.3125C9.6 14.0072 9.06943 14.5 8.5 14.5V16.5C10.2502 16.5 11.6 15.034 11.6 13.3125H9.6ZM8.5 14.5C7.93057 14.5 7.4 14.0072 7.4 13.3125H5.4C5.4 15.034 6.74984 16.5 8.5 16.5V14.5ZM7.4 13.3125C7.4 12.6178 7.93057 12.125 8.5 12.125V10.125C6.74984 10.125 5.4 11.591 5.4 13.3125H7.4ZM8.5 12.125C9.06943 12.125 9.6 12.6178 9.6 13.3125H11.6C11.6 11.591 10.2502 10.125 8.5 10.125V12.125ZM8.5 9.5C8.81393 9.5 9.18014 9.64714 9.40265 10.0643L11.1674 9.12316C10.5499 7.96536 9.44607 7.5 8.5 7.5V9.5ZM7.4 13.3125V11.125H5.4V13.3125H7.4ZM7.4 11.125C7.4 10.4385 7.59277 10.0356 7.78462 9.81863C7.97294 9.60564 8.22045 9.5 8.5 9.5V7.5C7.6741 7.5 6.87161 7.83186 6.28629 8.49387C5.70451 9.15187 5.4 10.0615 5.4 11.125H7.4Z" fill="black"/>
</svg>
