<svg width="24" height="24" viewBox="0 0 24 24" fill="none" xmlns="http://www.w3.org/2000/svg">
<path d="M2 14.25C2 16.3211 3.67893 18 5.75 18C7.82107 18 9.5 16.3211 9.5 14.25C9.5 12.1789 7.82107 10.5 5.75 10.5C3.67893 10.5 2 12.1789 2 14.25ZM2 14.25V10.5C2 7.5 3.77599 6 5.75 6C6.875 6 8.1875 6.525 8.9375 7.875M22 12C22 15.3137 20.0412 18 17.625 18C15.2088 18 13.25 15.3137 13.25 12C13.25 8.68629 15.2088 6 17.625 6C20.0412 6 22 8.68629 22 12Z" stroke="black" stroke-width="2" stroke-linecap="round" stroke-linejoin="round"/>
</svg>
