<svg width="24" height="24" viewBox="0 0 24 24" fill="none" xmlns="http://www.w3.org/2000/svg">
<path d="M11.952 11C11.3997 11 10.952 11.4477 10.952 12C10.952 12.5523 11.3997 13 11.952 13V11ZM8.33284 8.60321C8.18274 9.1347 8.49191 9.68725 9.02341 9.83736C9.5549 9.98746 10.1074 9.67829 10.2576 9.14679L8.33284 8.60321ZM9.95413 14.8256C9.78877 14.2986 9.22754 14.0055 8.70059 14.1709C8.17364 14.3362 7.88052 14.8975 8.04587 15.4244L9.95413 14.8256ZM21 12C21 16.9706 16.9706 21 12 21V23C18.0751 23 23 18.0751 23 12H21ZM12 21C7.02944 21 3 16.9706 3 12H1C1 18.0751 5.92487 23 12 23V21ZM3 12C3 7.02944 7.02944 3 12 3V1C5.92487 1 1 5.92487 1 12H3ZM12 3C16.9706 3 21 7.02944 21 12H23C23 5.92487 18.0751 1 12 1V3ZM13.6952 9.5C13.6952 10.2431 13.0041 11 11.952 11V13C13.9299 13 15.6952 11.5183 15.6952 9.5H13.6952ZM11.952 8C13.0041 8 13.6952 8.75692 13.6952 9.5H15.6952C15.6952 7.48166 13.9299 6 11.952 6V8ZM14 14.5C14 15.1522 13.2776 16 11.952 16V18C13.9932 18 16 16.6092 16 14.5H14ZM11.952 13C13.2776 13 14 13.8478 14 14.5H16C16 12.3908 13.9932 11 11.952 11V13ZM10.2576 9.14679C10.4287 8.54087 11.0766 8 11.952 8V6C10.2709 6 8.77077 7.05259 8.33284 8.60321L10.2576 9.14679ZM11.952 16C10.8639 16 10.1328 15.3949 9.95413 14.8256L8.04587 15.4244C8.54393 17.0116 10.1996 18 11.952 18V16Z" fill="black"/>
</svg>
