<svg width="24" height="24" viewBox="0 0 24 24" fill="none" xmlns="http://www.w3.org/2000/svg">
<path d="M9.25 6.5C8.69772 6.5 8.25 6.94772 8.25 7.5C8.25 8.05228 8.69772 8.5 9.25 8.5V6.5ZM15.25 7.5L16.1515 7.93273C16.3003 7.62287 16.2794 7.25834 16.0964 6.96743C15.9133 6.67652 15.5937 6.5 15.25 6.5V7.5ZM9.54848 17.0673C9.30949 17.5652 9.51937 18.1625 10.0173 18.4015C10.5152 18.6405 11.1125 18.4306 11.3515 17.9327L9.54848 17.0673ZM7 4H17V2H7V4ZM20 7V17H22V7H20ZM17 20H7V22H17V20ZM4 17V7H2V17H4ZM7 20C5.34315 20 4 18.6569 4 17H2C2 19.7614 4.23858 22 7 22V20ZM20 17C20 18.6569 18.6569 20 17 20V22C19.7614 22 22 19.7614 22 17H20ZM17 4C18.6569 4 20 5.34315 20 7H22C22 4.23858 19.7614 2 17 2V4ZM7 2C4.23858 2 2 4.23858 2 7H4C4 5.34315 5.34315 4 7 4V2ZM9.25 8.5H15.25V6.5H9.25V8.5ZM14.3485 7.06727L9.54848 17.0673L11.3515 17.9327L16.1515 7.93273L14.3485 7.06727Z" fill="black"/>
</svg>
