<svg width="24" height="24" viewBox="0 0 24 24" fill="none" xmlns="http://www.w3.org/2000/svg">
<path d="M12 22C17.5228 22 22 17.5228 22 12C22 6.47715 17.5228 2 12 2C6.47715 2 2 6.47715 2 12C2 17.5228 6.47715 22 12 22Z" stroke="black" stroke-width="2"/>
<path d="M17.6 12C17.6 13.933 16.5814 15.5 15.325 15.5C14.0686 15.5 13.05 13.933 13.05 12C13.05 10.067 14.0686 8.5 15.325 8.5C16.5814 8.5 17.6 10.067 17.6 12Z" stroke="black" stroke-width="2"/>
<path d="M10.95 12C10.95 13.933 9.93145 15.5 8.675 15.5C7.41855 15.5 6.4 13.933 6.4 12C6.4 10.067 7.41855 8.5 8.675 8.5C9.93145 8.5 10.95 10.067 10.95 12Z" stroke="black" stroke-width="2"/>
</svg>
