<svg width="24" height="24" viewBox="0 0 24 24" fill="none" xmlns="http://www.w3.org/2000/svg">
<path d="M9.25 12.3278L8.25691 12.2105C8.20376 12.6603 8.45958 13.0896 8.88046 13.257C9.30134 13.4244 9.78216 13.288 10.0524 12.9245L9.25 12.3278ZM10.0524 15.3255C9.72288 14.8823 9.09645 14.7902 8.65327 15.1198C8.2101 15.4493 8.11799 16.0758 8.44756 16.5189L10.0524 15.3255ZM9.85 7.25V6.25C9.34311 6.25 8.91639 6.62926 8.85691 7.13265L9.85 7.25ZM14.65 8.25C15.2023 8.25 15.65 7.80228 15.65 7.25C15.65 6.69772 15.2023 6.25 14.65 6.25V8.25ZM21 12C21 16.9706 16.9706 21 12 21V23C18.0751 23 23 18.0751 23 12H21ZM12 21C7.02944 21 3 16.9706 3 12H1C1 18.0751 5.92487 23 12 23V21ZM3 12C3 7.02944 7.02944 3 12 3V1C5.92487 1 1 5.92487 1 12H3ZM12 3C16.9706 3 21 7.02944 21 12H23C23 5.92487 18.0751 1 12 1V3ZM14.25 14.125C14.25 15.248 13.2723 16.25 11.95 16.25V18.25C14.2728 18.25 16.25 16.4538 16.25 14.125H14.25ZM11.95 12C13.2723 12 14.25 13.002 14.25 14.125H16.25C16.25 11.7962 14.2728 10 11.95 10V12ZM10.0524 12.9245C10.4609 12.3752 11.15 12 11.95 12V10C10.5178 10 9.23351 10.6742 8.44756 11.7311L10.0524 12.9245ZM11.95 16.25C11.15 16.25 10.4609 15.8748 10.0524 15.3255L8.44756 16.5189C9.23351 17.5758 10.5178 18.25 11.95 18.25V16.25ZM10.2431 12.4451L10.8431 7.36735L8.85691 7.13265L8.25691 12.2105L10.2431 12.4451ZM9.85 8.25H14.65V6.25H9.85V8.25Z" fill="black"/>
</svg>
