<svg width="24" height="24" viewBox="0 0 24 24" fill="none" xmlns="http://www.w3.org/2000/svg">
<path d="M9 13.875C9 15.6009 10.3431 17 12 17C13.6569 17 15 15.6009 15 13.875C15 12.1491 13.6569 10.75 12 10.75C10.3431 10.75 9 12.1491 9 13.875ZM9 13.875V10.75C9 8.25 10.4208 7 12 7C12.9 7 13.95 7.4375 14.55 8.5625M2 8.82843V15.1716C2 15.702 2.21071 16.2107 2.58579 16.5858L7.41421 21.4142C7.78929 21.7893 8.29799 22 8.82843 22H15.1716C15.702 22 16.2107 21.7893 16.5858 21.4142L21.4142 16.5858C21.7893 16.2107 22 15.702 22 15.1716V8.82843C22 8.29799 21.7893 7.78929 21.4142 7.41421L16.5858 2.58579C16.2107 2.21071 15.702 2 15.1716 2H8.82843C8.29799 2 7.78929 2.21071 7.41421 2.58579L2.58579 7.41421C2.21071 7.78929 2 8.29799 2 8.82843Z" stroke="black" stroke-width="2" stroke-linecap="round" stroke-linejoin="round"/>
</svg>
