<svg width="24" height="24" viewBox="0 0 24 24" fill="none" xmlns="http://www.w3.org/2000/svg">
<path d="M6.57495 7.5C6.02267 7.5 5.57495 7.94772 5.57495 8.5C5.57495 9.05228 6.02267 9.5 6.57495 9.5V7.5ZM10.775 8.5L11.6765 8.93273C11.8252 8.62287 11.8044 8.25834 11.6213 7.96743C11.4383 7.67652 11.1187 7.5 10.775 7.5V8.5ZM6.51343 15.0673C6.27444 15.5652 6.48432 16.1625 6.98222 16.4015C7.48012 16.6405 8.07748 16.4306 8.31647 15.9327L6.51343 15.0673ZM7 4H17V2H7V4ZM20 7V17H22V7H20ZM17 20H7V22H17V20ZM4 17V7H2V17H4ZM7 20C5.34315 20 4 18.6569 4 17H2C2 19.7614 4.23858 22 7 22V20ZM20 17C20 18.6569 18.6569 20 17 20V22C19.7614 22 22 19.7614 22 17H20ZM17 4C18.6569 4 20 5.34315 20 7H22C22 4.23858 19.7614 2 17 2V4ZM7 2C4.23858 2 2 4.23858 2 7H4C4 5.34315 5.34315 4 7 4V2ZM16.425 12C16.425 12.7865 16.2002 13.4556 15.8881 13.9014C15.5739 14.3504 15.2356 14.5 14.975 14.5V16.5C16.0674 16.5 16.9541 15.8661 17.5266 15.0483C18.1013 14.2274 18.425 13.1465 18.425 12H16.425ZM14.975 14.5C14.7143 14.5 14.376 14.3504 14.0618 13.9014C13.7497 13.4556 13.525 12.7865 13.525 12H11.525C11.525 13.1465 11.8486 14.2274 12.4233 15.0483C12.9958 15.8661 13.8825 16.5 14.975 16.5V14.5ZM13.525 12C13.525 11.2135 13.7497 10.5444 14.0618 10.0986C14.376 9.64964 14.7143 9.5 14.975 9.5V7.5C13.8825 7.5 12.9958 8.13387 12.4233 8.95166C11.8486 9.77262 11.525 10.8535 11.525 12H13.525ZM14.975 9.5C15.2356 9.5 15.5739 9.64964 15.8881 10.0986C16.2002 10.5444 16.425 11.2135 16.425 12H18.425C18.425 10.8535 18.1013 9.77262 17.5266 8.95166C16.9541 8.13387 16.0674 7.5 14.975 7.5V9.5ZM6.57495 9.5H10.775V7.5H6.57495V9.5ZM9.87343 8.06727L6.51343 15.0673L8.31647 15.9327L11.6765 8.93273L9.87343 8.06727Z" fill="black"/>
</svg>
