<svg width="24" height="24" viewBox="0 0 24 24" fill="none" xmlns="http://www.w3.org/2000/svg">
<path d="M6.4 12.267L5.40691 12.1496C5.35376 12.5994 5.60958 13.0288 6.03046 13.1962C6.45134 13.3636 6.93216 13.2271 7.20245 12.8637L6.4 12.267ZM7.20245 14.1863C6.87288 13.7431 6.24645 13.651 5.80327 13.9806C5.3601 14.3102 5.26799 14.9366 5.59756 15.3798L7.20245 14.1863ZM6.82 8.7125V7.7125C6.31311 7.7125 5.88639 8.09176 5.82691 8.59516L6.82 8.7125ZM10.18 9.7125C10.7323 9.7125 11.18 9.26479 11.18 8.7125C11.18 8.16022 10.7323 7.7125 10.18 7.7125V9.7125ZM21 12C21 16.9706 16.9706 21 12 21V23C18.0751 23 23 18.0751 23 12H21ZM12 21C7.02944 21 3 16.9706 3 12H1C1 18.0751 5.92487 23 12 23V21ZM3 12C3 7.02944 7.02944 3 12 3V1C5.92487 1 1 5.92487 1 12H3ZM12 3C16.9706 3 21 7.02944 21 12H23C23 5.92487 18.0751 1 12 1V3ZM16.6 12.0375C16.6 12.824 16.3752 13.4931 16.0632 13.9389C15.7489 14.3879 15.4107 14.5375 15.15 14.5375V16.5375C16.2424 16.5375 17.1292 15.9036 17.7016 15.0858C18.2763 14.2649 18.6 13.184 18.6 12.0375H16.6ZM15.15 14.5375C14.8893 14.5375 14.5511 14.3879 14.2368 13.9389C13.9248 13.4931 13.7 12.824 13.7 12.0375H11.7C11.7 13.184 12.0237 14.2649 12.5984 15.0858C13.1708 15.9036 14.0576 16.5375 15.15 16.5375V14.5375ZM13.7 12.0375C13.7 11.251 13.9248 10.5819 14.2368 10.1361C14.5511 9.68714 14.8893 9.5375 15.15 9.5375V7.5375C14.0576 7.5375 13.1708 8.17137 12.5984 8.98916C12.0237 9.81012 11.7 10.891 11.7 12.0375H13.7ZM15.15 9.5375C15.4107 9.5375 15.7489 9.68714 16.0632 10.1361C16.3752 10.5819 16.6 11.251 16.6 12.0375H18.6C18.6 10.891 18.2763 9.81012 17.7016 8.98916C17.1292 8.17137 16.2424 7.5375 15.15 7.5375V9.5375ZM9.6 13.525C9.6 14.1302 9.06553 14.7125 8.29 14.7125V16.7125C10.066 16.7125 11.6 15.3361 11.6 13.525H9.6ZM8.29 12.3375C9.06553 12.3375 9.6 12.9198 9.6 13.525H11.6C11.6 11.714 10.066 10.3375 8.29 10.3375V12.3375ZM7.20245 12.8637C7.43176 12.5553 7.82484 12.3375 8.29 12.3375V10.3375C7.19263 10.3375 6.20435 10.8543 5.59756 11.6702L7.20245 12.8637ZM8.29 14.7125C7.82484 14.7125 7.43176 14.4947 7.20245 14.1863L5.59756 15.3798C6.20435 16.1958 7.19263 16.7125 8.29 16.7125V14.7125ZM7.39309 12.3843L7.81309 8.82985L5.82691 8.59516L5.40691 12.1496L7.39309 12.3843ZM6.82 9.7125H10.18V7.7125H6.82V9.7125Z" fill="black"/>
</svg>
