<svg width="24" height="24" viewBox="0 0 24 24" fill="none" xmlns="http://www.w3.org/2000/svg">
<path d="M9.19995 15.5V8.87735C9.19995 8.54184 8.82295 8.37382 8.60246 8.61106L7.44995 9.85113M2 8.82843V15.1716C2 15.702 2.21071 16.2107 2.58579 16.5858L7.41421 21.4142C7.78929 21.7893 8.29799 22 8.82843 22H15.1716C15.702 22 16.2107 21.7893 16.5858 21.4142L21.4142 16.5858C21.7893 16.2107 22 15.702 22 15.1716V8.82843C22 8.29799 21.7893 7.78929 21.4142 7.41421L16.5858 2.58579C16.2107 2.21071 15.702 2 15.1716 2H8.82843C8.29799 2 7.78929 2.21071 7.41421 2.58579L2.58579 7.41421C2.21071 7.78929 2 8.29799 2 8.82843ZM16.55 12C16.55 13.933 15.453 15.5 14.1 15.5C12.7469 15.5 11.65 13.933 11.65 12C11.65 10.067 12.7469 8.5 14.1 8.5C15.453 8.5 16.55 10.067 16.55 12Z" stroke="black" stroke-width="2" stroke-linecap="round"/>
</svg>
