<svg width="24" height="24" viewBox="0 0 24 24" fill="none" xmlns="http://www.w3.org/2000/svg">
<path d="M8.5 12C9.54382 12 10.39 11.2165 10.39 10.25C10.39 9.2835 9.54382 8.5 8.5 8.5C7.45618 8.5 6.61 9.2835 6.61 10.25C6.61 11.2165 7.45618 12 8.5 12ZM8.5 12C7.3402 12 6.4 12.7835 6.4 13.75C6.4 14.7165 7.3402 15.5 8.5 15.5C9.6598 15.5 10.6 14.7165 10.6 13.75C10.6 12.7835 9.6598 12 8.5 12ZM22 12C22 17.5228 17.5228 22 12 22C6.47715 22 2 17.5228 2 12C2 6.47715 6.47715 2 12 2C17.5228 2 22 6.47715 22 12ZM17.6 12C17.6 13.933 16.5031 15.5 15.15 15.5C13.7969 15.5 12.7 13.933 12.7 12C12.7 10.067 13.7969 8.5 15.15 8.5C16.5031 8.5 17.6 10.067 17.6 12Z" stroke="black" stroke-width="2"/>
</svg>
