<svg width="24" height="24" viewBox="0 0 24 24" fill="none" xmlns="http://www.w3.org/2000/svg">
<path d="M9.40255 10.0643C9.66245 10.5516 10.2682 10.736 10.7555 10.4761C11.2428 10.2162 11.4272 9.61047 11.1673 9.12316L9.40255 10.0643ZM7 4H17V2H7V4ZM20 7V17H22V7H20ZM17 20H7V22H17V20ZM4 17V7H2V17H4ZM7 20C5.34315 20 4 18.6569 4 17H2C2 19.7614 4.23858 22 7 22V20ZM20 17C20 18.6569 18.6569 20 17 20V22C19.7614 22 22 19.7614 22 17H20ZM17 4C18.6569 4 20 5.34315 20 7H22C22 4.23858 19.7614 2 17 2V4ZM7 2C4.23858 2 2 4.23858 2 7H4C4 5.34315 5.34315 4 7 4V2ZM16.5999 12C16.5999 12.7865 16.3751 13.4556 16.0631 13.9014C15.7488 14.3504 15.4106 14.5 15.1499 14.5V16.5C16.2423 16.5 17.1291 15.8661 17.7015 15.0483C18.2762 14.2274 18.5999 13.1465 18.5999 12H16.5999ZM15.1499 14.5C14.8892 14.5 14.551 14.3504 14.2367 13.9014C13.9247 13.4556 13.6999 12.7865 13.6999 12H11.6999C11.6999 13.1465 12.0236 14.2274 12.5983 15.0483C13.1707 15.8661 14.0575 16.5 15.1499 16.5V14.5ZM13.6999 12C13.6999 11.2135 13.9247 10.5444 14.2367 10.0986C14.551 9.64964 14.8892 9.5 15.1499 9.5V7.5C14.0575 7.5 13.1707 8.13387 12.5983 8.95166C12.0236 9.77262 11.6999 10.8535 11.6999 12H13.6999ZM15.1499 9.5C15.4106 9.5 15.7488 9.64964 16.0631 10.0986C16.3751 10.5444 16.5999 11.2135 16.5999 12H18.5999C18.5999 10.8535 18.2762 9.77262 17.7015 8.95166C17.1291 8.13387 16.2423 7.5 15.1499 7.5V9.5ZM9.5999 13.3125C9.5999 14.0072 9.06933 14.5 8.4999 14.5V16.5C10.2501 16.5 11.5999 15.034 11.5999 13.3125H9.5999ZM8.4999 14.5C7.93047 14.5 7.3999 14.0072 7.3999 13.3125H5.3999C5.3999 15.034 6.74974 16.5 8.4999 16.5V14.5ZM7.3999 13.3125C7.3999 12.6178 7.93047 12.125 8.4999 12.125V10.125C6.74974 10.125 5.3999 11.591 5.3999 13.3125H7.3999ZM8.4999 12.125C9.06933 12.125 9.5999 12.6178 9.5999 13.3125H11.5999C11.5999 11.591 10.2501 10.125 8.4999 10.125V12.125ZM8.4999 9.5C8.81383 9.5 9.18004 9.64714 9.40255 10.0643L11.1673 9.12316C10.5498 7.96536 9.44597 7.5 8.4999 7.5V9.5ZM7.3999 13.3125V11.125H5.3999V13.3125H7.3999ZM7.3999 11.125C7.3999 10.4385 7.59267 10.0356 7.78453 9.81863C7.97284 9.60564 8.22036 9.5 8.4999 9.5V7.5C7.67401 7.5 6.87152 7.83186 6.28619 8.49387C5.70441 9.15187 5.3999 10.0615 5.3999 11.125H7.3999Z" fill="black"/>
</svg>
