<svg width="24" height="24" viewBox="0 0 24 24" fill="none" xmlns="http://www.w3.org/2000/svg">
<path d="M11.952 11C11.3997 11 10.952 11.4477 10.952 12C10.952 12.5523 11.3997 13 11.952 13V11ZM8.33284 8.60321C8.18274 9.1347 8.49191 9.68725 9.02341 9.83736C9.5549 9.98746 10.1075 9.67829 10.2576 9.14679L8.33284 8.60321ZM9.95413 14.8256C9.78877 14.2986 9.22754 14.0055 8.70059 14.1709C8.17364 14.3362 7.88052 14.8975 8.04587 15.4244L9.95413 14.8256ZM7 4H17V2H7V4ZM20 7V17H22V7H20ZM17 20H7V22H17V20ZM4 17V7H2V17H4ZM7 20C5.34315 20 4 18.6569 4 17H2C2 19.7614 4.23858 22 7 22V20ZM20 17C20 18.6569 18.6569 20 17 20V22C19.7614 22 22 19.7614 22 17H20ZM17 4C18.6569 4 20 5.34315 20 7H22C22 4.23858 19.7614 2 17 2V4ZM7 2C4.23858 2 2 4.23858 2 7H4C4 5.34315 5.34315 4 7 4V2ZM13.6952 9.5C13.6952 10.2431 13.0041 11 11.952 11V13C13.9299 13 15.6952 11.5183 15.6952 9.5H13.6952ZM11.952 8C13.0041 8 13.6952 8.75692 13.6952 9.5H15.6952C15.6952 7.48166 13.9299 6 11.952 6V8ZM14 14.5C14 15.1522 13.2776 16 11.952 16V18C13.9932 18 16 16.6092 16 14.5H14ZM11.952 13C13.2776 13 14 13.8478 14 14.5H16C16 12.3908 13.9932 11 11.952 11V13ZM10.2576 9.14679C10.4287 8.54087 11.0766 8 11.952 8V6C10.2709 6 8.77077 7.05259 8.33284 8.60321L10.2576 9.14679ZM11.952 16C10.8639 16 10.1328 15.3949 9.95413 14.8256L8.04587 15.4244C8.54393 17.0116 10.1996 18 11.952 18V16Z" fill="black"/>
</svg>
