<svg width="24" height="24" viewBox="0 0 24 24" fill="none" xmlns="http://www.w3.org/2000/svg">
<path d="M12 12C13.4912 12 14.7 10.8807 14.7 9.5C14.7 8.11929 13.4912 7 12 7C10.5088 7 9.3 8.11929 9.3 9.5C9.3 10.8807 10.5088 12 12 12ZM12 12C10.3431 12 9 13.1193 9 14.5C9 15.8807 10.3431 17 12 17C13.6569 17 15 15.8807 15 14.5C15 13.1193 13.6569 12 12 12ZM22 12C22 17.5228 17.5228 22 12 22C6.47715 22 2 17.5228 2 12C2 6.47715 6.47715 2 12 2C17.5228 2 22 6.47715 22 12Z" stroke="black" stroke-width="2"/>
</svg>
