<svg width="24" height="24" viewBox="0 0 24 24" fill="none" xmlns="http://www.w3.org/2000/svg">
<path d="M8.46629 11C7.91401 11 7.46629 11.4477 7.46629 12C7.46629 12.5523 7.91401 13 8.46629 13V11ZM5.64418 9.54071C5.49408 10.0722 5.80326 10.6248 6.33475 10.7749C6.86625 10.925 7.41879 10.6158 7.5689 10.0843L5.64418 9.54071ZM7.35403 13.8881C7.18867 13.3611 6.62745 13.068 6.1005 13.2334C5.57355 13.3987 5.28042 13.96 5.44578 14.4869L7.35403 13.8881ZM7 4H17V2H7V4ZM20 7V17H22V7H20ZM17 20H7V22H17V20ZM4 17V7H2V17H4ZM7 20C5.34315 20 4 18.6569 4 17H2C2 19.7614 4.23858 22 7 22V20ZM20 17C20 18.6569 18.6569 20 17 20V22C19.7614 22 22 19.7614 22 17H20ZM17 4C18.6569 4 20 5.34315 20 7H22C22 4.23858 19.7614 2 17 2V4ZM7 2C4.23858 2 2 4.23858 2 7H4C4 5.34315 5.34315 4 7 4V2ZM16.5999 12C16.5999 12.7865 16.3751 13.4556 16.0631 13.9014C15.7488 14.3504 15.4106 14.5 15.1499 14.5V16.5C16.2423 16.5 17.1291 15.8661 17.7015 15.0483C18.2762 14.2274 18.5999 13.1465 18.5999 12H16.5999ZM15.1499 14.5C14.8892 14.5 14.551 14.3504 14.2367 13.9014C13.9247 13.4556 13.6999 12.7865 13.6999 12H11.6999C11.6999 13.1465 12.0236 14.2274 12.5983 15.0483C13.1707 15.8661 14.0575 16.5 15.1499 16.5V14.5ZM13.6999 12C13.6999 11.2135 13.9247 10.5444 14.2367 10.0986C14.551 9.64964 14.8892 9.5 15.1499 9.5V7.5C14.0575 7.5 13.1707 8.13387 12.5983 8.95166C12.0236 9.77262 11.6999 10.8535 11.6999 12H13.6999ZM15.1499 9.5C15.4106 9.5 15.7488 9.64964 16.0631 10.0986C16.3751 10.5444 16.5999 11.2135 16.5999 12H18.5999C18.5999 10.8535 18.2762 9.77262 17.7015 8.95166C17.1291 8.13387 16.2423 7.5 15.1499 7.5V9.5ZM9.38654 10.25C9.38654 10.5789 9.06393 11 8.46629 11V13C9.9897 13 11.3865 11.8541 11.3865 10.25H9.38654ZM8.46629 9.5C9.06393 9.5 9.38654 9.92113 9.38654 10.25H11.3865C11.3865 8.64587 9.9897 7.5 8.46629 7.5V9.5ZM9.5999 13.75C9.5999 13.988 9.28685 14.5 8.46629 14.5V16.5C10.0025 16.5 11.5999 15.445 11.5999 13.75H9.5999ZM8.46629 13C9.28685 13 9.5999 13.512 9.5999 13.75H11.5999C11.5999 12.055 10.0025 11 8.46629 11V13ZM7.5689 10.0843C7.64866 9.80185 7.9744 9.5 8.46629 9.5V7.5C7.16867 7.5 5.99075 8.31357 5.64418 9.54071L7.5689 10.0843ZM8.46629 14.5C7.80429 14.5 7.43118 14.134 7.35403 13.8881L5.44578 14.4869C5.84233 15.7506 7.13994 16.5 8.46629 16.5V14.5Z" fill="black"/>
</svg>
