<svg width="24" height="24" viewBox="0 0 24 24" fill="none" xmlns="http://www.w3.org/2000/svg">
<path d="M12 12C13.4912 12 14.7 10.8807 14.7 9.5C14.7 8.11929 13.4912 7 12 7C10.5088 7 9.3 8.11929 9.3 9.5C9.3 10.8807 10.5088 12 12 12ZM12 12C10.3431 12 9 13.1193 9 14.5C9 15.8807 10.3431 17 12 17C13.6569 17 15 15.8807 15 14.5C15 13.1193 13.6569 12 12 12ZM2 8.82843V15.1716C2 15.702 2.21071 16.2107 2.58579 16.5858L7.41421 21.4142C7.78929 21.7893 8.29799 22 8.82843 22H15.1716C15.702 22 16.2107 21.7893 16.5858 21.4142L21.4142 16.5858C21.7893 16.2107 22 15.702 22 15.1716V8.82843C22 8.29799 21.7893 7.78929 21.4142 7.41421L16.5858 2.58579C16.2107 2.21071 15.702 2 15.1716 2H8.82843C8.29799 2 7.78929 2.21071 7.41421 2.58579L2.58579 7.41421C2.21071 7.78929 2 8.29799 2 8.82843Z" stroke="black" stroke-width="2"/>
</svg>
