<svg width="24" height="24" viewBox="0 0 24 24" fill="none" xmlns="http://www.w3.org/2000/svg">
<path d="M12 12C13.4912 12 14.7 10.8807 14.7 9.5C14.7 8.11929 13.4912 7 12 7C10.5088 7 9.3 8.11929 9.3 9.5C9.3 10.8807 10.5088 12 12 12ZM12 12C10.3431 12 9 13.1193 9 14.5C9 15.8807 10.3431 17 12 17C13.6569 17 15 15.8807 15 14.5C15 13.1193 13.6569 12 12 12ZM7 21H17C19.2091 21 21 19.2091 21 17V7C21 4.79086 19.2091 3 17 3H7C4.79086 3 3 4.79086 3 7V17C3 19.2091 4.79086 21 7 21Z" stroke="black" stroke-width="2"/>
</svg>
