<svg width="24" height="24" viewBox="0 0 24 24" fill="none" xmlns="http://www.w3.org/2000/svg">
<path d="M6.575 7.5C6.02272 7.5 5.575 7.94772 5.575 8.5C5.575 9.05228 6.02272 9.5 6.575 9.5V7.5ZM10.775 8.5L11.6765 8.93273C11.8253 8.62287 11.8044 8.25834 11.6214 7.96743C11.4383 7.67652 11.1187 7.5 10.775 7.5V8.5ZM6.51348 15.0673C6.27449 15.5652 6.48437 16.1625 6.98227 16.4015C7.48017 16.6405 8.07753 16.4306 8.31652 15.9327L6.51348 15.0673ZM21 12C21 16.9706 16.9706 21 12 21V23C18.0751 23 23 18.0751 23 12H21ZM12 21C7.02944 21 3 16.9706 3 12H1C1 18.0751 5.92487 23 12 23V21ZM3 12C3 7.02944 7.02944 3 12 3V1C5.92487 1 1 5.92487 1 12H3ZM12 3C16.9706 3 21 7.02944 21 12H23C23 5.92487 18.0751 1 12 1V3ZM16.425 12C16.425 12.7865 16.2002 13.4556 15.8882 13.9014C15.5739 14.3504 15.2357 14.5 14.975 14.5V16.5C16.0674 16.5 16.9542 15.8661 17.5266 15.0483C18.1013 14.2274 18.425 13.1465 18.425 12H16.425ZM14.975 14.5C14.7143 14.5 14.3761 14.3504 14.0618 13.9014C13.7498 13.4556 13.525 12.7865 13.525 12H11.525C11.525 13.1465 11.8487 14.2274 12.4234 15.0483C12.9958 15.8661 13.8826 16.5 14.975 16.5V14.5ZM13.525 12C13.525 11.2135 13.7498 10.5444 14.0618 10.0986C14.3761 9.64964 14.7143 9.5 14.975 9.5V7.5C13.8826 7.5 12.9958 8.13387 12.4234 8.95166C11.8487 9.77262 11.525 10.8535 11.525 12H13.525ZM14.975 9.5C15.2357 9.5 15.5739 9.64964 15.8882 10.0986C16.2002 10.5444 16.425 11.2135 16.425 12H18.425C18.425 10.8535 18.1013 9.77262 17.5266 8.95166C16.9542 8.13387 16.0674 7.5 14.975 7.5V9.5ZM6.575 9.5H10.775V7.5H6.575V9.5ZM9.87348 8.06727L6.51348 15.0673L8.31652 15.9327L11.6765 8.93273L9.87348 8.06727Z" fill="black"/>
</svg>
