<svg width="24" height="24" viewBox="0 0 24 24" fill="none" xmlns="http://www.w3.org/2000/svg">
<path d="M8.46639 11C7.91411 11 7.46639 11.4477 7.46639 12C7.46639 12.5523 7.91411 13 8.46639 13V11ZM5.64428 9.54071C5.49418 10.0722 5.80335 10.6248 6.33485 10.7749C6.86634 10.925 7.41889 10.6158 7.569 10.0843L5.64428 9.54071ZM7.35413 13.8881C7.18877 13.3611 6.62754 13.068 6.10059 13.2334C5.57364 13.3987 5.28052 13.96 5.44587 14.4869L7.35413 13.8881ZM21 12C21 16.9706 16.9706 21 12 21V23C18.0751 23 23 18.0751 23 12H21ZM12 21C7.02944 21 3 16.9706 3 12H1C1 18.0751 5.92487 23 12 23V21ZM3 12C3 7.02944 7.02944 3 12 3V1C5.92487 1 1 5.92487 1 12H3ZM12 3C16.9706 3 21 7.02944 21 12H23C23 5.92487 18.0751 1 12 1V3ZM16.6 12C16.6 12.7865 16.3752 13.4556 16.0632 13.9014C15.7489 14.3504 15.4107 14.5 15.15 14.5V16.5C16.2424 16.5 17.1292 15.8661 17.7016 15.0483C18.2763 14.2274 18.6 13.1465 18.6 12H16.6ZM15.15 14.5C14.8893 14.5 14.5511 14.3504 14.2368 13.9014C13.9248 13.4556 13.7 12.7865 13.7 12H11.7C11.7 13.1465 12.0237 14.2274 12.5984 15.0483C13.1708 15.8661 14.0576 16.5 15.15 16.5V14.5ZM13.7 12C13.7 11.2135 13.9248 10.5444 14.2368 10.0986C14.5511 9.64964 14.8893 9.5 15.15 9.5V7.5C14.0576 7.5 13.1708 8.13387 12.5984 8.95166C12.0237 9.77262 11.7 10.8535 11.7 12H13.7ZM15.15 9.5C15.4107 9.5 15.7489 9.64964 16.0632 10.0986C16.3752 10.5444 16.6 11.2135 16.6 12H18.6C18.6 10.8535 18.2763 9.77262 17.7016 8.95166C17.1292 8.13387 16.2424 7.5 15.15 7.5V9.5ZM9.38664 10.25C9.38664 10.5789 9.06403 11 8.46639 11V13C9.9898 13 11.3866 11.8541 11.3866 10.25H9.38664ZM8.46639 9.5C9.06403 9.5 9.38664 9.92113 9.38664 10.25H11.3866C11.3866 8.64587 9.9898 7.5 8.46639 7.5V9.5ZM9.6 13.75C9.6 13.988 9.28695 14.5 8.46639 14.5V16.5C10.0026 16.5 11.6 15.445 11.6 13.75H9.6ZM8.46639 13C9.28695 13 9.6 13.512 9.6 13.75H11.6C11.6 12.055 10.0026 11 8.46639 11V13ZM7.569 10.0843C7.64876 9.80185 7.9745 9.5 8.46639 9.5V7.5C7.16877 7.5 5.99085 8.31357 5.64428 9.54071L7.569 10.0843ZM8.46639 14.5C7.80439 14.5 7.43128 14.134 7.35413 13.8881L5.44587 14.4869C5.84243 15.7506 7.14004 16.5 8.46639 16.5V14.5Z" fill="black"/>
</svg>
