<svg width="24" height="24" viewBox="0 0 24 24" fill="none" xmlns="http://www.w3.org/2000/svg">
<path d="M8.05604 10.2955C8.15023 10.8397 8.66774 11.2045 9.21193 11.1103C9.75613 11.0162 10.1209 10.4986 10.0267 9.95446L8.05604 10.2955ZM14.9902 10.125L13.994 10.0388L14.9902 10.125ZM9.04139 17L8.04139 17C8.04139 17.5523 8.48911 18 9.04139 18V17ZM14.9902 18C15.5425 18 15.9902 17.5523 15.9902 17C15.9902 16.4477 15.5425 16 14.9902 16V18ZM21 12C21 16.9706 16.9706 21 12 21V23C18.0751 23 23 18.0751 23 12H21ZM12 21C7.02944 21 3 16.9706 3 12H1C1 18.0751 5.92487 23 12 23V21ZM3 12C3 7.02944 7.02944 3 12 3V1C5.92487 1 1 5.92487 1 12H3ZM12 3C16.9706 3 21 7.02944 21 12H23C23 5.92487 18.0751 1 12 1V3ZM10.0267 9.95446C9.85605 8.96827 10.5734 8 12.0158 8V6C9.59141 6 7.63177 7.84423 8.05604 10.2955L10.0267 9.95446ZM12.0158 8C13.2198 8 14.0802 9.04159 13.994 10.0388L15.9865 10.2112C16.1749 8.03461 14.3812 6 12.0158 6V8ZM13.994 10.0388C13.9481 10.5692 13.7168 10.9236 13.3051 11.2577C12.8376 11.637 12.2336 11.919 11.4486 12.3208C10.7237 12.6918 9.86071 13.1606 9.19306 13.8865C8.48715 14.6539 8.04138 15.6579 8.04139 17L10.0414 17C10.0414 16.1546 10.302 15.6351 10.6651 15.2405C11.0663 14.8042 11.6348 14.4723 12.3599 14.1011C13.025 13.7607 13.8895 13.3591 14.5653 12.8107C15.2969 12.217 15.8837 11.3996 15.9865 10.2112L13.994 10.0388ZM9.04139 18H14.9902V16H9.04139V18Z" fill="black"/>
</svg>
