<svg width="24" height="24" viewBox="0 0 24 24" fill="none" xmlns="http://www.w3.org/2000/svg">
<path d="M9.2 15.5V8.87735C9.2 8.54184 8.823 8.37382 8.60251 8.61106L7.45 9.85113M22 12C22 17.5228 17.5228 22 12 22C6.47715 22 2 17.5228 2 12C2 6.47715 6.47715 2 12 2C17.5228 2 22 6.47715 22 12ZM16.55 12C16.55 13.933 15.4531 15.5 14.1 15.5C12.7469 15.5 11.65 13.933 11.65 12C11.65 10.067 12.7469 8.5 14.1 8.5C15.4531 8.5 16.55 10.067 16.55 12Z" stroke="black" stroke-width="2" stroke-linecap="round"/>
</svg>
