<svg width="24" height="24" viewBox="0 0 24 24" fill="none" xmlns="http://www.w3.org/2000/svg">
<path d="M6.3999 14.7831C6.81796 15.3453 7.50864 15.7126 8.2899 15.7126C9.56568 15.7126 10.5999 14.7332 10.5999 13.5251C10.5999 12.317 9.56568 11.3376 8.2899 11.3376C7.50864 11.3376 6.81796 11.7049 6.3999 12.2671L6.8199 8.7126H10.1799M2 8.82843V15.1716C2 15.702 2.21071 16.2107 2.58579 16.5858L7.41421 21.4142C7.78929 21.7893 8.29799 22 8.82843 22H15.1716C15.702 22 16.2107 21.7893 16.5858 21.4142L21.4142 16.5858C21.7893 16.2107 22 15.702 22 15.1716V8.82843C22 8.29799 21.7893 7.78929 21.4142 7.41421L16.5858 2.58579C16.2107 2.21071 15.702 2 15.1716 2H8.82843C8.29799 2 7.78929 2.21071 7.41421 2.58579L2.58579 7.41421C2.21071 7.78929 2 8.29799 2 8.82843ZM17.5999 12.0376C17.5999 13.9706 16.503 15.5376 15.1499 15.5376C13.7968 15.5376 12.6999 13.9706 12.6999 12.0376C12.6999 10.1046 13.7968 8.5376 15.1499 8.5376C16.503 8.5376 17.5999 10.1046 17.5999 12.0376Z" stroke="black" stroke-width="2" stroke-linecap="round" stroke-linejoin="round"/>
</svg>
