<svg width="24" height="24" viewBox="0 0 24 24" fill="none" xmlns="http://www.w3.org/2000/svg">
<path d="M5.75 12C7.61396 12 9.125 10.6569 9.125 9C9.125 7.34315 7.61396 6 5.75 6C3.88604 6 2.375 7.34315 2.375 9C2.375 10.6569 3.88604 12 5.75 12ZM5.75 12C3.67893 12 2 13.3431 2 15C2 16.6569 3.67893 18 5.75 18C7.82107 18 9.5 16.6569 9.5 15C9.5 13.3431 7.82107 12 5.75 12ZM22 12C22 15.3137 20.0412 18 17.625 18C15.2088 18 13.25 15.3137 13.25 12C13.25 8.68629 15.2088 6 17.625 6C20.0412 6 22 8.68629 22 12Z" stroke="black" stroke-width="2"/>
</svg>
