<svg width="24" height="24" viewBox="0 0 24 24" fill="none" xmlns="http://www.w3.org/2000/svg">
<path d="M2 15.1716V8.82843C2 8.29799 2.21071 7.78929 2.58579 7.41421L7.41421 2.58579C7.78929 2.21071 8.29799 2 8.82843 2H15.1716C15.702 2 16.2107 2.21071 16.5858 2.58579L21.4142 7.41421C21.7893 7.78929 22 8.29799 22 8.82843V15.1716C22 15.702 21.7893 16.2107 21.4142 16.5858L16.5858 21.4142C16.2107 21.7893 15.702 22 15.1716 22H8.82843C8.29799 22 7.78929 21.7893 7.41421 21.4142L2.58579 16.5858C2.21071 16.2107 2 15.702 2 15.1716Z" stroke="black" stroke-width="2"/>
<path d="M17.5999 12C17.5999 13.933 16.5814 15.5 15.3249 15.5C14.0685 15.5 13.0499 13.933 13.0499 12C13.0499 10.067 14.0685 8.5 15.3249 8.5C16.5814 8.5 17.5999 10.067 17.5999 12Z" stroke="black" stroke-width="2"/>
<path d="M10.9499 12C10.9499 13.933 9.93135 15.5 8.6749 15.5C7.41845 15.5 6.3999 13.933 6.3999 12C6.3999 10.067 7.41845 8.5 8.6749 8.5C9.93135 8.5 10.9499 10.067 10.9499 12Z" stroke="black" stroke-width="2"/>
</svg>
