<svg width="24" height="24" viewBox="0 0 24 24" fill="none" xmlns="http://www.w3.org/2000/svg">
<path d="M8.05604 10.2955C8.15023 10.8397 8.66774 11.2045 9.21193 11.1103C9.75613 11.0162 10.1209 10.4987 10.0267 9.95446L8.05604 10.2955ZM14.9902 10.125L13.994 10.0388L14.9902 10.125ZM9.04139 17L8.04139 17C8.04139 17.5523 8.48911 18 9.04139 18V17ZM14.9902 18C15.5425 18 15.9902 17.5523 15.9902 17C15.9902 16.4477 15.5425 16 14.9902 16V18ZM7 4H17V2H7V4ZM20 7V17H22V7H20ZM17 20H7V22H17V20ZM4 17V7H2V17H4ZM7 20C5.34315 20 4 18.6569 4 17H2C2 19.7614 4.23858 22 7 22V20ZM20 17C20 18.6569 18.6569 20 17 20V22C19.7614 22 22 19.7614 22 17H20ZM17 4C18.6569 4 20 5.34315 20 7H22C22 4.23858 19.7614 2 17 2V4ZM7 2C4.23858 2 2 4.23858 2 7H4C4 5.34315 5.34315 4 7 4V2ZM10.0267 9.95446C9.85605 8.96827 10.5734 8 12.0158 8V6C9.59141 6 7.63177 7.84423 8.05604 10.2955L10.0267 9.95446ZM12.0158 8C13.2198 8 14.0802 9.04159 13.994 10.0388L15.9865 10.2112C16.1749 8.03461 14.3812 6 12.0158 6V8ZM13.994 10.0388C13.9481 10.5692 13.7168 10.9236 13.3051 11.2577C12.8376 11.637 12.2336 11.919 11.4486 12.3208C10.7237 12.6918 9.86071 13.1606 9.19306 13.8865C8.48715 14.6539 8.04138 15.6579 8.04139 17L10.0414 17C10.0414 16.1546 10.302 15.6351 10.6651 15.2405C11.0663 14.8042 11.6348 14.4723 12.3599 14.1011C13.025 13.7607 13.8895 13.3591 14.5653 12.8107C15.2969 12.217 15.8837 11.3996 15.9865 10.2112L13.994 10.0388ZM9.04139 18H14.9902V16H9.04139V18Z" fill="black"/>
</svg>
