<svg width="24" height="24" viewBox="0 0 24 24" fill="none" xmlns="http://www.w3.org/2000/svg">
<path d="M9.25 6.5C8.69772 6.5 8.25 6.94772 8.25 7.5C8.25 8.05228 8.69772 8.5 9.25 8.5V6.5ZM15.25 7.5L16.1515 7.93273C16.3003 7.62287 16.2794 7.25834 16.0964 6.96743C15.9133 6.67652 15.5937 6.5 15.25 6.5V7.5ZM9.54848 17.0673C9.30949 17.5652 9.51937 18.1625 10.0173 18.4015C10.5152 18.6405 11.1125 18.4306 11.3515 17.9327L9.54848 17.0673ZM21 12C21 16.9706 16.9706 21 12 21V23C18.0751 23 23 18.0751 23 12H21ZM12 21C7.02944 21 3 16.9706 3 12H1C1 18.0751 5.92487 23 12 23V21ZM3 12C3 7.02944 7.02944 3 12 3V1C5.92487 1 1 5.92487 1 12H3ZM12 3C16.9706 3 21 7.02944 21 12H23C23 5.92487 18.0751 1 12 1V3ZM9.25 8.5H15.25V6.5H9.25V8.5ZM14.3485 7.06727L9.54848 17.0673L11.3515 17.9327L16.1515 7.93273L14.3485 7.06727Z" fill="black"/>
</svg>
