<svg width="24" height="24" viewBox="0 0 24 24" fill="none" xmlns="http://www.w3.org/2000/svg">
<path d="M3 7C3 4.79086 4.79086 3 7 3H17C19.2091 3 21 4.79086 21 7V17C21 19.2091 19.2091 21 17 21H7C4.79086 21 3 19.2091 3 17V7Z" stroke="black" stroke-width="2"/>
<path d="M17.5999 12C17.5999 13.933 16.5814 15.5 15.3249 15.5C14.0685 15.5 13.0499 13.933 13.0499 12C13.0499 10.067 14.0685 8.5 15.3249 8.5C16.5814 8.5 17.5999 10.067 17.5999 12Z" stroke="black" stroke-width="2"/>
<path d="M10.9499 12C10.9499 13.933 9.93135 15.5 8.6749 15.5C7.41845 15.5 6.3999 13.933 6.3999 12C6.3999 10.067 7.41845 8.5 8.6749 8.5C9.93135 8.5 10.9499 10.067 10.9499 12Z" stroke="black" stroke-width="2"/>
</svg>
