<svg width="24" height="24" viewBox="0 0 24 24" fill="none" xmlns="http://www.w3.org/2000/svg">
<path d="M5.44362 10.858C5.53781 11.4022 6.05532 11.767 6.59952 11.6728C7.14371 11.5787 7.50851 11.0611 7.41432 10.517L5.44362 10.858ZM10.5932 10.6875L9.59689 10.6013L10.5932 10.6875ZM6.42897 15.5L5.42897 15.5C5.42898 16.0523 5.87669 16.5 6.42897 16.5V15.5ZM10.5932 16.5C11.1454 16.5 11.5932 16.0523 11.5932 15.5C11.5932 14.9477 11.1454 14.5 10.5932 14.5V16.5ZM21 12C21 16.9706 16.9706 21 12 21V23C18.0751 23 23 18.0751 23 12H21ZM12 21C7.02944 21 3 16.9706 3 12H1C1 18.0751 5.92487 23 12 23V21ZM3 12C3 7.02944 7.02944 3 12 3V1C5.92487 1 1 5.92487 1 12H3ZM12 3C16.9706 3 21 7.02944 21 12H23C23 5.92487 18.0751 1 12 1V3ZM7.41432 10.517C7.33288 10.0464 7.64867 9.5 8.51107 9.5V7.5C6.66669 7.5 5.10859 8.92235 5.44362 10.858L7.41432 10.517ZM8.51107 9.5C9.17965 9.5 9.64198 10.0802 9.59689 10.6013L11.5894 10.7737C11.7366 9.07318 10.341 7.5 8.51107 7.5V9.5ZM9.59689 10.6013C9.5733 10.8739 9.46477 11.0525 9.22457 11.2474C8.92856 11.4876 8.54477 11.6671 7.97736 11.9575C7.46995 12.2172 6.82166 12.5659 6.31434 13.1174C5.76878 13.7106 5.42896 14.4861 5.42897 15.5L7.42897 15.5C7.42897 14.9827 7.58365 14.6918 7.78634 14.4714C8.02727 14.2095 8.38099 13.9976 8.88861 13.7378C9.33622 13.5087 9.98047 13.2097 10.4848 12.8004C11.0449 12.3459 11.5089 11.7043 11.5894 10.7737L9.59689 10.6013ZM6.42897 16.5H10.5932V14.5H6.42897V16.5ZM16.6 12C16.6 12.7865 16.3752 13.4556 16.0632 13.9014C15.7489 14.3504 15.4107 14.5 15.15 14.5V16.5C16.2424 16.5 17.1292 15.8661 17.7016 15.0483C18.2763 14.2274 18.6 13.1465 18.6 12H16.6ZM15.15 14.5C14.8893 14.5 14.5511 14.3504 14.2368 13.9014C13.9248 13.4556 13.7 12.7865 13.7 12H11.7C11.7 13.1465 12.0237 14.2274 12.5984 15.0483C13.1708 15.8661 14.0576 16.5 15.15 16.5V14.5ZM13.7 12C13.7 11.2135 13.9248 10.5444 14.2368 10.0986C14.5511 9.64964 14.8893 9.5 15.15 9.5V7.5C14.0576 7.5 13.1708 8.13387 12.5984 8.95166C12.0237 9.77262 11.7 10.8535 11.7 12H13.7ZM15.15 9.5C15.4107 9.5 15.7489 9.64964 16.0632 10.0986C16.3752 10.5444 16.6 11.2135 16.6 12H18.6C18.6 10.8535 18.2763 9.77262 17.7016 8.95166C17.1292 8.13387 16.2424 7.5 15.15 7.5V9.5Z" fill="black"/>
</svg>
