<svg width="24" height="24" viewBox="0 0 24 24" fill="none" xmlns="http://www.w3.org/2000/svg">
<path d="M9.19995 15.5V8.87735C9.19995 8.54184 8.82295 8.37382 8.60246 8.61106L7.44995 9.85113M7 21H17C19.2091 21 21 19.2091 21 17V7C21 4.79086 19.2091 3 17 3H7C4.79086 3 3 4.79086 3 7V17C3 19.2091 4.79086 21 7 21ZM16.55 12C16.55 13.933 15.453 15.5 14.1 15.5C12.7469 15.5 11.65 13.933 11.65 12C11.65 10.067 12.7469 8.5 14.1 8.5C15.453 8.5 16.55 10.067 16.55 12Z" stroke="black" stroke-width="2" stroke-linecap="round"/>
</svg>
