<svg width="24" height="24" viewBox="0 0 24 24" fill="none" xmlns="http://www.w3.org/2000/svg">
<path d="M8.4999 12C9.54372 12 10.3899 11.2165 10.3899 10.25C10.3899 9.2835 9.54372 8.5 8.4999 8.5C7.45608 8.5 6.6099 9.2835 6.6099 10.25C6.6099 11.2165 7.45608 12 8.4999 12ZM8.4999 12C7.3401 12 6.3999 12.7835 6.3999 13.75C6.3999 14.7165 7.3401 15.5 8.4999 15.5C9.6597 15.5 10.5999 14.7165 10.5999 13.75C10.5999 12.7835 9.6597 12 8.4999 12ZM7 21H17C19.2091 21 21 19.2091 21 17V7C21 4.79086 19.2091 3 17 3H7C4.79086 3 3 4.79086 3 7V17C3 19.2091 4.79086 21 7 21ZM17.5999 12C17.5999 13.933 16.503 15.5 15.1499 15.5C13.7968 15.5 12.6999 13.933 12.6999 12C12.6999 10.067 13.7968 8.5 15.1499 8.5C16.503 8.5 17.5999 10.067 17.5999 12Z" stroke="black" stroke-width="2"/>
</svg>
