<svg width="24" height="24" viewBox="0 0 24 24" fill="none" xmlns="http://www.w3.org/2000/svg">
<path d="M10.3324 14.9669C10.0725 14.4796 9.46672 14.2952 8.97941 14.5551C8.4921 14.815 8.30775 15.4208 8.56765 15.9081L10.3324 14.9669ZM7 4H17V2H7V4ZM20 7V17H22V7H20ZM17 20H7V22H17V20ZM4 17V7H2V17H4ZM7 20C5.34315 20 4 18.6569 4 17H2C2 19.7614 4.23858 22 7 22V20ZM20 17C20 18.6569 18.6569 20 17 20V22C19.7614 22 22 19.7614 22 17H20ZM17 4C18.6569 4 20 5.34315 20 7H22C22 4.23858 19.7614 2 17 2V4ZM7 2C4.23858 2 2 4.23858 2 7H4C4 5.34315 5.34315 4 7 4V2ZM14 9.96875C14 11.0462 13.1145 11.9375 12 11.9375V13.9375C14.1992 13.9375 16 12.1705 16 9.96875H14ZM12 11.9375C10.8855 11.9375 10 11.0462 10 9.96875H8C8 12.1705 9.80076 13.9375 12 13.9375V11.9375ZM10 9.96875C10 8.89129 10.8855 8 12 8V6C9.80076 6 8 7.76702 8 9.96875H10ZM12 8C13.1145 8 14 8.89129 14 9.96875H16C16 7.76702 14.1992 6 12 6V8ZM12 16C11.4161 16 10.7349 15.7216 10.3324 14.9669L8.56765 15.9081C9.36514 17.4034 10.7839 18 12 18V16ZM14 9.96875V13.25H16V9.96875H14ZM14 13.25C14 14.3115 13.7007 14.9956 13.343 15.4001C12.9889 15.8006 12.5164 16 12 16V18C13.0628 18 14.0903 17.5744 14.8414 16.7249C15.5889 15.8794 16 14.6885 16 13.25H14Z" fill="black"/>
</svg>
