<svg width="24" height="24" viewBox="0 0 24 24" fill="none" xmlns="http://www.w3.org/2000/svg">
<path d="M2.369 8.25C2.74966 6.95608 4.0922 6 5.68998 6C7.58378 6 9.119 7.34315 9.119 9C9.119 10.6569 7.58378 12 5.68998 12C7.7942 12 9.5 13.3431 9.5 15C9.5 16.6569 7.7942 18 5.68998 18C3.91467 18 2.42295 17.0439 2 15.75M22 12C22 15.3137 20.0412 18 17.625 18C15.2088 18 13.25 15.3137 13.25 12C13.25 8.68629 15.2088 6 17.625 6C20.0412 6 22 8.68629 22 12Z" stroke="black" stroke-width="2" stroke-linecap="round" stroke-linejoin="round"/>
</svg>
