<svg width="24" height="24" viewBox="0 0 24 24" fill="none" xmlns="http://www.w3.org/2000/svg">
<path d="M7.59726 13.9357C7.33736 13.4484 6.73162 13.264 6.24431 13.5239C5.757 13.7838 5.57265 14.3895 5.83255 14.8768L7.59726 13.9357ZM7 4H17V2H7V4ZM20 7V17H22V7H20ZM17 20H7V22H17V20ZM4 17V7H2V17H4ZM7 20C5.34315 20 4 18.6569 4 17H2C2 19.7614 4.23858 22 7 22V20ZM20 17C20 18.6569 18.6569 20 17 20V22C19.7614 22 22 19.7614 22 17H20ZM17 4C18.6569 4 20 5.34315 20 7H22C22 4.23858 19.7614 2 17 2V4ZM7 2C4.23858 2 2 4.23858 2 7H4C4 5.34315 5.34315 4 7 4V2ZM16.5999 12C16.5999 12.7865 16.3751 13.4556 16.0631 13.9014C15.7488 14.3504 15.4106 14.5 15.1499 14.5V16.5C16.2423 16.5 17.1291 15.8661 17.7015 15.0483C18.2762 14.2274 18.5999 13.1465 18.5999 12H16.5999ZM15.1499 14.5C14.8892 14.5 14.551 14.3504 14.2367 13.9014C13.9247 13.4556 13.6999 12.7865 13.6999 12H11.6999C11.6999 13.1465 12.0236 14.2274 12.5983 15.0483C13.1707 15.8661 14.0575 16.5 15.1499 16.5V14.5ZM13.6999 12C13.6999 11.2135 13.9247 10.5444 14.2367 10.0986C14.551 9.64964 14.8892 9.5 15.1499 9.5V7.5C14.0575 7.5 13.1707 8.13387 12.5983 8.95166C12.0236 9.77262 11.6999 10.8535 11.6999 12H13.6999ZM15.1499 9.5C15.4106 9.5 15.7488 9.64964 16.0631 10.0986C16.3751 10.5444 16.5999 11.2135 16.5999 12H18.5999C18.5999 10.8535 18.2762 9.77262 17.7015 8.95166C17.1291 8.13387 16.2423 7.5 15.1499 7.5V9.5ZM9.5999 10.5781C9.5999 11.1637 9.11731 11.6562 8.4999 11.6562V13.6562C10.2021 13.6562 11.5999 12.288 11.5999 10.5781H9.5999ZM8.4999 11.6562C7.88249 11.6562 7.3999 11.1637 7.3999 10.5781H5.3999C5.3999 12.288 6.79772 13.6562 8.4999 13.6562V11.6562ZM7.3999 10.5781C7.3999 9.99254 7.88249 9.5 8.4999 9.5V7.5C6.79772 7.5 5.3999 8.86828 5.3999 10.5781H7.3999ZM8.4999 9.5C9.11731 9.5 9.5999 9.99254 9.5999 10.5781H11.5999C11.5999 8.86828 10.2021 7.5 8.4999 7.5V9.5ZM8.4999 14.5C8.18597 14.5 7.81976 14.3529 7.59726 13.9357L5.83255 14.8768C6.45004 16.0346 7.55383 16.5 8.4999 16.5V14.5ZM9.5999 10.5781V12.875H11.5999V10.5781H9.5999ZM9.5999 12.875C9.5999 13.5615 9.40714 13.9644 9.21528 14.1814C9.02696 14.3944 8.77945 14.5 8.4999 14.5V16.5C9.3258 16.5 10.1283 16.1681 10.7136 15.5061C11.2954 14.8481 11.5999 13.9385 11.5999 12.875H9.5999Z" fill="black"/>
</svg>
