<svg width="24" height="24" viewBox="0 0 24 24" fill="none" xmlns="http://www.w3.org/2000/svg">
<path d="M8.7599 15.5C8.7599 16.0523 9.20762 16.5 9.7599 16.5C10.3122 16.5 10.7599 16.0523 10.7599 15.5H8.7599ZM9.7599 8.5H10.7599C10.7599 8.05247 10.4626 7.65943 10.0319 7.5377C9.60125 7.41597 9.14215 7.5952 8.90787 7.97651L9.7599 8.5ZM6.3999 13.9688L5.54787 13.4453C5.35829 13.7538 5.35035 14.1408 5.52712 14.4569C5.7039 14.7729 6.03775 14.9688 6.3999 14.9688V13.9688ZM10.5999 14.9688C11.1522 14.9688 11.5999 14.521 11.5999 13.9688C11.5999 13.4165 11.1522 12.9688 10.5999 12.9688V14.9688ZM7 4H17V2H7V4ZM20 7V17H22V7H20ZM17 20H7V22H17V20ZM4 17V7H2V17H4ZM7 20C5.34315 20 4 18.6569 4 17H2C2 19.7614 4.23858 22 7 22V20ZM20 17C20 18.6569 18.6569 20 17 20V22C19.7614 22 22 19.7614 22 17H20ZM17 4C18.6569 4 20 5.34315 20 7H22C22 4.23858 19.7614 2 17 2V4ZM7 2C4.23858 2 2 4.23858 2 7H4C4 5.34315 5.34315 4 7 4V2ZM16.5999 12C16.5999 12.7865 16.3751 13.4556 16.0631 13.9014C15.7488 14.3504 15.4106 14.5 15.1499 14.5V16.5C16.2423 16.5 17.1291 15.8661 17.7015 15.0483C18.2762 14.2274 18.5999 13.1465 18.5999 12H16.5999ZM15.1499 14.5C14.8892 14.5 14.551 14.3504 14.2367 13.9014C13.9247 13.4556 13.6999 12.7865 13.6999 12H11.6999C11.6999 13.1465 12.0236 14.2274 12.5983 15.0483C13.1707 15.8661 14.0575 16.5 15.1499 16.5V14.5ZM13.6999 12C13.6999 11.2135 13.9247 10.5444 14.2367 10.0986C14.551 9.64964 14.8892 9.5 15.1499 9.5V7.5C14.0575 7.5 13.1707 8.13387 12.5983 8.95166C12.0236 9.77262 11.6999 10.8535 11.6999 12H13.6999ZM15.1499 9.5C15.4106 9.5 15.7488 9.64964 16.0631 10.0986C16.3751 10.5444 16.5999 11.2135 16.5999 12H18.5999C18.5999 10.8535 18.2762 9.77262 17.7015 8.95166C17.1291 8.13387 16.2423 7.5 15.1499 7.5V9.5ZM10.7599 15.5V13.9688H8.7599V15.5H10.7599ZM10.7599 13.9688V8.5H8.7599V13.9688H10.7599ZM8.90787 7.97651L5.54787 13.4453L7.25194 14.4922L10.6119 9.02349L8.90787 7.97651ZM6.3999 14.9688H9.7599V12.9688H6.3999V14.9688ZM9.7599 14.9688H10.5999V12.9688H9.7599V14.9688Z" fill="black"/>
</svg>
