<svg width="24" height="24" viewBox="0 0 24 24" fill="none" xmlns="http://www.w3.org/2000/svg">
<path d="M10.3324 14.9669C10.0725 14.4796 9.46672 14.2952 8.97941 14.5551C8.4921 14.815 8.30775 15.4208 8.56765 15.9081L10.3324 14.9669ZM21 12C21 16.9706 16.9706 21 12 21V23C18.0751 23 23 18.0751 23 12H21ZM12 21C7.02944 21 3 16.9706 3 12H1C1 18.0751 5.92487 23 12 23V21ZM3 12C3 7.02944 7.02944 3 12 3V1C5.92487 1 1 5.92487 1 12H3ZM12 3C16.9706 3 21 7.02944 21 12H23C23 5.92487 18.0751 1 12 1V3ZM14 9.96875C14 11.0462 13.1145 11.9375 12 11.9375V13.9375C14.1992 13.9375 16 12.1705 16 9.96875H14ZM12 11.9375C10.8855 11.9375 10 11.0462 10 9.96875H8C8 12.1705 9.80076 13.9375 12 13.9375V11.9375ZM10 9.96875C10 8.89129 10.8855 8 12 8V6C9.80076 6 8 7.76702 8 9.96875H10ZM12 8C13.1145 8 14 8.89129 14 9.96875H16C16 7.76702 14.1992 6 12 6V8ZM12 16C11.4161 16 10.7349 15.7216 10.3324 14.9669L8.56765 15.9081C9.36514 17.4034 10.7839 18 12 18V16ZM14 9.96875V13.25H16V9.96875H14ZM14 13.25C14 14.3115 13.7007 14.9956 13.343 15.4001C12.9889 15.8006 12.5164 16 12 16V18C13.0628 18 14.0903 17.5744 14.8414 16.7249C15.5889 15.8794 16 14.6885 16 13.25H14Z" fill="black"/>
</svg>
