<svg width="24" height="24" viewBox="0 0 24 24" fill="none" xmlns="http://www.w3.org/2000/svg">
<path d="M8.76 15.5C8.76 16.0523 9.20772 16.5 9.76 16.5C10.3123 16.5 10.76 16.0523 10.76 15.5H8.76ZM9.76 8.5H10.76C10.76 8.05247 10.4627 7.65943 10.032 7.5377C9.60134 7.41597 9.14224 7.5952 8.90797 7.97651L9.76 8.5ZM6.4 13.9688L5.54797 13.4453C5.35838 13.7538 5.35045 14.1408 5.52722 14.4569C5.70399 14.7729 6.03785 14.9688 6.4 14.9688V13.9688ZM10.6 14.9688C11.1523 14.9688 11.6 14.521 11.6 13.9688C11.6 13.4165 11.1523 12.9688 10.6 12.9688V14.9688ZM21 12C21 16.9706 16.9706 21 12 21V23C18.0751 23 23 18.0751 23 12H21ZM12 21C7.02944 21 3 16.9706 3 12H1C1 18.0751 5.92487 23 12 23V21ZM3 12C3 7.02944 7.02944 3 12 3V1C5.92487 1 1 5.92487 1 12H3ZM12 3C16.9706 3 21 7.02944 21 12H23C23 5.92487 18.0751 1 12 1V3ZM16.6 12C16.6 12.7865 16.3752 13.4556 16.0632 13.9014C15.7489 14.3504 15.4107 14.5 15.15 14.5V16.5C16.2424 16.5 17.1292 15.8661 17.7016 15.0483C18.2763 14.2274 18.6 13.1465 18.6 12H16.6ZM15.15 14.5C14.8893 14.5 14.5511 14.3504 14.2368 13.9014C13.9248 13.4556 13.7 12.7865 13.7 12H11.7C11.7 13.1465 12.0237 14.2274 12.5984 15.0483C13.1708 15.8661 14.0576 16.5 15.15 16.5V14.5ZM13.7 12C13.7 11.2135 13.9248 10.5444 14.2368 10.0986C14.5511 9.64964 14.8893 9.5 15.15 9.5V7.5C14.0576 7.5 13.1708 8.13387 12.5984 8.95166C12.0237 9.77262 11.7 10.8535 11.7 12H13.7ZM15.15 9.5C15.4107 9.5 15.7489 9.64964 16.0632 10.0986C16.3752 10.5444 16.6 11.2135 16.6 12H18.6C18.6 10.8535 18.2763 9.77262 17.7016 8.95166C17.1292 8.13387 16.2424 7.5 15.15 7.5V9.5ZM10.76 15.5V13.9688H8.76V15.5H10.76ZM10.76 13.9688V8.5H8.76V13.9688H10.76ZM8.90797 7.97651L5.54797 13.4453L7.25203 14.4922L10.612 9.02349L8.90797 7.97651ZM6.4 14.9688H9.76V12.9688H6.4V14.9688ZM9.76 14.9688H10.6V12.9688H9.76V14.9688Z" fill="black"/>
</svg>
