<svg width="24" height="24" viewBox="0 0 24 24" fill="none" xmlns="http://www.w3.org/2000/svg">
<path d="M1.0676 9.92743C1.16559 10.471 1.68564 10.8321 2.22917 10.7341C2.77269 10.6361 3.13386 10.1161 3.03587 9.57257L1.0676 9.92743ZM9.4878 9.75L8.49183 9.66023L9.4878 9.75ZM2.05174 18L1.05174 18C1.05174 18.5523 1.49945 19 2.05174 19V18ZM9.48779 19C10.0401 19 10.4878 18.5523 10.4878 18C10.4878 17.4477 10.0401 17 9.48779 17V19ZM3.03587 9.57257C2.90942 8.87119 3.12439 8.26027 3.57515 7.80564C4.0368 7.34001 4.79121 7 5.76976 7V5C4.33155 5 3.04102 5.50374 2.15489 6.39749C1.25786 7.30223 0.822203 8.56631 1.0676 9.92743L3.03587 9.57257ZM5.76976 7C7.46287 7 8.60633 8.38995 8.49183 9.66023L10.4838 9.83977C10.7125 7.30149 8.53837 5 5.76976 5V7ZM8.49183 9.66023C8.42979 10.3486 8.11016 10.8193 7.55451 11.2521C6.94401 11.7277 6.15533 12.081 5.18932 12.5556C4.28479 13.0001 3.24243 13.5461 2.43926 14.3843C1.59488 15.2656 1.05172 16.4267 1.05174 18L3.05174 18C3.05173 16.9483 3.3916 16.2813 3.88337 15.768C4.41637 15.2117 5.16332 14.7968 6.07133 14.3506C6.91786 13.9347 7.96497 13.4676 8.78359 12.8299C9.65707 12.1495 10.3599 11.2139 10.4838 9.83977L8.49183 9.66023ZM2.05174 19H9.48779V17H2.05174V19ZM21 12C21 13.4679 20.5648 14.7563 19.9106 15.6535C19.2558 16.5515 18.4355 17 17.625 17V19C19.2307 19 20.598 18.1054 21.5266 16.8318C22.4559 15.5574 23 13.8458 23 12H21ZM17.625 17C16.8145 17 15.9942 16.5515 15.3394 15.6535C14.6852 14.7563 14.25 13.4679 14.25 12H12.25C12.25 13.8458 12.7941 15.5574 13.7234 16.8318C14.652 18.1054 16.0193 19 17.625 19V17ZM14.25 12C14.25 10.5321 14.6852 9.24368 15.3394 8.34653C15.9942 7.44853 16.8145 7 17.625 7V5C16.0193 5 14.652 5.89461 13.7234 7.16819C12.7941 8.44262 12.25 10.1542 12.25 12H14.25ZM17.625 7C18.4355 7 19.2558 7.44853 19.9106 8.34653C20.5648 9.24368 21 10.5321 21 12H23C23 10.1542 22.4559 8.44262 21.5266 7.16819C20.598 5.89461 19.2307 5 17.625 5V7Z" fill="black"/>
</svg>
