<svg width="24" height="24" viewBox="0 0 24 24" fill="none" xmlns="http://www.w3.org/2000/svg">
<path d="M13.6676 9.03309C13.9275 9.5204 14.5333 9.70475 15.0206 9.44485C15.5079 9.18495 15.6923 8.57922 15.4324 8.09191L13.6676 9.03309ZM21 12C21 16.9706 16.9706 21 12 21V23C18.0751 23 23 18.0751 23 12H21ZM12 21C7.02944 21 3 16.9706 3 12H1C1 18.0751 5.92487 23 12 23V21ZM3 12C3 7.02944 7.02944 3 12 3V1C5.92487 1 1 5.92487 1 12H3ZM12 3C16.9706 3 21 7.02944 21 12H23C23 5.92487 18.0751 1 12 1V3ZM14 13.875C14 15.0875 13.0665 16 12 16V18C14.2472 18 16 16.1143 16 13.875H14ZM12 16C10.9335 16 10 15.0875 10 13.875H8C8 16.1143 9.75278 18 12 18V16ZM10 13.875C10 12.6625 10.9335 11.75 12 11.75V9.75C9.75278 9.75 8 11.6357 8 13.875H10ZM12 11.75C13.0665 11.75 14 12.6625 14 13.875H16C16 11.6357 14.2472 9.75 12 9.75V11.75ZM12 8C12.5839 8 13.2651 8.27839 13.6676 9.03309L15.4324 8.09191C14.6349 6.59661 13.2161 6 12 6V8ZM10 13.875V10.75H8V13.875H10ZM10 10.75C10 9.68848 10.2993 9.00438 10.657 8.59988C11.0111 8.19939 11.4836 8 12 8V6C10.9372 6 9.90973 6.42561 9.15863 7.27512C8.41107 8.12062 8 9.31152 8 10.75H10Z" fill="black"/>
</svg>
