<svg width="24" height="24" viewBox="0 0 24 24" fill="none" xmlns="http://www.w3.org/2000/svg">
<path d="M7.59735 13.9357C7.33745 13.4484 6.73172 13.264 6.24441 13.5239C5.7571 13.7838 5.57275 14.3895 5.83265 14.8768L7.59735 13.9357ZM21 12C21 16.9706 16.9706 21 12 21V23C18.0751 23 23 18.0751 23 12H21ZM12 21C7.02944 21 3 16.9706 3 12H1C1 18.0751 5.92487 23 12 23V21ZM3 12C3 7.02944 7.02944 3 12 3V1C5.92487 1 1 5.92487 1 12H3ZM12 3C16.9706 3 21 7.02944 21 12H23C23 5.92487 18.0751 1 12 1V3ZM16.6 12C16.6 12.7865 16.3752 13.4556 16.0632 13.9014C15.7489 14.3504 15.4107 14.5 15.15 14.5V16.5C16.2424 16.5 17.1292 15.8661 17.7016 15.0483C18.2763 14.2274 18.6 13.1465 18.6 12H16.6ZM15.15 14.5C14.8893 14.5 14.5511 14.3504 14.2368 13.9014C13.9248 13.4556 13.7 12.7865 13.7 12H11.7C11.7 13.1465 12.0237 14.2274 12.5984 15.0483C13.1708 15.8661 14.0576 16.5 15.15 16.5V14.5ZM13.7 12C13.7 11.2135 13.9248 10.5444 14.2368 10.0986C14.5511 9.64964 14.8893 9.5 15.15 9.5V7.5C14.0576 7.5 13.1708 8.13387 12.5984 8.95166C12.0237 9.77262 11.7 10.8535 11.7 12H13.7ZM15.15 9.5C15.4107 9.5 15.7489 9.64964 16.0632 10.0986C16.3752 10.5444 16.6 11.2135 16.6 12H18.6C18.6 10.8535 18.2763 9.77262 17.7016 8.95166C17.1292 8.13387 16.2424 7.5 15.15 7.5V9.5ZM9.6 10.5781C9.6 11.1637 9.11741 11.6562 8.5 11.6562V13.6562C10.2022 13.6562 11.6 12.288 11.6 10.5781H9.6ZM8.5 11.6562C7.88259 11.6562 7.4 11.1637 7.4 10.5781H5.4C5.4 12.288 6.79782 13.6562 8.5 13.6562V11.6562ZM7.4 10.5781C7.4 9.99254 7.88259 9.5 8.5 9.5V7.5C6.79782 7.5 5.4 8.86828 5.4 10.5781H7.4ZM8.5 9.5C9.11741 9.5 9.6 9.99254 9.6 10.5781H11.6C11.6 8.86828 10.2022 7.5 8.5 7.5V9.5ZM8.5 14.5C8.18607 14.5 7.81986 14.3529 7.59735 13.9357L5.83265 14.8768C6.45014 16.0346 7.55393 16.5 8.5 16.5V14.5ZM9.6 10.5781V12.875H11.6V10.5781H9.6ZM9.6 12.875C9.6 13.5615 9.40723 13.9644 9.21538 14.1814C9.02706 14.3944 8.77955 14.5 8.5 14.5V16.5C9.3259 16.5 10.1284 16.1681 10.7137 15.5061C11.2955 14.8481 11.6 13.9385 11.6 12.875H9.6Z" fill="black"/>
</svg>
