<svg width="24" height="24" viewBox="0 0 24 24" fill="none" xmlns="http://www.w3.org/2000/svg">
<path d="M15 9.96875C15 11.6083 13.6569 12.9375 12 12.9375C10.3431 12.9375 9 11.6083 9 9.96875C9 8.32915 10.3431 7 12 7C13.6569 7 15 8.32915 15 9.96875ZM15 9.96875V13.25C15 15.75 13.5792 17 12 17C11.1 17 10.05 16.5625 9.45 15.4375M2 8.82843V15.1716C2 15.702 2.21071 16.2107 2.58579 16.5858L7.41421 21.4142C7.78929 21.7893 8.29799 22 8.82843 22H15.1716C15.702 22 16.2107 21.7893 16.5858 21.4142L21.4142 16.5858C21.7893 16.2107 22 15.702 22 15.1716V8.82843C22 8.29799 21.7893 7.78929 21.4142 7.41421L16.5858 2.58579C16.2107 2.21071 15.702 2 15.1716 2H8.82843C8.29799 2 7.78929 2.21071 7.41421 2.58579L2.58579 7.41421C2.21071 7.78929 2 8.29799 2 8.82843Z" stroke="black" stroke-width="2" stroke-linecap="round" stroke-linejoin="round"/>
</svg>
