<svg width="24" height="24" viewBox="0 0 24 24" fill="none" xmlns="http://www.w3.org/2000/svg">
<path d="M9.5 9.5625C9.5 11.53 7.82107 13.125 5.75 13.125C3.67893 13.125 2 11.53 2 9.5625C2 7.59499 3.67893 6 5.75 6C7.82107 6 9.5 7.59499 9.5 9.5625ZM9.5 9.5625V13.5C9.5 16.5 7.72401 18 5.75 18C4.625 18 3.3125 17.475 2.5625 16.125M22 12C22 15.3137 20.0412 18 17.625 18C15.2088 18 13.25 15.3137 13.25 12C13.25 8.68629 15.2088 6 17.625 6C20.0412 6 22 8.68629 22 12Z" stroke="black" stroke-width="2" stroke-linecap="round" stroke-linejoin="round"/>
</svg>
