<svg width="24" height="24" viewBox="0 0 24 24" fill="none" xmlns="http://www.w3.org/2000/svg">
<path d="M15.1233 15.2714C17.4216 14.1232 19 11.7473 19 9.00269C19 5.13521 15.866 2 12 2C8.13401 2 5 5.13521 5 9.00269C5 11.7474 6.57844 14.1232 8.87677 15.2714M15.1233 15.2714C14.1831 15.7411 13.1224 16.0054 12 16.0054C10.8776 16.0054 9.81697 15.7411 8.87677 15.2714M15.1233 15.2714L17.0658 21.3316C17.2183 21.764 16.7573 22.1567 16.3549 21.9372L12.9574 20.0835C12.3605 19.7579 11.6391 19.7579 11.0422 20.0836L7.645 21.9371C7.24256 22.1566 6.78153 21.7639 6.9341 21.3315L8.87677 15.2714" stroke="black" stroke-width="2" stroke-linejoin="round"/>
<path d="M12.344 6.23102C12.2158 5.92299 11.7794 5.92299 11.6512 6.23102L11.0589 7.65473C11.0052 7.78375 10.8843 7.87223 10.745 7.88434L9.34318 8.00619C9.02151 8.03415 8.88309 8.42832 9.11669 8.65118L10.1815 9.66699C10.2781 9.7591 10.3184 9.89557 10.2875 10.0254L9.92683 11.5368C9.8494 11.8613 10.2025 12.1177 10.4873 11.9439L11.8021 11.141C11.9221 11.0677 12.0731 11.0677 12.1932 11.141L13.5079 11.9439C13.7927 12.1177 14.1458 11.8613 14.0684 11.5368L13.7079 10.0258C13.6769 9.89579 13.7174 9.75906 13.8143 9.66696L14.8828 8.65168C15.1171 8.42902 14.9788 8.0341 14.6567 8.00619L13.2503 7.88429C13.111 7.87222 12.99 7.78372 12.9363 7.65467L12.344 6.23102Z" fill="black"/>
</svg>
