<svg width="24" height="24" viewBox="0 0 24 24" fill="none" xmlns="http://www.w3.org/2000/svg">
<path fill-rule="evenodd" clip-rule="evenodd" d="M12 3C8.68629 3 6 5.68629 6 9C6 12.3137 8.68629 15 12 15C15.3137 15 18 12.3137 18 9C18 5.68629 15.3137 3 12 3ZM4 9C4 4.58172 7.58172 1 12 1C16.4183 1 20 4.58172 20 9C20 13.4183 16.4183 17 12 17C7.58172 17 4 13.4183 4 9ZM7.64581 18.0048C7.57876 17.9723 7.50016 18.0208 7.50016 18.0953L7.5 22C7.49999 22.3564 7.68972 22.686 7.99803 22.8649C8.30633 23.0438 8.68657 23.0451 8.99608 22.8683L11.9502 21.1805C11.9809 21.1629 12.0187 21.1629 12.0494 21.1805L15.0037 22.8683C15.3132 23.0451 15.6934 23.0438 16.0017 22.8649C16.31 22.686 16.4998 22.3565 16.4998 22L16.4999 18.0952C16.4999 18.0207 16.4213 17.9723 16.3543 18.0048C15.7888 18.2787 15.1936 18.501 14.5749 18.6654C14.5308 18.6771 14.4999 18.7169 14.4999 18.7625L14.4999 20.1048C14.4998 20.1815 14.4169 20.2297 14.3502 20.1916L12.4958 19.1322C12.1884 18.9565 11.8111 18.9566 11.5037 19.1322L9.64969 20.1914C9.58302 20.2295 9.50008 20.1814 9.50008 20.1046L9.50013 18.7625C9.50014 18.7169 9.46923 18.6771 9.42513 18.6654C8.80641 18.501 8.21126 18.2788 7.64581 18.0048ZM11.6512 6.23102C11.7794 5.92299 12.2158 5.92299 12.344 6.23102L12.9363 7.65467C12.99 7.78372 13.111 7.87222 13.2503 7.88429L14.6567 8.00619C14.9788 8.0341 15.1171 8.42902 14.8828 8.65168L13.8143 9.66696C13.7174 9.75906 13.6769 9.89579 13.7079 10.0258L14.0684 11.5368C14.1458 11.8613 13.7927 12.1177 13.5079 11.9439L12.1932 11.141C12.0731 11.0677 11.9221 11.0677 11.8021 11.141L10.4873 11.9439C10.2025 12.1177 9.8494 11.8613 9.92683 11.5368L10.2874 10.0254C10.3184 9.89557 10.2781 9.7591 10.1815 9.66699L9.11669 8.65118C8.88309 8.42832 9.02151 8.03415 9.34318 8.00619L10.745 7.88434C10.8843 7.87223 11.0052 7.78375 11.0589 7.65473L11.6512 6.23102Z" fill="black"/>
</svg>
