<svg width="24" height="24" viewBox="0 0 24 24" fill="none" xmlns="http://www.w3.org/2000/svg">
<path d="M8.25 13L9.75 14.5L13.25 11M2 15C2 16.6569 3.34315 18 5 18H18C20.2091 18 22 16.2091 22 14C22 11.7909 20.2091 10 18 10C17.6445 10 17.2999 10.0464 16.9718 10.1334C16.8364 10.1693 16.6935 10.0966 16.646 9.96483C15.8125 7.65284 13.5993 6 11 6C7.77011 6 5.1363 8.55211 5.00512 11.7498C4.99946 11.8877 4.88768 11.9989 4.75008 12.0103C3.21016 12.1373 2 13.4273 2 15Z" stroke="black" stroke-width="2" stroke-linecap="round" stroke-linejoin="round"/>
</svg>
