<svg width="24" height="24" viewBox="0 0 24 24" fill="none" xmlns="http://www.w3.org/2000/svg">
<path fill-rule="evenodd" clip-rule="evenodd" d="M6.00428 9.79077C6.11357 7.12677 8.30867 5 11 5C13.1645 5 15.0102 6.3759 15.7053 8.30398C15.9332 8.936 16.6041 9.26549 17.2281 9.09998C17.4733 9.03494 17.7318 9 18 9C19.6569 9 21 10.3431 21 12C21 13.3965 20.0449 14.5725 18.7507 14.9055C18.2159 15.0432 17.8939 15.5884 18.0316 16.1232C18.1692 16.6581 18.7144 16.9801 19.2493 16.8424C21.4056 16.2874 23 14.3312 23 12C23 9.23858 20.7614 7 18 7C17.7787 7 17.5604 7.01444 17.3461 7.04249C16.2319 4.65577 13.8104 3 11 3C7.43471 3 4.49233 5.66508 4.05582 9.11225C2.30199 9.53685 1 11.116 1 13C1 15.2091 2.79086 17 5 17C5.55228 17 6 16.5523 6 16C6 15.4477 5.55228 15 5 15C3.89543 15 3 14.1046 3 13C3 11.952 3.8067 11.0915 4.83227 11.0069C5.44769 10.9561 5.97691 10.4579 6.00428 9.79077ZM17 16C17 18.7614 14.7614 21 12 21C9.23858 21 7 18.7614 7 16C7 13.2386 9.23858 11 12 11C14.7614 11 17 13.2386 17 16ZM14.7803 13.9697C15.0732 14.2626 15.0732 14.7374 14.7803 15.0303L11.7803 18.0303C11.4874 18.3232 11.0126 18.3232 10.7197 18.0303L9.21967 16.5303C8.92678 16.2374 8.92678 15.7626 9.21967 15.4697C9.51256 15.1768 9.98744 15.1768 10.2803 15.4697L11.25 16.4393L13.7197 13.9697C14.0126 13.6768 14.4874 13.6768 14.7803 13.9697Z" fill="black"/>
</svg>
