<svg width="24" height="24" viewBox="0 0 24 24" fill="none" xmlns="http://www.w3.org/2000/svg">
<path d="M16 4.32338L9.90961 10.4138C9.69287 10.6305 9.54927 10.9096 9.49888 11.2119L9.01028 14.1435C8.92733 14.6412 9.3588 15.0727 9.85648 14.9897L12.7881 14.5011C13.0904 14.4507 13.3695 14.3071 13.5862 14.0904L19.6766 8M16 4.32338L16.5619 3.76145C17.5772 2.74618 19.2233 2.74618 20.2385 3.76145C21.2538 4.77672 21.2538 6.4228 20.2385 7.43807L19.6766 8M16 4.32338L19.6766 8M21 13L21 18C21 19.6569 19.6569 21 18 21H6C4.34315 21 3 19.6569 3 18V6C3 4.34315 4.34315 3 6 3H11" stroke="black" stroke-width="2" stroke-linecap="round" stroke-linejoin="round"/>
</svg>
