<svg width="24" height="24" viewBox="0 0 24 24" fill="none" xmlns="http://www.w3.org/2000/svg">
<path d="M21 13L21 18C21 19.6569 19.6569 21 18 21H6C4.34315 21 3 19.6569 3 18V6C3 4.34315 4.34315 3 6 3H11M13.5862 14.0904C13.3695 14.3072 13.0904 14.4508 12.7881 14.5011L9.85648 14.9898C9.3588 15.0727 8.92733 14.6412 9.01028 14.1435L9.49888 11.2119C9.54927 10.9096 9.69287 10.6305 9.90961 10.4138M13.5862 14.0904L18.5385 9.1381C18.7989 8.87775 18.7989 8.45564 18.5385 8.19529L15.8047 5.46148C15.5444 5.20113 15.1223 5.20113 14.8619 5.46148L9.90961 10.4138M13.5862 14.0904L9.90961 10.4138M17.3333 3L21 6.66667" stroke="black" stroke-width="2" stroke-linecap="round" stroke-linejoin="round"/>
</svg>
