<svg width="24" height="24" viewBox="0 0 24 24" fill="none" xmlns="http://www.w3.org/2000/svg">
<path d="M21 13L21 18C21 19.6569 19.6569 21 18 21H6C4.34315 21 3 19.6569 3 18V6C3 4.34315 4.34315 3 6 3H11M16.6933 4.66667L9.94261 11.4174C9.75834 11.6016 9.63273 11.8363 9.58162 12.0919L9.14709 14.2646C9.07711 14.6144 9.38557 14.9229 9.73544 14.8529L11.9081 14.4184C12.1637 14.3673 12.3984 14.2417 12.5826 14.0574L19.3333 7.30669M16.6933 4.66667L17.9734 3.38662C18.4889 2.87113 19.3246 2.87113 19.8401 3.38662L20.6134 4.15987C21.1289 4.67536 21.1289 5.51115 20.6134 6.02664L19.3333 7.30669M16.6933 4.66667L19.3333 7.30669" stroke="black" stroke-width="2" stroke-linecap="round" stroke-linejoin="round"/>
</svg>
