<svg width="24" height="24" viewBox="0 0 24 24" fill="none" xmlns="http://www.w3.org/2000/svg">
<path d="M21 15L21 18C21 19.6569 19.6569 21 18 21H6C4.34315 21 3 19.6569 3 18V6C3 4.34315 4.34315 3 6 3H9M12.3506 15.9388C12.0977 16.1917 11.7722 16.3592 11.4194 16.418L7.99923 16.988C7.4186 17.0848 6.91522 16.5814 7.01199 16.0008L7.58203 12.5806C7.64082 12.2278 7.80835 11.9023 8.06122 11.6494M12.3506 15.9388L18.1283 10.1611C18.432 9.85737 18.432 9.36491 18.1283 9.06117L14.9389 5.87172C14.6351 5.56798 14.1427 5.56798 13.8389 5.87172L8.06122 11.6494M12.3506 15.9388L8.06122 11.6494M16.7222 3L21 7.27778" stroke="black" stroke-width="2" stroke-linecap="round" stroke-linejoin="round"/>
</svg>
