<svg width="24" height="24" viewBox="0 0 24 24" fill="none" xmlns="http://www.w3.org/2000/svg">
<path d="M21 15L21 18C21 19.6569 19.6569 21 18 21H6C4.34315 21 3 19.6569 3 18V6C3 4.34315 4.34315 3 6 3H9M12.3506 15.9388C12.0977 16.1916 11.7722 16.3592 11.4194 16.418L7.99923 16.988C7.4186 17.0848 6.91522 16.5814 7.01199 16.0008L7.58203 12.5806C7.64082 12.2278 7.80835 11.9023 8.06122 11.6494M12.3506 15.9388L19.4561 8.83333M12.3506 15.9388L8.06122 11.6494M8.06122 11.6494L15.1667 4.54395M15.1667 4.54395L15.8223 3.88836C17.0067 2.70388 18.9272 2.70388 20.1116 3.88836C21.2961 5.07284 21.2961 6.99326 20.1116 8.17775L19.4561 8.83333M15.1667 4.54395L19.4561 8.83333" stroke="black" stroke-width="2" stroke-linecap="round" stroke-linejoin="round"/>
</svg>
