<svg width="24" height="24" viewBox="0 0 24 24" fill="none" xmlns="http://www.w3.org/2000/svg">
<path fill-rule="evenodd" clip-rule="evenodd" d="M6 2C3.79086 2 2 3.79086 2 6V18C2 20.2091 3.79086 22 6 22H18C20.2091 22 22 20.2091 22 18V6C22 3.79086 20.2091 2 18 2H6ZM4 6C4 4.89543 4.89543 4 6 4H18C19.1046 4 20 4.89543 20 6V18C20 19.1046 19.1046 20 18 20H6C4.89543 20 4 19.1046 4 18V6ZM7.46568 11.6321C8.75095 10.0079 10.4028 9.25 12 9.25C13.5972 9.25 15.2491 10.0079 16.5343 11.6321C16.7049 11.8476 16.7049 12.1524 16.5343 12.3679C15.2491 13.9921 13.5972 14.75 12 14.75C10.4028 14.75 8.75095 13.9921 7.46568 12.3679C7.29511 12.1524 7.29511 11.8476 7.46568 11.6321ZM18.1027 10.391C16.4742 8.33312 14.2644 7.25 12 7.25C9.73556 7.25 7.5258 8.33312 5.89734 10.391C5.15122 11.3338 5.15122 12.6662 5.89734 13.609C7.5258 15.6669 9.73556 16.75 12 16.75C14.2644 16.75 16.4742 15.6669 18.1027 13.609C18.8488 12.6662 18.8488 11.3338 18.1027 10.391ZM14 12C14 13.1046 13.1046 14 12 14C10.8954 14 10 13.1046 10 12C10 11.887 10.0094 11.7763 10.0274 11.6684C10.0425 11.5775 10.169 11.564 10.2275 11.6351C10.4109 11.8579 10.6889 12 11 12C11.5523 12 12 11.5523 12 11C12 10.6889 11.8579 10.4109 11.6351 10.2275C11.564 10.169 11.5775 10.0425 11.6684 10.0274C11.7763 10.0094 11.887 10 12 10C13.1046 10 14 10.8954 14 12Z" fill="black"/>
</svg>
