<svg width="24" height="24" viewBox="0 0 24 24" fill="none" xmlns="http://www.w3.org/2000/svg">
<path fill-rule="evenodd" clip-rule="evenodd" d="M5.58088 11.2216C7.40799 8.30868 9.77433 7 11.9998 7C14.2254 7 16.5917 8.30868 18.4188 11.2216C18.7168 11.6966 18.7168 12.3034 18.4188 12.7784C16.5917 15.6913 14.2254 17 11.9998 17C9.77433 17 7.40799 15.6913 5.58088 12.7784C5.28294 12.3034 5.28294 11.6966 5.58088 11.2216ZM20.1131 10.1588C18.0176 6.81811 15.0791 5 11.9998 5C8.92054 5 5.98206 6.81811 3.8866 10.1588C3.18103 11.2837 3.18103 12.7163 3.8866 13.8412C5.98206 17.1819 8.92054 19 11.9998 19C15.0791 19 18.0176 17.1819 20.1131 13.8412C20.8187 12.7163 20.8187 11.2837 20.1131 10.1588ZM11.9151 10.0018C11.9432 10.0006 11.9715 10 11.9998 10C13.1044 10 13.9998 10.8954 13.9998 12C13.9998 13.1046 13.1044 14 11.9998 14C10.8953 14 9.99985 13.1046 9.99985 12C9.99985 11.9716 10.0004 11.9434 10.0016 11.9153C10.1575 11.9701 10.3252 12 10.4998 12C11.3283 12 11.9998 11.3284 11.9998 10.5C11.9998 10.3253 11.97 10.1577 11.9151 10.0018ZM11.9998 8C9.79071 8 7.99985 9.79086 7.99985 12C7.99985 14.2091 9.79071 16 11.9998 16C14.209 16 15.9998 14.2091 15.9998 12C15.9998 9.79086 14.209 8 11.9998 8Z" fill="black"/>
</svg>
