<svg width="24" height="24" viewBox="0 0 24 24" fill="none" xmlns="http://www.w3.org/2000/svg">
<path d="M13.0285 2H10.9715C10.435 2 10 2.43497 10 2.97154C10 3.42037 9.69037 3.80515 9.26537 3.94946C8.91325 4.06904 8.57149 4.21107 8.24181 4.37384C7.83917 4.57264 7.34791 4.51949 7.03039 4.20197C6.65084 3.82241 6.03545 3.82241 5.6559 4.20197L4.20197 5.6559C3.82241 6.03546 3.82241 6.65084 4.20197 7.03039C4.51949 7.34791 4.57264 7.83917 4.37384 8.24181C4.21107 8.57149 4.06904 8.91325 3.94946 9.26537C3.80515 9.69036 3.42037 10 2.97154 10C2.43497 10 2 10.435 2 10.9715V13.0285C2 13.565 2.43497 14 2.97154 14C3.42037 14 3.80515 14.3096 3.94946 14.7346C4.06904 15.0868 4.21107 15.4285 4.37385 15.7582C4.57265 16.1608 4.51949 16.6521 4.20197 16.9696C3.82242 17.3492 3.82242 17.9646 4.20197 18.3441L5.65591 19.798C6.03546 20.1776 6.65085 20.1776 7.0304 19.798C7.34792 19.4805 7.83918 19.4274 8.24182 19.6262C8.5715 19.7889 8.91325 19.931 9.26537 20.0505C9.69037 20.1949 10 20.5796 10 21.0285C10 21.565 10.435 22 10.9715 22H13.0285C13.565 22 14 21.565 14 21.0285C14 20.5796 14.3096 20.1949 14.7346 20.0505C15.0868 19.931 15.4285 19.7889 15.7582 19.6262C16.1608 19.4274 16.6521 19.4805 16.9696 19.798C17.3492 20.1776 17.9645 20.1776 18.3441 19.798L19.798 18.3441C20.1776 17.9645 20.1776 17.3492 19.798 16.9696C19.4805 16.6521 19.4274 16.1608 19.6262 15.7582C19.7889 15.4285 19.931 15.0868 20.0505 14.7346C20.1949 14.3096 20.5796 14 21.0285 14C21.565 14 22 13.565 22 13.0285V10.9715C22 10.435 21.565 10 21.0285 10C20.5796 10 20.1949 9.69037 20.0505 9.26537C19.931 8.91325 19.7889 8.5715 19.6262 8.24182C19.4274 7.83918 19.4805 7.34792 19.798 7.0304C20.1776 6.65084 20.1776 6.03546 19.798 5.6559L18.3441 4.20197C17.9646 3.82242 17.3492 3.82242 16.9696 4.20197C16.6521 4.51949 16.1608 4.57265 15.7582 4.37385C15.4285 4.21107 15.0868 4.06904 14.7346 3.94946C14.3096 3.80515 14 3.42037 14 2.97154C14 2.43497 13.565 2 13.0285 2Z" stroke="black" stroke-width="2" stroke-linejoin="round"/>
</svg>
