<svg width="24" height="24" viewBox="0 0 24 24" fill="none" xmlns="http://www.w3.org/2000/svg">
<path d="M13.1127 2H10.8873C10.3973 2 10 2.39726 10 2.8873C10 4.4683 8.0885 5.26007 6.97056 4.14214C6.62405 3.79562 6.06224 3.79562 5.71573 4.14214L4.14214 5.71573C3.79562 6.06224 3.79562 6.62405 4.14214 6.97056C5.26007 8.0885 4.4683 10 2.8873 10C2.39726 10 2 10.3973 2 10.8873V13.1127C2 13.6027 2.39726 14 2.8873 14C4.46831 14 5.26008 15.9115 4.14214 17.0294C3.79563 17.376 3.79563 17.9378 4.14214 18.2843L5.71573 19.8579C6.06224 20.2044 6.62405 20.2044 6.97057 19.8579C8.0885 18.7399 10 19.5317 10 21.1127C10 21.6027 10.3973 22 10.8873 22H13.1127C13.6027 22 14 21.6027 14 21.1127C14 19.5317 15.9115 18.7399 17.0294 19.8579C17.3759 20.2044 17.9378 20.2044 18.2843 19.8579L19.8579 18.2843C20.2044 17.9378 20.2044 17.376 19.8579 17.0294C18.7399 15.9115 19.5317 14 21.1127 14C21.6027 14 22 13.6027 22 13.1127V10.8873C22 10.3973 21.6027 10 21.1127 10C19.5317 10 18.7399 8.0885 19.8579 6.97057C20.2044 6.62406 20.2044 6.06225 19.8579 5.71574L18.2843 4.14214C17.9378 3.79563 17.376 3.79563 17.0294 4.14214C15.9115 5.26008 14 4.46831 14 2.8873C14 2.39726 13.6027 2 13.1127 2Z" stroke="black" stroke-width="2" stroke-linejoin="round"/>
</svg>
