<svg width="24" height="24" viewBox="0 0 24 24" fill="none" xmlns="http://www.w3.org/2000/svg">
<path d="M10 11C11.5 10.5 12.5 10.5 14 11M10 11V12C10 13.6569 8.65685 15 7 15H5C3.89543 15 3 14.1046 3 13V11M10 11C10 9.89543 9.10457 9 8 9H5C3.89543 9 3 9.89543 3 11M14 11V12C14 13.6569 15.3431 15 17 15H19C20.1046 15 21 14.1046 21 13V11M14 11C14 9.89543 14.8954 9 16 9H19C20.1046 9 21 9.89543 21 11M21 11H22M3 11H2" stroke="black" stroke-width="2" stroke-linecap="round" stroke-linejoin="round"/>
</svg>
