<svg width="24" height="24" viewBox="0 0 24 24" fill="none" xmlns="http://www.w3.org/2000/svg">
<path d="M11.5324 6.5V12.5M11.5324 6.5V4.05454C11.5324 3.19599 12.1642 2.5 12.9436 2.5C13.7231 2.5 14.3549 3.19599 14.3549 4.05454V5.5M11.5324 6.5C11.5324 5.64145 10.9005 4.94546 10.1211 4.94546C9.34167 4.94546 8.70982 5.64145 8.70982 6.5L8.70982 14.5L5.96102 12.9128C5.17912 12.4613 4.20103 12.9321 4.02565 13.8444C3.94609 14.2582 4.05384 14.6872 4.31786 15.0076L7.94065 19.4047C9.03634 20.7346 10.6359 21.5 12.3195 21.5H15.4608C17.9677 21.5 20 19.2614 20 16.5V7.5C20 6.64145 19.3682 5.94546 18.5887 5.94546C17.8093 5.94546 17.1775 6.64145 17.1775 7.5M14.3549 5.5V11.5M14.3549 5.5C14.3549 4.64145 14.9868 3.94546 15.7662 3.94546C16.5456 3.94546 17.1775 4.64145 17.1775 5.5V7.5M17.1775 7.5V12.5" stroke="black" stroke-width="2" stroke-linecap="round" stroke-linejoin="round"/>
</svg>
