<svg width="24" height="24" viewBox="0 0 24 24" fill="none" xmlns="http://www.w3.org/2000/svg">
<path d="M4.87889 8.90834L10.586 3.54999C11.367 2.81667 12.6334 2.81667 13.4144 3.54999L19.1215 8.90834M4.87889 8.90834C4.31648 9.43653 4.00021 10.1531 4.00021 10.9V18.1833C4.00021 19.7389 5.34335 21 7.00021 21H9.00018M4.87889 8.90834C4.87899 8.90824 4.87878 8.90843 4.87889 8.90834ZM4.87889 8.90834L3.00049 10.6722M19.1215 8.90834C19.6841 9.43656 20.0002 10.153 20.0002 10.9V18.1833C20.0002 19.7389 18.6571 21 17.0002 21H15.0002M19.1215 8.90834L21.0002 10.6722M9.00018 21H15.0002M9.00018 21V16C9.00018 14.8954 9.89561 14 11.0002 14H13.0002C14.1048 14 15.0002 14.8954 15.0002 16V21" stroke="black" stroke-width="2" stroke-linecap="round"/>
</svg>
