<svg width="24" height="24" viewBox="0 0 24 24" fill="none" xmlns="http://www.w3.org/2000/svg">
<path fill-rule="evenodd" clip-rule="evenodd" d="M11.2705 4.27902C11.6667 3.90699 12.3337 3.90699 12.7299 4.27902L18.437 9.63737L18.4379 9.63816C18.8061 9.98433 19.0002 10.4396 19.0002 10.9V18.1833C19.0002 19.1282 18.1651 20 17.0002 20H15.0002H9.00019H7.00021C5.8353 20 5.00021 19.1282 5.00021 18.1833V10.9C5.00021 10.4397 5.19452 9.98402 5.56299 9.63772L5.56337 9.63737L5.56342 9.63732L5.56348 9.63726L11.2705 4.27902ZM14.0989 2.82096L19.806 8.17931L21.6847 9.94318C22.0873 10.3212 22.1073 10.9541 21.7292 11.3567C21.5325 11.5663 21.2667 11.6722 21.0002 11.6722V18.1833C21.0002 20.3497 19.149 22 17.0002 22H15.0002H9.00019H7.00021C4.85141 22 3.00021 20.3497 3.00021 18.1833V11.6722C2.73388 11.6721 2.46821 11.5662 2.27151 11.3567C1.89345 10.9541 1.91335 10.3213 2.31596 9.94323L4.1943 8.17941L4.19435 8.17936L4.19441 8.1793L9.90152 2.82096C11.0674 1.72635 12.933 1.72635 14.0989 2.82096L13.4144 3.54999L14.0989 2.82096ZM11.0002 14C10.4479 14 10.0002 14.4477 10.0002 15V17C10.0002 17.5523 10.4479 18 11.0002 18H13.0002C13.5525 18 14.0002 17.5523 14.0002 17V15C14.0002 14.4477 13.5525 14 13.0002 14H11.0002Z" fill="black"/>
</svg>
