<svg width="24" height="24" viewBox="0 0 24 24" fill="none" xmlns="http://www.w3.org/2000/svg">
<path d="M21 15V10.4164C21 9.9376 20.9427 9.46217 20.8304 9M21 15H16.618C16.2392 15 15.893 15.214 15.7236 15.5528L15.2764 16.4472C15.107 16.786 14.7607 17 14.3819 17H10.236C9.85727 17 9.51101 16.786 9.34162 16.4472L8.8944 15.5528C8.72501 15.214 8.37875 15 7.99997 15H3M21 15V19C21 20.1046 20.1046 21 19 21H5C3.89543 21 3 20.1046 3 19V15M3 15V10.4164C3 9.9376 3.0573 9.46217 3.16958 9M3.16958 9C3.27573 8.56307 3.431 8.138 3.63344 7.73313L5.17082 4.65836C5.679 3.64201 6.71779 3 7.8541 3H16.1459C17.2822 3 18.321 3.64201 18.8292 4.65836L20.3666 7.73313C20.569 8.138 20.7243 8.56307 20.8304 9M3.16958 9H7.38197C7.76074 9 8.107 9.214 8.27639 9.55279L8.72361 10.4472C8.893 10.786 9.23926 11 9.61803 11H14.382C14.7607 11 15.107 10.786 15.2764 10.4472L15.7236 9.55279C15.893 9.214 16.2393 9 16.618 9H20.8304" stroke="black" stroke-width="2" stroke-linecap="round" stroke-linejoin="round"/>
</svg>
