<svg width="24" height="24" viewBox="0 0 24 24" fill="none" xmlns="http://www.w3.org/2000/svg">
<path d="M2.16958 12C2.0573 12.4622 2 12.9376 2 13.4164V16C2 17.1046 2.89543 18 4 18H20C21.1046 18 22 17.1046 22 16V13.4164C22 12.9376 21.9427 12.4622 21.8304 12M2.16958 12C2.27573 11.5631 2.431 11.138 2.63344 10.7331L4.17082 7.65836C4.679 6.64201 5.71779 6 6.8541 6H17.1459C18.2822 6 19.321 6.64201 19.8292 7.65836L21.3666 10.7331C21.569 11.138 21.7243 11.5631 21.8304 12M2.16958 12H7.38197C7.76074 12 8.107 12.214 8.27639 12.5528L8.72361 13.4472C8.893 13.786 9.23926 14 9.61803 14H14.382C14.7607 14 15.107 13.786 15.2764 13.4472L15.7236 12.5528C15.893 12.214 16.2393 12 16.618 12H21.8304" stroke="black" stroke-width="2" stroke-linecap="round" stroke-linejoin="round"/>
</svg>
