<svg width="24" height="24" viewBox="0 0 24 24" fill="none" xmlns="http://www.w3.org/2000/svg">
<path fill-rule="evenodd" clip-rule="evenodd" d="M8.9269 8.54142C9.29203 7.63812 9.71252 7.00915 10.1918 6.60785C10.6492 6.2248 11.2176 6 11.9998 6C13.8052 6 14.9998 7.41069 14.9998 8.95833C14.9998 10.0229 14.1597 10.8363 12.5619 11.5879C11.7054 11.9908 11.0101 12.7635 10.7998 13.7626L10.6879 14.294C10.5741 14.8344 10.92 15.3648 11.4604 15.4785C12.0009 15.5923 12.5312 15.2464 12.645 14.706L12.7569 14.1746C12.8231 13.86 13.0549 13.5662 13.4132 13.3977C15.0587 12.6237 16.9998 11.3237 16.9998 8.95833C16.9998 6.39263 14.9943 4 11.9998 4C10.7819 4 9.75032 4.36895 8.90778 5.07444C8.08703 5.76169 7.50753 6.71605 7.07265 7.79191C6.86568 8.30395 7.11299 8.88682 7.62502 9.09379C8.13706 9.30076 8.71993 9.05346 8.9269 8.54142ZM11.5 19.75C12.1904 19.75 12.75 19.1904 12.75 18.5C12.75 17.8096 12.1904 17.25 11.5 17.25C10.8096 17.25 10.25 17.8096 10.25 18.5C10.25 19.1904 10.8096 19.75 11.5 19.75Z" fill="black"/>
</svg>
