<svg width="24" height="24" viewBox="0 0 24 24" fill="none" xmlns="http://www.w3.org/2000/svg">
<path d="M17 21H18C19.6569 21 21 19.6569 21 18V11.2426C21 10.447 20.6839 9.68393 20.1213 9.12132L16 5M17 21H7M17 21V16C17 14.8954 16.1046 14 15 14H9C7.89543 14 7 14.8954 7 16V21M7 21H6C4.34315 21 3 19.6569 3 18V6C3 4.34315 4.34315 3 6 3H8M8 3H12.7574C13.553 3 14.3161 3.31607 14.8787 3.87868L16 5M8 3V6C8 7.10457 8.89543 8 10 8H14C15.1046 8 16 7.10457 16 6V5" stroke="black" stroke-width="2" stroke-linejoin="round"/>
</svg>
