<svg width="24" height="24" viewBox="0 0 24 24" fill="none" xmlns="http://www.w3.org/2000/svg">
<path d="M18 22H19C20.6569 22 22 20.6569 22 19V12.2426C22 11.447 21.6839 10.6839 21.1213 10.1213L17.8787 6.87868C17.6222 6.62216 17.324 6.41689 17 6.26946M18 22H10M18 22V18C18 16.8954 17.1046 16 16 16H12C10.8954 16 10 16.8954 10 18V22M10 22H9C7.34315 22 6 20.6569 6 19V9C6 7.34315 7.34315 6 9 6H11M11 6H15.7574C16.1902 6 16.6135 6.09355 17 6.26946M11 6V8C11 9.10457 11.8954 10 13 10H15C16.1046 10 17 9.10457 17 8V6.26946M14 2H8C4.68629 2 2 4.68629 2 8V16" stroke="black" stroke-width="2" stroke-linecap="round" stroke-linejoin="round"/>
</svg>
