<svg width="24" height="24" viewBox="0 0 24 24" fill="none" xmlns="http://www.w3.org/2000/svg">
<path d="M15.956 16L16.5 8.84116H7L7.91112 20.1403C7.99584 21.191 8.863 22 9.90449 22H11M10.5 12V16M13 12V16M16.5 6.81673L7.5 3.78007L9.15037 2.44364C9.68013 2.01466 10.3886 1.88675 11.0322 2.10391L14.8576 3.39463C15.5604 3.63176 16.0762 4.24269 16.198 4.98236L16.5 6.81673ZM15.5 19C16.3284 19 17 19.6716 17 20.5C17 21.3284 16.3284 22 15.5 22C14.6716 22 14 21.3284 14 20.5C14 19.6716 14.6716 19 15.5 19Z" stroke="black" stroke-width="2" stroke-linecap="round" stroke-linejoin="round"/>
</svg>
