<svg width="24" height="24" viewBox="0 0 24 24" fill="none" xmlns="http://www.w3.org/2000/svg">
<path d="M10 5H7C5.89543 5 5 5.89543 5 7V7.5C5 7.77614 5.22386 8 5.5 8H18.5C18.7761 8 19 7.77614 19 7.5V7C19 5.89543 18.1046 5 17 5H14M10 5V4C10 2.89543 10.8954 2 12 2V2C13.1046 2 14 2.89543 14 4V5M10 5H14M6 11L6.75196 19.2716C6.89244 20.8168 8.18803 22 9.73964 22H14.2604C15.812 22 17.1076 20.8168 17.248 19.2716L18 11M10 11V19M14 11V19" stroke="black" stroke-width="2" stroke-linecap="round" stroke-linejoin="round"/>
</svg>
