<svg width="24" height="24" viewBox="0 0 24 24" fill="none" xmlns="http://www.w3.org/2000/svg">
<path d="M20 5H14.5M4 5H9.5M9.5 5V4.5C9.5 3.11929 10.6193 2 12 2V2C13.3807 2 14.5 3.11929 14.5 4.5V5M9.5 5H14.5M10 12V18M14 12V18M9.60189 22H14.3981C15.8911 22 17.1568 20.9022 17.368 19.4243L18.8369 9.14142C18.923 8.53899 18.4555 8 17.847 8H6.15301C5.54446 8 5.077 8.53899 5.16306 9.14142L6.63204 19.4243C6.84317 20.9022 8.10894 22 9.60189 22Z" stroke="black" stroke-width="2" stroke-linecap="round" stroke-linejoin="round"/>
</svg>
