<svg width="24" height="24" viewBox="0 0 24 24" fill="none" xmlns="http://www.w3.org/2000/svg">
<path d="M17.5 12C17.5 13.5188 16.8844 14.8938 15.8891 15.8891M17.5 12C17.4999 10.4812 16.8842 9.10588 15.8888 8.11064M17.5 12L21 11.9998M12 17.5C13.5188 17.5 14.8938 16.8844 15.8891 15.8891M12 17.5C10.4811 17.5 9.10596 16.8843 8.11064 15.8888M12 17.5L12.0002 21M6.5 12C6.5 10.4811 7.11568 9.10607 8.11107 8.11075M6.5 12C6.5 13.5186 7.11549 14.8935 8.11064 15.8888M6.5 12L3 11.9998M12 6.5C13.5186 6.5 14.8935 7.1155 15.8888 8.11064M12 6.5C10.4813 6.5 9.10637 7.11554 8.11107 8.11075M12 6.5L12.0002 3M12.0002 3H13.0002M12.0002 3H11.0004M12.0002 21H13.0002M12.0002 21H11.0004M5.63605 5.63611L6.34316 4.929M5.63605 5.63611L4.92909 6.34307M5.63605 5.63611L8.11107 8.11075M18.364 18.364L19.0711 17.6569M18.364 18.364L17.657 19.071M18.364 18.364L15.8891 15.8891M18.3638 5.63567L19.0709 6.34277M18.3638 5.63567L17.6568 4.9287M18.3638 5.63567L15.8888 8.11064M5.63586 18.3636L6.34297 19.0707M5.63586 18.3636L4.9289 17.6566M5.63586 18.3636L8.11064 15.8888M3 11.9998V10.9998M3 11.9998V12.9996M21 11.9998V10.9998M21 11.9998V12.9996" stroke="black" stroke-width="2" stroke-linecap="round"/>
</svg>
