<svg width="24" height="24" viewBox="0 0 24 24" fill="none" xmlns="http://www.w3.org/2000/svg">
<path fill-rule="evenodd" clip-rule="evenodd" d="M20.2094 3.19252C20.3161 2.93583 20.6799 2.93583 20.7867 3.19252L21.2802 4.37889C21.325 4.48643 21.4258 4.56018 21.5419 4.57024L22.7139 4.67182C22.9823 4.69508 23.0976 5.02418 22.9023 5.20974L22.012 6.0558C21.9312 6.13255 21.8974 6.24649 21.9232 6.35486L22.2237 7.61397C22.2882 7.88439 21.9939 8.09812 21.7566 7.95321L20.661 7.28418C20.5609 7.22308 20.4351 7.22308 20.3351 7.28418L19.2394 7.95321C19.0021 8.09812 18.7078 7.88439 18.7724 7.61397L19.0729 6.35446C19.0987 6.24631 19.0651 6.13259 18.9846 6.05583L18.0972 5.20931C17.9026 5.0236 18.0179 4.69513 18.286 4.67183L19.4542 4.57028C19.5702 4.5602 19.671 4.48645 19.7158 4.37894L20.2094 3.19252ZM7.92496 3C4.01525 3 1 6.44706 1 10.5C1 13.0413 2.17073 15.3174 4.00089 16.6815C4.04806 19.06 5.96393 21 8.35352 21H17.7965C20.6855 21 23 18.6242 23 15.7278C23 12.9981 20.9443 10.7308 18.2894 10.4788C17.4226 8.43975 15.4216 7 13.075 7C10.4555 7 8.26751 8.79201 7.60542 11.2139C7.31513 10.6198 7.14747 9.93495 7.14747 9.2C7.14747 7.25227 8.31604 5.68171 9.81081 5.17682C10.2232 5.03752 10.4981 4.64743 10.4907 4.21219C10.4832 3.77696 10.195 3.39656 9.77801 3.27154C9.18758 3.0945 8.56585 3 7.92496 3ZM6.19001 12.7652C5.49088 13.1713 4.9154 13.7675 4.53009 14.4824C3.59658 13.4896 3 12.0829 3 10.5C3 7.97256 4.49635 5.93747 6.46156 5.25017C5.63456 6.33205 5.14747 7.71512 5.14747 9.2C5.14747 10.5188 5.52963 11.7512 6.19001 12.7652ZM9.4 12.7514C9.4 10.6642 11.0606 9 13.075 9C14.7447 9 16.1702 10.1412 16.6106 11.7237C16.731 12.1563 17.125 12.4556 17.574 12.4556H17.7965C19.5505 12.4556 21 13.9052 21 15.7278C21 17.5503 19.5505 19 17.7965 19H8.35352C7.06893 19 6 17.9371 6 16.5917C6 16.4892 6.0062 16.3887 6.01814 16.2904C6.14996 15.2051 6.98525 14.3566 8.02059 14.2071C8.12885 14.1915 8.23996 14.1834 8.35352 14.1834H8.41906C8.69963 14.1834 8.9673 14.0655 9.15673 13.8585C9.34616 13.6515 9.43993 13.3745 9.41515 13.095C9.40514 12.9821 9.4 12.8675 9.4 12.7514Z" fill="black"/>
</svg>
