<svg width="24" height="24" viewBox="0 0 24 24" fill="none" xmlns="http://www.w3.org/2000/svg">
<path d="M12.3076 8.0637C12.5573 8.0218 12.8136 8 13.075 8C15.2149 8 17.019 9.46127 17.574 11.4556H17.7965C20.118 11.4556 22 13.3683 22 15.7278C22 18.0873 20.118 20 17.7965 20H8.35352C6.50142 20 5 18.474 5 16.5917C5 14.7093 6.50142 13.1834 8.35352 13.1834H8.41906C8.40644 13.0411 8.4 12.897 8.4 12.7514C8.4 12.4957 8.41987 12.2447 8.45813 12M12.3076 8.0637C10.3311 8.39542 8.77278 9.98718 8.45813 12M12.3076 8.0637C11.9202 7.68636 11.4009 7.45557 10.8301 7.45557H10.7877C10.7958 7.36072 10.8 7.26467 10.8 7.1676C10.8 5.41818 9.44566 4 7.775 4C6.39035 4 5.22298 4.97418 4.86387 6.30371H4.71992C3.21775 6.30371 2 7.57887 2 9.15186C2 10.7248 3.21775 12 4.71992 12H8.45813" stroke="black" stroke-width="2" stroke-linecap="round" stroke-linejoin="round"/>
</svg>
