<svg width="24" height="24" viewBox="0 0 24 24" fill="none" xmlns="http://www.w3.org/2000/svg">
<path d="M5.02544 16.1698C5.00865 16.308 5 16.4488 5 16.5917C5 18.474 6.50142 20 8.35352 20H17.7965C20.118 20 22 18.0873 22 15.7278C22 13.3683 20.118 11.4556 17.7965 11.4556H17.574C17.019 9.46127 15.2149 8 13.075 8C10.4931 8 8.4 10.1273 8.4 12.7514C8.4 12.897 8.40644 13.0411 8.41906 13.1834H8.35352C8.19199 13.1834 8.03314 13.195 7.87772 13.2174M5.02544 16.1698C5.2106 14.6454 6.38621 13.4327 7.87772 13.2174M5.02544 16.1698C3.2198 15.0561 2 12.9343 2 10.5C2 6.91015 4.65269 4 7.92496 4C8.46698 4 8.99201 4.07985 9.4908 4.22941C7.55466 4.88338 6.14747 6.8614 6.14747 9.2C6.14747 10.8182 6.8212 12.2637 7.87772 13.2174" stroke="black" stroke-width="2" stroke-linecap="round" stroke-linejoin="round"/>
</svg>
