<svg width="24" height="24" viewBox="0 0 24 24" fill="none" xmlns="http://www.w3.org/2000/svg">
<path d="M7.66158 12.1804C8.29978 10.3283 10.0348 9 12.075 9C12.2933 9 12.508 9.0152 12.7183 9.04462M7.66158 12.1804C7.49213 12.6722 7.4 13.2009 7.4 13.7514C7.4 13.897 7.40644 14.0411 7.41906 14.1834H7.35352C5.50142 14.1834 4 15.7093 4 17.5917C4 19.474 5.50142 21 7.35352 21H16.7965C19.118 21 21 19.0873 21 16.7278C21 14.3683 19.118 12.4556 16.7965 12.4556H16.574C16.0756 10.6647 14.57 9.30364 12.7183 9.04462M7.66158 12.1804C6.80906 11.5946 6.25 10.6126 6.25 9.5C6.25 7.70507 7.70507 6.25 9.5 6.25C11.1404 6.25 12.4969 7.46529 12.7183 9.04462M3 9.5H3.24375M4.90381 4.90381L5.07616 5.07616M9.5 3V3.24375M14.0962 4.90381L13.9238 5.07616M16 9.5H15.7563M4.90381 14.0962L5.07616 13.9238" stroke="black" stroke-width="2" stroke-linecap="round" stroke-linejoin="round"/>
</svg>
