<svg width="24" height="24" viewBox="0 0 24 24" fill="none" xmlns="http://www.w3.org/2000/svg">
<path d="M7.66158 12.1804C8.29978 10.3283 10.0348 9 12.075 9C12.2933 9 12.508 9.0152 12.7183 9.04462M7.66158 12.1804C7.49213 12.6722 7.4 13.2009 7.4 13.7514C7.4 13.897 7.40644 14.0411 7.41906 14.1834H7.35352C5.50142 14.1834 4 15.7093 4 17.5917C4 19.474 5.50142 21 7.35352 21H16.7965C19.118 21 21 19.0873 21 16.7278C21 14.3683 19.118 12.4556 16.7965 12.4556H16.574C16.2138 11.1613 15.3276 10.0915 14.1648 9.5M7.66158 12.1804C7.49674 12.0672 7.34288 11.9391 7.2019 11.7981M14.1648 9.5C13.7187 9.27302 13.2318 9.11645 12.7183 9.04462M14.1648 9.5H16M12.7183 9.04462C12.6181 8.32935 12.285 7.68876 11.7981 7.2019M6.25 9.5H3M6.25 9.5C6.25 10.3975 6.61377 11.21 7.2019 11.7981M6.25 9.5C6.25 8.60254 6.61377 7.79004 7.2019 7.2019M9.5 6.25V3M9.5 6.25C10.3975 6.25 11.21 6.61377 11.7981 7.2019M9.5 6.25C8.60254 6.25 7.79004 6.61377 7.2019 7.2019M11.7981 7.2019L13.5791 5.42088M7.2019 7.2019L5.42088 5.42088M7.2019 11.7981L5.42088 13.5791" stroke="black" stroke-width="2" stroke-linecap="round" stroke-linejoin="round"/>
</svg>
