<svg width="24" height="24" viewBox="0 0 24 24" fill="none" xmlns="http://www.w3.org/2000/svg">
<path d="M5.89582 16C7.30604 18.9634 10.2343 21 13.6181 21C16.7495 21 19.4909 19.2559 21 16.6471C20.0748 17.129 19.0313 17.4 17.9272 17.4C16.2113 17.4 14.6419 16.7454 13.4353 15.6624M5.89582 16H12.0328C12.5401 16 13.0177 15.8778 13.4353 15.6624M5.89582 16H5.36719C4.05983 16 3 14.9827 3 13.7278C3 12.588 3.87421 11.6443 5.01411 11.4807M5.01411 11.4807C5.27173 6.75178 9.02538 3 13.6181 3C14.4065 3 15.1702 3.11056 15.8957 3.31764C13.4293 4.11067 11.553 6.30991 11.125 9.01917M5.01411 11.4807C5.1293 11.4641 5.2472 11.4556 5.36719 11.4556H5.41345C5.40455 11.3607 5.4 11.2647 5.4 11.1676C5.4 9.41819 6.87746 8 8.7 8C9.65877 8 10.522 8.39247 11.125 9.01917M11.125 9.01917C11.4719 9.37983 11.7327 9.81806 11.8758 10.3037H12.0328C13.6715 10.3037 15 11.5789 15 13.1519C15 14.2379 14.3667 15.1819 13.4353 15.6624" stroke="black" stroke-width="2" stroke-linecap="round" stroke-linejoin="round"/>
</svg>
