<svg width="24" height="24" viewBox="0 0 24 24" fill="none" xmlns="http://www.w3.org/2000/svg">
<path d="M12 19V16M12 19V22M12 19L14.5301 17.3881M12 19L9.46973 20.6119M12 19L9.47003 17.3878M12 19L14.5304 20.6116M7.2 6.35546C7.2 6.48893 7.20606 6.621 7.21794 6.75141H7.15625C5.4131 6.75141 4 8.1502 4 9.8757C4 11.6012 5.4131 13 7.15625 13H11.6H16.0437C18.2287 13 20 11.2467 20 9.0838C20 6.92095 18.2287 5.1676 16.0437 5.1676H15.8344C15.312 3.3395 13.614 2 11.6 2C9.16995 2 7.2 3.95 7.2 6.35546Z" stroke="black" stroke-width="2" stroke-linecap="round" stroke-linejoin="round"/>
</svg>
