<svg width="24" height="24" viewBox="0 0 24 24" fill="none" xmlns="http://www.w3.org/2000/svg">
<path d="M7.21794 6.75141C7.20606 6.621 7.2 6.48893 7.2 6.35546C7.2 3.95 9.16995 2 11.6 2C13.614 2 15.312 3.3395 15.8344 5.1676H16.0437C18.2287 5.1676 20 6.92095 20 9.0838C20 11.2467 18.2287 13 16.0437 13H11.6H7.15625C5.4131 13 4 11.6012 4 9.8757C4 8.1502 5.4131 6.75141 7.15625 6.75141H7.21794Z" stroke="black" stroke-width="2" stroke-linecap="round" stroke-linejoin="round"/>
<path d="M11 20.5C11 21.3284 11.6716 22 12.5 22C13.3284 22 14 21.3284 14 20.5C14 19.6716 13.3284 19 12.5 19C11.6716 19 11 19.6716 11 20.5Z" stroke="black" stroke-width="2" stroke-linecap="round" stroke-linejoin="round"/>
<path d="M17 17.5C17 18.3284 17.6716 19 18.5 19C19.3284 19 20 18.3284 20 17.5C20 16.6716 19.3284 16 18.5 16C17.6716 16 17 16.6716 17 17.5Z" stroke="black" stroke-width="2" stroke-linecap="round" stroke-linejoin="round"/>
<path d="M5 17.5C5 18.3284 5.67157 19 6.5 19C7.32843 19 8 18.3284 8 17.5C8 16.6716 7.32843 16 6.5 16C5.67157 16 5 16.6716 5 17.5Z" stroke="black" stroke-width="2" stroke-linecap="round" stroke-linejoin="round"/>
</svg>
