<svg width="24" height="24" viewBox="0 0 24 24" fill="none" xmlns="http://www.w3.org/2000/svg">
<path d="M16.0001 15.0004C16.6279 14.1647 17 13.1258 17 12C17 9.23858 14.7614 7 12 7M16.0001 15.0004C15.0879 16.2146 13.6356 17 12 17C9.23858 17 7 14.7614 7 12C7 9.23875 9.23881 7.00027 12 7M16.0001 15.0004C14.7204 15.0004 13.4408 14.5122 12.4645 13.5359C10.6816 11.753 10.5271 8.95873 12 7M7.5 2L6.91414 4.63637C6.66146 5.77344 5.77344 6.66146 4.63637 6.91414L2 7.5L3.27798 10.3754C3.73765 11.4097 3.73765 12.5903 3.27798 13.6246L2 16.5L4.63637 17.0859C5.77344 17.3385 6.66146 18.2266 6.91414 19.3636L7.5 22L10.3754 20.722C11.4097 20.2624 12.5903 20.2624 13.6246 20.722L16.5 22L17.0859 19.3636C17.3385 18.2266 18.2266 17.3385 19.3636 17.0859L22 16.5L20.722 13.6246C20.2624 12.5903 20.2624 11.4097 20.722 10.3754L22 7.5L19.3636 6.91414C18.2266 6.66146 17.3385 5.77344 17.0859 4.63637L16.5 2L13.6246 3.27798C12.5903 3.73765 11.4097 3.73765 10.3754 3.27798L7.5 2Z" stroke="black" stroke-width="2" stroke-linecap="round" stroke-linejoin="round"/>
</svg>
