<svg width="24" height="24" viewBox="0 0 24 24" fill="none" xmlns="http://www.w3.org/2000/svg">
<path fill-rule="evenodd" clip-rule="evenodd" d="M20.2094 1.19252C20.3161 0.935827 20.6799 0.935827 20.7867 1.19252L21.2802 2.37889C21.325 2.48643 21.4258 2.56018 21.5419 2.57024L22.7139 2.67182C22.9823 2.69508 23.0976 3.02418 22.9023 3.20974L22.012 4.0558C21.9312 4.13255 21.8974 4.24649 21.9232 4.35486L22.2237 5.61397C22.2882 5.88439 21.9939 6.09812 21.7566 5.95321L20.661 5.28418C20.5609 5.22308 20.4351 5.22308 20.3351 5.28418L19.2394 5.95321C19.0021 6.09812 18.7078 5.88439 18.7724 5.61397L19.0729 4.35446C19.0987 4.24631 19.0651 4.13259 18.9846 4.05583L18.0972 3.20931C17.9026 3.0236 18.0179 2.69513 18.286 2.67183L19.4542 2.57028C19.5702 2.5602 19.671 2.48645 19.7158 2.37894L20.2094 1.19252ZM10.5 4C5.25329 4 1 8.25329 1 13.5C1 18.7467 5.25329 23 10.5 23C15.7467 23 20 18.7467 20 13.5C20 8.25329 15.7467 4 10.5 4ZM3 13.5C3 9.35786 6.35786 6 10.5 6C14.6421 6 18 9.35786 18 13.5C18 17.6421 14.6421 21 10.5 21C6.35786 21 3 17.6421 3 13.5Z" fill="black"/>
</svg>
