<svg width="24" height="24" viewBox="0 0 24 24" fill="none" xmlns="http://www.w3.org/2000/svg">
<path fill-rule="evenodd" clip-rule="evenodd" d="M12.6954 1C6.75955 1 2 5.95425 2 12C2 18.0457 6.75955 23 12.6954 23C16.5977 23 19.9984 20.8521 21.8629 17.6689C22.0877 17.2851 22.032 16.799 21.7262 16.476C21.4204 16.153 20.9381 16.0708 20.5426 16.2742C19.6391 16.7389 18.6215 17 17.5431 17C13.8406 17 10.7868 13.8954 10.7868 10C10.7868 6.83301 12.812 4.17881 15.5603 3.30603C15.9814 3.17233 16.2648 2.77824 16.2575 2.33658C16.2503 1.89491 15.9542 1.5103 15.529 1.39045C14.6255 1.13575 13.6751 1 12.6954 1ZM4 12C4 7.24333 7.54961 3.39163 12.005 3.02806C10.0361 4.6822 8.78677 7.19665 8.78677 10C8.78677 14.9412 12.6782 19 17.5431 19C17.7607 19 17.9765 18.9918 18.1902 18.9757C16.6891 20.244 14.7745 21 12.6954 21C7.92199 21 4 16.9999 4 12ZM18.6512 3.23102C18.7794 2.92299 19.2158 2.92299 19.344 3.23102L19.9363 4.65467C19.99 4.78372 20.111 4.87222 20.2503 4.88429L21.6567 5.00619C21.9788 5.0341 22.1171 5.42902 21.8828 5.65168L20.8143 6.66696C20.7174 6.75906 20.6769 6.89579 20.7079 7.02583L21.0684 8.53676C21.1458 8.86126 20.7927 9.11775 20.5079 8.94385L19.1932 8.14101C19.0731 8.0677 18.9221 8.0677 18.8021 8.14101L17.4873 8.94385C17.2025 9.11775 16.8494 8.86126 16.9268 8.53676L17.2874 7.02535C17.3184 6.89557 17.2781 6.7591 17.1815 6.66699L16.1167 5.65118C15.8831 5.42832 16.0215 5.03415 16.3432 5.00619L17.745 4.88434C17.8843 4.87223 18.0052 4.78375 18.0589 4.65473L18.6512 3.23102Z" fill="black"/>
</svg>
