<svg width="24" height="24" viewBox="0 0 24 24" fill="none" xmlns="http://www.w3.org/2000/svg">
<path d="M16.6299 20.866C19.8218 19.1957 22 15.8522 22 12C22 10.4547 21.6495 8.99131 21.0237 7.68493M16.6299 20.866C15.2456 21.5903 13.6706 22 12 22C6.47715 22 2 17.5228 2 12C2 6.47715 6.47715 2 12 2C15.9776 2 19.4128 4.32227 21.0237 7.68493M16.6299 20.866C13.4199 20.229 11 17.3971 11 14C11 10.134 14.134 7 18 7C19.0829 7 20.1084 7.24591 21.0237 7.68493" stroke="black" stroke-width="2" stroke-linecap="round" stroke-linejoin="round"/>
</svg>
