<svg width="24" height="24" viewBox="0 0 24 24" fill="none" xmlns="http://www.w3.org/2000/svg">
<path fill-rule="evenodd" clip-rule="evenodd" d="M20.2094 3.19252C20.3161 2.93583 20.6799 2.93583 20.7867 3.19252L21.2802 4.37889C21.325 4.48643 21.4258 4.56018 21.5419 4.57024L22.7139 4.67182C22.9823 4.69508 23.0976 5.02418 22.9023 5.20974L22.012 6.0558C21.9312 6.13255 21.8974 6.24649 21.9232 6.35486L22.2237 7.61397C22.2882 7.88439 21.9939 8.09812 21.7566 7.95321L20.661 7.28418C20.5609 7.22308 20.4351 7.22308 20.3351 7.28418L19.2394 7.95321C19.0021 8.09812 18.7078 7.88439 18.7724 7.61397L19.0729 6.35446C19.0987 6.24631 19.0651 6.13259 18.9846 6.05583L18.0972 5.20931C17.9026 5.0236 18.0179 4.69513 18.286 4.67183L19.4542 4.57028C19.5702 4.5602 19.671 4.48645 19.7158 4.37894L20.2094 3.19252ZM5.82927 6.56447C6.081 5.63249 6.88106 5 7.775 5C8.85047 5 9.8 5.92656 9.8 7.1676C9.8 7.23602 9.79706 7.30347 9.79135 7.36983C9.77333 7.57923 9.82183 7.78709 9.92716 7.96502C8.86799 8.68184 8.06251 9.74919 7.66822 11H4.71992C3.81295 11 3 10.2165 3 9.15186C3 8.08724 3.81295 7.30371 4.71992 7.30371H4.86387C5.31573 7.30371 5.71145 7.0007 5.82927 6.56447ZM13.075 7C12.9183 7 12.763 7.00646 12.6092 7.01915C12.3525 6.83928 12.0677 6.69646 11.7625 6.5996C11.4969 4.59853 9.84799 3 7.775 3C6.16091 3 4.79919 3.97476 4.15367 5.34749C2.33758 5.63166 1 7.2621 1 9.15186C1 11.2332 2.62256 13 4.71992 13H5.828C4.7187 13.8019 4 15.1168 4 16.5917C4 19.011 5.93391 21 8.35352 21H17.7965C20.6855 21 23 18.6242 23 15.7278C23 12.9981 20.9443 10.7308 18.2894 10.4788C17.4226 8.43975 15.4216 7 13.075 7ZM12.4731 9.04991C12.6684 9.01714 12.8693 9 13.075 9C14.7447 9 16.1702 10.1412 16.6106 11.7237C16.731 12.1563 17.125 12.4556 17.574 12.4556H17.7965C19.5505 12.4556 21 13.9052 21 15.7278C21 17.5503 19.5505 19 17.7965 19H8.35352C7.06893 19 6 17.9371 6 16.5917C6 15.2463 7.06893 14.1834 8.35352 14.1834H8.41906C8.69963 14.1834 8.9673 14.0655 9.15673 13.8585C9.34616 13.6515 9.43993 13.3745 9.41515 13.095C9.40514 12.9821 9.4 12.8675 9.4 12.7514C9.4 12.5476 9.41583 12.3483 9.44613 12.1544C9.69565 10.5583 10.93 9.3089 12.4731 9.04991Z" fill="black"/>
</svg>
