<svg width="24" height="24" viewBox="0 0 24 24" fill="none" xmlns="http://www.w3.org/2000/svg">
<path d="M12.2461 5.04778C12.4458 5.01635 12.6509 5 12.86 5C14.5719 5 16.0152 6.09595 16.4592 7.59168H16.6372C18.4944 7.59168 20 9.02623 20 10.7958C20 12.5654 18.4944 14 16.6372 14H9.08281C7.60114 14 6.4 12.8555 6.4 11.4438C6.4 10.032 7.60114 8.88751 9.08281 8.88751H9.13525C9.12516 8.78081 9.12 8.67276 9.12 8.56355C9.12 8.37179 9.1359 8.18356 9.16651 8M12.2461 5.04778C10.6649 5.29657 9.41823 6.49038 9.16651 8M12.2461 5.04778C11.9362 4.76477 11.5207 4.59168 11.0641 4.59168H11.0301C11.0367 4.52054 11.04 4.44851 11.04 4.3757C11.04 3.06364 9.95653 2 8.62 2C7.51228 2 6.57838 2.73063 6.29109 3.72778H6.17594C4.9742 3.72778 4 4.68415 4 5.86389C4 7.04363 4.9742 8 6.17594 8H9.16651M20 19.5H9M17 22H5M15 17H4" stroke="black" stroke-width="2" stroke-linecap="round" stroke-linejoin="round"/>
</svg>
