<svg width="24" height="24" viewBox="0 0 24 24" fill="none" xmlns="http://www.w3.org/2000/svg">
<path d="M11.2652 8.36915C11.8218 8.13139 12.4333 8 13.075 8C15.2149 8 17.019 9.46127 17.574 11.4556H17.7965C20.118 11.4556 22 13.3683 22 15.7278C22 18.0873 20.118 20 17.7965 20H8.35352C6.50142 20 5 18.474 5 16.5917C5 16.4488 5.00865 16.308 5.02544 16.1698C5.13058 15.3042 5.55508 14.5391 6.17544 14C6.41303 13.7936 6.67933 13.6203 6.96743 13.4872M11.2652 8.36915C10.31 8.77713 9.5162 9.49827 9.00825 10.4061M11.2652 8.36915C9.4647 5.73148 6.43456 4 3 4C2.6625 4 2.32891 4.01672 2 4.04938V7.07089M9.00825 10.4061C8.62111 11.0981 8.4 11.8985 8.4 12.7514C8.4 12.897 8.40644 13.0411 8.41906 13.1834H8.35352C8.19199 13.1834 8.03314 13.195 7.87772 13.2174C7.5575 13.2636 7.25185 13.3558 6.96743 13.4872M9.00825 10.4061C7.78513 8.3657 5.55206 7 3 7C2.66048 7 2.3266 7.02417 2 7.07089M6.96743 13.4872C6.71571 11.5202 5.03539 10 3 10C2.6547 10 2.31962 10.0438 2 10.126V7.07089" stroke="black" stroke-width="2" stroke-linecap="round" stroke-linejoin="round"/>
</svg>
