<svg width="24" height="24" viewBox="0 0 24 24" fill="none" xmlns="http://www.w3.org/2000/svg">
<path d="M17.4696 18.9526V15.9526M17.4696 18.9526V21.9526M17.4696 18.9526L19.9997 17.3407M17.4696 18.9526L14.9393 20.5645M17.4696 18.9526L14.9397 17.3404M17.4696 18.9526L20 20.5642M5.5 16L4.5 18M10.5 16L9.5 18M7 20L6 22M12 20L11 22M7.2 6.35546C7.2 6.48893 7.20606 6.621 7.21794 6.75141H7.15625C5.4131 6.75141 4 8.1502 4 9.8757C4 11.6012 5.4131 13 7.15625 13H11.6H16.0437C18.2287 13 20 11.2467 20 9.0838C20 6.92095 18.2287 5.1676 16.0437 5.1676H15.8344C15.312 3.3395 13.614 2 11.6 2C9.16995 2 7.2 3.95 7.2 6.35546Z" stroke="black" stroke-width="2" stroke-linecap="round" stroke-linejoin="round"/>
</svg>
