<svg width="24" height="24" viewBox="0 0 24 24" fill="none" xmlns="http://www.w3.org/2000/svg">
<path fill-rule="evenodd" clip-rule="evenodd" d="M11.55 1C8.46463 1 5.8706 3.29038 5.61985 6.27634C3.5769 6.68984 2 8.43671 2 10.5917C2 13.0645 4.07644 15 6.55078 15H11.55H16.5492C19.5206 15 22 12.6777 22 9.72778C22 6.93363 19.7756 4.70262 17.0156 4.47475C16.0973 2.41524 13.9812 1 11.55 1ZM7.6 6.75141C7.6 4.71776 9.32949 3 11.55 3C13.3844 3 14.8955 4.18066 15.3544 5.73821C15.4798 6.16356 15.8702 6.45557 16.3137 6.45557H16.5492C18.494 6.45557 20 7.95879 20 9.72778C20 11.4968 18.494 13 16.5492 13H11.55H6.55078C5.10304 13 4 11.8836 4 10.5917C4 9.29979 5.10304 8.18335 6.55078 8.18335H6.62018C6.90165 8.18335 7.17009 8.06473 7.35959 7.8566C7.5491 7.64848 7.64211 7.37012 7.6158 7.08988C7.60536 6.97863 7.6 6.86575 7.6 6.75141ZM9.24999 15.9589C9.24999 15.5447 8.9142 15.2089 8.49999 15.2089C8.08577 15.2089 7.74999 15.5447 7.74999 15.9589V16.8789L6.88836 16.3579C6.53391 16.1436 6.07282 16.2572 5.85849 16.6116C5.64417 16.9661 5.75776 17.4272 6.11221 17.6415L7.05035 18.2088L6.11206 18.776C5.75758 18.9902 5.64392 19.4513 5.8582 19.8058C6.07247 20.1603 6.53355 20.2739 6.88803 20.0597L7.74999 19.5386V20.4589C7.74999 20.8731 8.08577 21.2089 8.49999 21.2089C8.9142 21.2089 9.24999 20.8731 9.24999 20.4589V19.5384L10.1121 20.0595C10.4666 20.2737 10.9277 20.16 11.1419 19.8055C11.3562 19.451 11.2425 18.9899 10.888 18.7757L9.94989 18.2088L10.8878 17.6418C11.2423 17.4275 11.3559 16.9664 11.1416 16.6119C10.9274 16.2575 10.4663 16.1438 10.1118 16.3581L9.24999 16.8791V15.9589ZM16.25 17.5412C16.25 17.127 15.9142 16.7912 15.5 16.7912C15.0858 16.7912 14.75 17.127 14.75 17.5412V18.4613L13.8884 17.9403C13.5339 17.7259 13.0728 17.8395 12.8585 18.194C12.6442 18.5484 12.7578 19.0095 13.1122 19.2238L14.0504 19.7911L13.1121 20.3583C12.7576 20.5726 12.6439 21.0336 12.8582 21.3881C13.0725 21.7426 13.5335 21.8563 13.888 21.642L14.75 21.1209V22.0412C14.75 22.4554 15.0858 22.7912 15.5 22.7912C15.9142 22.7912 16.25 22.4554 16.25 22.0412V21.1208L17.1121 21.6418C17.4666 21.856 17.9277 21.7423 18.1419 21.3878C18.3562 21.0333 18.2425 20.5722 17.888 20.358L16.9499 19.7911L17.8878 19.2241C18.2423 19.0098 18.3559 18.5488 18.1416 18.1943C17.9274 17.8398 17.4663 17.7262 17.1118 17.9404L16.25 18.4614V17.5412Z" fill="black"/>
</svg>
