<svg width="24" height="24" viewBox="0 0 24 24" fill="none" xmlns="http://www.w3.org/2000/svg">
<path d="M15.5 5L16.5 4M17.5 3L16.5 4M16.5 4L15.5 3M16.5 4L17.5 5M19 9.5L20 8.5M20 8.5L21 7.5M20 8.5L19 7.5M20 8.5L21 9.5M10 14V8.4M10 14L6.12513 10.1251M10 14L13.8749 10.1251M10 14H15.6M10 14L13.8749 17.8749M10 14V19.6M10 14L6.12513 17.8749M10 14H4.4M10 8.4L11.4 7M10 8.4L8.6 7M6.12513 10.1251L6.15 8.05M6.12513 10.1251L4.05 10.15M13.8749 10.1251V8.05M13.8749 10.1251H15.95M15.6 14L17 12.6M15.6 14L17 15.4M13.8749 17.8749V19.95M13.8749 17.8749H15.95M10 19.6L8.6 21M10 19.6L11.4 21M6.12513 17.8749H4.05M6.12513 17.8749V19.95M4.4 14L3 12.6M4.4 14L3 15.4" stroke="black" stroke-width="2" stroke-linecap="round" stroke-linejoin="round"/>
</svg>
