<svg width="24" height="24" viewBox="0 0 24 24" fill="none" xmlns="http://www.w3.org/2000/svg">
<path d="M7.4 11.9996V7.19961M7.4 11.9996L4.07868 8.67829M7.4 11.9996L10.7213 8.67829M7.4 11.9996H12.2M7.4 11.9996L10.7213 15.3209M7.4 11.9996V16.7996M7.4 11.9996L4.07868 15.3209M7.4 11.9996H2.6M7.4 7.19961L6.8 6.59961M7.4 7.19961L8 6.59961M4.07868 8.67829L3.18934 8.68895M4.07868 8.67829L4.08934 7.78895M10.7213 8.67829V7.78895M10.7213 8.67829H11.6107M12.2 11.9996L12.8 11.3996M12.2 11.9996L12.8 12.5996M10.7213 15.3209H11.6107M10.7213 15.3209V16.2103M7.4 16.7996L8 17.3996M7.4 16.7996L6.8 17.3996M4.07868 15.3209V16.2103M4.07868 15.3209H3.18934M2.6 11.9996L2 12.5996M2.6 11.9996L2 11.3996M15 8H20C21.1046 8 22 7.10457 22 6V6C22 4.89543 21.1046 4 20 4V4M16 12H22M14.5 15H17.5C18.8807 15 20 16.1193 20 17.5V17.5C20 18.8807 18.8807 20 17.5 20H17" stroke="black" stroke-width="2" stroke-linecap="round" stroke-linejoin="round"/>
</svg>
