<svg width="24" height="24" viewBox="0 0 24 24" fill="none" xmlns="http://www.w3.org/2000/svg">
<path fill-rule="evenodd" clip-rule="evenodd" d="M11.3071 2.29289C10.9166 1.90237 10.2834 1.90237 9.89289 2.29289C9.50237 2.68342 9.50237 3.31658 9.89289 3.70711L11 4.81421V7.58579L9.1301 5.71589L9.14993 4.06199C9.15655 3.50974 8.71423 3.05669 8.16199 3.05007C7.60974 3.04345 7.15669 3.48577 7.15007 4.03801L7.1369 5.1369L6.03801 5.15007C5.48577 5.15669 5.04345 5.60974 5.05007 6.16199C5.05669 6.71423 5.50974 7.15655 6.06199 7.14993L7.71589 7.1301L9.58579 9H6.81421L5.70711 7.89289C5.31658 7.50237 4.68342 7.50237 4.29289 7.89289C3.90237 8.28342 3.90237 8.91658 4.29289 9.30711L4.98579 10L4.29289 10.6929C3.90237 11.0834 3.90237 11.7166 4.29289 12.1071C4.68342 12.4976 5.31658 12.4976 5.70711 12.1071L6.81421 11H9.58579L7.71091 12.8749H6.05C5.49772 12.8749 5.05 13.3226 5.05 13.8749C5.05 14.4272 5.49772 14.8749 6.05 14.8749H7.12513V15.95C7.12513 16.5023 7.57284 16.95 8.12513 16.95C8.67741 16.95 9.12513 16.5023 9.12513 15.95V14.2891L11 12.4142V15.1858L9.89289 16.2929C9.50237 16.6834 9.50237 17.3166 9.89289 17.7071C10.2834 18.0976 10.9166 18.0976 11.3071 17.7071L12 17.0142L12.6929 17.7071C13.0834 18.0976 13.7166 18.0976 14.1071 17.7071C14.4976 17.3166 14.4976 16.6834 14.1071 16.2929L13 15.1858V12.4142L14.8749 14.2891V15.95C14.8749 16.5023 15.3226 16.95 15.8749 16.95C16.4272 16.95 16.8749 16.5023 16.8749 15.95V14.8749H17.95C18.5023 14.8749 18.95 14.4272 18.95 13.8749C18.95 13.3226 18.5023 12.8749 17.95 12.8749H16.2891L14.4142 11H17.1858L18.2929 12.1071C18.6834 12.4976 19.3166 12.4976 19.7071 12.1071C20.0976 11.7166 20.0976 11.0834 19.7071 10.6929L19.0142 10L19.7071 9.30711C20.0976 8.91658 20.0976 8.28342 19.7071 7.89289C19.3166 7.50237 18.6834 7.50237 18.2929 7.89289L17.1858 9H14.4142L16.2891 7.12513H17.95C18.5023 7.12513 18.95 6.67741 18.95 6.12513C18.95 5.57284 18.5023 5.12513 17.95 5.12513H16.8749V4.05C16.8749 3.49772 16.4272 3.05 15.8749 3.05C15.3226 3.05 14.8749 3.49772 14.8749 4.05V5.71091L13 7.58579V4.81421L14.1071 3.70711C14.4976 3.31658 14.4976 2.68342 14.1071 2.29289C13.7166 1.90237 13.0834 1.90237 12.6929 2.29289L12 2.98579L11.3071 2.29289ZM5 22C3.89543 22 3 21.0399 3 19.8556C3 18.7541 3.86982 17.0933 4.79823 16.0901C4.90937 15.97 5.09063 15.97 5.20177 16.0901C6.13018 17.0933 7 18.7541 7 19.8556C7 21.0399 6.10457 22 5 22ZM19 22C17.8954 22 17 21.0399 17 19.8556C17 18.7541 17.8698 17.0933 18.7982 16.0901C18.9094 15.97 19.0906 15.97 19.2018 16.0901C20.1302 17.0933 21 18.7541 21 19.8556C21 21.0399 20.1046 22 19 22Z" fill="black"/>
</svg>
