<svg width="24" height="24" viewBox="0 0 24 24" fill="none" xmlns="http://www.w3.org/2000/svg">
<path d="M8.81802 15.182C8.00368 14.3676 7.5 13.2426 7.5 12C7.5 9.51472 9.51472 7.5 12 7.5C13.2426 7.5 14.3676 8.00368 15.182 8.81802M17.3038 6.69621C16.9476 6.34006 16.691 5.88441 16.5773 5.37273L16.05 3L13.4621 4.15018C12.5313 4.56388 11.4687 4.56388 10.5379 4.15018L7.95 3L7.42273 5.37273C7.19531 6.39609 6.39609 7.19531 5.37273 7.42273L3 7.95L4.15018 10.5379C4.56388 11.4687 4.56388 12.5313 4.15018 13.4621L3 16.05L5.37273 16.5773C5.88441 16.691 6.34006 16.9476 6.69621 17.3038M21 21H20.99M21.0002 14.5H20.9902M21.0002 8H20.9902M18 11H17.99M17.751 17.75H17.75M14.51 21H14.5M8.01 21H8M14.5 14.5H14.49M11 18H10.99" stroke="black" stroke-width="2" stroke-linecap="round" stroke-linejoin="round"/>
</svg>
