<svg width="24" height="24" viewBox="0 0 24 24" fill="none" xmlns="http://www.w3.org/2000/svg">
<path d="M7 14C7 11.2386 9.23858 9 12 9C14.7614 9 17 11.2386 17 14M7 14H3.62273M7 14H17M17 14H20.3773M20.3773 14C20.3773 13.4463 20.4922 12.8926 20.722 12.3754L22 9.5L19.3636 8.91414C18.2266 8.66146 17.3385 7.77344 17.0859 6.63637L16.5 4L13.6246 5.27798C12.5903 5.73765 11.4097 5.73765 10.3754 5.27798L7.5 4L6.91414 6.63637C6.66146 7.77344 5.77344 8.66146 4.63637 8.91414L2 9.5L3.27798 12.3754C3.50781 12.8926 3.62273 13.4463 3.62273 14M20.3773 14H22M3.62273 14H2M19 17H8M15 20H3" stroke="black" stroke-width="2" stroke-linecap="round" stroke-linejoin="round"/>
</svg>
