<svg width="24" height="24" viewBox="0 0 24 24" fill="none" xmlns="http://www.w3.org/2000/svg">
<path d="M10.0884 11.1597C10.0936 11.1662 10.0988 11.1728 10.1039 11.1793L12.5311 14.2764C12.8788 14.7201 13.5412 14.8006 13.9938 14.4541L15.4537 13.3364C16.1861 12.7757 17.0911 12.5913 17.9319 12.7386M10.0884 11.1597C8.6836 9.39625 5.81695 9.69395 4.84336 11.7127L2.19141 17.2115C1.56345 18.5136 2.55725 20 4.05577 20H19.9437C21.5093 20 22.499 18.3904 21.7386 17.0806L20.0702 14.2066C19.5999 13.3964 18.8002 12.8907 17.9319 12.7386M10.0884 11.1597C10.4744 9.35403 12.0791 8 14 8C16.2091 8 18 9.79086 18 12C18 12.2523 17.9766 12.4992 17.9319 12.7386M9.19167 7.19167L8.34315 6.34315M14 5.2V4M18.8083 7.19167L19.6569 6.34315M20.8 12H22" stroke="black" stroke-width="2" stroke-linecap="round" stroke-linejoin="round"/>
</svg>
