<svg width="24" height="24" viewBox="0 0 24 24" fill="none" xmlns="http://www.w3.org/2000/svg">
<path d="M7 20C7 17.2386 9.23858 15 12 15C14.7614 15 17 17.2386 17 20M7 20H3.62273M7 20H17M17 20H20.3773M20.3773 20C20.3773 19.4463 20.4922 18.8926 20.722 18.3754L22 15.5L19.3636 14.9141C18.2266 14.6615 17.3385 13.7734 17.0859 12.6364L16.5 10L13.6246 11.278C12.5903 11.7376 11.4097 11.7376 10.3754 11.278L7.5 10L6.91414 12.6364C6.66146 13.7734 5.77344 14.6615 4.63637 14.9141L2 15.5L3.27798 18.3754C3.50781 18.8926 3.62273 19.4463 3.62273 20M20.3773 20H22M3.62273 20H2M12 8.5V4M12 4L10 6M12 4L14 6" stroke="black" stroke-width="2" stroke-linecap="round" stroke-linejoin="round"/>
</svg>
