<svg width="24" height="24" viewBox="0 0 24 24" fill="none" xmlns="http://www.w3.org/2000/svg">
<path d="M6.5 15H2M6.5 15C6.5 13.4812 7.11561 12.1062 8.11091 11.1109M6.5 15H12H17.5M8.11091 11.1109L4.22183 7.22183M8.11091 11.1109C9.10622 10.1156 10.4812 9.5 12 9.5M12 9.5V4M12 9.5C13.5188 9.5 14.8938 10.1156 15.8891 11.1109M15.8891 11.1109L19.7782 7.22183M15.8891 11.1109C16.8844 12.1062 17.5 13.4812 17.5 15M17.5 15H22M19 18H12M10 20H3" stroke="black" stroke-width="2" stroke-linecap="round" stroke-linejoin="round"/>
</svg>
