<svg width="24" height="24" viewBox="0 0 24 24" fill="none" xmlns="http://www.w3.org/2000/svg">
<path d="M9.00001 15C7.89544 15 7.00001 15.8955 7.00001 17C7.00001 18.1046 7.89544 19 9.00001 19C10.1046 19 11 18.1046 11 17C11 15.8955 10.1046 15 9.00001 15ZM9.00001 15V13M17.5 4.00036V13M17.5 13L15 10.5M17.5 13L20 10.5M4 17C4 15.3642 4.78555 13.9118 6 12.9996V5C6 3.34315 7.34315 2 9 2C10.6569 2 12 3.34315 12 5V12.9996C13.2145 13.9119 14 15.3642 14 17C14 19.7614 11.7614 22 9 22C6.23858 22 4 19.7614 4 17Z" stroke="black" stroke-width="2" stroke-linecap="round" stroke-linejoin="round"/>
</svg>
