<svg width="24" height="24" viewBox="0 0 24 24" fill="none" xmlns="http://www.w3.org/2000/svg">
<path d="M6.55078 15C4.58974 15 3 13.474 3 11.5917C3 9.70931 4.58974 8.18335 6.55078 8.18335H6.62018C6.60682 8.04109 6.6 7.89701 6.6 7.75141C6.6 5.12728 8.81619 3 11.55 3C13.8158 3 15.726 4.46127 16.3137 6.45557H16.5492C19.0073 6.45557 21 8.3683 21 10.7278C21 13.0873 19.0073 15 16.5492 15H11.55M6.55078 15H11.55M6.55078 15L6 17H7.5L7 19M11.55 15L10.5 18H13L12 21M16.5508 15L16 17H17.5L17 19" stroke="black" stroke-width="2" stroke-linecap="round" stroke-linejoin="round"/>
</svg>
