<svg width="24" height="24" viewBox="0 0 24 24" fill="none" xmlns="http://www.w3.org/2000/svg">
<path d="M20 17.5C19.6133 17.5 19.2265 17.5939 18.8906 17.7817L18.1094 18.2183C17.7735 18.4061 17.3868 18.5 17 18.5C16.6133 18.5 16.2265 18.4061 15.8906 18.2183L15.1094 17.7817C14.4376 17.4061 13.5624 17.4061 12.8906 17.7817L12.1094 18.2183C11.4376 18.5939 10.5624 18.5939 9.8906 18.2183L9.1094 17.7817C8.4376 17.4061 7.5624 17.4061 6.8906 17.7817L6.1094 18.2183C5.47351 18.5738 4.65537 18.5928 4 18.2753M20 21C19.6133 21 19.2265 21.0939 18.8906 21.2817L18.1094 21.7183C17.7735 21.9061 17.3868 22 17 22C16.6133 22 16.2265 21.9061 15.8906 21.7183L15.1094 21.2817C14.4376 20.9061 13.5624 20.9061 12.8906 21.2817L12.1094 21.7183C11.7735 21.9061 11.3868 22 11 22C10.6133 22 10.2265 21.9061 9.8906 21.7183L9.1094 21.2817C8.4376 20.9061 7.5624 20.9061 6.8906 21.2817L6.1094 21.7183C5.47351 22.0738 4.65537 22.0928 4 21.7753M12.4848 2H11.7896C11.002 2 10.3636 2.6467 10.3636 3.44444C10.3636 4.24219 11.002 4.88889 11.7896 4.88889H20M20 7.77778H6.49537C5.11722 7.77778 4 6.64605 4 5.25C4 3.85395 5.11722 2.72222 6.49537 2.72222H7.53535M20 10.6667H8.96717C7.7859 10.6667 6.82828 11.6367 6.82828 12.8333C6.82828 14.03 7.7859 15 8.96717 15H10.3636" stroke="black" stroke-width="2" stroke-linecap="round" stroke-linejoin="round"/>
</svg>
