<svg width="24" height="24" viewBox="0 0 24 24" fill="none" xmlns="http://www.w3.org/2000/svg">
<path d="M22 12.7753C21.963 12.7574 21.9265 12.7384 21.8906 12.7183L21.1094 12.2817C20.4376 11.9061 19.5624 11.9061 18.8906 12.2817L18.1094 12.7183C17.7735 12.9061 17.3868 13 17 13C16.6132 13 16.2265 12.9061 15.8906 12.7183L15.1094 12.2817C14.4376 11.9061 13.5624 11.9061 12.8906 12.2817L12.1094 12.7183C11.4376 13.0939 10.5624 13.0939 9.8906 12.7183L9.1094 12.2817C8.4376 11.9061 7.5624 11.9061 6.8906 12.2817L6.1094 12.7183C5.4376 13.0939 4.5624 13.0939 3.8906 12.7183L3.1094 12.2817C2.7735 12.0939 2.38675 12 2 12M22 17.7753C21.963 17.7574 21.9265 17.7384 21.8906 17.7183L21.1094 17.2817C20.4376 16.9061 19.5624 16.9061 18.8906 17.2817L18.1094 17.7183C17.7735 17.9061 17.3868 18 17 18C16.6132 18 16.2265 17.9061 15.8906 17.7183L15.1094 17.2817C14.4376 16.9061 13.5624 16.9061 12.8906 17.2817L12.1094 17.7183C11.7735 17.9061 11.3868 18 11 18C10.6132 18 10.2265 17.9061 9.8906 17.7183L9.1094 17.2817C8.4376 16.9061 7.5624 16.9061 6.8906 17.2817L6.1094 17.7183C5.4376 18.0939 4.5624 18.0939 3.8906 17.7183L3.1094 17.2817C2.7735 17.0939 2.38675 17 2 17M2 8L4.75746 8.68937C5.38861 8.84715 6 8.36979 6 7.71922V6L8.4 7.8C9.05924 8.29443 10 7.82405 10 7V6L12.4 7.8C13.0592 8.29443 14 7.82405 14 7V6L16.4 7.8C17.0592 8.29443 18 7.82405 18 7V6L22 9" stroke="black" stroke-width="2" stroke-linecap="round" stroke-linejoin="round"/>
</svg>
