<svg width="24" height="24" viewBox="0 0 24 24" fill="none" xmlns="http://www.w3.org/2000/svg">
<path d="M22 4.77534C21.963 4.75742 21.9265 4.73842 21.8906 4.71835L21.1094 4.28165C20.4376 3.90612 19.5624 3.90612 18.8906 4.28165L18.1094 4.71835C17.7735 4.90612 17.3868 5 17 5C16.6132 5 16.2265 4.90612 15.8906 4.71835L15.1094 4.28165C14.4376 3.90612 13.5624 3.90612 12.8906 4.28165L12.1094 4.71835C11.4376 5.09388 10.5624 5.09388 9.8906 4.71835L9.1094 4.28165C8.4376 3.90612 7.5624 3.90612 6.8906 4.28165L6.1094 4.71835C5.4376 5.09388 4.5624 5.09388 3.8906 4.71835L3.1094 4.28165C2.7735 4.09388 2.38675 4 2 4M22 9.77534C21.963 9.75742 21.9265 9.73842 21.8906 9.71835L21.1094 9.28165C20.4376 8.90612 19.5624 8.90612 18.8906 9.28165L18.1094 9.71835C17.7735 9.90612 17.3868 10 17 10C16.6132 10 16.2265 9.90612 15.8906 9.71835L15.1094 9.28165C14.4376 8.90612 13.5624 8.90612 12.8906 9.28165L12.1094 9.71835C11.4376 10.0939 10.5624 10.0939 9.8906 9.71835L9.1094 9.28165C8.4376 8.90612 7.5624 8.90612 6.8906 9.28165L6.1094 9.71835C5.4376 10.0939 4.5624 10.0939 3.8906 9.71835L3.1094 9.28165C2.7735 9.09388 2.38675 9 2 9M22 14.7753C21.963 14.7574 21.9265 14.7384 21.8906 14.7183L21.1094 14.2817C20.4376 13.9061 19.5624 13.9061 18.8906 14.2817L18.1094 14.7183C17.7735 14.9061 17.3868 15 17 15C16.6132 15 16.2265 14.9061 15.8906 14.7183L15.1094 14.2817C14.4376 13.9061 13.5624 13.9061 12.8906 14.2817L12.1094 14.7183C11.4376 15.0939 10.5624 15.0939 9.8906 14.7183L9.1094 14.2817C8.4376 13.9061 7.5624 13.9061 6.8906 14.2817L6.1094 14.7183C5.4376 15.0939 4.5624 15.0939 3.8906 14.7183L3.1094 14.2817C2.7735 14.0939 2.38675 14 2 14M22 19.7753C21.963 19.7574 21.9265 19.7384 21.8906 19.7183L21.1094 19.2817C20.4376 18.9061 19.5624 18.9061 18.8906 19.2817L18.1094 19.7183C17.7735 19.9061 17.3868 20 17 20C16.6132 20 16.2265 19.9061 15.8906 19.7183L15.1094 19.2817C14.4376 18.9061 13.5624 18.9061 12.8906 19.2817L12.1094 19.7183C11.7735 19.9061 11.3868 20 11 20C10.6132 20 10.2265 19.9061 9.8906 19.7183L9.1094 19.2817C8.4376 18.9061 7.5624 18.9061 6.8906 19.2817L6.1094 19.7183C5.4376 20.0939 4.5624 20.0939 3.8906 19.7183L3.1094 19.2817C2.7735 19.0939 2.38675 19 2 19" stroke="black" stroke-width="2" stroke-linecap="round" stroke-linejoin="round"/>
</svg>
