<svg width="24" height="24" viewBox="0 0 24 24" fill="none" xmlns="http://www.w3.org/2000/svg">
<path d="M22 17.7753C21.963 17.7574 21.9265 17.7384 21.8906 17.7183L21.1094 17.2817C20.4376 16.9061 19.5624 16.9061 18.8906 17.2817L18.1094 17.7183C17.7735 17.9061 17.3868 18 17 18C16.6132 18 16.2265 17.9061 15.8906 17.7183L15.1094 17.2817C14.4376 16.9061 13.5624 16.9061 12.8906 17.2817L12.1094 17.7183C11.7735 17.9061 11.3868 18 11 18C10.6132 18 10.2265 17.9061 9.8906 17.7183L9.1094 17.2817C8.4376 16.9061 7.5624 16.9061 6.8906 17.2817L6.1094 17.7183C5.4376 18.0939 4.5624 18.0939 3.8906 17.7183L3.1094 17.2817C2.7735 17.0939 2.38675 17 2 17M2 13C13 15 10 6 7 6C11.2747 6 14.0876 7.46184 14.8137 11.0104C15.0351 12.0926 15.8954 13 17 13H22" stroke="black" stroke-width="2" stroke-linecap="round" stroke-linejoin="round"/>
</svg>
