<svg width="24" height="24" viewBox="0 0 24 24" fill="none" xmlns="http://www.w3.org/2000/svg">
<path d="M15.5 16V17.5M19.5 16V17.5M6.5 15.7778H5.75C4.7835 15.7778 4 16.5279 4 17.453C4 18.3782 4.7835 19.1283 5.75 19.1283H9.5M12 19.1283H9.5M9.5 19.1283C8.67157 19.1283 8 19.7711 8 20.5642C8 21.3572 8.67157 22.0001 9.5 22.0001H10.5M15.5 20.5642V22M19.5 20.5642V22M7.2 6.35546C7.2 6.48893 7.20606 6.621 7.21794 6.75141H7.15625C5.4131 6.75141 4 8.1502 4 9.8757C4 11.6012 5.4131 13 7.15625 13H11.6H16.0437C18.2287 13 20 11.2467 20 9.0838C20 6.92095 18.2287 5.1676 16.0437 5.1676H15.8344C15.312 3.3395 13.614 2 11.6 2C9.16995 2 7.2 3.95 7.2 6.35546Z" stroke="black" stroke-width="2" stroke-linecap="round" stroke-linejoin="round"/>
</svg>
