<svg width="24" height="24" viewBox="0 0 24 24" fill="none" xmlns="http://www.w3.org/2000/svg">
<path d="M4 7V2M4 7L6.97304 4.77022C7.28347 4.5374 7.6326 4.36951 8 4.27153M4 7V10M4 22V10M4 10L6.97304 12.2298C7.28347 12.4626 7.6326 12.6305 8 12.7285M8 4.27153C8.40884 4.1625 8.8403 4.14005 9.26624 4.21104L12 4.66667M8 4.27153V12.7285M8 12.7285C8.40884 12.8375 8.8403 12.8599 9.26624 12.789L12 12.3333M12 4.66667V12.3333M12 4.66667L16 5.33333M12 12.3333L16 11.6667M16 5.33333L18.3288 5.72147C19.2932 5.8822 20 6.71658 20 7.69425V9.30575C20 10.2834 19.2932 11.1178 18.3288 11.2785L16 11.6667M16 5.33333V11.6667" stroke="black" stroke-width="2" stroke-linecap="round" stroke-linejoin="round"/>
</svg>
