<svg width="24" height="24" viewBox="0 0 24 24" fill="none" xmlns="http://www.w3.org/2000/svg">
<path d="M6 6H18M13.5 12V17C13.5 18.1046 14.3954 19 15.5 19C16.6046 19 17.5 18.1046 17.5 17C17.5 16.2597 17.0978 15.6134 16.5 15.2676M10 12V19C10 20.1046 9.10457 21 8 21C6.89543 21 6 20.1046 6 19C6 18.2597 6.4022 17.6134 7 17.2676M4.5 9H19.5C20.3284 9 21 8.32843 21 7.5V3.5C21 2.67157 20.3284 2 19.5 2H4.5C3.67157 2 3 2.67157 3 3.5V7.5C3 8.32843 3.67157 9 4.5 9Z" stroke="black" stroke-width="2" stroke-linecap="round" stroke-linejoin="round"/>
</svg>
