<svg width="24" height="24" viewBox="0 0 24 24" fill="none" xmlns="http://www.w3.org/2000/svg">
<path d="M6 8H18M18 5H17M13.5 14V17C13.5 18.1046 14.3954 19 15.5 19C16.6046 19 17.5 18.1046 17.5 17C17.5 16.2597 17.0978 15.6134 16.5 15.2676M10 14V19C10 20.1046 9.10457 21 8 21C6.89543 21 6 20.1046 6 19C6 18.2597 6.4022 17.6134 7 17.2676M6 11H18C19.6569 11 21 9.65685 21 8V5C21 3.34315 19.6569 2 18 2H6C4.34315 2 3 3.34315 3 5V8C3 9.65685 4.34315 11 6 11Z" stroke="black" stroke-width="2" stroke-linecap="round" stroke-linejoin="round"/>
</svg>
