<svg width="24" height="24" viewBox="0 0 24 24" fill="none" xmlns="http://www.w3.org/2000/svg">
<path d="M2 7V13M2 17V15M2 13V15M2 13H10M2 15H22M22 17V15M22 15V13M22 13V12C22 10.3431 20.6569 9 19 9H10V13M22 13H10M6.03114 10.5V10.5C6.58573 10.5 7.03205 10.0443 7.02055 9.48984L7.02011 9.46887C7.00894 8.93056 6.56935 8.5 6.03092 8.5V8.5C5.48448 8.5 5.04151 8.94297 5.04151 9.48941V9.51038C5.04151 10.0569 5.48458 10.5 6.03114 10.5Z" stroke="black" stroke-width="2" stroke-linecap="round" stroke-linejoin="round"/>
</svg>
