<svg width="24" height="24" viewBox="0 0 24 24" fill="none" xmlns="http://www.w3.org/2000/svg">
<path d="M12 10V9M12 10C12 11.1046 12.8954 12 14 12H18M12 10C12 11.1046 11.1046 12 10 12H6M12 9C12 7.89543 12.8954 7 14 7H18C19.1046 7 20 7.89543 20 9V10C20 11.1046 19.1046 12 18 12M12 9C12 7.89543 11.1046 7 10 7H6C4.89543 7 4 7.89543 4 9V10C4 11.1046 4.89543 12 6 12M18 12H6M18 12C19.6569 12 21 13.3431 21 15V19M6 12C4.34315 12 3 13.3431 3 15V19M21 21V19M3 21V19M21 19H3M4 7V11C4 11.5523 4.44772 12 5 12H19C19.5523 12 20 11.5523 20 11V5C20 3.89543 19.1046 3 18 3H6C4.89543 3 4 3.89543 4 5V7Z" stroke="black" stroke-width="2" stroke-linecap="round" stroke-linejoin="round"/>
</svg>
