<svg width="24" height="24" viewBox="0 0 24 24" fill="none" xmlns="http://www.w3.org/2000/svg">
<path fill-rule="evenodd" clip-rule="evenodd" d="M3 4C3 3.44772 2.55228 3 2 3C1.44772 3 1 3.44772 1 4V10V18V20C1 20.5523 1.44772 21 2 21C2.55228 21 3 20.5523 3 20V19H9H21V20C21 20.5523 21.4477 21 22 21C22.5523 21 23 20.5523 23 20V18V15V10C23 7.79086 21.2091 6 19 6H9C8.44772 6 8 6.44772 8 7V9H3V4ZM8 15V17H3V11H9H21V14H9C8.44772 14 8 14.4477 8 15ZM19 8C19.7403 8 20.3866 8.4022 20.7324 9H10V8H19ZM10 16H21V17H10V16ZM5.5 8.5C6.32843 8.5 7 7.82843 7 7C7 6.17157 6.32843 5.5 5.5 5.5C4.67157 5.5 4 6.17157 4 7C4 7.82843 4.67157 8.5 5.5 8.5ZM5.5 16.5C6.32843 16.5 7 15.8284 7 15C7 14.1716 6.32843 13.5 5.5 13.5C4.67157 13.5 4 14.1716 4 15C4 15.8284 4.67157 16.5 5.5 16.5Z" fill="black"/>
</svg>
