<svg width="24" height="24" viewBox="0 0 24 24" fill="none" xmlns="http://www.w3.org/2000/svg">
<path d="M8 2H20L18 5M8 2L8.36885 5M8 2H7C5.34315 2 4 3.34315 4 5V9C4 10.6569 5.34315 12 7 12H9.22949M10.0001 18.2676C10.2942 18.0974 10.6358 18 11.0001 18H15.0001C15.3644 18 15.7059 18.0974 16.0001 18.2676M10.0001 18.2676C9.40227 18.6134 9.00007 19.2597 9.00007 20V22H17.0001V20C17.0001 19.2597 16.5979 18.6134 16.0001 18.2676M10.0001 18.2676L9.22949 12M16.0001 18.2676L17.397 9M18 5H8.36885M18 5L17.397 9M8.36885 5L8.86064 9M9.22949 12L8.86064 9M8.86064 9L10.0249 9.2721C10.6565 9.41971 11.3193 9.35 11.9064 9.07425V9.07425C12.6809 8.7104 13.5804 8.71106 14.3556 9.07344V9.07344C14.9452 9.34901 15.6128 9.41908 16.2463 9.27028L17.397 9" stroke="black" stroke-width="2" stroke-linecap="round" stroke-linejoin="round"/>
</svg>
