<svg width="24" height="24" viewBox="0 0 24 24" fill="none" xmlns="http://www.w3.org/2000/svg">
<path d="M9 6V14M9 6H4.5C3.67157 6 3 5.32843 3 4.5V4.5C3 3.67157 3.67157 3 4.5 3H19.5C20.3284 3 21 3.67157 21 4.5V4.5C21 5.32843 20.3284 6 19.5 6H9ZM9 14V14C9.55228 14 10 14.4477 10 15V15C10 15.5523 9.55228 16 9 16V16C8.44772 16 8 15.5523 8 15V15C8 14.4477 8.44772 14 9 14V14ZM20 9.5H12M20 13.5H13M6 9.5H4M4 13.5H5" stroke="black" stroke-width="2" stroke-linecap="round" stroke-linejoin="round"/>
</svg>
