<svg width="24" height="24" viewBox="0 0 24 24" fill="none" xmlns="http://www.w3.org/2000/svg">
<path d="M10 4V14M10 4H2M10 4H22M10 14V14C10.5523 14 11 14.4477 11 15V15C11 15.5523 10.5523 16 10 16V16C9.44772 16 9 15.5523 9 15V15C9 14.4477 9.44772 14 10 14V14ZM21 8H20M13 8H20M21 12H20M13 12H20M7 8H4M3 8H4M3 12H4M7 12H4M4 8V7M4 12V11M20 8V7M20 12V11M3 20H4M4 20V19M4 20H20M20 20H21M20 20V19M3 16H4M4 16H6M4 16V15M21 16H20M20 16H14M20 16V15" stroke="black" stroke-width="2" stroke-linecap="round" stroke-linejoin="round"/>
</svg>
