<svg width="24" height="24" viewBox="0 0 24 24" fill="none" xmlns="http://www.w3.org/2000/svg">
<path d="M21 3L12.2529 11.7471M12.2529 11.7471L13.397 12.8911C13.9288 13.4229 14.0975 14.218 13.8275 14.92L13.1501 16.6813M12.2529 11.7471L11.1089 10.603C10.5771 10.0712 9.782 9.9025 9.08004 10.1725L7.3187 10.8499M7.3187 10.8499L4.22056 12.0415C2.93516 12.5359 2.58421 14.1897 3.55804 15.1635L4.85158 16.457M7.3187 10.8499L13.1501 16.6813M13.1501 16.6813L11.9585 19.7794C11.4641 21.0648 9.81035 21.4158 8.83652 20.442L4.85158 16.457M4.85158 16.457L7.20656 14.7749" stroke="black" stroke-width="2" stroke-linecap="round" stroke-linejoin="round"/>
</svg>
