<svg width="24" height="24" viewBox="0 0 24 24" fill="none" xmlns="http://www.w3.org/2000/svg">
<path d="M18.2404 5.75974L18.2474 5.7527M6.61974 9.89019L8.26417 8.49353C9.05365 7.823 10.2256 7.87066 10.958 8.60309L11.7711 9.41618L16.2105 3.99023C17.222 2.754 19.0797 2.66134 20.2092 3.7908C21.3387 4.92025 21.246 6.77799 20.0098 7.78946L14.5838 12.2289L15.3969 13.042C16.1293 13.7744 16.177 14.9463 15.5065 15.7358L14.1098 17.3803M6.61974 9.89019L3.70138 12.3688C2.81563 13.1211 2.7608 14.4693 3.58254 15.2911L7.55205 19.2606M6.61974 9.89019L14.1098 17.3803M14.1098 17.3803L11.6312 20.2986C10.8789 21.1844 9.53068 21.2392 8.70894 20.4175L7.55205 19.2606M7.55205 19.2606L9.30999 17.5026" stroke="black" stroke-width="2" stroke-linecap="round" stroke-linejoin="round"/>
</svg>
