<svg width="24" height="24" viewBox="0 0 24 24" fill="none" xmlns="http://www.w3.org/2000/svg">
<path d="M12 16V21M12 16H5M12 16H19M12 21H14.25C14.6642 21 15 21.3358 15 21.75V22H9V21.75C9 21.3358 9.33579 21 9.75 21H12ZM3.5 13V11M3.5 11H4M3.5 11H3M20.5 13V11M20.5 11H21M20.5 11H20M6.5 13L8.12127 6.51493C8.34385 5.62459 9.14382 5 10.0616 5H13.9384C14.8562 5 15.6561 5.62459 15.8787 6.51493L17.5 13M13.5 2H12H10.5" stroke="black" stroke-width="2" stroke-linecap="round" stroke-linejoin="round"/>
</svg>
