<svg width="24" height="24" viewBox="0 0 24 24" fill="none" xmlns="http://www.w3.org/2000/svg">
<path d="M12 16V21M12 16H5M12 16H19M12 21H14.25C14.6642 21 15 21.3358 15 21.75V22H9V21.75C9 21.3358 9.33579 21 9.75 21H12ZM6 13.5V11.5M6 11.5H6.5M6 11.5H5.5M18 13.5V11.5M18 11.5H18.5M18 11.5H17.5M7 9L7.4319 7.27239C7.76578 5.93689 8.96573 5 10.3423 5H13.6577C15.0343 5 16.2342 5.93689 16.5681 7.27239L17 9M13.5 2H12H10.5" stroke="black" stroke-width="2" stroke-linecap="round" stroke-linejoin="round"/>
</svg>
