<svg width="24" height="24" viewBox="0 0 24 24" fill="none" xmlns="http://www.w3.org/2000/svg">
<path d="M12 15V21M12 15H5.5C5.22386 15 5 14.7761 5 14.5C5 14.2239 5.22386 14 5.5 14H18.5C18.7761 14 19 14.2239 19 14.5C19 14.7761 18.7761 15 18.5 15H12ZM12 21H14.25C14.6642 21 15 21.3358 15 21.75V22H9V21.75C9 21.3358 9.33579 21 9.75 21H12ZM3.5 11V9M3.5 9H4M3.5 9H3M20.5 11V9M20.5 9H21M20.5 9H20M7 11V4C7 2.89543 7.89543 2 9 2H15C16.1046 2 17 2.89543 17 4V11" stroke="black" stroke-width="2" stroke-linecap="round" stroke-linejoin="round"/>
</svg>
