<svg width="24" height="24" viewBox="0 0 24 24" fill="none" xmlns="http://www.w3.org/2000/svg">
<path d="M5.5 22V15M5.5 15H4.5C4.22386 15 4 14.7761 4 14.5C4 14.2239 4.22386 14 4.5 14H19.5C19.7761 14 20 14.2239 20 14.5C20 14.7761 19.7761 15 19.5 15H18.5M5.5 15H18.5M18.5 22V15M5.5 11V8.5C5.5 6.09408 6.80715 3.99346 8.75 2.86958M18.5 11V8.5C18.5 6.09408 17.1929 3.99347 15.25 2.86958M12 2C13.1839 2 14.2939 2.31653 15.25 2.86958M12 2C10.8161 2 9.70606 2.31653 8.75 2.86958M12 2V11M15.25 2.86958V11M8.75 2.86958V11" stroke="black" stroke-width="2" stroke-linecap="round" stroke-linejoin="round"/>
</svg>
