<svg width="24" height="24" viewBox="0 0 24 24" fill="none" xmlns="http://www.w3.org/2000/svg">
<path d="M6 22V15M6 15H4.5C4.22386 15 4 14.7761 4 14.5C4 14.2239 4.22386 14 4.5 14H19.5C19.7761 14 20 14.2239 20 14.5C20 14.7761 19.7761 15 19.5 15H18M6 15H18M18 22V15M12 2V11M12 2H15M12 2H9M9 2V11M9 2H8C6.89543 2 6 2.89543 6 4V6M15 2V11M15 2H16C17.1046 2 18 2.89543 18 4V6M19 9.5V11H20V9.5C20 9.22386 19.7761 9 19.5 9C19.2239 9 19 9.22386 19 9.5ZM5 11V9.5C5 9.22386 4.77614 9 4.5 9C4.22386 9 4 9.22386 4 9.5V11H5Z" stroke="black" stroke-width="2" stroke-linecap="round" stroke-linejoin="round"/>
</svg>
