<svg width="24" height="24" viewBox="0 0 24 24" fill="none" xmlns="http://www.w3.org/2000/svg">
<path d="M6 22V15M6 15H4.5C4.22386 15 4 14.7761 4 14.5V14.5C4 14.2239 4.22386 14 4.5 14H19.5C19.7761 14 20 14.2239 20 14.5V14.5C20 14.7761 19.7761 15 19.5 15H18M6 15H18M18 22V15M6 2V3M6 3V6M6 3H18M18 2V3M12 3V11M9 3V11M15 3V11M18 6V3M5 11V9.5C5 9.22386 4.77614 9 4.5 9V9C4.22386 9 4 9.22386 4 9.5V11H5ZM19 11V9.5C19 9.22386 19.2239 9 19.5 9V9C19.7761 9 20 9.22386 20 9.5V11H19Z" stroke="black" stroke-width="2" stroke-linecap="round" stroke-linejoin="round"/>
</svg>
