<svg width="24" height="24" viewBox="0 0 24 24" fill="none" xmlns="http://www.w3.org/2000/svg">
<path d="M6 22V15M6 15H4.5C4.22386 15 4 14.7761 4 14.5V14.5C4 14.2239 4.22386 14 4.5 14H19.5C19.7761 14 20 14.2239 20 14.5V14.5C20 14.7761 19.7761 15 19.5 15H18M6 15H18M18 22V15M6 11V4M6 2V4M6 4C6 4 6.94534 3.51822 9 3.22347M18 4C18 4 17.0547 3.51822 15 3.22347M18 2V11M12 3V11M12 3C10.9294 3 9.90551 3.09357 9 3.22347M12 3C13.0706 3 14.0945 3.09357 15 3.22347M9 3.22347V11M15 3.22347V11" stroke="black" stroke-width="2" stroke-linecap="round" stroke-linejoin="round"/>
</svg>
