<svg width="24" height="24" viewBox="0 0 24 24" fill="none" xmlns="http://www.w3.org/2000/svg">
<path d="M12 15V21M12 15H4.5C4.22386 15 4 14.7761 4 14.5C4 14.2239 4.22386 14 4.5 14H19.5C19.7761 14 20 14.2239 20 14.5C20 14.7761 19.7761 15 19.5 15H12ZM12 21H14.25C14.6642 21 15 21.3358 15 21.75V22H9V21.75C9 21.3358 9.33579 21 9.75 21H12ZM5 11V9M5 9H5.5M5 9H4.5M19 11V9M19 9H19.5M19 9H18.5M6 6V4C6 2.89543 6.89543 2 8 2H16C17.1046 2 18 2.89543 18 4V6" stroke="black" stroke-width="2" stroke-linecap="round" stroke-linejoin="round"/>
</svg>
