<svg width="24" height="24" viewBox="0 0 24 24" fill="none" xmlns="http://www.w3.org/2000/svg">
<path d="M5 18V13M5 18H19M5 18C5 18.5523 4.55228 19 4 19H3C2.44772 19 2 18.5523 2 18V12C2 11.4477 2.44772 11 3 11M5 13V12C5 11.4477 4.55228 11 4 11H3M5 13H19M19 13V12C19 11.4477 19.4477 11 20 11H21M19 13V18M19 18C19 18.5523 19.4477 19 20 19H21C21.5523 19 22 18.5523 22 18V12C22 11.4477 21.5523 11 21 11M21 11V8C21 6.34315 19.6569 5 18 5H6C4.34315 5 3 6.34315 3 8V11" stroke="black" stroke-width="2" stroke-linecap="round" stroke-linejoin="round"/>
</svg>
