<svg width="24" height="24" viewBox="0 0 24 24" fill="none" xmlns="http://www.w3.org/2000/svg">
<path d="M6 13V11C6 10.4477 5.55228 10 5 10H4M6 13H18M6 13C6 13.5523 5.55228 14 5 14H4H3C2.44772 14 2 13.5523 2 13M18 13V11C18 10.4477 18.4477 10 19 10H20M18 13C18 13.5523 18.4477 14 19 14H20H21C21.5523 14 22 13.5523 22 13M4 10H3C2.44772 10 2 10.4477 2 11V13M4 10V8C4 6.34315 5.34315 5 7 5H17C18.6569 5 20 6.34315 20 8V10M20 10H21C21.5523 10 22 10.4477 22 11V13M2 13V18C2 18.5523 2.44772 19 3 19H19H21C21.5523 19 22 18.5523 22 18V13" stroke="black" stroke-width="2" stroke-linecap="round" stroke-linejoin="round"/>
</svg>
