<svg width="24" height="24" viewBox="0 0 24 24" fill="none" xmlns="http://www.w3.org/2000/svg">
<path d="M6 18V13M6 18H18M6 18C6 18.5523 5.55228 19 5 19H3C2.44772 19 2 18.5523 2 18V12C2 11.4477 2.44772 11 3 11H4M6 13V12C6 11.4477 5.55228 11 5 11H4M6 13H12M18 13V12C18 11.4477 18.4477 11 19 11H20M18 13V18M18 13H12M18 18C18 18.5523 18.4477 19 19 19H21C21.5523 19 22 18.5523 22 18V12C22 11.4477 21.5523 11 21 11H20M12 5V13M12 5H7C5.34315 5 4 6.34315 4 8V11M12 5H17C18.6569 5 20 6.34315 20 8V11" stroke="black" stroke-width="2" stroke-linecap="round" stroke-linejoin="round"/>
</svg>
