<svg width="24" height="24" viewBox="0 0 24 24" fill="none" xmlns="http://www.w3.org/2000/svg">
<path d="M2 4H3M22 4H21M3 4V5M3 4H6M6 4V5M6 4H9M9 4V5M9 4H15M21 4V5M21 4H18M18 4V5M18 4H15M15 4V5M3 7.5C4 8.25 5 8.25 6 7.5C7 8.25 8 8.25 9 7.5C9 12.5 7.5 15.5 5 17C6 17.75 6.75 18.5 7 19.75C7 19.75 6.24754 20.0168 5.75 20C5.13288 19.9792 4.86712 19.7708 4.25 19.75C3.75246 19.7333 3 20 3 20V7.5ZM21 7.5C20 8.25 19 8.25 18 7.5C17 8.25 16 8.25 15 7.5C15 12.5 16.5 15.5 19 17C18 17.75 17.25 18.5 17 19.75C17 19.75 17.7525 20.0168 18.25 20C18.8671 19.9792 19.1329 19.7708 19.75 19.75C20.2475 19.7333 21 20 21 20V7.5Z" stroke="black" stroke-width="2" stroke-linecap="round" stroke-linejoin="round"/>
</svg>
