<svg width="24" height="24" viewBox="0 0 24 24" fill="none" xmlns="http://www.w3.org/2000/svg">
<path d="M19.8524 10.1343L19.1343 10.8524M12.3129 6.18508L11.5948 5.46704C10.8017 4.6739 10.8017 3.38798 11.5948 2.59485C12.388 1.80172 13.6739 1.80172 14.467 2.59485L15.5247 3.65251C15.7611 3.88894 16.0998 3.98366 16.4328 3.95466C17.7914 3.83637 18.9268 4.34285 19.8389 5.12216C20.0521 5.30431 20.0507 5.62778 19.8524 5.82606L14.8261 10.8524C14.6278 11.0507 14.3043 11.0521 14.1222 10.8389C13.3429 9.92677 12.8364 8.7914 12.9547 7.43284C12.9837 7.09975 12.8889 6.76112 12.6525 6.5247L12.3129 6.18508ZM12.3129 6.18508L8.22483 9.71413M13 21H10.118C9.73926 21 9.393 21.214 9.22361 21.5528L9 22H17L16.7764 21.5528C16.607 21.214 16.2607 21 15.882 21H13ZM13 21L7.89368 15.5732M6 12.5V12.5C6 13.0523 5.55228 13.5 5 13.5V13.5C4.44772 13.5 4 13.0523 4 12.5V12.5C4 11.9477 4.44772 11.5 5 11.5V11.5C5.55228 11.5 6 11.9477 6 12.5Z" stroke="black" stroke-width="2" stroke-linecap="round" stroke-linejoin="round"/>
</svg>
