<svg width="24" height="24" viewBox="0 0 24 24" fill="none" xmlns="http://www.w3.org/2000/svg">
<path fill-rule="evenodd" clip-rule="evenodd" d="M6 4C6 3.44772 6.44772 3 7 3H17C17.5523 3 18 3.44772 18 4V20C18 20.5523 17.5523 21 17 21H7C6.44772 21 6 20.5523 6 20V4ZM7 1C5.34315 1 4 2.34315 4 4V20C4 21.6569 5.34315 23 7 23H17C18.6569 23 20 21.6569 20 20V4C20 2.34315 18.6569 1 17 1H7ZM15 5H9C8.44772 5 8 5.44772 8 6V12C8 12.5523 8.44772 13 9 13H15C15.5523 13 16 12.5523 16 12V6C16 5.44772 15.5523 5 15 5ZM13.6404 9.52786L13.9711 10.1382C14.0611 10.3044 13.9301 10.5 13.7288 10.5H12.7947C12.7514 10.5 12.7111 10.5224 12.6884 10.5593L12.665 10.5972C12.5397 10.8366 12.2889 11 12 11C11.711 11 11.4603 10.8366 11.335 10.5972L11.3116 10.5593C11.2889 10.5224 11.2486 10.5 11.2053 10.5H10.2712C10.0699 10.5 9.93889 10.3044 10.0289 10.1382L10.3596 9.52786C10.5477 9.18073 10.6456 8.79794 10.6456 8.40983V8.25C10.6456 7.82583 10.8745 7.451 11.2246 7.22501C11.2412 7.21427 11.2581 7.20387 11.2753 7.19381C11.4848 7.07107 11.7334 7 12 7C12.2666 7 12.5152 7.07107 12.7247 7.19381C12.7419 7.20387 12.7588 7.21427 12.7754 7.22501C13.1255 7.451 13.3544 7.82583 13.3544 8.25V8.40983C13.3544 8.79794 13.4523 9.18073 13.6404 9.52786Z" fill="black"/>
</svg>
