<svg width="24" height="24" viewBox="0 0 24 24" fill="none" xmlns="http://www.w3.org/2000/svg">
<path fill-rule="evenodd" clip-rule="evenodd" d="M7 1C5.89543 1 5 1.89543 5 3V21C5 22.1046 5.89543 23 7 23H17C18.1046 23 19 22.1046 19 21V3C19 1.89543 18.1046 1 17 1H7ZM7 3H17V21H7V3ZM10 4C8.89543 4 8 4.89543 8 6V8C8 9.10457 8.89543 10 10 10H14C15.1046 10 16 9.10457 16 8V6C16 4.89543 15.1046 4 14 4H10ZM10 6H14V8H10V6ZM16.5 11.75C16.5 11.1977 16.0523 10.75 15.5 10.75C15.2464 10.75 15.0148 10.8444 14.8385 11H13.5C12.9477 11 12.5 11.4477 12.5 12C12.5 12.5523 12.9477 13 13.5 13H14.8385C15.0148 13.1556 15.2464 13.25 15.5 13.25C16.0523 13.25 16.5 12.8023 16.5 12.25V12V11.75ZM15.5 16H8.5C8.22386 16 8 16.2239 8 16.5V19.5C8 19.7761 8.22386 20 8.5 20H15.5C15.7761 20 16 19.7761 16 19.5V16.5C16 16.2239 15.7761 16 15.5 16ZM8.8 17C8.8 16.8895 8.88954 16.8 9 16.8H15C15.1105 16.8 15.2 16.8895 15.2 17C15.2 17.1105 15.1105 17.2 15 17.2H9C8.88954 17.2 8.8 17.1105 8.8 17ZM8.8 18C8.8 17.8895 8.88954 17.8 9 17.8H15C15.1105 17.8 15.2 17.8895 15.2 18C15.2 18.1105 15.1105 18.2 15 18.2H9C8.88954 18.2 8.8 18.1105 8.8 18ZM8.8 19C8.8 18.8895 8.88954 18.8 9 18.8H15C15.1105 18.8 15.2 18.8895 15.2 19C15.2 19.1105 15.1105 19.2 15 19.2H9C8.88954 19.2 8.8 19.1105 8.8 19Z" fill="black"/>
</svg>
