<svg width="24" height="24" viewBox="0 0 24 24" fill="none" xmlns="http://www.w3.org/2000/svg">
<path fill-rule="evenodd" clip-rule="evenodd" d="M12 2C6.47715 2 2 6.47715 2 12V18C2 20.2091 3.79086 22 6 22H18C20.2091 22 22 20.2091 22 18V12C22 6.47715 17.5228 2 12 2ZM4 12C4 7.58172 7.58172 4 12 4C16.4183 4 20 7.58172 20 12V18C20 19.1046 19.1046 20 18 20H6C4.89543 20 4 19.1046 4 18V12ZM12 5C8.13401 5 5 8.13401 5 12C5 15.866 8.13401 19 12 19C15.866 19 19 15.866 19 12C19 8.13401 15.866 5 12 5ZM7 12C7 9.23858 9.23858 7 12 7C14.7614 7 17 9.23858 17 12C17 14.7614 14.7614 17 12 17C9.23858 17 7 14.7614 7 12ZM5.98 17C5.42772 17 4.98 17.4477 4.98 18C4.98 18.5523 5.42772 19 5.98 19H5.99C6.54228 19 6.99 18.5523 6.99 18C6.99 17.4477 6.54228 17 5.99 17H5.98ZM12.1054 15.9999C13.4525 15.9447 14.5276 14.8351 14.5276 13.4744C14.5276 12.9831 14.3874 12.5245 14.1449 12.1365C14.1085 12.0783 14.149 12 14.2177 12H15.8968C15.9549 12 16.0023 11.9527 15.9999 11.8946C15.9447 10.5475 14.8351 9.47238 13.4744 9.47238C12.9831 9.47238 12.5245 9.61257 12.1365 9.85514C12.0783 9.89153 12 9.85101 12 9.78235V8.10325C12 8.04508 11.9527 7.9977 11.8946 8.00009C10.5475 8.05535 9.47238 9.1649 9.47238 10.5256C9.47238 11.0169 9.61257 11.4755 9.85514 11.8635C9.89153 11.9217 9.85101 12 9.78235 12H8.10325C8.04508 12 7.9977 12.0473 8.00009 12.1054C8.05535 13.4525 9.16489 14.5276 10.5256 14.5276C11.0169 14.5276 11.4755 14.3874 11.8635 14.1449C11.9217 14.1085 12 14.149 12 14.2177V15.8968C12 15.9549 12.0473 16.0023 12.1054 15.9999ZM11.1575 12C11.1575 12.4653 11.5347 12.8425 12 12.8425C12.4653 12.8425 12.8425 12.4653 12.8425 12C12.8425 11.5347 12.4653 11.1575 12 11.1575C11.5347 11.1575 11.1575 11.5347 11.1575 12Z" fill="black"/>
</svg>
