<svg width="24" height="24" viewBox="0 0 24 24" fill="none" xmlns="http://www.w3.org/2000/svg">
<path fill-rule="evenodd" clip-rule="evenodd" d="M12 1C7.02944 1 3 5.02944 3 10C3 14.6326 6.50005 18.4476 11 18.9451V21H7C6.44772 21 6 21.4477 6 22C6 22.5523 6.44772 23 7 23H12H17C17.5523 23 18 22.5523 18 22C18 21.4477 17.5523 21 17 21H13V18.9451C17.5 18.4476 21 14.6326 21 10C21 5.02944 16.9706 1 12 1ZM5 10C5 6.13401 8.13401 3 12 3C15.866 3 19 6.13401 19 10C19 13.866 15.866 17 12 17C8.13401 17 5 13.866 5 10ZM12.1581 15.9999C14.1787 15.917 15.7914 14.2527 15.7914 12.2117C15.7914 11.4747 15.5811 10.7868 15.2173 10.2047C15.1627 10.1174 15.2235 10 15.3265 10H17.8451C17.9324 10 18.0034 9.92906 17.9999 9.84188C17.917 7.82126 16.2527 6.20856 14.2117 6.20856C13.4747 6.20856 12.7868 6.41886 12.2047 6.78271C12.1174 6.8373 12 6.77651 12 6.67352V4.15487C12 4.06762 11.9291 3.99655 11.8419 4.00013C9.82126 4.08302 8.20856 5.74734 8.20856 7.78833C8.20856 8.52534 8.41886 9.21324 8.78271 9.79529C8.8373 9.88262 8.77651 10 8.67352 10H6.15487C6.06762 10 5.99655 10.0709 6.00013 10.1581C6.08302 12.1787 7.74734 13.7914 9.78833 13.7914C10.5253 13.7914 11.2132 13.5811 11.7953 13.2173C11.8826 13.1627 12 13.2235 12 13.3265V15.8451C12 15.9324 12.0709 16.0034 12.1581 15.9999ZM10.7362 10C10.7362 10.698 11.302 11.2638 12 11.2638C12.698 11.2638 13.2638 10.698 13.2638 10C13.2638 9.30202 12.698 8.73619 12 8.73619C11.302 8.73619 10.7362 9.30202 10.7362 10Z" fill="black"/>
</svg>
