<svg width="24" height="24" viewBox="0 0 24 24" fill="none" xmlns="http://www.w3.org/2000/svg">
<path fill-rule="evenodd" clip-rule="evenodd" d="M12.9 1C10.8833 1 9.2 2.5966 9.2 4.625V5.375H8.4C7.89005 5.375 7.46925 5.75671 7.40774 6.25H4.89226C4.83075 5.75671 4.40995 5.375 3.9 5.375H3C2.44772 5.375 2 5.82272 2 6.375V11.625C2 12.1773 2.44772 12.625 3 12.625H3.9C4.40995 12.625 4.83075 12.2433 4.89226 11.75H15.15C15.6186 11.75 15.95 12.1122 15.95 12.5V15.1647C15.6789 15.3436 15.5 15.6509 15.5 16C15.5 16.5523 15.9477 17 16.5 17H16.95H20.55H21C21.5523 17 22 16.5523 22 16C22 15.6509 21.8211 15.3436 21.55 15.1647V12.5C21.55 9.02185 18.6579 6.25 15.15 6.25H12.9923C12.9308 5.75671 12.51 5.375 12 5.375H11.2V4.625C11.2 3.75391 11.9344 3 12.9 3H18.3C18.8523 3 19.3 2.55228 19.3 2C19.3 1.44772 18.8523 1 18.3 1H12.9ZM10.2 8.25H4V9.75H15.15C16.6697 9.75 17.95 10.9548 17.95 12.5V15H19.55V12.5C19.55 10.1792 17.6068 8.25 15.15 8.25H10.2ZM17.25 20.5704C17.25 21.3599 17.9216 22 18.75 22C19.5784 22 20.25 21.3599 20.25 20.5704C20.25 19.836 19.5976 18.7289 18.9013 18.06C18.818 17.98 18.682 17.98 18.5987 18.06C17.9024 18.7289 17.25 19.836 17.25 20.5704Z" fill="black"/>
</svg>
