<svg width="24" height="24" viewBox="0 0 24 24" fill="none" xmlns="http://www.w3.org/2000/svg">
<path fill-rule="evenodd" clip-rule="evenodd" d="M8.85 1C8.50629 1 8.20308 1.1734 8.02309 1.4375H6.6C6.04772 1.4375 5.6 1.88522 5.6 2.4375C5.6 2.98978 6.04772 3.4375 6.6 3.4375H9.2V5.375H8.4C7.89005 5.375 7.46925 5.75671 7.40774 6.25H4.89226C4.83075 5.75671 4.40995 5.375 3.9 5.375H3C2.44772 5.375 2 5.82272 2 6.375V11.625C2 12.1773 2.44772 12.625 3 12.625H3.9C4.40995 12.625 4.83075 12.2433 4.89226 11.75H14.95C15.5023 11.75 15.95 12.1977 15.95 12.75V15.1647C15.6789 15.3436 15.5 15.6509 15.5 16C15.5 16.5523 15.9477 17 16.5 17H16.95H20.55H21C21.5523 17 22 16.5523 22 16C22 15.6509 21.8211 15.3436 21.55 15.1647V13.25C21.55 9.38401 18.416 6.25 14.55 6.25H12.9923C12.9308 5.75671 12.51 5.375 12 5.375H11.2V3.4375H13.8C14.3523 3.4375 14.8 2.98978 14.8 2.4375C14.8 1.88522 14.3523 1.4375 13.8 1.4375H12.3769C12.1969 1.1734 11.8937 1 11.55 1H8.85ZM10.2 8.25H4V9.75H14.95C16.6069 9.75 17.95 11.0931 17.95 12.75V15H19.55V13.25C19.55 10.4886 17.3114 8.25 14.55 8.25H10.2ZM17.25 20.5704C17.25 21.3599 17.9216 22 18.75 22C19.5784 22 20.25 21.3599 20.25 20.5704C20.25 19.836 19.5976 18.7289 18.9013 18.06C18.818 17.98 18.682 17.98 18.5987 18.06C17.9024 18.7289 17.25 19.836 17.25 20.5704Z" fill="black"/>
</svg>
