<svg width="24" height="24" viewBox="0 0 24 24" fill="none" xmlns="http://www.w3.org/2000/svg">
<path d="M6.45691 18.75H17.5436M6.45691 18.75C6.46631 18.8754 6.46148 19.0019 6.44223 19.1271C6.20983 20.6377 7.37859 22 8.90697 22H15.0935C16.6219 22 17.7907 20.6377 17.5583 19.1271C17.539 19.0019 17.5342 18.8754 17.5436 18.75M6.45691 18.75C6.44766 18.6267 6.42465 18.5043 6.38804 18.3854L6.18122 17.7132C6.06329 17.3299 6.06329 16.9201 6.18122 16.5368L6.31926 16.0882C6.37822 15.8965 6.40771 15.6983 6.40771 15.5M17.5436 18.75C17.5528 18.6267 17.5758 18.5043 17.6124 18.3854L17.8193 17.7132C17.9372 17.3299 17.9372 16.9201 17.8193 16.5368L17.6812 16.0882C17.6223 15.8965 17.5928 15.6983 17.5928 15.5M6.40771 15.5H17.5928M6.40771 15.5C6.40771 15.3017 6.37822 15.1035 6.31926 14.9118L6.18122 14.4632C6.06329 14.0799 6.06329 13.6701 6.18122 13.2868L6.36527 12.6887C6.40931 12.5455 6.43699 12.3984 6.44811 12.25M17.5928 15.5C17.5928 15.3017 17.6223 15.1035 17.6812 14.9118L17.8193 14.4632C17.9372 14.0799 17.9372 13.6701 17.8193 13.2868L17.6352 12.6887C17.5912 12.5455 17.5635 12.3984 17.5524 12.25M6.44811 12.25H17.5524M6.44811 12.25C6.45942 12.0991 6.45361 11.9469 6.43045 11.7964L6.27366 10.7773C6.10534 9.68317 6.5532 8.58528 7.43878 7.92109L9.46691 6.4C9.8131 6.14036 10.2342 6 10.6669 6H13.3336C13.7663 6 14.1874 6.14036 14.5336 6.4L16.5617 7.92109C17.4473 8.58528 17.8951 9.68317 17.7268 10.7773L17.57 11.7964C17.5469 11.9469 17.5411 12.0991 17.5524 12.25M9.50024 2V3H14.5002V2H9.50024Z" stroke="black" stroke-width="2" stroke-linecap="round" stroke-linejoin="round"/>
</svg>
