<svg width="24" height="24" viewBox="0 0 24 24" fill="none" xmlns="http://www.w3.org/2000/svg">
<path d="M5 21.2222H16.6667M6.55556 22H15.1111M15.5 9.55556V8.77778C15.5 8.34822 15.1518 8 14.7222 8H7.33333C6.90378 8 6.55556 8.34822 6.55556 8.77778V15.7778C6.55556 17.496 7.94845 18.8889 9.66667 18.8889H12.3889C14.1071 18.8889 15.5 17.496 15.5 15.7778V15M15.5 9.55556H18.2222C18.6518 9.55556 19 9.90378 19 10.3333V11.8889C19 13.6071 17.6071 15 15.8889 15H15.5M15.5 9.55556V15M8 2C8 3.25 9 3.75 9 5M12 2C12 3.25 13 3.75 13 5" stroke="black" stroke-width="2" stroke-linecap="round" stroke-linejoin="round"/>
</svg>
