<svg width="24" height="24" viewBox="0 0 24 24" fill="none" xmlns="http://www.w3.org/2000/svg">
<path d="M14.163 15.4372C13.4819 15.6583 12.7549 15.7778 12 15.7778C11.2451 15.7778 10.5181 15.6583 9.83696 15.4372M14.163 15.4372C16.9704 14.526 19 11.8889 19 8.77778V8H5V8.77778C5 11.8889 7.02959 14.526 9.83696 15.4372M14.163 15.4372L16.2 19.511M9.83696 15.4372L7.80005 19.511M7.80005 19.511C7.99537 19.771 8.11111 20.0942 8.11111 20.4444C8.11111 21.3036 7.41467 22 6.55556 22C5.69645 22 5 21.3036 5 20.4444C5 19.5853 5.69645 18.8889 6.55556 18.8889C7.06444 18.8889 7.51624 19.1332 7.80005 19.511ZM7.80005 19.511H16.2M16.2 19.511L17.4444 22M7 2C7 3.25 8 3.75 8 5M11 2C11 3.25 12 3.75 12 5M15 2C15 3.25 16 3.75 16 5" stroke="black" stroke-width="2" stroke-linecap="round" stroke-linejoin="round"/>
</svg>
