<svg width="24" height="24" viewBox="0 0 24 24" fill="none" xmlns="http://www.w3.org/2000/svg">
<path d="M14.781 12.5621C13.9052 12.8464 12.9706 13 12 13C11.0294 13 10.0948 12.8464 9.21895 12.5621M14.781 12.5621C18.3905 11.3905 21 8 21 4V3H3V4C3 8 5.60948 11.3905 9.21895 12.5621M14.781 12.5621L17.3999 17.7999M9.21895 12.5621L6.60006 17.7999M6.60006 17.7999C6.85119 18.1342 7 18.5497 7 19C7 20.1046 6.10457 21 5 21C3.89543 21 3 20.1046 3 19C3 17.8954 3.89543 17 5 17C5.65427 17 6.23517 17.3142 6.60006 17.7999ZM6.60006 17.7999H17.3999M17.3999 17.7999L19 21M14 6C14 6 13.2433 6.5 12 6.5C10.7567 6.5 10 6 10 6" stroke="black" stroke-width="2" stroke-linecap="round" stroke-linejoin="round"/>
</svg>
