<svg width="24" height="24" viewBox="0 0 24 24" fill="none" xmlns="http://www.w3.org/2000/svg">
<path d="M11.8245 9.46007L3.74453 16.6244C2.7983 17.4634 2.74656 18.9476 3.63195 19.8535C4.51735 20.7593 5.968 20.7064 6.78807 19.7383L13.7908 11.4716M11.8245 9.46007L13.7908 11.4716M11.8245 9.46007C11.4151 9.04108 11.2374 8.4405 11.351 7.85956L11.4969 7.11308C10.8415 6.44254 9.85815 5.43696 7.89217 5.43673C10.1858 3.09007 13.1355 2.75447 15.4294 5.10136L18.4433 8.18488C18.8124 8.56251 18.9726 9.10389 18.8702 9.62756C18.7678 10.1512 18.928 10.6926 19.2971 11.0702L20.0171 11.8069M13.7908 11.4716L14.5105 12.2082C14.8796 12.586 15.4089 12.7499 15.9208 12.6451C16.4327 12.5404 16.9618 12.7042 17.3309 13.0819L18.0509 13.8185M18.0509 13.8185L17.0678 14.8243M18.0509 13.8185L20.0171 11.8069M20.0171 11.8069L21 10.8013" stroke="black" stroke-width="2" stroke-linecap="round" stroke-linejoin="round"/>
</svg>
