<svg width="24" height="24" viewBox="0 0 24 24" fill="none" xmlns="http://www.w3.org/2000/svg">
<path d="M12 9H19.1384C19.5223 9 19.763 8.58526 19.5725 8.25193L16.5758 3.00772C16.2198 2.38457 15.5571 2 14.8394 2H9.16065C8.44293 2 7.78024 2.38457 7.42416 3.00772L4.42747 8.25193C4.23699 8.58526 4.47768 9 4.86159 9H9M12 9V14M12 9H9M12 14H16C16.478 14.9561 20.6125 20.0257 13.9829 21.78C13.3398 21.9502 12.6652 22 12 22V22C11.3348 22 10.6602 21.9502 10.0171 21.78C3.38747 20.0257 7.52195 14.9561 8 14H12ZM9 9V11" stroke="black" stroke-width="2" stroke-linecap="round" stroke-linejoin="round"/>
</svg>
