<svg width="24" height="24" viewBox="0 0 24 24" fill="none" xmlns="http://www.w3.org/2000/svg">
<path d="M12 7H8.47703C7.76957 7 7.28581 6.28547 7.54856 5.62861L8.74856 2.62861C8.90042 2.24895 9.26813 2 9.67703 2H14.323C14.7319 2 15.0996 2.24895 15.2514 2.62861L16.4514 5.62861C16.7142 6.28547 16.2304 7 15.523 7H12ZM12 7V21.5M12 21.5H14.75C14.8881 21.5 15 21.6119 15 21.75V21.75C15 21.8881 14.8881 22 14.75 22H9.25C9.11193 22 9 21.8881 9 21.75V21.75C9 21.6119 9.11193 21.5 9.25 21.5H12Z" stroke="black" stroke-width="2" stroke-linecap="round" stroke-linejoin="round"/>
</svg>
