<svg width="24" height="24" viewBox="0 0 24 24" fill="none" xmlns="http://www.w3.org/2000/svg">
<path d="M15.5 19C15.5 20.6569 14.1569 22 12.5 22H11.5C9.84315 22 8.5 20.6569 8.5 19M15.5 19H8.5M15.5 19V15.0635M8.5 19V15.0635M8 9C8 6.79086 9.79086 5 12 5M8.5 15.0635C6.40769 13.8532 5 11.591 5 9C5 5.13401 8.13401 2 12 2C15.866 2 19 5.13401 19 9C19 11.591 17.5923 13.8532 15.5 15.0635M8.5 15.0635C9.52961 15.6591 10.725 16 12 16C13.275 16 14.4704 15.6591 15.5 15.0635" stroke="black" stroke-width="2" stroke-linecap="round" stroke-linejoin="round"/>
</svg>
