<svg width="24" height="24" viewBox="0 0 24 24" fill="none" xmlns="http://www.w3.org/2000/svg">
<path d="M15.5 17.3707V19C15.5 20.6569 14.1569 22 12.5 22H11.5C9.84315 22 8.5 20.6569 8.5 19V17.3707M15.5 17.3707C15.5 15.9428 16.3338 14.6789 17.2733 13.6037C18.3486 12.373 19 10.7626 19 9C19 5.13401 15.866 2 12 2C8.13401 2 5 5.13401 5 9C5 10.7626 5.65144 12.373 6.72669 13.6037C7.66618 14.6789 8.5 15.9428 8.5 17.3707M15.5 17.3707H8.5M8 9C8 6.79086 9.79086 5 12 5" stroke="black" stroke-width="2" stroke-linecap="round"/>
</svg>
