<svg width="24" height="24" viewBox="0 0 24 24" fill="none" xmlns="http://www.w3.org/2000/svg">
<path d="M19.75 11H21C21.5523 11 22 11.4477 22 12V18C22 19.6569 20.6569 21 19 21H5C3.34315 21 2 19.6569 2 18V12C2 11.4477 2.44772 11 3 11H4.25M19.75 11H18.5C17.9477 11 17.5 11.4477 17.5 12V14C17.5 14.5523 17.0523 15 16.5 15H7.5C6.94772 15 6.5 14.5523 6.5 14V12C6.5 11.4477 6.05228 11 5.5 11H4.25M19.75 11V6C19.75 4.34315 18.4069 3 16.75 3H7.25C5.59315 3 4.25 4.34315 4.25 6V11" stroke="black" stroke-width="2" stroke-linecap="round" stroke-linejoin="round"/>
</svg>
