<svg width="24" height="24" viewBox="0 0 24 24" fill="none" xmlns="http://www.w3.org/2000/svg">
<path d="M6.5 20V13M6.5 20H17.5M6.5 20C6.5 20.5523 6.05228 21 5.5 21H3C2.44772 21 2 20.5523 2 20V12C2 11.4477 2.44772 11 3 11H4.25M6.5 13V12C6.5 11.4477 6.05228 11 5.5 11H4.25M6.5 13H17.5M17.5 13V12C17.5 11.4477 17.9477 11 18.5 11H19.75M17.5 13V20M17.5 20C17.5 20.5523 17.9477 21 18.5 21H21C21.5523 21 22 20.5523 22 20V12C22 11.4477 21.5523 11 21 11H19.75M19.75 11V6C19.75 4.34315 18.4069 3 16.75 3H7.25C5.59315 3 4.25 4.34315 4.25 6V11" stroke="black" stroke-width="2" stroke-linecap="round" stroke-linejoin="round"/>
</svg>
