<svg width="24" height="24" viewBox="0 0 24 24" fill="none" xmlns="http://www.w3.org/2000/svg">
<path d="M18 18.5H19C20.6569 18.5 22 17.1569 22 15.5V7C22 5.34315 20.6569 4 19 4H5C3.34315 4 2 5.34315 2 7V15.5C2 17.1569 3.34315 18.5 5 18.5H7M18 18.5V20M18 18.5H7M7 18.5V20M18.5 7V15.5M14 14.5H7C6.44772 14.5 6 14.0523 6 13.5V9C6 8.44772 6.44772 8 7 8H14C14.5523 8 15 8.44772 15 9V13.5C15 14.0523 14.5523 14.5 14 14.5Z" stroke="black" stroke-width="2" stroke-linecap="round" stroke-linejoin="round"/>
</svg>
