<svg width="24" height="24" viewBox="0 0 24 24" fill="none" xmlns="http://www.w3.org/2000/svg">
<path fill-rule="evenodd" clip-rule="evenodd" d="M5 5C5 3.89543 5.89543 3 7 3H17C18.1046 3 19 3.89543 19 5V15C19 16.1046 18.1046 17 17 17H14H10H7C5.89543 17 5 16.1046 5 15V5ZM7 1C4.79086 1 3 2.79086 3 5V15C3 17.2091 4.79086 19 7 19H7.58579L6.14645 20.4393C5.2015 21.3843 5.87075 23 7.20711 23H16.7929C18.1293 23 18.7985 21.3843 17.8536 20.4393L16.4142 19H17C19.2091 19 21 17.2091 21 15V5C21 2.79086 19.2091 1 17 1H7ZM8.41421 21L10.4142 19H13.5858L15.5858 21H8.41421ZM12 5C9.23858 5 7 7.23858 7 10C7 12.7614 9.23858 15 12 15C14.7614 15 17 12.7614 17 10C17 7.23858 14.7614 5 12 5ZM9 10C9 8.34315 10.3431 7 12 7C13.6569 7 15 8.34315 15 10C15 11.6569 13.6569 13 12 13C10.3431 13 9 11.6569 9 10ZM12 7.5C10.6193 7.5 9.5 8.61929 9.5 10C9.5 10.2761 9.72386 10.5 10 10.5C10.2761 10.5 10.5 10.2761 10.5 10C10.5 9.17157 11.1716 8.5 12 8.5C12.2761 8.5 12.5 8.27614 12.5 8C12.5 7.72386 12.2761 7.5 12 7.5Z" fill="black"/>
</svg>
