<svg width="24" height="24" viewBox="0 0 24 24" fill="none" xmlns="http://www.w3.org/2000/svg">
<path d="M4 8V5.5C4 3.567 5.567 2 7.5 2H16.5C18.433 2 20 3.567 20 5.5V8M4 8V20C4 21.1046 4.89543 22 6 22H18C19.1046 22 20 21.1046 20 20V8M4 8H20M7.49 5H7.5M10.4902 5H10.5002M13.4902 5H13.5002M16.4902 5H16.5002M10 14H14M16.5 12.5V17.5C16.5 18.0523 16.0523 18.5 15.5 18.5H8.49C7.93772 18.5 7.49 18.0523 7.49 17.5V12.5C7.49 11.9477 7.93771 11.5 8.49 11.5H15.5C16.0523 11.5 16.5 11.9477 16.5 12.5Z" stroke="black" stroke-width="2" stroke-linecap="round" stroke-linejoin="round"/>
</svg>
