<svg width="24" height="24" viewBox="0 0 24 24" fill="none" xmlns="http://www.w3.org/2000/svg">
<path d="M20 10H4M20 10H21.5C21.7761 10 22.0011 10.2237 21.9897 10.4996C21.9115 12.3957 21.3773 14.5409 20 15M20 10V15M4 10H2.5C2.22386 10 1.99842 10.2242 2.01117 10.5001C2.09235 12.2553 2.62766 13.6277 4 15M4 10V15M20 15V16C20 18.2091 18.2091 20 16 20H8C5.79086 20 4 18.2091 4 16V15M20 7C20 7 16.5 5.5 12 5.5M12 5.5C7.5 5.5 4 7 4 7H20.0875M12 5.5V4M7 14V15.5C7 16.3284 7.67157 17 8.5 17H9" stroke="black" stroke-width="2" stroke-linecap="round" stroke-linejoin="round"/>
</svg>
