<svg width="24" height="24" viewBox="0 0 24 24" fill="none" xmlns="http://www.w3.org/2000/svg">
<path d="M7 16.8223C8.29923 16.9191 9.9876 17.0001 11.9999 17.0001C14.5768 17.0001 16.6225 16.8673 18 16.7385M5 11.9999C5 10.1444 5.14053 8.5699 5.27259 7.5M12 4C7.76042 4 4.95877 4.35948 4.20465 4.46882C4.06888 4.48851 3.93132 4.48283 3.79822 4.44956L2.40423 4.10106C2.22113 4.05528 2.05528 4.22113 2.10106 4.40423L2.44546 5.78185C2.48137 5.92549 2.4852 6.07372 2.45978 6.21959C2.341 6.90118 2 9.10959 2 12C2 14.8904 2.341 17.0988 2.45978 17.7804C2.4852 17.9263 2.48137 18.0745 2.44546 18.2182L2.10106 19.5958C2.05528 19.7789 2.22113 19.9447 2.40423 19.8989L3.79822 19.5504C3.93132 19.5172 4.06888 19.5115 4.20465 19.5312C4.95877 19.6405 7.76042 20 12 20C16.2396 20 19.0412 19.6405 19.7953 19.5312C19.9311 19.5115 20.0687 19.5172 20.2018 19.5504L21.5958 19.8989C21.7789 19.9447 21.9447 19.7789 21.8989 19.5958L21.5545 18.2182C21.5186 18.0745 21.5148 17.9263 21.5402 17.7804C21.659 17.0988 22 14.8904 22 12C22 9.10959 21.659 6.90118 21.5402 6.21959C21.5148 6.07372 21.5186 5.92549 21.5545 5.78185L21.8989 4.40423C21.9447 4.22113 21.7789 4.05528 21.5958 4.10106L20.2018 4.44956C20.0687 4.48283 19.9311 4.48851 19.7954 4.46882C19.0412 4.35948 16.2396 4 12 4Z" stroke="black" stroke-width="2" stroke-linecap="round" stroke-linejoin="round"/>
</svg>
