<svg width="24" height="24" viewBox="0 0 24 24" fill="none" xmlns="http://www.w3.org/2000/svg">
<path d="M15.4999 10V2.5C15.4999 2.22386 15.2761 2 14.9999 2C14.7238 2 14.4999 2.22386 14.4999 2.5V10M15.4999 10H14.4999M15.4999 10H18C19.1046 10 20 10.8954 20 12V13.6863C20 15.808 19.1571 17.8429 17.6569 19.3431L15.5858 21.4142C15.2107 21.7893 14.702 22 14.1716 22H9.82843C9.29799 22 8.78929 21.7893 8.41421 21.4142L6.34315 19.3431C4.84285 17.8429 4 15.808 4 13.6863V12C4 10.8954 4.89543 10 6 10H8.5M14.4999 10H9.5M9.5 10V2.5C9.5 2.22386 9.27614 2 9 2C8.72386 2 8.5 2.22386 8.5 2.5V10M9.5 10H8.5M9 14H15M11 18H13" stroke="black" stroke-width="2" stroke-linecap="round" stroke-linejoin="round"/>
</svg>
