<svg width="24" height="24" viewBox="0 0 24 24" fill="none" xmlns="http://www.w3.org/2000/svg">
<path fill-rule="evenodd" clip-rule="evenodd" d="M5 10C5 6.13401 8.13401 3 12 3C15.866 3 19 6.13401 19 10C19 13.324 16.6822 16.109 13.5736 16.8227C13.0687 16.9386 12.5422 17 12 17C11.4578 17 10.9313 16.9386 10.4264 16.8227C7.31783 16.109 5 13.324 5 10ZM12 1C7.02944 1 3 5.02944 3 10C3 13.4834 4.97833 16.5031 7.87218 17.9994L4.09308 20.2044C2.7707 20.976 3.31803 23 4.84903 23H19.151C20.682 23 21.2293 20.976 19.9069 20.2044L16.1278 17.9994C19.0217 16.5031 21 13.4834 21 10C21 5.02944 16.9706 1 12 1ZM6.69807 21L10.3764 18.8538C10.9036 18.9499 11.4464 19 12 19C12.5536 19 13.0964 18.9499 13.6236 18.8538L17.3019 21H6.69807ZM12 5C9.23858 5 7 7.23858 7 10C7 12.7614 9.23858 15 12 15C14.7614 15 17 12.7614 17 10C17 7.23858 14.7614 5 12 5ZM9 10C9 8.34315 10.3431 7 12 7C13.6569 7 15 8.34315 15 10C15 11.6569 13.6569 13 12 13C10.3431 13 9 11.6569 9 10ZM12 7.5C10.6193 7.5 9.5 8.61929 9.5 10C9.5 10.2761 9.72386 10.5 10 10.5C10.2761 10.5 10.5 10.2761 10.5 10C10.5 9.17157 11.1716 8.5 12 8.5C12.2761 8.5 12.5 8.27614 12.5 8C12.5 7.72386 12.2761 7.5 12 7.5Z" fill="black"/>
</svg>
