<svg width="24" height="24" viewBox="0 0 24 24" fill="none" xmlns="http://www.w3.org/2000/svg">
<g clip-path="url(#clip0_2012_13530)">
<path fill-rule="evenodd" clip-rule="evenodd" d="M19.6641 4.3355C16.5499 1.22132 11.5008 1.22132 8.38666 4.3355C5.51196 7.21021 5.2909 11.7337 7.72346 14.8619L6.45499 16.1304C5.71123 15.8972 4.86633 16.0752 4.27698 16.6646L2.63311 18.3084C1.78864 19.1529 1.78864 20.522 2.63311 21.3665C3.47757 22.211 4.84673 22.211 5.69119 21.3665L7.33507 19.7226C7.92442 19.1333 8.10246 18.2884 7.8692 17.5446L9.13768 16.2762C12.266 18.7087 16.7894 18.4877 19.6641 15.613C22.7783 12.4988 22.7783 7.44969 19.6641 4.3355ZM9.80088 5.74972C12.134 3.41658 15.9168 3.41658 18.2499 5.74972C20.583 8.08285 20.583 11.8656 18.2499 14.1987C15.9168 16.5319 12.134 16.5319 9.80088 14.1987C7.46774 11.8656 7.46774 8.08285 9.80088 5.74972ZM5.69119 18.0788C5.75461 18.0153 5.85743 18.0153 5.92085 18.0788C5.98427 18.1422 5.98427 18.245 5.92085 18.3084L4.27698 19.9523C4.21356 20.0157 4.11074 20.0157 4.04732 19.9523C3.9839 19.8889 3.9839 19.7861 4.04732 19.7226L5.69119 18.0788ZM14 6C16.2091 6 18 7.79086 18 10C18 12.2091 16.2091 14 14 14C11.7909 14 10 12.2091 10 10C10 7.79086 11.7909 6 14 6Z" fill="black"/>
</g>
<defs>
<clipPath id="clip0_2012_13530">
<rect width="24" height="24" fill="white"/>
</clipPath>
</defs>
</svg>
