<svg width="24" height="24" viewBox="0 0 24 24" fill="none" xmlns="http://www.w3.org/2000/svg">
<path d="M12 12C10.8954 12 10 12.8954 10 14M7.5 5.5H7.51M10.5 5.5H10.51M13.5 5.5H13.51M12 9V9C14.7614 9 17 11.2386 17 14V14C17 16.7614 14.7614 19 12 19V19C9.23858 19 7 16.7614 7 14V14C7 11.2386 9.23858 9 12 9ZM7 22H17C18.6569 22 20 20.6569 20 19V5C20 3.34315 18.6569 2 17 2H7C5.34315 2 4 3.34315 4 5V19C4 20.6569 5.34315 22 7 22Z" stroke="black" stroke-width="2" stroke-linecap="round" stroke-linejoin="round"/>
</svg>
