<svg width="24" height="24" viewBox="0 0 24 24" fill="none" xmlns="http://www.w3.org/2000/svg">
<path d="M6.5 6.5H6.51M7.41604 11C8.1876 9.2341 9.94968 8 12 8C14.7614 8 17 10.2386 17 13C17 13.7111 16.8516 14.3875 16.584 15M7.41604 11C7.14845 11.6125 7 12.2889 7 13C7 15.7614 9.23858 18 12 18C14.0503 18 15.8124 16.7659 16.584 15M7.41604 11C13 11 11 15 16.584 15M6 21H18C19.6569 21 21 19.6569 21 18V6C21 4.34315 19.6569 3 18 3H6C4.34315 3 3 4.34315 3 6V18C3 19.6569 4.34315 21 6 21Z" stroke="black" stroke-width="2" stroke-linecap="round" stroke-linejoin="round"/>
</svg>
