<svg width="24" height="24" viewBox="0 0 24 24" fill="none" xmlns="http://www.w3.org/2000/svg">
<path d="M10 9H18M10 9C10 9 7 10.5 7 15M10 9L7 3M18 9C18 9 21 10.5 21 15M18 9L21 3H7M21 15C21 19.5 18 21 18 21H10C10 21 7 19.5 7 15M21 15L19.0401 15.28C18.0248 15.425 16.9903 15.3544 16.0042 15.0726C14.6943 14.6984 13.3057 14.6984 11.9958 15.0726C11.0097 15.3544 9.97524 15.425 8.95995 15.28L7 15M7 3H6C4.34315 3 3 4.34315 3 6V14" stroke="black" stroke-width="2" stroke-linecap="round" stroke-linejoin="round"/>
</svg>
