<svg width="24" height="24" viewBox="0 0 24 24" fill="none" xmlns="http://www.w3.org/2000/svg">
<path d="M5.03056 14.0469C3.29851 13.0469 1.95043 9.38182 4.12901 5.60843C5.54917 3.14864 8.6391 2.27387 11.0306 3.65458C11.9597 4.19102 12.6467 4.989 13.0562 5.90858M5.03056 14.0469L3.56451 14.4397C3.34938 14.4974 3.31133 14.7863 3.50422 14.8977L5.05691 15.7941C5.24979 15.9055 5.48103 15.7281 5.42339 15.5129L5.03056 14.0469ZM5.03056 14.0469C6.42657 14.8529 9.19716 14.5772 11.3603 12.4643M10.2626 8.98471C10.8149 8.02812 10.4871 6.80494 9.53056 6.25266M4.28056 15.3459C3.28056 16.8459 4.49983 16.9041 4.49983 18C4.49983 19.5 3 19.5 3.5 21M17.6451 16.8209C19.5769 16.3033 21.8277 13.112 20.7 8.90331C19.9648 6.15977 17.2066 4.51508 14.5393 5.22979C13.9958 5.3754 13.4981 5.60773 13.0562 5.90858M17.6451 16.8209L16.8862 18.1353C16.7748 18.3282 16.9523 18.5595 17.1674 18.5018L18.0333 18.2698M17.6451 16.8209L18.9595 17.5798C19.1524 17.6911 19.1144 17.9801 18.8992 18.0378L18.0333 18.2698M17.6451 16.8209C15.8698 17.2966 12.7323 15.9516 11.3603 12.4643M13.0562 5.90858C13.7006 7.35586 13.6577 9.10432 12.7893 10.6084C12.3666 11.3405 11.8811 11.9556 11.3603 12.4643M18.0333 18.2698C18 19.5 19.5 21 21 21M17.82 10.3667C17.9163 9.26629 17.1023 8.29622 16.002 8.19995" stroke="black" stroke-width="2" stroke-linecap="round" stroke-linejoin="round"/>
</svg>
