<svg width="24" height="24" viewBox="0 0 24 24" fill="none" xmlns="http://www.w3.org/2000/svg">
<path d="M12 15.6C13.6 15.6 16 13.6 16 10.1143C16 7.84203 14.2091 6 12 6C9.79086 6 8 7.84203 8 10.1143C8 13.6 10.4 15.6 12 15.6ZM12 15.6L11.2268 16.3732C11.0693 16.5307 11.1808 16.8 11.4036 16.8H12M12 15.6L12.7732 16.3732C12.9307 16.5307 12.8192 16.8 12.5964 16.8H12M12 16.8C12.8 18 11.5 20.5 12 22M13.6 10C13.6 9.11634 12.8837 8.4 12 8.4M19 11H20M12 3V2M5 11H4M4.5 3.5L6.5 5.5M19.5 3.5L17.5 5.5M4.5 18.5L6.5 16.5M19.5 18.5L17.5 16.5" stroke="black" stroke-width="2" stroke-linecap="round" stroke-linejoin="round"/>
</svg>
