<svg width="24" height="24" viewBox="0 0 24 24" fill="none" xmlns="http://www.w3.org/2000/svg">
<path d="M12 14C14 14 17 11.5 17 7.14286C17 4.30254 14.7614 2 12 2C9.23858 2 7 4.30254 7 7.14286C7 11.5 10 14 12 14ZM12 14L10.9268 15.0732C10.7693 15.2307 10.8808 15.5 11.1036 15.5H12M12 14L13.0732 15.0732C13.2307 15.2307 13.1192 15.5 12.8964 15.5H12M12 15.5C13 17 11.5 17.9041 11.5 19C11.5 20.5 13.5 20.5 13 22M14 7C14 5.89543 13.1046 5 12 5" stroke="black" stroke-width="2" stroke-linecap="round" stroke-linejoin="round"/>
</svg>
