<svg width="24" height="24" viewBox="0 0 24 24" fill="none" xmlns="http://www.w3.org/2000/svg">
<path d="M15.4991 15C17.4991 15 20.4991 12.5 20.4991 8.14286C20.4991 5.30254 18.2606 3 15.4991 3C12.8804 3 10.7319 5.07066 10.5168 7.70698M15.4991 15L16.5724 16.0732C16.7298 16.2307 16.6183 16.5 16.3956 16.5H15.4991H14.6027C14.38 16.5 14.2684 16.2307 14.4259 16.0732L15.4991 15ZM15.4991 15C14.2983 15 12.7369 14.0987 11.6809 12.4353M13.4991 8C13.4991 6.89543 14.3946 6 15.4991 6M6.72218 15.17C5.31264 14.657 3.80004 12.2342 4.84872 9.35302C5.53233 7.47481 7.66419 6.52645 9.61035 7.2348C9.94031 7.3549 10.2437 7.5149 10.5168 7.70698M6.72218 15.17L7.13321 15.9828C7.23546 16.185 7.03752 16.4081 6.8246 16.3306L6.36116 16.1619M6.72218 15.17L5.88484 15.5285C5.67654 15.6176 5.6848 15.9157 5.89772 15.9932L6.36116 16.1619M6.72218 15.17C8.04359 15.6509 10.5132 14.9044 11.6809 12.4353M10.5168 7.70698C10.5051 7.85067 10.4991 7.99605 10.4991 8.14286C10.4991 9.88386 10.9781 11.3284 11.6809 12.4353M6.36116 16.1619C5.36116 17.2232 6.86099 17.8628 6.86099 18.6382C6.86099 19.6995 4.86099 19.6995 5.36099 20.7608M15.499 16.4011C16.499 17.4624 14.999 18.102 14.999 18.8774C14.999 19.9387 16.999 19.9387 16.499 21M3.5 4.38498C3.78349 3.39396 4.375 2.86944 5.14952 3.02793M12.1486 19C11.8652 19.9911 11.2736 20.5156 10.4991 20.3571M20.9991 16.5H20.9891" stroke="black" stroke-width="2" stroke-linecap="round" stroke-linejoin="round"/>
</svg>
