<svg width="24" height="24" viewBox="0 0 24 24" fill="none" xmlns="http://www.w3.org/2000/svg">
<path d="M9 14C7 14 4 11.5 4 7.14286C4 4.30254 6.23858 2 9 2C11.6187 2 13.7672 4.07066 13.9823 6.70698M9 14L7.92678 15.0732C7.76929 15.2307 7.88083 15.5 8.10355 15.5H9M9 14L10.0732 15.0732C10.2307 15.2307 10.1192 15.5 9.89645 15.5H9M9 14C10.2009 14 11.7622 13.0987 12.8182 11.4353M9 15.5C8 17 9.5 17.9041 9.5 19C9.5 20.5 7.5 20.5 8 22M11 7C11 5.89543 10.1046 5 9 5M17.7769 14.17C19.1865 13.657 20.6991 11.2342 19.6504 8.35302C18.9668 6.47481 16.8349 5.52645 14.8888 6.2348C14.5588 6.3549 14.2554 6.5149 13.9823 6.70698M17.7769 14.17L17.3659 14.9828C17.2637 15.185 17.4616 15.4081 17.6745 15.3306L18.138 15.1619M17.7769 14.17L18.6143 14.5285C18.8226 14.6176 18.8143 14.9157 18.6014 14.9932L18.138 15.1619M17.7769 14.17C16.4555 14.6509 13.9859 13.9044 12.8182 11.4353M13.9823 6.70698C13.994 6.85067 14 6.99605 14 7.14286C14 8.88386 13.521 10.3284 12.8182 11.4353M18.138 15.1619C19.138 16.6619 17.638 17.566 17.638 18.6619C17.638 20.1619 19.638 20.1619 19.138 21.6619" stroke="black" stroke-width="2" stroke-linecap="round" stroke-linejoin="round"/>
</svg>
