<svg width="24" height="24" viewBox="0 0 24 24" fill="none" xmlns="http://www.w3.org/2000/svg">
<path d="M12 3.01V3M20.99 12H21M12 20.99V21M3.01 12H3M7 7L3 3M17 7L21 3M17 17L21 21M7 17L3 21M8.27151 3L8.68578 4M15.7268 3L15.3127 4M19.9983 8.68682L20.9977 8.27282M19.9983 15.3136L20.9977 15.7277M15.3127 19.9988L15.7268 20.9986M8.68578 19.9988L8.27151 20.9986M3 15.7277L4 15.3135M3 8.27282L4 8.68695M13.3111 13.185L15.8592 12.205C16.0469 12.1328 16.0469 11.8672 15.8592 11.795L13.3111 10.815C13.2531 10.7927 13.2073 10.7469 13.185 10.6889L12.205 8.14077C12.1328 7.95308 11.8672 7.95308 11.795 8.14077L10.815 10.6889C10.7927 10.7469 10.7469 10.7927 10.6889 10.815L8.14077 11.795C7.95308 11.8672 7.95308 12.1328 8.14077 12.205L10.6889 13.185C10.7469 13.2073 10.7927 13.2531 10.815 13.3111L11.795 15.8592C11.8672 16.0469 12.1328 16.0469 12.205 15.8592L13.185 13.3111C13.2073 13.2531 13.2531 13.2073 13.3111 13.185Z" stroke="black" stroke-width="2" stroke-linecap="round" stroke-linejoin="round"/>
</svg>
