<svg width="24" height="24" viewBox="0 0 24 24" fill="none" xmlns="http://www.w3.org/2000/svg">
<path d="M11.5 5.9375L10.7752 7.29642M12.5 5.9375L16.5301 13.494M10.7752 7.29642L16.5301 13.494M10.7752 7.29642L8.69055 11.2052M16.5301 13.494L19.3026 18.6925C19.7169 19.4692 19.5446 20.4078 18.7485 20.7834C18.5074 20.8972 18.2278 21.0148 17.9066 21.1302M17.9066 21.1302L8.69055 11.2052M17.9066 21.1302C16.8013 21.5269 15.2026 21.8959 12.9828 21.9814M8.69055 11.2052L6.60586 15.114M6.60586 15.114L4.69736 18.6925C4.28311 19.4692 4.45423 20.407 5.25025 20.7828C6.438 21.3436 8.56255 22 12 22C12.3403 22 12.6678 21.9936 12.9828 21.9814M6.60586 15.114L12.9828 21.9814M12 6V6C13.1046 6 14 5.10457 14 4V4C14 2.89543 13.1046 2 12 2V2C10.8954 2 10 2.89543 10 4V4C10 5.10457 10.8954 6 12 6Z" stroke="black" stroke-width="2" stroke-linecap="round" stroke-linejoin="round"/>
</svg>
