<svg width="24" height="24" viewBox="0 0 24 24" fill="none" xmlns="http://www.w3.org/2000/svg">
<path fill-rule="evenodd" clip-rule="evenodd" d="M12.0003 1C10.3435 1 9.00032 2.34315 9.00032 4C9.00032 4.95575 9.44726 5.80711 10.1435 6.35649L3.81532 18.2219C3.21272 19.3518 3.36812 21 4.82366 21.6871C6.15987 22.3179 8.43275 23 12.0003 23C15.5679 23 17.8408 22.3179 19.177 21.6871C20.6325 21 20.7879 19.3518 20.1853 18.2219L13.8571 6.35649C14.5534 5.80711 15.0003 4.95575 15.0003 4C15.0003 2.34315 13.6572 1 12.0003 1ZM5.58003 19.163L12.0003 7.125L18.4206 19.163C18.5252 19.3591 18.5357 19.5388 18.5078 19.6554C18.4841 19.7545 18.4326 19.8269 18.3232 19.8785C17.2839 20.3692 15.3077 21 12.0003 21C8.69299 21 6.71676 20.3692 5.67749 19.8785C5.56804 19.8269 5.51654 19.7545 5.49286 19.6554C5.46497 19.5388 5.47549 19.3591 5.58003 19.163ZM11.0003 4C11.0003 3.44772 11.448 3 12.0003 3C12.5526 3 13.0003 3.44772 13.0003 4C13.0003 4.55228 12.5526 5 12.0003 5C11.448 5 11.0003 4.55228 11.0003 4ZM12.4255 13.0654L12.85 14.3395C12.9118 14.5251 13.0778 14.6509 13.266 14.6549L14.5586 14.6824C14.9853 14.6914 15.1614 15.2572 14.8213 15.5262L13.7911 16.3411C13.6411 16.4598 13.5777 16.6633 13.6322 16.8513L14.0066 18.1424C14.1302 18.5686 13.6689 18.9182 13.3186 18.6639L12.2574 17.8935C12.1029 17.7813 11.8978 17.7813 11.7432 17.8935L10.682 18.6639C10.3317 18.9182 9.87048 18.5686 9.99406 18.1424L10.3684 16.8513C10.423 16.6633 10.3596 16.4598 10.2095 16.3411L9.17931 15.5262C8.83922 15.2572 9.01539 14.6914 9.44209 14.6824L10.7347 14.6549C10.9229 14.6509 11.0888 14.5251 11.1507 14.3395L11.5751 13.0654C11.7153 12.6448 12.2854 12.6449 12.4255 13.0654Z" fill="black"/>
</svg>
