<svg width="24" height="24" viewBox="0 0 24 24" fill="none" xmlns="http://www.w3.org/2000/svg">
<path d="M14 9.5L16.3302 13.5778M10 9.5L7.66985 13.5778M5.72093 16.9884C6.96889 17.4923 8.97666 18.0001 12.0001 18.0001C15.0234 18.0001 17.0311 17.4923 18.2791 16.9885M5.72093 16.9884L4.7579 18.6737C4.31043 19.4567 4.47476 20.4222 5.29249 20.8026C6.48808 21.3589 8.60292 22 12 22C15.3971 22 17.5119 21.3589 18.7075 20.8026C19.5252 20.4222 19.6896 19.4567 19.2421 18.6737L18.2791 16.9885M5.72093 16.9884L7.66985 13.5778M7.66985 13.5778C8.79708 13.8247 10.2232 14.0001 12.0001 14.0001C13.777 14.0001 15.203 13.8247 16.3302 13.5778M18.2791 16.9885L16.3302 13.5778M12.5669 2.4206L13.1329 4.11939C13.2153 4.36678 13.4366 4.53452 13.6876 4.53986L15.411 4.5765C15.9799 4.58859 16.2148 5.34288 15.7613 5.70156L14.3877 6.78812C14.1877 6.94635 14.1032 7.21776 14.1758 7.46845L14.675 9.18988C14.8398 9.75816 14.2248 10.2243 13.7577 9.88521L12.3428 8.85795C12.1368 8.70835 11.8632 8.70835 11.6572 8.85795L10.2423 9.88521C9.77518 10.2243 9.16021 9.75816 9.32499 9.18988L9.82415 7.46845C9.89685 7.21776 9.81232 6.94635 9.61228 6.78812L8.23865 5.70156C7.78519 5.34288 8.02009 4.58859 8.58902 4.5765L10.3124 4.53986C10.5634 4.53452 10.7847 4.36678 10.8671 4.11939L11.4331 2.4206C11.6199 1.8598 12.3801 1.8598 12.5669 2.4206Z" stroke="black" stroke-width="2" stroke-linecap="round" stroke-linejoin="round"/>
</svg>
