<svg width="24" height="24" viewBox="0 0 24 24" fill="none" xmlns="http://www.w3.org/2000/svg">
<path d="M11.5 5.9375L9.40723 9.86145M12.5 5.9375L14.5928 9.86145M5.62681 16.9497C6.86703 17.4659 8.89943 18 12 18C15.1006 18 17.133 17.4659 18.3732 16.9497M5.62681 16.9497L4.69736 18.6925C4.28311 19.4692 4.45423 20.407 5.25025 20.7828C6.438 21.3436 8.56255 22 12 22C15.4375 22 17.562 21.3436 18.7497 20.7828C19.5458 20.407 19.7169 19.4692 19.3026 18.6925L18.3732 16.9497M5.62681 16.9497L7.45166 13.5281M18.3732 16.9497L16.5483 13.5281M16.5483 13.5281C15.3887 13.8008 13.8936 14 12 14C10.1064 14 8.61129 13.8008 7.45166 13.5281M16.5483 13.5281L14.5928 9.86145M7.45166 13.5281L9.40723 9.86145M9.40723 9.86145C10.1736 9.94827 11.0351 10 12 10C12.9649 10 13.8264 9.94827 14.5928 9.86145M12 6V6C13.1046 6 14 5.10457 14 4V4C14 2.89543 13.1046 2 12 2V2C10.8954 2 10 2.89543 10 4V4C10 5.10457 10.8954 6 12 6Z" stroke="black" stroke-width="2" stroke-linecap="round" stroke-linejoin="round"/>
</svg>
