<svg width="24" height="24" viewBox="0 0 24 24" fill="none" xmlns="http://www.w3.org/2000/svg">
<path fill-rule="evenodd" clip-rule="evenodd" d="M13.5157 2.10452C13.0251 0.631834 10.975 0.63182 10.4844 2.10452L10.0041 3.54619L8.56781 3.57672C7.78537 3.59336 7.25519 4.13543 7.07572 4.71172C6.89701 5.28558 7.02337 6.01526 7.61832 6.48586L8.79747 7.41858L8.3646 8.91139C8.23611 9.35452 8.29943 9.78371 8.48527 10.1353L3.8897 18.1775C3.23907 19.3161 3.3751 21.0135 4.8707 21.7093C6.21321 22.3339 8.47448 23 12 23C15.5256 23 17.7869 22.3339 19.1294 21.7093C20.625 21.0134 20.761 19.3161 20.1104 18.1775L15.5148 10.1353C15.7007 9.78371 15.764 9.35452 15.6355 8.91139L15.2026 7.41858L16.3818 6.48586C16.9767 6.01526 17.1031 5.28558 16.9244 4.71172C16.7449 4.13543 16.2147 3.59336 15.4323 3.57672L13.996 3.54619L13.5157 2.10452ZM11.0697 8.04873L10.5978 8.39138L10.7846 7.74694C10.9671 7.11785 10.7613 6.42195 10.2327 6.00382L9.66389 5.55387L10.3337 5.53963C11.0289 5.52485 11.6069 5.06294 11.8159 4.43547L12 3.88274L12.1842 4.43547C12.3932 5.06294 12.9712 5.52485 13.6664 5.53963L14.3362 5.55387L13.7674 6.00382C13.2388 6.42196 13.033 7.11786 13.2155 7.74694L13.4023 8.39138L12.9304 8.04873C12.3739 7.64476 11.6262 7.64476 11.0697 8.04873ZM13.1703 10.6944C13.3313 10.8114 13.5006 10.8921 13.6718 10.9411L18.3739 19.1698C18.4868 19.3674 18.5006 19.5505 18.4739 19.6688C18.4514 19.7684 18.4001 19.8427 18.2857 19.8959C17.2371 20.3839 15.2686 21 12 21C8.73146 21 6.76305 20.3839 5.71438 19.896C5.60002 19.8427 5.54871 19.7684 5.52622 19.6688C5.49951 19.5505 5.51331 19.3674 5.62619 19.1698L10.3283 10.9411C10.4995 10.8921 10.6688 10.8114 10.8298 10.6944L10.6281 10.4165L10.8298 10.6944L12 9.84482L13.1703 10.6944ZM12.4252 13.0654L12.8497 14.3395C12.9115 14.5251 13.0775 14.6509 13.2657 14.6549L14.5583 14.6824C14.985 14.6914 15.1612 15.2572 14.8211 15.5262L13.7908 16.3411C13.6408 16.4598 13.5774 16.6633 13.6319 16.8513L14.0063 18.1424C14.1299 18.5686 13.6687 18.9182 13.3183 18.6639L12.2572 17.8935C12.1026 17.7813 11.8975 17.7813 11.7429 17.8935L10.6818 18.6639C10.3314 18.9182 9.8702 18.5686 9.99379 18.1424L10.3682 16.8513C10.4227 16.6633 10.3593 16.4598 10.2093 16.3411L9.17904 15.5262C8.83894 15.2572 9.01512 14.6914 9.44182 14.6824L10.7344 14.6549C10.9226 14.6509 11.0886 14.5251 11.1504 14.3395L11.5749 13.0654C11.715 12.6448 12.2851 12.6449 12.4252 13.0654Z" fill="black"/>
</svg>
