<svg width="24" height="24" viewBox="0 0 24 24" fill="none" xmlns="http://www.w3.org/2000/svg">
<path fill-rule="evenodd" clip-rule="evenodd" d="M12.1537 2.10558L12.8888 4.01665C12.9055 4.06014 12.9399 4.09452 12.9834 4.11125L14.8944 4.84627C15.0352 4.90042 15.0352 5.09958 14.8944 5.15373L12.9834 5.88875C12.9399 5.90548 12.9055 5.93986 12.8888 5.98335L12.1537 7.89442C12.0996 8.03519 11.9004 8.03519 11.8463 7.89442L11.1112 5.98335C11.0945 5.93986 11.0601 5.90548 11.0166 5.88875L9.10558 5.15373C8.96481 5.09958 8.96481 4.90042 9.10558 4.84627L11.0166 4.11125C11.0601 4.09452 11.0945 4.06014 11.1112 4.01665L11.8463 2.10558C11.9004 1.96481 12.0996 1.96481 12.1537 2.10558ZM13 10C13 9.44772 12.5523 9 12 9C11.4477 9 11 9.44772 11 10V12C11 12.5523 11.4477 13 12 13C12.5523 13 13 12.5523 13 12V10ZM3 10.5C2.44772 10.5 2 10.9477 2 11.5C2 12.0523 2.44772 12.5 3 12.5H3.01C3.56228 12.5 4.01 12.0523 4.01 11.5C4.01 10.9477 3.56228 10.5 3.01 10.5H3ZM20.99 10.5C20.4377 10.5 19.99 10.9477 19.99 11.5C19.99 12.0523 20.4377 12.5 20.99 12.5H21C21.5523 12.5 22 12.0523 22 11.5C22 10.9477 21.5523 10.5 21 10.5H20.99ZM6.27472 11.0385C5.74369 10.8868 5.1902 11.1942 5.03848 11.7253C4.88675 12.2563 5.19424 12.8098 5.72528 12.9615C7.27534 13.4044 8.57618 14.2791 9.496 15.578C10.4179 16.8798 10.9992 18.6681 10.9992 21.0001C10.9992 21.5524 11.4469 22.0001 11.9992 22.0001C12.5514 22.0001 12.9992 21.5524 12.9992 21.0001C12.9992 18.6682 13.5806 16.8799 14.5027 15.5781C15.4227 14.2793 16.7238 13.4045 18.2739 12.9616C18.8049 12.8099 19.1124 12.2564 18.9607 11.7254C18.809 11.1943 18.2555 10.8868 17.7244 11.0386C15.7745 11.5957 14.0756 12.7209 12.8706 14.4221C12.5385 14.891 12.2471 15.399 11.9993 15.9449C11.7515 15.399 11.4602 14.891 11.1282 14.4221C9.9234 12.7209 8.22466 11.5956 6.27472 11.0385ZM18.8888 18.0166L18.1537 16.1056C18.0996 15.9648 17.9004 15.9648 17.8463 16.1056L17.1112 18.0166C17.0945 18.0601 17.0601 18.0945 17.0166 18.1112L15.1056 18.8463C14.9648 18.9004 14.9648 19.0996 15.1056 19.1537L17.0166 19.8888C17.0601 19.9055 17.0945 19.9399 17.1112 19.9834L17.8463 21.8944C17.9004 22.0352 18.0996 22.0352 18.1537 21.8944L18.8888 19.9834C18.9055 19.9399 18.9399 19.9055 18.9834 19.8888L20.8944 19.1537C21.0352 19.0996 21.0352 18.9004 20.8944 18.8463L18.9834 18.1112C18.9399 18.0945 18.9055 18.0601 18.8888 18.0166ZM6.15373 16.1056L6.88875 18.0166C6.90548 18.0601 6.93986 18.0945 6.98335 18.1112L8.89442 18.8463C9.03519 18.9004 9.03519 19.0996 8.89442 19.1537L6.98335 19.8888C6.93986 19.9055 6.90548 19.9399 6.88875 19.9834L6.15373 21.8944C6.09958 22.0352 5.90042 22.0352 5.84627 21.8944L5.11125 19.9834C5.09452 19.9399 5.06014 19.9055 5.01665 19.8888L3.10558 19.1537C2.96481 19.0996 2.96481 18.9004 3.10558 18.8463L5.01665 18.1112C5.06014 18.0945 5.09452 18.0601 5.11125 18.0166L5.84627 16.1056C5.90042 15.9648 6.09958 15.9648 6.15373 16.1056Z" fill="black"/>
</svg>
