<svg width="24" height="24" viewBox="0 0 24 24" fill="none" xmlns="http://www.w3.org/2000/svg">
<path d="M11.5 5.9375L4.69736 18.6925C4.28311 19.4692 4.45423 20.407 5.25025 20.7828C6.438 21.3436 8.56255 22 12 22C15.4375 22 17.562 21.3436 18.7497 20.7828C19.5458 20.407 19.7169 19.4692 19.3026 18.6925L12.5 5.9375M9 14H9.01M11 16H11.01M16 14H16.01M13 12H13.01M13 8H13.01M8 19H8.01M16 19H16.01M12 6V6C13.1046 6 14 5.10457 14 4V4C14 2.89543 13.1046 2 12 2V2C10.8954 2 10 2.89543 10 4V4C10 5.10457 10.8954 6 12 6Z" stroke="black" stroke-width="2" stroke-linecap="round" stroke-linejoin="round"/>
</svg>
