<svg width="24" height="24" viewBox="0 0 24 24" fill="none" xmlns="http://www.w3.org/2000/svg">
<path d="M12 3.01V3M20.99 12H21M12 20.99V21M3.01 12H3M7 7L3 3M17 7L21 3M17 17L21 21M7 17L3 21M8.27151 3L8.68578 4M15.7268 3L15.3127 4M19.9983 8.68682L20.9977 8.27282M19.9983 15.3136L20.9977 15.7277M15.3127 19.9988L15.7268 20.9986M8.68578 19.9988L8.27151 20.9986M3 15.7277L4 15.3135M3 8.27282L4 8.68695M10.3124 10.2899L8.58902 10.3265C8.02009 10.3386 7.78519 11.0929 8.23865 11.4516L9.61228 12.5381C9.81232 12.6963 9.89685 12.9678 9.82415 13.2184L9.32499 14.9399C9.16021 15.5082 9.77518 15.9743 10.2423 15.6352L11.6572 14.608C11.8632 14.4584 12.1368 14.4584 12.3428 14.608L13.7577 15.6352C14.2248 15.9743 14.8398 15.5082 14.675 14.9399L14.1758 13.2184C14.1032 12.9678 14.1877 12.6963 14.3877 12.5381L15.7613 11.4516C16.2148 11.0929 15.9799 10.3386 15.411 10.3265L13.6876 10.2899C13.4366 10.2845 13.2153 10.1168 13.1329 9.86939L12.5669 8.1706C12.3801 7.6098 11.6199 7.6098 11.4331 8.1706L10.8671 9.86939C10.7847 10.1168 10.5634 10.2845 10.3124 10.2899Z" stroke="black" stroke-width="2" stroke-linecap="round" stroke-linejoin="round"/>
</svg>
