<svg width="24" height="24" viewBox="0 0 24 24" fill="none" xmlns="http://www.w3.org/2000/svg">
<path fill-rule="evenodd" clip-rule="evenodd" d="M12.4252 2.31545C12.2851 1.89485 11.7149 1.89485 11.5748 2.31545L11.1503 3.58954C11.0885 3.77508 10.9226 3.90089 10.7343 3.90489L9.44177 3.93237C9.01507 3.94145 8.8389 4.50716 9.17899 4.77617L10.2092 5.59109C10.3592 5.70976 10.4226 5.91332 10.3681 6.10134L9.99374 7.39241C9.87016 7.81862 10.3314 8.16825 10.6817 7.91391L11.7429 7.14346C11.8974 7.03126 12.1026 7.03126 12.2571 7.14346L13.3183 7.91391C13.6686 8.16825 14.1298 7.81862 14.0063 7.39241L13.6319 6.10134C13.5774 5.91332 13.6408 5.70976 13.7908 5.59109L14.821 4.77617C15.1611 4.50716 14.9849 3.94145 14.5582 3.93237L13.2657 3.90489C13.0774 3.90089 12.9115 3.77508 12.8497 3.58954L12.4252 2.31545ZM13 10C13 9.44772 12.5523 9 12 9C11.4477 9 11 9.44772 11 10V12C11 12.5523 11.4477 13 12 13C12.5523 13 13 12.5523 13 12V10ZM3 10.5C2.44772 10.5 2 10.9477 2 11.5C2 12.0523 2.44772 12.5 3 12.5H3.01C3.56228 12.5 4.01 12.0523 4.01 11.5C4.01 10.9477 3.56228 10.5 3.01 10.5H3ZM20.99 10.5C20.4377 10.5 19.99 10.9477 19.99 11.5C19.99 12.0523 20.4377 12.5 20.99 12.5H21C21.5523 12.5 22 12.0523 22 11.5C22 10.9477 21.5523 10.5 21 10.5H20.99ZM6.27472 11.0385C5.74369 10.8868 5.1902 11.1942 5.03848 11.7253C4.88675 12.2563 5.19424 12.8098 5.72528 12.9615C7.27534 13.4044 8.57618 14.2791 9.496 15.578C10.4179 16.8798 10.9992 18.6681 10.9992 21.0001C10.9992 21.5524 11.4469 22.0001 11.9992 22.0001C12.5514 22.0001 12.9992 21.5524 12.9992 21.0001C12.9992 18.6682 13.5806 16.8799 14.5027 15.5781C15.4227 14.2793 16.7238 13.4045 18.2739 12.9616C18.8049 12.8099 19.1124 12.2564 18.9607 11.7254C18.809 11.1943 18.2555 10.8868 17.7244 11.0386C15.7745 11.5957 14.0756 12.7209 12.8706 14.4221C12.5385 14.891 12.2471 15.399 11.9993 15.9449C11.7515 15.399 11.4602 14.891 11.1282 14.4221C9.9234 12.7209 8.22466 11.5956 6.27472 11.0385ZM17.5748 16.3154C17.7149 15.8948 18.2851 15.8949 18.4252 16.3154L18.8497 17.5895C18.9115 17.7751 19.0774 17.9009 19.2657 17.9049L20.5582 17.9324C20.9849 17.9414 21.1611 18.5072 20.821 18.7762L19.7908 19.5911C19.6408 19.7098 19.5774 19.9133 19.6319 20.1013L20.0063 21.3924C20.1298 21.8186 19.6686 22.1682 19.3183 21.9139L18.2571 21.1435C18.1026 21.0313 17.8974 21.0313 17.7429 21.1435L16.6817 21.9139C16.3314 22.1682 15.8702 21.8186 15.9937 21.3924L16.3681 20.1013C16.4226 19.9133 16.3592 19.7098 16.2092 19.5911L15.179 18.7762C14.8389 18.5072 15.0151 17.9414 15.4418 17.9324L16.7343 17.9049C16.9226 17.9009 17.0885 17.7751 17.1503 17.5895L17.5748 16.3154ZM6.42518 16.3154C6.28506 15.8949 5.71494 15.8948 5.57482 16.3154L5.15034 17.5895C5.08853 17.7751 4.92256 17.9009 4.73433 17.9049L3.44177 17.9324C3.01507 17.9414 2.8389 18.5072 3.17899 18.7762L4.20921 19.5911C4.35924 19.7098 4.42263 19.9133 4.36811 20.1013L3.99374 21.3924C3.87016 21.8186 4.33139 22.1682 4.6817 21.9139L5.74289 21.1435C5.89743 21.0313 6.10257 21.0313 6.25711 21.1435L7.3183 21.9139C7.66861 22.1682 8.12985 21.8186 8.00626 21.3924L7.63189 20.1013C7.57737 19.9133 7.64076 19.7098 7.79079 19.5911L8.82101 18.7762C9.1611 18.5072 8.98493 17.9414 8.55823 17.9324L7.26567 17.9049C7.07744 17.9009 6.91147 17.7751 6.84966 17.5895L6.42518 16.3154Z" fill="black"/>
</svg>
