<svg width="24" height="24" viewBox="0 0 24 24" fill="none" xmlns="http://www.w3.org/2000/svg">
<path d="M14 9.5L15.8863 12.801M10 9.5L8.89782 11.4288M17.9062 21.1301L8.89782 11.4288M12.9824 21.9814L6.72095 15.2383M12.1357 8.76195C12.2086 8.77957 12.2789 8.81157 12.3428 8.85795L13.7577 9.88521C14.2248 10.2243 14.8398 9.75816 14.675 9.18988L14.1758 7.46845C14.1032 7.21776 14.1877 6.94635 14.3877 6.78812L15.7613 5.70156C16.2148 5.34288 15.9799 4.58859 15.411 4.5765L13.6876 4.53986C13.4366 4.53452 13.2153 4.36678 13.1329 4.11939L12.5669 2.4206C12.3801 1.8598 11.6199 1.8598 11.4331 2.4206L10.8671 4.11939C10.7847 4.36678 10.5634 4.53452 10.3124 4.53986L8.58902 4.5765C8.02009 4.58859 7.78519 5.34288 8.23865 5.70156L9.61228 6.78812C9.81232 6.94635 9.89685 7.21776 9.82415 7.46845L9.32499 9.18988C9.16021 9.75816 9.77518 10.2243 10.2423 9.88521L11.6572 8.85795C11.7994 8.75473 11.9736 8.72273 12.1357 8.76195ZM12.1357 8.76195L15.8863 12.801M15.8863 12.801L19.2421 18.6737C19.6896 19.4567 19.5252 20.4222 18.7075 20.8026C17.5119 21.3589 15.3971 22 12 22C8.60292 22 6.48808 21.3589 5.29249 20.8026C4.47476 20.4222 4.31043 19.4567 4.7579 18.6737L6.72095 15.2383M8.89782 11.4288L6.72095 15.2383" stroke="black" stroke-width="2" stroke-linecap="round" stroke-linejoin="round"/>
</svg>
