<svg width="24" height="24" viewBox="0 0 24 24" fill="none" xmlns="http://www.w3.org/2000/svg">
<path d="M20 8C19.6966 6.17987 18.473 4.91188 16.9992 4.19605M15 8.5C15.7399 10.9663 15.9932 11.4862 15.9999 14.38M15.5 10C16 10.25 17 10.5 18 10.5M3.99245 14.38C3.88629 12.5861 4.09686 11.0235 4.55456 9.68527M5.54244 7.64894C5.75879 7.55319 5.99818 7.5 6.25 7.5C7.2165 7.5 8 8.2835 8 9.25C8 10.2165 7.2165 11 6.25 11C5.43377 11 4.74805 10.4412 4.55456 9.68527M5.54244 7.64894C5.14394 8.25833 4.81059 8.9367 4.55456 9.68527M5.54244 7.64894C7.31711 4.9351 10.3838 3.58943 13.6664 3.50431M11.0253 14.5C10.7011 14.1824 10.5 13.7397 10.5 13.25C10.5 12.2835 11.2835 11.5 12.25 11.5C13.2165 11.5 14 12.2835 14 13.25C14 13.7397 13.7989 14.1824 13.4747 14.5M11.0253 14.5H4.5C3.11929 14.5 2 15.6193 2 17V18C2 19.3807 3.11929 20.5 4.5 20.5H15.5C16.8807 20.5 18 19.3807 18 18V17C18 15.6193 16.8807 14.5 15.5 14.5H13.4747M11.0253 14.5H13.4747M16.9992 4.19605C16.9997 4.21396 17 4.23195 17 4.25C17 5.2165 16.2165 6 15.25 6C14.2835 6 13.5 5.2165 13.5 4.25C13.5 3.9833 13.5597 3.73053 13.6664 3.50431M16.9992 4.19605C16.0438 3.73202 14.9832 3.5 14 3.5C13.8886 3.5 13.7773 3.50144 13.6664 3.50431M22 10.25V10.25C22 11.2165 21.2165 12 20.25 12V12C19.2835 12 18.5 11.2165 18.5 10.25V10.25C18.5 9.2835 19.2835 8.5 20.25 8.5V8.5C21.2165 8.5 22 9.2835 22 10.25Z" stroke="black" stroke-width="2" stroke-linecap="round" stroke-linejoin="round"/>
</svg>
