<svg width="24" height="24" viewBox="0 0 24 24" fill="none" xmlns="http://www.w3.org/2000/svg">
<path d="M4 15.5V15.5C2.89543 15.5 2 16.3954 2 17.5V18.5C2 19.6046 2.89543 20.5 4 20.5H16C17.1046 20.5 18 19.6046 18 18.5V17.5C18 16.3954 17.1046 15.5 16 15.5V15.5M4 15.5C4 6.5 9 3.5 14 3.5C16.5 3.5 19.5 5 20 8M4 15.5H16M16 15.5C16 12.5 15.75 11 15 8.5M15.5 10C16 10.25 17 10.5 18 10.5M22 10.25V10.25C22 11.2165 21.2165 12 20.25 12V12C19.2835 12 18.5 11.2165 18.5 10.25V10.25C18.5 9.2835 19.2835 8.5 20.25 8.5V8.5C21.2165 8.5 22 9.2835 22 10.25Z" stroke="black" stroke-width="2" stroke-linecap="round" stroke-linejoin="round"/>
</svg>
