<svg width="24" height="24" viewBox="0 0 24 24" fill="none" xmlns="http://www.w3.org/2000/svg">
<path d="M8.34515 8.83309C8.63327 9.11671 8.71302 9.61434 8.43202 9.99216L6.4825 12.6134C6.35632 12.7831 6.37562 13.001 6.48521 13.1464C6.55643 13.2409 6.66578 13.3048 6.79811 13.3048H7.43152C8.10586 13.3048 8.48077 14.1328 8.05951 14.6917L6.18325 17.1813L6.08887 17.3065C5.87824 17.586 6.06569 18 6.40287 18H12M8.34515 8.83309C8.20637 8.69647 8.01924 8.6095 7.8008 8.6095H7.19262C6.858 8.6095 6.66978 8.20098 6.87521 7.92061L10.7304 2.65914C11.3743 1.78029 12.6257 1.78028 13.2696 2.65914L15.6987 5.97429M8.34515 8.83309C10.8905 8.29649 13.6344 7.29553 15.6987 5.97429M15.6987 5.97429L17.1248 7.92061C17.3302 8.20098 17.142 8.6095 16.8074 8.6095H16.1992C15.5273 8.6095 15.1516 9.43234 15.568 9.99216L15.6008 10.0364L17.5175 12.6134C17.7257 12.8933 17.5379 13.3048 17.2019 13.3048H16.5685C16.1838 13.3048 15.8965 13.5742 15.799 13.9095C15.7255 14.1619 15.7596 14.4516 15.9405 14.6917L17.9111 17.3065C18.1218 17.586 17.9343 18 17.5971 18H12M8.20468 14.4C10.75 13.8634 14.625 12.4 16.2866 10.9585M12 18V22" stroke="black" stroke-width="2" stroke-linecap="round" stroke-linejoin="round"/>
</svg>
