<svg width="24" height="24" viewBox="0 0 24 24" fill="none" xmlns="http://www.w3.org/2000/svg">
<path fill-rule="evenodd" clip-rule="evenodd" d="M12.4249 1.31545L12.8494 2.58954C12.9112 2.77508 13.0771 2.90089 13.2654 2.90489L14.5579 2.93237C14.9846 2.94145 15.1608 3.50716 14.8207 3.77617L13.7905 4.59109C13.6405 4.70976 13.5771 4.91332 13.6316 5.10134L14.006 6.39241C14.0178 6.43324 14.0243 6.47337 14.026 6.51233C14.0771 6.29354 14.2018 6.09057 14.3947 5.94402C14.8344 5.60988 15.4618 5.69549 15.7959 6.13522L17.1111 7.866L18.7748 10.0556C19.4879 10.9941 18.8698 12.4356 17.6083 12.4356H16.9968L19.2286 15.3293C19.9513 16.2662 19.3352 17.7178 18.0686 17.7178H17.4282L19.6839 20.604C20.4151 21.5395 19.8009 22.9999 18.5297 22.9999H5.46971C4.19852 22.9999 3.58429 21.5395 4.31548 20.604L4.42559 20.4631L6.57122 17.7178H5.93083C5.44563 17.7178 5.03585 17.4855 4.77792 17.1555C4.3974 16.6687 4.31706 15.9176 4.77078 15.3293L7.00262 12.4356H6.39109C5.12962 12.4356 4.51149 10.994 5.22456 10.0556L8.20348 6.13522C8.53762 5.69549 9.16497 5.60988 9.60471 5.94402C9.79759 6.09057 9.92233 6.29354 9.97341 6.51234C9.97513 6.47337 9.9816 6.43324 9.99344 6.39241L10.3678 5.10134C10.4223 4.91332 10.3589 4.70976 10.2089 4.59109L9.17869 3.77617C8.8386 3.50716 9.01477 2.94145 9.44147 2.93237L10.734 2.90489C10.9223 2.90089 11.0882 2.77508 11.15 2.58954L11.5745 1.31545C11.7146 0.89485 12.2848 0.894851 12.4249 1.31545ZM9.99824 6.68573C10.0108 6.91442 9.94535 7.14859 9.79592 7.34524L7.42702 10.4628C7.60684 10.4932 7.77671 10.5482 7.93369 10.6235C10.3147 10.1047 12.7964 9.25234 14.8299 8.16959L14.2035 7.34524C14.0541 7.14859 13.9886 6.91442 14.0012 6.68574C13.9089 6.95429 13.582 7.10555 13.318 6.91391L12.2568 6.14346C12.1023 6.03126 11.8971 6.03126 11.7426 6.14346L10.6814 6.91391C10.4174 7.10555 10.0905 6.95429 9.99824 6.68573ZM16.5714 10.4615C15.5147 10.6322 14.876 11.6196 14.9701 12.5942C12.741 13.8053 9.95534 14.7317 7.36407 15.2418L8.6289 13.6019C8.91085 13.2363 9.03835 12.8239 9.0413 12.4212C11.4592 11.838 13.9634 10.9361 16.0541 9.78073L16.5714 10.4615ZM8.19037 18.8939C8.62678 18.3355 8.70201 17.6422 8.50329 17.0459C11.0521 16.4779 13.7247 15.5494 15.9417 14.3424L17.0208 15.7416C16.4004 15.8389 15.9193 16.2244 15.6465 16.7073C13.3748 18.0766 10.3637 19.1303 7.55811 19.7029L8.19037 18.8939ZM10.613 20.9999C12.4348 20.4624 14.2389 19.7554 15.8201 18.908L17.455 20.9999H10.613Z" fill="black"/>
</svg>
