<svg width="24" height="24" viewBox="0 0 24 24" fill="none" xmlns="http://www.w3.org/2000/svg">
<path d="M12 21V22M12 21C14.1877 21 16.1409 19.9964 17.4246 18.4246M12 21C9.81233 21 7.85905 19.9964 6.57542 18.4246M9 7.67363C9.90926 7.24169 10.9264 7 12 7C13.0736 7 14.0907 7.24169 15 7.67363M9 7.67363V6C9 4.89543 9.89543 4 11 4H12M9 7.67363C7.15397 8.55058 5.75267 10.2117 5.2266 12.2266M15 7.67363V6C15 4.89543 14.1046 4 13 4H12M15 7.67363C16.846 8.55058 18.2473 10.2117 18.7734 12.2266M12 4V2M5.2266 12.2266L6 13L7.58579 11.4142C8.36683 10.6332 9.63316 10.6332 10.4142 11.4142L10.5858 11.5858C11.3668 12.3668 12.6332 12.3668 13.4142 11.5858L13.5858 11.4142C14.3668 10.6332 15.6332 10.6332 16.4142 11.4142L18 13L18.7734 12.2266M5.2266 12.2266C5.07872 12.793 5 13.3873 5 14C5 15.6783 5.59065 17.2187 6.57542 18.4246M18.7734 12.2266C18.9213 12.793 19 13.3873 19 14C19 15.6783 18.4094 17.2187 17.4246 18.4246M17.4246 18.4246L16.4142 17.4142C15.6332 16.6332 14.3668 16.6332 13.5858 17.4142L13.4142 17.5858C12.6332 18.3668 11.3668 18.3668 10.5858 17.5858L10.4142 17.4142C9.63316 16.6332 8.36684 16.6332 7.58579 17.4142L6.57542 18.4246" stroke="black" stroke-width="2" stroke-linecap="round" stroke-linejoin="round"/>
</svg>
