<svg width="24" height="24" viewBox="0 0 24 24" fill="none" xmlns="http://www.w3.org/2000/svg">
<path d="M17.5 4.5C16.5382 4.5 14.9081 4.4486 13.1373 4.7413M17.5 6C16.3345 6 15.7727 8.41512 16.2838 11.8379M5.00016 14.9218C5.00359 14.088 5.06193 13.3208 5.16811 12.6148M16.9767 14.9218C16.6546 13.8354 16.4271 12.7971 16.2838 11.8379M15.25 15C14.2835 15 13.5 14.2165 13.5 13.25C13.5 12.2835 14.2835 11.5 15.25 11.5C15.6367 11.5 15.9942 11.6255 16.2838 11.8379M5.16811 12.6148C5.48909 12.2386 5.96669 12 6.5 12C7.4665 12 8.25 12.7835 8.25 13.75C8.25 14.2397 8.04888 14.6824 7.72475 15M5.16811 12.6148C5.80671 8.36873 8.17577 6.33892 10.7363 5.37119M7.72475 15H5.5C4.11929 15 3 16.1193 3 17.5V18.5C3 19.8807 4.11929 21 5.5 21H16.5C17.8807 21 19 19.8807 19 18.5V17.5C19 16.1193 17.8807 15 16.5 15H7.72475ZM13.1373 4.7413C13.6536 5.04559 14 5.60734 14 6.25C14 7.2165 13.2165 8 12.25 8C11.2835 8 10.5 7.2165 10.5 6.25C10.5 5.92967 10.5861 5.62945 10.7363 5.37119M13.1373 4.7413C12.3494 4.87153 11.5336 5.06988 10.7363 5.37119M21 4.75V4.75C21 5.7165 20.2165 6.5 19.25 6.5V6.5C18.2835 6.5 17.5 5.7165 17.5 4.75V4.75C17.5 3.7835 18.2835 3 19.25 3V3C20.2165 3 21 3.7835 21 4.75Z" stroke="black" stroke-width="2" stroke-linecap="round" stroke-linejoin="round"/>
</svg>
