<svg width="24" height="24" viewBox="0 0 24 24" fill="none" xmlns="http://www.w3.org/2000/svg">
<path d="M20 8C19.5 5 16.5 3.5 14 3.5C8.52942 3.5 3.5535 6.96266 3.99245 14.38M15 8.5C15.7399 10.9663 15.9932 11.4862 15.9999 14.38M15.5 10C16 10.25 17 10.5 18 10.5M8 17.5H12M22 10.25V10.25C22 11.2165 21.2165 12 20.25 12V12C19.2835 12 18.5 11.2165 18.5 10.25V10.25C18.5 9.2835 19.2835 8.5 20.25 8.5V8.5C21.2165 8.5 22 9.2835 22 10.25ZM18 18V17C18 15.6193 16.8807 14.5 15.5 14.5H4.5C3.11929 14.5 2 15.6193 2 17V18C2 19.3807 3.11929 20.5 4.5 20.5H15.5C16.8807 20.5 18 19.3807 18 18Z" stroke="black" stroke-width="2" stroke-linecap="round" stroke-linejoin="round"/>
</svg>
