<svg width="24" height="24" viewBox="0 0 24 24" fill="none" xmlns="http://www.w3.org/2000/svg">
<path d="M5 16V16C3.89543 16 3 16.8954 3 18V19C3 20.1046 3.89543 21 5 21H17C18.1046 21 19 20.1046 19 19V18C19 16.8954 18.1046 16 17 16V16M5 16C5 5 14.5 4.5 17.5 4.5M5 16H17M17 16C15.5 11 16 6 17.5 6M21 4.75V4.75C21 5.7165 20.2165 6.5 19.25 6.5V6.5C18.2835 6.5 17.5 5.7165 17.5 4.75V4.75C17.5 3.7835 18.2835 3 19.25 3V3C20.2165 3 21 3.7835 21 4.75Z" stroke="black" stroke-width="2" stroke-linecap="round" stroke-linejoin="round"/>
</svg>
