<svg width="24" height="24" viewBox="0 0 24 24" fill="none" xmlns="http://www.w3.org/2000/svg">
<path d="M12 21C8.13401 21 5 17.866 5 14C5 11.2076 6.63505 8.7971 9 7.67363M12 21C15.866 21 19 17.866 19 14C19 11.2076 17.3649 8.7971 15 7.67363M12 21V22M9 7.67363C9.90926 7.24169 10.9264 7 12 7C13.0736 7 14.0907 7.24169 15 7.67363M9 7.67363V6C9 4.89543 9.89543 4 11 4H12M15 7.67363V6C15 4.89543 14.1046 4 13 4H12M12 4V2M12.4252 10.8154L12.8497 12.0895C12.9115 12.2751 13.0774 12.4009 13.2657 12.4049L14.5582 12.4324C14.9849 12.4414 15.1611 13.0072 14.821 13.2762L13.7908 14.0911C13.6408 14.2098 13.5774 14.4133 13.6319 14.6013L14.0063 15.8924C14.1298 16.3186 13.6686 16.6682 13.3183 16.4139L12.2571 15.6435C12.1026 15.5313 11.8974 15.5313 11.7429 15.6435L10.6817 16.4139C10.3314 16.6682 9.87016 16.3186 9.99374 15.8924L10.3681 14.6013C10.4226 14.4133 10.3592 14.2098 10.2092 14.0911L9.17899 13.2762C8.8389 13.0072 9.01507 12.4414 9.44177 12.4324L10.7343 12.4049C10.9226 12.4009 11.0885 12.2751 11.1503 12.0895L11.5748 10.8154C11.7149 10.3949 12.2851 10.3949 12.4252 10.8154Z" stroke="black" stroke-width="2" stroke-linecap="round" stroke-linejoin="round"/>
</svg>
