<svg width="24" height="24" viewBox="0 0 24 24" fill="none" xmlns="http://www.w3.org/2000/svg">
<path d="M19.8388 11.9194L20.3416 12.1708C21.358 12.679 22 13.7178 22 14.8541V16.117C22 17.8387 20.8846 19.339 19.1811 19.5891C17.7024 19.8061 15.6421 20 13 20C10.3579 20 8.29755 19.8061 6.8189 19.5891C5.59669 19.4097 4.67719 18.5866 4.25519 17.5M19.8388 11.9194C19.815 12.3632 19.7597 12.8147 19.6705 13.271C19.578 13.7449 19.2729 14.1414 18.8161 14.298C17.9563 14.5927 16.1909 15 13 15C8 15 6.5 14 6.5 14C8.5 13 10.75 11 11.5 9M19.8388 11.9194C20.0864 7.30048 16.9233 4 13 4C9.07674 4 4.25519 7.5 4.25 13M4.25 13C3.00736 13 2 14.0074 2 15.25C2 16.4926 3.00736 17.5 4.25 17.5L4.25519 17.5M4.25 13C5.49264 13 6.5 14.0074 6.5 15.25C6.5 16.4909 5.49545 17.4972 4.25519 17.5M15 17.4615C14.3752 17.4861 13.7085 17.5 13 17.5C12.2915 17.5 11.6248 17.4861 11 17.4615" stroke="black" stroke-width="2" stroke-linecap="round" stroke-linejoin="round"/>
</svg>
