<svg width="24" height="24" viewBox="0 0 24 24" fill="none" xmlns="http://www.w3.org/2000/svg">
<path d="M7.34515 8.83309C7.63327 9.11671 7.71302 9.61434 7.43202 9.99216L5.4825 12.6134C5.35632 12.7831 5.37562 13.001 5.48521 13.1464C5.55643 13.2409 5.66578 13.3048 5.79811 13.3048H6.43152C7.10586 13.3048 7.48077 14.1328 7.05951 14.6917L5.18325 17.1813L5.08887 17.3065C4.87824 17.586 5.06569 18 5.40287 18H11M7.34515 8.83309C7.20637 8.69647 7.01924 8.6095 6.8008 8.6095H6.19262C5.858 8.6095 5.66978 8.20098 5.87521 7.92061L9.73037 2.65914C10.3743 1.78029 11.6257 1.78028 12.2696 2.65914L14.6987 5.97429M7.34515 8.83309C9.89052 8.29649 12.6344 7.29553 14.6987 5.97429M14.6987 5.97429L16.1248 7.92061C16.3302 8.20098 16.142 8.6095 15.8074 8.6095H15.1992C14.5273 8.6095 14.1516 9.43234 14.568 9.99216L14.6008 10.0364L16.5175 12.6134C16.7257 12.8933 16.5379 13.3048 16.2019 13.3048H15.5685C15.1838 13.3048 14.8965 13.5742 14.799 13.9095C14.7255 14.1619 14.7596 14.4516 14.9405 14.6917L16.9111 17.3065C17.1218 17.586 16.9343 18 16.5971 18H11M7.20468 14.4C9.75004 13.8634 13.625 12.4 15.2866 10.9585M11 18V22M4 3H4.01M18.5 2V3.5M18.5 5V3.5M18.5 3.5H20M18.5 3.5H17M19.99 12H20M4.99023 21H5.00023" stroke="black" stroke-width="2" stroke-linecap="round" stroke-linejoin="round"/>
</svg>
