<svg width="24" height="24" viewBox="0 0 24 24" fill="none" xmlns="http://www.w3.org/2000/svg">
<path d="M19.8388 11.9194L20.3416 12.1708C21.358 12.679 22 13.7178 22 14.8541V16.117C22 17.8387 20.8846 19.339 19.1811 19.5891C18.5575 19.6806 17.8305 19.768 17 19.8385M19.8388 11.9194C19.815 12.3632 19.7597 12.8147 19.6705 13.271C19.578 13.7449 19.272 14.1418 18.8152 14.2983C18.4191 14.434 17.8309 14.5936 17 14.7262M19.8388 11.9194C20.0864 7.30048 16.9233 4 13 4C9.07674 4 4.25519 7.5 4.25 13M4.25 13C3.00736 13 2 14.0074 2 15.25C2 16.4926 3.00736 17.5 4.25 17.5L4.25519 17.5M4.25 13C5.49264 13 6.5 14.0074 6.5 15.25C6.5 16.4909 5.49545 17.4972 4.25519 17.5M11.5 9C10.75 11 8.5 13 6.5 14C6.5 14 7.69351 14.7957 11.5 14.9675M4.25519 17.5C4.67719 18.5866 5.59669 19.4097 6.8189 19.5891C8.00498 19.7632 9.56535 19.9224 11.5 19.9785M11.5 14.9675C11.9609 14.9883 12.46 15 13 15C14.7207 15 16.0268 14.8816 17 14.7262M11.5 14.9675C11 16.25 11 18.5 11.5 19.9785M11.5 19.9785C11.9772 19.9924 12.4772 20 13 20C14.5279 20 15.8612 19.9352 17 19.8385M17 14.7262C17.5 16.25 17.5 18 17 19.8385" stroke="black" stroke-width="2" stroke-linecap="round" stroke-linejoin="round"/>
</svg>
