<svg width="24" height="24" viewBox="0 0 24 24" fill="none" xmlns="http://www.w3.org/2000/svg">
<path d="M17.5 4.5C14.5071 4.5 5.04507 4.00237 5.00016 14.9218M17.5 6C16.0078 6 15.5052 9.95838 16.9767 14.9218M8 18H14M21 4.75V4.75C21 5.7165 20.2165 6.5 19.25 6.5V6.5C18.2835 6.5 17.5 5.7165 17.5 4.75V4.75C17.5 3.7835 18.2835 3 19.25 3V3C20.2165 3 21 3.7835 21 4.75ZM19 18.5V17.5C19 16.1193 17.8807 15 16.5 15H5.5C4.11929 15 3 16.1193 3 17.5V18.5C3 19.8807 4.11929 21 5.5 21H16.5C17.8807 21 19 19.8807 19 18.5Z" stroke="black" stroke-width="2" stroke-linecap="round" stroke-linejoin="round"/>
</svg>
