<svg width="24" height="24" viewBox="0 0 24 24" fill="none" xmlns="http://www.w3.org/2000/svg">
<path fill-rule="evenodd" clip-rule="evenodd" d="M12.425 1.31545L12.8495 2.58954C12.9113 2.77508 13.0772 2.90089 13.2655 2.90489L14.558 2.93237C14.9847 2.94145 15.1609 3.50716 14.8208 3.77617L13.7906 4.59109C13.6405 4.70976 13.5772 4.91332 13.6317 5.10134L13.9047 6.04293L15.9021 8.90524L17.0905 10.6083C17.3964 11.0466 17.4001 11.5713 17.2227 11.9757C17.0487 12.3721 16.6405 12.7642 16.0494 12.7826L17.4137 14.7087C17.7242 15.147 17.7298 15.6739 17.5533 16.0798C17.3787 16.4814 16.9638 16.8801 16.361 16.8914L17.7381 18.8101C18.0526 19.2483 18.0599 19.7772 17.8844 20.1843C17.7081 20.593 17.2833 21 16.6641 21H12.9998V22C12.9998 22.5523 12.5521 23 11.9998 23C11.4475 23 10.9998 22.5523 10.9998 22V21H7.33551C6.71628 21 6.29146 20.593 6.11523 20.1843C5.93967 19.7772 5.94695 19.2483 6.26145 18.8101L6.3401 18.7005L7.63862 16.8914C7.17418 16.8824 6.80739 16.6366 6.59178 16.3363C6.27565 15.8959 6.21105 15.2379 6.58585 14.7087L7.95013 12.7826C7.35908 12.7642 6.95083 12.3721 6.7769 11.9757C6.59944 11.5713 6.60319 11.0466 6.90906 10.6083L10.0949 6.04293L10.3679 5.10134C10.4224 4.91332 10.359 4.70976 10.209 4.59109L9.17878 3.77617C8.83869 3.50716 9.01486 2.94145 9.44156 2.93237L10.7341 2.90489C10.9224 2.90089 11.0883 2.77508 11.1501 2.58954L11.5746 1.31545C11.7147 0.89485 12.2848 0.894851 12.425 1.31545ZM11.7618 7.14902C11.8483 7.02504 11.9408 7 11.9998 7C12.0588 7 12.1512 7.02504 12.2377 7.14901L14.262 10.0498L14.8633 10.9115C14.4412 11.0923 14.1375 11.4411 13.979 11.8058C13.7501 12.3323 13.7599 13.0104 14.1571 13.5712L14.1845 13.6098L15.1797 15.0149C14.6634 15.2314 14.3276 15.7001 14.2019 16.1537C14.0685 16.6352 14.1259 17.2074 14.4711 17.6884L15.4126 19H11.9998H8.587L9.52844 17.6884C9.93071 17.1279 9.94282 16.4473 9.71502 15.9191C9.55581 15.5499 9.24817 15.1963 8.81919 15.0159L9.8425 13.5712C10.3738 12.8211 10.224 11.8534 9.67278 11.2836C9.52452 11.1304 9.34299 11.0012 9.13554 10.9126L11.7618 7.14902Z" fill="black"/>
</svg>
