<svg width="24" height="24" viewBox="0 0 24 24" fill="none" xmlns="http://www.w3.org/2000/svg">
<path d="M12 20H7.33572C7.05474 20 6.89853 19.6377 7.07406 19.3932L7.15271 19.2836L8.71626 17.1053C9.06731 16.6162 8.75489 15.8917 8.19293 15.8917H7.66509C7.55481 15.8917 7.46369 15.8358 7.40434 15.7531C7.31302 15.6259 7.29693 15.4352 7.40208 15.2867L9.02668 12.9931C9.26085 12.6625 9.19439 12.2271 8.95429 11.979C8.83864 11.8594 8.6827 11.7833 8.50067 11.7833H7.99385C7.715 11.7833 7.55815 11.4259 7.72934 11.1805L10.942 6.57675C11.4786 5.80775 12.5214 5.80775 13.058 6.57675L15.0822 9.4775L16.2707 11.1805C16.4419 11.4259 16.285 11.7833 16.0062 11.7833H15.4993C14.9394 11.7833 14.6264 12.5033 14.9733 12.9931L15.0007 13.0318L16.5979 15.2867C16.7714 15.5317 16.6149 15.8917 16.3349 15.8917H15.8071C15.4865 15.8917 15.2471 16.1275 15.1658 16.4208C15.1046 16.6417 15.133 16.8952 15.2837 17.1053L16.9259 19.3932C17.1015 19.6377 16.9453 20 16.6643 20H12ZM12 20V22M19.99 3H20M5.5 6V7.5M5.5 7.5V9M5.5 7.5H7M5.5 7.5H4M17.99 8H18M4 18H4.01" stroke="black" stroke-width="2" stroke-linecap="round" stroke-linejoin="round"/>
<path d="M12.8497 2.58954L12.4252 1.31545C12.2851 0.894851 11.7149 0.89485 11.5748 1.31545L11.1503 2.58954C11.0885 2.77508 10.9226 2.90089 10.7343 2.90489L9.44177 2.93237C9.01507 2.94145 8.8389 3.50716 9.17899 3.77617L10.2092 4.59109C10.3592 4.70976 10.4226 4.91332 10.3681 5.10134L9.99374 6.39241C9.87016 6.81862 10.3314 7.16825 10.6817 6.91391L11.7429 6.14346C11.8974 6.03126 12.1026 6.03126 12.2571 6.14346L13.3183 6.91391C13.6686 7.16825 14.1298 6.81862 14.0063 6.39241L13.6319 5.10134C13.5774 4.91332 13.6408 4.70976 13.7908 4.59109L14.821 3.77617C15.1611 3.50716 14.9849 2.94145 14.5582 2.93237L13.2657 2.90489C13.0774 2.90089 12.9115 2.77508 12.8497 2.58954Z" fill="black"/>
</svg>
