<svg width="24" height="24" viewBox="0 0 24 24" fill="none" xmlns="http://www.w3.org/2000/svg">
<path d="M17.0653 16.8869C16.9673 17.2024 17.0127 17.5646 17.254 17.8647L19.8815 21.1331C20.1623 21.4825 19.9124 22 19.4628 22H12H4.53715C4.08759 22 3.83765 21.4825 4.11849 21.1331L4.24433 20.9766M17.0653 16.8869C17.1954 16.4678 17.5784 16.1309 18.0913 16.1309H18.9359C19.3838 16.1309 19.6342 15.6167 19.3567 15.2668L16.8011 12.0454L16.7573 11.9902C16.2022 11.2904 16.703 10.2619 17.5989 10.2619H18.4098C18.856 10.2619 19.107 9.75123 18.8331 9.40076L16.9316 6.96786M17.0653 16.8869C13.5015 19.0657 8.35263 20.5636 4.24433 20.9766M4.24433 20.9766L6.74601 17.8647C7.30769 17.166 6.80782 16.1309 5.90869 16.1309H5.06415C4.8877 16.1309 4.7419 16.0512 4.64695 15.933C4.50083 15.7513 4.47509 15.4788 4.64333 15.2668L7.24269 11.9902C7.61736 11.5179 7.51103 10.8959 7.12687 10.5414M7.12687 10.5414C6.94183 10.3706 6.69232 10.2619 6.40107 10.2619H5.59016C5.144 10.2619 4.89304 9.75123 5.16695 9.40076L10.3072 2.82393C11.1658 1.72536 12.8342 1.72536 13.6928 2.82393L16.9316 6.96786M7.12687 10.5414C8.23659 10.322 9.37461 10.0407 10.5 9.70351M16.9316 6.96786C15.0792 8.07938 12.8163 9.00957 10.5 9.70351M10.5 12.5C11.0523 12.5 11.5 12.9477 11.5 13.5C11.5 14.0523 11.0523 14.5 10.5 14.5C9.94772 14.5 9.5 14.0523 9.5 13.5C9.5 12.9477 9.94772 12.5 10.5 12.5ZM10.5 12.5V9.70351M13 16.8647H13.01M13 10.8647H13.01M10 6.86475H10.01M13 3.86475H13.01" stroke="black" stroke-width="2" stroke-linecap="round" stroke-linejoin="round"/>
</svg>
