<svg width="24" height="24" viewBox="0 0 24 24" fill="none" xmlns="http://www.w3.org/2000/svg">
<path d="M19.8388 11.9194L20.3416 12.1708C21.358 12.679 22 13.7178 22 14.8541V16.117C22 17.8387 20.8846 19.339 19.1811 19.5891C17.7024 19.8061 15.6421 20 13 20C10.3579 20 8.29755 19.8061 6.8189 19.5891C5.59669 19.4097 4.67719 18.5866 4.25519 17.5M19.8388 11.9194C19.815 12.3632 19.7597 12.8147 19.6705 13.271C19.578 13.7449 19.2729 14.1414 18.8161 14.298C17.9563 14.5927 16.1909 15 13 15C12.4876 15 12.0119 14.9895 11.5709 14.9706M19.8388 11.9194C19.872 11.299 19.8438 10.7024 19.7604 10.1344M4.25 13C3.00736 13 2 14.0074 2 15.25C2 16.4926 3.00736 17.5 4.25 17.5L4.25519 17.5M4.25 13C5.49264 13 6.5 14.0074 6.5 15.25C6.5 16.4909 5.49545 17.4972 4.25519 17.5M4.25 13C4.25277 10.0653 5.62678 7.70006 7.50391 6.13207M11.5 9C10.75 11 8.5 13 6.5 14C6.5 14 7.53104 14.6874 10.7329 14.9223M11.5709 14.9706C12.3841 14.8199 13 14.1069 13 13.25C13 12.2835 12.2165 11.5 11.25 11.5C10.2835 11.5 9.5 12.2835 9.5 13.25C9.5 14.0365 10.0188 14.7018 10.7329 14.9223M11.5709 14.9706C11.2763 14.9581 10.9972 14.9417 10.7329 14.9223M7.50391 6.13207C7.50132 6.17104 7.5 6.21037 7.5 6.25C7.5 7.2165 8.2835 8 9.25 8C10.2165 8 11 7.2165 11 6.25C11 5.53192 10.5675 4.91486 9.9488 4.64509M7.50391 6.13207C8.25663 5.50331 9.09025 5.00275 9.9488 4.64509M9.9488 4.64509C10.9618 4.22308 12.0095 4 13 4C15.5553 4 17.7882 5.40015 18.9662 7.65279M18.9662 7.65279C18.7476 7.55461 18.5052 7.5 18.25 7.5C17.2835 7.5 16.5 8.2835 16.5 9.25C16.5 10.2165 17.2835 11 18.25 11C18.8938 11 19.4565 10.6523 19.7604 10.1344M18.9662 7.65279C19.3539 8.39417 19.6273 9.22789 19.7604 10.1344" stroke="black" stroke-width="2" stroke-linecap="round" stroke-linejoin="round"/>
</svg>
