<svg width="24" height="24" viewBox="0 0 24 24" fill="none" xmlns="http://www.w3.org/2000/svg">
<path fill-rule="evenodd" clip-rule="evenodd" d="M8 1C5.79086 1 4 2.79086 4 5V19C4 21.2091 5.79086 23 8 23H16C18.2091 23 20 21.2091 20 19V5C20 2.79086 18.2091 1 16 1H8ZM6 5C6 3.89543 6.89543 3 8 3H16C17.1046 3 18 3.89543 18 5V5.1294L14.0953 6.93157C12.7658 7.54518 11.2342 7.54518 9.90471 6.93157L6 5.1294V5ZM14.9334 8.74749L18 7.33214V19C18 20.1046 17.1046 21 16 21H8C6.89543 21 6 20.1046 6 19V7.33214L9.06659 8.74749C10.9279 9.60653 13.0721 9.60654 14.9334 8.74749ZM12 4.5C11.4477 4.5 11 4.94772 11 5.5C11 6.05228 11.4477 6.5 12 6.5H12.01C12.5623 6.5 13.01 6.05228 13.01 5.5C13.01 4.94772 12.5623 4.5 12.01 4.5H12ZM12.8888 14.0166L12.1537 12.1056C12.0996 11.9648 11.9004 11.9648 11.8463 12.1056L11.1112 14.0166C11.0945 14.0601 11.0601 14.0945 11.0166 14.1112L9.10558 14.8463C8.96481 14.9004 8.96481 15.0996 9.10558 15.1537L11.0166 15.8888C11.0601 15.9055 11.0945 15.9399 11.1112 15.9834L11.8463 17.8944C11.9004 18.0352 12.0996 18.0352 12.1537 17.8944L12.8888 15.9834C12.9055 15.9399 12.9399 15.9055 12.9834 15.8888L14.8944 15.1537C15.0352 15.0996 15.0352 14.9004 14.8944 14.8463L12.9834 14.1112C12.9399 14.0945 12.9055 14.0601 12.8888 14.0166Z" fill="black"/>
</svg>
