<svg width="24" height="24" viewBox="0 0 24 24" fill="none" xmlns="http://www.w3.org/2000/svg">
<path fill-rule="evenodd" clip-rule="evenodd" d="M4 5C4 2.79086 5.79086 1 8 1H16C18.2091 1 20 2.79086 20 5V19C20 21.2091 18.2091 23 16 23H8C5.79086 23 4 21.2091 4 19V5ZM8 3C6.89543 3 6 3.89543 6 5V5.1294L9.90471 6.93157C11.2342 7.54518 12.7658 7.54518 14.0953 6.93157L18 5.1294V5C18 3.89543 17.1046 3 16 3H8ZM18 7.33214L14.9334 8.74749C13.0721 9.60654 10.9279 9.60653 9.06659 8.74749L6 7.33214V19C6 20.1046 6.89543 21 8 21H16C17.1046 21 18 20.1046 18 19V7.33214ZM11 5.5C11 4.94772 11.4477 4.5 12 4.5H12.01C12.5623 4.5 13.01 4.94772 13.01 5.5C13.01 6.05228 12.5623 6.5 12.01 6.5H12C11.4477 6.5 11 6.05228 11 5.5ZM7.5 13C7.5 14.3807 8.61929 15.5 10 15.5C11.3807 15.5 12.5 14.3807 12.5 13C12.5 12.9238 12.4966 12.8484 12.4899 12.7739C12.4866 12.7369 12.4325 12.7343 12.4215 12.7697C12.2002 13.4824 11.5355 14 10.75 14C9.7835 14 9 13.2165 9 12.25C9 11.4645 9.51756 10.7998 10.2303 10.5785C10.2657 10.5675 10.2631 10.5134 10.2261 10.5101C10.1516 10.5034 10.0762 10.5 10 10.5C8.61929 10.5 7.5 11.6193 7.5 13ZM14.3543 14.7629C14.2375 14.4124 13.7625 14.4124 13.6457 14.7629L13.292 15.8246C13.2404 15.9792 13.1021 16.0841 12.9453 16.0874L11.8681 16.1103C11.5126 16.1179 11.3657 16.5893 11.6492 16.8135L12.5077 17.4926C12.6327 17.5915 12.6855 17.7611 12.6401 17.9178L12.3281 18.9937C12.2251 19.3488 12.6095 19.6402 12.9014 19.4283L13.7857 18.7862C13.9145 18.6927 14.0855 18.6927 14.2143 18.7862L15.0986 19.4283C15.3905 19.6402 15.7749 19.3488 15.6719 18.9937L15.3599 17.9178C15.3145 17.7611 15.3673 17.5915 15.4923 17.4926L16.3508 16.8135C16.6343 16.5893 16.4874 16.1179 16.1319 16.1103L15.0547 16.0874C14.8979 16.0841 14.7596 15.9792 14.708 15.8246L14.3543 14.7629Z" fill="black"/>
</svg>
