<svg width="24" height="24" viewBox="0 0 24 24" fill="none" xmlns="http://www.w3.org/2000/svg">
<path fill-rule="evenodd" clip-rule="evenodd" d="M8 1C5.79086 1 4 2.79086 4 5V19C4 21.2091 5.79086 23 8 23H16C18.2091 23 20 21.2091 20 19V5C20 2.79086 18.2091 1 16 1H8ZM6 5C6 3.89543 6.89543 3 8 3H16C17.1046 3 18 3.89543 18 5V5.1294L14.0953 6.93157C12.7658 7.54518 11.2342 7.54518 9.90471 6.93157L6 5.1294V5ZM14.9334 8.74749L18 7.33214V19C18 20.1046 17.1046 21 16 21H8C6.89543 21 6 20.1046 6 19V7.33214L9.06659 8.74749C10.9279 9.60653 13.0721 9.60654 14.9334 8.74749ZM12 4.5C11.4477 4.5 11 4.94772 11 5.5C11 6.05228 11.4477 6.5 12 6.5H12.01C12.5623 6.5 13.01 6.05228 13.01 5.5C13.01 4.94772 12.5623 4.5 12.01 4.5H12ZM12 18C10.3431 18 9 16.6569 9 15C9 13.3431 10.3431 12 12 12C12.0915 12 12.182 12.0041 12.2713 12.0121C12.3157 12.0161 12.3189 12.081 12.2763 12.0942C11.4211 12.3598 10.8 13.1574 10.8 14.1C10.8 15.2598 11.7402 16.2 12.9 16.2C13.8426 16.2 14.6402 15.5789 14.9058 14.7237C14.9191 14.6811 14.9839 14.6843 14.9879 14.7287C14.9959 14.818 15 14.9085 15 15C15 16.6569 13.6569 18 12 18Z" fill="black"/>
</svg>
