<svg width="24" height="24" viewBox="0 0 24 24" fill="none" xmlns="http://www.w3.org/2000/svg">
<path fill-rule="evenodd" clip-rule="evenodd" d="M8 1C5.79086 1 4 2.79086 4 5V19C4 21.2091 5.79086 23 8 23H16C18.2091 23 20 21.2091 20 19V5C20 2.79086 18.2091 1 16 1H8ZM6 5C6 3.89543 6.89543 3 8 3H16C17.1046 3 18 3.89543 18 5V5.1294L14.0953 6.93157C12.7658 7.54518 11.2342 7.54518 9.90471 6.93157L6 5.1294V5ZM14.9334 8.74749L18 7.33214V19C18 20.1046 17.1046 21 16 21H8C6.89543 21 6 20.1046 6 19V7.33214L9.06659 8.74749C10.9279 9.60653 13.0721 9.60654 14.9334 8.74749ZM12 4.5C11.4477 4.5 11 4.94772 11 5.5C11 6.05228 11.4477 6.5 12 6.5H12.01C12.5623 6.5 13.01 6.05228 13.01 5.5C13.01 4.94772 12.5623 4.5 12.01 4.5H12ZM12.8497 13.5895L12.4252 12.3154C12.2851 11.8949 11.7149 11.8948 11.5748 12.3154L11.1503 13.5895C11.0885 13.7751 10.9226 13.9009 10.7343 13.9049L9.44177 13.9324C9.01507 13.9414 8.8389 14.5072 9.17899 14.7762L10.2092 15.5911C10.3592 15.7098 10.4226 15.9133 10.3681 16.1013L9.99374 17.3924C9.87016 17.8186 10.3314 18.1682 10.6817 17.9139L11.7429 17.1435C11.8974 17.0313 12.1026 17.0313 12.2571 17.1435L13.3183 17.9139C13.6686 18.1682 14.1298 17.8186 14.0063 17.3924L13.6319 16.1013C13.5774 15.9133 13.6408 15.7098 13.7908 15.5911L14.821 14.7762C15.1611 14.5072 14.9849 13.9414 14.5582 13.9324L13.2657 13.9049C13.0774 13.9009 12.9115 13.7751 12.8497 13.5895Z" fill="black"/>
</svg>
