<svg width="24" height="24" viewBox="0 0 24 24" fill="none" xmlns="http://www.w3.org/2000/svg">
<path d="M2 13V17C2 18.6569 3.34315 20 5 20H9M2 13V7C2 5.34315 3.34315 4 5 4H9M2 13H9M22 13V7C22 5.34315 20.6569 4 19 4H9M22 13V17C22 18.6569 20.6569 20 19 20H9M22 13H9M9 4V13M9 20V13M9 13C5.5 13 5.22805 10.772 6 10C6.77195 9.22805 9 9.5 9 13ZM9 13C12.5 13 12.772 10.772 12 10C11.228 9.22805 9 9.5 9 13ZM9 13L6 16M9 13L12 16M18.5 8V9C18.5 9.27614 18.2761 9.5 18 9.5H17C16.7239 9.5 16.5 9.27614 16.5 9V8C16.5 7.72386 16.7239 7.5 17 7.5H18C18.2761 7.5 18.5 7.72386 18.5 8Z" stroke="black" stroke-width="2" stroke-linecap="round" stroke-linejoin="round"/>
</svg>
