<svg width="24" height="24" viewBox="0 0 24 24" fill="none" xmlns="http://www.w3.org/2000/svg">
<path fill-rule="evenodd" clip-rule="evenodd" d="M5 4C2.79086 4 1 5.79086 1 8V16C1 18.2091 2.79086 20 5 20H19C21.2091 20 23 18.2091 23 16V8C23 5.79086 21.2091 4 19 4H5ZM3 8C3 6.89543 3.89543 6 5 6H19C20.1046 6 21 6.89543 21 8V16C21 17.1046 20.1046 18 19 18H5C3.89543 18 3 17.1046 3 16V8ZM13 7.5C12.4477 7.5 12 7.94772 12 8.5C12 9.05228 12.4477 9.5 13 9.5H18.5C19.0523 9.5 19.5 9.05228 19.5 8.5C19.5 7.94772 19.0523 7.5 18.5 7.5H13ZM13 10.9998C12.4477 10.9998 12 11.4475 12 11.9998C12 12.552 12.4477 12.9998 13 12.9998H18.5C19.0523 12.9998 19.5 12.552 19.5 11.9998C19.5 11.4475 19.0523 10.9998 18.5 10.9998H13ZM5.5 14.5C4.94772 14.5 4.5 14.9477 4.5 15.5C4.5 16.0523 4.94772 16.5 5.5 16.5H18.5C19.0523 16.5 19.5 16.0523 19.5 15.5C19.5 14.9477 19.0523 14.5 18.5 14.5H5.5ZM7.5 13C5.84315 13 4.5 11.6569 4.5 10C4.5 8.34315 5.84315 7 7.5 7C7.59146 7 7.68196 7.00409 7.77133 7.0121C7.8157 7.01608 7.81886 7.08095 7.77632 7.09416C6.92107 7.3598 6.3 8.15737 6.3 9.1C6.3 10.2598 7.2402 11.2 8.4 11.2C9.34263 11.2 10.1402 10.5789 10.4058 9.72367C10.4191 9.68113 10.4839 9.6843 10.4879 9.72866C10.4959 9.81804 10.5 9.90854 10.5 10C10.5 11.6569 9.15685 13 7.5 13Z" fill="black"/>
</svg>
