<svg width="24" height="24" viewBox="0 0 24 24" fill="none" xmlns="http://www.w3.org/2000/svg">
<path d="M20 10C19.9999 14.4182 16.4182 18 12 18M20 10L11.9996 10.0001M20 10C20 5.58172 16.4183 2 12 2M12 2C7.5819 2.00021 4 5.58185 4 10M12 2L11.9996 10.0001M12 18L11.9996 10.0001M12 18C7.58193 17.9998 4.00006 14.4181 4 10M4 10L11.9996 10.0001M15.5 17.5L17.8661 19.8661C18.6536 20.6536 18.0959 22 16.9822 22H7.01777C5.90414 22 5.34643 20.6536 6.13388 19.8661L8.5 17.5M11.9996 10.0001C8.49962 10.0001 8.22766 7.77206 8.99962 7.0001C9.77157 6.22815 11.9996 6.5001 11.9996 10.0001ZM11.9996 10.0001C15.4996 10.0001 15.7716 7.77206 14.9996 7.0001C14.2277 6.22815 11.9996 6.5001 11.9996 10.0001ZM11.9996 10.0001L8.99962 13.0001M11.9996 10.0001L14.9996 13.0001" stroke="black" stroke-width="2" stroke-linecap="round" stroke-linejoin="round"/>
</svg>
