<svg width="24" height="24" viewBox="0 0 24 24" fill="none" xmlns="http://www.w3.org/2000/svg">
<path fill-rule="evenodd" clip-rule="evenodd" d="M5 4C2.79086 4 1 5.79086 1 8V16C1 18.2091 2.79086 20 5 20H19C21.2091 20 23 18.2091 23 16V8C23 5.79086 21.2091 4 19 4H5ZM3 8C3 6.89543 3.89543 6 5 6H19C20.1046 6 21 6.89543 21 8V16C21 17.1046 20.1046 18 19 18H5C3.89543 18 3 17.1046 3 16V8ZM13 7.5C12.4477 7.5 12 7.94772 12 8.5C12 9.05228 12.4477 9.5 13 9.5H18.5C19.0523 9.5 19.5 9.05228 19.5 8.5C19.5 7.94772 19.0523 7.5 18.5 7.5H13ZM13 10.9998C12.4477 10.9998 12 11.4475 12 11.9998C12 12.552 12.4477 12.9998 13 12.9998H18.5C19.0523 12.9998 19.5 12.552 19.5 11.9998C19.5 11.4475 19.0523 10.9998 18.5 10.9998H13ZM5.5 14.5C4.94772 14.5 4.5 14.9477 4.5 15.5C4.5 16.0523 4.94772 16.5 5.5 16.5H18.5C19.0523 16.5 19.5 16.0523 19.5 15.5C19.5 14.9477 19.0523 14.5 18.5 14.5H5.5ZM7.92518 7.31545C7.78506 6.89485 7.21494 6.89485 7.07482 7.31545L6.65034 8.58954C6.58853 8.77508 6.42256 8.90089 6.23433 8.90489L4.94177 8.93237C4.51507 8.94145 4.3389 9.50716 4.67899 9.77617L5.70921 10.5911C5.85924 10.7098 5.92263 10.9133 5.86811 11.1013L5.49374 12.3924C5.37016 12.8186 5.83139 13.1682 6.1817 12.9139L7.24289 12.1435C7.39743 12.0313 7.60257 12.0313 7.75711 12.1435L8.8183 12.9139C9.16861 13.1682 9.62984 12.8186 9.50626 12.3924L9.13189 11.1013C9.07737 10.9133 9.14076 10.7098 9.29079 10.5911L10.321 9.77617C10.6611 9.50716 10.4849 8.94145 10.0582 8.93237L8.76567 8.90489C8.57744 8.90089 8.41147 8.77508 8.34966 8.58954L7.92518 7.31545Z" fill="black"/>
</svg>
