<svg width="24" height="24" viewBox="0 0 24 24" fill="none" xmlns="http://www.w3.org/2000/svg">
<path d="M15.5 17.5L17.8661 19.8661C18.6536 20.6536 18.0959 22 16.9822 22H7.01777C5.90414 22 5.34643 20.6536 6.13388 19.8661L8.5 17.5M12 5C9.23858 5 7 7.23858 7 10M10.49 10.5H10.5M14 14H14.01M15.5 11L16.5 10M9.5 13.5L10.5 14.5M12.5 8L13.5 9M20 10C20 5.58172 16.4183 2 12 2C7.58172 2 4 5.58172 4 10C4 14.4183 7.58172 18 12 18C16.4183 18 20 14.4183 20 10Z" stroke="black" stroke-width="2" stroke-linecap="round" stroke-linejoin="round"/>
</svg>
