<svg width="24" height="24" viewBox="0 0 24 24" fill="none" xmlns="http://www.w3.org/2000/svg">
<path d="M15.5 17.5L17.8661 19.8661C18.6536 20.6536 18.0959 22 16.9822 22H7.01777C5.90414 22 5.34643 20.6536 6.13388 19.8661L8.5 17.5M20 10C20 5.58172 16.4183 2 12 2C7.58172 2 4 5.58172 4 10C4 14.4183 7.58172 18 12 18C16.4183 18 20 14.4183 20 10ZM12.205 6.14077L13.185 8.68886C13.2073 8.74686 13.2531 8.79269 13.3111 8.815L15.8592 9.79503C16.0469 9.86722 16.0469 10.1328 15.8592 10.205L13.3111 11.185C13.2531 11.2073 13.2073 11.2531 13.185 11.3111L12.205 13.8592C12.1328 14.0469 11.8672 14.0469 11.795 13.8592L10.815 11.3111C10.7927 11.2531 10.7469 11.2073 10.6889 11.185L8.14077 10.205C7.95308 10.1328 7.95308 9.86722 8.14077 9.79503L10.6889 8.815C10.7469 8.79269 10.7927 8.74686 10.815 8.68886L11.795 6.14077C11.8672 5.95308 12.1328 5.95308 12.205 6.14077Z" stroke="black" stroke-width="2" stroke-linecap="round" stroke-linejoin="round"/>
</svg>
