<svg width="24" height="24" viewBox="0 0 24 24" fill="none" xmlns="http://www.w3.org/2000/svg">
<path fill-rule="evenodd" clip-rule="evenodd" d="M5 4C2.79086 4 1 5.79086 1 8V16C1 18.2091 2.79086 20 5 20H19C21.2091 20 23 18.2091 23 16V8C23 5.79086 21.2091 4 19 4H5ZM3 8C3 6.89543 3.89543 6 5 6H19C20.1046 6 21 6.89543 21 8V16C21 17.1046 20.1046 18 19 18H5C3.89543 18 3 17.1046 3 16V8ZM16.7071 7.29289C16.3166 6.90237 15.6834 6.90237 15.2929 7.29289C14.9024 7.68342 14.9024 8.31658 15.2929 8.70711L16.2929 9.70711C16.6834 10.0976 17.3166 10.0976 17.7071 9.70711C18.0976 9.31658 18.0976 8.68342 17.7071 8.29289L16.7071 7.29289ZM7.70711 7.79289C7.31658 7.40237 6.68342 7.40237 6.29289 7.79289C5.90237 8.18342 5.90237 8.81658 6.29289 9.20711L7.29289 10.2071C7.68342 10.5976 8.31658 10.5976 8.70711 10.2071C9.09763 9.81658 9.09763 9.18342 8.70711 8.79289L7.70711 7.79289ZM4.5 11.5C3.94772 11.5 3.5 11.9477 3.5 12.5C3.5 13.0523 3.94772 13.5 4.5 13.5H4.51C5.06228 13.5 5.51 13.0523 5.51 12.5C5.51 11.9477 5.06228 11.5 4.51 11.5H4.5ZM18.5 11.5C17.9477 11.5 17.5 11.9477 17.5 12.5C17.5 13.0523 17.9477 13.5 18.5 13.5H18.51C19.0623 13.5 19.51 13.0523 19.51 12.5C19.51 11.9477 19.0623 11.5 18.51 11.5H18.5ZM7.70711 16.7071L8.70711 15.7071C9.09763 15.3166 9.09763 14.6834 8.70711 14.2929C8.31658 13.9024 7.68342 13.9024 7.29289 14.2929L6.29289 15.2929C5.90237 15.6834 5.90237 16.3166 6.29289 16.7071C6.68342 17.0976 7.31658 17.0976 7.70711 16.7071ZM15.5 14.5C14.9477 14.5 14.5 14.9477 14.5 15.5C14.5 16.0523 14.9477 16.5 15.5 16.5H15.51C16.0623 16.5 16.51 16.0523 16.51 15.5C16.51 14.9477 16.0623 14.5 15.51 14.5H15.5ZM12 15C10.3431 15 9 13.6569 9 12C9 10.3431 10.3431 9 12 9C12.0915 9 12.182 9.00409 12.2713 9.0121C12.3157 9.01608 12.3189 9.08095 12.2763 9.09416C11.4211 9.3598 10.8 10.1574 10.8 11.1C10.8 12.2598 11.7402 13.2 12.9 13.2C13.8426 13.2 14.6402 12.5789 14.9058 11.7237C14.9191 11.6811 14.9839 11.6843 14.9879 11.7287C14.9959 11.818 15 11.9085 15 12C15 13.6569 13.6569 15 12 15Z" fill="black"/>
</svg>
