<svg width="24" height="24" viewBox="0 0 24 24" fill="none" xmlns="http://www.w3.org/2000/svg">
<path d="M15.5 17.5L17.8661 19.8661C18.6536 20.6536 18.0959 22 16.9822 22H7.01777C5.90414 22 5.34643 20.6536 6.13388 19.8661L8.5 17.5M14 6.5H14.01M15 13.5H15.01M10 14.5L10.5 14M15.5 9.5L16 9M20 10C20 5.58172 16.4183 2 12 2C7.58172 2 4 5.58172 4 10C4 14.4183 7.58172 18 12 18C16.4183 18 20 14.4183 20 10Z" stroke="black" stroke-width="2" stroke-linecap="round" stroke-linejoin="round"/>
<path d="M10.8888 8.01665L10.1537 6.10558C10.0996 5.96481 9.90042 5.96481 9.84627 6.10558L9.11125 8.01665C9.09452 8.06014 9.06014 8.09452 9.01665 8.11125L7.10558 8.84627C6.96481 8.90042 6.96481 9.09958 7.10558 9.15373L9.01665 9.88875C9.06014 9.90548 9.09452 9.93986 9.11125 9.98335L9.84627 11.8944C9.90042 12.0352 10.0996 12.0352 10.1537 11.8944L10.8888 9.98335C10.9055 9.93986 10.9399 9.90548 10.9834 9.88875L12.8944 9.15373C13.0352 9.09958 13.0352 8.90042 12.8944 8.84627L10.9834 8.11125C10.9399 8.09452 10.9055 8.06014 10.8888 8.01665Z" fill="black"/>
</svg>
