<svg width="24" height="24" viewBox="0 0 24 24" fill="none" xmlns="http://www.w3.org/2000/svg">
<path fill-rule="evenodd" clip-rule="evenodd" d="M5 4C2.79086 4 1 5.79086 1 8V16C1 18.2091 2.79086 20 5 20H19C21.2091 20 23 18.2091 23 16V8C23 5.79086 21.2091 4 19 4H5ZM3 8C3 6.89543 3.89543 6 5 6H19C20.1046 6 21 6.89543 21 8V16C21 17.1046 20.1046 18 19 18H5C3.89543 18 3 17.1046 3 16V8ZM16.7071 7.29289C16.3166 6.90237 15.6834 6.90237 15.2929 7.29289C14.9024 7.68342 14.9024 8.31658 15.2929 8.70711L16.2929 9.70711C16.6834 10.0976 17.3166 10.0976 17.7071 9.70711C18.0976 9.31658 18.0976 8.68342 17.7071 8.29289L16.7071 7.29289ZM7.70711 8.29289C7.31658 7.90237 6.68342 7.90237 6.29289 8.29289C5.90237 8.68342 5.90237 9.31658 6.29289 9.70711L7.29289 10.7071C7.68342 11.0976 8.31658 11.0976 8.70711 10.7071C9.09763 10.3166 9.09763 9.68342 8.70711 9.29289L7.70711 8.29289ZM4.5 11.5C3.94772 11.5 3.5 11.9477 3.5 12.5C3.5 13.0523 3.94772 13.5 4.5 13.5H4.51C5.06228 13.5 5.51 13.0523 5.51 12.5C5.51 11.9477 5.06228 11.5 4.51 11.5H4.5ZM18.5 11.5C17.9477 11.5 17.5 11.9477 17.5 12.5C17.5 13.0523 17.9477 13.5 18.5 13.5H18.51C19.0623 13.5 19.51 13.0523 19.51 12.5C19.51 11.9477 19.0623 11.5 18.51 11.5H18.5ZM8.70711 15.7071C9.09763 15.3166 9.09763 14.6834 8.70711 14.2929C8.31658 13.9024 7.68342 13.9024 7.29289 14.2929L6.29289 15.2929C5.90237 15.6834 5.90237 16.3166 6.29289 16.7071C6.68342 17.0976 7.31658 17.0976 7.70711 16.7071L8.70711 15.7071ZM15.5 14.5C14.9477 14.5 14.5 14.9477 14.5 15.5C14.5 16.0523 14.9477 16.5 15.5 16.5H15.51C16.0623 16.5 16.51 16.0523 16.51 15.5C16.51 14.9477 16.0623 14.5 15.51 14.5H15.5ZM12.1537 9.10558C12.0996 8.96481 11.9004 8.96481 11.8463 9.10558L11.1112 11.0166C11.0945 11.0601 11.0601 11.0945 11.0166 11.1112L9.10558 11.8463C8.96481 11.9004 8.96481 12.0996 9.10558 12.1537L11.0166 12.8888C11.0601 12.9055 11.0945 12.9399 11.1112 12.9834L11.8463 14.8944C11.9004 15.0352 12.0996 15.0352 12.1537 14.8944L12.8888 12.9834C12.9055 12.9399 12.9399 12.9055 12.9834 12.8888L14.8944 12.1537C15.0352 12.0996 15.0352 11.9004 14.8944 11.8463L12.9834 11.1112C12.9399 11.0945 12.9055 11.0601 12.8888 11.0166L12.1537 9.10558Z" fill="black"/>
</svg>
