<svg width="24" height="24" viewBox="0 0 24 24" fill="none" xmlns="http://www.w3.org/2000/svg">
<path d="M15.5 17.5L17.8661 19.8661C18.6536 20.6536 18.0959 22 16.9822 22H7.01777C5.90414 22 5.34643 20.6536 6.13388 19.8661L8.5 17.5M12 8.5H10.25C9.55964 8.5 9 9.05964 9 9.75V12.25C9 12.9404 9.55964 13.5 10.25 13.5H12M12 8.5H13.75C14.4404 8.5 15 9.05964 15 9.75V12.25C15 12.9404 14.4404 13.5 13.75 13.5H12M12 8.5V13.5M12 8.5L13.5 7M12 8.5L10.5 7M20 10C20 5.58172 16.4183 2 12 2C7.58172 2 4 5.58172 4 10C4 14.4183 7.58172 18 12 18C16.4183 18 20 14.4183 20 10Z" stroke="black" stroke-width="2" stroke-linecap="round" stroke-linejoin="round"/>
</svg>
