<svg width="24" height="24" viewBox="0 0 24 24" fill="none" xmlns="http://www.w3.org/2000/svg">
<path fill-rule="evenodd" clip-rule="evenodd" d="M5 4C2.79086 4 1 5.79086 1 8V16C1 18.2091 2.79086 20 5 20H19C21.2091 20 23 18.2091 23 16V8C23 5.79086 21.2091 4 19 4H5ZM3 8C3 6.89543 3.89543 6 5 6H19C20.1046 6 21 6.89543 21 8V16C21 17.1046 20.1046 18 19 18H5C3.89543 18 3 17.1046 3 16V8ZM16.7071 7.29289C16.3166 6.90237 15.6834 6.90237 15.2929 7.29289C14.9024 7.68342 14.9024 8.31658 15.2929 8.70711L16.2929 9.70711C16.6834 10.0976 17.3166 10.0976 17.7071 9.70711C18.0976 9.31658 18.0976 8.68342 17.7071 8.29289L16.7071 7.29289ZM7.70711 7.79289C7.31658 7.40237 6.68342 7.40237 6.29289 7.79289C5.90237 8.18342 5.90237 8.81658 6.29289 9.20711L7.29289 10.2071C7.68342 10.5976 8.31658 10.5976 8.70711 10.2071C9.09763 9.81658 9.09763 9.18342 8.70711 8.79289L7.70711 7.79289ZM4.5 11.5C3.94772 11.5 3.5 11.9477 3.5 12.5C3.5 13.0523 3.94772 13.5 4.5 13.5H4.51C5.06228 13.5 5.51 13.0523 5.51 12.5C5.51 11.9477 5.06228 11.5 4.51 11.5H4.5ZM18.5 11.5C17.9477 11.5 17.5 11.9477 17.5 12.5C17.5 13.0523 17.9477 13.5 18.5 13.5H18.51C19.0623 13.5 19.51 13.0523 19.51 12.5C19.51 11.9477 19.0623 11.5 18.51 11.5H18.5ZM8.70711 15.7071C9.09763 15.3166 9.09763 14.6834 8.70711 14.2929C8.31658 13.9024 7.68342 13.9024 7.29289 14.2929L6.29289 15.2929C5.90237 15.6834 5.90237 16.3166 6.29289 16.7071C6.68342 17.0976 7.31658 17.0976 7.70711 16.7071L8.70711 15.7071ZM15.5 14.5C14.9477 14.5 14.5 14.9477 14.5 15.5C14.5 16.0523 14.9477 16.5 15.5 16.5H15.51C16.0623 16.5 16.51 16.0523 16.51 15.5C16.51 14.9477 16.0623 14.5 15.51 14.5H15.5ZM12.4252 9.31545C12.2851 8.89485 11.7149 8.89485 11.5748 9.31545L11.1503 10.5895C11.0885 10.7751 10.9226 10.9009 10.7343 10.9049L9.44177 10.9324C9.01507 10.9414 8.8389 11.5072 9.17899 11.7762L10.2092 12.5911C10.3592 12.7098 10.4226 12.9133 10.3681 13.1013L9.99374 14.3924C9.87016 14.8186 10.3314 15.1682 10.6817 14.9139L11.7429 14.1435C11.8974 14.0313 12.1026 14.0313 12.2571 14.1435L13.3183 14.9139C13.6686 15.1682 14.1298 14.8186 14.0063 14.3924L13.6319 13.1013C13.5774 12.9133 13.6408 12.7098 13.7908 12.5911L14.821 11.7762C15.1611 11.5072 14.9849 10.9414 14.5582 10.9324L13.2657 10.9049C13.0774 10.9009 12.9115 10.7751 12.8497 10.5895L12.4252 9.31545Z" fill="black"/>
</svg>
