<svg width="24" height="24" viewBox="0 0 24 24" fill="none" xmlns="http://www.w3.org/2000/svg">
<path d="M2 11V17C2 18.6569 3.34315 20 5 20H9M2 11V7C2 5.34315 3.34315 4 5 4H9M2 11H9M22 11V7C22 5.34315 20.6569 4 19 4H9M22 11V17C22 18.6569 20.6569 20 19 20H9M22 11H9M9 4V11M9 20V11M9 11C5.5 11 5.22805 8.77195 6 8C6.77195 7.22805 9 7.5 9 11ZM9 11C12.5 11 12.772 8.77195 12 8C11.228 7.22805 9 7.5 9 11ZM9 11L6 14M9 11L12 14M18 14.5H17C16.7239 14.5 16.5 14.7239 16.5 15V16C16.5 16.2761 16.7239 16.5 17 16.5H18C18.2761 16.5 18.5 16.2761 18.5 16V15C18.5 14.7239 18.2761 14.5 18 14.5Z" stroke="black" stroke-width="2" stroke-linecap="round" stroke-linejoin="round"/>
</svg>
