<svg width="24" height="24" viewBox="0 0 24 24" fill="none" xmlns="http://www.w3.org/2000/svg">
<path d="M15.5 17.5001L17.8661 19.8662C18.6536 20.6536 18.0959 22.0001 16.9822 22.0001H7.01777C5.90414 22.0001 5.34643 20.6536 6.13388 19.8662L8.5 17.5001M9.99962 7.00016C6.49962 7.00016 6.22766 4.77211 6.99962 4.00016C7.77157 3.22821 9.99962 3.50016 9.99962 7.00016ZM9.99962 7.00016C13.4996 7.00016 13.7716 4.77211 12.9996 4.00016C12.2277 3.22821 9.99962 3.50016 9.99962 7.00016ZM9.99962 7.00016L6.99962 10.0002M9.99962 7.00016L12.9996 10.0002M9.99962 7.00016V17.5001M9.99962 7.00016H19M4.25206 8.00005C4.08752 8.63929 4 9.30946 4 10.0001C4.00006 14.4182 7.58193 17.9998 12 18.0001C16.4182 18.0001 19.9999 14.4183 20 10.0001C20 7.03893 18.3912 4.45355 16 3.07031" stroke="black" stroke-width="2" stroke-linecap="round" stroke-linejoin="round"/>
</svg>
