<svg width="24" height="24" viewBox="0 0 24 24" fill="none" xmlns="http://www.w3.org/2000/svg">
<path fill-rule="evenodd" clip-rule="evenodd" d="M5 4C2.79086 4 1 5.79086 1 8V16C1 18.2091 2.79086 20 5 20H19C21.2091 20 23 18.2091 23 16V8C23 5.79086 21.2091 4 19 4H5ZM3 8C3 6.89543 3.89543 6 5 6H19C20.1046 6 21 6.89543 21 8V16C21 17.1046 20.1046 18 19 18H5C3.89543 18 3 17.1046 3 16V8ZM13 7.99976C12.4477 7.99976 12 8.44747 12 8.99976C12 9.55204 12.4477 9.99976 13 9.99976H18C18.5523 9.99976 19 9.55204 19 8.99976C19 8.44747 18.5523 7.99976 18 7.99976H13ZM13 10.9998C12.4477 10.9998 12 11.4475 12 11.9998C12 12.552 12.4477 12.9998 13 12.9998H18C18.5523 12.9998 19 12.552 19 11.9998C19 11.4475 18.5523 10.9998 18 10.9998H13ZM10 13.9998C9.44772 13.9998 9 14.4475 9 14.9998C9 15.552 9.44772 15.9998 10 15.9998H18C18.5523 15.9998 19 15.552 19 14.9998C19 14.4475 18.5523 13.9998 18 13.9998H10ZM7.65373 7.60558C7.59958 7.46481 7.40042 7.46481 7.34627 7.60558L6.61125 9.51665C6.59452 9.56014 6.56014 9.59452 6.51665 9.61125L4.60558 10.3463C4.46481 10.4004 4.46481 10.5996 4.60558 10.6537L6.51665 11.3888C6.56014 11.4055 6.59452 11.4399 6.61125 11.4834L7.34627 13.3944C7.40042 13.5352 7.59958 13.5352 7.65373 13.3944L8.38875 11.4834C8.40548 11.4399 8.43986 11.4055 8.48335 11.3888L10.3944 10.6537C10.5352 10.5996 10.5352 10.4004 10.3944 10.3463L8.48335 9.61125C8.43986 9.59452 8.40548 9.56014 8.38875 9.51665L7.65373 7.60558Z" fill="black"/>
</svg>
