<svg width="24" height="24" viewBox="0 0 24 24" fill="none" xmlns="http://www.w3.org/2000/svg">
<path d="M6.22595 14.3237C4.2941 13.8061 2.87988 11.3566 3.91516 7.49288L4.82102 4.11214C5.03544 3.31194 5.85794 2.83707 6.65814 3.05148L11.4878 4.34558C12.1105 4.51245 12.5363 5.04765 12.5934 5.654M6.22595 14.3237C8.1578 14.8414 10.6073 13.4271 11.6426 9.56344L11.822 8.89394M6.22595 14.3237L4.93185 19.1533M4.93185 19.1533L6.8637 19.671M4.93185 19.1533L3 18.6357M17.7744 15.6538C15.8425 16.1714 13.393 14.7572 12.3577 10.8935L11.822 8.89394M17.7744 15.6538C19.7062 15.1362 21.1204 12.6867 20.0851 8.82296L19.1793 5.44222C18.9649 4.64202 18.1424 4.16715 17.3422 4.38156L12.5934 5.654M17.7744 15.6538L19.0685 20.4834M19.0685 20.4834L21.0003 19.9658M19.0685 20.4834L17.1366 21.0011M12.5934 5.654C12.6096 5.82675 12.596 6.00527 12.5484 6.1827L11.822 8.89394M4 8.5C6.5 8.5 8.5 8.5 11.6426 8M12.3577 10C14.5 10.5 17.0155 11 20 11" stroke="black" stroke-width="2" stroke-linecap="round" stroke-linejoin="round"/>
</svg>
