<svg width="24" height="24" viewBox="0 0 24 24" fill="none" xmlns="http://www.w3.org/2000/svg">
<path d="M17.468 16.062C16.0996 16.4235 14.3157 15.2559 13.4846 12.1977L12.8246 9.76909C12.6558 9.14813 13.0296 8.50985 13.6593 8.34347L16.8523 7.49991C17.4821 7.33353 18.1294 7.70203 18.2982 8.323L18.9582 10.7516C19.7893 13.8098 18.8364 15.7005 17.468 16.062ZM17.468 16.062L18.678 20.5145M18.678 20.5145L20.5026 20.0324M18.678 20.5145L16.8535 20.9965M6.17202 16.1348C4.77686 15.8923 3.66051 14.0907 4.21812 10.9727L4.66093 8.49661C4.77415 7.86351 5.38646 7.44078 6.02856 7.55241L9.28392 8.11837C9.92603 8.23001 10.3548 8.83373 10.2416 9.46683L9.79874 11.9429C9.24114 15.0609 7.56718 16.3774 6.17202 16.1348ZM6.17202 16.1348L5.36021 20.6743M5.36021 20.6743L7.22042 20.9977M5.36021 20.6743L3.5 20.3509M4.44445 11.6877C6.33336 11.6877 7.75004 11.6877 9.63894 10.7565M12.9445 9.82528C14.8334 10.7565 16.7223 10.7565 18.6112 10.7565M12 3V4M14.5 5L15.5 4M9.5 5L8.5 4" stroke="black" stroke-width="2" stroke-linecap="round" stroke-linejoin="round"/>
</svg>
