<svg width="24" height="24" viewBox="0 0 24 24" fill="none" xmlns="http://www.w3.org/2000/svg">
<path d="M3 3C3 3 6 5.08333 12 5.08333C18 5.08333 21 3 21 3M3 13.5C3 13.5 6 16 12 16C18 16 21 13.5 21 13.5M4 4L3 8L4.97521 7.60496C5.30307 7.53939 5.64201 7.64201 5.87843 7.87843L7.25 9.25L8.5 5M9.75 5.08333V10L11.5939 9.18051C11.8524 9.06559 12.1476 9.06559 12.4061 9.18051L14.25 10V5.08333M20 4L21 8L19.0248 7.60496C18.6969 7.53939 18.358 7.64201 18.1216 7.87843L16.75 9.25L15.5 5M4 15L3 19L4.97521 18.605C5.30307 18.5394 5.64201 18.642 5.87843 18.8784L7.25 20.25L8.5 16M9.75 16.0833V21L11.5939 20.1805C11.8524 20.0656 12.1476 20.0656 12.4061 20.1805L14.25 21V16.0833M20 15L21 19L19.0248 18.605C18.6969 18.5394 18.358 18.642 18.1216 18.8784L16.75 20.25L15.5 16" stroke="black" stroke-width="2" stroke-linecap="round" stroke-linejoin="round"/>
</svg>
