<svg width="24" height="24" viewBox="0 0 24 24" fill="none" xmlns="http://www.w3.org/2000/svg">
<path d="M4 7.45424C4 7.45424 7.16287 8.90117 12.4962 7.08308C17.8295 5.265 20 2 20 2L18.3823 9.46054C18.1213 10.2252 17.2421 10.3493 16.8336 9.67913L14.9176 6.53567M14.6759 6.30947L12.411 12.6797C12.259 13.107 11.7424 13.107 11.5905 12.6797L10.005 8.22052M5.34814 8L5.85469 9.48404C6.11569 10.2487 6.99487 10.3728 7.40333 9.70263L8.44112 8M20 17.4542C20 17.4542 16.8371 18.9012 11.5038 17.0831C6.17047 15.265 4 12 4 12L5.61775 19.4605C5.87874 20.2252 6.75792 20.3493 7.16638 19.6791L9.08239 16.5357M15.521 18.0993L17.1177 20.7188C17.5262 21.389 18.4054 21.2649 18.6664 20.5002L19.5469 17.9206M9.32406 16.3095L11.589 21.6797C11.741 22.107 12.2576 22.107 12.4095 21.6797L13.995 18.2205" stroke="black" stroke-width="2" stroke-linecap="round" stroke-linejoin="round"/>
</svg>
