<svg width="24" height="24" viewBox="0 0 24 24" fill="none" xmlns="http://www.w3.org/2000/svg">
<path d="M3 3C3 3 6 5.08333 12 5.08333C18 5.08333 21 3 21 3M3.5 3.52083L4.82078 6.96038C5.1144 7.725 6.10348 7.84909 6.56299 7.17897L8 5.08333M9.5 5.08333L11.5385 10.1795C11.7094 10.6068 12.2906 10.6068 12.4615 10.1795L14.5 5.08333M20.5 3.52083L19.1792 6.96038C18.8856 7.725 17.8965 7.84909 17.437 7.17897L16 5.08333M3 13.5C3 13.5 6 15.5833 12 15.5833C18 15.5833 21 13.5 21 13.5M3.5 14.0208L4.82078 17.4604C5.1144 18.225 6.10348 18.3491 6.56299 17.679L8 15.5833M9.5 15.5833L11.5385 20.6795C11.7094 21.1068 12.2906 21.1068 12.4615 20.6795L14.5 15.5833M20.5 14.0208L19.1792 17.4604C18.8856 18.225 17.8965 18.3491 17.437 17.679L16 15.5833" stroke="black" stroke-width="2" stroke-linecap="round" stroke-linejoin="round"/>
</svg>
