<svg width="24" height="24" viewBox="0 0 24 24" fill="none" xmlns="http://www.w3.org/2000/svg">
<path d="M20 7.45424C20 7.45424 16.8371 8.90117 11.5038 7.08308C6.17046 5.265 4 2 4 2L5.61775 9.46054C5.87874 10.2252 6.75792 10.3493 7.16638 9.67913L9.08238 6.53567M9.32406 6.30947L11.589 12.6797C11.741 13.107 12.2576 13.107 12.4095 12.6797L13.995 8.22052M18.6519 8L18.1453 9.48404C17.8843 10.2487 17.0051 10.3728 16.5967 9.70263L15.5589 8M4 17.4542C4 17.4542 7.16287 18.9012 12.4962 17.0831C17.8295 15.265 20 12 20 12L18.3823 19.4605C18.1213 20.2252 17.2421 20.3493 16.8336 19.6791L14.9176 16.5357M8.47895 18.0993L6.88228 20.7188C6.47382 21.389 5.59464 21.2649 5.33365 20.5002L4.45312 17.9206M14.6759 16.3095L12.411 21.6797C12.259 22.107 11.7424 22.107 11.5905 21.6797L10.005 18.2205" stroke="black" stroke-width="2" stroke-linecap="round" stroke-linejoin="round"/>
</svg>
