<svg width="24" height="24" viewBox="0 0 24 24" fill="none" xmlns="http://www.w3.org/2000/svg">
<path d="M8 5.00002C5.60879 6.38325 4 9.03894 4 12.0001C4 14.9612 5.60879 17.6168 8 19M8 5.00002H16M8 5.00002V3.25C8 2.55964 8.55964 2 9.25 2H14.75C15.4404 2 16 2.55964 16 3.25V5.00002M16 5.00002C18.3912 6.38325 20 9.03894 20 12.0001C20 14.9612 18.3912 17.6168 16 19M8 19H16M8 19V20.75C8 21.4404 8.55964 22 9.25 22H14.75C15.4404 22 16 21.4404 16 20.75V19M5.5 8.5H18.5M4.5 12H19.5M5.5 15.5H18.5" stroke="black" stroke-width="2" stroke-linecap="round" stroke-linejoin="round"/>
</svg>
