<svg width="24" height="24" viewBox="0 0 24 24" fill="none" xmlns="http://www.w3.org/2000/svg">
<path d="M12 5H8C5.60879 6.38324 4 9.03893 4 12.0001C4 14.9612 5.60879 17.6168 8 19M12 5H16C18.3912 6.38324 20 9.03893 20 12.0001C20 14.9612 18.3912 17.6168 16 19M12 5V2M8 19H16M8 19V20.75C8 21.4404 8.55964 22 9.25 22H14.75C15.4404 22 16 21.4404 16 20.75V19M8.75 15C10.75 13.5 12.25 11 11.75 9M11.75 11.5C12.75 13 13.75 14 15.25 15" stroke="black" stroke-width="2" stroke-linecap="round" stroke-linejoin="round"/>
</svg>
