<svg width="24" height="24" viewBox="0 0 24 24" fill="none" xmlns="http://www.w3.org/2000/svg">
<path d="M8.5 4.9C6.4077 6.00659 5 8.13114 5 10.5C5 12.8689 6.4077 14.9934 8.5 16.1M8.5 4.9H12H15.5M8.5 4.9V3.5C8.5 2.67157 9.17157 2 10 2H14C14.8284 2 15.5 2.67157 15.5 3.5L15.5 4.9M15.5 4.9C17.5923 6.00659 19 8.13114 19 10.5C19 12.8689 17.5923 14.9934 15.5 16.1M8.5 16.1H15.5M8.5 16.1V17.75C8.5 18.4404 9.05964 19 9.75 19H12M15.5 16.1V17.75C15.5 18.4404 14.9404 19 14.25 19H12M12.875 4.9C14.625 6.5 15.5 8.9 15.5 10.5C15.5 12.1 14.625 14.5 12.875 16.1M11.125 4.9C9.375 6.5 8.5 8.9 8.5 10.5C8.5 12.1 9.375 14.5 11.125 16.1M12 19V22" stroke="black" stroke-width="2" stroke-linecap="round" stroke-linejoin="round"/>
</svg>
