<svg width="24" height="24" viewBox="0 0 24 24" fill="none" xmlns="http://www.w3.org/2000/svg">
<path d="M9.75 15.5H9.76M14.25 15.5H14.26M12 18L13.5 18.5M8.6822 12C7.06551 13.0749 6 14.913 6 17C6 18.5972 6.62409 20.0486 7.64171 21.1238C7.95376 21.4534 8.3028 21.7477 8.6822 22H15.3178C15.6972 21.7477 16.0462 21.4534 16.3583 21.1238C17.3759 20.0486 18 18.5972 18 17C18 14.913 16.9345 13.0749 15.3178 12M8.6822 12H15.3178M8.6822 12H7M15.3178 12H17M5 12H7M19 12H17M7 12V8.5M17 12V8.5M7 8.5V4C7 2.89543 7.89543 2 9 2H15C16.1046 2 17 2.89543 17 4V8.5M7 8.5H17" stroke="black" stroke-width="2" stroke-linecap="round" stroke-linejoin="round"/>
</svg>
