<svg width="24" height="24" viewBox="0 0 24 24" fill="none" xmlns="http://www.w3.org/2000/svg">
<path d="M14.9055 9.74918C14.1764 10.5195 13.1443 11 12 11C10.8557 11 9.82356 10.5195 9.09447 9.74918M14.9055 9.74918C15.5839 9.03243 16 8.0648 16 7C16 4.79086 14.2091 3 12 3C9.79086 3 8 4.79086 8 7C8 8.0648 8.41606 9.03243 9.09447 9.74918M14.9055 9.74918C16.7509 10.7725 18 12.7404 18 15C18 18.3137 15.3137 21 12 21C8.68629 21 6 18.3137 6 15C6 12.7404 7.2491 10.7725 9.09447 9.74918M12 14.25H12.01M12 17.75H12.01M10.5 6.5H10.51M13.5 6.5H13.51M12 8.5H12.01M17 11.5L19.5 9.3125M21 8L19.5 9.3125M19.5 9.3125L21 10M7 11.5L4.5 9.3125M4.5 9.3125L3 8M4.5 9.3125L3 10" stroke="black" stroke-width="2" stroke-linecap="round" stroke-linejoin="round"/>
</svg>
