<svg width="24" height="24" viewBox="0 0 24 24" fill="none" xmlns="http://www.w3.org/2000/svg">
<path d="M15.3067 8.25021C15.186 8.42724 15.0515 8.59409 14.9047 8.74918C14.1756 9.51947 13.1435 10 11.9992 10C10.8548 10 9.82274 9.51947 9.09366 8.74918C8.94685 8.59408 8.81234 8.42724 8.69166 8.25021M15.3067 8.25021C15.7437 7.60912 15.9992 6.83439 15.9992 6C15.9992 3.79086 14.2083 2 11.9992 2C9.79004 2 7.99918 3.79086 7.99918 6C7.99918 6.83439 8.25466 7.60912 8.69166 8.25021M15.3067 8.25021C15.8503 8.73009 16.2888 9.32635 16.5831 10M8.69166 8.25021C8.14803 8.73009 7.70956 9.32635 7.41523 10M10.4992 5.5H10.5092M13.4992 5.5H13.5092M11.9992 7.5H12.0092M11.9992 14H12.0092M11.9992 18H12.0092M16.5831 10C16.8507 10.6125 16.9992 11.2889 16.9992 12C16.9992 12.2116 16.986 12.4201 16.9605 12.6248C17.616 13.5864 17.9992 14.7485 17.9992 16C17.9992 19.3137 15.3129 22 11.9992 22C8.68547 22 5.99918 19.3137 5.99918 16C5.99918 14.7485 6.38238 13.5864 7.03784 12.6248C7.01232 12.4201 6.99918 12.2116 6.99918 12C6.99918 11.2889 7.14763 10.6125 7.41523 10M16.5831 10L18.2912 7M19.9992 4L18.2912 7M18.2912 7H19.9992M7.41523 10L5.70802 7M5.70802 7L4 4M5.70802 7H4" stroke="black" stroke-width="2" stroke-linecap="round" stroke-linejoin="round"/>
</svg>
