<svg width="24" height="24" viewBox="0 0 24 24" fill="none" xmlns="http://www.w3.org/2000/svg">
<path d="M6.77262 13.4094L8.44405 16.2879M6.77262 13.4094C6.36235 12.7029 5.45371 12.4608 4.7431 12.8687C4.0325 13.2767 3.78903 14.1801 4.1993 14.8867L6.61358 19.0445C8.25465 21.8708 11.8892 22.8391 14.7317 21.2074L15.198 20.9397C16.5204 20.1805 17.4689 18.9649 17.9035 17.5703M6.77262 13.4094L5.47263 11.1706C5.06236 10.4641 5.30583 9.56059 6.01643 9.15266C6.72704 8.74473 7.63568 8.98681 8.04595 9.69337M8.04595 9.69337L7.3031 8.41404C6.89283 7.70748 7.1363 6.80401 7.8469 6.39608C8.55751 5.98815 9.46615 6.23023 9.87642 6.93679L10.6193 8.21612M8.04595 9.69337L8.78881 10.9727M8.78881 10.9727C8.37854 10.2661 8.62201 9.36268 9.33261 8.95475C10.0432 8.54682 10.9519 8.7889 11.3621 9.49546M8.78881 10.9727L11.0174 14.8107M16.1547 11.7461L16.2072 11.7392C16.3221 11.7242 16.4356 11.7226 16.5461 11.7333M16.1547 11.7461L16.0728 11.7568C15.2663 11.8624 14.6951 12.5932 14.7914 13.3964L14.8802 14.1368C14.9281 14.5355 14.3917 14.713 14.1898 14.3652L11.3621 9.49546M16.1547 11.7461C16.1027 11.7158 16.0562 11.6705 16.0202 11.6086L13.1926 6.73888C12.7823 6.03232 11.8737 5.79024 11.1631 6.19817C10.4525 6.6061 10.209 7.50957 10.6193 8.21612M17.9035 17.5703C18.1455 16.7939 18.2282 15.962 18.1276 15.1226L17.8764 13.0289C17.7921 12.3261 17.2251 11.7988 16.5461 11.7333M17.9035 17.5703C19.4048 16.3034 20.1967 14.3559 19.958 12.366L19.7069 10.2723C19.6089 9.45518 18.8582 8.87523 18.0377 8.98264L17.9032 9.00024C17.0967 9.10581 16.5256 9.83665 16.6219 10.6398L16.7107 11.3802C16.7299 11.5399 16.6553 11.6641 16.5461 11.7333M11.3621 9.49546L10.6193 8.21612M17.8152 2.91856L18.3455 2M19.0746 5.68693L20 5.43897M14.788 3.21205L14.5292 2.24613" stroke="black" stroke-width="2" stroke-linecap="round" stroke-linejoin="round"/>
</svg>
