<svg width="24" height="24" viewBox="0 0 24 24" fill="none" xmlns="http://www.w3.org/2000/svg">
<path d="M6.18126 9.78485L6.1901 13.2626M6.18126 9.78485C6.17909 8.9312 5.46518 8.23747 4.5867 8.23535C3.70822 8.23324 2.99783 8.92354 3 9.7772L3.01278 14.8006C3.02146 18.2152 5.87709 20.9902 9.391 20.9986L9.96747 21C11.6024 21.004 13.1347 20.3995 14.2858 19.3647M6.18126 9.78485L6.17438 7.07992C6.17221 6.22627 6.8826 5.53596 7.76108 5.53808C8.63955 5.54019 9.35346 6.23393 9.35563 7.08758M15.7842 13.1811L15.8367 13.2023C15.9514 13.2487 16.0576 13.3066 16.1545 13.3739M15.7842 13.1811L15.7024 13.148C14.897 12.8222 13.9749 13.1851 13.6338 13.9621L13.3193 14.6785C13.15 15.0643 12.5568 14.9446 12.5558 14.5244L12.5408 8.64091M15.7842 13.1811C15.7522 13.1265 15.7333 13.0612 15.7331 12.9864L15.7181 7.1029C15.716 6.24925 15.0021 5.55551 14.1236 5.5534C13.2451 5.55128 12.5347 6.24159 12.5369 7.09524M9.35956 8.63326C9.35739 7.77961 10.0678 7.0893 10.9463 7.09141C11.8247 7.09353 12.5386 7.78726 12.5408 8.64091M9.35956 8.63326L9.37135 13.2703M9.35956 8.63326L9.35563 7.08758M9.35563 7.08758L9.3517 5.54191C9.34953 4.68825 10.0599 3.99795 10.9384 4.00006C11.8169 4.00218 12.5308 4.69591 12.533 5.54957L12.5369 7.09524M14.2858 19.3647C14.9267 18.7886 15.4495 18.0791 15.806 17.2669L16.6952 15.2413C16.9936 14.5613 16.7499 13.788 16.1545 13.3739M14.2858 19.3647C16.3588 19.0026 18.1382 17.6542 18.9833 15.7289L19.8725 13.7032C20.2195 12.9127 19.8335 11.9958 19.014 11.6643L18.8797 11.61C18.0743 11.2842 17.1522 11.6471 16.8111 12.4241L16.4966 13.1405C16.4288 13.295 16.293 13.3684 16.1545 13.3739M12.5408 8.64091L12.5369 7.09524M18 4.00006L19.014 3M20 7H21" stroke="black" stroke-width="2" stroke-linecap="round" stroke-linejoin="round"/>
</svg>
