<svg width="24" height="24" viewBox="0 0 24 24" fill="none" xmlns="http://www.w3.org/2000/svg">
<path d="M7.5544 8.625V10.1875M7.5544 8.625V6.375C7.5544 5.44302 8.35009 4.6875 9.33161 4.6875C10.3131 4.6875 11.1088 5.44302 11.1088 6.375M7.5544 8.625C7.5544 7.69302 6.75873 6.9375 5.77721 6.9375C4.79568 6.9375 4 7.69302 4 8.625V11.3125M7.5544 10.1875C7.5544 11.1195 8.35008 11.875 9.33161 11.875C10.3131 11.875 11.1088 11.1195 11.1088 10.1875M7.5544 10.1875V11.3202M11.1088 6.375L11.1088 10.1875M11.1088 6.375V4.6875C11.1088 3.75552 11.9045 3 12.886 3C13.8676 3 14.6632 3.75552 14.6632 4.6875V6.9375M11.1088 10.1875L11.1088 9.49296C11.1088 10.4249 11.9045 11.1805 12.886 11.1805C13.8676 11.1805 14.6632 10.4249 14.6632 9.49296M14.6632 6.9375V9.49296M14.6632 6.9375C14.6632 6.00552 15.4589 5.25 16.4405 5.25C17.422 5.25 18.2177 6.00552 18.2177 6.9375V9.5M14.6632 9.49296V9.5C14.6632 10.3797 15.3721 11.1021 16.277 11.1805M18.2177 9.5V11.1805M18.2177 9.5C18.2177 10.3797 17.5088 11.1021 16.6039 11.1805M4 11.3125V14.25C4 17.9779 7.18272 21 11.1088 21H12.7774C16.1093 21 18.9941 18.8027 19.7169 15.7143L19.9236 14.8305C20.3618 12.9572 18.8596 11.1805 16.8376 11.1805H16.6039M4 11.3125C4 12.2445 4.79568 13 5.77721 13C6.75603 13 7.55004 12.2486 7.5544 11.3202M15.8542 14.5H13.9152C12.9493 14.5 12.1662 13.7569 12.1662 12.8402C12.1662 11.9236 12.9493 11.1805 13.9152 11.1805H16.277M16.6039 11.1805H16.277M16.6039 11.1805C16.5501 11.1851 16.4955 11.1875 16.4405 11.1875C16.3854 11.1875 16.3308 11.1851 16.277 11.1805M7.5544 11.3202L7.55442 10.3125" stroke="black" stroke-width="2" stroke-linecap="round" stroke-linejoin="round"/>
</svg>
