<svg width="24" height="24" viewBox="0 0 24 24" fill="none" xmlns="http://www.w3.org/2000/svg">
<path d="M6.62326 8.625V9.1875M6.62326 8.625V6.375C6.62326 5.44302 7.37839 4.6875 8.30989 4.6875C9.24139 4.6875 9.99652 5.44302 9.99652 6.375M6.62326 8.625C6.62326 7.69302 5.86813 6.9375 4.93663 6.9375C4.00513 6.9375 3.25 7.69302 3.25 8.625V14.25C3.25 17.9779 6.27052 21 9.99652 21H13.58C16.7421 21 19.4799 18.8027 20.1659 15.7143L20.6694 13.4474C21.0052 11.9356 20.2695 10.3891 18.885 9.69654L16.743 8.625M9.99652 6.375V8.0625M9.99652 6.375V4.6875C9.99652 3.75552 10.7516 3 11.6831 3C12.6146 3 13.3698 3.75552 13.3698 4.6875V6.9375M13.3698 6.9375V8.625M13.3698 6.9375C13.3698 6.00552 14.1249 5.25 15.0564 5.25C15.9879 5.25 16.743 6.00552 16.743 6.9375V8.625M16.743 8.625V13.125" stroke="black" stroke-width="2" stroke-linecap="round" stroke-linejoin="round"/>
</svg>
