<svg width="24" height="24" viewBox="0 0 24 24" fill="none" xmlns="http://www.w3.org/2000/svg">
<path d="M5.50483 17.2519L4.09954 13.8507C3.8303 13.1991 4.1263 12.445 4.75774 12.1737C5.99902 11.6404 7.42299 12.2416 7.95224 13.5226L8.46977 14.7751C8.67627 15.2748 9.3949 15.1219 9.3949 14.5781V3.75C9.3949 2.7835 10.1503 2 11.0821 2C12.0139 2 12.7692 2.7835 12.7692 3.75V9C12.7692 9.55228 13.2009 10 13.7333 10H16.7946C18.1331 10 19.3214 10.8884 19.7447 12.2055C19.9138 12.7317 20 13.2828 20 13.8375V14.2566C20 18.5332 16.6051 22 12.4821 22C9.4607 22 6.69501 20.1324 5.50483 17.2519Z" stroke="black" stroke-width="2" stroke-linecap="round" stroke-linejoin="round"/>
</svg>
