<svg width="24" height="24" viewBox="0 0 24 24" fill="none" xmlns="http://www.w3.org/2000/svg">
<path d="M6.1192 11.3356L7.99955 14.5739M6.1192 11.3356C5.65765 10.5407 4.63542 10.2684 3.83599 10.7273C3.03656 11.1862 2.76266 12.2027 3.22421 12.9975L5.94027 17.6751C7.78648 20.8546 11.8754 21.944 15.0731 20.1083L15.5977 19.8071C17.0855 18.9531 18.1525 17.5855 18.6415 16.0166M6.1192 11.3356L4.6567 8.81694C4.19515 8.02206 4.46906 7.00566 5.26849 6.54673C6.06792 6.08781 7.09014 6.36016 7.5517 7.15503M7.5517 7.15503L6.71598 5.71578C6.25443 4.92091 6.52834 3.9045 7.32777 3.44558C8.1272 2.98666 9.14942 3.25901 9.61098 4.05388L10.4467 5.49313M7.5517 7.15503L8.38741 8.59428M8.38741 8.59428C7.92586 7.79941 8.19976 6.783 8.99919 6.32408C9.79862 5.86516 10.8208 6.13751 11.2824 6.93238M8.38741 8.59428L10.8945 12.912M16.674 9.46435L16.7331 9.45661C16.8623 9.4397 16.99 9.43793 17.1143 9.44993M16.674 9.46435L16.5819 9.47641C15.6745 9.59518 15.032 10.4174 15.1404 11.3209L15.2403 12.1538C15.2941 12.6025 14.6907 12.8021 14.4635 12.4108L11.2824 6.93238M16.674 9.46435C16.6156 9.43022 16.5632 9.37929 16.5228 9.30964L13.3417 3.83123C12.8801 3.03635 11.8579 2.76401 11.0585 3.22293C10.259 3.68185 9.98514 4.69826 10.4467 5.49313M18.6415 16.0166C18.9137 15.1431 19.0068 14.2072 18.8935 13.2629L18.611 10.9075C18.5161 10.1169 17.8783 9.52364 17.1143 9.44993M18.6415 16.0166C20.3303 14.5914 21.2213 12.4004 20.9528 10.1617L20.6702 7.80633C20.56 6.88707 19.7155 6.23462 18.7924 6.35546L18.6411 6.37526C17.7338 6.49403 17.0913 7.31623 17.1996 8.21976L17.2996 9.0527C17.3211 9.23238 17.2372 9.3721 17.1143 9.44993M11.2824 6.93238L10.4467 5.49313" stroke="black" stroke-width="2" stroke-linecap="round" stroke-linejoin="round"/>
</svg>
