<svg width="24" height="24" viewBox="0 0 24 24" fill="none" xmlns="http://www.w3.org/2000/svg">
<path d="M6.74815 5.50483L10.1493 4.09954C10.8009 3.8303 11.555 4.1263 11.8263 4.75774C12.3596 5.99903 11.7584 7.42299 10.4774 7.95224L9.22491 8.46977C8.72515 8.67627 8.87815 9.3949 9.42187 9.3949H20.25C21.2165 9.3949 22 10.1503 22 11.0821C22 12.0139 21.2165 12.7692 20.25 12.7692H15C14.4477 12.7692 14 13.2009 14 13.7333V16.7946C14 18.1331 13.1116 19.3214 11.7945 19.7447C11.2683 19.9138 10.7172 20 10.1625 20L9.74342 20C5.46685 20 2 16.6051 2 12.4821C2 9.4607 3.86765 6.69501 6.74815 5.50483Z" stroke="black" stroke-width="2" stroke-linecap="round" stroke-linejoin="round"/>
</svg>
