<svg width="24" height="24" viewBox="0 0 24 24" fill="none" xmlns="http://www.w3.org/2000/svg">
<path d="M17.3767 8.625V9.1875M17.3767 8.625V6.375C17.3767 5.44302 16.6216 4.6875 15.6901 4.6875C14.7586 4.6875 14.0035 5.44302 14.0035 6.375M17.3767 8.625C17.3767 7.69302 18.1319 6.9375 19.0634 6.9375C19.9949 6.9375 20.75 7.69302 20.75 8.625V14.25C20.75 17.9779 17.7295 21 14.0035 21H10.42C7.25791 21 4.52008 18.8027 3.83413 15.7143L3.33063 13.4474C2.99485 11.9356 3.73053 10.3891 5.11499 9.69654L7.25697 8.625M14.0035 6.375V8.0625M14.0035 6.375V4.6875C14.0035 3.75552 13.2484 3 12.3169 3C11.3854 3 10.6302 3.75552 10.6302 4.6875V6.9375M10.6302 6.9375V8.625M10.6302 6.9375C10.6302 6.00552 9.87509 5.25 8.94359 5.25C8.01209 5.25 7.25697 6.00552 7.25697 6.9375V8.625M7.25697 8.625V13.125" stroke="black" stroke-width="2" stroke-linecap="round" stroke-linejoin="round"/>
</svg>
