<svg width="24" height="24" viewBox="0 0 24 24" fill="none" xmlns="http://www.w3.org/2000/svg">
<path fill-rule="evenodd" clip-rule="evenodd" d="M13.4991 1C12.2691 1 11.2466 1.88823 11.038 3.05823C10.8644 3.0201 10.6841 3 10.4991 3C9.11834 3 7.99905 4.11929 7.99905 5.5V14.0727L7.50702 12.9246C6.85997 11.4148 5.11908 10.7061 3.60153 11.3347L3.55158 11.3554C2.52228 11.7818 2.03979 12.967 2.47866 13.991L4.00191 17.5453C5.42012 20.8544 8.67397 23 12.2742 23H12.9991C14.0288 23 15.0182 22.8271 15.9397 22.5086L15.5374 21.4626L14.3876 21.0204C14.3006 20.9869 14.2176 20.9492 14.1387 20.9077C13.7678 20.9684 13.3871 21 12.9991 21H12.2742C9.47402 21 6.94325 19.3312 5.8402 16.7574L4.31695 13.2032L4.3669 13.1825C4.87275 12.9729 5.45304 13.2092 5.66873 13.7124L6.16076 14.8605C7.01749 16.8596 9.99905 16.2476 9.99905 14.0727V5.5C9.99905 5.22386 10.2229 5 10.4991 5C10.7752 5 10.9991 5.22386 10.9991 5.5V12C10.9991 12.5523 11.4468 13 11.9991 13C12.5513 13 12.9991 12.5523 12.9991 12V5.5V3.5C12.9991 3.22386 13.2229 3 13.4991 3C13.7752 3 13.9991 3.22386 13.9991 3.5V5V12C13.9991 12.5523 14.4468 13 14.9991 13C15.5513 13 15.9991 12.5523 15.9991 12V5C15.9991 4.72386 16.2229 4.5 16.4991 4.5C16.7752 4.5 16.9991 4.72386 16.9991 5V7V12C16.9991 12.5523 17.4468 13 17.9991 13C18.5513 13 18.9991 12.5523 18.9991 12V7C18.9991 6.72386 19.2229 6.5 19.4991 6.5C19.7752 6.5 19.9991 6.72386 19.9991 7V13V14C19.9991 14.3873 19.9676 14.7673 19.9071 15.1376C19.9489 15.2168 19.9868 15.3001 20.0204 15.3876L20.4626 16.5374L21.5081 16.9395C21.8263 16.0183 21.9991 15.0293 21.9991 14V13V7C21.9991 5.61929 20.8798 4.5 19.4991 4.5C19.314 4.5 19.1337 4.5201 18.9601 4.55823C18.7515 3.38823 17.729 2.5 16.4991 2.5C16.2668 2.5 16.042 2.53167 15.8286 2.59091C15.465 1.65969 14.559 1 13.4991 1Z" fill="black"/>
<path d="M17.8463 16.1056C17.9004 15.9648 18.0996 15.9648 18.1537 16.1056L18.8888 18.0166C18.9055 18.0601 18.9399 18.0945 18.9834 18.1112L20.8944 18.8463C21.0352 18.9004 21.0352 19.0996 20.8944 19.1537L18.9834 19.8888C18.9399 19.9055 18.9055 19.9399 18.8888 19.9834L18.1537 21.8944C18.0996 22.0352 17.9004 22.0352 17.8463 21.8944L17.1112 19.9834C17.0945 19.9399 17.0601 19.9055 17.0166 19.8888L15.1056 19.1537C14.9648 19.0996 14.9648 18.9004 15.1056 18.8463L17.0166 18.1112C17.0601 18.0945 17.0945 18.0601 17.1112 18.0166L17.8463 16.1056Z" fill="black"/>
<path d="M13.4231 14.0528C13.4502 13.9824 13.5498 13.9824 13.5769 14.0528L13.9444 15.0083C13.9527 15.0301 13.9699 15.0473 13.9917 15.0556L14.9472 15.4231C15.0176 15.4502 15.0176 15.5498 14.9472 15.5769L13.9917 15.9444C13.9699 15.9527 13.9527 15.9699 13.9444 15.9917L13.5769 16.9472C13.5498 17.0176 13.4502 17.0176 13.4231 16.9472L13.0556 15.9917C13.0473 15.9699 13.0301 15.9527 13.0083 15.9444L12.0528 15.5769C11.9824 15.5498 11.9824 15.4502 12.0528 15.4231L13.0083 15.0556C13.0301 15.0473 13.0473 15.0301 13.0556 15.0083L13.4231 14.0528Z" fill="black"/>
</svg>
