<svg width="24" height="24" viewBox="0 0 24 24" fill="none" xmlns="http://www.w3.org/2000/svg">
<path d="M13 8.79762H20.25C21.2165 8.79762 22 9.55993 22 10.5003C22 11.4406 21.2165 12.2029 20.25 12.2029H15C14.4477 12.2029 14 12.6385 14 13.1759V16.2652C14 17.6159 13.1116 18.8152 11.7945 19.2423C11.2683 19.413 10.7172 19.5 10.1625 19.5H9.74342C5.46685 19.5 2 16.074 2 11.9131C2 8.86403 3.86765 6.07297 6.74815 4.87187L6.90436 4.80674C8.86176 3.99055 11.1103 4.85558 12.0326 6.77961L13 8.79762ZM13 8.79762H9.42187" stroke="black" stroke-width="2" stroke-linecap="round" stroke-linejoin="round"/>
</svg>
