<svg width="24" height="24" viewBox="0 0 24 24" fill="none" xmlns="http://www.w3.org/2000/svg">
<path d="M5.50483 6.74815L4.09954 10.1493C3.8303 10.8009 4.1263 11.555 4.75774 11.8263C5.99902 12.3596 7.42299 11.7584 7.95224 10.4774L8.46977 9.22491C8.67627 8.72515 9.3949 8.87815 9.3949 9.42187V20.25C9.3949 21.2165 10.1503 22 11.0821 22C12.0139 22 12.7692 21.2165 12.7692 20.25V15C12.7692 14.4477 13.2009 14 13.7333 14H16.7946C18.1331 14 19.3214 13.1116 19.7447 11.7945C19.9138 11.2683 20 10.7172 20 10.1625V9.74342C20 5.46685 16.6051 2 12.4821 2C9.4607 2 6.69501 3.86765 5.50483 6.74815Z" stroke="black" stroke-width="2" stroke-linecap="round" stroke-linejoin="round"/>
</svg>
