<svg width="24" height="24" viewBox="0 0 24 24" fill="none" xmlns="http://www.w3.org/2000/svg">
<path d="M11 8.79762H3.75C2.7835 8.79762 2 9.55993 2 10.5003C2 11.4406 2.7835 12.2029 3.75 12.2029H9C9.55228 12.2029 10 12.6385 10 13.1759V16.2652C10 17.6159 10.8884 18.8152 12.2055 19.2423C12.7317 19.413 13.2828 19.5 13.8375 19.5H14.2566C18.5332 19.5 22 16.074 22 11.9131C22 8.86403 20.1324 6.07297 17.2519 4.87187L17.0956 4.80674C15.1382 3.99055 12.8897 4.85558 11.9674 6.77961L11 8.79762ZM11 8.79762H14.5781" stroke="black" stroke-width="2" stroke-linecap="round" stroke-linejoin="round"/>
</svg>
