<svg width="24" height="24" viewBox="0 0 24 24" fill="none" xmlns="http://www.w3.org/2000/svg">
<path d="M16.4456 8.625V10.1875M16.4456 8.625V6.375C16.4456 5.44302 15.6499 4.6875 14.6684 4.6875C13.6869 4.6875 12.8912 5.44302 12.8912 6.375M16.4456 8.625C16.4456 7.69302 17.2413 6.9375 18.2228 6.9375C19.2043 6.9375 20 7.69302 20 8.625V11.3125M16.4456 10.1875C16.4456 11.1195 15.6499 11.875 14.6684 11.875C13.6869 11.875 12.8912 11.1195 12.8912 10.1875M16.4456 10.1875V11.3202M12.8912 6.375L12.8912 10.1875M12.8912 6.375V4.6875C12.8912 3.75552 12.0955 3 11.114 3C10.1324 3 9.33676 3.75552 9.33676 4.6875V6.9375M12.8912 10.1875L12.8912 9.49296C12.8912 10.4249 12.0955 11.1805 11.114 11.1805C10.1324 11.1805 9.33676 10.4249 9.33676 9.49296M9.33676 6.9375V9.49296M9.33676 6.9375C9.33676 6.00552 8.54108 5.25 7.55955 5.25C6.57802 5.25 5.78234 6.00552 5.78234 6.9375V9.5M9.33676 9.49296V9.5C9.33676 10.3797 8.6279 11.1021 7.72298 11.1805M5.78234 9.5V11.1805M5.78234 9.5C5.78234 10.3797 6.4912 11.1021 7.39612 11.1805M20 11.3125V14.25C20 17.9779 16.8173 21 12.8912 21H11.2226C7.89074 21 5.00588 18.8027 4.28309 15.7143L4.07639 14.8305C3.63823 12.9572 5.14039 11.1805 7.1624 11.1805H7.39612M20 11.3125C20 12.2445 19.2043 13 18.2228 13C17.244 13 16.45 12.2486 16.4456 11.3202M8.14579 14.5H10.0848C11.0507 14.5 11.8338 13.7569 11.8338 12.8402C11.8338 11.9236 11.0507 11.1805 10.0848 11.1805H7.72298M7.39612 11.1805H7.72298M7.39612 11.1805C7.44994 11.1851 7.50445 11.1875 7.55955 11.1875C7.61465 11.1875 7.66916 11.1851 7.72298 11.1805M16.4456 11.3202L16.4456 10.3125" stroke="black" stroke-width="2" stroke-linecap="round" stroke-linejoin="round"/>
</svg>
