<svg width="24" height="24" viewBox="0 0 24 24" fill="none" xmlns="http://www.w3.org/2000/svg">
<path d="M8 14C11 13 12.5 15 12 17M21 13V14C21 18.4183 17.4183 22 13 22H12.2752C9.07494 22 6.18264 20.0928 4.92201 17.1514L3.39875 13.5971C3.17932 13.0851 3.42056 12.4925 3.93521 12.2793L3.98516 12.2586C4.99687 11.8395 6.16046 12.319 6.59182 13.3255V13.3255C7.12728 14.5749 9 14.214 9 12.8547V5.5C9 4.67157 9.67157 4 10.5 4V4C11.3284 4 12 4.67157 12 5.5V11V3.5C12 2.67157 12.6716 2 13.5 2V2C14.3284 2 15 2.67157 15 3.5V11V5C15 4.17157 15.6716 3.5 16.5 3.5V3.5C17.3284 3.5 18 4.17157 18 5V11V7C18 6.17157 18.6716 5.5 19.5 5.5V5.5C20.3284 5.5 21 6.17157 21 7V13Z" stroke="black" stroke-width="2" stroke-linecap="round" stroke-linejoin="round"/>
</svg>
