<svg width="24" height="24" viewBox="0 0 24 24" fill="none" xmlns="http://www.w3.org/2000/svg">
<path d="M15.2024 13V20.25C15.2024 21.2165 14.4401 22 13.4997 22C12.5594 22 11.7971 21.2165 11.7971 20.25V15C11.7971 14.4477 11.3615 14 10.8241 14H7.73484C6.38406 14 5.18482 13.1116 4.75767 11.7945C4.58701 11.2683 4.5 10.7172 4.5 10.1625V9.74342C4.5 5.46685 7.92601 2 12.0869 2C15.136 2 17.927 3.86765 19.1281 6.74815L19.1933 6.90436C20.0095 8.86176 19.1444 11.1103 17.2204 12.0326L15.2024 13ZM15.2024 13V9.42187" stroke="black" stroke-width="2" stroke-linecap="round" stroke-linejoin="round"/>
</svg>
