<svg width="24" height="24" viewBox="0 0 24 24" fill="none" xmlns="http://www.w3.org/2000/svg">
<path d="M18.4952 17.2519L19.9005 13.8507C20.1697 13.1991 19.8737 12.445 19.2423 12.1737C18.001 11.6404 16.577 12.2416 16.0478 13.5226L15.5302 14.7751C15.3237 15.2748 14.6051 15.1219 14.6051 14.5781V3.75C14.6051 2.7835 13.8497 2 12.9179 2C11.9861 2 11.2308 2.7835 11.2308 3.75V9C11.2308 9.55228 10.7991 10 10.2667 10H7.20544C5.86693 10 4.6786 10.8884 4.25533 12.2055C4.08621 12.7317 4 13.2828 4 13.8375V14.2566C4 18.5332 7.39487 22 11.5179 22C14.5393 22 17.305 20.1324 18.4952 17.2519Z" stroke="black" stroke-width="2" stroke-linecap="round" stroke-linejoin="round"/>
</svg>
