<svg width="24" height="24" viewBox="0 0 24 24" fill="none" xmlns="http://www.w3.org/2000/svg">
<path d="M18.4952 6.74815L19.9005 10.1493C20.1697 10.8009 19.8737 11.555 19.2423 11.8263C18.001 12.3596 16.577 11.7584 16.0478 10.4774L15.5302 9.22491C15.3237 8.72515 14.6051 8.87815 14.6051 9.42187V20.25C14.6051 21.2165 13.8497 22 12.9179 22C11.9861 22 11.2308 21.2165 11.2308 20.25V15C11.2308 14.4477 10.7991 14 10.2667 14H7.20544C5.86693 14 4.6786 13.1116 4.25533 11.7945C4.08621 11.2683 4 10.7172 4 10.1625V9.74342C4 5.46685 7.39487 2 11.5179 2C14.5393 2 17.305 3.86765 18.4952 6.74815Z" stroke="black" stroke-width="2" stroke-linecap="round" stroke-linejoin="round"/>
</svg>
