<svg width="24" height="24" viewBox="0 0 24 24" fill="none" xmlns="http://www.w3.org/2000/svg">
<path fill-rule="evenodd" clip-rule="evenodd" d="M10 3.5C10 3.22386 10.2239 3 10.5 3C10.7761 3 11 3.22386 11 3.5V5.5V12C11 12.5523 11.4477 13 12 13C12.5523 13 13 12.5523 13 12V5.5C13 5.22386 13.2239 5 13.5 5C13.7761 5 14 5.22386 14 5.5V14.0727C14 16.2476 16.9816 16.8596 17.8383 14.8605L18.3303 13.7124C18.546 13.2092 19.1263 12.9729 19.6322 13.1825L19.6821 13.2032L18.1588 16.7574C17.0558 19.3312 14.525 21 11.7248 21H11C10.6122 21 10.2317 20.9685 9.86106 20.9078C9.78225 20.9493 9.69936 20.987 9.61238 21.0204L8.46263 21.4626L8.06021 22.5089C8.98148 22.8272 9.97056 23 11 23H11.7248C15.3251 23 18.5789 20.8544 19.9971 17.5453L21.5204 13.991C21.9593 12.967 21.4768 11.7818 20.4475 11.3554L20.3975 11.3347C18.88 10.7061 17.1391 11.4148 16.492 12.9246L16 14.0727V5.5C16 4.11929 14.8807 3 13.5 3C13.315 3 13.1347 3.0201 12.9611 3.05823C12.7525 1.88823 11.73 1 10.5 1C9.44001 1 8.53409 1.65969 8.17043 2.59091C7.95707 2.53167 7.73223 2.5 7.5 2.5C6.27003 2.5 5.24752 3.38823 5.03891 4.55823C4.86534 4.5201 4.68502 4.5 4.5 4.5C3.11929 4.5 2 5.61929 2 7V13V14C2 15.0294 2.17284 16.0185 2.49108 16.9398L3.53737 16.5374L3.97958 15.3876C4.01304 15.3006 4.05071 15.2177 4.09219 15.1389C4.03154 14.7683 4 14.3878 4 14V13V7C4 6.72386 4.22386 6.5 4.5 6.5C4.77614 6.5 5 6.72386 5 7V12C5 12.5523 5.44772 13 6 13C6.55228 13 7 12.5523 7 12V7V5C7 4.72386 7.22386 4.5 7.5 4.5C7.77614 4.5 8 4.72386 8 5V12C8 12.5523 8.44772 13 9 13C9.55228 13 10 12.5523 10 12V5V3.5Z" fill="black"/>
<path d="M5.84627 16.1056C5.90042 15.9648 6.09958 15.9648 6.15373 16.1056L6.88875 18.0166C6.90548 18.0601 6.93986 18.0945 6.98335 18.1112L8.89442 18.8463C9.03519 18.9004 9.03519 19.0996 8.89442 19.1537L6.98335 19.8888C6.93986 19.9055 6.90548 19.9399 6.88875 19.9834L6.15373 21.8944C6.09958 22.0352 5.90042 22.0352 5.84627 21.8944L5.11125 19.9834C5.09452 19.9399 5.06014 19.9055 5.01665 19.8888L3.10558 19.1537C2.96481 19.0996 2.96481 18.9004 3.10558 18.8463L5.01665 18.1112C5.06014 18.0945 5.09452 18.0601 5.11125 18.0166L5.84627 16.1056Z" fill="black"/>
<path d="M10.4231 14.0528C10.4502 13.9824 10.5498 13.9824 10.5769 14.0528L10.9444 15.0083C10.9527 15.0301 10.9699 15.0473 10.9917 15.0556L11.9472 15.4231C12.0176 15.4502 12.0176 15.5498 11.9472 15.5769L10.9917 15.9444C10.9699 15.9527 10.9527 15.9699 10.9444 15.9917L10.5769 16.9472C10.5498 17.0176 10.4502 17.0176 10.4231 16.9472L10.0556 15.9917C10.0473 15.9699 10.0301 15.9527 10.0083 15.9444L9.05279 15.5769C8.9824 15.5498 8.9824 15.4502 9.05279 15.4231L10.0083 15.0556C10.0301 15.0473 10.0473 15.0301 10.0556 15.0083L10.4231 14.0528Z" fill="black"/>
</svg>
