<svg width="24" height="24" viewBox="0 0 24 24" fill="none" xmlns="http://www.w3.org/2000/svg">
<path fill-rule="evenodd" clip-rule="evenodd" d="M13.4991 1C12.2691 1 11.2466 1.88823 11.038 3.05823C10.8644 3.0201 10.6841 3 10.4991 3C9.11834 3 7.99905 4.11929 7.99905 5.5V12.8547C7.99905 12.9011 7.99254 12.9343 7.98378 12.9585C7.88418 12.9867 7.78384 13.0176 7.68282 13.0513C7.66489 13.0573 7.64724 13.0637 7.62988 13.0706L7.62638 13.069C7.59384 13.0533 7.54878 13.022 7.51002 12.9316C6.86491 11.4264 5.12363 10.7042 3.60153 11.3347L3.55158 11.3554C2.52228 11.7818 2.03979 12.967 2.47866 13.991L4.00191 17.5453C5.42012 20.8544 8.67397 23 12.2742 23H12.9991C14.0288 23 15.0182 22.8271 15.9397 22.5086L15.5374 21.4626L14.3876 21.0204C14.3006 20.9869 14.2176 20.9492 14.1387 20.9077C13.7678 20.9684 13.3871 21 12.9991 21H12.2742C9.47402 21 6.94325 19.3312 5.8402 16.7574L4.31695 13.2032L4.3669 13.1825C4.86821 12.9748 5.4541 13.2116 5.67173 13.7194C6.26323 15.0996 7.83459 15.3952 8.91159 14.7911C9.80966 14.6214 10.3511 14.8533 10.6389 15.1149C11.0084 15.4509 11.2055 16.051 11.0289 16.7575C10.895 17.2933 11.2207 17.8362 11.7565 17.9701C12.2923 18.1041 12.8352 17.7783 12.9692 17.2425C13.2926 15.949 12.9897 14.5491 11.9842 13.6351C11.4466 13.1463 10.7703 12.8507 9.99905 12.7627V5.5C9.99905 5.22386 10.2229 5 10.4991 5C10.7752 5 10.9991 5.22386 10.9991 5.5V11C10.9991 11.5523 11.4468 12 11.9991 12C12.5513 12 12.9991 11.5523 12.9991 11V5.5V3.5C12.9991 3.22386 13.2229 3 13.4991 3C13.7752 3 13.9991 3.22386 13.9991 3.5V5V11C13.9991 11.5523 14.4468 12 14.9991 12C15.5513 12 15.9991 11.5523 15.9991 11V5C15.9991 4.72386 16.2229 4.5 16.4991 4.5C16.7752 4.5 16.9991 4.72386 16.9991 5V7V11C16.9991 11.5523 17.4468 12 17.9991 12C18.5513 12 18.9991 11.5523 18.9991 11V7C18.9991 6.72386 19.2229 6.5 19.4991 6.5C19.7752 6.5 19.9991 6.72386 19.9991 7V13V14C19.9991 14.3873 19.9676 14.7673 19.9071 15.1376C19.9489 15.2168 19.9868 15.3001 20.0204 15.3876L20.4626 16.5374L21.5081 16.9395C21.8263 16.0183 21.9991 15.0293 21.9991 14V13V7C21.9991 5.61929 20.8798 4.5 19.4991 4.5C19.314 4.5 19.1337 4.5201 18.9601 4.55823C18.7515 3.38823 17.729 2.5 16.4991 2.5C16.2668 2.5 16.042 2.53167 15.8286 2.59091C15.465 1.65969 14.559 1 13.4991 1Z" fill="black"/>
<path d="M15.4231 13.0528C15.4502 12.9824 15.5498 12.9824 15.5769 13.0528L15.9444 14.0083C15.9527 14.0301 15.9699 14.0473 15.9917 14.0556L16.9472 14.4231C17.0176 14.4502 17.0176 14.5498 16.9472 14.5769L15.9917 14.9444C15.9699 14.9527 15.9527 14.9699 15.9444 14.9917L15.5769 15.9472C15.5498 16.0176 15.4502 16.0176 15.4231 15.9472L15.0556 14.9917C15.0473 14.9699 15.0301 14.9527 15.0083 14.9444L14.0528 14.5769C13.9824 14.5498 13.9824 14.4502 14.0528 14.4231L15.0083 14.0556C15.0301 14.0473 15.0473 14.0301 15.0556 14.0083L15.4231 13.0528Z" fill="black"/>
<path d="M17.8463 16.1056C17.9004 15.9648 18.0996 15.9648 18.1537 16.1056L18.8888 18.0166C18.9055 18.0601 18.9399 18.0945 18.9834 18.1112L20.8944 18.8463C21.0352 18.9004 21.0352 19.0996 20.8944 19.1537L18.9834 19.8888C18.9399 19.9055 18.9055 19.9399 18.8888 19.9834L18.1537 21.8944C18.0996 22.0352 17.9004 22.0352 17.8463 21.8944L17.1112 19.9834C17.0945 19.9399 17.0601 19.9055 17.0166 19.8888L15.1056 19.1537C14.9648 19.0996 14.9648 18.9004 15.1056 18.8463L17.0166 18.1112C17.0601 18.0945 17.0945 18.0601 17.1112 18.0166L17.8463 16.1056Z" fill="black"/>
</svg>
