<svg width="24" height="24" viewBox="0 0 24 24" fill="none" xmlns="http://www.w3.org/2000/svg">
<path d="M6.36839 9.12508L6.37775 12.8074M6.36839 9.12508C6.36609 8.22121 5.61019 7.48667 4.68004 7.48443C3.74988 7.48219 2.99771 8.2131 3.00001 9.11697L3.01353 14.4359C3.02272 18.0514 6.04633 20.9896 9.76694 20.9985L10.3773 21C12.1084 21.0041 13.7308 20.3641 14.9497 19.2685M6.36839 9.12508L6.36111 6.26103C6.35881 5.35717 7.11099 4.62625 8.04114 4.62849C8.97129 4.63073 9.7272 5.36528 9.72949 6.26914M16.5362 12.7211L16.5918 12.7436C16.7132 12.7927 16.8257 12.854 16.9283 12.9253M16.5362 12.7211L16.4496 12.686C15.5968 12.3411 14.6204 12.7253 14.2593 13.5481L13.9263 14.3066C13.747 14.7151 13.119 14.5884 13.1179 14.1434L13.102 7.91385M16.5362 12.7211C16.5024 12.6633 16.4823 12.5942 16.4821 12.515L16.4663 6.28536C16.464 5.38149 15.7081 4.64695 14.7779 4.64471C13.8478 4.64247 13.0956 5.37339 13.0979 6.27725M9.73365 7.90574C9.73135 7.00187 10.4835 6.27096 11.4137 6.2732C12.3438 6.27544 13.0997 7.00998 13.102 7.91385M9.73365 7.90574L9.74614 12.8155M9.73365 7.90574L9.72949 6.26914M9.72949 6.26914L9.72533 4.63255C9.72303 3.72868 10.4752 2.99777 11.4054 3.00001C12.3355 3.00224 13.0914 3.73679 13.0937 4.64066L13.0979 6.27725M14.9497 19.2685C15.6283 18.6585 16.1818 17.9072 16.5593 17.0472L17.5008 14.9024C17.8168 14.1825 17.5587 13.3637 16.9283 12.9253M14.9497 19.2685C17.1447 18.8851 19.0287 17.4573 19.9235 15.4188L20.865 13.274C21.2324 12.4369 20.8237 11.466 19.956 11.1151L19.8138 11.0576C18.961 10.7126 17.9847 11.0969 17.6235 11.9196L17.2906 12.6781C17.2187 12.8417 17.0749 12.9194 16.9283 12.9253M13.102 7.91385L13.0979 6.27725" stroke="black" stroke-width="2" stroke-linecap="round" stroke-linejoin="round"/>
</svg>
