<svg width="24" height="24" viewBox="0 0 24 24" fill="none" xmlns="http://www.w3.org/2000/svg">
<path d="M17.2519 5.50483L13.8507 4.09954C13.1991 3.8303 12.445 4.1263 12.1737 4.75774C11.6404 5.99903 12.2416 7.42299 13.5226 7.95224L14.7751 8.46977C15.2748 8.67627 15.1219 9.3949 14.5781 9.3949H3.75C2.7835 9.3949 2 10.1503 2 11.0821C2 12.0139 2.7835 12.7692 3.75 12.7692H9C9.55228 12.7692 10 13.2009 10 13.7333V16.7946C10 18.1331 10.8884 19.3214 12.2055 19.7447C12.7317 19.9138 13.2828 20 13.8375 20L14.2566 20C18.5332 20 22 16.6051 22 12.4821C22 9.4607 20.1324 6.69501 17.2519 5.50483Z" stroke="black" stroke-width="2" stroke-linecap="round" stroke-linejoin="round"/>
</svg>
