<svg width="24" height="24" viewBox="0 0 24 24" fill="none" xmlns="http://www.w3.org/2000/svg">
<path d="M3 13V14C3 18.4183 6.58172 22 11 22H11.7248C14.9251 22 17.8174 20.0928 19.078 17.1514L20.6012 13.5971C20.8207 13.0851 20.5794 12.4925 20.0648 12.2793L20.0148 12.2586C19.0031 11.8395 17.8425 12.312 17.4112 13.3185L16.9191 14.4666C16.4908 15.4661 15 15.1601 15 14.0727V5.5C15 4.67157 14.3284 4 13.5 4V4C12.6716 4 12 4.67157 12 5.5V12V3.5C12 2.67157 11.3284 2 10.5 2V2C9.67157 2 9 2.67157 9 3.5V12V5C9 4.17157 8.32843 3.5 7.5 3.5V3.5C6.67157 3.5 6 4.17157 6 5V12V7C6 6.17157 5.32843 5.5 4.5 5.5V5.5C3.67157 5.5 3 6.17157 3 7V13Z" stroke="black" stroke-width="2" stroke-linecap="round" stroke-linejoin="round"/>
</svg>
