<svg width="24" height="24" viewBox="0 0 24 24" fill="none" xmlns="http://www.w3.org/2000/svg">
<path fill-rule="evenodd" clip-rule="evenodd" d="M10 3.5C10 3.22386 10.2239 3 10.5 3C10.7761 3 11 3.22386 11 3.5V5.5V11C11 11.5523 11.4477 12 12 12C12.5523 12 13 11.5523 13 11V5.5C13 5.22386 13.2239 5 13.5 5C13.7761 5 14 5.22386 14 5.5V12.7627C13.2287 12.8507 12.5525 13.1463 12.0148 13.6351C11.0094 14.5491 10.7065 15.949 11.0299 17.2425C11.1638 17.7783 11.7067 18.1041 12.2425 17.9701C12.7783 17.8362 13.1041 17.2933 12.9701 16.7575C12.7935 16.051 12.9906 15.4509 13.3602 15.1149C13.6479 14.8533 14.1894 14.6214 15.0875 14.7911C16.1645 15.3952 17.7358 15.0996 18.3273 13.7194C18.5449 13.2116 19.1308 12.9748 19.6322 13.1825L19.6821 13.2032L18.1588 16.7574C17.0558 19.3312 14.525 21 11.7248 21H11C10.6122 21 10.2317 20.9685 9.86106 20.9078C9.78225 20.9493 9.69936 20.987 9.61238 21.0204L8.46263 21.4626L8.06021 22.5089C8.98148 22.8272 9.97056 23 11 23H11.7248C15.3251 23 18.5789 20.8544 19.9971 17.5453L21.5204 13.991C21.9593 12.967 21.4768 11.7818 20.4475 11.3554L20.3975 11.3347C18.8754 10.7042 17.1341 11.4264 16.489 12.9316C16.4503 13.022 16.4052 13.0533 16.3727 13.069L16.3692 13.0706C16.3518 13.0637 16.3342 13.0573 16.3162 13.0513C16.2152 13.0176 16.1149 12.9867 16.0153 12.9585C16.0065 12.9343 16 12.9011 16 12.8547V5.5C16 4.11929 14.8807 3 13.5 3C13.315 3 13.1347 3.0201 12.9611 3.05823C12.7525 1.88823 11.73 1 10.5 1C9.44001 1 8.53409 1.65969 8.17043 2.59091C7.95707 2.53167 7.73223 2.5 7.5 2.5C6.27003 2.5 5.24752 3.38823 5.03891 4.55823C4.86534 4.5201 4.68502 4.5 4.5 4.5C3.11929 4.5 2 5.61929 2 7V13V14C2 15.0294 2.17284 16.0185 2.49108 16.9398L3.53737 16.5374L3.97958 15.3876C4.01304 15.3006 4.05071 15.2177 4.09219 15.1389C4.03154 14.7683 4 14.3878 4 14V13V7C4 6.72386 4.22386 6.5 4.5 6.5C4.77614 6.5 5 6.72386 5 7V11C5 11.5523 5.44772 12 6 12C6.55228 12 7 11.5523 7 11V7V5C7 4.72386 7.22386 4.5 7.5 4.5C7.77614 4.5 8 4.72386 8 5V11C8 11.5523 8.44772 12 9 12C9.55228 12 10 11.5523 10 11V5V3.5Z" fill="black"/>
<path d="M8.42314 13.0528C8.45021 12.9824 8.54979 12.9824 8.57686 13.0528L8.94438 14.0083C8.95274 14.0301 8.96993 14.0473 8.99168 14.0556L9.94721 14.4231C10.0176 14.4502 10.0176 14.5498 9.94721 14.5769L8.99168 14.9444C8.96993 14.9527 8.95274 14.9699 8.94438 14.9917L8.57686 15.9472C8.54979 16.0176 8.45021 16.0176 8.42314 15.9472L8.05562 14.9917C8.04726 14.9699 8.03007 14.9527 8.00832 14.9444L7.05279 14.5769C6.9824 14.5498 6.9824 14.4502 7.05279 14.4231L8.00832 14.0556C8.03007 14.0473 8.04726 14.0301 8.05562 14.0083L8.42314 13.0528Z" fill="black"/>
<path d="M5.84627 16.1056C5.90042 15.9648 6.09958 15.9648 6.15373 16.1056L6.88875 18.0166C6.90548 18.0601 6.93986 18.0945 6.98335 18.1112L8.89442 18.8463C9.03519 18.9004 9.03519 19.0996 8.89442 19.1537L6.98335 19.8888C6.93986 19.9055 6.90548 19.9399 6.88875 19.9834L6.15373 21.8944C6.09958 22.0352 5.90042 22.0352 5.84627 21.8944L5.11125 19.9834C5.09452 19.9399 5.06014 19.9055 5.01665 19.8888L3.10558 19.1537C2.96481 19.0996 2.96481 18.9004 3.10558 18.8463L5.01665 18.1112C5.06014 18.0945 5.09452 18.0601 5.11125 18.0166L5.84627 16.1056Z" fill="black"/>
</svg>
