<svg width="24" height="24" viewBox="0 0 24 24" fill="none" xmlns="http://www.w3.org/2000/svg">
<path d="M8.79762 13V20.25C8.79762 21.2165 9.55993 22 10.5003 22C11.4406 22 12.2029 21.2165 12.2029 20.25V15C12.2029 14.4477 12.6385 14 13.1759 14H16.2652C17.6159 14 18.8152 13.1116 19.2423 11.7945C19.413 11.2683 19.5 10.7172 19.5 10.1625V9.74342C19.5 5.46685 16.074 2 11.9131 2C8.86403 2 6.07297 3.86765 4.87188 6.74815L4.80674 6.90436C3.99055 8.86176 4.85558 11.1103 6.77961 12.0326L8.79762 13ZM8.79762 13V9.42187" stroke="black" stroke-width="2" stroke-linecap="round" stroke-linejoin="round"/>
</svg>
