<svg width="24" height="24" viewBox="0 0 24 24" fill="none" xmlns="http://www.w3.org/2000/svg">
<path d="M19 4V8M19 8L17.5 6.5M19 8L20.5 6.5M19.4005 13.8507L17.9952 17.2519C16.805 20.1324 14.0393 22 11.0179 22C6.89487 22 3.5 18.5332 3.5 14.2566V13.8375C3.5 13.2828 3.58621 12.7317 3.75533 12.2055C4.1786 10.8884 5.36693 10 6.70544 10H9.76665C10.2991 10 10.7308 9.55228 10.7308 9V3.75C10.7308 2.7835 11.4861 2 12.4179 2C13.3497 2 14.1051 2.7835 14.1051 3.75V14.5781C14.1051 15.1219 14.8237 15.2748 15.0302 14.7751L15.5478 13.5226C16.077 12.2416 17.501 11.6404 18.7423 12.1737C19.3737 12.445 19.6697 13.1991 19.4005 13.8507Z" stroke="black" stroke-width="2" stroke-linecap="round" stroke-linejoin="round"/>
</svg>
