<svg width="24" height="24" viewBox="0 0 24 24" fill="none" xmlns="http://www.w3.org/2000/svg">
<path d="M13.9889 11.05V4.1625C13.9889 3.24433 13.2774 2.5 12.3997 2.5C11.5221 2.5 10.8106 3.24433 10.8106 4.1625V9.15C10.8106 9.67467 10.404 10.1 9.90252 10.1H7.01918C5.75845 10.1 4.63917 10.944 4.24049 12.1952C4.08121 12.6951 4 13.2186 4 13.7456V14.1438C4 18.2065 7.19761 21.5 11.0811 21.5C13.9269 21.5 16.5319 19.7257 17.6529 16.9893L17.7137 16.8409C18.4755 14.9813 17.6681 12.8452 15.8724 11.969L13.9889 11.05ZM13.9889 11.05V14.4492M18.5 8V4M18.5 4L17 5.5M18.5 4L20 5.5" stroke="black" stroke-width="2" stroke-linecap="round" stroke-linejoin="round"/>
</svg>
