<svg width="24" height="24" viewBox="0 0 24 24" fill="none" xmlns="http://www.w3.org/2000/svg">
<path d="M14.7024 11V3.75C14.7024 2.7835 13.9401 2 12.9997 2C12.0594 2 11.2971 2.7835 11.2971 3.75V9C11.2971 9.55228 10.8615 10 10.3241 10H7.23484C5.88406 10 4.68482 10.8884 4.25767 12.2055C4.08701 12.7317 4 13.2828 4 13.8375V14.2566C4 18.5332 7.42601 22 11.5869 22C14.636 22 17.427 20.1324 18.6281 17.2519L18.6933 17.0956C19.5095 15.1382 18.6444 12.8897 16.7204 11.9674L14.7024 11ZM14.7024 11V14.5781M20 5.5L18.5 4L17 5.5" stroke="black" stroke-width="2" stroke-linecap="round" stroke-linejoin="round"/>
</svg>
