<svg width="24" height="24" viewBox="0 0 24 24" fill="none" xmlns="http://www.w3.org/2000/svg">
<path d="M17 7H21M21 7L19.5 5.5M21 7L19.5 8.5M16.9129 13.6657L15.6833 16.7267C14.6419 19.3191 12.2219 21 9.57818 21C5.97051 21 3 17.8798 3 14.0309V13.6537C3 13.1545 3.07544 12.6586 3.22341 12.1849C3.59377 10.9996 4.63357 10.2 5.80476 10.2H8.48332C8.94922 10.2 9.32691 9.79706 9.32691 9.3V4.575C9.32691 3.70515 9.98786 3 10.8032 3C11.6185 3 12.2795 3.70515 12.2795 4.575V14.3203C12.2795 14.8097 12.9083 14.9474 13.0889 14.4976L13.5418 13.3703C14.0049 12.2175 15.2509 11.6763 16.337 12.1563C16.8895 12.4005 17.1485 13.0792 16.9129 13.6657Z" stroke="black" stroke-width="2" stroke-linecap="round" stroke-linejoin="round"/>
</svg>
