<svg width="24" height="24" viewBox="0 0 24 24" fill="none" xmlns="http://www.w3.org/2000/svg">
<path d="M10.0111 11.05V4.1625C10.0111 3.24433 10.7226 2.5 11.6003 2.5C12.4779 2.5 13.1894 3.24433 13.1894 4.1625V9.15C13.1894 9.67467 13.596 10.1 14.0975 10.1H16.9808C18.2415 10.1 19.3608 10.944 19.7595 12.1952C19.9188 12.6951 20 13.2186 20 13.7456V14.1438C20 18.2065 16.8024 21.5 12.9189 21.5C10.0731 21.5 7.46811 19.7257 6.34708 16.9893L6.28629 16.8409C5.52451 14.9813 6.33187 12.8452 8.12763 11.969L10.0111 11.05ZM10.0111 11.05V14.4492M5.5 4V8M5.5 8L7 6.5M5.5 8L4 6.5" stroke="black" stroke-width="2" stroke-linecap="round" stroke-linejoin="round"/>
</svg>
