<svg width="24" height="24" viewBox="0 0 24 24" fill="none" xmlns="http://www.w3.org/2000/svg">
<path d="M9.29762 11V3.75C9.29762 2.7835 10.0599 2 11.0003 2C11.9406 2 12.7029 2.7835 12.7029 3.75V9C12.7029 9.55228 13.1385 10 13.6759 10H16.7652C18.1159 10 19.3152 10.8884 19.7423 12.2055C19.913 12.7317 20 13.2828 20 13.8375V14.2566C20 18.5332 16.574 22 12.4131 22C9.36403 22 6.57297 20.1324 5.37187 17.2519L5.30674 17.0956C4.49055 15.1382 5.35558 12.8897 7.27961 11.9674L9.29762 11ZM9.29762 11V14.5781M4 5.5L5.5 4L7 5.5" stroke="black" stroke-width="2" stroke-linecap="round" stroke-linejoin="round"/>
</svg>
