<svg width="24" height="24" viewBox="0 0 24 24" fill="none" xmlns="http://www.w3.org/2000/svg">
<path d="M11.0111 11.1V4.575C11.0111 3.70515 11.7226 3 12.6003 3C13.4779 3 14.1894 3.70515 14.1894 4.575V9.3C14.1894 9.79706 14.596 10.2 15.0975 10.2H17.9808C19.2415 10.2 20.3608 10.9996 20.7595 12.1849C20.9188 12.6586 21 13.1545 21 13.6537V14.0309C21 17.8798 17.8024 21 13.9189 21C11.0731 21 8.46811 19.3191 7.34708 16.7267L7.28629 16.5861C6.52451 14.8244 7.33187 12.8007 9.12763 11.9706L11.0111 11.1ZM11.0111 11.1V14.3203M7 7H3M3 7L4.5 5.5M3 7L4.5 8.5" stroke="black" stroke-width="2" stroke-linecap="round" stroke-linejoin="round"/>
</svg>
