<svg width="24" height="24" viewBox="0 0 24 24" fill="none" xmlns="http://www.w3.org/2000/svg">
<path d="M12.9889 11.1V4.575C12.9889 3.70515 12.2774 3 11.3997 3C10.5221 3 9.8106 3.70515 9.8106 4.575V9.3C9.8106 9.79706 9.40404 10.2 8.90252 10.2H6.01918C4.75845 10.2 3.63917 10.9996 3.24049 12.1849C3.0812 12.6586 3 13.1545 3 13.6537V14.0309C3 17.8798 6.19761 21 10.0811 21C12.9269 21 15.5319 19.3191 16.6529 16.7267L16.7137 16.5861C17.4755 14.8244 16.6681 12.8007 14.8724 11.9706L12.9889 11.1ZM12.9889 11.1V14.3203M17 7H21M21 7L19.5 5.5M21 7L19.5 8.5" stroke="black" stroke-width="2" stroke-linecap="round" stroke-linejoin="round"/>
</svg>
