<svg width="24" height="24" viewBox="0 0 24 24" fill="none" xmlns="http://www.w3.org/2000/svg">
<path d="M7 7H3M3 7L4.5 5.5M3 7L4.5 8.5M7.08709 13.6657L8.31672 16.7267C9.35813 19.3191 11.7781 21 14.4218 21C18.0295 21 21 17.8798 21 14.0309V13.6537C21 13.1545 20.9246 12.6586 20.7766 12.1849C20.4062 10.9996 19.3664 10.2 18.1952 10.2H15.5167C15.0508 10.2 14.6731 9.79706 14.6731 9.3V4.575C14.6731 3.70515 14.0121 3 13.1968 3C12.3815 3 11.7205 3.70515 11.7205 4.575V14.3203C11.7205 14.8097 11.0917 14.9474 10.9111 14.4976L10.4582 13.3703C9.99512 12.2175 8.74915 11.6763 7.66302 12.1563C7.11051 12.4005 6.85152 13.0792 7.08709 13.6657Z" stroke="black" stroke-width="2" stroke-linecap="round" stroke-linejoin="round"/>
</svg>
