<svg width="24" height="24" viewBox="0 0 24 24" fill="none" xmlns="http://www.w3.org/2000/svg">
<path d="M15.7024 11V3.75C15.7024 2.7835 14.9401 2 13.9997 2C13.0594 2 12.2971 2.7835 12.2971 3.75V9C12.2971 9.55228 11.8615 10 11.3241 10H8.23484C6.88406 10 5.68482 10.8884 5.25767 12.2055C5.08701 12.7317 5 13.2828 5 13.8375V14.2566C5 18.5332 8.42601 22 12.5869 22C15.636 22 18.427 20.1324 19.6281 17.2519L19.6933 17.0956C20.5095 15.1382 19.6444 12.8897 17.7204 11.9674L15.7024 11ZM15.7024 11V14.5781M8 6H4M4 6L5.5 4.5M4 6L5.5 7.5" stroke="black" stroke-width="2" stroke-linecap="round" stroke-linejoin="round"/>
</svg>
