<svg width="24" height="24" viewBox="0 0 24 24" fill="none" xmlns="http://www.w3.org/2000/svg">
<path d="M7.5 3.5L6 5L7.5 6.5M18.5 3.5L20 5L18.5 6.5M19.9005 13.8507L18.4952 17.2519C17.305 20.1324 14.5393 22 11.5179 22C7.39487 22 4 18.5332 4 14.2566V13.8375C4 13.2828 4.08621 12.7317 4.25533 12.2055C4.6786 10.8884 5.86693 10 7.20544 10H10.2667C10.7991 10 11.2308 9.55228 11.2308 9V3.75C11.2308 2.7835 11.9861 2 12.9179 2C13.8497 2 14.6051 2.7835 14.6051 3.75V14.5781C14.6051 15.1219 15.3237 15.2748 15.5302 14.7751L16.0478 13.5226C16.577 12.2416 18.001 11.6404 19.2423 12.1737C19.8737 12.445 20.1697 13.1991 19.9005 13.8507Z" stroke="black" stroke-width="2" stroke-linecap="round" stroke-linejoin="round"/>
</svg>
