<svg width="24" height="24" viewBox="0 0 24 24" fill="none" xmlns="http://www.w3.org/2000/svg">
<path d="M16.5 3.5L18 5L16.5 6.5M4.09954 13.8507L5.50483 17.2519C6.69501 20.1324 9.4607 22 12.4821 22C16.6051 22 20 18.5332 20 14.2566V13.8375C20 13.2828 19.9138 12.7317 19.7447 12.2055C19.3214 10.8884 18.1331 10 16.7946 10H13.7333C13.2009 10 12.7692 9.55228 12.7692 9V3.75C12.7692 2.7835 12.0139 2 11.0821 2C10.1503 2 9.3949 2.7835 9.3949 3.75V14.5781C9.3949 15.1219 8.67627 15.2748 8.46977 14.7751L7.95224 13.5226C7.42299 12.2416 5.99902 11.6404 4.75774 12.1737C4.1263 12.445 3.8303 13.1991 4.09954 13.8507Z" stroke="black" stroke-width="2" stroke-linecap="round" stroke-linejoin="round"/>
</svg>
