<svg width="24" height="24" viewBox="0 0 24 24" fill="none" xmlns="http://www.w3.org/2000/svg">
<path d="M6 7.5L4.5 9L3 7.5M6 3.5L4.5 2L3 3.5M5.09953 13.8507L6.50483 17.2519C7.69501 20.1324 10.4607 22 13.4821 22C17.6051 22 21 18.5332 21 14.2566V13.8375C21 13.2828 20.9138 12.7317 20.7447 12.2055C20.3214 10.8884 19.1331 10 17.7946 10H14.7333C14.2009 10 13.7692 9.55228 13.7692 9V3.75C13.7692 2.7835 13.0139 2 12.0821 2C11.1503 2 10.3949 2.7835 10.3949 3.75V14.5781C10.3949 15.1219 9.67627 15.2748 9.46977 14.7751L8.95224 13.5226C8.42299 12.2416 6.99902 11.6404 5.75774 12.1737C5.1263 12.445 4.8303 13.1991 5.09953 13.8507Z" stroke="black" stroke-width="2" stroke-linecap="round" stroke-linejoin="round"/>
</svg>
