<svg width="24" height="24" viewBox="0 0 24 24" fill="none" xmlns="http://www.w3.org/2000/svg">
<path d="M10.2976 11V3.75C10.2976 2.7835 11.0599 2 12.0003 2C12.9406 2 13.7029 2.7835 13.7029 3.75V9C13.7029 9.55228 14.1385 10 14.6759 10H17.7652C19.1159 10 20.3152 10.8884 20.7423 12.2055C20.913 12.7317 21 13.2828 21 13.8375V14.2566C21 18.5332 17.574 22 13.4131 22C10.364 22 7.57297 20.1324 6.37187 17.2519L6.30674 17.0956C5.49055 15.1382 6.35558 12.8897 8.27961 11.9674L10.2976 11ZM10.2976 11V14.5781M4.5 2V9M4.5 2L6 3.5M4.5 2L3 3.5M4.5 9L6 7.5M4.5 9L3 7.5" stroke="black" stroke-width="2" stroke-linecap="round" stroke-linejoin="round"/>
</svg>
