<svg width="24" height="24" viewBox="0 0 24 24" fill="none" xmlns="http://www.w3.org/2000/svg">
<path d="M15.2024 11V3.75C15.2024 2.7835 14.4401 2 13.4997 2C12.5594 2 11.7971 2.7835 11.7971 3.75V9C11.7971 9.55228 11.3615 10 10.8241 10H7.73484C6.38406 10 5.18482 10.8884 4.75767 12.2055C4.58701 12.7317 4.5 13.2828 4.5 13.8375V14.2566C4.5 18.5332 7.92601 22 12.0869 22C15.136 22 17.927 20.1324 19.1281 17.2519L19.1933 17.0956C20.0095 15.1382 19.1444 12.8897 17.2204 11.9674L15.2024 11ZM15.2024 11V14.5781M8.5 5.5L7 4L5.5 5.5" stroke="black" stroke-width="2" stroke-linecap="round" stroke-linejoin="round"/>
</svg>
