<svg width="24" height="24" viewBox="0 0 24 24" fill="none" xmlns="http://www.w3.org/2000/svg">
<path d="M8.29762 11V3.75C8.29762 2.7835 9.05993 2 10.0003 2C10.9406 2 11.7029 2.7835 11.7029 3.75V9C11.7029 9.55228 12.1385 10 12.6759 10H15.7652C17.1159 10 18.3152 10.8884 18.7423 12.2055C18.913 12.7317 19 13.2828 19 13.8375V14.2566C19 18.5332 15.574 22 11.4131 22C8.36403 22 5.57297 20.1324 4.37188 17.2519L4.30674 17.0956C3.49055 15.1382 4.35558 12.8897 6.27961 11.9674L8.29762 11ZM8.29762 11V14.5781M18.5 3V7M18.5 7L20 5.5M18.5 7L17 5.5" stroke="black" stroke-width="2" stroke-linecap="round" stroke-linejoin="round"/>
</svg>
