<svg width="24" height="24" viewBox="0 0 24 24" fill="none" xmlns="http://www.w3.org/2000/svg">
<path d="M8.79762 11V3.75C8.79762 2.7835 9.55993 2 10.5003 2C11.4406 2 12.2029 2.7835 12.2029 3.75V9C12.2029 9.55228 12.6385 10 13.1759 10H16.2652C17.6159 10 18.8152 10.8884 19.2423 12.2055C19.413 12.7317 19.5 13.2828 19.5 13.8375V14.2566C19.5 18.5332 16.074 22 11.9131 22C8.86403 22 6.07297 20.1324 4.87188 17.2519L4.80674 17.0956C3.99055 15.1382 4.85558 12.8897 6.77961 11.9674L8.79762 11ZM8.79762 11V14.5781M15.5 5.5L17 4L18.5 5.5" stroke="black" stroke-width="2" stroke-linecap="round" stroke-linejoin="round"/>
</svg>
