<svg width="24" height="24" viewBox="0 0 24 24" fill="none" xmlns="http://www.w3.org/2000/svg">
<path d="M13.7024 11V3.75C13.7024 2.7835 12.9401 2 11.9997 2C11.0594 2 10.2971 2.7835 10.2971 3.75V9C10.2971 9.55228 9.86147 10 9.32413 10H6.23484C4.88406 10 3.68482 10.8884 3.25767 12.2055C3.08701 12.7317 3 13.2828 3 13.8375V14.2566C3 18.5332 6.42601 22 10.5869 22C13.636 22 16.427 20.1324 17.6281 17.2519L17.6933 17.0956C18.5095 15.1382 17.6444 12.8897 15.7204 11.9674L13.7024 11ZM13.7024 11V14.5781M19.5 2V9M19.5 2L18 3.5M19.5 2L21 3.5M19.5 9L18 7.5M19.5 9L21 7.5" stroke="black" stroke-width="2" stroke-linecap="round" stroke-linejoin="round"/>
</svg>
