<svg width="24" height="24" viewBox="0 0 24 24" fill="none" xmlns="http://www.w3.org/2000/svg">
<path d="M7 6H3M3 6L4.5 4.5M3 6L4.5 7.5M17 6H21M21 6L19.5 4.5M21 6L19.5 7.5M18.9005 13.8507L17.4952 17.2519C16.305 20.1324 13.5393 22 10.5179 22C6.39487 22 3 18.5332 3 14.2566V13.8375C3 13.2828 3.08621 12.7317 3.25533 12.2055C3.6786 10.8884 4.86693 10 6.20544 10H9.26665C9.79911 10 10.2308 9.55228 10.2308 9V3.75C10.2308 2.7835 10.9861 2 11.9179 2C12.8497 2 13.6051 2.7835 13.6051 3.75V14.5781C13.6051 15.1219 14.3237 15.2748 14.5302 14.7751L15.0478 13.5226C15.577 12.2416 17.001 11.6404 18.2423 12.1737C18.8737 12.445 19.1697 13.1991 18.9005 13.8507Z" stroke="black" stroke-width="2" stroke-linecap="round" stroke-linejoin="round"/>
</svg>
