<svg width="24" height="24" viewBox="0 0 24 24" fill="none" xmlns="http://www.w3.org/2000/svg">
<path d="M8.32617 6.71217C8.32617 8.76766 9.57646 10.5158 11.3202 11.1598M11.3202 11.1598C11.2674 11.5743 10.9129 11.8947 10.4833 11.8947H7.80476C6.63357 11.8947 5.59377 12.6429 5.22341 13.752C5.07544 14.1951 5 14.6592 5 15.1263V15.4792C5 19.0806 7.97051 22 11.5782 22C14.2219 22 16.6419 20.4273 17.6833 18.0016L18.9129 15.1375C19.1485 14.5888 18.8895 13.9537 18.337 13.7252C17.2509 13.2761 16.0049 13.7824 15.5418 14.8611L15.0889 15.9159C14.9083 16.3367 14.2795 16.2079 14.2795 15.75V11.1619M11.3202 11.1598C11.3246 11.1247 11.3269 11.0889 11.3269 11.0526V6.63158C11.3269 5.81769 11.9879 5.15789 12.8032 5.15789C13.6185 5.15789 14.2795 5.81769 14.2795 6.63158V11.1619M14.2795 11.1619C15.3214 10.7788 16.1878 10.0016 16.7172 9M10 3.03764C10.7671 2.38847 11.7418 2 12.8027 2C14.7013 2 16.3238 3.24407 16.9746 5" stroke="black" stroke-width="2" stroke-linecap="round" stroke-linejoin="round"/>
</svg>
