<svg width="24" height="24" viewBox="0 0 24 24" fill="none" xmlns="http://www.w3.org/2000/svg">
<path d="M14.7754 12.6501V15.6915M14.7754 12.6501L16.5243 13.4724C18.1918 14.2563 18.9415 16.1676 18.2342 17.8314L18.1777 17.9642C17.1368 20.4126 14.7178 22.0001 12.0753 22.0001C8.46921 22.0001 5.5 19.0533 5.5 15.4182V15.062C5.5 14.5905 5.57541 14.1221 5.72331 13.6748C6.09351 12.5552 7.13285 11.8001 8.30353 11.8001H10.9809C11.4466 11.8001 11.8241 11.4195 11.8241 10.9501V10.7012M14.7754 12.6501V10.7012M11.8241 10.7012C10.0768 10.0916 8.8232 8.42962 8.8232 6.475C8.8232 4.00353 10.8274 2 13.2998 2C15.7721 2 17.7763 4.00353 17.7763 6.475C17.7763 8.42962 16.5227 10.0916 14.7754 10.7012M11.8241 10.7012V6.4876C11.8241 5.66607 12.4848 5.0001 13.2998 5.0001C14.1147 5.0001 14.7754 5.66607 14.7754 6.4876V10.7012" stroke="black" stroke-width="2" stroke-linecap="round" stroke-linejoin="round"/>
</svg>
