<svg width="24" height="24" viewBox="0 0 24 24" fill="none" xmlns="http://www.w3.org/2000/svg">
<path fill-rule="evenodd" clip-rule="evenodd" d="M7.32617 6.71217C7.32617 4.61304 8.9304 3 10.8027 3C12.6751 3 14.2793 4.61304 14.2793 6.71217C14.2793 7.73679 13.893 8.65166 13.2795 9.31636V6.63158C13.2795 5.26374 12.1691 4.15789 10.8032 4.15789C9.43723 4.15789 8.32691 5.26374 8.32691 6.63158V9.31734C7.71284 8.65255 7.32617 7.73727 7.32617 6.71217ZM15.8485 19.7477C14.4352 21.7623 12.0932 23 9.57818 23C5.42903 23 2 19.6436 2 15.4792V15.1263C2 14.5515 2.09283 13.9805 2.27489 13.4353C2.78182 11.9172 4.20427 10.8947 5.80476 10.8947H7.07206C5.99198 9.84599 5.32617 8.35244 5.32617 6.71217C5.32617 3.60638 7.7304 1 10.8027 1C13.8751 1 16.2793 3.60638 16.2793 6.71217C16.2793 7.64258 16.0651 8.52578 15.6825 9.30738C13.5381 10.0579 12 12.0993 12 14.5C12 15.4699 12.251 16.3811 12.6917 17.1723C11.9803 17.1604 11.2795 16.6407 11.2795 15.75V11.1619V6.63158C11.2795 6.37163 11.0679 6.1579 10.8032 6.1579C10.5385 6.1579 10.3269 6.37163 10.3269 6.63158V11.0526C10.3269 11.1309 10.322 11.2088 10.3122 11.286C10.1965 12.195 9.42135 12.8947 8.48332 12.8947H5.80476C5.06287 12.8947 4.40573 13.3686 4.17193 14.0687C4.05805 14.4098 4 14.7669 4 15.1263V15.4792C4 18.5175 6.512 21 9.57818 21C11.3573 21 13.0145 20.162 14.0659 18.7964C14.5901 19.216 15.1929 19.5416 15.8485 19.7477Z" fill="black"/>
<path fill-rule="evenodd" clip-rule="evenodd" d="M17.5 18C15.567 18 14 16.433 14 14.5C14 12.567 15.567 11 17.5 11C19.433 11 21 12.567 21 14.5C21 16.433 19.433 18 17.5 18ZM18.3008 13C18.3008 12.5858 17.965 12.25 17.5508 12.25C17.1366 12.25 16.8008 12.5858 16.8008 13V14.8333C16.8008 15.3396 17.2112 15.75 17.7174 15.75H18.5508C18.965 15.75 19.3008 15.4142 19.3008 15C19.3008 14.5858 18.965 14.25 18.5508 14.25H18.3008V13Z" fill="black"/>
</svg>
