<svg width="24" height="24" viewBox="0 0 24 24" fill="none" xmlns="http://www.w3.org/2000/svg">
<path fill-rule="evenodd" clip-rule="evenodd" d="M7.3232 6.475C7.3232 4.55614 8.87938 3 10.7998 3C12.7201 3 14.2763 4.55614 14.2763 6.475C14.2763 7.42503 13.8947 8.28708 13.2754 8.91498V6.4876C13.2754 5.12136 12.1746 4.0001 10.7998 4.0001C9.42497 4.0001 8.32413 5.12136 8.32413 6.4876V8.91498C7.70486 8.28708 7.3232 7.42503 7.3232 6.475ZM15.829 19.7416C14.4163 21.7583 12.0841 23.0001 9.57529 23.0001C5.41849 23.0001 2 19.6071 2 15.4182V15.062C2 14.4839 2.09245 13.9095 2.27387 13.3608C2.77814 11.8359 4.19726 10.8001 5.80353 10.8001H7.4418C6.1532 9.79892 5.3232 8.23463 5.3232 6.475C5.3232 3.45091 7.77547 1 10.7998 1C13.8241 1 16.2763 3.45091 16.2763 6.475C16.2763 7.5527 15.965 8.55713 15.4276 9.4038C13.4172 10.2222 12 12.1956 12 14.5C12 15.2732 12.1596 16.0092 12.4476 16.6767C12.3916 16.6864 12.3341 16.6915 12.2754 16.6915C11.7231 16.6915 11.2754 16.2438 11.2754 15.6915V12.6501V10.7012V6.4876C11.2754 6.21079 11.0549 6.0001 10.7998 6.0001C10.5446 6.0001 10.3241 6.21079 10.3241 6.4876V10.7012V10.9501C10.3241 11.9643 9.50643 12.8001 8.48091 12.8001H5.80353C5.06844 12.8001 4.40889 13.2746 4.17275 13.9887C4.05836 14.3347 4 14.6971 4 15.062V15.4182C4 18.4994 6.51994 21.0001 9.57529 21.0001C11.3453 21.0001 12.9986 20.1599 14.0512 18.7846C14.5737 19.2057 15.1748 19.5332 15.829 19.7416Z" fill="black"/>
<path fill-rule="evenodd" clip-rule="evenodd" d="M17.5 18C15.567 18 14 16.433 14 14.5C14 12.567 15.567 11 17.5 11C19.433 11 21 12.567 21 14.5C21 16.433 19.433 18 17.5 18ZM18.3008 13C18.3008 12.5858 17.965 12.25 17.5508 12.25C17.1366 12.25 16.8008 12.5858 16.8008 13V14.8333C16.8008 15.3396 17.2112 15.75 17.7174 15.75H18.5508C18.965 15.75 19.3008 15.4142 19.3008 15C19.3008 14.5858 18.965 14.25 18.5508 14.25H18.3008V13Z" fill="black"/>
</svg>
