<svg width="24" height="24" viewBox="0 0 24 24" fill="none" xmlns="http://www.w3.org/2000/svg">
<path d="M19 10V4C19 2.89543 18.1046 2 17 2H6C4.89543 2 4 2.89543 4 4V9C4 10.1046 4.89543 11 6 11H8M8.07465 15.8881L9.12862 18.4389C10.0213 20.5993 12.0955 22 14.3616 22C17.4538 22 20 19.3999 20 16.1924V15.8781C20 15.4621 19.9353 15.0488 19.8085 14.6541C19.4911 13.6663 18.5998 13 17.5959 13H15.3C14.9007 13 14.5769 12.6642 14.5769 12.25V8.3125C14.5769 7.58763 14.0104 7 13.3116 7C12.6127 7 12.0462 7.58763 12.0462 8.3125V16.4336C12.0462 16.8414 11.5072 16.9561 11.3523 16.5813L10.9642 15.6419C10.5672 14.6812 9.49927 14.2303 8.5683 14.6303C8.09472 14.8337 7.87273 15.3994 8.07465 15.8881Z" stroke="black" stroke-width="2" stroke-linecap="round" stroke-linejoin="round"/>
</svg>
