<svg width="24" height="24" viewBox="0 0 24 24" fill="none" xmlns="http://www.w3.org/2000/svg">
<path d="M11.4381 13.75V8.3125C11.4381 7.58763 12.0479 7 12.8002 7C13.5525 7 14.1623 7.58763 14.1623 8.3125V12.25C14.1623 12.6642 14.5108 13 14.9407 13H17.4121C18.4928 13 19.4521 13.6663 19.7939 14.6541C19.9304 15.0488 20 15.4621 20 15.8781V16.1924C20 19.3999 17.2592 22 13.9305 22C11.4912 22 9.25838 20.5993 8.2975 18.4389L8.24539 18.3217C7.59244 16.8537 8.28446 15.1673 9.82369 14.4755L11.4381 13.75ZM11.4381 13.75V16.4336M19 10V4C19 2.89543 18.1046 2 17 2H6C4.89543 2 4 2.89543 4 4V9C4 10.1046 4.89543 11 6 11H7" stroke="black" stroke-width="2" stroke-linecap="round" stroke-linejoin="round"/>
</svg>
