<svg width="24" height="24" viewBox="0 0 24 24" fill="none" xmlns="http://www.w3.org/2000/svg">
<path d="M6.5 14.5L6.6769 14M6.6769 14L8.18789 9.72925C8.29604 9.42358 8.70396 9.42358 8.81211 9.72925L10.3231 14M6.6769 14H10.3231M10.3231 14L10.5 14.5M5 4H19C20.6569 4 22 5.34315 22 7V17C22 18.6569 20.6569 20 19 20H5C3.34315 20 2 18.6569 2 17V7C2 5.34315 3.34315 4 5 4ZM13.5 9.8125V14.1875C13.5 14.3601 13.6492 14.5 13.8333 14.5H14.8333C16.3061 14.5 17.5 13.3807 17.5 12C17.5 10.6193 16.3061 9.5 14.8333 9.5H13.8333C13.6492 9.5 13.5 9.63991 13.5 9.8125Z" stroke="black" stroke-width="2" stroke-linecap="round"/>
</svg>
