<svg width="24" height="24" viewBox="0 0 24 24" fill="none" xmlns="http://www.w3.org/2000/svg">
<path fill-rule="evenodd" clip-rule="evenodd" d="M2.62467 3.21917C2.19341 2.87416 1.56412 2.94408 1.21911 3.37534C0.874819 3.8057 0.943728 4.43326 1.37258 4.77874C1.37348 4.77946 1.37438 4.78018 1.37528 4.78091L2.65548 5.80506L4.23121 7.06565L7.22278 9.45891L10.7856 12.3091L12.5 13.6807L14.7742 15.5L17.8992 18L19.84 19.5527L21.3753 20.7809C21.3768 20.7821 21.3784 20.7834 21.3799 20.7846C21.811 21.1254 22.4371 21.0545 22.7808 20.6247C23.1259 20.1935 23.0559 19.5642 22.6247 19.2192L21.3445 18.195C21.7589 17.5649 22 16.8106 22 16V8.00004C22 5.7909 20.2091 4.00004 18 4.00004H5.99998C5.33653 4.00004 4.71081 4.16156 4.15999 4.44742L2.62467 3.21917ZM17.1976 20L14.6976 18H5.99998C4.89541 18 3.99998 17.1046 3.99998 16V9.4419L2.00295 7.84428C2.00097 7.89595 1.99998 7.94788 1.99998 8.00004V16C1.99998 18.2092 3.79084 20 5.99998 20H17.1976ZM6.51652 11.4551L5.73414 13.6665L5.55724 14.1665C5.37303 14.6872 5.64578 15.2586 6.16644 15.4428C6.62835 15.6062 7.13021 15.41 7.36621 15H9.63375C9.86974 15.41 10.3716 15.6062 10.8335 15.4428C10.9788 15.3914 11.1049 15.3098 11.207 15.2075L8.44765 13H8.09142L8.17 12.7779L6.51652 11.4551ZM14.5 12.7194L15.376 13.4202C16.0586 13.2105 16.5 12.6173 16.5 12C16.5 11.2314 15.8156 10.5 14.8333 10.5H14.5V12.7194ZM18.5 12C18.5 13.1533 17.9294 14.144 17.0682 14.774L19.7687 16.9344C19.9164 16.6555 20 16.3376 20 16V8.00004C20 6.89547 19.1045 6.00004 18 6.00004H6.10076L12.5 11.1194V9.81254C12.5 9.02785 13.1587 8.50004 13.8333 8.50004H14.8333C16.7966 8.50004 18.5 10.0072 18.5 12Z" fill="black"/>
</svg>
