<svg width="24" height="24" viewBox="0 0 24 24" fill="none" xmlns="http://www.w3.org/2000/svg">
<path fill-rule="evenodd" clip-rule="evenodd" d="M5 6.89967V7.10033C5 7.94314 5 8.36455 5.16349 8.68646C5.3073 8.96962 5.53677 9.19984 5.81901 9.34412C6.13988 9.50814 6.55992 9.50814 7.39999 9.50814H7.4C7.99365 9.50814 8.29048 9.50814 8.57556 9.56405C8.82853 9.61367 9.07407 9.69578 9.30611 9.80836C9.56762 9.93524 9.80508 10.1139 10.28 10.4713L11.4 11.314C12.0981 11.8393 12.4472 12.102 12.7236 11.9633C13 11.8247 13 11.3869 13 10.5114V3.4886C13 2.61308 13 2.17532 12.7236 2.03667C12.4472 1.89803 12.0981 2.16068 11.4 2.686L10.28 3.52873C9.80508 3.88608 9.56762 4.06476 9.30611 4.19164C9.07407 4.30422 8.82853 4.38633 8.57556 4.43595C8.29048 4.49186 7.99365 4.49186 7.4 4.49186C6.55992 4.49186 6.13988 4.49186 5.81901 4.65588C5.53677 4.80016 5.3073 5.03038 5.16349 5.31354C5 5.63545 5 6.05686 5 6.89967ZM14.4949 8.9509C15.3601 8.72921 16 7.93982 16 7C16 6.06018 15.3601 5.27079 14.4949 5.0491C14.2937 4.99755 14.1931 4.97177 14.0966 5.04733C14 5.12288 14 5.24533 14 5.49024V8.50976C14 8.75467 14 8.87712 14.0966 8.95267C14.1931 9.02823 14.2937 9.00245 14.4949 8.9509ZM14.5731 2.91556C14.7803 2.40362 15.3633 2.15661 15.8752 2.36383C17.7058 3.10482 19 4.90008 19 7.00001C19 9.09995 17.7058 10.8952 15.8752 11.6362C15.3633 11.8434 14.7803 11.5964 14.5731 11.0845C14.3658 10.5725 14.6129 9.98954 15.1248 9.78232C16.2261 9.33653 17 8.25745 17 7.00001C17 5.74257 16.2261 4.6635 15.1248 4.21771C14.6129 4.01048 14.3658 3.42749 14.5731 2.91556ZM18.0431 15.5989C14.243 13.467 9.757 13.467 5.95685 15.5989L5.08281 16.0893C4.32676 16.5134 4 17.2994 4 18C4 18.7006 4.32676 19.4866 5.08281 19.9107L5.95687 20.4011C9.75701 22.533 14.243 22.533 18.0431 20.4011L18.9172 19.9107C19.6732 19.4866 20 18.7006 20 18C20 17.2994 19.6732 16.5134 18.9172 16.0893L18.0431 15.5989ZM6.9354 17.3432C7.76666 16.8769 8.63537 16.5319 9.52202 16.3085C9.19265 16.79 9 17.3725 9 18C9 18.6275 9.19264 19.21 9.52201 19.6915C8.63537 19.4681 7.76667 19.1232 6.93541 18.6568L6.06135 18.1665C6.05463 18.1627 6 18.1241 6 18C6 17.8759 6.05463 17.8373 6.06135 17.8335L6.9354 17.3432ZM15 18C15 17.3725 14.8074 16.79 14.478 16.3085C15.3646 16.5319 16.2333 16.8769 17.0646 17.3432L17.9386 17.8335C17.9454 17.8373 18 17.8759 18 18C18 18.1241 17.9454 18.1627 17.9387 18.1665L17.0646 18.6568C16.2333 19.1232 15.3646 19.4681 14.478 19.6915C14.8074 19.21 15 18.6275 15 18ZM11 18C11 17.4477 11.4477 17 12 17C12.5523 17 13 17.4477 13 18C13 18.5523 12.5523 19 12 19C11.4477 19 11 18.5523 11 18Z" fill="black"/>
</svg>
