<svg width="24" height="24" viewBox="0 0 24 24" fill="none" xmlns="http://www.w3.org/2000/svg">
<path fill-rule="evenodd" clip-rule="evenodd" d="M12 7C12.5523 7 13 6.55228 13 6C13 5.44772 12.5523 5 12 5C11.4477 5 11 5.44772 11 6C11 6.55228 11.4477 7 12 7ZM12 19C12.5523 19 13 18.5523 13 18C13 17.4477 12.5523 17 12 17C11.4477 17 11 17.4477 11 18C11 18.5523 11.4477 19 12 19ZM16.9497 8.46447C16.5592 8.85499 15.9261 8.85499 15.5355 8.46447C15.145 8.07394 15.145 7.44078 15.5355 7.05025C15.9261 6.65973 16.5592 6.65973 16.9497 7.05025C17.3403 7.44078 17.3403 8.07394 16.9497 8.46447ZM7.05025 16.9497C7.44077 17.3403 8.07394 17.3403 8.46446 16.9497C8.85499 16.5592 8.85499 15.9261 8.46446 15.5355C8.07394 15.145 7.44077 15.145 7.05025 15.5355C6.65973 15.9261 6.65973 16.5592 7.05025 16.9497ZM8.46446 7.05025C8.85499 7.44078 8.85499 8.07394 8.46446 8.46447C8.07394 8.85499 7.44077 8.85499 7.05025 8.46447C6.65973 8.07394 6.65973 7.44078 7.05025 7.05025C7.44077 6.65973 8.07394 6.65973 8.46446 7.05025ZM16.9497 16.9497C17.3403 16.5592 17.3403 15.9261 16.9497 15.5355C16.5592 15.145 15.9261 15.145 15.5355 15.5355C15.145 15.9261 15.145 16.5592 15.5355 16.9497C15.9261 17.3403 16.5592 17.3403 16.9497 16.9497ZM5.99999 10.9999C6.55228 10.9999 6.99999 11.4477 6.99999 11.9999C6.99999 12.5522 6.55228 12.9999 5.99999 12.9999C5.44771 12.9999 4.99999 12.5522 4.99999 11.9999C4.99999 11.4477 5.44771 10.9999 5.99999 10.9999ZM19 11.9999C19 11.4477 18.5523 10.9999 18 10.9999C17.4477 10.9999 17 11.4477 17 11.9999C17 12.5522 17.4477 12.9999 18 12.9999C18.5523 12.9999 19 12.5522 19 11.9999ZM10 12C10 10.8954 10.8954 10 12 10C13.1046 10 14 10.8954 14 12C14 13.1046 13.1046 14 12 14C10.8954 14 10 13.1046 10 12ZM12 8C9.79086 8 8 9.79086 8 12C8 14.2091 9.79086 16 12 16C14.2091 16 16 14.2091 16 12C16 9.79086 14.2091 8 12 8Z" fill="black"/>
</svg>
