<svg width="24" height="24" viewBox="0 0 24 24" fill="none" xmlns="http://www.w3.org/2000/svg">
<path d="M5.5 15H6M8.9923 15H15M18 15H18.5M5.5 11.5H9M12 11.5H18.5M12.2111 18.4319H20C21.1046 18.4319 22 17.5361 22 16.4311V4.00083C22 2.8958 21.1046 2 20 2H4C2.89543 2 2 2.8958 2 4.00083V16.4311C2 17.5361 2.89543 18.4319 4 18.4319H4.5C4.77614 18.4319 5 18.6559 5 18.9322V21.499C5 21.8985 5.44507 22.1368 5.77735 21.9151L9.9923 19.104C10.6494 18.6658 11.4214 18.4319 12.2111 18.4319Z" stroke="black" stroke-width="2" stroke-linecap="round"/>
</svg>
