<svg width="24" height="24" viewBox="0 0 24 24" fill="none" xmlns="http://www.w3.org/2000/svg">
<path fill-rule="evenodd" clip-rule="evenodd" d="M2.6247 3.21917C2.19344 2.87416 1.56415 2.94408 1.21914 3.37534C0.874128 3.8066 0.944049 4.4359 1.37531 4.78091L2.65551 5.80506L4.23124 7.06565L6.86801 9.17506L8.56489 10.5326L13.4362 14.4296L13.4362 14.4296L14.2405 15.0731C14.2405 15.0731 14.2406 15.0731 14.2406 15.0731L17.8992 18L19.84 19.5527L21.3753 20.7809C21.8066 21.1259 22.4359 21.056 22.7809 20.6247C23.1259 20.1935 23.056 19.5642 22.6247 19.2192L21.3445 18.195C21.7589 17.5649 22 16.8106 22 16V8.00004C22 5.7909 20.2091 4.00004 18 4.00004H6.00001C5.33656 4.00004 4.71084 4.16156 4.16002 4.44742L2.6247 3.21917ZM17.1976 20L14.6976 18H6.00001C4.89544 18 4.00001 17.1046 4.00001 16V9.44192L2.00298 7.8443C2.001 7.89597 2.00001 7.94789 2.00001 8.00004V16C2.00001 18.2092 3.79087 20 6.00001 20H17.1976ZM5.70098 10.8027C5.56638 11.1909 5.50001 11.5971 5.50001 12C5.50001 12.8745 5.81262 13.7645 6.45667 14.4517C7.62369 15.6968 9.4592 15.8328 10.7723 14.8597L9.05024 13.4821C8.6512 13.5516 8.22987 13.4189 7.91592 13.084C7.70305 12.8568 7.56798 12.5677 7.51982 12.2578L5.70098 10.8027ZM11.2296 9.54842C11.4313 9.76355 11.5194 10.0442 11.4965 10.3166L12.5901 11.1915C12.7248 10.595 13.0116 10.0233 13.4567 9.54842C14.7668 8.15057 16.9195 8.15057 18.2296 9.54842C18.6073 9.95138 18.5868 10.5842 18.1839 10.9619C17.7809 11.3396 17.1481 11.3191 16.7704 10.9161C16.2504 10.3613 15.4359 10.3613 14.9159 10.9161C14.6449 11.2053 14.5 11.5949 14.5 12C14.5 12.3598 14.6143 12.7073 14.8296 12.9831L15.3379 13.3898C15.8138 13.6061 16.3766 13.5041 16.7704 13.084C17.1481 12.681 17.7809 12.6605 18.1839 13.0382C18.5868 13.4159 18.6073 14.0487 18.2296 14.4517C17.992 14.7052 17.7266 14.9127 17.4436 15.0743L19.7688 16.9344C19.9164 16.6555 20 16.3376 20 16V8.00004C20 6.89547 19.1046 6.00004 18 6.00004H6.10079L9.25963 8.52711C9.98165 8.62138 10.6798 8.96181 11.2296 9.54842Z" fill="black"/>
</svg>
