<svg width="24" height="24" viewBox="0 0 24 24" fill="none" xmlns="http://www.w3.org/2000/svg">
<path d="M10 13.7678C9.08494 14.7441 7.60135 14.7441 6.68629 13.7678C6.22876 13.2796 6 12.6398 6 12C6 11.3602 6.22876 10.7204 6.68629 10.2322C7.60135 9.25592 9.08494 9.25592 10 10.2322M18 13.7678C17.0849 14.7441 15.6013 14.7441 14.6863 13.7678C14.2288 13.2796 14 12.6398 14 12C14 11.3602 14.2288 10.7204 14.6863 10.2322C15.6013 9.25592 17.0849 9.25592 18 10.2322M5 4H19C20.6569 4 22 5.34315 22 7V17C22 18.6569 20.6569 20 19 20H5C3.34315 20 2 18.6569 2 17V7C2 5.34315 3.34315 4 5 4Z" stroke="black" stroke-width="2" stroke-linecap="round"/>
</svg>
