<svg width="24" height="24" viewBox="0 0 24 24" fill="none" xmlns="http://www.w3.org/2000/svg">
<path fill-rule="evenodd" clip-rule="evenodd" d="M2.05246 11.4737C2.05246 5.68923 6.74169 1 12.5261 1C18.3106 1 22.9998 5.68923 22.9998 11.4737C22.9998 17.2581 18.3106 21.9474 12.5261 21.9474C11.1313 21.9474 9.79772 21.6742 8.57793 21.1774C8.25118 21.0443 7.94205 21.0328 7.69767 21.116L4.24652 22.2913C2.67508 22.8264 1.17339 21.3247 1.70855 19.7533L2.88385 16.3022C2.96707 16.0578 2.9555 15.7486 2.82243 15.4219C2.32567 14.2021 2.05246 12.8686 2.05246 11.4737ZM12.5261 3C7.84626 3 4.05246 6.7938 4.05246 11.4737C4.05246 12.6055 4.27383 13.6832 4.67472 14.6676C4.95222 15.349 5.04477 16.1608 4.77708 16.9469L3.60177 20.3981L7.05293 19.2228C7.83898 18.9551 8.65087 19.0476 9.33227 19.3251C10.3166 19.726 11.3943 19.9474 12.5261 19.9474C17.206 19.9474 20.9998 16.1536 20.9998 11.4737C20.9998 6.7938 17.206 3 12.5261 3ZM6.00001 10.5C6.00001 9.94772 6.44772 9.5 7.00001 9.5H9.50001C10.0523 9.5 10.5 9.94772 10.5 10.5C10.5 11.0523 10.0523 11.5 9.50001 11.5H7.00001C6.44772 11.5 6.00001 11.0523 6.00001 10.5ZM11.5 10.5C11.5 9.94772 11.9477 9.5 12.5 9.5H18C18.5523 9.5 19 9.94772 19 10.5C19 11.0523 18.5523 11.5 18 11.5H12.5C11.9477 11.5 11.5 11.0523 11.5 10.5ZM6.00001 14C6.00001 13.4477 6.44772 13 7.00001 13H7.50001C8.05229 13 8.50001 13.4477 8.50001 14C8.50001 14.5523 8.05229 15 7.50001 15H7.00001C6.44772 15 6.00001 14.5523 6.00001 14ZM9.49231 14C9.49231 13.4477 9.94003 13 10.4923 13H14.5C15.0523 13 15.5 13.4477 15.5 14C15.5 14.5523 15.0523 15 14.5 15H10.4923C9.94003 15 9.49231 14.5523 9.49231 14ZM16.5 14C16.5 13.4477 16.9477 13 17.5 13H18C18.5523 13 19 13.4477 19 14C19 14.5523 18.5523 15 18 15H17.5C16.9477 15 16.5 14.5523 16.5 14Z" fill="black"/>
</svg>
