<svg width="24" height="24" viewBox="0 0 24 24" fill="none" xmlns="http://www.w3.org/2000/svg">
<path fill-rule="evenodd" clip-rule="evenodd" d="M4 1C2.34276 1 1 2.34391 1 4.00083V16.4311C1 18.088 2.34276 19.4319 4 19.4319V21.499C4 22.6965 5.33477 23.4123 6.33221 22.7471L10.5472 19.936C11.04 19.6073 11.6189 19.4319 12.2111 19.4319H20C21.6572 19.4319 23 18.088 23 16.4311V4.00083C23 2.34391 21.6572 1 20 1H4ZM3 4.00083C3 3.4477 3.4481 3 4 3H20C20.5519 3 21 3.4477 21 4.00083V16.4311C21 16.9842 20.5519 17.4319 20 17.4319H12.2111C11.2239 17.4319 10.2588 17.7243 9.43744 18.2721L6 20.5647V18.9322C6 18.104 5.32882 17.4319 4.5 17.4319H4C3.44811 17.4319 3 16.9842 3 16.4311V4.00083ZM11 9.49727C11 8.39421 10.1046 7.5 9 7.5C7.89543 7.5 7 8.39421 7 9.49727C7 10.6003 7.89543 11.4945 9 11.4945V12.8208C9 13.2369 9 13.4449 9.13368 13.4918C9.26736 13.5387 9.39335 13.3819 9.64532 13.0681C10.6472 11.8206 11 10.3361 11 9.49727ZM17 9.49727C17 8.39421 16.1046 7.5 15 7.5C13.8954 7.5 13 8.39421 13 9.49727C13 10.6003 13.8954 11.4945 15 11.4945V12.8208C15 13.2369 15 13.4449 15.1337 13.4918C15.2674 13.5387 15.3934 13.3819 15.6453 13.0681C16.6472 11.8206 17 10.3361 17 9.49727Z" fill="black"/>
</svg>
