<svg width="24" height="24" viewBox="0 0 24 24" fill="none" xmlns="http://www.w3.org/2000/svg">
<path fill-rule="evenodd" clip-rule="evenodd" d="M8.77462 6.00414C8.84936 6.00139 8.92449 6 9 6C9.07551 6 9.15064 6.00139 9.22538 6.00414C9.77729 6.02446 10.2412 5.59353 10.2615 5.04162C10.2818 4.4897 9.85088 4.02582 9.29897 4.0055C9.19972 4.00184 9.10005 4 9 4C8.89995 4 8.80028 4.00184 8.70103 4.0055C8.14912 4.02582 7.71818 4.4897 7.7385 5.04161C7.75882 5.59353 8.22271 6.02446 8.77462 6.00414ZM6.19652 6.69365C6.68458 6.43517 6.87069 5.82998 6.61221 5.34192C6.35373 4.85385 5.74854 4.66774 5.26047 4.92622C5.08375 5.01981 4.911 5.11981 4.74251 5.2259C4.27516 5.52017 4.13484 6.13759 4.42911 6.60495C4.72339 7.0723 5.34081 7.21262 5.80817 6.91834C5.93455 6.83876 6.06408 6.76379 6.19652 6.69365ZM12.0002 6.8026C10.2067 7.84 9 9.77908 9 12C9 14.2209 10.2067 16.16 12.0002 17.1974C12.0648 17.16 12.1287 17.1214 12.1918 17.0817C12.6592 16.7874 13.2766 16.9277 13.5709 17.3951C13.663 17.5414 13.7126 17.7025 13.7228 17.8638C14.1344 17.953 14.5617 18 15 18C18.3137 18 21 15.3137 21 12C21 8.68629 18.3137 6 15 6C14.5617 6 14.1344 6.047 13.7228 6.13623C13.7126 6.2975 13.663 6.45858 13.5709 6.60495C13.2766 7.0723 12.6592 7.21262 12.1918 6.91835C12.1287 6.8786 12.0648 6.84001 12.0002 6.8026ZM3.91835 8.80817C4.21262 8.34081 4.0723 7.72339 3.60495 7.42911C3.13759 7.13484 2.52017 7.27515 2.2259 7.74251C2.11981 7.911 2.01981 8.08375 1.92622 8.26047C1.66774 8.74854 1.85385 9.35373 2.34192 9.61221C2.82998 9.87069 3.43517 9.68458 3.69365 9.19652C3.76379 9.06408 3.83877 8.93455 3.91835 8.80817ZM15.7741 7.74251C15.4798 7.27516 14.8624 7.13484 14.3951 7.42911C13.9277 7.72339 13.7874 8.34081 14.0817 8.80817C14.1612 8.93455 14.2362 9.06408 14.3063 9.19652C14.5648 9.68458 15.17 9.87069 15.6581 9.61221C16.1461 9.35373 16.3323 8.74854 16.0738 8.26047C15.9802 8.08375 15.8802 7.911 15.7741 7.74251ZM3.00414 11.7746C3.02446 11.2227 2.59353 10.7588 2.04162 10.7385C1.4897 10.7182 1.02582 11.1491 1.0055 11.701C1.00184 11.8003 1 11.8999 1 12C1 12.1001 1.00184 12.1997 1.0055 12.299C1.02582 12.8509 1.4897 13.2818 2.04161 13.2615C2.59353 13.2412 3.02446 12.7773 3.00414 12.2254C3.00139 12.1506 3 12.0755 3 12C3 11.9245 3.00139 11.8494 3.00414 11.7746ZM16.9945 11.701C16.9742 11.1491 16.5103 10.7182 15.9584 10.7385C15.4065 10.7588 14.9755 11.2227 14.9959 11.7746C14.9986 11.8494 15 11.9245 15 12C15 12.0755 14.9986 12.1506 14.9959 12.2254C14.9755 12.7773 15.4065 13.2412 15.9584 13.2615C16.5103 13.2818 16.9742 12.8509 16.9945 12.299C16.9982 12.1997 17 12.1001 17 12C17 11.8999 16.9982 11.8003 16.9945 11.701ZM3.69365 14.8035C3.43517 14.3154 2.82998 14.1293 2.34192 14.3878C1.85385 14.6463 1.66774 15.2515 1.92622 15.7395C2.01981 15.9162 2.11981 16.089 2.2259 16.2575C2.52017 16.7248 3.13759 16.8652 3.60495 16.5709C4.0723 16.2766 4.21262 15.6592 3.91834 15.1918C3.83876 15.0654 3.76379 14.9359 3.69365 14.8035ZM16.0738 15.7395C16.3323 15.2515 16.1461 14.6463 15.6581 14.3878C15.17 14.1293 14.5648 14.3154 14.3063 14.8035C14.2362 14.9359 14.1612 15.0654 14.0817 15.1918C13.7874 15.6592 13.9277 16.2766 14.3951 16.5709C14.8624 16.8652 15.4798 16.7248 15.7741 16.2575C15.8802 16.089 15.9802 15.9162 16.0738 15.7395ZM5.80817 17.0817C5.34081 16.7874 4.72339 16.9277 4.42911 17.3951C4.13484 17.8624 4.27515 18.4798 4.74251 18.7741C4.911 18.8802 5.08375 18.9802 5.26047 19.0738C5.74854 19.3323 6.35373 19.1461 6.61221 18.6581C6.87069 18.17 6.68458 17.5648 6.19652 17.3063C6.06408 17.2362 5.93455 17.1612 5.80817 17.0817ZM8.77462 17.9959C8.22271 17.9755 7.75882 18.4065 7.7385 18.9584C7.71818 19.5103 8.14912 19.9742 8.70103 19.9945C8.80028 19.9982 8.89995 20 9 20C9.10005 20 9.19972 19.9982 9.29897 19.9945C9.85088 19.9742 10.2818 19.5103 10.2615 18.9584C10.2412 18.4065 9.77729 17.9755 9.22538 17.9959C9.15064 17.9986 9.07551 18 9 18C8.92449 18 8.84936 17.9986 8.77462 17.9959ZM15 4C10.5817 4 7 7.58172 7 12C7 16.4183 10.5817 20 15 20C19.4183 20 23 16.4183 23 12C23 7.58172 19.4183 4 15 4Z" fill="black"/>
</svg>
