<svg width="24" height="24" viewBox="0 0 24 24" fill="none" xmlns="http://www.w3.org/2000/svg">
<path fill-rule="evenodd" clip-rule="evenodd" d="M4.14369 7.83211C8.41012 4.29899 15.0249 3.82877 19.8313 7.80961C20.6152 8.45889 21.001 9.46495 21 10.5674C20.9999 10.6674 20.9544 10.7747 20.8418 10.8643C20.7276 10.9551 20.5609 11.0103 20.3732 10.9837L17.2369 10.5389C16.7542 10.4704 16.5004 10.1131 16.5007 9.8055C16.5021 8.21791 15.1379 7.05897 13.6177 7.06015L10.3853 7.06264C8.86603 7.06382 7.5021 8.22318 7.50068 9.80911C7.5004 10.1178 7.24429 10.4775 6.75986 10.547L3.64913 10.9928C3.22119 11.0542 2.99983 10.7485 3 10.5599C3.00099 9.4618 3.37425 8.46931 4.14369 7.83211ZM21.107 6.26932C15.5014 1.62651 7.81367 2.19616 2.86807 6.29173C1.52499 7.40396 1.00137 9.03286 1 10.5581C0.998582 12.1369 2.4758 13.1815 3.93291 12.9726L7.04363 12.5267C8.39742 12.3327 9.4994 11.2257 9.50068 9.81091C9.50098 9.46836 9.8253 9.06308 10.3868 9.06264L13.6192 9.06015C14.1798 9.05971 14.501 9.46282 14.5007 9.80371C14.4994 11.2196 15.6011 12.3269 16.9561 12.5191L20.0923 12.9639C21.5352 13.1685 22.9986 12.1327 23 10.5692C23.0014 9.02037 22.4543 7.38523 21.107 6.26932ZM2.5 14C2.22386 14 2 14.2238 2 14.5V16C2 16.2761 2.22386 16.5 2.5 16.5H4C4.27614 16.5 4.5 16.2761 4.5 16V14.5C4.5 14.2238 4.27614 14 4 14H2.5ZM20 14C19.7239 14 19.5 14.2238 19.5 14.5V16C19.5 16.2761 19.7239 16.5 20 16.5H21.5C21.7761 16.5 22 16.2761 22 16V14.5C22 14.2238 21.7761 14 21.5 14H20ZM15.25 14.5C15.25 14.2238 15.4739 14 15.75 14H17.25C17.5261 14 17.75 14.2238 17.75 14.5V16C17.75 16.2761 17.5261 16.5 17.25 16.5H15.75C15.4739 16.5 15.25 16.2761 15.25 16V14.5ZM6.75 14C6.47386 14 6.25 14.2238 6.25 14.5V16C6.25 16.2761 6.47386 16.5 6.75 16.5H8.25C8.52614 16.5 8.75 16.2761 8.75 16V14.5C8.75 14.2238 8.52614 14 8.25 14H6.75ZM10.75 14.5C10.75 14.2238 10.9739 14 11.25 14H12.75C13.0261 14 13.25 14.2238 13.25 14.5V16C13.25 16.2761 13.0261 16.5 12.75 16.5H11.25C10.9739 16.5 10.75 16.2761 10.75 16V14.5ZM2.5 18.5C2.22386 18.5 2 18.7238 2 19V20.5C2 20.7761 2.22386 21 2.5 21H4C4.27614 21 4.5 20.7761 4.5 20.5V19C4.5 18.7238 4.27614 18.5 4 18.5H2.5ZM19.5 19C19.5 18.7238 19.7239 18.5 20 18.5H21.5C21.7761 18.5 22 18.7238 22 19V20.5C22 20.7761 21.7761 21 21.5 21H20C19.7239 21 19.5 20.7761 19.5 20.5V19ZM6.75 18.5C6.47386 18.5 6.25 18.7238 6.25 19V20.5C6.25 20.7761 6.47386 21 6.75 21H17.25C17.5261 21 17.75 20.7761 17.75 20.5V19C17.75 18.7238 17.5261 18.5 17.25 18.5H6.75Z" fill="black"/>
</svg>
