<svg width="24" height="24" viewBox="0 0 24 24" fill="none" xmlns="http://www.w3.org/2000/svg">
<path fill-rule="evenodd" clip-rule="evenodd" d="M12 1C5.92487 1 1 5.92487 1 12C1 18.0751 5.92487 23 12 23C18.0751 23 23 18.0751 23 12C23 5.92487 18.0751 1 12 1ZM3 12C3 7.02944 7.02944 3 12 3C16.9706 3 21 7.02944 21 12C21 16.9706 16.9706 21 12 21C7.02944 21 3 16.9706 3 12ZM9.67198 9.5539C9.98425 8.81041 10.3385 8.30548 10.7337 7.98697C11.1095 7.68415 11.5829 7.5 12.25 7.5C13.7911 7.5 14.75 8.64701 14.75 9.83333C14.75 10.5809 14.16 11.2168 12.8231 11.8429C11.9715 12.2418 11.2619 13.0041 11.042 14.0095L10.9814 14.2863C10.8634 14.8258 11.2051 15.3589 11.7446 15.4769C12.2842 15.5949 12.8172 15.2532 12.9352 14.7137L12.9958 14.4369C13.0643 14.1238 13.3007 13.8277 13.6714 13.6541C15.0568 13.0052 16.75 11.8834 16.75 9.83333C16.75 7.55578 14.9089 5.5 12.25 5.5C11.1671 5.5 10.2405 5.81585 9.47878 6.4297C8.73652 7.02785 8.21575 7.85626 7.82802 8.77943C7.61416 9.28863 7.85357 9.87479 8.36277 10.0886C8.87196 10.3025 9.45812 10.0631 9.67198 9.5539ZM11.875 18.5C12.4963 18.5 13 17.9963 13 17.375C13 16.7537 12.4963 16.25 11.875 16.25C11.2537 16.25 10.75 16.7537 10.75 17.375C10.75 17.9963 11.2537 18.5 11.875 18.5Z" fill="black"/>
</svg>
