<svg width="24" height="24" viewBox="0 0 24 24" fill="none" xmlns="http://www.w3.org/2000/svg">
<path fill-rule="evenodd" clip-rule="evenodd" d="M12 1C5.92487 1 1 5.92487 1 12C1 18.0751 5.92487 23 12 23C18.0751 23 23 18.0751 23 12C23 5.92487 18.0751 1 12 1ZM3 12C3 7.02944 7.02944 3 12 3C16.9706 3 21 7.02944 21 12C21 16.9706 16.9706 21 12 21C7.02944 21 3 16.9706 3 12ZM7.72795 8.52633C7.19021 8.40043 6.65222 8.7343 6.52633 9.27205C6.40043 9.80979 6.7343 10.3478 7.27205 10.4737L10.2031 11.1599L10.219 11.1636L10.235 11.1668C10.3231 11.1844 10.4115 11.2007 10.5 11.2157V13.2132L8.152 16.97C7.85929 17.4383 8.00166 18.0553 8.47 18.348C8.93834 18.6407 9.55529 18.4983 9.848 18.03L12 14.5868L14.152 18.03C14.4447 18.4983 15.0617 18.6407 15.53 18.348C15.9983 18.0553 16.1407 17.4383 15.848 16.97L13.5 13.2132V11.2157C13.5885 11.2007 13.6769 11.1844 13.765 11.1668L13.781 11.1636L13.7969 11.1599L16.728 10.4737C17.2657 10.3478 17.5996 9.80979 17.4737 9.27205C17.3478 8.7343 16.8098 8.40043 16.272 8.52633L13.3574 9.2087C13.0531 9.26885 12.7458 9.30858 12.4375 9.32788C12.1461 9.34613 11.8539 9.34613 11.5625 9.32788C11.2542 9.30858 10.9469 9.26885 10.6426 9.2087L7.72795 8.52633ZM12 8.25C12.9665 8.25 13.75 7.4665 13.75 6.5C13.75 5.5335 12.9665 4.75 12 4.75C11.0335 4.75 10.25 5.5335 10.25 6.5C10.25 7.4665 11.0335 8.25 12 8.25Z" fill="black"/>
</svg>
