<svg width="24" height="24" viewBox="0 0 24 24" fill="none" xmlns="http://www.w3.org/2000/svg">
<path fill-rule="evenodd" clip-rule="evenodd" d="M4 1C2.34276 1 1 2.34391 1 4.00083V16.4311C1 18.088 2.34276 19.4319 4 19.4319V21.499C4 22.6965 5.33477 23.4123 6.33221 22.7471L10.5472 19.936C11.04 19.6073 11.6189 19.4319 12.2111 19.4319H20C21.6572 19.4319 23 18.088 23 16.4311V4.00083C23 2.34391 21.6572 1 20 1H4ZM3 4.00083C3 3.4477 3.4481 3 4 3H20C20.5519 3 21 3.4477 21 4.00083V16.4311C21 16.9842 20.5519 17.4319 20 17.4319H12.2111C11.2239 17.4319 10.2588 17.7243 9.43744 18.2721L6 20.5647V18.9322C6 18.104 5.32882 17.4319 4.5 17.4319H4C3.44811 17.4319 3 16.9842 3 16.4311V4.00083ZM10.2709 6.15283L10.8861 5.53764C11.4112 5.01255 11.6737 4.75 12 4.75C12.3263 4.75 12.5888 5.01255 13.1139 5.53764L13.7291 6.15283C14.1106 6.53433 14.3013 6.72508 14.2342 6.88715C14.1671 7.04923 13.8973 7.04923 13.3578 7.04923H10.6422C10.1027 7.04923 9.83294 7.04923 9.7658 6.88715C9.69867 6.72508 9.88942 6.53433 10.2709 6.15283ZM7.28764 9.1361L7.90283 8.52091C8.28433 8.13942 8.47508 7.94867 8.63715 8.0158C8.79923 8.08294 8.79923 8.3527 8.79923 8.89221V11.6078C8.79923 12.1473 8.79923 12.4171 8.63715 12.4842C8.47508 12.5513 8.28433 12.3606 7.90283 11.9791L7.28764 11.3639C6.76255 10.8388 6.5 10.5763 6.5 10.25C6.5 9.92375 6.76255 9.6612 7.28764 9.1361ZM16.7124 9.1361L16.0972 8.52091L16.0972 8.5209C15.7157 8.13941 15.5249 7.94867 15.3628 8.0158C15.2008 8.08294 15.2008 8.3527 15.2008 8.89221V11.6078C15.2008 12.1473 15.2008 12.4171 15.3628 12.4842C15.5249 12.5513 15.7157 12.3606 16.0972 11.9791L16.0972 11.9791L16.7124 11.3639C17.2375 10.8388 17.5 10.5763 17.5 10.25C17.5 9.92375 17.2375 9.6612 16.7124 9.1361ZM10.8861 14.9624L10.2709 14.3472L10.2709 14.3472C9.88941 13.9657 9.69867 13.7749 9.7658 13.6128C9.83294 13.4508 10.1027 13.4508 10.6422 13.4508H13.3578C13.8973 13.4508 14.1671 13.4508 14.2342 13.6128C14.3013 13.7749 14.1106 13.9657 13.7291 14.3472L13.7291 14.3472L13.1139 14.9624C12.5888 15.4875 12.3263 15.75 12 15.75C11.6737 15.75 11.4112 15.4875 10.8861 14.9624Z" fill="black"/>
</svg>
