<svg width="24" height="24" viewBox="0 0 24 24" fill="none" xmlns="http://www.w3.org/2000/svg">
<path fill-rule="evenodd" clip-rule="evenodd" d="M1 12C1 5.92487 5.92487 1 12 1C18.0751 1 23 5.92487 23 12C23 18.0751 18.0751 23 12 23C11.4477 23 11 22.5523 11 22C11 21.4477 11.4477 21 12 21C16.9706 21 21 16.9706 21 12C21 7.02944 16.9706 3 12 3C7.02944 3 3 7.02944 3 12C3 12.5523 2.55228 13 2 13C1.44772 13 1 12.5523 1 12ZM6.52633 9.27205C6.65222 8.7343 7.19021 8.40043 7.72795 8.52633L10.6426 9.2087C10.9469 9.26885 11.2542 9.30858 11.5625 9.32788C11.8539 9.34613 12.1461 9.34613 12.4375 9.32788C12.7458 9.30858 13.0531 9.26885 13.3574 9.2087L16.272 8.52633C16.8098 8.40043 17.3478 8.7343 17.4737 9.27205C17.5996 9.80979 17.2657 10.3478 16.728 10.4737L13.7969 11.1599L13.781 11.1636L13.765 11.1668C13.6769 11.1844 13.5885 11.2007 13.5 11.2157V13.2132L15.848 16.97C16.1407 17.4383 15.9983 18.0553 15.53 18.348C15.0617 18.6407 14.4447 18.4983 14.152 18.03L12 14.5868L11.4105 15.53C11.1178 15.9983 10.5008 16.1407 10.0325 15.848C9.56417 15.5553 9.42179 14.9383 9.7145 14.47L10.5 13.2132V11.2157C10.4115 11.2007 10.3231 11.1844 10.235 11.1668L10.219 11.1636L10.2031 11.1599L7.27205 10.4737C6.7343 10.3478 6.40043 9.80979 6.52633 9.27205ZM13.75 6.5C13.75 7.4665 12.9665 8.25 12 8.25C11.0335 8.25 10.25 7.4665 10.25 6.5C10.25 5.5335 11.0335 4.75 12 4.75C12.9665 4.75 13.75 5.5335 13.75 6.5ZM2 16.9972V18.5028C2 18.9185 2.3134 19.2555 2.7 19.2555H2.97611C3.25251 19.2555 3.52272 19.3435 3.75269 19.5084L5.06468 20.4489C5.25076 20.5823 5.5 20.4389 5.5 20.1984V15.3016C5.5 15.0611 5.25076 14.9177 5.06468 15.0511L3.75269 15.9916C3.52272 16.1565 3.25251 16.2445 2.97611 16.2445H2.7C2.3134 16.2445 2 16.5815 2 16.9972ZM6.9 17.75C6.9 18.0829 6.65907 18.3606 6.33911 18.4239C6.26331 18.4389 6.2 18.3759 6.2 18.3V17.2C6.2 17.1241 6.26331 17.0611 6.33911 17.0761C6.65907 17.1394 6.9 17.4171 6.9 17.75ZM6.24001 15.5757C6.36884 15.2177 6.76877 15.0301 7.13327 15.1566C8.21984 15.5338 9 16.5515 9 17.75C9 18.9484 8.21984 19.9661 7.13327 20.3433C6.76877 20.4698 6.36884 20.2822 6.24001 19.9242C6.11118 19.5662 6.30223 19.1734 6.66673 19.0469C7.21143 18.8578 7.6 18.3476 7.6 17.75C7.6 17.1524 7.21143 16.6421 6.66673 16.453C6.30223 16.3265 6.11118 15.9337 6.24001 15.5757Z" fill="black"/>
</svg>
