<svg width="24" height="24" viewBox="0 0 24 24" fill="none" xmlns="http://www.w3.org/2000/svg">
<path fill-rule="evenodd" clip-rule="evenodd" d="M12 1C5.92487 1 1 5.92487 1 12C1 18.0751 5.92487 23 12 23C18.0751 23 23 18.0751 23 12C23 5.92487 18.0751 1 12 1ZM3 12C3 7.02944 7.02944 3 12 3C16.9706 3 21 7.02944 21 12C21 16.9706 16.9706 21 12 21C7.02944 21 3 16.9706 3 12ZM10.8861 6.28764L10.2709 6.90283C9.88942 7.28433 9.69867 7.47508 9.7658 7.63715C9.83294 7.79923 10.1027 7.79923 10.6422 7.79923H13.3578C13.8973 7.79923 14.1671 7.79923 14.2342 7.63715C14.3013 7.47508 14.1106 7.28433 13.7291 6.90283L13.1139 6.28764C12.5888 5.76255 12.3263 5.5 12 5.5C11.6737 5.5 11.4112 5.76255 10.8861 6.28764L10.8861 6.28764ZM6.90283 10.2709L6.28764 10.8861L6.28764 10.8861C5.76255 11.4112 5.5 11.6737 5.5 12C5.5 12.3263 5.76255 12.5888 6.28764 13.1139L6.90283 13.7291C7.28433 14.1106 7.47508 14.3013 7.63715 14.2342C7.79923 14.1671 7.79923 13.8973 7.79923 13.3578V10.6422C7.79923 10.1027 7.79923 9.83294 7.63715 9.7658C7.47508 9.69867 7.28433 9.88942 6.90283 10.2709ZM17.0972 10.2709L17.7124 10.8861C18.2375 11.4112 18.5 11.6737 18.5 12C18.5 12.3263 18.2375 12.5888 17.7124 13.1139L17.0972 13.7291C16.7157 14.1106 16.5249 14.3013 16.3628 14.2342C16.2008 14.1671 16.2008 13.8973 16.2008 13.3578V10.6422C16.2008 10.1027 16.2008 9.83294 16.3628 9.7658C16.5249 9.69867 16.7157 9.88941 17.0972 10.2709L17.0972 10.2709ZM10.2709 17.0972L10.8861 17.7124C11.4112 18.2375 11.6737 18.5 12 18.5C12.3263 18.5 12.5888 18.2375 13.1139 17.7124L13.7291 17.0972C14.1106 16.7157 14.3013 16.5249 14.2342 16.3628C14.1671 16.2008 13.8973 16.2008 13.3578 16.2008H10.6422C10.1027 16.2008 9.83294 16.2008 9.7658 16.3628C9.69867 16.5249 9.88941 16.7157 10.2709 17.0972L10.2709 17.0972ZM12 14C13.1046 14 14 13.1046 14 12C14 10.8954 13.1046 10 12 10C10.8954 10 10 10.8954 10 12C10 13.1046 10.8954 14 12 14Z" fill="black"/>
</svg>
