<svg width="24" height="24" viewBox="0 0 24 24" fill="none" xmlns="http://www.w3.org/2000/svg">
<path d="M19 8C20.6569 8 22 9.34315 22 11V12M19 8V7C19 5.34315 17.6569 4 16 4H4C2.89543 4 2 4.89543 2 6M19 8H14.5M4 8C2.89543 8 2 7.10457 2 6M2 6V17C2 18.6569 3.34315 20 5 20H19C20.6569 20 22 18.6569 22 17V16M22 12H18C16.8954 12 16 12.8954 16 14C16 15.1046 16.8954 16 18 16H22M22 12V16M7.5 12V15H8.75M7.5 12H10M7.5 12V9H8.75M10 12C10.8284 12 11.5 12.6716 11.5 13.5C11.5 14.3284 10.8284 15 10 15H8.75M10 12C10.8284 12 11.5 11.3284 11.5 10.5C11.5 9.67157 10.8284 9 10 9H8.75M8.75 9V8M8.75 15V16" stroke="black" stroke-width="2" stroke-linecap="round" stroke-linejoin="round"/>
</svg>
