<svg width="24" height="24" viewBox="0 0 24 24" fill="none" xmlns="http://www.w3.org/2000/svg">
<path d="M10.25 15V18H11.5M10.25 15H12.75M10.25 15V12H11.5M12.75 15C13.5784 15 14.25 15.6716 14.25 16.5C14.25 17.3284 13.5784 18 12.75 18H11.5M12.75 15C13.5784 15 14.25 14.3284 14.25 13.5C14.25 12.6716 13.5784 12 12.75 12H11.5M11.5 12V11M11.5 18V19M12 8H11.7857C9.41878 8 7.5 6.08122 7.5 3.71429V3.71429C7.5 2.76751 8.26751 2 9.21429 2H14.7857C15.7325 2 16.5 2.76751 16.5 3.71429V3.71429C16.5 6.08122 14.5812 8 12.2143 8H12ZM20 18V16C20 11.5817 16.4183 8 12 8V8C7.58172 8 4 11.5817 4 16V18C4 20.2091 5.79086 22 8 22H16C18.2091 22 20 20.2091 20 18Z" stroke="black" stroke-width="2" stroke-linecap="round" stroke-linejoin="round"/>
</svg>
