<svg width="24" height="24" viewBox="0 0 24 24" fill="none" xmlns="http://www.w3.org/2000/svg">
<path fill-rule="evenodd" clip-rule="evenodd" d="M12 1C10.8954 1 10 1.89543 10 3C10 3.74028 10.4022 4.38663 11 4.73244V5.82089C7.60771 6.30612 5 9.22353 5 12.75C5 14.3748 5.55448 15.8713 6.48305 17.0589L4.50271 19.0639C4.34199 19.0222 4.17349 19 4 19C2.89543 19 2 19.8954 2 21C2 22.1046 2.89543 23 4 23C5.10457 23 6 22.1046 6 21C6 20.8155 5.97489 20.6368 5.92798 20.467L7.92669 18.4433C9.07395 19.2653 10.4811 19.75 12 19.75C13.5404 19.75 14.9657 19.2516 16.1217 18.4084L18.0801 20.4384C18.028 20.6166 18 20.8051 18 21C18 22.1046 18.8954 23 20 23C21.1046 23 22 22.1046 22 21C22 19.8954 21.1046 19 20 19C19.8369 19 19.6781 19.0197 19.5261 19.0567L17.5534 17.0119C18.46 15.8319 19 14.3534 19 12.75C19 9.22353 16.3923 6.30612 13 5.82089V4.73244C13.5978 4.38663 14 3.74028 14 3C14 1.89543 13.1046 1 12 1ZM7 12.75C7 9.98858 9.23858 7.75 12 7.75C14.7614 7.75 17 9.98858 17 12.75C17 14.1519 16.4244 15.4176 15.494 16.3266C14.5916 17.2083 13.3601 17.75 12 17.75C10.6608 17.75 9.44636 17.2248 8.54796 16.3671C7.59295 15.4554 7 14.1728 7 12.75ZM10.5 9.2H10.8016C10.8274 8.8091 11.1526 8.5 11.55 8.5C11.9474 8.5 12.2726 8.8091 12.2984 9.2H12.6C13.7874 9.2 14.75 10.1626 14.75 11.35C14.75 11.8847 14.5548 12.3738 14.2318 12.75C14.5548 13.1262 14.75 13.6153 14.75 14.15C14.75 15.3374 13.7874 16.3 12.6 16.3H12.2984C12.2726 16.6909 11.9474 17 11.55 17C11.1526 17 10.8274 16.6909 10.8016 16.3H10.5C10.0858 16.3 9.75 15.9642 9.75 15.55V12.75V9.95C9.75 9.53579 10.0858 9.2 10.5 9.2ZM13.25 11.35C13.25 11.709 12.959 12 12.6 12H11.25V10.7H11.55H12.6C12.959 10.7 13.25 10.991 13.25 11.35ZM12.6 13.5H11.25V14.8H11.55H12.6C12.959 14.8 13.25 14.509 13.25 14.15C13.25 13.791 12.959 13.5 12.6 13.5Z" fill="black"/>
</svg>
