<svg width="24" height="24" viewBox="0 0 24 24" fill="none" xmlns="http://www.w3.org/2000/svg">
<path d="M4 11V14H5.25M4 11H6.5M4 11V8H5.25M6.5 11C7.32843 11 8 11.6716 8 12.5C8 13.3284 7.32843 14 6.5 14H5.25M6.5 11C7.32843 11 8 10.3284 8 9.5C8 8.67157 7.32843 8 6.5 8H5.25M5.25 8V7M5.25 14V15M3 19L21 14M20 4H18M16 10H18M18 4H17.5C16.6716 4 16 4.67157 16 5.5C16 6.32843 16.6716 7 17.5 7H18.5C19.3284 7 20 7.67157 20 8.5C20 9.32843 19.3284 10 18.5 10H18M18 4V3M18 10V11M11.2 18.0667L10.2 19.4C9.70557 20.0592 10.176 21 11 21H13C13.824 21 14.2944 20.0592 13.8 19.4L12.8 18.0667C12.4 17.5333 11.6 17.5333 11.2 18.0667Z" stroke="black" stroke-width="2" stroke-linecap="round" stroke-linejoin="round"/>
</svg>
