<svg width="24" height="24" viewBox="0 0 24 24" fill="none" xmlns="http://www.w3.org/2000/svg">
<path fill-rule="evenodd" clip-rule="evenodd" d="M4 4.5C4 4.22576 4.22415 4 4.5022 4C4.78025 4 5.00439 4.22576 5.00439 4.5C5.00439 4.63724 4.94982 4.76067 4.85775 4.85265C4.76544 4.94487 4.64085 5 4.5022 5C4.22415 5 4 4.77424 4 4.5ZM4.5022 2C3.12339 2 2 3.11738 2 4.5C2 5.88262 3.12339 7 4.5022 7C4.82487 7 5.13369 6.93858 5.41726 6.82708L6.29729 7.70711C6.68781 8.09763 7.32098 8.09763 7.7115 7.70711C8.10203 7.31658 8.10203 6.68342 7.7115 6.29289L6.83179 5.41318C6.94305 5.13032 7.00439 4.82218 7.00439 4.5C7.00439 3.11738 5.881 2 4.5022 2ZM19 4.5C19 4.22576 19.2241 4 19.5022 4C19.7802 4 20.0044 4.22576 20.0044 4.5C20.0044 4.77424 19.7802 5 19.5022 5C19.3639 5 19.2396 4.94517 19.1474 4.85341C19.0549 4.76136 19 4.63761 19 4.5ZM19.5022 2C18.1234 2 17 3.11738 17 4.5C17 4.82341 17.0618 5.13267 17.1739 5.4164L16.2974 6.29289C15.9069 6.68342 15.9069 7.31658 16.2974 7.70711C16.6879 8.09763 17.3211 8.09763 17.7116 7.70711L18.5904 6.82834C18.873 6.93905 19.1808 7 19.5022 7C20.881 7 22.0044 5.88262 22.0044 4.5C22.0044 3.11738 20.881 2 19.5022 2ZM8.50073 10.1332C8.97879 9.85663 9.14215 9.2449 8.86561 8.76684C8.58906 8.28878 7.97733 8.12542 7.49927 8.40196C6.60518 8.91916 6 9.88832 6 11V13.5C6 15.1569 7.34315 16.5 9 16.5H11V17H10C9.44772 17 9 17.4477 9 18C9 18.5523 9.44772 19 10 19H12H14C14.5523 19 15 18.5523 15 18C15 17.4477 14.5523 17 14 17H13V16.5H15C16.6569 16.5 18 15.1569 18 13.5V11C18 9.88832 17.3948 8.91916 16.5007 8.40196C16.0227 8.12542 15.4109 8.28878 15.1344 8.76684C14.8579 9.2449 15.0212 9.85663 15.4993 10.1332C15.8008 10.3076 16 10.6311 16 11V13.5C16 14.0523 15.5523 14.5 15 14.5H12H9C8.44772 14.5 8 14.0523 8 13.5V11C8 10.6311 8.19922 10.3076 8.50073 10.1332ZM7.2088 18.2054C7.59839 17.814 7.59687 17.1808 7.20541 16.7912C6.81395 16.4016 6.18079 16.4031 5.7912 16.7946L5.4154 17.1722C5.13235 17.0611 4.82416 17 4.5022 17C3.12339 17 2 18.1174 2 19.5C2 20.8826 3.12339 22 4.5022 22C5.881 22 7.00439 20.8826 7.00439 19.5C7.00439 19.1771 6.94279 18.8683 6.83106 18.585L7.2088 18.2054ZM18.2115 16.7929C17.821 16.4024 17.1878 16.4024 16.7973 16.7929C16.4068 17.1834 16.4068 17.8166 16.7973 18.2071L17.1738 18.5837C17.0618 18.8674 17 19.1766 17 19.5C17 20.8826 18.1234 22 19.5022 22C20.881 22 22.0044 20.8826 22.0044 19.5C22.0044 18.1174 20.881 17 19.5022 17C19.1807 17 18.873 17.061 18.5903 17.1717L18.2115 16.7929ZM4 19.5C4 19.2258 4.22415 19 4.5022 19C4.64086 19 4.76546 19.0551 4.85777 19.1474C4.94983 19.2393 5.00439 19.3628 5.00439 19.5C5.00439 19.7742 4.78025 20 4.5022 20C4.22415 20 4 19.7742 4 19.5ZM19.1474 19.1466C19.2396 19.0548 19.3639 19 19.5022 19C19.7802 19 20.0044 19.2258 20.0044 19.5C20.0044 19.7742 19.7802 20 19.5022 20C19.2241 20 19 19.7742 19 19.5C19 19.3624 19.0549 19.2387 19.1474 19.1466ZM11 6.9H11.1583C11.2059 6.61623 11.4527 6.4 11.75 6.4C12.0473 6.4 12.2941 6.61623 12.3417 6.9H12.5C13.3837 6.9 14.1 7.61634 14.1 8.5C14.1 8.87838 13.9687 9.22608 13.7491 9.5C13.9687 9.77392 14.1 10.1216 14.1 10.5C14.1 11.3837 13.3837 12.1 12.5 12.1H12.3417C12.2941 12.3838 12.0473 12.6 11.75 12.6C11.4527 12.6 11.2059 12.3838 11.1583 12.1H11C10.6686 12.1 10.4 11.8314 10.4 11.5V9.5V7.5C10.4 7.16863 10.6686 6.9 11 6.9ZM12.9 8.5C12.9 8.72091 12.7209 8.9 12.5 8.9H11.6V8.1H11.75H12.5C12.7209 8.1 12.9 8.27909 12.9 8.5ZM12.5 10.1H11.6V10.9H11.75H12.5C12.7209 10.9 12.9 10.7209 12.9 10.5C12.9 10.2791 12.7209 10.1 12.5 10.1Z" fill="black"/>
</svg>
