<svg width="24" height="24" viewBox="0 0 24 24" fill="none" xmlns="http://www.w3.org/2000/svg">
<path d="M12 5V3M12 5H8.5M12 5H15.5M8.5 5H8C6.34315 5 5 6.34315 5 8V8.5M8.5 5V3M15.5 5H16C17.6569 5 19 6.34315 19 8V8.5M15.5 5V3M19 12H21M19 12V8.5M19 12V15.5M19 8.5H21M19 15.5V16C19 17.6569 17.6569 19 16 19H15.5M19 15.5H21M12 19V21M12 19H15.5M12 19H8.5M15.5 19V21M8.5 19H8C6.34315 19 5 17.6569 5 16V15.5M8.5 19V21M5 12H3M5 12V15.5M5 12V8.5M5 15.5H3M5 8.5H3M10.25 12V15H11.5M10.25 12H12.75M10.25 12V9H11.5M12.75 12C13.5784 12 14.25 12.6716 14.25 13.5C14.25 14.3284 13.5784 15 12.75 15H11.5M12.75 12C13.5784 12 14.25 11.3284 14.25 10.5C14.25 9.67157 13.5784 9 12.75 9H11.5M11.5 9V8M11.5 15V16" stroke="black" stroke-width="2" stroke-linecap="round" stroke-linejoin="round"/>
</svg>
