<svg width="24" height="24" viewBox="0 0 24 24" fill="none" xmlns="http://www.w3.org/2000/svg">
<path d="M10.7 10.0001H8.13333M10.7 10.0001H11.1667C12.0687 10.0001 12.8 10.7314 12.8 11.6335C12.8 12.5355 12.0687 13.2668 11.1667 13.2668H10.8H9.6M10.7 10.0001C11.6021 10.0001 12.3333 9.26886 12.3333 8.3668C12.3333 7.46473 11.7021 6.73333 10.8 6.73333L9.6 6.73347M8.13333 10.0001V13.2668M8.13333 10.0001V6.73347M8.13333 13.2668H7.2M8.13333 13.2668H9.6M7.2 6.73347H8.13333M8.13333 6.73347H9.6M9.6 6.73347V5.80013M9.6 13.2668V14.2001M18.5 18.5L19.4638 17.5362C19.7176 17.2824 19.6292 16.8517 19.296 16.7184L15.5416 15.2166C15.3375 15.135 15.135 15.3375 15.2166 15.5416L16.7184 19.296C16.8517 19.6292 17.2824 19.7176 17.5362 19.4638L18.5 18.5ZM18.5 18.5L21 21M17.6016 12.5C17.8601 11.7135 18 10.8731 18 10C18 5.58172 14.4183 2 10 2C5.58172 2 2 5.58172 2 10C2 14.4183 5.58172 18 10 18C10.8731 18 11.7135 17.8601 12.5 17.6016" stroke="black" stroke-width="2" stroke-linecap="round" stroke-linejoin="round"/>
</svg>
