<svg width="24" height="24" viewBox="0 0 24 24" fill="none" xmlns="http://www.w3.org/2000/svg">
<path d="M7 5V6C7 6.55228 6.55228 7 6 7H5M7 5V4C7 3.44772 6.55228 3 6 3H4C3.44772 3 3 3.44772 3 4V6C3 6.55228 3.44772 7 4 7H5M7 5H8.5M17 5V4C17 3.44772 17.4477 3 18 3H20C20.5523 3 21 3.44772 21 4V6C21 6.55228 20.5523 7 20 7H19M17 5V6C17 6.55228 17.4477 7 18 7H19M17 5H15.5M19 7V8.5M19 17H20C20.5523 17 21 17.4477 21 18V20C21 20.5523 20.5523 21 20 21H18C17.4477 21 17 20.5523 17 20V19M19 17H18C17.4477 17 17 17.4477 17 18V19M19 17V15.5M17 19H15.5M7 19V20C7 20.5523 6.55228 21 6 21H4C3.44772 21 3 20.5523 3 20V18C3 17.4477 3.44772 17 4 17H5M7 19V18C7 17.4477 6.55228 17 6 17H5M7 19H8.5M5 17V15.5M5 7V8.5M10.25 12V15H11.5M10.25 12H12.75M10.25 12V9H11.5M12.75 12C13.5784 12 14.25 12.6716 14.25 13.5C14.25 14.3284 13.5784 15 12.75 15H11.5M12.75 12C13.5784 12 14.25 11.3284 14.25 10.5C14.25 9.67157 13.5784 9 12.75 9H11.5M11.5 9V8M11.5 15V16M11.5 5H12H12.75M11.5 19H12H12.5M5 11.5V12.5M19 11.5V12.5" stroke="black" stroke-width="2" stroke-linecap="round" stroke-linejoin="round"/>
</svg>
