<svg width="24" height="24" viewBox="0 0 24 24" fill="none" xmlns="http://www.w3.org/2000/svg">
<path d="M4 7V10H5.25M4 7H6.5M4 7V4H5.25M6.5 7C7.32843 7 8 7.67157 8 8.5C8 9.32843 7.32843 10 6.5 10H5.25M6.5 7C7.32843 7 8 6.32843 8 5.5C8 4.67157 7.32843 4 6.5 4H5.25M5.25 4V3M5.25 10V11M20 8H18M16 14H18M18 8H17.5C16.6716 8 16 8.67157 16 9.5C16 10.3284 16.6716 11 17.5 11H18.5C19.3284 11 20 11.6716 20 12.5C20 13.3284 19.3284 14 18.5 14H18M18 8V7M18 14V15M21 19L3 14M12.8 18.0667L13.8 19.4C14.2944 20.0592 13.824 21 13 21H11C10.176 21 9.70557 20.0592 10.2 19.4L11.2 18.0667C11.6 17.5333 12.4 17.5333 12.8 18.0667Z" stroke="black" stroke-width="2" stroke-linecap="round" stroke-linejoin="round"/>
</svg>
