<svg width="24" height="24" viewBox="0 0 24 24" fill="none" xmlns="http://www.w3.org/2000/svg">
<path fill-rule="evenodd" clip-rule="evenodd" d="M8.225 2C6.29574 2 4.57203 3.30842 4.25278 5.15271C2.98945 5.51507 2 6.60761 2 8.01181C2 9.74268 3.50335 11 5.16992 11H11.2801C13.2504 11 15 9.51706 15 7.50787C15 5.68068 13.553 4.28872 11.8089 4.05154C11.1293 2.80628 9.75127 2 8.225 2ZM6.2 5.77165C6.2 4.87373 7.02249 4 8.225 4C9.20934 4 9.96187 4.60205 10.1806 5.3107C10.31 5.72986 10.6975 6.01575 11.1361 6.01575H11.2801C12.3141 6.01575 13 6.76433 13 7.50787C13 8.25142 12.3141 9 11.2801 9H5.16992C4.43966 9 4 8.47704 4 8.01181C4 7.54658 4.43966 7.02362 5.16992 7.02362H5.21233C5.49458 7.02362 5.76368 6.90435 5.95324 6.69523C6.14279 6.48612 6.23516 6.20663 6.20753 5.92574C6.20256 5.87521 6.2 5.82383 6.2 5.77165ZM16.5 11C13.4624 11 11 13.4624 11 16.5C11 19.5376 13.4624 22 16.5 22C19.5376 22 22 19.5376 22 16.5C22 13.4624 19.5376 11 16.5 11ZM13 16.5C13 14.567 14.567 13 16.5 13C18.433 13 20 14.567 20 16.5C20 18.433 18.433 20 16.5 20C14.567 20 13 18.433 13 16.5ZM6.70711 12.2929C6.31658 11.9024 5.68342 11.9024 5.29289 12.2929L3.79289 13.7929C3.40237 14.1834 3.40237 14.8166 3.79289 15.2071C4.12008 15.5343 4.61757 15.5874 5 15.3663V16C5 17.6569 6.34315 19 8 19H9C9.55228 19 10 18.5523 10 18C10 17.4477 9.55228 17 9 17H8C7.44772 17 7 16.5523 7 16V15.3663C7.38243 15.5874 7.87993 15.5343 8.20711 15.2071C8.59763 14.8166 8.59763 14.1834 8.20711 13.7929L6.70711 12.2929ZM15.5 13.9H15.6583C15.7059 13.6162 15.9527 13.4 16.25 13.4C16.5473 13.4 16.7941 13.6162 16.8417 13.9H17C17.8837 13.9 18.6 14.6163 18.6 15.5C18.6 15.8784 18.4687 16.2261 18.2491 16.5C18.4687 16.7739 18.6 17.1216 18.6 17.5C18.6 18.3837 17.8837 19.1 17 19.1H16.8417C16.7941 19.3838 16.5473 19.6 16.25 19.6C15.9527 19.6 15.7059 19.3838 15.6583 19.1H15.5C15.1686 19.1 14.9 18.8314 14.9 18.5V16.5V14.5C14.9 14.1686 15.1686 13.9 15.5 13.9ZM17.4 15.5C17.4 15.7209 17.2209 15.9 17 15.9H16.1V15.1H16.25H17C17.2209 15.1 17.4 15.2791 17.4 15.5ZM17 17.1H16.1V17.9H16.25H17C17.2209 17.9 17.4 17.7209 17.4 17.5C17.4 17.2791 17.2209 17.1 17 17.1Z" fill="black"/>
</svg>
