<svg width="24" height="24" viewBox="0 0 24 24" fill="none" xmlns="http://www.w3.org/2000/svg">
<path d="M7 5V6C7 6.55228 6.55228 7 6 7H5M7 5V4C7 3.44772 6.55228 3 6 3H4C3.44772 3 3 3.44772 3 4V6C3 6.55228 3.44772 7 4 7H5M7 5H10M10 5V4C10 3.44772 10.4477 3 11 3H13C13.5523 3 14 3.44772 14 4V5M10 5V6C10 6.55228 10.4477 7 11 7H12M14 5V6C14 6.55228 13.5523 7 13 7H12M14 5H17M17 5V4C17 3.44772 17.4477 3 18 3H20C20.5523 3 21 3.44772 21 4V6C21 6.55228 20.5523 7 20 7H19M17 5V6C17 6.55228 17.4477 7 18 7H19M19 7V10M19 10H20C20.5523 10 21 10.4477 21 11V13C21 13.5523 20.5523 14 20 14H19M19 10H18C17.4477 10 17 10.4477 17 11V12M19 14H18C17.4477 14 17 13.5523 17 13V12M19 14V17M19 17H20C20.5523 17 21 17.4477 21 18V20C21 20.5523 20.5523 21 20 21H18C17.4477 21 17 20.5523 17 20V19M19 17H18C17.4477 17 17 17.4477 17 18V19M17 19H14M14 19V20C14 20.5523 13.5523 21 13 21H11C10.4477 21 10 20.5523 10 20V19M14 19V18C14 17.4477 13.5523 17 13 17H12M10 19V18C10 17.4477 10.4477 17 11 17H12M10 19H7M7 19V20C7 20.5523 6.55228 21 6 21H4C3.44772 21 3 20.5523 3 20V18C3 17.4477 3.44772 17 4 17H5M7 19V18C7 17.4477 6.55228 17 6 17H5M5 17V14M5 14H4C3.44772 14 3 13.5523 3 13V11C3 10.4477 3.44772 10 4 10H5M5 14H6C6.55228 14 7 13.5523 7 13V12M5 10H6C6.55228 10 7 10.4477 7 11V12M5 10V7M12 7V10M12 10H13C13.5523 10 14 10.4477 14 11V12M12 10H11C10.4477 10 10 10.4477 10 11V12M12 14H11C10.4477 14 10 13.5523 10 13V12M12 14H13C13.5523 14 14 13.5523 14 13V12M12 14V17M7 12H10M14 12H17" stroke="black" stroke-width="2" stroke-linecap="round" stroke-linejoin="round"/>
</svg>
