<svg width="24" height="24" viewBox="0 0 24 24" fill="none" xmlns="http://www.w3.org/2000/svg">
<path d="M7 5V6C7 6.55228 6.55228 7 6 7H5M7 5V4C7 3.44772 6.55228 3 6 3H4C3.44772 3 3 3.44772 3 4V6C3 6.55228 3.44772 7 4 7H5M7 5H17M17 5V4C17 3.44772 17.4477 3 18 3H20C20.5523 3 21 3.44772 21 4V6C21 6.55228 20.5523 7 20 7H19M17 5V6C17 6.55228 17.4477 7 18 7H19M19 7V17M19 17H20C20.5523 17 21 17.4477 21 18V20C21 20.5523 20.5523 21 20 21H18C17.4477 21 17 20.5523 17 20V19M19 17H18C17.4477 17 17 17.4477 17 18V19M17 19H7M7 19V20C7 20.5523 6.55228 21 6 21H4C3.44772 21 3 20.5523 3 20V18C3 17.4477 3.44772 17 4 17H5M7 19V18C7 17.4477 6.55228 17 6 17H5M5 17V7M10.5 9H10C9.44772 9 9 9.44772 9 10V10.5M10.5 9V8M10.5 9H13.5M13.5 9H14C14.5523 9 15 9.44772 15 10V10.5M13.5 9V8M15 10.5H16M15 10.5V13.5M15 13.5V14C15 14.5523 14.5523 15 14 15H13.5M15 13.5H16M13.5 15V16M13.5 15H10.5M10.5 15H10C9.44772 15 9 14.5523 9 14V13.5M10.5 15V16M9 13.5H8M9 13.5V10.5M9 10.5H8M12 12H12.01" stroke="black" stroke-width="2" stroke-linecap="round" stroke-linejoin="round"/>
</svg>
