<svg width="24" height="24" viewBox="0 0 24 24" fill="none" xmlns="http://www.w3.org/2000/svg">
<path d="M15 10.5V13.5H16.25M15 10.5H17.5M15 10.5V7.5H16.25M17.5 10.5C18.3284 10.5 19 11.1716 19 12C19 12.8284 18.3284 13.5 17.5 13.5H16.25M17.5 10.5C18.3284 10.5 19 9.82843 19 9C19 8.17157 18.3284 7.5 17.5 7.5H16.25M16.25 7.5V6.5M16.25 13.5V14.5M12 17H4C2.89543 17 2 16.1046 2 15V6C2 4.89543 2.89543 4 4 4H20C21.1046 4 22 4.89543 22 6V15C22 16.1046 21.1046 17 20 17H12ZM12 17V20M12 20H8M12 20H16M5.5 10V13M5.5 14.5V13M5.5 13H6.5M5.5 13H4.5M8.5 7V9M8.5 9V11.5M8.5 9H9.5M8.5 9H7.5M11.5 11V13M11.5 13V14M11.5 13H12.5M11.5 13H10.5" stroke="black" stroke-width="2" stroke-linecap="round" stroke-linejoin="round"/>
</svg>
