<svg width="24" height="24" viewBox="0 0 24 24" fill="none" xmlns="http://www.w3.org/2000/svg">
<path d="M9.6125 12.0001H7.36667M9.6125 12.0001H10.0208C10.8101 12.0001 11.45 12.64 11.45 13.4293C11.45 14.2186 10.8101 14.8584 10.0208 14.8584H9.7H8.65M9.6125 12.0001C10.4018 12.0001 11.0417 11.3603 11.0417 10.5709C11.0417 9.78164 10.4893 9.14167 9.7 9.14167L8.65 9.14178M7.36667 12.0001V14.8584M7.36667 12.0001V9.14178M7.36667 14.8584H6.55M7.36667 14.8584H8.65M6.55 9.14178H7.36667M7.36667 9.14178H8.65M8.65 9.14178V8.32512M8.65 14.8584V15.6751M22 9L19.7071 11.2929C19.3166 11.6834 19.3166 12.3166 19.7071 12.7071L22 15M9 19C5.13401 19 2 15.866 2 12C2 8.13401 5.13401 5 9 5C12.866 5 16 8.13401 16 12C16 15.866 12.866 19 9 19Z" stroke="black" stroke-width="2" stroke-linecap="round" stroke-linejoin="round"/>
</svg>
