<svg width="24" height="24" viewBox="0 0 24 24" fill="none" xmlns="http://www.w3.org/2000/svg">
<path d="M9.80957 5C10.9925 3.76733 12.6566 3 14.5 3C18.0898 3 21 5.91015 21 9.5C21 11.3434 20.2327 13.0075 19 14.1904M9.5 14.5C8.95559 14.1271 8.525 13.8216 8.00863 13.5452C4.7971 11.8265 4.79715 17.1735 8.00863 15.4548C8.525 15.1784 8.95559 14.8729 9.5 14.5ZM9.5 14.5C10.0444 14.1271 10.475 13.8216 10.9914 13.5452C14.2029 11.8265 14.2029 17.1735 10.9914 15.4548C10.475 15.1784 10.0444 14.8729 9.5 14.5ZM9.5 21C5.91015 21 3 18.0899 3 14.5C3 10.9101 5.91015 8 9.5 8C13.0899 8 16 10.9101 16 14.5C16 18.0899 13.0899 21 9.5 21Z" stroke="black" stroke-width="2" stroke-linecap="round" stroke-linejoin="round"/>
</svg>
