<svg width="24" height="24" viewBox="0 0 24 24" fill="none" xmlns="http://www.w3.org/2000/svg">
<path d="M6 9H6.76393C7.52148 9 8.214 9.428 8.55279 10.1056L10.4472 13.8944C10.786 14.572 11.4785 15 12.2361 15H13M11 9H11.7639C12.5215 9 13.214 9.428 13.5528 10.1056L15.4472 13.8944C15.786 14.572 16.4785 15 17.2361 15H18M16.5 9H17C17.5523 9 18 9.44772 18 10V10.5M6 15H7M12 22V22C17.5228 22 22 17.5228 22 12V12C22 6.47715 17.5228 2 12 2V2C6.47715 2 2 6.47715 2 12V12C2 17.5228 6.47715 22 12 22Z" stroke="black" stroke-width="2" stroke-linecap="round" stroke-linejoin="round"/>
</svg>
