<svg width="24" height="24" viewBox="0 0 24 24" fill="none" xmlns="http://www.w3.org/2000/svg">
<path fill-rule="evenodd" clip-rule="evenodd" d="M12 1C10.8954 1 10 1.89543 10 3C10 3.74028 10.4022 4.38663 11 4.73244V8C11 8.55228 11.4477 9 12 9C12.5523 9 13 8.55228 13 8V4.73244C13.5978 4.38663 14 3.74028 14 3C14 1.89543 13.1046 1 12 1ZM5 2C3.89543 2 3 2.89543 3 4C3 5.10457 3.89543 6 5 6C5.74028 6 6.38663 5.5978 6.73244 5H7.5V8C7.5 8.55228 7.94772 9 8.5 9C9.05228 9 9.5 8.55228 9.5 8V5C9.5 3.89543 8.60457 3 7.5 3H6.73244C6.38663 2.4022 5.74028 2 5 2ZM19 2C18.2597 2 17.6134 2.4022 17.2676 3H16.5C15.3954 3 14.5 3.89543 14.5 5V8C14.5 8.55228 14.9477 9 15.5 9C16.0523 9 16.5 8.55228 16.5 8V5H17.2676C17.6134 5.5978 18.2597 6 19 6C20.1046 6 21 5.10457 21 4C21 2.89543 20.1046 2 19 2ZM5.74926 10.0314C6.28411 9.89378 6.6061 9.3486 6.46844 8.81375C6.33078 8.2789 5.78559 7.95691 5.25074 8.09457C3.95704 8.42755 3 9.60075 3 11V17C3 18.6569 4.34315 20 6 20H11V21H8C7.44772 21 7 21.4477 7 22C7 22.5523 7.44772 23 8 23H12H16C16.5523 23 17 22.5523 17 22C17 21.4477 16.5523 21 16 21H13V20H18C19.6569 20 21 18.6569 21 17V11C21 9.60075 20.043 8.42755 18.7493 8.09457C18.2144 7.95691 17.6692 8.2789 17.5316 8.81375C17.3939 9.3486 17.7159 9.89378 18.2507 10.0314C18.6823 10.1425 19 10.5354 19 11V17C19 17.5523 18.5523 18 18 18H12H6C5.44772 18 5 17.5523 5 17V11C5 10.5354 5.31774 10.1425 5.74926 10.0314ZM12.4375 10.25C12.4375 9.83579 12.1017 9.5 11.6875 9.5C11.2733 9.5 10.9375 9.83579 10.9375 10.25V10.3125H10.75C10.3358 10.3125 10 10.6483 10 11.0625V13.5V15.9375C10 16.3517 10.3358 16.6875 10.75 16.6875H10.9375V16.75C10.9375 17.1642 11.2733 17.5 11.6875 17.5C12.1017 17.5 12.4375 17.1642 12.4375 16.75V16.6875H12.625C13.7159 16.6875 14.5 15.7484 14.5 14.7188C14.5 14.2725 14.3527 13.8432 14.0969 13.5C14.3527 13.1568 14.5 12.7275 14.5 12.2812C14.5 11.2516 13.7159 10.3125 12.625 10.3125H12.4375V10.25ZM11.5 12.75V11.8125H11.6875H12.625C12.7767 11.8125 13 11.9647 13 12.2812C13 12.5978 12.7767 12.75 12.625 12.75H11.5ZM11.5 14.25H12.625C12.7767 14.25 13 14.4022 13 14.7188C13 15.0353 12.7767 15.1875 12.625 15.1875H11.6875H11.5V14.25Z" fill="black"/>
</svg>
