<svg width="24" height="24" viewBox="0 0 24 24" fill="none" xmlns="http://www.w3.org/2000/svg">
<path fill-rule="evenodd" clip-rule="evenodd" d="M12 1C5.92487 1 1 5.92487 1 12C1 18.0751 5.92487 23 12 23C18.0751 23 23 18.0751 23 12C23 5.92487 18.0751 1 12 1ZM3 12C3 7.02944 7.02944 3 12 3C16.9706 3 21 7.02944 21 12C21 16.9706 16.9706 21 12 21C7.02944 21 3 16.9706 3 12ZM6 14.5C5.72386 14.5 5.5 14.2761 5.5 14V11C5.5 10.1716 6.17157 9.5 7 9.5C7.82843 9.5 8.5 10.1716 8.5 11V14C8.5 14.2761 8.27614 14.5 8 14.5H6ZM11 14.5C10.7239 14.5 10.5 14.2761 10.5 14V11C10.5 10.1716 11.1716 9.5 12 9.5C12.8284 9.5 13.5 10.1716 13.5 11V14C13.5 14.2761 13.2761 14.5 13 14.5H11ZM15.5 14C15.5 14.2761 15.7239 14.5 16 14.5H18C18.2761 14.5 18.5 14.2761 18.5 14V11C18.5 10.1716 17.8284 9.5 17 9.5C16.1716 9.5 15.5 10.1716 15.5 11V14Z" fill="black"/>
</svg>
