<svg width="24" height="24" viewBox="0 0 24 24" fill="none" xmlns="http://www.w3.org/2000/svg">
<path fill-rule="evenodd" clip-rule="evenodd" d="M5 2C3.34315 2 2 3.34315 2 5V19C2 20.6569 3.34315 22 5 22H13C14.6569 22 16 20.6569 16 19V16C16 15.4477 15.5523 15 15 15C14.4477 15 14 15.4477 14 16V19C14 19.5523 13.5523 20 13 20H5C4.44772 20 4 19.5523 4 19V5C4 4.44772 4.44772 4 5 4H9C9.55228 4 10 3.55228 10 3C10 2.44772 9.55228 2 9 2H5ZM15.7896 2C12.3596 2 9.5791 4.78055 9.5791 8.21053C9.5791 8.87586 9.68408 9.51864 9.87912 10.1221C10.0088 10.5233 10.0179 10.8459 9.93681 11.084L9.70887 11.7533C9.17372 13.3247 10.6754 14.8264 12.2468 14.2913L12.9162 14.0633L12.5938 13.1167L12.9162 14.0633C13.1542 13.9823 13.4769 13.9914 13.8781 14.121C14.4815 14.3161 15.1243 14.4211 15.7896 14.4211C19.2196 14.4211 22.0002 11.6405 22.0002 8.21053C22.0002 4.78055 19.2196 2 15.7896 2ZM11.5791 8.21053C11.5791 5.88512 13.4642 4 15.7896 4C18.115 4 20.0002 5.88512 20.0002 8.21053C20.0002 10.5359 18.115 12.4211 15.7896 12.4211C15.3356 12.4211 14.9003 12.3496 14.4932 12.218C13.8586 12.0129 13.0637 11.9003 12.2714 12.1701L11.6021 12.3981L11.83 11.7287C12.0999 10.9364 11.9873 10.1416 11.7822 9.50698C11.6506 9.09984 11.5791 8.66451 11.5791 8.21053ZM9 17C8.44772 17 8 17.4477 8 18C8 18.5523 8.44772 19 9 19H9.01C9.56228 19 10.01 18.5523 10.01 18C10.01 17.4477 9.56228 17 9.01 17H9ZM14.7502 5.65H14.9085C14.9561 5.36623 15.2029 5.15 15.5002 5.15C15.7975 5.15 16.0443 5.36623 16.0919 5.65H16.2502C17.1338 5.65 17.8502 6.36634 17.8502 7.25C17.8502 7.62838 17.7188 7.97608 17.4992 8.25C17.7188 8.52392 17.8502 8.87162 17.8502 9.25C17.8502 10.1337 17.1338 10.85 16.2502 10.85H16.0919C16.0443 11.1338 15.7975 11.35 15.5002 11.35C15.2029 11.35 14.9561 11.1338 14.9085 10.85H14.7502C14.4188 10.85 14.1502 10.5814 14.1502 10.25V8.25V6.25C14.1502 5.91863 14.4188 5.65 14.7502 5.65ZM16.6502 7.25C16.6502 7.47091 16.4711 7.65 16.2502 7.65H15.3502V6.85H15.5002H16.2502C16.4711 6.85 16.6502 7.02909 16.6502 7.25ZM16.2502 8.85H15.3502V9.65H15.5002H16.2502C16.4711 9.65 16.6502 9.47091 16.6502 9.25C16.6502 9.02909 16.4711 8.85 16.2502 8.85Z" fill="black"/>
</svg>
