<svg width="24" height="24" viewBox="0 0 24 24" fill="none" xmlns="http://www.w3.org/2000/svg">
<path d="M9.80957 5C10.9925 3.76733 12.6566 3 14.5 3C18.0898 3 21 5.91015 21 9.5C21 11.3434 20.2327 13.0075 19 14.1904M7.5 16.75L9.5 17.7L11.5 16.75M9.5 10.85L7.5 13.75L9.5 14.7L11.5 13.75L9.5 10.85ZM9.5 21C5.91015 21 3 18.0899 3 14.5C3 10.9101 5.91015 8 9.5 8C13.0899 8 16 10.9101 16 14.5C16 18.0899 13.0899 21 9.5 21Z" stroke="black" stroke-width="2" stroke-linecap="round" stroke-linejoin="round"/>
</svg>
