<svg width="24" height="24" viewBox="0 0 24 24" fill="none" xmlns="http://www.w3.org/2000/svg">
<path d="M16.375 12.375L15.75 12.75L14.5 13.5L13.029 14.3826C12.3956 14.7626 11.6044 14.7626 10.971 14.3826L9.5 13.5L8.25 12.75L7.625 12.375M16.375 15.875L15.75 16.25L14.5 17L13.029 17.8826C12.3956 18.2626 11.6044 18.2626 10.971 17.8826L9.5 17L8.25 16.25L7.625 15.875M16.2854 8.92875L13.029 10.8826C12.3956 11.2626 11.6044 11.2626 10.971 10.8826L7.71458 8.92875C7.39091 8.73454 7.39091 8.26545 7.71458 8.07125L10.971 6.11739C11.6044 5.73738 12.3956 5.73738 13.029 6.1174L16.2854 8.07125C16.6091 8.26546 16.6091 8.73455 16.2854 8.92875ZM12 22V22C17.5228 22 22 17.5228 22 12V12C22 6.47715 17.5228 2 12 2V2C6.47715 2 2 6.47715 2 12V12C2 17.5228 6.47715 22 12 22Z" stroke="black" stroke-width="2" stroke-linecap="round" stroke-linejoin="round"/>
</svg>
