<svg width="24" height="24" viewBox="0 0 24 24" fill="none" xmlns="http://www.w3.org/2000/svg">
<path fill-rule="evenodd" clip-rule="evenodd" d="M16.7896 3C13.3597 3 10.5791 5.78055 10.5791 9.21053C10.5791 9.87586 10.6841 10.5186 10.8791 11.1221C11.0088 11.5233 11.0179 11.8459 10.9368 12.084L10.7089 12.7533C10.1737 14.3247 11.6754 15.8264 13.2468 15.2913L13.9162 15.0633C14.1542 14.9823 14.4769 14.9914 14.8781 15.121C15.4815 15.3161 16.1243 15.4211 16.7896 15.4211C20.2196 15.4211 23.0002 12.6405 23.0002 9.21053C23.0002 5.78055 20.2196 3 16.7896 3ZM12.5791 9.21053C12.5791 6.88512 14.4642 5 16.7896 5C19.115 5 21.0002 6.88512 21.0002 9.21053C21.0002 11.5359 19.115 13.4211 16.7896 13.4211C16.3356 13.4211 15.9003 13.3496 15.4932 13.218C14.8586 13.0129 14.0637 12.9003 13.2714 13.1701L12.6021 13.3981L12.83 12.7287C13.0999 11.9364 12.9873 11.1416 12.7822 10.507C12.6506 10.0998 12.5791 9.66451 12.5791 9.21053ZM4.4 6C2.50767 6 1 7.55369 1 9.4375V14.7188C1 16.6026 2.50767 18.1562 4.4 18.1562H10H15.6C16.1523 18.1562 16.6 17.7085 16.6 17.1562C16.6 16.604 16.1523 16.1562 15.6 16.1562H10H4.4C3.64136 16.1562 3 15.5273 3 14.7188V9.4375C3 8.62892 3.64136 8 4.4 8H8.5C9.05228 8 9.5 7.55228 9.5 7C9.5 6.44772 9.05228 6 8.5 6H4.4ZM6.42362 19.0735C5.91195 19.2814 5.66567 19.8647 5.87353 20.3764C6.0814 20.8881 6.6647 21.1343 7.17638 20.9265C8.93504 20.212 11.065 20.212 12.8236 20.9265C13.3353 21.1343 13.9186 20.8881 14.1265 20.3764C14.3343 19.8647 14.088 19.2814 13.5764 19.0735C11.335 18.163 8.66496 18.163 6.42362 19.0735ZM15.7502 6.65H15.9085C15.9561 6.36623 16.2029 6.15 16.5002 6.15C16.7975 6.15 17.0443 6.36623 17.0919 6.65H17.2502C18.1338 6.65 18.8502 7.36634 18.8502 8.25C18.8502 8.62838 18.7188 8.97608 18.4992 9.25C18.7188 9.52392 18.8502 9.87162 18.8502 10.25C18.8502 11.1337 18.1338 11.85 17.2502 11.85H17.0919C17.0443 12.1338 16.7975 12.35 16.5002 12.35C16.2029 12.35 15.9561 12.1338 15.9085 11.85H15.7502C15.4188 11.85 15.1502 11.5814 15.1502 11.25V9.25V7.25C15.1502 6.91863 15.4188 6.65 15.7502 6.65ZM17.6502 8.25C17.6502 8.47091 17.4711 8.65 17.2502 8.65H16.3502V7.85H16.5002H17.2502C17.4711 7.85 17.6502 8.02909 17.6502 8.25ZM17.2502 9.85H16.3502V10.65H16.5002H17.2502C17.4711 10.65 17.6502 10.4709 17.6502 10.25C17.6502 10.0291 17.4711 9.85 17.2502 9.85Z" fill="black"/>
</svg>
