<svg width="24" height="24" viewBox="0 0 24 24" fill="none" xmlns="http://www.w3.org/2000/svg">
<path d="M9.80957 5C10.9925 3.76733 12.6566 3 14.5 3C18.0898 3 21 5.91015 21 9.5C21 11.3434 20.2327 13.0075 19 14.1904M6.9 11.25H8.2M8.2 11.25H9.5C11.2949 11.25 12.75 12.7051 12.75 14.5C12.75 16.2949 11.2949 17.75 9.5 17.75H8.2M8.2 11.25V17.75M8.2 17.75H6.9M9.5 21C5.91015 21 3 18.0899 3 14.5C3 10.9101 5.91015 8 9.5 8C13.0899 8 16 10.9101 16 14.5C16 18.0899 13.0899 21 9.5 21Z" stroke="black" stroke-width="2" stroke-linecap="round" stroke-linejoin="round"/>
</svg>
