<svg width="24" height="24" viewBox="0 0 24 24" fill="none" xmlns="http://www.w3.org/2000/svg">
<path d="M21 15.3998V16.2309C21 16.6138 20.7813 16.9631 20.4369 17.1304L16.4369 19.0732C16.161 19.2072 15.839 19.2072 15.5631 19.0732L12.5631 17.6161C12.2187 17.4488 12 17.0995 12 16.7166V14.9141M3 8.59984V7.76872C3 7.3858 3.21866 7.0365 3.5631 6.86921L7.5631 4.92637C7.83896 4.79239 8.16104 4.79239 8.4369 4.92637L11.4369 6.3835C11.7813 6.5508 12 6.90009 12 7.28301V9.08547M10.5312 2.72856L11.3065 2.2937C11.6288 2.11294 12.0245 2.12465 12.3356 2.32414L16.0683 4.71826C16.3367 4.89038 16.5069 5.18013 16.5265 5.49833L16.7245 8.70189C16.7482 9.08506 16.5504 9.44796 16.2156 9.63575L14.5982 10.5428M13.469 21.2714L12.6936 21.7063C12.3713 21.8871 11.9756 21.8754 11.6646 21.6759L7.93182 19.2817C7.66347 19.1096 7.49326 18.8199 7.4736 18.5017L7.27566 15.2981C7.25198 14.9149 7.44975 14.552 7.78459 14.3642L9.40193 13.4572M19.5312 6.12845L20.2825 6.54986C20.6174 6.73765 20.8152 7.10055 20.7915 7.48372L20.5265 11.7714C20.5069 12.0896 20.3367 12.3794 20.0683 12.5515L17.2686 14.3472C16.9576 14.5467 16.5618 14.5584 16.2396 14.3776L14.5982 13.4571M4.46898 17.8714L3.7176 17.45C3.38276 17.2622 3.18499 16.8993 3.20867 16.5161L3.4736 12.2284C3.49326 11.9102 3.66347 11.6205 3.93182 11.4484L6.73155 9.65267C7.0426 9.45317 7.4383 9.44146 7.7606 9.62222L9.40193 10.5428" stroke="black" stroke-width="2" stroke-linecap="round" stroke-linejoin="round"/>
</svg>
