<svg width="24" height="24" viewBox="0 0 24 24" fill="none" xmlns="http://www.w3.org/2000/svg">
<path d="M10.0687 14.5001H7.98333M10.0687 14.5001H10.4479C11.1808 14.5001 11.775 15.0943 11.775 15.8272C11.775 16.5601 11.1808 17.1543 10.4479 17.1543H10.15H9.175M10.0687 14.5001C10.8017 14.5001 11.3958 13.906 11.3958 13.173C11.3958 12.4401 10.8829 11.8458 10.15 11.8458L9.175 11.8459M7.98333 14.5001V17.1543M7.98333 14.5001V11.8459M7.98333 17.1543H7.225M7.98333 17.1543H9.175M7.225 11.8459H7.98333M7.98333 11.8459H9.175M9.175 11.8459V11.0876M9.175 17.1543V17.9126M9.80957 5C10.9925 3.76733 12.6566 3 14.5 3C18.0899 3 21 5.91015 21 9.5C21 11.3434 20.2327 13.0075 19 14.1904M9.5 21C5.91015 21 3 18.0899 3 14.5C3 10.9101 5.91015 8 9.5 8C13.0899 8 16 10.9101 16 14.5C16 18.0899 13.0899 21 9.5 21Z" stroke="black" stroke-width="2" stroke-linecap="round" stroke-linejoin="round"/>
</svg>
