<svg width="24" height="24" viewBox="0 0 24 24" fill="none" xmlns="http://www.w3.org/2000/svg">
<path d="M8 7H11M11 11L9 17H11M11 7H12C12.7111 7 13.3875 7.14845 14 7.41604M11 7V5.5M11 17H12C12.7111 17 13.3875 16.8516 14 16.584M11 17V18.5M14 16.584C15.7659 15.8124 17 14.0503 17 12C17 9.94968 15.7659 8.1876 14 7.41604M14 16.584V18.5M14 7.41604V5.5M12 22C6.47715 22 2 17.5228 2 12C2 6.47715 6.47715 2 12 2C17.5228 2 22 6.47715 22 12C22 17.5228 17.5228 22 12 22Z" stroke="black" stroke-width="2" stroke-linecap="round" stroke-linejoin="round"/>
</svg>
