<svg width="24" height="24" viewBox="0 0 24 24" fill="none" xmlns="http://www.w3.org/2000/svg">
<path d="M12 12C11.1624 11.4264 10.5 10.9562 9.70558 10.5311C4.76477 7.88694 4.76484 16.1131 9.70558 13.4689C10.5 13.0437 11.1624 12.5737 12 12ZM12 12C12.8376 11.4264 13.5 10.9562 14.2944 10.5311C19.2352 7.88694 19.2352 16.1131 14.2944 13.4689C13.5 13.0437 12.8376 12.5737 12 12ZM12 22V22C17.5228 22 22 17.5228 22 12V12C22 6.47715 17.5228 2 12 2V2C6.47715 2 2 6.47715 2 12V12C2 17.5228 6.47715 22 12 22Z" stroke="black" stroke-width="2" stroke-linecap="round" stroke-linejoin="round"/>
</svg>
