<svg width="24" height="24" viewBox="0 0 24 24" fill="none" xmlns="http://www.w3.org/2000/svg">
<path fill-rule="evenodd" clip-rule="evenodd" d="M16.7895 3C13.3595 3 10.5789 5.78055 10.5789 9.21053C10.5789 9.87586 10.6839 10.5186 10.879 11.1221C11.0086 11.5233 11.0177 11.8459 10.9367 12.084L10.7087 12.7533C10.1736 14.3247 11.6753 15.8264 13.2467 15.2913L13.916 15.0633L13.5936 14.1167L13.916 15.0633C14.1541 14.9823 14.4767 14.9914 14.8779 15.121C15.4814 15.3161 16.1241 15.4211 16.7895 15.4211C20.2195 15.4211 23 12.6405 23 9.21053C23 5.78055 20.2195 3 16.7895 3ZM12.5789 9.21053C12.5789 6.88512 14.4641 5 16.7895 5C19.1149 5 21 6.88512 21 9.21053C21 11.5359 19.1149 13.4211 16.7895 13.4211C16.3355 13.4211 15.9002 13.3496 15.493 13.218C14.8584 13.0129 14.0636 12.9003 13.2713 13.1701L12.6019 13.3981L12.8299 12.7287C13.0997 11.9364 12.9871 11.1416 12.782 10.507C12.6504 10.0998 12.5789 9.66451 12.5789 9.21053ZM4.35 9.71429C4.35 9.36521 4.66163 9 5.15 9H8.5C9.05228 9 9.5 8.55228 9.5 8C9.5 7.44772 9.05228 7 8.5 7H5.15C3.65014 7 2.35 8.16981 2.35 9.71429V16.4286H2C1.44772 16.4286 1 16.8763 1 17.4286V18.2857C1 19.8302 2.30014 21 3.8 21H18.2C19.6999 21 21 19.8302 21 18.2857V17.4286C21 16.8763 20.5523 16.4286 20 16.4286H18.65H4.35V9.71429ZM3.8 19C3.37829 19 3.08836 18.7277 3.01707 18.4286H3.35H18.65H18.9829C18.9116 18.7277 18.6217 19 18.2 19H3.8ZM15.75 6.65H15.9083C15.9559 6.36623 16.2027 6.15 16.5 6.15C16.7973 6.15 17.0441 6.36623 17.0917 6.65H17.25C18.1337 6.65 18.85 7.36634 18.85 8.25C18.85 8.62838 18.7187 8.97608 18.4991 9.25C18.7187 9.52392 18.85 9.87162 18.85 10.25C18.85 11.1337 18.1337 11.85 17.25 11.85H17.0917C17.0441 12.1338 16.7973 12.35 16.5 12.35C16.2027 12.35 15.9559 12.1338 15.9083 11.85H15.75C15.4186 11.85 15.15 11.5814 15.15 11.25V9.25V7.25C15.15 6.91863 15.4186 6.65 15.75 6.65ZM17.65 8.25C17.65 8.47091 17.4709 8.65 17.25 8.65H16.35V7.85H16.5H17.25C17.4709 7.85 17.65 8.02909 17.65 8.25ZM17.25 9.85H16.35V10.65H16.5H17.25C17.4709 10.65 17.65 10.4709 17.65 10.25C17.65 10.0291 17.4709 9.85 17.25 9.85Z" fill="black"/>
</svg>
