<svg width="24" height="24" viewBox="0 0 24 24" fill="none" xmlns="http://www.w3.org/2000/svg">
<path d="M18.3 9.5C19.7912 9.5 21 10.6753 21 12.125V13M18.3 9.5V8.625C18.3 8.40962 18.2733 8.20031 18.223 8M18.3 9.5H16M4.8 6C3.80589 6 3 6.7835 3 7.75M3 7.75C3 8.7165 3.80589 9.5 4.8 9.5H7M3 7.75V17.375C3 18.8247 4.20883 20 5.7 20H18.3C19.7912 20 21 18.8247 21 17.375V16.5M21 13H17.4C16.4059 13 15.6 13.7835 15.6 14.75C15.6 15.7165 16.4059 16.5 17.4 16.5H21M21 13V16.5M7 9.5V8.5C7 6.01472 9.01472 4 11.5 4V4C13.9853 4 16 6.01472 16 8.5V9.5M7 9.5H11.5M16 9.5H11.5M11.5 9.5V8" stroke="black" stroke-width="2" stroke-linecap="round" stroke-linejoin="round"/>
</svg>
