<svg width="24" height="24" viewBox="0 0 24 24" fill="none" xmlns="http://www.w3.org/2000/svg">
<path d="M16 7V10H17.25M16 7H18.5M16 7V4H17.25M18.5 7C19.3284 7 20 7.67157 20 8.5C20 9.32843 19.3284 10 18.5 10H17.25M18.5 7C19.3284 7 20 6.32843 20 5.5C20 4.67157 19.3284 4 18.5 4H17.25M17.25 4V3M17.25 10V11M3 18.9999L21 13.9999M8 7.9999H6M4 13.9999H6M6 7.9999H5.5C4.67157 7.9999 4 8.67147 4 9.4999C4 10.3283 4.67157 10.9999 5.5 10.9999H6.5C7.32843 10.9999 8 11.6715 8 12.4999C8 13.3283 7.32843 13.9999 6.5 13.9999H6M6 7.9999V6.9999M6 13.9999V14.9999M11.2 18.0666L10.2 19.3999C9.70557 20.0591 10.176 20.9999 11 20.9999H13C13.824 20.9999 14.2944 20.0591 13.8 19.3999L12.8 18.0666C12.4 17.5332 11.6 17.5332 11.2 18.0666Z" stroke="black" stroke-width="2" stroke-linecap="round" stroke-linejoin="round"/>
</svg>
