<svg width="24" height="24" viewBox="0 0 24 24" fill="none" xmlns="http://www.w3.org/2000/svg">
<path d="M16 10V13H17.25M16 10H18.5M16 10V7H17.25M18.5 10C19.3284 10 20 10.6716 20 11.5C20 12.3284 19.3284 13 18.5 13H17.25M18.5 10C19.3284 10 20 9.32843 20 8.5C20 7.67157 19.3284 7 18.5 7H17.25M17.25 7V6M17.25 13V14M8 3.9999H6M4 9.9999H6M6 3.9999H5.5C4.67157 3.9999 4 4.67147 4 5.4999C4 6.32833 4.67157 6.9999 5.5 6.9999H6.5C7.32843 6.9999 8 7.67147 8 8.4999C8 9.32833 7.32843 9.9999 6.5 9.9999H6M6 3.9999V2.9999M6 9.9999V10.9999M21 19L3 14M12.8 18.0667L13.8 19.4C14.2944 20.0592 13.824 21 13 21H11C10.176 21 9.70557 20.0592 10.2 19.4L11.2 18.0667C11.6 17.5333 12.4 17.5333 12.8 18.0667Z" stroke="black" stroke-width="2" stroke-linecap="round" stroke-linejoin="round"/>
</svg>
