<svg width="24" height="24" viewBox="0 0 24 24" fill="none" xmlns="http://www.w3.org/2000/svg">
<path d="M5 12.2009H5.01M12.0002 7V5C12.0002 4.44772 11.5525 4 11.0002 4H8.00019M8.00019 4V4C8.00019 3.44772 7.55247 3 7.00019 3V3C6.4479 3 6.00019 3.44772 6.00019 4V4C6.00019 4.55228 6.4479 5 7.00019 5V5C7.55247 5 8.00019 4.55228 8.00019 4V4ZM12.0002 17V19C12.0002 19.5523 11.5525 20 11.0002 20H8.00019M8.00019 20V20C8.00019 19.4477 7.55247 19 7.00019 19V19C6.4479 19 6.00019 19.4477 6.00019 20V20C6.00019 20.5523 6.4479 21 7.00019 21V21C7.55247 21 8.00019 20.5523 8.00019 20V20ZM16.0002 7V6C16.0002 5.44772 16.4479 5 17.0002 5H19.0002M19.0002 5V5C19.0002 4.44772 19.4479 4 20.0002 4V4C20.5525 4 21.0002 4.44772 21.0002 5V5C21.0002 5.55228 20.5525 6 20.0002 6V6C19.4479 6 19.0002 5.55228 19.0002 5V5ZM16.0002 17V18C16.0002 18.5523 16.4479 19 17.0002 19H19.0002M19.0002 19V19C19.0002 18.4477 19.4479 18 20.0002 18V18C20.5525 18 21.0002 18.4477 21.0002 19V19C21.0002 19.5523 20.5525 20 20.0002 20V20C19.4479 20 19.0002 19.5523 19.0002 19V19ZM3.13477 15.1532C4.8109 17.0289 7.73275 17.2276 9.66091 15.5971C10.0804 15.2424 10.4183 14.8303 10.673 14.3832C10.872 14.034 11.2431 13.7909 11.6527 13.8188L13.3312 13.9329C13.576 13.9496 13.8175 13.871 14.0027 13.7144L14.7609 13.0733C14.9537 12.9102 15.2459 12.9301 15.4135 13.1177L16.0205 13.7969C16.1881 13.9845 16.4803 14.0043 16.6731 13.8413L17.7205 12.9556C17.9133 12.7926 18.2055 12.8124 18.3731 13L18.98 13.6792C19.3153 14.0544 19.8996 14.0941 20.2853 13.768L21.6818 12.5871C22.0674 12.261 22.1083 11.6926 21.773 11.3174L20.2275 9.58792C20.0525 9.39205 19.7991 9.27922 19.5323 9.27838L10.5371 9.24998C10.2703 9.24914 10.0202 9.13248 9.82788 8.95264C8.12074 7.35659 5.41256 7.26448 3.59112 8.80473C1.66296 10.4352 1.45864 13.2775 3.13477 15.1532Z" stroke="black" stroke-width="2" stroke-linecap="round" stroke-linejoin="round"/>
</svg>
