<svg width="24" height="24" viewBox="0 0 24 24" fill="none" xmlns="http://www.w3.org/2000/svg">
<path d="M16.6569 16.6569C19.781 13.5327 19.781 8.46734 16.6569 5.34315C13.5327 2.21895 8.46734 2.21895 5.34315 5.34315C2.21895 8.46734 2.21895 13.5327 5.34315 16.6569C8.46734 19.781 13.5327 19.781 16.6569 16.6569ZM16.6569 16.6569L21 21M13 11V11C13 11.8284 13.6716 12.5 14.5 12.5V12.5C15.3284 12.5 16 11.8284 16 11V11C16 10.1716 15.3284 9.5 14.5 9.5V9.5C13.6716 9.5 13 10.1716 13 11V11ZM13 11H8.5M6 12.5V11H8.5M8.5 11V12.5" stroke="black" stroke-width="2" stroke-linecap="round" stroke-linejoin="round"/>
</svg>
