<svg width="24" height="24" viewBox="0 0 24 24" fill="none" xmlns="http://www.w3.org/2000/svg">
<path d="M14 11H13H11H10M14 11V9C14 7.89543 13.1046 7 12 7V7C10.8954 7 10 7.89543 10 9V11M14 11C14.9319 11 15.715 11.6374 15.937 12.5M10 11C9.06808 11 8.28503 11.6374 8.06301 12.5M19.5 9V9C18.6716 9 18 8.32843 18 7.5V7.5C18 6.67157 18.6716 6 19.5 6V6C20.3284 6 21 6.67157 21 7.5V7.5C21 8.32843 20.3284 9 19.5 9V9ZM19.5 9V11.5C19.5 12.0523 19.0523 12.5 18.5 12.5H15.937M15.937 12.5C15.9781 12.6598 16 12.8274 16 13V15C16 15.1726 15.9781 15.3402 15.937 15.5M15.937 15.5C15.715 16.3626 14.9319 17 14 17H10C9.06808 17 8.28503 16.3626 8.06301 15.5M15.937 15.5H17.5C18.0523 15.5 18.5 15.9477 18.5 16.5V18M18.5 18V18C19.3284 18 20 18.6716 20 19.5V19.5C20 20.3284 19.3151 21 18.4867 21V21C17.6583 21 16.9734 20.3284 16.9734 19.5V19.5C16.9734 18.6716 17.645 18 18.4734 18H18.5ZM8.06301 12.5C8.02188 12.6598 8 12.8274 8 13V15C8 15.1726 8.02188 15.3402 8.06301 15.5M8.06301 12.5H6.5C5.94771 12.5 5.5 12.0523 5.5 11.5V6M5.5 6V6C4.67157 6 4 5.32843 4 4.5V4.5C4 3.67157 4.67157 3 5.5 3V3C6.32843 3 7 3.67157 7 4.5V4.5C7 5.32843 6.32843 6 5.5 6V6ZM8.06301 15.5H5.5C4.94771 15.5 4.5 15.9477 4.5 16.5V18M4.5 18V18C5.32843 18 6 18.6716 6 19.5V19.5C6 20.3284 5.32843 21 4.5 21V21C3.67157 21 3 20.3284 3 19.5V19.5C3 18.6716 3.67157 18 4.5 18V18ZM12 14H12.01" stroke="black" stroke-width="2" stroke-linecap="round" stroke-linejoin="round"/>
</svg>
