<svg width="24" height="24" viewBox="0 0 24 24" fill="none" xmlns="http://www.w3.org/2000/svg">
<path d="M5 12C5 15.866 8.13401 19 12 19C15.866 19 19 15.866 19 12M5 12C5 8.13401 8.13401 5 12 5C15.866 5 19 8.13401 19 12M5 12V22M19 12V2M12.7125 12.0001H10.4667M12.7125 12.0001H13.1208C13.9101 12.0001 14.55 12.64 14.55 13.4293C14.55 14.2186 13.9101 14.8584 13.1208 14.8584H12.8H11.75M12.7125 12.0001C13.5018 12.0001 14.1417 11.3603 14.1417 10.5709C14.1417 9.78164 13.5893 9.14167 12.8 9.14167L11.75 9.14178M10.4667 12.0001V14.8584M10.4667 12.0001V9.14178M10.4667 14.8584H9.65M10.4667 14.8584H11.75M9.65 9.14178H10.4667M10.4667 9.14178H11.75M11.75 9.14178V8.32512M11.75 14.8584V15.6751M19 2L21 4M19 2L17 4M5 22L3 20M5 22L7 20" stroke="black" stroke-width="2" stroke-linecap="round" stroke-linejoin="round"/>
</svg>
