<svg width="24" height="24" viewBox="0 0 24 24" fill="none" xmlns="http://www.w3.org/2000/svg">
<path d="M5 12C5 8.13401 8.13401 5 12 5C15.866 5 19 8.13401 19 12M5 12C5 15.866 8.13401 19 12 19C15.866 19 19 15.866 19 12M5 12V2M19 12V22M19 22L21 20M19 22L17 20M5 2L3 4M5 2L7 4M12.7124 12.0002H10.4666M12.7124 12.0002H13.1207C13.91 12.0002 14.5499 12.6401 14.5499 13.4294C14.5499 14.2187 13.91 14.8585 13.1207 14.8585H12.7999H11.7499M12.7124 12.0002C13.5017 12.0002 14.1416 11.3603 14.1416 10.571C14.1416 9.78172 13.5892 9.14175 12.7999 9.14175L11.7499 9.14186M10.4666 12.0002V14.8585M10.4666 12.0002V9.14186M10.4666 14.8585H9.6499M10.4666 14.8585H11.7499M9.6499 9.14186H10.4666M10.4666 9.14186H11.7499M11.7499 9.14186V8.3252M11.7499 14.8585V15.6752" stroke="black" stroke-width="2" stroke-linecap="round" stroke-linejoin="round"/>
</svg>
