<svg width="24" height="24" viewBox="0 0 24 24" fill="none" xmlns="http://www.w3.org/2000/svg">
<path d="M4 18C2.89543 18 2 17.1046 2 16V8C2 6.89543 2.89543 6 4 6M4 18V20M4 18H8M20 18C21.1046 18 22 17.1046 22 16V8C22 6.89543 21.1046 6 20 6M20 18V20M20 18H16M20 6H16M20 6V4M4 6H8M4 6V4M18 10.5V13.5M6 10.5V13.5M12 6V4M12 6H8M12 6H16M8 6V4M16 6V4M12 18V20M12 18H16M12 18H8M16 18V20M8 18V20M14 12C14 13.1046 13.1046 14 12 14C10.8954 14 10 13.1046 10 12C10 10.8954 10.8954 10 12 10C13.1046 10 14 10.8954 14 12Z" stroke="black" stroke-width="2" stroke-linecap="round" stroke-linejoin="round"/>
</svg>
