<svg width="24" height="24" viewBox="0 0 24 24" fill="none" xmlns="http://www.w3.org/2000/svg">
<path d="M10 3.47683V3C10 2.44772 10.4477 2 11 2H13C13.5523 2 14 2.44772 14 3V3.47683C14 3.93311 14.3114 4.32531 14.7401 4.48159C14.9574 4.5608 15.1703 4.64916 15.3783 4.74621C15.7919 4.93915 16.2895 4.88207 16.6122 4.55937L16.9497 4.22187C17.3403 3.83135 17.9734 3.83135 18.364 4.22187L19.7782 5.63608C20.1687 6.02661 20.1687 6.65977 19.7782 7.0503L19.4407 7.38782C19.118 7.71051 19.0609 8.20816 19.2538 8.62173C19.3509 8.82974 19.4392 9.04261 19.5184 9.25988C19.6747 9.68856 20.0669 10 20.5232 10H21C21.5523 10 22 10.4477 22 11V13C22 13.5523 21.5523 14 21 14H20.5232C20.0669 14 19.6747 14.3114 19.5184 14.7401C19.4392 14.9574 19.3508 15.1703 19.2538 15.3783C19.0609 15.7919 19.1179 16.2895 19.4406 16.6122L19.7782 16.9498C20.1687 17.3403 20.1687 17.9735 19.7782 18.364L18.364 19.7782C17.9734 20.1687 17.3403 20.1687 16.9497 19.7782L16.6122 19.4407C16.2895 19.118 15.7918 19.0609 15.3783 19.2538C15.1703 19.3509 14.9574 19.4392 14.7401 19.5184C14.3114 19.6747 14 20.0669 14 20.5232V21C14 21.5523 13.5523 22 13 22H11C10.4477 22 10 21.5523 10 21V20.5232C10 20.0669 9.68856 19.6747 9.25988 19.5184C9.04261 19.4392 8.82974 19.3509 8.62173 19.2538C8.20816 19.0609 7.71051 19.118 7.38782 19.4407L7.05025 19.7782C6.65973 20.1687 6.02656 20.1687 5.63604 19.7782L4.22183 18.364C3.8313 17.9735 3.8313 17.3403 4.22183 16.9498L4.55937 16.6122C4.88207 16.2895 4.93915 15.7919 4.74621 15.3783C4.64916 15.1703 4.5608 14.9574 4.48159 14.7401C4.32531 14.3114 3.93311 14 3.47683 14H3C2.44772 14 2 13.5523 2 13V11C2 10.4477 2.44772 10 3 10H3.47682C3.93311 10 4.32531 9.68856 4.48159 9.25988C4.56079 9.04261 4.64914 8.82974 4.74618 8.62173C4.93912 8.20816 4.88204 7.71051 4.55934 7.38782L4.22183 7.0503C3.8313 6.65977 3.8313 6.02661 4.22183 5.63608L5.63604 4.22187C6.02656 3.83135 6.65973 3.83135 7.05025 4.22187L7.38775 4.55937C7.71045 4.88207 8.20811 4.93915 8.62168 4.74621C8.8297 4.64916 9.04259 4.5608 9.25988 4.48159C9.68856 4.32531 10 3.93311 10 3.47683Z" stroke="black" stroke-width="2" stroke-linecap="round" stroke-linejoin="round"/>
</svg>
