<svg width="24" height="24" viewBox="0 0 24 24" fill="none" xmlns="http://www.w3.org/2000/svg">
<path d="M3 9V18C3 19.6569 4.34315 21 6 21H18C19.6569 21 21 19.6569 21 18V9M3 9V6C3 4.34315 4.34315 3 6 3H18C19.6569 3 21 4.34315 21 6V9M3 9H21M6 6H6.01M9 6H9.01M12 6H12.01M14.49 17.5L12.908 15.918M12.908 15.918C13.2733 15.5557 13.5 15.0542 13.5 14.5C13.5 13.3954 12.5996 12.5 11.495 12.5C10.3904 12.5 9.49 13.3954 9.49 14.5C9.49 15.6046 10.3904 16.5 11.495 16.5C12.0454 16.5 12.5451 16.2777 12.908 15.918Z" stroke="black" stroke-width="2" stroke-linecap="round" stroke-linejoin="round"/>
</svg>
