<svg width="24" height="24" viewBox="0 0 24 24" fill="none" xmlns="http://www.w3.org/2000/svg">
<path d="M3 9V18C3 19.6569 4.34315 21 6 21H18C19.6569 21 21 19.6569 21 18V9M3 9V6C3 4.34315 4.34315 3 6 3H18C19.6569 3 21 4.34315 21 6V9M3 9H21M6 6H6.01M9 6H9.01M12 6H12.01M14.1213 17.1213C13.5784 17.6642 12.8284 18 12 18C10.3431 18 9 16.6569 9 15C9 14.1716 9.33579 13.4216 9.87868 12.8787M14.1213 17.1213C14.6642 16.5784 15 15.8284 15 15C15 13.3431 13.6569 12 12 12C11.1716 12 10.4216 12.3358 9.87868 12.8787M14.1213 17.1213L9.87868 12.8787" stroke="black" stroke-width="2" stroke-linecap="round" stroke-linejoin="round"/>
</svg>
