<svg width="24" height="24" viewBox="0 0 24 24" fill="none" xmlns="http://www.w3.org/2000/svg">
<path d="M3 9V18C3 19.6569 4.34315 21 6 21H18C19.6569 21 21 19.6569 21 18V9M3 9V6C3 4.34315 4.34315 3 6 3H18C19.6569 3 21 4.34315 21 6V9M3 9H21M6 6H6.01M9 6H9.01M12 6H12.01M10 15V14C10 12.8954 10.8954 12 12 12C12.3643 12 12.7058 12.0974 13 12.2676M10 15H14C14.5523 15 15 15.4477 15 16V17C15 17.5523 14.5523 18 14 18H10C9.44772 18 9 17.5523 9 17V16C9 15.4477 9.44772 15 10 15Z" stroke="black" stroke-width="2" stroke-linecap="round" stroke-linejoin="round"/>
</svg>
