<svg width="24" height="24" viewBox="0 0 24 24" fill="none" xmlns="http://www.w3.org/2000/svg">
<path fill-rule="evenodd" clip-rule="evenodd" d="M6 2C3.79086 2 2 3.79086 2 6V9V18C2 20.2091 3.79086 22 6 22H18C20.2091 22 22 20.2091 22 18V9V6C22 3.79086 20.2091 2 18 2H6ZM4 6C4 4.89543 4.89543 4 6 4H18C19.1046 4 20 4.89543 20 6V8H4V6ZM4 18V10H20V18C20 19.1046 19.1046 20 18 20H6C4.89543 20 4 19.1046 4 18ZM6 5C5.44772 5 5 5.44772 5 6C5 6.55228 5.44772 7 6 7H6.01C6.56228 7 7.01 6.55228 7.01 6C7.01 5.44772 6.56228 5 6.01 5H6ZM9 5C8.44772 5 8 5.44772 8 6C8 6.55228 8.44772 7 9 7H9.01C9.56228 7 10.01 6.55228 10.01 6C10.01 5.44772 9.56228 5 9.01 5H9ZM12 5C11.4477 5 11 5.44772 11 6C11 6.55228 11.4477 7 12 7H12.01C12.5623 7 13.01 6.55228 13.01 6C13.01 5.44772 12.5623 5 12.01 5H12ZM11.5 11C11.2239 11 11 11.2239 11 11.5C11 11.9007 10.5156 12.1016 10.2322 11.8182C10.037 11.623 9.7204 11.623 9.52514 11.8182L8.81803 12.5254C8.62277 12.7206 8.62277 13.0372 8.81803 13.2325C9.10127 13.5157 8.90056 14 8.5 14C8.22386 14 8 14.2239 8 14.5V15.5C8 15.7761 8.22386 16 8.5 16C8.90083 16 9.10147 16.4847 8.81804 16.7681C8.62278 16.9634 8.62278 17.28 8.81804 17.4753L9.52514 18.1824C9.72041 18.3776 10.037 18.3776 10.2323 18.1824C10.5155 17.8991 11 18.0995 11 18.5C11 18.7761 11.2239 19 11.5 19H12.5C12.7761 19 13 18.7761 13 18.5C13 18.0994 13.4845 17.8989 13.7678 18.1822C13.963 18.3775 14.2796 18.3775 14.4749 18.1822L15.182 17.4751C15.3773 17.2798 15.3773 16.9633 15.182 16.768C14.8986 16.4846 15.0992 16 15.5 16C15.7761 16 16 15.7761 16 15.5V14.5C16 14.2239 15.7761 14 15.5 14C15.0995 14 14.8988 13.5158 15.182 13.2326C15.3773 13.0373 15.3773 12.7208 15.182 12.5255L14.4749 11.8184C14.2796 11.6231 13.963 11.6231 13.7678 11.8184C13.4845 12.1017 13 11.9007 13 11.5C13 11.2239 12.7761 11 12.5 11H11.5ZM14 15C14 16.1046 13.1046 17 12 17C10.8954 17 10 16.1046 10 15C10 13.8954 10.8954 13 12 13C13.1046 13 14 13.8954 14 15Z" fill="black"/>
</svg>
