<svg width="24" height="24" viewBox="0 0 24 24" fill="none" xmlns="http://www.w3.org/2000/svg">
<path d="M3 9V18C3 19.6569 4.34315 21 6 21H18C19.6569 21 21 19.6569 21 18V9M3 9V6C3 4.34315 4.34315 3 6 3H18C19.6569 3 21 4.34315 21 6V9M3 9H21M6 6H6.01M9 6H9.01M12 6H12.01M7 13L9.30819 16.0776C9.67332 16.5644 10.385 16.615 10.8153 16.1847L13.1847 13.8153C13.615 13.385 14.3267 13.4356 14.6918 13.9224L17 17M17 17L17.5 15.5M17 17H15.5" stroke="black" stroke-width="2" stroke-linecap="round" stroke-linejoin="round"/>
</svg>
