<svg width="24" height="24" viewBox="0 0 24 24" fill="none" xmlns="http://www.w3.org/2000/svg">
<path d="M3 9V18C3 19.6569 4.34315 21 6 21H18C19.6569 21 21 19.6569 21 18V9M3 9V6C3 4.34315 4.34315 3 6 3H18C19.6569 3 21 4.34315 21 6V9M3 9H21M6 6H6.01M9 6H9.01M12 6H12.01M12 15L14.4749 12.5251M12 15L9.52513 17.4749M12 15L9.52513 12.5251M12 15L14.4749 17.4749M14.4749 12.5251C15.1082 13.1585 15.5 14.0335 15.5 15C15.5 15.9665 15.1082 16.8415 14.4749 17.4749M14.4749 12.5251C13.8415 11.8918 12.9665 11.5 12 11.5C11.0335 11.5 10.1585 11.8918 9.52513 12.5251M9.52513 17.4749C10.1585 18.1082 11.0335 18.5 12 18.5C12.9665 18.5 13.8415 18.1082 14.4749 17.4749M9.52513 17.4749C8.89175 16.8415 8.5 15.9665 8.5 15C8.5 14.0335 8.89175 13.1585 9.52513 12.5251" stroke="black" stroke-width="2" stroke-linecap="round" stroke-linejoin="round"/>
</svg>
