<svg width="24" height="24" viewBox="0 0 24 24" fill="none" xmlns="http://www.w3.org/2000/svg">
<path d="M3 9V18C3 19.6569 4.34315 21 6 21H18C19.6569 21 21 19.6569 21 18V9M3 9V6C3 4.34315 4.34315 3 6 3H18C19.6569 3 21 4.34315 21 6V9M3 9H21M6 6H6.01M9 6H9.01M12 6H12.01M12 12C12.0575 12 12.115 12.0118 12.1675 12.0342L14.5212 12.9756C14.7962 13.0852 15.0012 13.3409 15 13.6496C14.9937 14.8185 14.4837 16.9572 12.33 17.9293C12.1212 18.0236 11.8787 18.0236 11.67 17.9293C9.51625 16.9572 9.00626 14.8185 9.00001 13.6496C8.99876 13.3409 9.20376 13.0852 9.47875 12.9756L11.8337 12.0342C11.885 12.0118 11.9425 12 12 12Z" stroke="black" stroke-width="2" stroke-linecap="round" stroke-linejoin="round"/>
</svg>
