<svg width="24" height="24" viewBox="0 0 24 24" fill="none" xmlns="http://www.w3.org/2000/svg">
<path d="M3 9V18C3 19.6569 4.34315 21 6 21H18C19.6569 21 21 19.6569 21 18V9M3 9V6C3 4.34315 4.34315 3 6 3H18C19.6569 3 21 4.34315 21 6V9M3 9H21M6 6H6.01M9 6H9.01M12 6H12.01M7.5 18V16C7.5 15.4477 7.94772 15 8.5 15H10.51M10.51 15V18M10.51 15V13C10.51 12.4477 10.9577 12 11.51 12H12.5C13.0523 12 13.5 12.4477 13.5 13V14M13.5 18V14M13.5 14H15.5C16.0523 14 16.5 14.4477 16.5 15V18M6 18H18" stroke="black" stroke-width="2" stroke-linecap="round" stroke-linejoin="round"/>
</svg>
