<svg width="24" height="24" viewBox="0 0 24 24" fill="none" xmlns="http://www.w3.org/2000/svg">
<path d="M3 9V18C3 19.6569 4.34315 21 6 21H18C19.6569 21 21 19.6569 21 18V9M3 9V6C3 4.34315 4.34315 3 6 3H18C19.6569 3 21 4.34315 21 6V9M3 9H21M6 6H6.01M9 6H9.01M12 6H12.01M10 13.5H16.5C17.3284 13.5 18 14.1716 18 15V15C18 15.8284 17.3284 16.5 16.5 16.5H10M10 13.5H7.5C6.67157 13.5 6 14.1716 6 15V15C6 15.8284 6.67157 16.5 7.5 16.5H10M10 13.5V16.5" stroke="black" stroke-width="2" stroke-linecap="round" stroke-linejoin="round"/>
</svg>
