<svg width="24" height="24" viewBox="0 0 24 24" fill="none" xmlns="http://www.w3.org/2000/svg">
<path d="M3 8V18C3 19.6569 4.34315 21 6 21H18C19.6569 21 21 19.6569 21 18V8M3 8V6C3 4.34315 4.34315 3 6 3H18C19.6569 3 21 4.34315 21 6V8M3 8H21M6 5.5H6.01M9 5.5H9.01M12 5.5H12.01M15 17.5V17.5C15 17.7761 15.2239 18 15.5 18H17.5C17.7761 18 18 17.7761 18 17.5V17.5C18 17.2239 17.7761 17 17.5 17H15.5C15.2239 17 15 17.2239 15 17.5ZM12 17.5V17.5C12 17.2239 11.7761 17 11.5 17H6.51C6.23386 17 6.01 17.2239 6.01 17.5V17.5C6.01 17.7761 6.23386 18 6.51 18H11.5C11.7761 18 12 17.7761 12 17.5ZM18 12V13C18 13.5523 17.5523 14 17 14H7C6.44772 14 6 13.5523 6 13V12C6 11.4477 6.44772 11 7 11H17C17.5523 11 18 11.4477 18 12Z" stroke="black" stroke-width="2" stroke-linecap="round" stroke-linejoin="round"/>
</svg>
