<svg width="24" height="24" viewBox="0 0 24 24" fill="none" xmlns="http://www.w3.org/2000/svg">
<path d="M3 8V18C3 19.6569 4.34315 21 6 21H18C19.6569 21 21 19.6569 21 18V8M3 8V6C3 4.34315 4.34315 3 6 3H18C19.6569 3 21 4.34315 21 6V8M3 8H21M6 5.5H6.01M9 5.5H9.01M12 5.5H12.01M8 14.5H10.5M8 14.5C8 16.7091 9.79086 18.5 12 18.5M8 14.5C8 12.2909 9.79086 10.5 12 10.5M10.5 14.5H13.5M10.5 14.5C10.5 13.1 11 11.7 12 10.5M10.5 14.5C10.5 15.9 11 17.3 12 18.5M13.5 14.5H16M13.5 14.5C13.5 13.1 13 11.7 12 10.5M13.5 14.5C13.5 15.9 13 17.3 12 18.5M16 14.5C16 16.7091 14.2091 18.5 12 18.5M16 14.5C16 12.2909 14.2091 10.5 12 10.5" stroke="black" stroke-width="2" stroke-linecap="round" stroke-linejoin="round"/>
</svg>
