<svg width="24" height="24" viewBox="0 0 24 24" fill="none" xmlns="http://www.w3.org/2000/svg">
<path d="M3 9V18C3 19.6569 4.34315 21 6 21H18C19.6569 21 21 19.6569 21 18V9M3 9V6C3 4.34315 4.34315 3 6 3H18C19.6569 3 21 4.34315 21 6V9M3 9H21M6 6H6.01M9 6H9.01M12 6H12.01M8 12H7C6.44772 12 6 12.4477 6 13V14C6 14.5523 6.44772 15 7 15V15C7.55228 15 8 15.4477 8 16V17C8 17.5523 7.55228 18 7 18H6M13 18H11.5C10.9477 18 10.5 17.5523 10.5 17V15M10.5 15V13C10.5 12.4477 10.9477 12 11.5 12H13M10.5 15H12M18 13.25V16.75C18 17.4404 17.4404 18 16.75 18V18C16.0596 18 15.5 17.4404 15.5 16.75V13.25C15.5 12.5596 16.0596 12 16.75 12V12C17.4404 12 18 12.5596 18 13.25Z" stroke="black" stroke-width="2" stroke-linecap="round" stroke-linejoin="round"/>
</svg>
