<svg width="24" height="24" viewBox="0 0 24 24" fill="none" xmlns="http://www.w3.org/2000/svg">
<path d="M3 9V18C3 19.6569 4.34315 21 6 21H18C19.6569 21 21 19.6569 21 18V9M3 9V6C3 4.34315 4.34315 3 6 3H18C19.6569 3 21 4.34315 21 6V9M3 9H14M21 9H18M6 6H6.01M9 6H9.01M12 6H12.01M18 9V14.5172C18 14.6953 17.7846 14.7846 17.6586 14.6586L16.1414 13.1414C16.0633 13.0633 15.9367 13.0633 15.8586 13.1414L14.3414 14.6586C14.2154 14.7846 14 14.6953 14 14.5172V9M18 9H14" stroke="black" stroke-width="2" stroke-linecap="round" stroke-linejoin="round"/>
</svg>
