<svg width="24" height="24" viewBox="0 0 24 24" fill="none" xmlns="http://www.w3.org/2000/svg">
<path d="M3 9V18C3 19.6569 4.34315 21 6 21H18C19.6569 21 21 19.6569 21 18V9M3 9V6C3 4.34315 4.34315 3 6 3H18C19.6569 3 21 4.34315 21 6V9M3 9H21M6 6H6.01M9 6H9.01M12 6H12.01M11.5907 12.1404L10.2143 13.211L9.25737 13.9552C9.09498 14.0816 9 14.2758 9 14.4815V17.3334C9 17.5183 9.07531 17.6856 9.19692 17.8064C9.31743 17.9261 9.48342 18 9.66667 18H14.3333C14.5183 18 14.6856 17.9247 14.8064 17.8031C14.9261 17.6826 15 17.5166 15 17.3334V14.4815C15 14.2758 14.905 14.0816 14.7426 13.9552L13.7894 13.2139L12.4093 12.1404C12.2898 12.0475 12.1467 12.0007 12.0033 12C11.8578 11.9993 11.712 12.0461 11.5907 12.1404Z" stroke="black" stroke-width="2" stroke-linecap="round" stroke-linejoin="round"/>
</svg>
