<svg width="24" height="24" viewBox="0 0 24 24" fill="none" xmlns="http://www.w3.org/2000/svg">
<path d="M3 9V18C3 19.6569 4.34315 21 6 21H18C19.6569 21 21 19.6569 21 18V9M3 9V6C3 4.34315 4.34315 3 6 3H18C19.6569 3 21 4.34315 21 6V9M3 9H21M6 6H6.01M9 6H9.01M12 6H12.01M14.4338 14.6324L14.6056 14.2889C14.9741 13.5518 16.0259 13.5518 16.3944 14.2889L17.2764 16.0528C17.6088 16.7177 17.1253 17.5 16.382 17.5H7.86852C7.06982 17.5 6.59343 16.6099 7.03647 15.9453L9.25711 12.6143C9.62789 12.0582 10.4295 12.0153 10.8574 12.5289L12.7711 14.8254C13.2328 15.3794 14.1113 15.2774 14.4338 14.6324Z" stroke="black" stroke-width="2" stroke-linecap="round" stroke-linejoin="round"/>
</svg>
