<svg width="24" height="24" viewBox="0 0 24 24" fill="none" xmlns="http://www.w3.org/2000/svg">
<path d="M6.5 16V12.5M6.5 12.5V8.5C6.5 8.22386 6.72386 8 7 8H10.25C11.4926 8 12.5 9.00736 12.5 10.25C12.5 11.4926 11.4926 12.5 10.25 12.5H6.5ZM17.4252 11.7812C17.2115 11.3906 16.8551 11 16 11C15.1449 11 14.4443 11.6277 14.5035 12.4062C14.5747 13.3438 16 13.5 16 13.5C16 13.5 17.4252 13.6562 17.4965 14.5938C17.5557 15.3723 16.8551 16 16 16C15.1449 16 14.7885 15.6094 14.5748 15.2188M7 3H17C19.2091 3 21 4.79086 21 7V17C21 19.2091 19.2091 21 17 21H7C4.79086 21 3 19.2091 3 17V7C3 4.79086 4.79086 3 7 3Z" stroke="black" stroke-width="2" stroke-linecap="round"/>
</svg>
