<svg width="24" height="24" viewBox="0 0 24 24" fill="none" xmlns="http://www.w3.org/2000/svg">
<path d="M6 16L6.75 13.7388M6.75 13.7388L8.53184 8.3668C8.69405 7.87773 9.30595 7.87773 9.46816 8.3668L11.25 13.7388M6.75 13.7388H11.25M11.25 13.7388L12 16M15 12V14.5C15 15.3284 15.6716 16 16.5 16C17.3284 16 18 15.3284 18 14.5V12M7 3H17C19.2091 3 21 4.79086 21 7V17C21 19.2091 19.2091 21 17 21H7C4.79086 21 3 19.2091 3 17V7C3 4.79086 4.79086 3 7 3Z" stroke="black" stroke-width="2" stroke-linecap="round" stroke-linejoin="round"/>
</svg>
