<svg width="24" height="24" viewBox="0 0 24 24" fill="none" xmlns="http://www.w3.org/2000/svg">
<path d="M11.9497 15.3665C11.6497 15.7099 11.3319 16.0613 11.013 16.4263C10.2538 17.2951 8.98698 17.5931 7.96901 17.0501C6.87328 16.4657 6.44261 15.1148 6.99798 14.004L10.6584 6.68328C11.2111 5.57771 12.7889 5.57771 13.3416 6.68328L16.9205 13.841C17.5212 15.0425 17.0554 16.5038 15.8702 17.1359C14.9077 17.6492 13.721 17.4744 13.0045 16.652C12.6705 16.2687 12.3037 15.8288 11.9497 15.3665ZM11.9497 15.3665C12.9478 14.2242 13.75 13.1709 13.75 12C13.75 11.5 13.5 10.25 12 10.25C10.5 10.25 10.25 11.5 10.25 12C10.25 12.8996 11.0592 14.2037 11.9497 15.3665ZM12 22C6.47715 22 2 17.5228 2 12C2 6.47715 6.47715 2 12 2C17.5228 2 22 6.47715 22 12C22 17.5228 17.5228 22 12 22Z" stroke="black" stroke-width="2" stroke-linecap="round" stroke-linejoin="round"/>
</svg>
