<svg width="24" height="24" viewBox="0 0 24 24" fill="none" xmlns="http://www.w3.org/2000/svg">
<path d="M3 9.73101V15.2527C3 15.9583 3.78231 16.4172 4.44721 16.1017L10.3416 13.3042C11.358 12.8218 12 11.8358 12 10.7572V5.23549C12 4.52986 11.2177 4.07093 10.5528 4.38649L4.65836 7.18402M3 9.73101C3 8.65241 3.64201 7.66638 4.65836 7.18402M3 9.73101V12.9917M4.65836 7.18402L7.5 5.83536M21 12.2425V9.80026C21 8.74182 19.8265 8.05341 18.8292 8.52676L16.5 9.6322M3 12.2425V10.162C3 9.13164 4.11728 8.44243 5.10921 8.8609L7.5 9.8695M21 12.9917V9.34708C21 8.22172 20.3018 7.20193 19.2184 6.74488L16.5 5.59806M12 19.0496V13.5279C12 12.4493 12.642 11.4633 13.6584 10.9809L19.5528 8.18337C20.2177 7.86781 21 8.32675 21 9.03237V14.554C21 15.6326 20.358 16.6187 19.3416 17.101L13.4472 19.8986C12.7823 20.2141 12 19.7552 12 19.0496ZM13.2663 11.1669L19.1047 8.39598C19.8606 8.03723 19.8359 7.00539 19.0636 6.67959L13.2937 4.24543C12.4746 3.89985 11.5355 3.92009 10.7337 4.30063L4.89528 7.07158C4.13938 7.43033 4.16407 8.46217 4.93635 8.78797L10.7062 11.2221C11.5254 11.5677 12.4645 11.5475 13.2663 11.1669Z" stroke="black" stroke-width="2" stroke-linecap="round" stroke-linejoin="round"/>
</svg>
