<svg width="24" height="24" viewBox="0 0 24 24" fill="none" xmlns="http://www.w3.org/2000/svg">
<path d="M8.25 14.75V10.2071C8.25 9.76165 7.71143 9.53857 7.39645 9.85355L3.58579 13.6642C3.21071 14.0393 3 14.548 3 15.0784V20C3 20.5523 3.44772 21 4 21H8.92157C9.45201 21 9.96071 20.7893 10.3358 20.4142L14.1464 16.6036C14.4614 16.2886 14.2383 15.75 13.7929 15.75H9.25C8.69772 15.75 8.25 15.3023 8.25 14.75Z" stroke="black" stroke-width="2" stroke-linejoin="round"/>
<path d="M19 3H4.20711C3.76165 3 3.53857 3.53857 3.85355 3.85355L7.07843 7.07843C7.82857 7.82857 8.84599 8.25 9.90685 8.25H13.75C14.8546 8.25 15.75 9.14543 15.75 10.25V14.0931C15.75 15.154 16.1714 16.1714 16.9216 16.9216L20.1464 20.1464C20.4614 20.4614 21 20.2383 21 19.7929V5C21 3.89543 20.1046 3 19 3Z" stroke="black" stroke-width="2" stroke-linejoin="round"/>
</svg>
