<svg width="24" height="24" viewBox="0 0 24 24" fill="none" xmlns="http://www.w3.org/2000/svg">
<path fill-rule="evenodd" clip-rule="evenodd" d="M7.20711 1.29289C6.81658 0.902369 6.18342 0.902369 5.79289 1.29289C5.40237 1.68342 5.40237 2.31658 5.79289 2.70711L6.75118 3.66539C5.965 4.74004 5.5 6.06633 5.5 7.5V8C5.5 8.55228 5.94772 9 6.5 9H17.5C18.0523 9 18.5 8.55228 18.5 8V7.5C18.5 6.06633 18.035 4.74004 17.2488 3.66539L18.2071 2.70711C18.5976 2.31658 18.5976 1.68342 18.2071 1.29289C17.8166 0.902369 17.1834 0.902369 16.7929 1.29289L15.8346 2.25118C14.76 1.465 13.4337 1 12 1C10.5663 1 9.24004 1.465 8.16539 2.25118L7.20711 1.29289ZM8.81802 4.31802C9.63345 3.50258 10.7571 3 12 3C13.2429 3 14.3665 3.50258 15.182 4.31802C15.8865 5.02256 16.3575 5.95717 16.4726 7H7.52741C7.64248 5.95717 8.11348 5.02256 8.81802 4.31802ZM5 11C5 10.4477 4.55228 10 4 10C3.44772 10 3 10.4477 3 11V15C3 15.5523 3.44772 16 4 16C4.55228 16 5 15.5523 5 15V11ZM7.5 15V12H16.5V15C16.5 16.1046 15.6046 17 14.5 17H14H10H9.5C8.39543 17 7.5 16.1046 7.5 15ZM6.5 10C5.94772 10 5.5 10.4477 5.5 11V15C5.5 17.0398 7.02684 18.723 9 18.9691V22C9 22.5523 9.44772 23 10 23C10.5523 23 11 22.5523 11 22V19H13V22C13 22.5523 13.4477 23 14 23C14.5523 23 15 22.5523 15 22V18.9691C16.9732 18.723 18.5 17.0398 18.5 15V11C18.5 10.4477 18.0523 10 17.5 10H6.5ZM21 11C21 10.4477 20.5523 10 20 10C19.4477 10 19 10.4477 19 11V15C19 15.5523 19.4477 16 20 16C20.5523 16 21 15.5523 21 15V11ZM9.75 6C10.1642 6 10.5 5.66421 10.5 5.25C10.5 4.83579 10.1642 4.5 9.75 4.5C9.33579 4.5 9 4.83579 9 5.25C9 5.66421 9.33579 6 9.75 6ZM14.25 6C14.6642 6 15 5.66421 15 5.25C15 4.83579 14.6642 4.5 14.25 4.5C13.8358 4.5 13.5 4.83579 13.5 5.25C13.5 5.66421 13.8358 6 14.25 6Z" fill="black"/>
</svg>
