<svg width="24" height="24" viewBox="0 0 24 24" fill="none" xmlns="http://www.w3.org/2000/svg">
<path d="M14 17.625V17.5811C14 16.1556 12.9214 15 11.5909 15C11.332 15 11.0748 15.0447 10.8291 15.1325L10 15.4286M14 17.625V18.9832C14 20.097 13.1572 21 12.1176 21H11.575C10.7052 21 10 20.2445 10 19.3125C10 18.3805 10.7052 17.625 11.575 17.625H14ZM13.0674 4.13333L13.869 3M4 21V18.375M4 18.375V15.7273C4 15.3256 4.32561 15 4.72727 15H6.3125C7.24448 15 8 15.7555 8 16.6875C8 17.6195 7.24448 18.375 6.3125 18.375H4ZM20 18.375V18.7639C20 19.5215 19.572 20.214 18.8944 20.5528C18.339 20.8305 17.6767 21 17.0557 21H16M20 18.375V15.0002M20 18.375H17.6875C16.7555 18.375 16 17.6195 16 16.6875V15.0002M15.5379 5.27414C14.5299 4.39788 13.2771 4.68217 12.4742 5.0917C12.3048 5.17809 12.1027 5.17809 11.9334 5.09169C11.002 4.61665 9.46532 4.31014 8.40756 5.788C7.00726 7.74442 9.57095 11.5 10.7437 11.5C11.3278 11.5 11.5101 11.228 12.2038 11.228C12.8975 11.228 13.0798 11.5 13.6639 11.5C14.465 11.5 15.2618 10.4845 15.6863 9.84099C15.8592 9.57888 15.7144 9.24077 15.457 9.06096C14.4529 8.35968 14.4295 6.84212 15.3866 6.10271C15.6565 5.89428 15.7952 5.49783 15.5379 5.27414Z" stroke="black" stroke-width="2" stroke-linecap="round"/>
</svg>
