<svg width="24" height="24" viewBox="0 0 24 24" fill="none" xmlns="http://www.w3.org/2000/svg">
<path d="M2 12C2 13.7949 3.52878 15.25 5.41463 15.25C7.30048 15.25 8.82927 13.7949 8.82927 12C8.82927 10.2051 7.30048 8.75 5.41463 8.75C3.52878 8.75 2 10.2051 2 12Z" stroke="black" stroke-width="1.5" stroke-linecap="round" stroke-linejoin="round"/>
<path d="M6.39024 12C6.39024 13.7949 7.91903 15.25 9.80488 15.25C11.6907 15.25 13.2195 13.7949 13.2195 12C13.2195 10.2051 11.6907 8.75 9.80488 8.75C7.91903 8.75 6.39024 10.2051 6.39024 12Z" stroke="black" stroke-width="1.5" stroke-linecap="round" stroke-linejoin="round"/>
<path d="M10.7805 12C10.7805 13.7949 12.3093 15.25 14.1951 15.25C16.081 15.25 17.6098 13.7949 17.6098 12C17.6098 10.2051 16.081 8.75 14.1951 8.75C12.3093 8.75 10.7805 10.2051 10.7805 12Z" stroke="black" stroke-width="1.5" stroke-linecap="round" stroke-linejoin="round"/>
<path d="M15.1707 12C15.1707 13.7949 16.6995 15.25 18.5854 15.25C20.4712 15.25 22 13.7949 22 12C22 10.2051 20.4712 8.75 18.5854 8.75C16.6995 8.75 15.1707 10.2051 15.1707 12Z" stroke="black" stroke-width="1.5" stroke-linecap="round" stroke-linejoin="round"/>
</svg>
