<svg width="24" height="24" viewBox="0 0 24 24" fill="none" xmlns="http://www.w3.org/2000/svg">
<path fill-rule="evenodd" clip-rule="evenodd" d="M10.2852 5.7C10.2852 4.76627 11.0478 4 12 4C12.9523 4 13.7149 4.76627 13.7149 5.7C13.7149 6.25229 14.1626 6.7 14.7149 6.7C15.2672 6.7 15.7149 6.25229 15.7149 5.7C15.7149 3.65139 14.0465 2 12 2C9.95356 2 8.2852 3.65139 8.2852 5.7C8.2852 6.25229 8.73291 6.7 9.2852 6.7C9.83748 6.7 10.2852 6.25229 10.2852 5.7ZM10.9705 7.4H10.9248H10.9248C9.93986 7.39999 9.13416 7.39997 8.47551 7.45944C7.7898 7.52135 7.18019 7.65302 6.60771 7.96509C6.15545 8.21163 5.74765 8.53191 5.40135 8.91281C4.96258 9.3954 4.69187 9.95617 4.47206 10.6065C4.26112 11.2306 4.07437 12.0107 3.84638 12.9631L3.84638 12.9631L3.83565 13.008L3.82163 13.0665C3.4698 14.536 3.1864 15.7198 3.06589 16.6773C2.94216 17.6603 2.96776 18.5504 3.3604 19.3735C3.65996 20.0015 4.09842 20.5534 4.64246 20.988L5.2666 20.2067L4.64246 20.988C5.35454 21.5569 6.21633 21.7871 7.20483 21.8949C8.16844 22 9.39119 22 10.9108 22H10.9109H10.9705H13.0295H13.0892H13.0892C14.6089 22 15.8316 22 16.7952 21.8949C17.7837 21.7871 18.6455 21.5569 19.3576 20.988C19.9016 20.5534 20.3401 20.0015 20.6397 19.3735C21.0323 18.5504 21.0579 17.6603 20.9342 16.6773C20.8137 15.7198 20.5303 14.5362 20.1785 13.0668L20.1785 13.0666L20.1644 13.008L20.1537 12.9631C19.9257 12.0107 19.7389 11.2306 19.528 10.6065C19.3082 9.95617 19.0375 9.3954 18.5987 8.91281L18.0011 9.45614L18.5987 8.91281C18.2524 8.53191 17.8446 8.21163 17.3924 7.96509C16.8199 7.65303 16.2103 7.52135 15.5246 7.45944C14.8659 7.39997 14.0602 7.39999 13.0753 7.4H13.0753H13.0295H10.9705ZM7.56496 9.72113C7.80536 9.59009 8.11406 9.50021 8.65534 9.45134C9.21351 9.40094 9.92872 9.4 10.9705 9.4H13.0295C14.0713 9.4 14.7866 9.40094 15.3447 9.45134C15.886 9.50021 16.1947 9.59009 16.4351 9.72113C16.6918 9.86109 16.9229 10.0427 17.1189 10.2582C17.3019 10.4594 17.4606 10.7358 17.6333 11.2469C17.8116 11.7745 17.978 12.4654 18.2194 13.4736C18.5885 15.0154 18.8447 16.0918 18.9498 16.927C19.0533 17.7493 18.9878 18.1911 18.8345 18.5125C18.6655 18.8669 18.4177 19.1791 18.1093 19.4254C17.8283 19.6499 17.4085 19.8162 16.5784 19.9067C15.7361 19.9986 14.6228 20 13.0295 20H10.9705C9.37728 20 8.26401 19.9986 7.42166 19.9067C6.59161 19.8162 6.17172 19.6499 5.89074 19.4254C5.5824 19.1791 5.3346 18.8669 5.16555 18.5125C5.01225 18.1911 4.94673 17.7493 5.05023 16.927C5.15535 16.0918 5.41157 15.0154 5.78068 13.4736C6.02205 12.4654 6.18845 11.7745 6.36676 11.2469C6.5395 10.7358 6.69821 10.4594 6.88116 10.2582C7.07712 10.0427 7.30822 9.86109 7.56496 9.72113ZM8.75003 13C9.30232 13 9.75003 12.5523 9.75003 12C9.75003 11.4477 9.30232 11 8.75003 11C8.19775 11 7.75003 11.4477 7.75003 12C7.75003 12.5523 8.19775 13 8.75003 13ZM15.5 13C16.0523 13 16.5 12.5523 16.5 12C16.5 11.4477 16.0523 11 15.5 11C14.9477 11 14.5 11.4477 14.5 12C14.5 12.5523 14.9477 13 15.5 13Z" fill="black"/>
</svg>
