<svg width="24" height="24" viewBox="0 0 24 24" fill="none" xmlns="http://www.w3.org/2000/svg">
<path fill-rule="evenodd" clip-rule="evenodd" d="M7 2C4.23858 2 2 4.23858 2 7V17C2 19.7614 4.23858 22 7 22H17C19.7614 22 22 19.7614 22 17V7C22 4.23858 19.7614 2 17 2H7ZM4 7C4 5.34315 5.34315 4 7 4H17C18.6569 4 20 5.34315 20 7V17C20 18.6569 18.6569 20 17 20H7C5.34315 20 4 18.6569 4 17V7ZM6 7.5C5.58579 7.5 5.25 7.83579 5.25 8.25V11.75V15.75C5.25 16.1642 5.58579 16.5 6 16.5H9C10.5188 16.5 11.75 15.2688 11.75 13.75C11.75 12.8676 11.3344 12.0823 10.6883 11.5791C11.0394 11.1486 11.25 10.5989 11.25 10C11.25 8.61929 10.1307 7.5 8.75 7.5H6ZM6.75 12.5H8.75H9C9.69036 12.5 10.25 13.0596 10.25 13.75C10.25 14.4404 9.69036 15 9 15H6.75V12.5ZM8.75 11H6.75V9H8.75C9.30228 9 9.75 9.44772 9.75 10C9.75 10.5523 9.30228 11 8.75 11ZM13.5 8.5C13.0858 8.5 12.75 8.83579 12.75 9.25C12.75 9.66421 13.0858 10 13.5 10H18C18.4142 10 18.75 9.66421 18.75 9.25C18.75 8.83579 18.4142 8.5 18 8.5H13.5ZM15.75 10.5C14.0931 10.5 12.75 11.8431 12.75 13.5C12.75 15.1569 14.0931 16.5 15.75 16.5C16.3657 16.5 16.9401 16.3137 17.4172 15.9944C17.7614 15.764 17.8537 15.2981 17.6233 14.9539C17.3928 14.6097 16.927 14.5174 16.5828 14.7479C16.3449 14.9071 16.0594 15 15.75 15C15.1948 15 14.71 14.6984 14.4507 14.25H18C18.4142 14.25 18.75 13.9142 18.75 13.5C18.75 11.8431 17.4069 10.5 15.75 10.5ZM15.75 12C16.3052 12 16.79 12.3016 17.0493 12.75H14.4507C14.71 12.3016 15.1948 12 15.75 12Z" fill="black"/>
</svg>
