<svg width="24" height="24" viewBox="0 0 24 24" fill="none" xmlns="http://www.w3.org/2000/svg">
<path fill-rule="evenodd" clip-rule="evenodd" d="M3.98968 4L3.05902 7.625H6.37102C7.22442 7.625 7.96892 7.05938 8.17615 6.25223C8.47004 5.1075 7.58082 4 6.37102 4H3.98968ZM11.4029 4L10.4722 7.625H13.7842C14.6376 7.625 15.3821 7.05938 15.5893 6.25223C15.8832 5.1075 14.994 4 13.7842 4H11.4029ZM17.757 8.125L16.8263 11.75H20.1383C20.9917 11.75 21.7362 11.1844 21.9435 10.3772C22.2374 9.2325 21.3481 8.125 20.1383 8.125H17.757ZM2.93066 10.1875L2 13.8125H5.312C6.16539 13.8125 6.9099 13.2469 7.11712 12.4397C7.41101 11.295 6.5218 10.1875 5.312 10.1875H2.93066ZM10.3438 10.1875L9.41317 13.8125H12.7252C13.5786 13.8125 14.3231 13.2469 14.5303 12.4397C14.8242 11.295 13.935 10.1875 12.7252 10.1875H10.3438ZM16.698 14.3125L15.7673 17.9375H19.0793C19.9327 17.9375 20.6772 17.3719 20.8844 16.5647C21.1783 15.42 20.2891 14.3125 19.0793 14.3125H16.698ZM9.28481 16.375L8.35415 20H11.6661C12.5195 20 13.264 19.4344 13.4713 18.6272C13.7652 17.4825 12.8759 16.375 11.6661 16.375H9.28481Z" stroke="black" stroke-width="2" stroke-linejoin="round"/>
</svg>
