<svg width="24" height="24" viewBox="0 0 24 24" fill="none" xmlns="http://www.w3.org/2000/svg">
<path fill-rule="evenodd" clip-rule="evenodd" d="M9 3H8.94606H8.94604C7.58738 2.99999 6.49173 2.99997 5.61264 3.0894C4.70523 3.18171 3.91829 3.3775 3.22215 3.84265C2.6762 4.20745 2.20745 4.6762 1.84265 5.22215C1.3775 5.91829 1.18171 6.70523 1.0894 7.61264C0.999973 8.49173 0.999985 9.58738 1 10.946V10.9461V11V12.0602V12.0947V12.0947C0.999995 12.9691 0.99999 13.6745 1.03801 14.2489C1.07711 14.8395 1.1595 15.3622 1.35829 15.8586C1.86649 17.1278 2.8722 18.1335 4.14136 18.6417C4.63931 18.8411 5.1672 18.9231 5.76416 18.9621C6.34618 19 7.06319 19 7.95392 19H7.98812C8.36628 19 8.44216 19.0031 8.50376 19.0133C8.65554 19.0382 8.79952 19.0979 8.92449 19.1875L9.50749 18.3751L8.92449 19.1875C8.97541 19.2241 9.02956 19.2738 9.29173 19.536L9.3901 19.6346C9.83667 20.0823 10.2228 20.4695 10.6697 20.6906L11.1131 19.7943L10.6697 20.6906C11.5081 21.1053 12.4919 21.1053 13.3303 20.6906L12.8869 19.7943L13.3303 20.6906C13.7772 20.4695 14.1633 20.0823 14.6099 19.6346L14.7083 19.536C14.9704 19.2738 15.0246 19.2241 15.0755 19.1875C15.2005 19.0979 15.3445 19.0382 15.4962 19.0133C15.5578 19.0031 15.6337 19 16.0119 19H16.0461C16.9368 19 17.6538 19 18.2358 18.9621C18.8328 18.9231 19.3607 18.8411 19.8586 18.6417C21.1278 18.1335 22.1335 17.1278 22.6417 15.8586C22.8405 15.3622 22.9229 14.8395 22.962 14.2489C23 13.6745 23 12.9691 23 12.0947V12.0946V12.0602V11V10.946V10.946C23 9.58735 23 8.49173 22.9106 7.61264C22.8183 6.70523 22.6225 5.91829 22.1573 5.22215C21.7926 4.6762 21.3238 4.20745 20.7779 3.84265C20.0817 3.3775 19.2948 3.18171 18.3874 3.0894C17.5083 2.99997 16.4126 2.99999 15.054 3H15.0539H15H9ZM4.33329 5.50559C4.64604 5.29662 5.06578 5.15535 5.81505 5.07913C6.58104 5.00121 7.57473 5 9 5H15C16.4253 5 17.419 5.00121 18.1849 5.07913C18.9342 5.15535 19.354 5.29662 19.6667 5.50559L20.2223 4.67412L19.6667 5.50559C19.9943 5.72447 20.2755 6.00572 20.4944 6.33329L21.3259 5.77772L20.4944 6.33329C20.7034 6.64604 20.8446 7.06578 20.9209 7.81505C20.9988 8.58104 21 9.57473 21 11V12.0602C21 12.9771 20.9995 13.6162 20.9664 14.1168C20.9338 14.6088 20.8729 14.8958 20.785 15.1152C20.4801 15.8767 19.8767 16.4801 19.1152 16.785C18.8973 16.8723 18.6074 16.9336 18.1057 16.9663C17.5964 16.9995 16.9447 17 16.0119 17L15.9526 17C15.6667 16.9998 15.4158 16.9996 15.1717 17.0398C14.7164 17.1146 14.2844 17.2935 13.9095 17.5626C13.7086 17.7067 13.5336 17.8819 13.3348 18.081L13.2941 18.1218C12.6905 18.7254 12.5537 18.8434 12.4434 18.898C12.164 19.0362 11.836 19.0362 11.5566 18.898C11.4463 18.8434 11.3095 18.7254 10.7059 18.1218L9.99883 18.8289L10.7059 18.1218L10.6652 18.081C10.4664 17.8819 10.2914 17.7067 10.0905 17.5626C9.71556 17.2935 9.28363 17.1146 8.82829 17.0398L8.66603 18.0265L8.82829 17.0398C8.58424 16.9996 8.33333 16.9998 8.04737 17L7.98812 17C7.05526 17 6.40356 16.9995 5.89432 16.9663C5.39259 16.9336 5.1027 16.8723 4.88482 16.785C4.12332 16.4801 3.5199 15.8767 3.21498 15.1152C3.12714 14.8958 3.06621 14.6088 3.03365 14.1168C3.00051 13.6162 3 12.9771 3 12.0602V11C3 9.57473 3.00121 8.58104 3.07913 7.81505C3.15535 7.06578 3.29662 6.64604 3.50559 6.33329C3.72447 6.00572 4.00572 5.72447 4.33329 5.50559ZM7.5 12.75C8.32843 12.75 9 12.0784 9 11.25C9 10.4216 8.32843 9.75 7.5 9.75C6.67157 9.75 6 10.4216 6 11.25C6 12.0784 6.67157 12.75 7.5 12.75ZM13.5 11.25C13.5 12.0784 12.8284 12.75 12 12.75C11.1716 12.75 10.5 12.0784 10.5 11.25C10.5 10.4216 11.1716 9.75 12 9.75C12.8284 9.75 13.5 10.4216 13.5 11.25ZM18 11.25C18 12.0784 17.3284 12.75 16.5 12.75C15.6716 12.75 15 12.0784 15 11.25C15 10.4216 15.6716 9.75 16.5 9.75C17.3284 9.75 18 10.4216 18 11.25Z" fill="black"/>
</svg>
