<svg width="24" height="24" viewBox="0 0 24 24" fill="none" xmlns="http://www.w3.org/2000/svg">
<path d="M8.64751 5.09632L8.91815 6.059L8.64751 5.09632ZM6.04746 5.82725L6.31809 6.78994L6.04746 5.82725ZM3.48114 8.40492L4.45682 8.62411L3.48114 8.40492ZM2.06427 14.7116L3.03995 14.9308H3.03995L2.06427 14.7116ZM3.49857 17.7347L3.00848 18.6064L3.49857 17.7347ZM5.34762 18.7743L5.83771 17.9027H5.83771L5.34762 18.7743ZM8.57425 17.328L8.41168 18.3147L8.41169 18.3147L8.57425 17.328ZM15.4074 17.328L15.57 18.3147L15.57 18.3147L15.4074 17.328ZM18.634 18.7743L19.1241 19.646H19.1241L18.634 18.7743ZM20.4963 17.7273L20.0062 16.8556V16.8556L20.4963 17.7273ZM21.9416 14.7216L22.9196 14.5129V14.5129L21.9416 14.7216ZM20.4506 7.73551L19.4726 7.94423V7.94423L20.4506 7.73551ZM18.0272 5.50367L17.843 6.48656V6.48656L18.0272 5.50367ZM15.4361 5.01806L15.2519 6.00094L15.4361 5.01806ZM10.3642 6.30915L10.2446 5.31633V5.31633L10.3642 6.30915ZM13.694 6.3187L13.8221 5.32694V5.32694L13.694 6.3187ZM16.1427 17.78L15.1648 17.9887V17.9887L16.1427 17.78ZM7.83891 17.78L8.81689 17.9887L8.81689 17.9887L7.83891 17.78ZM16.3233 12.3613C16.3233 12.7345 16.2183 13.0553 16.0719 13.2552C15.947 13.426 15.7916 13.5205 15.5458 13.5205V15.5205C16.485 15.5205 17.2184 15.0752 17.686 14.4363C18.1322 13.8265 18.3233 13.0677 18.3233 12.3613H16.3233ZM15.5458 13.5205C15.3 13.5205 15.1447 13.426 15.0197 13.2552C14.8734 13.0553 14.7683 12.7345 14.7683 12.3613H12.7683C12.7683 13.0677 12.9595 13.8265 13.4057 14.4363C13.8732 15.0752 14.6066 15.5205 15.5458 15.5205V13.5205ZM14.7683 12.3613C14.7683 11.9882 14.8734 11.6674 15.0197 11.4674C15.1447 11.2966 15.3 11.2021 15.5458 11.2021V9.20214C14.6066 9.20214 13.8732 9.64744 13.4057 10.2864C12.9595 10.8961 12.7683 11.6549 12.7683 12.3613H14.7683ZM15.5458 11.2021C15.7916 11.2021 15.947 11.2966 16.0719 11.4674C16.2183 11.6674 16.3233 11.9882 16.3233 12.3613H18.3233C18.3233 11.6549 18.1322 10.8961 17.686 10.2864C17.2184 9.64744 16.485 9.20214 15.5458 9.20214V11.2021ZM9.21336 12.3613C9.21336 13.1923 8.6921 13.5205 8.43587 13.5205V15.5205C10.143 15.5205 11.2134 13.9153 11.2134 12.3613H9.21336ZM8.43587 13.5205C8.17964 13.5205 7.65838 13.1923 7.65838 12.3613H5.65838C5.65838 13.9153 6.72873 15.5205 8.43587 15.5205V13.5205ZM7.65838 12.3613C7.65838 11.5304 8.17964 11.2021 8.43587 11.2021V9.20214C6.72873 9.20214 5.65838 10.8073 5.65838 12.3613H7.65838ZM8.43587 11.2021C8.6921 11.2021 9.21336 11.5304 9.21336 12.3613H11.2134C11.2134 10.8073 10.143 9.20214 8.43587 9.20214V11.2021ZM8.37688 4.13363L5.77683 4.86457L6.31809 6.78994L8.91815 6.059L8.37688 4.13363ZM2.50545 8.18572L1.08859 14.4924L3.03995 14.9308L4.45682 8.62411L2.50545 8.18572ZM3.00848 18.6064L4.85752 19.646L5.83771 17.9027L3.98867 16.863L3.00848 18.6064ZM8.41169 18.3147C10.9173 18.7275 13.0644 18.7275 15.57 18.3147L15.2448 16.3413C12.9545 16.7186 11.0271 16.7186 8.73681 16.3413L8.41169 18.3147ZM19.1241 19.646L20.9864 18.5989L20.0062 16.8556L18.1439 17.9027L19.1241 19.646ZM22.9196 14.5129L21.4286 7.52678L19.4726 7.94423L20.9637 14.9304L22.9196 14.5129ZM18.2115 4.52079L15.6203 4.03517L15.2519 6.00094L17.843 6.48656L18.2115 4.52079ZM10.4838 7.30198C11.4037 7.19119 12.6685 7.19454 13.5659 7.31046L13.8221 5.32694C12.7561 5.18925 11.3249 5.18623 10.2446 5.31633L10.4838 7.30198ZM13.295 5.8656C13.295 5.63804 13.4166 5.48198 13.5142 5.40963C13.6083 5.33989 13.717 5.31336 13.8221 5.32694L13.5659 7.31046C14.2984 7.40508 15.295 6.91338 15.295 5.8656H13.295ZM15.6203 4.03517C14.5289 3.83062 13.295 4.58147 13.295 5.8656H15.295C15.295 5.89986 15.2856 5.93307 15.2719 5.95873C15.2591 5.98254 15.246 5.99389 15.2409 5.99773C15.2322 6.00415 15.2354 5.99784 15.2519 6.00094L15.6203 4.03517ZM21.4286 7.52678C21.0957 5.96703 19.7901 4.81666 18.2115 4.52079L17.843 6.48656C18.7207 6.65105 19.3268 7.26129 19.4726 7.94423L21.4286 7.52678ZM20.9864 18.5989C22.4539 17.7739 23.2706 16.1576 22.9196 14.5129L20.9637 14.9304C21.1156 15.6422 20.7811 16.4199 20.0062 16.8556L20.9864 18.5989ZM15.1648 17.9887C15.5466 19.7779 17.6412 20.4797 19.1241 19.646L18.1439 17.9027C17.9346 18.0203 17.6853 18.0282 17.4729 17.9434C17.2611 17.8589 17.151 17.713 17.1207 17.5713L15.1648 17.9887ZM15.57 18.3147C15.5016 18.326 15.4263 18.3134 15.3561 18.2705C15.2845 18.2267 15.1959 18.1346 15.1648 17.9887L17.1207 17.5713C16.9247 16.653 16.0183 16.2139 15.2448 16.3413L15.57 18.3147ZM8.81689 17.9887C8.78575 18.1346 8.69717 18.2267 8.62558 18.2705C8.55534 18.3134 8.48007 18.326 8.41168 18.3147L8.73681 16.3413C7.96333 16.2139 7.05693 16.653 6.86094 17.5713L8.81689 17.9887ZM4.85752 19.646C6.3404 20.4797 8.43503 19.7779 8.81689 17.9887L6.86094 17.5713C6.83069 17.713 6.72056 17.8589 6.5087 17.9434C6.29635 18.0282 6.04701 18.0203 5.83771 17.9027L4.85752 19.646ZM1.08859 14.4924C0.717529 16.144 1.53204 17.7763 3.00848 18.6064L3.98867 16.863C3.21103 16.4258 2.87987 15.6433 3.03995 14.9308L1.08859 14.4924ZM5.77683 4.86457C4.15216 5.3213 2.8686 6.56932 2.50545 8.18572L4.45682 8.62411C4.64264 7.797 5.32678 7.06862 6.31809 6.78994L5.77683 4.86457ZM10.6867 5.79495C10.6867 4.51823 9.40842 3.84364 8.37688 4.13363L8.91815 6.059C8.88547 6.06818 8.84342 6.0639 8.80272 6.03654C8.75997 6.00779 8.68666 5.9255 8.68666 5.79495H10.6867ZM8.68666 5.79495C8.68666 6.87725 9.7176 7.39425 10.4838 7.30198L10.2446 5.31633C10.3282 5.30627 10.4151 5.32723 10.4931 5.38532C10.5745 5.446 10.6867 5.58537 10.6867 5.79495H8.68666Z" fill="black"/>
</svg>
