<svg width="24" height="24" viewBox="0 0 24 24" fill="none" xmlns="http://www.w3.org/2000/svg">
<path d="M16 3.5C15.0373 4.52282 14.7815 6.23261 12.6857 8.0708M12.6857 8.0708C12.4764 8.25444 12.2486 8.43936 12 8.625C9.40125 10.5654 5.11765 12 3 13.125M12.6857 8.0708C13.1844 8.56811 13.6694 9.1261 14.1176 9.75C14.8135 10.7185 15.3428 11.7305 15.7452 12.7206M12.6857 8.0708C10.0371 5.42952 6.25 4.25 6.25 4.25M8.5 20.5C10.6176 18.25 12.4491 15.1648 15.1765 13.125C15.3684 12.9815 15.5581 12.8468 15.7452 12.7206M15.7452 12.7206C18.0816 11.1441 20.0197 10.875 21 10.875M15.7452 12.7206C17.1794 16.25 17 20 17 20M22 12C22 17.5228 17.5228 22 12 22C6.47715 22 2 17.5228 2 12C2 6.47715 6.47715 2 12 2C17.5228 2 22 6.47715 22 12Z" stroke="black" stroke-width="2" stroke-linecap="round" stroke-linejoin="round"/>
</svg>
