<svg width="24" height="24" viewBox="0 0 24 24" fill="none" xmlns="http://www.w3.org/2000/svg">
<path d="M12 6.09633L17.5321 9.48043M12 6.09633L6.46786 9.48043M12 6.09633L15.3025 3.29916C15.7112 2.95294 16.3224 2.90173 16.7928 3.17431L20.4271 5.28045C21.1265 5.68581 21.1988 6.59663 20.5707 7.09066L17.5321 9.48043M12 6.09633L8.69754 3.29916C8.28877 2.95294 7.67756 2.90173 7.20721 3.17431L3.57293 5.28045C2.87346 5.68581 2.80121 6.59663 3.42935 7.09066L6.46786 9.48043M17.5321 9.48043L12 12.8645M17.5321 9.48043L20.571 12.4833C21.0773 12.9836 20.987 13.7787 20.3791 14.1724L17.5321 16.0164M12 12.8645L6.46786 9.48043M12 12.8645L8.42946 16.1408C8.00636 16.529 7.34007 16.5813 6.85122 16.2647L6.46786 16.0164M12 12.8645L15.5705 16.1408C15.9936 16.529 16.6599 16.5813 17.1488 16.2647L17.5321 16.0164M6.46786 9.48043L3.42901 12.4833C2.9227 12.9836 3.01304 13.7787 3.62093 14.1724L6.46786 16.0164M6.46786 16.0164V17.1772C6.46786 17.9966 6.95196 18.7515 7.73253 19.1494L10.8059 20.7161C11.5485 21.0946 12.4515 21.0946 13.1941 20.7161L16.2675 19.1494C17.048 18.7515 17.5321 17.9966 17.5321 17.1772V16.0164" stroke="black" stroke-width="2" stroke-linecap="round"/>
</svg>
