<svg width="24" height="24" viewBox="0 0 24 24" fill="none" xmlns="http://www.w3.org/2000/svg">
<path d="M7.49331 14L8.74728 12.5788C9.32456 11.9246 9.61319 11.5975 9.9864 11.4684C10.1346 11.4171 10.2899 11.3894 10.4467 11.3863C10.8416 11.3784 11.2255 11.5856 11.9933 12C12.7611 12.4144 13.1451 12.6216 13.5399 12.6137C13.6967 12.6106 13.852 12.5829 14.0002 12.5316C14.3734 12.4025 14.6621 12.0754 15.2393 11.4212L16.4933 10M21 11.6783C21 16.4712 16.9706 20.3566 12 20.3566C11.0357 20.3566 10.1069 20.2104 9.23602 19.9397C9.006 19.8682 8.89099 19.8324 8.78797 19.8435C8.68495 19.8546 8.58798 19.9096 8.39403 20.0196L7.49331 20.5305C6.82886 20.9074 6.49663 21.0958 6.24829 20.9512C5.99994 20.8065 5.99994 20.4246 5.99994 19.6607V18.6047C5.99994 18.3844 5.99994 18.2743 5.95974 18.1802C5.91953 18.0861 5.83339 18.0037 5.66111 17.8389C4.0177 16.2665 3 14.087 3 11.6783C3 6.88541 7.02944 3 12 3C16.9706 3 21 6.88541 21 11.6783Z" stroke="black" stroke-width="2" stroke-linecap="round" stroke-linejoin="round"/>
</svg>
