<svg width="24" height="24" viewBox="0 0 24 24" fill="none" xmlns="http://www.w3.org/2000/svg">
<path d="M13.5 12H10.5C9.94772 12 9.5 11.5523 9.5 11V5C9.5 4.44772 9.94772 4 10.5 4H15.728C15.8629 4 15.9591 4.13087 15.9189 4.25965L15.375 6M13.5 12L15.375 6M13.5 12L12.9561 13.7403C12.9159 13.8691 13.0121 14 13.147 14H19C19.5523 14 20 13.5523 20 13V7C20 6.44772 19.5523 6 19 6H15.375M7 3V21C7 21.5523 6.55228 22 6 22H5C4.44772 22 4 21.5523 4 21V3C4 2.44772 4.44772 2 5 2H6C6.55228 2 7 2.44772 7 3Z" stroke="black" stroke-width="2" stroke-linecap="round" stroke-linejoin="round"/>
</svg>
