<svg width="24" height="24" viewBox="0 0 24 24" fill="none" xmlns="http://www.w3.org/2000/svg">
<path d="M12 15.3333H8.5M12 15.3333V18.6667C12 20.5076 10.433 22 8.5 22C6.567 22 5 20.5076 5 18.6667C5 16.8257 6.567 15.3333 8.5 15.3333M12 15.3333V8.66667M8.5 15.3333C6.567 15.3333 5 13.8409 5 12C5 10.1591 6.567 8.66667 8.5 8.66667M12 8.66667H8.5M12 8.66667H15.5M12 8.66667V2M8.5 8.66667C6.567 8.66667 5 7.17428 5 5.33333C5 3.49238 6.567 2 8.5 2H12M15.5 8.66667C17.433 8.66667 19 10.1591 19 12C19 13.8409 17.433 15.3333 15.5 15.3333C13.567 15.3333 12 13.8409 12 12C12 10.1591 13.567 8.66667 15.5 8.66667ZM15.5 8.66667C17.433 8.66667 19 7.17428 19 5.33333C19 3.49238 17.433 2 15.5 2H12" stroke="black" stroke-width="2"/>
</svg>
