<svg width="24" height="24" viewBox="0 0 24 24" fill="none" xmlns="http://www.w3.org/2000/svg">
<path d="M3.5 4.26951L3.5 19.7305M3.5 4.26951C3.5 3.30225 4.57703 2.69133 5.45236 3.16211M3.5 4.26951C3.5 3.80775 3.74546 3.42718 4.09726 3.20676M5.45236 3.16211L19.8259 10.8926M5.45236 3.16211L16.0323 8.85225M5.45236 3.16211C4.99492 2.91608 4.48237 2.96547 4.09726 3.20676M5.45236 20.8379L19.8259 13.1074M5.45236 20.8379C4.57703 21.3087 3.5 20.6978 3.5 19.7305M5.45236 20.8379C4.93353 21.1169 4.34387 21.016 3.9496 20.686M5.45236 20.8379L16.1998 15.0576M3.5 19.7305C3.5 20.1244 3.67866 20.4593 3.9496 20.686M19.8259 13.1074C20.7247 12.624 20.7247 11.376 19.8259 10.8926M19.8259 13.1074L16.1998 15.0576M19.8259 10.8926L16.0323 8.85225M3.9496 20.686L12.9154 11.8738M12.9154 11.8738L4.09726 3.20676M12.9154 11.8738L16.1998 15.0576M12.9154 11.8738L16.0323 8.85225" stroke="black" stroke-width="2"/>
</svg>
