<svg width="24" height="24" viewBox="0 0 24 24" fill="none" xmlns="http://www.w3.org/2000/svg">
<path d="M20 2V4M20 4V6M20 4H22M20 4H18M10.5 5C12.2234 5 13.8269 5.51287 15.1664 6.39431C15.6769 6.73025 15.6709 7.45193 15.2053 7.84773L14.12 8.77023C13.7701 9.06765 13.2667 9.0789 12.8577 8.87018C12.1501 8.50916 11.3488 8.30556 10.5 8.30556C7.63119 8.30556 5.30556 10.6312 5.30556 13.5C5.30556 16.3688 7.63119 18.6944 10.5 18.6944C12.5449 18.6944 14.3139 17.5128 15.1613 15.795C15.3124 15.4886 15.0726 15.1528 14.7309 15.1528H11.5C10.9477 15.1528 10.5 14.7051 10.5 14.1528V12.8472C10.5 12.2949 10.9477 11.8472 11.5 11.8472H17.6062C18.3228 11.8472 18.9537 12.3545 18.9893 13.0702C18.9964 13.2126 19 13.3559 19 13.5C19 18.1944 15.1944 22 10.5 22C5.80558 22 2 18.1944 2 13.5C2 8.80558 5.80558 5 10.5 5Z" stroke="black" stroke-width="2" stroke-linecap="round" stroke-linejoin="round"/>
</svg>
