<svg width="24" height="24" viewBox="0 0 24 24" fill="none" xmlns="http://www.w3.org/2000/svg">
<path d="M10.8815 21.9381C11.2487 21.979 11.6219 22 12 22C17.5228 22 22 17.5228 22 12C22 10.5778 21.7031 9.22492 21.1679 8M10.8815 21.9381C5.88511 21.3821 2 17.1447 2 12C2 9.7766 2.72562 7.72268 3.95297 6.06213M10.8815 21.9381L15.4357 14.0495M3.95297 6.06213C5.77432 3.59793 8.70055 2 12 2C16.1006 2 19.6248 4.46819 21.1679 8M3.95297 6.06213L8.49255 13.9245M8.49255 13.9245C9.17279 15.1616 10.4885 16 12 16C13.46 16 14.7373 15.2178 15.4357 14.0495M8.49255 13.9245C8.17859 13.3535 8 12.6976 8 12C8 9.79086 9.79086 8 12 8M8.49255 13.9245L8.53613 14M15.4357 14.0495C15.7941 13.4501 16 12.7491 16 12C16 9.79086 14.2091 8 12 8M15.4357 14.0495L15.4643 14M12 8H21.1679" stroke="black" stroke-width="2" stroke-linecap="round" stroke-linejoin="round"/>
</svg>
