<svg width="24" height="24" viewBox="0 0 24 24" fill="none" xmlns="http://www.w3.org/2000/svg">
<path d="M4.95679 17.1901C3.13078 15.7925 2 13.8551 2 11.714C2 10.42 2.41307 9.20033 3.14305 8.1293M4.95679 17.1901C4.95679 18 4.5 19 4 20C6 20 8 20 8.92891 19.0575C9.89655 19.2981 10.9286 19.4281 12 19.4281C15.7393 19.4281 18.9993 17.8449 20.7148 15.5M4.95679 17.1901L8.92891 12.9346M16.5 4.82331C15.1474 4.29665 13.6186 4 12 4C8.1547 4 4.81631 5.67424 3.14305 8.1293M16.5 4.82331C19.7626 6.09367 22 8.7023 22 11.714C22 13.0899 21.5331 14.3816 20.7148 15.5M16.5 4.82331L12.869 8.71341M3.14305 8.1293L8.92891 12.9346M8.92891 12.9346L12.869 8.71341M12.869 8.71341L20.7148 15.5" stroke="black" stroke-width="2" stroke-linecap="round" stroke-linejoin="round"/>
</svg>
