<svg width="24" height="24" viewBox="0 0 24 24" fill="none" xmlns="http://www.w3.org/2000/svg">
<path d="M17.6917 5.21763C18.1573 4.82184 18.1634 4.10099 17.6598 3.75469C16.0504 2.64786 14.1009 2 12 2C6.47715 2 2 6.47715 2 12C2 17.5228 6.47715 22 12 22C17.5228 22 22 17.5228 22 12C22 11.7569 21.9913 11.5159 21.9743 11.2772C21.9232 10.5624 21.2944 10.0556 20.5778 10.0556H13C12.4477 10.0556 12 10.5033 12 11.0556V12.9444C12 13.4967 12.4477 13.9444 13 13.9444H17.1002C17.4419 13.9444 17.6819 14.28 17.537 14.5894C16.5623 16.67 14.4495 18.1111 12 18.1111C8.62493 18.1111 5.88889 15.3751 5.88889 12C5.88889 8.62493 8.62493 5.88889 12 5.88889C13.0478 5.88889 14.034 6.15259 14.8959 6.61723C15.3001 6.83516 15.8038 6.82231 16.1537 6.52489L17.6917 5.21763Z" stroke="black" stroke-width="2"/>
</svg>
