<svg width="24" height="24" viewBox="0 0 24 24" fill="none" xmlns="http://www.w3.org/2000/svg">
<path d="M3.40135 16.5C3.14609 16.9413 3 17.4536 3 18C3 19.6569 4.34315 21 6 21C7.11042 21 8.07994 20.3967 8.59865 19.5M3.40135 16.5C3.92006 15.6033 4.88958 15 6 15C7.65685 15 9 16.3431 9 18C9 18.417 8.91493 18.8141 8.76121 19.1749M3.40135 16.5L9.23879 4.8251M9.23879 4.8251C9.08507 5.18593 9 5.58303 9 6C9 6.54643 9.14609 7.05874 9.40135 7.5L12 12.6973M9.23879 4.8251C9.28652 4.71308 9.34087 4.60454 9.40135 4.5M9.23879 4.8251L9.40135 4.5M9.40135 4.5C9.92006 3.6033 10.8896 3 12 3C13.1104 3 14.0799 3.6033 14.5987 4.5M14.7612 4.8251C14.7135 4.71307 14.6591 4.60454 14.5987 4.5M14.7612 4.8251L14.5987 4.5M14.7612 4.8251L20.5987 16.5C20.8539 16.9413 21 17.4536 21 18C21 19.6569 19.6569 21 18 21C16.8896 21 15.9201 20.3967 15.4013 19.5M8.59865 19.5C8.65913 19.3955 8.71348 19.2869 8.76121 19.1749M8.59865 19.5L8.76121 19.1749M8.76121 19.1749L12 12.6973M15.2388 19.1749C15.2865 19.2869 15.3409 19.3955 15.4013 19.5M15.2388 19.1749L12 12.6973M15.2388 19.1749L15.4013 19.5" stroke="black" stroke-width="2" stroke-linecap="round" stroke-linejoin="round"/>
</svg>
