<svg width="24" height="24" viewBox="0 0 24 24" fill="none" xmlns="http://www.w3.org/2000/svg">
<path d="M2 8.93472V16.9869C2 18.0987 2.89543 19 4 19H7V11.1994M2 8.93472V7.01537C2 5.55457 3.49724 4.58015 4.82073 5.17961L7 6.16669M2 8.93472L7 11.1994M17 6.16669L12 8.43139L7 6.16669M17 6.16669L19.1793 5.17961C20.5028 4.58015 22 5.55457 22 7.01537V16.9869C22 18.0987 21.1046 19 20 19H17V11.1994M17 6.16669V11.1994M7 6.16669V11.1994M17 11.1994L12 13.4641L7 11.1994M17 11.1994L22 8.93472" stroke="black" stroke-width="2" stroke-linecap="round" stroke-linejoin="round"/>
</svg>
