<svg width="24" height="24" viewBox="0 0 24 24" fill="none" xmlns="http://www.w3.org/2000/svg">
<path fill-rule="evenodd" clip-rule="evenodd" d="M5 10.5C5 6.63401 8.13401 3.5 12 3.5C15.866 3.5 19 6.63401 19 10.5C19 13.0845 18.292 15.6343 17.0429 17.5078C16.0073 19.0613 14.6375 20.1071 13 20.4096V18.5C13 17.9477 12.5523 17.5 12 17.5C8.13401 17.5 5 14.366 5 10.5ZM12 1.5C7.02944 1.5 3 5.52944 3 10.5C3 15.1326 6.50005 18.9476 11 19.4451V21.5C11 22.0523 11.4477 22.5 12 22.5C14.9161 22.5 17.1971 20.8822 18.7071 18.6172C20.208 16.3657 21 13.4155 21 10.5C21 5.52944 16.9706 1.5 12 1.5ZM7.55 8.5C7.38431 8.5 7.25 8.63431 7.25 8.8V11.7C7.25 11.8657 7.38431 12 7.55 12H7.95C8.11569 12 8.25 12.1343 8.25 12.3V13.3C8.25 13.4105 8.33995 13.5005 8.45029 13.4954C9.83836 13.4312 10.75 12.6935 10.75 11.5V8.8C10.75 8.63431 10.6157 8.5 10.45 8.5H7.55ZM16.45 8.5C16.6157 8.5 16.75 8.63431 16.75 8.8V11.5C16.75 12.6935 15.8384 13.4312 14.4503 13.4954C14.34 13.5005 14.25 13.4105 14.25 13.3V12.3C14.25 12.1343 14.1157 12 13.95 12H13.55C13.3843 12 13.25 11.8657 13.25 11.7V8.8C13.25 8.63431 13.3843 8.5 13.55 8.5H16.45Z" fill="black"/>
</svg>
