<svg width="24" height="24" viewBox="0 0 24 24" fill="none" xmlns="http://www.w3.org/2000/svg">
<path d="M9.9762 9.63891L12 12L14.0238 9.63891M9.9762 9.63891C10.2969 9.3638 10.5 8.95563 10.5 8.5C10.5 7.67157 9.82843 7 9 7C8.17157 7 7.5 7.67157 7.5 8.5C7.5 9.32843 8.17157 10 9 10C9.3728 10 9.71384 9.864 9.9762 9.63891ZM14.0238 9.63891C14.2862 9.864 14.6272 10 15 10C15.8284 10 16.5 9.32843 16.5 8.5C16.5 7.67157 15.8284 7 15 7C14.1716 7 13.5 7.67157 13.5 8.5C13.5 8.95563 13.7031 9.3638 14.0238 9.63891ZM19 2V21C19 21.5523 18.5523 22 18 22H17C10.3726 22 5 16.6274 5 10V2L8 4C8 4 9.5 2.5 12 2.5C14.5 2.5 16 4 16 4L19 2Z" stroke="black" stroke-width="2" stroke-linecap="round" stroke-linejoin="round"/>
</svg>
