<svg width="24" height="24" viewBox="0 0 24 24" fill="none" xmlns="http://www.w3.org/2000/svg">
<path d="M2 17V10.3332M21.8576 8.5625C21.4504 7.78125 20.7717 7 19.1429 7C17.514 7 16.1797 8.25539 16.2924 9.8125C16.4281 11.6875 19.1429 12 19.1429 12C19.1429 12 21.8576 12.3125 21.9933 14.1875C22.1061 15.7446 20.7717 17 19.1429 17C17.514 17 16.8353 16.2187 16.4281 15.4375M2 7V7.011M5.42857 10.6111V13.3889C5.42857 13.4405 5.42857 13.4663 5.42885 13.4881C5.4532 15.4176 7.05617 16.9761 9.04084 16.9997C9.06327 17 9.0898 17 9.14286 17C9.19591 17 9.22244 17 9.24488 16.9997C11.2295 16.9761 12.8325 15.4176 12.8569 13.4881C12.8571 13.4663 12.8571 13.4405 12.8571 13.3889V10.6111C12.8571 10.5595 12.8571 10.5337 12.8569 10.5119C12.8325 8.58238 11.2295 7.02395 9.24488 7.00027C9.22244 7 9.19591 7 9.14286 7C9.0898 7 9.06327 7 9.04084 7.00027C7.05617 7.02395 5.4532 8.58238 5.42885 10.5119C5.42857 10.5337 5.42857 10.5595 5.42857 10.6111Z" stroke="black" stroke-width="2.28571" stroke-linecap="round" stroke-linejoin="round"/>
</svg>
