<svg width="24" height="24" viewBox="0 0 24 24" fill="none" xmlns="http://www.w3.org/2000/svg">
<path d="M13.5 5.07823C13.0107 5.0267 12.5098 5 12 5C6.47715 5 2 8.13401 2 12C2 15.866 6.47715 19 12 19C15.9891 19 19.4327 17.3649 21.0377 15M13.5 5.07823C14.4035 5.17336 15.2674 5.35311 16.0747 5.60557M13.5 5.07823L8.12483 11.7446C7.29994 12.7677 7.68952 14.1813 8.7022 14.7491M16.0747 5.60557C19.5666 6.69753 22 9.14984 22 12C22 13.0736 21.6547 14.0907 21.0377 15M16.0747 5.60557L8.7022 14.7491M21.0377 15H9.68176C9.31535 15 8.98455 14.9074 8.7022 14.7491" stroke="black" stroke-width="2" stroke-linecap="round" stroke-linejoin="round"/>
</svg>
