<svg width="24" height="24" viewBox="0 0 24 24" fill="none" xmlns="http://www.w3.org/2000/svg">
<path fill-rule="evenodd" clip-rule="evenodd" d="M3 10.6143C3 8.89054 3.91518 7.25899 5.53474 6.0258C7.1551 4.792 9.43759 4 12 4C14.5624 4 16.8449 4.792 18.4653 6.0258C20.0848 7.25899 21 8.89054 21 10.6143C21 13.2409 19.0406 15.4559 16.6285 17.159C14.9243 18.3623 13.1393 19.2056 12.0691 19.6586C12.1141 19.5364 12.1574 19.4162 12.1896 19.311C12.2285 19.1838 12.2817 18.9866 12.2753 18.759C12.2592 18.1818 11.964 17.677 11.4572 17.3856C11.2506 17.2669 11.0381 17.2217 10.9096 17.1977C10.7761 17.1728 10.6132 17.1515 10.4465 17.1297L10.4465 17.1297L10.4245 17.1269C5.98586 16.5462 3 13.6762 3 10.6143ZM12 2C9.03956 2 6.32205 2.91253 4.32313 4.43458C2.3234 5.95724 1 8.13286 1 10.6143C1 15.0705 5.16909 18.4472 10.1409 19.1068C10.0354 19.3923 9.94184 19.6465 9.87987 19.8507C9.82769 20.0226 9.72834 20.3593 9.79197 20.7101C9.92056 21.419 10.5188 21.9698 11.255 21.9988L11.256 21.9989L11.2588 21.999L11.2724 21.9994C11.2826 21.9996 11.3139 22.0003 11.3536 21.998C11.4001 21.9953 11.4505 21.9892 11.5038 21.9779L11.5204 21.9742L11.5369 21.9716C11.69 21.9474 11.7747 21.9249 11.8844 21.8845C12.4966 21.659 15.2069 20.6111 17.7821 18.7928C20.31 17.0079 23 14.2711 23 10.6143C23 8.13286 21.6766 5.95724 19.6769 4.43458C17.6779 2.91253 14.9604 2 12 2ZM11.2968 9.0269C11.475 8.9624 11.6744 9.01639 11.7957 9.16194L13.5 11.2071V9.45002C13.5 9.20149 13.7015 9.00002 13.95 9.00002C14.1985 9.00002 14.4 9.20149 14.4 9.45002V12.45C14.4 12.6395 14.2813 12.8086 14.1032 12.8731C13.925 12.9376 13.7256 12.8837 13.6043 12.7381L11.9 10.6929V12.45C11.9 12.6986 11.6985 12.9 11.45 12.9C11.2015 12.9 11 12.6986 11 12.45V9.45002C11 9.26056 11.1187 9.0914 11.2968 9.0269ZM14.75 9.45002C14.75 9.20149 14.9515 9.00002 15.2 9.00002H16.7C16.9485 9.00002 17.15 9.20149 17.15 9.45002C17.15 9.69855 16.9485 9.90002 16.7 9.90002H15.65V10.5H16.7C16.9485 10.5 17.15 10.7015 17.15 10.95C17.15 11.1986 16.9485 11.4 16.7 11.4H15.65V12H16.7C16.9485 12 17.15 12.2015 17.15 12.45C17.15 12.6986 16.9485 12.9 16.7 12.9H15.2C14.9515 12.9 14.75 12.6986 14.75 12.45V9.45002ZM10.2 9.00002C10.4485 9.00002 10.65 9.20149 10.65 9.45002V12.45C10.65 12.6986 10.4485 12.9 10.2 12.9C9.95147 12.9 9.75 12.6986 9.75 12.45V9.45002C9.75 9.20149 9.95147 9.00002 10.2 9.00002ZM7.45 9.00002C7.69853 9.00002 7.9 9.20149 7.9 9.45002V12H8.95C9.19853 12 9.4 12.2015 9.4 12.45C9.4 12.6986 9.19853 12.9 8.95 12.9H7.45C7.20147 12.9 7 12.6986 7 12.45V9.45002C7 9.20149 7.20147 9.00002 7.45 9.00002Z" fill="black"/>
</svg>
