<svg width="24" height="24" viewBox="0 0 24 24" fill="none" xmlns="http://www.w3.org/2000/svg">
<path d="M13.85 16.05V19.075C13.85 19.9451 13.85 20.3801 13.5975 20.6643C13.5714 20.6936 13.5436 20.7214 13.5143 20.7475C13.2301 21 12.7951 21 11.925 21C11.0549 21 10.6199 21 10.3357 20.7475C10.3064 20.7214 10.2786 20.6936 10.2525 20.6643C10 20.3801 10 19.9451 10 19.075V11.925C10 11.0549 10 10.6199 10.2525 10.3357C10.2786 10.3064 10.3064 10.2786 10.3357 10.2525C10.6199 10 11.0549 10 11.925 10H12.6097C12.833 10 12.9447 10 13.0376 10.0178C13.4404 10.0947 13.7553 10.4096 13.8322 10.8124C13.85 10.9053 13.85 11.017 13.85 11.2403C13.85 11.3317 13.85 11.3773 13.8538 11.3907C13.8729 11.4583 13.9298 11.484 13.9931 11.4537C14.0056 11.4477 14.0444 11.4136 14.122 11.3454C15.7059 9.95191 21 9.76956 21 14.4V19.075C21 19.9451 21 20.3801 20.7475 20.6643C20.7214 20.6936 20.6936 20.7214 20.6643 20.7475C20.3801 21 19.9451 21 19.075 21C18.2049 21 17.7699 21 17.4857 20.7475C17.4564 20.7214 17.4286 20.6936 17.4025 20.6643C17.15 20.3801 17.15 19.9451 17.15 19.075V16.05C17.15 13.85 13.85 13.85 13.85 16.05Z" stroke="black" stroke-width="2"/>
<path d="M6.6 19.2V12C6.6 11.2501 6.6 10.8751 6.40902 10.6122C6.34734 10.5273 6.27268 10.4527 6.18778 10.391C5.92492 10.2 5.54995 10.2 4.8 10.2C4.05005 10.2 3.67508 10.2 3.41222 10.391C3.32732 10.4527 3.25266 10.5273 3.19098 10.6122C3 10.8751 3 11.2501 3 12V19.2C3 19.9499 3 20.3249 3.19098 20.5878C3.25266 20.6727 3.32732 20.7473 3.41222 20.809C3.67508 21 4.05005 21 4.8 21C5.54995 21 5.92492 21 6.18778 20.809C6.27268 20.7473 6.34734 20.6727 6.40902 20.5878C6.6 20.3249 6.6 19.9499 6.6 19.2Z" stroke="black" stroke-width="2"/>
<path d="M4.8 6.6C5.79411 6.6 6.6 5.79411 6.6 4.8C6.6 3.80589 5.79411 3 4.8 3C3.80589 3 3 3.80589 3 4.8C3 5.79411 3.80589 6.6 4.8 6.6Z" stroke="black" stroke-width="2"/>
</svg>
