<svg width="24" height="24" viewBox="0 0 24 24" fill="none" xmlns="http://www.w3.org/2000/svg">
<path d="M19.0711 5C20.8807 6.79146 22 9.26633 22 12C22 14.7337 20.8807 17.2085 19.0711 19M4.92893 19C3.11929 17.2085 2 14.7337 2 12C2 9.26633 3.11929 6.79146 4.92893 5M16.2426 7.8C17.3284 8.87487 18 10.3598 18 12C18 13.6402 17.3284 15.1251 16.2426 16.2M7.75736 16.2C6.67157 15.1251 6 13.6402 6 12C6 10.3598 6.67157 8.87487 7.75736 7.8M14 12C14 11.4533 13.7761 10.9583 13.4142 10.6C13.0523 10.2417 12.5523 10.0201 12 10.0201C11.4477 10.0201 10.9477 10.2417 10.5858 10.6C10.2239 10.9583 10 11.4533 10 12C10 12.5467 10.2239 13.0417 10.5858 13.4C10.9477 13.7583 11.4477 13.9799 12 13.9799C12.5523 13.9799 13.0523 13.7583 13.4142 13.4C13.7761 13.0417 14 12.5467 14 12Z" stroke="black" stroke-width="2" stroke-linecap="round" stroke-linejoin="round"/>
</svg>
