<svg width="24" height="24" viewBox="0 0 24 24" fill="none" xmlns="http://www.w3.org/2000/svg">
<path fill-rule="evenodd" clip-rule="evenodd" d="M14.9225 3.19303C13.307 1.60232 10.6941 1.60232 9.07858 3.19303C7.75399 4.49728 7.47644 6.52032 8.40931 8.12778L10.2856 11.3608C11.0468 12.6726 12.9543 12.6726 13.7155 11.3608L15.5918 8.12779C16.5247 6.52032 16.2471 4.49728 14.9225 3.19303ZM10.4818 4.61814C11.3188 3.79395 12.6823 3.79395 13.5193 4.61814C14.1973 5.28569 14.3342 6.31024 13.862 7.12391L12.0006 10.3314L10.1391 7.12391C9.66692 6.31024 9.80385 5.28569 10.4818 4.61814ZM6.78728 10.5566C7.31623 10.3978 7.61625 9.84018 7.45741 9.31124C7.29856 8.78229 6.74099 8.48226 6.21204 8.64111C4.50064 9.15506 3.1523 10.5741 2.80876 12.4007L2.08352 16.2569C1.51843 19.2615 3.86106 22 6.91708 22H17.0822C20.1383 22 22.4809 19.2615 21.9158 16.2569L21.1906 12.4007C20.847 10.5741 19.4987 9.15506 17.7873 8.64111C17.2583 8.48226 16.7008 8.78229 16.5419 9.31124C16.3831 9.84018 16.6831 10.3978 17.212 10.5566C18.2368 10.8643 19.0252 11.7078 19.225 12.7704L19.9502 16.6265C20.2769 18.3632 18.9233 20 17.0822 20H6.91708C5.076 20 3.72245 18.3632 4.04906 16.6265L4.7743 12.7704C4.97414 11.7078 5.76256 10.8643 6.78728 10.5566ZM6.99966 18.9144C9.38213 18.9144 11.1622 17.4118 12.5282 16.2073C12.6334 16.1145 12.7361 16.0235 12.8365 15.9344C13.43 15.4081 13.9471 14.9497 14.4685 14.594C15.0673 14.1856 15.5526 14 15.9997 14C16.5519 14 16.9997 13.5523 16.9997 13C16.9997 12.4477 16.5519 12 15.9997 12C14.9781 12 14.0936 12.4287 13.3415 12.9418C12.7056 13.3755 12.0791 13.9319 11.4931 14.4522L11.4929 14.4525C11.3959 14.5386 11.3 14.6237 11.2054 14.7072C9.78477 15.9599 8.53345 16.9144 6.99966 16.9144C6.44737 16.9144 5.99966 17.3622 5.99966 17.9144C5.99966 18.4667 6.44737 18.9144 6.99966 18.9144ZM11.9997 7C12.5519 7 12.9997 6.55228 12.9997 6C12.9997 5.44772 12.5519 5 11.9997 5C11.4474 5 10.9997 5.44772 10.9997 6C10.9997 6.55228 11.4474 7 11.9997 7Z" fill="black"/>
</svg>
