<svg width="24" height="24" viewBox="0 0 24 24" fill="none" xmlns="http://www.w3.org/2000/svg">
<path d="M5 9C6.65685 9 8 10.3431 8 12C8 13.6569 6.65685 15 5 15C3.34315 15 2 13.6569 2 12C2 10.3431 3.34315 9 5 9Z" stroke="black" stroke-width="2" stroke-linecap="round" stroke-linejoin="round"/>
<path d="M13.5 9C14.8807 9 16 10.3431 16 12C16 13.6569 14.8807 15 13.5 15C12.1193 15 11 13.6569 11 12C11 10.3431 12.1193 9 13.5 9Z" stroke="black" stroke-width="2" stroke-linecap="round" stroke-linejoin="round"/>
<path d="M20.5 9C21.3284 9 22 10.3431 22 12C22 13.6569 21.3284 15 20.5 15C19.6716 15 19 13.6569 19 12C19 10.3431 19.6716 9 20.5 9Z" stroke="black" stroke-width="2" stroke-linecap="round" stroke-linejoin="round"/>
</svg>
