<svg width="24" height="24" viewBox="0 0 24 24" fill="none" xmlns="http://www.w3.org/2000/svg">
<path d="M12 9.09996L9.11884 13.63L7.02521 16.7901C6.52654 17.5427 5.65201 18 4.71112 18C3.91146 18 3.31076 17.8271 2.8933 17.4932C2.48796 17.1689 2.11632 16.5814 2.01116 15.4715C1.97739 15.115 2.02224 14.7314 2.11887 14.3069C2.45234 12.8423 3.20158 9.71928 3.76612 8.4411C4.41902 6.96289 5.95006 6 7.64759 6C9.1246 6 10.4933 6.73105 11.2532 7.92583L12 9.09996ZM12 9.09996L14.8812 13.63L16.9748 16.7901C17.4735 17.5427 18.348 18 19.2889 18C20.0885 18 20.6892 17.8271 21.1067 17.4932C21.512 17.1689 21.8837 16.5814 21.9888 15.4715C22.0226 15.115 21.9778 14.7314 21.8811 14.3069C21.5477 12.8423 20.7984 9.71928 20.2339 8.4411C19.581 6.96289 18.0499 6 16.3524 6C14.8754 6 13.5067 6.73105 12.7468 7.92583L12 9.09996Z" stroke="black" stroke-width="2" stroke-linecap="round" stroke-linejoin="round"/>
</svg>
