<svg width="24" height="24" viewBox="0 0 24 24" fill="none" xmlns="http://www.w3.org/2000/svg">
<path d="M9 16H3V13C3 11.3431 4.34315 10 6 10C7.65685 10 9 11.3431 9 13V13.5M9 16V13.5M9 16V17.5H15M9 13.5C9 11.8431 10.3431 10.5 12 10.5C13.6569 10.5 15 11.8431 15 13.5V14M15 17.5V14M15 17.5V19H21V14C21 12.3431 19.6569 11 18 11C16.3431 11 15 12.3431 15 14M18 8C18.8284 8 19.5 7.32843 19.5 6.5C19.5 5.67157 18.8284 5 18 5C17.1716 5 16.5 5.67157 16.5 6.5C16.5 7.32843 17.1716 8 18 8ZM13.25 6.5C13.25 5.80964 12.6904 5.25 12 5.25C11.3096 5.25 10.75 5.80964 10.75 6.5C10.75 7.19036 11.3096 7.75 12 7.75C12.6904 7.75 13.25 7.19036 13.25 6.5ZM7 6.5C7 5.94772 6.55228 5.5 6 5.5C5.44772 5.5 5 5.94772 5 6.5C5 7.05228 5.44772 7.5 6 7.5C6.55228 7.5 7 7.05228 7 6.5Z" stroke="black" stroke-width="2" stroke-linecap="round" stroke-linejoin="round"/>
</svg>
