<svg width="24" height="24" viewBox="0 0 24 24" fill="none" xmlns="http://www.w3.org/2000/svg">
<path d="M20.0426 5.68358C20.6513 6.40995 21 7.34352 21 8.32743V16.0435C21 18.1121 19.4769 19.8521 17.4585 20.0892L9.93397 20.9731C9.08136 21.0733 8.23021 20.8909 7.5 20.4687M20.0426 5.68358C19.7544 5.33975 19.4079 5.04233 19.0126 4.80798L16.8956 3.55306C16.1518 3.11217 15.2882 2.92728 14.433 3.02585L6.55005 3.93443C5.69026 4.03353 4.91981 4.40537 4.31817 4.95937M20.0426 5.68358L9.24878 6.92766M20.0426 5.68358L9.27502 6.92446L9.24878 6.92766M4.31817 4.95937C3.50483 5.7083 3 6.79014 3 7.98109V14.3786C3 15.4507 3.41527 16.4796 4.1557 17.242L6.63117 19.7909C6.89181 20.0593 7.18462 20.2863 7.5 20.4687M4.31817 4.95937L6.16952 6.2219M7.5 20.4687V8.94779M6.16952 6.2219C7.00083 6.78894 7.5 7.74082 7.5 8.75961V8.94779M6.16952 6.2219L6.28141 6.2982C7.06819 6.83475 8.01643 7.0697 8.95739 6.96124L9.24878 6.92766M7.5 8.94779C7.5 7.92081 8.25078 7.0561 9.24878 6.92766M11.6 18.0896V9.49205M11.6 18.0896L12.2 18.033M11.6 18.0896L11 18.1461M11.6 9.49205L16.4 17.6371M11.6 9.49205L11 9.54861M11.6 9.49205L12.2 9.43549M16.4 17.6371V9.03955M16.4 17.6371L15.8 17.6936M16.4 17.6371L17 17.5805M16.4 9.03955L15.8 9.09611M16.4 9.03955L17 8.98299" stroke="black" stroke-width="2" stroke-linecap="round" stroke-linejoin="round"/>
</svg>
