<svg width="24" height="24" viewBox="0 0 24 24" fill="none" xmlns="http://www.w3.org/2000/svg">
<path d="M16 21.1679C19.5318 19.6248 22 16.1006 22 12C22 7.89936 19.5318 4.3752 16 2.83209M16 21.1679C14.7751 21.7031 13.4222 22 12 22C6.47715 22 2 17.5228 2 12C2 6.47715 6.47715 2 12 2C13.4222 2 14.7751 2.2969 16 2.83209M16 21.1679C12.4682 22.711 6.5 18.5 6.5 12M16 2.83209C12.4682 1.28897 6.5 5.5 6.5 12M6.5 12C6.5 16.4183 8.96243 20 12 20C12.7822 20 13.5263 19.7625 14.2 19.3343C16.1425 18.0998 17.5 15.2805 17.5 12C17.5 8.71949 16.1425 5.90016 14.2 4.66567C13.5263 4.23752 12.7822 4 12 4C8.96243 4 6.5 7.58172 6.5 12Z" stroke="black" stroke-width="2" stroke-linecap="round" stroke-linejoin="round"/>
</svg>
