<svg width="24" height="24" viewBox="0 0 24 24" fill="none" xmlns="http://www.w3.org/2000/svg">
<path d="M6.86873 19.9663C6.65721 20 6.38175 20 5.99105 20C5.04996 20 4.57942 20 4.29256 19.7367C4.22432 19.674 4.16511 19.6022 4.11664 19.5232C3.91289 19.1914 4.0027 18.7295 4.18233 17.8057L6.82839 4.19737C6.93501 3.64903 6.98832 3.37486 7.09366 3.15039C7.34857 2.60716 7.83392 2.20709 8.41582 2.06055C8.65627 2 8.93557 2 9.49418 2H11.882C13.7555 2 15.3772 2.92564 16.3652 4.31374M6.86873 19.9663C7.01575 19.9429 7.13188 19.9032 7.23435 19.836C7.29488 19.7963 7.35092 19.7501 7.40147 19.6982C7.61016 19.4843 7.67337 19.1592 7.79978 18.5091L8.64945 14.1394C8.71028 13.8265 8.74069 13.6701 8.80525 13.5441C8.93102 13.2986 9.15261 13.1159 9.41762 13.0393C9.55366 13 9.71301 13 10.0317 13H11.882C14.5148 13 16.7783 11.1342 17.2809 8.54978C17.5834 6.99373 17.2011 5.4882 16.3652 4.31374M6.86873 19.9663C6.71182 20.7842 6.64439 21.2112 6.83449 21.5232C6.88258 21.6022 6.94133 21.674 7.00904 21.7367C7.29368 22 7.76057 22 8.69437 22C9.35152 22 9.68009 22 9.92802 21.836C9.98808 21.7963 10.0437 21.7501 10.0939 21.6982C10.3009 21.4843 10.3636 21.1592 10.4891 20.5091L11.3322 16.1394C11.3925 15.8265 11.4227 15.6701 11.4868 15.5441C11.6115 15.2986 11.8314 15.1159 12.0944 15.0393C12.2294 15 12.3875 15 12.7037 15H14.5396C17.152 15 19.398 13.1342 19.8967 10.5498C20.4288 7.79145 18.8257 5.1919 16.3652 4.31374" stroke="black" stroke-width="2" stroke-linecap="round" stroke-linejoin="round"/>
</svg>
