<svg width="24" height="24" viewBox="0 0 24 24" fill="none" xmlns="http://www.w3.org/2000/svg">
<path d="M9 21.5422C9.94704 21.8396 10.9548 22 12 22C17.5228 22 22 17.5228 22 12C22 6.47715 17.5228 2 12 2C6.47715 2 2 6.47715 2 12C2 16.4776 4.94289 20.2679 9 21.5422ZM9 21.5422L10.8617 15M12 11L10.8617 15M10.8617 15C12.5 16.5 15.4772 16.4471 16.75 14.75C18.25 12.75 16.75 8.61303 13 7C7.6239 4.68752 3 11.5 7.5 14.5" stroke="black" stroke-width="2" stroke-linecap="round" stroke-linejoin="round"/>
</svg>
