<svg width="24" height="24" viewBox="0 0 24 24" fill="none" xmlns="http://www.w3.org/2000/svg">
<path fill-rule="evenodd" clip-rule="evenodd" d="M3 12C3 7.02944 7.02944 3 12 3C16.9706 3 21 7.02944 21 12C21 16.9706 16.9706 21 12 21C7.02944 21 3 16.9706 3 12ZM12 1C5.92487 1 1 5.92487 1 12C1 18.0751 5.92487 23 12 23C18.0751 23 23 18.0751 23 12C23 5.92487 18.0751 1 12 1ZM9.57157 16H9.42871V8H13.4287C14.8489 8 16.0001 9.15127 16.0001 10.5714C16.0001 11.9916 14.8489 13.1429 13.4287 13.1429H11.0716C10.2431 13.1429 9.57157 13.8144 9.57157 14.6429V16ZM8.92871 6C8.10028 6 7.42871 6.67157 7.42871 7.5V16.5C7.42871 17.3284 8.10028 18 8.92871 18H10.0716C10.9 18 11.5716 17.3284 11.5716 16.5V15.1429H13.4287C15.9534 15.1429 18.0001 13.0962 18.0001 10.5714C18.0001 8.0467 15.9534 6 13.4287 6H8.92871ZM10.5718 9.39307V11.7502C10.5718 11.8883 10.6837 12.0002 10.8218 12.0002H13.4289C14.2179 12.0002 14.8575 11.3606 14.8575 10.5716C14.8575 9.78266 14.2179 9.14307 13.4289 9.14307H10.8218C10.6837 9.14307 10.5718 9.255 10.5718 9.39307Z" fill="black"/>
</svg>
