<svg width="24" height="24" viewBox="0 0 24 24" fill="none" xmlns="http://www.w3.org/2000/svg">
<path d="M12 10C10.92 10 9.88993 10.1605 8.94997 10.4515C8.69224 9.05657 7.46951 8 6 8C4.34315 8 3 9.34315 3 11C3 12.162 3.66061 13.1697 4.62675 13.668C4.22315 14.3849 4 15.1729 4 16C4 19.3137 7.58172 22 12 22C16.4183 22 20 19.3137 20 16C20 15.1729 19.7768 14.3849 19.3732 13.668C20.3394 13.1697 21 12.162 21 11C21 9.34315 19.6569 8 18 8C16.5305 8 15.3078 9.05657 15.05 10.4515C14.1101 10.1605 13.08 10 12 10ZM12 10L13 2L16.1054 3.55269M16.1054 3.55269C16.0379 3.68728 16 3.83921 16 4C16 4.55228 16.4477 5 17 5C17.5523 5 18 4.55228 18 4C18 3.44772 17.5523 3 17 3C16.6085 3 16.2696 3.22497 16.1054 3.55269ZM9 17.5C9 17.5 9.5 19 12 19C14.5 19 15 17.5 15 17.5M15.5 14V14C15.5 14.2761 15.2761 14.5 15 14.5V14.5C14.7239 14.5 14.5 14.2761 14.5 14V14C14.5 13.7239 14.7239 13.5 15 13.5V13.5C15.2761 13.5 15.5 13.7239 15.5 14ZM9.5 14V14C9.5 14.2761 9.27614 14.5 9 14.5V14.5C8.72386 14.5 8.5 14.2761 8.5 14V14C8.5 13.7239 8.72386 13.5 9 13.5V13.5C9.27614 13.5 9.5 13.7239 9.5 14Z" stroke="black" stroke-width="2" stroke-linecap="round" stroke-linejoin="round"/>
</svg>
