<svg width="24" height="24" viewBox="0 0 24 24" fill="none" xmlns="http://www.w3.org/2000/svg">
<path d="M10.409 10.4089C10.6864 10.1315 11.0182 9.90848 11.3881 9.75618L15.133 8.21414C15.544 8.04492 15.9549 8.45588 15.7857 8.86685L14.2437 12.6118C14.0914 12.9817 13.8684 13.3135 13.591 13.5909M10.409 10.4089C10.1316 10.6863 9.90857 11.0181 9.75627 11.388L8.21423 15.1329C8.04501 15.5439 8.45598 15.9548 8.86695 15.7856L12.6119 14.2436C12.9818 14.0913 13.3136 13.8683 13.591 13.5909M10.409 10.4089L13.591 13.5909M22 12C22 6.47715 17.5228 2 12 2C6.47715 2 2 6.47715 2 12C2 17.5228 6.47715 22 12 22C17.5228 22 22 17.5228 22 12Z" stroke="black" stroke-width="2" stroke-linecap="round" stroke-linejoin="round"/>
</svg>
