<svg width="24" height="24" viewBox="0 0 24 24" fill="none" xmlns="http://www.w3.org/2000/svg">
<path d="M10 6L7.25298 8.74702C5.75421 10.2458 5.81244 12.6931 7.3808 14.1189C8.84707 15.4519 11.1018 15.3982 12.503 13.997L14 12.5M14 18L16.747 15.253C18.2458 13.7542 18.1876 11.3069 16.6192 9.88109C15.1529 8.54812 12.8982 8.60177 11.497 10.003L10 11.5M12 22C6.47715 22 2 17.5228 2 12C2 6.47715 6.47715 2 12 2C17.5228 2 22 6.47715 22 12C22 17.5228 17.5228 22 12 22Z" stroke="black" stroke-width="2" stroke-linecap="round" stroke-linejoin="round"/>
</svg>
