<svg width="24" height="24" viewBox="0 0 24 24" fill="none" xmlns="http://www.w3.org/2000/svg">
<path d="M12 10V5C12 3.89543 12.8954 3 14 3C15.1046 3 16 3.89543 16 5V10M12 10C12 11.1046 12.8954 12 14 12M12 10C12 8.89543 11.1046 8 10 8M12 10C12 11.1046 11.1046 12 10 12M16 10C16 11.1046 15.1046 12 14 12M16 10C16 11.1046 16.8954 12 18 12C19.1046 12 20 11.1046 20 10C20 8.89543 19.1046 8 18 8C16.8954 8 16 8.89543 16 10ZM14 12H19C20.1046 12 21 12.8954 21 14C21 15.1046 20.1046 16 19 16H14M14 12C12.8954 12 12 12.8954 12 14M8 14V19C8 20.1046 8.89543 21 10 21C11.1046 21 12 20.1046 12 19V14M8 14C8 12.8954 8.89543 12 10 12M8 14C8 15.1046 7.10457 16 6 16C4.89543 16 4 15.1046 4 14C4 12.8954 4.89543 12 6 12C7.10457 12 8 12.8954 8 14ZM12 14C12 12.8954 11.1046 12 10 12M12 14C12 15.1046 12.8954 16 14 16M10 12H5C3.89543 12 3 11.1046 3 10C3 8.89543 3.89543 8 5 8H10M10 8C11.1046 8 12 7.10457 12 6C12 4.89543 11.1046 4 10 4C8.89543 4 8 4.89543 8 6C8 7.10457 8.89543 8 10 8ZM14 16C15.1046 16 16 16.8954 16 18C16 19.1046 15.1046 20 14 20C12.8954 20 12 19.1046 12 18C12 16.8954 12.8954 16 14 16Z" stroke="black" stroke-width="2" stroke-linecap="round" stroke-linejoin="round"/>
</svg>
