<svg width="24" height="24" viewBox="0 0 24 24" fill="none" xmlns="http://www.w3.org/2000/svg">
<path d="M10.7245 3.94634C11.1448 2.68455 12.8552 2.68455 13.2755 3.94635L14.549 7.76862C14.7344 8.32525 15.2323 8.70267 15.797 8.71467L19.6747 8.79712C20.9548 8.82434 21.4833 10.5215 20.463 11.3285L17.3724 13.7733C16.9223 14.1293 16.7321 14.74 16.8957 15.304L18.0188 19.1772C18.3895 20.4559 17.0058 21.5047 15.9549 20.7417L12.7713 18.4304C12.3077 18.0938 11.6923 18.0938 11.2287 18.4304L8.0451 20.7417C6.99416 21.5047 5.61047 20.4559 5.98123 19.1772L7.10434 15.304C7.2679 14.74 7.07773 14.1293 6.62764 13.7733L3.53696 11.3285C2.51669 10.5215 3.04521 8.82434 4.3253 8.79712L8.20299 8.71467C8.76769 8.70267 9.26558 8.32525 9.45102 7.76862L10.7245 3.94634Z" stroke="black" stroke-width="2"/>
</svg>
