<svg width="24" height="24" viewBox="0 0 24 24" fill="none" xmlns="http://www.w3.org/2000/svg">
<path d="M12 3.35928V7C12 9.76142 14.2386 12 17 12H20.6407M12 3.35928C11.4846 3.12474 10.9203 3 10.3431 3H6C4.34315 3 3 4.34315 3 6V18C3 19.6569 4.34315 21 6 21H18C19.6569 21 21 19.6569 21 18V13.6569C21 13.0797 20.8753 12.5154 20.6407 12M12 3.35928C12.4319 3.55585 12.8295 3.82954 13.1716 4.17157L19.8284 10.8284C20.1705 11.1705 20.4442 11.5681 20.6407 12" stroke="black" stroke-width="2" stroke-linecap="round" stroke-linejoin="round"/>
</svg>
