<svg width="24" height="24" viewBox="0 0 24 24" fill="none" xmlns="http://www.w3.org/2000/svg">
<path d="M7.15866 14.4494H7.85688C8.40835 14.4494 8.93723 14.6696 9.32719 15.0615L10.5028 16.2431C11.0358 16.7788 11.4139 17.4499 11.5967 18.1849L11.7211 18.6852C11.7971 18.9904 11.9541 19.2691 12.1754 19.4916C12.8499 20.1695 13.9434 20.1695 14.6179 19.4916L14.7243 19.3846C15.1906 18.9159 15.3781 18.2357 15.2182 17.5926L14.4363 14.4494H18.9193C20.3122 14.4494 21.3112 13.0999 20.9109 11.759L19.4841 6.97871C18.9564 5.21074 17.3373 4 15.5008 4H7.15866M7.15866 14.4494H4.03967C3.46547 14.4494 3 13.9815 3 13.4044V5.04494C3 4.46784 3.46547 4 4.03967 4H7.15866M7.15866 14.4494V4" stroke="black" stroke-width="2" stroke-linecap="round" stroke-linejoin="round"/>
</svg>
