<svg width="24" height="24" viewBox="0 0 24 24" fill="none" xmlns="http://www.w3.org/2000/svg">
<path d="M7.15866 9.55062H7.85688C8.40835 9.55062 8.93724 9.33044 9.32719 8.93851L10.5028 7.75691C11.0358 7.22124 11.4139 6.55005 11.5967 5.81512L11.7211 5.31484C11.7971 5.00962 11.9541 4.73088 12.1754 4.50842C12.8499 3.83053 13.9434 3.83053 14.6179 4.50842L14.7243 4.61536C15.1906 5.08407 15.3781 5.76434 15.2182 6.40741L14.4363 9.55062H18.9193C20.3122 9.55062 21.3112 10.9001 20.9109 12.241L19.4841 17.0213C18.9564 18.7893 17.3373 20 15.5008 20H7.15866M7.15866 9.55062H4.03967C3.46547 9.55062 3 10.0185 3 10.5956V18.9551C3 19.5322 3.46547 20 4.03967 20H7.15866M7.15866 9.55062V20" stroke="black" stroke-width="2" stroke-linecap="round" stroke-linejoin="round"/>
</svg>
