<svg width="24" height="24" viewBox="0 0 24 24" fill="none" xmlns="http://www.w3.org/2000/svg">
<path d="M13.1429 3.71429C13.1429 3.04603 13.1429 2.7119 13.2961 2.46797C13.3761 2.34076 13.4836 2.2332 13.6108 2.15328C13.8548 2 14.1889 2 14.8571 2H15.4603C15.5635 2 15.6151 2 15.6586 2.00381C16.142 2.0461 16.5253 2.4294 16.5676 2.91284C16.5714 2.95634 16.5714 3.00793 16.5714 3.11111V3.11111C16.5714 4.30496 17.217 5.35223 18.1872 5.94095C19.2095 6.56126 19.7207 6.87141 19.8464 7.07133C19.873 7.11356 19.872 7.11178 19.8943 7.1564C20 7.36763 20 7.69482 20 8.34921V8.34921C20 8.99915 20 9.32412 19.7715 9.54519C19.7446 9.57121 19.7044 9.60402 19.6735 9.62515C19.4112 9.80469 19.1344 9.74808 18.581 9.63486C18.1513 9.54696 17.7364 9.41994 17.3405 9.25783C16.9754 9.10832 16.7928 9.03356 16.6821 9.10784C16.5714 9.18213 16.5714 9.36833 16.5714 9.74075V15.8889C16.5714 19.264 13.7572 22 10.2857 22C6.81421 22 4 19.264 4 15.8889C4 13.0685 5.96519 10.6944 8.63692 9.99018C9.10231 9.86751 9.33501 9.80618 9.63029 9.91457C9.79508 9.97506 10.0052 10.1369 10.1056 10.2809C10.2857 10.5388 10.2857 10.8407 10.2857 11.4444V11.4444C10.2857 11.9332 10.2857 12.1776 10.2309 12.3363C10.1736 12.5022 10.1809 12.4889 10.0725 12.627C9.96893 12.759 9.54855 13.0303 8.7078 13.5728C7.93683 14.0703 7.42857 14.9219 7.42857 15.8889C7.42857 17.423 8.70776 18.6667 10.2857 18.6667C11.8637 18.6667 13.1429 17.423 13.1429 15.8889V3.71429Z" stroke="black" stroke-width="2"/>
</svg>
