<svg width="24" height="24" viewBox="0 0 24 24" fill="none" xmlns="http://www.w3.org/2000/svg">
<path d="M12 5.5C13.3428 5.5 14.4383 8.04082 14.4975 11.2286M12 5.5C10.6572 5.5 9.56165 8.04082 9.50251 11.2286M12 5.5C15.3137 5.5 18 6.84315 18 8.5C18 9.71124 16.5644 10.7548 14.4975 11.2286M12 5.5C8.68629 5.5 6 6.84315 6 8.5C6 9.71124 7.43563 10.7548 9.50251 11.2286M14.4975 11.2286C14.4992 11.3185 14.5 11.409 14.5 11.5C14.5 14.8137 13.3807 17.5 12 17.5C10.6193 17.5 9.5 14.8137 9.5 11.5C9.5 11.409 9.50084 11.3185 9.50251 11.2286M14.4975 11.2286C13.7371 11.4028 12.8912 11.5 12 11.5C11.1088 11.5 10.2629 11.4028 9.50251 11.2286M12 19C6.47715 19 2 15.866 2 12C2 8.13401 6.47715 5 12 5C17.5228 5 22 8.13401 22 12C22 15.866 17.5228 19 12 19Z" stroke="black" stroke-width="2" stroke-linecap="round" stroke-linejoin="round"/>
</svg>
