<svg width="24" height="24" viewBox="0 0 24 24" fill="none" xmlns="http://www.w3.org/2000/svg">
<path d="M10 17.5V6.5C10 6.03558 10 5.80337 9.97433 5.60842C9.7971 4.26222 8.73778 3.2029 7.39158 3.02567C7.19663 3 6.96442 3 6.5 3C6.03558 3 5.80337 3 5.60842 3.02567C4.26222 3.2029 3.2029 4.26222 3.02567 5.60842C3 5.80337 3 6.03558 3 6.5V17.5C3 17.9644 3 18.1966 3.02567 18.3916C3.2029 19.7378 4.26222 20.7971 5.60842 20.9743C5.80337 21 6.03558 21 6.5 21C6.96442 21 7.19663 21 7.39158 20.9743C8.73778 20.7971 9.7971 19.7378 9.97433 18.3916C10 18.1966 10 17.9644 10 17.5Z" stroke="black" stroke-width="2"/>
<path d="M21 11.5V6.5C21 6.03558 21 5.80337 20.9743 5.60842C20.7971 4.26222 19.7378 3.2029 18.3916 3.02567C18.1966 3 17.9644 3 17.5 3C17.0356 3 16.8034 3 16.6084 3.02567C15.2622 3.2029 14.2029 4.26222 14.0257 5.60842C14 5.80337 14 6.03558 14 6.5V11.5C14 11.9644 14 12.1966 14.0257 12.3916C14.2029 13.7378 15.2622 14.7971 16.6084 14.9743C16.8034 15 17.0356 15 17.5 15C17.9644 15 18.1966 15 18.3916 14.9743C19.7378 14.7971 20.7971 13.7378 20.9743 12.3916C21 12.1966 21 11.9644 21 11.5Z" stroke="black" stroke-width="2"/>
</svg>
