<svg width="24" height="24" viewBox="0 0 24 24" fill="none" xmlns="http://www.w3.org/2000/svg">
<path d="M13.7222 5.84501V3C13.7222 2.44772 13.2745 2 12.7222 2H11.0556C10.5033 2 10.064 2.45125 9.96588 2.99475C9.6258 4.87827 8.34103 6.55218 6.49877 6.81051C6.2253 6.84886 6 7.06886 6 7.34501V10.0844C6 10.6367 6.44771 11.0844 7 11.0844H7.83333C8.38562 11.0844 8.83333 11.5321 8.83333 12.0844V16.535C8.83333 20.6939 12.9502 23.6871 17.7222 20.9404C17.8917 20.8428 17.9843 20.6499 17.9598 20.4558L17.4723 16.5907C17.4434 16.3615 17.1322 16.2822 16.9755 16.4518C15.6882 17.8455 13.7222 18.1644 13.7222 16.535V12.0844C13.7222 11.5321 14.1699 11.0844 14.7222 11.0844H16.3889C16.9412 11.0844 17.3889 10.6367 17.3889 10.0844V7.84501C17.3889 7.29272 16.9412 6.84501 16.3889 6.84501H14.7222C14.1699 6.84501 13.7222 6.39729 13.7222 5.84501Z" stroke="black" stroke-width="2" stroke-linecap="round" stroke-linejoin="round"/>
</svg>
