<svg width="24" height="24" viewBox="0 0 24 24" fill="none" xmlns="http://www.w3.org/2000/svg">
<path d="M15 9V10M11.9997 9V10M9.4997 16V14.5C9.4997 14.2239 9.27584 14 8.9997 14H7.99991C7.72376 14 7.4999 13.7761 7.49991 13.5L7.50009 6.49999C7.5001 6.22385 7.72395 6 8.00009 6H17.5C17.7761 6 18 6.22386 18 6.50001L17.9999 11.3334C17.9999 11.7661 17.8595 12.1871 17.5999 12.5333L17.0999 13.2C16.7222 13.7036 16.1294 14 15.4999 14H12.7013C12.2471 14 11.8065 14.1546 11.4519 14.4383L9.4997 16ZM5.1 4.2L3.4 6.46667C3.14036 6.81286 3 7.23393 3 7.66667V18C3 18.5523 3.44772 19 4 19H6.75098C7.02712 19 7.25098 19.2239 7.25098 19.5V20.5C7.25098 20.7761 7.47483 21 7.75098 21H8.39435C8.7892 21 9.17521 20.8831 9.50375 20.6641L11.496 19.3359C11.8246 19.1169 12.2106 19 12.6055 19H16.9999C17.6294 19 18.2222 18.7036 18.5999 18.2L20.5999 15.5333C20.8595 15.1871 20.9999 14.7661 20.9999 14.3333V4C20.9999 3.44772 20.5522 3 19.9999 3H7.5C6.55573 3 5.66656 3.44458 5.1 4.2Z" stroke="black" stroke-width="2" stroke-linecap="round" stroke-linejoin="round"/>
</svg>
