<svg width="24" height="24" viewBox="0 0 24 24" fill="none" xmlns="http://www.w3.org/2000/svg">
<path d="M20.1989 8.51664C20.9672 8.12336 21.7355 6.90818 21.9446 5.63448C22.051 4.9861 22.1042 4.6619 21.8824 4.47894C21.6606 4.29597 21.2399 4.4515 20.3985 4.76255C19.6467 5.04046 18.8468 5.24506 18.5444 5.24504C15.787 2.42215 10.8237 4.68044 11.9267 9.1971C10.2333 9.1971 8.53987 8.55832 6.97421 7.54226C5.518 6.59724 4.78989 6.12472 4.26185 6.42365C3.73382 6.72259 3.75834 7.42053 3.80738 8.81642C3.91365 11.8412 5.26288 14.4867 8.06629 16.5366C7.62471 16.7627 6.82957 16.9887 5.92857 17.1785C4.21543 17.5394 3.35886 17.7199 3.33962 18.1047C3.32037 18.4896 4.09392 18.7353 5.64101 19.2267C14.4297 22.0183 21.1711 16.9774 20.1989 8.51664Z" stroke="black" stroke-width="2" stroke-linecap="round" stroke-linejoin="round"/>
</svg>
