<svg width="24" height="24" viewBox="0 0 24 24" fill="none" xmlns="http://www.w3.org/2000/svg">
<path d="M8.08764 12.5L10.6259 15.0382L16.1641 9.5M8.96177 3.32624L8.08764 3.1572C7.31711 3.00819 6.55431 3.4486 6.29809 4.19039L6.00742 5.03194C5.84932 5.48965 5.48965 5.84932 5.03193 6.00742L4.19039 6.29809C3.4486 6.55431 3.00819 7.31711 3.1572 8.08764L3.32624 8.96177C3.41818 9.43721 3.28653 9.92853 2.96919 10.2943L2.38573 10.9668C1.87142 11.5596 1.87142 12.4404 2.38573 13.0332L2.96919 13.7057C3.28653 14.0715 3.41818 14.5628 3.32624 15.0382L3.1572 15.9124C3.00819 16.6829 3.4486 17.4457 4.19039 17.7019L5.03194 17.9926C5.48965 18.1507 5.84932 18.5104 6.00742 18.9681L6.29809 19.8096C6.55431 20.5514 7.31711 20.9918 8.08764 20.8428L8.96177 20.6738C9.43721 20.5818 9.92853 20.7135 10.2943 21.0308L10.9668 21.6143C11.5596 22.1286 12.4404 22.1286 13.0332 21.6143L13.7057 21.0308C14.0715 20.7135 14.5628 20.5818 15.0382 20.6738L15.9124 20.8428C16.6829 20.9918 17.4457 20.5514 17.7019 19.8096L17.9926 18.9681C18.1507 18.5103 18.5104 18.1507 18.9681 17.9926L19.8096 17.7019C20.5514 17.4457 20.9918 16.6829 20.8428 15.9124L20.6738 15.0382C20.5818 14.5628 20.7135 14.0715 21.0308 13.7057L21.6143 13.0332C22.1286 12.4404 22.1286 11.5596 21.6143 10.9668L21.0308 10.2943C20.7135 9.92853 20.5818 9.43721 20.6738 8.96177L20.8428 8.08764C20.9918 7.31711 20.5514 6.55431 19.8096 6.29809L18.9681 6.00742C18.5103 5.84932 18.1507 5.48965 17.9926 5.03193L17.7019 4.19039C17.4457 3.4486 16.6829 3.00819 15.9124 3.1572L15.0382 3.32624C14.5628 3.41818 14.0715 3.28653 13.7057 2.96919L13.0332 2.38573C12.4404 1.87142 11.5596 1.87142 10.9668 2.38573L10.2943 2.96919C9.92853 3.28653 9.43721 3.41818 8.96177 3.32624Z" stroke="black" stroke-width="2" stroke-linecap="round" stroke-linejoin="round"/>
</svg>
