<svg width="24" height="24" viewBox="0 0 24 24" fill="none" xmlns="http://www.w3.org/2000/svg">
<path fill-rule="evenodd" clip-rule="evenodd" d="M6 2C3.79086 2 2 3.79086 2 6V18C2 20.2091 3.79086 22 6 22H18C20.2091 22 22 20.2091 22 18V6C22 3.79086 20.2091 2 18 2H6ZM4 6C4 4.89543 4.89543 4 6 4H18C19.1046 4 20 4.89543 20 6V18C20 19.1046 19.1046 20 18 20H6C4.89543 20 4 19.1046 4 18V6ZM5.75109 8H7.25833C7.39707 8 7.50929 8.11282 7.51174 8.25087C7.56788 11.4152 8.69672 13.0933 10.6985 13.8813C10.858 13.9441 11.0264 13.8238 11.0264 13.6531V8.25C11.0264 8.11193 11.1389 8 11.2776 8H12.7849C12.9236 8 13.0361 8.11193 13.0361 8.25V10.9031C13.0361 11.0738 13.2044 11.1944 13.3647 11.1336C14.6443 10.6487 15.523 9.90478 16.0006 8.18884C16.0314 8.07829 16.1315 8 16.2467 8H17.809C17.9478 8 18.061 8.11223 18.0535 8.2501C17.9306 10.5069 16.1655 11.9029 15.1657 12.438C15.1246 12.46 15.1312 12.5226 15.1758 12.5363C16.1708 12.8423 17.9248 13.9998 18.4943 16.2022C18.5338 16.355 18.4148 16.5 18.2562 16.5H16.7425C16.6303 16.5 16.5325 16.4257 16.4964 16.32C15.9605 14.7561 14.43 13.6372 13.2399 13.7227C13.1205 13.7313 13.0361 13.8358 13.0361 13.955V16.2262C13.0361 16.3733 12.9069 16.4885 12.7601 16.4722C7.54335 15.8931 5.57479 12.5544 5.50199 8.2507C5.49965 8.11265 5.61235 8 5.75109 8Z" fill="black"/>
</svg>
