<svg width="24" height="24" viewBox="0 0 24 24" fill="none" xmlns="http://www.w3.org/2000/svg">
<path d="M12 22C17.5228 22 22 17.5228 22 12C22 6.47715 17.5228 2 12 2C6.47715 2 2 6.47715 2 12C2 13.9779 2.57422 15.8217 3.56505 17.3737L3.56505 17.3737C3.69311 17.5743 3.75714 17.6746 3.77775 17.7755C3.79837 17.8764 3.78028 17.985 3.7441 18.2021L3.38971 20.3284C3.26396 21.0829 3.20108 21.4602 3.42156 21.6637C3.64204 21.8673 4.01309 21.7745 4.75519 21.589L7.05668 21.0136C7.252 20.9648 7.34966 20.9404 7.44391 20.9491C7.53817 20.9579 7.63714 21.0033 7.83508 21.0941C9.10306 21.6757 10.5137 22 12 22Z" stroke="black" stroke-width="2" stroke-linecap="round"/>
</svg>
