<svg width="24" height="24" viewBox="0 0 24 24" fill="none" xmlns="http://www.w3.org/2000/svg">
<path d="M21 15.2074C21 13.6954 21 12.9394 20.5607 12.4697C20.1213 12 19.4142 12 18 12M21 15.2074V8.7926M21 15.2074V16.291C21 18.752 21 19.9825 20.2515 20.6245C19.5029 21.2664 18.3794 20.9995 16.1323 20.4656L13.3492 19.8044M3 15.2074V14.1383C3 14.1072 3 14.0765 3.00001 14.0464M5 12C4.05719 12 3.58579 12 3.29289 12.3132C3.00904 12.6166 3.00028 13.0994 3.00001 14.0464M5 12C4.05719 12 3.58579 12 3.29289 11.6868C3.00904 11.3834 3.00028 10.9006 3.00001 9.95364M5 12L8.3 12M3.00001 14.0464C3 14.0032 3 13.9595 3 13.9151V10.0849C3 10.0405 3 9.99679 3.00001 9.95364M3.00001 14.0464C3.00032 15.6039 3.01186 16.3978 3.43992 16.9683C3.87983 17.5547 4.63065 17.733 6.13228 18.0898L7.95767 18.5235C8.01215 18.5365 8.06558 18.5492 8.11797 18.5616M18 12C19.4142 12 20.1213 12 20.5607 11.5303C21 11.0606 21 10.3046 21 8.7926M18 12L14 12M7 5.70407L7.95767 5.47655C9.3621 5.14288 10.0643 4.97604 10.5322 5.37727C11 5.7785 11 6.54757 11 8.08571V8.79263M8.11797 18.5616C9.41623 18.8693 10.0825 19.0085 10.5322 18.6228C11 18.2216 11 17.4525 11 15.9143V15.2074M8.11797 18.5616L13.3492 19.8044M15.8685 3.59702L13.3492 4.19555C13.3016 4.20687 13.2549 4.21796 13.2092 4.22883M21 8.7926V7.70903C21 5.24801 21 4.0175 20.2515 3.37553C19.5029 2.73356 18.3794 3.0005 16.1323 3.53437L13.2092 4.22883M3 8.7926V9.86172C3 9.89284 3 9.92348 3.00001 9.95364M13.3492 19.8044C12.223 19.5368 11.6599 19.4031 11.3299 18.9633C11 18.5236 11 17.9069 11 16.6734M3.00001 9.95364C3.00032 8.39611 3.01186 7.60217 3.43992 7.03166C3.87983 6.44534 4.63065 6.26696 6.13228 5.9102L13.2092 4.22883M11 7.32655C11 6.0931 11 5.47638 11.3299 5.03664C11.6459 4.61552 12.1757 4.47499 13.2092 4.22883M11 8.79263C11 10.3046 11 11.0606 11.4393 11.5303C11.8787 12 12.5858 12 14 12M11 8.79263V9.11336C11 10.4741 11 11.1545 10.6046 11.5773C10.2092 12 9.57279 12 8.3 12M14 12C12.5858 12 11.8787 12 11.4393 12.4697C11 12.9394 11 13.6954 11 15.2074M11 15.2074V14.8866C11 13.5259 11 12.8455 10.6046 12.4227C10.2092 12 9.57279 12 8.3 12" stroke="black" stroke-width="2" stroke-linecap="round"/>
</svg>
