<svg width="24" height="24" viewBox="0 0 24 24" fill="none" xmlns="http://www.w3.org/2000/svg">
<path d="M22 12.5V10C22 8.34315 20.6569 7 19 7H17.5C16.6716 7 16 6.32843 16 5.5C16 4.67157 15.3284 4 14.5 4H9.5C8.67157 4 8 4.67157 8 5.5C8 6.32843 7.32843 7 6.5 7H5C3.34315 7 2 8.34315 2 10V17C2 18.6569 3.34315 20 5 20H15M16 13C16 10.7909 14.2091 9 12 9C9.79086 9 8 10.7909 8 13C8 15.2091 9.79086 17 12 17M22 17H19.5M17 17H19.5M19.5 17V14.5M19.5 17V19.5" stroke="black" stroke-width="2" stroke-linecap="round" stroke-linejoin="round"/>
</svg>
