<svg width="24" height="24" viewBox="0 0 24 24" fill="none" xmlns="http://www.w3.org/2000/svg">
<path d="M5.9375 7H6.5C7.32843 7 8 6.32843 8 5.5C8 4.67157 8.67157 4 9.5 4H14.5C15.3284 4 16 4.67157 16 5.5C16 6.32843 16.6716 7 17.5 7H19C20.6569 7 22 8.34315 22 10V17C22 17.67 21.7804 18.2887 21.4092 18.788M5.9375 7L2 4M5.9375 7L9.60611 9.79513M16.4375 20H5C3.34315 20 2 18.6569 2 17V10C2 9.68782 2.04768 9.38677 2.13617 9.10375M21.4092 18.788L15.726 14.4579M21.4092 18.788L23 20M15.726 14.4579C15.9029 14.0062 16 13.5144 16 13C16 10.7909 14.2091 9 12 9C11.1023 9 10.2736 9.29575 9.60611 9.79513M15.726 14.4579L9.60611 9.79513M12.4649 16.9733C12.3124 16.9909 12.1573 17 12 17C9.99694 17 8.33776 15.5277 8.04564 13.6062" stroke="black" stroke-width="2" stroke-linecap="round" stroke-linejoin="round"/>
</svg>
