<svg width="24" height="24" viewBox="0 0 24 24" fill="none" xmlns="http://www.w3.org/2000/svg">
<path d="M12 11L13 9.12602C12.6804 9.04375 12.3453 9 12 9C9.79086 9 8 10.7909 8 13C8 13.7286 8.19479 14.4117 8.53513 15M12 15L11 16.874C11.3196 16.9562 11.6547 17 12 17C14.2091 17 16 15.2091 16 13C16 12.2714 15.8052 11.5883 15.4649 11M2 17V10C2 8.34315 3.34315 7 5 7H6.5C7.32843 7 8 6.32843 8 5.5C8 4.67157 8.67157 4 9.5 4H14.5C15.3284 4 16 4.67157 16 5.5C16 6.32843 16.6716 7 17.5 7H19C20.6569 7 22 8.34315 22 10V17C22 18.6569 20.6569 20 19 20H5C3.34315 20 2 18.6569 2 17Z" stroke="black" stroke-width="2" stroke-linecap="round" stroke-linejoin="round"/>
</svg>
