<svg width="24" height="24" viewBox="0 0 24 24" fill="none" xmlns="http://www.w3.org/2000/svg">
<path d="M4.58563 18.7103C6.41537 20.7308 9.05947 22 12 22C12.7532 22 13.487 21.9167 14.1927 21.7589M4.58563 18.7103C2.9788 16.936 2 14.5823 2 12C2 10.9548 2.16035 9.94704 2.4578 9M4.58563 18.7103L8.94089 11.2442M21.5422 15C21.8396 14.053 22 13.0452 22 12C22 9.41769 21.0212 7.06398 19.4144 5.28966M21.5422 15C20.4823 18.3746 17.6817 20.9783 14.1927 21.7589M21.5422 15H12.8884M14.1927 21.7589L9.81589 14.2558M19.4144 5.28966C17.5846 3.26919 14.9405 2 12 2C11.2468 2 10.513 2.08328 9.80734 2.24114M19.4144 5.28966L15.0591 12.7558M9.80734 2.24114C6.31833 3.02165 3.51771 5.62539 2.4578 9M9.80734 2.24114L14.1841 9.74419M2.4578 9H11.1116M12.8884 15H11.1116C10.5781 15 10.0847 14.7166 9.81589 14.2558M12.8884 15C13.4219 15 13.9153 14.7166 14.1841 14.2558L15.0591 12.7558M11.1116 9H12.8884C13.4219 9 13.9153 9.28337 14.1841 9.74419M11.1116 9C10.5781 9 10.0847 9.28337 9.81589 9.74419L8.94089 11.2442M9.81589 14.2558L8.94089 12.7558C8.66844 12.2888 8.66845 11.7112 8.94089 11.2442M15.0591 12.7558C15.3316 12.2888 15.3316 11.7112 15.0591 11.2442L14.1841 9.74419" stroke="black" stroke-width="2"/>
</svg>
