<svg width="24" height="24" viewBox="0 0 24 24" fill="none" xmlns="http://www.w3.org/2000/svg">
<path d="M6.42018 10.2102C7.11029 11.951 8.59146 13.292 10.4202 13.7898C10.9235 13.9269 11.4532 14 12 14C12.5468 14 13.0765 13.9269 13.5798 13.7898M6.42018 10.2102C6.14903 9.52618 6 8.7805 6 8C6 4.68629 8.68629 2 12 2C15.3137 2 18 4.68629 18 8C18 8.7805 17.851 9.52618 17.5798 10.2102M6.42018 10.2102C3.87293 10.9036 2 13.2331 2 16C2 19.3137 4.68629 22 8 22C9.53671 22 10.9385 21.4223 12 20.4722M17.5798 10.2102C16.8897 11.951 15.4085 13.292 13.5798 13.7898M17.5798 10.2102C20.1271 10.9036 22 13.2331 22 16C22 19.3137 19.3137 22 16 22C14.4633 22 13.0615 21.4223 12 20.4722M13.5798 13.7898C13.851 14.4738 14 15.2195 14 16C14 17.777 13.2275 19.3736 12 20.4722" stroke="black" stroke-width="2"/>
</svg>
