<svg width="24" height="24" viewBox="0 0 24 24" fill="none" xmlns="http://www.w3.org/2000/svg">
<path d="M3.5 20V4M3.5 20H2M3.5 20H5.5M3.5 4H2M3.5 4H5.5M11.5 4H13M11.5 4H9.5M11.5 4V7M11.5 20H13M11.5 20H9.5M11.5 20V17M5.5 4H9.5M5.5 4C5.5 3.44772 5.94772 3 6.5 3H8.5C9.05228 3 9.5 3.44772 9.5 4M5.5 20H9.5M5.5 20C5.5 20.5523 5.94772 21 6.5 21H8.5C9.05228 21 9.5 20.5523 9.5 20M11.5 7V10M11.5 7H14.75M11.5 17V14M11.5 17H14.75M22 10V9C22 7.89543 21.1046 7 20 7H18.5M22 10V14M22 10H18.5M22 14V15C22 16.1046 21.1046 17 20 17H18.5M22 14H18.5M11.5 10V14M11.5 10H14.75M11.5 14H14.75M14.75 14V17M14.75 14H16.75M14.75 17H18.5M14.75 10V7M14.75 10H16.75M14.75 7H18.5M18.5 10V7M18.5 10H16.75M16.75 10V14M16.75 14H18.5M18.5 14V17" stroke="black" stroke-width="2" stroke-linecap="round" stroke-linejoin="round"/>
</svg>
