<svg width="24" height="24" viewBox="0 0 24 24" fill="none" xmlns="http://www.w3.org/2000/svg">
<path d="M7 4H5C3.34315 4 2 5.34315 2 7V9.25M7 4H17M7 4V9.25M7 20H5C3.34315 20 2 18.6569 2 17V14.75M7 20H17M7 20V14.75M17 4H19C20.6569 4 22 5.34315 22 7V9.25M17 4V9.25M17 20H19C20.6569 20 22 18.6569 22 17V14.75M17 20V14.75M7 12H17M7 12V9.25M7 12V14.75M17 12V9.25M17 12V14.75M22 9.25H17M22 9.25V14.75M22 14.75H17M7 9.25H2M2 9.25V14.75M7 14.75H2" stroke="black" stroke-width="2" stroke-linejoin="round"/>
</svg>
