<svg width="24" height="24" viewBox="0 0 24 24" fill="none" xmlns="http://www.w3.org/2000/svg">
<path d="M4.19844 20.6349C4.57757 20.8665 5.0232 21 5.5 21H15.5C16.8807 21 18 19.8807 18 18.5V17M4.19844 20.6349C4.02864 20.5311 3.87218 20.4077 3.73223 20.2678C3.27982 19.8154 3 19.1904 3 18.5V16.8333M4.19844 20.6349L8 16.8333M18 15.1667L16.7796 13.9463C15.1524 12.3191 12.5142 12.3191 10.8871 13.9463L8 16.8333M18 15.1667V8.5C18 7.11929 16.8807 6 15.5 6H7M18 15.1667V17M8 16.8333L6.67851 15.5118C6.02764 14.861 4.97236 14.861 4.32149 15.5118L3 16.8333M3 16.8333V8.5C3 7.11929 4.11929 6 5.5 6H7M7 6C7 4.34315 8.34315 3 10 3H18C19.6569 3 21 4.34315 21 6V14C21 15.6569 19.6569 17 18 17M9.25 10.5833C9.25 11.5038 8.50381 12.25 7.58333 12.25C6.66286 12.25 5.91667 11.5038 5.91667 10.5833C5.91667 9.66286 6.66286 8.91667 7.58333 8.91667C8.50381 8.91667 9.25 9.66286 9.25 10.5833Z" stroke="black" stroke-width="2" stroke-linejoin="round"/>
</svg>
