<svg width="24" height="24" viewBox="0 0 24 24" fill="none" xmlns="http://www.w3.org/2000/svg">
<path d="M10 16.8332L12.8871 13.9461C14.5142 12.3189 17.1524 12.3189 18.7796 13.9461L20 15.1665L20.8447 16.0112M10 16.8332L8.67851 15.5117C8.02764 14.8608 6.97236 14.8608 6.32149 15.5117L5 16.8332L3.119 18.7142M10 16.8332L6.33317 20.5M3.119 18.7142L3.83064 16.6245C4.00609 16.1093 3.95403 15.5488 3.74875 15.0447C3.29992 13.9426 3.05263 12.737 3.05263 11.4737C3.05263 6.24151 7.29414 2 12.5263 2C17.7585 2 22 6.24151 22 11.4737C22 13.1176 21.5813 14.6637 20.8447 16.0112M3.119 18.7142L2.65533 20.0757C2.38775 20.8614 3.1386 21.6122 3.92432 21.3447L7.37548 20.1694C7.89069 19.9939 8.4512 20.046 8.95527 20.2513C10.0574 20.7001 11.263 20.9474 12.5263 20.9474C16.1146 20.9474 19.2369 18.9525 20.8447 16.0112M11.25 10.5832C11.25 11.5036 10.5038 12.2498 9.58333 12.2498C8.66286 12.2498 7.91667 11.5036 7.91667 10.5832C7.91667 9.6627 8.66286 8.9165 9.58333 8.9165C10.5038 8.9165 11.25 9.6627 11.25 10.5832Z" stroke="black" stroke-width="2"/>
</svg>
