<svg width="24" height="24" viewBox="0 0 24 24" fill="none" xmlns="http://www.w3.org/2000/svg">
<path d="M8 3H6C4.34315 3 3 4.34315 3 6V8M8 3V2M8 3H16M8 3V4M16 3H18C19.6569 3 21 4.34315 21 6V8M16 3V2M16 3V4M3 8V19C3 19.4551 3.10135 19.8866 3.28272 20.2731M3 8H21M21 8V18.778M9.33333 19.5558L12.4129 16.4762C14.1485 14.7406 16.9626 14.7406 18.6983 16.4762L21 18.778M9.33333 19.5558L7.92375 18.1462C7.22948 17.4519 6.10385 17.4519 5.40959 18.1462L3.28272 20.2731M9.33333 19.5558L6.88911 22M3.28272 20.2731C3.76159 21.2934 4.79828 22 6 22H6.88911M21 18.778V19C21 20.6569 19.6569 22 18 22H6.88911M10.6667 12.8891C10.6667 13.8709 9.87073 14.6669 8.88889 14.6669C7.90705 14.6669 7.11111 13.8709 7.11111 12.8891C7.11111 11.9073 7.90705 11.1113 8.88889 11.1113C9.87073 11.1113 10.6667 11.9073 10.6667 12.8891Z" stroke="black" stroke-width="2" stroke-linecap="round"/>
</svg>
