<svg width="24" height="24" viewBox="0 0 24 24" fill="none" xmlns="http://www.w3.org/2000/svg">
<path d="M6.10187 18.7981C7.68144 20.1698 9.74376 21 12 21C13.1856 21 14.3176 20.7708 15.3542 20.3542M6.10187 18.7981C4.20159 17.148 3 14.7143 3 12C3 10.8144 3.22924 9.68239 3.64581 8.64581M6.10187 18.7981L9.3 15.6M20.6815 14.3815C20.8891 13.623 21 12.8244 21 12C21 7.02944 16.9706 3 12 3C9.51472 3 7.26472 4.00736 5.63604 5.63604M20.6815 14.3815C20.2633 15.9097 19.4524 17.2756 18.364 18.364M20.6815 14.3815L18.782 12.482C17.0353 10.7353 14.2099 10.7247 12.4502 12.4502M18.364 18.364L12.4502 12.4502M18.364 18.364L22 22M5.63604 5.63604L2 2M5.63604 5.63604L7.57721 7.57721M12.4502 12.4502L10.1228 10.1228M10.1228 10.1228C10.4485 9.79706 10.65 9.34706 10.65 8.85C10.65 7.85589 9.84411 7.05 8.85 7.05C8.35294 7.05 7.90294 7.25147 7.57721 7.57721M10.1228 10.1228L7.57721 7.57721M9.3 15.6L9.95 14.95M9.3 15.6L7.87279 14.1728C7.16985 13.4698 6.03015 13.4698 5.32721 14.1728L3.9 15.6" stroke="black" stroke-width="2" stroke-linecap="round"/>
</svg>
