<svg width="24" height="24" viewBox="0 0 24 24" fill="none" xmlns="http://www.w3.org/2000/svg">
<path d="M6.5 20.353C6.82089 20.5647 7.1547 20.7584 7.5 20.9327C8.85259 21.6154 10.3814 22 12 22C13.6186 22 15.1474 21.6154 16.5 20.9327C16.8453 20.7584 17.1791 20.5647 17.5 20.353M6.5 20.353C3.78889 18.5642 2 15.491 2 12C2 6.47715 6.47715 2 12 2C17.5228 2 22 6.47715 22 12C22 15.491 20.2111 18.5642 17.5 20.353M6.5 20.353V20C6.5 18 8.5 16.5 10.5 16.5H13.5C15.5 16.5 17.5 18 17.5 20V20.353M15 10C15 11.6569 13.6569 13 12 13C10.3431 13 9 11.6569 9 10C9 8.34315 10.3431 7 12 7C13.6569 7 15 8.34315 15 10Z" stroke="black" stroke-width="2"/>
</svg>
