<svg width="24" height="24" viewBox="0 0 24 24" fill="none" xmlns="http://www.w3.org/2000/svg">
<path d="M4.89105 19.9981L8.33333 16.5558M4.89105 19.9981C3.45778 19.9469 2.28063 18.8903 2.04355 17.5122M4.89105 19.9981C4.92721 19.9993 4.96353 20 5 20H19C20.417 20 21.6046 19.0176 21.9187 17.6967M8.33333 16.5558L11.4129 13.4762C13.1485 11.7406 15.9626 11.7406 17.6983 13.4762L21.9187 17.6967M8.33333 16.5558L6.92375 15.1462C6.22948 14.4519 5.10385 14.4519 4.40959 15.1462L2.04355 17.5122M2.04355 17.5122C2.01492 17.3458 2 17.1746 2 17V7C2 5.34315 3.34315 4 5 4H9.39445C10.3975 4 11.3342 4.5013 11.8906 5.3359L12.1094 5.6641C12.6658 6.4987 13.6025 7 14.6055 7H19C20.6569 7 22 8.34315 22 10V17C22 17.2398 21.9719 17.4731 21.9187 17.6967M9.66667 9.88911C9.66667 10.8709 8.87073 11.6669 7.88889 11.6669C6.90705 11.6669 6.11111 10.8709 6.11111 9.88911C6.11111 8.90727 6.90705 8.11133 7.88889 8.11133C8.87073 8.11133 9.66667 8.90727 9.66667 9.88911Z" stroke="black" stroke-width="2" stroke-linecap="round" stroke-linejoin="round"/>
</svg>
