<svg width="24" height="24" viewBox="0 0 24 24" fill="none" xmlns="http://www.w3.org/2000/svg">
<path d="M15 20H6.66667C6.15808 20 5.68274 19.8576 5.27834 19.6105M19.219 19.219C19.7015 18.7364 20 18.0697 20 17.3333V13.7778M19.219 19.219L12.4446 12.4446M19.219 19.219L21 21M4.78105 4.78105C5.26362 4.29848 5.93029 4 6.66667 4H17.3333C18.8061 4 20 5.19391 20 6.66667V13.7778M4.78105 4.78105L3 3M4.78105 4.78105L7.63181 7.63181M12.4446 12.4446C14.1827 10.7404 16.9731 10.7509 18.6983 12.476L20 13.7778M12.4446 12.4446L10.146 10.146M5.27834 19.6105C5.09722 19.4999 4.93033 19.3682 4.78105 19.219C4.29848 18.7364 4 18.0697 4 17.3333V15.5556M5.27834 19.6105L9.33333 15.5556L7.92375 14.146C7.22948 13.4517 6.10385 13.4517 5.40959 14.146L4 15.5556M10.146 10.146C10.4677 9.82425 10.6667 9.37981 10.6667 8.88889C10.6667 7.90705 9.87073 7.11111 8.88889 7.11111C8.39797 7.11111 7.95352 7.3101 7.63181 7.63181M10.146 10.146L7.63181 7.63181M4 15.5556V9" stroke="black" stroke-width="2" stroke-linecap="round" stroke-linejoin="round"/>
</svg>
