<svg width="24" height="24" viewBox="0 0 24 24" fill="none" xmlns="http://www.w3.org/2000/svg">
<path d="M12.7746 12.7746C13.8696 12.4428 14.6667 11.4256 14.6667 10.2222C14.6667 8.74946 13.4728 7.55556 12 7.55556C10.7967 7.55556 9.77946 8.35261 9.44759 9.44759M12.7746 12.7746L9.44759 9.44759M12.7746 12.7746L19.219 19.219M9.44759 9.44759L4.78105 4.78105M11 16H10.6667C8.88889 16 7.11111 17.3333 7.11111 19.1111V20M7.11111 20H15M7.11111 20H6.66667C5.19391 20 4 18.8061 4 17.3333V9M19.219 19.219C19.7015 18.7364 20 18.0697 20 17.3333V6.66667C20 5.19391 18.8061 4 17.3333 4H6.66667C5.93029 4 5.26362 4.29848 4.78105 4.78105M19.219 19.219L21 21M4.78105 4.78105L3 3" stroke="black" stroke-width="2" stroke-linecap="round"/>
</svg>
