<svg width="24" height="24" viewBox="0 0 24 24" fill="none" xmlns="http://www.w3.org/2000/svg">
<path d="M12 21H6C5.42784 21 4.89308 20.8398 4.43813 20.5619M4.43813 20.5619C4.23437 20.4374 4.04662 20.2893 3.87868 20.1213C3.33579 19.5784 3 18.8284 3 18V16M4.43813 20.5619L9 16M9 16L12.4645 12.5355C13.9611 11.0389 16.1705 10.6894 18 11.4871M9 16L7.41421 14.4142C6.63317 13.6332 5.36684 13.6332 4.58579 14.4142L3 16M3 16V6C3 4.34315 4.34315 3 6 3H18C19.6569 3 21 4.34315 21 6V13M18 21V15M18 15L15.5 17.5M18 15L20.5 17.5M10.5 8.5C10.5 9.60457 9.60457 10.5 8.5 10.5C7.39543 10.5 6.5 9.60457 6.5 8.5C6.5 7.39543 7.39543 6.5 8.5 6.5C9.60457 6.5 10.5 7.39543 10.5 8.5Z" stroke="black" stroke-width="2" stroke-linecap="round" stroke-linejoin="round"/>
</svg>
