<svg width="24" height="24" viewBox="0 0 24 24" fill="none" xmlns="http://www.w3.org/2000/svg">
<path d="M7 6H5.5C4.11929 6 3 7.11929 3 8.5V18.5C3 19.1904 3.27982 19.8154 3.73223 20.2678C3.87218 20.4077 4.02864 20.5311 4.19844 20.6349C4.57757 20.8665 5.0232 21 5.5 21H15.5C16.8807 21 18 19.8807 18 18.5V17M7 6H15.5C16.8807 6 18 7.11929 18 8.5V17M7 6C7 4.34315 8.34315 3 10 3H18C19.6569 3 21 4.34315 21 6V14C21 15.6569 19.6569 17 18 17M6.78777 16.8333H14.2123C14.5649 16.8333 14.7827 16.4307 14.6013 16.1142L12.8894 13.1278C12.5857 12.598 11.8872 12.508 11.4698 12.9449L10.0319 14.4499C9.75574 14.739 9.33385 14.8106 8.98453 14.6278L8.4712 14.3592C8.06191 14.145 7.56429 14.2833 7.31046 14.6818L6.41029 16.0951C6.2093 16.4106 6.42542 16.8333 6.78777 16.8333Z" stroke="black" stroke-width="2" stroke-linejoin="round"/>
<path d="M8.5 11.5C9.05228 11.5 9.5 11.0523 9.5 10.5C9.5 9.94772 9.05228 9.5 8.5 9.5C7.94772 9.5 7.5 9.94772 7.5 10.5C7.5 11.0523 7.94772 11.5 8.5 11.5Z" fill="black"/>
</svg>
