<svg width="24" height="24" viewBox="0 0 24 24" fill="none" xmlns="http://www.w3.org/2000/svg">
<path fill-rule="evenodd" clip-rule="evenodd" d="M7 1C4.79086 1 3 2.79086 3 5V19C3 19.0392 3.00057 19.0783 3.00169 19.1173C3.00308 19.1651 3.00531 19.2128 3.00837 19.2603C3.14271 21.3484 4.87831 23 7 23H17C19.2091 23 21 21.2091 21 19V17.7779V9.24264C21 8.66548 20.8752 8.10113 20.6407 7.5858C20.4442 7.15387 20.1704 6.75623 19.8284 6.41421L15.5858 2.17157C15.2438 1.82956 14.8461 1.55583 14.4142 1.35928C13.8989 1.12476 13.3345 1 12.7574 1H7ZM6.41539 20.9132C6.09924 20.8167 5.81633 20.644 5.58807 20.4165C5.4121 20.2411 5.26861 20.0332 5.16743 19.8025L6.11669 18.8532C6.42044 18.5495 6.9129 18.5495 7.21664 18.8532L7.91912 19.5557L6.53031 20.9445C6.49155 20.9352 6.45323 20.9247 6.41539 20.9132ZM11.7057 15.7691L9.33333 18.1415L8.63085 17.439C7.64043 16.4486 6.08817 16.3624 5 17.1805V5C5 3.89543 5.89543 3 7 3H12.7574C13.0459 3 13.328 3.06235 13.5858 3.17965C13.733 3.24662 13.8721 3.33149 14 3.43287V7.00007C14 7.55236 14.4477 8.00007 15 8.00007H18.5672C18.6685 8.1279 18.7534 8.26705 18.8204 8.4142L19.6357 8.04318L18.8204 8.4142C18.9377 8.67196 19 8.95406 19 9.24264V15.402C16.8614 13.6509 13.7016 13.7733 11.7057 15.7691ZM17.9911 17.1833L19 18.1922V19C19 20.1046 18.1046 21 17 21H9.30327L10.0404 20.2628L13.12 17.1833C14.4651 15.8382 16.646 15.8382 17.9911 17.1833ZM7.94444 12.4999C7.94444 12.0704 8.29267 11.7222 8.72222 11.7222C9.15178 11.7222 9.5 12.0704 9.5 12.4999C9.5 12.9295 9.15178 13.2777 8.72222 13.2777C8.29267 13.2777 7.94444 12.9295 7.94444 12.4999ZM8.72222 9.72217C7.1881 9.72217 5.94444 10.9658 5.94444 12.4999C5.94444 14.0341 7.1881 15.2777 8.72222 15.2777C10.2563 15.2777 11.5 14.0341 11.5 12.4999C11.5 10.9658 10.2563 9.72217 8.72222 9.72217Z" fill="black"/>
</svg>
