<svg width="24" height="24" viewBox="0 0 24 24" fill="none" xmlns="http://www.w3.org/2000/svg">
<path d="M21 12.778V4.99115C21 3.89147 20.1046 3 19 3H5C3.89543 3 3 3.89147 3 4.99115V16.5558M21 12.778V14.9513C21 16.051 20.1046 16.9424 19 16.9424H7.94666M21 12.778L19.6983 11.4762C17.9626 9.74058 15.1485 9.74059 13.4129 11.4762L10.3333 14.5558M7.94666 16.9424H7.48063C7.17684 16.9424 6.88953 17.0799 6.69976 17.3161L3.89043 20.8122C3.59518 21.1796 3 20.9718 3 20.5012V16.5558M7.94666 16.9424L10.3333 14.5558M10.3333 14.5558L8.92375 13.1462C8.22948 12.4519 7.10385 12.4519 6.40959 13.1462L3 16.5558M11.6667 7.88911C11.6667 8.87094 10.8707 9.66688 9.88889 9.66688C8.90705 9.66688 8.11111 8.87094 8.11111 7.88911C8.11111 6.90727 8.90705 6.11133 9.88889 6.11133C10.8707 6.11133 11.6667 6.90727 11.6667 7.88911Z" stroke="black" stroke-width="2"/>
</svg>
