<svg width="24" height="24" viewBox="0 0 24 24" fill="none" xmlns="http://www.w3.org/2000/svg">
<path d="M6.63097 19.2581C11.2386 18.5476 16.4585 18.7822 20.6619 19.9619C20.7753 19.9937 20.8892 20.0056 21 20C21.5357 19.9728 22 19.5356 22 18.9573V16.778M6.63097 19.2581C5.48734 19.4345 4.38142 19.6691 3.33812 19.9619C3.22468 19.9937 3.11082 20.0056 3.00001 20C2.46429 19.9728 2 19.5356 2 18.9573V18.5558M6.63097 19.2581L9.33333 16.5558M9.33333 16.5558L12.4129 13.4762C14.1485 11.7406 16.9626 11.7406 18.6983 13.4762L22 16.778M9.33333 16.5558L7.92375 15.1462C7.22948 14.4519 6.10385 14.4519 5.40959 15.1462L2 18.5558M2 18.5558V5.04402C2 4.34614 2.67623 3.85371 3.33812 4.03947C8.58481 5.51197 15.4152 5.51197 20.6619 4.03947C21.3238 3.85371 22 4.34614 22 5.04402V16.778M10.6667 9.88911C10.6667 10.8709 9.87073 11.6669 8.88889 11.6669C7.90705 11.6669 7.11111 10.8709 7.11111 9.88911C7.11111 8.90727 7.90705 8.11133 8.88889 8.11133C9.87073 8.11133 10.6667 8.90727 10.6667 9.88911Z" stroke="black" stroke-width="2" stroke-linejoin="round"/>
</svg>
