<svg width="24" height="24" viewBox="0 0 24 24" fill="none" xmlns="http://www.w3.org/2000/svg">
<path d="M6 8H4.4C3.07452 8 2 9.00736 2 10.25V11.9375M6 8V11.9375M6 8H9M6 20H4.4C3.07452 20 2 18.9926 2 17.75V16.0625M6 20H14M6 20V16.0625M14 20H15.6C16.9255 20 18 18.9926 18 17.75V17M14 20V17M6 11.9375V14V16.0625M6 11.9375H2M2 11.9375V16.0625M6 16.0625H2M10.0387 16.6836C10.3672 16.8843 10.7534 17 11.1667 17H14M10.0387 16.6836C9.89149 16.5937 9.75589 16.4867 9.6346 16.3654C9.24251 15.9733 9 15.4316 9 14.8333V13.3889M10.0387 16.6836L13.3333 13.3889M22 11.9444L20.9423 10.8868C19.5321 9.47655 17.2457 9.47655 15.8354 10.8868L13.3333 13.3889M22 11.9444V6.16667C22 4.97005 21.0299 4 19.8333 4H11.1667C9.97005 4 9 4.97005 9 6.16667V8M22 11.9444V14.8333C22 16.03 21.0299 17 19.8333 17H18M13.3333 13.3889L12.188 12.2436C11.624 11.6795 10.7094 11.6795 10.1453 12.2436L9 13.3889M9 13.3889V8M14 17H18M14.4167 7.97222C14.4167 8.76997 13.77 9.41667 12.9722 9.41667C12.1745 9.41667 11.5278 8.76997 11.5278 7.97222C11.5278 7.17448 12.1745 6.52778 12.9722 6.52778C13.77 6.52778 14.4167 7.17448 14.4167 7.97222Z" stroke="black" stroke-width="2" stroke-linejoin="round"/>
</svg>
