<svg width="24" height="24" viewBox="0 0 24 24" fill="none" xmlns="http://www.w3.org/2000/svg">
<path fill-rule="evenodd" clip-rule="evenodd" d="M4 6C4 4.89543 4.89543 4 6 4H18C19.1046 4 20 4.89543 20 6V18C20 19.1046 19.1046 20 18 20H6C4.89543 20 4 19.1046 4 18V6ZM6 2C3.79086 2 2 3.79086 2 6V18C2 20.2091 3.79086 22 6 22H18C20.2091 22 22 20.2091 22 18V6C22 3.79086 20.2091 2 18 2H6ZM8.99961 6.2002C8.44732 6.2002 7.99961 6.64791 7.99961 7.2002C7.99961 7.75248 8.44732 8.2002 8.99961 8.2002H9.0056C9.55789 8.2002 10.0056 7.75248 10.0056 7.2002C10.0056 6.64791 9.55789 6.2002 9.0056 6.2002H8.99961ZM14.9996 6.2002C14.4473 6.2002 13.9996 6.64791 13.9996 7.2002C13.9996 7.75248 14.4473 8.2002 14.9996 8.2002H15.0056C15.5579 8.2002 16.0056 7.75248 16.0056 7.2002C16.0056 6.64791 15.5579 6.2002 15.0056 6.2002H14.9996ZM11.9996 7.4002C11.4473 7.4002 10.9996 7.84791 10.9996 8.4002C10.9996 8.95248 11.4473 9.4002 11.9996 9.4002H12.0056C12.5579 9.4002 13.0056 8.95248 13.0056 8.4002C13.0056 7.84791 12.5579 7.4002 12.0056 7.4002H11.9996ZM8.39961 9.2002C7.84732 9.2002 7.39961 9.64791 7.39961 10.2002C7.39961 10.7525 7.84732 11.2002 8.39961 11.2002H8.4056C8.95789 11.2002 9.4056 10.7525 9.4056 10.2002C9.4056 9.64791 8.95789 9.2002 8.4056 9.2002H8.39961ZM10.7993 9.2002C10.247 9.2002 9.79928 9.64791 9.79928 10.2002C9.79928 10.7525 10.247 11.2002 10.7993 11.2002H10.8053C11.3576 11.2002 11.8053 10.7525 11.8053 10.2002C11.8053 9.64791 11.3576 9.2002 10.8053 9.2002H10.7993ZM13.1963 9.2002C12.644 9.2002 12.1963 9.64791 12.1963 10.2002C12.1963 10.7525 12.644 11.2002 13.1963 11.2002H13.2023C13.7546 11.2002 14.2023 10.7525 14.2023 10.2002C14.2023 9.64791 13.7546 9.2002 13.2023 9.2002H13.1963ZM15.5996 9.2002C15.0473 9.2002 14.5996 9.64791 14.5996 10.2002C14.5996 10.7525 15.0473 11.2002 15.5996 11.2002H15.6056C16.1579 11.2002 16.6056 10.7525 16.6056 10.2002C16.6056 9.64791 16.1579 9.2002 15.6056 9.2002H15.5996ZM6.59961 11.0002C6.04732 11.0002 5.59961 11.4479 5.59961 12.0002C5.59961 12.5525 6.04732 13.0002 6.59961 13.0002H6.6056C7.15789 13.0002 7.6056 12.5525 7.6056 12.0002C7.6056 11.4479 7.15789 11.0002 6.6056 11.0002H6.59961ZM9.60078 11.0002C9.0485 11.0002 8.60078 11.4479 8.60078 12.0002C8.60078 12.5525 9.0485 13.0002 9.60078 13.0002H9.60677C10.1591 13.0002 10.6068 12.5525 10.6068 12.0002C10.6068 11.4479 10.1591 11.0002 9.60677 11.0002H9.60078ZM14.3948 11.0002C13.8425 11.0002 13.3948 11.4479 13.3948 12.0002C13.3948 12.5525 13.8425 13.0002 14.3948 13.0002H14.4008C14.9531 13.0002 15.4008 12.5525 15.4008 12.0002C15.4008 11.4479 14.9531 11.0002 14.4008 11.0002H14.3948ZM17.3996 11.0002C16.8473 11.0002 16.3996 11.4479 16.3996 12.0002C16.3996 12.5525 16.8473 13.0002 17.3996 13.0002H17.4056C17.9579 13.0002 18.4056 12.5525 18.4056 12.0002C18.4056 11.4479 17.9579 11.0002 17.4056 11.0002H17.3996ZM8.39961 12.8002C7.84732 12.8002 7.39961 13.2479 7.39961 13.8002C7.39961 14.3525 7.84732 14.8002 8.39961 14.8002H8.4056C8.95789 14.8002 9.4056 14.3525 9.4056 13.8002C9.4056 13.2479 8.95789 12.8002 8.4056 12.8002H8.39961ZM10.7993 12.8002C10.247 12.8002 9.79928 13.2479 9.79928 13.8002C9.79928 14.3525 10.247 14.8002 10.7993 14.8002H10.8053C11.3576 14.8002 11.8053 14.3525 11.8053 13.8002C11.8053 13.2479 11.3576 12.8002 10.8053 12.8002H10.7993ZM13.1963 12.8002C12.644 12.8002 12.1963 13.2479 12.1963 13.8002C12.1963 14.3525 12.644 14.8002 13.1963 14.8002H13.2023C13.7546 14.8002 14.2023 14.3525 14.2023 13.8002C14.2023 13.2479 13.7546 12.8002 13.2023 12.8002H13.1963ZM15.5996 12.8002C15.0473 12.8002 14.5996 13.2479 14.5996 13.8002C14.5996 14.3525 15.0473 14.8002 15.5996 14.8002H15.6056C16.1579 14.8002 16.6056 14.3525 16.6056 13.8002C16.6056 13.2479 16.1579 12.8002 15.6056 12.8002H15.5996ZM11.9996 14.6002C11.4473 14.6002 10.9996 15.0479 10.9996 15.6002C10.9996 16.1525 11.4473 16.6002 11.9996 16.6002H12.0056C12.5579 16.6002 13.0056 16.1525 13.0056 15.6002C13.0056 15.0479 12.5579 14.6002 12.0056 14.6002H11.9996ZM8.99961 15.8002C8.44732 15.8002 7.99961 16.2479 7.99961 16.8002C7.99961 17.3525 8.44732 17.8002 8.99961 17.8002H9.0056C9.55789 17.8002 10.0056 17.3525 10.0056 16.8002C10.0056 16.2479 9.55789 15.8002 9.0056 15.8002H8.99961ZM14.9996 15.8002C14.4473 15.8002 13.9996 16.2479 13.9996 16.8002C13.9996 17.3525 14.4473 17.8002 14.9996 17.8002H15.0056C15.5579 17.8002 16.0056 17.3525 16.0056 16.8002C16.0056 16.2479 15.5579 15.8002 15.0056 15.8002H14.9996ZM11.9966 5.25C11.5824 5.25 11.2466 5.58579 11.2466 6C11.2466 6.41421 11.5824 6.75 11.9966 6.75H12.0026C12.4168 6.75 12.7526 6.41421 12.7526 6C12.7526 5.58579 12.4168 5.25 12.0026 5.25H11.9966ZM6.59961 8.25C6.1854 8.25 5.84961 8.58579 5.84961 9C5.84961 9.41421 6.1854 9.75 6.59961 9.75H6.6056C7.01981 9.75 7.3556 9.41421 7.3556 9C7.3556 8.58579 7.01981 8.25 6.6056 8.25H6.59961ZM17.3936 8.25C16.9794 8.25 16.6436 8.58579 16.6436 9C16.6436 9.41421 16.9794 9.75 17.3936 9.75H17.3996C17.8138 9.75 18.1496 9.41421 18.1496 9C18.1496 8.58579 17.8138 8.25 17.3996 8.25H17.3936ZM6.59961 14.25C6.1854 14.25 5.84961 14.5858 5.84961 15C5.84961 15.4142 6.1854 15.75 6.59961 15.75H6.6056C7.01981 15.75 7.3556 15.4142 7.3556 15C7.3556 14.5858 7.01981 14.25 6.6056 14.25H6.59961ZM17.3936 14.25C16.9794 14.25 16.6436 14.5858 16.6436 15C16.6436 15.4142 16.9794 15.75 17.3936 15.75H17.3996C17.8138 15.75 18.1496 15.4142 18.1496 15C18.1496 14.5858 17.8138 14.25 17.3996 14.25H17.3936ZM11.9966 17.25C11.5824 17.25 11.2466 17.5858 11.2466 18C11.2466 18.4142 11.5824 18.75 11.9966 18.75H12.0026C12.4168 18.75 12.7526 18.4142 12.7526 18C12.7526 17.5858 12.4168 17.25 12.0026 17.25H11.9966Z" fill="black"/>
</svg>
