<svg width="24" height="24" viewBox="0 0 24 24" fill="none" xmlns="http://www.w3.org/2000/svg">
<path fill-rule="evenodd" clip-rule="evenodd" d="M12 1C5.92487 1 1 5.92487 1 12C1 18.0751 5.92487 23 12 23C18.0751 23 23 18.0751 23 12C23 5.92487 18.0751 1 12 1ZM3 12C3 7.02944 7.02944 3 12 3C16.9706 3 21 7.02944 21 12C21 16.9706 16.9706 21 12 21C7.02944 21 3 16.9706 3 12ZM11.2466 6C11.2466 5.58579 11.5824 5.25 11.9966 5.25H12.0026C12.4168 5.25 12.7526 5.58579 12.7526 6C12.7526 6.41421 12.4168 6.75 12.0026 6.75H11.9966C11.5824 6.75 11.2466 6.41421 11.2466 6ZM5.84961 9C5.84961 8.58579 6.1854 8.25 6.59961 8.25H6.6056C7.01981 8.25 7.3556 8.58579 7.3556 9C7.3556 9.41421 7.01981 9.75 6.6056 9.75H6.59961C6.1854 9.75 5.84961 9.41421 5.84961 9ZM16.6436 9C16.6436 8.58579 16.9794 8.25 17.3936 8.25H17.3996C17.8138 8.25 18.1496 8.58579 18.1496 9C18.1496 9.41421 17.8138 9.75 17.3996 9.75H17.3936C16.9794 9.75 16.6436 9.41421 16.6436 9ZM5.84961 15C5.84961 14.5858 6.1854 14.25 6.59961 14.25H6.6056C7.01981 14.25 7.3556 14.5858 7.3556 15C7.3556 15.4142 7.01981 15.75 6.6056 15.75H6.59961C6.1854 15.75 5.84961 15.4142 5.84961 15ZM16.6436 15C16.6436 14.5858 16.9794 14.25 17.3936 14.25H17.3996C17.8138 14.25 18.1496 14.5858 18.1496 15C18.1496 15.4142 17.8138 15.75 17.3996 15.75H17.3936C16.9794 15.75 16.6436 15.4142 16.6436 15ZM11.2466 18C11.2466 17.5858 11.5824 17.25 11.9966 17.25H12.0026C12.4168 17.25 12.7526 17.5858 12.7526 18C12.7526 18.4142 12.4168 18.75 12.0026 18.75H11.9966C11.5824 18.75 11.2466 18.4142 11.2466 18ZM7.99961 7.19995C7.99961 6.64767 8.44732 6.19995 8.99961 6.19995H9.0056C9.55789 6.19995 10.0056 6.64767 10.0056 7.19995C10.0056 7.75224 9.55789 8.19995 9.0056 8.19995H8.99961C8.44732 8.19995 7.99961 7.75224 7.99961 7.19995ZM13.9996 7.19995C13.9996 6.64767 14.4473 6.19995 14.9996 6.19995H15.0056C15.5579 6.19995 16.0056 6.64767 16.0056 7.19995C16.0056 7.75224 15.5579 8.19995 15.0056 8.19995H14.9996C14.4473 8.19995 13.9996 7.75224 13.9996 7.19995ZM10.9996 8.39995C10.9996 7.84767 11.4473 7.39995 11.9996 7.39995H12.0056C12.5579 7.39995 13.0056 7.84767 13.0056 8.39995C13.0056 8.95224 12.5579 9.39995 12.0056 9.39995H11.9996C11.4473 9.39995 10.9996 8.95224 10.9996 8.39995ZM7.39961 10.2C7.39961 9.64767 7.84732 9.19995 8.39961 9.19995H8.4056C8.95789 9.19995 9.4056 9.64767 9.4056 10.2C9.4056 10.7522 8.95789 11.2 8.4056 11.2H8.39961C7.84732 11.2 7.39961 10.7522 7.39961 10.2ZM9.79928 10.2C9.79928 9.64767 10.247 9.19995 10.7993 9.19995H10.8053C11.3576 9.19995 11.8053 9.64767 11.8053 10.2C11.8053 10.7522 11.3576 11.2 10.8053 11.2H10.7993C10.247 11.2 9.79928 10.7522 9.79928 10.2ZM12.1963 10.2C12.1963 9.64767 12.644 9.19995 13.1963 9.19995H13.2023C13.7546 9.19995 14.2023 9.64767 14.2023 10.2C14.2023 10.7522 13.7546 11.2 13.2023 11.2H13.1963C12.644 11.2 12.1963 10.7522 12.1963 10.2ZM14.5996 10.2C14.5996 9.64767 15.0473 9.19995 15.5996 9.19995H15.6056C16.1579 9.19995 16.6056 9.64767 16.6056 10.2C16.6056 10.7522 16.1579 11.2 15.6056 11.2H15.5996C15.0473 11.2 14.5996 10.7522 14.5996 10.2ZM5.59961 12C5.59961 11.4477 6.04732 11 6.59961 11H6.6056C7.15789 11 7.6056 11.4477 7.6056 12C7.6056 12.5522 7.15789 13 6.6056 13H6.59961C6.04732 13 5.59961 12.5522 5.59961 12ZM8.60078 12C8.60078 11.4477 9.0485 11 9.60078 11H9.60677C10.1591 11 10.6068 11.4477 10.6068 12C10.6068 12.5522 10.1591 13 9.60677 13H9.60078C9.0485 13 8.60078 12.5522 8.60078 12ZM13.3948 12C13.3948 11.4477 13.8425 11 14.3948 11H14.4008C14.9531 11 15.4008 11.4477 15.4008 12C15.4008 12.5522 14.9531 13 14.4008 13H14.3948C13.8425 13 13.3948 12.5522 13.3948 12ZM16.3996 12C16.3996 11.4477 16.8473 11 17.3996 11H17.4056C17.9579 11 18.4056 11.4477 18.4056 12C18.4056 12.5522 17.9579 13 17.4056 13H17.3996C16.8473 13 16.3996 12.5522 16.3996 12ZM7.39961 13.8C7.39961 13.2477 7.84732 12.8 8.39961 12.8H8.4056C8.95789 12.8 9.4056 13.2477 9.4056 13.8C9.4056 14.3522 8.95789 14.8 8.4056 14.8H8.39961C7.84732 14.8 7.39961 14.3522 7.39961 13.8ZM9.79928 13.8C9.79928 13.2477 10.247 12.8 10.7993 12.8H10.8053C11.3576 12.8 11.8053 13.2477 11.8053 13.8C11.8053 14.3522 11.3576 14.8 10.8053 14.8H10.7993C10.247 14.8 9.79928 14.3522 9.79928 13.8ZM12.1963 13.8C12.1963 13.2477 12.644 12.8 13.1963 12.8H13.2023C13.7546 12.8 14.2023 13.2477 14.2023 13.8C14.2023 14.3522 13.7546 14.8 13.2023 14.8H13.1963C12.644 14.8 12.1963 14.3522 12.1963 13.8ZM14.5996 13.8C14.5996 13.2477 15.0473 12.8 15.5996 12.8H15.6056C16.1579 12.8 16.6056 13.2477 16.6056 13.8C16.6056 14.3522 16.1579 14.8 15.6056 14.8H15.5996C15.0473 14.8 14.5996 14.3522 14.5996 13.8ZM10.9996 15.6C10.9996 15.0477 11.4473 14.6 11.9996 14.6H12.0056C12.5579 14.6 13.0056 15.0477 13.0056 15.6C13.0056 16.1522 12.5579 16.6 12.0056 16.6H11.9996C11.4473 16.6 10.9996 16.1522 10.9996 15.6ZM7.99961 16.8C7.99961 16.2477 8.44732 15.8 8.99961 15.8H9.0056C9.55789 15.8 10.0056 16.2477 10.0056 16.8C10.0056 17.3522 9.55789 17.8 9.0056 17.8H8.99961C8.44732 17.8 7.99961 17.3522 7.99961 16.8ZM13.9996 16.8C13.9996 16.2477 14.4473 15.8 14.9996 15.8H15.0056C15.5579 15.8 16.0056 16.2477 16.0056 16.8C16.0056 17.3522 15.5579 17.8 15.0056 17.8H14.9996C14.4473 17.8 13.9996 17.3522 13.9996 16.8Z" fill="black"/>
</svg>
