<svg width="24" height="24" viewBox="0 0 24 24" fill="none" xmlns="http://www.w3.org/2000/svg">
<path fill-rule="evenodd" clip-rule="evenodd" d="M11.9931 1C11.4408 1 10.9931 1.44772 10.9931 2C10.9931 2.55228 11.4408 3 11.9931 3H12.003C12.5553 3 13.003 2.55228 13.003 2C13.003 1.44772 12.5553 1 12.003 1H11.9931ZM2.99805 6C2.44576 6 1.99805 6.44772 1.99805 7C1.99805 7.55228 2.44576 8 2.99805 8H3.00803C3.56031 8 4.00803 7.55228 4.00803 7C4.00803 6.44772 3.56031 6 3.00803 6H2.99805ZM20.9881 6C20.4358 6 19.9881 6.44772 19.9881 7C19.9881 7.55228 20.4358 8 20.9881 8H20.998C21.5503 8 21.998 7.55228 21.998 7C21.998 6.44772 21.5503 6 20.998 6H20.9881ZM2.99805 16C2.44576 16 1.99805 16.4477 1.99805 17C1.99805 17.5523 2.44576 18 2.99805 18H3.00803C3.56031 18 4.00803 17.5523 4.00803 17C4.00803 16.4477 3.56031 16 3.00803 16H2.99805ZM20.9881 16C20.4358 16 19.9881 16.4477 19.9881 17C19.9881 17.5523 20.4358 18 20.9881 18H20.998C21.5503 18 21.998 17.5523 21.998 17C21.998 16.4477 21.5503 16 20.998 16H20.9881ZM11.9931 21C11.4408 21 10.9931 21.4477 10.9931 22C10.9931 22.5523 11.4408 23 11.9931 23H12.003C12.5553 23 13.003 22.5523 13.003 22C13.003 21.4477 12.5553 21 12.003 21H11.9931ZM6.99805 2.5C6.16962 2.5 5.49805 3.17157 5.49805 4C5.49805 4.82843 6.16962 5.5 6.99805 5.5H7.00803C7.83646 5.5 8.50803 4.82843 8.50803 4C8.50803 3.17157 7.83646 2.5 7.00803 2.5H6.99805ZM16.998 2.5C16.1696 2.5 15.498 3.17157 15.498 4C15.498 4.82843 16.1696 5.5 16.998 5.5H17.008C17.8365 5.5 18.508 4.82843 18.508 4C18.508 3.17157 17.8365 2.5 17.008 2.5H16.998ZM11.998 4.5C11.1696 4.5 10.498 5.17157 10.498 6C10.498 6.82843 11.1696 7.5 11.998 7.5H12.008C12.8365 7.5 13.508 6.82843 13.508 6C13.508 5.17157 12.8365 4.5 12.008 4.5H11.998ZM5.99805 7.5C5.16962 7.5 4.49805 8.17157 4.49805 9C4.49805 9.82843 5.16962 10.5 5.99805 10.5H6.00803C6.83646 10.5 7.50803 9.82843 7.50803 9C7.50803 8.17157 6.83646 7.5 6.00803 7.5H5.99805ZM9.9975 7.5C9.16908 7.5 8.4975 8.17157 8.4975 9C8.4975 9.82843 9.16908 10.5 9.9975 10.5H10.0075C10.8359 10.5 11.5075 9.82843 11.5075 9C11.5075 8.17157 10.8359 7.5 10.0075 7.5H9.9975ZM13.9925 7.5C13.1641 7.5 12.4925 8.17157 12.4925 9C12.4925 9.82843 13.1641 10.5 13.9925 10.5H14.0025C14.8309 10.5 15.5025 9.82843 15.5025 9C15.5025 8.17157 14.8309 7.5 14.0025 7.5H13.9925ZM17.998 7.5C17.1696 7.5 16.498 8.17157 16.498 9C16.498 9.82843 17.1696 10.5 17.998 10.5H18.008C18.8365 10.5 19.508 9.82843 19.508 9C19.508 8.17157 18.8365 7.5 18.008 7.5H17.998ZM2.99805 10.5C2.16962 10.5 1.49805 11.1716 1.49805 12C1.49805 12.8284 2.16962 13.5 2.99805 13.5H3.00803C3.83646 13.5 4.50803 12.8284 4.50803 12C4.50803 11.1716 3.83646 10.5 3.00803 10.5H2.99805ZM8 10.5C7.17157 10.5 6.5 11.1716 6.5 12C6.5 12.8284 7.17157 13.5 8 13.5H8.00999C8.83842 13.5 9.50999 12.8284 9.50999 12C9.50999 11.1716 8.83842 10.5 8.00999 10.5H8ZM15.99 10.5C15.1616 10.5 14.49 11.1716 14.49 12C14.49 12.8284 15.1616 13.5 15.99 13.5H16C16.8284 13.5 17.5 12.8284 17.5 12C17.5 11.1716 16.8284 10.5 16 10.5H15.99ZM20.998 10.5C20.1696 10.5 19.498 11.1716 19.498 12C19.498 12.8284 20.1696 13.5 20.998 13.5H21.008C21.8365 13.5 22.508 12.8284 22.508 12C22.508 11.1716 21.8365 10.5 21.008 10.5H20.998ZM5.99805 13.5C5.16962 13.5 4.49805 14.1716 4.49805 15C4.49805 15.8284 5.16962 16.5 5.99805 16.5H6.00803C6.83646 16.5 7.50803 15.8284 7.50803 15C7.50803 14.1716 6.83646 13.5 6.00803 13.5H5.99805ZM9.9975 13.5C9.16908 13.5 8.4975 14.1716 8.4975 15C8.4975 15.8284 9.16908 16.5 9.9975 16.5H10.0075C10.8359 16.5 11.5075 15.8284 11.5075 15C11.5075 14.1716 10.8359 13.5 10.0075 13.5H9.9975ZM13.9925 13.5C13.1641 13.5 12.4925 14.1716 12.4925 15C12.4925 15.8284 13.1641 16.5 13.9925 16.5H14.0025C14.8309 16.5 15.5025 15.8284 15.5025 15C15.5025 14.1716 14.8309 13.5 14.0025 13.5H13.9925ZM17.998 13.5C17.1696 13.5 16.498 14.1716 16.498 15C16.498 15.8284 17.1696 16.5 17.998 16.5H18.008C18.8365 16.5 19.508 15.8284 19.508 15C19.508 14.1716 18.8365 13.5 18.008 13.5H17.998ZM11.998 16.5C11.1696 16.5 10.498 17.1716 10.498 18C10.498 18.8284 11.1696 19.5 11.998 19.5H12.008C12.8365 19.5 13.508 18.8284 13.508 18C13.508 17.1716 12.8365 16.5 12.008 16.5H11.998ZM6.99805 18.5C6.16962 18.5 5.49805 19.1716 5.49805 20C5.49805 20.8284 6.16962 21.5 6.99805 21.5H7.00803C7.83646 21.5 8.50803 20.8284 8.50803 20C8.50803 19.1716 7.83646 18.5 7.00803 18.5H6.99805ZM16.998 18.5C16.1696 18.5 15.498 19.1716 15.498 20C15.498 20.8284 16.1696 21.5 16.998 21.5H17.008C17.8365 21.5 18.508 20.8284 18.508 20C18.508 19.1716 17.8365 18.5 17.008 18.5H16.998Z" fill="black"/>
</svg>
