<svg width="24" height="24" viewBox="0 0 24 24" fill="none" xmlns="http://www.w3.org/2000/svg">
<path d="M10.7382 6.96275L4.48573 16.6889C3.84399 17.6871 4.56075 19 5.7475 19H7.80607C8.31647 19 8.79184 18.7405 9.06784 18.3111L14.2911 10.1861C14.6087 9.69202 14.6087 9.05797 14.2911 8.56386L13.2618 6.96275C12.6713 6.04426 11.3287 6.04427 10.7382 6.96275Z" stroke="black" stroke-width="2" stroke-linecap="round"/>
<path d="M20.0095 17.4592L17.3412 13.3085C16.9475 12.6962 16.0525 12.6962 15.6588 13.3085L12.9905 17.4592C12.5627 18.1248 13.0405 19 13.8317 19H19.1683C19.9595 19 20.4373 18.1248 20.0095 17.4592Z" stroke="black" stroke-width="2" stroke-linecap="round"/>
</svg>
