<svg width="24" height="24" viewBox="0 0 24 24" fill="none" xmlns="http://www.w3.org/2000/svg">
<path d="M10.4168 7.47402L6.04001 14.2823C5.59079 14.9811 6.09252 15.9001 6.92325 15.9001H8.36425C8.72153 15.9001 9.05429 15.7184 9.24749 15.4179L12.9037 9.73039C13.1261 9.38452 13.1261 8.94068 12.9037 8.5948L12.1832 7.47402C11.7699 6.83108 10.8301 6.83108 10.4168 7.47402Z" stroke="black" stroke-width="2" stroke-linecap="round" stroke-linejoin="round"/>
<path d="M17.9067 14.8216L16.0388 11.916C15.7633 11.4874 15.1367 11.4874 14.8612 11.916L12.9933 14.8216C12.6939 15.2874 13.0283 15.9001 13.5822 15.9001H17.3178C17.8717 15.9001 18.2061 15.2874 17.9067 14.8216Z" stroke="black" stroke-width="2" stroke-linecap="round" stroke-linejoin="round"/>
</svg>
