<svg width="24" height="24" viewBox="0 0 24 24" fill="none" xmlns="http://www.w3.org/2000/svg">
<path d="M6.42678 7.57322L10.5858 3.41421C11.3668 2.63316 12.6332 2.63316 13.4142 3.41421L17.5732 7.57322C17.7307 7.73071 17.6192 8 17.3964 8H14.8284C14.298 8 13.7893 7.78929 13.4142 7.41421L12.3536 6.35355C12.1583 6.15829 11.8417 6.15829 11.6464 6.35355L10.5858 7.41421C10.2107 7.78929 9.70201 8 9.17157 8H6.60355C6.38083 8 6.26929 7.73071 6.42678 7.57322Z" stroke="black" stroke-width="2" stroke-linecap="round" stroke-linejoin="round"/>
<path d="M6.42678 16.4268L10.5858 20.5858C11.3668 21.3668 12.6332 21.3668 13.4142 20.5858L17.5732 16.4268C17.7307 16.2693 17.6192 16 17.3964 16H14.8284C14.298 16 13.7893 16.2107 13.4142 16.5858L12.3536 17.6464C12.1583 17.8417 11.8417 17.8417 11.6464 17.6464L10.5858 16.5858C10.2107 16.2107 9.70201 16 9.17157 16H6.60355C6.38083 16 6.26929 16.2693 6.42678 16.4268Z" stroke="black" stroke-width="2" stroke-linecap="round" stroke-linejoin="round"/>
<path d="M10.3536 11.6464L11.6464 10.3536C11.8417 10.1583 12.1583 10.1583 12.3536 10.3536L13.6464 11.6464C13.8417 11.8417 13.8417 12.1583 13.6464 12.3536L12.3536 13.6464C12.1583 13.8417 11.8417 13.8417 11.6464 13.6464L10.3536 12.3536C10.1583 12.1583 10.1583 11.8417 10.3536 11.6464Z" stroke="black" stroke-width="2" stroke-linecap="round" stroke-linejoin="round"/>
<path d="M18.3536 11.6464L19.6464 10.3536C19.8417 10.1583 20.1583 10.1583 20.3536 10.3536L21.6464 11.6464C21.8417 11.8417 21.8417 12.1583 21.6464 12.3536L20.3536 13.6464C20.1583 13.8417 19.8417 13.8417 19.6464 13.6464L18.3536 12.3536C18.1583 12.1583 18.1583 11.8417 18.3536 11.6464Z" stroke="black" stroke-width="2" stroke-linecap="round" stroke-linejoin="round"/>
<path d="M2.35355 11.6464L3.64645 10.3536C3.84171 10.1583 4.15829 10.1583 4.35355 10.3536L5.64645 11.6464C5.84171 11.8417 5.84171 12.1583 5.64645 12.3536L4.35355 13.6464C4.15829 13.8417 3.84171 13.8417 3.64645 13.6464L2.35355 12.3536C2.15829 12.1583 2.15829 11.8417 2.35355 11.6464Z" stroke="black" stroke-width="2" stroke-linecap="round" stroke-linejoin="round"/>
</svg>
