<svg width="24" height="24" viewBox="0 0 24 24" fill="none" xmlns="http://www.w3.org/2000/svg">
<path fill-rule="evenodd" clip-rule="evenodd" d="M10.6669 3C10.6669 2.44772 10.2192 2 9.66695 2C9.11466 2 8.66695 2.44772 8.66695 3V3.66459L8.10607 3.66937C7.6896 3.67296 7.25745 3.67668 6.81133 3.68004H6.81029H6.80869H6.80709H6.80549H6.80389H6.80229H6.80068H6.79908H6.79748H6.79588H6.79427H6.79267H6.79106H6.78946H6.78786H6.78625H6.78465H6.78304H6.78144H6.77983H6.77823H6.77662H6.77502H6.77341H6.77181H6.7702H6.76859H6.76699H6.76538H6.76378H6.76217H6.76056H6.75895H6.75735H6.75574H6.75413H6.75252H6.75091H6.74931H6.7477H6.74609H6.74448H6.74287H6.74126H6.73965H6.73804H6.73643H6.73482H6.73321H6.7316H6.72999H6.72838H6.72677H6.72516H6.72355H6.72194H6.72033H6.71872H6.71711H6.7155H6.71389H6.71227H6.71066H6.70905H6.70744H6.70583H6.70421H6.7026H6.70099H6.69938H6.69776H6.69615H6.69454H6.69293H6.69131H6.6897H6.68809H6.68647H6.68486H6.68324H6.68163H6.68002H6.6784H6.67679H6.67517H6.67356H6.67195H6.67033H6.66872H6.6671H6.66549H6.66387H6.66226H6.66064H6.65903H6.65741H6.6558H6.65418H6.65257H6.65095H6.64934H6.64772H6.64611H6.64449H6.64287H6.64126H6.63964H6.63803H6.63641H6.6348H6.63318H6.63156H6.62995H6.62833H6.62671H6.6251H6.62348H6.62187H6.62025H6.61863H6.61702H6.6154H6.61378H6.61217H6.61055H6.60893H6.60732H6.6057H6.60408H6.60247H6.60085H6.59923H6.59762H6.596H6.59438H6.59276H6.59115H6.58953H6.58791H6.5863H6.58468H6.58306H6.58145H6.57983H6.57821H6.57659H6.57498H6.57336H6.57174H6.57013H6.56851H6.56689H6.56528H6.56366H6.56204H6.56043H6.55881H6.55719H6.55557H6.55396H6.55234H6.55072H6.54911H6.54749H6.54587H6.54426H6.54264H6.54102H6.53941H6.53779H6.53617H6.53456H6.53294H6.53132H6.52971H6.52809H6.52648H6.52486H6.52324H6.52163H6.52001H6.51839H6.51678H6.51516H6.51355H6.51193H6.51032H6.5087H6.50708H6.50547H6.50385H6.50224H6.50062H6.49901H6.49739H6.49578H6.49416H6.49255H6.49093H6.48932H6.4877H6.48609H6.48447H6.48286H6.48124H6.47963H6.47802H6.4764H6.47479H6.47317H6.47156H6.46995H6.46833H6.46672H6.46511H6.46349H6.46188H6.46027H6.45865H6.45704H6.45543H6.45381H6.4522H6.45059H6.44898H6.44737H6.44575H6.44414H6.44253H6.44092H6.43931H6.43769H6.43608H6.43447H6.43286H6.43125H6.42964H6.42803H6.42642H6.42481H6.4232H6.42159H6.41998H6.41837H6.41676H6.41515H6.41354H6.41193H6.41032H6.40871H6.4071H6.40549H6.40389H6.40228H6.40067H6.39906H6.39745H6.39585H6.39424H6.39263H6.39103H6.38942H6.38781H6.3862H6.3846H6.38299H6.38139H6.37978H6.37818H6.37657H6.37496H6.37336H6.37175H6.37015H6.36855H6.36694H6.36534H6.36373H6.36213H6.36053H6.35892H6.35732H6.35572H6.35411H6.35251H6.35091H6.34931H6.34771H6.3461H6.3445H6.3429H6.3413H6.3397H6.3381H6.3365H6.3349H6.3333H6.3317H6.3301H6.3285H6.3269H6.3253H6.3237H6.32211H6.32051H6.31891H6.31731H6.31572H6.31412H6.31252H6.31093H6.30933H6.30773H6.30614H6.30454H6.30295H6.30135H6.29976H6.29816H6.29657H6.29498H6.29338H6.29179H6.29019H6.2886H6.28701H6.28542H6.28382H6.28223H6.28064H6.27905H6.27746H6.27587H6.27428H6.27269H6.2711H6.26951H6.26792H6.26633H6.26474H6.26315H6.26157H6.25998H6.25839H6.2568H6.25522H6.25363H6.25204H6.25046H6.24887H6.24729H6.2457H6.24412H6.24253H6.24095H6.23937H6.23778H6.2362H6.23462H6.23303H6.23145H6.22987H6.22829H6.22671H6.22513H6.22355H6.22197H6.22039H6.21881H6.21723H6.21565H6.21407H6.21249H6.21091H6.20934H6.20776H6.20618H6.20461H6.20303H6.20145H6.19988H6.1983H6.19673H6.19515H6.19358H6.19201H6.19043H6.18886H6.18729H6.18572H6.18414H6.18257H6.181H6.17943H6.17786H6.17629H6.17472H6.17315H6.17158H6.17002H6.16845H6.16688H6.16531H6.16375H6.16218H6.16061H6.15905H6.15748H6.15592H6.15435H6.15279H6.15123H6.14966H6.1481H6.14654H6.14498H6.14341H6.14185H6.14029H6.13873H6.13717H6.13561H6.13405H6.13249H6.13094H6.12938H6.12782H6.12626H6.12471H6.12315H6.12159H6.12004H6.11848H6.11693H6.11538H6.11382H6.11227H6.11072H6.10916H6.10761H6.10606H6.10451H6.10296H6.10141H6.09986H6.09831H6.09676H6.09521H6.09367H6.09212H6.09057H6.08903H6.08748H6.08594H6.08439H6.08285H6.0813H6.07976H6.07821H6.07667H6.07513H6.07359H6.07205H6.07051H6.06897H6.06743H6.06589H6.06435H6.06281H6.06127H6.05974H6.0582H6.05666H6.05513H6.05359H6.05206H6.05052H6.04899H6.04745H6.04592H6.04439H6.04286H6.04133H6.0398H6.03827H6.03674H6.03521H6.03368H6.03215H6.03062H6.02909H6.02757H6.02604H6.02452H6.02299H6.02147H6.01994H6.01842H6.0169H6.01537H6.01385H6.01233H6.01081H6.00929H6.00777H6.00625H6.00473H6.00321H6.0017H6.00018C4.89562 3.68004 4.00036 4.57531 4.00017 5.67976L4 6.55998C3.99978 7.6027 4.79734 8.45842 5.8151 8.55171V15.4485C4.79795 15.5422 4.00091 16.3975 4.00091 17.4397V17.4414V17.443V17.4446V17.4463V17.4479V17.4496V17.4512V17.4528V17.4545V17.4561V17.4578V17.4594V17.4611V17.4627V17.4643V17.466V17.4676V17.4693V17.4709V17.4726V17.4742V17.4759V17.4775V17.4792V17.4808V17.4825V17.4841V17.4858V17.4874V17.4891V17.4907V17.4924V17.494V17.4957V17.4974V17.499V17.5007V17.5023V17.504V17.5057V17.5073V17.509V17.5106V17.5123V17.514V17.5156V17.5173V17.5189V17.5206V17.5223V17.5239V17.5256V17.5273V17.5289V17.5306V17.5323V17.5339V17.5356V17.5373V17.539V17.5406V17.5423V17.544V17.5456V17.5473V17.549V17.5507V17.5523V17.554V17.5557V17.5574V17.559V17.5607V17.5624V17.5641V17.5658V17.5674V17.5691V17.5708V17.5725V17.5742V17.5758V17.5775V17.5792V17.5809V17.5826V17.5843V17.5859V17.5876V17.5893V17.591V17.5927V17.5944V17.5961V17.5978V17.5994V17.6011V17.6028V17.6045V17.6062V17.6079V17.6096V17.6113V17.613V17.6147V17.6164V17.618V17.6197V17.6214V17.6231V17.6248V17.6265V17.6282V17.6299V17.6316V17.6333V17.635V17.6367V17.6384V17.6401V17.6418V17.6435V17.6452V17.6469V17.6486V17.6503V17.652V17.6537V17.6554V17.6571V17.6588V17.6605V17.6622V17.6639V17.6656V17.6674V17.6691V17.6708V17.6725V17.6742V17.6759V17.6776V17.6793V17.681V17.6827V17.6844V17.6861V17.6879V17.6896V17.6913V17.693V17.6947V17.6964V17.6981V17.6998V17.7016V17.7033V17.705V17.7067V17.7084V17.7101V17.7118V17.7136V17.7153V17.717V17.7187V17.7204V17.7221V17.7239V17.7256V17.7273V17.729V17.7307V17.7325V17.7342V17.7359V17.7376V17.7393V17.7411V17.7428V17.7445V17.7462V17.7479V17.7497V17.7514V17.7531V17.7548V17.7566V17.7583V17.76V17.7617V17.7635V17.7652V17.7669V17.7686V17.7704V17.7721V17.7738V17.7755V17.7773V17.779V17.7807V17.7825V17.7842V17.7859V17.7876V17.7894V17.7911V17.7928V17.7946V17.7963V17.798V17.7998V17.8015V17.8032V17.8049V17.8067V17.8084V17.8101V17.8119V17.8136V17.8153V17.8171V17.8188V17.8205V17.8223V17.824V17.8257V17.8275V17.8292V17.831V17.8327V17.8344V17.8362V17.8379V17.8396V17.8414V17.8431V17.8448V17.8466V17.8483V17.85V17.8518V17.8535V17.8553V17.857V17.8587V17.8605V17.8622V17.864V17.8657V17.8674V17.8692V17.8709V17.8727V17.8744V17.8761V17.8779V17.8796V17.8814V17.8831V17.8848V17.8866V17.8883V17.8901V17.8918V17.8935V17.8953V17.897V17.8988V17.9005V17.9023V17.904V17.9057V17.9075V17.9092V17.911V17.9127V17.9145V17.9162V17.9179V17.9197V17.9214V17.9232V17.9249V17.9267V17.9284V17.9301V17.9319V17.9336V17.9354V17.9371V17.9389V17.9406V17.9424V17.9441V17.9458V17.9476V17.9493V17.9511V17.9528V17.9546V17.9563V17.9581V17.9598V17.9616V17.9633V17.9651V17.9668V17.9685V17.9703V17.972V17.9738V17.9755V17.9773V17.979V17.9808V17.9825V17.9843V17.986V17.9878V17.9895V17.9913V17.993V17.9947V17.9965V17.9982V18V18.0017V18.0035V18.0052V18.007V18.0087V18.0105V18.0122V18.014V18.0157V18.0175V18.0192V18.021V18.0227V18.0245V18.0262V18.0279V18.0297V18.0314V18.0332V18.0349V18.0367V18.0384V18.0402V18.0419V18.0437V18.0454V18.0472V18.0489V18.0507V18.0524V18.0542V18.0559V18.0577V18.0594V18.0611V18.0629V18.0646V18.0664V18.0681V18.0699V18.0716V18.0734V18.0751V18.0769V18.0786V18.0804V18.0821V18.0839V18.0856V18.0874V18.0891V18.0908V18.0926V18.0943V18.0961V18.0978V18.0996V18.1013V18.1031V18.1048V18.1066V18.1083V18.1101V18.1118V18.1135V18.1153V18.117V18.1188V18.1205V18.1223V18.124V18.1258V18.1275V18.1292V18.131V18.1327V18.1345V18.1362V18.138V18.1397V18.1415V18.1432V18.1449V18.1467V18.1484V18.1502V18.1519V18.1537V18.1554V18.1571V18.1589V18.1606V18.1624V18.1641V18.1659V18.1676V18.1693V18.1711V18.1728V18.1746V18.1763V18.178V18.1798V18.1815V18.1833V18.185V18.1868V18.1885V18.1902V18.192V18.1937V18.1954V18.1972V18.1989V18.2007V18.2024V18.2041V18.2059V18.2076V18.2094V18.2111V18.2128V18.2146V18.2163V18.218V18.2198V18.2215V18.2233V18.225V18.2267V18.2285V18.2302V18.2319V18.2337V18.2354V18.2371V18.2389V18.2406V18.2423V18.2441V18.2458V18.2475V18.2493V18.251V18.2527V18.2545V18.2562V18.2579V18.2597V18.2614V18.2631V18.2649V18.2666V18.2683V18.2701V18.2718V18.2735V18.2752V18.277V18.2787V18.2804V18.2822V18.2839V18.2856V18.2873V18.2891V18.2908V18.2925V18.2942V18.296V18.2977V18.2994V18.3011V18.3029V18.3046V18.3063V18.308V18.3098V18.3115V18.3132V18.3149V18.3167V18.3184V18.3201C4.00091 19.4246 4.89609 20.32 6.00074 20.32H6.00175H6.00276H6.00377H6.00478H6.00579H6.0068H6.00781H6.00883H6.00984H6.01085H6.01187H6.01288H6.01389H6.01491H6.01592H6.01694H6.01796H6.01897H6.01999H6.021H6.02202H6.02304H6.02406H6.02507H6.02609H6.02711H6.02813H6.02915H6.03017H6.03119H6.03221H6.03323H6.03425H6.03527H6.03629H6.03731H6.03834H6.03936H6.04038H6.0414H6.04243H6.04345H6.04448H6.0455H6.04653H6.04755H6.04858H6.0496H6.05063H6.05165H6.05268H6.05371H6.05474H6.05576H6.05679H6.05782H6.05885H6.05988H6.06091H6.06194H6.06297H6.064H6.06503H6.06606H6.06709H6.06812H6.06915H6.07018H6.07122H6.07225H6.07328H6.07432H6.07535H6.07638H6.07742H6.07845H6.07949H6.08052H6.08156H6.0826H6.08363H6.08467H6.08571H6.08674H6.08778H6.08882H6.08986H6.09089H6.09193H6.09297H6.09401H6.09505H6.09609H6.09713H6.09817H6.09921H6.10026H6.1013H6.10234H6.10338H6.10442H6.10547H6.10651H6.10755H6.1086H6.10964H6.11069H6.11173H6.11278H6.11382H6.11487H6.11591H6.11696H6.118H6.11905H6.1201H6.12115H6.12219H6.12324H6.12429H6.12534H6.12639H6.12744H6.12849H6.12954H6.13059H6.13164H6.13269H6.13374H6.13479H6.13584H6.13689H6.13795H6.139H6.14005H6.14111H6.14216H6.14321H6.14427H6.14532H6.14638H6.14743H6.14849H6.14954H6.1506H6.15165H6.15271H6.15377H6.15482H6.15588H6.15694H6.158H6.15906H6.16011H6.16117H6.16223H6.16329H6.16435H6.16541H6.16647H6.16753H6.16859H6.16965H6.17072H6.17178H6.17284H6.1739H6.17496H6.17603H6.17709H6.17815H6.17922H6.18028H6.18135H6.18241H6.18348H6.18454H6.18561H6.18667H6.18774H6.18881H6.18987H6.19094H6.19201H6.19307H6.19414H6.19521H6.19628H6.19735H6.19842H6.19948H6.20055H6.20162H6.20269H6.20376H6.20484H6.20591H6.20698H6.20805H6.20912H6.21019H6.21127H6.21234H6.21341H6.21448H6.21556H6.21663H6.21771H6.21878H6.21985H6.22093H6.222H6.22308H6.22416H6.22523H6.22631H6.22738H6.22846H6.22954H6.23062H6.23169H6.23277H6.23385H6.23493H6.23601H6.23709H6.23816H6.23924H6.24032H6.2414H6.24248H6.24357H6.24465H6.24573H6.24681H6.24789H6.24897H6.25006H6.25114H6.25222H6.2533H6.25439H6.25547H6.25655H6.25764H6.25872H6.25981H6.26089H6.26198H6.26306H6.26415H6.26524H6.26632H6.26741H6.2685H6.26958H6.27067H6.27176H6.27285H6.27393H6.27502H6.27611H6.2772H6.27829H6.27938H6.28047H6.28156H6.28265H6.28374H6.28483H6.28592H6.28701H6.2881H6.2892H6.29029H6.29138H6.29247H6.29357H6.29466H6.29575H6.29685H6.29794H6.29903H6.30013H6.30122H6.30232H6.30341H6.30451H6.3056H6.3067H6.3078H6.30889H6.30999H6.31109H6.31218H6.31328H6.31438H6.31548H6.31658H6.31767H6.31877H6.31987H6.32097H6.32207H6.32317H6.32427H6.32537H6.32647H6.32757H6.32867H6.32978H6.33088H6.33198H6.33308H6.33418H6.33529H6.33639H6.33749H6.33859H6.3397H6.3408H6.34191H6.34301H6.34411H6.34522H6.34632H6.34743H6.34854H6.34964H6.35075H6.35185H6.35296H6.35407H6.35517H6.35628H6.35739H6.3585H6.3596H6.36071H6.36182H6.36293H6.36404H6.36515H6.36626H6.36737H6.36848H6.36959H6.3707H6.37181H6.37292H6.37403H6.37514H6.37625H6.37736H6.37848H6.37959H6.3807H6.38181H6.38293H6.38404H6.38515H6.38627H6.38738H6.3885H6.38961H6.39072H6.39184H6.39295H6.39407H6.39519H6.3963H6.39742H6.39853H6.39965H6.40077H6.40188H6.403H6.40412H6.40524H6.40635H6.40747H6.40859H6.40971H6.41083H6.41195H6.41307H6.41419H6.41531H6.41643H6.41755H6.41867H6.41979H6.42091H6.42203H6.42315H6.42427H6.42539H6.42652H6.42764H6.42876H6.42988H6.43101H6.43213H6.43325H6.43438H6.4355H6.43662H6.43775H6.43887H6.44H6.44112H6.44225H6.44337H6.4445H6.44562H6.44675H6.44788H6.449H6.45013H6.45126H6.45238H6.45351H6.45464H6.45577H6.4569H6.45802H6.45915H6.46028H6.46141H6.46254H6.46367H6.4648H6.46593H6.46706H6.46819H6.46932H6.47045H6.47158H6.47271H6.47384H6.47497H6.4761H6.47724H6.47837H6.4795H6.48063H6.48177H6.4829H6.48403H6.48517H6.4863H6.48743H6.48857H6.4897H6.49084H6.49197H6.49311H6.49424H6.49538H6.49651H6.49765H6.49878H6.49992H6.50106H6.50219H6.50333H6.50447H6.5056H6.50674H6.50788H6.50902H6.51015H6.51129H6.51243H6.51357H6.51471H6.51585H6.51699H6.51812H6.51926H6.5204H6.52154H6.52268H6.52382H6.52497H6.52611H6.52725H6.52839H6.52953H6.53067H6.53181H6.53296H6.5341H6.53524H6.53638H6.53753H6.53867H6.53981H6.54096H6.5421H6.54324H6.54439H6.54553H6.54668H6.54782H6.54896H6.55011H6.55125H6.5524H6.55355H6.55469H6.55584V20.32L6.56393 20.32L8.66695 20.3029V21C8.66695 21.5523 9.11466 22 9.66695 22C10.2192 22 10.6669 21.5523 10.6669 21V20.2867L12.5558 20.2715V21C12.5558 21.5523 13.0036 22 13.5558 22C14.1081 22 14.5558 21.5523 14.5558 21V20.2553L15.1195 20.2507C15.1718 20.2503 15.2239 20.2458 15.2755 20.2372C17.9043 19.7998 20.0003 17.6445 20.0003 14.94C20.0003 13.5524 19.4419 12.3004 18.5456 11.3577C18.8953 10.6631 19.0929 9.88401 19.0929 9.06013C19.0929 6.818 17.6943 4.73363 15.4281 3.97694C15.4196 3.97408 15.411 3.97135 15.4024 3.96873C15.1565 3.89394 14.8709 3.8386 14.5558 3.79686V3C14.5558 2.44772 14.1081 2 13.5558 2C13.0036 2 12.5558 2.44772 12.5558 3V3.66932C11.9913 3.65586 11.3601 3.6518 10.6669 3.65281V3ZM9.67333 5.65703C11.2907 5.64671 12.5605 5.65157 13.4959 5.70774C14.1538 5.74725 14.5719 5.80883 14.8083 5.87857C16.2226 6.35721 17.0929 7.65338 17.0929 9.06013C17.0929 9.75461 16.8621 10.4033 16.4566 10.9473C16.128 11.388 16.2168 12.0114 16.6555 12.3429C17.4939 12.9762 18.0003 13.9148 18.0003 14.94C18.0003 16.5193 16.7749 17.9269 15.0205 18.2514L13.5477 18.2634L9.65885 18.2948L6.55355 18.32H6.5524H6.55125H6.55011H6.54896H6.54782H6.54668H6.54553H6.54439H6.54324H6.5421H6.54096H6.53981H6.53867H6.53753H6.53638H6.53524H6.5341H6.53296H6.53181H6.53067H6.52953H6.52839H6.52725H6.52611H6.52497H6.52382H6.52268H6.52154H6.5204H6.51926H6.51812H6.51699H6.51585H6.51471H6.51357H6.51243H6.51129H6.51015H6.50902H6.50788H6.50674H6.5056H6.50447H6.50333H6.50219H6.50106H6.49992H6.49878H6.49765H6.49651H6.49538H6.49424H6.49311H6.49197H6.49084H6.4897H6.48857H6.48743H6.4863H6.48517H6.48403H6.4829H6.48177H6.48063H6.4795H6.47837H6.47724H6.4761H6.47497H6.47384H6.47271H6.47158H6.47045H6.46932H6.46819H6.46706H6.46593H6.4648H6.46367H6.46254H6.46141H6.46028H6.45915H6.45802H6.4569H6.45577H6.45464H6.45351H6.45238H6.45126H6.45013H6.449H6.44788H6.44675H6.44562H6.4445H6.44337H6.44225H6.44112H6.44H6.43887H6.43775H6.43662H6.4355H6.43438H6.43325H6.43213H6.43101H6.42988H6.42876H6.42764H6.42652H6.42539H6.42427H6.42315H6.42203H6.42091H6.41979H6.41867H6.41755H6.41643H6.41531H6.41419H6.41307H6.41195H6.41083H6.40971H6.40859H6.40747H6.40635H6.40524H6.40412H6.403H6.40188H6.40077H6.39965H6.39853H6.39742H6.3963H6.39519H6.39407H6.39295H6.39184H6.39072H6.38961H6.3885H6.38738H6.38627H6.38515H6.38404H6.38293H6.38181H6.3807H6.37959H6.37848H6.37736H6.37625H6.37514H6.37403H6.37292H6.37181H6.3707H6.36959H6.36848H6.36737H6.36626H6.36515H6.36404H6.36293H6.36182H6.36071H6.3596H6.3585H6.35739H6.35628H6.35517H6.35407H6.35296H6.35185H6.35075H6.34964H6.34854H6.34743H6.34632H6.34522H6.34411H6.34301H6.34191H6.3408H6.3397H6.33859H6.33749H6.33639H6.33529H6.33418H6.33308H6.33198H6.33088H6.32978H6.32867H6.32757H6.32647H6.32537H6.32427H6.32317H6.32207H6.32097H6.31987H6.31877H6.31767H6.31658H6.31548H6.31438H6.31328H6.31218H6.31109H6.30999H6.30889H6.3078H6.3067H6.3056H6.30451H6.30341H6.30232H6.30122H6.30013H6.29903H6.29794H6.29685H6.29575H6.29466H6.29357H6.29247H6.29138H6.29029H6.2892H6.2881H6.28701H6.28592H6.28483H6.28374H6.28265H6.28156H6.28047H6.27938H6.27829H6.2772H6.27611H6.27502H6.27393H6.27285H6.27176H6.27067H6.26958H6.2685H6.26741H6.26632H6.26524H6.26415H6.26306H6.26198H6.26089H6.25981H6.25872H6.25764H6.25655H6.25547H6.25439H6.2533H6.25222H6.25114H6.25006H6.24897H6.24789H6.24681H6.24573H6.24465H6.24357H6.24248H6.2414H6.24032H6.23924H6.23816H6.23709H6.23601H6.23493H6.23385H6.23277H6.23169H6.23062H6.22954H6.22846H6.22738H6.22631H6.22523H6.22416H6.22308H6.222H6.22093H6.21985H6.21878H6.21771H6.21663H6.21556H6.21448H6.21341H6.21234H6.21127H6.21019H6.20912H6.20805H6.20698H6.20591H6.20484H6.20376H6.20269H6.20162H6.20055H6.19948H6.19842H6.19735H6.19628H6.19521H6.19414H6.19307H6.19201H6.19094H6.18987H6.18881H6.18774H6.18667H6.18561H6.18454H6.18348H6.18241H6.18135H6.18028H6.17922H6.17815H6.17709H6.17603H6.17496H6.1739H6.17284H6.17178H6.17072H6.16965H6.16859H6.16753H6.16647H6.16541H6.16435H6.16329H6.16223H6.16117H6.16011H6.15906H6.158H6.15694H6.15588H6.15482H6.15377H6.15271H6.15165H6.1506H6.14954H6.14849H6.14743H6.14638H6.14532H6.14427H6.14321H6.14216H6.14111H6.14005H6.139H6.13795H6.13689H6.13584H6.13479H6.13374H6.13269H6.13164H6.13059H6.12954H6.12849H6.12744H6.12639H6.12534H6.12429H6.12324H6.12219H6.12115H6.1201H6.11905H6.118H6.11696H6.11591H6.11487H6.11382H6.11278H6.11173H6.11069H6.10964H6.1086H6.10755H6.10651H6.10547H6.10442H6.10338H6.10234H6.1013H6.10026H6.09921H6.09817H6.09713H6.09609H6.09505H6.09401H6.09297H6.09193H6.09089H6.08986H6.08882H6.08778H6.08674H6.08571H6.08467H6.08363H6.0826H6.08156H6.08052H6.07949H6.07845H6.07742H6.07638H6.07535H6.07432H6.07328H6.07225H6.07122H6.07018H6.06915H6.06812H6.06709H6.06606H6.06503H6.064H6.06297H6.06194H6.06091H6.05988H6.05885H6.05782H6.05679H6.05576H6.05474H6.05371H6.05268H6.05165H6.05063H6.0496H6.04858H6.04755H6.04653H6.0455H6.04448H6.04345H6.04243H6.0414H6.04038H6.03936H6.03834H6.03731H6.03629H6.03527H6.03425H6.03323H6.03221H6.03119H6.03017H6.02915H6.02813H6.02711H6.02609H6.02507H6.02406H6.02304H6.02202H6.021H6.01999H6.01897H6.01796H6.01694H6.01592H6.01491H6.01389H6.01288H6.01187H6.01085H6.00984H6.00883H6.00781H6.0068H6.00579H6.00478H6.00377H6.00276H6.00175H6.00091V18.3184V18.3167V18.3149V18.3132V18.3115V18.3098V18.308V18.3063V18.3046V18.3029V18.3011V18.2994V18.2977V18.296V18.2942V18.2925V18.2908V18.2891V18.2873V18.2856V18.2839V18.2822V18.2804V18.2787V18.277V18.2752V18.2735V18.2718V18.2701V18.2683V18.2666V18.2649V18.2631V18.2614V18.2597V18.2579V18.2562V18.2545V18.2527V18.251V18.2493V18.2475V18.2458V18.2441V18.2423V18.2406V18.2389V18.2371V18.2354V18.2337V18.2319V18.2302V18.2285V18.2267V18.225V18.2233V18.2215V18.2198V18.218V18.2163V18.2146V18.2128V18.2111V18.2094V18.2076V18.2059V18.2041V18.2024V18.2007V18.1989V18.1972V18.1954V18.1937V18.192V18.1902V18.1885V18.1868V18.185V18.1833V18.1815V18.1798V18.178V18.1763V18.1746V18.1728V18.1711V18.1693V18.1676V18.1659V18.1641V18.1624V18.1606V18.1589V18.1571V18.1554V18.1537V18.1519V18.1502V18.1484V18.1467V18.1449V18.1432V18.1415V18.1397V18.138V18.1362V18.1345V18.1327V18.131V18.1292V18.1275V18.1258V18.124V18.1223V18.1205V18.1188V18.117V18.1153V18.1135V18.1118V18.1101V18.1083V18.1066V18.1048V18.1031V18.1013V18.0996V18.0978V18.0961V18.0943V18.0926V18.0908V18.0891V18.0874V18.0856V18.0839V18.0821V18.0804V18.0786V18.0769V18.0751V18.0734V18.0716V18.0699V18.0681V18.0664V18.0646V18.0629V18.0611V18.0594V18.0577V18.0559V18.0542V18.0524V18.0507V18.0489V18.0472V18.0454V18.0437V18.0419V18.0402V18.0384V18.0367V18.0349V18.0332V18.0314V18.0297V18.0279V18.0262V18.0245V18.0227V18.021V18.0192V18.0175V18.0157V18.014V18.0122V18.0105V18.0087V18.007V18.0052V18.0035V18.0017V18V17.9982V17.9965V17.9947V17.993V17.9913V17.9895V17.9878V17.986V17.9843V17.9825V17.9808V17.979V17.9773V17.9755V17.9738V17.972V17.9703V17.9685V17.9668V17.9651V17.9633V17.9616V17.9598V17.9581V17.9563V17.9546V17.9528V17.9511V17.9493V17.9476V17.9458V17.9441V17.9424V17.9406V17.9389V17.9371V17.9354V17.9336V17.9319V17.9301V17.9284V17.9267V17.9249V17.9232V17.9214V17.9197V17.9179V17.9162V17.9145V17.9127V17.911V17.9092V17.9075V17.9057V17.904V17.9023V17.9005V17.8988V17.897V17.8953V17.8935V17.8918V17.8901V17.8883V17.8866V17.8848V17.8831V17.8814V17.8796V17.8779V17.8761V17.8744V17.8727V17.8709V17.8692V17.8674V17.8657V17.864V17.8622V17.8605V17.8587V17.857V17.8553V17.8535V17.8518V17.85V17.8483V17.8466V17.8448V17.8431V17.8414V17.8396V17.8379V17.8362V17.8344V17.8327V17.831V17.8292V17.8275V17.8257V17.824V17.8223V17.8205V17.8188V17.8171V17.8153V17.8136V17.8119V17.8101V17.8084V17.8067V17.8049V17.8032V17.8015V17.7998V17.798V17.7963V17.7946V17.7928V17.7911V17.7894V17.7876V17.7859V17.7842V17.7825V17.7807V17.779V17.7773V17.7755V17.7738V17.7721V17.7704V17.7686V17.7669V17.7652V17.7635V17.7617V17.76V17.7583V17.7566V17.7548V17.7531V17.7514V17.7497V17.7479V17.7462V17.7445V17.7428V17.7411V17.7393V17.7376V17.7359V17.7342V17.7325V17.7307V17.729V17.7273V17.7256V17.7239V17.7221V17.7204V17.7187V17.717V17.7153V17.7136V17.7118V17.7101V17.7084V17.7067V17.705V17.7033V17.7016V17.6998V17.6981V17.6964V17.6947V17.693V17.6913V17.6896V17.6879V17.6861V17.6844V17.6827V17.681V17.6793V17.6776V17.6759V17.6742V17.6725V17.6708V17.6691V17.6674V17.6656V17.6639V17.6622V17.6605V17.6588V17.6571V17.6554V17.6537V17.652V17.6503V17.6486V17.6469V17.6452V17.6435V17.6418V17.6401V17.6384V17.6367V17.635V17.6333V17.6316V17.6299V17.6282V17.6265V17.6248V17.6231V17.6214V17.6197V17.618V17.6164V17.6147V17.613V17.6113V17.6096V17.6079V17.6062V17.6045V17.6028V17.6011V17.5994V17.5978V17.5961V17.5944V17.5927V17.591V17.5893V17.5876V17.5859V17.5843V17.5826V17.5809V17.5792V17.5775V17.5758V17.5742V17.5725V17.5708V17.5691V17.5674V17.5658V17.5641V17.5624V17.5607V17.559V17.5574V17.5557V17.554V17.5523V17.5507V17.549V17.5473V17.5456V17.544V17.5423V17.5406V17.539V17.5373V17.5356V17.5339V17.5323V17.5306V17.5289V17.5273V17.5256V17.5239V17.5223V17.5206V17.5189V17.5173V17.5156V17.514V17.5123V17.5106V17.509V17.5073V17.5057V17.504V17.5023V17.5007V17.499V17.4974V17.4957V17.494V17.4924V17.4907V17.4891V17.4874V17.4858V17.4841V17.4825V17.4808V17.4792V17.4775V17.4759V17.4742V17.4726V17.4709V17.4693V17.4676V17.466V17.4643V17.4627V17.4611V17.4594V17.4578V17.4561V17.4545V17.4528V17.4512V17.4496V17.4479V17.4463V17.4446V17.443V17.4414L6.00091 17.44H6.8151C7.36738 17.44 7.8151 16.9923 7.8151 16.44V7.56015C7.8151 7.00786 7.36738 6.56015 6.8151 6.56015H6.00002L6 6.5604L6.00017 5.6801L6.00018 5.68004H6.0017H6.00321H6.00473H6.00625H6.00777H6.00929H6.01081H6.01233H6.01385H6.01537H6.0169H6.01842H6.01994H6.02147H6.02299H6.02452H6.02604H6.02757H6.02909H6.03062H6.03215H6.03368H6.03521H6.03674H6.03827H6.0398H6.04133H6.04286H6.04439H6.04592H6.04745H6.04899H6.05052H6.05206H6.05359H6.05513H6.05666H6.0582H6.05974H6.06127H6.06281H6.06435H6.06589H6.06743H6.06897H6.07051H6.07205H6.07359H6.07513H6.07667H6.07821H6.07976H6.0813H6.08285H6.08439H6.08594H6.08748H6.08903H6.09057H6.09212H6.09367H6.09521H6.09676H6.09831H6.09986H6.10141H6.10296H6.10451H6.10606H6.10761H6.10916H6.11072H6.11227H6.11382H6.11538H6.11693H6.11848H6.12004H6.12159H6.12315H6.12471H6.12626H6.12782H6.12938H6.13094H6.13249H6.13405H6.13561H6.13717H6.13873H6.14029H6.14185H6.14341H6.14498H6.14654H6.1481H6.14966H6.15123H6.15279H6.15435H6.15592H6.15748H6.15905H6.16061H6.16218H6.16375H6.16531H6.16688H6.16845H6.17002H6.17158H6.17315H6.17472H6.17629H6.17786H6.17943H6.181H6.18257H6.18414H6.18572H6.18729H6.18886H6.19043H6.19201H6.19358H6.19515H6.19673H6.1983H6.19988H6.20145H6.20303H6.20461H6.20618H6.20776H6.20934H6.21091H6.21249H6.21407H6.21565H6.21723H6.21881H6.22039H6.22197H6.22355H6.22513H6.22671H6.22829H6.22987H6.23145H6.23303H6.23462H6.2362H6.23778H6.23937H6.24095H6.24253H6.24412H6.2457H6.24729H6.24887H6.25046H6.25204H6.25363H6.25522H6.2568H6.25839H6.25998H6.26157H6.26315H6.26474H6.26633H6.26792H6.26951H6.2711H6.27269H6.27428H6.27587H6.27746H6.27905H6.28064H6.28223H6.28382H6.28542H6.28701H6.2886H6.29019H6.29179H6.29338H6.29498H6.29657H6.29816H6.29976H6.30135H6.30295H6.30454H6.30614H6.30773H6.30933H6.31093H6.31252H6.31412H6.31572H6.31731H6.31891H6.32051H6.32211H6.3237H6.3253H6.3269H6.3285H6.3301H6.3317H6.3333H6.3349H6.3365H6.3381H6.3397H6.3413H6.3429H6.3445H6.3461H6.34771H6.34931H6.35091H6.35251H6.35411H6.35572H6.35732H6.35892H6.36053H6.36213H6.36373H6.36534H6.36694H6.36855H6.37015H6.37175H6.37336H6.37496H6.37657H6.37818H6.37978H6.38139H6.38299H6.3846H6.3862H6.38781H6.38942H6.39103H6.39263H6.39424H6.39585H6.39745H6.39906H6.40067H6.40228H6.40389H6.40549H6.4071H6.40871H6.41032H6.41193H6.41354H6.41515H6.41676H6.41837H6.41998H6.42159H6.4232H6.42481H6.42642H6.42803H6.42964H6.43125H6.43286H6.43447H6.43608H6.43769H6.43931H6.44092H6.44253H6.44414H6.44575H6.44737H6.44898H6.45059H6.4522H6.45381H6.45543H6.45704H6.45865H6.46027H6.46188H6.46349H6.46511H6.46672H6.46833H6.46995H6.47156H6.47317H6.47479H6.4764H6.47802H6.47963H6.48124H6.48286H6.48447H6.48609H6.4877H6.48932H6.49093H6.49255H6.49416H6.49578H6.49739H6.49901H6.50062H6.50224H6.50385H6.50547H6.50708H6.5087H6.51032H6.51193H6.51355H6.51516H6.51678H6.51839H6.52001H6.52163H6.52324H6.52486H6.52648H6.52809H6.52971H6.53132H6.53294H6.53456H6.53617H6.53779H6.53941H6.54102H6.54264H6.54426H6.54587H6.54749H6.54911H6.55072H6.55234H6.55396H6.55557H6.55719H6.55881H6.56043H6.56204H6.56366H6.56528H6.56689H6.56851H6.57013H6.57174H6.57336H6.57498H6.57659H6.57821H6.57983H6.58145H6.58306H6.58468H6.5863H6.58791H6.58953H6.59115H6.59276H6.59438H6.596H6.59762H6.59923H6.60085H6.60247H6.60408H6.6057H6.60732H6.60893H6.61055H6.61217H6.61378H6.6154H6.61702H6.61863H6.62025H6.62187H6.62348H6.6251H6.62671H6.62833H6.62995H6.63156H6.63318H6.6348H6.63641H6.63803H6.63964H6.64126H6.64287H6.64449H6.64611H6.64772H6.64934H6.65095H6.65257H6.65418H6.6558H6.65741H6.65903H6.66064H6.66226H6.66387H6.66549H6.6671H6.66872H6.67033H6.67195H6.67356H6.67517H6.67679H6.6784H6.68002H6.68163H6.68324H6.68486H6.68647H6.68809H6.6897H6.69131H6.69293H6.69454H6.69615H6.69776H6.69938H6.70099H6.7026H6.70421H6.70583H6.70744H6.70905H6.71066H6.71227H6.71389H6.7155H6.71711H6.71872H6.72033H6.72194H6.72355H6.72516H6.72677H6.72838H6.72999H6.7316H6.73321H6.73482H6.73643H6.73804H6.73965H6.74126H6.74287H6.74448H6.74609H6.7477H6.74931H6.75091H6.75252H6.75413H6.75574H6.75735H6.75895H6.76056H6.76217H6.76378H6.76538H6.76699H6.76859H6.7702H6.77181H6.77341H6.77502H6.77662H6.77823H6.77983H6.78144H6.78304H6.78465H6.78625H6.78786H6.78946H6.79106H6.79267H6.79427H6.79588H6.79748H6.79908H6.80068H6.80229H6.80389H6.80549H6.80709H6.80869H6.81029H6.8119H6.8135H6.8151V5.68007L6.82262 5.68001C7.27546 5.67661 7.70983 5.67286 8.12707 5.66927L8.12757 5.66926C8.67093 5.66458 9.18521 5.66015 9.67333 5.65703ZM10.4997 8.00017L13.0433 8C13.6874 8.00003 14.2389 8.49481 14.2389 9.35153C14.2389 10.0978 13.6306 10.7028 12.8802 10.7028H10.4998C10.2236 10.7028 9.99978 10.479 9.99978 10.2028V8.50017C9.99978 8.22404 10.2236 8.00019 10.4997 8.00017ZM9.99978 13.7974C9.99978 13.5212 10.2236 13.2974 10.4998 13.2974H13.6411C14.3915 13.2974 14.9998 13.9024 14.9998 14.6487C14.9998 15.395 14.3915 16 13.6411 16H10.4998C10.2236 16 9.99978 15.7761 9.99978 15.5V13.7974Z" fill="black"/>
</svg>
