<svg width="24" height="24" viewBox="0 0 24 24" fill="none" xmlns="http://www.w3.org/2000/svg">
<path d="M12.875 12.0002H9.66667M12.875 12.0002H13.4583C14.5859 12.0002 15.5 12.9143 15.5 14.0418C15.5 15.1694 14.5859 16.0835 13.4583 16.0835H13M12.875 12.0002C14.0026 12.0002 14.9167 11.0861 14.9167 9.9585C14.9167 8.83092 14.1276 7.91667 13 7.91667M9.66667 12.0002V16.0835M9.66667 12.0002V7.91683M9.66667 16.0835H8.5M9.66667 16.0835H10.5M8.5 7.91683H9.66667M9.66667 7.91683H10.5M10.5 7.91683V6.75017M10.5 7.91683L13 7.91667M10.5 16.0835V17.2502M10.5 16.0835H13M13 7.91667V6.75M13 16.0835V17.2502M12 22C6.47715 22 2 17.5228 2 12C2 6.47715 6.47715 2 12 2C17.5228 2 22 6.47715 22 12C22 17.5228 17.5228 22 12 22Z" stroke="black" stroke-width="2" stroke-linecap="round" stroke-linejoin="round"/>
</svg>
