<svg width="24" height="24" viewBox="0 0 24 24" fill="none" xmlns="http://www.w3.org/2000/svg">
<path d="M13.7996 13.8001C15.7878 13.8001 17.3996 12.1883 17.3996 10.2001C17.3996 8.21187 15.7878 6.6001 13.7996 6.6001C11.8114 6.6001 10.1996 8.21187 10.1996 10.2001M13.7996 13.8001C11.8114 13.8001 10.1996 12.1883 10.1996 10.2001M13.7996 13.8001C13.7996 15.7883 12.1878 17.4001 10.1996 17.4001C8.21138 17.4001 6.59961 15.7883 6.59961 13.8001C6.59961 11.8119 8.21138 10.2001 10.1996 10.2001M13.7996 13.8001C13.7996 11.8119 12.1878 10.2001 10.1996 10.2001M21 6V18C21 19.6569 19.6569 21 18 21H6C4.34315 21 3 19.6569 3 18V6C3 4.34315 4.34315 3 6 3H18C19.6569 3 21 4.34315 21 6Z" stroke="black" stroke-width="2" stroke-linecap="round" stroke-linejoin="round"/>
</svg>
