<svg width="24" height="24" viewBox="0 0 24 24" fill="none" xmlns="http://www.w3.org/2000/svg">
<path fill-rule="evenodd" clip-rule="evenodd" d="M4 6C4 4.89543 4.89543 4 6 4H18C19.1046 4 20 4.89543 20 6V18C20 19.1046 19.1046 20 18 20H6C4.89543 20 4 19.1046 4 18V6ZM6 2C3.79086 2 2 3.79086 2 6V18C2 20.2091 3.79086 22 6 22H18C20.2091 22 22 20.2091 22 18V6C22 3.79086 20.2091 2 18 2H6ZM11.4844 7.75017C11.8041 7.57038 12.1944 7.57038 12.514 7.75017L15.514 9.43767C15.8446 9.62364 16.0492 9.97349 16.0492 10.3528V13.6474C16.0492 14.0267 15.8446 14.3766 15.514 14.5625L12.514 16.25C12.1944 16.4298 11.8041 16.4298 11.4844 16.25L8.48445 14.5625C8.15382 14.3766 7.94922 14.0267 7.94922 13.6474V10.3528C7.94922 9.97349 8.15382 9.62364 8.48444 9.43767L11.4844 7.75017ZM13.2494 6.44281C12.4731 6.00616 11.5253 6.00616 10.7491 6.44281L7.74905 8.13031C6.94612 8.58196 6.44922 9.43158 6.44922 10.3528V13.6474C6.44922 14.5686 6.94612 15.4182 7.74905 15.8699L10.7491 17.5574C11.5253 17.994 12.4731 17.994 13.2494 17.5574L16.2494 15.8699C17.0523 15.4182 17.5492 14.5686 17.5492 13.6474V10.3528C17.5492 9.43158 17.0523 8.58196 16.2494 8.13031L13.2494 6.44281ZM11.798 10.2392C11.9247 10.1759 12.0738 10.1759 12.2005 10.2392L13.4005 10.8392C13.5529 10.9155 13.6492 11.0713 13.6492 11.2417V12.7585C13.6492 12.9289 13.5529 13.0847 13.4005 13.1609L12.2005 13.7609C12.0738 13.8243 11.9247 13.8243 11.798 13.761L10.598 13.1609C10.4455 13.0847 10.3492 12.9289 10.3492 12.7585V11.2417C10.3492 11.0713 10.4455 10.9155 10.598 10.8392L11.798 10.2392ZM12.8713 8.89761C12.3223 8.62312 11.6761 8.62312 11.1272 8.89761L9.92715 9.49761C9.26652 9.82792 8.84922 10.5031 8.84922 11.2417V12.7585C8.84922 13.4971 9.26652 14.1723 9.92715 14.5026L11.1272 15.1026C11.6761 15.3771 12.3223 15.3771 12.8713 15.1026L14.0713 14.5026C14.7319 14.1723 15.1492 13.4971 15.1492 12.7585V11.2417C15.1492 10.5031 14.7319 9.82792 14.0713 9.49761L12.8713 8.89761Z" fill="black"/>
</svg>
