<svg width="24" height="24" viewBox="0 0 24 24" fill="none" xmlns="http://www.w3.org/2000/svg">
<path fill-rule="evenodd" clip-rule="evenodd" d="M4 6C4 4.89543 4.89543 4 6 4H18C19.1046 4 20 4.89543 20 6V18C20 19.1046 19.1046 20 18 20H6C4.89543 20 4 19.1046 4 18V6ZM6 2C3.79086 2 2 3.79086 2 6V18C2 20.2091 3.79086 22 6 22H18C20.2091 22 22 20.2091 22 18V6C22 3.79086 20.2091 2 18 2H6ZM7.20312 6.3501C7.61208 6.3501 7.97516 6.54649 8.20322 6.8501H15.8137C16.0418 6.54649 16.4049 6.3501 16.8138 6.3501C17.5042 6.3501 18.0638 6.90974 18.0638 7.6001V7.6061C18.0638 8.20579 17.6415 8.70685 17.0781 8.82812L15.6969 11.9358C15.8576 12.1461 15.9531 12.4089 15.9531 12.6941V12.7001C15.9531 13.3567 15.4469 13.8951 14.8034 13.9461L13.0986 17.782C13.2004 17.9629 13.2585 18.1717 13.2585 18.3941V18.4001C13.2585 19.0905 12.6988 19.6501 12.0085 19.6501C11.3181 19.6501 10.7585 19.0905 10.7585 18.4001V18.3941C10.7585 18.1761 10.8143 17.9711 10.9124 17.7926L9.20285 13.9461C8.55938 13.8951 8.05313 13.3567 8.05313 12.7001V12.6941C8.05313 12.4089 8.14861 12.1461 8.30935 11.9358L6.92701 8.82551C6.36951 8.69981 5.95312 8.20158 5.95312 7.6061V7.6001C5.95312 6.90974 6.51277 6.3501 7.20312 6.3501ZM12.0031 11.7618L13.4532 12.6846L13.4531 12.6941V12.7001C13.4531 12.8491 13.4792 12.9921 13.5271 13.1246L12.0031 16.5534L10.4792 13.1246C10.527 12.9921 10.5531 12.8491 10.5531 12.7001V12.6941L10.5531 12.6846L12.0031 11.7618ZM9.43581 8.3501L12.0031 9.98384L14.5704 8.3501H9.43581ZM14.9726 9.87215L14.2792 11.4323L13.4001 10.8728L14.9726 9.87215ZM10.6062 10.8728L9.03366 9.87215L9.72705 11.4323L10.6062 10.8728Z" fill="black"/>
</svg>
