<svg width="24" height="24" viewBox="0 0 24 24" fill="none" xmlns="http://www.w3.org/2000/svg">
<path fill-rule="evenodd" clip-rule="evenodd" d="M4 6C4 4.89543 4.89543 4 6 4H18C19.1046 4 20 4.89543 20 6V18C20 19.1046 19.1046 20 18 20H6C4.89543 20 4 19.1046 4 18V6ZM6 2C3.79086 2 2 3.79086 2 6V18C2 20.2091 3.79086 22 6 22H18C20.2091 22 22 20.2091 22 18V6C22 3.79086 20.2091 2 18 2H6ZM11.5501 7.8001C11.5501 7.55157 11.7516 7.3501 12.0001 7.3501C12.2486 7.3501 12.4501 7.55157 12.4501 7.8001V8.79256L12.0002 9.24244L11.5501 8.79231V7.8001ZM12.0001 5.8501C12.938 5.8501 13.7212 6.51222 13.9079 7.39453C14.6637 6.90263 15.6858 6.98827 16.3489 7.65145C17.0121 8.3146 17.0977 9.33655 16.6059 10.0924C17.4879 10.2793 18.1496 11.0624 18.1496 12C18.1496 12.9377 17.4878 13.7208 16.6057 13.9077C17.0976 14.6635 17.012 15.6855 16.3488 16.3487C15.6857 17.0119 14.6637 17.0976 13.9079 16.6057C13.7212 17.488 12.938 18.1501 12.0001 18.1501C11.0623 18.1501 10.2791 17.4881 10.0924 16.6059C9.33655 17.0977 8.31465 17.012 7.65152 16.3489C6.98836 15.6857 6.9027 14.6637 7.39455 13.9079C6.51199 13.7214 5.84961 12.9381 5.84961 12C5.84961 11.062 6.51189 10.2787 7.39434 10.0922C6.90259 9.33634 6.98828 8.31445 7.6514 7.65132C8.31456 6.98817 9.33652 6.90251 10.0924 7.39435C10.2791 6.51213 11.0623 5.8501 12.0001 5.8501ZM9.34846 8.71198L10.0501 9.41363V10.05H9.41369L8.71206 9.34838C8.53633 9.17265 8.53633 8.88772 8.71206 8.71198C8.8878 8.53625 9.17272 8.53625 9.34846 8.71198ZM7.79961 11.55H8.79237L9.24251 12.0002L8.79266 12.45H7.79961C7.55108 12.45 7.34961 12.2485 7.34961 12C7.34961 11.7515 7.55108 11.55 7.79961 11.55ZM8.71218 14.6518L9.41398 13.95H10.0501V14.5867L9.34858 15.2882C9.17284 15.4639 8.88792 15.4639 8.71218 15.2882C8.53644 15.1125 8.53644 14.8275 8.71218 14.6518ZM11.5501 16.2001V15.208L12.0002 14.7579L12.4501 15.2077V16.2001C12.4501 16.4486 12.2486 16.6501 12.0001 16.6501C11.7516 16.6501 11.5501 16.4486 11.5501 16.2001ZM14.6518 15.2881L13.9501 14.5864V13.95H14.5865L15.2882 14.6517C15.4639 14.8274 15.4639 15.1123 15.2882 15.2881C15.1124 15.4638 14.8275 15.4638 14.6518 15.2881ZM16.1996 12.45H15.2078L14.7579 12.0002L15.2081 11.55H16.1996C16.4481 11.55 16.6496 11.7515 16.6496 12C16.6496 12.2485 16.4481 12.45 16.1996 12.45ZM15.2883 9.34851L14.5868 10.05H13.9501V9.41388L14.6519 8.71211C14.8276 8.53637 15.1125 8.53637 15.2883 8.71211C15.464 8.88785 15.464 9.17277 15.2883 9.34851ZM12.4501 11.8136L12.1865 11.55H11.814L11.5501 11.8139V12.1864L11.8137 12.45H12.1868L12.4501 12.1867V11.8136Z" fill="black"/>
</svg>
