<svg width="24" height="24" viewBox="0 0 24 24" fill="none" xmlns="http://www.w3.org/2000/svg">
<path d="M6 12V5C6 3.89543 6.89543 3 8 3H13C17.4183 3 21 6.58172 21 11V13C21 17.4183 17.4183 21 13 21H8C6.89543 21 6 20.1046 6 19V12ZM6 12H3M6 12H10M13 12H10M10 12V8C10 7.44772 10.4463 6.99092 10.9986 6.98842C13.3064 6.97795 17 7.2728 17 12C17 16.7272 13.3064 17.0221 10.9986 17.0116C10.4463 17.0091 10 16.5523 10 16V12Z" stroke="black" stroke-width="2" stroke-linecap="round" stroke-linejoin="round"/>
</svg>
