<svg width="24" height="24" viewBox="0 0 24 24" fill="none" xmlns="http://www.w3.org/2000/svg">
<path d="M18.5 3H12C7.58172 3 4 6.58172 4 11V13C4 17.4183 7.58172 21 12 21H18.5C19.3284 21 20 20.3284 20 19.5V18.5C20 17.6716 19.3284 17 18.5 17H9.72076C9.29033 17 8.90819 16.7246 8.77208 16.3162L8.43874 15.3162C8.2229 14.6687 8.70487 14 9.38743 14H18.5C19.3284 14 20 13.3284 20 12.5V11.5C20 10.6716 19.3284 10 18.5 10H9.38743C8.70487 10 8.2229 9.3313 8.43874 8.68377L8.77208 7.68377C8.90819 7.27543 9.29033 7 9.72076 7H18.5C19.3284 7 20 6.32843 20 5.5L20 4.5C20 3.67157 19.3284 3 18.5 3Z" stroke="black" stroke-width="2" stroke-linecap="round" stroke-linejoin="round"/>
</svg>
