<svg width="24" height="24" viewBox="0 0 24 24" fill="none" xmlns="http://www.w3.org/2000/svg">
<path d="M17.3996 7.24545C16.7996 6.65112 15.9258 6.50876 14.9996 6.65112C10.2318 7.38396 13.7674 16.6162 8.99961 17.3491C8.07344 17.4914 7.19961 17.3491 6.59961 16.7547M9.59961 9.62283L14.9996 12.0002M8.99961 12.0002L14.3996 14.3775M21 6V18C21 19.6569 19.6569 21 18 21H6C4.34315 21 3 19.6569 3 18V6C3 4.34315 4.34315 3 6 3H18C19.6569 3 21 4.34315 21 6Z" stroke="black" stroke-width="2" stroke-linecap="round" stroke-linejoin="round"/>
</svg>
