<svg width="24" height="24" viewBox="0 0 24 24" fill="none" xmlns="http://www.w3.org/2000/svg">
<path d="M3 20V4C3 3.44772 3.44772 3 4 3H6C6.55228 3 7 3.44772 7 4V5.5C7 5.77614 7.22386 6 7.5 6H16.5C16.7761 6 17 5.77614 17 5.5V4C17 3.44772 17.4477 3 18 3H20C20.5523 3 21 3.44772 21 4V20C21 20.5523 20.5523 21 20 21H18C17.4477 21 17 20.5523 17 20V18.5C17 18.2239 16.7761 18 16.5 18H7.5C7.22386 18 7 18.2239 7 18.5V20C7 20.5523 6.55228 21 6 21H4C3.44772 21 3 20.5523 3 20Z" stroke="black" stroke-width="2" stroke-linecap="round" stroke-linejoin="round"/>
</svg>
