<svg width="24" height="24" viewBox="0 0 24 24" fill="none" xmlns="http://www.w3.org/2000/svg">
<path d="M11.9996 11.7001C11.9997 9.10735 13.5997 7.39492 14.3996 6.8628M11.9996 11.7001C13.9196 12.9001 14.0052 15.4001 13.808 16.5001M11.9996 11.7001C10.0796 12.9001 7.87281 12.0001 7.00941 11.4001M14.3996 6.8628C11.6531 6.22173 7.91406 6.75399 6.81423 8.45917C6.44661 9.02912 6.57707 10.1448 7.00941 11.4001M14.3996 6.8628C15.6453 7.15356 16.6868 7.68567 17.1853 8.45917C18.0845 9.85455 15.9996 14.5207 13.808 16.5001M13.808 16.5001C13.1924 17.0561 12.5684 17.4001 11.9997 17.4001C10.2335 17.4001 7.93285 14.0814 7.00941 11.4001M21 6V18C21 19.6569 19.6569 21 18 21H6C4.34315 21 3 19.6569 3 18V6C3 4.34315 4.34315 3 6 3H18C19.6569 3 21 4.34315 21 6Z" stroke="black" stroke-width="2" stroke-linecap="round" stroke-linejoin="round"/>
</svg>
