<svg width="24" height="24" viewBox="0 0 24 24" fill="none" xmlns="http://www.w3.org/2000/svg">
<path d="M9 13V14M15 13V14M12 21C7.02944 21 3 19.0301 3 15.0903C3 12.9776 4.15875 11.4314 6 10.4516C5.33333 9.04303 4.2 5.83188 5 4.25598C5.33333 3.59935 6.4 2.48308 8 3.27104C8.66667 3.59935 10 5.26353 10 9.29371C10.6432 9.21836 11.3126 9.18069 12 9.18069C12.6874 9.18069 13.3568 9.21836 14 9.29371C14 5.26353 15.3333 3.59933 16 3.27101C17.6 2.48306 18.6667 3.59933 19 4.25595C19.8 5.83186 18.6667 9.043 18 10.4516C19.8577 11.4305 21 12.9668 21 15.0903C21 19.0301 16.9706 21 12 21Z" stroke="black" stroke-width="2" stroke-linecap="round" stroke-linejoin="round"/>
</svg>
