<svg width="24" height="24" viewBox="0 0 24 24" fill="none" xmlns="http://www.w3.org/2000/svg">
<path fill-rule="evenodd" clip-rule="evenodd" d="M12 1C5.92487 1 1 5.92487 1 12C1 18.0751 5.92487 23 12 23C18.0751 23 23 18.0751 23 12C23 5.92487 18.0751 1 12 1ZM3 12C3 7.02944 7.02944 3 12 3C16.9706 3 21 7.02944 21 12C21 16.9706 16.9706 21 12 21C7.02944 21 3 16.9706 3 12ZM14.731 7.43554C14.8758 7.3642 14.9798 7.34928 15.0484 7.35013C15.1177 7.35099 15.1801 7.36833 15.2403 7.39947C15.3769 7.47005 15.4859 7.60467 15.5308 7.69316L16.1996 7.35367L15.5308 7.69317C15.5758 7.78172 15.6166 7.94565 15.6146 8.20882C15.6127 8.46461 15.5708 8.76409 15.4982 9.08413C15.3527 9.72571 15.1033 10.3664 14.9217 10.7502C14.7499 11.1133 14.8946 11.5473 15.25 11.7346C16.1698 12.2193 16.6496 12.9123 16.6496 13.8543C16.6496 14.7305 16.2221 15.3928 15.4299 15.8719C14.6081 16.3689 13.407 16.6501 11.9996 16.6501C10.5922 16.6501 9.39116 16.3689 8.56934 15.8719C7.77711 15.3928 7.34961 14.7305 7.34961 13.8543C7.34961 12.9209 7.83712 12.2199 8.75192 11.7332C9.10551 11.545 9.24886 11.1122 9.07752 10.7502C8.89588 10.3664 8.64654 9.72573 8.50104 9.08414C8.42846 8.76411 8.38654 8.46463 8.38459 8.20884C8.38257 7.94566 8.42342 7.78174 8.46837 7.69318C8.5133 7.60469 8.62229 7.47006 8.75889 7.39949C8.81916 7.36834 8.88151 7.35101 8.9508 7.35015C9.01945 7.34929 9.1234 7.36422 9.26826 7.43555C9.26551 7.4342 9.26655 7.43506 9.27091 7.43867C9.30001 7.46275 9.4768 7.60902 9.66152 8.03499C9.86271 8.49894 10.0496 9.24779 10.0496 10.3763C10.0496 10.5904 10.1411 10.7943 10.3011 10.9367C10.461 11.079 10.6742 11.1461 10.8869 11.1212C11.242 11.0796 11.6144 11.0585 11.9996 11.0585C12.3848 11.0585 12.7573 11.0796 13.1124 11.1212C13.325 11.1461 13.5382 11.079 13.6981 10.9367C13.8581 10.7943 13.9496 10.5904 13.9496 10.3763C13.9496 9.24779 14.1365 8.49894 14.3377 8.03498C14.5224 7.60901 14.6992 7.46274 14.7283 7.43866L14.7283 7.43865C14.7327 7.43505 14.7337 7.43419 14.731 7.43554ZM16.8684 7.01418C16.7133 6.70869 16.4023 6.31145 15.9289 6.06684C15.4152 5.80145 14.7645 5.74698 14.0683 6.08987C13.6472 6.29725 13.2491 6.77502 12.9615 7.43821C12.7288 7.97484 12.5481 8.67546 12.4795 9.56826C12.3209 9.56175 12.1609 9.55851 11.9996 9.55851C11.8384 9.55851 11.6783 9.56175 11.5197 9.56826C11.4511 8.67546 11.2704 7.97484 11.0377 7.43822C10.7501 6.77503 10.3521 6.29726 9.93096 6.08989C9.23469 5.74699 8.58398 5.80146 8.07033 6.06686C7.59693 6.31146 7.28592 6.70871 7.13085 7.01419C6.9358 7.39841 6.88164 7.82989 6.88463 8.22031C6.88767 8.61812 6.95076 9.03043 7.03818 9.4159C7.14798 9.90005 7.30378 10.3746 7.45861 10.7749C6.48702 11.4784 5.84961 12.5084 5.84961 13.8543C5.84961 15.342 6.63094 16.4526 7.79312 17.1554C8.92572 17.8404 10.4247 18.1501 11.9996 18.1501C13.5746 18.1501 15.0735 17.8404 16.2061 17.1554C17.3683 16.4526 18.1496 15.342 18.1496 13.8543C18.1496 12.5041 17.52 11.4759 16.5415 10.7725C16.6961 10.3727 16.8515 9.89909 16.961 9.41588C17.0485 9.03041 17.1115 8.61811 17.1146 8.2203C17.1176 7.82988 17.0634 7.39839 16.8684 7.01418ZM10.9496 12.6001C10.9496 12.1859 10.6138 11.8501 10.1996 11.8501C9.7854 11.8501 9.44961 12.1859 9.44961 12.6001V13.2001C9.44961 13.6143 9.7854 13.9501 10.1996 13.9501C10.6138 13.9501 10.9496 13.6143 10.9496 13.2001V12.6001ZM14.5496 12.6001C14.5496 12.1859 14.2138 11.8501 13.7996 11.8501C13.3854 11.8501 13.0496 12.1859 13.0496 12.6001V13.2001C13.0496 13.6143 13.3854 13.9501 13.7996 13.9501C14.2138 13.9501 14.5496 13.6143 14.5496 13.2001V12.6001Z" fill="black"/>
</svg>
