<svg width="24" height="24" viewBox="0 0 24 24" fill="none" xmlns="http://www.w3.org/2000/svg">
<path d="M8.30805 13.0821C8.05308 12.4466 7.80078 11.7089 7.80078 10.9221C7.80078 8.53618 9.68119 6.60205 12.0008 6.60205C14.3204 6.60205 16.2008 8.53618 16.2008 10.9221C16.2008 13.3079 14.3204 15.2421 12.0008 15.2421C10.9508 15.2421 10.7209 16.5585 9.90078 17.4021L11.4008 10.9221M14.6008 17.4021V17.4081M21 6V18C21 19.6569 19.6569 21 18 21H6C4.34315 21 3 19.6569 3 18V6C3 4.34315 4.34315 3 6 3H18C19.6569 3 21 4.34315 21 6Z" stroke="black" stroke-width="2" stroke-linecap="round" stroke-linejoin="round"/>
</svg>
