<svg width="24" height="24" viewBox="0 0 24 24" fill="none" xmlns="http://www.w3.org/2000/svg">
<path d="M8.30805 13.0821C8.05308 12.4466 7.80078 11.7089 7.80078 10.9221C7.80078 8.53618 9.68119 6.60205 12.0008 6.60205C14.3204 6.60205 16.2008 8.53618 16.2008 10.9221C16.2008 13.3079 14.3204 15.2421 12.0008 15.2421C10.9508 15.2421 10.7209 16.5585 9.90078 17.4021L11.4008 10.9221M14.6008 17.4021V17.4081M12 22V22C17.5228 22 22 17.5228 22 12V12C22 6.47715 17.5228 2 12 2V2C6.47715 2 2 6.47715 2 12V12C2 17.5228 6.47715 22 12 22Z" stroke="black" stroke-width="2" stroke-linecap="round" stroke-linejoin="round"/>
</svg>
