<svg width="24" height="24" viewBox="0 0 24 24" fill="none" xmlns="http://www.w3.org/2000/svg">
<path fill-rule="evenodd" clip-rule="evenodd" d="M12 1C5.92487 1 1 5.92487 1 12C1 18.0751 5.92487 23 12 23C18.0751 23 23 18.0751 23 12C23 5.92487 18.0751 1 12 1ZM3 12C3 7.02944 7.02944 3 12 3C16.9706 3 21 7.02944 21 12C21 16.9706 16.9706 21 12 21C7.02944 21 3 16.9706 3 12ZM8.99961 5.8501C8.38583 5.8501 7.80788 6.13908 7.43961 6.6301L6.35961 8.0701C5.84046 8.7623 6.33436 9.7501 7.19961 9.7501H14.9996C15.6134 9.7501 16.1913 9.46112 16.5596 8.9701L17.6396 7.5301C18.1588 6.8379 17.6649 5.8501 16.7996 5.8501H8.99961ZM8.63961 7.5301C8.72459 7.41679 8.85797 7.3501 8.99961 7.3501H15.8996L15.3596 8.0701C15.2746 8.18341 15.1413 8.2501 14.9996 8.2501H8.09961L8.63961 7.5301ZM8.63961 12.2701L8.09961 11.5501H14.9996C15.1413 11.5501 15.2746 11.6168 15.3596 11.7301L15.8996 12.4501H8.99961C8.85797 12.4501 8.72459 12.3834 8.63961 12.2701ZM7.19961 10.0501C6.33436 10.0501 5.84046 11.0379 6.35961 11.7301L7.43961 13.1701C7.80788 13.6611 8.38583 13.9501 8.99961 13.9501H16.7996C17.6649 13.9501 18.1588 12.9623 17.6396 12.2701L16.5596 10.8301C16.1913 10.3391 15.6134 10.0501 14.9996 10.0501H7.19961ZM8.63961 15.9301C8.72459 15.8168 8.85797 15.7501 8.99961 15.7501H15.8996L15.3596 16.4701C15.2746 16.5834 15.1413 16.6501 14.9996 16.6501H8.09961L8.63961 15.9301ZM8.99961 14.2501C8.38583 14.2501 7.80788 14.5391 7.43961 15.0301L6.35961 16.4701C5.84046 17.1623 6.33436 18.1501 7.19961 18.1501H14.9996C15.6134 18.1501 16.1913 17.8611 16.5596 17.3701L17.6396 15.9301C18.1588 15.2379 17.6649 14.2501 16.7996 14.2501H8.99961Z" fill="black"/>
</svg>
