<svg width="24" height="24" viewBox="0 0 24 24" fill="none" xmlns="http://www.w3.org/2000/svg">
<path d="M7 3H20C20.412 3 20.6472 3.47038 20.4 3.8L18.6 6.2C18.2223 6.70361 17.6295 7 17 7H4C3.58798 7 3.35279 6.52962 3.6 6.2L5.4 3.8C5.77771 3.29639 6.37049 3 7 3Z" stroke="black" stroke-width="2" stroke-linecap="round" stroke-linejoin="round"/>
<path d="M20.4 13.2L18.6 10.8C18.2223 10.2964 17.6295 10 17 10H4C3.58798 10 3.35279 10.4704 3.6 10.8L5.4 13.2C5.77771 13.7036 6.37049 14 7 14H20C20.412 14 20.6472 13.5296 20.4 13.2Z" stroke="black" stroke-width="2" stroke-linecap="round" stroke-linejoin="round"/>
<path d="M3.6 20.2L5.4 17.8C5.77771 17.2964 6.37049 17 7 17H20C20.412 17 20.6472 17.4704 20.4 17.8L18.6 20.2C18.2223 20.7036 17.6295 21 17 21H4C3.58798 21 3.35279 20.5296 3.6 20.2Z" stroke="black" stroke-width="2" stroke-linecap="round" stroke-linejoin="round"/>
</svg>
