<svg width="24" height="24" viewBox="0 0 24 24" fill="none" xmlns="http://www.w3.org/2000/svg">
<path d="M3 18L5.62469 16.8335L19.8608 10.5063M21 10L19.8608 10.5063M3 14L4.1392 13.4937M21 6L18.3753 7.16653L4.1392 13.4937M4.1392 13.4937C4.04781 13.0098 4 12.5105 4 12C4 7.58172 7.58172 4 12 4C13.4396 4 14.833 4.33446 16 5M19.8608 10.5063C19.9522 10.9902 20 11.4895 20 12C20 16.4183 16.4183 20 12 20C10.5429 20 9.17669 19.6807 8 19" stroke="black" stroke-width="2" stroke-linecap="round" stroke-linejoin="round"/>
</svg>
