<svg width="24" height="24" viewBox="0 0 24 24" fill="none" xmlns="http://www.w3.org/2000/svg">
<path d="M5.69922 16.1999L7.5365 15.3833L17.5018 10.9543M18.2992 10.5999L17.5018 10.9543M5.69922 13.3999L6.49666 13.0455M18.2992 7.7999L16.4619 8.61647L6.49666 13.0455M6.49666 13.0455C6.43269 12.7067 6.39922 12.3572 6.39922 11.9999C6.39922 8.90711 8.90642 6.3999 11.9992 6.3999C13.0069 6.3999 13.9823 6.63402 14.7992 7.0999M17.5018 10.9543C17.5658 11.2931 17.5992 11.6426 17.5992 11.9999C17.5992 15.0927 15.092 17.5999 11.9992 17.5999C10.9792 17.5999 10.0229 17.3764 9.19922 16.8999M21 6V18C21 19.6569 19.6569 21 18 21H6C4.34315 21 3 19.6569 3 18V6C3 4.34315 4.34315 3 6 3H18C19.6569 3 21 4.34315 21 6Z" stroke="black" stroke-width="2" stroke-linecap="round" stroke-linejoin="round"/>
</svg>
