<svg width="24" height="24" viewBox="0 0 24 24" fill="none" xmlns="http://www.w3.org/2000/svg">
<path d="M6.49666 13.0455C6.43269 12.7067 6.39922 12.3572 6.39922 11.9999C6.39922 8.90711 8.90642 6.3999 11.9992 6.3999C13.0069 6.3999 13.9823 6.63402 14.7992 7.0999M6.49666 13.0455L5.69922 13.3999M6.49666 13.0455L16.4619 8.61647L18.2992 7.7999M5.69922 16.1999L7.5365 15.3833L17.5018 10.9543M17.5018 10.9543L18.2992 10.5999M17.5018 10.9543C17.5658 11.2931 17.5992 11.6426 17.5992 11.9999C17.5992 15.0927 15.092 17.5999 11.9992 17.5999C10.9792 17.5999 10.0229 17.3764 9.19922 16.8999M12 22V22C17.5228 22 22 17.5228 22 12V12C22 6.47715 17.5228 2 12 2V2C6.47715 2 2 6.47715 2 12V12C2 17.5228 6.47715 22 12 22Z" stroke="black" stroke-width="2" stroke-linecap="round" stroke-linejoin="round"/>
</svg>
