<svg width="24" height="24" viewBox="0 0 24 24" fill="none" xmlns="http://www.w3.org/2000/svg">
<path fill-rule="evenodd" clip-rule="evenodd" d="M4 6C4 4.89543 4.89543 4 6 4H18C19.1046 4 20 4.89543 20 6V18C20 19.1046 19.1046 20 18 20H6C4.89543 20 4 19.1046 4 18V6ZM6 2C3.79086 2 2 3.79086 2 6V18C2 20.2091 3.79086 22 6 22H18C20.2091 22 22 20.2091 22 18V6C22 3.79086 20.2091 2 18 2H6ZM9.3188 8.21076C9.35456 8.14859 9.44288 8.05573 9.70112 7.99678C9.96581 7.93637 10.3377 7.93156 10.798 8.00101C11.7153 8.13945 12.8036 8.5449 13.6902 9.05859C14.5768 9.57226 15.4711 10.3156 16.0496 11.0441C16.3399 11.4095 16.5222 11.7359 16.6027 11.9972C16.6815 12.2527 16.6453 12.3774 16.6092 12.4401C16.5722 12.5044 16.4704 12.6108 16.1541 12.6663C15.8363 12.7221 15.3981 12.7048 14.8749 12.6022C14.0074 12.4321 13.0326 12.0528 12.2378 11.5923C11.3513 11.0786 10.4569 10.3353 9.8784 9.60681C9.58817 9.24133 9.40584 8.91502 9.3253 8.65366C9.24655 8.39814 9.28274 8.27344 9.3188 8.21076ZM18.0362 11.5554C18.1933 12.0652 18.2178 12.6521 17.9094 13.1881L15.9806 16.5407C15.6708 17.0792 15.1475 17.3508 14.6268 17.468C14.112 17.5838 13.5341 17.567 12.969 17.4811C11.8356 17.3089 10.5699 16.8296 9.55703 16.2428C8.53457 15.6504 7.48793 14.7901 6.77492 13.8923C6.41939 13.4445 6.11832 12.952 5.96302 12.4481C5.80592 11.9383 5.78144 11.3514 6.08981 10.8154L8.0185 7.46295L8.01861 7.46275C8.32728 6.92624 8.84724 6.65311 9.36732 6.5344C9.88095 6.41715 10.4574 6.43263 11.0218 6.51781C12.1538 6.68864 13.4198 7.16832 14.4422 7.76071C15.4647 8.35312 16.5113 9.21337 17.2243 10.1112C17.5798 10.5589 17.8809 11.0515 18.0362 11.5554ZM15.1492 14.1619C15.3003 14.179 15.4509 14.1904 15.5996 14.1951L14.6804 15.7927C14.6458 15.8529 14.5583 15.9459 14.2975 16.0045C14.0308 16.0645 13.6565 16.0684 13.1944 15.9982C12.2735 15.8582 11.1849 15.4524 10.309 14.9449C9.61399 14.5422 8.91416 13.9984 8.36548 13.4312C8.38561 13.4221 8.40458 13.4151 8.42223 13.4097C8.54551 13.3717 8.72486 13.3705 8.98478 13.4468C9.41679 13.5736 9.83702 13.8298 10.2627 14.0893C10.3942 14.1695 10.5262 14.2499 10.6592 14.327L10.7118 14.3575C11.2498 14.6697 12.0784 15.1504 12.9103 15.2512C13.3693 15.3068 13.8756 15.255 14.3489 14.9712C14.668 14.78 14.9332 14.5066 15.1492 14.1619ZM7.98081 11.9761C7.80091 12.0315 7.63234 12.111 7.47582 12.2135C7.44299 12.1407 7.41657 12.0715 7.39649 12.0063C7.31774 11.7508 7.35393 11.6261 7.38999 11.5634L8.30396 9.97474C8.42418 10.1689 8.55947 10.358 8.70373 10.5396C9.41674 11.4375 10.4634 12.2978 11.4858 12.8902C12.0667 13.2267 12.7288 13.5268 13.4001 13.7543C13.314 13.7731 13.2129 13.7769 13.0907 13.7621C12.5968 13.7022 12.021 13.3824 11.4112 13.0291C11.3377 12.9865 11.249 12.932 11.1482 12.8701C10.7135 12.6029 10.0531 12.1971 9.40718 12.0075C8.98658 11.8841 8.48586 11.8206 7.98081 11.9761ZM13.6156 9.19755C13.2474 8.98424 12.7968 8.79077 12.3886 8.69179C12.1892 8.64343 11.9519 8.60559 11.7193 8.62517C11.506 8.64312 11.1076 8.73005 10.8822 9.12187C10.6573 9.51264 10.7812 9.90021 10.8717 10.0933C10.9708 10.3044 11.1216 10.4912 11.263 10.6402C11.5522 10.9452 11.9443 11.24 12.3125 11.4533C12.6777 11.6649 13.128 11.8581 13.5363 11.9575C13.7358 12.006 13.9731 12.0442 14.2056 12.0253C14.4174 12.0081 14.8191 11.9231 15.0459 11.529C15.2707 11.1382 15.1468 10.7507 15.0563 10.5576C14.9573 10.3465 14.8064 10.1597 14.6651 10.0107C14.3758 9.70565 13.9837 9.41087 13.6156 9.19755Z" fill="black"/>
</svg>
