<svg width="24" height="24" viewBox="0 0 24 24" fill="none" xmlns="http://www.w3.org/2000/svg">
<path d="M20.7662 13.3565C21.9143 11.3609 18.626 7.85922 15.4443 6.01576C12.2626 4.17229 7.5966 3.06533 6.44849 5.06094M20.7662 13.3565L17.5515 18.9442C16.4034 20.9398 11.7035 19.8132 8.5557 17.9894C6.96484 17.0677 5.34735 15.7314 4.27108 14.3761M20.7662 13.3565C20.1406 14.4439 18.4606 14.6043 16.5517 14.23M6.44849 5.06094C5.30039 7.05655 8.58867 10.5582 11.7704 12.4017C13.203 13.2318 14.9572 13.9174 16.5517 14.23M6.44849 5.06094L3.23381 10.6486C2.65976 11.6464 3.19481 13.0208 4.27108 14.3761M4.27108 14.3761C5.84972 11.6321 8.8018 13.8747 10.3927 14.7964C12.3017 15.9025 15.1652 17.5616 16.5517 14.23M15.9936 10.5913C15.7066 11.0902 14.1974 10.6149 13.1481 10.007C12.0875 9.39249 10.934 8.32504 11.2211 7.82613C11.5081 7.32723 13.006 7.796 14.0666 8.41049C15.1271 9.02498 16.2806 10.0924 15.9936 10.5913Z" stroke="black" stroke-width="2" stroke-linecap="round" stroke-linejoin="round"/>
</svg>
