<svg width="24" height="24" viewBox="0 0 24 24" fill="none" xmlns="http://www.w3.org/2000/svg">
<path d="M6 10C4.15875 10.6409 3 11.4634 3 12.5C3 14.433 7.02944 16 12 16C16.9706 16 21 14.433 21 12.5C21 11.4634 19.8412 10.6409 18 10M19 4V6C19 6.55228 18.5523 7 18 7H15C14.4477 7 14 7.44772 14 8V20C14 20.5523 13.5523 21 13 21H11C10.4477 21 10 20.5523 10 20V8C10 7.44772 9.55228 7 9 7H6C5.44772 7 5 6.55228 5 6V4C5 3.44772 5.44772 3 6 3H18C18.5523 3 19 3.44772 19 4Z" stroke="black" stroke-width="2" stroke-linecap="round" stroke-linejoin="round"/>
</svg>
