<svg width="24" height="24" viewBox="0 0 24 24" fill="none" xmlns="http://www.w3.org/2000/svg">
<path d="M8.39961 11.8001C7.29486 12.1846 6.59961 12.6781 6.59961 13.3001C6.59961 14.4599 9.01727 15.4001 11.9996 15.4001C14.9819 15.4001 17.3996 14.4599 17.3996 13.3001C17.3996 12.6781 16.7044 12.1846 15.5996 11.8001M12 22C6.47715 22 2 17.5228 2 12C2 6.47715 6.47715 2 12 2C17.5228 2 22 6.47715 22 12C22 17.5228 17.5228 22 12 22ZM16.1996 7.2001V8.4001C16.1996 8.73147 15.931 9.0001 15.5996 9.0001H13.7996C13.4682 9.0001 13.1996 9.26873 13.1996 9.6001V16.8001C13.1996 17.1315 12.931 17.4001 12.5996 17.4001H11.3996C11.0682 17.4001 10.7996 17.1315 10.7996 16.8001V9.6001C10.7996 9.26873 10.531 9.0001 10.1996 9.0001H8.39961C8.06824 9.0001 7.79961 8.73147 7.79961 8.4001V7.2001C7.79961 6.86873 8.06824 6.6001 8.39961 6.6001H15.5996C15.931 6.6001 16.1996 6.86873 16.1996 7.2001Z" stroke="black" stroke-width="2" stroke-linecap="round" stroke-linejoin="round"/>
</svg>
