<svg width="24" height="24" viewBox="0 0 24 24" fill="none" xmlns="http://www.w3.org/2000/svg">
<path d="M11.9996 12.0001L16.581 7.41874C16.7999 7.19985 16.5841 6.83311 16.2864 6.91815L9.98008 8.71996C9.5402 8.84564 9.39716 9.39765 9.72065 9.72114L11.9996 12.0001ZM11.9996 12.0001L7.41825 16.5815C7.19936 16.8003 7.41515 17.1671 7.7128 17.082L14.0191 15.2802C14.459 15.1546 14.6021 14.6026 14.2786 14.2791L11.9996 12.0001ZM21 6V18C21 19.6569 19.6569 21 18 21H6C4.34315 21 3 19.6569 3 18V6C3 4.34315 4.34315 3 6 3H18C19.6569 3 21 4.34315 21 6Z" stroke="black" stroke-width="2" stroke-linecap="round" stroke-linejoin="round"/>
</svg>
