<svg width="24" height="24" viewBox="0 0 24 24" fill="none" xmlns="http://www.w3.org/2000/svg">
<path d="M11.8 11.8L10.72 17.2M11.8 11.8L7.3 7.3M11.8 11.8L15.1 8.5M11.8 11.8L17.2 11.26M21 6V18C21 19.6569 19.6569 21 18 21H6C4.34315 21 3 19.6569 3 18V6C3 4.34315 4.34315 3 6 3H18C19.6569 3 21 4.34315 21 6ZM14.9295 8.13279L7.48053 7.06865C7.25976 7.03711 7.08298 7.24893 7.1535 7.4605L10.4537 17.3611C10.5224 17.5673 10.7808 17.6343 10.941 17.4874L17.5932 11.3895C17.7096 11.2829 17.7234 11.1042 17.6248 10.981L15.6969 8.5711C15.5062 8.33271 15.2318 8.17597 14.9295 8.13279Z" stroke="black" stroke-width="2" stroke-linecap="round" stroke-linejoin="round"/>
</svg>
