<svg width="24" height="24" viewBox="0 0 24 24" fill="none" xmlns="http://www.w3.org/2000/svg">
<path d="M11.8 11.8L10.72 17.2M11.8 11.8L7.3 7.3M11.8 11.8L15.1 8.5M11.8 11.8L17.2 11.26M12 22C6.47715 22 2 17.5228 2 12C2 6.47715 6.47715 2 12 2C17.5228 2 22 6.47715 22 12C22 17.5228 17.5228 22 12 22ZM14.9295 8.13279L7.48053 7.06865C7.25976 7.03711 7.08298 7.24893 7.1535 7.4605L10.4537 17.3611C10.5224 17.5673 10.7808 17.6343 10.941 17.4874L17.5932 11.3895C17.7096 11.2829 17.7234 11.1042 17.6248 10.981L15.6969 8.5711C15.5062 8.33271 15.2318 8.17597 14.9295 8.13279Z" stroke="black" stroke-width="2" stroke-linecap="round" stroke-linejoin="round"/>
</svg>
