<svg width="24" height="24" viewBox="0 0 24 24" fill="none" xmlns="http://www.w3.org/2000/svg">
<path d="M12 5H6C5.44772 5 5 5.44772 5 6V8C5 8.55228 5.44772 9 6 9H11.0181C11.4268 9 11.6628 9.4636 11.4225 9.79409L5.15503 18.4118C4.67433 19.0728 5.14648 20 5.96377 20H12M12 5H18.0362C18.8535 5 19.3257 5.9272 18.845 6.58817L12.5775 15.2059C12.3372 15.5364 12.5732 16 12.9819 16H18C18.5523 16 19 16.4477 19 17V19C19 19.5523 18.5523 20 18 20H12M12 5V3M12 20V22" stroke="black" stroke-width="2" stroke-linecap="round" stroke-linejoin="round"/>
</svg>
