<svg width="24" height="24" viewBox="0 0 24 24" fill="none" xmlns="http://www.w3.org/2000/svg">
<path d="M6.73223 13.7326C7.18464 13.2802 7.80964 13.0004 8.5 13.0004C9.88071 13.0004 11 14.1197 11 15.5004C11 16.1906 10.7203 16.8156 10.268 17.268C9.81553 17.7205 9.19045 18.0004 8.5 18.0004C7.11929 18.0004 6 16.8811 6 15.5004C6 14.81 6.27982 14.185 6.73223 13.7326ZM6.73223 13.7326L12.4648 8M17.4648 3L15 5.46484M18.5 9.03591L14.384 13.1519M8.5 20.9996C5.46258 20.9996 3 18.5373 3 15.4998C3 13.9811 3.61562 12.6062 4.61091 11.6109M13.2218 3L7.22182 9M21 10.7778L18.5 13.2778M12.3889 19.3889L16 15.7778" stroke="black" stroke-width="2" stroke-linecap="round" stroke-linejoin="round"/>
</svg>
