<svg width="24" height="24" viewBox="0 0 24 24" fill="none" xmlns="http://www.w3.org/2000/svg">
<path d="M11.7331 10.7326L13.4657 9M17.4657 3L15.0008 5.46484M18.5008 9.03591L12.3848 15.1519M13.2227 3L7.22266 9M21.0008 10.7778L18.5008 13.2778M16.0008 15.7778L12.3897 19.3889C11.3944 20.3841 10.0187 20.9996 8.5 20.9996C5.46254 20.9996 3 18.5373 3 15.4998C3 13.9811 3.61562 12.6062 4.6109 11.6109M9.93544 17.0582L9.73359 15.6768C9.68333 15.3328 9.72359 14.9817 9.8504 14.658L10.2326 13.6824C10.3611 13.3544 10.1193 13 9.7671 13H8.41421C8.149 13 7.89464 13.1054 7.70711 13.2929L6.79289 14.2071C6.60536 14.3946 6.5 14.649 6.5 14.9142V15.3406C6.5 15.7406 6.7384 16.1022 7.10608 16.2597L9.58959 17.3241C9.76918 17.4011 9.96369 17.2515 9.93544 17.0582Z" stroke="black" stroke-width="2" stroke-linecap="round" stroke-linejoin="round"/>
</svg>
