<svg width="24" height="24" viewBox="0 0 24 24" fill="none" xmlns="http://www.w3.org/2000/svg">
<path d="M21 3L18 6M14.5 7.5L13.5 8.5M5 8L10 3M19 12L21 10M17.7401 16.1399L17.105 17.0925C16.7797 17.5804 16.1062 17.685 15.6483 17.3186L14.6313 16.505C14.2631 16.2104 14.1507 15.6987 14.3615 15.2769L14.6288 14.7423C14.8441 14.3119 15.3353 14.0958 15.798 14.228L17.1828 14.6236C17.8342 14.8098 18.1159 15.5762 17.7401 16.1399ZM10.176 11.2318L10.3675 12.5723C10.4538 13.1764 10.3538 13.7924 10.0809 14.3382L9.32233 15.8553C9.12984 16.2403 9.20529 16.7053 9.50965 17.0097L10.5742 18.0742C11.0405 18.5405 10.9357 19.3224 10.3633 19.6496L9.30039 20.2569C8.46189 20.7361 7.47835 20.8957 6.53136 20.7063L4.60777 20.3216C3.67292 20.1346 3 19.3138 3 18.3604V15.8735C3 14.6864 3.52729 13.5606 4.43926 12.8006L5.47889 11.9343C5.82384 11.6468 6.21471 11.4195 6.63514 11.2618L8.8349 10.4369C9.43323 10.2125 10.0856 10.5992 10.176 11.2318Z" stroke="black" stroke-width="2" stroke-linecap="round" stroke-linejoin="round"/>
</svg>
