<svg width="24" height="24" viewBox="0 0 24 24" fill="none" xmlns="http://www.w3.org/2000/svg">
<path d="M17.4002 4.79975V4.79975C17.7314 4.35816 18.3619 4.26546 18.7682 4.63915C20.755 6.46674 22 9.0882 22 12.0004C22 13.8937 21.4736 15.6638 20.5594 17.173C20.2734 17.6451 19.6418 17.7318 19.2002 17.4006V17.4006M17.4002 4.79975C15.8958 3.66966 14.0258 3 11.9995 3C7.0289 3 3 7.0294 3 12C3 14.6655 4.15875 17.0603 6 18.7083M17.4002 4.79975L13.5374 9.95051M19.2002 17.4006L14.0351 13.5267M19.2002 17.4006C18.8437 17.8751 18.4415 18.3131 18 18.7083M19 12C19 10.6804 18.6348 9.44607 18 8.39258M6 18.7083C7.59227 20.1334 9.69494 21 12 21C14.3051 21 16.4077 20.1334 18 18.7083M6 18.7083V22M18 18.7083V22M12 14V14C13.1046 14 14 13.1046 14 12V12C14 10.8954 13.1046 10 12 10V10C10.8954 10 10 10.8954 10 12V12C10 13.1046 10.8954 14 12 14Z" stroke="black" stroke-width="2" stroke-linecap="round" stroke-linejoin="round"/>
</svg>
