<svg width="24" height="24" viewBox="0 0 24 24" fill="none" xmlns="http://www.w3.org/2000/svg">
<path d="M19 8H20C21.1046 8 22 8.89543 22 10V12V14C22 15.1046 21.1046 16 20 16H19M5 8H4C2.89543 8 2 8.89543 2 10V14C2 15.1046 2.89543 16 4 16H5M12 14C11.2597 14 10.6134 13.5978 10.2676 13M12 20C7.58172 20 4 16.4182 4 12C4 7.58169 7.58125 4 11.9995 4C16.4178 4 20 7.58169 20 12C20 16.4182 16.4183 20 12 20ZM12 17C9.23858 17 7 14.7614 7 12C7 11.7465 7.01886 11.4974 7.05526 11.2541C7.17287 10.4679 7.92982 10 8.72477 10H15.2752C16.0702 10 16.8271 10.4679 16.9447 11.2541C16.9811 11.4974 17 11.7465 17 12C17 14.7614 14.7614 17 12 17Z" stroke="black" stroke-width="2" stroke-linecap="round" stroke-linejoin="round"/>
</svg>
