<svg width="24" height="24" viewBox="0 0 24 24" fill="none" xmlns="http://www.w3.org/2000/svg">
<path fill-rule="evenodd" clip-rule="evenodd" d="M15.6398 3.27113C15.4403 2.97259 15.146 2.72689 14.7575 2.58333C13.7357 2.20573 12.6322 2 11.4831 2C6.24067 2 2 6.26985 2 11.5263C2 13.9654 2.91389 16.1929 4.41578 17.8782C4.08288 18.311 3.88525 18.8533 3.88525 19.4405C3.88525 20.8492 5.02284 21.9997 6.43668 21.9997H16.5306C17.9444 21.9997 19.082 20.8492 19.082 19.4405C19.082 18.8533 18.8844 18.311 18.5515 17.8782C19.0987 17.2642 19.5679 16.5782 19.9434 15.8358C20.3047 15.1214 20.1479 14.3659 19.7112 13.836C19.9156 13.1001 20.0246 12.3251 20.0246 11.5259C20.0246 10.9773 19.9733 10.4406 19.8753 9.92061C19.4689 10.6389 18.7368 10.9987 18.004 11C18.0177 11.1735 18.0246 11.3489 18.0246 11.5259C18.0246 11.9875 17.9775 12.4373 17.888 12.871L14.3688 11.5447L14.3689 11.5263C14.3689 10.7596 14.0715 10.0623 13.5864 9.54436L14.3516 8.00623C13.5284 7.67426 13.0812 6.95994 13.0101 6.21259L11.7982 8.64866C11.6947 8.63736 11.5898 8.63157 11.4836 8.63157C9.88542 8.63157 8.59838 9.93233 8.59838 11.5263C8.59838 13.1203 9.88542 14.421 11.4836 14.421C12.3585 14.421 13.1396 14.031 13.6676 13.4177L18.0817 15.0813C17.7741 15.6573 17.3939 16.1887 16.9533 16.663C16.8413 16.7836 16.65 16.8758 16.3962 16.8813H6.57108C6.31731 16.8758 6.12593 16.7836 6.01391 16.663C4.76421 15.3177 4 13.5132 4 11.5263C4 7.3648 7.35483 4 11.4831 4C12.2755 4 13.0375 4.12349 13.7521 4.35185C13.9318 4.20044 14.1436 4.07343 14.3876 3.97958L15.5374 3.53737L15.6398 3.27113ZM6.43668 18.8813H6.55553L6.59505 18.8815H16.3722L16.4117 18.8813H16.5306C16.8304 18.8813 17.082 19.1269 17.082 19.4405C17.082 19.7541 16.8304 19.9997 16.5306 19.9997H6.43668C6.13686 19.9997 5.88525 19.7541 5.88525 19.4405C5.88525 19.1269 6.13686 18.8813 6.43668 18.8813ZM10.5984 11.5263C10.5984 11.0274 10.9994 10.6316 11.4836 10.6316C11.6269 10.6316 11.7596 10.6652 11.8771 10.7244C12.1689 10.8713 12.3689 11.1748 12.3689 11.5263C12.3689 11.6393 12.3486 11.7451 12.3125 11.8419C12.1848 12.1843 11.8585 12.421 11.4836 12.421C10.9994 12.421 10.5984 12.0252 10.5984 11.5263Z" fill="black"/>
<path d="M17.8463 3.10558C17.9004 2.96481 18.0996 2.96481 18.1537 3.10558L18.8888 5.01665C18.9055 5.06014 18.9399 5.09452 18.9834 5.11125L20.8944 5.84627C21.0352 5.90042 21.0352 6.09958 20.8944 6.15373L18.9834 6.88875C18.9399 6.90548 18.9055 6.93986 18.8888 6.98335L18.1537 8.89442C18.0996 9.03519 17.9004 9.03519 17.8463 8.89442L17.1112 6.98335C17.0945 6.93986 17.0601 6.90548 17.0166 6.88875L15.1056 6.15373C14.9648 6.09958 14.9648 5.90042 15.1056 5.84627L17.0166 5.11125C17.0601 5.09452 17.0945 5.06014 17.1112 5.01665L17.8463 3.10558Z" fill="black"/>
</svg>
