<svg width="24" height="24" viewBox="0 0 24 24" fill="none" xmlns="http://www.w3.org/2000/svg">
<path fill-rule="evenodd" clip-rule="evenodd" d="M11.9995 3C8.87907 3 6.12976 4.58804 4.51539 7H4C2.34315 7 1 8.34315 1 10V14C1 15.6569 2.34315 17 4 17H4.51558C6.1301 19.4119 8.8796 21 12 21C15.1204 21 17.8699 19.4119 19.4844 17H20C21.6569 17 23 15.6569 23 14V12V10V4C23 3.44772 22.5523 3 22 3C21.4477 3 21 3.44772 21 4V7.17071C20.6872 7.06015 20.3506 7 20 7H19.4843C17.8696 4.58801 15.1199 3 11.9995 3ZM3 10C3 9.64781 3.18207 9.33815 3.45721 9.15999C3.16059 10.0528 3 11.0076 3 12V10ZM3 12C3 12.9924 3.16063 13.9473 3.4573 14.8401C3.1821 14.6619 3 14.3522 3 14V12ZM21 14C21 14.3522 20.8179 14.6619 20.5427 14.8401C20.8394 13.9473 21 12.9924 21 12V14ZM21 12C21 11.0076 20.8394 10.0527 20.5427 9.15992C20.8179 9.33806 21 9.64776 21 10V12ZM5 12C5 8.1339 8.1336 5 11.9995 5C15.8656 5 19 8.13406 19 12C19 15.866 15.866 19 12 19C8.13401 19 5 15.866 5 12ZM13.1591 11H15.2752C15.4843 11 15.6659 11.0631 15.7853 11.1477C15.8949 11.2256 15.942 11.3104 15.9557 11.402C15.9848 11.5965 16 11.7962 16 12C16 14.2091 14.2091 16 12 16C9.79086 16 8 14.2091 8 12C8 11.8946 8.00406 11.7902 8.012 11.6872L7.53192 11.5025C6.86282 11.2452 6.5191 10.6526 6.50077 10.0508C6.28387 10.3405 6.12827 10.6917 6.06627 11.1061C6.02257 11.3983 6 11.6968 6 12C6 15.3137 8.68629 18 12 18C15.3137 18 18 15.3137 18 12C18 11.6968 17.9774 11.3983 17.9337 11.1061C17.7198 9.6758 16.3911 9 15.2752 9H13.1591C13.6136 9.57695 13.6136 10.4231 13.1591 11Z" fill="black"/>
<path d="M9.89752 8.07039C9.93361 7.97654 10.0664 7.97654 10.1025 8.07039L10.5925 9.34443C10.6037 9.37343 10.6266 9.39634 10.6556 9.4075L11.9296 9.89752C12.0235 9.93361 12.0235 10.0664 11.9296 10.1025L10.6556 10.5925C10.6266 10.6037 10.6037 10.6266 10.5925 10.6556L10.1025 11.9296C10.0664 12.0235 9.93361 12.0235 9.89752 11.9296L9.4075 10.6556C9.39634 10.6266 9.37343 10.6037 9.34443 10.5925L8.07039 10.1025C7.97654 10.0664 7.97654 9.93361 8.07039 9.89752L9.34443 9.4075C9.37343 9.39634 9.39634 9.37343 9.4075 9.34443L9.89752 8.07039Z" fill="black"/>
</svg>
