<svg width="24" height="24" viewBox="0 0 24 24" fill="none" xmlns="http://www.w3.org/2000/svg">
<path fill-rule="evenodd" clip-rule="evenodd" d="M14.2574 4.03414C13.0005 3.3738 11.5692 3 10.0522 3C5.05245 3 1 7.05303 1 12.0526C1 14.3545 1.86045 16.4577 3.27561 18.0545C2.97017 18.4659 2.78947 18.9754 2.78947 19.5271C2.78947 20.8927 3.8965 21.9997 5.26208 21.9997H14.8432C16.2088 21.9997 17.3158 20.8927 17.3158 19.5271C17.3158 18.9754 17.1351 18.4659 16.8297 18.0545L16.8331 18.0506C17.487 18.1193 18.172 17.8504 18.5667 17.1987C19.4763 15.6968 20 13.9346 20 12.053C20 11.3661 19.9303 10.6954 19.7976 10.0477C19.365 10.7038 18.6431 11.0209 17.9308 10.9989C17.9764 11.3438 18 11.6956 18 12.053C18 13.4848 17.622 14.8256 16.9609 15.9842L12.7364 12.8158C12.8053 12.5733 12.8421 12.3172 12.8421 12.0526C12.8421 11.5075 12.6857 10.9989 12.4154 10.5692L14.3408 8.00185C13.5958 7.69718 13.1613 7.0781 13.0372 6.40666L10.8157 9.3688C10.5732 9.29998 10.3172 9.26315 10.0526 9.26315C8.51205 9.26315 7.26316 10.512 7.26316 12.0526C7.26316 13.5932 8.51205 14.8421 10.0526 14.8421C10.5977 14.8421 11.1063 14.6858 11.5359 14.4155L14.9823 17.0003C14.8957 17.0322 14.7946 17.0521 14.6801 17.0545H5.42516C5.17102 17.0492 4.98236 16.9574 4.87369 16.8399C3.70987 15.5816 3 13.9011 3 12.0526C3 8.15746 6.15716 5 10.0522 5C11.1157 5 12.1231 5.23488 13.0266 5.65573C13.1307 4.98603 13.541 4.35998 14.2574 4.03414ZM14.6938 8.13818C14.393 8.45641 14.3275 8.94766 14.5645 9.34105C15.0413 10.1322 15.3158 11.0588 15.3158 12.0526C15.3158 12.6049 15.7635 13.0526 16.3158 13.0526C16.8681 13.0526 17.3158 12.6049 17.3158 12.0526C17.3158 11.6461 17.2823 11.2471 17.2179 10.8584C16.6846 10.6573 16.2217 10.242 15.9796 9.61238L15.5374 8.46263L14.6938 8.13818ZM5.26208 19.0545H5.41011L5.44852 19.0548H14.6567L14.6952 19.0545H14.8432C15.1042 19.0545 15.3158 19.2661 15.3158 19.5271C15.3158 19.7881 15.1042 19.9997 14.8432 19.9997H5.26208C5.00107 19.9997 4.78947 19.7881 4.78947 19.5271C4.78947 19.2661 5.00107 19.0545 5.26208 19.0545ZM9.26316 12.0526C9.26316 11.6166 9.61662 11.2631 10.0526 11.2631C10.4886 11.2631 10.8421 11.6166 10.8421 12.0526C10.8421 12.4886 10.4886 12.8421 10.0526 12.8421C9.61662 12.8421 9.26316 12.4886 9.26316 12.0526Z" fill="black"/>
<path d="M17.8463 3.10558C17.9004 2.96481 18.0996 2.96481 18.1537 3.10558L18.8888 5.01665C18.9055 5.06014 18.9399 5.09452 18.9834 5.11125L20.8944 5.84627C21.0352 5.90042 21.0352 6.09958 20.8944 6.15373L18.9834 6.88875C18.9399 6.90548 18.9055 6.93986 18.8888 6.98335L18.1537 8.89442C18.0996 9.03519 17.9004 9.03519 17.8463 8.89442L17.1112 6.98335C17.0945 6.93986 17.0601 6.90548 17.0166 6.88875L15.1056 6.15373C14.9648 6.09958 14.9648 5.90042 15.1056 5.84627L17.0166 5.11125C17.0601 5.09452 17.0945 5.06014 17.1112 5.01665L17.8463 3.10558Z" fill="black"/>
</svg>
