<svg width="24" height="24" viewBox="0 0 24 24" fill="none" xmlns="http://www.w3.org/2000/svg">
<path fill-rule="evenodd" clip-rule="evenodd" d="M14.813 3.81599C13.6672 3.29209 12.3931 3 11.0522 3C6.05245 3 2 7.05303 2 12.0526C2 14.3545 2.86045 16.4577 4.27561 18.0545C3.97017 18.4659 3.78947 18.9754 3.78947 19.5271C3.78947 20.8927 4.8965 21.9997 6.26208 21.9997H15.8432C17.2088 21.9997 18.3158 20.8927 18.3158 19.5271C18.3158 18.9754 18.1351 18.4659 17.8297 18.0545L17.8331 18.0506C18.487 18.1193 19.172 17.8504 19.5667 17.1987C20.4763 15.6968 21 13.9346 21 12.053C21 10.8519 20.7869 9.70035 20.3966 8.63425L20.0204 9.61238C19.7968 10.1938 19.385 10.5925 18.9032 10.8085C18.9669 11.2139 19 11.6296 19 12.053C19 13.4848 18.622 14.8256 17.9609 15.9842L13.7364 12.8158C13.8053 12.5733 13.8421 12.3172 13.8421 12.0526C13.8421 11.5075 13.6857 10.9989 13.4154 10.5692L15.1166 8.3008L14.3876 8.02042C13.9568 7.85472 13.6263 7.58569 13.3961 7.26144L12.0526 9.05287V6.68421C12.0526 6.13192 11.6049 5.68421 11.0526 5.68421C10.5003 5.68421 10.0526 6.13192 10.0526 6.68421V9.44775C9.00602 9.84979 8.26316 10.8645 8.26316 12.0526C8.26316 13.5932 9.51205 14.8421 11.0526 14.8421C11.5977 14.8421 12.1063 14.6858 12.5359 14.4155L15.9823 17.0003C15.8957 17.0322 15.7946 17.0521 15.6801 17.0545H6.42516C6.17102 17.0492 5.98236 16.9574 5.87369 16.8399C4.70987 15.5816 4 13.9011 4 12.0526C4 8.15746 7.15716 5 11.0522 5C11.7688 5 12.4599 5.10663 13.1109 5.30493C13.2985 4.73521 13.724 4.2348 14.3876 3.97958L14.813 3.81599ZM15.4954 8.44647C15.3802 8.72872 15.3951 9.05988 15.5645 9.34105C16.0413 10.1322 16.3158 11.0588 16.3158 12.0526C16.3158 12.6049 16.7635 13.0526 17.3158 13.0526C17.8681 13.0526 18.3158 12.6049 18.3158 12.0526C18.3158 11.6909 18.2893 11.3352 18.2381 10.9873C17.331 11.0841 16.3694 10.6258 15.9796 9.61238L15.5374 8.46263L15.4954 8.44647ZM6.26208 19.0545H6.41011L6.44852 19.0548H15.6567L15.6952 19.0545H15.8432C16.1042 19.0545 16.3158 19.2661 16.3158 19.5271C16.3158 19.7881 16.1042 19.9997 15.8432 19.9997H6.26208C6.00107 19.9997 5.78947 19.7881 5.78947 19.5271C5.78947 19.2661 6.00107 19.0545 6.26208 19.0545ZM10.2632 12.0526C10.2632 11.6166 10.6166 11.2631 11.0526 11.2631C11.4886 11.2631 11.8421 11.6166 11.8421 12.0526C11.8421 12.4886 11.4886 12.8421 11.0526 12.8421C10.6166 12.8421 10.2632 12.4886 10.2632 12.0526Z" fill="black"/>
<path d="M17.8463 3.10558C17.9004 2.96481 18.0996 2.96481 18.1537 3.10558L18.8888 5.01665C18.9055 5.06014 18.9399 5.09452 18.9834 5.11125L20.8944 5.84627C21.0352 5.90042 21.0352 6.09958 20.8944 6.15373L18.9834 6.88875C18.9399 6.90548 18.9055 6.93986 18.8888 6.98335L18.1537 8.89442C18.0996 9.03519 17.9004 9.03519 17.8463 8.89442L17.1112 6.98335C17.0945 6.93986 17.0601 6.90548 17.0166 6.88875L15.1056 6.15373C14.9648 6.09958 14.9648 5.90042 15.1056 5.84627L17.0166 5.11125C17.0601 5.09452 17.0945 5.06014 17.1112 5.01665L17.8463 3.10558Z" fill="black"/>
</svg>
