<svg width="24" height="24" viewBox="0 0 24 24" fill="none" xmlns="http://www.w3.org/2000/svg">
<path d="M15.5784 4.84277C18.2001 6.15624 20 8.86774 20 11.9996C20 12.9883 19.8206 13.9352 19.4927 14.8094M15.5784 4.84277V4.84277C15.8253 4.34907 15.6271 3.74235 15.1091 3.55164C14.1399 3.19483 13.0924 3 11.9995 3C7.0289 3 3 7.0294 3 12C3 14.6655 4.15875 17.0603 6 18.7083M15.5784 4.84277L12.8945 10.2107M19.4927 14.8094V14.8094C20.0098 15.0033 20.277 15.5832 20.0265 16.0755C19.5179 17.0752 18.8279 17.9673 18 18.7083M19.4927 14.8094L13.8733 12.7021M12.8945 10.2107C12.6253 10.0759 12.3215 10 12 10C10.8954 10 10 10.8954 10 12C10 13.1046 10.8954 14 12 14C12.8575 14 13.589 13.4603 13.8733 12.7021M12.8945 10.2107C13.55 10.539 14 11.2169 14 12C14 12.2471 13.9552 12.4836 13.8733 12.7021M6 18.7083C7.59227 20.1334 9.69494 21 12 21C14.3051 21 16.4077 20.1334 18 18.7083M6 18.7083V22M18 18.7083V22" stroke="black" stroke-width="2" stroke-linecap="round" stroke-linejoin="round"/>
</svg>
