<svg width="24" height="24" viewBox="0 0 24 24" fill="none" xmlns="http://www.w3.org/2000/svg">
<path d="M15.5784 4.84277C18.2001 6.15624 20 8.86774 20 11.9996C20 12.9883 19.8206 13.9352 19.4927 14.8094M15.5784 4.84277V4.84277C15.8253 4.34907 15.6271 3.74235 15.1091 3.55164C14.1399 3.19483 13.0924 3 11.9995 3C7.0289 3 3 7.0294 3 12C3 14.3906 3.93208 16.5635 5.45265 18.1751C5.79041 18.5331 6.27213 18.7083 6.76431 18.7083H17.2357C17.7279 18.7083 18.2096 18.5331 18.5473 18.1751C19.1349 17.5524 19.6345 16.8459 20.0265 16.0755C20.277 15.5832 20.0098 15.0033 19.4927 14.8094V14.8094M15.5784 4.84277L12.8945 10.2107M19.4927 14.8094L13.8733 12.7021M12 10C10.8954 10 10 10.8954 10 12C10 13.1046 10.8954 14 12 14C12.8575 14 13.589 13.4603 13.8733 12.7021M12 10C12.3215 10 12.6253 10.0759 12.8945 10.2107M12 10V6M12.8945 10.2107C13.55 10.539 14 11.2169 14 12C14 12.2471 13.9552 12.4836 13.8733 12.7021M6.64586 18.708H17.3541C18.2631 18.708 19 19.4449 19 20.3539C19 21.2629 18.2631 21.9997 17.3541 21.9997H6.64586C5.73688 21.9997 5 21.2629 5 20.3539C5 19.4449 5.73688 18.708 6.64586 18.708Z" stroke="black" stroke-width="2" stroke-linecap="round" stroke-linejoin="round"/>
</svg>
