<svg width="24" height="24" viewBox="0 0 24 24" fill="none" xmlns="http://www.w3.org/2000/svg">
<path fill-rule="evenodd" clip-rule="evenodd" d="M20.5 5C21.3284 5 22 4.32843 22 3.5C22 2.67157 21.3284 2 20.5 2C19.6716 2 19 2.67157 19 3.5C19 4.32843 19.6716 5 20.5 5ZM10.9995 3C5.47655 3 1 7.47719 1 13C1 18.5228 5.47715 23 11 23C16.5228 23 21 18.5228 21 13C21 7.47703 16.5222 3 10.9995 3ZM3 13C3 10.199 4.43925 7.73427 6.61858 6.30515C7.21246 8.1584 8.94956 9.49996 11 9.49996C13.0503 9.49996 14.7873 8.15859 15.3813 6.30554C17.5606 7.73475 19 10.1993 19 13L19 13.0067C16.8844 12.3029 14.5215 13.3015 13.5885 15.4008C13.2994 16.0512 13.15 16.7551 13.15 17.467V20.6496C13.15 20.6689 13.1506 20.6882 13.1516 20.7073C12.467 20.898 11.7454 21 11 21C10.526 21 10.0617 20.9587 9.61033 20.8797C9.98732 20.1345 10.2 19.2916 10.2 18.4C10.2 15.3623 7.73721 12.9 4.69973 12.9C4.10797 12.9 3.53706 12.9938 3.00172 13.1674C3.00057 13.1117 3 13.0559 3 13ZM11 7.49996C9.74022 7.49996 8.68971 6.604 8.45091 5.41453C9.25138 5.14568 10.1084 5 10.9995 5C11.8909 5 12.7482 5.14579 13.549 5.41482C13.3101 6.60414 12.2597 7.49996 11 7.49996ZM18.691 15.0381L18.7326 15.0589C18.1966 17.0771 16.8914 18.782 15.15 19.8407V17.467C15.15 17.035 15.2407 16.6078 15.4161 16.213C15.9732 14.9595 17.4641 14.4246 18.691 15.0381ZM8.2 18.4C8.2 19.0887 8.00183 19.7297 7.65869 20.2709C5.55611 19.3031 3.94514 17.4501 3.3033 15.1894C3.73029 15.0033 4.20201 14.9 4.69973 14.9C6.63281 14.9 8.2 16.4671 8.2 18.4ZM16.4 10.1996C15.8477 10.1996 15.4 10.6473 15.4 11.1996C15.4 11.7518 15.8477 12.1996 16.4 12.1996H16.409C16.9613 12.1996 17.409 11.7518 17.409 11.1996C17.409 10.6473 16.9613 10.1996 16.409 10.1996H16.4ZM7.26623 12.5982C7.29519 12.5886 7.41156 12.5765 7.57154 12.6565C7.73151 12.7365 7.79166 12.8368 7.80132 12.8658C7.97596 13.3897 8.54228 13.6729 9.06623 13.4982C9.59017 13.3236 9.87333 12.7573 9.69868 12.2333C9.48334 11.5873 8.98099 11.1251 8.46596 10.8676C7.95094 10.6101 7.27981 10.4855 6.63377 10.7009C6.10983 10.8755 5.82667 11.4418 6.00132 11.9658C6.17596 12.4897 6.74228 12.7729 7.26623 12.5982Z" fill="black"/>
</svg>
