<svg width="24" height="24" viewBox="0 0 24 24" fill="none" xmlns="http://www.w3.org/2000/svg">
<path fill-rule="evenodd" clip-rule="evenodd" d="M19.1537 2.10558C19.0996 1.96481 18.9004 1.96481 18.8463 2.10558L18.1112 4.01665C18.0945 4.06014 18.0601 4.09452 18.0166 4.11125L16.1056 4.84627C15.9648 4.90042 15.9648 5.09958 16.1056 5.15373L18.0166 5.88875C18.0601 5.90548 18.0945 5.93986 18.1112 5.98335L18.8463 7.89442C18.9004 8.03519 19.0996 8.03519 19.1537 7.89442L19.8888 5.98335C19.9055 5.93986 19.9399 5.90548 19.9834 5.88875L21.8944 5.15373C22.0352 5.09958 22.0352 4.90042 21.8944 4.84627L19.9834 4.11125C19.9399 4.09452 19.9055 4.06014 19.8888 4.01665L19.1537 2.10558ZM9.99953 5C5.02889 5 1 9.02948 1 14C1 18.9705 5.02944 23 10 23C14.9706 23 19 18.9705 19 14C19 9.02932 14.97 5 9.99953 5ZM3 14C3 13.5593 3.04071 13.1281 3.11859 12.71L3.90066 12.9055C4.9074 13.1572 5.81099 13.7157 6.48633 14.5036C6.96122 15.0576 7.09704 15.8262 6.84082 16.5094L6.82472 16.5523C6.31926 17.9002 7.03398 19.3984 8.39966 19.8536L8.72445 19.9618C9.34384 20.1683 9.89746 20.524 10.3397 20.9919C10.2271 20.9972 10.1139 21 10 21C6.13401 21 3 17.866 3 14ZM4.38573 10.9653L3.76704 10.8106C4.72232 8.94724 6.48858 7.56839 8.6 7.13993V8.00461C8.6 9.61842 9.58253 11.0697 11.0809 11.669C12.7695 12.3445 14.7011 11.7785 15.7582 10.2986L15.8553 10.1627C16.579 11.2646 17 12.5832 17 14C17 16.983 15.1341 19.5302 12.5058 20.5381C11.7755 19.3753 10.6632 18.4999 9.3569 18.0645L9.03211 17.9562C8.74186 17.8595 8.58995 17.5411 8.69738 17.2546L8.71348 17.2117C9.22566 15.8458 8.95415 14.3095 8.00484 13.202C7.05958 12.0992 5.79484 11.3175 4.38573 10.9653ZM10.6 8.00461V7.02539C12.075 7.1507 13.4197 7.73337 14.4915 8.631L14.1307 9.13609C13.6093 9.86607 12.6566 10.1452 11.8237 9.81205C11.0846 9.51643 10.6 8.80062 10.6 8.00461ZM12.8684 15.7499L12.2678 15.5097C12.5062 15.1907 12.8827 14.9996 13.2859 14.9996H13.6804C13.7465 14.9996 13.8 15.0531 13.8 15.1192C13.8 15.5998 13.3146 15.9284 12.8684 15.7499ZM13.2859 12.9996C12.1369 12.9996 11.0721 13.6025 10.4809 14.5878L10.4068 14.7112C9.84648 15.6452 10.2553 16.8588 11.2665 17.2633L12.1256 17.6069C13.8855 18.3109 15.8 17.0147 15.8 15.1192C15.8 13.9486 14.851 12.9996 13.6804 12.9996H13.2859Z" fill="black"/>
</svg>
