<svg width="24" height="24" viewBox="0 0 24 24" fill="none" xmlns="http://www.w3.org/2000/svg">
<path d="M8 3.00046C8 5.20959 9.79086 7.00045 12 7.00045C14.2091 7.00045 16 5.20959 16 3.00046M2.5 13.6693C3.23534 13.2439 4.08908 13.0005 4.9997 13.0005C7.76113 13.0005 10 15.239 10 18.0005C10 19.2893 9.51232 20.4643 8.71142 21.3509M21.5 13.5L21.0425 13.2712C19.1126 12.3063 16.7678 13.1476 15.8914 15.1193V15.1193C15.6334 15.7 15.5 16.3283 15.5 16.9638V20.5M18 10H18.01M7.5 10.5C8.25 10.25 9.25 10.75 9.5 11.5M12 22.0004C6.47715 22.0004 2 17.5233 2 12.0004C2 6.4776 6.47656 2.00049 11.9994 2.00049C17.5223 2.00049 22 6.4776 22 12.0004C22 17.5233 17.5228 22.0004 12 22.0004Z" stroke="black" stroke-width="2" stroke-linecap="round" stroke-linejoin="round"/>
</svg>
