<svg width="24" height="24" viewBox="0 0 24 24" fill="none" xmlns="http://www.w3.org/2000/svg">
<path fill-rule="evenodd" clip-rule="evenodd" d="M19.1537 2.10558C19.0996 1.96481 18.9004 1.96481 18.8463 2.10558L18.1112 4.01665C18.0945 4.06014 18.0601 4.09452 18.0166 4.11125L16.1056 4.84627C15.9648 4.90042 15.9648 5.09958 16.1056 5.15373L18.0166 5.88875C18.0601 5.90548 18.0945 5.93986 18.1112 5.98335L18.8463 7.89442C18.9004 8.03519 19.0996 8.03519 19.1537 7.89442L19.8888 5.98335C19.9055 5.93986 19.9399 5.90548 19.9834 5.88875L21.8944 5.15373C22.0352 5.09958 22.0352 4.90042 21.8944 4.84627L19.9834 4.11125C19.9399 4.09452 19.9055 4.06014 19.8888 4.01665L19.1537 2.10558ZM9.99953 5C5.02889 5 1 9.02948 1 14C1 18.9705 5.02944 23 10 23C14.9706 23 19 18.9705 19 14C19 9.02932 14.97 5 9.99953 5ZM4.39976 13.8C3.91454 13.8 3.44466 13.8694 3 13.9989C3.00037 11.6 4.20724 9.48309 6.04686 8.22205C6.62962 9.84178 8.17956 11 10 11C11.8203 11 13.3702 9.84194 13.953 8.2224C15.7557 9.45815 16.9508 11.5155 16.9985 13.8546C15.1034 13.3041 13.0306 14.2186 12.1993 16.0889C11.936 16.6813 11.8 17.3224 11.8 17.9706V20.7664C11.2256 20.9188 10.6223 21 10 21C9.63616 21 9.2788 20.9722 8.92993 20.9187C9.23135 20.2752 9.4 19.5569 9.4 18.8C9.4 16.0385 7.1611 13.8 4.39976 13.8ZM10 8.99997C8.96826 8.99997 8.1024 8.28974 7.86465 7.33153C8.53768 7.11623 9.25502 7 9.99953 7C10.7443 7 11.462 7.11632 12.1353 7.33178C11.8974 8.28986 11.0317 8.99997 10 8.99997ZM14.027 16.9012C14.4897 15.8599 15.7168 15.4071 16.742 15.8893C16.2772 17.5514 15.2143 18.9638 13.8 19.8797V17.9706C13.8 17.6022 13.8773 17.2378 14.027 16.9012ZM7.4 18.8C7.4 19.3554 7.24975 19.8744 6.98708 20.3202C5.22028 19.4764 3.86269 17.9136 3.29301 16.0105C3.63473 15.8747 4.00773 15.8 4.39976 15.8C6.0567 15.8 7.4 17.1432 7.4 18.8ZM14.8 11.3996C14.2477 11.3996 13.8 11.8473 13.8 12.3996C13.8 12.9519 14.2477 13.3996 14.8 13.3996H14.808C15.3603 13.3996 15.808 12.9519 15.808 12.3996C15.808 11.8473 15.3603 11.3996 14.808 11.3996H14.8ZM5.45132 13.1158C5.62576 13.6392 6.19093 13.9223 6.71435 13.7489C6.71668 13.7485 6.73134 13.7459 6.76038 13.7493C6.79943 13.7538 6.84991 13.7676 6.90279 13.794C6.95566 13.8205 6.99701 13.8526 7.02405 13.8811C7.04415 13.9023 7.0509 13.9156 7.05194 13.9177C7.22732 14.4405 7.79291 14.7227 8.31623 14.5483C8.84017 14.3736 9.12333 13.8073 8.94868 13.2834C8.74584 12.6748 8.27474 12.2439 7.79721 12.0052C7.31969 11.7664 6.69231 11.6481 6.08377 11.8509C5.55983 12.0256 5.27667 12.5919 5.45132 13.1158Z" fill="black"/>
</svg>
