<svg width="24" height="24" viewBox="0 0 24 24" fill="none" xmlns="http://www.w3.org/2000/svg">
<path fill-rule="evenodd" clip-rule="evenodd" d="M20.5 5C21.3284 5 22 4.32843 22 3.5C22 2.67157 21.3284 2 20.5 2C19.6716 2 19 2.67157 19 3.5C19 4.32843 19.6716 5 20.5 5ZM10.9995 3C5.47655 3 1 7.47719 1 13C1 18.5228 5.47715 23 11 23C16.5228 23 21 18.5228 21 13C21 7.47703 16.5222 3 10.9995 3ZM3 13C3 8.58161 6.58126 5 10.9995 5C12.1669 5 13.276 5.25007 14.276 5.69956H12.3098C11.0651 5.69956 10.0029 6.59942 9.79827 7.82715C9.58004 9.13657 10.4044 10.3939 11.6923 10.7159L11.8357 10.7518C12.7781 10.9874 13.5267 11.7019 13.8058 12.6324C14.3637 14.492 15.86 15.9203 17.7436 16.3912L18.1939 16.5038C16.8948 19.166 14.1616 21 11 21C10.5748 21 10.1573 20.9668 9.75 20.9029V20.0194C9.75 19.4352 9.6558 18.8547 9.47104 18.3004L9.28112 17.7306C9.22721 17.5689 9.33293 17.3979 9.50168 17.3738C10.9352 17.169 12 15.9412 12 14.4932V14.1135C12 12.4578 10.7653 11.0624 9.12408 10.8573C7.74593 10.685 6.40671 11.4001 5.78501 12.6435C5.56864 13.0762 5.12635 13.3496 4.64254 13.3496H3.0075C3.00252 13.2336 3 13.1171 3 13ZM16.85 7.69956C16.8955 7.69956 16.9402 7.69652 16.9841 7.69064C18.2383 9.10309 19 10.9626 19 13C19 13.5492 18.9447 14.0855 18.8392 14.6036L18.2286 14.4509C17.0294 14.1511 16.0767 13.2417 15.7215 12.0577C15.2397 10.4516 13.9475 9.21815 12.3208 8.81148L12.1773 8.77562C11.9011 8.70655 11.7242 8.43684 11.7711 8.15595C11.815 7.89259 12.0428 7.69956 12.3098 7.69956H16.85ZM7.75 20.0194V20.3122C5.653 19.3788 4.03175 17.5698 3.35059 15.3496H4.64254C5.8839 15.3496 7.01871 14.6482 7.57386 13.5379C7.81576 13.0541 8.33799 12.7746 8.87601 12.8418C9.51809 12.9221 10 13.4681 10 14.1135V14.4932C10 14.9459 9.66706 15.3298 9.21884 15.3939C7.81482 15.5944 6.93525 17.0176 7.38375 18.3631L7.57367 18.9328C7.69046 19.2832 7.75 19.6501 7.75 20.0194Z" fill="black"/>
</svg>
