<svg width="24" height="24" viewBox="0 0 24 24" fill="none" xmlns="http://www.w3.org/2000/svg">
<path d="M3 9L4.67899 9.41975C6.1889 9.79723 7.5441 10.6348 8.55698 11.8165V11.8165C9.4471 12.855 9.70169 14.2955 9.22144 15.5762L9.20132 15.6298C8.81826 16.6513 9.3599 17.7866 10.3949 18.1316L10.8008 18.2669C12.2185 18.7395 13.4165 19.7107 14.172 21V21M11.5 2.5V4.50626C11.5 6.01239 12.417 7.36679 13.8154 7.92615V7.92615C15.3913 8.55654 17.194 8.02835 18.1806 6.64716L19 5.5M12 22.0004C6.47715 22.0004 2 17.5233 2 12.0004C2 6.4776 6.47656 2.00049 11.9994 2.00049C17.5223 2.00049 22 6.4776 22 12.0004C22 17.5233 17.5228 22.0004 12 22.0004ZM18 13.3994V13.3994C18 12.6266 17.3734 12 16.6006 12H16.1074C15.1102 12 14.1861 12.5232 13.673 13.3783L13.5804 13.5327C13.276 14.04 13.4981 14.6992 14.0474 14.919L15.1212 15.3485C16.5001 15.9 18 14.8845 18 13.3994Z" stroke="black" stroke-width="2" stroke-linecap="round" stroke-linejoin="round"/>
</svg>
