<svg width="24" height="24" viewBox="0 0 24 24" fill="none" xmlns="http://www.w3.org/2000/svg">
<path d="M2.5 13.5H4.93616C5.89458 13.5 6.77075 12.9585 7.19937 12.1013V12.1013C7.67915 11.1417 8.71329 10.5892 9.77783 10.7222V10.7222C11.0463 10.8808 12 11.9593 12 13.2377V13.6596C12 14.7156 11.2235 15.6109 10.1781 15.7603V15.7603C9.3043 15.8851 8.75693 16.7708 9.03604 17.6081L9.24706 18.2412C9.41459 18.7438 9.5 19.2701 9.5 19.7999V21.5M18.5 5H13.4553C12.6155 5 11.8988 5.60716 11.7607 6.43555V6.43555C11.6135 7.31905 12.1697 8.16743 13.0387 8.38467L13.198 8.42451C14.6253 8.78133 15.7591 9.86359 16.1818 11.2727V11.2727C16.6891 12.9637 18.0496 14.2624 19.7623 14.6906L21 15M12 22.0004C6.47715 22.0004 2 17.5233 2 12.0004C2 6.4776 6.47656 2.00049 11.9994 2.00049C17.5223 2.00049 22 6.4776 22 12.0004C22 17.5233 17.5228 22.0004 12 22.0004Z" stroke="black" stroke-width="2" stroke-linecap="round" stroke-linejoin="round"/>
</svg>
