<svg width="24" height="24" viewBox="0 0 24 24" fill="none" xmlns="http://www.w3.org/2000/svg">
<path fill-rule="evenodd" clip-rule="evenodd" d="M19.1537 2.10558C19.0996 1.96481 18.9004 1.96481 18.8463 2.10558L18.1112 4.01665C18.0945 4.06014 18.0601 4.09452 18.0166 4.11125L16.1056 4.84627C15.9648 4.90042 15.9648 5.09958 16.1056 5.15373L18.0166 5.88875C18.0601 5.90548 18.0945 5.93986 18.1112 5.98335L18.8463 7.89442C18.9004 8.03519 19.0996 8.03519 19.1537 7.89442L19.8888 5.98335C19.9055 5.93986 19.9399 5.90548 19.9834 5.88875L21.8944 5.15373C22.0352 5.09958 22.0352 4.90042 21.8944 4.84627L19.9834 4.11125C19.9399 4.09452 19.9055 4.06014 19.8888 4.01665L19.1537 2.10558ZM9.99953 5C5.02889 5 1 9.02948 1 14C1 18.9705 5.02944 23 10 23C14.9706 23 19 18.9705 19 14C19 9.02932 14.97 5 9.99953 5ZM3 14C3 10.1339 6.1336 7 9.99953 7C10.8191 7 11.6057 7.14083 12.3366 7.39961H11.1643C10.0036 7.39961 9.01302 8.23875 8.8222 9.38365C8.61869 10.6047 9.38746 11.7772 10.5884 12.0775L10.7159 12.1094C11.5156 12.3093 12.1508 12.9156 12.3876 13.7051C12.8948 15.3957 14.255 16.6941 15.9673 17.1222L16.2332 17.1887C15.0733 19.4514 12.7175 21 10 21C9.66048 21 9.3266 20.9758 9 20.9291V20.2395C9 19.7082 8.91434 19.1804 8.74633 18.6763L8.57751 18.1699C8.55152 18.0919 8.6025 18.0094 8.68387 17.9978C10.0129 17.8079 11 16.6697 11 15.3273V14.9898C11 13.4619 9.86067 12.1744 8.3463 11.9851C7.0746 11.8261 5.8388 12.4859 5.26507 13.6334C5.09157 13.9804 4.73689 14.1996 4.34893 14.1996H3.00279C3.00093 14.1333 3 14.0667 3 14ZM15.2 9.39961C15.2248 9.39961 15.2493 9.3987 15.2736 9.39693C16.3487 10.6275 17 12.2377 17 14C17 14.4404 16.9593 14.8713 16.8815 15.2892L16.4524 15.1819C15.4244 14.9249 14.6078 14.1454 14.3033 13.1304C13.8637 11.6653 12.6849 10.5401 11.201 10.1691L11.0735 10.1372C10.8841 10.0899 10.7629 9.90498 10.795 9.71244C10.8251 9.53192 10.9813 9.39961 11.1643 9.39961H15.2ZM7 20.2395V20.3263C5.28585 19.512 3.95515 18.0216 3.35258 16.1996H4.34893C5.49444 16.1996 6.54164 15.5524 7.05392 14.5278C7.24785 14.14 7.66666 13.9157 8.09823 13.9697C8.61346 14.0341 9 14.4723 9 14.9898V15.3273C9 15.6744 8.74472 15.9688 8.40103 16.0179C7.08439 16.206 6.25956 17.5406 6.68015 18.8023L6.84896 19.3088C6.949 19.6089 7 19.9232 7 20.2395Z" fill="black"/>
</svg>
