<svg width="24" height="24" viewBox="0 0 24 24" fill="none" xmlns="http://www.w3.org/2000/svg">
<path d="M2.9 10.2996L4.41109 10.6773C5.77001 11.0171 6.98969 11.7709 7.90128 12.8344V12.8344C8.70239 13.769 8.93152 15.0655 8.4993 16.2181L8.48119 16.2664C8.13644 17.1857 8.62391 18.2075 9.55537 18.518L9.92076 18.6398C11.1967 19.0651 12.2748 19.9392 12.9548 21.0996V21.0996M10.55 4.44956V6.25519C10.55 7.61071 11.3753 8.82967 12.6338 9.3331V9.3331C14.0522 9.90044 15.6746 9.42508 16.5625 8.182L17.3 7.14956M11 22C6.02944 22 2 17.9705 2 13C2 8.0294 6.0289 4 10.9995 4C15.97 4 20 8.0294 20 13C20 17.9705 15.9706 22 11 22ZM16.4 14.2591V14.2591C16.4 13.5635 15.8361 12.9996 15.1405 12.9996H14.6966C13.7991 12.9996 12.9675 13.4705 12.5057 14.24L12.4224 14.379C12.1484 14.8355 12.3483 15.4289 12.8427 15.6266L13.8091 16.0132C15.0501 16.5096 16.4 15.5956 16.4 14.2591Z" stroke="black" stroke-width="2" stroke-linecap="round" stroke-linejoin="round"/>
<circle cx="20.5" cy="3.5" r="1.5" fill="black"/>
</svg>
