<svg width="24" height="24" viewBox="0 0 24 24" fill="none" xmlns="http://www.w3.org/2000/svg">
<path d="M17.795 2.14077C17.8672 1.95308 18.1328 1.95308 18.205 2.14077L19.185 4.68886C19.2073 4.74686 19.2531 4.79269 19.3111 4.815L21.8592 5.79503C22.0469 5.86722 22.0469 6.13278 21.8592 6.20497L19.3111 7.185C19.2531 7.20731 19.2073 7.25314 19.185 7.31114L18.205 9.85923C18.1328 10.0469 17.8672 10.0469 17.795 9.85923L16.815 7.31114C16.7927 7.25314 16.7469 7.20731 16.6889 7.185L14.1408 6.20497C13.9531 6.13278 13.9531 5.86722 14.1408 5.79503L16.6889 4.815C16.7469 4.79269 16.7927 4.74686 16.815 4.68886L17.795 2.14077Z" fill="black"/>
<path fill-rule="evenodd" clip-rule="evenodd" d="M15.8275 1.68488C14.6353 1.24231 13.3456 1.00049 11.9994 1.00049C5.9242 1.00049 1 5.92539 1 12.0004C1 18.0756 5.92487 23.0004 12 23.0004C18.0751 23.0004 23 18.0756 23 12.0004C23 10.6542 22.7581 9.36448 22.3155 8.17231L20.7676 8.76764L20.5765 9.26449C20.8516 10.1273 21 11.0465 21 12.0004C21 16.971 16.9706 21.0004 12 21.0004C7.02944 21.0004 3 16.971 3 12.0004C3 7.02981 7.02892 3.00049 11.9994 3.00049C12.9531 3.00049 13.8722 3.14883 14.7349 3.4237L15.2324 3.23236L15.8275 1.68488ZM17.9722 11.9998C17.9815 12.0001 17.9907 12.0002 18 12.0002H18.01C18.0228 12.0002 18.0355 12 18.0481 11.9995C18.0228 12 17.9975 12.0001 17.9722 11.9998ZM9.5 6.00021C7.567 6.00021 6 7.56721 6 9.50021C6 11.4332 7.567 13.0002 9.5 13.0002C11.433 13.0002 13 11.4332 13 9.50021C13 7.56721 11.433 6.00021 9.5 6.00021ZM8 9.50021C8 8.67178 8.67157 8.00021 9.5 8.00021C10.3284 8.00021 11 8.67178 11 9.50021C11 10.3286 10.3284 11.0002 9.5 11.0002C8.67157 11.0002 8 10.3286 8 9.50021ZM8 15C7.44772 15 7 15.4477 7 16C7 16.5523 7.44772 17 8 17H8.01C8.56228 17 9.01 16.5523 9.01 16C9.01 15.4477 8.56228 15 8.01 15H8ZM13 17.0002C12.4477 17.0002 12 17.4479 12 18.0002C12 18.5525 12.4477 19.0002 13 19.0002H13.01C13.5623 19.0002 14.01 18.5525 14.01 18.0002C14.01 17.4479 13.5623 17.0002 13.01 17.0002H13Z" fill="black"/>
</svg>
