<svg width="24" height="24" viewBox="0 0 24 24" fill="none" xmlns="http://www.w3.org/2000/svg">
<path d="M14 18H14.01M13 14H13.01M12 22.0002C6.47715 22.0002 2 17.5231 2 12.0002C2 6.73143 6.07475 2.41432 11.2449 2.02832C11.085 2.65909 11 3.31974 11 4.00024C11 8.41851 14.5817 12.0002 19 12.0002C20.0547 12.0002 21.0617 11.7961 21.9837 11.4253C21.9945 11.6156 22 11.8073 22 12.0002C22 17.5231 17.5228 22.0002 12 22.0002ZM7.5 14V14C8.32843 14 9 13.3284 9 12.5V12.5C9 11.6716 8.32843 11 7.5 11V11C6.67157 11 6 11.6716 6 12.5V12.5C6 13.3284 6.67157 14 7.5 14Z" stroke="black" stroke-width="2" stroke-linecap="round" stroke-linejoin="round"/>
</svg>
