<svg width="24" height="24" viewBox="0 0 24 24" fill="none" xmlns="http://www.w3.org/2000/svg">
<path fill-rule="evenodd" clip-rule="evenodd" d="M12 1C5.92487 1 1 5.92487 1 12C1 18.0751 5.92487 23 12 23C18.0751 23 23 18.0751 23 12C23 11.3886 22.95 10.7882 22.8537 10.2027C22.7753 9.72551 22.3666 9.37286 21.8831 9.3651C21.3995 9.35733 20.9797 9.69666 20.886 10.1711C20.3418 12.9242 17.9122 15 15 15C11.6863 15 9 12.3137 9 9C9 6.08779 11.0758 3.6582 13.8289 3.11403C14.3033 3.02026 14.6427 2.60046 14.6349 2.11694C14.6271 1.63342 14.2745 1.22474 13.7973 1.14626C13.2118 1.04998 12.6114 1 12 1ZM3 12C3 7.98332 5.63128 4.58121 9.26415 3.42337C7.86294 4.86408 7 6.83092 7 9C7 13.4183 10.5817 17 15 17C17.1691 17 19.1359 16.1371 20.5766 14.7358C19.4188 18.3687 16.0167 21 12 21C7.02944 21 3 16.9706 3 12ZM18.205 2.14077C18.1328 1.95308 17.8672 1.95308 17.795 2.14077L16.815 4.68886C16.7927 4.74686 16.7469 4.79269 16.6889 4.815L14.1408 5.79503C13.9531 5.86722 13.9531 6.13278 14.1408 6.20497L16.6889 7.185C16.7469 7.20731 16.7927 7.25314 16.815 7.31114L17.795 9.85923C17.8672 10.0469 18.1328 10.0469 18.205 9.85923L19.185 7.31114C19.2073 7.25314 19.2531 7.20731 19.3111 7.185L21.8592 6.20497C22.0469 6.13278 22.0469 5.86722 21.8592 5.79503L19.3111 4.815C19.2531 4.79269 19.2073 4.74686 19.185 4.68886L18.205 2.14077Z" fill="black"/>
</svg>
