<svg width="24" height="24" viewBox="0 0 24 24" fill="none" xmlns="http://www.w3.org/2000/svg">
<path fill-rule="evenodd" clip-rule="evenodd" d="M12 1C5.92487 1 1 5.92487 1 12C1 18.0751 5.92487 23 12 23C15.0853 23 17.8753 21.7285 19.8717 19.6835C20.215 19.3319 20.2519 18.7829 19.9588 18.3885C19.6657 17.9941 19.1294 17.8711 18.6937 18.0983C17.5898 18.6741 16.3344 19 15 19C10.5817 19 7 15.4183 7 11C7 7.0246 9.90066 3.72475 13.7009 3.10479C14.1862 3.02562 14.542 2.60537 14.5399 2.11365C14.5378 1.62194 14.1786 1.20468 13.6927 1.12957C13.1403 1.0442 12.575 1 12 1ZM3 12C3 8.52862 4.96535 5.51626 7.84404 4.01493C6.08432 5.81719 5 8.28168 5 11C5 15.9993 8.66852 20.1417 13.4604 20.8822C12.9851 20.9597 12.4973 21 12 21C7.02944 21 3 16.9706 3 12ZM16.5769 4.05279C16.5498 3.9824 16.4502 3.9824 16.4231 4.05279L16.0556 5.00832C16.0473 5.03007 16.0301 5.04726 16.0083 5.05562L15.0528 5.42314C14.9824 5.45021 14.9824 5.54979 15.0528 5.57686L16.0083 5.94438C16.0301 5.95274 16.0473 5.96993 16.0556 5.99168L16.4231 6.94721C16.4502 7.0176 16.5498 7.0176 16.5769 6.94721L16.9444 5.99168C16.9527 5.96993 16.9699 5.95274 16.9917 5.94438L17.9472 5.57686C18.0176 5.54979 18.0176 5.45021 17.9472 5.42314L16.9917 5.05562C16.9699 5.04726 16.9527 5.03007 16.9444 5.00832L16.5769 4.05279ZM19.1537 6.10558C19.0996 5.96481 18.9004 5.96481 18.8463 6.10558L18.1112 8.01665C18.0945 8.06014 18.0601 8.09452 18.0166 8.11125L16.1056 8.84627C15.9648 8.90042 15.9648 9.09958 16.1056 9.15373L18.0166 9.88875C18.0601 9.90548 18.0945 9.93986 18.1112 9.98335L18.8463 11.8944C18.9004 12.0352 19.0996 12.0352 19.1537 11.8944L19.8888 9.98335C19.9055 9.93986 19.9399 9.90548 19.9834 9.88875L21.8944 9.15373C22.0352 9.09958 22.0352 8.90042 21.8944 8.84627L19.9834 8.11125C19.9399 8.09452 19.9055 8.06014 19.8888 8.01665L19.1537 6.10558Z" fill="black"/>
</svg>
