<svg width="24" height="24" viewBox="0 0 24 24" fill="none" xmlns="http://www.w3.org/2000/svg">
<path fill-rule="evenodd" clip-rule="evenodd" d="M12.2142 2.27405C12.2932 1.96228 12.2175 1.63153 12.0107 1.38524C11.8038 1.13894 11.4911 1.00715 11.1704 1.0311C5.48228 1.45578 1 6.2041 1 12.0002C1 18.0754 5.92487 23.0002 12 23.0002C18.0751 23.0002 23 18.0754 23 12.0002C23 11.7884 22.994 11.5778 22.9821 11.3687C22.9639 11.047 22.7918 10.7539 22.5199 10.5812C22.248 10.4084 21.9095 10.3773 21.6106 10.4975C20.8052 10.8215 19.9247 11.0002 19 11.0002C15.134 11.0002 12 7.86623 12 4.00024C12 3.40329 12.0745 2.82516 12.2142 2.27405ZM3 12.0002C3 7.70516 6.00921 4.11215 10.0338 3.2155C10.0114 3.47426 10 3.736 10 4.00024C10 8.9708 14.0294 13.0002 19 13.0002C19.6747 13.0002 20.3328 12.9258 20.9663 12.7846C20.5689 17.3879 16.7063 21.0002 12 21.0002C7.02944 21.0002 3 16.9708 3 12.0002ZM7.5 10C6.11929 10 5 11.1193 5 12.5C5 13.8807 6.11929 15 7.5 15C8.88071 15 10 13.8807 10 12.5C10 11.1193 8.88071 10 7.5 10ZM7 12.5C7 12.2239 7.22386 12 7.5 12C7.77614 12 8 12.2239 8 12.5C8 12.7761 7.77614 13 7.5 13C7.22386 13 7 12.7761 7 12.5ZM13 13C12.4477 13 12 13.4477 12 14C12 14.5523 12.4477 15 13 15H13.01C13.5623 15 14.01 14.5523 14.01 14C14.01 13.4477 13.5623 13 13.01 13H13ZM14 17C13.4477 17 13 17.4477 13 18C13 18.5523 13.4477 19 14 19H14.01C14.5623 19 15.01 18.5523 15.01 18C15.01 17.4477 14.5623 17 14.01 17H14ZM19.1537 2.10558C19.0996 1.96481 18.9004 1.96481 18.8463 2.10558L18.1112 4.01665C18.0945 4.06015 18.0601 4.09452 18.0166 4.11125L16.1056 4.84628C15.9648 4.90042 15.9648 5.09959 16.1056 5.15373L18.0166 5.88876C18.0601 5.90549 18.0945 5.93986 18.1112 5.98336L18.8463 7.89443C18.9004 8.0352 19.0996 8.0352 19.1537 7.89443L19.8888 5.98336C19.9055 5.93986 19.9399 5.90549 19.9834 5.88876L21.8944 5.15373C22.0352 5.09959 22.0352 4.90042 21.8944 4.84628L19.9834 4.11125C19.9399 4.09452 19.9055 4.06015 19.8888 4.01665L19.1537 2.10558Z" fill="black"/>
</svg>
