<svg width="24" height="24" viewBox="0 0 24 24" fill="none" xmlns="http://www.w3.org/2000/svg">
<path d="M13 18.0002H13.01M18 11.0002H18.01M8 16H8.01M12 22.0004C6.47715 22.0004 2 17.5233 2 12.0004C2 6.4776 6.47656 2.00049 11.9994 2.00049C17.5223 2.00049 22 6.4776 22 12.0004C22 17.5233 17.5228 22.0004 12 22.0004ZM9.5 12.0002V12.0002C10.8807 12.0002 12 10.8809 12 9.50021V9.50021C12 8.1195 10.8807 7.00021 9.5 7.00021V7.00021C8.11929 7.00021 7 8.1195 7 9.50021V9.50021C7 10.8809 8.11929 12.0002 9.5 12.0002Z" stroke="black" stroke-width="2" stroke-linecap="round" stroke-linejoin="round"/>
</svg>
