<svg width="24" height="24" viewBox="0 0 24 24" fill="none" xmlns="http://www.w3.org/2000/svg">
<path d="M10.0398 7.39888C8.25268 8.16123 7.00004 9.93433 7.00004 12C7.00004 14.0503 8.23412 15.8124 10 16.5839M10.0398 7.39888C10.2247 8.31234 11.032 9 12 9C12.968 9 13.7753 8.31235 13.9602 7.3989C13.9863 7.27 14 7.1366 14 7C14 5.89543 13.1046 5 12 5C10.8954 5 10 5.89543 10 7C10 7.13659 10.0137 7.26999 10.0398 7.39888ZM16.6432 13.8588C16.8734 13.2842 17 12.6571 17 12.0003C17 11.2891 16.8515 10.6126 16.5839 10M16.6432 13.8588C16.3192 13.6326 15.9251 13.5 15.5 13.5C14.3955 13.5 13.5 14.3954 13.5 15.5C13.5 15.9251 13.6326 16.3191 13.8587 16.6432C14.2202 17.1611 14.8205 17.5 15.5 17.5C16.6046 17.5 17.5 16.6047 17.5 15.5001C17.5 14.8206 17.1611 14.2202 16.6432 13.8588ZM12 12V11.99M3.65823 17.5169C2.61031 15.9356 2 14.0391 2 12C2 6.47711 6.47775 2 12.0006 2C17.5234 2 22 6.47711 22 12C22 17.5228 17.5228 22 12 22C11.3291 22 10.6737 21.9339 10.0398 21.8079M3.65823 17.5169C3.25397 17.8829 3 18.4118 3 19C3 20.1045 3.89543 21 5 21C5.58823 21 6.11715 20.746 6.48311 20.3418C6.80434 19.9869 7 19.5163 7 19C7 17.8954 6.10469 17 5.00012 17C4.48377 17 4.0131 17.1957 3.65823 17.5169Z" stroke="black" stroke-width="2" stroke-linecap="round" stroke-linejoin="round"/>
</svg>
