<svg width="24" height="24" viewBox="0 0 24 24" fill="none" xmlns="http://www.w3.org/2000/svg">
<path d="M17.5169 20.3418C15.9356 21.3897 14.0391 22 12 22C6.47715 22 2 17.5228 2 12C2 6.47711 6.47656 2 11.9994 2C17.5223 2 22 6.47711 22 12C22 12.6849 21.9311 13.3538 21.8 14M17.5169 20.3418C17.8828 20.746 18.4118 21 19 21C20.1046 21 21 20.1045 21 19C21 18.4118 20.746 17.8829 20.3418 17.5169C19.9869 17.1957 19.5162 17 18.9999 17C17.8953 17 17 17.8954 17 19C17 19.5163 17.1957 19.9869 17.5169 20.3418ZM10.1412 7.3568C10.7158 7.12663 11.3429 7 11.9997 7C14.7611 7 17 9.23855 17 12C17 14.7614 14.7614 17 12 17C9.94969 17 8.18762 15.7659 7.41606 14M10.1412 7.3568C10.3674 7.68081 10.5 8.07491 10.5 8.49998C10.5 9.60454 9.60457 10.5 8.5 10.5C8.07494 10.5 7.68085 10.3674 7.35684 10.1413C6.83887 9.77984 6.5 9.17948 6.5 8.49998C6.5 7.39542 7.39531 6.5 8.49988 6.5C9.17938 6.5 9.77977 6.83885 10.1412 7.3568ZM12 12H12.01" stroke="black" stroke-width="2" stroke-linecap="round" stroke-linejoin="round"/>
</svg>
