<svg width="24" height="24" viewBox="0 0 24 24" fill="none" xmlns="http://www.w3.org/2000/svg">
<path d="M20.3418 17.5169C21.3897 15.9356 22 14.0391 22 12C22 6.47711 17.5223 2 11.9994 2C6.47656 2 2 6.47711 2 12C2 17.5228 6.47715 22 12 22C14.0391 22 15.9356 21.3897 17.5169 20.3418M20.3418 17.5169C20.746 17.8829 21 18.4118 21 19C21 20.1045 20.1046 21 19 21C18.4118 21 17.8828 20.746 17.5169 20.3418M20.3418 17.5169C19.9869 17.1957 19.5162 17 18.9999 17C17.8953 17 17 17.8954 17 19C17 19.5163 17.1957 19.9869 17.5169 20.3418M12 17C9.23858 17 7 14.7614 7 12C7 9.23855 9.23828 7 11.9997 7C14.7611 7 17 9.23855 17 12C17 14.7614 14.7614 17 12 17Z" stroke="black" stroke-width="2" stroke-linecap="round" stroke-linejoin="round"/>
</svg>
