<svg width="24" height="24" viewBox="0 0 24 24" fill="none" xmlns="http://www.w3.org/2000/svg">
<path d="M6.48311 20.3418C8.0644 21.3897 9.96093 22 12 22C17.5228 22 22 17.5228 22 12C22 6.47711 17.5234 2 12.0006 2C6.47775 2 2 6.47711 2 12C2 14.0391 2.61031 15.9356 3.65823 17.5169M6.48311 20.3418C6.11716 20.746 5.58823 21 5 21C3.89543 21 3 20.1045 3 19C3 18.4118 3.25397 17.8829 3.65823 17.5169M6.48311 20.3418C6.80434 19.9869 7 19.5163 7 19C7 17.8954 6.10469 17 5.00012 17C4.48377 17 4.0131 17.1957 3.65823 17.5169M13.1924 16.8569C12.8103 16.9504 12.4109 17 12 17C9.23858 17 7 14.7614 7 12C7 9.93438 8.25272 8.16135 10.0398 7.39896M13.1924 16.8569C13.5133 17.5327 14.2021 18 15 18C16.1046 18 17 17.1045 17 16C17 15.4052 16.7404 14.8712 16.3283 14.5048M13.1924 16.8569C13.069 16.5972 13 16.3066 13 16C13 14.8954 13.8953 14 14.9999 14C15.5097 14 15.975 14.1908 16.3283 14.5048M16.3283 14.5048C16.7554 13.7683 17 12.9127 17 12C17 9.9342 15.7474 8.16105 13.9602 7.39877M13.9602 7.39877C13.9863 7.2699 14 7.13653 14 6.99998C14 5.89542 13.1045 5 11.9999 5C10.8953 5 10 5.89542 10 6.99998C10 7.1366 10.0137 7.27003 10.0398 7.39896M13.9602 7.39877C13.7754 8.31225 12.968 8.99996 12 8.99996C11.0321 8.99996 10.2247 8.31235 10.0398 7.39896" stroke="black" stroke-width="2" stroke-linecap="round" stroke-linejoin="round"/>
</svg>
