<svg width="24" height="24" viewBox="0 0 24 24" fill="none" xmlns="http://www.w3.org/2000/svg">
<path d="M19 2.22556C20.1687 1.87937 21.0727 1.92113 21.5757 2.4242C22.5987 3.44712 21.7145 6.12735 19.5398 9.31999C19.4873 9.39714 19.434 9.47459 19.3799 9.55232M2.22544 19C1.87935 20.1686 1.9212 21.0725 2.4243 21.5756C3.44714 22.5985 6.12701 21.7146 9.31932 19.5403M9.31932 19.5403C11.0787 18.3419 12.9937 16.7517 14.8727 14.8726C15.6006 14.1447 16.2852 13.4114 16.9204 12.6839M9.31932 19.5403C10.1574 19.8382 11.0597 20.0004 12 20.0004C16.4183 20.0004 20 16.4187 20 12.0005C20 11.7713 19.9904 11.5444 19.9715 11.3201M6 17.2921C4.75527 15.8818 4 14.0293 4 12.0005C4 7.58218 7.58125 4.00049 11.9995 4.00049C14.0285 4.00049 15.8811 4.7558 17.2915 6.00059M19.3799 9.55232C19.021 9.21011 18.5351 9 18 9C16.8954 9 16 9.89543 16 11C16 11.7069 16.3668 12.3282 16.9204 12.6839M19.3799 9.55232C19.762 9.91657 20 10.4305 20 11C20 12.1046 19.1046 13 18 13C17.6024 13 17.2318 12.884 16.9204 12.6839" stroke="black" stroke-width="2" stroke-linecap="round" stroke-linejoin="round"/>
</svg>
