<svg width="24" height="24" viewBox="0 0 24 24" fill="none" xmlns="http://www.w3.org/2000/svg">
<path d="M19.5399 9.32004C21.7146 6.12739 22.5988 3.44717 21.5758 2.42425C21.0728 1.92119 20.1687 1.87936 19 2.22545M19.5399 9.32004C18.3417 11.0792 16.7516 12.9939 14.8728 14.8727C12.9938 16.7517 11.0788 18.342 9.31941 19.5403M19.5399 9.32004C18.7355 7.05773 16.9417 5.26433 14.6792 4.4603M9.31941 19.5403C6.1271 21.7146 3.44722 22.5985 2.42439 21.5757C1.92132 21.0726 1.87933 20.1688 2.22524 19.0002M9.31941 19.5403C7.0571 18.7359 5.26356 16.9424 4.4596 14.6799C4.16196 13.8423 4.00008 12.9402 4.00008 12.0005C4.00008 7.58222 7.58133 4.00053 11.9996 4.00053C12.9394 4.00053 13.8414 4.1626 14.6792 4.4603M14.6792 4.4603L14.6801 4.45967M15 19.419C17.0057 18.6072 18.6073 17.0057 19.419 15" stroke="black" stroke-width="2" stroke-linecap="round" stroke-linejoin="round"/>
</svg>
