<svg width="24" height="24" viewBox="0 0 24 24" fill="none" xmlns="http://www.w3.org/2000/svg">
<path fill-rule="evenodd" clip-rule="evenodd" d="M19.2834 3.18423C20.4068 2.85157 20.7907 3.05385 20.8682 3.13129C20.9043 3.16742 20.9796 3.26816 20.9964 3.54475C21.0136 3.82975 20.9621 4.23483 20.7999 4.76675C20.5841 5.47443 20.1995 6.32012 19.6541 7.26495C18.5947 5.55583 16.9792 4.22844 15.0593 3.53438C15.0302 3.52249 15.0007 3.51198 14.9707 3.50288C14.0391 3.17714 13.0386 3.00047 11.9991 3.00047C7.02842 3.00047 2.99953 7.02994 2.99953 12.0004C2.99953 13.0557 3.18142 14.071 3.51677 15.0147C4.20614 16.9547 5.54106 18.5873 7.26371 19.655C6.31912 20.2002 5.47365 20.5846 4.76615 20.8003C4.2343 20.9625 3.82929 21.014 3.54433 20.9967C3.26779 20.9799 3.16707 20.9047 3.13094 20.8685C3.05338 20.791 2.85112 20.407 3.18355 19.284C3.34031 18.7544 3.03809 18.198 2.50852 18.0413C1.97895 17.8845 1.42257 18.1867 1.26581 18.7163C0.906425 19.9304 0.788159 21.3542 1.71672 22.2827C2.19201 22.758 2.80984 22.9558 3.42321 22.993C4.02816 23.0297 4.68441 22.9162 5.34943 22.7134C6.68057 22.3076 8.24286 21.483 9.88179 20.3667C11.699 19.129 13.6617 17.4973 15.5794 15.5797C17.4967 13.6624 19.1282 11.6999 20.3659 9.88294C21.4823 8.24383 22.307 6.68138 22.713 5.3501C22.9158 4.68502 23.0294 4.02871 22.9927 3.42371C22.9555 2.81029 22.7577 2.1924 22.2824 1.71707C21.3537 0.788391 19.9296 0.907029 18.7155 1.26654C18.186 1.42336 17.8838 1.97977 18.0406 2.50932C18.1974 3.03888 18.7538 3.34104 19.2834 3.18423ZM14.3438 5.40251C16.165 6.04969 17.6404 7.43114 18.4124 9.18943C17.2916 10.772 15.8507 12.48 14.1652 14.1655C12.4794 15.8513 10.7711 17.2924 9.18833 18.4133C7.42994 17.6413 6.04842 16.1661 5.40133 14.345C5.1414 13.6135 4.99953 12.8246 4.99953 12.0004C4.99953 8.13437 8.13313 5.00047 11.9991 5.00047C12.8232 5.00047 13.612 5.14247 14.3438 5.40251ZM20.3454 15.3751C20.5526 14.8631 20.3056 14.2801 19.7936 14.0729C19.2817 13.8658 18.6987 14.1128 18.4915 14.6247C17.7814 16.3793 16.3789 17.7818 14.6243 18.492C14.1123 18.6992 13.8653 19.2822 14.0725 19.7941C14.2797 20.3061 14.8627 20.5531 15.3746 20.3459C17.6313 19.4325 19.4321 17.6319 20.3454 15.3751ZM10.1532 7.10551C10.099 6.96474 9.89986 6.96474 9.84572 7.10551L9.11069 9.01658C9.09396 9.06008 9.05959 9.09445 9.01609 9.11118L7.10502 9.84621C6.96425 9.90035 6.96425 10.0995 7.10502 10.1537L9.01609 10.8887C9.05959 10.9054 9.09396 10.9398 9.11069 10.9833L9.84572 12.8944C9.89986 13.0351 10.099 13.0351 10.1532 12.8944L10.8882 10.9833C10.9049 10.9398 10.9393 10.9054 10.9828 10.8887L12.8939 10.1537C13.0346 10.0995 13.0346 9.90035 12.8939 9.84621L10.9828 9.11118C10.9393 9.09445 10.9049 9.06008 10.8882 9.01658L10.1532 7.10551Z" fill="black"/>
</svg>
