<svg width="24" height="24" viewBox="0 0 24 24" fill="none" xmlns="http://www.w3.org/2000/svg">
<path fill-rule="evenodd" clip-rule="evenodd" d="M22.2823 1.71703C21.3536 0.78829 19.9294 0.907054 18.7154 1.26668C18.1859 1.42355 17.8838 1.97999 18.0406 2.50953C18.1975 3.03906 18.7539 3.34118 19.2835 3.18431C20.4068 2.85155 20.7907 3.05383 20.8681 3.13124C20.9042 3.16738 20.9795 3.26812 20.9963 3.5447C21.0136 3.82971 20.962 4.23479 20.7998 4.76671C20.4758 5.82943 19.771 7.20342 18.7128 8.75696C17.554 10.4582 16.0053 12.3253 14.1651 14.1655C12.3246 16.0059 10.4573 17.5548 8.75583 18.7137C7.20245 19.7717 5.82865 20.4763 4.76607 20.8003C4.23422 20.9625 3.82921 21.014 3.54425 20.9967C3.26771 20.9799 3.16699 20.9046 3.13085 20.8685C3.05335 20.791 2.85109 20.4071 3.18372 19.2839C3.34055 18.7544 3.03841 18.1979 2.50886 18.0411C1.97931 17.8843 1.42289 18.1864 1.26605 18.716C0.906501 19.93 0.787941 21.354 1.71664 22.2827C2.19193 22.758 2.80975 22.9558 3.42312 22.993C4.02807 23.0297 4.68433 22.9161 5.34934 22.7134C6.5692 22.3414 7.98317 21.6179 9.47235 20.6405C10.2751 20.8749 11.1233 21.0004 11.9994 21.0004C16.97 21.0004 20.9994 16.9709 20.9994 12.0004C20.9994 11.1244 20.874 10.2762 20.6396 9.47353C21.6172 7.98418 22.3408 6.57005 22.7129 5.35006C22.9157 4.68498 23.0293 4.02866 22.9926 3.42366C22.9554 2.81024 22.7576 2.19236 22.2823 1.71703ZM11.9994 19.0004C11.9151 19.0004 11.8312 18.9989 11.7476 18.9959C13.0074 18.005 14.3033 16.8556 15.5793 15.5797C16.855 14.3039 18.0042 13.0082 18.995 11.7487C18.998 11.8322 18.9994 11.9161 18.9994 12.0004C18.9994 15.8664 15.8654 19.0004 11.9994 19.0004ZM11.999 3.00042C7.02834 3.00042 2.99945 7.0299 2.99945 12.0004C2.99945 14.2822 3.84992 16.3678 5.24971 17.9538C5.61517 18.3678 6.24711 18.4072 6.66118 18.0418C7.07525 17.6763 7.11465 17.0444 6.74918 16.6303C5.65951 15.3957 4.99945 13.7764 4.99945 12.0004C4.99945 8.13432 8.13305 5.00042 11.999 5.00042C13.775 5.00042 15.3945 5.66053 16.6292 6.75027C17.0433 7.11573 17.6753 7.07632 18.0407 6.66224C18.4062 6.24816 18.3668 5.61623 17.9527 5.25077C16.3666 3.85094 14.2809 3.00042 11.999 3.00042ZM10.1532 7.10551C10.099 6.96474 9.89986 6.96474 9.84572 7.10551L9.11069 9.01658C9.09396 9.06008 9.05959 9.09445 9.01609 9.11118L7.10502 9.84621C6.96425 9.90035 6.96425 10.0995 7.10503 10.1537L9.01609 10.8887C9.05959 10.9054 9.09396 10.9398 9.11069 10.9833L9.84572 12.8944C9.89986 13.0351 10.099 13.0351 10.1532 12.8944L10.8882 10.9833C10.9049 10.9398 10.9393 10.9054 10.9828 10.8887L12.8939 10.1537C13.0346 10.0995 13.0346 9.90035 12.8939 9.84621L10.9828 9.11118C10.9393 9.09445 10.9049 9.06008 10.8882 9.01658L10.1532 7.10551Z" fill="black"/>
</svg>
