<svg width="24" height="24" viewBox="0 0 24 24" fill="none" xmlns="http://www.w3.org/2000/svg">
<path d="M19.5399 9.32004C21.7146 6.12739 22.5988 3.44717 21.5758 2.42425C21.0728 1.92119 20.1687 1.87936 19 2.22545M19.5399 9.32004C18.7355 7.05773 16.9417 5.26433 14.6792 4.4603M19.5399 9.32004C19.4874 9.39719 19.4341 9.47465 19.38 9.55238M9.31941 19.5403C11.0788 18.342 12.9938 16.7517 14.8728 14.8727C15.6007 14.1448 16.2853 13.4115 16.9205 12.6839M9.31941 19.5403C6.1271 21.7146 3.44722 22.5985 2.42439 21.5757C1.92132 21.0726 1.87933 20.1688 2.22524 19.0002M9.31941 19.5403C7.0571 18.7359 5.26356 16.9424 4.4596 14.6799C4.16196 13.8423 4.00008 12.9402 4.00008 12.0005C4.00008 7.58222 7.58133 4.00053 11.9996 4.00053C12.9394 4.00053 13.8414 4.1626 14.6792 4.4603M14.6792 4.4603L14.6801 4.45967M15 19.419C16.475 18.822 17.7315 17.7979 18.616 16.5M19.38 9.55238C19.762 9.91663 20 10.4305 20 11C20 12.1046 19.1046 13 18 13C17.6024 13 17.2319 12.884 16.9205 12.6839M19.38 9.55238C19.0211 9.21013 18.5351 9 18 9C16.8954 9 16 9.89543 16 11C16 11.707 16.3668 12.3283 16.9205 12.6839" stroke="black" stroke-width="2" stroke-linecap="round" stroke-linejoin="round"/>
</svg>
