<svg width="24" height="24" viewBox="0 0 24 24" fill="none" xmlns="http://www.w3.org/2000/svg">
<path d="M4.45955 14.6798C2.28485 17.8725 1.40148 20.5528 2.4244 21.5757C3.44724 22.5986 6.12711 21.7146 9.31942 19.5403C11.0788 18.342 12.9938 16.7517 14.8728 14.8727C16.7516 12.9939 18.3417 11.0792 19.5399 9.32006C21.7146 6.12741 22.5988 3.44719 21.5758 2.42427C20.553 1.40143 17.8724 2.28524 14.6801 4.45956M8.12797 15.1639C7.42296 14.3021 7 13.2006 7 12.0002C7 10.7999 7.42295 9.69828 8.12797 8.83643M12 20.0004C16.4183 20.0004 20 16.4187 20 12.0005C20 7.58218 16.4178 4.00049 11.9995 4.00049C7.58125 4.00049 4 7.58218 4 12.0005C4 16.4187 7.58172 20.0004 12 20.0004Z" stroke="black" stroke-width="2" stroke-linecap="round" stroke-linejoin="round"/>
</svg>
