<svg width="24" height="24" viewBox="0 0 24 24" fill="none" xmlns="http://www.w3.org/2000/svg">
<path fill-rule="evenodd" clip-rule="evenodd" d="M19.6548 7.26496C18.9205 6.08063 17.919 5.07932 16.7345 4.34521C17.6795 3.79985 18.5253 3.41527 19.2331 3.19952C19.765 3.03738 20.1702 2.98587 20.4552 3.00317C20.7319 3.01996 20.8326 3.09527 20.8687 3.13137C20.9049 3.16751 20.9802 3.26824 20.9969 3.54483C21.0142 3.82984 20.9627 4.23492 20.8005 4.76684C20.5847 5.47449 20.2001 6.32016 19.6548 7.26496ZM22.7135 5.35019C22.3415 6.57012 21.6179 7.98418 20.6404 9.47346C20.8745 10.2751 21 11.1231 21 12.0004C21 16.971 16.9706 21.0004 12 21.0004C11.1226 21.0004 10.2745 20.8749 9.47274 20.6408C7.98365 21.6181 6.56978 22.3416 5.34999 22.7135C4.68498 22.9162 4.02872 23.0298 3.42377 22.9931C2.8104 22.9559 2.19257 22.7581 1.71729 22.2828C1.24202 21.8075 1.04416 21.1897 1.00687 20.5763C0.970089 19.9713 1.08359 19.315 1.2863 18.6499C1.65813 17.4298 2.38162 16.0156 3.35925 14.5262C3.1254 13.7249 2.99999 12.8773 2.99999 12.0004C2.99999 7.02996 7.02889 3.00048 11.9995 3.00048C12.8765 3.00048 13.7242 3.12592 14.5257 3.35982C16.0152 2.38207 17.4297 1.65839 18.6499 1.28643C19.315 1.08369 19.9714 0.970129 20.5764 1.00684C21.1897 1.04407 21.8076 1.24185 22.283 1.71716C22.7583 2.19249 22.9561 2.81037 22.9933 3.42379C23.0299 4.02879 22.9163 4.68511 22.7135 5.35019ZM11.9995 5.00048C14.8659 5.00048 17.3301 6.72328 18.4128 9.18982C17.292 10.7723 15.8511 12.4802 14.1657 14.1656C12.48 15.8513 10.7718 17.2923 9.18915 18.4132C6.72267 17.3306 4.99999 14.8667 4.99999 12.0004C4.99999 8.13439 8.1336 5.00048 11.9995 5.00048ZM15.5799 15.5798C14.304 16.8557 13.0081 18.0051 11.7484 18.996C11.8319 18.999 11.9158 19.0004 12 19.0004C15.866 19.0004 19 15.8664 19 12.0004C19 11.9163 18.9985 11.8324 18.9956 11.749C18.0048 13.0085 16.8556 14.3041 15.5799 15.5798ZM4.34464 16.7352C5.0787 17.9195 6.07994 18.9209 7.26418 19.6551C6.31963 20.2003 5.47419 20.5847 4.76672 20.8004C4.23487 20.9626 3.82985 21.0141 3.5449 20.9968C3.26836 20.98 3.16763 20.9047 3.1315 20.8686C3.09531 20.8324 3.02 20.7316 3.00318 20.455C2.98585 20.1699 3.03731 19.7649 3.19942 19.2329C3.41506 18.5254 3.79946 17.6798 4.34464 16.7352ZM10.1537 7.10557C10.0996 6.9648 9.90041 6.9648 9.84627 7.10557L9.11124 9.01664C9.09451 9.06014 9.06014 9.09451 9.01664 9.11124L7.10557 9.84627C6.9648 9.90041 6.9648 10.0996 7.10557 10.1537L9.01664 10.8887C9.06014 10.9055 9.09451 10.9399 9.11124 10.9833L9.84627 12.8944C9.90041 13.0352 10.0996 13.0352 10.1537 12.8944L10.8887 10.9833C10.9055 10.9399 10.9399 10.9055 10.9833 10.8887L12.8944 10.1537C13.0352 10.0996 13.0352 9.90041 12.8944 9.84627L10.9833 9.11124C10.9399 9.09451 10.9055 9.06014 10.8887 9.01664L10.1537 7.10557Z" fill="black"/>
</svg>
