<svg width="24" height="24" viewBox="0 0 24 24" fill="none" xmlns="http://www.w3.org/2000/svg">
<path d="M19 2.22556C20.1687 1.87937 21.0727 1.92113 21.5757 2.4242C22.5987 3.44712 21.7145 6.12735 19.5398 9.31999M2.22544 19C1.87935 20.1686 1.9212 21.0725 2.4243 21.5756C3.44714 22.5985 6.12701 21.7146 9.31932 19.5403M19.5398 9.31999C18.3416 11.0791 16.7515 12.9939 14.8727 14.8726C12.9937 16.7517 11.0787 18.3419 9.31932 19.5403M19.5398 9.31999C19.8378 10.158 20 11.0603 20 12.0005C20 16.4187 16.4183 20.0004 12 20.0004C11.0597 20.0004 10.1574 19.8382 9.31932 19.5403M6 17.2921C4.75527 15.8818 4 14.0293 4 12.0005C4 7.58218 7.58125 4.00049 11.9995 4.00049C14.0285 4.00049 15.8811 4.7558 17.2915 6.00059M8.12797 15.1641C7.42296 14.3023 7 13.2008 7 12.0005C7 10.8001 7.42295 9.6985 8.12797 8.83665" stroke="black" stroke-width="2" stroke-linecap="round" stroke-linejoin="round"/>
</svg>
