<svg width="24" height="24" viewBox="0 0 24 24" fill="none" xmlns="http://www.w3.org/2000/svg">
<path d="M4.45955 14.6798C2.28485 17.8725 1.40148 20.5528 2.4244 21.5757C3.44724 22.5986 6.12711 21.7146 9.31942 19.5403C11.0788 18.342 12.9938 16.7517 14.8728 14.8727C15.6007 14.1448 16.2853 13.4115 16.9205 12.684M14.6801 4.45956C17.8724 2.28524 20.553 1.40143 21.5758 2.42427C22.5988 3.44719 21.7146 6.12741 19.5399 9.32006C19.4874 9.39721 19.4341 9.47467 19.38 9.5524M19.38 9.5524C19.0211 9.21014 18.5351 9 18 9C16.8954 9 16 9.89543 16 11C16 11.707 16.3668 12.3283 16.9205 12.684M19.38 9.5524C19.762 9.91665 20 10.4305 20 11C20 11.1133 19.9906 11.2243 19.9725 11.3324M16.9205 12.684C17.2319 12.884 17.6024 13 18 13C18.9913 13 19.8142 12.2788 19.9725 11.3324M19.9725 11.3324C19.9907 11.5527 20 11.7755 20 12.0005C20 16.4187 16.4183 20.0004 12 20.0004C7.58172 20.0004 4 16.4187 4 12.0005C4 7.58218 7.58125 4.00049 11.9995 4.00049C15.4924 4.00049 18.4628 6.23899 19.5538 9.35967" stroke="black" stroke-width="2" stroke-linecap="round" stroke-linejoin="round"/>
</svg>
