<svg width="24" height="24" viewBox="0 0 24 24" fill="none" xmlns="http://www.w3.org/2000/svg">
<path d="M14 12C14 13.1046 13.1046 14 12 14C10.8954 14 10 13.1046 10 12C10 10.8954 10.8954 10 12 10C12.5523 10 13.0523 10.2239 13.4142 10.5858M14 12H12L13.4142 10.5858M14 12H18M13.4142 10.5858L16.2426 7.75736M18 12C18 15.3137 15.3137 18 12 18C8.68629 18 6 15.3137 6 12C6 8.68629 8.68629 6 12 6C13.6569 6 15.1569 6.67157 16.2426 7.75736M18 12L22 12C22 17.5228 17.5228 22 12 22C6.47715 22 2 17.5228 2 12C2 6.47711 6.47656 2 11.9994 2C14.7609 2 17.2611 3.11934 19.0709 4.92907M16.2426 7.75736L19.0709 4.92907M19.0709 4.92907L22 2" stroke="black" stroke-width="2" stroke-linecap="round" stroke-linejoin="round"/>
</svg>
