<svg width="24" height="24" viewBox="0 0 24 24" fill="none" xmlns="http://www.w3.org/2000/svg">
<path d="M20 12C20 16.4182 16.4183 20 12 20C7.58172 20 4 16.4182 4 12C4 7.58169 7.58125 4 11.9995 4M20 12C20 7.58185 16.4176 4.00026 11.9995 4M20 12L17 12M20 12L22 12M11.9995 4L12 7M11.9995 4L12 2M17 12C17 14.7614 14.7614 17 12 17C9.23858 17 7 14.7614 7 12C7 9.23858 9.23858 7 12 7M17 12H14M12 7V10M14 12C14 13.1046 13.1046 14 12 14C10.8954 14 10 13.1046 10 12C10 10.8954 10.8954 10 12 10M14 12H12V10M15 8H15.01M21 5H21.01" stroke="black" stroke-width="2" stroke-linecap="round" stroke-linejoin="round"/>
</svg>
