<svg width="24" height="24" viewBox="0 0 24 24" fill="none" xmlns="http://www.w3.org/2000/svg">
<path d="M11.9994 2C6.47656 2 2 6.47711 2 12C2 17.5228 6.47715 22 12 22C17.5228 22 22 17.5228 22 12M14 12C14 13.1046 13.1046 14 12 14C10.8954 14 10 13.1046 10 12C10 10.8954 10.8954 10 12 10C12.5524 10 13.0526 10.224 13.4145 10.5861M14 12H12.0006L13.4145 10.5861M14 12H18M13.4145 10.5861L16.2429 7.75766M18 12C18 15.3137 15.3137 18 12 18C8.68629 18 6 15.3137 6 12C6 8.68629 8.68629 6 12 6C13.657 6 15.1571 6.6717 16.2429 7.75766M18 12L22 12M16.2429 7.75766L19.0715 4.92907M12.0006 2C14.7621 2 17.262 3.11934 19.0715 4.92907M19.0715 4.92907C20.8809 6.73869 22 9.23862 22 12M19.0715 4.92907L22 2.00059" stroke="black" stroke-width="2" stroke-linecap="round" stroke-linejoin="round"/>
</svg>
