<svg width="24" height="24" viewBox="0 0 24 24" fill="none" xmlns="http://www.w3.org/2000/svg">
<path d="M10.2993 12.6501L11.3506 13.7014M10.2993 12.6501L10.1252 12.476C9.60205 11.9528 8.8093 11.8091 8.13581 12.1152L6.97008 12.6451C6.40604 12.9015 6.2717 13.6423 6.70981 14.0804L9.91873 17.2893C10.3568 17.7274 11.0977 17.5931 11.3541 17.029L11.8839 15.8633C12.1901 15.1898 12.0463 14.3971 11.5232 13.874L11.3506 13.7014M10.2993 12.6501C9.48906 11.8398 9.27322 10.5917 9.88218 9.62105C12.2759 5.80555 15.9237 2.89589 19.6897 3.00286C20.4058 3.0232 20.9771 3.5944 20.9974 4.31059C21.1044 8.07653 18.1951 11.7247 14.3797 14.1185C13.409 14.7275 12.1609 14.5116 11.3506 13.7014M8.7848 11.1356L5.78703 9.91429C5.19929 9.67484 5.0468 8.91433 5.51975 8.49114C8.14867 6.13885 11.211 4.49666 13.9615 5.01774M12.8634 15.2142L14.0847 18.2119C14.3242 18.7996 15.0847 18.9521 15.5079 18.4792C17.8602 15.8503 19.5024 12.7879 18.9813 10.0375M15.844 6.8241C16.5791 6.8241 17.1751 7.42004 17.1751 8.15517M6.41421 17.4142L6.58579 17.5858C7.36684 18.3668 7.42101 19.7204 6.45927 20.2637C5.85684 20.604 5.08905 20.8616 3.99946 20.9583C3.44934 21.0071 2.99285 20.5507 3.04169 20.0005C3.13841 18.911 3.39603 18.1432 3.73632 17.5407C4.27958 16.579 5.63317 16.6332 6.41421 17.4142Z" stroke="black" stroke-width="2" stroke-linecap="round" stroke-linejoin="round"/>
</svg>
