<svg width="24" height="24" viewBox="0 0 24 24" fill="none" xmlns="http://www.w3.org/2000/svg">
<path d="M10.4086 12.5483L11.4488 13.5885M10.4086 12.5483L10.2363 12.376C9.7187 11.8584 8.93432 11.7162 8.26793 12.0191L7.1145 12.5433C6.5564 12.797 6.42348 13.53 6.85697 13.9635L10.032 17.1386C10.4655 17.572 11.1985 17.4391 11.4522 16.881L11.9765 15.7276C12.2794 15.0612 12.1372 14.2768 11.6196 13.7592L11.4488 13.5885M10.4086 12.5483C9.6069 11.7466 9.39334 10.5116 9.99588 9.5512C12.3643 5.77595 15.9737 2.89699 19.6999 3.00283C20.4085 3.02295 20.9737 3.58813 20.9939 4.29676C21.0998 8.02298 18.2211 11.6327 14.4459 14.0012C13.4855 14.6037 12.2505 14.3902 11.4488 13.5885M13.1011 15.2408L14.6533 16.7929C15.3391 17.4787 16.4509 17.4787 17.1367 16.7929L18.391 15.5386C19.1656 14.7641 19.5344 13.6724 19.3883 12.5868L19.0409 10.0051M8.75486 10.8946L7.20271 9.34243C6.51693 8.65665 6.51693 7.54479 7.20271 6.85902L8.45665 5.60509C9.23144 4.83031 10.3234 4.46152 11.4093 4.60792L13.9918 4.95607M14.9634 9.032C14.4491 8.51767 14.4491 7.68377 14.9634 7.16944C15.4778 6.65511 16.3117 6.65511 16.826 7.16944C17.3404 7.68377 17.3404 8.51767 16.826 9.032C16.3117 9.54633 15.4778 9.54633 14.9634 9.032ZM6.41421 17.4142L6.58579 17.5858C7.36684 18.3668 7.42101 19.7204 6.45927 20.2637C5.76878 20.6537 4.86107 20.9351 3.50058 20.9902C3.22466 21.0013 2.99867 20.7753 3.00983 20.4994C3.06486 19.1389 3.34629 18.2312 3.73632 17.5407C4.27958 16.579 5.63317 16.6332 6.41421 17.4142Z" stroke="black" stroke-width="2" stroke-linecap="round" stroke-linejoin="round"/>
</svg>
