<svg width="24" height="24" viewBox="0 0 24 24" fill="none" xmlns="http://www.w3.org/2000/svg">
<path d="M15.5004 18H18.0004C19.105 18 20.0004 17.1046 20.0004 16V13.9797C20.0004 12.7321 19.4183 11.556 18.4264 10.7993L16.0674 9M8.5 18H6C4.89543 18 4 17.1046 4 16V13.9803C4 12.7324 4.58243 11.556 5.57483 10.7993L7.93495 9M12 11.5V11.5C12.8284 11.5 13.5 10.8284 13.5 10V10C13.5 9.17157 12.8284 8.5 12 8.5V8.5C11.1716 8.5 10.5 9.17157 10.5 10V10C10.5 10.8284 11.1716 11.5 12 11.5ZM9.44312 22H14.5571C15.2553 22 15.7386 21.3026 15.4935 20.6489L14.9868 19.2978C14.6941 18.5171 13.9478 18 13.1141 18H10.8861C10.0524 18 9.30619 18.5171 9.01346 19.2978L8.50679 20.6489C8.26164 21.3026 8.74492 22 9.44312 22ZM12.8391 18H11.1637C9.87236 18 8.7058 17.1774 8.41757 15.9187C7.2846 10.9709 7.87281 5.74561 10.9589 2.83C11.5458 2.27552 12.4561 2.27553 13.043 2.82999C16.1292 5.74559 16.718 10.9709 15.5851 15.9187C15.2969 17.1774 14.1304 18 12.8391 18Z" stroke="black" stroke-width="2" stroke-linecap="round" stroke-linejoin="round"/>
</svg>
