<svg width="24" height="24" viewBox="0 0 24 24" fill="none" xmlns="http://www.w3.org/2000/svg">
<path d="M9.55151 13.695L10.3027 14.4462M9.55151 13.695L9.42708 13.5706C9.05328 13.1968 8.48683 13.0941 8.00558 13.3129L7.17262 13.6915C6.76958 13.8747 6.67359 14.404 6.98664 14.717L9.27957 17.0099C9.59262 17.3229 10.122 17.2269 10.3052 16.8239L10.6838 15.991C10.9025 15.5097 10.7998 14.9433 10.426 14.5695L10.3027 14.4462M9.55151 13.695C8.97254 13.1161 8.81832 12.2243 9.25345 11.5307C10.9639 8.80444 13.5704 6.72542 16.2614 6.80185C16.7731 6.81638 17.1813 7.22452 17.1958 7.73625C17.2723 10.4271 15.1934 13.0338 12.4671 14.7442C11.7735 15.1794 10.8817 15.0251 10.3027 14.4462M11.496 15.6394L12.6169 16.7603C13.1121 17.2555 13.9151 17.2555 14.4103 16.7603L15.3161 15.8545C15.8755 15.2951 16.1419 14.5068 16.0364 13.7229L15.7855 11.8585M8.35723 12.5008L7.23632 11.3799C6.74107 10.8847 6.74107 10.0818 7.23632 9.58657L8.14187 8.68105C8.7014 8.12155 9.49 7.85523 10.2742 7.96095L12.1391 8.21237M13.49 10.5H13.5M12 22C6.47715 22 2 17.5228 2 12C2 6.47711 6.47656 2 11.9994 2C17.5223 2 22 6.47711 22 12C22 17.5228 17.5228 22 12 22Z" stroke="black" stroke-width="2" stroke-linecap="round" stroke-linejoin="round"/>
</svg>
