<svg width="24" height="24" viewBox="0 0 24 24" fill="none" xmlns="http://www.w3.org/2000/svg">
<path d="M8.75 18L5.38806 19.4156C4.72892 19.6931 4.00139 19.2086 4.04104 18.4945C4.26146 14.5252 5.39311 10.7764 8 9M15.25 18L18.6119 19.4156C19.2711 19.6931 19.9986 19.2086 19.959 18.4945C19.7385 14.5252 18.6069 10.7764 16 9M10.9395 8.93934C11.5252 8.35355 12.475 8.35355 13.0608 8.93934M9.44312 22H14.5571C15.2553 22 15.7386 21.3026 15.4935 20.6489L14.9868 19.2978C14.6941 18.5171 13.9478 18 13.1141 18H10.8861C10.0524 18 9.30619 18.5171 9.01346 19.2978L8.50679 20.6489C8.26164 21.3026 8.74492 22 9.44312 22ZM12.8391 18H11.1637C9.87236 18 8.7058 17.1774 8.41757 15.9187C7.2846 10.9709 7.87281 5.74561 10.9589 2.83C11.5458 2.27552 12.4561 2.27553 13.043 2.82999C16.1292 5.74559 16.718 10.9709 15.5851 15.9187C15.2969 17.1774 14.1304 18 12.8391 18Z" stroke="black" stroke-width="2" stroke-linecap="round" stroke-linejoin="round"/>
</svg>
