<svg width="24" height="24" viewBox="0 0 24 24" fill="none" xmlns="http://www.w3.org/2000/svg">
<path d="M16 17H18.5103C19.3331 17 20 16.3331 20 15.5103V15.5103C20 14.5374 19.643 13.5983 18.9966 12.8712L16 9.5M8 17H5.48967C4.66695 17 4 16.3331 4 15.5103V15.5103C4 14.5374 4.35704 13.5983 5.00341 12.8712L8 9.5M12 14V15.5M11.5 7H12.5M6 20V22M18 20V22M8.5 6.50294V17.5C8.5 18.6046 9.39543 19.5 10.5 19.5H13.5C14.6046 19.5 15.5 18.6046 15.5 17.5V6.50294C15.5 5.53405 15.1483 4.59809 14.5103 3.86892L13.8814 3.15022C12.8854 2.0119 11.1146 2.0119 10.1186 3.15022L9.48969 3.86892C8.85167 4.59809 8.5 5.53405 8.5 6.50294Z" stroke="black" stroke-width="2" stroke-linecap="round" stroke-linejoin="round"/>
</svg>
