<svg width="24" height="24" viewBox="0 0 24 24" fill="none" xmlns="http://www.w3.org/2000/svg">
<path d="M16.5 14.4742L19.8284 17.8013C20.1777 18.1505 20.4558 18.5576 20.6532 19M7.5 14.4742L4.17157 17.8013C3.82226 18.1505 3.54423 18.5576 3.34683 19M12 18.972V19.9716M11.4375 11.7554H12.5625M8.14512 20.924C8.05091 20.633 8 20.3224 8 20V11.4124C8 10.352 8.42143 9.33496 9.17157 8.58513L9.87868 7.87831C10.4645 7.29277 11.2322 7 12 7C12.7678 7 13.5355 7.29277 14.1213 7.87832L14.8284 8.58513C15.5786 9.33497 16 10.352 16 11.4124V20C16 20.3224 15.9491 20.633 15.8549 20.924M6 21H18C19.6569 21 21 19.6569 21 18V6C21 4.34315 19.6569 3 18 3H6C4.34315 3 3 4.34315 3 6V18C3 19.6569 4.34315 21 6 21Z" stroke="black" stroke-width="2" stroke-linecap="round" stroke-linejoin="round"/>
</svg>
