<svg width="24" height="24" viewBox="0 0 24 24" fill="none" xmlns="http://www.w3.org/2000/svg">
<path d="M11.8434 21.9988C11.8955 21.9996 11.9477 22 12 22C12.0523 22 12.1045 21.9996 12.1566 21.9988M11.8434 21.9988C11.2818 21.9901 10.7315 21.9352 10.196 21.8377M11.8434 21.9988H12.1566M10.196 21.8377C8.75585 21.5753 7.42329 21.0044 6.26931 20.1961M10.196 21.8377C9.174 21.4645 8.44444 20.484 8.44444 19.3332V9.92209C8.44444 8.97949 8.81905 8.07551 9.48584 7.40899L10.1144 6.78072C10.6351 6.26024 11.3175 6 12 6C12.6825 6 13.3649 6.26024 13.8856 6.78072L14.5142 7.40899C15.181 8.07551 15.5556 8.97949 15.5556 9.92209V19.3332C15.5556 20.484 14.826 21.4645 13.804 21.8377M6.26931 20.1961C5.40274 19.589 4.63686 18.8481 4.00173 18.0032M6.26931 20.1961H8M4.00173 18.0032C2.74486 16.3314 2 14.2526 2 12C2 6.47711 6.47656 2 11.9994 2C17.5223 2 22 6.47711 22 12C22 14.2526 21.2551 16.3314 19.9983 18.0032M4.00173 18.0032C4.02989 17.1009 4.4008 16.2414 5.0414 15.6011L8 12.6437M19.9983 18.0032C19.3631 18.8481 18.5973 19.589 17.7307 20.1961M19.9983 18.0032C19.9701 17.1009 19.5992 16.2414 18.9586 15.6011L16 12.6437M17.7307 20.1961C16.5767 21.0044 15.2442 21.5753 13.804 21.8377M17.7307 20.1961H16M13.804 21.8377C13.2685 21.9352 12.7182 21.9901 12.1566 21.9988M12 17.5305V18.4191M11.5 10.227H12.5" stroke="black" stroke-width="2" stroke-linecap="round" stroke-linejoin="round"/>
</svg>
