<svg width="24" height="24" viewBox="0 0 24 24" fill="none" xmlns="http://www.w3.org/2000/svg">
<path d="M16.5 19H19.5C20.3284 19 21 18.3284 21 17.5V16.6569C21 15.596 20.5786 14.5786 19.8284 13.8284L16.5 10.5M7.5 19H4.5C3.67157 19 3 18.3284 3 17.5V16.6569C3 15.596 3.42143 14.5786 4.17157 13.8284L7.5 10.5M12 16V17M11 8H13M8 7.65686V18C8 19.6569 9.34315 21 11 21H13C14.6569 21 16 19.6569 16 18V7.65685C16 6.59599 15.5786 5.57857 14.8284 4.82843L14.1213 4.12132C12.9497 2.94975 11.0503 2.94975 9.87868 4.12132L9.17157 4.82843C8.42143 5.57857 8 6.59599 8 7.65686Z" stroke="black" stroke-width="2" stroke-linecap="round" stroke-linejoin="round"/>
</svg>
