<svg width="24" height="24" viewBox="0 0 24 24" fill="none" xmlns="http://www.w3.org/2000/svg">
<path d="M16 15H18.75C19.4404 15 20 14.4404 20 13.75V13.1085C20 12.4189 19.6448 11.778 19.06 11.4125L16 9.5M8 15H5.25C4.55964 15 4 14.4404 4 13.75V13.1085C4 12.4189 4.35524 11.778 4.94 11.4125L8 9.5M12 12V13.5M11.5 7H12.5M5 18V19M19 18V19M16 19V20.5M8 19V20.5M12 20.5V22M8.5 6.50294V15C8.5 16.1046 9.39543 17 10.5 17H13.5C14.6046 17 15.5 16.1046 15.5 15V6.50294C15.5 5.53405 15.1483 4.59809 14.5103 3.86892L13.8814 3.15022C12.8854 2.0119 11.1146 2.0119 10.1186 3.15022L9.48969 3.86892C8.85167 4.59809 8.5 5.53405 8.5 6.50294Z" stroke="black" stroke-width="2" stroke-linecap="round" stroke-linejoin="round"/>
</svg>
