<svg width="24" height="24" viewBox="0 0 24 24" fill="none" xmlns="http://www.w3.org/2000/svg">
<path d="M12 2V6M19.5 5V11M4.5 5V11M12.9921 21.264L13.9825 18.2911C14.1268 17.8581 14.514 17.5646 14.9532 17.5553L17.9692 17.4911C18.9648 17.47 19.3759 16.15 18.5824 15.5223L16.1785 13.6208C15.8284 13.3439 15.6805 12.8689 15.8077 12.4302L16.6813 9.4177C16.9696 8.42322 15.8934 7.60742 15.076 8.20088L12.5999 9.99858C12.2393 10.2604 11.7607 10.2604 11.4001 9.99858L8.92397 8.20088C8.10657 7.60742 7.03036 8.42322 7.31873 9.4177L8.19227 12.4302C8.31948 12.8689 8.17157 13.3439 7.8215 13.6208L5.41764 15.5223C4.62409 16.15 5.03516 17.47 6.03079 17.4911L9.04677 17.5553C9.48598 17.5646 9.87323 17.8581 10.0175 18.2911L11.0079 21.264C11.3349 22.2453 12.6651 22.2453 12.9921 21.264Z" stroke="black" stroke-width="2" stroke-linecap="round" stroke-linejoin="round"/>
</svg>
