<svg width="24" height="24" viewBox="0 0 24 24" fill="none" xmlns="http://www.w3.org/2000/svg">
<path d="M21 3L18 6M3 3L6 6M21 21L18 18M3 21L6 18M12.4099 4.28155L13.3055 6.61009C14.0278 8.48808 15.5119 9.97216 17.3899 10.6945L19.7185 11.5901C20.0938 11.7344 20.0938 12.2656 19.7185 12.4099L17.3899 13.3055C15.5119 14.0278 14.0278 15.5119 13.3055 17.3899L12.4099 19.7185C12.2656 20.0938 11.7344 20.0938 11.5901 19.7185L10.6945 17.3899C9.97216 15.5119 8.48808 14.0278 6.61008 13.3055L4.28155 12.4099C3.90615 12.2656 3.90615 11.7344 4.28155 11.5901L6.61009 10.6945C8.48808 9.97216 9.97216 8.48808 10.6945 6.61008L11.5901 4.28155C11.7344 3.90615 12.2656 3.90615 12.4099 4.28155Z" stroke="black" stroke-width="2" stroke-linecap="round" stroke-linejoin="round"/>
</svg>
