<svg width="24" height="24" viewBox="0 0 24 24" fill="none" xmlns="http://www.w3.org/2000/svg">
<path d="M21 3L18 6M3 3L6 6M21 21L20 20M3 21L4 20M13.1338 4.8412L14.2658 8.23878C14.4306 8.73356 14.8732 9.06904 15.3751 9.07971L18.822 9.153C19.9598 9.17719 20.4296 10.6858 19.5227 11.4031L16.7754 13.5762C16.3754 13.8927 16.2063 14.4355 16.3517 14.9369L17.35 18.3798C17.6796 19.5163 16.4496 20.4487 15.5155 19.7704L12.6856 17.7159C12.2735 17.4167 11.7265 17.4167 11.3144 17.7159L8.48454 19.7704C7.55036 20.4487 6.32041 19.5163 6.64998 18.3798L7.64831 14.9369C7.79369 14.4355 7.62465 13.8927 7.22457 13.5762L4.4773 11.4031C3.57039 10.6858 4.04019 9.17719 5.17804 9.153L8.62488 9.07971C9.12684 9.06904 9.5694 8.73356 9.73424 8.23878L10.8662 4.84119C11.2398 3.7196 12.7602 3.7196 13.1338 4.8412Z" stroke="black" stroke-width="2" stroke-linecap="round" stroke-linejoin="round"/>
</svg>
