<svg width="24" height="24" viewBox="0 0 24 24" fill="none" xmlns="http://www.w3.org/2000/svg">
<path d="M12 2V4M18 4V10M6 4V10M12.3587 8.24635L13.1423 10.2838C13.7744 11.9271 15.0729 13.2256 16.7162 13.8577L18.7536 14.6413C19.0821 14.7676 19.0821 15.2324 18.7536 15.3587L16.7162 16.1423C15.0729 16.7744 13.7744 18.0729 13.1423 19.7162L12.3587 21.7536C12.2324 22.0821 11.7676 22.0821 11.6413 21.7536L10.8577 19.7162C10.2256 18.0729 8.92707 16.7744 7.28382 16.1423L5.24635 15.3587C4.91788 15.2324 4.91788 14.7676 5.24635 14.6413L7.28382 13.8577C8.92707 13.2256 10.2256 11.9271 10.8577 10.2838L11.6413 8.24635C11.7676 7.91788 12.2324 7.91788 12.3587 8.24635Z" stroke="black" stroke-width="2" stroke-linecap="round" stroke-linejoin="round"/>
</svg>
