<svg width="24" height="24" viewBox="0 0 24 24" fill="none" xmlns="http://www.w3.org/2000/svg">
<path d="M3 21L9 15M9.02303 20.977L10.5 19.5M3 15L4.5 13.5M13.6413 16.7536L12.8577 14.7162C12.2256 13.0729 10.9271 11.7744 9.28382 11.1423L7.24635 10.3587C6.91788 10.2324 6.91788 9.76764 7.24635 9.6413L9.28382 8.85766C10.9271 8.22564 12.2256 6.92707 12.8577 5.28382L13.6413 3.24635C13.7676 2.91788 14.2324 2.91788 14.3587 3.24635L15.1423 5.28382C15.7744 6.92707 17.0729 8.22564 18.7162 8.85766L20.7536 9.6413C21.0821 9.76764 21.0821 10.2324 20.7536 10.3587L18.7162 11.1423C17.0729 11.7744 15.7744 13.0729 15.1423 14.7162L14.3587 16.7536C14.2324 17.0821 13.7676 17.0821 13.6413 16.7536Z" stroke="black" stroke-width="2" stroke-linecap="round" stroke-linejoin="round"/>
</svg>
