<svg width="24" height="24" viewBox="0 0 24 24" fill="none" xmlns="http://www.w3.org/2000/svg">
<path d="M21 3L15 9M14.977 3.02303L13.5 4.5M21 9L19.5 10.5M10.3587 7.24635L11.1423 9.28382C11.7744 10.9271 13.0729 12.2256 14.7162 12.8577L16.7536 13.6413C17.0821 13.7676 17.0821 14.2324 16.7536 14.3587L14.7162 15.1423C13.0729 15.7744 11.7744 17.0729 11.1423 18.7162L10.3587 20.7536C10.2324 21.0821 9.76764 21.0821 9.6413 20.7536L8.85766 18.7162C8.22564 17.0729 6.92707 15.7744 5.28382 15.1423L3.24635 14.3587C2.91788 14.2324 2.91788 13.7676 3.24635 13.6413L5.28382 12.8577C6.92707 12.2256 8.22564 10.9271 8.85766 9.28382L9.6413 7.24635C9.76764 6.91788 10.2324 6.91788 10.3587 7.24635Z" stroke="black" stroke-width="2" stroke-linecap="round" stroke-linejoin="round"/>
</svg>
