<svg width="24" height="24" viewBox="0 0 24 24" fill="none" xmlns="http://www.w3.org/2000/svg">
<path fill-rule="evenodd" clip-rule="evenodd" d="M18.1529 3.10558C18.0987 2.96481 17.8996 2.96481 17.8454 3.10558L17.1104 5.01665C17.0937 5.06014 17.0593 5.09452 17.0158 5.11125L15.1047 5.84627C14.964 5.90042 14.964 6.09958 15.1047 6.15373L17.0158 6.88875C17.0593 6.90548 17.0937 6.93986 17.1104 6.98335L17.8454 8.89442C17.8996 9.03519 18.0987 9.03519 18.1529 8.89442L18.8879 6.98335C18.9046 6.93986 18.939 6.90548 18.9825 6.88875L20.8936 6.15373C21.0344 6.09958 21.0344 5.90042 20.8936 5.84627L18.9825 5.11125C18.939 5.09452 18.9046 5.06014 18.8879 5.01665L18.1529 3.10558ZM12.5108 6.47254C11.8567 4.50916 9.14159 4.50915 8.48747 6.47254L7.42628 9.65777C7.39837 9.74155 7.3401 9.76189 7.31373 9.76245L4.08232 9.83116C3.05096 9.85309 2.34495 10.5628 2.10146 11.3446C1.85874 12.1241 2.03291 13.0972 2.82624 13.7247L5.4018 15.762C5.44831 15.7988 5.48558 15.8832 5.45901 15.9748L4.52307 19.2025C4.24463 20.1628 4.63146 21.0648 5.29509 21.5678C5.96458 22.0753 6.95676 22.1996 7.79092 21.594L10.4439 19.6679C10.4648 19.6527 10.4836 19.6483 10.4992 19.6483C10.5147 19.6483 10.5335 19.6527 10.5544 19.6679L13.2074 21.594C14.0415 22.1996 15.0337 22.0753 15.7032 21.5678C16.3669 21.0648 16.7537 20.1628 16.4752 19.2025L15.5393 15.9748C15.5127 15.8832 15.55 15.7988 15.5965 15.762L18.1721 13.7247C18.9654 13.0972 19.1396 12.1241 18.8969 11.3447C18.6534 10.5628 17.9474 9.85309 16.916 9.83116L13.6846 9.76245C13.6582 9.76189 13.5999 9.74155 13.572 9.65777L12.5108 6.47254ZM10.3849 7.1047C10.4058 7.04199 10.4306 7.02318 10.4392 7.01723C10.4528 7.00774 10.4733 7 10.4992 7C10.525 7 10.5456 7.00774 10.5592 7.01723C10.5677 7.02318 10.5925 7.042 10.6134 7.1047L11.6746 10.2899C11.9557 11.1339 12.7273 11.7426 13.6421 11.762L16.8735 11.8307C16.9103 11.8315 16.9229 11.8406 16.9321 11.8481C16.9477 11.861 16.9721 11.8903 16.9873 11.9393C17.0025 11.9881 17.0018 12.0347 16.9925 12.0689C16.985 12.0965 16.9704 12.1252 16.9313 12.1561L14.3557 14.1934C13.6521 14.75 13.3724 15.6834 13.6184 16.5318L14.5544 19.7595C14.5731 19.8241 14.5658 19.8647 14.5566 19.8907C14.5455 19.9223 14.5237 19.9523 14.495 19.974C14.4663 19.9958 14.4439 19.9996 14.4361 20C14.4326 20.0001 14.429 19.9998 14.4237 19.9982C14.4186 19.9967 14.4046 19.9917 14.3824 19.9756L11.7294 18.0494C10.9927 17.5146 10.0056 17.5146 9.26887 18.0494L6.6159 19.9756C6.59367 19.9917 6.57969 19.9967 6.57462 19.9982C6.5693 19.9998 6.56573 20.0001 6.56225 20C6.55441 19.9997 6.53197 19.9958 6.50327 19.974C6.47463 19.9523 6.45283 19.9223 6.44168 19.8907C6.43251 19.8647 6.42521 19.8241 6.44395 19.7595L7.37988 16.5318C7.6259 15.6834 7.34622 14.75 6.64257 14.1934L4.06701 12.1561C4.02789 12.1252 4.01328 12.0965 4.00582 12.0689C3.99656 12.0347 3.99581 11.9881 4.01101 11.9393C4.02626 11.8903 4.05058 11.861 4.06622 11.8481C4.07539 11.8406 4.08804 11.8315 4.12483 11.8307L7.35624 11.762C8.27104 11.7426 9.04258 11.1339 9.32374 10.2899L10.3849 7.1047Z" fill="black"/>
</svg>
