<svg width="24" height="24" viewBox="0 0 24 24" fill="none" xmlns="http://www.w3.org/2000/svg">
<path d="M12.5999 14.0014L15.076 15.7991C15.8934 16.3926 16.9696 15.5768 16.6813 14.5823L15.8077 11.5698C15.6805 11.1311 15.8284 10.6561 16.1785 10.3792L18.5824 8.47774C19.3759 7.85003 18.9648 6.53004 17.9692 6.50887L14.9532 6.44475C14.514 6.43541 14.1268 6.14186 13.9825 5.70893L12.9921 2.73605C12.6651 1.75465 11.3349 1.75465 11.0079 2.73605L10.0175 5.70893C9.87323 6.14186 9.48598 6.43541 9.04677 6.44475L6.03079 6.50887C5.03516 6.53004 4.62409 7.85003 5.41764 8.47774L7.8215 10.3792C8.17157 10.6561 8.31948 11.1311 8.19227 11.5698L7.31873 14.5823C7.03036 15.5768 8.10657 16.3926 8.92397 15.7991L11.4001 14.0014M12.5999 14.0014C12.2393 13.7396 11.7607 13.7396 11.4001 14.0014M12.5999 14.0014L15.7342 21.3748C15.8252 21.5888 15.6003 21.8002 15.3923 21.6962L12.8861 20.443C12.3277 20.1639 11.6711 20.1614 11.1106 20.4364L8.53439 21.7005C8.32558 21.8029 8.10227 21.5897 8.19498 21.3764L11.4001 14.0014" stroke="black" stroke-width="2" stroke-linecap="round" stroke-linejoin="round"/>
</svg>
