<svg width="24" height="24" viewBox="0 0 24 24" fill="none" xmlns="http://www.w3.org/2000/svg">
<path d="M10.5 6C2.5 7.21931 2 16 2 20C4.5 18 7.5 16 11 16M16.3075 4.21116L16.9791 5.95756C17.5209 7.36606 18.6339 8.47912 20.0424 9.02085L21.7888 9.69255C22.0704 9.80083 22.0704 10.1992 21.7888 10.3075L20.0424 10.9791C18.6339 11.5209 17.5209 12.6339 16.9791 14.0424L16.3075 15.7888C16.1992 16.0704 15.8008 16.0704 15.6925 15.7888L15.0209 14.0424C14.4791 12.6339 13.3661 11.5209 11.9576 10.9791L10.2112 10.3075C9.92961 10.1992 9.92961 9.80083 10.2112 9.69255L11.9576 9.02085C13.3661 8.47912 14.4791 7.36606 15.0209 5.95756L15.6925 4.21116C15.8008 3.92961 16.1992 3.92961 16.3075 4.21116Z" stroke="black" stroke-width="2" stroke-linecap="round" stroke-linejoin="round"/>
</svg>
