<svg width="24" height="24" viewBox="0 0 24 24" fill="none" xmlns="http://www.w3.org/2000/svg">
<path d="M21 3L17 7M14 4L14.977 3.02303M20 10L21 9M7.33583 10.7622L4.10442 10.8309C3.03768 10.8536 2.59724 12.2679 3.44747 12.9404L6.02303 14.9777C6.39811 15.2744 6.55659 15.7833 6.42029 16.2533L5.48435 19.481C5.17539 20.5465 6.32847 21.4206 7.20425 20.7848L9.85723 18.8587C10.2436 18.5782 10.7564 18.5782 11.1428 18.8587L13.7957 20.7848C14.6715 21.4206 15.8246 20.5465 15.5156 19.481L14.5797 16.2533C14.4434 15.7833 14.6019 15.2744 14.977 14.9777L17.5525 12.9404C18.4028 12.2679 17.9623 10.8536 16.8956 10.8309L13.6642 10.7622C13.1936 10.7522 12.7787 10.4377 12.6241 9.97385L11.563 6.78862C11.2126 5.73713 9.78736 5.73713 9.43704 6.78862L8.37585 9.97385C8.22131 10.4377 7.80641 10.7522 7.33583 10.7622Z" stroke="black" stroke-width="2" stroke-linecap="round" stroke-linejoin="round"/>
</svg>
