<svg width="24" height="24" viewBox="0 0 24 24" fill="none" xmlns="http://www.w3.org/2000/svg">
<circle cx="19.5" cy="4.5" r="1.5" fill="black"/>
<path d="M6 18H6.01M12.4612 3.31674L13.4687 5.93635C14.2813 8.04909 15.9509 9.71869 18.0637 10.5313L20.6833 11.5388C21.1056 11.7012 21.1056 12.2988 20.6833 12.4612L18.0637 13.4687C15.9509 14.2813 14.2813 15.9509 13.4687 18.0637L12.4612 20.6833C12.2988 21.1056 11.7012 21.1056 11.5388 20.6833L10.5313 18.0637C9.71868 15.9509 8.04909 14.2813 5.93634 13.4687L3.31674 12.4612C2.89442 12.2988 2.89442 11.7012 3.31674 11.5388L5.93635 10.5313C8.04909 9.71868 9.71868 8.04909 10.5313 5.93635L11.5388 3.31674C11.7012 2.89442 12.2988 2.89442 12.4612 3.31674Z" stroke="black" stroke-width="2" stroke-linecap="round" stroke-linejoin="round"/>
</svg>
