<svg width="24" height="24" viewBox="0 0 24 24" fill="none" xmlns="http://www.w3.org/2000/svg">
<path d="M3 21L7 17M10 20L9.02303 20.977M4 14L3 15M16.6642 13.2378L19.8956 13.1691C20.9623 13.1464 21.4028 11.7321 20.5525 11.0596L17.977 9.02228C17.6019 8.72559 17.4434 8.21671 17.5797 7.74666L18.5156 4.51897C18.8246 3.45346 17.6715 2.57938 16.7957 3.21523L14.1428 5.14134C13.7564 5.42184 13.2436 5.42184 12.8572 5.14134L10.2043 3.21523C9.32847 2.57938 8.17539 3.45345 8.48435 4.51897L9.42029 7.74666C9.55658 8.2167 9.39811 8.72559 9.02303 9.02228L6.44747 11.0596C5.59724 11.7321 6.03767 13.1464 7.10441 13.1691L10.3358 13.2378C10.8064 13.2478 11.2213 13.5623 11.3759 14.0261L12.437 17.2114C12.7874 18.2629 14.2126 18.2629 14.563 17.2114L15.6241 14.0261C15.7787 13.5623 16.1936 13.2478 16.6642 13.2378Z" stroke="black" stroke-width="2" stroke-linecap="round" stroke-linejoin="round"/>
</svg>
