<svg width="24" height="24" viewBox="0 0 24 24" fill="none" xmlns="http://www.w3.org/2000/svg">
<path d="M12 22C6.47715 22 2 17.5228 2 12M22 12C22 6.47711 17.5223 2 11.9994 2M12.8504 6.1309L13.6993 8.67908C13.8229 9.05017 14.1549 9.30178 14.5313 9.30978L17.1165 9.36475C17.9699 9.38289 18.3222 10.5143 17.642 11.0523L15.5816 12.6822C15.2815 12.9195 15.1547 13.3266 15.2638 13.7027L16.0125 16.2848C16.2597 17.1372 15.3372 17.8365 14.6366 17.3278L12.5142 15.7869C12.2051 15.5625 11.7949 15.5625 11.4858 15.7869L9.3634 17.3278C8.66277 17.8365 7.74031 17.1372 7.98748 16.2848L8.73623 13.7027C8.84527 13.3266 8.71848 12.9195 8.41842 12.6822L6.35798 11.0523C5.67779 10.5143 6.03014 9.38289 6.88353 9.36475L9.46866 9.30978C9.84513 9.30178 10.1771 9.05017 10.3007 8.67908L11.1496 6.1309C11.4299 5.2897 12.5701 5.2897 12.8504 6.1309Z" stroke="black" stroke-width="2" stroke-linecap="round" stroke-linejoin="round"/>
</svg>
