<svg width="24" height="24" viewBox="0 0 24 24" fill="none" xmlns="http://www.w3.org/2000/svg">
<path d="M8.5 7C2.5 9.21931 2 16 2 20C4.5 18 7.5 16 11 16M18.2423 12.8727L21.0428 12.8132C21.9674 12.7935 22.3491 11.5678 21.6122 10.985L19.38 9.21931C19.055 8.96218 18.9176 8.52115 19.0358 8.11377L19.8469 5.31644C20.1147 4.393 19.1153 3.63547 18.3563 4.18653L16.0571 5.85583C15.7222 6.09893 15.2778 6.09893 14.9429 5.85583L12.6437 4.18653C11.8847 3.63547 10.8853 4.39299 11.1531 5.31644L11.9642 8.11377C12.0824 8.52114 11.945 8.96218 11.62 9.21931L9.38781 10.985C8.65094 11.5678 9.03265 12.7935 9.95716 12.8132L12.7577 12.8727C13.1656 12.8814 13.5251 13.154 13.6591 13.556L14.5788 16.3165C14.8824 17.2278 16.1176 17.2278 16.4212 16.3165L17.3409 13.556C17.4749 13.154 17.8344 12.8814 18.2423 12.8727Z" stroke="black" stroke-width="2" stroke-linecap="round" stroke-linejoin="round"/>
</svg>
