<svg width="24" height="24" viewBox="0 0 24 24" fill="none" xmlns="http://www.w3.org/2000/svg">
<path d="M13.4687 5.93635L12.4612 3.31674C12.2988 2.89442 11.7012 2.89442 11.5388 3.31674L10.5313 5.93635C9.71868 8.04909 8.04909 9.71868 5.93635 10.5313L3.31674 11.5388C2.89442 11.7012 2.89442 12.2988 3.31674 12.4612L5.93634 13.4687C8.04909 14.2813 9.71868 15.9509 10.5313 18.0637L11.5388 20.6833C11.7012 21.1056 12.2988 21.1056 12.4612 20.6833L13.4687 18.0637C14.2813 15.9509 15.9509 14.2813 18.0637 13.4687L20.6833 12.4612C21.1056 12.2988 21.1056 11.7012 20.6833 11.5388L18.0637 10.5313C15.9509 9.71869 14.2813 8.04909 13.4687 5.93635Z" stroke="black" stroke-width="2" stroke-linecap="round" stroke-linejoin="round"/>
<circle cx="19.5" cy="4.5" r="1.5" fill="black"/>
</svg>
