<svg width="24" height="24" viewBox="0 0 24 24" fill="none" xmlns="http://www.w3.org/2000/svg">
<path d="M12 22C6.47715 22 2 17.5228 2 12M22 12C22 6.47711 17.5223 2 11.9994 2M12.3075 6.21116L12.9791 7.95756C13.5209 9.36606 14.6339 10.4791 16.0424 11.0209L17.7888 11.6925C18.0704 11.8008 18.0704 12.1992 17.7888 12.3075L16.0424 12.9791C14.6339 13.5209 13.5209 14.6339 12.9791 16.0424L12.3075 17.7888C12.1992 18.0704 11.8008 18.0704 11.6925 17.7888L11.0209 16.0424C10.4791 14.6339 9.36606 13.5209 7.95756 12.9791L6.21116 12.3075C5.92961 12.1992 5.92961 11.8008 6.21116 11.6925L7.95756 11.0209C9.36606 10.4791 10.4791 9.36606 11.0209 7.95756L11.6925 6.21116C11.8008 5.92961 12.1992 5.92961 12.3075 6.21116Z" stroke="black" stroke-width="2" stroke-linecap="round" stroke-linejoin="round"/>
</svg>
