<svg width="24" height="24" viewBox="0 0 24 24" fill="none" xmlns="http://www.w3.org/2000/svg">
<path fill-rule="evenodd" clip-rule="evenodd" d="M17.2516 7C18.9084 7 20.2516 5.65685 20.2516 4C20.2516 2.34315 18.9084 1 17.2516 1C15.5947 1 14.2516 2.34315 14.2516 4C14.2516 5.65685 15.5947 7 17.2516 7ZM15.61 11.2029C15.8142 10.5025 16.4763 10 17.2516 10C18.0268 10 18.6889 10.5025 18.8931 11.2029L19.9989 14.9959L19.9965 14.9974C19.9955 14.9979 19.9942 14.9984 19.9923 14.9989C19.9905 14.9993 19.9868 15 19.9805 15H18.7822H15.7209H14.5226C14.5164 15 14.5126 14.9993 14.5108 14.9989C14.5089 14.9984 14.5076 14.9979 14.5066 14.9974L14.5042 14.9959L15.61 11.2029ZM17.2516 8C15.6108 8 14.1495 9.067 13.69 10.6431L12.5814 14.4454C12.2009 15.7506 13.2058 17 14.5226 17H14.7209V22C14.7209 22.5523 15.1686 23 15.7209 23C16.2732 23 16.7209 22.5523 16.7209 22V17H17.7822V22C17.7822 22.5523 18.2299 23 18.7822 23C19.3345 23 19.7822 22.5523 19.7822 22V17H19.9805C21.2973 17 22.3023 15.7506 21.9217 14.4454L20.8132 10.6431C20.3536 9.067 18.8923 8 17.2516 8Z" fill="black"/>
<path fill-rule="evenodd" clip-rule="evenodd" d="M6 7C7.65685 7 9 5.65685 9 4C9 2.34315 7.65685 1 6 1C4.34315 1 3 2.34315 3 4C3 5.65685 4.34315 7 6 7ZM4 12C4 10.8954 4.89543 10 6 10C7.10457 10 8 10.8954 8 12V15H7.5H4.5H4V12ZM6 8C3.79086 8 2 9.79086 2 12V15C2 15.9319 2.63739 16.715 3.5 16.937V22C3.5 22.5523 3.94772 23 4.5 23C5.05228 23 5.5 22.5523 5.5 22V17H6.5V22C6.5 22.5523 6.94772 23 7.5 23C8.05228 23 8.5 22.5523 8.5 22V16.937C9.36261 16.715 10 15.9319 10 15V12C10 9.79086 8.20914 8 6 8Z" fill="black"/>
</svg>
