<svg width="24" height="24" viewBox="0 0 24 24" fill="none" xmlns="http://www.w3.org/2000/svg">
<path fill-rule="evenodd" clip-rule="evenodd" d="M12.0001 7C13.657 7 15.0001 5.65685 15.0001 4C15.0001 2.34315 13.657 1 12.0001 1C10.3432 1 9.0001 2.34315 9.0001 4C9.0001 5.65685 10.3432 7 12.0001 7ZM10.3586 11.2029C10.5628 10.5025 11.2248 10 12.0001 10C12.7754 10 13.4374 10.5025 13.6416 11.2029L14.7475 14.9959L14.7451 14.9974C14.7441 14.9979 14.7427 14.9984 14.7408 14.9989C14.739 14.9993 14.7353 15 14.729 15H13.5308H10.4694H9.27116C9.26489 15 9.26118 14.9993 9.25937 14.9989C9.25745 14.9984 9.25614 14.9979 9.25513 14.9974L9.25272 14.9959L10.3586 11.2029ZM12.0001 8C10.3593 8 8.89805 9.067 8.43851 10.6431L7.32996 14.4454C6.94941 15.7506 7.95438 17 9.27116 17H9.46944V22C9.46944 22.5523 9.91715 23 10.4694 23C11.0217 23 11.4694 22.5523 11.4694 22V17H12.5308V22C12.5308 22.5523 12.9785 23 13.5308 23C14.083 23 14.5308 22.5523 14.5308 22V17H14.729C16.0458 17 17.0508 15.7506 16.6702 14.4454L15.5617 10.6431C15.1022 9.067 13.6409 8 12.0001 8Z" fill="black"/>
</svg>
