<svg width="24" height="24" viewBox="0 0 24 24" fill="none" xmlns="http://www.w3.org/2000/svg">
<path fill-rule="evenodd" clip-rule="evenodd" d="M17.0001 7C18.657 7 20.0001 5.65685 20.0001 4C20.0001 2.34315 18.657 1 17.0001 1C15.3432 1 14.0001 2.34315 14.0001 4C14.0001 5.65685 15.3432 7 17.0001 7ZM15.3586 11.2029C15.5628 10.5025 16.2248 10 17.0001 10C17.7754 10 18.4374 10.5025 18.6416 11.2029L19.7475 14.9959L19.7451 14.9974C19.7441 14.9979 19.7427 14.9984 19.7408 14.9989C19.739 14.9993 19.7353 15 19.729 15H18.5308H15.4694H14.2712C14.2649 15 14.2612 14.9993 14.2594 14.9989C14.2575 14.9984 14.2561 14.9979 14.2551 14.9974L14.2527 14.9959L15.3586 11.2029ZM17.0001 8C15.3593 8 13.898 9.067 13.4385 10.6431L12.33 14.4454C11.9494 15.7506 12.9544 17 14.2712 17H14.4694V22C14.4694 22.5523 14.9172 23 15.4694 23C16.0217 23 16.4694 22.5523 16.4694 22V17H17.5308V22C17.5308 22.5523 17.9785 23 18.5308 23C19.083 23 19.5308 22.5523 19.5308 22V17H19.729C21.0458 17 22.0508 15.7506 21.6702 14.4454L20.5617 10.6431C20.1022 9.067 18.6409 8 17.0001 8Z" fill="black"/>
<path fill-rule="evenodd" clip-rule="evenodd" d="M7.0001 7C8.65696 7 10.0001 5.65685 10.0001 4C10.0001 2.34315 8.65696 1 7.0001 1C5.34325 1 4.0001 2.34315 4.0001 4C4.0001 5.65685 5.34325 7 7.0001 7ZM5.35857 11.2029C5.56278 10.5025 6.22483 10 7.0001 10C7.77537 10 8.43742 10.5025 8.64163 11.2029L9.74748 14.9959L9.74507 14.9974C9.74406 14.9979 9.74275 14.9984 9.74083 14.9989C9.73903 14.9993 9.73531 15 9.72904 15H8.53076H5.46944H4.27116C4.26489 15 4.26118 14.9993 4.25937 14.9989C4.25745 14.9984 4.25614 14.9979 4.25513 14.9974L4.25272 14.9959L5.35857 11.2029ZM7.0001 8C5.35932 8 3.89805 9.067 3.43851 10.6431L2.32996 14.4454C1.94941 15.7506 2.95438 17 4.27116 17H4.46944V22C4.46944 22.5523 4.91715 23 5.46944 23C6.02172 23 6.46944 22.5523 6.46944 22V17H7.53076V22C7.53076 22.5523 7.97848 23 8.53076 23C9.08305 23 9.53076 22.5523 9.53076 22V17H9.72904C11.0458 17 12.0508 15.7506 11.6702 14.4454L10.5617 10.6431C10.1022 9.067 8.64088 8 7.0001 8Z" fill="black"/>
</svg>
