<svg width="24" height="24" viewBox="0 0 24 24" fill="none" xmlns="http://www.w3.org/2000/svg">
<path fill-rule="evenodd" clip-rule="evenodd" d="M17 7C18.6569 7 20 5.65685 20 4C20 2.34315 18.6569 1 17 1C15.3431 1 14 2.34315 14 4C14 5.65685 15.3431 7 17 7ZM15 12C15 10.8954 15.8954 10 17 10C18.1046 10 19 10.8954 19 12V15H18.5H15.5H15V12ZM17 8C14.7909 8 13 9.79086 13 12V15C13 15.9319 13.6374 16.715 14.5 16.937V22C14.5 22.5523 14.9477 23 15.5 23C16.0523 23 16.5 22.5523 16.5 22V17H17.5V22C17.5 22.5523 17.9477 23 18.5 23C19.0523 23 19.5 22.5523 19.5 22V16.937C20.3626 16.715 21 15.9319 21 15V12C21 9.79086 19.2091 8 17 8Z" fill="black"/>
<path fill-rule="evenodd" clip-rule="evenodd" d="M7 7C8.65685 7 10 5.65685 10 4C10 2.34315 8.65685 1 7 1C5.34315 1 4 2.34315 4 4C4 5.65685 5.34315 7 7 7ZM5 12C5 10.8954 5.89543 10 7 10C8.10457 10 9 10.8954 9 12V15H8.5H5.5H5V12ZM7 8C4.79086 8 3 9.79086 3 12V15C3 15.9319 3.63739 16.715 4.5 16.937V22C4.5 22.5523 4.94772 23 5.5 23C6.05228 23 6.5 22.5523 6.5 22V17H7.5V22C7.5 22.5523 7.94772 23 8.5 23C9.05228 23 9.5 22.5523 9.5 22V16.937C10.3626 16.715 11 15.9319 11 15V12C11 9.79086 9.20914 8 7 8Z" fill="black"/>
</svg>
