<svg width="24" height="24" viewBox="0 0 24 24" fill="none" xmlns="http://www.w3.org/2000/svg">
<path fill-rule="evenodd" clip-rule="evenodd" d="M12 7C13.6569 7 15 5.65685 15 4C15 2.34315 13.6569 1 12 1C10.3431 1 9 2.34315 9 4C9 5.65685 10.3431 7 12 7ZM10 12C10 10.8954 10.8954 10 12 10C13.1046 10 14 10.8954 14 12V15H13.5H10.5H10V12ZM12 8C9.79086 8 8 9.79086 8 12V15C8 15.9319 8.63739 16.715 9.5 16.937V22C9.5 22.5523 9.94772 23 10.5 23C11.0523 23 11.5 22.5523 11.5 22V17H12.5V22C12.5 22.5523 12.9477 23 13.5 23C14.0523 23 14.5 22.5523 14.5 22V16.937C15.3626 16.715 16 15.9319 16 15V12C16 9.79086 14.2091 8 12 8Z" fill="black"/>
</svg>
