<svg width="24" height="24" viewBox="0 0 24 24" fill="none" xmlns="http://www.w3.org/2000/svg">
<path d="M16.5 10C14.567 10 13 8.433 13 6.5C13 4.567 14.567 3 16.5 3C18.433 3 20 4.567 20 6.5C20 8.433 18.433 10 16.5 10Z" stroke="black" stroke-width="2" stroke-linecap="round"/>
<path d="M21 17.5V20C21 20.5523 20.5523 21 20 21H13C12.4477 21 12 20.5523 12 20V17.5C12 15.0147 14.0147 13 16.5 13C18.9853 13 21 15.0147 21 17.5Z" stroke="black" stroke-width="2" stroke-linecap="round"/>
<path d="M6 13C4.61929 13 3.5 11.8807 3.5 10.5C3.5 9.11929 4.61929 8 6 8C7.38071 8 8.5 9.11929 8.5 10.5C8.5 11.8807 7.38071 13 6 13Z" stroke="black" stroke-width="2" stroke-linecap="round"/>
<path d="M9 19V20.1667C9 20.6269 8.6269 21 8.16667 21H3.83333C3.3731 21 3 20.6269 3 20.1667V19C3 17.3431 4.34315 16 6 16C7.65685 16 9 17.3431 9 19Z" stroke="black" stroke-width="2" stroke-linecap="round"/>
</svg>
