<svg width="24" height="24" viewBox="0 0 24 24" fill="none" xmlns="http://www.w3.org/2000/svg">
<path fill-rule="evenodd" clip-rule="evenodd" d="M18 7C19.6569 7 21 5.65685 21 4C21 2.34315 19.6569 1 18 1C16.3431 1 15 2.34315 15 4C15 5.65685 16.3431 7 18 7ZM16 12C16 10.8954 16.8954 10 18 10C19.1046 10 20 10.8954 20 12V15H19.5H16.5H16V12ZM18 8C15.7909 8 14 9.79086 14 12V15C14 15.9319 14.6374 16.715 15.5 16.937V22C15.5 22.5523 15.9477 23 16.5 23C17.0523 23 17.5 22.5523 17.5 22V17H18.5V22C18.5 22.5523 18.9477 23 19.5 23C20.0523 23 20.5 22.5523 20.5 22V16.937C21.3626 16.715 22 15.9319 22 15V12C22 9.79086 20.2091 8 18 8Z" fill="black"/>
<path fill-rule="evenodd" clip-rule="evenodd" d="M6.75157 7C8.40842 7 9.75157 5.65685 9.75157 4C9.75157 2.34315 8.40842 1 6.75157 1C5.09471 1 3.75157 2.34315 3.75157 4C3.75157 5.65685 5.09471 7 6.75157 7ZM5.11004 11.2029C5.31424 10.5025 5.97629 10 6.75157 10C7.52684 10 8.18889 10.5025 8.3931 11.2029L9.49895 14.9959L9.49653 14.9974C9.49553 14.9979 9.49421 14.9984 9.4923 14.9989C9.49049 14.9993 9.48677 15 9.4805 15H8.28223H5.2209H4.02263C4.01636 15 4.01264 14.9993 4.01083 14.9989C4.00892 14.9984 4.00761 14.9979 4.0066 14.9974L4.00419 14.9959L5.11004 11.2029ZM6.75157 8C5.11079 8 3.64951 9.067 3.18998 10.6431L2.08142 14.4454C1.70087 15.7506 2.70584 17 4.02263 17H4.2209V22C4.2209 22.5523 4.66862 23 5.2209 23C5.77319 23 6.2209 22.5523 6.2209 22V17H7.28223V22C7.28223 22.5523 7.72994 23 8.28223 23C8.83451 23 9.28223 22.5523 9.28223 22V17H9.4805C10.7973 17 11.8023 15.7506 11.4217 14.4454L10.3132 10.6431C9.85362 9.067 8.39234 8 6.75157 8Z" fill="black"/>
</svg>
