<svg width="24" height="24" viewBox="0 0 24 24" fill="none" xmlns="http://www.w3.org/2000/svg">
<path fill-rule="evenodd" clip-rule="evenodd" d="M8.5 6.5C9.74264 6.5 10.75 5.49264 10.75 4.25C10.75 3.00736 9.74264 2 8.5 2C7.25736 2 6.25 3.00736 6.25 4.25C6.25 5.49264 7.25736 6.5 8.5 6.5ZM10.024 7.94403C9.8723 7.413 9.31882 7.1055 8.78778 7.25723C8.25675 7.40895 7.94925 7.96243 8.10098 8.49347L9.03848 11.7747L9.62403 13.8242C9.992 15.1121 11.1692 16 12.5086 16H15.7639C16.1427 16 16.489 16.214 16.6584 16.5528L17.7468 18.7298C18.166 19.5682 19.1113 20.003 20.0208 19.7756L21.2425 19.4702C21.7783 19.3362 22.1041 18.7933 21.9701 18.2575C21.8362 17.7217 21.2933 17.3959 20.7575 17.5299L19.5357 17.8353L18.4472 15.6584C17.939 14.642 16.9002 14 15.7639 14H12.5086C12.0621 14 11.6697 13.704 11.5471 13.2747L11.3257 12.5H14C14.5523 12.5 15 12.0523 15 11.5C15 10.9477 14.5523 10.5 14 10.5H10.7543L10.024 7.94403ZM7.19893 12.0796C7.74018 11.9698 8.08988 11.4419 7.98001 10.9007C7.87015 10.3595 7.34231 10.0098 6.80107 10.1196C4.06196 10.6756 2 13.0957 2 15.9996C2 19.3133 4.68629 21.9996 8 21.9996C10.4619 21.9996 12.5754 20.517 13.5003 18.4C13.7214 17.8939 13.4904 17.3044 12.9843 17.0833C12.4782 16.8621 11.8887 17.0932 11.6676 17.5992C11.0494 19.0141 9.6387 19.9996 8 19.9996C5.79086 19.9996 4 18.2088 4 15.9996C4 14.0656 5.37356 12.4502 7.19893 12.0796Z" fill="black"/>
</svg>
