<svg width="24" height="24" viewBox="0 0 24 24" fill="none" xmlns="http://www.w3.org/2000/svg">
<path fill-rule="evenodd" clip-rule="evenodd" d="M8 7C8 5.34315 9.34315 4 11 4C12.6569 4 14 5.34315 14 7C14 8.65685 12.6569 10 11 10C9.34315 10 8 8.65685 8 7ZM11 2C8.23858 2 6 4.23858 6 7C6 9.76142 8.23858 12 11 12C13.7614 12 16 9.76142 16 7C16 4.23858 13.7614 2 11 2ZM4 18C4 16.3431 5.34315 15 7 15H12.5997C13.0086 14.2002 13.6075 13.5137 14.3369 13H7C4.23858 13 2 15.2386 2 18C2 19.1046 2.89543 20 4 20H12.5997C12.2881 19.3904 12.0868 18.7149 12.0224 18H4Z" fill="black"/>
<path d="M21 21L19.2678 19.2678M19.2678 19.2678C19.7202 18.8154 20 18.1904 20 17.5C20 16.1193 18.8807 15 17.5 15C16.1193 15 15 16.1193 15 17.5C15 18.8807 16.1193 20 17.5 20C18.1904 20 18.8154 19.7202 19.2678 19.2678Z" stroke="black" stroke-width="2" stroke-linecap="round" stroke-linejoin="round"/>
</svg>
