<svg width="24" height="24" viewBox="0 0 24 24" fill="none" xmlns="http://www.w3.org/2000/svg">
<path fill-rule="evenodd" clip-rule="evenodd" d="M3.69172 2.27783C3.30013 1.90244 2.67833 1.90746 2.29289 2.29289C1.90237 2.68342 1.90237 3.31658 2.29289 3.70711L7.3025 8.71672C7.80712 10.0971 8.90286 11.1929 10.2833 11.6975L11.5972 13.0114C7.91863 13.2201 5 16.2692 5 20C5 21.1046 5.89543 22 7 22H17C17.9752 22 18.7873 21.3021 18.9642 20.3785L20.2929 21.7071C20.6834 22.0976 21.3166 22.0976 21.7071 21.7071C22.0925 21.3217 22.0976 20.6999 21.7222 20.3083L21.7072 20.2933L3.70716 2.29327L3.69172 2.27783ZM15.1365 10.8941C16.273 9.97761 17 8.57371 17 7C17 4.23858 14.7614 2 12 2C10.4263 2 9.02239 2.72703 8.10586 3.86354L9.53375 5.29143C10.0754 4.511 10.978 4 12 4C13.6569 4 15 5.34315 15 7C15 8.02196 14.489 8.92457 13.7086 9.46625L15.1365 10.8941ZM12 15C12.7124 15 13.3899 15.149 14.0033 15.4175L16.5825 17.9967C16.851 18.6101 17 19.2876 17 20H7C7 17.2386 9.23858 15 12 15Z" fill="black"/>
</svg>
