<svg width="24" height="24" viewBox="0 0 24 24" fill="none" xmlns="http://www.w3.org/2000/svg">
<path fill-rule="evenodd" clip-rule="evenodd" d="M8 6C8 4.34315 9.34315 3 11 3C12.6569 3 14 4.34315 14 6C14 7.65685 12.6569 9 11 9C9.34315 9 8 7.65685 8 6ZM11 1C8.23858 1 6 3.23858 6 6C6 8.76142 8.23858 11 11 11C13.7614 11 16 8.76142 16 6C16 3.23858 13.7614 1 11 1ZM9.00109 12.0671C8.99149 11.7729 8.85278 11.4979 8.62191 11.3153C8.39105 11.1327 8.09148 11.0612 7.80302 11.1196C5.06294 11.6749 3 14.0954 3 17V19C3 20.1046 3.89543 21 5 21H12.207C12.0722 20.5232 12 20.02 12 19.5C12 19.3315 12.0076 19.1647 12.0224 19H5V17C5 15.4182 5.91884 14.0495 7.2522 13.4007C7.81994 14.9192 9.28362 16 11 16C12.7164 16 14.1801 14.9192 14.7478 13.4007C15.1787 13.6104 15.5664 13.8953 15.8937 14.2383C16.4018 14.0833 16.9412 14 17.5 14C17.7456 14 17.9874 14.0161 18.2244 14.0473C17.3824 12.5608 15.9242 11.4696 14.197 11.1196C13.9085 11.0612 13.6089 11.1327 13.3781 11.3153C13.1472 11.4979 13.0085 11.7729 12.9989 12.0671C12.9639 13.1402 12.0821 14 11 14C9.91786 14 9.03613 13.1402 9.00109 12.0671Z" fill="black"/>
<path fill-rule="evenodd" clip-rule="evenodd" d="M17.5 23C19.433 23 21 21.433 21 19.5C21 17.567 19.433 16 17.5 16C15.567 16 14 17.567 14 19.5C14 21.433 15.567 23 17.5 23ZM18 18C18 17.7239 17.7761 17.5 17.5 17.5C17.2239 17.5 17 17.7239 17 18V19.7929C17 20.0581 17.1054 20.3125 17.2929 20.5L17.8964 21.1036C18.0917 21.2988 18.4083 21.2988 18.6036 21.1036C18.7988 20.9083 18.7988 20.5917 18.6036 20.3964L18 19.7929V18Z" fill="black"/>
</svg>
