<svg width="24" height="24" viewBox="0 0 24 24" fill="none" xmlns="http://www.w3.org/2000/svg">
<path fill-rule="evenodd" clip-rule="evenodd" d="M21.5994 8.40078C21.5994 10.389 19.9876 12.0008 17.9994 12.0008C16.0112 12.0008 14.3994 10.389 14.3994 8.40078C14.3994 6.41256 16.0112 4.80078 17.9994 4.80078C19.9876 4.80078 21.5994 6.41256 21.5994 8.40078ZM17.9997 20.0008H22.3997C22.731 20.0008 22.9996 19.7322 22.9996 19.4008C22.9999 15.0008 19.9999 13.8008 18.5998 13.8008H17.3998C16.6798 13.8008 15.5366 14.1182 14.5958 15.025C15.4856 16.3025 15.9997 17.8383 15.9997 19.4009C15.9997 19.6053 15.9827 19.8057 15.95 20.0008H17.9997Z" fill="black"/>
<path d="M8.00005 11.2C9.98828 11.2 11.6001 9.58822 11.6001 7.6C11.6001 5.61177 9.98828 4 8.00005 4C6.01182 4 4.40005 5.61177 4.40005 7.6C4.40005 9.58822 6.01182 11.2 8.00005 11.2Z" stroke="black" stroke-width="2"/>
<path d="M12.4 20H8.00001H3.60001C3.26863 20 3 19.7314 3 19.4C3 17 5 14.8 7.40016 14.8H8.60016C11 14.8 13 17 13 19.4C13 19.7314 12.7314 20 12.4 20Z" stroke="black" stroke-width="2"/>
</svg>
