<svg width="24" height="24" viewBox="0 0 24 24" fill="none" xmlns="http://www.w3.org/2000/svg">
<path fill-rule="evenodd" clip-rule="evenodd" d="M6.40753 7.82197L4.04792 5.46236C4.30129 4.06207 5.52655 3 6.99988 3C8.11027 3 9.07975 3.60326 9.59848 4.49991C8.14182 5.13683 6.98689 6.33547 6.40753 7.82197ZM2 15.375C2 13.0564 3.80371 11.159 6.08454 11.0095C6.2625 12.0598 6.71341 13.0173 7.36176 13.8064C6.41092 14.3317 5.60567 15.0881 5.02185 16H2.625C2.27982 16 2 15.7202 2 15.375ZM21.375 16H18.9782C18.3944 15.0881 17.5891 14.3316 16.6383 13.8064C17.2866 13.0173 17.7375 12.0598 17.9154 11.0095C20.1963 11.159 22 13.0563 22 15.375C22 15.7202 21.7202 16 21.375 16ZM19.9999 6C19.9999 7.34591 19.1136 8.48481 17.8928 8.86489C17.517 6.90264 16.1855 5.27989 14.4013 4.49984C14.9201 3.60322 15.8895 3 16.9999 3C18.6567 3 19.9999 4.34315 19.9999 6Z" fill="black"/>
<path fill-rule="evenodd" clip-rule="evenodd" d="M17.9991 19.4136C17.9991 19.4136 17.9991 19.4135 17.9991 19.4134L20.2928 21.7071C20.6833 22.0976 21.3165 22.0976 21.707 21.7071C22.0975 21.3166 22.0975 20.6834 21.707 20.2929L14.5203 13.1062C15.4231 12.3728 15.9999 11.2538 15.9999 10C15.9999 7.79086 14.209 6 11.9999 6C10.7461 6 9.62708 6.57683 8.89368 7.47957L3.707 2.29289C3.31648 1.90237 2.68331 1.90237 2.29279 2.29289C2.29275 2.29293 2.29271 2.29297 2.29268 2.29301L2.29279 2.29312C1.99192 2.59399 1.92297 3.03902 2.08576 3.40607C2.13424 3.51527 2.20325 3.61757 2.29279 3.70711L8.03718 9.4515C8.03717 9.45156 8.03716 9.45163 8.03715 9.45169L12.5482 13.9627C12.5483 13.9627 12.5483 13.9627 12.5484 13.9627L13.5865 15.0008C13.5864 15.0008 13.5863 15.0008 13.5863 15.0008L17.9991 19.4136ZM10.757 15H10.5C8.0147 15 5.99997 17.0147 5.9999 19.4999C5.99987 20.3284 6.67146 21 7.49991 21H16.4999C16.581 21 16.6606 20.9936 16.7382 20.9812L14.757 19H8.04992C8.28159 17.8589 9.29048 17 10.5 17H12.757L10.757 15ZM13.9999 10C13.9999 10.7021 13.6381 11.3198 13.0907 11.6766L10.3233 8.90916C10.6801 8.36181 11.2977 8 11.9999 8C13.1045 8 13.9999 8.89543 13.9999 10Z" fill="black"/>
</svg>
