<svg width="24" height="24" viewBox="0 0 24 24" fill="none" xmlns="http://www.w3.org/2000/svg">
<path d="M17.0999 17V16.1875C17.0999 14.5625 15.4999 13.3438 13.8999 13.3438H13.0999C11.4999 13.3438 9.89994 14.5625 9.89994 16.1875V17M17.0999 17H9.89994M17.0999 17H17.9999M9.89994 17H8.4C7.07452 17 6 15.9087 6 14.5625V7M6 7V6.4375C6 5.09131 7.07452 4 8.4 4L18.5999 4C19.9254 4 20.9999 5.09131 20.9999 6.4375V14.5625C20.9999 15.9087 19.9254 17 18.5999 17H17.9999M6 7H5.4C4.07452 7 3 8.09131 3 9.4375V17.5625C3 18.9087 4.07452 20 5.4 20H6.89994H14.0999H15.5999C16.9254 20 17.9999 18.9087 17.9999 17.5625V17M15.8999 8.875C15.8999 10.2212 14.8254 11.3125 13.4999 11.3125C12.1745 11.3125 11.0999 10.2212 11.0999 8.875C11.0999 7.52881 12.1745 6.4375 13.4999 6.4375C14.8254 6.4375 15.8999 7.52881 15.8999 8.875Z" stroke="black" stroke-width="2"/>
</svg>
