<svg width="24" height="24" viewBox="0 0 24 24" fill="none" xmlns="http://www.w3.org/2000/svg">
<path fill-rule="evenodd" clip-rule="evenodd" d="M6.31436 8.92132C6.11061 8.31812 6.00014 7.67196 6.00014 7C6.00014 5.48262 6.56341 4.09679 7.49226 3.04021C7.33206 3.01376 7.16758 3 6.99988 3C5.34303 3 3.99988 4.34315 3.99988 6C3.99988 7.421 4.98785 8.61125 6.31436 8.92132ZM7.52793 11H6.375C3.95875 11 2 12.9588 2 15.375C2 15.7202 2.27982 16 2.625 16H4.51895C4.67907 13.8952 5.84161 12.0706 7.53023 11.0026C7.52946 11.0017 7.5287 11.0009 7.52793 11ZM19.4812 16H21.375C21.7202 16 22 15.7202 22 15.375C22 12.9588 20.0412 11 17.625 11H16.4724C16.4716 11.0009 16.4708 11.0017 16.4701 11.0026C18.1586 12.0706 19.3212 13.8952 19.4812 16ZM17.686 8.92119C19.0122 8.61091 19.9999 7.4208 19.9999 6C19.9999 4.34315 18.6567 3 16.9999 3C16.8323 3 16.668 3.01373 16.508 3.04014C17.4368 4.09673 18.0001 5.48258 18.0001 7C18.0001 7.67191 17.8897 8.31803 17.686 8.92119Z" fill="black"/>
<path d="M2 20H11H22M15.0001 7C15.0001 8.65685 13.6569 10 12.0001 10C10.3432 10 9.00006 8.65685 9.00006 7C9.00006 5.34315 10.3432 4 12.0001 4C13.6569 4 15.0001 5.34315 15.0001 7ZM7.99993 16.9999H16.0001C16.2762 16.9999 16.5001 16.7761 16.5001 16.5C16.5001 14.567 14.9332 12.9999 13.0002 12.9999H11C9.067 12.9999 7.49998 14.5669 7.49992 16.4999C7.49991 16.7761 7.72378 16.9999 7.99993 16.9999Z" stroke="black" stroke-width="2" stroke-linecap="round"/>
</svg>
