<svg width="24" height="24" viewBox="0 0 24 24" fill="none" xmlns="http://www.w3.org/2000/svg">
<path fill-rule="evenodd" clip-rule="evenodd" d="M7 6C7 4.34315 8.34315 3 10 3C11.6569 3 13 4.34315 13 6C13 7.65685 11.6569 9 10 9C8.34315 9 7 7.65685 7 6ZM10 1C7.23858 1 5 3.23858 5 6C5 8.76142 7.23858 11 10 11C12.7614 11 15 8.76142 15 6C15 3.23858 12.7614 1 10 1ZM10 12C6.13401 12 3 15.134 3 19C3 20.1046 3.89543 21 5 21H11.5997C11.2881 20.3904 11.0868 19.7149 11.0224 19H5C5 16.2386 7.23858 14 10 14C10.9249 14 11.7912 14.2512 12.5344 14.689C13.029 14.1745 13.6227 13.756 14.2849 13.4643C13.1008 12.5464 11.6142 12 10 12Z" fill="black"/>
<path d="M20 22L18.2678 20.2678M18.2678 20.2678C18.7202 19.8154 19 19.1904 19 18.5C19 17.1193 17.8807 16 16.5 16C15.1193 16 14 17.1193 14 18.5C14 19.8807 15.1193 21 16.5 21C17.1904 21 17.8154 20.7202 18.2678 20.2678Z" stroke="black" stroke-width="2" stroke-linecap="round" stroke-linejoin="round"/>
</svg>
