<svg width="24" height="24" viewBox="0 0 24 24" fill="none" xmlns="http://www.w3.org/2000/svg">
<path fill-rule="evenodd" clip-rule="evenodd" d="M8 7C8 5.34315 9.34315 4 11 4C12.6569 4 14 5.34315 14 7C14 8.65685 12.6569 10 11 10C9.34315 10 8 8.65685 8 7ZM11 2C8.23858 2 6 4.23858 6 7C6 9.76142 8.23858 12 11 12C13.7614 12 16 9.76142 16 7C16 4.23858 13.7614 2 11 2ZM4 18C4 16.3431 5.34315 15 7 15H15C15.9051 15 16.7165 15.4008 17.2666 16.0346L18.46 14.8437C18.5399 14.7711 18.6218 14.7043 18.7054 14.6429C17.7906 13.6338 16.4693 13 15 13H7C4.23858 13 2 15.2386 2 18C2 19.1046 2.89543 20 4 20H14.5135C14.8015 19.2823 15.0893 18.5951 15.4453 18.0551L15.4793 18H4Z" fill="black"/>
<path d="M19.6278 17.3703C19.4226 17.1652 19.3201 17.0626 19.3201 16.9351C19.3201 16.8077 19.4226 16.7051 19.6278 16.5L19.7087 16.4191C19.7584 16.3694 19.7832 16.3445 19.8052 16.3245C20.2813 15.8918 21.0083 15.8918 21.4843 16.3245C21.5063 16.3445 21.5312 16.3694 21.5809 16.4191C21.6305 16.4688 21.6555 16.4937 21.6755 16.5157C22.1082 16.9917 22.1082 17.7187 21.6755 18.1948C21.6555 18.2168 21.6306 18.2416 21.5809 18.2913L21.5 18.3722C21.2949 18.5774 21.1923 18.6799 21.0649 18.6799C20.9374 18.6799 20.8348 18.5774 20.6297 18.3722L19.6278 17.3703Z" fill="black"/>
<path d="M19.1926 17.8054C18.9875 17.6003 18.8849 17.4977 18.7575 17.4977C18.63 17.4977 18.5275 17.6003 18.3223 17.8054L17.4773 18.6504C17.26 18.87 17.3941 18.7336 17.115 19.157C16.8358 19.5803 16.6462 20.0544 16.2669 21.0026L16.2126 21.1385C16.0276 21.6009 15.9351 21.8321 16.0515 21.9485C16.1679 22.0649 16.3991 21.9724 16.8615 21.7874L16.9974 21.7331C17.9455 21.3538 18.4197 21.1642 18.843 20.885C19.2664 20.6059 19.13 20.74 19.3496 20.5227L20.1946 19.6777C20.3997 19.4725 20.5023 19.37 20.5023 19.2425C20.5023 19.1151 20.3997 19.0125 20.1946 18.8074L19.1926 17.8054Z" fill="black"/>
</svg>
