<svg width="24" height="24" viewBox="0 0 24 24" fill="none" xmlns="http://www.w3.org/2000/svg">
<path fill-rule="evenodd" clip-rule="evenodd" d="M7 6C7 4.34315 8.34315 3 10 3C11.6569 3 13 4.34315 13 6C13 7.65685 11.6569 9 10 9C8.34315 9 7 7.65685 7 6ZM10 1C7.23858 1 5 3.23858 5 6C5 8.76142 7.23858 11 10 11C12.7614 11 15 8.76142 15 6C15 3.23858 12.7614 1 10 1ZM10 12C6.13401 12 3 15.134 3 19C3 20.1046 3.89543 21 5 21H12.1753C12.1753 20.9995 12.1753 20.999 12.1754 20.9985C11.7612 20.632 11.5 20.0965 11.5 19.5V19H5C5 16.2386 7.23858 14 10 14C11.1825 14 12.2692 14.4105 13.1252 15.0968L13.4645 14.7576C13.8862 14.3358 14.4494 14.1418 15.0014 14.1755C15.0126 14.1628 15.0241 14.1502 15.0357 14.1377C13.7628 12.8197 11.9771 12 10 12Z" fill="black"/>
<path fill-rule="evenodd" clip-rule="evenodd" d="M16 15.5C16 15.2239 16.2239 15 16.5 15H17.5C17.7761 15 18 15.2239 18 15.5C18 15.9007 18.4845 16.1017 18.7678 15.8184C18.963 15.6231 19.2796 15.6231 19.4749 15.8184L20.182 16.5255C20.3773 16.7208 20.3773 17.0373 20.182 17.2326C19.8988 17.5158 20.0995 18 20.5 18C20.7761 18 21 18.2239 21 18.5V19.5C21 19.7761 20.7761 20 20.5 20C20.0992 20 19.8986 20.4846 20.182 20.768C20.3773 20.9633 20.3773 21.2798 20.182 21.4751L19.4749 22.1822C19.2796 22.3775 18.963 22.3775 18.7678 22.1822C18.4845 21.8989 18 22.0994 18 22.5C18 22.7761 17.7761 23 17.5 23H16.5C16.2239 23 16 22.7761 16 22.5C16 22.0995 15.5155 21.8991 15.2323 22.1824C15.037 22.3776 14.7204 22.3776 14.5251 22.1824L13.818 21.4753C13.6228 21.28 13.6228 20.9634 13.818 20.7681C14.1015 20.4847 13.9008 20 13.5 20C13.2239 20 13 19.7761 13 19.5V18.5C13 18.2239 13.2239 18 13.5 18C13.9006 18 14.1013 17.5157 13.818 17.2325C13.6228 17.0372 13.6228 16.7206 13.818 16.5254L14.5251 15.8182C14.7204 15.623 15.037 15.623 15.2322 15.8182C15.5156 16.1016 16 15.9007 16 15.5ZM17 21C18.1046 21 19 20.1046 19 19C19 17.8954 18.1046 17 17 17C15.8954 17 15 17.8954 15 19C15 20.1046 15.8954 21 17 21Z" fill="black"/>
</svg>
