<svg width="24" height="24" viewBox="0 0 24 24" fill="none" xmlns="http://www.w3.org/2000/svg">
<path fill-rule="evenodd" clip-rule="evenodd" d="M3.69172 2.27783C3.30013 1.90244 2.67833 1.90746 2.29289 2.29289C1.90237 2.68342 1.90237 3.31658 2.29289 3.70711L7.01846 8.43267C7.22557 10.8489 9.15108 12.7744 11.5673 12.9815L12.5858 14H8C5.23858 14 3 16.2386 3 19C3 20.1046 3.89543 21 5 21H19C19.1792 21 19.3528 20.9764 19.518 20.9323L20.2929 21.7071C20.6834 22.0976 21.3166 22.0976 21.7071 21.7071C22.0925 21.3217 22.0976 20.6999 21.7222 20.3083L21.7072 20.2933L3.70716 2.29327L3.69172 2.27783ZM15.6546 11.4123C16.4892 10.5188 17 9.31908 17 8C17 5.23858 14.7614 3 12 3C10.6809 3 9.48115 3.51079 8.58769 4.34537L10.0033 5.76096C10.5336 5.28767 11.2332 5 12 5C13.6569 5 15 6.34315 15 8C15 8.76677 14.7123 9.46636 14.239 9.99672L15.6546 11.4123ZM8 16H14.5858L17.5858 19H5C5 17.3431 6.34315 16 8 16Z" fill="black"/>
</svg>
