<svg width="24" height="24" viewBox="0 0 24 24" fill="none" xmlns="http://www.w3.org/2000/svg">
<path fill-rule="evenodd" clip-rule="evenodd" d="M8 7C8 5.34315 9.34315 4 11 4C12.6569 4 14 5.34315 14 7C14 8.65685 12.6569 10 11 10C9.34315 10 8 8.65685 8 7ZM11 2C8.23858 2 6 4.23858 6 7C6 9.76142 8.23858 12 11 12C13.7614 12 16 9.76142 16 7C16 4.23858 13.7614 2 11 2ZM4 18C4 16.3431 5.34315 15 7 15H13.3744C13.469 14.8067 13.5967 14.6254 13.7574 14.4647L14.4645 13.7576C14.8862 13.3358 15.4494 13.1418 16.0014 13.1755C16.0203 13.1541 16.0397 13.1331 16.0596 13.1125C15.7181 13.0388 15.3636 13 15 13H7C4.23858 13 2 15.2386 2 18C2 19.1046 2.89543 20 4 20H13.1753C13.1753 19.9995 13.1753 19.999 13.1754 19.9985C12.7612 19.632 12.5 19.0965 12.5 18.5V18H4Z" fill="black"/>
<path fill-rule="evenodd" clip-rule="evenodd" d="M17 14.5C17 14.2239 17.2239 14 17.5 14H18.5C18.7761 14 19 14.2239 19 14.5C19 14.9007 19.4845 15.1017 19.7678 14.8184C19.963 14.6231 20.2796 14.6231 20.4749 14.8184L21.182 15.5255C21.3773 15.7208 21.3773 16.0373 21.182 16.2326C20.8988 16.5158 21.0995 17 21.5 17C21.7761 17 22 17.2239 22 17.5V18.5C22 18.7761 21.7761 19 21.5 19C21.0992 19 20.8986 19.4846 21.182 19.768C21.3773 19.9633 21.3773 20.2798 21.182 20.4751L20.4749 21.1822C20.2796 21.3775 19.963 21.3775 19.7678 21.1822C19.4845 20.8989 19 21.0994 19 21.5C19 21.7761 18.7761 22 18.5 22H17.5C17.2239 22 17 21.7761 17 21.5C17 21.0995 16.5155 20.8991 16.2323 21.1824C16.037 21.3776 15.7204 21.3776 15.5251 21.1824L14.818 20.4753C14.6228 20.28 14.6228 19.9634 14.818 19.7681C15.1015 19.4847 14.9008 19 14.5 19C14.2239 19 14 18.7761 14 18.5V17.5C14 17.2239 14.2239 17 14.5 17C14.9006 17 15.1013 16.5157 14.818 16.2325C14.6228 16.0372 14.6228 15.7206 14.818 15.5254L15.5251 14.8182C15.7204 14.623 16.037 14.623 16.2322 14.8182C16.5156 15.1016 17 14.9007 17 14.5ZM18 20C19.1046 20 20 19.1046 20 18C20 16.8954 19.1046 16 18 16C16.8954 16 16 16.8954 16 18C16 19.1046 16.8954 20 18 20Z" fill="black"/>
</svg>
