<svg width="24" height="24" viewBox="0 0 24 24" fill="none" xmlns="http://www.w3.org/2000/svg">
<path fill-rule="evenodd" clip-rule="evenodd" d="M7 6C7 4.34315 8.34315 3 10 3C11.6569 3 13 4.34315 13 6C13 7.65685 11.6569 9 10 9C8.34315 9 7 7.65685 7 6ZM10 1C7.23858 1 5 3.23858 5 6C5 8.76142 7.23858 11 10 11C12.7614 11 15 8.76142 15 6C15 3.23858 12.7614 1 10 1ZM4 17C4 15.2227 5.1599 13.7138 6.76622 13.1936L8.75062 14.7811C9.48105 15.3655 10.5189 15.3655 11.2494 14.7811L13.2338 13.1936C13.7027 13.3454 14.1335 13.5815 14.5085 13.8839C15.1153 13.4899 15.8045 13.2123 16.5447 13.0827C15.8117 12.2331 14.8445 11.5915 13.7437 11.2576C13.0968 11.0614 12.4571 11.2537 12.0101 11.6113L10 13.2194L7.98993 11.6113C7.54287 11.2537 6.90324 11.0614 6.25631 11.2576C3.79401 12.0044 2 14.2914 2 17V19C2 20.1046 2.89543 21 4 21H12.5997C12.2881 20.3904 12.0868 19.7149 12.0224 19H4V17Z" fill="black"/>
<path d="M21 22L19.2678 20.2678M19.2678 20.2678C19.7202 19.8154 20 19.1904 20 18.5C20 17.1193 18.8807 16 17.5 16C16.1193 16 15 17.1193 15 18.5C15 19.8807 16.1193 21 17.5 21C18.1904 21 18.8154 20.7202 19.2678 20.2678Z" stroke="black" stroke-width="2" stroke-linecap="round" stroke-linejoin="round"/>
</svg>
