<svg width="24" height="24" viewBox="0 0 24 24" fill="none" xmlns="http://www.w3.org/2000/svg">
<path fill-rule="evenodd" clip-rule="evenodd" d="M7 6C7 4.34315 8.34315 3 10 3C11.6569 3 13 4.34315 13 6C13 7.65685 11.6569 9 10 9C8.34315 9 7 7.65685 7 6ZM10 1C7.23858 1 5 3.23858 5 6C5 8.76142 7.23858 11 10 11C12.7614 11 15 8.76142 15 6C15 3.23858 12.7614 1 10 1ZM8.00109 12.0671C7.99149 11.7729 7.85278 11.4979 7.62191 11.3153C7.39105 11.1327 7.09148 11.0612 6.80302 11.1196C4.06294 11.6749 2 14.0954 2 17V19C2 20.1046 2.89543 21 4 21H14.6693C14.5238 20.7722 14.3886 20.5404 14.2639 20.3071C14.0408 19.8902 13.8419 19.4517 13.6716 19H4V17C4 15.4182 4.91884 14.0495 6.2522 13.4007C6.81994 14.9192 8.28362 16 10 16C11.7164 16 13.1801 14.9192 13.7478 13.4007C13.932 13.4903 14.1082 13.5937 14.2753 13.7094C14.4536 13.6078 14.6429 13.5283 14.8376 13.4738C15.3505 13.33 15.9033 13.1391 16.3945 12.9149C15.5577 12.0153 14.4479 11.3731 13.197 11.1196C12.9085 11.0612 12.6089 11.1327 12.3781 11.3153C12.1472 11.4979 12.0085 11.7729 11.9989 12.0671C11.9639 13.1402 11.0821 14 10 14C8.91786 14 8.03613 13.1402 8.00109 12.0671Z" fill="black"/>
<path d="M21.9961 15.8909C21.914 19.8979 20.5525 20.9497 18.7233 21.8871C18.5832 21.9589 18.4168 21.9589 18.2767 21.8871C16.4475 20.9497 15.086 19.8979 15.0039 15.8909C14.9992 15.6615 15.1562 15.4619 15.3771 15.4C16.242 15.1577 17.34 14.7622 18.192 14.2137C18.3788 14.0933 18.6212 14.0933 18.808 14.2137C19.66 14.7622 20.758 15.1577 21.6229 15.4C21.8438 15.4619 22.0008 15.6615 21.9961 15.8909Z" fill="black"/>
</svg>
