<svg width="24" height="24" viewBox="0 0 24 24" fill="none" xmlns="http://www.w3.org/2000/svg">
<path fill-rule="evenodd" clip-rule="evenodd" d="M3.69172 2.27783C3.30013 1.90244 2.67833 1.90746 2.29289 2.29289C1.90237 2.68342 1.90237 3.31658 2.29289 3.70711L7.3025 8.71672C7.80712 10.0971 8.90286 11.1929 10.2833 11.6975L12.4473 13.8615L12 14.2194L9.98993 12.6113C9.54287 12.2537 8.90324 12.0614 8.25631 12.2576C5.79401 13.0044 4 15.2914 4 18V20C4 21.1046 4.89543 22 6 22H18C18.7021 22 19.3198 21.6382 19.6766 21.0908L20.2929 21.7071C20.6834 22.0976 21.3166 22.0976 21.7071 21.7071C22.0925 21.3217 22.0976 20.6999 21.7222 20.3083L21.7072 20.2933L3.70716 2.29327L3.69172 2.27783ZM15.1365 10.8941C16.273 9.97761 17 8.57371 17 7C17 4.23858 14.7614 2 12 2C10.4263 2 9.02239 2.72703 8.10586 3.86354L9.53375 5.29143C10.0754 4.511 10.978 4 12 4C13.6569 4 15 5.34315 15 7C15 8.02196 14.489 8.92457 13.7086 9.46625L15.1365 10.8941ZM13.2494 15.7811L13.8702 15.2844L18 19.4142V20H6V18C6 16.2227 7.1599 14.7138 8.76622 14.1936L10.7506 15.7811C11.4811 16.3655 12.5189 16.3655 13.2494 15.7811Z" fill="black"/>
</svg>
