<svg width="24" height="24" viewBox="0 0 24 24" fill="none" xmlns="http://www.w3.org/2000/svg">
<path d="M19 9L21 7M19 9L17 7M19 9L17 11M19 9L21 11M17 18V20C17 20.5523 16.5523 21 16 21H4C3.44772 21 3 20.5523 3 20V18C3 15.7441 4.494 13.8371 6.54657 13.2145C6.83022 13.1285 7.13378 13.207 7.36524 13.3922L9.37531 15.0003C9.74053 15.2924 10.2595 15.2924 10.6247 15.0003L12.6348 13.3922C12.8662 13.207 13.1698 13.1285 13.4534 13.2145C15.506 13.8371 17 15.7441 17 18ZM14 7C14 9.20914 12.2091 11 10 11C7.79086 11 6 9.20914 6 7C6 4.79086 7.79086 3 10 3C12.2091 3 14 4.79086 14 7Z" stroke="black" stroke-width="2" stroke-linecap="round" stroke-linejoin="round"/>
</svg>
