<svg width="24" height="24" viewBox="0 0 24 24" fill="none" xmlns="http://www.w3.org/2000/svg">
<path fill-rule="evenodd" clip-rule="evenodd" d="M8 6C8 4.34315 9.34315 3 11 3C12.6569 3 14 4.34315 14 6C14 7.65685 12.6569 9 11 9C9.34315 9 8 7.65685 8 6ZM11 1C8.23858 1 6 3.23858 6 6C6 8.76142 8.23858 11 11 11C13.7614 11 16 8.76142 16 6C16 3.23858 13.7614 1 11 1ZM9 12C5.68629 12 3 14.6863 3 18V19C3 20.1046 3.89543 21 5 21H11V19H5V18C5 15.7909 6.79086 14 9 14H13C13.3515 14 13.6924 14.0453 14.0172 14.1305C14.6654 13.5563 15.4805 13.1662 16.3805 13.0423C15.4179 12.3846 14.2539 12 13 12H9Z" fill="black"/>
<path fill-rule="evenodd" clip-rule="evenodd" d="M17 15C15.6193 15 14.5 16.1193 14.5 17.5V18H14C13.4477 18 13 18.4477 13 19V22C13 22.5523 13.4477 23 14 23H20C20.5523 23 21 22.5523 21 22V19C21 18.4477 20.5523 18 20 18H19.5V17.5C19.5 16.1193 18.3807 15 17 15ZM17.5 18V17.5C17.5 17.2239 17.2761 17 17 17C16.7239 17 16.5 17.2239 16.5 17.5V18H17.5ZM17.75 20.5C17.75 20.9142 17.4142 21.25 17 21.25C16.5858 21.25 16.25 20.9142 16.25 20.5C16.25 20.0858 16.5858 19.75 17 19.75C17.4142 19.75 17.75 20.0858 17.75 20.5Z" fill="black"/>
</svg>
