<svg width="24" height="24" viewBox="0 0 24 24" fill="none" xmlns="http://www.w3.org/2000/svg">
<path fill-rule="evenodd" clip-rule="evenodd" d="M8 6C8 4.34315 9.34315 3 11 3C12.6569 3 14 4.34315 14 6C14 7.65685 12.6569 9 11 9C9.34315 9 8 7.65685 8 6ZM11 1C8.23858 1 6 3.23858 6 6C6 8.76142 8.23858 11 11 11C13.7614 11 16 8.76142 16 6C16 3.23858 13.7614 1 11 1ZM9 12C5.68629 12 3 14.6863 3 18V19C3 20.1046 3.89543 21 5 21H11.5997C11.2881 20.3904 11.0868 19.7149 11.0224 19H5V18C5 15.7909 6.79086 14 9 14H13C13.1074 14 13.2139 14.0042 13.3192 14.0125C14.172 13.4069 15.205 13.0383 16.322 13.0028C15.3709 12.3693 14.2286 12 13 12H9Z" fill="black"/>
<path d="M20 22L18.2678 20.2678M18.2678 20.2678C18.7202 19.8154 19 19.1904 19 18.5C19 17.1193 17.8807 16 16.5 16C15.1193 16 14 17.1193 14 18.5C14 19.8807 15.1193 21 16.5 21C17.1904 21 17.8154 20.7202 18.2678 20.2678Z" stroke="black" stroke-width="2" stroke-linecap="round" stroke-linejoin="round"/>
</svg>
