<svg width="24" height="24" viewBox="0 0 24 24" fill="none" xmlns="http://www.w3.org/2000/svg">
<path d="M9 12C11.2091 12 13 10.2091 13 8C13 5.79086 11.2091 4 9 4C6.79086 4 5 5.79086 5 8C5 10.2091 6.79086 12 9 12Z" stroke="black" stroke-width="2"/>
<path d="M12 15H6C3.79086 15 2 16.7909 2 19C2 19.5523 2.44772 20 3 20H15C15.5523 20 16 19.5523 16 19C16 16.7909 14.2091 15 12 15Z" stroke="black" stroke-width="2"/>
<path fill-rule="evenodd" clip-rule="evenodd" d="M17 3C15.8954 3 15 3.89543 15 5V8V11.5C15 11.7761 15.2347 11.9976 15.474 11.8598C16.0253 11.5423 16.5256 10.7379 16.7939 9.98951C16.8617 9.99645 16.9304 10 17 10H21C22.1046 10 23 9.10457 23 8V5C23 3.89543 22.1046 3 21 3H17ZM17 8H21V5H17V8Z" fill="black"/>
</svg>
