<svg width="24" height="24" viewBox="0 0 24 24" fill="none" xmlns="http://www.w3.org/2000/svg">
<path fill-rule="evenodd" clip-rule="evenodd" d="M3.68901 2.27524C3.29726 1.90246 2.67744 1.90835 2.29289 2.29289C1.90237 2.68342 1.90237 3.31658 2.29289 3.70711L7.3025 8.71672C7.80712 10.0971 8.90286 11.1929 10.2833 11.6975L11.5858 13H10C6.68629 13 4 15.6863 4 19V20C4 21.1046 4.89543 22 6 22H18C18.7021 22 19.3198 21.6382 19.6766 21.0908L20.2929 21.7071C20.6834 22.0976 21.3166 22.0976 21.7071 21.7071C22.0917 21.3226 22.0975 20.7027 21.7248 20.311L21.707 20.2933L3.70704 2.29327L3.68901 2.27524ZM15.1364 10.8942C16.2729 9.97766 17 8.57374 17 7C17 4.23858 14.7614 2 12 2C10.4263 2 9.02234 2.72706 8.1058 3.86361L9.5337 5.2915C10.0754 4.51103 10.978 4 12 4C13.6569 4 15 5.34315 15 7C15 8.02199 14.489 8.92462 13.7085 9.4663L15.1364 10.8942ZM10 15H13.5858L18 19.4142V20H6V19C6 16.7909 7.79086 15 10 15Z" fill="black"/>
</svg>
