<svg width="24" height="24" viewBox="0 0 24 24" fill="none" xmlns="http://www.w3.org/2000/svg">
<path fill-rule="evenodd" clip-rule="evenodd" d="M8 7C8 5.34315 9.34315 4 11 4C12.6569 4 14 5.34315 14 7C14 8.65685 12.6569 10 11 10C9.34315 10 8 8.65685 8 7ZM11 2C8.23858 2 6 4.23858 6 7C6 9.76142 8.23858 12 11 12C13.7614 12 16 9.76142 16 7C16 4.23858 13.7614 2 11 2ZM4 18C4 16.3431 5.34315 15 7 15H12.5831C12.855 14.4972 13.2205 14.0339 13.6769 13.6367C13.9746 13.3777 14.2862 13.1668 14.606 13H7C4.23858 13 2 15.2386 2 18C2 19.1046 2.89543 20 4 20H12.8218C12.4065 19.3821 12.1509 18.6982 12.0497 18H4Z" fill="black"/>
<path d="M17.9979 16.1526L17.2322 16.7957C17.4222 17.022 17.7025 17.1526 17.9979 17.1526C18.2934 17.1526 18.5737 17.022 18.7637 16.7957L17.9979 16.1526ZM17.9979 21L17.3331 21.747C17.7122 22.0843 18.2837 22.0843 18.6628 21.747L17.9979 21ZM18.7637 15.5095C17.8718 14.4475 16.2384 14.0595 14.9899 15.1459L16.3029 16.6546C16.4621 16.516 16.6131 16.4868 16.7476 16.5047C16.8968 16.5245 17.0778 16.6118 17.2322 16.7957L18.7637 15.5095ZM14.9899 15.1459C13.8425 16.1445 13.6727 17.8331 14.5842 19.0278L16.1743 17.8146C15.9055 17.4624 15.9473 16.9641 16.3029 16.6546L14.9899 15.1459ZM21.4116 19.0278C22.3146 17.8444 22.1793 16.1391 20.9956 15.137L19.7034 16.6635C20.0485 16.9557 20.099 17.4511 19.8216 17.8146L21.4116 19.0278ZM20.9956 15.137C19.7445 14.0779 18.1317 14.4384 17.2322 15.5095L18.7637 16.7957C18.9187 16.6112 19.0962 16.5266 19.2419 16.5075C19.3745 16.4901 19.5319 16.5183 19.7034 16.6635L20.9956 15.137ZM14.5842 19.0278C14.9381 19.4916 15.6568 20.1933 16.2237 20.7281C16.5198 21.0074 16.7965 21.2615 16.999 21.4457C17.1003 21.5378 17.1834 21.6127 17.2413 21.6648C17.2702 21.6908 17.2929 21.7111 17.3085 21.7251C17.3163 21.732 17.3223 21.7374 17.3265 21.7411C17.3286 21.7429 17.3301 21.7444 17.3313 21.7453C17.3318 21.7458 17.3323 21.7462 17.3326 21.7465C17.3327 21.7466 17.3329 21.7468 17.3329 21.7468C17.333 21.7469 17.333 21.7469 17.3331 21.747C17.3331 21.747 17.3331 21.747 17.9979 21C18.6628 20.253 18.6628 20.253 18.6628 20.253C18.6628 20.253 18.6628 20.253 18.6628 20.253C18.6627 20.253 18.6627 20.2529 18.6626 20.2528C18.6624 20.2527 18.6621 20.2524 18.6617 20.252C18.6608 20.2513 18.6595 20.2501 18.6577 20.2485C18.6542 20.2453 18.6487 20.2405 18.6415 20.234C18.6271 20.2211 18.6056 20.2019 18.578 20.1771C18.5227 20.1274 18.4426 20.0552 18.3446 19.966C18.1482 19.7875 17.8809 19.5419 17.5961 19.2733C17.0012 18.712 16.4106 18.1243 16.1743 17.8146L14.5842 19.0278ZM17.9979 21C18.6628 21.747 18.6628 21.747 18.6628 21.747C18.6628 21.7469 18.6629 21.7469 18.6629 21.7468C18.663 21.7468 18.6632 21.7466 18.6633 21.7465C18.6636 21.7462 18.6641 21.7458 18.6646 21.7453C18.6657 21.7444 18.6673 21.7429 18.6694 21.7411C18.6735 21.7374 18.6796 21.732 18.6874 21.7251C18.7029 21.7111 18.7256 21.6908 18.7546 21.6648C18.8125 21.6127 18.8956 21.5378 18.9969 21.4457C19.1994 21.2615 19.4761 21.0074 19.7722 20.7281C20.339 20.1933 21.0578 19.4916 21.4116 19.0278L19.8216 17.8146C19.5853 18.1243 18.9947 18.712 18.3998 19.2733C18.115 19.5419 17.8477 19.7875 17.6513 19.966C17.5533 20.0552 17.4732 20.1274 17.4179 20.1771C17.3903 20.2019 17.3688 20.2211 17.3544 20.234C17.3472 20.2405 17.3417 20.2453 17.3382 20.2485C17.3364 20.2501 17.335 20.2513 17.3342 20.252C17.3338 20.2524 17.3335 20.2527 17.3333 20.2528C17.3332 20.2529 17.3332 20.253 17.3331 20.253C17.3331 20.253 17.3331 20.253 17.3331 20.253C17.3331 20.253 17.3331 20.253 17.9979 21Z" fill="black"/>
</svg>
