<svg width="24" height="24" viewBox="0 0 24 24" fill="none" xmlns="http://www.w3.org/2000/svg">
<path fill-rule="evenodd" clip-rule="evenodd" d="M7 6C7 4.34315 8.34315 3 10 3C11.6569 3 13 4.34315 13 6C13 7.65685 11.6569 9 10 9C8.34315 9 7 7.65685 7 6ZM10 1C7.23858 1 5 3.23858 5 6C5 8.76142 7.23858 11 10 11C12.7614 11 15 8.76142 15 6C15 3.23858 12.7614 1 10 1ZM10 12C6.13401 12 3 15.134 3 19C3 20.1046 3.89543 21 5 21H12.207C12.0722 20.5232 12 20.02 12 19.5C12 19.3315 12.0076 19.1647 12.0224 19H5C5 16.2386 7.23858 14 10 14C11.4372 14 12.7328 14.6064 13.6449 15.5773C14.1252 15.1051 14.6919 14.7205 15.3191 14.4493C14.0353 12.9501 12.1286 12 10 12Z" fill="black"/>
<path fill-rule="evenodd" clip-rule="evenodd" d="M17.5 23C19.433 23 21 21.433 21 19.5C21 17.567 19.433 16 17.5 16C15.567 16 14 17.567 14 19.5C14 21.433 15.567 23 17.5 23ZM18 18C18 17.7239 17.7761 17.5 17.5 17.5C17.2239 17.5 17 17.7239 17 18V19.7929C17 20.0581 17.1054 20.3125 17.2929 20.5L17.8964 21.1036C18.0917 21.2988 18.4083 21.2988 18.6036 21.1036C18.7988 20.9083 18.7988 20.5917 18.6036 20.3964L18 19.7929V18Z" fill="black"/>
</svg>
