<svg width="24" height="24" viewBox="0 0 24 24" fill="none" xmlns="http://www.w3.org/2000/svg">
<path fill-rule="evenodd" clip-rule="evenodd" d="M9.59848 3.49991C7.81438 4.28 6.4829 5.90273 6.1072 7.86495C4.88629 7.48493 3.99988 6.34598 3.99988 5C3.99988 3.34315 5.34303 2 6.99988 2C8.11027 2 9.07975 2.60326 9.59848 3.49991ZM2 14.375C2 12.0564 3.80371 10.159 6.08454 10.0095C6.2625 11.0598 6.71341 12.0173 7.36176 12.8064C6.41092 13.3317 5.60567 14.0881 5.02185 15H2.625C2.27982 15 2 14.7202 2 14.375ZM16.773 12.6362C16.9983 12.5483 17.2435 12.5 17.5 12.5H18.5C19.0967 12.5 19.6323 12.7613 19.9988 13.1757C20.5507 13.142 21.1138 13.336 21.5356 13.7577L21.9973 14.2195C21.9188 11.972 20.1451 10.1556 17.9154 10.0095C17.7501 10.9854 17.3491 11.8812 16.773 12.6362ZM19.9999 5C19.9999 6.34591 19.1136 7.48481 17.8928 7.86489C17.517 5.90264 16.1855 4.27989 14.4013 3.49984C14.9201 2.60322 15.8895 2 16.9999 2C18.6567 2 19.9999 3.34315 19.9999 5Z" fill="black"/>
<path fill-rule="evenodd" clip-rule="evenodd" d="M9.99998 9C9.99998 7.89543 10.8954 7 12 7C13.1046 7 14 7.89543 14 9C14 10.1046 13.1046 11 12 11C10.8954 11 9.99998 10.1046 9.99998 9ZM12 5C9.79085 5 7.99998 6.79086 7.99998 9C7.99998 11.2091 9.79085 13 12 13C14.2091 13 16 11.2091 16 9C16 6.79086 14.2091 5 12 5ZM10.5001 14C8.01481 14 6.00007 16.0147 6 18.4999C5.99998 19.3284 6.67156 20 7.50001 20H13.1753C13.1753 19.9995 13.1753 19.999 13.1754 19.9985C12.7612 19.632 12.5 19.0965 12.5 18.5V18H8.05002C8.28169 16.8589 9.29059 16 10.5001 16H13.1752C13.142 15.4486 13.336 14.886 13.7574 14.4647L14.1722 14.0499C13.9529 14.017 13.7285 14 13.5001 14H10.5001Z" fill="black"/>
<path fill-rule="evenodd" clip-rule="evenodd" d="M17 14.5C17 14.2239 17.2239 14 17.5 14H18.5C18.7761 14 19 14.2239 19 14.5C19 14.9007 19.4845 15.1017 19.7678 14.8184C19.963 14.6231 20.2796 14.6231 20.4749 14.8184L21.182 15.5255C21.3773 15.7208 21.3773 16.0373 21.182 16.2326C20.8988 16.5158 21.0995 17 21.5 17C21.7761 17 22 17.2239 22 17.5V18.5C22 18.7761 21.7761 19 21.5 19C21.0992 19 20.8986 19.4846 21.182 19.768C21.3773 19.9633 21.3773 20.2798 21.182 20.4751L20.4749 21.1822C20.2796 21.3775 19.963 21.3775 19.7678 21.1822C19.4845 20.8989 19 21.0994 19 21.5C19 21.7761 18.7761 22 18.5 22H17.5C17.2239 22 17 21.7761 17 21.5C17 21.0995 16.5155 20.8991 16.2323 21.1824C16.037 21.3776 15.7204 21.3776 15.5251 21.1824L14.818 20.4753C14.6228 20.28 14.6228 19.9634 14.818 19.7681C15.1015 19.4847 14.9008 19 14.5 19C14.2239 19 14 18.7761 14 18.5V17.5C14 17.2239 14.2239 17 14.5 17C14.9006 17 15.1013 16.5157 14.818 16.2325C14.6228 16.0372 14.6228 15.7206 14.818 15.5254L15.5251 14.8182C15.7204 14.623 16.037 14.623 16.2322 14.8182C16.5156 15.1016 17 14.9007 17 14.5ZM18 20C19.1046 20 20 19.1046 20 18C20 16.8954 19.1046 16 18 16C16.8954 16 16 16.8954 16 18C16 19.1046 16.8954 20 18 20Z" fill="black"/>
</svg>
