<svg width="24" height="24" viewBox="0 0 24 24" fill="none" xmlns="http://www.w3.org/2000/svg">
<path d="M16 20V18C16 15.7441 14.506 13.8371 12.4534 13.2145C12.1698 13.1285 11.8662 13.207 11.6348 13.3922L9.62469 15.0003C9.25947 15.2924 8.74053 15.2924 8.37531 15.0003L6.36524 13.3922C6.13378 13.207 5.83022 13.1285 5.54657 13.2145C3.494 13.8371 2 15.7441 2 18V20C2 20.5523 2.44772 21 3 21H15C15.5523 21 16 20.5523 16 20Z" stroke="black" stroke-width="2"/>
<path d="M9 11C11.2091 11 13 9.20914 13 7C13 4.79086 11.2091 3 9 3C6.79086 3 5 4.79086 5 7C5 9.20914 6.79086 11 9 11Z" stroke="black" stroke-width="2"/>
<path fill-rule="evenodd" clip-rule="evenodd" d="M17 3C15.8954 3 15 3.89543 15 5V8V11.5C15 11.7761 15.2347 11.9976 15.474 11.8598C16.0253 11.5423 16.5256 10.7379 16.7939 9.98951C16.8617 9.99645 16.9304 10 17 10H21C22.1046 10 23 9.10457 23 8V5C23 3.89543 22.1046 3 21 3H17ZM17 8H21V5H17V8Z" fill="black"/>
</svg>
