<svg width="24" height="24" viewBox="0 0 24 24" fill="none" xmlns="http://www.w3.org/2000/svg">
<path fill-rule="evenodd" clip-rule="evenodd" d="M7 6C7 4.34315 8.34315 3 10 3C11.6569 3 13 4.34315 13 6C13 7.65685 11.6569 9 10 9C8.34315 9 7 7.65685 7 6ZM10 1C7.23858 1 5 3.23858 5 6C5 8.76142 7.23858 11 10 11C12.7614 11 15 8.76142 15 6C15 3.23858 12.7614 1 10 1ZM10 12C6.13401 12 3 15.134 3 19C3 20.1046 3.89543 21 5 21H13.1059C12.793 20.3673 12.5355 19.6918 12.348 19H5C5 16.2386 7.23858 14 10 14C11.0937 14 12.1053 14.3511 12.9283 14.9468C13.1988 14.7273 13.5105 14.5654 13.8376 14.4738C14.2127 14.3686 14.6092 14.2383 14.9873 14.0881C13.7177 12.7991 11.9522 12 10 12Z" fill="black"/>
<path d="M20.9961 16.8909C20.914 20.8979 19.5525 21.9497 17.7233 22.8871C17.5832 22.9589 17.4168 22.9589 17.2767 22.8871C15.4475 21.9497 14.086 20.8979 14.0039 16.8909C13.9992 16.6615 14.1562 16.4619 14.3771 16.4C15.242 16.1577 16.34 15.7622 17.192 15.2137C17.3788 15.0933 17.6212 15.0933 17.808 15.2137C18.66 15.7622 19.758 16.1577 20.6229 16.4C20.8438 16.4619 21.0008 16.6615 20.9961 16.8909Z" fill="black"/>
</svg>
