<svg width="24" height="24" viewBox="0 0 24 24" fill="none" xmlns="http://www.w3.org/2000/svg">
<path d="M15.5 20V19.1875C15.5 17.5625 14.0002 16.3438 12.4002 16.3438H11.6001C10.0001 16.3438 8.5 17.5625 8.5 19.1875V20M15.5 20H20C21.1046 20 22 19.1046 22 18V8C22 6.89543 21.1046 6 20 6H14.2426C13.447 6 12.6839 5.68393 12.1213 5.12132L11.8787 4.87868C11.3161 4.31607 10.553 4 9.75736 4H4C2.89543 4 2 4.89543 2 6V18C2 19.1046 2.89543 20 4 20H8.5M15.5 20H8.5M14.4 11.4375C14.4 12.7837 13.3255 13.875 12 13.875C10.6745 13.875 9.6 12.7837 9.6 11.4375C9.6 10.0913 10.6745 9 12 9C13.3255 9 14.4 10.0913 14.4 11.4375Z" stroke="black" stroke-width="2"/>
</svg>
