<svg width="24" height="24" viewBox="0 0 24 24" fill="none" xmlns="http://www.w3.org/2000/svg">
<path d="M19 20V18C19 15.5805 17.2814 13.5623 14.9984 13.0997C14.9458 14.7104 13.6235 16 12 16C10.3765 16 9.05421 14.7104 9.00163 13.0997C6.71858 13.5623 5 15.5805 5 18V20C5 20.5523 5.44772 21 6 21H18C18.5523 21 19 20.5523 19 20Z" stroke="black" stroke-width="2" stroke-linejoin="round"/>
<path d="M12 11C14.2091 11 16 9.20914 16 7C16 4.79086 14.2091 3 12 3C9.79086 3 8 4.79086 8 7C8 9.20914 9.79086 11 12 11Z" stroke="black" stroke-width="2" stroke-linejoin="round"/>
</svg>
