<svg width="24" height="24" viewBox="0 0 24 24" fill="none" xmlns="http://www.w3.org/2000/svg">
<path fill-rule="evenodd" clip-rule="evenodd" d="M7 6C7 4.34315 8.34315 3 10 3C11.6569 3 13 4.34315 13 6C13 7.65685 11.6569 9 10 9C8.34315 9 7 7.65685 7 6ZM10 1C7.23858 1 5 3.23858 5 6C5 8.76142 7.23858 11 10 11C12.7614 11 15 8.76142 15 6C15 3.23858 12.7614 1 10 1ZM4 17C4 15.2227 5.1599 13.7138 6.76622 13.1936L8.75062 14.7811C9.48105 15.3655 10.5189 15.3655 11.2494 14.7811L13.2338 13.1936C13.6082 13.3149 13.9584 13.4898 14.2753 13.7094C14.4536 13.6078 14.6429 13.5283 14.8376 13.4738C15.3505 13.33 15.9033 13.1391 16.3944 12.9149C15.6816 12.1486 14.7708 11.5691 13.7437 11.2576C13.0968 11.0614 12.4571 11.2537 12.0101 11.6113L10 13.2194L7.98993 11.6113C7.54287 11.2537 6.90324 11.0614 6.25631 11.2576C3.79401 12.0044 2 14.2914 2 17V19C2 20.1046 2.89543 21 4 21H14.6693C14.5238 20.7722 14.3886 20.5404 14.2639 20.3071C14.0408 19.8902 13.8419 19.4517 13.6716 19H4V17Z" fill="black"/>
<path d="M21.9961 15.8909C21.914 19.8979 20.5525 20.9497 18.7233 21.8871C18.5832 21.9589 18.4168 21.9589 18.2767 21.8871C16.4475 20.9497 15.086 19.8979 15.0039 15.8909C14.9992 15.6615 15.1562 15.4619 15.3771 15.4C16.242 15.1577 17.34 14.7622 18.192 14.2137C18.3788 14.0933 18.6212 14.0933 18.808 14.2137C19.66 14.7622 20.758 15.1577 21.6229 15.4C21.8438 15.4619 22.0008 15.6615 21.9961 15.8909Z" fill="black"/>
</svg>
