<svg width="24" height="24" viewBox="0 0 24 24" fill="none" xmlns="http://www.w3.org/2000/svg">
<path fill-rule="evenodd" clip-rule="evenodd" d="M7 6C7 4.34315 8.34315 3 10 3C11.6569 3 13 4.34315 13 6C13 7.65685 11.6569 9 10 9C8.34315 9 7 7.65685 7 6ZM10 1C7.23858 1 5 3.23858 5 6C5 8.76142 7.23858 11 10 11C12.7614 11 15 8.76142 15 6C15 3.23858 12.7614 1 10 1ZM4 17C4 15.2227 5.1599 13.7138 6.76622 13.1936L8.75062 14.7811C9.48105 15.3655 10.5189 15.3655 11.2494 14.7811L11.5177 14.5664C11.8797 13.3152 13.0338 12.4004 14.4016 12.4004H15.8526C15.2412 11.8878 14.5262 11.4949 13.7437 11.2576C13.0968 11.0614 12.4571 11.2537 12.0101 11.6113L10 13.2194L7.98993 11.6113C7.54287 11.2537 6.90324 11.0614 6.25631 11.2576C3.79401 12.0044 2 14.2914 2 17V19C2 20.1046 2.89543 21 4 21H13.1645L12.2791 20.1146C11.9614 19.7969 11.7222 19.4153 11.5742 19H4V17Z" fill="black"/>
<path fill-rule="evenodd" clip-rule="evenodd" d="M19.1169 22.707L21.707 20.1169C22.0982 19.7258 22.0982 19.0916 21.707 18.7004L17.7004 14.6938C17.5125 14.5059 17.2578 14.4004 16.9921 14.4004H14.402C13.8488 14.4004 13.4004 14.8488 13.4004 15.402V17.9921C13.4004 18.2578 13.5059 18.5125 13.6938 18.7004L17.7004 22.707C18.0916 23.0982 18.7258 23.0982 19.1169 22.707ZM15.4037 17.1549C15.8186 17.1549 16.1549 16.8186 16.1549 16.4037C16.1549 15.9888 15.8186 15.6525 15.4037 15.6525C14.9888 15.6525 14.6525 15.9888 14.6525 16.4037C14.6525 16.8186 14.9888 17.1549 15.4037 17.1549Z" fill="black"/>
</svg>
