<svg width="24" height="24" viewBox="0 0 24 24" fill="none" xmlns="http://www.w3.org/2000/svg">
<path fill-rule="evenodd" clip-rule="evenodd" d="M8 7C8 5.34315 9.34315 4 11 4C12.6569 4 14 5.34315 14 7C14 8.65685 12.6569 10 11 10C9.34315 10 8 8.65685 8 7ZM11 2C8.23858 2 6 4.23858 6 7C6 9.76142 8.23858 12 11 12C13.7614 12 16 9.76142 16 7C16 4.23858 13.7614 2 11 2ZM4 18C4 16.3431 5.34315 15 7 15H14.2572C14.8951 14.2275 15.74 13.6322 16.7069 13.2989C16.1743 13.1055 15.5995 13 15 13H7C4.23858 13 2 15.2386 2 18C2 19.1046 2.89543 20 4 20H13.207C13.0722 19.5232 13 19.02 13 18.5C13 18.3315 13.0076 18.1647 13.0224 18H4Z" fill="black"/>
<path fill-rule="evenodd" clip-rule="evenodd" d="M18.5 22C20.433 22 22 20.433 22 18.5C22 16.567 20.433 15 18.5 15C16.567 15 15 16.567 15 18.5C15 20.433 16.567 22 18.5 22ZM19 17C19 16.7239 18.7761 16.5 18.5 16.5C18.2239 16.5 18 16.7239 18 17V18.7929C18 19.0581 18.1054 19.3125 18.2929 19.5L18.8964 20.1036C19.0917 20.2988 19.4083 20.2988 19.6036 20.1036C19.7988 19.9083 19.7988 19.5917 19.6036 19.3964L19 18.7929V17Z" fill="black"/>
</svg>
