<svg width="24" height="24" viewBox="0 0 24 24" fill="none" xmlns="http://www.w3.org/2000/svg">
<path fill-rule="evenodd" clip-rule="evenodd" d="M9.74974 7.0054C8.40131 7.64611 7.36937 8.84473 6.95211 10.3029C6.16975 9.95049 5.6251 9.16393 5.6251 8.25014C5.6251 7.00742 6.63245 6 7.87508 6C8.65748 6 9.3466 6.39937 9.74974 7.0054ZM17.048 10.3028C16.6308 8.8447 15.5988 7.64607 14.2504 7.00537C14.6535 6.39936 15.3426 6 16.125 6C17.3676 6 18.375 7.00742 18.375 8.25014C18.375 9.16391 17.8304 9.95046 17.048 10.3028ZM17.4279 15.0005C17.2128 14.6791 16.9655 14.3811 16.6905 14.1112C17.0095 13.4787 17.2043 12.773 17.2429 12.0259C18.5185 12.2048 19.5 13.3006 19.5 14.6255C19.5 14.8326 19.3321 15.0005 19.125 15.0005H17.4279ZM6.75722 12.0259C6.79588 12.773 6.99069 13.4787 7.30965 14.1112C7.03467 14.3811 6.7873 14.6791 6.57217 15.0005H4.87501C4.66789 15.0005 4.49999 14.8326 4.5 14.6255C4.50004 13.3005 5.48162 12.2048 6.75722 12.0259Z" fill="black"/>
<path d="M2 8V4C2 3.44772 2.44772 3 3 3H7M17 3H21C21.5523 3 22 3.44772 22 4V8M22 16V20C22 20.5523 21.5523 21 21 21H17M2 16V20C2 20.5523 2.44772 21 3 21H7M14.25 11.7501C14.25 12.9929 13.2426 14.0003 12 14.0003C10.7574 14.0003 9.75002 12.9929 9.75002 11.7501C9.75002 10.5074 10.7574 9.5 12 9.5C13.2426 9.5 14.25 10.5074 14.25 11.7501ZM9.00001 18.0005H15.0001C15.2072 18.0005 15.3751 17.8326 15.3751 17.6255C15.3751 16.1757 14.1999 15.0003 12.7501 15.0003H11.25C9.8003 15.0003 8.62504 16.1757 8.625 17.6255C8.62499 17.8326 8.79289 18.0005 9.00001 18.0005Z" stroke="black" stroke-width="2" stroke-linecap="round"/>
</svg>
