<svg width="24" height="24" viewBox="0 0 24 24" fill="none" xmlns="http://www.w3.org/2000/svg">
<path fill-rule="evenodd" clip-rule="evenodd" d="M7 6C7 4.34315 8.34315 3 10 3C11.6569 3 13 4.34315 13 6C13 7.65685 11.6569 9 10 9C8.34315 9 7 7.65685 7 6ZM10 1C7.23858 1 5 3.23858 5 6C5 8.76142 7.23858 11 10 11C12.7614 11 15 8.76142 15 6C15 3.23858 12.7614 1 10 1ZM8.00109 12.0671C7.99149 11.7729 7.85278 11.4979 7.62191 11.3153C7.39105 11.1327 7.09148 11.0612 6.80302 11.1196C4.06294 11.6749 2 14.0954 2 17V19C2 20.1046 2.89543 21 4 21H13.1645L12.2791 20.1146C11.9614 19.7969 11.7222 19.4153 11.5742 19H4V17C4 15.4182 4.91884 14.0495 6.2522 13.4007C6.81994 14.9192 8.28362 16 10 16C10.4925 16 10.9642 15.911 11.3999 15.7482V15.402C11.3999 13.7443 12.7438 12.4004 14.4016 12.4004H15.8527C15.1017 11.7708 14.1942 11.3217 13.197 11.1196C12.9085 11.0612 12.6089 11.1327 12.3781 11.3153C12.1472 11.4979 12.0085 11.7729 11.9989 12.0671C11.9639 13.1402 11.0821 14 10 14C8.91786 14 8.03613 13.1402 8.00109 12.0671Z" fill="black"/>
<path fill-rule="evenodd" clip-rule="evenodd" d="M19.1165 22.707L21.7065 20.1169C22.0977 19.7258 22.0977 19.0916 21.7065 18.7004L17.6999 14.6938C17.5121 14.5059 17.2573 14.4004 16.9916 14.4004H14.4016C13.8484 14.4004 13.3999 14.8488 13.3999 15.402V17.9921C13.3999 18.2578 13.5054 18.5125 13.6933 18.7004L17.6999 22.707C18.0911 23.0982 18.7253 23.0982 19.1165 22.707ZM15.4032 17.1549C15.8181 17.1549 16.1545 16.8186 16.1545 16.4037C16.1545 15.9888 15.8181 15.6525 15.4032 15.6525C14.9883 15.6525 14.652 15.9888 14.652 16.4037C14.652 16.8186 14.9883 17.1549 15.4032 17.1549Z" fill="black"/>
</svg>
