<svg width="24" height="24" viewBox="0 0 24 24" fill="none" xmlns="http://www.w3.org/2000/svg">
<path d="M19 20V18C19 15.7441 17.506 13.8371 15.4534 13.2145C15.1698 13.1285 14.8662 13.207 14.6348 13.3922L12.6247 15.0003C12.2595 15.2924 11.7405 15.2924 11.3753 15.0003L9.36524 13.3922C9.13378 13.207 8.83022 13.1285 8.54657 13.2145C6.494 13.8371 5 15.7441 5 18V20C5 20.5523 5.44772 21 6 21H18C18.5523 21 19 20.5523 19 20Z" stroke="black" stroke-width="2"/>
<path d="M12 11C14.2091 11 16 9.20914 16 7C16 4.79086 14.2091 3 12 3C9.79086 3 8 4.79086 8 7C8 9.20914 9.79086 11 12 11Z" stroke="black" stroke-width="2"/>
</svg>
