<svg width="24" height="24" viewBox="0 0 24 24" fill="none" xmlns="http://www.w3.org/2000/svg">
<path fill-rule="evenodd" clip-rule="evenodd" d="M8 7C8 5.34315 9.34315 4 11 4C12.6569 4 14 5.34315 14 7C14 8.65685 12.6569 10 11 10C9.34315 10 8 8.65685 8 7ZM11 2C8.23858 2 6 4.23858 6 7C6 9.76142 8.23858 12 11 12C13.7614 12 16 9.76142 16 7C16 4.23858 13.7614 2 11 2ZM4 18C4 16.3431 5.34315 15 7 15H13.7561C14.0354 14.2096 14.5294 13.5205 15.1679 13.0028C15.1122 13.0009 15.0562 13 15 13H7C4.23858 13 2 15.2386 2 18C2 19.1046 2.89543 20 4 20H12V18H4Z" fill="black"/>
<path fill-rule="evenodd" clip-rule="evenodd" d="M18 14C16.6193 14 15.5 15.1193 15.5 16.5V17H15C14.4477 17 14 17.4477 14 18V21C14 21.5523 14.4477 22 15 22H21C21.5523 22 22 21.5523 22 21V18C22 17.4477 21.5523 17 21 17H20.5V16.5C20.5 15.1193 19.3807 14 18 14ZM18.5 17V16.5C18.5 16.2239 18.2761 16 18 16C17.7239 16 17.5 16.2239 17.5 16.5V17H18.5ZM18.75 19.5C18.75 19.9142 18.4142 20.25 18 20.25C17.5858 20.25 17.25 19.9142 17.25 19.5C17.25 19.0858 17.5858 18.75 18 18.75C18.4142 18.75 18.75 19.0858 18.75 19.5Z" fill="black"/>
</svg>
