<svg width="24" height="24" viewBox="0 0 24 24" fill="none" xmlns="http://www.w3.org/2000/svg">
<path fill-rule="evenodd" clip-rule="evenodd" d="M7 6C7 4.34315 8.34315 3 10 3C11.6569 3 13 4.34315 13 6C13 7.65685 11.6569 9 10 9C8.34315 9 7 7.65685 7 6ZM10 1C7.23858 1 5 3.23858 5 6C5 8.76142 7.23858 11 10 11C12.7614 11 15 8.76142 15 6C15 3.23858 12.7614 1 10 1ZM10 12C6.13401 12 3 15.134 3 19C3 20.1046 3.89543 21 5 21H11.8218C11.4065 20.3821 11.1509 19.6982 11.0497 19H5C5 16.2386 7.23858 14 10 14C10.9459 14 11.8304 14.2627 12.5847 14.719C12.615 14.6913 12.6458 14.6638 12.6769 14.6367C13.2502 14.1379 13.8752 13.8173 14.5112 13.6473C13.2929 12.6195 11.7188 12 10 12Z" fill="black"/>
<path d="M16.9979 17.1526L16.2322 17.7957C16.4222 18.022 16.7025 18.1526 16.9979 18.1526C17.2934 18.1526 17.5737 18.022 17.7637 17.7957L16.9979 17.1526ZM16.9979 22L16.3331 22.747C16.7122 23.0843 17.2837 23.0843 17.6628 22.747L16.9979 22ZM17.7637 16.5095C16.8718 15.4475 15.2384 15.0595 13.9899 16.1459L15.3029 17.6546C15.4621 17.516 15.6131 17.4868 15.7476 17.5047C15.8968 17.5245 16.0778 17.6118 16.2322 17.7957L17.7637 16.5095ZM13.9899 16.1459C12.8425 17.1445 12.6727 18.8331 13.5842 20.0278L15.1743 18.8146C14.9055 18.4624 14.9473 17.9641 15.3029 17.6546L13.9899 16.1459ZM20.4116 20.0278C21.3146 18.8444 21.1793 17.1391 19.9956 16.137L18.7034 17.6635C19.0485 17.9557 19.099 18.4511 18.8216 18.8146L20.4116 20.0278ZM19.9956 16.137C18.7445 15.0779 17.1317 15.4384 16.2322 16.5095L17.7637 17.7957C17.9187 17.6112 18.0962 17.5266 18.2419 17.5075C18.3745 17.4901 18.5319 17.5183 18.7034 17.6635L19.9956 16.137ZM13.5842 20.0278C13.9381 20.4916 14.6568 21.1933 15.2237 21.7281C15.5198 22.0074 15.7965 22.2615 15.999 22.4457C16.1003 22.5378 16.1834 22.6127 16.2413 22.6648C16.2702 22.6908 16.2929 22.7111 16.3085 22.7251C16.3163 22.732 16.3223 22.7374 16.3265 22.7411C16.3286 22.7429 16.3301 22.7444 16.3313 22.7453C16.3318 22.7458 16.3323 22.7462 16.3326 22.7465C16.3327 22.7466 16.3329 22.7468 16.3329 22.7468C16.333 22.7469 16.333 22.7469 16.3331 22.747C16.3331 22.747 16.3331 22.747 16.9979 22C17.6628 21.253 17.6628 21.253 17.6628 21.253C17.6628 21.253 17.6628 21.253 17.6628 21.253C17.6627 21.253 17.6627 21.2529 17.6626 21.2528C17.6624 21.2527 17.6621 21.2524 17.6617 21.252C17.6608 21.2513 17.6595 21.2501 17.6577 21.2485C17.6542 21.2453 17.6487 21.2405 17.6415 21.234C17.6271 21.2211 17.6056 21.2019 17.578 21.1771C17.5227 21.1274 17.4426 21.0552 17.3446 20.966C17.1482 20.7875 16.8809 20.5419 16.5961 20.2733C16.0012 19.712 15.4106 19.1243 15.1743 18.8146L13.5842 20.0278ZM16.9979 22C17.6628 22.747 17.6628 22.747 17.6628 22.747C17.6628 22.7469 17.6629 22.7469 17.6629 22.7468C17.663 22.7468 17.6632 22.7466 17.6633 22.7465C17.6636 22.7462 17.6641 22.7458 17.6646 22.7453C17.6657 22.7444 17.6673 22.7429 17.6694 22.7411C17.6735 22.7374 17.6796 22.732 17.6874 22.7251C17.7029 22.7111 17.7256 22.6908 17.7546 22.6648C17.8125 22.6127 17.8956 22.5378 17.9969 22.4457C18.1994 22.2615 18.4761 22.0074 18.7722 21.7281C19.339 21.1933 20.0578 20.4916 20.4116 20.0278L18.8216 18.8146C18.5853 19.1243 17.9947 19.712 17.3998 20.2733C17.115 20.5419 16.8477 20.7875 16.6513 20.966C16.5533 21.0552 16.4732 21.1274 16.4179 21.1771C16.3903 21.2019 16.3688 21.2211 16.3544 21.234C16.3472 21.2405 16.3417 21.2453 16.3382 21.2485C16.3364 21.2501 16.335 21.2513 16.3342 21.252C16.3338 21.2524 16.3335 21.2527 16.3333 21.2528C16.3332 21.2529 16.3332 21.253 16.3331 21.253C16.3331 21.253 16.3331 21.253 16.3331 21.253C16.3331 21.253 16.3331 21.253 16.9979 22Z" fill="black"/>
</svg>
