<svg width="24" height="24" viewBox="0 0 24 24" fill="none" xmlns="http://www.w3.org/2000/svg">
<path fill-rule="evenodd" clip-rule="evenodd" d="M7 7C7 5.34315 8.34315 4 10 4C11.6569 4 13 5.34315 13 7C13 8.65685 11.6569 10 10 10C8.34315 10 7 8.65685 7 7ZM10 2C7.23858 2 5 4.23858 5 7C5 9.76142 7.23858 12 10 12C12.7614 12 15 9.76142 15 7C15 4.23858 12.7614 2 10 2ZM10 13C6.13401 13 3 16.134 3 20C3 21.1046 3.89543 22 5 22H13.0084C12.978 21.6156 13.049 21.3093 13.0758 21.1991C13.1422 20.9266 13.3531 20.4003 13.4245 20.2225C13.4542 20.1481 13.4839 20.0739 13.5135 20H5C5 17.2386 7.23858 15 10 15C12.0121 15 13.7466 16.1885 14.5398 17.9018L14.6169 17.7768C14.7707 17.5273 14.9443 17.354 15.0267 17.2718L15.9652 16.3353C14.7332 14.3342 12.5224 13 10 13Z" fill="black"/>
<path d="M18.6278 17.3703C18.4226 17.1652 18.3201 17.0626 18.3201 16.9351C18.3201 16.8077 18.4226 16.7051 18.6278 16.5L18.7087 16.4191C18.7584 16.3694 18.7832 16.3445 18.8052 16.3245C19.2813 15.8918 20.0083 15.8918 20.4843 16.3245C20.5063 16.3445 20.5312 16.3694 20.5809 16.4191C20.6305 16.4688 20.6555 16.4937 20.6755 16.5157C21.1082 16.9917 21.1082 17.7187 20.6755 18.1948C20.6555 18.2168 20.6306 18.2416 20.5809 18.2913L20.5 18.3722C20.2949 18.5774 20.1923 18.6799 20.0649 18.6799C19.9374 18.6799 19.8348 18.5774 19.6297 18.3722L18.6278 17.3703Z" fill="black"/>
<path d="M18.1926 17.8054C17.9875 17.6003 17.8849 17.4977 17.7575 17.4977C17.63 17.4977 17.5275 17.6003 17.3223 17.8054L16.4773 18.6504C16.26 18.87 16.3941 18.7336 16.115 19.157C15.8358 19.5803 15.6462 20.0544 15.2669 21.0026L15.2126 21.1385C15.0276 21.6009 14.9351 21.8321 15.0515 21.9485C15.1679 22.0649 15.3991 21.9724 15.8615 21.7874L15.9974 21.7331C16.9455 21.3538 17.4197 21.1642 17.843 20.885C18.2664 20.6059 18.13 20.74 18.3496 20.5227L19.1946 19.6777C19.3997 19.4725 19.5023 19.37 19.5023 19.2425C19.5023 19.1151 19.3997 19.0125 19.1946 18.8074L18.1926 17.8054Z" fill="black"/>
</svg>
