<svg width="24" height="24" viewBox="0 0 24 24" fill="none" xmlns="http://www.w3.org/2000/svg">
<path fill-rule="evenodd" clip-rule="evenodd" d="M7 6C7 4.34315 8.34315 3 10 3C11.6569 3 13 4.34315 13 6C13 7.65685 11.6569 9 10 9C8.34315 9 7 7.65685 7 6ZM10 1C7.23858 1 5 3.23858 5 6C5 8.76142 7.23858 11 10 11C12.7614 11 15 8.76142 15 6C15 3.23858 12.7614 1 10 1ZM8.00109 12.0671C7.99149 11.7729 7.85278 11.4979 7.62191 11.3153C7.39105 11.1327 7.09148 11.0612 6.80302 11.1196C4.06294 11.6749 2 14.0954 2 17V19C2 20.1046 2.89543 21 4 21H13.1753C13.1753 20.9995 13.1753 20.999 13.1754 20.9985C12.7612 20.632 12.5 20.0965 12.5 19.5V19H4V17C4 15.4182 4.91884 14.0495 6.2522 13.4007C6.81994 14.9192 8.28362 16 10 16C11.7164 16 13.1801 14.9192 13.7478 13.4007C14.2322 13.6364 14.6618 13.9671 15.0126 14.3685C15.3232 14.2193 15.6644 14.155 16.0014 14.1755C16.2466 13.8983 16.5675 13.6896 16.9318 13.5819C16.0657 12.3347 14.7385 11.432 13.197 11.1196C12.9085 11.0612 12.6089 11.1327 12.3781 11.3153C12.1472 11.4979 12.0085 11.7729 11.9989 12.0671C11.9639 13.1402 11.0821 14 10 14C8.91786 14 8.03613 13.1402 8.00109 12.0671Z" fill="black"/>
<path fill-rule="evenodd" clip-rule="evenodd" d="M17 15.5C17 15.2239 17.2239 15 17.5 15H18.5C18.7761 15 19 15.2239 19 15.5C19 15.9007 19.4845 16.1017 19.7678 15.8184C19.963 15.6231 20.2796 15.6231 20.4749 15.8184L21.182 16.5255C21.3773 16.7208 21.3773 17.0373 21.182 17.2326C20.8988 17.5158 21.0995 18 21.5 18C21.7761 18 22 18.2239 22 18.5V19.5C22 19.7761 21.7761 20 21.5 20C21.0992 20 20.8986 20.4846 21.182 20.768C21.3773 20.9633 21.3773 21.2798 21.182 21.4751L20.4749 22.1822C20.2796 22.3775 19.963 22.3775 19.7678 22.1822C19.4845 21.8989 19 22.0994 19 22.5C19 22.7761 18.7761 23 18.5 23H17.5C17.2239 23 17 22.7761 17 22.5C17 22.0995 16.5155 21.8991 16.2323 22.1824C16.037 22.3776 15.7204 22.3776 15.5251 22.1824L14.818 21.4753C14.6228 21.28 14.6228 20.9634 14.818 20.7681C15.1015 20.4847 14.9008 20 14.5 20C14.2239 20 14 19.7761 14 19.5V18.5C14 18.2239 14.2239 18 14.5 18C14.9006 18 15.1013 17.5157 14.818 17.2325C14.6228 17.0372 14.6228 16.7206 14.818 16.5254L15.5251 15.8182C15.7204 15.623 16.037 15.623 16.2322 15.8182C16.5156 16.1016 17 15.9007 17 15.5ZM18 21C19.1046 21 20 20.1046 20 19C20 17.8954 19.1046 17 18 17C16.8954 17 16 17.8954 16 19C16 20.1046 16.8954 21 18 21Z" fill="black"/>
</svg>
