<svg width="24" height="24" viewBox="0 0 24 24" fill="none" xmlns="http://www.w3.org/2000/svg">
<path fill-rule="evenodd" clip-rule="evenodd" d="M7 6C7 4.34315 8.34315 3 10 3C11.6569 3 13 4.34315 13 6C13 7.65685 11.6569 9 10 9C8.34315 9 7 7.65685 7 6ZM10 1C7.23858 1 5 3.23858 5 6C5 8.76142 7.23858 11 10 11C12.7614 11 15 8.76142 15 6C15 3.23858 12.7614 1 10 1ZM8.00109 12.0671C7.99149 11.7729 7.85278 11.4979 7.62191 11.3153C7.39105 11.1327 7.09148 11.0612 6.80302 11.1196C4.06294 11.6749 2 14.0954 2 17V19C2 20.1046 2.89543 21 4 21H12.8218C12.4065 20.3821 12.1509 19.6982 12.0497 19H4V17C4 15.4182 4.91884 14.0495 6.2522 13.4007C6.81994 14.9192 8.28362 16 10 16C11.7164 16 13.1801 14.9192 13.7478 13.4007C14.0686 13.5568 14.3654 13.7546 14.6312 13.987C15.3602 13.6127 16.1311 13.4667 16.8765 13.5036C16.0097 12.297 14.706 11.4254 13.197 11.1196C12.9085 11.0612 12.6089 11.1327 12.3781 11.3153C12.1472 11.4979 12.0085 11.7729 11.9989 12.0671C11.9639 13.1402 11.0821 14 10 14C8.91786 14 8.03613 13.1402 8.00109 12.0671Z" fill="black"/>
<path d="M17.9979 17.1526L17.2322 17.7957C17.4222 18.022 17.7025 18.1526 17.9979 18.1526C18.2934 18.1526 18.5737 18.022 18.7637 17.7957L17.9979 17.1526ZM17.9979 22L17.3331 22.747C17.7122 23.0843 18.2837 23.0843 18.6628 22.747L17.9979 22ZM18.7637 16.5095C17.8718 15.4475 16.2384 15.0595 14.9899 16.1459L16.3029 17.6546C16.4621 17.516 16.6131 17.4868 16.7476 17.5047C16.8968 17.5245 17.0778 17.6118 17.2322 17.7957L18.7637 16.5095ZM14.9899 16.1459C13.8425 17.1445 13.6727 18.8331 14.5842 20.0278L16.1743 18.8146C15.9055 18.4624 15.9473 17.9641 16.3029 17.6546L14.9899 16.1459ZM21.4116 20.0278C22.3146 18.8444 22.1793 17.1391 20.9956 16.137L19.7034 17.6635C20.0485 17.9557 20.099 18.4511 19.8216 18.8146L21.4116 20.0278ZM20.9956 16.137C19.7445 15.0779 18.1317 15.4384 17.2322 16.5095L18.7637 17.7957C18.9187 17.6112 19.0962 17.5266 19.2419 17.5075C19.3745 17.4901 19.5319 17.5183 19.7034 17.6635L20.9956 16.137ZM14.5842 20.0278C14.9381 20.4916 15.6568 21.1933 16.2237 21.7281C16.5198 22.0074 16.7965 22.2615 16.999 22.4457C17.1003 22.5378 17.1834 22.6127 17.2413 22.6648C17.2702 22.6908 17.2929 22.7111 17.3085 22.7251C17.3163 22.732 17.3223 22.7374 17.3265 22.7411C17.3286 22.7429 17.3301 22.7444 17.3313 22.7453C17.3318 22.7458 17.3323 22.7462 17.3326 22.7465C17.3327 22.7466 17.3329 22.7468 17.3329 22.7468C17.333 22.7469 17.333 22.7469 17.3331 22.747C17.3331 22.747 17.3331 22.747 17.9979 22C18.6628 21.253 18.6628 21.253 18.6628 21.253C18.6628 21.253 18.6628 21.253 18.6628 21.253C18.6627 21.253 18.6627 21.2529 18.6626 21.2528C18.6624 21.2527 18.6621 21.2524 18.6617 21.252C18.6608 21.2513 18.6595 21.2501 18.6577 21.2485C18.6542 21.2453 18.6487 21.2405 18.6415 21.234C18.6271 21.2211 18.6056 21.2019 18.578 21.1771C18.5227 21.1274 18.4426 21.0552 18.3446 20.966C18.1482 20.7875 17.8809 20.5419 17.5961 20.2733C17.0012 19.712 16.4106 19.1243 16.1743 18.8146L14.5842 20.0278ZM17.9979 22C18.6628 22.747 18.6628 22.747 18.6628 22.747C18.6628 22.7469 18.6629 22.7469 18.6629 22.7468C18.663 22.7468 18.6632 22.7466 18.6633 22.7465C18.6636 22.7462 18.6641 22.7458 18.6646 22.7453C18.6657 22.7444 18.6673 22.7429 18.6694 22.7411C18.6735 22.7374 18.6796 22.732 18.6874 22.7251C18.7029 22.7111 18.7256 22.6908 18.7546 22.6648C18.8125 22.6127 18.8956 22.5378 18.9969 22.4457C19.1994 22.2615 19.4761 22.0074 19.7722 21.7281C20.339 21.1933 21.0578 20.4916 21.4116 20.0278L19.8216 18.8146C19.5853 19.1243 18.9947 19.712 18.3998 20.2733C18.115 20.5419 17.8477 20.7875 17.6513 20.966C17.5533 21.0552 17.4732 21.1274 17.4179 21.1771C17.3903 21.2019 17.3688 21.2211 17.3544 21.234C17.3472 21.2405 17.3417 21.2453 17.3382 21.2485C17.3364 21.2501 17.335 21.2513 17.3342 21.252C17.3338 21.2524 17.3335 21.2527 17.3333 21.2528C17.3332 21.2529 17.3332 21.253 17.3331 21.253C17.3331 21.253 17.3331 21.253 17.3331 21.253C17.3331 21.253 17.3331 21.253 17.9979 22Z" fill="black"/>
</svg>
