<svg width="24" height="24" viewBox="0 0 24 24" fill="none" xmlns="http://www.w3.org/2000/svg">
<path fill-rule="evenodd" clip-rule="evenodd" d="M7 6C7 4.34315 8.34315 3 10 3C11.6569 3 13 4.34315 13 6C13 7.65685 11.6569 9 10 9C8.34315 9 7 7.65685 7 6ZM10 1C7.23858 1 5 3.23858 5 6C5 8.76142 7.23858 11 10 11C12.7614 11 15 8.76142 15 6C15 3.23858 12.7614 1 10 1ZM8 12C4.68629 12 2 14.6863 2 18V19C2 20.1046 2.89543 21 4 21H13.1646L12.2792 20.1146C11.9615 19.7969 11.7223 19.4153 11.5743 19H4V18C4 15.7909 5.79086 14 8 14H11.7469C12.2178 13.1101 13.1231 12.4855 14.1803 12.4084C13.5045 12.1447 12.7691 12 12 12H8Z" fill="black"/>
<path fill-rule="evenodd" clip-rule="evenodd" d="M19.1165 22.707L21.7065 20.1169C22.0977 19.7258 22.0977 19.0916 21.7065 18.7004L17.6999 14.6938C17.5121 14.5059 17.2573 14.4004 16.9916 14.4004H14.4016C13.8484 14.4004 13.3999 14.8488 13.3999 15.402V17.9921C13.3999 18.2578 13.5054 18.5125 13.6933 18.7004L17.6999 22.707C18.0911 23.0982 18.7253 23.0982 19.1165 22.707ZM15.4032 17.1549C15.8181 17.1549 16.1545 16.8186 16.1545 16.4037C16.1545 15.9888 15.8181 15.6525 15.4032 15.6525C14.9883 15.6525 14.652 15.9888 14.652 16.4037C14.652 16.8186 14.9883 17.1549 15.4032 17.1549Z" fill="black"/>
</svg>
