<svg width="24" height="24" viewBox="0 0 24 24" fill="none" xmlns="http://www.w3.org/2000/svg">
<path fill-rule="evenodd" clip-rule="evenodd" d="M8 6C8 4.34315 9.34315 3 11 3C12.6569 3 14 4.34315 14 6C14 7.65685 12.6569 9 11 9C9.34315 9 8 7.65685 8 6ZM11 1C8.23858 1 6 3.23858 6 6C6 8.76142 8.23858 11 11 11C13.7614 11 16 8.76142 16 6C16 3.23858 13.7614 1 11 1ZM9 12C5.68629 12 3 14.6863 3 18V19C3 20.1046 3.89543 21 5 21H13.5135C13.8015 20.2823 14.0893 19.5951 14.4453 19.0551L14.4793 19H5V18C5 15.7909 6.79086 14 9 14H13C14.704 14 16.1592 15.0655 16.7355 16.5666L17.46 15.8437C17.7378 15.5912 18.0409 15.4085 18.3505 15.282C17.3591 13.3342 15.3353 12 13 12H9Z" fill="black"/>
<path d="M18.6278 18.3703C18.4226 18.1652 18.3201 18.0626 18.3201 17.9351C18.3201 17.8077 18.4226 17.7051 18.6278 17.5L18.7087 17.4191C18.7584 17.3694 18.7832 17.3445 18.8052 17.3245C19.2813 16.8918 20.0083 16.8918 20.4843 17.3245C20.5063 17.3445 20.5312 17.3694 20.5809 17.4191C20.6305 17.4688 20.6555 17.4937 20.6755 17.5157C21.1082 17.9917 21.1082 18.7187 20.6755 19.1948C20.6555 19.2168 20.6306 19.2416 20.5809 19.2913L20.5 19.3722C20.2949 19.5774 20.1923 19.6799 20.0649 19.6799C19.9374 19.6799 19.8348 19.5774 19.6297 19.3722L18.6278 18.3703Z" fill="black"/>
<path d="M18.1926 18.8054C17.9875 18.6003 17.8849 18.4977 17.7575 18.4977C17.63 18.4977 17.5275 18.6003 17.3223 18.8054L16.4773 19.6504C16.26 19.87 16.3941 19.7336 16.115 20.157C15.8358 20.5803 15.6462 21.0544 15.2669 22.0026L15.2126 22.1385C15.0276 22.6009 14.9351 22.8321 15.0515 22.9485C15.1679 23.0649 15.3991 22.9724 15.8615 22.7874L15.9974 22.7331C16.9455 22.3538 17.4197 22.1642 17.843 21.885C18.2664 21.6059 18.13 21.74 18.3496 21.5227L19.1946 20.6777C19.3997 20.4725 19.5023 20.37 19.5023 20.2425C19.5023 20.1151 19.3997 20.0125 19.1946 19.8074L18.1926 18.8054Z" fill="black"/>
</svg>
