<svg width="24" height="24" viewBox="0 0 24 24" fill="none" xmlns="http://www.w3.org/2000/svg">
<path fill-rule="evenodd" clip-rule="evenodd" d="M6.1072 8.86495C6.4829 6.90273 7.81438 5.28 9.59848 4.49991C9.07975 3.60326 8.11027 3 6.99988 3C5.34303 3 3.99988 4.34315 3.99988 6C3.99988 7.34598 4.88629 8.48493 6.1072 8.86495ZM6.08454 11.0095C3.80371 11.159 2 13.0564 2 15.375C2 15.7202 2.27982 16 2.625 16H5.02185C5.60567 15.0881 6.41092 14.3317 7.36176 13.8064C6.71341 13.0173 6.2625 12.0598 6.08454 11.0095ZM18.9782 16H21.375C21.7202 16 22 15.7202 22 15.375C22 13.0563 20.1963 11.159 17.9154 11.0095C17.7375 12.0598 17.2866 13.0173 16.6383 13.8064C17.5891 14.3316 18.3944 15.0881 18.9782 16ZM17.8928 8.86489C19.1136 8.48481 19.9999 7.34591 19.9999 6C19.9999 4.34315 18.6567 3 16.9999 3C15.8895 3 14.9201 3.60322 14.4013 4.49984C16.1855 5.27989 17.517 6.90264 17.8928 8.86489Z" fill="black"/>
<path d="M12 13C13.6568 13 15 11.6569 15 10C15 8.34315 13.6568 7 12 7C10.3431 7 8.99998 8.34315 8.99998 10C8.99998 11.6569 10.3431 13 12 13Z" stroke="black" stroke-width="2"/>
<path d="M16.5 20H7.50001C7.22386 20 6.99999 19.7761 7 19.5C7.00006 17.567 8.56708 16 10.5001 16H13.5001C15.4331 16 17.0001 17.567 17 19.5C17 19.7762 16.7761 20 16.5 20Z" stroke="black" stroke-width="2"/>
</svg>
