<svg width="24" height="24" viewBox="0 0 24 24" fill="none" xmlns="http://www.w3.org/2000/svg">
<path d="M21 11H18.5H16M17 18V20C17 20.5523 16.5523 21 16 21H4C3.44772 21 3 20.5523 3 20V18C3 15.5805 4.71858 13.5623 7.00163 13.0997C7.05421 14.7104 8.37651 16 10 16C11.6235 16 12.9458 14.7104 12.9984 13.0997C15.2814 13.5623 17 15.5805 17 18ZM14 7C14 9.20914 12.2091 11 10 11C7.79086 11 6 9.20914 6 7C6 4.79086 7.79086 3 10 3C12.2091 3 14 4.79086 14 7Z" stroke="black" stroke-width="2" stroke-linecap="round" stroke-linejoin="round"/>
</svg>
