<svg width="24" height="24" viewBox="0 0 24 24" fill="none" xmlns="http://www.w3.org/2000/svg">
<path fill-rule="evenodd" clip-rule="evenodd" d="M8 7C8 5.34315 9.34315 4 11 4C12.6569 4 14 5.34315 14 7C14 8.65685 12.6569 10 11 10C9.34315 10 8 8.65685 8 7ZM11 2C8.23858 2 6 4.23858 6 7C6 9.76142 8.23858 12 11 12C13.7614 12 16 9.76142 16 7C16 4.23858 13.7614 2 11 2ZM4 18C4 16.3431 5.34315 15 7 15H11.3999V14.402C11.3999 13.8956 11.5253 13.4185 11.7468 13H7C4.23858 13 2 15.2386 2 18C2 19.1046 2.89543 20 4 20H13.1645L12.2791 19.1146C11.9614 18.7969 11.7222 18.4153 11.5742 18H4Z" fill="black"/>
<path fill-rule="evenodd" clip-rule="evenodd" d="M19.1165 21.707L21.7065 19.1169C22.0977 18.7258 22.0977 18.0916 21.7065 17.7004L17.6999 13.6938C17.5121 13.5059 17.2573 13.4004 16.9916 13.4004H14.4016C13.8484 13.4004 13.3999 13.8488 13.3999 14.402V16.9921C13.3999 17.2578 13.5054 17.5125 13.6933 17.7004L17.6999 21.707C18.0911 22.0982 18.7253 22.0982 19.1165 21.707ZM15.4032 16.1549C15.8181 16.1549 16.1545 15.8186 16.1545 15.4037C16.1545 14.9888 15.8181 14.6525 15.4032 14.6525C14.9883 14.6525 14.652 14.9888 14.652 15.4037C14.652 15.8186 14.9883 16.1549 15.4032 16.1549Z" fill="black"/>
</svg>
