<svg width="24" height="24" viewBox="0 0 24 24" fill="none" xmlns="http://www.w3.org/2000/svg">
<path fill-rule="evenodd" clip-rule="evenodd" d="M7 6C7 4.34315 8.34315 3 10 3C11.6569 3 13 4.34315 13 6C13 7.65685 11.6569 9 10 9C8.34315 9 7 7.65685 7 6ZM10 1C7.23858 1 5 3.23858 5 6C5 8.76142 7.23858 11 10 11C12.7614 11 15 8.76142 15 6C15 3.23858 12.7614 1 10 1ZM8 12C4.68629 12 2 14.6863 2 18V19C2 20.1046 2.89543 21 4 21H14.1059C13.793 20.3673 13.5355 19.6918 13.348 19H4V18C4 15.7909 5.79086 14 8 14H12C12.8452 14 13.6292 14.2621 14.2751 14.7096C14.4535 14.6078 14.6428 14.5283 14.8376 14.4738C15.3506 14.33 15.9033 14.1391 16.3945 13.9148C15.299 12.7369 13.7355 12 12 12H8Z" fill="black"/>
<path d="M21.9961 16.8909C21.914 20.8979 20.5525 21.9497 18.7233 22.8871C18.5832 22.9589 18.4168 22.9589 18.2767 22.8871C16.4475 21.9497 15.086 20.8979 15.0039 16.8909C14.9992 16.6615 15.1562 16.4619 15.3771 16.4C16.242 16.1577 17.34 15.7622 18.192 15.2137C18.3788 15.0933 18.6212 15.0933 18.808 15.2137C19.66 15.7622 20.758 16.1577 21.6229 16.4C21.8438 16.4619 22.0008 16.6615 21.9961 16.8909Z" fill="black"/>
</svg>
