<svg width="24" height="24" viewBox="0 0 24 24" fill="none" xmlns="http://www.w3.org/2000/svg">
<path fill-rule="evenodd" clip-rule="evenodd" d="M16 15.5C16 15.2239 16.2239 15 16.5 15H17.5C17.7761 15 18 15.2239 18 15.5C18 15.9007 18.4845 16.1017 18.7678 15.8184C18.963 15.6231 19.2796 15.6231 19.4749 15.8184L20.182 16.5255C20.3773 16.7208 20.3773 17.0373 20.182 17.2326C19.8988 17.5158 20.0995 18 20.5 18C20.7761 18 21 18.2239 21 18.5V19.5C21 19.7761 20.7761 20 20.5 20C20.0992 20 19.8986 20.4846 20.182 20.768C20.3773 20.9633 20.3773 21.2798 20.182 21.4751L19.4749 22.1822C19.2796 22.3775 18.963 22.3775 18.7678 22.1822C18.4845 21.8989 18 22.0994 18 22.5C18 22.7761 17.7761 23 17.5 23H16.5C16.2239 23 16 22.7761 16 22.5C16 22.0995 15.5155 21.8991 15.2323 22.1824C15.037 22.3776 14.7204 22.3776 14.5251 22.1824L13.818 21.4753C13.6228 21.28 13.6228 20.9634 13.818 20.7681C14.1015 20.4847 13.9008 20 13.5 20C13.2239 20 13 19.7761 13 19.5V18.5C13 18.2239 13.2239 18 13.5 18C13.9006 18 14.1013 17.5157 13.818 17.2325C13.6228 17.0372 13.6228 16.7206 13.818 16.5254L14.5251 15.8182C14.7204 15.623 15.037 15.623 15.2322 15.8182C15.5156 16.1016 16 15.9007 16 15.5ZM17 21C18.1046 21 19 20.1046 19 19C19 17.8954 18.1046 17 17 17C15.8954 17 15 17.8954 15 19C15 20.1046 15.8954 21 17 21Z" fill="black"/>
<path fill-rule="evenodd" clip-rule="evenodd" d="M8 6C8 4.34315 9.34315 3 11 3C12.6569 3 14 4.34315 14 6C14 7.65685 12.6569 9 11 9C9.34315 9 8 7.65685 8 6ZM11 1C8.23858 1 6 3.23858 6 6C6 8.76142 8.23858 11 11 11C13.7614 11 16 8.76142 16 6C16 3.23858 13.7614 1 11 1ZM9 12C5.68629 12 3 14.6863 3 18V19C3 20.1046 3.89543 21 5 21H12.1753C12.1753 20.9995 12.1753 20.999 12.1754 20.9985C11.7612 20.632 11.5 20.0965 11.5 19.5V19H5V18C5 15.7909 6.79086 14 9 14H13C13.4791 14 13.9386 14.0842 14.3644 14.2387C14.5725 14.1836 14.7878 14.1625 15.0014 14.1755C15.3678 13.7612 15.9034 13.5 16.5 13.5H16.9687C15.911 12.5665 14.5217 12 13 12H9Z" fill="black"/>
</svg>
