<svg width="24" height="24" viewBox="0 0 24 24" fill="none" xmlns="http://www.w3.org/2000/svg">
<path fill-rule="evenodd" clip-rule="evenodd" d="M7 6C7 4.34315 8.34315 3 10 3C11.6569 3 13 4.34315 13 6C13 7.65685 11.6569 9 10 9C8.34315 9 7 7.65685 7 6ZM10 1C7.23858 1 5 3.23858 5 6C5 8.76142 7.23858 11 10 11C12.7614 11 15 8.76142 15 6C15 3.23858 12.7614 1 10 1ZM4 17C4 15.2227 5.1599 13.7138 6.76622 13.1936L8.75062 14.7811C9.48105 15.3655 10.5189 15.3655 11.2494 14.7811L13.2338 13.1936C13.8741 13.4009 14.4434 13.7654 14.8966 14.2413C15.3881 13.7731 15.9852 13.415 16.6487 13.2064C15.9042 12.2954 14.8973 11.6075 13.7437 11.2576C13.0968 11.0614 12.4571 11.2537 12.0101 11.6113L10 13.2194L7.98993 11.6113C7.54287 11.2537 6.90324 11.0614 6.25631 11.2576C3.79401 12.0044 2 14.2914 2 17V19C2 20.1046 2.89543 21 4 21H12V19H4V17Z" fill="black"/>
<path fill-rule="evenodd" clip-rule="evenodd" d="M18 15C16.6193 15 15.5 16.1193 15.5 17.5V18H15C14.4477 18 14 18.4477 14 19V22C14 22.5523 14.4477 23 15 23H21C21.5523 23 22 22.5523 22 22V19C22 18.4477 21.5523 18 21 18H20.5V17.5C20.5 16.1193 19.3807 15 18 15ZM18.5 18V17.5C18.5 17.2239 18.2761 17 18 17C17.7239 17 17.5 17.2239 17.5 17.5V18H18.5ZM18.75 20.5C18.75 20.9142 18.4142 21.25 18 21.25C17.5858 21.25 17.25 20.9142 17.25 20.5C17.25 20.0858 17.5858 19.75 18 19.75C18.4142 19.75 18.75 20.0858 18.75 20.5Z" fill="black"/>
</svg>
