<svg width="24" height="24" viewBox="0 0 24 24" fill="none" xmlns="http://www.w3.org/2000/svg">
<path fill-rule="evenodd" clip-rule="evenodd" d="M9.74974 7.0054C8.40131 7.64611 7.36937 8.84473 6.95211 10.3029C6.16975 9.95049 5.6251 9.16393 5.6251 8.25014C5.6251 7.00742 6.63245 6 7.87508 6C8.65748 6 9.3466 6.39937 9.74974 7.0054ZM17.048 10.3028C16.6308 8.8447 15.5988 7.64607 14.2504 7.00537C14.6535 6.39936 15.3426 6 16.125 6C17.3676 6 18.375 7.00742 18.375 8.25014C18.375 9.16391 17.8304 9.95046 17.048 10.3028ZM17.4279 15.0005C17.2128 14.6791 16.9655 14.3811 16.6905 14.1112C17.0095 13.4787 17.2043 12.773 17.2429 12.0259C18.5185 12.2048 19.5 13.3006 19.5 14.6255C19.5 14.8326 19.3321 15.0005 19.125 15.0005H17.4279ZM6.75722 12.0259C6.79588 12.773 6.99069 13.4787 7.30965 14.1112C7.03467 14.3811 6.7873 14.6791 6.57217 15.0005H4.87501C4.66789 15.0005 4.49999 14.8326 4.5 14.6255C4.50004 13.3005 5.48162 12.2048 6.75722 12.0259Z" fill="black"/>
<path d="M12 14.0003C13.2426 14.0003 14.25 12.9929 14.25 11.7501C14.25 10.5074 13.2426 9.5 12 9.5C10.7574 9.5 9.75002 10.5074 9.75002 11.7501C9.75002 12.9929 10.7574 14.0003 12 14.0003Z" stroke="black" stroke-width="2" stroke-linecap="round"/>
<path d="M15.0001 18.0005H9.00001C8.79289 18.0005 8.62499 17.8326 8.625 17.6255C8.62504 16.1757 9.8003 15.0003 11.25 15.0003H12.7501C14.1999 15.0003 15.3751 16.1757 15.3751 17.6255C15.3751 17.8326 15.2072 18.0005 15.0001 18.0005Z" stroke="black" stroke-width="2" stroke-linecap="round"/>
</svg>
