<svg width="24" height="24" viewBox="0 0 24 24" fill="none" xmlns="http://www.w3.org/2000/svg">
<path d="M9.58579 7.58579C9.21071 7.21071 9 6.70201 9 6.17157V4.5C9 3.67157 8.32843 3 7.5 3C6.67157 3 6 3.67157 6 4.5V5.5C6 5.77614 5.77614 6 5.5 6H4.5C3.67157 6 3 6.67157 3 7.5C3 8.32843 3.67157 9 4.5 9H6.17157C6.70201 9 7.21071 9.21071 7.58579 9.58579M16.4142 14.4142C16.7893 14.7893 17.298 15 17.8284 15H19.5001C20.3285 15 21 15.6715 21 16.4999C21 17.3282 20.3285 17.9998 19.5001 17.9998H18.5C18.2239 17.9998 18 18.2236 18 18.4998V19.4997C18 20.3282 17.3284 20.9997 16.4999 20.9997C15.6715 20.9997 15 20.3281 15 19.4997V17.8284C15 17.298 14.7893 16.7893 14.4142 16.4142M17.8284 9H19.5C20.3284 9 21 8.32843 21 7.5V7.5C21 6.67157 20.3284 6 19.5 6H18.5C18.2239 6 18 5.77614 18 5.5V4.5C18 3.67157 17.3284 3 16.5 3V3C15.6716 3 15 3.67157 15 4.5V6.17157C15 6.70201 14.7893 7.21071 14.4142 7.58579L7.58579 14.4142C7.21071 14.7893 6.70201 15 6.17157 15H4.49989C3.67152 15 3 15.6715 3 16.4999V16.4999C3 17.3282 3.67152 17.9998 4.49989 17.9998H5.5C5.77614 17.9998 6 18.2236 6 18.4998V19.4997C6 20.3282 6.67161 20.9997 7.50006 20.9997V20.9997C8.32846 20.9997 9 20.3281 9 19.4997V17.8284C9 17.298 9.21071 16.7893 9.58578 16.4142L16.4142 9.58579C16.7893 9.21071 17.298 9 17.8284 9Z" stroke="black" stroke-width="2" stroke-linecap="round" stroke-linejoin="round"/>
</svg>
