<svg width="24" height="24" viewBox="0 0 24 24" fill="none" xmlns="http://www.w3.org/2000/svg">
<path d="M5.5 17.9998H4.74989C3.78345 17.9998 3 17.2163 3 16.2499C3 15.2835 3.78345 14.5 4.74989 14.5H6.17157C6.70201 14.5 7.21071 14.2893 7.58579 13.9142L13.9142 7.58579C14.2893 7.21071 14.5 6.70201 14.5 6.17157V4.75C14.5 3.7835 15.2835 3 16.25 3C17.2165 3 18 3.7835 18 4.75V5.5C18 5.77614 18.2239 6 18.5 6H19.25C20.2165 6 21 6.7835 21 7.75C21 8.7165 20.2165 9.5 19.25 9.5H17.8284C17.298 9.5 16.7893 9.71071 16.4142 10.0858L10.0858 16.4142C9.71071 16.7893 9.5 17.298 9.5 17.8284V19.2497C9.5 20.2162 8.71654 20.9997 7.75007 20.9997C6.78354 20.9997 6 20.2162 6 19.2497V18.4998C6 18.2236 5.77614 17.9998 5.5 17.9998Z" stroke="black" stroke-width="2" stroke-linecap="round" stroke-linejoin="round"/>
</svg>
