<svg width="24" height="24" viewBox="0 0 24 24" fill="none" xmlns="http://www.w3.org/2000/svg">
<path fill-rule="evenodd" clip-rule="evenodd" d="M7 2C4.23858 2 2 4.23858 2 7V17C2 19.7614 4.23858 22 7 22H17C19.7614 22 22 19.7614 22 17V7C22 4.23858 19.7614 2 17 2H7ZM4 7C4 5.34315 5.34315 4 7 4H17C18.6569 4 20 5.34315 20 7V17C20 18.6569 18.6569 20 17 20H7C5.34315 20 4 18.6569 4 17V7ZM7.16658 15.9998H7.60002C7.82092 15.9998 8 16.1789 8 16.3998V16.8331C8 17.4774 8.52236 17.9998 9.16671 17.9997C9.81103 17.9997 10.3333 17.4774 10.3333 16.8331V16.1143C10.3333 15.6142 10.532 15.1346 10.8856 14.781L14.781 10.8856C15.1347 10.532 15.6143 10.3333 16.1144 10.3333H16.8333C17.4777 10.3333 18 9.81097 18 9.16665C18 8.52232 17.4777 7.99999 16.8333 7.99999H16.4C16.1791 7.99999 16 7.8209 16 7.59999V7.16667C16 6.52233 15.4777 6 14.8333 6C14.189 6 13.6667 6.52233 13.6667 7.16667V7.8856C13.6667 8.3857 13.468 8.86531 13.1144 9.21893L9.21895 13.1143C8.86533 13.468 8.38572 13.6666 7.88562 13.6666H7.16658C6.5223 13.6666 6 14.1889 6 14.8332C6 15.4775 6.5223 15.9998 7.16658 15.9998Z" fill="black"/>
</svg>
