<svg width="24" height="24" viewBox="0 0 24 24" fill="none" xmlns="http://www.w3.org/2000/svg">
<path d="M7.75693 7.75725L4.2214 4.22172M16.2422 16.2425L19.7777 19.7781M14.0055 19.4878L13.9996 19.4999L14.3938 20.937M19.4873 14.0064L20.9366 14.3947M9.99283 4.51222L9.60442 3.06299M4.51175 9.99367L3.0625 9.60537M17.8284 9.5H19.25C20.2165 9.5 21 8.7165 21 7.75V7.75C21 6.7835 20.2165 6 19.25 6H18.5C18.2239 6 18 5.77614 18 5.5V4.75C18 3.7835 17.2165 3 16.25 3V3C15.2835 3 14.5 3.7835 14.5 4.75V6.17157C14.5 6.70201 14.2893 7.21071 13.9142 7.58579L7.58579 13.9142C7.21071 14.2893 6.70201 14.5 6.17157 14.5H4.74989C3.78345 14.5 3 15.2835 3 16.2499V16.2499C3 17.2163 3.78345 17.9998 4.74989 17.9998H5.5C5.77614 17.9998 6 18.2236 6 18.4998V19.2497C6 20.2162 6.78354 20.9997 7.75007 20.9997V20.9997C8.71654 20.9997 9.5 20.2162 9.5 19.2497V17.8284C9.5 17.298 9.71071 16.7893 10.0858 16.4142L16.4142 10.0858C16.7893 9.71071 17.298 9.5 17.8284 9.5Z" stroke="black" stroke-width="2" stroke-linecap="round" stroke-linejoin="round"/>
</svg>
