<svg width="24" height="24" viewBox="0 0 24 24" fill="none" xmlns="http://www.w3.org/2000/svg">
<path d="M4.8784 8.90834L10.5855 3.54999C11.3666 2.81667 12.6329 2.81667 13.4139 3.54999L19.121 8.90834M4.8784 8.90834C4.31599 9.43653 3.99972 10.1531 3.99972 10.9V18.1833C3.99972 19.7389 5.34286 21 6.99972 21H8.99969H14.9997H16.9997C18.6566 21 19.9997 19.7389 19.9997 18.1833V10.9C19.9997 10.153 19.6836 9.43656 19.121 8.90834M4.8784 8.90834L3 10.6722M19.121 8.90834L20.9997 10.6722M7.83713 13.9291L8.13953 14.2259C8.29365 14.3772 8.29365 14.6226 8.13953 14.7739L7.83723 15.0706C7.38768 15.512 7.38769 16.2275 7.83726 16.6689C8.28681 17.1102 9.01564 17.1101 9.46517 16.6688L9.96665 16.1765C10.3155 15.834 10.7887 15.6416 11.2821 15.6416L12.7177 15.6416C13.2112 15.6416 13.6844 15.834 14.0333 16.1766L14.5349 16.669C14.9845 17.1103 15.7133 17.1103 16.1628 16.669C16.6124 16.2277 16.6124 15.5121 16.1628 15.0708L15.8605 14.774C15.7064 14.6227 15.7064 14.3774 15.8605 14.2261L16.1628 13.9293C16.6124 13.4879 16.6124 12.7724 16.1628 12.3311C15.7133 11.8897 14.9844 11.8897 14.5349 12.3311L14.0333 12.8235C13.6844 13.166 13.2112 13.3585 12.7177 13.3585L11.2822 13.3584C10.7887 13.3584 10.3155 13.166 9.96661 12.8235L9.46495 12.331C9.01544 11.8897 8.28664 11.8897 7.83713 12.331C7.38762 12.7723 7.38762 13.4878 7.83713 13.9291Z" stroke="black" stroke-width="2" stroke-linecap="round"/>
</svg>
