<svg width="24" height="24" viewBox="0 0 24 24" fill="none" xmlns="http://www.w3.org/2000/svg">
<path d="M2 20H4M22 20H20M4 20L5.27866 16.8665C5.73927 15.7378 6.83717 15 8.0563 15H15.9689C17.1956 15 18.2987 15.7469 18.7543 16.8858L20 20M4 20H20M2.51867 7.08652L3.05543 7.63455C3.25303 7.83631 3.25303 8.16341 3.05543 8.36516L2.5188 8.91306C1.82718 9.61921 1.8272 10.7641 2.51885 11.4702C3.21046 12.1763 4.33173 12.1763 5.02331 11.4702L6.04034 10.4318C6.4199 10.0443 6.9347 9.82654 7.47148 9.82654L16.5284 9.82654C17.0652 9.82654 17.58 10.0443 17.9595 10.4318L18.9768 11.4704C19.6684 12.1765 20.7897 12.1765 21.4813 11.4704C22.1729 10.7643 22.1729 9.61941 21.4813 8.91328L20.9446 8.36533C20.747 8.16358 20.747 7.83647 20.9446 7.63472L21.4813 7.08677C22.1729 6.38064 22.1729 5.23578 21.4813 4.52965C20.7897 3.82352 19.6684 3.82352 18.9768 4.52965L17.9595 5.56826C17.58 5.95579 17.0652 6.17351 16.5284 6.17351L7.47148 6.17351C6.9347 6.17351 6.4199 5.95579 6.04034 5.56826L5.02301 4.52956C4.33146 3.82348 3.21022 3.82348 2.51867 4.52956C1.82711 5.23565 1.82711 6.38043 2.51867 7.08652Z" stroke="black" stroke-width="2" stroke-linecap="round" stroke-linejoin="round"/>
</svg>
