<svg width="24" height="24" viewBox="0 0 24 24" fill="none" xmlns="http://www.w3.org/2000/svg">
<path d="M9.66667 10.3333H9.67333M14 17.6033C12.489 17.8422 10.784 18 9 18L9.55589 15.0352C9.78667 13.8044 8.84242 12.6667 7.59015 12.6667H7.33333C6.59695 12.6667 6 12.0697 6 11.3333V10.6667C7.66667 10.6667 8 8 10 8V6C12.4412 6.91545 14.3237 9.22766 14.3688 12.6809C14.3765 13.2667 14.7098 13.8061 15.2303 14.0752C15.7693 14.3538 16.2593 14.6739 16.6857 15.0352M12 21V21C16.9706 21 21 16.9706 21 12V12C21 7.02944 16.9706 3 12 3V3C7.02944 3 3 7.02944 3 12V12C3 16.9706 7.02944 21 12 21Z" stroke="black" stroke-width="2" stroke-linecap="round" stroke-linejoin="round"/>
</svg>
