<svg width="24" height="24" viewBox="0 0 24 24" fill="none" xmlns="http://www.w3.org/2000/svg">
<path d="M9.66667 10.3333H9.67333M10 6V8C8 8 7.66667 10.6667 6 10.6667V11.3333C6 12.0697 6.59695 12.6667 7.33333 12.6667H7.59015C8.84242 12.6667 9.78667 13.8044 9.55589 15.0352L9 18C12.6667 18 16 17.3333 18 16.6667C17.4579 15.5824 16.4749 14.7186 15.2303 14.0752C14.7098 13.8061 14.3765 13.2667 14.3688 12.6809C14.3237 9.22766 12.4412 6.91545 10 6ZM7 21H17C19.2091 21 21 19.2091 21 17V7C21 4.79086 19.2091 3 17 3H7C4.79086 3 3 4.79086 3 7V17C3 19.2091 4.79086 21 7 21Z" stroke="black" stroke-width="2" stroke-linecap="round" stroke-linejoin="round"/>
</svg>
