<svg width="24" height="24" viewBox="0 0 24 24" fill="none" xmlns="http://www.w3.org/2000/svg">
<path d="M9.6 7.5H8.53125C7.13328 7.5 6 8.63328 6 10.0312V10.7625C6 11.7566 6.80589 12.5625 7.8 12.5625V12.5625C8.79411 12.5625 9.6 11.7566 9.6 10.7625V7.5ZM9.6 7.5H12.2757C12.8622 7.5 13.4193 7.75696 13.8 8.20312V8.20312C14.1807 8.64929 14.7378 8.90625 15.3243 8.90625H16.7727C17.4505 8.90625 18 9.45572 18 10.1335V10.1335C18 11.941 16.5347 13.4062 14.7273 13.4062H13.5C12.6716 13.4062 12 14.0778 12 14.9063V16.5C9.9 16.5 7.8 15.9375 6.6 14.8125L7.8 12.8438M11.7 9.75H11.706M7 21H17C19.2091 21 21 19.2091 21 17V7C21 4.79086 19.2091 3 17 3H7C4.79086 3 3 4.79086 3 7V17C3 19.2091 4.79086 21 7 21Z" stroke="black" stroke-width="2" stroke-linecap="round" stroke-linejoin="round"/>
</svg>
