<svg width="24" height="24" viewBox="0 0 24 24" fill="none" xmlns="http://www.w3.org/2000/svg">
<path d="M9.85 7.49995H8.78125C7.38328 7.49995 6.25 8.63323 6.25 10.0312V10.7624C6.25 11.7566 7.05589 12.5624 8.05 12.5624V12.5624C9.04411 12.5624 9.85 11.7566 9.85 10.7624V7.49995ZM9.85 7.49995H12.5257C13.1122 7.49995 13.6693 7.75691 14.05 8.20307V8.20307C14.4307 8.64923 14.9878 8.9062 15.5743 8.9062H17.0227C17.7005 8.9062 18.25 9.45567 18.25 10.1335V10.1335C18.25 11.9409 16.7847 13.4062 14.9773 13.4062H13.75C12.9216 13.4062 12.25 14.0778 12.25 14.9062V16.4999C10.15 16.4999 8.05 15.9374 6.85 14.8124L8.05 12.8437M11.95 9.74995H11.956M12.0004 22V22C17.5233 22 22.0009 17.5228 22.0009 12V12C22.0009 6.47715 17.5233 2 12.0004 2V2C6.4776 2 2 6.47715 2 12V12C2 17.5228 6.4776 22 12.0004 22Z" stroke="black" stroke-width="2" stroke-linecap="round" stroke-linejoin="round"/>
</svg>
