<svg width="24" height="24" viewBox="0 0 24 24" fill="none" xmlns="http://www.w3.org/2000/svg">
<path d="M8 4H5C3.34315 4 2 5.34315 2 7V10C2 11.6569 3.34315 13 5 13V13C6.65685 13 8 11.6569 8 10V4ZM8 4H12.5581C13.4695 4 14.3314 4.41427 14.9007 5.12591L15.0993 5.37408C15.6686 6.08573 16.5305 6.5 17.4419 6.5H20.5882C21.3679 6.5 22 7.13207 22 7.91176V7.91176C22 11.5503 19.0503 14.5 15.4118 14.5H13.5C12.6716 14.5 12 15.1716 12 16V20C8.5 20 5 19 3 17L5 13.5M11.5 8H11.51M19 7V7C19 8.10457 19.8954 9 21 9H21.5" stroke="black" stroke-width="2" stroke-linecap="round" stroke-linejoin="round"/>
</svg>
