<svg width="24" height="24" viewBox="0 0 24 24" fill="none" xmlns="http://www.w3.org/2000/svg">
<path d="M4.78494 8.5C4.3734 6.40207 4.26002 4.26002 3 3C8 3 12.5 5 14 9C14.5 7 16 5.5 17.5 5.5C19 5.5 20 6.5 21 7.5C17 8.5 20.25 11.5 18.5 15C17.2562 17.4876 14.6373 18.6 11.4985 18.0523C10.3818 17.8575 9.19757 18.4267 8.42956 19.2605C7.84835 19.8915 7.08911 20.4318 6.20464 20.7758C5.75968 20.9488 5.24124 20.908 4.89003 20.5846C4.02938 19.7921 3.98307 18.5666 4.31923 17.4479C4.60789 16.4872 5.60249 16 6.60555 16H8.66905C9.21278 16 9.74629 15.8522 10.2125 15.5725L12 14.5C6.49006 14.21 5.35323 11.3971 4.78494 8.5ZM4.78494 8.5C7.5 8 10 9.5 11.5 11" stroke="black" stroke-width="2" stroke-linecap="round" stroke-linejoin="round"/>
</svg>
