<svg width="24" height="24" viewBox="0 0 24 24" fill="none" xmlns="http://www.w3.org/2000/svg">
<path d="M5.75 5.75C5 6 4 6 3 6C3 9 7 9 7 8C7 7.5 5.7184 6.8448 6 6C6.5 4.5 8 3 10 3C12.5 3 13.6165 4.46607 14 6C14.5 8 13.5 9.5 12 11C14.5388 11.4231 16.7195 10.772 18.8451 9.34974C19.4233 8.96283 20.2417 9.19793 20.4336 9.86672C20.7535 10.9822 21 12.2446 21 14C21 18 17.8496 21 12.5 21C5.81819 21 3.50182 16.6346 5.19734 12.5M9.5 6H9.51M9.5 14.5C7 18 15 19 16.5 14.5C14 15 12 15 9.5 14.5Z" stroke="black" stroke-width="2" stroke-linecap="round" stroke-linejoin="round"/>
</svg>
