<svg width="24" height="24" viewBox="0 0 24 24" fill="none" xmlns="http://www.w3.org/2000/svg">
<path d="M6.99023 9.22222H7.00023M10.0006 7H10.0106M13.9906 7H14.0006M16.9802 9.22222H16.9902M12.0108 10.6842C10.1017 10.6842 7.87441 12.5789 7.55623 14.4737C7.29469 16.0312 8.1926 17 9.46533 17C10.7381 17 11.0562 15.7368 12.0108 15.7368C12.9653 15.7368 13.2835 17 14.5562 17C15.829 17 16.7269 16.0311 16.4653 14.4737C16.1472 12.5789 13.9199 10.6842 12.0108 10.6842ZM2 9.10051L2 14.8995C2 15.6951 2.31607 16.4582 2.87868 17.0208L6.97918 21.1213C7.54179 21.6839 8.30486 22 9.1005 22H14.8995C15.6951 22 16.4582 21.6839 17.0208 21.1213L21.1213 17.0208C21.6839 16.4582 22 15.6951 22 14.8995V9.1005C22 8.30486 21.6839 7.54179 21.1213 6.97918L17.0208 2.87868C16.4582 2.31607 15.6951 2 14.8995 2L9.1005 2C8.30486 2 7.54179 2.31607 6.97918 2.87868L2.87868 6.97918C2.31607 7.54179 2 8.30486 2 9.10051Z" stroke="black" stroke-width="2" stroke-linecap="round" stroke-linejoin="round"/>
</svg>
