<svg width="24" height="24" viewBox="0 0 24 24" fill="none" xmlns="http://www.w3.org/2000/svg">
<path fill-rule="evenodd" clip-rule="evenodd" d="M14.7994 4.11377C13.5538 1.96207 10.4423 1.96208 9.19674 4.11377L1.93724 16.6548C0.688677 18.8117 2.25203 21.5 4.73857 21.5H19.2576C21.7441 21.5 23.3074 18.8117 22.0589 16.6548L14.7994 4.11377ZM10.9277 5.11574C11.4029 4.29475 12.5932 4.29476 13.0685 5.11573L20.328 17.6567C20.8002 18.4725 20.2126 19.5 19.2576 19.5H4.73857C3.78356 19.5 3.19595 18.4725 3.66816 17.6567L10.9277 5.11574ZM10.857 12.2308C11.3304 12.2308 11.7142 11.8433 11.7142 11.3654C11.7142 10.8874 11.3304 10.5 10.857 10.5C10.3836 10.5 9.99989 10.8874 9.99989 11.3654C9.99989 11.8433 10.3836 12.2308 10.857 12.2308ZM9.71417 13.0962C9.71417 13.5741 9.33042 13.9615 8.85703 13.9615C8.38364 13.9615 7.99989 13.5741 7.99989 13.0962C7.99989 12.6182 8.38364 12.2308 8.85703 12.2308C9.33042 12.2308 9.71417 12.6182 9.71417 13.0962ZM8.95943 16.251C9.17761 14.9393 10.7049 13.6275 12.014 13.6275C13.3231 13.6275 14.8504 14.9393 15.0685 16.251C15.2479 17.3293 14.6322 18 13.7594 18C13.2917 18 13.012 17.7489 12.7524 17.5157C12.5275 17.3139 12.3178 17.1255 12.014 17.1255C11.7102 17.1255 11.5004 17.3139 11.2756 17.5157C11.0159 17.7489 10.7362 18 10.2685 18C9.39579 18 8.78008 17.3293 8.95943 16.251ZM13.9999 11.3654C13.9999 11.8433 13.6161 12.2308 13.1427 12.2308C12.6694 12.2308 12.2856 11.8433 12.2856 11.3654C12.2856 10.8874 12.6694 10.5 13.1427 10.5C13.6161 10.5 13.9999 10.8874 13.9999 11.3654ZM15.1427 13.9615C15.6161 13.9615 15.9999 13.5741 15.9999 13.0962C15.9999 12.6182 15.6161 12.2308 15.1427 12.2308C14.6694 12.2308 14.2856 12.6182 14.2856 13.0962C14.2856 13.5741 14.6694 13.9615 15.1427 13.9615Z" fill="black"/>
</svg>
