<svg width="24" height="24" viewBox="0 0 24 24" fill="none" xmlns="http://www.w3.org/2000/svg">
<path d="M8 9.77778H8.008M10.4083 8H10.4163M13.6003 8H13.6083M15.992 9.77778H16M8 3H7C4.79086 3 3 4.79086 3 7V8M16 3H17C19.2091 3 21 4.79086 21 7V8M8 21H7C4.79086 21 3 19.2091 3 17V15.9895M16 21H17C19.2091 21 21 19.2091 21 17V15.9895M12.0164 10.9474C10.4892 10.9474 8.70734 12.4632 8.4528 13.9789C8.24356 15.2249 8.96189 16 9.98007 16C10.9983 16 11.2528 14.9895 12.0164 14.9895C12.7801 14.9895 13.0346 16 14.0528 16C15.071 16 15.7893 15.2249 15.5801 13.9789C15.3255 12.4632 13.5437 10.9474 12.0164 10.9474Z" stroke="black" stroke-width="2" stroke-linecap="round" stroke-linejoin="round"/>
</svg>
