<svg width="24" height="24" viewBox="0 0 24 24" fill="none" xmlns="http://www.w3.org/2000/svg">
<path d="M6.99023 9.22222H7.00023M10.0006 7H10.0106M13.9906 7H14.0006M16.9802 9.22222H16.9902M12.0108 10.6842C10.1017 10.6842 7.87441 12.5789 7.55623 14.4737C7.29469 16.0312 8.1926 17 9.46533 17C10.7381 17 11.0562 15.7368 12.0108 15.7368C12.9653 15.7368 13.2835 17 14.5562 17C15.829 17 16.7269 16.0311 16.4653 14.4737C16.1472 12.5789 13.9199 10.6842 12.0108 10.6842ZM12 22V22C17.5228 22 22 17.5228 22 12V12C22 6.47715 17.5228 2 12 2V2C6.47715 2 2 6.47715 2 12V12C2 17.5228 6.47715 22 12 22Z" stroke="black" stroke-width="2" stroke-linecap="round" stroke-linejoin="round"/>
</svg>
