<svg width="24" height="24" viewBox="0 0 24 24" fill="none" xmlns="http://www.w3.org/2000/svg">
<path d="M6.99023 9.22222H7.00023M10.0006 7H10.0106M13.9906 7H14.0006M16.9802 9.22222H16.9902M12.0108 10.6842C10.1017 10.6842 7.87441 12.5789 7.55623 14.4737C7.29469 16.0312 8.1926 17 9.46533 17C10.7381 17 11.0562 15.7368 12.0108 15.7368C12.9653 15.7368 13.2835 17 14.5562 17C15.829 17 16.7269 16.0311 16.4653 14.4737C16.1472 12.5789 13.9199 10.6842 12.0108 10.6842ZM13.4884 2.89342L19.2384 6.16373C20.1731 6.69535 20.75 7.68472 20.75 8.75625V15.2438C20.75 16.3153 20.1731 17.3046 19.2384 17.8363L13.4884 21.1066C12.5661 21.6311 11.4339 21.6311 10.5116 21.1066L4.76158 17.8363C3.82686 17.3046 3.25 16.3153 3.25 15.2438V8.75625C3.25 7.68472 3.82686 6.69535 4.76158 6.16373L10.5116 2.89342C11.4339 2.36886 12.5661 2.36886 13.4884 2.89342Z" stroke="black" stroke-width="2" stroke-linecap="round" stroke-linejoin="round"/>
</svg>
