<svg width="24" height="24" viewBox="0 0 24 24" fill="none" xmlns="http://www.w3.org/2000/svg">
<path d="M3.5 8C4.32843 8 5 8.67157 5 9.5C5 10.3284 4.32843 11 3.5 11C2.67157 11 2 10.3284 2 9.5C2 8.67157 2.67157 8 3.5 8Z" stroke="black" stroke-width="2" stroke-linecap="round" stroke-linejoin="round"/>
<path d="M8.75 4C9.57843 4 10.25 4.67157 10.25 5.5C10.25 6.32843 9.57843 7 8.75 7C7.92157 7 7.25 6.32843 7.25 5.5C7.25 4.67157 7.92157 4 8.75 4Z" stroke="black" stroke-width="2" stroke-linecap="round" stroke-linejoin="round"/>
<path d="M15.25 4C16.0784 4 16.75 4.67157 16.75 5.5C16.75 6.32843 16.0784 7 15.25 7C14.4216 7 13.75 6.32843 13.75 5.5C13.75 4.67157 14.4216 4 15.25 4Z" stroke="black" stroke-width="2" stroke-linecap="round" stroke-linejoin="round"/>
<path d="M20.5 8C21.3284 8 22 8.67157 22 9.5C22 10.3284 21.3284 11 20.5 11C19.6716 11 19 10.3284 19 9.5C19 8.67157 19.6716 8 20.5 8Z" stroke="black" stroke-width="2" stroke-linecap="round" stroke-linejoin="round"/>
<path d="M5 16C5.5 13 9 10 12 10C15 10 18.5 13 19 16C19.411 18.466 18 20 16 20C14 20 13.5 18 12 18C10.5 18 10 20 8 20C6 20 4.589 18.466 5 16Z" stroke="black" stroke-width="2" stroke-linecap="round" stroke-linejoin="round"/>
</svg>
