<svg width="24" height="24" viewBox="0 0 24 24" fill="none" xmlns="http://www.w3.org/2000/svg">
<path d="M12 5.23684H12.009M14.6998 3H14.7088M18.2908 3H18.2998M20.991 5.23684H21M3 14.7368H3.009M5.69979 12.5H5.70879M9.29079 12.5H9.29979M11.991 14.7368H12M16.509 6.13158C14.7908 6.13158 12.7863 7.74211 12.4999 9.35263C12.2645 10.6765 13.0726 11.5 14.2181 11.5C15.3635 11.5 15.6499 10.4263 16.509 10.4263C17.3681 10.4263 17.6545 11.5 18.7999 11.5C19.9454 11.5 20.7535 10.6765 20.5181 9.35263C20.2317 7.74211 18.2272 6.13158 16.509 6.13158ZM7.509 15.6316C5.79081 15.6316 3.78626 17.2421 3.4999 18.8526C3.26451 20.1765 4.07263 21 5.21809 21C6.36354 21 6.64991 19.9263 7.509 19.9263C8.36809 19.9263 8.65446 21 9.79991 21C10.9454 21 11.7535 20.1765 11.5181 18.8526C11.2317 17.2421 9.22719 15.6316 7.509 15.6316Z" stroke="black" stroke-width="2" stroke-linecap="round" stroke-linejoin="round"/>
</svg>
