<svg width="24" height="24" viewBox="0 0 24 24" fill="none" xmlns="http://www.w3.org/2000/svg">
<path d="M19.3043 9.75554C19.7029 9.58341 20.1016 9.32307 20.442 9.06704C21.058 8.60382 21.1524 7.84945 20.7824 7.2289L19.1261 4.45106C18.5958 3.56176 17.5118 3 16.3261 3H14.5M19.3043 9.75554C18.9619 9.90338 18.6061 10 18.2608 10C16.1739 10 15.1304 8.25 15.1304 8.25M19.3043 9.75554L19.3039 18C19.3039 18.4622 19.1948 18.9 19 19.291M4.6957 9.75554C4.29707 9.58341 3.89843 9.32307 3.55797 9.06704C2.94201 8.60382 2.8476 7.84945 3.21761 7.2289L4.87395 4.45106C5.40422 3.56176 6.48816 3 7.67388 3H9.5M4.6957 9.75554C5.03809 9.90338 5.39393 10 5.73917 10C7.82612 10 8.86959 8.25 8.86959 8.25M4.6957 9.75554L4.69531 18C4.69531 18.4622 4.80439 18.9 4.99922 19.291M8.86959 8.25C8.86959 8.25 9.91306 10 12 10C14.0869 10 15.1304 8.25 15.1304 8.25M8.86959 8.25L9.5 3M15.1304 8.25L14.5 3M8 14.7778H8.008M10.4083 13H10.4163M13.6003 13H13.6083M15.992 14.7778H16M9.5 3H14.5M12.0164 15.9474C10.4892 15.9474 8.70734 17.4632 8.4528 18.9789C8.24356 20.2249 8.96189 21 9.98007 21C10.9983 21 11.2528 19.9895 12.0164 19.9895C12.7801 19.9895 13.0346 21 14.0528 21C15.071 21 15.7893 20.2249 15.5801 18.9789C15.3255 17.4632 13.5437 15.9474 12.0164 15.9474Z" stroke="black" stroke-width="2" stroke-linecap="round" stroke-linejoin="round"/>
</svg>
