<svg width="24" height="24" viewBox="0 0 24 24" fill="none" xmlns="http://www.w3.org/2000/svg">
<path d="M13 14.7778H13.008M15.4083 13H15.4163M18.6003 13H18.6083M20.992 14.7778H21M9.5 20L5.99514 19.9943C4.34018 19.9916 3 18.6493 3 16.9943V12.2426C3 11.447 3.31607 10.6839 3.87868 10.1213L10.1213 3.87868C10.6839 3.31607 11.447 3 12.2426 3H18C19.6569 3 21 4.34315 21 6V10M11 3.5V8C11 9.65685 9.65685 11 8 11H3.5M17.0164 15.9474C15.4892 15.9474 13.7073 17.4632 13.4528 18.9789C13.2436 20.2249 13.9619 21 14.9801 21C15.9983 21 16.2528 19.9895 17.0164 19.9895C17.7801 19.9895 18.0346 21 19.0528 21C20.071 21 20.7893 20.2249 20.5801 18.9789C20.3255 17.4632 18.5437 15.9474 17.0164 15.9474Z" stroke="black" stroke-width="2" stroke-linecap="round" stroke-linejoin="round"/>
</svg>
