<svg width="24" height="24" viewBox="0 0 24 24" fill="none" xmlns="http://www.w3.org/2000/svg">
<path fill-rule="evenodd" clip-rule="evenodd" d="M6.08862 5.14418C9.61418 1.61861 15.3303 1.61861 18.8558 5.14418C20.8331 7.12142 21.7014 9.78765 21.4609 12.37C21.2741 12.3031 21.0784 12.2539 20.8754 12.2244C20.6463 11.4402 20.116 10.773 19.4061 10.3794C19.1756 8.98028 18.5207 7.63752 17.4416 6.55839C14.6971 3.81387 10.2474 3.81387 7.50283 6.55839C4.75831 9.30291 4.75831 13.7526 7.50283 16.4972C8.46258 17.4569 9.63086 18.081 10.8618 18.3696C10.8047 18.5622 10.7589 18.7594 10.7258 18.9607C10.6482 19.4336 10.638 19.9148 10.7076 20.3824C9.32355 20.1079 7.99136 19.507 6.83444 18.5798L4.20711 21.2071C3.81658 21.5976 3.18342 21.5976 2.79289 21.2071C2.40237 20.8166 2.40237 20.1834 2.79289 19.7929L5.42023 17.1656C2.57925 13.6209 2.80205 8.43074 6.08862 5.14418ZM15.0714 14.1923C15.6632 14.1923 16.1429 13.7015 16.1429 13.0962C16.1429 12.4908 15.6632 12 15.0714 12C14.4797 12 14 12.4908 14 13.0962C14 13.7015 14.4797 14.1923 15.0714 14.1923ZM13.6429 15.2885C13.6429 15.8939 13.1632 16.3846 12.5714 16.3846C11.9797 16.3846 11.5 15.8939 11.5 15.2885C11.5 14.6831 11.9797 14.1923 12.5714 14.1923C13.1632 14.1923 13.6429 14.6831 13.6429 15.2885ZM12.6994 19.2846C12.9722 17.6231 14.8812 15.9615 16.5176 15.9615C18.154 15.9615 20.0631 17.6231 20.3358 19.2846C20.56 20.6504 19.7903 21.5 18.6994 21.5C18.1148 21.5 17.7652 21.1819 17.4406 20.8866C17.1596 20.6309 16.8973 20.3923 16.5176 20.3923C16.1379 20.3923 15.8757 20.6309 15.5946 20.8866C15.2701 21.1819 14.9204 21.5 14.3358 21.5C13.2449 21.5 12.4752 20.6504 12.6994 19.2846ZM19 13.0962C19 13.7015 18.5203 14.1923 17.9286 14.1923C17.3368 14.1923 16.8571 13.7015 16.8571 13.0962C16.8571 12.4908 17.3368 12 17.9286 12C18.5203 12 19 12.4908 19 13.0962ZM20.4286 16.3846C21.0203 16.3846 21.5 15.8939 21.5 15.2885C21.5 14.6831 21.0203 14.1923 20.4286 14.1923C19.8368 14.1923 19.3571 14.6831 19.3571 15.2885C19.3571 15.8939 19.8368 16.3846 20.4286 16.3846Z" fill="black"/>
</svg>
