<svg width="24" height="24" viewBox="0 0 24 24" fill="none" xmlns="http://www.w3.org/2000/svg">
<path d="M11.5 19H6.67385C4.80422 19 3.21423 17.6496 2.92994 15.8202L2.03365 10.0527C1.76889 8.34897 3.10039 6.8125 4.84158 6.8125H6.26506M6.26506 6.8125L7.21205 4M6.26506 6.8125H15.7349M15.7349 6.8125H17.1584C18.5287 6.8125 19.6453 7.76414 19.9297 9M15.7349 6.8125L14.788 4M15 14.5556H15.007M17.1072 13H17.1142M19.9002 13H19.9072M21.993 14.5556H22M18.5144 15.5789C17.178 15.5789 15.6189 16.9053 15.3962 18.2316C15.2131 19.3218 15.8417 20 16.7326 20C17.6235 20 17.8462 19.1158 18.5144 19.1158C19.1826 19.1158 19.4053 20 20.2962 20C21.1871 20 21.8157 19.3218 21.6326 18.2316C21.4099 16.9053 19.8508 15.5789 18.5144 15.5789Z" stroke="black" stroke-width="2" stroke-linecap="round" stroke-linejoin="round"/>
</svg>
