<svg width="24" height="24" viewBox="0 0 24 24" fill="none" xmlns="http://www.w3.org/2000/svg">
<path d="M8 9.52778H8.008M10.4083 7.75H10.4163M13.6003 7.75H13.6083M15.992 9.52778H16M4 5.59757V13.0968C4 18.7029 7.86037 20.4147 11.211 21.8392C11.7154 22.0536 12.2846 22.0536 12.789 21.8392C16.1396 20.4147 20 18.7029 20 13.0968V5.59757C20 5.24322 19.8159 4.91453 19.5143 4.73289C17.1742 3.3236 14.8058 2 12 2C9.19424 2 6.82582 3.3236 4.48572 4.73289C4.18412 4.91453 4 5.24322 4 5.59757ZM12.0164 10.6974C10.4892 10.6974 8.70734 12.2132 8.4528 13.7289C8.24356 14.9749 8.96189 15.75 9.98007 15.75C10.9983 15.75 11.2528 14.7395 12.0164 14.7395C12.7801 14.7395 13.0346 15.75 14.0528 15.75C15.071 15.75 15.7893 14.9749 15.5801 13.7289C15.3255 12.2132 13.5437 10.6974 12.0164 10.6974Z" stroke="black" stroke-width="2" stroke-linecap="round" stroke-linejoin="round"/>
</svg>
