<svg width="24" height="24" viewBox="0 0 24 24" fill="none" xmlns="http://www.w3.org/2000/svg">
<path fill-rule="evenodd" clip-rule="evenodd" d="M11.6387 4.74594C11.292 4.41802 10.708 4.41802 10.3613 4.74594L5.01092 9.8066C4.67663 10.1228 4.5 10.5394 4.5 10.9611V16.8398C4.5 17.705 5.2583 18.5 6.3125 18.5H12.222C12.3418 18.6353 12.4743 18.7593 12.6177 18.87C12.5624 19.0492 12.5181 19.2337 12.4866 19.4229C12.4278 19.7769 12.4121 20.1404 12.4481 20.5H6.3125C4.2601 20.5 2.5 18.913 2.5 16.8398V10.9611C2.5 9.97186 2.916 9.03516 3.6366 8.35359L8.98702 3.29293C10.1048 2.23569 11.8952 2.23569 13.013 3.29293L18.3634 8.35359C19.084 9.03516 19.5 9.97186 19.5 10.9611V12.1306C19.2302 12.0458 18.9424 12 18.6429 12C18.2349 12 17.8488 12.085 17.5 12.2377L17.5 10.9611C17.5 10.5394 17.3234 10.1228 16.9891 9.8066L11.6387 4.74594ZM16.3571 15.7308C16.8305 15.7308 17.2143 15.3433 17.2143 14.8654C17.2143 14.3874 16.8305 14 16.3571 14C15.8838 14 15.5 14.3874 15.5 14.8654C15.5 15.3433 15.8838 15.7308 16.3571 15.7308ZM15.2143 16.5962C15.2143 17.0741 14.8305 17.4615 14.3571 17.4615C13.8838 17.4615 13.5 17.0741 13.5 16.5962C13.5 16.1182 13.8838 15.7308 14.3571 15.7308C14.8305 15.7308 15.2143 16.1182 15.2143 16.5962ZM14.4595 19.751C14.6777 18.4393 16.205 17.1275 17.5141 17.1275C18.8232 17.1275 20.3505 18.4393 20.5686 19.751C20.748 20.8293 20.1323 21.5 19.2596 21.5C18.7919 21.5 18.5121 21.2489 18.2525 21.0157C18.0277 20.8139 17.8179 20.6255 17.5141 20.6255C17.2103 20.6255 17.0005 20.8139 16.7757 21.0157C16.516 21.2489 16.2363 21.5 15.7686 21.5C14.8959 21.5 14.2802 20.8293 14.4595 19.751ZM19.5 14.8654C19.5 15.3433 19.1162 15.7308 18.6429 15.7308C18.1695 15.7308 17.7857 15.3433 17.7857 14.8654C17.7857 14.3874 18.1695 14 18.6429 14C19.1162 14 19.5 14.3874 19.5 14.8654ZM20.6429 17.4615C21.1162 17.4615 21.5 17.0741 21.5 16.5962C21.5 16.1182 21.1162 15.7308 20.6429 15.7308C20.1695 15.7308 19.7857 16.1182 19.7857 16.5962C19.7857 17.0741 20.1695 17.4615 20.6429 17.4615Z" fill="black"/>
</svg>
