<svg width="24" height="24" viewBox="0 0 24 24" fill="none" xmlns="http://www.w3.org/2000/svg">
<path fill-rule="evenodd" clip-rule="evenodd" d="M11.2703 4.27902C11.6665 3.90699 12.3335 3.90699 12.7297 4.27902L18.4368 9.63737C18.8056 9.98363 19 10.4393 19 10.9V18.1833C19 19.1282 18.1649 20 17 20H7C5.83509 20 5 19.1282 5 18.1833V10.9C5 10.4393 5.19436 9.98363 5.56316 9.63737L11.2703 4.27902ZM14.0987 2.82096C12.9328 1.72635 11.0672 1.72635 9.90131 2.82096L4.1942 8.1793C3.43778 8.8895 3 9.8667 3 10.9V18.1833C3 20.3497 4.8512 22 7 22H17C19.1488 22 21 20.3497 21 18.1833V10.9C21 9.8667 20.5622 8.8895 19.8058 8.1793L14.0987 2.82096ZM10.8571 11.4808C11.3305 11.4808 11.7143 11.0933 11.7143 10.6154C11.7143 10.1374 11.3305 9.75 10.8571 9.75C10.3838 9.75 10 10.1374 10 10.6154C10 11.0933 10.3838 11.4808 10.8571 11.4808ZM9.71429 12.3462C9.71429 12.8241 9.33053 13.2115 8.85714 13.2115C8.38376 13.2115 8 12.8241 8 12.3462C8 11.8682 8.38376 11.4808 8.85714 11.4808C9.33053 11.4808 9.71429 11.8682 9.71429 12.3462ZM8.95954 15.501C9.17772 14.1893 10.705 12.8775 12.0141 12.8775C13.3232 12.8775 14.8505 14.1893 15.0686 15.501C15.248 16.5793 14.6323 17.25 13.7596 17.25C13.2919 17.25 13.0121 16.9989 12.7525 16.7657C12.5277 16.5639 12.3179 16.3755 12.0141 16.3755C11.7103 16.3755 11.5005 16.5639 11.2757 16.7657C11.016 16.9989 10.7363 17.25 10.2686 17.25C9.3959 17.25 8.78019 16.5793 8.95954 15.501ZM14 10.6154C14 11.0933 13.6162 11.4808 13.1429 11.4808C12.6695 11.4808 12.2857 11.0933 12.2857 10.6154C12.2857 10.1374 12.6695 9.75 13.1429 9.75C13.6162 9.75 14 10.1374 14 10.6154ZM15.1429 13.2115C15.6162 13.2115 16 12.8241 16 12.3462C16 11.8682 15.6162 11.4808 15.1429 11.4808C14.6695 11.4808 14.2857 11.8682 14.2857 12.3462C14.2857 12.8241 14.6695 13.2115 15.1429 13.2115Z" fill="black"/>
</svg>
