<svg width="24" height="24" viewBox="0 0 24 24" fill="none" xmlns="http://www.w3.org/2000/svg">
<path d="M17.5104 17.5104C20.8299 14.191 20.8299 8.80905 17.5104 5.48959C14.191 2.17014 8.80905 2.17014 5.48959 5.48959C2.17014 8.80905 2.17014 14.191 5.48959 17.5104C8.80905 20.8299 14.191 20.8299 17.5104 17.5104ZM17.5104 17.5104L21 21M7.5 9.27778H7.508M9.90825 7.5H9.91625M13.1003 7.5H13.1083M15.492 9.27778H15.5M11.5164 10.4474C9.98917 10.4474 8.20734 11.9632 7.9528 13.4789C7.74356 14.7249 8.46189 15.5 9.48007 15.5C10.4983 15.5 10.7528 14.4895 11.5164 14.4895C12.2801 14.4895 12.5346 15.5 13.5528 15.5C14.571 15.5 15.2893 14.7249 15.0801 13.4789C14.8255 11.9632 13.0437 10.4474 11.5164 10.4474Z" stroke="black" stroke-width="2" stroke-linecap="round" stroke-linejoin="round"/>
</svg>
