<svg width="24" height="24" viewBox="0 0 24 24" fill="none" xmlns="http://www.w3.org/2000/svg">
<path fill-rule="evenodd" clip-rule="evenodd" d="M10.8496 4C9.98134 4 9.23845 4.55522 8.96265 5.33388C8.77826 5.85447 8.20675 6.12701 7.68616 5.94262C7.16557 5.75822 6.89302 5.18672 7.07742 4.66612C7.62681 3.11505 9.10682 2 10.8496 2C12.5925 2 14.0731 3.11467 14.6213 4.667C14.8052 5.18777 14.5321 5.75902 14.0114 5.94293C13.4906 6.12684 12.9193 5.85376 12.7354 5.333C12.4608 4.55522 11.7185 4 10.8496 4ZM7.07653 9.5C6.04527 9.5 5.18308 10.2841 5.0855 11.3107L4.65777 15.8108C4.54617 16.9848 5.46946 18 6.64879 18H11.59C11.7843 18.4422 12.0869 18.8275 12.4659 19.12C12.4105 19.2992 12.3663 19.4837 12.3348 19.6729C12.3168 19.7811 12.3028 19.8903 12.2931 20H6.64879C4.29012 20 2.44355 17.9696 2.66674 15.6215L3.09447 11.1215C3.28964 9.06824 5.01401 7.5 7.07653 7.5H14.6208C16.6828 7.5 18.4068 9.0674 18.6027 11.12L18.7113 12.2583C18.6387 12.2528 18.5652 12.25 18.491 12.25C18.083 12.25 17.6969 12.335 17.3482 12.4877C17.1456 12.399 16.9304 12.3332 16.7056 12.2935L16.6118 11.31C16.5138 10.2837 15.6518 9.5 14.6208 9.5H7.07653ZM16.2095 15.9808C16.6829 15.9808 17.0666 15.5933 17.0666 15.1154C17.0666 14.6374 16.6829 14.25 16.2095 14.25C15.7361 14.25 15.3523 14.6374 15.3523 15.1154C15.3523 15.5933 15.7361 15.9808 16.2095 15.9808ZM15.0666 16.8462C15.0666 17.3241 14.6829 17.7115 14.2095 17.7115C13.7361 17.7115 13.3523 17.3241 13.3523 16.8462C13.3523 16.3682 13.7361 15.9808 14.2095 15.9808C14.6829 15.9808 15.0666 16.3682 15.0666 16.8462ZM14.3119 20.001C14.53 18.6893 16.0573 17.3775 17.3664 17.3775C18.6755 17.3775 20.2028 18.6893 20.421 20.001C20.6003 21.0793 19.9846 21.75 19.1119 21.75C18.6442 21.75 18.3645 21.4989 18.1048 21.2657C17.88 21.0639 17.6702 20.8755 17.3664 20.8755C17.0626 20.8755 16.8529 21.0639 16.628 21.2657C16.3684 21.4989 16.0887 21.75 15.621 21.75C14.7482 21.75 14.1325 21.0793 14.3119 20.001ZM19.3523 15.1154C19.3523 15.5933 18.9686 15.9808 18.4952 15.9808C18.0218 15.9808 17.638 15.5933 17.638 15.1154C17.638 14.6374 18.0218 14.25 18.4952 14.25C18.9686 14.25 19.3523 14.6374 19.3523 15.1154ZM20.4952 17.7115C20.9686 17.7115 21.3523 17.3241 21.3523 16.8462C21.3523 16.3682 20.9686 15.9808 20.4952 15.9808C20.0218 15.9808 19.638 16.3682 19.638 16.8462C19.638 17.3241 20.0218 17.7115 20.4952 17.7115Z" fill="black"/>
</svg>
