<svg width="24" height="24" viewBox="0 0 24 24" fill="none" xmlns="http://www.w3.org/2000/svg">
<path fill-rule="evenodd" clip-rule="evenodd" d="M3 10.2685C3 5.18104 6.99857 1 12 1C17.0014 1 21 5.18104 21 10.2685C21 11.1764 20.8977 12.0443 20.7159 12.8698C20.368 12.1482 19.7267 11.5906 18.9397 11.3624C18.9792 11.005 19 10.6403 19 10.2685C19 6.22286 15.8351 3 12 3C8.16487 3 5 6.22286 5 10.2685C5 15.0456 8.43728 18.6646 10.7519 20.5441C11.2125 20.9181 11.7678 21.062 12.3013 20.9758C12.3981 21.1662 12.5153 21.3501 12.6544 21.5249C13.0094 21.9712 13.4526 22.2887 13.9342 22.4885C12.5266 23.2827 10.7909 23.152 9.49119 22.0967C7.07638 20.1358 3 15.9999 3 10.2685ZM15.5 10C15.5 10.4654 15.4092 10.9095 15.2443 11.3157C14.3053 11.5208 13.5476 12.1872 13.2023 13.056C12.8455 13.1396 12.5157 13.29 12.2258 13.4928C12.1512 13.4976 12.0759 13.5 12 13.5C10.067 13.5 8.5 11.933 8.5 10C8.5 8.067 10.067 6.5 12 6.5C13.933 6.5 15.5 8.067 15.5 10ZM12 8.5C11.1716 8.5 10.5 9.17157 10.5 10C10.5 10.8284 11.1716 11.5 12 11.5C12.8284 11.5 13.5 10.8284 13.5 10C13.5 9.17157 12.8284 8.5 12 8.5ZM15.8571 14.9808C16.3305 14.9808 16.7143 14.5933 16.7143 14.1154C16.7143 13.6374 16.3305 13.25 15.8571 13.25C15.3838 13.25 15 13.6374 15 14.1154C15 14.5933 15.3838 14.9808 15.8571 14.9808ZM14.7143 15.8462C14.7143 16.3241 14.3305 16.7115 13.8571 16.7115C13.3838 16.7115 13 16.3241 13 15.8462C13 15.3682 13.3838 14.9808 13.8571 14.9808C14.3305 14.9808 14.7143 15.3682 14.7143 15.8462ZM13.9595 19.001C14.1777 17.6893 15.705 16.3775 17.0141 16.3775C18.3232 16.3775 19.8505 17.6893 20.0686 19.001C20.248 20.0793 19.6323 20.75 18.7596 20.75C18.2919 20.75 18.0121 20.4989 17.7525 20.2657C17.5277 20.0639 17.3179 19.8755 17.0141 19.8755C16.7103 19.8755 16.5005 20.0639 16.2757 20.2657C16.016 20.4989 15.7363 20.75 15.2686 20.75C14.3959 20.75 13.7802 20.0793 13.9595 19.001ZM19 14.1154C19 14.5933 18.6162 14.9808 18.1429 14.9808C17.6695 14.9808 17.2857 14.5933 17.2857 14.1154C17.2857 13.6374 17.6695 13.25 18.1429 13.25C18.6162 13.25 19 13.6374 19 14.1154ZM20.1429 16.7115C20.6162 16.7115 21 16.3241 21 15.8462C21 15.3682 20.6162 14.9808 20.1429 14.9808C19.6695 14.9808 19.2857 15.3682 19.2857 15.8462C19.2857 16.3241 19.6695 16.7115 20.1429 16.7115Z" fill="black"/>
</svg>
