<svg width="24" height="24" viewBox="0 0 24 24" fill="none" xmlns="http://www.w3.org/2000/svg">
<path fill-rule="evenodd" clip-rule="evenodd" d="M12 1C8.88379 1 6.29565 2.47554 3.96982 3.87625C3.36403 4.24107 3 4.89697 3 5.59757V13.0968C3 16.1695 4.07447 18.2637 5.66247 19.7632C7.19669 21.2119 9.1674 22.057 10.8198 22.7595C11.5742 23.0802 12.4258 23.0802 13.1802 22.7595C14.8326 22.057 16.8033 21.2119 18.3375 19.7632C19.9255 18.2637 21 16.1695 21 13.0968V5.59757C21 4.89697 20.636 4.24108 20.0302 3.87625C17.7044 2.47554 15.1162 1 12 1ZM5.00178 5.58993L5.00226 5.58916C7.35638 4.17144 9.50491 3 12 3C14.4951 3 16.6436 4.17144 18.9977 5.58916C18.9979 5.58932 18.998 5.58958 18.9982 5.58993C18.9991 5.59158 19 5.59406 19 5.59757V13.0968C19 15.6303 18.1443 17.195 16.9644 18.309C15.7308 19.4739 14.096 20.1969 12.3977 20.9189C12.1433 21.027 11.8567 21.027 11.6023 20.9189L11.211 21.8392L11.6023 20.9189C9.90401 20.1969 8.2692 19.4739 7.03557 18.309C5.85572 17.195 5 15.6303 5 13.0968V5.59757C5 5.59407 5.00086 5.59158 5.00178 5.58993ZM18.9977 5.58916C18.9979 5.58928 18.9982 5.58941 18.9984 5.58954C18.9977 5.58916 18.9975 5.58886 18.9975 5.58888C18.9975 5.58889 18.9976 5.58897 18.9977 5.58916ZM10.5714 9.44231C11.1632 9.44231 11.6429 8.95154 11.6429 8.34615C11.6429 7.74076 11.1632 7.25 10.5714 7.25C9.97969 7.25 9.5 7.74076 9.5 8.34615C9.5 8.95154 9.97969 9.44231 10.5714 9.44231ZM9.14286 10.5385C9.14286 11.1439 8.66316 11.6346 8.07143 11.6346C7.47969 11.6346 7 11.1439 7 10.5385C7 9.93307 7.47969 9.44231 8.07143 9.44231C8.66316 9.44231 9.14286 9.93307 9.14286 10.5385ZM8.19942 14.5346C8.47215 12.8731 10.3812 11.2115 12.0176 11.2115C13.654 11.2115 15.5631 12.8731 15.8358 14.5346C16.06 15.9004 15.2903 16.75 14.1994 16.75C13.6148 16.75 13.2652 16.4319 12.9406 16.1366C12.6596 15.8809 12.3973 15.6423 12.0176 15.6423C11.6379 15.6423 11.3757 15.8809 11.0946 16.1366C10.7701 16.4319 10.4204 16.75 9.83579 16.75C8.74488 16.75 7.97524 15.9004 8.19942 14.5346ZM14.5 8.34615C14.5 8.95154 14.0203 9.44231 13.4286 9.44231C12.8368 9.44231 12.3571 8.95154 12.3571 8.34615C12.3571 7.74076 12.8368 7.25 13.4286 7.25C14.0203 7.25 14.5 7.74076 14.5 8.34615ZM15.9286 11.6346C16.5203 11.6346 17 11.1439 17 10.5385C17 9.93307 16.5203 9.44231 15.9286 9.44231C15.3368 9.44231 14.8571 9.93307 14.8571 10.5385C14.8571 11.1439 15.3368 11.6346 15.9286 11.6346Z" fill="black"/>
</svg>
