<svg width="24" height="24" viewBox="0 0 24 24" fill="none" xmlns="http://www.w3.org/2000/svg">
<path fill-rule="evenodd" clip-rule="evenodd" d="M19.6125 4.45302C17.5101 2.52798 14.1615 2.55445 12.0005 4.3019C9.83962 2.55444 6.49151 2.52799 4.38915 4.45302C1.32531 7.25843 1.532 11.4108 3.20712 14.6942C4.87739 17.9681 8.18376 20.7768 11.9417 20.9982C11.9808 21.0005 12.0201 21.0005 12.0593 20.9982C15.8172 20.7768 19.1237 17.9681 20.7942 14.6943C22.4695 11.4109 22.6764 7.25846 19.6125 4.45302ZM13.0911 6.00094C14.511 4.69776 16.8775 4.66043 18.2619 5.92807C20.4128 7.89758 20.4568 10.9551 19.0127 13.7853C17.5737 16.6055 14.8325 18.8032 12.0005 18.9979C9.16846 18.8032 6.42746 16.6055 4.98866 13.7853C3.54476 10.9551 3.58882 7.89761 5.73979 5.92807C7.12421 4.66043 9.49008 4.69777 10.9099 6.00092C11.5226 6.5633 12.4783 6.56329 13.0911 6.00094ZM10.5722 9.44225C11.1639 9.44225 11.6436 8.95149 11.6436 8.3461C11.6436 7.74071 11.1639 7.24994 10.5722 7.24994C9.98046 7.24994 9.50077 7.74071 9.50077 8.3461C9.50077 8.95149 9.98046 9.44225 10.5722 9.44225ZM9.14363 10.5384C9.14363 11.1438 8.66393 11.6346 8.0722 11.6346C7.48046 11.6346 7.00077 11.1438 7.00077 10.5384C7.00077 9.93302 7.48046 9.44225 8.0722 9.44225C8.66393 9.44225 9.14363 9.93302 9.14363 10.5384ZM8.20019 14.5346C8.47292 12.873 10.382 11.2115 12.0184 11.2115C13.6548 11.2115 15.5639 12.873 15.8366 14.5346C16.0608 15.9003 15.2911 16.7499 14.2002 16.7499C13.6156 16.7499 13.2659 16.4318 12.9414 16.1366C12.6603 15.8808 12.3981 15.6423 12.0184 15.6423C11.6387 15.6423 11.3764 15.8808 11.0954 16.1366C10.7708 16.4318 10.4212 16.7499 9.83656 16.7499C8.74565 16.7499 7.97601 15.9003 8.20019 14.5346ZM14.5008 8.3461C14.5008 8.95149 14.0211 9.44225 13.4293 9.44225C12.8376 9.44225 12.3579 8.95149 12.3579 8.3461C12.3579 7.74071 12.8376 7.24994 13.4293 7.24994C14.0211 7.24994 14.5008 7.74071 14.5008 8.3461ZM15.9293 11.6346C16.5211 11.6346 17.0008 11.1438 17.0008 10.5384C17.0008 9.93302 16.5211 9.44225 15.9293 9.44225C15.3376 9.44225 14.8579 9.93302 14.8579 10.5384C14.8579 11.1438 15.3376 11.6346 15.9293 11.6346Z" fill="black"/>
</svg>
