<svg width="24" height="24" viewBox="0 0 24 24" fill="none" xmlns="http://www.w3.org/2000/svg">
<path d="M6.48959 17.5104C3.17014 14.191 3.17014 8.80905 6.48959 5.48959C9.80905 2.17014 15.191 2.17014 18.5104 5.48959C19.787 6.76622 20.5727 8.3479 20.8674 10M6.48959 17.5104L3 21M6.48959 17.5104C7.37292 18.3937 8.4023 19.042 9.5 19.4552M21 14.7778H20.992M18.5917 13H18.5837M15.3997 13H15.3917M13.008 14.7778H13M16.9836 15.9474C18.5108 15.9474 20.2927 17.4632 20.5472 18.9789C20.7564 20.2249 20.0381 21 19.0199 21C18.0017 21 17.7472 19.9895 16.9836 19.9895C16.2199 19.9895 15.9654 21 14.9472 21C13.929 21 13.2107 20.2249 13.4199 18.9789C13.6745 17.4632 15.4563 15.9474 16.9836 15.9474Z" stroke="black" stroke-width="2" stroke-linecap="round" stroke-linejoin="round"/>
</svg>
