<svg width="24" height="24" viewBox="0 0 24 24" fill="none" xmlns="http://www.w3.org/2000/svg">
<path d="M8.5 9.55556H8.507M10.6072 8H10.6142M13.4002 8H13.4072M15.493 9.55556H15.5M4.39926 5.50284C6.26494 3.49947 9.2898 3.49947 11.1555 5.50284C11.6219 6.00369 12.3781 6.00369 12.8445 5.50284C14.7102 3.49947 17.7351 3.49884 19.6007 5.50222C21.4664 7.50559 21.4664 10.7543 19.6007 12.7577L13.4472 19.3654C12.6592 20.2115 11.3408 20.2115 10.5528 19.3654L4.39926 12.7577C2.53358 10.7543 2.53358 7.50622 4.39926 5.50284ZM12.0144 10.5789C10.678 10.5789 9.11892 11.9053 8.8962 13.2316C8.71312 14.3218 9.34165 15 10.2326 15C11.1235 15 11.3462 14.1158 12.0144 14.1158C12.6826 14.1158 12.9053 15 13.7962 15C14.6871 15 15.3157 14.3218 15.1326 13.2316C14.9099 11.9053 13.3508 10.5789 12.0144 10.5789Z" stroke="black" stroke-width="2" stroke-linecap="round" stroke-linejoin="round"/>
</svg>
