<svg width="24" height="24" viewBox="0 0 24 24" fill="none" xmlns="http://www.w3.org/2000/svg">
<path d="M9.5 19H6.64786C5.40359 19 4.33736 18.0775 4.11478 16.8085L3.04158 10.6896C2.88085 9.77316 3.19262 8.83617 3.86418 8.21735L8.79461 3.67415C9.27903 3.22778 9.88536 3.00309 10.4925 3.00003C11.1088 2.99693 11.7259 3.22216 12.2172 3.67568L17.1375 8.21739C17.3807 8.44188 17.5766 8.70813 17.7199 9M13 14.7778H13.008M15.4083 13H15.4163M18.6003 13H18.6083M20.992 14.7778H21M17.0164 15.9474C15.4892 15.9474 13.7073 17.4632 13.4528 18.9789C13.2436 20.2249 13.9619 21 14.9801 21C15.9983 21 16.2528 19.9895 17.0164 19.9895C17.7801 19.9895 18.0346 21 19.0528 21C20.071 21 20.7893 20.2249 20.5801 18.9789C20.3255 17.4632 18.5437 15.9474 17.0164 15.9474Z" stroke="black" stroke-width="2" stroke-linecap="round" stroke-linejoin="round"/>
</svg>
