<svg width="24" height="24" viewBox="0 0 24 24" fill="none" xmlns="http://www.w3.org/2000/svg">
<path d="M13 14.7778H13.008M15.4083 13H15.4163M18.6003 13H18.6083M20.992 14.7778H21M7.1901 6C7.1901 4.34315 8.53477 3 10.1935 3C11.8523 3 13.1969 4.34315 13.1969 6M15.7 9.53854C15.2116 9.19821 14.6185 9 13.9829 9H6.40417C4.86116 9 3.56919 10.1679 3.41565 11.7015L3.0152 15.7015C2.83839 17.4675 4.22682 19 6.00371 19H9.69316M17.0164 15.9474C15.4892 15.9474 13.7073 17.4632 13.4528 18.9789C13.2436 20.2249 13.9619 21 14.9801 21C15.9983 21 16.2528 19.9895 17.0164 19.9895C17.7801 19.9895 18.0346 21 19.0528 21C20.071 21 20.7893 20.2249 20.5801 18.9789C20.3255 17.4632 18.5437 15.9474 17.0164 15.9474Z" stroke="black" stroke-width="2" stroke-linecap="round" stroke-linejoin="round"/>
</svg>
