<svg width="24" height="24" viewBox="0 0 24 24" fill="none" xmlns="http://www.w3.org/2000/svg">
<path fill-rule="evenodd" clip-rule="evenodd" d="M12.0723 4.71791C11.7629 4.42736 11.2366 4.42736 10.9271 4.71791L5.85428 9.48078L5.85422 9.48083L5.85417 9.48088L5.85382 9.48121C5.54782 9.76882 5.38864 10.1449 5.38864 10.5222V16.9963C5.38864 17.7683 6.07449 18.5 7.0553 18.5H8.83305H12.222C12.3418 18.6353 12.4743 18.7593 12.6177 18.87C12.5624 19.0492 12.5181 19.2337 12.4866 19.4229C12.4278 19.7769 12.4121 20.1404 12.4481 20.5H8.83305H7.0553C5.0906 20.5 3.38864 18.9898 3.38864 16.9963V11.3135C3.16071 11.2881 2.94032 11.1846 2.77102 11.0043C2.39297 10.6017 2.41286 9.96882 2.81547 9.59076L4.48435 8.02362L4.4851 8.02293L4.48515 8.02287L4.48521 8.02282L9.55818 3.25985C10.6373 2.24672 12.3622 2.24672 13.4413 3.25985L18.5143 8.02282L18.5153 8.02384L20.1842 9.59071C20.5868 9.96874 20.6068 10.6016 20.2288 11.0042C20.0594 11.1846 19.8389 11.2882 19.6108 11.3136V12.168C19.3095 12.0594 18.9838 12 18.6429 12C18.2776 12 17.9299 12.0681 17.6108 12.192V10.5222C17.6108 10.1445 17.4516 9.76846 17.1453 9.48089L12.0723 4.71791ZM16.3571 15.7308C16.8305 15.7308 17.2143 15.3433 17.2143 14.8654C17.2143 14.3874 16.8305 14 16.3571 14C15.8838 14 15.5 14.3874 15.5 14.8654C15.5 15.3433 15.8838 15.7308 16.3571 15.7308ZM15.2143 16.5962C15.2143 17.0741 14.8305 17.4615 14.3571 17.4615C13.8838 17.4615 13.5 17.0741 13.5 16.5962C13.5 16.1182 13.8838 15.7308 14.3571 15.7308C14.8305 15.7308 15.2143 16.1182 15.2143 16.5962ZM14.4595 19.751C14.6777 18.4393 16.205 17.1275 17.5141 17.1275C18.8232 17.1275 20.3505 18.4393 20.5686 19.751C20.748 20.8293 20.1323 21.5 19.2596 21.5C18.7919 21.5 18.5121 21.2489 18.2525 21.0157C18.0277 20.8139 17.8179 20.6255 17.5141 20.6255C17.2103 20.6255 17.0005 20.8139 16.7757 21.0157C16.516 21.2489 16.2363 21.5 15.7686 21.5C14.8959 21.5 14.2802 20.8293 14.4595 19.751ZM19.5 14.8654C19.5 15.3433 19.1162 15.7308 18.6429 15.7308C18.1695 15.7308 17.7857 15.3433 17.7857 14.8654C17.7857 14.3874 18.1695 14 18.6429 14C19.1162 14 19.5 14.3874 19.5 14.8654ZM20.6429 17.4615C21.1162 17.4615 21.5 17.0741 21.5 16.5962C21.5 16.1182 21.1162 15.7308 20.6429 15.7308C20.1695 15.7308 19.7857 16.1182 19.7857 16.5962C19.7857 17.0741 20.1695 17.4615 20.6429 17.4615Z" fill="black"/>
</svg>
