<svg width="24" height="24" viewBox="0 0 24 24" fill="none" xmlns="http://www.w3.org/2000/svg">
<path d="M8 10.7778H8.008M10.4083 9H10.4163M13.6003 9H13.6083M15.992 10.7778H16M8 5H6C4.34315 5 3 6.34315 3 8V18C3 19.6569 4.34315 21 6 21H18C19.6569 21 21 19.6569 21 18V8C21 6.34315 19.6569 5 18 5H15.992M8 5V3M8 5H15.992M15.992 5V3M12.0164 11.9474C10.4892 11.9474 8.70734 13.4632 8.4528 14.9789C8.24356 16.2249 8.96189 17 9.98007 17C10.9983 17 11.2528 15.9895 12.0164 15.9895C12.7801 15.9895 13.0346 17 14.0528 17C15.071 17 15.7893 16.2249 15.5801 14.9789C15.3255 13.4632 13.5437 11.9474 12.0164 11.9474Z" stroke="black" stroke-width="2" stroke-linecap="round" stroke-linejoin="round"/>
</svg>
