<svg width="24" height="24" viewBox="0 0 24 24" fill="none" xmlns="http://www.w3.org/2000/svg">
<path d="M19 10.5V5.41769C19 5.08106 18.8274 4.76881 18.5446 4.59625C16.3508 3.25742 14.1304 2 11.5 2C8.8696 2 6.64921 3.25742 4.45537 4.59625C4.17261 4.7688 4 5.08106 4 5.41769V12.542C4 16.605 6.10637 18.5149 8.5 19.793M12 15.7778H12.008M14.4083 14H14.4163M17.6003 14H17.6083M19.992 15.7778H20M16.0164 16.9474C14.4892 16.9474 12.7073 18.4632 12.4528 19.9789C12.2436 21.2249 12.9619 22 13.9801 22C14.9983 22 15.2528 20.9895 16.0164 20.9895C16.7801 20.9895 17.0346 22 18.0528 22C19.071 22 19.7893 21.2249 19.5801 19.9789C19.3255 18.4632 17.5437 16.9474 16.0164 16.9474Z" stroke="black" stroke-width="2" stroke-linecap="round" stroke-linejoin="round"/>
</svg>
