<svg width="24" height="24" viewBox="0 0 24 24" fill="none" xmlns="http://www.w3.org/2000/svg">
<path fill-rule="evenodd" clip-rule="evenodd" d="M12 1C6.99857 1 3 5.18104 3 10.2685C3 15.9999 7.07638 20.1358 9.49119 22.0967C10.9744 23.3011 13.0256 23.3011 14.5088 22.0967C16.9236 20.1358 21 15.9999 21 10.2685C21 5.18104 17.0014 1 12 1ZM5 10.2685C5 6.22286 8.16487 3 12 3C15.8351 3 19 6.22286 19 10.2685C19 15.0456 15.5627 18.6646 13.2481 20.5441C12.4995 21.152 11.5005 21.152 10.7519 20.5441C8.43728 18.6646 5 15.0456 5 10.2685ZM10.8571 7.98077C11.3305 7.98077 11.7143 7.59332 11.7143 7.11538C11.7143 6.63745 11.3305 6.25 10.8571 6.25C10.3838 6.25 10 6.63745 10 7.11538C10 7.59332 10.3838 7.98077 10.8571 7.98077ZM9.71429 8.84615C9.71429 9.32409 9.33053 9.71154 8.85714 9.71154C8.38376 9.71154 8 9.32409 8 8.84615C8 8.36822 8.38376 7.98077 8.85714 7.98077C9.33053 7.98077 9.71429 8.36822 9.71429 8.84615ZM8.95954 12.001C9.17772 10.6893 10.705 9.37753 12.0141 9.37753C13.3232 9.37753 14.8505 10.6893 15.0686 12.001C15.248 13.0793 14.6323 13.75 13.7596 13.75C13.2919 13.75 13.0121 13.4989 12.7525 13.2657C12.5277 13.0639 12.3179 12.8755 12.0141 12.8755C11.7103 12.8755 11.5005 13.0639 11.2757 13.2657C11.016 13.4989 10.7363 13.75 10.2686 13.75C9.3959 13.75 8.78019 13.0793 8.95954 12.001ZM14 7.11538C14 7.59332 13.6162 7.98077 13.1429 7.98077C12.6695 7.98077 12.2857 7.59332 12.2857 7.11538C12.2857 6.63745 12.6695 6.25 13.1429 6.25C13.6162 6.25 14 6.63745 14 7.11538ZM15.1429 9.71154C15.6162 9.71154 16 9.32409 16 8.84615C16 8.36822 15.6162 7.98077 15.1429 7.98077C14.6695 7.98077 14.2857 8.36822 14.2857 8.84615C14.2857 9.32409 14.6695 9.71154 15.1429 9.71154Z" fill="black"/>
</svg>
