<svg width="24" height="24" viewBox="0 0 24 24" fill="none" xmlns="http://www.w3.org/2000/svg">
<path d="M8 9.52778H8.008M10.4083 7.75H10.4163M13.6003 7.75H13.6083M15.992 9.52778H16M18.9364 5.1906C17.1496 3.55447 14.1959 3.62892 12.4141 5.26425C12.1838 5.4756 11.8156 5.4756 11.5853 5.26425C9.80358 3.62892 6.85055 3.55447 5.0637 5.1906C-0.151112 9.96555 5.38897 19.6105 11.9997 20C18.6105 19.6105 24.1512 9.96555 18.9364 5.1906ZM12.0164 10.6974C10.4892 10.6974 8.70734 12.2132 8.4528 13.7289C8.24356 14.9749 8.96189 15.75 9.98007 15.75C10.9983 15.75 11.2528 14.7395 12.0164 14.7395C12.7801 14.7395 13.0346 15.75 14.0528 15.75C15.071 15.75 15.7893 14.9749 15.5801 13.7289C15.3255 12.2132 13.5437 10.6974 12.0164 10.6974Z" stroke="black" stroke-width="2" stroke-linecap="round" stroke-linejoin="round"/>
</svg>
