<svg width="24" height="24" viewBox="0 0 24 24" fill="none" xmlns="http://www.w3.org/2000/svg">
<path fill-rule="evenodd" clip-rule="evenodd" d="M6.1967 6.1967C9.12563 3.26777 13.8744 3.26777 16.8033 6.1967C19.7322 9.12563 19.7322 13.8744 16.8033 16.8033C13.8744 19.7322 9.12563 19.7322 6.1967 16.8033C3.26777 13.8744 3.26777 9.12563 6.1967 6.1967ZM18.2175 4.78249C14.5075 1.0725 8.49247 1.0725 4.78249 4.78249C1.0725 8.49247 1.0725 14.5075 4.78249 18.2175C8.25365 21.6887 13.7427 21.9121 17.4736 18.8878L20.2929 21.7071C20.6834 22.0976 21.3166 22.0976 21.7071 21.7071C22.0976 21.3166 22.0976 20.6834 21.7071 20.2929L18.8878 17.4736C21.9121 13.7427 21.6887 8.25365 18.2175 4.78249ZM10.0714 8.94231C10.6632 8.94231 11.1429 8.45154 11.1429 7.84615C11.1429 7.24076 10.6632 6.75 10.0714 6.75C9.47969 6.75 9 7.24076 9 7.84615C9 8.45154 9.47969 8.94231 10.0714 8.94231ZM8.64286 10.0385C8.64286 10.6439 8.16316 11.1346 7.57143 11.1346C6.97969 11.1346 6.5 10.6439 6.5 10.0385C6.5 9.43307 6.97969 8.94231 7.57143 8.94231C8.16316 8.94231 8.64286 9.43307 8.64286 10.0385ZM7.69942 14.0346C7.97215 12.3731 9.88125 10.7115 11.5176 10.7115C13.154 10.7115 15.0631 12.3731 15.3358 14.0346C15.56 15.4004 14.7903 16.25 13.6994 16.25C13.1148 16.25 12.7652 15.9319 12.4406 15.6366C12.1596 15.3809 11.8973 15.1423 11.5176 15.1423C11.1379 15.1423 10.8757 15.3809 10.5946 15.6366C10.2701 15.9319 9.92041 16.25 9.33579 16.25C8.24488 16.25 7.47524 15.4004 7.69942 14.0346ZM14 7.84615C14 8.45154 13.5203 8.94231 12.9286 8.94231C12.3368 8.94231 11.8571 8.45154 11.8571 7.84615C11.8571 7.24076 12.3368 6.75 12.9286 6.75C13.5203 6.75 14 7.24076 14 7.84615ZM15.4286 11.1346C16.0203 11.1346 16.5 10.6439 16.5 10.0385C16.5 9.43307 16.0203 8.94231 15.4286 8.94231C14.8368 8.94231 14.3571 9.43307 14.3571 10.0385C14.3571 10.6439 14.8368 11.1346 15.4286 11.1346Z" fill="black"/>
</svg>
