<svg width="24" height="24" viewBox="0 0 24 24" fill="none" xmlns="http://www.w3.org/2000/svg">
<path fill-rule="evenodd" clip-rule="evenodd" d="M11.4355 4.17138C11.7809 3.94287 12.2191 3.94287 12.5645 4.17138C14.8974 5.71489 17.1241 6.95306 19.9581 7.53066C19.9746 7.53403 19.9883 7.54315 19.9961 7.55266L19.9977 7.55478L19.9994 7.55741L20 7.5586L20 7.55938C19.8001 13.4112 17.5662 18.3089 12.5882 19.908C12.2065 20.0307 11.7936 20.0307 11.4118 19.908C6.43386 18.3089 4.19995 13.4112 4.00004 7.55938L4.00003 7.55851L4.00064 7.55741C4.00126 7.55632 4.00232 7.55468 4.00398 7.55266C4.0118 7.54315 4.02544 7.53403 4.04194 7.53066C6.87594 6.95306 9.10264 5.71489 11.4355 4.17138ZM13.6681 2.50341C12.6536 1.8322 11.3465 1.8322 10.332 2.50341C8.07626 3.99584 6.10335 5.0694 3.64252 5.57095C2.7104 5.76093 1.96586 6.59293 2.00121 7.62766C2.21303 13.8283 4.63235 19.8309 10.8001 21.8122C11.5797 22.0626 12.4204 22.0626 13.1999 21.8122C19.3677 19.8309 21.787 13.8283 21.9989 7.62766C22.0342 6.59293 21.2897 5.76093 20.3575 5.57095C17.8967 5.0694 15.9238 3.99584 13.6681 2.50341ZM10.8572 10.2308C11.3306 10.2308 11.7143 9.84332 11.7143 9.36538C11.7143 8.88745 11.3306 8.5 10.8572 8.5C10.3838 8.5 10 8.88745 10 9.36538C10 9.84332 10.3838 10.2308 10.8572 10.2308ZM9.71432 11.0962C9.71432 11.5741 9.33056 11.9615 8.85717 11.9615C8.38379 11.9615 8.00003 11.5741 8.00003 11.0962C8.00003 10.6182 8.38379 10.2308 8.85717 10.2308C9.33056 10.2308 9.71432 10.6182 9.71432 11.0962ZM8.95957 14.251C9.17775 12.9393 10.705 11.6275 12.0141 11.6275C13.3232 11.6275 14.8505 12.9393 15.0687 14.251C15.248 15.3293 14.6323 16 13.7596 16C13.2919 16 13.0122 15.7489 12.7525 15.5157C12.5277 15.3139 12.3179 15.1255 12.0141 15.1255C11.7103 15.1255 11.5006 15.3139 11.2757 15.5157C11.0161 15.7489 10.7364 16 10.2687 16C9.39594 16 8.78023 15.3293 8.95957 14.251ZM14 9.36538C14 9.84332 13.6163 10.2308 13.1429 10.2308C12.6695 10.2308 12.2857 9.84332 12.2857 9.36538C12.2857 8.88745 12.6695 8.5 13.1429 8.5C13.6163 8.5 14 8.88745 14 9.36538ZM15.1429 11.9615C15.6163 11.9615 16 11.5741 16 11.0962C16 10.6182 15.6163 10.2308 15.1429 10.2308C14.6695 10.2308 14.2857 10.6182 14.2857 11.0962C14.2857 11.5741 14.6695 11.9615 15.1429 11.9615Z" fill="black"/>
</svg>
