<svg width="24" height="24" viewBox="0 0 24 24" fill="none" xmlns="http://www.w3.org/2000/svg">
<path d="M8.5 7.5V5.5C8.5 3.567 10.067 2 12 2V2C13.933 2 15.5 3.567 15.5 5.5V7.5M8 12.7778H8.008M10.4083 11H10.4163M13.6003 11H13.6083M15.992 12.7778H16M12.0164 13.9474C10.4892 13.9474 8.70734 15.4632 8.4528 16.9789C8.24356 18.2249 8.96189 19 9.98007 19C10.9983 19 11.2528 17.9895 12.0164 17.9895C12.7801 17.9895 13.0346 19 14.0528 19C15.071 19 15.7893 18.2249 15.5801 16.9789C15.3255 15.4632 13.5437 13.9474 12.0164 13.9474ZM19.199 10.7863L19.7704 18.7863C19.8945 20.5229 18.5191 22 16.7781 22H7.22193C5.4809 22 4.10551 20.5229 4.22955 18.7863L4.80098 10.7863C4.91312 9.21634 6.21944 8 7.79336 8H16.2066C17.7806 8 19.0869 9.21634 19.199 10.7863Z" stroke="black" stroke-width="2" stroke-linecap="round" stroke-linejoin="round"/>
</svg>
