<svg width="24" height="24" viewBox="0 0 24 24" fill="none" xmlns="http://www.w3.org/2000/svg">
<path fill-rule="evenodd" clip-rule="evenodd" d="M9.2837 3.86916C9.48743 3.35582 9.23645 2.77453 8.72312 2.57079C8.20978 2.36706 7.62848 2.61804 7.42475 3.13138L5.90829 6.95233C3.78468 7.08867 2.21733 9.03504 2.54288 11.1678L3.37763 16.6363C3.71607 18.8534 5.61197 20.5003 7.85299 20.5003H11.9962C12.5485 20.5003 12.9962 20.0526 12.9962 19.5003C12.9962 18.948 12.5485 18.5003 11.9962 18.5003H7.85299C6.61153 18.5003 5.54582 17.5863 5.35473 16.3345L4.51998 10.866C4.36444 9.84698 5.14643 8.94471 6.14654 8.94471H6.59031H15.4099H15.8537C16.8538 8.94471 17.6358 9.84698 17.4802 10.866L17.4064 11.3495C17.3231 11.8955 17.6981 12.4056 18.2441 12.4889C18.79 12.5723 19.3002 12.1972 19.3835 11.6513L19.4573 11.1678C19.7829 9.03504 18.2155 7.08867 16.0919 6.95233L14.5754 3.13138C14.3717 2.61804 13.7904 2.36706 13.2771 2.57079C12.7637 2.77453 12.5128 3.35582 12.7165 3.86916L13.9371 6.94471H8.06307L9.2837 3.86916ZM16.3532 15.7311C16.8266 15.7311 17.2104 15.3437 17.2104 14.8658C17.2104 14.3878 16.8266 14.0004 16.3532 14.0004C15.8798 14.0004 15.4961 14.3878 15.4961 14.8658C15.4961 15.3437 15.8798 15.7311 16.3532 15.7311ZM15.2104 16.5965C15.2104 17.0745 14.8266 17.4619 14.3532 17.4619C13.8798 17.4619 13.4961 17.0745 13.4961 16.5965C13.4961 16.1186 13.8798 15.7311 14.3532 15.7311C14.8266 15.7311 15.2104 16.1186 15.2104 16.5965ZM14.4556 19.7514C14.6738 18.4396 16.2011 17.1279 17.5102 17.1279C18.8193 17.1279 20.3466 18.4396 20.5647 19.7514C20.7441 20.8296 20.1284 21.5004 19.2556 21.5004C18.788 21.5004 18.5082 21.2492 18.2486 21.0161C18.0238 20.8142 17.814 20.6259 17.5102 20.6259C17.2064 20.6259 16.9966 20.8142 16.7718 21.0161C16.5121 21.2492 16.2324 21.5004 15.7647 21.5004C14.892 21.5004 14.2763 20.8296 14.4556 19.7514ZM19.4961 14.8658C19.4961 15.3437 19.1123 15.7311 18.639 15.7311C18.1656 15.7311 17.7818 15.3437 17.7818 14.8658C17.7818 14.3878 18.1656 14.0004 18.639 14.0004C19.1123 14.0004 19.4961 14.3878 19.4961 14.8658ZM20.639 17.4619C21.1123 17.4619 21.4961 17.0745 21.4961 16.5965C21.4961 16.1186 21.1123 15.7311 20.639 15.7311C20.1656 15.7311 19.7818 16.1186 19.7818 16.5965C19.7818 17.0745 20.1656 17.4619 20.639 17.4619Z" fill="black"/>
</svg>
