<svg width="24" height="24" viewBox="0 0 24 24" fill="none" xmlns="http://www.w3.org/2000/svg">
<path fill-rule="evenodd" clip-rule="evenodd" d="M4.43444 4.24265C6.61305 2.91311 9.05528 1.5 12 1.5C14.9447 1.5 17.3869 2.91311 19.5656 4.24265C20.1531 4.60122 20.5 5.24105 20.5 5.91769V13.042C20.5 13.1569 20.4984 13.2705 20.4954 13.3826C20.2983 13.3093 20.0909 13.2557 19.8754 13.2244C19.6565 12.4752 19.1627 11.8328 18.5 11.4337V5.93539C16.3003 4.59386 14.3078 3.5 12 3.5C9.6922 3.5 7.69967 4.59386 5.5 5.93539V13.042C5.5 15.4397 6.29875 16.9143 7.39355 17.9618C8.08351 18.622 8.90886 19.1321 9.80368 19.5831C9.77285 19.7072 9.74676 19.8332 9.72583 19.9607C9.62522 20.5737 9.63787 21.2008 9.7909 21.7938C8.50833 21.2101 7.13556 20.483 6.01086 19.4068C4.51079 17.9715 3.5 15.9701 3.5 13.042V5.91769C3.5 5.24105 3.84688 4.60121 4.43444 4.24265ZM14.0714 15.1923C14.6632 15.1923 15.1429 14.7015 15.1429 14.0962C15.1429 13.4908 14.6632 13 14.0714 13C13.4797 13 13 13.4908 13 14.0962C13 14.7015 13.4797 15.1923 14.0714 15.1923ZM12.6429 16.2885C12.6429 16.8939 12.1632 17.3846 11.5714 17.3846C10.9797 17.3846 10.5 16.8939 10.5 16.2885C10.5 15.6831 10.9797 15.1923 11.5714 15.1923C12.1632 15.1923 12.6429 15.6831 12.6429 16.2885ZM11.6994 20.2846C11.9722 18.6231 13.8812 16.9615 15.5176 16.9615C17.154 16.9615 19.0631 18.6231 19.3358 20.2846C19.56 21.6504 18.7903 22.5 17.6994 22.5C17.1148 22.5 16.7652 22.1819 16.4406 21.8866C16.1596 21.6309 15.8973 21.3923 15.5176 21.3923C15.1379 21.3923 14.8757 21.6309 14.5946 21.8866C14.2701 22.1819 13.9204 22.5 13.3358 22.5C12.2449 22.5 11.4752 21.6504 11.6994 20.2846ZM18 14.0962C18 14.7015 17.5203 15.1923 16.9286 15.1923C16.3368 15.1923 15.8571 14.7015 15.8571 14.0962C15.8571 13.4908 16.3368 13 16.9286 13C17.5203 13 18 13.4908 18 14.0962ZM19.4286 17.3846C20.0203 17.3846 20.5 16.8939 20.5 16.2885C20.5 15.6831 20.0203 15.1923 19.4286 15.1923C18.8368 15.1923 18.3571 15.6831 18.3571 16.2885C18.3571 16.8939 18.8368 17.3846 19.4286 17.3846Z" fill="black"/>
</svg>
