<svg width="24" height="24" viewBox="0 0 24 24" fill="none" xmlns="http://www.w3.org/2000/svg">
<path d="M8 7.77778H8.008M10.4083 6H10.4163M13.6003 6H13.6083M15.992 7.77778H16M12 2C16.4183 2 20 5.70195 20 10.2685C20 15.5227 16.2432 19.4002 13.8784 21.3204C12.7625 22.2265 11.2375 22.2265 10.1216 21.3204C7.75683 19.4002 4 15.5227 4 10.2685C4 5.70195 7.58172 2 12 2ZM12.0164 8.94737C10.4892 8.94737 8.70734 10.4632 8.4528 11.9789C8.24356 13.2249 8.96189 14 9.98007 14C10.9983 14 11.2528 12.9895 12.0164 12.9895C12.7801 12.9895 13.0346 14 14.0528 14C15.071 14 15.7893 13.2249 15.5801 11.9789C15.3255 10.4632 13.5437 8.94737 12.0164 8.94737Z" stroke="black" stroke-width="2" stroke-linecap="round" stroke-linejoin="round"/>
</svg>
