<svg width="24" height="24" viewBox="0 0 24 24" fill="none" xmlns="http://www.w3.org/2000/svg">
<path d="M8.91116 15.0888C6.14567 12.3234 6.14567 7.83961 8.91116 5.07412C11.6766 2.30863 16.1604 2.30863 18.9259 5.07412C20.2879 6.43614 20.9796 8.21494 21 10M8.91116 15.0888L5.8254 18.1746M8.91116 15.0888C9.25037 15.4281 9.61543 15.7257 10 15.9817M5.8254 18.1746L5.67725 18.0264C5.47972 17.8289 5.15945 17.8289 4.96191 18.0264L3.14815 19.8402C2.95062 20.0377 2.95062 20.358 3.14815 20.5555L3.44445 20.8518C3.64199 21.0494 3.96226 21.0494 4.15979 20.8518L5.97355 19.0381C6.17109 18.8406 6.17109 18.5203 5.97356 18.3227L5.8254 18.1746ZM13 14.7778H13.008M15.4083 13H15.4163M18.6003 13H18.6083M20.992 14.7778H21M17.0164 15.9474C15.4892 15.9474 13.7073 17.4632 13.4528 18.9789C13.2436 20.2249 13.9619 21 14.9801 21C15.9983 21 16.2528 19.9895 17.0164 19.9895C17.7801 19.9895 18.0346 21 19.0528 21C20.071 21 20.7893 20.2249 20.5801 18.9789C20.3255 17.4632 18.5437 15.9474 17.0164 15.9474Z" stroke="black" stroke-width="2" stroke-linecap="round" stroke-linejoin="round"/>
</svg>
