<svg width="24" height="24" viewBox="0 0 24 24" fill="none" xmlns="http://www.w3.org/2000/svg">
<path fill-rule="evenodd" clip-rule="evenodd" d="M8.20405 4.36701C11.3601 1.211 16.477 1.211 19.633 4.36701C21.7704 6.50442 22.4603 9.54124 21.7025 12.2592C21.3194 11.9848 20.8689 11.7961 20.3754 11.7244C20.282 11.4048 20.1386 11.1047 19.9535 10.8346C20.1764 9.03783 19.5982 7.16063 18.2188 5.78122C15.8438 3.40626 11.9932 3.40626 9.61827 5.78122C7.41327 7.98622 7.25546 11.4632 9.14485 13.8502C9.05056 14.1481 9 14.4638 9 14.7885C9 15.7966 9.48745 16.7179 10.2575 17.2886C9.80367 17.058 9.36705 16.7817 8.95448 16.4597L7.08128 18.3329C7.19725 18.8241 7.06371 19.3621 6.68066 19.7452L4.8669 21.559C4.27884 22.147 3.32541 22.147 2.73735 21.559L2.44105 21.2627C1.85299 20.6746 1.85299 19.7212 2.44104 19.1331L4.25481 17.3193C4.63786 16.9363 5.17593 16.8028 5.66707 16.9187L7.54026 15.0455C5.0662 11.8748 5.28746 7.2836 8.20405 4.36701ZM14.5714 13.6923C15.1632 13.6923 15.6429 13.2015 15.6429 12.5962C15.6429 11.9908 15.1632 11.5 14.5714 11.5C13.9797 11.5 13.5 11.9908 13.5 12.5962C13.5 13.2015 13.9797 13.6923 14.5714 13.6923ZM13.1429 14.7885C13.1429 15.3939 12.6632 15.8846 12.0714 15.8846C11.4797 15.8846 11 15.3939 11 14.7885C11 14.1831 11.4797 13.6923 12.0714 13.6923C12.6632 13.6923 13.1429 14.1831 13.1429 14.7885ZM12.1994 18.7846C12.4722 17.1231 14.3812 15.4615 16.0176 15.4615C17.654 15.4615 19.5631 17.1231 19.8358 18.7846C20.06 20.1504 19.2903 21 18.1994 21C17.6148 21 17.2652 20.6819 16.9406 20.3866C16.6596 20.1309 16.3973 19.8923 16.0176 19.8923C15.6379 19.8923 15.3757 20.1309 15.0946 20.3866C14.7701 20.6819 14.4204 21 13.8358 21C12.7449 21 11.9752 20.1504 12.1994 18.7846ZM18.5 12.5962C18.5 13.2015 18.0203 13.6923 17.4286 13.6923C16.8368 13.6923 16.3571 13.2015 16.3571 12.5962C16.3571 11.9908 16.8368 11.5 17.4286 11.5C18.0203 11.5 18.5 11.9908 18.5 12.5962ZM19.9286 15.8846C20.5203 15.8846 21 15.3939 21 14.7885C21 14.1831 20.5203 13.6923 19.9286 13.6923C19.3368 13.6923 18.8571 14.1831 18.8571 14.7885C18.8571 15.3939 19.3368 15.8846 19.9286 15.8846Z" fill="black"/>
</svg>
