<svg width="24" height="24" viewBox="0 0 24 24" fill="none" xmlns="http://www.w3.org/2000/svg">
<path d="M15.0888 15.0888C17.8543 12.3234 17.8543 7.83961 15.0888 5.07412C12.3234 2.30863 7.83961 2.30863 5.07412 5.07412C2.30863 7.83961 2.30863 12.3234 5.07412 15.0888C7.83961 17.8543 12.3234 17.8543 15.0888 15.0888ZM15.0888 15.0888L18.1746 18.1746M18.1746 18.1746L18.3227 18.0264C18.5203 17.8289 18.8406 17.8289 19.0381 18.0264L20.8518 19.8402C21.0494 20.0377 21.0494 20.358 20.8518 20.5555L20.5555 20.8518C20.358 21.0494 20.0377 21.0494 19.8402 20.8518L18.0264 19.0381C17.8289 18.8406 17.8289 18.5203 18.0264 18.3227L18.1746 18.1746ZM13.5 8.05556H13.493M11.3928 6.5H11.3858M8.59978 6.5H8.59278M6.507 8.05556H6.5M9.98561 9.07895C11.322 9.07895 12.8811 10.4053 13.1038 11.7316C13.2869 12.8218 12.6583 13.5 11.7674 13.5C10.8765 13.5 10.6538 12.6158 9.98561 12.6158C9.31743 12.6158 9.0947 13.5 8.20379 13.5C7.31288 13.5 6.68434 12.8218 6.86742 11.7316C7.09015 10.4053 8.64925 9.07895 9.98561 9.07895Z" stroke="black" stroke-width="2" stroke-linecap="round" stroke-linejoin="round"/>
</svg>
