<svg width="24" height="24" viewBox="0 0 24 24" fill="none" xmlns="http://www.w3.org/2000/svg">
<path d="M10.9997 20C4.38897 19.6105 -1.15111 9.96555 4.0637 5.1906C5.85055 3.55447 8.80358 3.62892 10.5853 5.26425C10.8156 5.4756 11.1838 5.4756 11.4141 5.26425C13.1959 3.62892 16.1496 3.55447 17.9364 5.1906C18.8291 6.00798 19.4066 6.96807 19.7175 8M14 13.7778H14.008M16.4083 12H16.4163M19.6003 12H19.6083M21.992 13.7778H22M18.0164 14.9474C16.4892 14.9474 14.7073 16.4632 14.4528 17.9789C14.2436 19.2249 14.9619 20 15.9801 20C16.9983 20 17.2528 18.9895 18.0164 18.9895C18.7801 18.9895 19.0346 20 20.0528 20C21.071 20 21.7893 19.2249 21.5801 17.9789C21.3255 16.4632 19.5437 14.9474 18.0164 14.9474Z" stroke="black" stroke-width="2" stroke-linecap="round" stroke-linejoin="round"/>
</svg>
