<svg width="24" height="24" viewBox="0 0 24 24" fill="none" xmlns="http://www.w3.org/2000/svg">
<path d="M13 14.7778H13.008M15.4083 13H15.4163M18.6003 13H18.6083M20.992 14.7778H21M9.5 20.817C9.23258 20.716 8.97593 20.5731 8.73896 20.3884C6.52203 18.6602 3 15.1705 3 10.4417C3 6.33175 6.35786 3 10.5 3C14.145 3 17.1827 5.58004 17.8594 9M17.0164 15.9474C15.4892 15.9474 13.7073 17.4632 13.4528 18.9789C13.2436 20.2249 13.9619 21 14.9801 21C15.9983 21 16.2528 19.9895 17.0164 19.9895C17.7801 19.9895 18.0346 21 19.0528 21C20.071 21 20.7893 20.2249 20.5801 18.9789C20.3255 17.4632 18.5437 15.9474 17.0164 15.9474ZM10.5 11V11C11.3284 11 12 10.3284 12 9.5V9.5C12 8.67157 11.3284 8 10.5 8V8C9.67157 8 9 8.67157 9 9.5V9.5C9 10.3284 9.67157 11 10.5 11Z" stroke="black" stroke-width="2" stroke-linecap="round" stroke-linejoin="round"/>
</svg>
