<svg width="24" height="24" viewBox="0 0 24 24" fill="none" xmlns="http://www.w3.org/2000/svg">
<path fill-rule="evenodd" clip-rule="evenodd" d="M12 8V4.01477C12.0801 4.00498 12.1611 4 12.2426 4H18C19.1046 4 20 4.89543 20 6V17.9895C20 19.094 19.1046 19.9895 18 19.9895H6C4.89543 19.9895 4 19.094 4 17.9895V12.2426C4 12.1611 4.00498 12.0801 4.01477 12H8C10.2091 12 12 10.2091 12 8ZM8 10H5.41421L10 5.41421V8C10 9.10457 9.10457 10 8 10ZM12.2426 2C11.1818 2 10.1644 2.42143 9.41421 3.17157L3.17157 9.41421C2.42143 10.1644 2 11.1818 2 12.2426V17.9895C2 20.1986 3.79086 21.9895 6 21.9895H18C20.2091 21.9895 22 20.1986 22 17.9895V6C22 3.79086 20.2091 2 18 2H12.2426ZM13.6071 12.9808C14.0805 12.9808 14.4643 12.5933 14.4643 12.1154C14.4643 11.6374 14.0805 11.25 13.6071 11.25C13.1338 11.25 12.75 11.6374 12.75 12.1154C12.75 12.5933 13.1338 12.9808 13.6071 12.9808ZM12.4643 13.8462C12.4643 14.3241 12.0805 14.7115 11.6071 14.7115C11.1338 14.7115 10.75 14.3241 10.75 13.8462C10.75 13.3682 11.1338 12.9808 11.6071 12.9808C12.0805 12.9808 12.4643 13.3682 12.4643 13.8462ZM11.7095 17.001C11.9277 15.6893 13.455 14.3775 14.7641 14.3775C16.0732 14.3775 17.6005 15.6893 17.8186 17.001C17.998 18.0793 17.3823 18.75 16.5096 18.75C16.0419 18.75 15.7621 18.4989 15.5025 18.2657C15.2777 18.0639 15.0679 17.8755 14.7641 17.8755C14.4603 17.8755 14.2505 18.0639 14.0257 18.2657C13.766 18.4989 13.4863 18.75 13.0186 18.75C12.1459 18.75 11.5302 18.0793 11.7095 17.001ZM16.75 12.1154C16.75 12.5933 16.3662 12.9808 15.8929 12.9808C15.4195 12.9808 15.0357 12.5933 15.0357 12.1154C15.0357 11.6374 15.4195 11.25 15.8929 11.25C16.3662 11.25 16.75 11.6374 16.75 12.1154ZM17.8929 14.7115C18.3662 14.7115 18.75 14.3241 18.75 13.8462C18.75 13.3682 18.3662 12.9808 17.8929 12.9808C17.4195 12.9808 17.0357 13.3682 17.0357 13.8462C17.0357 14.3241 17.4195 14.7115 17.8929 14.7115Z" fill="black"/>
</svg>
