<svg width="24" height="24" viewBox="0 0 24 24" fill="none" xmlns="http://www.w3.org/2000/svg">
<path fill-rule="evenodd" clip-rule="evenodd" d="M8.5 4.5C8.5 3.11929 9.61929 2 11 2H13C14.3807 2 15.5 3.11929 15.5 4.5V8.5H19.5C20.8807 8.5 22 9.61929 22 11V12.101C20.7295 10.8045 18.9587 10 17 10C16.0841 10 15.2093 10.1759 14.4075 10.4958C13.8986 10.4491 13.5 10.0211 13.5 9.5V4.5C13.5 4.22386 13.2761 4 13 4H11C10.7239 4 10.5 4.22386 10.5 4.5V9.5C10.5 10.0523 10.0523 10.5 9.5 10.5H4.5C4.22386 10.5 4 10.7239 4 11V13C4 13.2761 4.22386 13.5 4.5 13.5H9.5C10.0211 13.5 10.4491 13.8986 10.4958 14.4075C10.1759 15.2093 10 16.0841 10 17C10 18.9587 10.8045 20.7295 12.101 22H11C9.61929 22 8.5 20.8807 8.5 19.5V15.5H4.5C3.11929 15.5 2 14.3807 2 13V11C2 9.61929 3.11929 8.5 4.5 8.5H8.5V4.5ZM22 17C22 19.7614 19.7614 22 17 22C14.2386 22 12 19.7614 12 17C12 14.2386 14.2386 12 17 12C19.7614 12 22 14.2386 22 17ZM16.7857 14.8846C16.7857 15.2351 16.4979 15.5192 16.1429 15.5192C15.7878 15.5192 15.5 15.2351 15.5 14.8846C15.5 14.5341 15.7878 14.25 16.1429 14.25C16.4979 14.25 16.7857 14.5341 16.7857 14.8846ZM14.6429 16.7885C14.9979 16.7885 15.2857 16.5043 15.2857 16.1538C15.2857 15.8034 14.9979 15.5192 14.6429 15.5192C14.2878 15.5192 14 15.8034 14 16.1538C14 16.5043 14.2878 16.7885 14.6429 16.7885ZM17.0106 16.5435C16.0287 16.5435 14.8833 17.5055 14.7197 18.4674C14.5851 19.2581 15.0469 19.75 15.7015 19.75C16.0522 19.75 16.262 19.5658 16.4568 19.3949C16.6254 19.2468 16.7827 19.1087 17.0106 19.1087C17.2384 19.1087 17.3957 19.2468 17.5644 19.3949C17.7591 19.5658 17.9689 19.75 18.3197 19.75C18.9742 19.75 19.436 19.2581 19.3015 18.4674C19.1378 17.5055 17.9924 16.5435 17.0106 16.5435ZM17.8571 15.5192C18.2122 15.5192 18.5 15.2351 18.5 14.8846C18.5 14.5341 18.2122 14.25 17.8571 14.25C17.5021 14.25 17.2143 14.5341 17.2143 14.8846C17.2143 15.2351 17.5021 15.5192 17.8571 15.5192ZM20 16.1538C20 16.5043 19.7122 16.7885 19.3571 16.7885C19.0021 16.7885 18.7143 16.5043 18.7143 16.1538C18.7143 15.8034 19.0021 15.5192 19.3571 15.5192C19.7122 15.5192 20 15.8034 20 16.1538Z" fill="black"/>
</svg>
