<svg width="24" height="24" viewBox="0 0 24 24" fill="none" xmlns="http://www.w3.org/2000/svg">
<path fill-rule="evenodd" clip-rule="evenodd" d="M4.30586 4.2777C4.98675 3.13578 6.30827 2.5 7.65359 2.5H15.3445C16.6898 2.5 18.0113 3.13578 18.6922 4.2777L20.1645 6.74688C20.729 7.69352 20.5994 8.94364 19.6041 9.69215L19.0031 8.89292L19.6041 9.69215C19.4237 9.82781 19.2163 9.97282 18.9917 10.1086L18.9916 12.0211C18.8771 12.0072 18.7604 12 18.6419 12C18.2339 12 17.8478 12.085 17.499 12.2377C17.3374 12.167 17.1678 12.1107 16.9916 12.0708L16.9917 10.7216C15.7653 10.7012 14.8623 10.1666 14.2816 9.66496C13.6896 10.1764 12.7624 10.7222 11.499 10.7222C10.2357 10.7222 9.3085 10.1764 8.71644 9.66496C8.13575 10.1666 7.23269 10.7013 6.00626 10.7216L6.00597 16.8333V16.8334C6.006 17.7141 6.76355 18.5 7.78856 18.5H9.17986H12.221C12.3408 18.6353 12.4733 18.7593 12.6167 18.87C12.5614 19.0492 12.5171 19.2337 12.4857 19.4229C12.4268 19.7769 12.4111 20.1404 12.4472 20.5H9.17986H7.78856C5.74003 20.5 4.00597 18.898 4.00597 16.8333V16.8333L4.00629 10.1086C3.7817 9.9728 3.57435 9.82779 3.39397 9.69215C2.39864 8.94364 2.26911 7.69352 2.83356 6.74688L4.30586 4.2777ZM7.65359 4.5C6.89097 4.5 6.28547 4.8629 6.02367 5.30197L4.55136 7.77116C4.49748 7.86153 4.49557 7.92883 4.5013 7.96302C4.50576 7.9896 4.52007 8.03657 4.59604 8.0937C4.86772 8.29801 5.15062 8.47799 5.40273 8.58685C5.62978 8.68488 5.80724 8.72222 5.93385 8.72222C6.81121 8.72222 7.40253 8.20919 7.70518 7.85371C7.98946 7.5198 8.38401 7.39385 8.71644 7.39385C9.04887 7.39385 9.44342 7.5198 9.7277 7.85371C10.0304 8.2092 10.6217 8.72222 11.499 8.72222C12.3764 8.72222 12.9677 8.2092 13.2704 7.85371C13.5546 7.5198 13.9492 7.39385 14.2816 7.39385C14.614 7.39385 15.0086 7.5198 15.2929 7.85371C15.5955 8.2092 16.1869 8.72222 17.0642 8.72222C17.1908 8.72222 17.3683 8.68488 17.5953 8.58685C17.8474 8.47799 18.1303 8.29801 18.402 8.0937C18.478 8.03657 18.4923 7.9896 18.4968 7.96302C18.5025 7.92883 18.5006 7.86153 18.4467 7.77116L16.9744 5.30197L17.8333 4.78983L16.9744 5.30197C16.7126 4.8629 16.1071 4.5 15.3445 4.5H7.65359ZM16.3562 15.7308C16.8296 15.7308 17.2133 15.3433 17.2133 14.8654C17.2133 14.3874 16.8296 14 16.3562 14C15.8828 14 15.499 14.3874 15.499 14.8654C15.499 15.3433 15.8828 15.7308 16.3562 15.7308ZM15.2133 16.5962C15.2133 17.0741 14.8296 17.4615 14.3562 17.4615C13.8828 17.4615 13.499 17.0741 13.499 16.5962C13.499 16.1182 13.8828 15.7308 14.3562 15.7308C14.8296 15.7308 15.2133 16.1182 15.2133 16.5962ZM14.4586 19.751C14.6768 18.4393 16.204 17.1275 17.5131 17.1275C18.8222 17.1275 20.3495 18.4393 20.5677 19.751C20.747 20.8293 20.1313 21.5 19.2586 21.5C18.7909 21.5 18.5112 21.2489 18.2515 21.0157C18.0267 20.8139 17.8169 20.6255 17.5131 20.6255C17.2093 20.6255 16.9996 20.8139 16.7747 21.0157C16.5151 21.2489 16.2354 21.5 15.7677 21.5C14.8949 21.5 14.2792 20.8293 14.4586 19.751ZM19.499 14.8654C19.499 15.3433 19.1153 15.7308 18.6419 15.7308C18.1685 15.7308 17.7847 15.3433 17.7847 14.8654C17.7847 14.3874 18.1685 14 18.6419 14C19.1153 14 19.499 14.3874 19.499 14.8654ZM20.6419 17.4615C21.1153 17.4615 21.499 17.0741 21.499 16.5962C21.499 16.1182 21.1153 15.7308 20.6419 15.7308C20.1685 15.7308 19.7847 16.1182 19.7847 16.5962C19.7847 17.0741 20.1685 17.4615 20.6419 17.4615Z" fill="black"/>
</svg>
