<svg width="24" height="24" viewBox="0 0 24 24" fill="none" xmlns="http://www.w3.org/2000/svg">
<path fill-rule="evenodd" clip-rule="evenodd" d="M10.8489 4C9.74468 4 8.84937 4.89495 8.84894 5.99922L8.84836 7.5H12.8484L12.8489 6.00078C12.8494 4.89591 11.9538 4 10.8489 4ZM14.8484 7.50639L14.8489 6.00156C14.8498 3.79181 13.0587 2 10.8489 2C8.64041 2 6.8498 3.78991 6.84894 5.99844L6.84835 7.50642C4.88813 7.61707 3.2824 9.14444 3.09447 11.1215L2.66674 15.6215C2.44355 17.9696 4.29012 20 6.64879 20H12.2931C12.3028 19.8903 12.3168 19.7811 12.3348 19.6729C12.3663 19.4837 12.4105 19.2992 12.4659 19.12C12.0869 18.8275 11.7843 18.4422 11.59 18H6.64879C5.46946 18 4.54617 16.9848 4.65777 15.8108L5.0855 11.3107C5.18308 10.2841 6.04527 9.5 7.07653 9.5H14.6208C15.6518 9.5 16.5138 10.2837 16.6118 11.31L16.7056 12.2935C16.9304 12.3332 17.1456 12.399 17.3482 12.4877C17.6969 12.335 18.083 12.25 18.491 12.25C18.5652 12.25 18.6387 12.2528 18.7113 12.2583L18.6027 11.12C18.4141 9.14339 16.8083 7.61671 14.8484 7.50639ZM16.2095 15.9808C16.6829 15.9808 17.0666 15.5933 17.0666 15.1154C17.0666 14.6374 16.6829 14.25 16.2095 14.25C15.7361 14.25 15.3523 14.6374 15.3523 15.1154C15.3523 15.5933 15.7361 15.9808 16.2095 15.9808ZM15.0666 16.8462C15.0666 17.3241 14.6829 17.7115 14.2095 17.7115C13.7361 17.7115 13.3523 17.3241 13.3523 16.8462C13.3523 16.3682 13.7361 15.9808 14.2095 15.9808C14.6829 15.9808 15.0666 16.3682 15.0666 16.8462ZM14.3119 20.001C14.53 18.6893 16.0573 17.3775 17.3664 17.3775C18.6755 17.3775 20.2028 18.6893 20.421 20.001C20.6003 21.0793 19.9846 21.75 19.1119 21.75C18.6442 21.75 18.3645 21.4989 18.1048 21.2657C17.88 21.0639 17.6702 20.8755 17.3664 20.8755C17.0626 20.8755 16.8529 21.0639 16.628 21.2657C16.3684 21.4989 16.0887 21.75 15.621 21.75C14.7482 21.75 14.1325 21.0793 14.3119 20.001ZM19.3523 15.1154C19.3523 15.5933 18.9686 15.9808 18.4952 15.9808C18.0218 15.9808 17.638 15.5933 17.638 15.1154C17.638 14.6374 18.0218 14.25 18.4952 14.25C18.9686 14.25 19.3523 14.6374 19.3523 15.1154ZM20.4952 17.7115C20.9686 17.7115 21.3523 17.3241 21.3523 16.8462C21.3523 16.3682 20.9686 15.9808 20.4952 15.9808C20.0218 15.9808 19.638 16.3682 19.638 16.8462C19.638 17.3241 20.0218 17.7115 20.4952 17.7115Z" fill="black"/>
</svg>
