<svg width="24" height="24" viewBox="0 0 24 24" fill="none" xmlns="http://www.w3.org/2000/svg">
<path d="M7 7H5.49683C3.65818 7 2.25214 8.6389 2.53172 10.4562L3.47819 16.6082C3.77839 18.5596 5.45739 20 7.43168 20H16.5683C18.5426 20 20.2216 18.5596 20.5218 16.6082L21.4683 10.4562C21.7479 8.63889 20.3418 7 18.5032 7H17M7 7L8 4M7 7H17M17 7L16 4M8.5 11.5556H8.507M10.6072 10H10.6142M13.4002 10H13.4072M15.493 11.5556H15.5M12.0144 12.5789C10.678 12.5789 9.11892 13.9053 8.8962 15.2316C8.71312 16.3218 9.34165 17 10.2326 17C11.1235 17 11.3462 16.1158 12.0144 16.1158C12.6826 16.1158 12.9053 17 13.7962 17C14.6871 17 15.3157 16.3218 15.1326 15.2316C14.9099 13.9053 13.3508 12.5789 12.0144 12.5789Z" stroke="black" stroke-width="2" stroke-linecap="round" stroke-linejoin="round"/>
</svg>
