<svg width="24" height="24" viewBox="0 0 24 24" fill="none" xmlns="http://www.w3.org/2000/svg">
<path d="M13 14.7778H13.008M15.4083 13H15.4163M18.6003 13H18.6083M20.992 14.7778H21M19.8828 9C19.9418 8.45323 19.9803 7.89841 19.9994 7.33832C20.016 6.85492 19.6664 6.44766 19.2046 6.35354C16.7043 5.84394 14.7211 4.75229 12.5543 3.31865C11.9121 2.89378 11.0879 2.89378 10.4457 3.31865C8.27889 4.75229 6.29575 5.84394 3.79541 6.35354C3.33364 6.44766 2.98405 6.85492 3.00056 7.33832C3.1801 12.594 5.06758 17.3856 9.5 19.42M17.0164 15.9474C15.4892 15.9474 13.7073 17.4632 13.4528 18.9789C13.2436 20.2249 13.9619 21 14.9801 21C15.9983 21 16.2528 19.9895 17.0164 19.9895C17.7801 19.9895 18.0346 21 19.0528 21C20.071 21 20.7893 20.2249 20.5801 18.9789C20.3255 17.4632 18.5437 15.9474 17.0164 15.9474Z" stroke="black" stroke-width="2" stroke-linecap="round" stroke-linejoin="round"/>
</svg>
