<svg width="24" height="24" viewBox="0 0 24 24" fill="none" xmlns="http://www.w3.org/2000/svg">
<path fill-rule="evenodd" clip-rule="evenodd" d="M11 2C9.61929 2 8.5 3.11929 8.5 4.5V8.5H4.5C3.11929 8.5 2 9.61929 2 11V13C2 14.3807 3.11929 15.5 4.5 15.5H8.5V19.5C8.5 20.2405 8.82323 20.9069 9.33309 21.3632C9.74461 21.7315 10.3768 21.6965 10.7451 21.285C11.1135 20.8734 11.0784 20.2412 10.6669 19.8729C10.563 19.7799 10.5 19.648 10.5 19.5V14.5C10.5 13.9477 10.0523 13.5 9.5 13.5H4.5C4.22386 13.5 4 13.2761 4 13V11C4 10.7239 4.22386 10.5 4.5 10.5H9.5C10.0523 10.5 10.5 10.0523 10.5 9.5V4.5C10.5 4.22386 10.7239 4 11 4H13C13.2761 4 13.5 4.22386 13.5 4.5V9.5C13.5 10.0523 13.9477 10.5 14.5 10.5H19.5C19.7761 10.5 20 10.7239 20 11C20 11.5523 20.4477 12 21 12C21.5523 12 22 11.5523 22 11C22 9.61929 20.8807 8.5 19.5 8.5H15.5V4.5C15.5 3.11929 14.3807 2 13 2H11ZM15.5714 14.6923C16.1632 14.6923 16.6429 14.2015 16.6429 13.5962C16.6429 12.9908 16.1632 12.5 15.5714 12.5C14.9797 12.5 14.5 12.9908 14.5 13.5962C14.5 14.2015 14.9797 14.6923 15.5714 14.6923ZM14.1429 15.7885C14.1429 16.3939 13.6632 16.8846 13.0714 16.8846C12.4797 16.8846 12 16.3939 12 15.7885C12 15.1831 12.4797 14.6923 13.0714 14.6923C13.6632 14.6923 14.1429 15.1831 14.1429 15.7885ZM13.1994 19.7846C13.4722 18.1231 15.3812 16.4615 17.0176 16.4615C18.654 16.4615 20.5631 18.1231 20.8358 19.7846C21.06 21.1504 20.2903 22 19.1994 22C18.6148 22 18.2652 21.6819 17.9406 21.3866C17.6596 21.1309 17.3973 20.8923 17.0176 20.8923C16.6379 20.8923 16.3757 21.1309 16.0946 21.3866C15.7701 21.6819 15.4204 22 14.8358 22C13.7449 22 12.9752 21.1504 13.1994 19.7846ZM19.5 13.5962C19.5 14.2015 19.0203 14.6923 18.4286 14.6923C17.8368 14.6923 17.3571 14.2015 17.3571 13.5962C17.3571 12.9908 17.8368 12.5 18.4286 12.5C19.0203 12.5 19.5 12.9908 19.5 13.5962ZM20.9286 16.8846C21.5203 16.8846 22 16.3939 22 15.7885C22 15.1831 21.5203 14.6923 20.9286 14.6923C20.3368 14.6923 19.8571 15.1831 19.8571 15.7885C19.8571 16.3939 20.3368 16.8846 20.9286 16.8846Z" fill="black"/>
</svg>
