<svg width="24" height="24" viewBox="0 0 24 24" fill="none" xmlns="http://www.w3.org/2000/svg">
<path fill-rule="evenodd" clip-rule="evenodd" d="M20.3326 4.82071C18.0712 2.3925 14.3737 2.39349 12.1127 4.82133C12.0685 4.86884 12.0278 4.87848 12 4.87848C11.9722 4.87848 11.9315 4.86884 11.8873 4.82133C9.62614 2.39331 5.92859 2.39331 3.66745 4.82133C1.44418 7.20869 1.44418 11.0519 3.66745 13.4392L9.82099 20.0469C11.0044 21.3177 12.9956 21.3177 14.179 20.0469L20.3326 13.4392C22.5558 11.0519 22.5558 7.20806 20.3326 4.82071ZM13.5763 6.18435C15.0467 4.60545 17.3989 4.60519 18.8689 6.18373C20.377 7.80312 20.377 10.4568 18.8689 12.0762L12.7154 18.6839C12.3229 19.1054 11.6771 19.1054 11.2846 18.6839L5.13107 12.0762C3.62298 10.4568 3.62298 7.80375 5.13107 6.18435C6.60128 4.60563 8.95345 4.60563 10.4237 6.18435C11.2856 7.10985 12.7145 7.10985 13.5763 6.18435ZM10.8571 9.48077C11.3305 9.48077 11.7143 9.09332 11.7143 8.61538C11.7143 8.13745 11.3305 7.75 10.8571 7.75C10.3838 7.75 10 8.13745 10 8.61538C10 9.09332 10.3838 9.48077 10.8571 9.48077ZM9.71429 10.3462C9.71429 10.8241 9.33053 11.2115 8.85714 11.2115C8.38376 11.2115 8 10.8241 8 10.3462C8 9.86822 8.38376 9.48077 8.85714 9.48077C9.33053 9.48077 9.71429 9.86822 9.71429 10.3462ZM8.95954 13.501C9.17772 12.1893 10.705 10.8775 12.0141 10.8775C13.3232 10.8775 14.8505 12.1893 15.0686 13.501C15.248 14.5793 14.6323 15.25 13.7596 15.25C13.2919 15.25 13.0121 14.9989 12.7525 14.7657C12.5277 14.5639 12.3179 14.3755 12.0141 14.3755C11.7103 14.3755 11.5005 14.5639 11.2757 14.7657C11.016 14.9989 10.7363 15.25 10.2686 15.25C9.3959 15.25 8.78019 14.5793 8.95954 13.501ZM14 8.61538C14 9.09332 13.6162 9.48077 13.1429 9.48077C12.6695 9.48077 12.2857 9.09332 12.2857 8.61538C12.2857 8.13745 12.6695 7.75 13.1429 7.75C13.6162 7.75 14 8.13745 14 8.61538ZM15.1429 11.2115C15.6162 11.2115 16 10.8241 16 10.3462C16 9.86822 15.6162 9.48077 15.1429 9.48077C14.6695 9.48077 14.2857 9.86822 14.2857 10.3462C14.2857 10.8241 14.6695 11.2115 15.1429 11.2115Z" fill="black"/>
</svg>
