<svg width="24" height="24" viewBox="0 0 24 24" fill="none" xmlns="http://www.w3.org/2000/svg">
<path fill-rule="evenodd" clip-rule="evenodd" d="M12.0389 4.91049C11.7367 4.63151 11.3649 4.49817 10.9975 4.50002C10.6356 4.50184 10.2702 4.63492 9.97221 4.90955L5.04178 9.45274C4.62623 9.83566 4.42324 10.428 4.52651 11.0168L5.59971 17.1357C5.74284 17.9518 6.41446 18.5 7.14782 18.5H12.222C12.3418 18.6353 12.4743 18.7593 12.6177 18.87C12.5623 19.0492 12.5181 19.2337 12.4866 19.4229C12.4277 19.7769 12.4121 20.1404 12.4481 20.5H7.14782C5.39264 20.5 3.93181 19.2033 3.62978 17.4812L2.55658 11.3623C2.33838 10.1183 2.75893 8.83667 3.68651 7.98195L8.61693 3.43876C9.28774 2.82064 10.1351 2.50434 10.9874 2.50004C11.8526 2.49569 12.7151 2.81281 13.3955 3.44088L18.3157 7.98258C19.2417 8.83735 19.6614 10.1179 19.4433 11.3608L19.3172 12.0799C19.1015 12.0277 18.8757 12 18.6428 12C18.2348 12 17.8487 12.085 17.5 12.2377C17.4264 12.2055 17.3511 12.1763 17.2744 12.1503L17.4734 11.0153C17.5766 10.4271 17.3741 9.83517 16.9592 9.4522L12.0389 4.91049ZM16.3571 15.7308C16.8305 15.7308 17.2142 15.3433 17.2142 14.8654C17.2142 14.3874 16.8305 14 16.3571 14C15.8837 14 15.5 14.3874 15.5 14.8654C15.5 15.3433 15.8837 15.7308 16.3571 15.7308ZM15.2142 16.5962C15.2142 17.0741 14.8305 17.4615 14.3571 17.4615C13.8837 17.4615 13.5 17.0741 13.5 16.5962C13.5 16.1182 13.8837 15.7308 14.3571 15.7308C14.8305 15.7308 15.2142 16.1182 15.2142 16.5962ZM14.4595 19.751C14.6777 18.4393 16.205 17.1275 17.5141 17.1275C18.8231 17.1275 20.3504 18.4393 20.5686 19.751C20.748 20.8293 20.1322 21.5 19.2595 21.5C18.7918 21.5 18.5121 21.2489 18.2525 21.0157C18.0276 20.8139 17.8178 20.6255 17.5141 20.6255C17.2103 20.6255 17.0005 20.8139 16.7756 21.0157C16.516 21.2489 16.2363 21.5 15.7686 21.5C14.8959 21.5 14.2802 20.8293 14.4595 19.751ZM19.5 14.8654C19.5 15.3433 19.1162 15.7308 18.6428 15.7308C18.1694 15.7308 17.7857 15.3433 17.7857 14.8654C17.7857 14.3874 18.1694 14 18.6428 14C19.1162 14 19.5 14.3874 19.5 14.8654ZM20.6428 17.4615C21.1162 17.4615 21.5 17.0741 21.5 16.5962C21.5 16.1182 21.1162 15.7308 20.6428 15.7308C20.1694 15.7308 19.7857 16.1182 19.7857 16.5962C19.7857 17.0741 20.1694 17.4615 20.6428 17.4615Z" fill="black"/>
</svg>
