<svg width="24" height="24" viewBox="0 0 24 24" fill="none" xmlns="http://www.w3.org/2000/svg">
<path fill-rule="evenodd" clip-rule="evenodd" d="M5.78122 5.78122C8.15619 3.40626 12.0068 3.40626 14.3817 5.78122C16.7567 8.15619 16.7567 12.0068 14.3817 14.3817C12.0068 16.7567 8.15619 16.7567 5.78122 14.3817C3.40626 12.0068 3.40626 8.15619 5.78122 5.78122ZM15.7959 4.36701C12.6399 1.211 7.52302 1.211 4.36701 4.36701C1.211 7.52302 1.211 12.6399 4.36701 15.7959C7.2836 18.7125 11.8748 18.9338 15.0455 16.4597L16.9187 18.3329C16.8028 18.8241 16.9363 19.3621 17.3193 19.7452L19.1331 21.559C19.7212 22.147 20.6746 22.147 21.2627 21.559L21.559 21.2627C22.147 20.6746 22.147 19.7212 21.559 19.1331L19.7452 17.3193C19.3621 16.9363 18.8241 16.8028 18.3329 16.9187L16.4597 15.0455C18.9338 11.8748 18.7125 7.2836 15.7959 4.36701ZM8.85714 7.98077C9.33053 7.98077 9.71429 7.59332 9.71429 7.11538C9.71429 6.63745 9.33053 6.25 8.85714 6.25C8.38376 6.25 8 6.63745 8 7.11538C8 7.59332 8.38376 7.98077 8.85714 7.98077ZM7.71429 8.84615C7.71429 9.32409 7.33053 9.71154 6.85714 9.71154C6.38376 9.71154 6 9.32409 6 8.84615C6 8.36822 6.38376 7.98077 6.85714 7.98077C7.33053 7.98077 7.71429 8.36822 7.71429 8.84615ZM6.95954 12.001C7.17772 10.6893 8.705 9.37753 10.0141 9.37753C11.3232 9.37753 12.8505 10.6893 13.0686 12.001C13.248 13.0793 12.6323 13.75 11.7596 13.75C11.2919 13.75 11.0121 13.4989 10.7525 13.2657C10.5277 13.0639 10.3179 12.8755 10.0141 12.8755C9.71032 12.8755 9.50053 13.0639 9.27568 13.2657C9.01604 13.4989 8.73633 13.75 8.26863 13.75C7.3959 13.75 6.78019 13.0793 6.95954 12.001ZM12 7.11538C12 7.59332 11.6162 7.98077 11.1429 7.98077C10.6695 7.98077 10.2857 7.59332 10.2857 7.11538C10.2857 6.63745 10.6695 6.25 11.1429 6.25C11.6162 6.25 12 6.63745 12 7.11538ZM13.1429 9.71154C13.6162 9.71154 14 9.32409 14 8.84615C14 8.36822 13.6162 7.98077 13.1429 7.98077C12.6695 7.98077 12.2857 8.36822 12.2857 8.84615C12.2857 9.32409 12.6695 9.71154 13.1429 9.71154Z" fill="black"/>
</svg>
