<svg width="24" height="24" viewBox="0 0 24 24" fill="none" xmlns="http://www.w3.org/2000/svg">
<path d="M20.6181 10C20.3434 9.69313 19.9442 9.5 19.5 9.5H14.5V4.5C14.5 3.67157 13.8284 3 13 3H11C10.1716 3 9.5 3.67157 9.5 4.5V9.5H4.5C3.67157 9.5 3 10.1716 3 11V13C3 13.8284 3.67157 14.5 4.5 14.5H9.5V19.5C9.5 19.6753 9.53008 19.8436 9.58535 20M21 14.7778H20.992M18.5917 13H18.5837M15.3997 13H15.3917M13.008 14.7778H13M16.9836 15.9474C18.5108 15.9474 20.2927 17.4632 20.5472 18.9789C20.7564 20.2249 20.0381 21 19.0199 21C18.0017 21 17.7472 19.9895 16.9836 19.9895C16.2199 19.9895 15.9654 21 14.9472 21C13.929 21 13.2107 20.2249 13.4199 18.9789C13.6745 17.4632 15.4563 15.9474 16.9836 15.9474Z" stroke="black" stroke-width="2" stroke-linecap="round" stroke-linejoin="round"/>
</svg>
