<svg width="24" height="24" viewBox="0 0 24 24" fill="none" xmlns="http://www.w3.org/2000/svg">
<path fill-rule="evenodd" clip-rule="evenodd" d="M11.27 4.27902C11.6662 3.90699 12.3332 3.90699 12.7295 4.27902L18.4366 9.63737L18.4374 9.63816C18.8057 9.98433 18.9997 10.4396 18.9997 10.9V18.1833C18.9997 19.1282 18.1646 20 16.9997 20H14.9997H8.9997H6.99972C5.83481 20 4.99972 19.1282 4.99972 18.1833V10.9C4.99972 10.4397 5.19403 9.98402 5.5625 9.63772L5.56288 9.63737L5.56294 9.63732L5.56299 9.63726L11.27 4.27902ZM14.0984 2.82096L19.8055 8.17931L21.6842 9.94318C22.0868 10.3212 22.1068 10.9541 21.7288 11.3567C21.532 11.5663 21.2662 11.6722 20.9997 11.6722V18.1833C20.9997 20.3497 19.1485 22 16.9997 22H14.9997H8.9997H6.99972C4.85092 22 2.99972 20.3497 2.99972 18.1833V11.6722C2.73339 11.6721 2.46772 11.5662 2.27102 11.3567C1.89296 10.9541 1.91286 10.3213 2.31547 9.94323L4.19381 8.17941L4.19387 8.17936L4.19392 8.1793L9.90103 2.82096C11.0669 1.72635 12.9326 1.72635 14.0984 2.82096L13.4139 3.54999L14.0984 2.82096ZM10.8571 11.4808C11.3305 11.4808 11.7143 11.0933 11.7143 10.6154C11.7143 10.1374 11.3305 9.75 10.8571 9.75C10.3838 9.75 10 10.1374 10 10.6154C10 11.0933 10.3838 11.4808 10.8571 11.4808ZM9.71429 12.3462C9.71429 12.8241 9.33053 13.2115 8.85715 13.2115C8.38376 13.2115 8 12.8241 8 12.3462C8 11.8682 8.38376 11.4808 8.85715 11.4808C9.33053 11.4808 9.71429 11.8682 9.71429 12.3462ZM8.95954 15.501C9.17772 14.1893 10.705 12.8775 12.0141 12.8775C13.3232 12.8775 14.8505 14.1893 15.0687 15.501C15.248 16.5793 14.6323 17.25 13.7596 17.25C13.2919 17.25 13.0121 16.9989 12.7525 16.7657C12.5277 16.5639 12.3179 16.3755 12.0141 16.3755C11.7103 16.3755 11.5005 16.5639 11.2757 16.7657C11.016 16.9989 10.7363 17.25 10.2686 17.25C9.39591 17.25 8.7802 16.5793 8.95954 15.501ZM14 10.6154C14 11.0933 13.6162 11.4808 13.1429 11.4808C12.6695 11.4808 12.2857 11.0933 12.2857 10.6154C12.2857 10.1374 12.6695 9.75 13.1429 9.75C13.6162 9.75 14 10.1374 14 10.6154ZM15.1429 13.2115C15.6162 13.2115 16 12.8241 16 12.3462C16 11.8682 15.6162 11.4808 15.1429 11.4808C14.6695 11.4808 14.2857 11.8682 14.2857 12.3462C14.2857 12.8241 14.6695 13.2115 15.1429 13.2115Z" fill="black"/>
</svg>
