<svg width="24" height="24" viewBox="0 0 24 24" fill="none" xmlns="http://www.w3.org/2000/svg">
<path fill-rule="evenodd" clip-rule="evenodd" d="M11.4985 4.80202C13.6595 3.05457 17.0082 3.0281 19.1106 4.95314C20.7854 6.48669 21.4829 8.42273 21.4974 10.3993C21.0216 9.66684 20.2442 9.1417 19.3212 9.02467C19.0737 8.05293 18.5641 7.16452 17.7599 6.4282C16.3755 5.16056 14.009 5.19788 12.5891 6.50106C11.9764 7.06341 11.0207 7.06342 10.4079 6.50104C8.98813 5.1979 6.62225 5.16055 5.23783 6.4282C3.08687 8.39773 3.04281 11.4553 4.48671 14.2855C5.92551 17.1056 8.6665 19.3033 11.4985 19.498C11.5737 19.4929 11.6488 19.4863 11.7239 19.4783C11.8267 20.0721 12.0608 20.6411 12.452 21.1395C12.5129 21.217 12.5763 21.2912 12.6419 21.3619C12.2854 21.4306 11.9235 21.4768 11.5573 21.4983C11.5182 21.5006 11.4789 21.5006 11.4397 21.4983C7.68181 21.2769 4.37543 18.4682 2.70517 15.1944C1.03005 11.911 0.823355 7.75855 3.8872 4.95314C5.98956 3.02811 9.33767 3.05456 11.4985 4.80202ZM16.0722 13.1924C16.6639 13.1924 17.1436 12.7016 17.1436 12.0962C17.1436 11.4908 16.6639 11.0001 16.0722 11.0001C15.4805 11.0001 15.0008 11.4908 15.0008 12.0962C15.0008 12.7016 15.4805 13.1924 16.0722 13.1924ZM14.6436 14.2885C14.6436 14.8939 14.1639 15.3847 13.5722 15.3847C12.9805 15.3847 12.5008 14.8939 12.5008 14.2885C12.5008 13.6831 12.9805 13.1924 13.5722 13.1924C14.1639 13.1924 14.6436 13.6831 14.6436 14.2885ZM13.7002 18.2847C13.9729 16.6231 15.882 14.9616 17.5184 14.9616C19.1548 14.9616 21.0639 16.6231 21.3366 18.2847C21.5608 19.6505 20.7911 20.5001 19.7002 20.5001C19.1156 20.5001 18.7659 20.182 18.4414 19.8867C18.1603 19.631 17.8981 19.3924 17.5184 19.3924C17.1387 19.3924 16.8764 19.631 16.5954 19.8867C16.2708 20.182 15.9212 20.5001 15.3366 20.5001C14.2457 20.5001 13.476 19.6505 13.7002 18.2847ZM20.0008 12.0962C20.0008 12.7016 19.5211 13.1924 18.9293 13.1924C18.3376 13.1924 17.8579 12.7016 17.8579 12.0962C17.8579 11.4908 18.3376 11.0001 18.9293 11.0001C19.5211 11.0001 20.0008 11.4908 20.0008 12.0962ZM21.4293 15.3847C22.0211 15.3847 22.5008 14.8939 22.5008 14.2885C22.5008 13.6831 22.0211 13.1924 21.4293 13.1924C20.8376 13.1924 20.3579 13.6831 20.3579 14.2885C20.3579 14.8939 20.8376 15.3847 21.4293 15.3847Z" fill="black"/>
</svg>
