<svg width="24" height="24" viewBox="0 0 24 24" fill="none" xmlns="http://www.w3.org/2000/svg">
<path fill-rule="evenodd" clip-rule="evenodd" d="M11.1127 4.82133C13.3737 2.39349 17.0712 2.3925 19.3326 4.82071C20.6146 6.19743 21.1574 8.0585 20.9608 9.84529C20.5076 9.17834 19.8005 8.69249 18.9622 8.54597C18.8496 7.67995 18.4852 6.84548 17.8689 6.18373C16.3989 4.60519 14.0467 4.60545 12.5763 6.18435C11.7145 7.10985 10.2856 7.10985 9.42366 6.18435C7.95345 4.60563 5.60128 4.60563 4.13107 6.18435C2.62298 7.80375 2.62298 10.4568 4.13107 12.0762L10.2846 18.6839C10.5373 18.9552 10.8949 19.0519 11.2223 18.9739C11.3248 19.5692 11.5591 20.1398 11.9513 20.6394C11.9935 20.6933 12.037 20.7454 12.0816 20.796C10.984 21.226 9.68647 20.9763 8.82099 20.0469L2.66745 13.4392C0.444184 11.0519 0.444184 7.20869 2.66745 4.82133C4.92859 2.39331 8.62614 2.39331 10.8873 4.82133C10.9315 4.86884 10.9722 4.87848 11 4.87848C11.0278 4.87848 11.0685 4.86884 11.1127 4.82133ZM15.5714 12.6923C16.1632 12.6923 16.6429 12.2015 16.6429 11.5962C16.6429 10.9908 16.1632 10.5 15.5714 10.5C14.9797 10.5 14.5 10.9908 14.5 11.5962C14.5 12.2015 14.9797 12.6923 15.5714 12.6923ZM14.1429 13.7885C14.1429 14.3939 13.6632 14.8846 13.0714 14.8846C12.4797 14.8846 12 14.3939 12 13.7885C12 13.1831 12.4797 12.6923 13.0714 12.6923C13.6632 12.6923 14.1429 13.1831 14.1429 13.7885ZM13.1994 17.7846C13.4722 16.1231 15.3812 14.4615 17.0176 14.4615C18.654 14.4615 20.5631 16.1231 20.8358 17.7846C21.06 19.1504 20.2903 20 19.1994 20C18.6148 20 18.2652 19.6819 17.9406 19.3866C17.6596 19.1309 17.3973 18.8923 17.0176 18.8923C16.6379 18.8923 16.3757 19.1309 16.0946 19.3866C15.7701 19.6819 15.4204 20 14.8358 20C13.7449 20 12.9752 19.1504 13.1994 17.7846ZM19.5 11.5962C19.5 12.2015 19.0203 12.6923 18.4286 12.6923C17.8368 12.6923 17.3571 12.2015 17.3571 11.5962C17.3571 10.9908 17.8368 10.5 18.4286 10.5C19.0203 10.5 19.5 10.9908 19.5 11.5962ZM20.9286 14.8846C21.5203 14.8846 22 14.3939 22 13.7885C22 13.1831 21.5203 12.6923 20.9286 12.6923C20.3368 12.6923 19.8571 13.1831 19.8571 13.7885C19.8571 14.3939 20.3368 14.8846 20.9286 14.8846Z" fill="black"/>
</svg>
