<svg width="24" height="24" viewBox="0 0 24 24" fill="none" xmlns="http://www.w3.org/2000/svg">
<path d="M8 5H6C4.34315 5 3 6.34315 3 8V9.5M8 5V3M8 5H15.992M15.992 5H18C19.6569 5 21 6.34315 21 8V9.5M15.992 5V3M3 9.5V18C3 19.6569 4.34315 21 6 21H18C19.6569 21 21 19.6569 21 18V9.5M3 9.5H21" stroke="black" stroke-width="2" stroke-linecap="round" stroke-linejoin="round"/>
<path d="M8.95954 17.251C9.17772 15.9393 10.705 14.6275 12.0141 14.6275C13.3232 14.6275 14.8505 15.9393 15.0686 17.251C15.248 18.3293 14.6323 19 13.7596 19C12.8868 19 12.6686 18.1255 12.0141 18.1255C11.3595 18.1255 11.1414 19 10.2686 19C9.3959 19 8.78019 18.3293 8.95954 17.251Z" fill="black"/>
<path d="M9.71429 14.0962C9.71429 14.5741 9.33053 14.9615 8.85714 14.9615C8.38376 14.9615 8 14.5741 8 14.0962C8 13.6182 8.38376 13.2308 8.85714 13.2308C9.33053 13.2308 9.71429 13.6182 9.71429 14.0962Z" fill="black"/>
<path d="M11.7143 12.3654C11.7143 12.8433 11.3305 13.2308 10.8571 13.2308C10.3838 13.2308 10 12.8433 10 12.3654C10 11.8874 10.3838 11.5 10.8571 11.5C11.3305 11.5 11.7143 11.8874 11.7143 12.3654Z" fill="black"/>
<path d="M14 12.3654C14 12.8433 13.6162 13.2308 13.1429 13.2308C12.6695 13.2308 12.2857 12.8433 12.2857 12.3654C12.2857 11.8874 12.6695 11.5 13.1429 11.5C13.6162 11.5 14 11.8874 14 12.3654Z" fill="black"/>
<path d="M16 14.0962C16 14.5741 15.6162 14.9615 15.1429 14.9615C14.6695 14.9615 14.2857 14.5741 14.2857 14.0962C14.2857 13.6182 14.6695 13.2308 15.1429 13.2308C15.6162 13.2308 16 13.6182 16 14.0962Z" fill="black"/>
</svg>
