<svg width="24" height="24" viewBox="0 0 24 24" fill="none" xmlns="http://www.w3.org/2000/svg">
<path d="M8 4.5H6C4.34315 4.5 3 5.84315 3 7.5V9M8 4.5L8.00021 3M8 4.5H14.992M14.992 4.5H17C18.6569 4.5 20 5.84315 20 7.5V9M14.992 4.5L14.9922 3M3 9V16.5C3 18.1569 4.34315 19.5 6 19.5H10M3 9H20M20 9V10M13.0002 14.7778H13.0082M15.4085 13H15.4165M18.6005 13H18.6085M20.9922 14.7778H21.0002M17.0167 15.9474C15.4894 15.9474 13.7076 17.4632 13.453 18.9789C13.2438 20.2249 13.9621 21 14.9803 21C15.9985 21 16.253 19.9895 17.0167 19.9895C17.7803 19.9895 18.0348 21 19.053 21C20.0712 21 20.7895 20.2249 20.5803 18.9789C20.3258 17.4632 18.5439 15.9474 17.0167 15.9474Z" stroke="black" stroke-width="2" stroke-linecap="round" stroke-linejoin="round"/>
</svg>
