<svg width="24" height="24" viewBox="0 0 24 24" fill="none" xmlns="http://www.w3.org/2000/svg">
<path d="M8 11.2778H8.008M10.4083 9.5H10.4163M13.6003 9.5H13.6083M15.992 11.2778H16M12.0164 12.4474C10.4892 12.4474 8.70734 13.9632 8.4528 15.4789C8.24356 16.7249 8.96189 17.5 9.98007 17.5C10.9983 17.5 11.2528 16.4895 12.0164 16.4895C12.7801 16.4895 13.0346 17.5 14.0528 17.5C15.071 17.5 15.7893 16.7249 15.5801 15.4789C15.3255 13.9632 13.5437 12.4474 12.0164 12.4474ZM3.54712 11.6508L4.76342 18.5345C5.01568 19.9622 6.22407 21 7.63424 21H16.3655C17.7756 21 18.984 19.9622 19.2363 18.5345L20.4529 11.6491C20.6349 10.619 20.2823 9.56579 19.5225 8.86956L13.9462 3.76014C13.3894 3.24993 12.69 2.99654 11.9915 3.00004C11.3034 3.00348 10.6162 3.25625 10.0672 3.75842L4.47941 8.86952C3.7183 9.56569 3.36496 10.6198 3.54712 11.6508Z" stroke="black" stroke-width="2" stroke-linecap="round" stroke-linejoin="round"/>
</svg>
