<svg width="24" height="24" viewBox="0 0 24 24" fill="none" xmlns="http://www.w3.org/2000/svg">
<path fill-rule="evenodd" clip-rule="evenodd" d="M4.30586 4.2777C4.98675 3.13578 6.30827 2.5 7.65359 2.5H9.27681H13.7213H15.3445C16.6898 2.5 18.0113 3.13578 18.6922 4.2777L20.1645 6.74688C20.729 7.69352 20.5994 8.94364 19.6041 9.69215L19.0031 8.89292L19.6041 9.69215C19.4237 9.82781 19.2163 9.97282 18.9917 10.1086L18.9916 12.0212C18.8768 12.0072 18.7598 12 18.6409 12C18.2329 12 17.8468 12.085 17.4981 12.2377C17.3367 12.1671 17.1674 12.1109 16.9916 12.071L16.9917 10.7216C15.8018 10.7017 14.9112 10.1941 14.3347 9.7107C14.3167 9.69562 14.299 9.68055 14.2816 9.66549C14.2642 9.68055 14.2465 9.69562 14.2285 9.7107C13.6404 10.2038 12.7253 10.7222 11.499 10.7222C10.2728 10.7222 9.35764 10.2038 8.76955 9.7107C8.75157 9.69562 8.73387 9.68055 8.71644 9.66549C8.69901 9.68055 8.68131 9.69562 8.66333 9.7107C8.08688 10.1941 7.19617 10.7017 6.00626 10.7216L6.00597 16.8333V16.8334C6.006 17.7141 6.76355 18.5 7.78856 18.5H9.17986H12.2201C12.3399 18.6353 12.4724 18.7593 12.6158 18.87C12.5604 19.0492 12.5162 19.2337 12.4847 19.4229C12.4258 19.7769 12.4102 20.1404 12.4462 20.5H9.17986H7.78856C5.74003 20.5 4.00597 18.898 4.00597 16.8333V16.8333L4.00629 10.1086C3.7817 9.9728 3.57435 9.82779 3.39397 9.69215C2.39864 8.94364 2.26911 7.69352 2.83356 6.74688L4.30586 4.2777ZM9.75712 7.88769C9.83448 7.97552 9.93392 8.07697 10.0546 8.17819C10.3941 8.46283 10.8702 8.72222 11.499 8.72222C12.1279 8.72222 12.604 8.46283 12.9434 8.17819C13.0641 8.07697 13.1636 7.97552 13.2409 7.88769L12.8341 4.5H10.1639L9.75712 7.88769ZM8.14955 4.5H7.65359C6.89097 4.5 6.28547 4.8629 6.02367 5.30197L4.55136 7.77116C4.49748 7.86153 4.49557 7.92883 4.5013 7.96302C4.50576 7.9896 4.52007 8.03657 4.59604 8.0937C4.86772 8.29801 5.15062 8.47799 5.40273 8.58685C5.62978 8.68488 5.80724 8.72222 5.93385 8.72222C6.56267 8.72222 7.03881 8.46283 7.37825 8.17819C7.54456 8.03874 7.6705 7.89884 7.75392 7.79473L8.14955 4.5ZM14.8485 4.5L15.2441 7.79473C15.3276 7.89884 15.4535 8.03874 15.6198 8.17819C15.9592 8.46283 16.4354 8.72222 17.0642 8.72222C17.1908 8.72222 17.3683 8.68488 17.5953 8.58685C17.8474 8.47799 18.1303 8.29801 18.402 8.0937C18.478 8.03657 18.4923 7.9896 18.4968 7.96302C18.5025 7.92883 18.5006 7.86153 18.4467 7.77116L16.9744 5.30197C16.7126 4.8629 16.1071 4.5 15.3445 4.5H14.8485ZM15.1363 7.64747C15.1354 7.64601 15.1352 7.64581 15.136 7.64696L15.1363 7.64747ZM16.3552 15.7308C16.8286 15.7308 17.2123 15.3433 17.2123 14.8654C17.2123 14.3874 16.8286 14 16.3552 14C15.8818 14 15.4981 14.3874 15.4981 14.8654C15.4981 15.3433 15.8818 15.7308 16.3552 15.7308ZM15.2123 16.5962C15.2123 17.0741 14.8286 17.4615 14.3552 17.4615C13.8818 17.4615 13.4981 17.0741 13.4981 16.5962C13.4981 16.1182 13.8818 15.7308 14.3552 15.7308C14.8286 15.7308 15.2123 16.1182 15.2123 16.5962ZM14.4576 19.751C14.6758 18.4393 16.2031 17.1275 17.5122 17.1275C18.8212 17.1275 20.3485 18.4393 20.5667 19.751C20.7461 20.8293 20.1303 21.5 19.2576 21.5C18.7899 21.5 18.5102 21.2489 18.2506 21.0157C18.0257 20.8139 17.8159 20.6255 17.5122 20.6255C17.2084 20.6255 16.9986 20.8139 16.7737 21.0157C16.5141 21.2489 16.2344 21.5 15.7667 21.5C14.894 21.5 14.2783 20.8293 14.4576 19.751ZM19.4981 14.8654C19.4981 15.3433 19.1143 15.7308 18.6409 15.7308C18.1675 15.7308 17.7838 15.3433 17.7838 14.8654C17.7838 14.3874 18.1675 14 18.6409 14C19.1143 14 19.4981 14.3874 19.4981 14.8654ZM20.6409 17.4615C21.1143 17.4615 21.4981 17.0741 21.4981 16.5962C21.4981 16.1182 21.1143 15.7308 20.6409 15.7308C20.1675 15.7308 19.7838 16.1182 19.7838 16.5962C19.7838 17.0741 20.1675 17.4615 20.6409 17.4615Z" fill="black"/>
</svg>
