<svg width="24" height="24" viewBox="0 0 24 24" fill="none" xmlns="http://www.w3.org/2000/svg">
<path d="M19.8833 8C19.6917 7.08459 19.2642 6.21466 18.6007 5.50222C16.7351 3.49884 13.7102 3.49947 11.8445 5.50284C11.3781 6.00369 10.6219 6.00369 10.1555 5.50284C8.2898 3.49947 5.26494 3.49947 3.39926 5.50284C1.53358 7.50622 1.53358 10.7543 3.39926 12.7577L9.55279 19.3654C9.82101 19.6534 10.1507 19.8434 10.5 19.9353M14 13.7778H14.008M16.4083 12H16.4163M19.6003 12H19.6083M21.992 13.7778H22M18.0164 14.9474C16.4892 14.9474 14.7073 16.4632 14.4528 17.9789C14.2436 19.2249 14.9619 20 15.9801 20C16.9983 20 17.2528 18.9895 18.0164 18.9895C18.7801 18.9895 19.0346 20 20.0528 20C21.071 20 21.7893 19.2249 21.5801 17.9789C21.3255 16.4632 19.5437 14.9474 18.0164 14.9474Z" stroke="black" stroke-width="2" stroke-linecap="round" stroke-linejoin="round"/>
</svg>
