<svg width="24" height="24" viewBox="0 0 24 24" fill="none" xmlns="http://www.w3.org/2000/svg">
<path fill-rule="evenodd" clip-rule="evenodd" d="M11.9965 4.00002C12.4483 3.99776 12.9032 4.16083 13.2706 4.49744L18.8469 9.60686C19.3501 10.068 19.5917 10.7756 19.4681 11.4751L18.2515 18.3606C18.0801 19.3305 17.2704 20 16.3654 20H7.63422C6.72929 20 5.91953 19.3305 5.74814 18.3605L4.53184 11.4768C4.40813 10.7766 4.65026 10.0684 5.15431 9.6074L10.7421 4.4963C11.1044 4.16495 11.5514 4.00225 11.9965 4.00002ZM20.198 8.13226L14.6217 3.02285C13.8754 2.33904 12.9316 1.99532 11.9865 2.00005C11.0553 2.0047 10.128 2.34755 9.39227 3.02054L3.80445 8.13163C2.78629 9.06293 2.32174 10.463 2.56235 11.8248L3.77864 18.7085C4.11178 20.5939 5.71879 22 7.63422 22H16.3654C18.2809 22 19.8879 20.5939 20.221 18.7085L21.4376 11.8231C21.678 10.4625 21.2145 9.06362 20.198 8.13226ZM10.8571 10.9808C11.3305 10.9808 11.7143 10.5933 11.7143 10.1154C11.7143 9.63745 11.3305 9.25 10.8571 9.25C10.3837 9.25 9.99997 9.63745 9.99997 10.1154C9.99997 10.5933 10.3837 10.9808 10.8571 10.9808ZM9.71426 11.8462C9.71426 12.3241 9.3305 12.7115 8.85711 12.7115C8.38373 12.7115 7.99997 12.3241 7.99997 11.8462C7.99997 11.3682 8.38373 10.9808 8.85711 10.9808C9.3305 10.9808 9.71426 11.3682 9.71426 11.8462ZM8.95951 15.001C9.17769 13.6893 10.705 12.3775 12.0141 12.3775C13.3232 12.3775 14.8504 13.6893 15.0686 15.001C15.248 16.0793 14.6323 16.75 13.7595 16.75C13.2918 16.75 13.0121 16.4989 12.7525 16.2657C12.5276 16.0639 12.3178 15.8755 12.0141 15.8755C11.7103 15.8755 11.5005 16.0639 11.2757 16.2657C11.016 16.4989 10.7363 16.75 10.2686 16.75C9.39588 16.75 8.78017 16.0793 8.95951 15.001ZM14 10.1154C14 10.5933 13.6162 10.9808 13.1428 10.9808C12.6694 10.9808 12.2857 10.5933 12.2857 10.1154C12.2857 9.63745 12.6694 9.25 13.1428 9.25C13.6162 9.25 14 9.63745 14 10.1154ZM15.1428 12.7115C15.6162 12.7115 16 12.3241 16 11.8462C16 11.3682 15.6162 10.9808 15.1428 10.9808C14.6694 10.9808 14.2857 11.3682 14.2857 11.8462C14.2857 12.3241 14.6694 12.7115 15.1428 12.7115Z" fill="black"/>
</svg>
