<svg width="24" height="24" viewBox="0 0 24 24" fill="none" xmlns="http://www.w3.org/2000/svg">
<path d="M4.8784 8.90834L10.5855 3.54999C11.3666 2.81667 12.6329 2.81667 13.4139 3.54999L19.121 8.90834M4.8784 8.90834C4.31599 9.43653 3.99972 10.1531 3.99972 10.9V18.1833C3.99972 19.7389 5.34286 21 6.99972 21H8.99969H14.9997H16.9997C18.6566 21 19.9997 19.7389 19.9997 18.1833V10.9C19.9997 10.153 19.6836 9.43656 19.121 8.90834M4.8784 8.90834L3 10.6722M19.121 8.90834L20.9997 10.6722M8 11.2778H8.008M10.4083 9.5H10.4163M13.6003 9.5H13.6083M15.992 11.2778H16M12.0164 12.4474C10.4892 12.4474 8.70734 13.9632 8.4528 15.4789C8.24356 16.7249 8.96189 17.5 9.98007 17.5C10.9983 17.5 11.2528 16.4895 12.0164 16.4895C12.7801 16.4895 13.0346 17.5 14.0528 17.5C15.071 17.5 15.7893 16.7249 15.5801 15.4789C15.3255 13.9632 13.5437 12.4474 12.0164 12.4474Z" stroke="black" stroke-width="2" stroke-linecap="round"/>
</svg>
