<svg width="24" height="24" viewBox="0 0 24 24" fill="none" xmlns="http://www.w3.org/2000/svg">
<path fill-rule="evenodd" clip-rule="evenodd" d="M9.9286 3.37141C10.1337 2.85863 9.88429 2.27666 9.37151 2.07155C8.85873 1.86643 8.27676 2.11585 8.07164 2.62863L6.32159 7.00377C3.95678 7.10497 2.17963 9.24333 2.54347 11.6083L3.48994 17.7603C3.86519 20.1995 5.96394 22 8.43179 22H15.5684C18.0363 22 20.135 20.1995 20.5103 17.7603L21.4568 11.6082C21.8206 9.24332 20.0435 7.10497 17.6786 7.00377L15.9286 2.62863C15.7235 2.11585 15.1415 1.86643 14.6287 2.07155C14.1159 2.27666 13.8665 2.85863 14.0716 3.37141L15.5231 7.00002H8.47715L9.9286 3.37141ZM4.52021 11.3041C4.33382 10.0926 5.27118 9.00002 6.49695 9.00002H7.00012H17.0001H17.5033C18.7291 9.00002 19.6664 10.0926 19.48 11.3041L18.5336 17.4562C18.3084 18.9197 17.0492 20 15.5684 20H8.43179C6.95108 20 5.69183 18.9197 5.46668 17.4562L4.52021 11.3041ZM10.8573 12.4808C11.3306 12.4808 11.7144 12.0933 11.7144 11.6154C11.7144 11.1375 11.3306 10.75 10.8573 10.75C10.3839 10.75 10.0001 11.1375 10.0001 11.6154C10.0001 12.0933 10.3839 12.4808 10.8573 12.4808ZM9.7144 13.3462C9.7144 13.8241 9.33065 14.2116 8.85726 14.2116C8.38387 14.2116 8.00012 13.8241 8.00012 13.3462C8.00012 12.8682 8.38387 12.4808 8.85726 12.4808C9.33065 12.4808 9.7144 12.8682 9.7144 13.3462ZM8.95966 16.501C9.17784 15.1893 10.7051 13.8776 12.0142 13.8776C13.3233 13.8776 14.8506 15.1893 15.0688 16.501C15.2481 17.5793 14.6324 18.25 13.7597 18.25C13.292 18.25 13.0123 17.9989 12.7526 17.7658C12.5278 17.5639 12.318 17.3755 12.0142 17.3755C11.7104 17.3755 11.5006 17.5639 11.2758 17.7658C11.0162 17.9989 10.7364 18.25 10.2688 18.25C9.39602 18.25 8.78031 17.5793 8.95966 16.501ZM14.0001 11.6154C14.0001 12.0933 13.6164 12.4808 13.143 12.4808C12.6696 12.4808 12.2858 12.0933 12.2858 11.6154C12.2858 11.1375 12.6696 10.75 13.143 10.75C13.6164 10.75 14.0001 11.1375 14.0001 11.6154ZM15.143 14.2116C15.6164 14.2116 16.0001 13.8241 16.0001 13.3462C16.0001 12.8682 15.6164 12.4808 15.143 12.4808C14.6696 12.4808 14.2858 12.8682 14.2858 13.3462C14.2858 13.8241 14.6696 14.2116 15.143 14.2116Z" fill="black"/>
</svg>
