<svg width="24" height="24" viewBox="0 0 24 24" fill="none" xmlns="http://www.w3.org/2000/svg">
<path d="M4.50729 9.00492C4.15295 8.85192 3.7986 8.62051 3.49597 8.39292C2.94846 7.98118 2.86453 7.31062 3.19343 6.75902L4.66573 4.28983C5.13708 3.49934 6.10059 3 7.15456 3H8.72M4.50729 9.00492C4.81164 9.13633 5.12794 9.22222 5.43482 9.22222C7.28988 9.22222 8.21741 7.66667 8.21741 7.66667M4.50729 9.00492L4.50694 16.3333C4.50694 17.8061 5.75275 19 7.28953 19H9.5M8.21741 7.66667C8.21741 7.66667 9.14494 9.22222 11 9.22222C12.8551 9.22222 13.7826 7.66667 13.7826 7.66667M8.21741 7.66667L8.72 3M13.7826 7.66667C13.7826 7.66667 14.7101 9.22222 16.5652 9.22222C16.8721 9.22222 17.1884 9.13633 17.4927 9.00492C17.8471 8.85192 18.2014 8.62051 18.504 8.39292C19.0515 7.98118 19.1355 7.31062 18.8066 6.75902L17.3343 4.28983C16.8629 3.49934 15.8994 3 14.8454 3H13.28M13.7826 7.66667L13.28 3M13 14.7778H13.008M15.4083 13H15.4163M18.6003 13H18.6083M20.992 14.7778H21M8.72 3H13.28M17.0164 15.9474C15.4892 15.9474 13.7073 17.4632 13.4528 18.9789C13.2436 20.2249 13.9619 21 14.9801 21C15.9983 21 16.2528 19.9895 17.0164 19.9895C17.7801 19.9895 18.0346 21 19.0528 21C20.071 21 20.7893 20.2249 20.5801 18.9789C20.3255 17.4632 18.5437 15.9474 17.0164 15.9474Z" stroke="black" stroke-width="2" stroke-linecap="round" stroke-linejoin="round"/>
</svg>
