<svg width="24" height="24" viewBox="0 0 24 24" fill="none" xmlns="http://www.w3.org/2000/svg">
<path fill-rule="evenodd" clip-rule="evenodd" d="M9.50093 5.5C9.50093 4.11929 10.6202 3 12.0009 3C13.3816 3 14.5009 4.11929 14.5009 5.5V7H9.50093V5.5ZM16.5009 5.5V7.01062C18.4663 7.15347 20.0549 8.72015 20.1974 10.715L20.7688 18.715C20.9342 21.0305 19.1004 23 16.779 23H7.22286C4.90149 23 3.06764 21.0305 3.23303 18.715L3.80446 10.715C3.94695 8.72016 5.53555 7.15347 7.50093 7.01062V5.5C7.50093 3.01472 9.51565 1 12.0009 1C14.4862 1 16.5009 3.01472 16.5009 5.5ZM5.79937 10.8575C5.87413 9.81089 6.74501 9 7.79429 9H16.2076C17.2569 9 18.1277 9.81089 18.2025 10.8575L18.7739 18.8575C18.8566 20.0152 17.9397 21 16.779 21H7.22286C6.06218 21 5.14525 20.0152 5.22794 18.8575L5.79937 10.8575ZM10.8581 12.9808C11.3315 12.9808 11.7152 12.5933 11.7152 12.1154C11.7152 11.6374 11.3315 11.25 10.8581 11.25C10.3847 11.25 10.0009 11.6374 10.0009 12.1154C10.0009 12.5933 10.3847 12.9808 10.8581 12.9808ZM9.71522 13.8462C9.71522 14.3241 9.33146 14.7115 8.85808 14.7115C8.38469 14.7115 8.00093 14.3241 8.00093 13.8462C8.00093 13.3682 8.38469 12.9808 8.85808 12.9808C9.33146 12.9808 9.71522 13.3682 9.71522 13.8462ZM8.96047 17.001C9.17865 15.6893 10.7059 14.3775 12.015 14.3775C13.3241 14.3775 14.8514 15.6893 15.0696 17.001C15.2489 18.0793 14.6332 18.75 13.7605 18.75C13.2928 18.75 13.0131 18.4989 12.7534 18.2657C12.5286 18.0639 12.3188 17.8755 12.015 17.8755C11.7112 17.8755 11.5015 18.0639 11.2766 18.2657C11.017 18.4989 10.7373 18.75 10.2696 18.75C9.39684 18.75 8.78113 18.0793 8.96047 17.001ZM14.0009 12.1154C14.0009 12.5933 13.6172 12.9808 13.1438 12.9808C12.6704 12.9808 12.2866 12.5933 12.2866 12.1154C12.2866 11.6374 12.6704 11.25 13.1438 11.25C13.6172 11.25 14.0009 11.6374 14.0009 12.1154ZM15.1438 14.7115C15.6172 14.7115 16.0009 14.3241 16.0009 13.8462C16.0009 13.3682 15.6172 12.9808 15.1438 12.9808C14.6704 12.9808 14.2866 13.3682 14.2866 13.8462C14.2866 14.3241 14.6704 14.7115 15.1438 14.7115Z" fill="black"/>
</svg>
