<svg width="24" height="24" viewBox="0 0 24 24" fill="none" xmlns="http://www.w3.org/2000/svg">
<path d="M8 11.2778H8.008M10.4083 9.5H10.4163M13.6003 9.5H13.6083M15.992 11.2778H16M10.5858 3.54999L4.87868 8.90834C4.31607 9.43656 4 10.153 4 10.9V18.1833C4 19.7389 5.34315 21 7 21H17C18.6569 21 20 19.7389 20 18.1833V10.9C20 10.153 19.6839 9.43656 19.1213 8.90834L13.4142 3.54999C12.6332 2.81667 11.3668 2.81667 10.5858 3.54999ZM12.0164 12.4474C10.4892 12.4474 8.70734 13.9632 8.4528 15.4789C8.24356 16.7249 8.96189 17.5 9.98007 17.5C10.9983 17.5 11.2528 16.4895 12.0164 16.4895C12.7801 16.4895 13.0346 17.5 14.0528 17.5C15.071 17.5 15.7893 16.7249 15.5801 15.4789C15.3255 13.9632 13.5437 12.4474 12.0164 12.4474Z" stroke="black" stroke-width="2" stroke-linecap="round" stroke-linejoin="round"/>
</svg>
