<svg width="24" height="24" viewBox="0 0 24 24" fill="none" xmlns="http://www.w3.org/2000/svg">
<path d="M12 15.7778H12.008M14.4083 14H14.4163M17.6003 14H17.6083M19.992 15.7778H20M9 20.9895H7C5.34315 20.9895 4 19.6463 4 17.9895V5C4 3.34314 5.34315 2 7 2H17C18.6569 2 20 3.34315 20 5V12M8 6H8.01M8 10H8.01M12 6H16M12 10H16M8 14H8.01M16.0164 16.9474C14.4892 16.9474 12.7073 18.4632 12.4528 19.9789C12.2436 21.2249 12.9619 22 13.9801 22C14.9983 22 15.2528 20.9895 16.0164 20.9895C16.7801 20.9895 17.0346 22 18.0528 22C19.071 22 19.7893 21.2249 19.5801 19.9789C19.3255 18.4632 17.5437 16.9474 16.0164 16.9474Z" stroke="black" stroke-width="2" stroke-linecap="round" stroke-linejoin="round"/>
</svg>
