<svg width="24" height="24" viewBox="0 0 24 24" fill="none" xmlns="http://www.w3.org/2000/svg">
<path fill-rule="evenodd" clip-rule="evenodd" d="M7.6729 2C6.19584 2 4.75388 2.6982 4.01407 3.93893L2.35774 6.71676C1.75218 7.73235 1.8922 9.06629 2.95597 9.86626C3.17302 10.0295 3.42379 10.2038 3.6947 10.3637L3.69434 17.9999V18C3.69434 20.2488 5.58412 22 7.82476 22H9.38996H14.6073H16.1725C18.4131 22 20.3029 20.2488 20.3029 18V18L20.3033 10.3637C20.5742 10.2038 20.825 10.0295 21.0421 9.86626L20.4411 9.06704L21.0421 9.86626C22.1059 9.06628 22.2459 7.73235 21.6403 6.71676L19.984 3.93893C19.2442 2.6982 17.8022 2 16.3252 2H14.499H9.49903H7.6729ZM5.69434 18L5.69467 10.9997C5.70916 10.9999 5.72367 11 5.7382 11C7.08038 11 8.08249 10.433 8.72855 9.89125C8.77707 9.85057 8.82375 9.8099 8.86862 9.76945C8.91348 9.8099 8.96016 9.85057 9.00868 9.89125C9.65474 10.433 10.6569 11 11.999 11C13.3412 11 14.3433 10.433 14.9894 9.89125C15.0379 9.85057 15.0846 9.8099 15.1294 9.76945C15.1743 9.8099 15.221 9.85057 15.2695 9.89125C15.9156 10.433 16.9177 11 18.2599 11C18.2744 11 18.2888 10.9999 18.3033 10.9997L18.3029 17.9999V18C18.3029 19.0649 17.3897 20 16.1725 20H14.6073H9.38996H7.82476C6.60765 20 5.69437 19.0649 5.69434 18V18ZM10.2938 8.35875C10.1326 8.22357 10.0038 8.08809 9.90869 7.97611L10.3861 4H13.6119L14.0894 7.97611C13.9943 8.08809 13.8655 8.22357 13.7043 8.35875C13.3069 8.69199 12.7438 9 11.999 9C11.2543 9 10.6912 8.69199 10.2938 8.35875ZM7.6729 4H8.37177L7.90569 7.88147L7.8902 7.90112C7.79238 8.02417 7.64269 8.19169 7.44347 8.35875C7.04606 8.69199 6.48297 9 5.7382 9C5.57324 9 5.35623 8.95192 5.09114 8.83746C4.79473 8.70948 4.46755 8.50058 4.15803 8.26782C4.04785 8.18495 4.0138 8.10416 4.00331 8.04157C3.99154 7.97138 4.0011 7.86589 4.07554 7.74104L5.73188 4.9632C6.05261 4.42531 6.77854 4 7.6729 4ZM16.0924 7.88147L15.6263 4H16.3252C17.2195 4 17.9455 4.42531 18.2662 4.9632L19.1251 4.45106L18.2662 4.9632L19.9225 7.74104C19.997 7.86589 20.0065 7.97138 19.9948 8.04157C19.9843 8.10416 19.9502 8.18495 19.84 8.26782C19.5305 8.50058 19.2033 8.70948 18.9069 8.83746C18.6418 8.95192 18.4248 9 18.2599 9C17.5151 9 16.952 8.69199 16.5546 8.35875C16.3554 8.19169 16.2057 8.02417 16.1079 7.90112L16.0924 7.88147ZM10.8562 13.4808C11.3296 13.4808 11.7133 13.0933 11.7133 12.6154C11.7133 12.1374 11.3296 11.75 10.8562 11.75C10.3828 11.75 9.99903 12.1374 9.99903 12.6154C9.99903 13.0933 10.3828 13.4808 10.8562 13.4808ZM9.71332 14.3462C9.71332 14.8241 9.32956 15.2115 8.85617 15.2115C8.38279 15.2115 7.99903 14.8241 7.99903 14.3462C7.99903 13.8682 8.38279 13.4808 8.85617 13.4808C9.32956 13.4808 9.71332 13.8682 9.71332 14.3462ZM8.95857 17.501C9.17675 16.1893 10.704 14.8775 12.0131 14.8775C13.3222 14.8775 14.8495 16.1893 15.0677 17.501C15.247 18.5793 14.6313 19.25 13.7586 19.25C13.2909 19.25 13.0112 18.9989 12.7515 18.7657C12.5267 18.5639 12.3169 18.3755 12.0131 18.3755C11.7093 18.3755 11.4996 18.5639 11.2747 18.7657C11.0151 18.9989 10.7354 19.25 10.2677 19.25C9.39493 19.25 8.77922 18.5793 8.95857 17.501ZM13.999 12.6154C13.999 13.0933 13.6153 13.4808 13.1419 13.4808C12.6685 13.4808 12.2847 13.0933 12.2847 12.6154C12.2847 12.1374 12.6685 11.75 13.1419 11.75C13.6153 11.75 13.999 12.1374 13.999 12.6154ZM15.1419 15.2115C15.6153 15.2115 15.999 14.8241 15.999 14.3462C15.999 13.8682 15.6153 13.4808 15.1419 13.4808C14.6685 13.4808 14.2847 13.8682 14.2847 14.3462C14.2847 14.8241 14.6685 15.2115 15.1419 15.2115Z" fill="black"/>
</svg>
