<svg width="24" height="24" viewBox="0 0 24 24" fill="none" xmlns="http://www.w3.org/2000/svg">
<path fill-rule="evenodd" clip-rule="evenodd" d="M12.5025 4.65264C12.1949 4.44912 11.8052 4.44912 11.4976 4.65264C9.29371 6.11076 7.18513 7.28407 4.50098 7.83221C4.68468 13.0277 6.5706 17.4012 10.7004 19.1348C10.6032 19.8923 10.6815 20.6643 10.9861 21.3609C10.9405 21.3481 10.895 21.3345 10.8498 21.32C4.99163 19.4381 2.70156 13.7383 2.50118 7.87247C2.4668 6.86617 3.19077 6.05813 4.09573 5.87369C6.40949 5.40211 8.26574 4.39277 10.394 2.98467C11.3707 2.33844 12.6294 2.33844 13.6061 2.98467C15.7343 4.39277 17.5906 5.40211 19.9043 5.87369C20.8093 6.05813 21.5333 6.86617 21.4989 7.87247C21.4482 9.35579 21.2639 10.8285 20.9221 12.2315C20.9133 12.2301 20.9046 12.2288 20.8958 12.2274C20.889 12.2264 20.8822 12.2254 20.8754 12.2244C20.6319 11.3908 20.048 10.6894 19.2698 10.3083C19.3934 9.51023 19.469 8.68222 19.4991 7.83221C16.8149 7.28407 14.7064 6.11076 12.5025 4.65264ZM15.0715 14.1923C15.6632 14.1923 16.1429 13.7015 16.1429 13.0962C16.1429 12.4908 15.6632 12 15.0715 12C14.4797 12 14 12.4908 14 13.0962C14 13.7015 14.4797 14.1923 15.0715 14.1923ZM13.6429 15.2885C13.6429 15.8939 13.1632 16.3846 12.5715 16.3846C11.9797 16.3846 11.5 15.8939 11.5 15.2885C11.5 14.6831 11.9797 14.1923 12.5715 14.1923C13.1632 14.1923 13.6429 14.6831 13.6429 15.2885ZM12.6995 19.2846C12.9722 17.6231 14.8813 15.9615 16.5176 15.9615C18.154 15.9615 20.0631 17.6231 20.3358 19.2846C20.56 20.6504 19.7904 21.5 18.6995 21.5C18.1149 21.5 17.7652 21.1819 17.4407 20.8866C17.1596 20.6309 16.8974 20.3923 16.5176 20.3923C16.1379 20.3923 15.8757 20.6309 15.5946 20.8866C15.2701 21.1819 14.9204 21.5 14.3358 21.5C13.2449 21.5 12.4753 20.6504 12.6995 19.2846ZM19 13.0962C19 13.7015 18.5203 14.1923 17.9286 14.1923C17.3369 14.1923 16.8572 13.7015 16.8572 13.0962C16.8572 12.4908 17.3369 12 17.9286 12C18.5203 12 19 12.4908 19 13.0962ZM20.4286 16.3846C21.0203 16.3846 21.5 15.8939 21.5 15.2885C21.5 14.6831 21.0203 14.1923 20.4286 14.1923C19.8369 14.1923 19.3572 14.6831 19.3572 15.2885C19.3572 15.8939 19.8369 16.3846 20.4286 16.3846Z" fill="black"/>
</svg>
