<svg width="24" height="24" viewBox="0 0 24 24" fill="none" xmlns="http://www.w3.org/2000/svg">
<path fill-rule="evenodd" clip-rule="evenodd" d="M17.7071 3.29292C17.4211 3.00692 16.991 2.92137 16.6173 3.07615C16.2436 3.23093 16 3.59557 16 4.00003V5.6716C16 6.46725 16.3161 7.23031 16.8787 7.79292L17.5 8.41424V9.00003C17.5 10.1046 16.6046 11 15.5 11H3C2.71556 11 2.44458 11.1212 2.25488 11.3331C2.06518 11.5451 1.97471 11.8278 2.00612 12.1105C2.27673 14.546 3.2309 16.7701 4.8554 18.3946C6.49135 20.0306 8.75063 21 11.5 21C16.4706 21 20.5 16.9706 20.5 12V8.41424L21.1213 7.79292C21.6839 7.23031 22 6.46725 22 5.6716V4.00003C22 3.59557 21.7564 3.23093 21.3827 3.07615C21.009 2.92137 20.5789 3.00692 20.2929 3.29292L19 4.58582L17.7071 3.29292ZM15.5 13C16.6947 13 17.7671 12.4763 18.5 11.6459V12C18.5 15.866 15.366 19 11.5 19C9.24938 19 7.50866 18.2195 6.26961 16.9804C5.24955 15.9604 4.53202 14.5908 4.17771 13H15.5ZM18.9102 6.99601L19 7.08582L19.0898 6.99601C19.0301 7.00137 18.9699 7.00137 18.9102 6.99601ZM10 14C9.44772 14 9 14.4477 9 15C9 15.5523 9.44772 16 10 16H10.01C10.5623 16 11.01 15.5523 11.01 15C11.01 14.4477 10.5623 14 10.01 14H10ZM8 7.55003C8 8.18654 8.41918 8.30967 8.94771 8.46491C9.56331 8.64573 10.3273 8.87013 10.75 10C10.75 7.90003 10.4125 6.50003 9.17858 6.50003C8.47143 6.50003 8 6.99003 8 7.55003ZM13 8.25003C13 8.70468 12.7333 8.79263 12.3969 8.90352C12.0052 9.03268 11.519 9.19296 11.25 10C11.25 8.50003 11.4648 7.50003 12.25 7.50003C12.7 7.50003 13 7.85003 13 8.25003Z" fill="black"/>
</svg>
