<svg width="24" height="24" viewBox="0 0 24 24" fill="none" xmlns="http://www.w3.org/2000/svg">
<path d="M9 17V19C9 20.6569 10.3431 22 12 22V22C13.6569 22 15 20.6569 15 19V17M9 17H11.25H12H12.75H15M9 17L8.33333 15M15 17L15.6667 15M16 4L13.7889 2.89443C12.6627 2.33137 11.3373 2.33137 10.2111 2.89443L8 4M16 4L18.3805 2.80975C18.9781 2.51093 19.6387 3.08385 19.4274 3.71774L15.6667 15M16 4L13.25 15M8 4L5.6195 2.80975C5.02187 2.51093 4.36128 3.08385 4.57258 3.71774L8.33333 15M8 4L10.75 15M12 3V15M8.33333 15H10.75M15.6667 15H13.25M13.25 15H12M12 15H10.75" stroke="black" stroke-width="2" stroke-linecap="round" stroke-linejoin="round"/>
</svg>
