<svg width="24" height="24" viewBox="0 0 24 24" fill="none" xmlns="http://www.w3.org/2000/svg">
<path d="M8.71628 17.2781L8.00952 16.5699C7.81427 16.3743 7.4976 16.3742 7.30229 16.5698L5.14645 18.7286C4.95123 18.9241 4.95118 19.2411 5.14633 19.4366L6.56008 20.8532C6.75533 21.0489 7.072 21.0489 7.26731 20.8534L9.42315 18.6945C9.61837 18.499 9.61842 18.1821 9.42327 17.9866L8.71628 17.2781ZM8.71628 17.2781L12.9333 13.0738M12.9333 13.0738C14.4954 14.638 17.344 14.3218 19.2966 12.3665C21.2493 10.4111 21.5658 7.55796 20.0037 5.9937C18.4416 4.42944 15.5924 4.74646 13.6398 6.70178C11.6872 8.65711 11.3712 11.5095 12.9333 13.0738ZM7.81754 9.48438C7.81953 10.3234 7.12535 11.002 6.26703 11C5.40871 10.998 4.71129 10.3163 4.70929 9.47728M6.24894 3.40417L6.26221 8.97444M3.21621 4.62293L4.48693 8.32636C4.58537 8.61324 4.63458 8.75668 4.74273 8.84797C4.76565 8.86731 4.79025 8.88467 4.81625 8.89985C4.93891 8.97142 5.09346 8.97178 5.40258 8.97248L7.12184 8.97641C7.43095 8.97711 7.58551 8.97746 7.70783 8.90644C7.73375 8.89139 7.75827 8.87415 7.7811 8.8549C7.88881 8.76411 7.93735 8.62089 8.03441 8.33446L9.2875 4.63679C9.44913 4.15984 9.52995 3.92136 9.48983 3.77487C9.43482 3.57403 9.2601 3.42581 9.04906 3.40095C8.89513 3.38282 8.66521 3.4948 8.20537 3.71876C8.07677 3.78139 8.01247 3.81271 7.94632 3.82595C7.85574 3.84409 7.76174 3.83815 7.67408 3.80877C7.61006 3.7873 7.55008 3.74814 7.43012 3.66981L6.78305 3.24731C6.54368 3.09102 6.42399 3.01288 6.29058 3.00181C6.26222 2.99946 6.23373 2.9994 6.20538 3.00162C6.07201 3.01207 5.9527 3.08967 5.71408 3.24487L5.06901 3.66443C4.94942 3.74221 4.88963 3.7811 4.82571 3.80227C4.73819 3.83125 4.64421 3.83676 4.55355 3.81821C4.48734 3.80466 4.42288 3.77305 4.29398 3.70983C3.83307 3.48377 3.60261 3.37074 3.44876 3.38817C3.23784 3.41207 3.06383 3.55949 3.00978 3.76008C2.97036 3.90639 3.05231 4.14524 3.21621 4.62293Z" stroke="black" stroke-width="2" stroke-linecap="round"/>
</svg>
