<svg width="24" height="24" viewBox="0 0 24 24" fill="none" xmlns="http://www.w3.org/2000/svg">
<path d="M2 10V14M7.5 12V9C7.5 8.44772 7.05228 8 6.5 8H5.5C4.94772 8 4.5 8.44772 4.5 9V15C4.5 15.5523 4.94772 16 5.5 16H6.5C7.05228 16 7.5 15.5523 7.5 15V12ZM7.5 12H16.5M16.5 12V9C16.5 8.44772 16.9477 8 17.5 8H18.5C19.0523 8 19.5 8.44772 19.5 9V15C19.5 15.5523 19.0523 16 18.5 16H17.5C16.9477 16 16.5 15.5523 16.5 15V12ZM22 10V14" stroke="black" stroke-width="2" stroke-linecap="round" stroke-linejoin="round"/>
</svg>
