<svg width="24" height="24" viewBox="0 0 24 24" fill="none" xmlns="http://www.w3.org/2000/svg">
<path d="M7.5 12V9C7.5 8.44772 7.05228 8 6.5 8H5.5C4.94772 8 4.5 8.44772 4.5 9V10M7.5 12V15C7.5 15.5523 7.05228 16 6.5 16H5.5C4.94772 16 4.5 15.5523 4.5 15V14M7.5 12H16.5M16.5 12V9C16.5 8.44772 16.9477 8 17.5 8H18.5C19.0523 8 19.5 8.44772 19.5 9V10M16.5 12V15C16.5 15.5523 16.9477 16 17.5 16H18.5C19.0523 16 19.5 15.5523 19.5 15V14M4.5 10H3C2.44772 10 2 10.4477 2 11V13C2 13.5523 2.44772 14 3 14H4.5M4.5 10V14M19.5 10H21C21.5523 10 22 10.4477 22 11V13C22 13.5523 21.5523 14 21 14H19.5M19.5 10V14" stroke="black" stroke-width="2" stroke-linecap="round" stroke-linejoin="round"/>
</svg>
