<svg width="24" height="24" viewBox="0 0 24 24" fill="none" xmlns="http://www.w3.org/2000/svg">
<path d="M9 17L6 20C5.44772 20.5523 4.55228 20.5523 4 20V20C3.44772 19.4477 3.44771 18.5523 4 18L7 15M9 17L7 15M9 17L18.8271 8.81071C19.994 7.83836 20.074 6.074 19 5V5C17.926 3.926 16.1616 4.00603 15.1893 5.17286L7 15M7 8V8C8.10457 8 9 7.10457 9 6V6C9 4.89543 8.10457 4 7 4V4C5.89543 4 5 4.89543 5 6V6C5 7.10457 5.89543 8 7 8Z" stroke="black" stroke-width="2" stroke-linecap="round" stroke-linejoin="round"/>
</svg>
