<svg width="24" height="24" viewBox="0 0 24 24" fill="none" xmlns="http://www.w3.org/2000/svg">
<path d="M16.6975 14H17C18.6569 14 20 12.6569 20 11V6C20 4.34315 18.6569 3 17 3H7C5.34315 3 4 4.34315 4 6V11C4 12.6569 5.34315 14 7 14H7.30253M16.6975 14C16.742 13.8362 16.7894 13.6709 16.8398 13.5042M16.6975 14C16.3465 15.2913 16.1721 16.4942 16.0855 17.6533M7.30253 14C7.25799 13.8362 7.21061 13.6709 7.16021 13.5042M7.30253 14C7.65353 15.2913 7.82789 16.4942 7.91451 17.6533M10 8.5H11.5M11.5 8.5L11 11M11.5 8.5H12.5M12.5 8.5H14M12.5 8.5L13 11M7.16021 13.5042C7.05565 13.3431 7 13.1741 7 13C7 11.8954 9.23858 11 12 11C14.7614 11 17 11.8954 17 13C17 13.1741 16.9444 13.3431 16.8398 13.5042M7.16021 13.5042C7.27438 13.68 7.44686 13.8465 7.66891 14C8.19615 14.3646 9.00284 14.6564 9.97182 14.8286M7.91451 17.6533C8 18.7973 8 19.8987 8 21M7.91451 17.6533C8.43257 17.9464 9.1428 18.1813 9.97182 18.3286C10.1297 18.3567 10.2919 18.3816 10.4578 18.4031M16.8398 13.5042C16.7256 13.68 16.5531 13.8465 16.3311 14C15.8038 14.3646 14.9972 14.6564 14.0282 14.8286M16.0855 17.6533C16 18.7973 16 19.8987 16 21M16.0855 17.6533C15.5674 17.9464 14.8572 18.1813 14.0282 18.3286C13.8703 18.3567 13.7081 18.3816 13.5422 18.4031M9.97182 14.8286C10.5917 14.9388 11.278 15 12 15C12.722 15 13.4083 14.9388 14.0282 14.8286M9.97182 14.8286C10.2726 16.0651 10.4021 17.2461 10.4578 18.4031M10.4578 18.4031C10.5 19.2778 10.5 20.1389 10.5 21M10.4578 18.4031C10.9436 18.466 11.4619 18.5 12 18.5C12.5381 18.5 13.0564 18.466 13.5422 18.4031M14.0282 14.8286C13.7274 16.0651 13.5979 17.2461 13.5422 18.4031M13.5422 18.4031C13.5 19.2778 13.5 20.1389 13.5 21" stroke="black" stroke-width="2" stroke-linecap="round" stroke-linejoin="round"/>
</svg>
