<svg width="24" height="24" viewBox="0 0 24 24" fill="none" xmlns="http://www.w3.org/2000/svg">
<path d="M12 4H5C3.34315 4 2 5.34315 2 7V9M12 4H19C20.6569 4 22 5.34315 22 7V9M12 4V10M12 20H19C20.6569 20 22 18.6569 22 17V15M12 20H5C3.34315 20 2 18.6569 2 17V15M12 20V14M22 9V15M22 9C22 9 18.5 8.8211 18.5 12C18.5 15.1789 22 15 22 15M2 9C2 9 5.5 8.8211 5.5 12C5.5 15.1789 2 15 2 15M2 9V15M12 14V14C13.1046 14 14 13.1046 14 12V12C14 10.8954 13.1046 10 12 10V10C10.8954 10 10 10.8954 10 12V12C10 13.1046 10.8954 14 12 14Z" stroke="black" stroke-width="2" stroke-linecap="round" stroke-linejoin="round"/>
</svg>
