<svg width="24" height="24" viewBox="0 0 24 24" fill="none" xmlns="http://www.w3.org/2000/svg">
<path d="M22 12C22 9.23858 20.8807 6.73858 19.0711 4.92893M22 12C19.2386 12 16.7386 10.8807 14.9289 9.07107M22 12C22 14.7614 20.8807 17.2614 19.0711 19.0711M19.0711 4.92893C17.2614 3.11929 14.7614 2 12 2M19.0711 4.92893L14.9289 9.07107M12 2C12 4.76142 13.1193 7.26142 14.9289 9.07107M12 2C9.23858 2 6.73858 3.11929 4.92893 4.92893M12 22C9.23858 22 6.73858 20.8807 4.92893 19.0711M12 22C12 19.2386 10.8807 16.7386 9.07107 14.9289M12 22C14.7614 22 17.2614 20.8807 19.0711 19.0711M2 12C2 14.7614 3.11929 17.2614 4.92893 19.0711M2 12C4.76142 12 7.26142 13.1193 9.07107 14.9289M2 12C2 9.23858 3.11929 6.73858 4.92893 4.92893M4.92893 19.0711L9.07107 14.9289M14.9289 9.07107L9.07107 14.9289M19.0711 19.0711L4.92893 4.92893" stroke="black" stroke-width="2" stroke-linecap="round" stroke-linejoin="round"/>
</svg>
