<svg width="24" height="24" viewBox="0 0 24 24" fill="none" xmlns="http://www.w3.org/2000/svg">
<path d="M19.5 5H18.4396C17.1775 5 16.2309 6.15465 16.4784 7.39223L18 15M11.75 12L11.025 9M16.6562 9H11.025M11.025 9L10.3 6L10.0583 5M11.025 9L6 15M10.0583 5H11.2583M10.0583 5H9.25833M18 11V11C20.2091 11 22 12.7909 22 15V15C22 17.2091 20.2091 19 18 19V19C15.7909 19 14 17.2091 14 15V15C14 12.7909 15.7909 11 18 11ZM10 15V15C10 17.2091 8.20914 19 6 19V19C3.79086 19 2 17.2091 2 15V15C2 12.7909 3.79086 11 6 11V11C8.20914 11 10 12.7909 10 15Z" stroke="black" stroke-width="2" stroke-linecap="round" stroke-linejoin="round"/>
</svg>
