<svg width="24" height="24" viewBox="0 0 24 24" fill="none" xmlns="http://www.w3.org/2000/svg">
<path d="M12 12C12.9941 12 13.8 11.2725 13.8 10.375C13.8 9.47754 12.9941 8.75 12 8.75C11.0059 8.75 10.2 9.47754 10.2 10.375C10.2 11.2725 11.0059 12 12 12ZM12 12C10.8954 12 10 12.7275 10 13.625C10 14.5225 10.8954 15.25 12 15.25C13.1046 15.25 14 14.5225 14 13.625C14 12.7275 13.1046 12 12 12ZM22 12C22 6.47715 17.5228 2 12 2C6.47715 2 2 6.47715 2 12C2 17.5228 6.47715 22 12 22C17.5228 22 22 17.5228 22 12ZM19 12C19 8.13401 15.866 5 12 5C8.13401 5 5 8.13401 5 12C5 15.866 8.13401 19 12 19C15.866 19 19 15.866 19 12Z" stroke="black" stroke-width="2" stroke-linecap="round" stroke-linejoin="round"/>
</svg>
