<svg width="24" height="24" viewBox="0 0 24 24" fill="none" xmlns="http://www.w3.org/2000/svg">
<path d="M20 10.8819V5C20 4.69254 19.9537 4.39588 19.8678 4.1166M20 10.8819V13.1181M20 10.8819C19.7346 10.6444 19.3842 10.5 19 10.5C18.1716 10.5 17.5 11.1716 17.5 12C17.5 12.8284 18.1716 13.5 19 13.5C19.3842 13.5 19.7346 13.3556 20 13.1181M20 13.1181V19C20 19.3075 19.9537 19.6041 19.8678 19.8834M4 13.1181V19C4 19.3075 4.04626 19.6041 4.13219 19.8834M4 13.1181V10.8819M4 13.1181C4.26538 13.3556 4.61582 13.5 5 13.5C5.82843 13.5 6.5 12.8284 6.5 12C6.5 11.1716 5.82843 10.5 5 10.5C4.61582 10.5 4.26538 10.6444 4 10.8819M4 10.8819V5C4 4.69253 4.04626 4.39586 4.13219 4.11658M6.1166 21.8678C6.39588 21.9537 6.69254 22 7 22H17C17.3075 22 17.6041 21.9537 17.8834 21.8678M6.1166 21.8678C5.17019 21.5766 4.42339 20.8298 4.13219 19.8834M6.1166 21.8678C6.6375 21.6326 7.00002 21.1087 7.00002 20.5C7.00002 19.6716 6.32845 19 5.50002 19C4.89136 19 4.36737 19.3625 4.13219 19.8834M19.8678 19.8834C19.5766 20.8298 18.8298 21.5766 17.8834 21.8678M19.8678 19.8834C19.6326 19.3625 19.1087 19 18.5 19C17.6716 19 17 19.6716 17 20.5C17 21.1087 17.3625 21.6326 17.8834 21.8678M17.8834 2.13219C17.6041 2.04626 17.3075 2 17 2H7C6.69253 2 6.39586 2.04626 6.11658 2.13219M17.8834 2.13219C18.8298 2.42339 19.5766 3.17019 19.8678 4.1166M17.8834 2.13219C17.3625 2.36737 17 2.89136 17 3.50002C17 4.32845 17.6716 5.00002 18.5 5.00002C19.1087 5.00002 19.6326 4.6375 19.8678 4.1166M6.11658 2.13219C5.17018 2.42338 4.42338 3.17018 4.13219 4.11658M6.11658 2.13219C6.63749 2.36736 7.00002 2.89135 7.00002 3.50002C7.00002 4.32845 6.32845 5.00002 5.50002 5.00002C4.89135 5.00002 4.36736 4.63749 4.13219 4.11658M12 7H12.01" stroke="black" stroke-width="2" stroke-linecap="round" stroke-linejoin="round"/>
</svg>
