<svg width="24" height="24" viewBox="0 0 24 24" fill="none" xmlns="http://www.w3.org/2000/svg">
<path d="M7 13.9048C10 14.8571 14 14.8571 17 13.9048M10 9.61905C11 9.85714 13 9.85714 14 9.61905M12 2C14 2 15 4.38095 15 6.7619C15 7.23591 14.7523 8.18176 14.5034 9.01235C14.2248 9.94244 14.5432 10.9595 15.3333 11.5238V11.5238C16.9135 12.6525 17.5589 14.6888 16.9174 16.5217L15.9632 19.2481C15.7141 19.9597 15.5896 20.3156 15.4055 20.606C14.9839 21.2712 14.3175 21.744 13.5503 21.9222C13.2154 22 12.8384 22 12.0844 22H11.9156C11.1616 22 10.7846 22 10.4497 21.9222C9.68251 21.744 9.01614 21.2712 8.59449 20.606C8.41044 20.3156 8.28591 19.9597 8.03683 19.2481L7.08258 16.5217C6.44108 14.6888 7.08649 12.6525 8.66667 11.5238V11.5238C9.45675 10.9595 9.77523 9.94244 9.49656 9.01235C9.24771 8.18176 9 7.23591 9 6.7619C9 4.38095 10 2 12 2Z" stroke="black" stroke-width="2" stroke-linecap="round" stroke-linejoin="round"/>
</svg>
