<svg width="24" height="24" viewBox="0 0 24 24" fill="none" xmlns="http://www.w3.org/2000/svg">
<path d="M20 17V17C20.5523 17 21 17.4477 21 18V20C21 20.5523 20.5523 21 20 21H8C7.44772 21 7 20.5523 7 20V18C7 17.4477 7.44772 17 8 17V17M20 17L20.352 7.14277C20.4329 4.8791 18.6197 3 16.3546 3H10.9515C8.57369 3 6.72092 5.06189 6.97423 7.42613L8 17M20 17H8M6.5 7.5H5.30602C4.08892 7.5 3.154 8.57798 3.32612 9.78284L3.75469 12.7828C3.89545 13.7681 4.73929 14.5 5.73459 14.5H7.5" stroke="black" stroke-width="2" stroke-linecap="round" stroke-linejoin="round"/>
</svg>
