<svg width="24" height="24" viewBox="0 0 24 24" fill="none" xmlns="http://www.w3.org/2000/svg">
<path d="M6 19V13.7453C6 12.3171 6.61074 10.9571 7.67818 10.0083L10.5 7.5M6 19H12M6 19C5.44772 19 5 19.4477 5 20V21C5 21.5523 5.44772 22 6 22H12.5C13.0523 22 13.5 21.5523 13.5 21V20C13.5 19.4477 13.0523 19 12.5 19H12M10.5 7.5V4C10.5 2.89543 11.3954 2 12.5 2H17C18.1046 2 19 2.89543 19 4V11C19 12.1046 18.1046 13 17 13H15M10.5 7.5V11C10.5 11.5523 10.7239 12.0523 11.0858 12.4142M12 19L15 13M15 13L15.7764 11.4472C16.1088 10.7823 15.6253 10 14.882 10H14.7427C13.947 10 13.1839 10.3161 12.6213 10.8787L11.0858 12.4142M11.0858 12.4142L9.5 14" stroke="black" stroke-width="2" stroke-linecap="round" stroke-linejoin="round"/>
</svg>
