<svg width="24" height="24" viewBox="0 0 24 24" fill="none" xmlns="http://www.w3.org/2000/svg">
<path d="M6.66667 19.5H5.66667C4.74619 19.5 4 20.2462 4 21.1667C4 21.6269 4.3731 22 4.83333 22H19.1667C19.6269 22 20 21.6269 20 21.1667C20 20.2462 19.2538 19.5 18.3333 19.5H17.3333M6.66667 19.5H17.3333M6.66667 19.5C6.29848 19.5 6 19.0523 6 18.5C6 17.3954 7 16.5 8.33333 16.5H15.6667C17 16.5 18 17.3954 18 18.5C18 19.0523 17.7015 19.5 17.3333 19.5M9.5 6.5H14.5C15.0523 6.5 15.5 6.94772 15.5 7.5V15.5C15.5 16.0523 15.0523 16.5 14.5 16.5H9.5C8.94772 16.5 8.5 16.0523 8.5 15.5V7.5C8.5 6.94772 8.94772 6.5 9.5 6.5ZM14 4H10C9.44772 4 9 3.55228 9 3V3C9 2.44772 8.55228 2 8 2H6.5C5.94772 2 5.5 2.44772 5.5 3V3.5C5.5 5.15685 6.84315 6.5 8.5 6.5H15.5C17.1569 6.5 18.5 5.15685 18.5 3.5V3C18.5 2.44772 18.0523 2 17.5 2H16C15.4477 2 15 2.44772 15 3V3C15 3.55228 14.5523 4 14 4Z" stroke="black" stroke-width="2"/>
</svg>
