<svg width="24" height="24" viewBox="0 0 24 24" fill="none" xmlns="http://www.w3.org/2000/svg">
<path d="M10.5 22V19C10.5 18.4477 10.9477 18 11.5 18H12.5C13.0523 18 13.5 18.4477 13.5 19V22M17 10C17 12.7614 14.7614 15 12 15C9.23858 15 7 12.7614 7 10C7 7.23858 9.23858 5 12 5C14.7614 5 17 7.23858 17 10ZM14 10C14 8.89543 13.1046 8 12 8C10.8954 8 10 8.89543 10 10C10 11.1046 10.8954 12 12 12C13.1046 12 14 11.1046 14 10ZM8 18H16C18.2091 18 20 16.2091 20 14V6C20 3.79086 18.2091 2 16 2H8C5.79086 2 4 3.79086 4 6V14C4 16.2091 5.79086 18 8 18Z" stroke="black" stroke-width="2" stroke-linecap="round" stroke-linejoin="round"/>
</svg>
