<svg width="24" height="24" viewBox="0 0 24 24" fill="none" xmlns="http://www.w3.org/2000/svg">
<path d="M9.55951 14.4405L6.68658 13.8659C5.92879 13.7144 5.14539 13.9515 4.59893 14.498L3.33868 15.7583C2.78091 16.316 2.93349 17.2563 3.63903 17.6091L4.78451 18.1818C5.23182 18.4055 5.59451 18.7682 5.81817 19.2155L6.39091 20.361C6.74367 21.0665 7.68397 21.2191 8.24175 20.6613L9.502 19.4011C10.0485 18.8546 10.2856 18.0712 10.1341 17.3134L9.55951 14.4405ZM9.55951 14.4405L16.0969 7.90307M16.0969 7.90307C16.7739 8.58004 17.8715 8.58004 18.5485 7.90307C19.2254 7.2261 19.2254 6.12851 18.5485 5.45153M16.0969 7.90307C15.42 7.2261 15.42 6.12851 16.0969 5.45153C16.7739 4.77456 17.8715 4.77456 18.5485 5.45153M18.5485 5.45153L21 3" stroke="black" stroke-width="2" stroke-linecap="round"/>
</svg>
