<svg width="24" height="24" viewBox="0 0 24 24" fill="none" xmlns="http://www.w3.org/2000/svg">
<path d="M18.5 18.5L21 21M3 3L12 12M12 12L16 16M12 12L21 3M12 12L8 16M5.5 18.5L3 21M7.95747 15.9575L8.04253 16.0425C8.62081 16.6208 8.78876 17.4929 8.46661 18.2446L8.08183 19.1424C7.80315 19.7927 6.95583 19.9558 6.45558 19.4556L4.54442 17.5444C4.04417 17.0442 4.20735 16.1969 4.85761 15.9182L5.75542 15.5334C6.5071 15.2112 7.37919 15.3792 7.95747 15.9575ZM15.5334 18.2446L15.9182 19.1424C16.1969 19.7927 17.0442 19.9558 17.5444 19.4556L19.4556 17.5444C19.9558 17.0442 19.7927 16.1969 19.1424 15.9182L18.2446 15.5334C17.4929 15.2112 16.6208 15.3792 16.0425 15.9575L15.9575 16.0425C15.3792 16.6208 15.2112 17.4929 15.5334 18.2446Z" stroke="black" stroke-width="2" stroke-linecap="round" stroke-linejoin="round"/>
</svg>
