<svg width="24" height="24" viewBox="0 0 24 24" fill="none" xmlns="http://www.w3.org/2000/svg">
<path d="M3 10V7C3 5.89543 3.89543 5 5 5H9C10.1046 5 11 5.89543 11 7V9.51194C11 10.3952 11.5793 11.1738 12.4253 11.4276L15.2308 12.2692M3 10V16C3 16.8284 3.67157 17.5 4.5 17.5V17.5M3 10H10.5M13.5 14L15.2308 12.2692M15.2308 12.2692L18.995 13.3985C20.185 13.7555 21 14.8508 21 16.0933V16.0933C21 16.8702 20.3702 17.5 19.5933 17.5H19.5M10.9327 12.5676L11.3654 12.1349L11.7981 11.7022L12.0144 11.4859L12.1226 11.3777M4.5 17.5V19M4.5 17.5H7.5M7.5 17.5V19M7.5 17.5H10.5M10.5 17.5V19M10.5 17.5H13.5M13.5 17.5V19M13.5 17.5H16.5M16.5 17.5V19M16.5 17.5H19.5M19.5 17.5V19" stroke="black" stroke-width="2" stroke-linecap="round" stroke-linejoin="round"/>
</svg>
