<svg width="24" height="24" viewBox="0 0 24 24" fill="none" xmlns="http://www.w3.org/2000/svg">
<path d="M10.6105 20.6105C9.12671 21.2249 7.52499 21.6777 5.81936 21.955C3.57851 22.3192 1.68082 20.4215 2.04504 18.1806C2.32228 16.475 2.77511 14.8733 3.38952 13.3895M10.6105 20.6105C15.2255 18.6995 18.6995 15.2255 20.6105 10.6105M10.6105 20.6105C10.7005 19.2005 9.60025 17.3503 8.125 15.875C6.64975 14.3997 4.7995 13.2995 3.38952 13.3895M20.6105 10.6105C21.2249 9.12671 21.6777 7.52499 21.955 5.81936C22.3192 3.57851 20.4215 1.68082 18.1806 2.04504C16.475 2.32228 14.8733 2.77511 13.3895 3.38952M20.6105 10.6105C19.2005 10.7005 17.3503 9.60025 15.875 8.125C14.3997 6.64975 13.2995 4.7995 13.3895 3.38952M13.3895 3.38952C8.77452 5.3005 5.3005 8.77452 3.38952 13.3895M12 8.25L13.875 10.125L15.75 12M8.25 12L10.125 13.875L12 15.75" stroke="black" stroke-width="2" stroke-linecap="round" stroke-linejoin="round"/>
</svg>
