<svg width="24" height="24" viewBox="0 0 24 24" fill="none" xmlns="http://www.w3.org/2000/svg">
<path d="M16.0635 21.1399C14.8219 21.6927 13.4468 22 12 22C10.5532 22 9.17807 21.6927 7.93645 21.1399M16.0635 21.1399C17.9089 20.3182 19.4595 18.9541 20.5127 17.25M16.0635 21.1399L16.75 17.25M20.5127 17.25C21.4557 15.7241 22 13.9256 22 12C22 11.8969 21.9984 11.7942 21.9953 11.6919M20.5127 17.25H16.75M3.48734 17.25C2.54426 15.7241 2 13.9256 2 12C2 11.8106 2.00526 11.6225 2.01565 11.4357M3.48734 17.25C4.54052 18.9541 6.09108 20.3182 7.93645 21.1399M3.48734 17.25H7.25M7.93645 21.1399L7.25 17.25M12 9L9 11.25M12 9L15 11.25L14 15M12 9V5M9 11.25L10 15M9 11.25L5.5 9.5M10 15H14M10 15L7.25 17.25M14 15L16.75 17.25M12 5L9 2.4578M12 5L15 2.4578M2.01565 11.4357C2.13626 9.26743 2.94766 7.28345 4.23342 5.70026M2.01565 11.4357L5.5 9.5M4.23342 5.70026C5.45563 4.19532 7.10646 3.05253 9 2.4578M4.23342 5.70026L5.5 9.5M9 2.4578C9.94704 2.16035 10.9548 2 12 2C13.0452 2 14.053 2.16035 15 2.4578M21.9953 11.6919C21.9277 9.45728 21.127 7.40706 19.8255 5.77351M21.9953 11.6919L18.5 9.75M19.8255 5.77351C18.5977 4.2324 16.9241 3.06214 15 2.4578M19.8255 5.77351L18.5 9.75M15 11.5L18.5 9.75" stroke="black" stroke-width="2" stroke-linecap="round" stroke-linejoin="round"/>
</svg>
