<svg width="24" height="24" viewBox="0 0 24 24" fill="none" xmlns="http://www.w3.org/2000/svg">
<path d="M10.6105 20.6105C9.12671 21.2249 7.52499 21.6777 5.81936 21.955C3.57851 22.3192 1.68082 20.4215 2.04504 18.1806C2.32228 16.475 2.77511 14.8733 3.38952 13.3895M10.6105 20.6105C15.2255 18.6995 18.6995 15.2255 20.6105 10.6105M10.6105 20.6105L7 17M20.6105 10.6105C21.2249 9.12671 21.6777 7.52499 21.955 5.81936C22.3192 3.57851 20.4215 1.68082 18.1806 2.04504C16.475 2.32228 14.8733 2.77511 13.3895 3.38952M20.6105 10.6105L17 7M13.3895 3.38952C8.77452 5.3005 5.3005 8.77452 3.38952 13.3895M13.3895 3.38952L17 7M3.38952 13.3895L7 17M7 17L10.125 13.875M17 7L13.875 10.125M10.125 13.875L8.25 12M10.125 13.875L12 15.75M10.125 13.875L13.875 10.125M13.875 10.125L12 8.25M13.875 10.125L15.75 12" stroke="black" stroke-width="2" stroke-linecap="round" stroke-linejoin="round"/>
</svg>
