<svg width="24" height="24" viewBox="0 0 24 24" fill="none" xmlns="http://www.w3.org/2000/svg">
<path d="M12 16V13H20.0495C20.5593 13 20.9935 12.6162 20.9994 12.1065C20.9998 12.071 21 12.0355 21 12C21 7.02944 16.9706 3 12 3C7.02944 3 3 7.02944 3 12C3 14.9608 4.42973 17.5877 6.63646 19.2279C7.40596 19.7999 8.37314 20 9.33192 20H10.5C11.3284 20 12 19.3284 12 18.5L12 16ZM12 16H19M12 16C12 16.9107 12.2435 17.7646 12.6689 18.5M19 21H17C15.1493 21 13.5334 19.9945 12.6689 18.5M19 18.5H12.6689" stroke="black" stroke-width="2" stroke-linecap="round" stroke-linejoin="round"/>
</svg>
