<svg width="24" height="24" viewBox="0 0 24 24" fill="none" xmlns="http://www.w3.org/2000/svg">
<path d="M2 20V18.5C2 17.9477 2.44772 17.5 3 17.5H4.25M6.5 20V18.5C6.5 17.9477 6.05228 17.5 5.5 17.5H4.25M4.25 17.5V15.5C4.25 14.9477 4.69772 14.5 5.25 14.5H12M17.5 20V18.5C17.5 17.9477 17.9477 17.5 18.5 17.5H19.75M22 20V18.5C22 17.9477 21.5523 17.5 21 17.5H19.75M19.75 17.5V15.5C19.75 14.9477 19.3023 14.5 18.75 14.5H12M12 14.5V10.5M12 10.5H17C18.1046 10.5 19 9.60457 19 8.5V5C19 3.89543 18.1046 3 17 3H7C5.89543 3 5 3.89543 5 5V8.5C5 9.60457 5.89543 10.5 7 10.5H12Z" stroke="black" stroke-width="2" stroke-linecap="round" stroke-linejoin="round"/>
</svg>
