<svg width="24" height="24" viewBox="0 0 24 24" fill="none" xmlns="http://www.w3.org/2000/svg">
<path d="M2 20V18.5C2 17.9477 2.44772 17.5 3 17.5H4.25M6.5 20V18.5C6.5 17.9477 6.05228 17.5 5.5 17.5H4.25M4.25 17.5V15.5C4.25 14.9477 4.69772 14.5 5.25 14.5H12M17.5 20V18.5C17.5 17.9477 17.9477 17.5 18.5 17.5H19.75M22 20V18.5C22 17.9477 21.5523 17.5 21 17.5H19.75M19.75 17.5V15.5C19.75 14.9477 19.3023 14.5 18.75 14.5H12M12 14.5V13.5M11.535 3.30815C11.7058 2.89728 12.2878 2.89728 12.4587 3.30815L13.2484 5.20712C13.32 5.37926 13.4813 5.4973 13.667 5.51341L15.5423 5.676C15.9717 5.71324 16.1561 6.24001 15.8437 6.53702L14.4191 7.89127C14.2899 8.01412 14.2358 8.1965 14.2772 8.36995L14.7579 10.3853C14.8611 10.8182 14.3903 11.1603 14.0106 10.9284L12.2575 9.85747C12.0975 9.75968 11.8962 9.75968 11.7361 9.85747L9.98306 10.9284C9.60335 11.1603 9.13254 10.8182 9.23577 10.3853L9.7166 8.36932C9.75789 8.1962 9.70411 8.01418 9.57536 7.89131L8.15559 6.53634C7.84412 6.23908 8.02867 5.71331 8.45758 5.67601L10.3267 5.51347C10.5124 5.49733 10.6737 5.37929 10.7452 5.2072L11.535 3.30815Z" stroke="black" stroke-width="2" stroke-linecap="round" stroke-linejoin="round"/>
</svg>
