<svg width="24" height="24" viewBox="0 0 24 24" fill="none" xmlns="http://www.w3.org/2000/svg">
<path d="M8.5 11.5V10.5C8.5 10.2239 8.72386 10 9 10H10M12 19.5V19.5C12 20.3284 12.6716 21 13.5 21V21C14.3284 21 15 20.3284 15 19.5V19.5C15 18.6716 14.3284 18 13.5 18V18C12.6716 18 12 18.6716 12 19.5V19.5ZM12 19.5H9C5.68629 19.5 3 16.8137 3 13.5V3M8.98146 16.5H9.46138C10.3907 16.5 11.2263 15.9342 11.5714 15.0714V15.0714C11.8303 14.4243 12.457 14 13.154 14H13.846C14.543 14 15.1697 14.4243 15.4286 15.0714V15.0714C15.7737 15.9342 16.6093 16.5 17.5386 16.5H18.0185C19.6652 16.5 21 15.1652 21 13.5185V10.5C21 8.84315 19.6569 7.5 18 7.5H9C7.34315 7.5 6 8.84315 6 10.5V13.5185C6 15.1652 7.33484 16.5 8.98146 16.5Z" stroke="black" stroke-width="2" stroke-linecap="round" stroke-linejoin="round"/>
</svg>
