<svg width="24" height="24" viewBox="0 0 24 24" fill="none" xmlns="http://www.w3.org/2000/svg">
<path d="M8.5 11.5V10.5C8.5 10.2239 8.72386 10 9 10H10M12 19.5V19.5C12 20.3284 12.6716 21 13.5 21V21C14.3284 21 15 20.3284 15 19.5V19.5M12 19.5V19.5C12 18.6716 12.6716 18 13.5 18V18M12 19.5H9C5.68629 19.5 3 16.8137 3 13.5V6.65685C3 5.59599 3.42143 4.57857 4.17157 3.82843L5 3M13.5 18V18C14.3284 18 15 18.6716 15 19.5V19.5M13.5 18V14M13.5 14H13.7194C14.5288 14 15.2944 14.3679 15.8 15L15.9532 15.1915C16.6148 16.0186 17.6166 16.5 18.6757 16.5V16.5C19.9594 16.5 21 15.4594 21 14.1757V10.5C21 8.84315 19.6569 7.5 18 7.5H9C7.34315 7.5 6 8.84315 6 10.5V14.1757C6 15.4594 7.04063 16.5 8.32431 16.5V16.5C9.38345 16.5 10.3852 16.0186 11.0468 15.1915L11.2 15C11.7056 14.3679 12.4712 14 13.2806 14H13.5ZM15 19.5H16.5" stroke="black" stroke-width="2" stroke-linecap="round" stroke-linejoin="round"/>
</svg>
