<svg width="24" height="24" viewBox="0 0 24 24" fill="none" xmlns="http://www.w3.org/2000/svg">
<path d="M6.5 6L5 7M18 11.5C18 12.3284 18.6716 13 19.5 13C20.3284 13 21 12.3284 21 11.5C21 10.6716 20.3284 10 19.5 10C18.6716 10 18 10.6716 18 11.5ZM13.7903 15.5484L14.2453 15.2884C15.452 14.5989 16.9902 15.103 17.5547 16.3731V16.3731C18.0781 17.5506 17.5542 18.9299 16.3811 19.4631L16.0115 19.6311C14.2995 20.4093 12.2762 19.7696 11.3227 18.1487L3.61106 5.03881C3.54809 4.93175 3.5166 4.87823 3.49516 4.8313C3.28774 4.37736 3.44676 3.83999 3.8678 3.57204C3.91134 3.54433 3.96688 3.51656 4.07797 3.46102V3.46102C4.1745 3.41275 4.22277 3.38862 4.26628 3.37172C4.68377 3.20962 5.15813 3.34487 5.42737 3.70276C5.45543 3.74007 5.48371 3.78603 5.54027 3.87794L12.523 15.2248C12.7889 15.657 13.3497 15.8002 13.7903 15.5484Z" stroke="black" stroke-width="2" stroke-linecap="round"/>
</svg>
