<svg width="24" height="24" viewBox="0 0 24 24" fill="none" xmlns="http://www.w3.org/2000/svg">
<path d="M12 13.1112L5.56966 3.8229C5.24279 3.35075 4.61849 3.19081 4.10487 3.44762C3.50722 3.74645 3.28752 4.48885 3.62631 5.06478L9.91386 15.7536M12 13.1112L18.4303 3.8229C18.7572 3.35075 19.3815 3.19081 19.8951 3.44762C20.4928 3.74645 20.7125 4.48885 20.3737 5.06478L14.0861 15.7536M12 13.1112L10.5965 15.1385C10.4171 15.3975 10.1822 15.6064 9.91386 15.7536M9.91386 15.7536C9.62322 15.913 9.2933 16.0001 8.95209 16.0001H6.33333C4.49238 16.0001 3 17.4924 3 19.3334C3 20.2539 3.74619 21.0001 4.66667 21.0001H7.56832C9.27319 21.0001 10.876 20.2766 12 19.045M14.0861 15.7536L12.7399 18.0422C12.5263 18.4053 12.2778 18.7407 12 19.045M14.0861 15.7536C14.3768 15.913 14.7067 16.0001 15.0479 16.0001H17.6667C19.5076 16.0001 21 17.4924 21 19.3334C21 20.2539 20.2538 21.0001 19.3333 21.0001H16.4317C14.7268 21.0001 13.124 20.2766 12 19.045" stroke="black" stroke-width="2" stroke-linecap="round" stroke-linejoin="round"/>
</svg>
