<svg width="24" height="24" viewBox="0 0 24 24" fill="none" xmlns="http://www.w3.org/2000/svg">
<path d="M2 19H6M3 9V7C3 5.89543 3.89543 5 5 5H9C10.1046 5 11 5.89543 11 7V8.73496C11 9.50753 11.445 10.211 12.143 10.5421L14.7308 11.7692M3 9V14C3 15.1046 3.89543 16 5 16H6M3 9H10.5M14.7308 11.7692L17.2682 12.5007C18.2938 12.7964 19 13.735 19 14.8023V14.8023C19 15.4638 18.4638 16 17.8023 16H15M14.7308 11.7692L13.8654 12.6346L13.4327 13.0673M10.9327 11.5676L11.3654 11.1349L11.7981 10.7022L12.0144 10.4859M22 17L20.5115 17.9923C19.5259 18.6494 18.3679 19 17.1833 19H15M6 16V19M6 16H15M6 19H15M15 16V19" stroke="black" stroke-width="2" stroke-linecap="round" stroke-linejoin="round"/>
</svg>
