<svg width="24" height="24" viewBox="0 0 24 24" fill="none" xmlns="http://www.w3.org/2000/svg">
<path d="M3 9V7C3 5.89543 3.89543 5 5 5H9C10.1046 5 11 5.89543 11 7V8.51194C11 9.39516 11.5793 10.1738 12.4253 10.4276L15.2308 11.2692M3 9V15C3 15.5523 3.44772 16 4 16V16M3 9H10.5M13.5 13L15.2308 11.2692M15.2308 11.2692L19.2814 12.4844C20.3015 12.7904 21 13.7293 21 14.7942V15C21 15.5523 20.5523 16 20 16V16M10.9327 11.5676L11.3654 11.1349L11.7981 10.7022L12.0144 10.4859L12.1226 10.3777M4 16V18C4 18.5523 4.44772 19 5 19H19C19.5523 19 20 18.5523 20 18V16M4 16H20" stroke="black" stroke-width="2" stroke-linecap="round" stroke-linejoin="round"/>
</svg>
