<svg width="24" height="24" viewBox="0 0 24 24" fill="none" xmlns="http://www.w3.org/2000/svg">
<path d="M15.0285 8.68701C14.1121 8.24669 13.0851 8 12.0005 8C10.9159 8 9.88862 8.24669 8.97226 8.68701M15.0285 8.68701C15.8955 9.1036 16.6634 9.69351 17.2873 10.4118M15.0285 8.68701C15.1483 8.52806 15.2832 8.32578 15.463 8.05613L16.6249 6.31319C17.0898 5.6159 16.8383 4.66896 16.0887 4.29418C15.7018 4.10072 15.2752 4 14.8426 4H9.1582C8.72561 4 8.29894 4.10072 7.91202 4.29418C7.16245 4.66896 6.91098 5.6159 7.37584 6.31319L8.5378 8.05613C8.71756 8.32578 8.85242 8.52806 8.97226 8.68701M17.2873 10.4118C18.3545 11.6405 19.0005 13.2448 19.0005 15C19.0005 18.866 15.8665 22 12.0005 22C8.13451 22 5.0005 18.866 5.0005 15C5.0005 13.2448 5.64626 11.6405 6.71347 10.4118M17.2873 10.4118C17.3533 10.2941 17.4253 10.1502 17.5145 9.97183L18.7955 7.40983C19.515 5.9707 19.233 4.23259 18.0953 3.09486C17.3942 2.39383 16.4434 2 15.452 2H8.54876C7.55735 2 6.60654 2.39383 5.90551 3.09486C4.76779 4.23259 4.48573 5.9707 5.20529 7.40983L6.4863 9.97183C6.57548 10.1502 6.64744 10.2941 6.71347 10.4118M8.97226 8.68701C8.10531 9.1036 7.3374 9.69351 6.71347 10.4118M11.8054 11H12.1956C12.7926 11 13.0911 11 13.3711 11.0836C13.4315 11.1016 13.4909 11.1225 13.5493 11.1461C13.8202 11.2557 14.0533 11.4422 14.5195 11.8152L14.6044 11.8831C15.2378 12.3898 15.5545 12.6432 15.7453 12.9836C15.7861 13.0566 15.8224 13.132 15.8539 13.2096C16.0005 13.5711 16.0005 13.9767 16.0005 14.7879V15.2121C16.0005 16.0233 16.0005 16.4289 15.8539 16.7904C15.8224 16.868 15.7861 16.9434 15.7453 17.0164C15.5545 17.3568 15.2378 17.6102 14.6044 18.1169L14.5195 18.1848C14.0533 18.5578 13.8202 18.7443 13.5493 18.8539C13.4909 18.8775 13.4315 18.8984 13.3711 18.9164C13.0911 19 12.7926 19 12.1956 19H11.8054C11.2084 19 10.9099 19 10.6299 18.9164C10.5695 18.8984 10.5101 18.8775 10.4517 18.8539C10.1808 18.7443 9.94774 18.5578 9.48154 18.1848L9.39664 18.1169C8.76319 17.6102 8.44646 17.3568 8.25574 17.0164C8.21485 16.9434 8.17857 16.868 8.14713 16.7904C8.0005 16.4289 8.0005 16.0233 8.0005 15.2121V14.7879C8.0005 13.9767 8.0005 13.5711 8.14713 13.2096C8.17857 13.132 8.21485 13.0566 8.25574 12.9836C8.44646 12.6432 8.76319 12.3899 9.39664 11.8831L9.48154 11.8152C9.94774 11.4422 10.1808 11.2557 10.4517 11.1461C10.5101 11.1225 10.5695 11.1016 10.6299 11.0836C10.9099 11 11.2084 11 11.8054 11Z" stroke="black" stroke-width="2" stroke-linecap="round"/>
</svg>
