<svg width="24" height="24" viewBox="0 0 24 24" fill="none" xmlns="http://www.w3.org/2000/svg">
<path d="M7.2976 2H7.10982C6.37803 2 5.70535 2.37904 5.33877 2.98841C5.31581 3.02657 5.29405 3.06564 5.27356 3.10557L4.21674 5.16463C3.94499 5.6941 3.92797 6.31364 4.17026 6.85651L8.9205 17.5M7.2976 2H16.7024M7.2976 2C6.58774 2 6.09215 2.68509 6.3309 3.33634L7.08604 5.39615M16.7024 2H16.8902C17.622 2 18.2948 2.3791 18.6613 2.98855C18.6834 3.02529 18.7044 3.06288 18.7242 3.10126L19.7833 5.16463C20.055 5.6941 20.072 6.31364 19.8297 6.85651L15.0795 17.5M16.7024 2C17.4122 2 17.9078 2.68509 17.6691 3.33634L16.9139 5.39615M10.9735 16L7.08604 5.39615M7.08604 5.39615H16.9139M16.9139 5.39615L13.0265 16M15.0795 19C15.0795 20.6569 13.7008 22 12 22C10.2992 22 8.9205 20.6569 8.9205 19C8.9205 17.3431 10.2992 16 12 16C13.7008 16 15.0795 17.3431 15.0795 19Z" stroke="black" stroke-width="2" stroke-linecap="round" stroke-linejoin="round"/>
</svg>
