<svg width="24" height="24" viewBox="0 0 24 24" fill="none" xmlns="http://www.w3.org/2000/svg">
<path d="M20.0001 9L16.1523 15.7335M16.1523 15.7335C16.1043 15.8175 15.9768 15.7911 15.9661 15.6949L15.0001 6.99999M16.1523 15.7335L13.1429 21M4 9L7.84771 15.7335M7.84771 15.7335C7.89574 15.8175 8.02323 15.7911 8.03392 15.6949L9.00012 6.99999M7.84771 15.7335L10.8572 21M5.8551 9.03477C9.27296 4.80339 14.727 4.80339 18.1449 9.03477C18.361 9.30225 18.724 9.41084 19.0434 9.28366L20.5037 8.70235C20.7723 8.59541 20.8947 8.28112 20.7562 8.02728C17.1006 1.32423 6.89938 1.32425 3.24377 8.02728C3.10533 8.28113 3.22768 8.59542 3.49632 8.70236L4.95656 9.28367C5.27602 9.41084 5.63905 9.30225 5.8551 9.03477Z" stroke="black" stroke-width="2" stroke-linecap="round" stroke-linejoin="round"/>
</svg>
