<svg width="24" height="24" viewBox="0 0 24 24" fill="none" xmlns="http://www.w3.org/2000/svg">
<path d="M7.5 14.3988C4.80989 15.7164 3 18.1792 3 21H7.5M7.5 14.3988C7.74572 14.2784 7.99879 14.1676 8.2585 14.067C8.64393 13.9176 9.08553 14.033 9.40828 14.2657C10.1064 14.769 11.0113 15.0728 12 15.0728M7.5 14.3988V21M16.5 14.3988C16.2543 14.2784 16.0012 14.1676 15.7415 14.067C15.3561 13.9176 14.9145 14.033 14.5917 14.2657C13.8936 14.769 12.9887 15.0728 12 15.0728M16.5 14.3988C19.1901 15.7164 21 18.1792 21 21H16.5M16.5 14.3988V21M12 15.0728V21M12 21H7.5M12 21H16.5M16 7C16 9.20914 14.2091 11 12 11C9.79086 11 8 9.20914 8 7C8 4.79086 9.79086 3 12 3C14.2091 3 16 4.79086 16 7Z" stroke="black" stroke-width="2" stroke-linecap="round" stroke-linejoin="round"/>
</svg>
