<svg width="24" height="24" viewBox="0 0 24 24" fill="none" xmlns="http://www.w3.org/2000/svg">
<path d="M12 18.4722C13.0615 19.4223 14.4633 20 16 20C19.3137 20 22 17.3137 22 14C22 10.6863 19.3137 8 16 8M12 18.4722C13.2275 17.3736 14 15.777 14 14C14 12.223 13.2275 10.6264 12 9.52779M12 18.4722C10.9385 19.4223 9.53671 20 8 20C4.68629 20 2 17.3137 2 14C2 10.6863 4.68629 8 8 8M16 8V4M16 8C15.6593 8 15.3252 8.0284 15 8.08296M12 9.52779C10.7725 10.6264 10 12.223 10 14C10 14.7013 10.1203 15.3744 10.3414 16M12 9.52779C10.9385 8.57771 9.53671 8 8 8M8 8V4" stroke="black" stroke-width="2" stroke-linecap="round" stroke-linejoin="round"/>
</svg>
