<svg width="24" height="24" viewBox="0 0 24 24" fill="none" xmlns="http://www.w3.org/2000/svg">
<path d="M3 7V5C3 3.89543 3.89543 3 5 3H9C10.1046 3 11 3.89543 11 5V6.51194C11 7.39516 11.5793 8.1738 12.4253 8.42759L15.2308 9.26923M3 7V13C3 14.1046 3.89543 15 5 15H19.3923C20.2802 15 21 14.2802 21 13.3923V13.3923C21 11.9724 20.0686 10.7206 18.7086 10.3126L15.2308 9.26923M3 7H10.5M13.5 11L15.2308 9.26923M10.9327 9.56761L11.3654 9.13492L11.7981 8.70222L12.0144 8.48588L12.1226 8.3777M18.5 18V18C19.3284 18 20 18.6716 20 19.5V19.5C20 20.3284 19.3284 21 18.5 21V21C17.6716 21 17 20.3284 17 19.5V19.5C17 18.6716 17.6716 18 18.5 18ZM12 18V18C12.8284 18 13.5 18.6716 13.5 19.5V19.5C13.5 20.3284 12.8284 21 12 21V21C11.1716 21 10.5 20.3284 10.5 19.5V19.5C10.5 18.6716 11.1716 18 12 18ZM5.5 18V18C6.32843 18 7 18.6716 7 19.5V19.5C7 20.3284 6.32843 21 5.5 21V21C4.67157 21 4 20.3284 4 19.5V19.5C4 18.6716 4.67157 18 5.5 18Z" stroke="black" stroke-width="2" stroke-linecap="round" stroke-linejoin="round"/>
</svg>
