<svg width="24" height="24" viewBox="0 0 24 24" fill="none" xmlns="http://www.w3.org/2000/svg">
<path d="M3 16V9M3 16V18C3 18.5523 3.44772 19 4 19H20C20.5523 19 21 18.5523 21 18V16M3 16H21M21 16V16C21 14.2336 19.8413 12.6524 18.1494 12.1448L15.2308 11.2692M3 9V7C3 5.89543 3.89543 5 5 5H9C10.1046 5 11 5.89543 11 7V8.51194C11 9.39516 11.5793 10.1738 12.4253 10.4276L15.2308 11.2692M3 9H10.5M13.5 13L15.2308 11.2692M10.9327 11.5676L11.3654 11.1349L11.7981 10.7022L12.0144 10.4859L12.1226 10.3777" stroke="black" stroke-width="2" stroke-linecap="round" stroke-linejoin="round"/>
</svg>
