<svg width="24" height="24" viewBox="0 0 24 24" fill="none" xmlns="http://www.w3.org/2000/svg">
<path d="M3 6V19C3 20.1046 3.89543 21 5 21H8.5C9.60457 21 11 20.1046 11 19M3 6H11M3 6C3 4.34315 4.34315 3 6 3H16C17.6569 3 19 4.34315 19 6M19 6H11M19 6L20.7608 14.8039C20.8845 15.4227 20.4112 16 19.7802 16H19M11 6V19M11 6L12.6784 14.3922C12.8654 15.3271 13.6862 16 14.6396 16H15M11 19C11 20.1046 11.8954 21 13 21H17C18.1046 21 19 20.1046 19 19V16M19 16H15M7 9V18M15 18V16M17.7225 12.1125L17.3108 10.0542C17.1301 9.15051 16.3366 8.5 15.415 8.5V8.5C14.683 8.5 14.1339 9.16971 14.2775 9.88753L14.6892 11.9458C14.8699 12.8495 15.6634 13.5 16.585 13.5V13.5C17.317 13.5 17.8661 12.8303 17.7225 12.1125Z" stroke="black" stroke-width="2" stroke-linecap="round" stroke-linejoin="round"/>
</svg>
