<svg width="24" height="24" viewBox="0 0 24 24" fill="none" xmlns="http://www.w3.org/2000/svg">
<path d="M2 9L3.15522 9.5778C3.71077 9.85567 4.32339 10.0003 4.94455 10.0003H19.0554C19.6766 10.0003 20.2892 9.85567 20.8448 9.5778L22 9M18 15.0003V15.0003C18.5523 15.0003 19 14.5526 19 14.0003V14.0003C19 13.448 18.5523 13.0003 18 13.0003V13.0003C17.4477 13.0003 17 13.448 17 14.0003V14.0003C17 14.5526 17.4477 15.0003 18 15.0003ZM6 15.0003V15.0003C6.55228 15.0003 7 14.5526 7 14.0003V14.0003C7 13.448 6.55228 13.0003 6 13.0003V13.0003C5.44772 13.0003 5 13.448 5 14.0003V14.0003C5 14.5526 5.44772 15.0003 6 15.0003Z" stroke="black" stroke-width="2" stroke-linecap="round" stroke-linejoin="round"/>
</svg>
