<svg width="24" height="24" viewBox="0 0 24 24" fill="none" xmlns="http://www.w3.org/2000/svg">
<path d="M19.6086 8.79489L20.1436 8.25314C21.1555 6.93618 21.4084 4.92532 20.1436 3.79354C18.1199 1.90901 17.108 3.91989 16.6021 4.32207L4.45976 16.3369C3.11496 17.5841 2.16732 19.5021 4.08021 20.6225C4.6331 20.9463 5.2945 21.0214 5.93461 20.9952C7.50055 20.9312 7.9967 20.675 8.59786 20.0471M19.6086 8.79489L18.5418 9.87501M19.6086 8.79489C19.8308 8.80743 20.0023 9.01711 19.9502 9.25092C19.8344 9.77116 19.5166 10.0892 18.9967 10.2051C18.7672 10.2562 18.561 10.0916 18.5418 9.87501M19.6086 8.79489C19.5745 8.79297 19.5392 8.79569 19.5033 8.80369C19.2434 8.86162 19.0339 8.97011 18.875 9.12913M18.5418 9.87501L10.025 18.4986C9.91204 18.6108 9.80696 18.7184 9.70862 18.8214M18.5418 9.87501C18.5385 9.83725 18.5409 9.7979 18.5498 9.75785C18.6077 9.49773 18.7161 9.28816 18.875 9.12913M9.70862 18.8214C9.21802 19.3353 8.8951 19.7367 8.59786 20.0471M9.70862 18.8214C9.87902 18.8805 9.99412 19.0605 9.95023 19.2577C9.83443 19.7779 9.51659 20.096 8.99671 20.2118C8.83114 20.2487 8.67769 20.1733 8.59786 20.0471M9.70862 18.8214C9.64594 18.7997 9.57578 18.7943 9.50329 18.8104C9.24335 18.8684 9.03392 18.9769 8.875 19.1359M8.59786 20.0471C8.54773 19.9679 8.52662 19.8686 8.54977 19.7646C8.60767 19.5045 8.71608 19.2949 8.875 19.1359M8.875 19.1359L6.25 16.5091M8.875 19.1359L9 19.261M18.875 9.12913L16.25 6.50236M18.875 9.12913L19 9.25422M5.49671 16.7095C6.01659 16.5936 6.33443 16.2755 6.45023 15.7553C6.51026 15.4856 6.27283 15.248 6.00329 15.3081C5.48341 15.4239 5.16557 15.742 5.04977 16.2622C4.98974 16.532 5.22717 16.7695 5.49671 16.7095ZM15.4967 6.70272C16.0166 6.58685 16.3344 6.2688 16.4502 5.74856C16.5103 5.47884 16.2728 5.24125 16.0033 5.30133C15.4834 5.4172 15.1656 5.73525 15.0498 6.25549C14.9897 6.52521 15.2272 6.7628 15.4967 6.70272Z" stroke="black" stroke-width="2" stroke-linecap="round"/>
</svg>
