<svg width="24" height="24" viewBox="0 0 24 24" fill="none" xmlns="http://www.w3.org/2000/svg">
<path fill-rule="evenodd" clip-rule="evenodd" d="M8.53033 5.46967C8.23744 5.17678 7.76256 5.17678 7.46967 5.46967L6.46967 6.46967C6.17678 6.76256 6.17678 7.23744 6.46967 7.53033C6.68069 7.74135 6.98617 7.80034 7.25 7.70729V8C7.25 9.75911 8.20663 11.2939 9.62446 12.1141C9.983 12.3215 10.4418 12.199 10.6492 11.8404C10.8566 11.4819 10.7341 11.0231 10.3755 10.8157C9.40216 10.2526 8.75 9.20201 8.75 8V7.70729C9.01383 7.80034 9.31931 7.74135 9.53033 7.53033C9.82322 7.23744 9.82322 6.76256 9.53033 6.46967L8.53033 5.46967ZM16.5303 5.46967C16.2374 5.17678 15.7626 5.17678 15.4697 5.46967L14.4697 6.46967C14.1768 6.76256 14.1768 7.23744 14.4697 7.53033C14.6807 7.74135 14.9862 7.80034 15.25 7.70729V8C15.25 9.20201 14.5978 10.2526 13.6245 10.8157C13.2659 11.0231 13.1434 11.4819 13.3508 11.8404C13.5582 12.199 14.017 12.3215 14.3755 12.1141C15.7934 11.2939 16.75 9.75911 16.75 8V7.70729C17.0138 7.80034 17.3193 7.74135 17.5303 7.53033C17.8232 7.23744 17.8232 6.76256 17.5303 6.46967L16.5303 5.46967ZM3 15V9H3.0461C3.29168 11.4158 4.50212 13.5463 6.28596 15H3ZM5 8.08791C5 11.9054 8.09465 15 11.9121 15H12H12.0879C15.9054 15 19 11.9054 19 8.08791C19 7.48707 19.4871 7 20.0879 7H21.9C22.5075 7 23 7.49249 23 8.1V15C23 16.1046 22.1046 17 21 17H12.0879H12H11.9121H3C1.89543 17 1 16.1046 1 15V8.1C1 7.49249 1.49249 7 2.1 7H3.91209C4.51293 7 5 7.48707 5 8.08791ZM21 15H17.714C19.4979 13.5463 20.7083 11.4158 20.9539 9H21V15Z" fill="black"/>
</svg>
