<svg width="24" height="24" viewBox="0 0 24 24" fill="none" xmlns="http://www.w3.org/2000/svg">
<path d="M19 3V4.34315C19 5.40401 18.5786 6.42143 17.8284 7.17157L7.17157 17.8284C6.42143 18.5786 5.40401 19 4.34315 19H3M21 11.5V11.5C21 10.6716 20.3284 10 19.5 10V10C18.6716 10 18 10.6716 18 11.5V11.5C18 12.3284 18.6716 13 19.5 13V13C20.3284 13 21 12.3284 21 11.5ZM11.5 21V21C12.3284 21 13 20.3284 13 19.5V19.5C13 18.6716 12.3284 18 11.5 18V18C10.6716 18 10 18.6716 10 19.5V19.5C10 20.3284 10.6716 21 11.5 21Z" stroke="black" stroke-width="2" stroke-linecap="round" stroke-linejoin="round"/>
</svg>
