<svg width="24" height="24" viewBox="0 0 24 24" fill="none" xmlns="http://www.w3.org/2000/svg">
<path d="M12 4H5C3.34315 4 2 5.34315 2 7V9M12 4H19C20.6569 4 22 5.34315 22 7V9M12 4V10M12 20H19C20.6569 20 22 18.6569 22 17V15M12 20H5C3.34315 20 2 18.6569 2 17V15M12 20V14M22 9H20C19.4477 9 19 9.44772 19 10V14C19 14.5523 19.4477 15 20 15H22M22 9V15M2 9H4C4.55228 9 5 9.44772 5 10V14C5 14.5523 4.55228 15 4 15H2M2 9V15M12 14V14C13.1046 14 14 13.1046 14 12V12C14 10.8954 13.1046 10 12 10V10C10.8954 10 10 10.8954 10 12V12C10 13.1046 10.8954 14 12 14Z" stroke="black" stroke-width="2" stroke-linecap="round" stroke-linejoin="round"/>
</svg>
