<svg width="24" height="24" viewBox="0 0 24 24" fill="none" xmlns="http://www.w3.org/2000/svg">
<path d="M22 8C22 7.16263 21.3567 6.38535 20.2571 5.74293M22 8C22 9.12048 20.8482 10.1334 18.9925 10.8595M22 8C22 11 21 12 21 13V17C21 18.2431 18.7319 19.3095 15.5 19.7647M20.2571 5.74293C18.4556 4.69052 15.4294 4 12 4M20.2571 5.74293L17.069 8.93103M12 4C8.57058 4 5.54437 4.69052 3.74293 5.74293M12 4V8M18.9925 10.8595C17.1894 11.5651 14.7217 12 12 12C9.27834 12 6.81063 11.5651 5.00754 10.8595M18.9925 10.8595C18.9122 10.113 18.1952 9.4377 17.069 8.93103M2 8C2 9.12048 3.15176 10.1333 5.00754 10.8595M2 8C2 7.16263 2.64327 6.38535 3.74293 5.74293M2 8C2 11 3 12 3 13V17C3 18.2431 5.26806 19.3095 8.5 19.7647M5.00754 10.8595C5.08783 10.113 5.80476 9.43769 6.93103 8.93103M3.74293 5.74293L6.93103 8.93103M8.5 19.7647C9.57589 19.9162 10.7586 20 12 20C13.2414 20 14.4241 19.9162 15.5 19.7647M8.5 19.7647V15.7647C9.57589 15.9162 10.7586 16 12 16C13.2414 16 14.4241 15.9162 15.5 15.7647V19.7647M17.069 8.93103C15.794 8.35746 13.9944 8 12 8M12 8C10.0056 8 8.20603 8.35745 6.93103 8.93103" stroke="black" stroke-width="2" stroke-linecap="round" stroke-linejoin="round"/>
</svg>
