<svg width="24" height="24" viewBox="0 0 24 24" fill="none" xmlns="http://www.w3.org/2000/svg">
<path d="M2 20L2.52632 19.4913C3.10767 18.9293 4.05023 18.9293 4.63158 19.4913C5.21293 20.0532 6.15549 20.0532 6.73684 19.4913C7.31819 18.9293 8.26075 18.9293 8.8421 19.4913C9.42346 20.0532 10.366 20.0532 10.9474 19.4913C11.5287 18.9293 12.4713 18.9293 13.0526 19.4913C13.634 20.0532 14.5765 20.0532 15.1579 19.4913C15.7392 18.9293 16.6818 18.9293 17.2632 19.4913C17.8445 20.0532 18.7871 20.0532 19.3684 19.4913C19.9498 18.9293 20.8923 18.9293 21.4737 19.4913L22 20M2 15.9302L2.52632 15.4214C3.10767 14.8595 4.05023 14.8595 4.63158 15.4214C5.21293 15.9834 6.15549 15.9834 6.73684 15.4214C7.31819 14.8595 8.26075 14.8595 8.8421 15.4214C9.42346 15.9834 10.366 15.9834 10.9474 15.4214C11.5287 14.8595 12.4713 14.8595 13.0526 15.4214C13.634 15.9834 14.5765 15.9834 15.1579 15.4214C15.7392 14.8595 16.6818 14.8595 17.2632 15.4214C17.8445 15.9834 18.7871 15.9834 19.3684 15.4214C19.9498 14.8595 20.8923 14.8595 21.4737 15.4214L22 15.9302M16 4H14.5488C11.2161 4 8.52199 6.71599 8.54898 10.0486L8.55263 10.5M17 9.75V9.75C17 10.9926 15.9926 12 14.75 12V12C13.5074 12 12.5 10.9926 12.5 9.75V9.75C12.5 8.50736 13.5074 7.5 14.75 7.5V7.5C15.9926 7.5 17 8.50736 17 9.75Z" stroke="black" stroke-width="2" stroke-linecap="round" stroke-linejoin="round"/>
</svg>
