<svg width="24" height="24" viewBox="0 0 24 24" fill="none" xmlns="http://www.w3.org/2000/svg">
<path d="M4.67602 7.29896L7.10584 4.86914C9.59803 2.37695 13.6387 2.37695 16.1309 4.86914C18.623 7.36133 18.623 11.402 16.1309 13.8942L13.701 16.324M4.67602 7.29896C2.94044 9.03454 7.10584 11.8115 4.67602 14.2413L3.28756 15.6297C2.90415 16.0132 2.90415 16.6348 3.28756 17.0182L3.98179 17.7124C4.36521 18.0959 4.98684 18.0959 5.37026 17.7124L6.75872 16.324C9.18853 13.8942 11.9655 18.0596 13.701 16.324M4.67602 7.29896L13.701 16.324M19 21C17.8954 21 17 20.1046 17 19C17 17.8954 17.8954 17 19 17C20.1046 17 21 17.8954 21 19C21 20.1046 20.1046 21 19 21Z" stroke="black" stroke-width="2" stroke-linecap="round" stroke-linejoin="round"/>
</svg>
