<svg width="24" height="24" viewBox="0 0 24 24" fill="none" xmlns="http://www.w3.org/2000/svg">
<path d="M3 13V9.5C3 5.91015 5.91015 3 9.5 3V3C13.0899 3 16 5.91015 16 9.5V13M3 13C3 15.5 8 14.5 8 18V20C8 20.5523 8.44772 21 9 21H10C10.5523 21 11 20.5523 11 20V18C11 14.5 16 15.5 16 13M3 13H16M19 21V21C20.1046 21 21 20.1046 21 19V19C21 17.8954 20.1046 17 19 17V17C17.8954 17 17 17.8954 17 19V19C17 20.1046 17.8954 21 19 21Z" stroke="black" stroke-width="2" stroke-linecap="round" stroke-linejoin="round"/>
</svg>
