<svg width="24" height="24" viewBox="0 0 24 24" fill="none" xmlns="http://www.w3.org/2000/svg">
<path d="M8.99988 11.9985L8.98682 17.9492M8.99988 11.9985C11.209 11.9985 13 9.76094 13 6.99951C13 4.23809 11.2091 1.99951 9 1.99951C6.79086 1.99951 5 4.23809 5 6.99951C5 9.76094 6.79074 11.9985 8.99988 11.9985ZM19 13.9995C19 15.1041 18.1046 15.9995 17 15.9995C15.8954 15.9995 15 15.1041 15 13.9995C15 12.8949 15.8954 11.9995 17 11.9995C18.1046 11.9995 19 12.8949 19 13.9995ZM7.98665 21.9977L9.98665 21.9984C10.2629 21.9985 10.4868 21.7746 10.4868 21.4984V18.4495C10.4868 18.1735 10.2631 17.9496 9.98698 17.9495L7.98698 17.9489C7.71077 17.9488 7.48682 18.1727 7.48682 18.4489V21.4977C7.48682 21.7738 7.71057 21.9976 7.98665 21.9977Z" stroke="black" stroke-width="2" stroke-linecap="round"/>
</svg>
