<svg width="24" height="24" viewBox="0 0 24 24" fill="none" xmlns="http://www.w3.org/2000/svg">
<path d="M22 7V7C22 5.34315 20.6569 4 19 4V4M22 7V17M22 7H19M22 17V17C22 18.6569 20.6569 20 19 20V20M22 17H19M2 7V7C2 5.34315 3.34315 4 5 4V4M2 7V17M2 7H5M2 17V17C2 18.6569 3.34315 20 5 20V20M2 17H5M5 7V12M5 7H9.5M5 7V4M5 17V12M5 17H9.5M5 17V20M19 7V12M19 7H14.5M19 7V4M19 17V12M19 17H14.5M19 17V20M19 12H14.5M5 12H9.5M9.5 12V7M9.5 12V17M9.5 7H14.5M9.5 17H14.5M14.5 12V7M14.5 12V17M5 4H12H19M5 20H12H19" stroke="black" stroke-width="2" stroke-linecap="round" stroke-linejoin="round"/>
</svg>
