<svg width="24" height="24" viewBox="0 0 24 24" fill="none" xmlns="http://www.w3.org/2000/svg">
<path d="M6.24576 22V21C6.24576 19.8954 7.10414 19 8.16299 19H11.9975M17.7491 22V21C17.7491 19.8954 16.8908 19 15.8319 19H11.9975M11.9975 19V15.9165M11.9975 15.9165V9M11.9975 15.9165L5.93621 15.9752C4.65509 15.9876 3.723 14.7109 4.07496 13.4258L5.31879 8.88449M11.9975 15.9165L18.0994 15.8575C19.3683 15.8452 20.2759 14.5736 19.9234 13.302L18.6958 8.87332M11.9975 9H5.76646C5.60476 9 5.45241 8.95824 5.31879 8.88449M11.9975 9H18.2284C18.3981 9 18.5575 8.95401 18.6958 8.87332M11.9975 6V2M11.9975 6H17.8993M11.9975 6H6.10882M11.9975 2H14.6284C15.9091 2 17.0354 2.88333 17.3911 4.16665L17.8993 6M11.9975 2H9.37363C8.08962 2 6.96118 2.88793 6.60844 4.17584L6.10882 6M18.6958 8.87332C18.9889 8.70227 19.1871 8.37527 19.1871 8V7C19.1871 6.44772 18.7579 6 18.2284 6H17.8993M6.10882 6H5.76646C5.23703 6 4.80784 6.44772 4.80784 7V8C4.80784 8.38361 5.0149 8.71676 5.31879 8.88449" stroke="black" stroke-width="2" stroke-linecap="round" stroke-linejoin="round"/>
</svg>
