<svg width="24" height="24" viewBox="0 0 24 24" fill="none" xmlns="http://www.w3.org/2000/svg">
<path d="M10.5873 21.901C5.73342 21.2146 2 17.0433 2 12C2 11.3087 2.07015 10.6337 2.20373 9.9819M10.5873 21.901C11.0488 21.9662 11.5205 22 12 22C13.5312 22 14.982 21.6559 16.2793 21.0407M10.5873 21.901C11.8373 20.6496 12.5346 19.1221 12.8013 17.5627M21.901 10.5873C21.9662 11.0488 22 11.5205 22 12C22 15.9917 19.6613 19.4371 16.2793 21.0407M21.901 10.5873C21.6149 8.56425 20.7235 6.73585 19.4158 5.29128M21.901 10.5873C20.1069 9.86918 18.1313 9.69726 16.343 9.97903M4.92893 4.92893C6.73858 3.11929 9.23858 2 12 2C14.9413 2 17.586 3.26987 19.4158 5.29128M4.92893 4.92893C3.57234 6.28553 2.6037 8.03009 2.20373 9.9819M4.92893 4.92893C5.28249 6.6967 6.16637 8.28769 7.40381 9.52513M12 12C12.7889 13.5777 13.1377 15.5955 12.8013 17.5627M12 12C10.2322 11.6464 8.64124 10.7626 7.40381 9.52513M12 12C13.0453 10.9547 14.6057 10.2528 16.343 9.97903M12.8013 17.5627C8.81802 17.3033 4.52513 14.5251 2.20373 9.9819M7.40381 9.52513C10.2322 5.98959 14.8284 4.92893 19.4158 5.29128M16.343 9.97903C17.6569 12.7071 18.0104 17.3033 16.2793 21.0407" stroke="black" stroke-width="2" stroke-linecap="round" stroke-linejoin="round"/>
</svg>
