<svg width="24" height="24" viewBox="0 0 24 24" fill="none" xmlns="http://www.w3.org/2000/svg">
<path d="M4.08324 12.9987L5.0694 12.8329V12.8329L4.08324 12.9987ZM10 15.9962C10.5523 15.9962 11 15.5485 11 14.9962C11 14.4439 10.5523 13.9962 10 13.9962V15.9962ZM8 11.9975C8 11.4452 7.55228 10.9975 7 10.9975C6.44772 10.9975 6 11.4452 6 11.9975H8ZM10 7.99873C9.44772 7.99873 9 8.44645 9 8.99873C9 9.55102 9.44772 9.99873 10 9.99873V7.99873ZM12 11.9975C12 12.5497 12.4477 12.9975 13 12.9975C13.5523 12.9975 14 12.5497 14 11.9975H12ZM21.6252 9.77883L21.0002 8.99827V8.99827L21.6252 9.77883ZM21.7804 9.62371L22.5607 10.2491L22.5607 10.2491L21.7804 9.62371ZM21.7804 6.3746L22.5607 5.74919L22.5607 5.74919L21.7804 6.3746ZM21.6252 6.21948L21.0002 7.00004V7.00004L21.6252 6.21948ZM3 14.9962C3 14.4978 3.476 13.9987 4.08324 13.9987V11.9987C2.48135 11.9987 1 13.2864 1 14.9962H3ZM4 15.9953C3.44732 15.9953 3 15.5476 3 14.9962H1C1 16.653 2.34354 17.9953 4 17.9953V15.9953ZM4.82531 15.5607C4.64342 15.8252 4.34155 15.9953 4 15.9953V17.9953C5.02746 17.9953 5.93396 17.4781 6.47316 16.6941L4.82531 15.5607ZM6.37411 15.4385C5.70293 14.7323 5.23744 13.8323 5.0694 12.8329L3.09709 13.1645C3.33321 14.5689 3.98714 15.8301 4.92437 16.8163L6.37411 15.4385ZM10 13.9962C8.89503 13.9962 8 13.1009 8 11.9975H6C6 14.2063 7.79126 15.9962 10 15.9962V13.9962ZM10 9.99873C11.105 9.99873 12 10.894 12 11.9975H14C14 9.78863 12.2087 7.99873 10 7.99873V9.99873ZM15 11.9975C15 14.7571 12.7618 16.9949 10 16.9949V18.9949C13.8656 18.9949 17 15.8625 17 11.9975H15ZM17.6973 10.9983H20.14V8.99831H17.6973V10.9983ZM20.14 10.9983C20.5197 10.9983 20.8908 10.9999 21.198 10.9642C21.5266 10.926 21.9072 10.8342 22.2503 10.5594L21.0002 8.99827C21.0692 8.94295 21.1109 8.96086 20.9672 8.97756C20.8022 8.99673 20.5678 8.99831 20.14 8.99831V10.9983ZM22.2503 10.5594C22.3649 10.4677 22.4689 10.3636 22.5607 10.2491L21.0001 8.9983L21.0002 8.99827L22.2503 10.5594ZM22.5607 10.2491C22.8357 9.906 22.9276 9.52544 22.9659 9.19685C23.0016 8.88965 23 8.51859 23 8.1391H21C21 8.56671 20.9984 8.80098 20.9792 8.96583C20.9626 9.10928 20.9447 9.06746 21.0001 8.99831L22.5607 10.2491ZM23 8.1391V7.85921H21V8.1391H23ZM23 7.85921C23 7.47972 23.0016 7.10866 22.9659 6.80146C22.9276 6.47287 22.8357 6.09231 22.5607 5.74919L21.0001 7C20.9447 6.93084 20.9626 6.88903 20.9792 7.03248C20.9984 7.19733 21 7.4316 21 7.85921H23ZM22.5607 5.74919C22.469 5.63469 22.3649 5.53064 22.2503 5.43892L21.0002 7.00004L21.0001 7.00001L22.5607 5.74919ZM22.2503 5.43892C21.9072 5.16412 21.5266 5.07229 21.198 5.03412C20.8908 4.99842 20.5197 5 20.14 5V7C20.5678 7 20.8022 7.00158 20.9672 7.02075C21.1109 7.03744 21.0692 7.05536 21.0002 7.00004L22.2503 5.43892ZM20.14 5H10V7H20.14V5ZM5 11.9975C5 9.23784 7.23818 7 10 7V5C6.13441 5 3 8.13247 3 11.9975H5ZM10 16.9949C8.57261 16.9949 7.28633 16.3984 6.37411 15.4385L4.92437 16.8163C6.19855 18.157 8.00225 18.9949 10 18.9949V16.9949ZM5.0694 12.8329C5.02383 12.5619 5 12.2828 5 11.9975H3C3 12.3944 3.03317 12.7844 3.09709 13.1646L5.0694 12.8329ZM17 11.9975C17 11.7237 17.1005 11.4447 17.2568 11.2491C17.407 11.0611 17.5626 10.9983 17.6973 10.9983V8.99831C16.8371 8.99831 16.144 9.43778 15.6942 10.0007C15.2506 10.556 15 11.2767 15 11.9975H17Z" fill="black"/>
</svg>
