<svg width="24" height="24" viewBox="0 0 24 24" fill="none" xmlns="http://www.w3.org/2000/svg">
<path fill-rule="evenodd" clip-rule="evenodd" d="M6.82093 5.51466C7.10462 5.00402 7.76375 4.84422 8.24979 5.16825L9.4453 5.96526C9.90483 6.27161 10.5257 6.14744 10.8321 5.68791C11.1384 5.22838 11.0142 4.60751 10.5547 4.30116L9.35919 3.50415C7.90106 2.53206 5.92368 3.01145 5.07262 4.54337L1.62921 10.7415L2.50337 11.2271L1.62921 10.7415C1.21655 11.4843 1 12.32 1 13.1697V14.9999V15.6332V17.9999C1 19.6568 2.34315 20.9999 4 20.9999H7.34315C8.66923 20.9999 9.941 20.4732 10.8787 19.5355L11.2929 19.1213C11.6834 18.7307 12.3166 18.7307 12.7071 19.1213L13.1213 19.5355C14.059 20.4732 15.3308 20.9999 16.6569 20.9999H20C21.6569 20.9999 23 19.6568 23 17.9999V15.6332V14.9999V13.1697C23 12.32 22.7834 11.4843 22.3708 10.7415L18.9274 4.54337C18.0763 3.01145 16.0989 2.53206 14.6408 3.50415L13.4453 4.30116C12.9858 4.60751 12.8616 5.22838 13.1679 5.68791C13.4743 6.14744 14.0952 6.27161 14.5547 5.96526L15.7502 5.16825C16.2363 4.84422 16.8954 5.00402 17.1791 5.51466L20.6225 11.7128C20.6936 11.8408 20.755 11.9735 20.8064 12.1096C20.5498 12.0381 20.2794 11.9999 20 11.9999H4C3.72062 11.9999 3.45016 12.0381 3.19356 12.1096C3.24498 11.9735 3.3064 11.8408 3.37753 11.7128L6.82093 5.51466ZM3 17.9999V15.6332V14.9999C3 14.4477 3.44772 13.9999 4 13.9999H20C20.5523 13.9999 21 14.4477 21 14.9999V15.6332V17.9999C21 18.5522 20.5523 18.9999 20 18.9999H16.6569C15.8612 18.9999 15.0981 18.6839 14.5355 18.1213L14.1213 17.707C12.9497 16.5355 11.0503 16.5355 9.87868 17.707L9.46447 18.1213C8.90186 18.6839 8.13879 18.9999 7.34315 18.9999H4C3.44772 18.9999 3 18.5522 3 17.9999ZM4 15.4999V17.4999C4 17.7761 4.22386 17.9999 4.5 17.9999H7.17157C7.70201 17.9999 8.21071 17.7892 8.58579 17.4142L10.1464 15.8535C10.4614 15.5385 10.2383 14.9999 9.79289 14.9999H4.5C4.22386 14.9999 4 15.2238 4 15.4999ZM20 15.4999V17.4999C20 17.7761 19.7761 17.9999 19.5 17.9999H16.8284C16.298 17.9999 15.7893 17.7892 15.4142 17.4142L13.8536 15.8535C13.5386 15.5385 13.7617 14.9999 14.2071 14.9999H19.5C19.7761 14.9999 20 15.2238 20 15.4999Z" fill="black"/>
</svg>
