<svg width="24" height="24" viewBox="0 0 24 24" fill="none" xmlns="http://www.w3.org/2000/svg">
<path fill-rule="evenodd" clip-rule="evenodd" d="M5 2C3.34315 2 2 3.34315 2 5V18V19C2 20.6569 3.34315 22 5 22H19C20.6569 22 22 20.6569 22 19V18V5C22 3.34315 20.6569 2 19 2H5ZM4 5C4 4.44772 4.44772 4 5 4H19C19.5523 4 20 4.44772 20 5V18V19C20 19.5523 19.5523 20 19 20H5C4.44772 20 4 19.5523 4 19V18V5ZM8 9C8 8.44772 7.55228 8 7 8C6.44772 8 6 8.44772 6 9V9.5C5.44772 9.5 5 9.94772 5 10.5C5 11.0523 5.44772 11.5 6 11.5V18C6 18.5523 6.44772 19 7 19C7.55228 19 8 18.5523 8 18V11.5C8.55228 11.5 9 11.0523 9 10.5C9 9.94772 8.55228 9.5 8 9.5V9ZM13 9C13 8.44772 12.5523 8 12 8C11.4477 8 11 8.44772 11 9V15.5C10.4477 15.5 10 15.9477 10 16.5C10 17.0523 10.4477 17.5 11 17.5V18C11 18.5523 11.4477 19 12 19C12.5523 19 13 18.5523 13 18V17.5C13.5523 17.5 14 17.0523 14 16.5C14 15.9477 13.5523 15.5 13 15.5V9ZM18 9C18 8.44772 17.5523 8 17 8C16.4477 8 16 8.44772 16 9V11C15.4477 11 15 11.4477 15 12C15 12.5523 15.4477 13 16 13V18C16 18.5523 16.4477 19 17 19C17.5523 19 18 18.5523 18 18V13C18.5523 13 19 12.5523 19 12C19 11.4477 18.5523 11 18 11V9ZM8 6C8 6.55228 7.55228 7 7 7C6.44772 7 6 6.55228 6 6C6 5.44772 6.44772 5 7 5C7.55228 5 8 5.44772 8 6ZM13 6C13 6.55228 12.5523 7 12 7C11.4477 7 11 6.55228 11 6C11 5.44772 11.4477 5 12 5C12.5523 5 13 5.44772 13 6ZM17 7C17.5523 7 18 6.55228 18 6C18 5.44772 17.5523 5 17 5C16.4477 5 16 5.44772 16 6C16 6.55228 16.4477 7 17 7Z" fill="black"/>
</svg>
