<svg width="24" height="24" viewBox="0 0 24 24" fill="none" xmlns="http://www.w3.org/2000/svg">
<path d="M22 17V6C22 4.89543 21.1046 4 20 4H4C2.89543 4 2 4.89543 2 6V17M22 17H2M22 17V18C22 19.1046 21.1046 20 20 20H4C2.89543 20 2 19.1046 2 18V17M6.5 7V8.5M6.5 14V8.5M6.5 8.5H7.5M6.5 8.5H5.5M11.5 7V12.5M11.5 12.5V14M11.5 12.5H12.5M11.5 12.5H10.5M18.5 13C18.5 12.4477 18.0523 12 17.5 12C16.9477 12 16.5 12.4477 16.5 13C16.5 13.5523 16.9477 14 17.5 14C18.0523 14 18.5 13.5523 18.5 13ZM18.5 8C18.5 7.44772 18.0523 7 17.5 7C16.9477 7 16.5 7.44772 16.5 8C16.5 8.55228 16.9477 9 17.5 9C18.0523 9 18.5 8.55228 18.5 8Z" stroke="black" stroke-width="2" stroke-linecap="round" stroke-linejoin="round"/>
</svg>
