<svg width="24" height="24" viewBox="0 0 24 24" fill="none" xmlns="http://www.w3.org/2000/svg">
<path fill-rule="evenodd" clip-rule="evenodd" d="M5 2C3.34315 2 2 3.34315 2 5V18V19C2 20.6569 3.34315 22 5 22H19C20.6569 22 22 20.6569 22 19V18V5C22 3.34315 20.6569 2 19 2H5ZM4 5C4 4.44772 4.44772 4 5 4H19C19.5523 4 20 4.44772 20 5V17H4V5ZM5 20C4.44772 20 4 19.5523 4 19H20C20 19.5523 19.5523 20 19 20H5ZM11 5C10.4477 5 10 5.44772 10 6C10 6.55228 10.4477 7 11 7H18C18.5523 7 19 6.55228 19 6C19 5.44772 18.5523 5 18 5H11ZM8 9C8 8.44772 7.55228 8 7 8C6.44772 8 6 8.44772 6 9V9.5C5.44772 9.5 5 9.94772 5 10.5C5 11.0523 5.44772 11.5 6 11.5V15C6 15.5523 6.44772 16 7 16C7.55228 16 8 15.5523 8 15V11.5C8.55228 11.5 9 11.0523 9 10.5C9 9.94772 8.55228 9.5 8 9.5V9ZM13 9C13 8.44772 12.5523 8 12 8C11.4477 8 11 8.44772 11 9V12.5C10.4477 12.5 10 12.9477 10 13.5C10 14.0523 10.4477 14.5 11 14.5V15C11 15.5523 11.4477 16 12 16C12.5523 16 13 15.5523 13 15V14.5C13.5523 14.5 14 14.0523 14 13.5C14 12.9477 13.5523 12.5 13 12.5V9ZM18 9C18 8.44772 17.5523 8 17 8C16.4477 8 16 8.44772 16 9V11C15.4477 11 15 11.4477 15 12C15 12.5523 15.4477 13 16 13V15C16 15.5523 16.4477 16 17 16C17.5523 16 18 15.5523 18 15V13C18.5523 13 19 12.5523 19 12C19 11.4477 18.5523 11 18 11V9ZM7 7C7.55228 7 8 6.55228 8 6C8 5.44772 7.55228 5 7 5C6.44772 5 6 5.44772 6 6C6 6.55228 6.44772 7 7 7Z" fill="black"/>
</svg>
