<svg width="24" height="24" viewBox="0 0 24 24" fill="none" xmlns="http://www.w3.org/2000/svg">
<path d="M17 7H18M17 7H12M17 7L16.5333 14M7 7H6M7 7H12M7 7L7.46667 14M12 7L12.693 4.22787C12.8805 3.47805 13.4832 2.90336 14.2411 2.75178L18 2M7.46667 14L7.87554 20.133C7.94558 21.1836 8.81818 22 9.87111 22H14.1289C15.1818 22 16.0544 21.1836 16.1245 20.133L16.5333 14M7.46667 14L8.77451 13.7115C9.39747 13.5741 10.048 13.6388 10.6317 13.8963L10.7891 13.9658C11.5605 14.3061 12.4395 14.3061 13.2109 13.9658L13.3683 13.8963C13.952 13.6388 14.6025 13.5741 15.2255 13.7115L16.5333 14" stroke="black" stroke-width="2" stroke-linecap="round" stroke-linejoin="round"/>
</svg>
