<svg width="24" height="24" viewBox="0 0 24 24" fill="none" xmlns="http://www.w3.org/2000/svg">
<path d="M16.5 8.5V15.5M22 12C22 17.5228 17.5228 22 12 22C10.4892 22 9.05672 21.665 7.77269 21.0652C5.64669 20.0721 3.92775 18.3531 2.9347 16.2271C2.33498 14.9431 2 13.5107 2 12C2 6.47715 6.47715 2 12 2C13.5107 2 14.9431 2.33498 16.2271 2.93471C18.3531 3.92775 20.0721 5.64669 21.0652 7.77269C21.665 9.05672 22 10.4892 22 12ZM12.9806 12.8682L8.99614 15.1451C8.32948 15.526 7.5 15.0446 7.5 14.2768V9.72318C7.5 8.95536 8.32948 8.47399 8.99614 8.85494L12.9806 11.1318C13.6524 11.5157 13.6524 12.4843 12.9806 12.8682Z" stroke="black" stroke-width="2" stroke-linecap="round" stroke-linejoin="round"/>
</svg>
