<svg width="24" height="24" viewBox="0 0 24 24" fill="none" xmlns="http://www.w3.org/2000/svg">
<path fill-rule="evenodd" clip-rule="evenodd" d="M3 12C3 7.02944 7.02944 3 12 3C13.3614 3 14.6497 3.30162 15.8039 3.84074C17.7173 4.73449 19.2654 6.28251 20.1592 8.19591C20.6983 9.35018 21 10.6385 21 12C21 16.9706 16.9706 21 12 21C10.6385 21 9.35018 20.6983 8.19592 20.1592C6.28251 19.2654 4.73448 17.7173 3.84074 15.8039C3.30162 14.6497 3 13.3614 3 12ZM12 1C5.92487 1 1 5.92487 1 12C1 13.6599 1.36833 15.2365 2.02867 16.6503C3.12102 18.9889 5.01087 20.8788 7.34947 21.9712C8.76326 22.6316 10.34 23 12 23C18.0751 23 23 18.0751 23 12C23 10.34 22.6316 8.76326 21.9712 7.34946C20.8788 5.01086 18.9889 3.12102 16.6503 2.02867C15.2365 1.36833 13.6599 1 12 1ZM14 11C13.4477 11 13 11.4477 13 12C13 12.5523 13.4477 13 14 13H18C18.5523 13 19 12.5523 19 12C19 11.4477 18.5523 11 18 11H14ZM5 11.1585C5 10.229 5.72754 9.47544 6.625 9.47544H7.48278C7.98733 9.47544 8.48494 9.35377 8.93622 9.12007L11.0297 8.03597C11.2457 7.92407 11.5 8.08681 11.5 8.33704V15.663C11.5 15.9132 11.2457 16.0759 11.0297 15.964L8.93622 14.8799C8.48494 14.6462 7.98733 14.5246 7.48278 14.5246H6.625C5.72754 14.5246 5 13.771 5 12.8415V11.1585Z" fill="black"/>
</svg>
