<svg width="24" height="24" viewBox="0 0 24 24" fill="none" xmlns="http://www.w3.org/2000/svg">
<path d="M7.5 8.5V15.5M2 12C2 17.5228 6.47715 22 12 22C13.5108 22 14.9433 21.665 16.2273 21.0652C18.3533 20.0721 20.0722 18.3531 21.0653 16.2271C21.665 14.9431 22 13.5107 22 12C22 6.47715 17.5228 2 12 2C10.4893 2 9.0569 2.33498 7.77293 2.93471C5.6469 3.92775 3.92792 5.64669 2.93482 7.77269C2.33502 9.05672 2 10.4892 2 12ZM11.0194 12.8682L15.0039 15.1451C15.6705 15.526 16.5 15.0446 16.5 14.2768V9.72318C16.5 8.95536 15.6705 8.47399 15.0039 8.85494L11.0194 11.1318C10.3476 11.5157 10.3476 12.4843 11.0194 12.8682Z" stroke="black" stroke-width="2" stroke-linecap="round" stroke-linejoin="round"/>
</svg>
