<svg width="24" height="24" viewBox="0 0 24 24" fill="none" xmlns="http://www.w3.org/2000/svg">
<path d="M5 19C4.69691 19 4.40433 18.9551 4.12854 18.8715M2 21L4.12854 18.8715M4.12854 18.8715L8.89097 14.109M4.12854 18.8715C2.89669 18.4981 2 17.3538 2 16V9C2 7.34315 3.34315 6 5 6H6.26393C7.02148 6 7.714 5.572 8.05279 4.89443L8.44721 4.10557C8.786 3.428 9.47852 3 10.2361 3H13.7639C14.5215 3 15.214 3.428 15.5528 4.10557L15.9472 4.89443C16.1881 5.37628 16.608 5.73191 17.1028 5.89716M8.89097 14.109L13.609 9.39097M8.89097 14.109C8.64114 13.6273 8.5 13.0801 8.5 12.5C8.5 10.567 10.067 9 12 9C12.5801 9 13.1273 9.14114 13.609 9.39097M13.609 9.39097L17.1028 5.89716M17.1028 5.89716L20 3M12 16C13.933 16 15.5 14.433 15.5 12.5M9 19H19C20.6569 19 22 17.6569 22 16V9C22 8.17157 21.6642 7.42157 21.1213 6.87868" stroke="black" stroke-width="2" stroke-linecap="round" stroke-linejoin="round"/>
</svg>
