<svg width="24" height="24" viewBox="0 0 24 24" fill="none" xmlns="http://www.w3.org/2000/svg">
<path d="M11 7H13M12 17V17C13.933 17 15.5 15.433 15.5 13.5V13.5C15.5 11.567 13.933 10 12 10V10C10.067 10 8.5 11.567 8.5 13.5V13.5C8.5 15.433 10.067 17 12 17ZM5 7H6.26393C7.02148 7 7.714 6.572 8.05279 5.89443L8.44721 5.10557C8.786 4.428 9.47852 4 10.2361 4H13.7639C14.5215 4 15.214 4.428 15.5528 5.10557L15.9472 5.89443C16.286 6.572 16.9785 7 17.7361 7H19C20.6569 7 22 8.34315 22 10V17C22 18.6569 20.6569 20 19 20H5C3.34315 20 2 18.6569 2 17V10C2 8.34315 3.34315 7 5 7Z" stroke="black" stroke-width="2" stroke-linecap="round" stroke-linejoin="round"/>
</svg>
