<svg width="24" height="24" viewBox="0 0 24 24" fill="none" xmlns="http://www.w3.org/2000/svg">
<path d="M6 6H10M18 5.5V5C18 3.89543 17.1046 3 16 3H5C3.89543 3 3 3.89543 3 5V17C3 18.1046 3.89543 19 5 19H6" stroke="black" stroke-width="2" stroke-linecap="round" stroke-linejoin="round"/>
<path d="M16.1235 11.018C16.9401 11.3994 17.6003 12.0596 17.9818 12.8762M11.018 16.1234C11.3994 16.94 12.0596 17.6003 12.8762 17.9818M21 14.5C21 18.0899 18.0899 21 14.5 21C13.518 21 12.5869 20.7822 11.7523 20.3924C10.3703 19.7469 9.25304 18.6295 8.60756 17.2476C8.21773 16.413 8 15.4819 8 14.5C8 10.9101 10.9101 8 14.5 8C15.4819 8 16.413 8.21774 17.2476 8.60756C18.6295 9.25304 19.7469 10.3703 20.3924 11.7522C20.7822 12.5869 21 13.518 21 14.5ZM15.25 14.5C15.25 14.9142 14.9142 15.25 14.5 15.25C14.3867 15.25 14.2792 15.2249 14.1829 15.1799C14.0235 15.1054 13.8946 14.9765 13.8201 14.817C13.7751 14.7207 13.75 14.6133 13.75 14.5C13.75 14.0858 14.0858 13.75 14.5 13.75C14.6133 13.75 14.7207 13.7751 14.817 13.8201C14.9765 13.8946 15.1054 14.0235 15.1799 14.1829C15.2249 14.2792 15.25 14.3867 15.25 14.5Z" stroke="black" stroke-width="2" stroke-linecap="round" stroke-linejoin="round"/>
</svg>
