<svg width="24" height="24" viewBox="0 0 24 24" fill="none" xmlns="http://www.w3.org/2000/svg">
<path d="M11 15H7C5.89543 15 5 14.1046 5 13V11C5 9.89543 5.89543 9 7 9H14C14.5523 9 15 9.44772 15 10V11L18.2764 9.3618C18.6088 9.19558 19 9.43733 19 9.80902V14.191C19 14.5627 18.6088 14.8044 18.2764 14.6382L15 13V14C15 14.5523 14.5523 15 14 15H11ZM11 15L7 22M11 15L15 22M8 12H12M15 4V4C15 2.89543 14.1046 2 13 2V2C11.8954 2 11 2.89543 11 4V4C11 5.10457 11.8954 6 13 6V6C14.1046 6 15 5.10457 15 4ZM8 4.5V4.5C8 3.67157 7.32843 3 6.5 3V3C5.67157 3 5 3.67157 5 4.5V4.5C5 5.32843 5.67157 6 6.5 6V6C7.32843 6 8 5.32843 8 4.5Z" stroke="black" stroke-width="2" stroke-linecap="round" stroke-linejoin="round"/>
</svg>
