<svg width="24" height="24" viewBox="0 0 24 24" fill="none" xmlns="http://www.w3.org/2000/svg">
<path d="M8 12H12M12 15H14C14.5523 15 15 14.5523 15 14V13L18.2764 14.6382C18.6088 14.8044 19 14.5627 19 14.191V9.80902C19 9.43733 18.6088 9.19558 18.2764 9.3618L15 11V10C15 9.44772 14.5523 9 14 9H7C5.89543 9 5 9.89543 5 11V13C5 14.1046 5.89543 15 7 15H8M12 15V22M12 15H8M8 15V22M6 22H14M15 4V4C15 2.89543 14.1046 2 13 2V2C11.8954 2 11 2.89543 11 4V4C11 5.10457 11.8954 6 13 6V6C14.1046 6 15 5.10457 15 4ZM8 4.5V4.5C8 3.67157 7.32843 3 6.5 3V3C5.67157 3 5 3.67157 5 4.5V4.5C5 5.32843 5.67157 6 6.5 6V6C7.32843 6 8 5.32843 8 4.5Z" stroke="black" stroke-width="2" stroke-linecap="round" stroke-linejoin="round"/>
</svg>
