<svg width="24" height="24" viewBox="0 0 24 24" fill="none" xmlns="http://www.w3.org/2000/svg">
<path d="M21 14.2833V19C21 20.1046 20.1046 21 19 21H5.45994C4.35537 21 3.45994 20.1046 3.45994 19V14.2833M21 14.2833V10.2833H19M21 14.2833H17M3.45994 14.2833V10.2833M3.45994 14.2833H5M3.45994 10.2833H7M3.45994 10.2833L3.04412 8.327C2.81446 7.24657 3.50416 6.18453 4.58459 5.95488L6.54088 5.53906L9.47533 4.91532M3.45994 10.2833L5.41623 9.86747L8.35068 9.24373M5 14.2833H8H11M5 14.2833L7 10.2833M11 14.2833H14H17M11 14.2833L13 10.2833M17 14.2833L19 10.2833M19 10.2833H16H13M13 10.2833H10H7M8.35068 9.24373L11.2851 8.62L14.2196 7.99626M8.35068 9.24373L9.47533 4.91532M14.2196 7.99626L17.154 7.37253L21 6.5L20.6508 4.58459C20.4211 3.50415 19.3591 2.81446 18.2787 3.04412L15.3442 3.66785M14.2196 7.99626L15.3442 3.66785M15.3442 3.66785L12.4098 4.29159L9.47533 4.91532" stroke="black" stroke-width="2" stroke-linecap="round" stroke-linejoin="round"/>
</svg>
