<svg width="24" height="24" viewBox="0 0 24 24" fill="none" xmlns="http://www.w3.org/2000/svg">
<path d="M14.5361 6.56075C15.8117 7.15653 16.8431 8.18786 17.439 9.46344M6.56074 14.5361C7.15653 15.8117 8.18787 16.8431 9.46345 17.439M22 12C22 17.5228 17.5228 22 12 22C10.4892 22 9.05672 21.665 7.77269 21.0652C5.64669 20.0721 3.92775 18.3531 2.9347 16.2271C2.33498 14.9431 2 13.5107 2 12C2 6.47715 6.47715 2 12 2C13.5107 2 14.9431 2.33498 16.2271 2.93471C18.3531 3.92775 20.0721 5.64669 21.0652 7.77269C21.665 9.05672 22 10.4892 22 12ZM14 12C14 13.1046 13.1046 14 12 14C11.6978 14 11.4113 13.933 11.1545 13.813C10.7293 13.6144 10.3855 13.2706 10.1869 12.8454C10.067 12.5886 10 12.3021 10 12C10 10.8954 10.8954 10 12 10C12.3021 10 12.5886 10.067 12.8454 10.1869C13.2706 10.3855 13.6144 10.7293 13.813 11.1545C13.933 11.4113 14 11.6978 14 12Z" stroke="black" stroke-width="2" stroke-linecap="round" stroke-linejoin="round"/>
</svg>
