<svg width="24" height="24" viewBox="0 0 24 24" fill="none" xmlns="http://www.w3.org/2000/svg">
<path d="M16.2271 2.93471C14.9431 2.33498 13.5107 2 12 2C6.47715 2 2 6.47715 2 12C2 13.5107 2.33498 14.9431 2.9347 16.2271M16.2271 2.93471C18.3531 3.92775 20.0721 5.64669 21.0652 7.77269M16.2271 2.93471L13.268 9.28037M21.0652 7.77269C21.665 9.05672 22 10.4892 22 12C22 17.5228 17.5228 22 12 22C10.4892 22 9.05672 21.665 7.77269 21.0652M21.0652 7.77269L14.7195 10.7317M2.9347 16.2271C3.92775 18.3531 5.64669 20.0721 7.77269 21.0652M2.9347 16.2271L9.28037 13.268M7.77269 21.0652L10.7317 14.7195M13.268 9.28037C12.8829 9.10048 12.4532 9 12 9C10.3431 9 9 10.3431 9 12C9 12.4532 9.10048 12.8829 9.28037 13.268M13.268 9.28037C13.9059 9.57827 14.4216 10.0939 14.7195 10.7317M14.7195 10.7317C14.8995 11.117 15 11.5467 15 12C15 13.6569 13.6569 15 12 15C11.5467 15 11.117 14.8995 10.7317 14.7195M9.28037 13.268C9.57827 13.9059 10.0939 14.4216 10.7317 14.7195" stroke="black" stroke-width="2" stroke-linecap="round" stroke-linejoin="round"/>
</svg>
