<svg width="24" height="24" viewBox="0 0 24 24" fill="none" xmlns="http://www.w3.org/2000/svg">
<path d="M7 5H13M8.5 8H11.5M19.5326 14.8863C19.036 13.8233 18.1766 12.9639 17.1135 12.4674C16.4716 12.1675 15.7553 12 15 12C12.2386 12 10 14.2386 10 17C10 17.7553 10.1675 18.4715 10.4674 19.1135M19.5326 14.8863C19.8325 15.5284 20 16.2446 20 17C20 19.7614 17.7614 22 15 22C14.2446 22 13.5284 21.8325 12.8863 21.5326C11.8233 21.036 10.9639 20.1766 10.4674 19.1135M19.5326 14.8863L15.9065 16.5772M10.4674 19.1135L14.0935 17.4227M15.9065 16.5772C15.8072 16.3646 15.6353 16.1928 15.4227 16.0935C15.2943 16.0335 15.1511 16 15 16C14.4477 16 14 16.4477 14 17C14 17.1511 14.0335 17.2943 14.0935 17.4227M15.9065 16.5772C15.9665 16.7057 16 16.8489 16 17C16 17.5523 15.5523 18 15 18C14.8489 18 14.7057 17.9665 14.5772 17.9065C14.3646 17.8072 14.1928 17.6353 14.0935 17.4227M16 9V4C16 2.89543 15.1046 2 14 2H6C4.89543 2 4 2.89543 4 4V16C4 17.1046 4.89543 18 6 18H7" stroke="black" stroke-width="2" stroke-linecap="round" stroke-linejoin="round"/>
</svg>
