<svg width="24" height="24" viewBox="0 0 24 24" fill="none" xmlns="http://www.w3.org/2000/svg">
<path fill-rule="evenodd" clip-rule="evenodd" d="M12 1C5.92487 1 1 5.92487 1 12C1 15.7203 2.8469 19.0093 5.67384 21H2C1.44772 21 1 21.4477 1 22C1 22.5523 1.44772 23 2 23H12C18.0751 23 23 18.0751 23 12C23 5.92487 18.0751 1 12 1ZM21 12C21 16.9706 16.9706 21 12 21C7.02944 21 3 16.9706 3 12C3 7.02944 7.02944 3 12 3C16.9706 3 21 7.02944 21 12ZM12 4C7.58172 4 4 7.58172 4 12C4 16.4183 7.58172 20 12 20C16.4183 20 20 16.4183 20 12C20 7.58172 16.4183 4 12 4ZM6 12C6 8.68629 8.68629 6 12 6C15.3137 6 18 8.68629 18 12C18 15.3137 15.3137 18 12 18C8.68629 18 6 15.3137 6 12ZM12 9.5C11.3096 9.5 10.75 8.94036 10.75 8.25C10.75 7.55964 11.3096 7 12 7C12.6904 7 13.25 7.55964 13.25 8.25C13.25 8.94036 12.6904 9.5 12 9.5ZM12 17C11.3096 17 10.75 16.4404 10.75 15.75C10.75 15.0596 11.3096 14.5 12 14.5C12.6904 14.5 13.25 15.0596 13.25 15.75C13.25 16.4404 12.6904 17 12 17ZM14.5 12C14.5 12.6904 15.0596 13.25 15.75 13.25C16.4404 13.25 17 12.6904 17 12C17 11.3096 16.4404 10.75 15.75 10.75C15.0596 10.75 14.5 11.3096 14.5 12ZM8.25 13.25C7.55964 13.25 7 12.6904 7 12C7 11.3096 7.55964 10.75 8.25 10.75C8.94036 10.75 9.5 11.3096 9.5 12C9.5 12.6904 8.94036 13.25 8.25 13.25Z" fill="black"/>
</svg>
