<svg width="24" height="24" viewBox="0 0 24 24" fill="none" xmlns="http://www.w3.org/2000/svg">
<path d="M3 6H4M14 6H13M3 21H4M14 21H13M4 21H13M4 21V17M4 6H6M4 6V10M13 6H11M13 6V9M13 21V18M6 6V4C6 3.44772 6.44772 3 7 3H10C10.5523 3 11 3.44772 11 4V6M6 6H11M13 9V18M13 9H20C20.5523 9 21 9.44772 21 10V14.382C21 14.7607 20.786 15.107 20.4472 15.2764L19.5528 15.7236C19.214 15.893 19 16.2393 19 16.618V17C19 17.5523 18.5523 18 18 18H13M4 10H7C8.10457 10 9 10.8954 9 12V15C9 16.1046 8.10457 17 7 17H4M4 10V17" stroke="black" stroke-width="2" stroke-linecap="round" stroke-linejoin="round"/>
</svg>
