<svg width="24" height="24" viewBox="0 0 24 24" fill="none" xmlns="http://www.w3.org/2000/svg">
<path d="M5 4H4C2.89543 4 2 4.89543 2 6V7M5 4H19M5 4V7M5 20H4C2.89543 20 2 19.1046 2 18V17M5 20H19M5 20V17M19 4H20C21.1046 4 22 4.89543 22 6V7M19 4V7M19 20H20C21.1046 20 22 19.1046 22 18V17M19 20V17M5 7H19M5 7H2M5 7V10M19 7H22M19 7V10M5 17H19M5 17V14M5 17H2M19 17H22M19 17V14M2 7V10M5 10H2M5 10V14M2 10V14M5 14H2M2 14V17M22 7V10M22 17V14M19 14H22M19 14V10M22 14V10M19 10H22" stroke="black" stroke-width="2" stroke-linecap="round" stroke-linejoin="round"/>
</svg>
