<svg width="24" height="24" viewBox="0 0 24 24" fill="none" xmlns="http://www.w3.org/2000/svg">
<path d="M6 3H5C3.89543 3 3 3.89543 3 5V6M6 3H18M6 3V6M6 21H5C3.89543 21 3 20.1046 3 19V18M6 21H18M6 21V18M18 3H19C20.1046 3 21 3.89543 21 5V6M18 3V6M18 21H19C20.1046 21 21 20.1046 21 19V18M18 21V18.6582M6 6H3M6 6V9M18 6H21M18 6V9M6 18V15M6 18H3M6 18L8.70915 13.7369C8.96298 13.3384 9.4606 13.2001 9.86989 13.4142L10.3832 13.6829C10.7325 13.8657 11.1544 13.794 11.4306 13.505L12.8685 12C13.2859 11.5631 13.9844 11.6531 14.2881 12.1829L18 18.6582M3 6V9M6 9H3M6 9V12M3 9V12M6 15H3M6 15V12M3 15V18M3 15V12M21 6V9M21 18H18M21 18V15M18 18V15M18 18V18.6582M18 15H21M18 15V12M21 15V12M18 9H21M18 9V12M21 9V12M6 12H3M18 12H21M9 9V8.99" stroke="black" stroke-width="2" stroke-linecap="round" stroke-linejoin="round"/>
</svg>
