<svg width="24" height="24" viewBox="0 0 24 24" fill="none" xmlns="http://www.w3.org/2000/svg">
<path d="M6 3H5C3.89543 3 3 3.89543 3 5V6M6 3H18M6 3V6M6 21H5C3.89543 21 3 20.1046 3 19V18M6 21H18M6 21V18M18 3H19C20.1046 3 21 3.89543 21 5V6M18 3V6M18 21H19C20.1046 21 21 20.1046 21 19V18M18 21V18M6 6H3M6 6V9M18 6H21M18 6V9M6 18V15M6 18H3M3 6V9M6 9H3M6 9V12M3 9V12M6 15H3M6 15V12M3 15V18M3 15V12M21 6V9M21 18H18M21 18V15M18 18V15M18 15H21M18 15V12M21 15V12M18 9H21M18 9V12M21 9V12M6 12H3M18 12H21M13.1427 12.2144L11.3786 13.2728C11.212 13.3728 11 13.2528 11 13.0585V10.9415C11 10.7472 11.212 10.6272 11.3786 10.7272L13.1427 11.7856C13.3045 11.8827 13.3045 12.1173 13.1427 12.2144Z" stroke="black" stroke-width="2" stroke-linecap="round" stroke-linejoin="round"/>
</svg>
