<svg width="24" height="24" viewBox="0 0 24 24" fill="none" xmlns="http://www.w3.org/2000/svg">
<path d="M7 2H6C4.89543 2 4 2.89543 4 4V6M7 2H17M7 2V6M7 22H6C4.89543 22 4 21.1046 4 20V18M7 22H17M7 22V18M17 2H18C19.1046 2 20 2.89543 20 4V6M17 2V6M17 22H18C19.1046 22 20 21.1046 20 20V18M17 22V18M7 6H17M7 6H4M7 6V9M17 6H20M17 6V9M7 18H17M7 18V15M7 18H4M17 18H20M17 18V15M4 6V9M7 9H4M7 9V12M4 9V12M7 15H4M7 15V12M4 15V18M4 15V12M20 6V9M20 18V15M17 15H20M17 15V12M20 15V12M17 9H20M17 9V12M20 9V12M4 12H7M17 12H20" stroke="black" stroke-width="2" stroke-linecap="round" stroke-linejoin="round"/>
</svg>
