<svg width="24" height="24" viewBox="0 0 24 24" fill="none" xmlns="http://www.w3.org/2000/svg">
<path fill-rule="evenodd" clip-rule="evenodd" d="M3 6.625C3 5.75391 3.73437 5 4.7 5H8.655C9.23574 5 9.76684 5.2824 10.0768 5.73444L10.2737 6.02162C10.9653 7.03012 12.1202 7.625 13.345 7.625H17.3C18.2656 7.625 19 8.37891 19 9.25V11C19 11.5523 19.4477 12 20 12C20.5523 12 21 11.5523 21 11V9.25C21 7.2216 19.3167 5.625 17.3 5.625H13.345C12.7643 5.625 12.2332 5.3426 11.9232 4.89056L11.7263 4.60338C11.0347 3.59488 9.87977 3 8.655 3H4.7C2.68329 3 1 4.5966 1 6.625V15.375C1 17.4034 2.68329 19 4.7 19H13C13.5523 19 14 18.5523 14 18C14 17.4477 13.5523 17 13 17H4.7C3.73437 17 3 16.2461 3 15.375V6.625ZM23 17C23 14.7909 21.2091 13 19 13C16.7909 13 15 14.7909 15 17C15 19.2091 16.7909 21 19 21C21.2091 21 23 19.2091 23 17ZM18.25 16.2011C18.25 16.0047 18.466 15.885 18.6325 15.9891L19.9108 16.788C20.0675 16.8859 20.0675 17.1141 19.9108 17.212L18.6325 18.0109C18.466 18.115 18.25 17.9953 18.25 17.7989V16.2011Z" fill="black"/>
</svg>
