<svg width="24" height="24" viewBox="0 0 24 24" fill="none" xmlns="http://www.w3.org/2000/svg">
<path d="M5 16.5H17M19 16.5H17M17 16.5V17M17 16.5V16M10.5 12.0979V8.90212C10.5 8.50941 10.932 8.26998 11.265 8.47812L13.8216 10.076C14.1349 10.2718 14.1349 10.7282 13.8216 10.924L11.265 12.5219C10.932 12.73 10.5 12.4906 10.5 12.0979ZM5 20H19C20.6569 20 22 18.6569 22 17V7C22 5.34315 20.6569 4 19 4H5C3.34315 4 2 5.34315 2 7V17C2 18.6569 3.34315 20 5 20Z" stroke="black" stroke-width="2" stroke-linecap="round" stroke-linejoin="round"/>
</svg>
