<svg width="24" height="24" viewBox="0 0 24 24" fill="none" xmlns="http://www.w3.org/2000/svg">
<path d="M18.3174 5.68263C15.2187 5.31397 13.9185 4 9.33333 4V8.44444M18.3174 5.68263L14.7447 9.25529M18.3174 5.68263L21 3M20 7.77778V10.2222M20 10.2222V17.3333M20 10.2222C19.2435 10.2222 18.5899 10.1707 18 10.0852M9.33333 14.6667V8.44444M9.33333 14.6667L8.55228 15.4477M9.33333 14.6667L14.7447 9.25529M9.33333 8.44444C11.8437 8.44444 13.3694 8.83833 14.7447 9.25529M4.78105 19.219C4.29848 18.7364 4 18.0697 4 17.3333C4 15.8606 5.19391 14.6667 6.66667 14.6667C7.40305 14.6667 8.06971 14.9651 8.55228 15.4477M4.78105 19.219L3 21M4.78105 19.219L8.55228 15.4477M20 17.3333C20 18.8061 18.8061 20 17.3333 20C15.8606 20 14.6667 18.8061 14.6667 17.3333C14.6667 15.8606 15.8606 14.6667 17.3333 14.6667C18.8061 14.6667 20 15.8606 20 17.3333ZM8.22157 19.5C8.31957 19.4296 8.41258 19.3526 8.5 19.2698" stroke="black" stroke-width="2" stroke-linecap="round" stroke-linejoin="round"/>
</svg>
