<svg width="24" height="24" viewBox="0 0 24 24" fill="none" xmlns="http://www.w3.org/2000/svg">
<path d="M19 10L17.2785 20.3288C17.1178 21.2932 16.2834 22 15.3057 22H14.5M19 10H20M19 10H15.5M19 10C19 9.03953 18.5486 8.18447 17.8465 7.63538C17.6079 6.98824 17.1093 6.46695 16.4774 6.19828C16.3553 5.39122 15.7509 4.7424 14.9672 4.55487C14.7522 3.10911 13.5056 2 12 2C10.6917 2 9.57898 2.83749 9.16873 4.0056C9.11297 4.00189 9.0567 4 9 4C7.61929 4 6.5 5.11929 6.5 6.5C6.5 6.73223 6.53167 6.95707 6.59091 7.17043C5.65969 7.53409 5 8.44001 5 9.5C5 9.67123 5.01722 9.83845 5.05001 10H19ZM5 10L6.72147 20.3288C6.8822 21.2932 7.71658 22 8.69425 22H9.5M5 10H4M5 10H8.5M12 22H14.5M12 22H9.5M12 22V10M14.5 22L15.5 10M9.5 22L8.5 10M12 10H8.5M12 10H15.5" stroke="black" stroke-width="2" stroke-linecap="round" stroke-linejoin="round"/>
</svg>
