<svg width="24" height="24" viewBox="0 0 24 24" fill="none" xmlns="http://www.w3.org/2000/svg">
<path d="M14.9405 17.5102L14.6472 19.3199C14.4903 20.2884 13.6541 21 12.673 21H8.8125M14.9405 17.5102L14.5833 12M14.9405 17.5102L15.106 20.0647C15.1401 20.5907 15.5768 21 16.104 21H18.8961C19.4232 21 19.8599 20.5907 19.894 20.0647L20.4167 12M15.8333 12L16.125 10.2M15.8333 12H17.5M15.8333 12H14.5833M16.125 10.2C16.125 9.33557 15.7301 8.56602 15.1156 8.07184C14.9069 7.48941 14.4706 7.02025 13.9177 6.77845C13.8109 6.0521 13.282 5.46816 12.5963 5.29938C12.4081 3.9982 11.3174 3 10 3C8.85523 3 7.88161 3.75374 7.52264 4.80504C7.47385 4.8017 7.42462 4.8 7.375 4.8C6.16688 4.8 5.1875 5.80736 5.1875 7.05C5.1875 7.25901 5.21521 7.46136 5.26705 7.65338C4.45223 7.98068 3.875 8.79601 3.875 9.75C3.875 9.90411 3.89006 10.0546 3.91876 10.2M16.125 10.2H7.9375M3.875 10.2L5.35276 19.3199C5.50969 20.2884 6.34592 21 7.32701 21H8.8125M3.875 10.2H3M3.875 10.2H3.91876M8.8125 21L7.9375 10.2M7.9375 10.2H3.91876M20.4167 12H21M20.4167 12H17.5M14.5833 12H14M17.5 12L17.7841 10.8313C17.9668 10.0795 18.5667 9.50057 19.3245 9.34468L21 9" stroke="black" stroke-width="2" stroke-linecap="round" stroke-linejoin="round"/>
</svg>
