<svg width="24" height="24" viewBox="0 0 24 24" fill="none" xmlns="http://www.w3.org/2000/svg">
<path d="M6.14494 8H4C2.89543 8 2 8.89543 2 10V13C2 14.1046 2.89543 15 4 15H5M6.14494 8C6.57521 6.55426 7.91449 5.5 9.5 5.5C11.0855 5.5 12.4248 6.55426 12.8551 8M6.14494 8C6.05064 8.31685 6 8.65251 6 9C6 10.933 7.567 12.5 9.5 12.5C11.433 12.5 13 10.933 13 9C13 8.65251 12.9494 8.31685 12.8551 8M12.8551 8H20C21.1046 8 22 8.89543 22 10V13C22 14.1046 21.1046 15 20 15H19M19 15V16M19 15H5M5 15V16M19 11V12M16 11V12" stroke="black" stroke-width="2" stroke-linecap="round" stroke-linejoin="round"/>
</svg>
