<svg width="24" height="24" viewBox="0 0 24 24" fill="none" xmlns="http://www.w3.org/2000/svg">
<path d="M10 17H4C2.89543 17 2 16.1046 2 15V6C2 4.89543 2.89543 4 4 4H20C21.1046 4 22 4.89543 22 6V15C22 16.1046 21.1046 17 20 17H14M10 17V20M10 17H14M10 20H7M10 20H14M14 17V20M14 20H17M13 7.5V11.625M13 11.625V13.5M13 11.625L14.6667 9.98438M14.6667 9.98438L17 7.6875M14.6667 9.98438L17 13.5M8.75 10.5C9.61985 10.5 10.325 9.82843 10.325 9C10.325 8.17157 9.61985 7.5 8.75 7.5C7.88015 7.5 7.175 8.17157 7.175 9C7.175 9.82843 7.88015 10.5 8.75 10.5ZM8.75 10.5C7.7835 10.5 7 11.1716 7 12C7 12.8284 7.7835 13.5 8.75 13.5C9.7165 13.5 10.5 12.8284 10.5 12C10.5 11.1716 9.7165 10.5 8.75 10.5Z" stroke="black" stroke-width="2" stroke-linecap="round" stroke-linejoin="round"/>
</svg>
