<svg width="24" height="24" viewBox="0 0 24 24" fill="none" xmlns="http://www.w3.org/2000/svg">
<path d="M10 17H4C2.89543 17 2 16.1046 2 15V6C2 4.89543 2.89543 4 4 4H20C21.1046 4 22 4.89543 22 6V15C22 16.1046 21.1046 17 20 17H14M10 17V20M10 17H14M10 20H7M10 20H14M14 17V20M14 20H17M13 7.5V11.625M13 11.625V13.5M13 11.625L14.6667 9.98438M14.6667 9.98438L17 7.6875M14.6667 9.98438L17 13.5M7.02414 9.375C6.85061 8.34375 7.6314 7.5 8.75922 7.5C9.80029 7.5 10.5744 8.42286 10.4943 9.375C10.3208 11.4375 7.02412 10.875 7.02414 13.5H10.4943" stroke="black" stroke-width="2" stroke-linecap="round" stroke-linejoin="round"/>
</svg>
