<svg width="24" height="24" viewBox="0 0 24 24" fill="none" xmlns="http://www.w3.org/2000/svg">
<path fill-rule="evenodd" clip-rule="evenodd" d="M4 3C2.34315 3 1 4.34315 1 6V15C1 16.6569 2.34315 18 4 18H9V19H7C6.44772 19 6 19.4477 6 20C6 20.5523 6.44772 21 7 21H10H14H17C17.5523 21 18 20.5523 18 20C18 19.4477 17.5523 19 17 19H15V18H20C21.6569 18 23 16.6569 23 15V6C23 4.34315 21.6569 3 20 3H4ZM11 19V18H13V19H11ZM3 6C3 5.44772 3.44772 5 4 5H20C20.5523 5 21 5.44772 21 6V15C21 15.5523 20.5523 16 20 16H14H10H4C3.44772 16 3 15.5523 3 15V6ZM16 10.5C16 8.29086 14.2091 6.5 12 6.5C9.79086 6.5 8 8.29086 8 10.5C8 12.7091 9.79086 14.5 12 14.5C14.2091 14.5 16 12.7091 16 10.5ZM11.25 9.70106C11.25 9.5047 11.466 9.38499 11.6325 9.48906L12.9108 10.288C13.0675 10.3859 13.0675 10.6141 12.9108 10.712L11.6325 11.5109C11.466 11.615 11.25 11.4953 11.25 11.2989V9.70106Z" fill="black"/>
</svg>
