<svg width="24" height="24" viewBox="0 0 24 24" fill="none" xmlns="http://www.w3.org/2000/svg">
<path d="M7 19C6.44772 19 6 19.4477 6 20C6 20.5523 6.44772 21 7 21V19ZM17 21C17.5523 21 18 20.5523 18 20C18 19.4477 17.5523 19 17 19V21ZM6.425 13.5C6.425 14.0523 6.87272 14.5 7.425 14.5C7.97728 14.5 8.425 14.0523 8.425 13.5H6.425ZM7.425 7.5H8.425C8.425 7.05015 8.12463 6.65568 7.69099 6.53602C7.25735 6.41637 6.79718 6.601 6.5665 6.98719L7.425 7.5ZM4.625 12.1875L3.7665 11.6747C3.58193 11.9837 3.57764 12.368 3.75528 12.6811C3.93292 12.9941 4.26508 13.1875 4.625 13.1875V12.1875ZM8.125 13.1875C8.67728 13.1875 9.125 12.7398 9.125 12.1875C9.125 11.6352 8.67728 11.1875 8.125 11.1875V13.1875ZM4 5H20V3H4V5ZM21 6V15H23V6H21ZM3 15V6H1V15H3ZM10 16H4V18H10V16ZM9 17V20H11V17H9ZM20 16H14V18H20V16ZM14 16H10V18H14V16ZM13 17V20H15V17H13ZM7 21H10V19H7V21ZM10 21H14V19H10V21ZM14 21H17V19H14V21ZM1 15C1 16.6569 2.34315 18 4 18V16C3.44772 16 3 15.5523 3 15H1ZM21 15C21 15.5523 20.5523 16 20 16V18C21.6569 18 23 16.6569 23 15H21ZM20 5C20.5523 5 21 5.44772 21 6H23C23 4.34315 21.6569 3 20 3V5ZM4 3C2.34315 3 1 4.34315 1 6H3C3 5.44772 3.44772 5 4 5V3ZM12.45 9C12.45 9.23073 12.2391 9.5 11.875 9.5V11.5C13.2506 11.5 14.45 10.4261 14.45 9H12.45ZM11.875 9.5C11.5109 9.5 11.3 9.23073 11.3 9H9.3C9.3 10.4261 10.4994 11.5 11.875 11.5V9.5ZM11.3 9C11.3 8.76927 11.5109 8.5 11.875 8.5V6.5C10.4994 6.5 9.3 7.57387 9.3 9H11.3ZM11.875 8.5C12.2391 8.5 12.45 8.76927 12.45 9H14.45C14.45 7.57387 13.2506 6.5 11.875 6.5V8.5ZM12.625 12C12.625 12.0834 12.588 12.1931 12.4616 12.3014C12.3332 12.4115 12.1289 12.5 11.875 12.5V14.5C13.2436 14.5 14.625 13.5198 14.625 12H12.625ZM11.875 12.5C11.6211 12.5 11.4168 12.4115 11.2884 12.3014C11.162 12.1931 11.125 12.0834 11.125 12H9.125C9.125 13.5198 10.5064 14.5 11.875 14.5V12.5ZM11.125 12C11.125 11.9166 11.162 11.8069 11.2884 11.6986C11.4168 11.5885 11.6211 11.5 11.875 11.5V9.5C10.5064 9.5 9.125 10.4802 9.125 12H11.125ZM11.875 11.5C12.1289 11.5 12.3332 11.5885 12.4616 11.6986C12.588 11.8069 12.625 11.9166 12.625 12H14.625C14.625 10.4802 13.2436 9.5 11.875 9.5V11.5ZM18.375 10.5C18.375 11.1832 18.2114 11.7528 17.9987 12.1174C17.8933 12.2981 17.7916 12.4022 17.7192 12.4547C17.6845 12.4798 17.66 12.4908 17.6467 12.4954C17.6344 12.4997 17.6282 12.5 17.625 12.5V14.5C18.6116 14.5 19.3199 13.8218 19.7262 13.1252C20.1469 12.404 20.375 11.4737 20.375 10.5H18.375ZM17.625 12.5C17.6218 12.5 17.6156 12.4997 17.6033 12.4954C17.59 12.4908 17.5655 12.4798 17.5308 12.4547C17.4584 12.4022 17.3567 12.2981 17.2513 12.1174C17.0386 11.7528 16.875 11.1832 16.875 10.5H14.875C14.875 11.4737 15.1031 12.404 15.5238 13.1252C15.9301 13.8218 16.6384 14.5 17.625 14.5V12.5ZM16.875 10.5C16.875 9.8168 17.0386 9.24718 17.2513 8.88255C17.3567 8.70192 17.4584 8.59782 17.5308 8.54533C17.5655 8.5202 17.59 8.50923 17.6033 8.50457C17.6156 8.50026 17.6218 8.5 17.625 8.5V6.5C16.6384 6.5 15.9301 7.1782 15.5238 7.87481C15.1031 8.59597 14.875 9.52635 14.875 10.5H16.875ZM17.625 8.5C17.6282 8.5 17.6344 8.50026 17.6467 8.50457C17.66 8.50923 17.6845 8.5202 17.7192 8.54533C17.7916 8.59782 17.8933 8.70192 17.9987 8.88255C18.2114 9.24718 18.375 9.8168 18.375 10.5H20.375C20.375 9.52635 20.1469 8.59597 19.7262 7.87481C19.3199 7.1782 18.6116 6.5 17.625 6.5V8.5ZM8.425 13.5V12.1875H6.425V13.5H8.425ZM8.425 12.1875V7.5H6.425V12.1875H8.425ZM6.5665 6.98719L3.7665 11.6747L5.4835 12.7003L8.2835 8.01281L6.5665 6.98719ZM4.625 13.1875H7.425V11.1875H4.625V13.1875ZM7.425 13.1875H8.125V11.1875H7.425V13.1875Z" fill="black"/>
</svg>
