<svg width="24" height="24" viewBox="0 0 24 24" fill="none" xmlns="http://www.w3.org/2000/svg">
<path d="M10 17H4C2.89543 17 2 16.1046 2 15V6C2 4.89543 2.89543 4 4 4H20C21.1046 4 22 4.89543 22 6V15C22 16.1046 21.1046 17 20 17H14M10 17V20M10 17H14M10 20H7M10 20H14M14 17V20M14 20H17M7.25 7.5V10.5M7.25 10.5V13.5M7.25 10.5H10.25M10.25 10.5V7.5M10.25 10.5V13.5M13.25 7.875V13.125C13.25 13.3321 13.3992 13.5 13.5833 13.5H14.5833C16.0561 13.5 17.25 12.1569 17.25 10.5C17.25 8.84315 16.0561 7.5 14.5833 7.5H13.5833C13.3992 7.5 13.25 7.66789 13.25 7.875Z" stroke="black" stroke-width="2" stroke-linecap="round" stroke-linejoin="round"/>
</svg>
