<svg width="24" height="24" viewBox="0 0 24 24" fill="none" xmlns="http://www.w3.org/2000/svg">
<path d="M10 17H4C2.89543 17 2 16.1046 2 15V6C2 4.89543 2.89543 4 4 4H20C21.1046 4 22 4.89543 22 6V15C22 16.1046 21.1046 17 20 17H14M10 17V20M10 17H14M10 20H7M10 20H14M14 17V20M14 20H17M10.7007 8.96713V12.0329C10.7007 12.2325 10.9232 12.3516 11.0894 12.2409L13.3887 10.708C13.4629 10.6585 13.5 10.5793 13.5 10.5C13.5 10.4207 13.4629 10.3415 13.3887 10.292L11.0894 8.75912C10.9232 8.64836 10.7007 8.76746 10.7007 8.96713Z" stroke="black" stroke-width="2" stroke-linecap="round" stroke-linejoin="round"/>
</svg>
