<svg width="24" height="24" viewBox="0 0 24 24" fill="none" xmlns="http://www.w3.org/2000/svg">
<path d="M10 17H4C2.89543 17 2 16.1046 2 15V6C2 4.89543 2.89543 4 4 4H20C21.1046 4 22 4.89543 22 6V15C22 16.1046 21.1046 17 20 17H14M10 17V20M10 17H14M10 20H7M10 20H14M14 17V20M14 20H17M7.17212 8.625C7.34976 7.97804 7.97628 7.5 8.72191 7.5C9.60568 7.5 10.3221 8.17157 10.3221 9C10.3221 9.82843 9.60568 10.5 8.72191 10.5C9.70388 10.5 10.4999 11.1716 10.4999 12C10.4999 12.8284 9.70388 13.5 8.72191 13.5C7.89343 13.5 7.1973 13.022 6.99992 12.375M12.9999 7.875V13.125C12.9999 13.3321 13.1492 13.5 13.3333 13.5H14.3333C15.806 13.5 16.9999 12.1569 16.9999 10.5C16.9999 8.84315 15.806 7.5 14.3333 7.5H13.3333C13.1492 7.5 12.9999 7.66789 12.9999 7.875Z" stroke="black" stroke-width="2" stroke-linecap="round" stroke-linejoin="round"/>
</svg>
