<svg width="24" height="24" viewBox="0 0 24 24" fill="none" xmlns="http://www.w3.org/2000/svg">
<path d="M10 17H4C2.89543 17 2 16.1046 2 15V6C2 4.89543 2.89543 4 4 4H20C21.1046 4 22 4.89543 22 6V15C22 16.1046 21.1046 17 20 17H14M10 17V20M10 17H14M10 20H7M10 20H14M14 17V20M14 20H17M10.7647 8.5V10.5M10.7647 10.5V12.5M10.7647 10.5H13.2353M13.2353 10.5V8.5M13.2353 10.5V12.5M5 8.5V11C5 11.8284 5.73741 12.5 6.64706 12.5C7.5567 12.5 8.29412 11.8284 8.29412 11V8.5M15.7059 8.75V12.25C15.7059 12.3881 15.8288 12.5 15.9804 12.5H16.8039C18.0168 12.5 19 11.6046 19 10.5C19 9.39543 18.0168 8.5 16.8039 8.5H15.9804C15.8288 8.5 15.7059 8.61193 15.7059 8.75Z" stroke="black" stroke-width="2" stroke-linecap="round" stroke-linejoin="round"/>
</svg>
