<svg width="24" height="24" viewBox="0 0 24 24" fill="none" xmlns="http://www.w3.org/2000/svg">
<path d="M7 19C6.44772 19 6 19.4477 6 20C6 20.5523 6.44772 21 7 21V19ZM17 21C17.5523 21 18 20.5523 18 20C18 19.4477 17.5523 19 17 19V21ZM9.16301 9.54094C9.25465 10.0856 9.77045 10.4528 10.3151 10.3611C10.8597 10.2695 11.2269 9.75369 11.1353 9.20906L9.16301 9.54094ZM13.6193 9.375L14.6158 9.45883L13.6193 9.375ZM10.1491 13.5L9.14914 13.5C9.14915 14.0523 9.59686 14.5 10.1491 14.5V13.5ZM13.6193 14.5C14.1716 14.5 14.6193 14.0523 14.6193 13.5C14.6193 12.9477 14.1716 12.5 13.6193 12.5V14.5ZM4.625 6.5C4.07272 6.5 3.625 6.94772 3.625 7.5C3.625 8.05228 4.07272 8.5 4.625 8.5V6.5ZM8.125 7.5L9.03118 7.92289C9.17571 7.61318 9.15206 7.2511 8.96847 6.96282C8.78488 6.67455 8.46677 6.5 8.125 6.5V7.5ZM4.41882 13.0771C4.18526 13.5776 4.40164 14.1726 4.90211 14.4062C5.40259 14.6397 5.99763 14.4234 6.23118 13.9229L4.41882 13.0771ZM4 5H20V3H4V5ZM21 6V15H23V6H21ZM3 15V6H1V15H3ZM10 16H4V18H10V16ZM9 17V20H11V17H9ZM20 16H14V18H20V16ZM14 16H10V18H14V16ZM13 17V20H15V17H13ZM7 21H10V19H7V21ZM10 21H14V19H10V21ZM14 21H17V19H14V21ZM1 15C1 16.6569 2.34315 18 4 18V16C3.44772 16 3 15.5523 3 15H1ZM21 15C21 15.5523 20.5523 16 20 16V18C21.6569 18 23 16.6569 23 15H21ZM20 5C20.5523 5 21 5.44772 21 6H23C23 4.34315 21.6569 3 20 3V5ZM4 3C2.34315 3 1 4.34315 1 6H3C3 5.44772 3.44772 5 4 5V3ZM11.1353 9.20906C11.0995 8.99626 11.1605 8.84035 11.2626 8.72997C11.3703 8.61365 11.572 8.5 11.8842 8.5V6.5C10.2317 6.5 8.87184 7.81059 9.16301 9.54094L11.1353 9.20906ZM11.8842 8.5C12.3157 8.5 12.6559 8.89789 12.6228 9.29117L14.6158 9.45883C14.7429 7.94783 13.5349 6.5 11.8842 6.5V8.5ZM12.6228 9.29117C12.6063 9.4872 12.5364 9.60815 12.3631 9.75278C12.1337 9.94423 11.8362 10.0875 11.3533 10.3417C10.9293 10.5649 10.365 10.8756 9.92153 11.3715C9.44192 11.9078 9.14914 12.6037 9.14914 13.5L11.1491 13.5C11.1491 13.0838 11.2684 12.8656 11.4124 12.7047C11.5924 12.5033 11.8631 12.3335 12.285 12.1114C12.648 11.9203 13.2071 11.6534 13.6447 11.2882C14.1383 10.8762 14.5455 10.294 14.6158 9.45883L12.6228 9.29117ZM10.1491 14.5H13.6193V12.5H10.1491V14.5ZM18.375 10.5C18.375 11.1832 18.2114 11.7528 17.9987 12.1174C17.8933 12.2981 17.7916 12.4022 17.7192 12.4547C17.6845 12.4798 17.66 12.4908 17.6467 12.4954C17.6344 12.4997 17.6282 12.5 17.625 12.5V14.5C18.6116 14.5 19.3199 13.8218 19.7262 13.1252C20.1469 12.404 20.375 11.4737 20.375 10.5H18.375ZM17.625 12.5C17.6218 12.5 17.6156 12.4997 17.6033 12.4954C17.59 12.4908 17.5655 12.4798 17.5308 12.4547C17.4584 12.4022 17.3567 12.2981 17.2513 12.1174C17.0386 11.7528 16.875 11.1832 16.875 10.5H14.875C14.875 11.4737 15.1031 12.404 15.5238 13.1252C15.9301 13.8218 16.6384 14.5 17.625 14.5V12.5ZM16.875 10.5C16.875 9.8168 17.0386 9.24718 17.2513 8.88255C17.3567 8.70192 17.4584 8.59782 17.5308 8.54533C17.5655 8.5202 17.59 8.50923 17.6033 8.50457C17.6156 8.50026 17.6218 8.5 17.625 8.5V6.5C16.6384 6.5 15.9301 7.1782 15.5238 7.87481C15.1031 8.59597 14.875 9.52635 14.875 10.5H16.875ZM17.625 8.5C17.6282 8.5 17.6344 8.50026 17.6467 8.50457C17.66 8.50923 17.6845 8.5202 17.7192 8.54533C17.7916 8.59782 17.8933 8.70192 17.9987 8.88255C18.2114 9.24718 18.375 9.8168 18.375 10.5H20.375C20.375 9.52635 20.1469 8.59597 19.7262 7.87481C19.3199 7.1782 18.6116 6.5 17.625 6.5V8.5ZM4.625 8.5H8.125V6.5H4.625V8.5ZM7.21882 7.07711L4.41882 13.0771L6.23118 13.9229L9.03118 7.92289L7.21882 7.07711Z" fill="black"/>
</svg>
