<svg width="24" height="24" viewBox="0 0 24 24" fill="none" xmlns="http://www.w3.org/2000/svg">
<path d="M7 19C6.44772 19 6 19.4477 6 20C6 20.5523 6.44772 21 7 21V19ZM17 21C17.5523 21 18 20.5523 18 20C18 19.4477 17.5523 19 17 19V21ZM12.7196 8.92314C12.9878 9.40593 13.5966 9.57987 14.0794 9.31166C14.5622 9.04344 14.7361 8.43464 14.4679 7.95186L12.7196 8.92314ZM6.34699 9.5C5.79471 9.5 5.34699 9.94772 5.34699 10.5C5.34699 11.0523 5.79471 11.5 6.34699 11.5V9.5ZM3.83289 8.36022C3.68666 8.8928 3.99985 9.44308 4.53242 9.58931C5.065 9.73554 5.61528 9.42235 5.76151 8.88978L3.83289 8.36022ZM5.58148 12.0832C5.42032 11.5549 4.86144 11.2574 4.33319 11.4185C3.80495 11.5797 3.50736 12.1386 3.66852 12.6668L5.58148 12.0832ZM4 5H20V3H4V5ZM21 6V15H23V6H21ZM3 15V6H1V15H3ZM10 16H4V18H10V16ZM9 17V20H11V17H9ZM20 16H14V18H20V16ZM14 16H10V18H14V16ZM13 17V20H15V17H13ZM7 21H10V19H7V21ZM10 21H14V19H10V21ZM14 21H17V19H14V21ZM1 15C1 16.6569 2.34315 18 4 18V16C3.44772 16 3 15.5523 3 15H1ZM21 15C21 15.5523 20.5523 16 20 16V18C21.6569 18 23 16.6569 23 15H21ZM20 5C20.5523 5 21 5.44772 21 6H23C23 4.34315 21.6569 3 20 3V5ZM4 3C2.34315 3 1 4.34315 1 6H3C3 5.44772 3.44772 5 4 5V3ZM18.375 10.5C18.375 11.1832 18.2114 11.7528 17.9987 12.1174C17.8933 12.2981 17.7916 12.4022 17.7192 12.4547C17.6845 12.4798 17.66 12.4908 17.6467 12.4954C17.6344 12.4997 17.6282 12.5 17.625 12.5V14.5C18.6116 14.5 19.3199 13.8218 19.7262 13.1252C20.1469 12.404 20.375 11.4737 20.375 10.5H18.375ZM17.625 12.5C17.6218 12.5 17.6156 12.4997 17.6033 12.4954C17.59 12.4908 17.5655 12.4798 17.5308 12.4547C17.4584 12.4022 17.3567 12.2981 17.2513 12.1174C17.0386 11.7528 16.875 11.1832 16.875 10.5H14.875C14.875 11.4737 15.1031 12.404 15.5238 13.1252C15.9301 13.8218 16.6384 14.5 17.625 14.5V12.5ZM16.875 10.5C16.875 9.8168 17.0386 9.24718 17.2513 8.88255C17.3567 8.70192 17.4584 8.59782 17.5308 8.54533C17.5655 8.5202 17.59 8.50923 17.6033 8.50457C17.6156 8.50026 17.6218 8.5 17.625 8.5V6.5C16.6384 6.5 15.9301 7.1782 15.5238 7.87481C15.1031 8.59597 14.875 9.52635 14.875 10.5H16.875ZM17.625 8.5C17.6282 8.5 17.6344 8.50026 17.6467 8.50457C17.66 8.50923 17.6845 8.5202 17.7192 8.54533C17.7916 8.59782 17.8933 8.70192 17.9987 8.88255C18.2114 9.24718 18.375 9.8168 18.375 10.5H20.375C20.375 9.52635 20.1469 8.59597 19.7262 7.87481C19.3199 7.1782 18.6116 6.5 17.625 6.5V8.5ZM12.875 11.625C12.875 12.1082 12.4832 12.5 12 12.5V14.5C13.5878 14.5 14.875 13.2128 14.875 11.625H12.875ZM12 12.5C11.5168 12.5 11.125 12.1082 11.125 11.625H9.125C9.125 13.2128 10.4122 14.5 12 14.5V12.5ZM11.125 11.625C11.125 11.1418 11.5168 10.75 12 10.75V8.75C10.4122 8.75 9.125 10.0372 9.125 11.625H11.125ZM12 10.75C12.4832 10.75 12.875 11.1418 12.875 11.625H14.875C14.875 10.0372 13.5878 8.75 12 8.75V10.75ZM12 8.5C12.2664 8.5 12.5513 8.62023 12.7196 8.92314L14.4679 7.95186C13.8862 6.90477 12.8586 6.5 12 6.5V8.5ZM11.125 11.625V9.75H9.125V11.625H11.125ZM11.125 9.75C11.125 9.19909 11.2848 8.89539 11.4279 8.73995C11.5706 8.58503 11.7657 8.5 12 8.5V6.5C11.2473 6.5 10.5049 6.78997 9.95681 7.38505C9.40922 7.97961 9.125 8.80091 9.125 9.75H11.125ZM6.9472 9C6.9472 9.21621 6.74038 9.5 6.34699 9.5V11.5C7.72115 11.5 8.9472 10.4406 8.9472 9H6.9472ZM6.34699 8.5C6.74038 8.5 6.9472 8.78379 6.9472 9H8.9472C8.9472 7.55936 7.72115 6.5 6.34699 6.5V8.5ZM7.125 12C7.125 12.0772 7.09042 12.1858 6.95941 12.2963C6.82626 12.4087 6.61293 12.5 6.34699 12.5V14.5C7.71515 14.5 9.125 13.5333 9.125 12H7.125ZM6.34699 11.5C6.61293 11.5 6.82626 11.5913 6.95941 11.7037C7.09042 11.8142 7.125 11.9228 7.125 12H9.125C9.125 10.4667 7.71515 9.5 6.34699 9.5V11.5ZM5.76151 8.88978C5.81265 8.70353 6.02362 8.5 6.34699 8.5V6.5C5.1791 6.5 4.13703 7.25255 3.83289 8.36022L5.76151 8.88978ZM6.34699 12.5C5.86926 12.5 5.62625 12.2299 5.58148 12.0832L3.66852 12.6668C4.01851 13.814 5.16777 14.5 6.34699 14.5V12.5Z" fill="black"/>
</svg>
