<svg width="24" height="24" viewBox="0 0 24 24" fill="none" xmlns="http://www.w3.org/2000/svg">
<path fill-rule="evenodd" clip-rule="evenodd" d="M3.8 3C2.28035 3 1 4.20485 1 5.75V13.625C1 15.1702 2.28035 16.375 3.8 16.375H8.2V17H6.5C5.94772 17 5.5 17.4477 5.5 18C5.5 18.5523 5.94772 19 6.5 19H9.2H12.8C13.3523 19 13.8 18.5523 13.8 18C13.8 17.4477 13.3523 17 12.8 17H10.2V16.375H12.8C13.3523 16.375 13.8 15.9273 13.8 15.375C13.8 14.8227 13.3523 14.375 12.8 14.375H9.2H3.8C3.33143 14.375 3 14.0128 3 13.625V5.75C3 5.36215 3.33143 5 3.8 5H18.2C18.6686 5 19 5.36216 19 5.75V10.625C19 11.1773 19.4477 11.625 20 11.625C20.5523 11.625 21 11.1773 21 10.625V5.75C21 4.20485 19.7197 3 18.2 3H3.8ZM23 17C23 14.7909 21.2091 13 19 13C16.7909 13 15 14.7909 15 17C15 19.2091 16.7909 21 19 21C21.2091 21 23 19.2091 23 17ZM18.25 16.2011C18.25 16.0047 18.466 15.885 18.6325 15.9891L19.9108 16.788C20.0675 16.8859 20.0675 17.1141 19.9108 17.212L18.6325 18.0109C18.466 18.115 18.25 17.9953 18.25 17.7989V16.2011Z" fill="black"/>
</svg>
