<svg width="24" height="24" viewBox="0 0 24 24" fill="none" xmlns="http://www.w3.org/2000/svg">
<path d="M6 6H15M7.5 9H10.5M18 7V5C18 3.89543 17.1046 3 16 3H5C3.89543 3 3 3.89543 3 5V17C3 18.1046 3.89543 19 5 19H7.5M20.4859 13.175C19.9396 12.0057 18.9942 11.0603 17.8249 10.5141C17.1187 10.1842 16.3309 10 15.5 10C12.4624 10 10 12.4624 10 15.5C10 16.3309 10.1842 17.1187 10.5141 17.8249M20.4859 13.175C20.8157 13.8812 21 14.6691 21 15.5C21 18.5376 18.5376 21 15.5 21C14.6691 21 13.8812 20.8157 13.175 20.4859C12.0057 19.9396 11.0603 18.9942 10.5141 17.8249M20.4859 13.175L16.4972 15.035M10.5141 17.8249L14.5028 15.9649M16.4972 15.035C16.3879 14.8011 16.1988 14.612 15.9649 14.5028C15.8237 14.4368 15.6662 14.4 15.5 14.4C14.8925 14.4 14.4 14.8925 14.4 15.5C14.4 15.6662 14.4368 15.8237 14.5028 15.9649M16.4972 15.035C16.5631 15.1762 16.6 15.3338 16.6 15.5C16.6 16.1075 16.1075 16.6 15.5 16.6C15.3338 16.6 15.1762 16.5631 15.035 16.4972C14.8011 16.3879 14.612 16.1988 14.5028 15.9649" stroke="black" stroke-width="2" stroke-linecap="round" stroke-linejoin="round"/>
</svg>
