<svg width="24" height="24" viewBox="0 0 24 24" fill="none" xmlns="http://www.w3.org/2000/svg">
<path d="M8 20H12.1667C13.5474 20 14.6667 18.8807 14.6667 17.5V16.9116C14.6667 16.7119 14.8892 16.5928 15.0553 16.7036L18.4453 18.9635C19.1099 19.4066 20 18.9302 20 18.1315V12.9796C20 12.1809 19.1099 11.7045 18.4453 12.1476L15.0553 14.4075C14.8892 14.5183 14.6667 14.3992 14.6667 14.1995M6.66667 13.7778H8.44444M6.66667 16.4444H7.55556M7.55556 16.4444L4.73223 19.2678M7.55556 16.4444L12.8063 11.1937M3 21L4.73223 19.2678M4.73223 19.2678C4.27982 18.8154 4 18.1904 4 17.5V13.6111C4 12.2304 5.11929 11.1111 6.5 11.1111H12.1667C12.3878 11.1111 12.6021 11.1398 12.8063 11.1937M12.8063 11.1937L21 3M14.6667 6.22222C14.6667 7.44952 13.6717 8.44444 12.4444 8.44444C11.2171 8.44444 10.2222 7.44952 10.2222 6.22222C10.2222 4.99492 11.2171 4 12.4444 4C13.6717 4 14.6667 4.99492 14.6667 6.22222ZM5.77778 8.44444C4.79594 8.44444 4 7.64851 4 6.66667C4 5.68483 4.79594 4.88889 5.77778 4.88889C6.75962 4.88889 7.55556 5.68483 7.55556 6.66667C7.55556 7.64851 6.75962 8.44444 5.77778 8.44444Z" stroke="black" stroke-width="2" stroke-linecap="round" stroke-linejoin="round"/>
</svg>
