<svg width="24" height="24" viewBox="0 0 24 24" fill="none" xmlns="http://www.w3.org/2000/svg">
<path d="M8.5 19.0001H13.1C14.4807 19.0001 15.6 17.8808 15.6 16.5001V15.3029C15.6 14.8712 16.1104 14.6424 16.4327 14.9297L19.3347 17.5159C19.9793 18.0904 21 17.6329 21 16.7694V10M9.81245 13.7501H6.2C5.92386 13.7501 5.7 13.5262 5.7 13.2501V10.7501C5.7 10.474 5.92386 10.2501 6.2 10.2501H11.5C11.7761 10.2501 12 10.474 12 10.7501V12M9.81245 13.7501L6.53122 16.3751M9.81245 13.7501L12 12M12 7.6251H13.1C14.1717 7.6251 15.0859 8.29942 15.4414 9.24691M12 7.6251H5.5C4.11929 7.6251 3 8.74438 3 10.1251V16.5001C3 17.2891 3.36551 17.9927 3.93645 18.4509M12 7.6251L10.6469 5.6518C10.3672 5.2439 9.90438 5.0001 9.40979 5.0001H3M12 12L15.4414 9.24691M5.7 16.3751H6.53122M6.53122 16.3751L3.93645 18.4509M12 16.3751H11.5M2 20.0001L3.93645 18.4509M15.4414 9.24691L22 4" stroke="black" stroke-width="2" stroke-linecap="round" stroke-linejoin="round"/>
</svg>
