<svg width="24" height="24" viewBox="0 0 24 24" fill="none" xmlns="http://www.w3.org/2000/svg">
<path d="M6 14H8M6 17H10M15 5.5V5.5C15 4.11929 13.8807 3 12.5 3V3C11.1193 3 10 4.11929 10 5.5V5.5C10 6.88071 11.1193 8 12.5 8V8C13.8807 8 15 6.88071 15 5.5ZM5 8V8C6.10457 8 7 7.10457 7 6V6C7 4.89543 6.10457 4 5 4V4C3.89543 4 3 4.89543 3 6V6C3 7.10457 3.89543 8 5 8ZM21 18.1972V13.8028C21 12.6047 19.6648 11.8901 18.668 12.5547L15.7774 14.4818C15.4451 14.7033 15 14.4651 15 14.0657V14C15 12.3431 13.6569 11 12 11H6C4.34315 11 3 12.3431 3 14V18C3 19.6569 4.34315 21 6 21H12C13.6569 21 15 19.6569 15 18V17.9343C15 17.5349 15.4451 17.2967 15.7773 17.5182L18.6679 19.4453C19.6648 20.1099 21 19.3953 21 18.1972Z" stroke="black" stroke-width="2" stroke-linecap="round" stroke-linejoin="round"/>
</svg>
