<svg width="24" height="24" viewBox="0 0 24 24" fill="none" xmlns="http://www.w3.org/2000/svg">
<path d="M5 10H10M5 13H12M12 7H13C14.6569 7 16 8.34315 16 10V11.3634C16 11.7984 16.5172 12.0259 16.8379 11.732L19.4864 9.30412C20.4485 8.4222 22 9.1047 22 10.4099V16.5901C22 17.8953 20.4485 18.5778 19.4864 17.6959L16.8379 15.268C16.5172 14.9741 16 15.2016 16 15.6366V17C16 18.6569 14.6569 20 13 20H5C3.34315 20 2 18.6569 2 17V10C2 8.34315 3.34315 7 5 7H12ZM12 7L10.5937 4.8906C10.2228 4.3342 9.59834 4 8.92963 4H2" stroke="black" stroke-width="2" stroke-linecap="round" stroke-linejoin="round"/>
</svg>
