<svg width="24" height="24" viewBox="0 0 24 24" fill="none" xmlns="http://www.w3.org/2000/svg">
<path d="M12 21H6C4.34315 21 3 19.6569 3 18V14C3 12.3431 4.34315 11 6 11H12C13.6569 11 15 12.3431 15 14V14.0657C15 14.4651 15.4451 14.7033 15.7774 14.4818L18.668 12.5547C19.6648 11.8901 21 12.6047 21 13.8028V18.1972C21 19.3953 19.6648 20.1099 18.6679 19.4453L15.7773 17.5182C15.4451 17.2967 15 17.5349 15 17.9343V18C15 19.6569 13.6569 21 12 21Z" stroke="black" stroke-width="2" stroke-linecap="round" stroke-linejoin="round"/>
<path d="M12.5 8C13.8807 8 15 6.88071 15 5.5C15 4.11929 13.8807 3 12.5 3C11.1193 3 10 4.11929 10 5.5C10 6.88071 11.1193 8 12.5 8Z" stroke="black" stroke-width="2" stroke-linecap="round" stroke-linejoin="round"/>
<path d="M3 6C3 7.10457 3.89543 8 5 8C6.10457 8 7 7.10457 7 6C7 4.89543 6.10457 4 5 4C3.89543 4 3 4.89543 3 6Z" stroke="black" stroke-width="2" stroke-linecap="round" stroke-linejoin="round"/>
</svg>
