<svg width="24" height="24" viewBox="0 0 24 24" fill="none" xmlns="http://www.w3.org/2000/svg">
<path d="M5 19L3 21M5 19L16 8M5 19C3.34315 19 2 17.6569 2 16V8C2 6.34315 3.34315 5 5 5H13C14.6569 5 16 6.34315 16 8M16 8L21 3M22 8.20256V15.7974C22 17.0692 20.5167 17.7639 19.5397 16.9498L16.8201 14.6834C16.4944 14.412 16 14.6436 16 15.0675V16C16 17.6569 14.6569 19 13 19H10M6 8H9C9.55228 8 10 8.44772 10 9V12C10 12.5523 9.55228 13 9 13H6C5.44772 13 5 12.5523 5 12V9C5 8.44772 5.44772 8 6 8Z" stroke="black" stroke-width="2" stroke-linecap="round" stroke-linejoin="round"/>
</svg>
