<svg width="24" height="24" viewBox="0 0 24 24" fill="none" xmlns="http://www.w3.org/2000/svg">
<path d="M13 2.35928V6C13 7.65685 14.3431 9 16 9H19.6407M13 2.35928C12.4846 2.12474 11.9203 2 11.3431 2H6C4.89543 2 4 2.89543 4 4V20C4 21.1046 4.89543 22 6 22H18C19.1046 22 20 21.1046 20 20V10.6569C20 10.0797 19.8753 9.5154 19.6407 9M13 2.35928C13.4319 2.55585 13.8295 2.82954 14.1716 3.17157L18.8284 7.82843C19.1705 8.17046 19.4442 8.56806 19.6407 9M13.188 14.708L10.8887 16.2409C10.7225 16.3516 10.5 16.2325 10.5 16.0329V12.9671C10.5 12.7675 10.7225 12.6484 10.8887 12.7591L13.188 14.292C13.3364 14.3909 13.3364 14.6091 13.188 14.708Z" stroke="black" stroke-width="2" stroke-linecap="round" stroke-linejoin="round"/>
</svg>
