<svg width="24" height="24" viewBox="0 0 24 24" fill="none" xmlns="http://www.w3.org/2000/svg">
<path d="M6 9H8M6 12H10M22 15.3787V8.62132C22 7.28496 20.3843 6.61571 19.4393 7.56066L16.8536 10.1464C16.5386 10.4614 16 10.2383 16 9.79289V8C16 6.34315 14.6569 5 13 5H5C3.34315 5 2 6.34315 2 8V16C2 17.6569 3.34315 19 5 19H13C14.6569 19 16 17.6569 16 16V14.2071C16 13.7617 16.5386 13.5386 16.8536 13.8536L19.4393 16.4393C20.3843 17.3843 22 16.715 22 15.3787Z" stroke="black" stroke-width="2" stroke-linecap="round" stroke-linejoin="round"/>
</svg>
