<svg width="24" height="24" viewBox="0 0 24 24" fill="none" xmlns="http://www.w3.org/2000/svg">
<path d="M13 19H5C3.34315 19 2 17.6569 2 16V8C2 6.34315 3.34315 5 5 5H13C14.6569 5 16 6.34315 16 8V8.93248C16 9.3564 16.4944 9.58798 16.8201 9.31659L19.5397 7.05023C20.5167 6.23607 22 6.93081 22 8.20256V15.7974C22 17.0692 20.5167 17.7639 19.5397 16.9498L16.8201 14.6834C16.4944 14.412 16 14.6436 16 15.0675V16C16 17.6569 14.6569 19 13 19Z" stroke="black" stroke-width="2" stroke-linecap="round" stroke-linejoin="round"/>
</svg>
