<svg width="24" height="24" viewBox="0 0 24 24" fill="none" xmlns="http://www.w3.org/2000/svg">
<path fill-rule="evenodd" clip-rule="evenodd" d="M5 4C5 3.44772 5.44772 3 6 3H11.3431C11.5659 3 11.7861 3.02476 12 3.07278V6C12 8.20914 13.7909 10 16 10H18.9272C18.9752 10.2139 19 10.4341 19 10.6569V20C19 20.5523 18.5523 21 18 21H6C5.44772 21 5 20.5523 5 20V4ZM14 6V4.41421L17.5858 8H16C14.8954 8 14 7.10457 14 6ZM6 1C4.34315 1 3 2.34315 3 4V20C3 21.6569 4.34315 23 6 23H18C19.6569 23 21 21.6569 21 20V10.6569C21 9.9354 20.8441 9.22998 20.5509 8.5858C20.3052 8.04589 19.9631 7.54885 19.5355 7.12132L14.8787 2.46447C14.4512 2.03694 13.9541 1.69479 13.4142 1.4491C12.77 1.15594 12.0646 1 11.3431 1H6ZM16 15C16 12.7909 14.2091 11 12 11C9.79086 11 8 12.7909 8 15C8 17.2091 9.79086 19 12 19C14.2091 19 16 17.2091 16 15ZM11.25 14.2011C11.25 14.0047 11.466 13.885 11.6325 13.9891L12.9108 14.788C13.0675 14.8859 13.0675 15.1141 12.9108 15.212L11.6325 16.0109C11.466 16.115 11.25 15.9953 11.25 15.7989V14.2011Z" fill="black"/>
</svg>
