<svg width="24" height="24" viewBox="0 0 24 24" fill="none" xmlns="http://www.w3.org/2000/svg">
<path fill-rule="evenodd" clip-rule="evenodd" d="M5 3.8C5 3.33143 5.36215 3 5.75 3H10.4253C10.577 3 10.7275 3.01436 10.875 3.04242V5.6C10.875 7.61671 12.4716 9.3 14.5 9.3H16.955C16.9847 9.46061 17 9.625 17 9.79117V13C17 13.5523 17.4477 14 18 14C18.5523 14 19 13.5523 19 13V9.79117C19 9.13169 18.8615 8.48607 18.6001 7.8954C18.3811 7.40028 18.0754 6.94295 17.6919 6.54851L13.6171 2.35734C13.2336 1.96283 12.7864 1.64582 12.2989 1.41766C11.7173 1.14539 11.079 1 10.4253 1H5.75C4.20485 1 3 2.28035 3 3.8V18.2C3 19.7197 4.20485 21 5.75 21H11C11.5523 21 12 20.5523 12 20C12 19.4477 11.5523 19 11 19H5.75C5.36216 19 5 18.6686 5 18.2V3.8ZM12.875 5.6V4.46313L15.6331 7.3H14.5C13.6289 7.3 12.875 6.56563 12.875 5.6ZM21 19C21 16.7909 19.2091 15 17 15C14.7909 15 13 16.7909 13 19C13 21.2091 14.7909 23 17 23C19.2091 23 21 21.2091 21 19ZM16.25 18.2011C16.25 18.0047 16.466 17.885 16.6325 17.9891L17.9108 18.788C18.0675 18.8859 18.0675 19.1141 17.9108 19.212L16.6325 20.0109C16.466 20.115 16.25 19.9953 16.25 19.7989V18.2011Z" fill="black"/>
</svg>
