<svg width="24" height="24" viewBox="0 0 24 24" fill="none" xmlns="http://www.w3.org/2000/svg">
<path fill-rule="evenodd" clip-rule="evenodd" d="M4 3C4 2.44772 3.55228 2 3 2C2.44772 2 2 2.44772 2 3V4C2 6.20914 3.79086 8 6 8H18C20.2091 8 22 6.20914 22 4V3C22 2.44772 21.5523 2 21 2C20.4477 2 20 2.44772 20 3V4C20 5.10457 19.1046 6 18 6H6C4.89543 6 4 5.10457 4 4V3ZM6 16C3.79086 16 2 17.7909 2 20V21C2 21.5523 2.44772 22 3 22C3.55228 22 4 21.5523 4 21V20C4 18.8954 4.89543 18 6 18H18C19.1046 18 20 18.8954 20 20V21C20 21.5523 20.4477 22 21 22C21.5523 22 22 21.5523 22 21V20C22 17.7909 20.2091 16 18 16H6ZM5.75 12C5.75 12.6904 5.19036 13.25 4.5 13.25C3.80964 13.25 3.25 12.6904 3.25 12C3.25 11.3096 3.80964 10.75 4.5 10.75C5.19036 10.75 5.75 11.3096 5.75 12ZM20.75 12C20.75 12.6904 20.1904 13.25 19.5 13.25C18.8096 13.25 18.25 12.6904 18.25 12C18.25 11.3096 18.8096 10.75 19.5 10.75C20.1904 10.75 20.75 11.3096 20.75 12ZM12 13.25C12.6904 13.25 13.25 12.6904 13.25 12C13.25 11.3096 12.6904 10.75 12 10.75C11.3096 10.75 10.75 11.3096 10.75 12C10.75 12.6904 11.3096 13.25 12 13.25ZM9.5 12C9.5 12.6904 8.94036 13.25 8.25 13.25C7.55964 13.25 7 12.6904 7 12C7 11.3096 7.55964 10.75 8.25 10.75C8.94036 10.75 9.5 11.3096 9.5 12ZM15.75 13.25C16.4404 13.25 17 12.6904 17 12C17 11.3096 16.4404 10.75 15.75 10.75C15.0596 10.75 14.5 11.3096 14.5 12C14.5 12.6904 15.0596 13.25 15.75 13.25Z" fill="black"/>
</svg>
