<svg width="24" height="24" viewBox="0 0 24 24" fill="none" xmlns="http://www.w3.org/2000/svg">
<path fill-rule="evenodd" clip-rule="evenodd" d="M12 2C12.5523 2 13 2.44772 13 3C13 3.55228 12.5523 4 12 4C11.4477 4 11 3.55228 11 3C11 2.44772 11.4477 2 12 2ZM13 16.5C13 15.9477 12.5523 15.5 12 15.5C11.4477 15.5 11 15.9477 11 16.5C11 17.0523 11.4477 17.5 12 17.5C12.5523 17.5 13 17.0523 13 16.5ZM3 22C3.55228 22 4 21.5523 4 21C4 20.4477 3.55228 20 3 20C2.44772 20 2 20.4477 2 21C2 21.5523 2.44772 22 3 22ZM7.5 22C8.05228 22 8.5 21.5523 8.5 21C8.5 20.4477 8.05228 20 7.5 20C6.94772 20 6.5 20.4477 6.5 21C6.5 21.5523 6.94772 22 7.5 22ZM13 21C13 21.5523 12.5523 22 12 22C11.4477 22 11 21.5523 11 21C11 20.4477 11.4477 20 12 20C12.5523 20 13 20.4477 13 21ZM16.5 22C17.0523 22 17.5 21.5523 17.5 21C17.5 20.4477 17.0523 20 16.5 20C15.9477 20 15.5 20.4477 15.5 21C15.5 21.5523 15.9477 22 16.5 22ZM22 21C22 21.5523 21.5523 22 21 22C20.4477 22 20 21.5523 20 21C20 20.4477 20.4477 20 21 20C21.5523 20 22 20.4477 22 21ZM13 7.50001C13 6.94772 12.5523 6.50001 12 6.50001C11.4477 6.50001 11 6.94772 11 7.50001C11 8.05229 11.4477 8.50001 12 8.50001C12.5523 8.50001 13 8.05229 13 7.50001ZM3 15.5C3.55228 15.5 4 15.9477 4 16.5C4 17.0523 3.55228 17.5 3 17.5C2.44772 17.5 2 17.0523 2 16.5C2 15.9477 2.44772 15.5 3 15.5ZM4 3C4 2.44772 3.55228 2 3 2C2.44772 2 2 2.44772 2 3C2 3.55228 2.44772 4 3 4C3.55228 4 4 3.55228 4 3ZM3 6.50001C3.55228 6.50001 4 6.94772 4 7.50001C4 8.05229 3.55228 8.50001 3 8.50001C2.44772 8.50001 2 8.05229 2 7.50001C2 6.94772 2.44772 6.50001 3 6.50001ZM22 16.5C22 15.9477 21.5523 15.5 21 15.5C20.4477 15.5 20 15.9477 20 16.5C20 17.0523 20.4477 17.5 21 17.5C21.5523 17.5 22 17.0523 22 16.5ZM21 2C21.5523 2 22 2.44772 22 3C22 3.55228 21.5523 4 21 4C20.4477 4 20 3.55228 20 3C20 2.44772 20.4477 2 21 2ZM22 7.50001C22 6.94772 21.5523 6.50001 21 6.50001C20.4477 6.50001 20 6.94772 20 7.50001C20 8.05229 20.4477 8.50001 21 8.50001C21.5523 8.50001 22 8.05229 22 7.50001ZM8.5 3C8.5 3.55228 8.05228 4 7.5 4C6.94772 4 6.5 3.55228 6.5 3C6.5 2.44772 6.94772 2 7.5 2C8.05228 2 8.5 2.44772 8.5 3ZM16.5 4C17.0523 4 17.5 3.55228 17.5 3C17.5 2.44772 17.0523 2 16.5 2C15.9477 2 15.5 2.44772 15.5 3C15.5 3.55228 15.9477 4 16.5 4ZM3 11C2.44772 11 2 11.4477 2 12C2 12.5523 2.44772 13 3 13H21C21.5523 13 22 12.5523 22 12C22 11.4477 21.5523 11 21 11H3Z" fill="black"/>
</svg>
