<svg width="24" height="24" viewBox="0 0 24 24" fill="none" xmlns="http://www.w3.org/2000/svg">
<path d="M21 16V19C21 20.1046 20.1046 21 19 21H16C14.8954 21 14 20.1046 14 19V16C14 14.8954 14.8954 14 16 14H19C20.1046 14 21 14.8954 21 16Z" stroke="black" stroke-width="2"/>
<path d="M21 5V8C21 9.10457 20.1046 10 19 10L5 10C3.89543 10 3 9.10457 3 8V5C3 3.89543 3.89543 3 5 3H19C20.1046 3 21 3.89543 21 5Z" stroke="black" stroke-width="2"/>
<path d="M10 16V19C10 20.1046 9.10457 21 8 21H5C3.89543 21 3 20.1046 3 19V16C3 14.8954 3.89543 14 5 14H8C9.10457 14 10 14.8954 10 16Z" stroke="black" stroke-width="2"/>
</svg>
