<svg width="24" height="24" viewBox="0 0 24 24" fill="none" xmlns="http://www.w3.org/2000/svg">
<path fill-rule="evenodd" clip-rule="evenodd" d="M3 2C2.44772 2 2 2.44772 2 3C2 3.55228 2.44772 4 3 4H21C21.5523 4 22 3.55228 22 3C22 2.44772 21.5523 2 21 2H3ZM13 7.5C13 6.94772 12.5523 6.5 12 6.5C11.4477 6.5 11 6.94772 11 7.5C11 8.05228 11.4477 8.5 12 8.5C12.5523 8.5 13 8.05228 13 7.5ZM12 11C12.5523 11 13 11.4477 13 12C13 12.5523 12.5523 13 12 13C11.4477 13 11 12.5523 11 12C11 11.4477 11.4477 11 12 11ZM13 16.5C13 15.9477 12.5523 15.5 12 15.5C11.4477 15.5 11 15.9477 11 16.5C11 17.0523 11.4477 17.5 12 17.5C12.5523 17.5 13 17.0523 13 16.5ZM3 22C3.55228 22 4 21.5523 4 21C4 20.4477 3.55228 20 3 20C2.44772 20 2 20.4477 2 21C2 21.5523 2.44772 22 3 22ZM7.5 22C8.05228 22 8.5 21.5523 8.5 21C8.5 20.4477 8.05228 20 7.5 20C6.94772 20 6.5 20.4477 6.5 21C6.5 21.5523 6.94772 22 7.5 22ZM13 21C13 21.5523 12.5523 22 12 22C11.4477 22 11 21.5523 11 21C11 20.4477 11.4477 20 12 20C12.5523 20 13 20.4477 13 21ZM16.5 22C17.0523 22 17.5 21.5523 17.5 21C17.5 20.4477 17.0523 20 16.5 20C15.9477 20 15.5 20.4477 15.5 21C15.5 21.5523 15.9477 22 16.5 22ZM22 21C22 21.5523 21.5523 22 21 22C20.4477 22 20 21.5523 20 21C20 20.4477 20.4477 20 21 20C21.5523 20 22 20.4477 22 21ZM3 15.5C3.55228 15.5 4 15.9477 4 16.5C4 17.0523 3.55228 17.5 3 17.5C2.44772 17.5 2 17.0523 2 16.5C2 15.9477 2.44772 15.5 3 15.5ZM4 12C4 11.4477 3.55228 11 3 11C2.44772 11 2 11.4477 2 12C2 12.5523 2.44772 13 3 13C3.55228 13 4 12.5523 4 12ZM3 6.5C3.55228 6.5 4 6.94772 4 7.5C4 8.05228 3.55228 8.5 3 8.5C2.44772 8.5 2 8.05228 2 7.5C2 6.94772 2.44772 6.5 3 6.5ZM22 16.5C22 15.9477 21.5523 15.5 21 15.5C20.4477 15.5 20 15.9477 20 16.5C20 17.0523 20.4477 17.5 21 17.5C21.5523 17.5 22 17.0523 22 16.5ZM21 11C21.5523 11 22 11.4477 22 12C22 12.5523 21.5523 13 21 13C20.4477 13 20 12.5523 20 12C20 11.4477 20.4477 11 21 11ZM22 7.5C22 6.94772 21.5523 6.5 21 6.5C20.4477 6.5 20 6.94772 20 7.5C20 8.05228 20.4477 8.5 21 8.5C21.5523 8.5 22 8.05228 22 7.5ZM8.5 12C8.5 12.5523 8.05228 13 7.5 13C6.94772 13 6.5 12.5523 6.5 12C6.5 11.4477 6.94772 11 7.5 11C8.05228 11 8.5 11.4477 8.5 12ZM16.5 13C17.0523 13 17.5 12.5523 17.5 12C17.5 11.4477 17.0523 11 16.5 11C15.9477 11 15.5 11.4477 15.5 12C15.5 12.5523 15.9477 13 16.5 13Z" fill="black"/>
</svg>
