<svg width="24" height="24" viewBox="0 0 24 24" fill="none" xmlns="http://www.w3.org/2000/svg">
<path fill-rule="evenodd" clip-rule="evenodd" d="M2 3C2 2.44772 2.44772 2 3 2C3.55229 2 4 2.44772 4 3C4 3.55228 3.55229 4 3 4C2.44772 4 2 3.55228 2 3ZM7.5 2C6.94772 2 6.5 2.44772 6.5 3C6.5 3.55229 6.94772 4 7.5 4C8.05229 4 8.5 3.55229 8.5 3C8.5 2.44772 8.05229 2 7.5 2ZM11 3C11 2.44772 11.4477 2 12 2C12.5523 2 13 2.44772 13 3C13 3.55229 12.5523 4 12 4C11.4477 4 11 3.55229 11 3ZM16.5 2C15.9477 2 15.5 2.44772 15.5 3C15.5 3.55229 15.9477 4 16.5 4C17.0523 4 17.5 3.55229 17.5 3C17.5 2.44772 17.0523 2 16.5 2ZM21 2C20.4477 2 20 2.44772 20 3C20 3.55229 20.4477 4 21 4C21.5523 4 22 3.55229 22 3C22 2.44772 21.5523 2 21 2ZM11 7.5C11 8.05229 11.4477 8.5 12 8.5C12.5523 8.5 13 8.05229 13 7.5C13 6.94772 12.5523 6.5 12 6.5C11.4477 6.5 11 6.94772 11 7.5ZM12 13C11.4477 13 11 12.5523 11 12C11 11.4477 11.4477 11 12 11C12.5523 11 13 11.4477 13 12C13 12.5523 12.5523 13 12 13ZM11 16.5C11 17.0523 11.4477 17.5 12 17.5C12.5523 17.5 13 17.0523 13 16.5C13 15.9477 12.5523 15.5 12 15.5C11.4477 15.5 11 15.9477 11 16.5ZM21 8.5C20.4477 8.5 20 8.05229 20 7.5C20 6.94772 20.4477 6.5 21 6.5C21.5523 6.5 22 6.94772 22 7.5C22 8.05229 21.5523 8.5 21 8.5ZM20 12C20 12.5523 20.4477 13 21 13C21.5523 13 22 12.5523 22 12C22 11.4477 21.5523 11 21 11C20.4477 11 20 11.4477 20 12ZM21 17.5C20.4477 17.5 20 17.0523 20 16.5C20 15.9477 20.4477 15.5 21 15.5C21.5523 15.5 22 15.9477 22 16.5C22 17.0523 21.5523 17.5 21 17.5ZM2 7.5C2 8.05228 2.44772 8.5 3 8.5C3.55229 8.5 4 8.05228 4 7.5C4 6.94772 3.55229 6.5 3 6.5C2.44772 6.5 2 6.94772 2 7.5ZM3 13C2.44772 13 2 12.5523 2 12C2 11.4477 2.44772 11 3 11C3.55229 11 4 11.4477 4 12C4 12.5523 3.55229 13 3 13ZM2 16.5C2 17.0523 2.44772 17.5 3 17.5C3.55228 17.5 4 17.0523 4 16.5C4 15.9477 3.55228 15.5 3 15.5C2.44772 15.5 2 15.9477 2 16.5ZM15.5 12C15.5 11.4477 15.9477 11 16.5 11C17.0523 11 17.5 11.4477 17.5 12C17.5 12.5523 17.0523 13 16.5 13C15.9477 13 15.5 12.5523 15.5 12ZM7.5 11C6.94772 11 6.5 11.4477 6.5 12C6.5 12.5523 6.94772 13 7.5 13C8.05229 13 8.5 12.5523 8.5 12C8.5 11.4477 8.05229 11 7.5 11ZM3 20C2.44772 20 2 20.4477 2 21C2 21.5523 2.44772 22 3 22H21C21.5523 22 22 21.5523 22 21C22 20.4477 21.5523 20 21 20H3Z" fill="black"/>
</svg>
