<svg width="24" height="24" viewBox="0 0 24 24" fill="none" xmlns="http://www.w3.org/2000/svg">
<path d="M16 3H19C20.1046 3 21 3.89543 21 5V8C21 9.10457 20.1046 10 19 10H16C14.8954 10 14 9.10457 14 8V5C14 3.89543 14.8954 3 16 3Z" stroke="black" stroke-width="2"/>
<path d="M5 3H8C9.10457 3 10 3.89543 10 5V8C10 9.10457 9.10457 10 8 10H5C3.89543 10 3 9.10457 3 8V5C3 3.89543 3.89543 3 5 3Z" stroke="black" stroke-width="2"/>
<path d="M16 14H19C20.1046 14 21 14.8954 21 16V19C21 20.1046 20.1046 21 19 21H16C14.8954 21 14 20.1046 14 19V16C14 14.8954 14.8954 14 16 14Z" stroke="black" stroke-width="2"/>
</svg>
