<svg width="24" height="24" viewBox="0 0 24 24" fill="none" xmlns="http://www.w3.org/2000/svg">
<path fill-rule="evenodd" clip-rule="evenodd" d="M2.99997 22C2.44768 22 1.99997 21.5523 1.99997 21C1.99997 20.4477 2.44768 20 2.99997 20C3.55225 20 3.99997 20.4477 3.99997 21C3.99997 21.5523 3.55225 22 2.99997 22ZM1.99997 16.5C1.99997 17.0523 2.44768 17.5 2.99997 17.5C3.55225 17.5 3.99997 17.0523 3.99997 16.5C3.99997 15.9477 3.55225 15.5 2.99997 15.5C2.44768 15.5 1.99997 15.9477 1.99997 16.5ZM2.99997 13C2.44768 13 1.99997 12.5523 1.99997 12C1.99997 11.4477 2.44768 11 2.99997 11C3.55225 11 3.99997 11.4477 3.99997 12C3.99997 12.5523 3.55225 13 2.99997 13ZM1.99997 7.49998C1.99997 8.05226 2.44768 8.49998 2.99997 8.49998C3.55225 8.49998 3.99997 8.05226 3.99997 7.49998C3.99997 6.94769 3.55225 6.49998 2.99997 6.49998C2.44768 6.49998 1.99997 6.94769 1.99997 7.49998ZM1.99997 2.99998C1.99997 3.55226 2.44768 3.99998 2.99997 3.99998C3.55225 3.99998 3.99997 3.55226 3.99997 2.99998C3.99997 2.44769 3.55225 1.99998 2.99997 1.99998C2.44768 1.99998 1.99997 2.44769 1.99997 2.99998ZM7.49997 13C8.05225 13 8.49997 12.5523 8.49997 12C8.49997 11.4477 8.05225 11 7.49997 11C6.94768 11 6.49997 11.4477 6.49997 12C6.49997 12.5523 6.94768 13 7.49997 13ZM22 12C22 12.5523 21.5523 13 21 13C20.4477 13 20 12.5523 20 12C20 11.4477 20.4477 11 21 11C21.5523 11 22 11.4477 22 12ZM16.5 13C17.0523 13 17.5 12.5523 17.5 12C17.5 11.4477 17.0523 11 16.5 11C15.9477 11 15.5 11.4477 15.5 12C15.5 12.5523 15.9477 13 16.5 13ZM8.49997 2.99998C8.49997 3.55226 8.05225 3.99998 7.49997 3.99998C6.94768 3.99998 6.49997 3.55226 6.49997 2.99998C6.49997 2.44769 6.94768 1.99998 7.49997 1.99998C8.05225 1.99998 8.49997 2.44769 8.49997 2.99998ZM21 3.99998C21.5523 3.99998 22 3.55226 22 2.99998C22 2.4477 21.5523 1.99998 21 1.99998C20.4477 1.99998 20 2.44769 20 2.99998C20 3.55226 20.4477 3.99998 21 3.99998ZM17.5 2.99998C17.5 3.55226 17.0523 3.99998 16.5 3.99998C15.9477 3.99998 15.5 3.55226 15.5 2.99998C15.5 2.44769 15.9477 1.99998 16.5 1.99998C17.0523 1.99998 17.5 2.44769 17.5 2.99998ZM7.49997 22C8.05225 22 8.49997 21.5523 8.49997 21C8.49997 20.4477 8.05225 20 7.49997 20C6.94768 20 6.49997 20.4477 6.49997 21C6.49997 21.5523 6.94768 22 7.49997 22ZM22 21C22 21.5523 21.5523 22 21 22C20.4477 22 20 21.5523 20 21C20 20.4477 20.4477 20 21 20C21.5523 20 22 20.4477 22 21ZM16.5 22C17.0523 22 17.5 21.5523 17.5 21C17.5 20.4477 17.0523 20 16.5 20C15.9477 20 15.5 20.4477 15.5 21C15.5 21.5523 15.9477 22 16.5 22ZM21 8.49998C20.4477 8.49998 20 8.05226 20 7.49998C20 6.94769 20.4477 6.49998 21 6.49998C21.5523 6.49998 22 6.94769 22 7.49998C22 8.05226 21.5523 8.49998 21 8.49998ZM20 16.5C20 17.0523 20.4477 17.5 21 17.5C21.5523 17.5 22 17.0523 22 16.5C22 15.9477 21.5523 15.5 21 15.5C20.4477 15.5 20 15.9477 20 16.5ZM13 3C13 2.44772 12.5523 2 12 2C11.4477 2 11 2.44772 11 3L11 21C11 21.5523 11.4477 22 12 22C12.5523 22 13 21.5523 13 21L13 3Z" fill="black"/>
</svg>
