<svg width="24" height="24" viewBox="0 0 24 24" fill="none" xmlns="http://www.w3.org/2000/svg">
<path fill-rule="evenodd" clip-rule="evenodd" d="M21 2.00007C21.5523 2.00007 22 2.44779 22 3.00007C22 3.55236 21.5523 4.00007 21 4.00007C20.4478 4.00007 20 3.55236 20 3.00007C20 2.44779 20.4478 2.00007 21 2.00007ZM22 7.50007C22 6.94779 21.5523 6.50007 21 6.50007C20.4478 6.50007 20 6.94779 20 7.50007C20 8.05236 20.4478 8.50007 21 8.50007C21.5523 8.50007 22 8.05236 22 7.50007ZM22 16.5001C22 15.9478 21.5523 15.5001 21 15.5001C20.4478 15.5001 20 15.9478 20 16.5001C20 17.0524 20.4478 17.5001 21 17.5001C21.5523 17.5001 22 17.0524 22 16.5001ZM22 21.0001C22 20.4478 21.5523 20.0001 21 20.0001C20.4478 20.0001 20 20.4478 20 21.0001C20 21.5524 20.4478 22.0001 21 22.0001C21.5523 22.0001 22 21.5524 22 21.0001ZM21 11.0001C21.5523 11.0001 22 11.4478 22 12.0001C22 12.5524 21.5523 13.0001 21 13.0001C20.4478 13.0001 20 12.5524 20 12.0001C20 11.4478 20.4478 11.0001 21 11.0001ZM16.5 11.0001C15.9478 11.0001 15.5 11.4478 15.5 12.0001C15.5 12.5524 15.9478 13.0001 16.5 13.0001C17.0523 13.0001 17.5 12.5524 17.5 12.0001C17.5 11.4478 17.0523 11.0001 16.5 11.0001ZM11 12.0001C11 11.4478 11.4478 11.0001 12 11.0001C12.5523 11.0001 13 11.4478 13 12.0001C13 12.5524 12.5523 13.0001 12 13.0001C11.4478 13.0001 11 12.5524 11 12.0001ZM7.50004 11.0001C6.94776 11.0001 6.50004 11.4478 6.50004 12.0001C6.50004 12.5524 6.94776 13.0001 7.50004 13.0001C8.05233 13.0001 8.50004 12.5524 8.50004 12.0001C8.50004 11.4478 8.05233 11.0001 7.50004 11.0001ZM15.5 21.0001C15.5 20.4478 15.9478 20.0001 16.5 20.0001C17.0523 20.0001 17.5 20.4478 17.5 21.0001C17.5 21.5524 17.0523 22.0001 16.5 22.0001C15.9478 22.0001 15.5 21.5524 15.5 21.0001ZM12 20.0001C11.4478 20.0001 11 20.4478 11 21.0001C11 21.5524 11.4478 22.0001 12 22.0001C12.5523 22.0001 13 21.5524 13 21.0001C13 20.4478 12.5523 20.0001 12 20.0001ZM6.50004 21.0001C6.50004 20.4478 6.94776 20.0001 7.50004 20.0001C8.05233 20.0001 8.50004 20.4478 8.50004 21.0001C8.50004 21.5524 8.05233 22.0001 7.50004 22.0001C6.94776 22.0001 6.50004 21.5524 6.50004 21.0001ZM16.5 2.00007C15.9478 2.00007 15.5 2.44779 15.5 3.00007C15.5 3.55236 15.9478 4.00007 16.5 4.00007C17.0523 4.00007 17.5 3.55236 17.5 3.00007C17.5 2.44779 17.0523 2.00007 16.5 2.00007ZM11 3.00007C11 2.44779 11.4478 2.00007 12 2.00007C12.5523 2.00007 13 2.44779 13 3.00007C13 3.55236 12.5523 4.00007 12 4.00007C11.4478 4.00007 11 3.55236 11 3.00007ZM7.50004 2.00007C6.94776 2.00007 6.50004 2.44779 6.50004 3.00007C6.50004 3.55236 6.94776 4.00007 7.50004 4.00007C8.05233 4.00007 8.50004 3.55236 8.50004 3.00007C8.50004 2.44779 8.05233 2.00007 7.50004 2.00007ZM12 15.5001C12.5523 15.5001 13 15.9478 13 16.5001C13 17.0524 12.5523 17.5001 12 17.5001C11.4478 17.5001 11 17.0524 11 16.5001C11 15.9478 11.4478 15.5001 12 15.5001ZM13 7.50007C13 6.94779 12.5523 6.50007 12 6.50007C11.4478 6.50007 11 6.94779 11 7.50007C11 8.05236 11.4478 8.50007 12 8.50007C12.5523 8.50007 13 8.05236 13 7.50007ZM4.00004 3.00007C4.00004 2.44779 3.55233 2.00007 3.00004 2.00007C2.44776 2.00007 2.00004 2.44779 2.00004 3.00007L2.00004 21.0001C2.00004 21.5524 2.44776 22.0001 3.00004 22.0001C3.55233 22.0001 4.00004 21.5524 4.00004 21.0001L4.00004 3.00007Z" fill="black"/>
</svg>
