<svg width="24" height="24" viewBox="0 0 24 24" fill="none" xmlns="http://www.w3.org/2000/svg">
<path fill-rule="evenodd" clip-rule="evenodd" d="M2.99997 22C2.44768 22 1.99997 21.5523 1.99997 21C1.99997 20.4477 2.44768 20 2.99997 20C3.55225 20 3.99997 20.4477 3.99997 21C3.99997 21.5523 3.55225 22 2.99997 22ZM1.99997 16.5C1.99997 17.0523 2.44768 17.5 2.99997 17.5C3.55225 17.5 3.99997 17.0523 3.99997 16.5C3.99997 15.9477 3.55225 15.5 2.99997 15.5C2.44768 15.5 1.99997 15.9477 1.99997 16.5ZM2.99997 13C2.44768 13 1.99997 12.5523 1.99997 12C1.99997 11.4477 2.44768 11 2.99997 11C3.55225 11 3.99997 11.4477 3.99997 12C3.99997 12.5523 3.55225 13 2.99997 13ZM1.99997 7.49998C1.99997 8.05226 2.44768 8.49998 2.99997 8.49998C3.55225 8.49998 3.99997 8.05226 3.99997 7.49998C3.99997 6.94769 3.55225 6.49998 2.99997 6.49998C2.44768 6.49998 1.99997 6.94769 1.99997 7.49998ZM1.99997 2.99998C1.99997 3.55226 2.44768 3.99998 2.99997 3.99998C3.55225 3.99998 3.99997 3.55226 3.99997 2.99998C3.99997 2.44769 3.55225 1.99998 2.99997 1.99998C2.44768 1.99998 1.99997 2.44769 1.99997 2.99998ZM7.49997 13C8.05225 13 8.49997 12.5523 8.49997 12C8.49997 11.4477 8.05225 11 7.49997 11C6.94768 11 6.49997 11.4477 6.49997 12C6.49997 12.5523 6.94768 13 7.49997 13ZM13 12C13 12.5523 12.5523 13 12 13C11.4477 13 11 12.5523 11 12C11 11.4477 11.4477 11 12 11C12.5523 11 13 11.4477 13 12ZM16.5 13C17.0523 13 17.5 12.5523 17.5 12C17.5 11.4477 17.0523 11 16.5 11C15.9477 11 15.5 11.4477 15.5 12C15.5 12.5523 15.9477 13 16.5 13ZM8.49997 2.99998C8.49997 3.55227 8.05225 3.99998 7.49997 3.99998C6.94768 3.99998 6.49997 3.55227 6.49997 2.99998C6.49997 2.4477 6.94768 1.99998 7.49997 1.99998C8.05225 1.99998 8.49997 2.4477 8.49997 2.99998ZM12 3.99998C12.5523 3.99998 13 3.55227 13 2.99998C13 2.4477 12.5523 1.99998 12 1.99998C11.4477 1.99998 11 2.4477 11 2.99998C11 3.55227 11.4477 3.99998 12 3.99998ZM17.5 2.99998C17.5 3.55227 17.0523 3.99998 16.5 3.99998C15.9477 3.99998 15.5 3.55227 15.5 2.99998C15.5 2.4477 15.9477 1.99998 16.5 1.99998C17.0523 1.99998 17.5 2.4477 17.5 2.99998ZM7.49997 22C8.05225 22 8.49997 21.5523 8.49997 21C8.49997 20.4477 8.05225 20 7.49997 20C6.94768 20 6.49997 20.4477 6.49997 21C6.49997 21.5523 6.94768 22 7.49997 22ZM13 21C13 21.5523 12.5523 22 12 22C11.4477 22 11 21.5523 11 21C11 20.4477 11.4477 20 12 20C12.5523 20 13 20.4477 13 21ZM16.5 22C17.0523 22 17.5 21.5523 17.5 21C17.5 20.4477 17.0523 20 16.5 20C15.9477 20 15.5 20.4477 15.5 21C15.5 21.5523 15.9477 22 16.5 22ZM12 8.49998C11.4477 8.49998 11 8.05226 11 7.49998C11 6.94769 11.4477 6.49998 12 6.49998C12.5523 6.49998 13 6.9477 13 7.49998C13 8.05227 12.5523 8.49998 12 8.49998ZM11 16.5C11 17.0523 11.4477 17.5 12 17.5C12.5523 17.5 13 17.0523 13 16.5C13 15.9477 12.5523 15.5 12 15.5C11.4477 15.5 11 15.9477 11 16.5ZM22 2.99998C22 2.4477 21.5523 1.99998 21 1.99998C20.4477 1.99998 20 2.4477 20 2.99998L20 21C20 21.5523 20.4477 22 21 22C21.5523 22 22 21.5523 22 21L22 2.99998Z" fill="black"/>
</svg>
