<svg width="24" height="24" viewBox="0 0 24 24" fill="none" xmlns="http://www.w3.org/2000/svg">
<path d="M18.1616 9.85965L14.2963 11.8737C12.8507 12.6269 11.1493 12.6269 9.7037 11.8737L5.83838 9.85965M18.1616 9.85965L20.4323 8.67649C21.1892 8.28211 21.1892 7.15649 20.4323 6.7621L14.2963 3.56491C12.8507 2.8117 11.1493 2.8117 9.7037 3.56491L3.56768 6.7621C2.81077 7.15649 2.81077 8.28211 3.56768 8.67649L5.83838 9.85965M18.1616 9.85965L20.4323 11.0428C21.1892 11.4372 21.1892 12.5628 20.4323 12.9572L14.2963 16.1544C12.8507 16.9076 11.1493 16.9076 9.7037 16.1544L3.56768 12.9572C2.81077 12.5628 2.81077 11.4372 3.56768 11.0428L5.83838 9.85965M18.1616 14.1404L20.4323 15.3235C21.1892 15.7179 21.1892 16.8435 20.4323 17.2379L14.2963 20.4351C12.8507 21.1883 11.1493 21.1883 9.7037 20.4351L3.56768 17.2379C2.81077 16.8435 2.81077 15.7179 3.56768 15.3235L5.83838 14.1404" stroke="black" stroke-width="2" stroke-linecap="round" stroke-linejoin="round"/>
</svg>
