<svg width="24" height="24" viewBox="0 0 24 24" fill="none" xmlns="http://www.w3.org/2000/svg">
<path d="M21 12.8591L20.4323 13.1609L14.2963 16.4235C12.8507 17.1922 11.1493 17.1922 9.7037 16.4235L3.56768 13.1609L3 12.8591M21 16.8591L20.4323 17.1609L14.2963 20.4235C12.8507 21.1922 11.1493 21.1922 9.7037 20.4235L3.56768 17.1609L3 16.8591M9.7037 3.57647L3.56768 6.83907C2.81078 7.24153 2.81078 8.39018 3.56768 8.79264L5.83838 10L9.7037 12.0552C11.1493 12.8239 12.8507 12.8239 14.2963 12.0552L18.1616 10L20.4323 8.79264C21.1892 8.39018 21.1892 7.24153 20.4323 6.83907L14.2963 3.57647C12.8507 2.80784 11.1493 2.80784 9.7037 3.57647Z" stroke="black" stroke-width="2" stroke-linecap="round" stroke-linejoin="round"/>
</svg>
