<svg width="24" height="24" viewBox="0 0 24 24" fill="none" xmlns="http://www.w3.org/2000/svg">
<path d="M18.1616 12L14.2963 14.0552C12.8507 14.8239 11.1493 14.8239 9.7037 14.0552L5.83838 12M18.1616 12L20.4323 10.7926C21.1892 10.3902 21.1892 9.24153 20.4323 8.83907L14.2963 5.57647C12.8507 4.80784 11.1493 4.80784 9.7037 5.57647L3.56768 8.83907C2.81077 9.24153 2.81077 10.3902 3.56768 10.7926L5.83838 12M18.1616 12L20.4323 13.2074C21.1892 13.6098 21.1892 14.7585 20.4323 15.1609L14.2963 18.4235C12.8507 19.1922 11.1493 19.1922 9.7037 18.4235L3.56768 15.1609C2.81077 14.7585 2.81077 13.6098 3.56768 13.2074L5.83838 12" stroke="black" stroke-width="2" stroke-linecap="round" stroke-linejoin="round"/>
</svg>
