<svg width="24" height="24" viewBox="0 0 24 24" fill="none" xmlns="http://www.w3.org/2000/svg">
<path d="M2 10V7C2 5.34315 3.34315 4 5 4H7M2 10V17C2 18.6569 3.34315 20 5 20H7M2 10H22M22 10V17C22 18.6569 20.6569 20 19 20H17M22 10V7C22 5.34315 20.6569 4 19 4H17M12 4H7M12 4H17M12 4V7M7 4V7M17 4V7M17 20H12M17 20V17M12 20H7M12 20V17M7 20V17M7 7H8M7 7H6M7 7V17M12 7H11M12 7H13M12 7V14M17 7H16M17 7H18M17 7V14M7 17H8M7 17H6M12 14H11M12 14H13M12 14V17M12 17H13M12 17H11M17 17H16M17 17H18M17 17V14M17 14H16M17 14H18" stroke="black" stroke-width="2" stroke-linecap="round" stroke-linejoin="round"/>
</svg>
