<svg width="24" height="24" viewBox="0 0 24 24" fill="none" xmlns="http://www.w3.org/2000/svg">
<path d="M7 19H12.5M16.49 19H16.5M16.49 15H16.5M16.49 11H16.5M11.99 15H12M11.99 11H12M7.49 15H7.5M7.49 11H7.5M15.5 5H8.5C7.67157 5 7 5.67157 7 6.5V6.5C7 7.32843 7.67157 8 8.5 8H15.5C16.3284 8 17 7.32843 17 6.5V6.5C17 5.67157 16.3284 5 15.5 5ZM20 5V19C20 20.6569 18.6569 22 17 22H7C5.34315 22 4 20.6569 4 19V5C4 3.34315 5.34315 2 7 2H17C18.6569 2 20 3.34315 20 5Z" stroke="black" stroke-width="2" stroke-linecap="round" stroke-linejoin="round"/>
</svg>
