<svg width="24" height="24" viewBox="0 0 24 24" fill="none" xmlns="http://www.w3.org/2000/svg">
<path d="M7.41421 2.58579L8.12132 3.29289L8.12132 3.29289L7.41421 2.58579ZM2.58579 7.41421L1.87868 6.70711H1.87868L2.58579 7.41421ZM21.4142 7.41421L20.7071 8.12132L21.4142 7.41421ZM16.5858 2.58579L17.2929 1.87868V1.87868L16.5858 2.58579ZM16.5858 21.4142L17.2929 22.1213H17.2929L16.5858 21.4142ZM21.4142 16.5858L22.1213 17.2929V17.2929L21.4142 16.5858ZM2.58579 16.5858L1.87868 17.2929L1.87868 17.2929L2.58579 16.5858ZM7.41421 21.4142L6.70711 22.1213H6.70711L7.41421 21.4142ZM11.9999 11.9999L11.2928 11.2928L11.2928 11.2928L11.9999 11.9999ZM8.51 9.5C9.06228 9.5 9.51 9.05228 9.51 8.5C9.51 7.94772 9.06228 7.5 8.51 7.5V9.5ZM15.49 14.5C14.9377 14.5 14.49 14.9477 14.49 15.5C14.49 16.0523 14.9377 16.5 15.49 16.5V14.5ZM1 8.82843V15.1716H3V8.82843H1ZM23 15.1716V8.82843H21V15.1716H23ZM6.70711 1.87868L1.87868 6.70711L3.29289 8.12132L8.12132 3.29289L6.70711 1.87868ZM22.1213 6.70711L17.2929 1.87868L15.8787 3.29289L20.7071 8.12132L22.1213 6.70711ZM15.1716 1H8.82843V3H15.1716V1ZM17.2929 22.1213L22.1213 17.2929L20.7071 15.8787L15.8787 20.7071L17.2929 22.1213ZM1.87868 17.2929L6.70711 22.1213L8.12132 20.7071L3.29289 15.8787L1.87868 17.2929ZM8.82843 23H15.1716V21H8.82843V23ZM6.70711 22.1213C7.26972 22.6839 8.03278 23 8.82843 23V21C8.56321 21 8.30886 20.8946 8.12132 20.7071L6.70711 22.1213ZM17.2929 1.87868C16.7303 1.31607 15.9672 1 15.1716 1V3C15.4368 3 15.6911 3.10536 15.8787 3.29289L17.2929 1.87868ZM21 15.1716C21 15.4368 20.8946 15.6911 20.7071 15.8787L22.1213 17.2929C22.6839 16.7303 23 15.9672 23 15.1716H21ZM1 15.1716C1 15.9672 1.31607 16.7303 1.87868 17.2929L3.29289 15.8787C3.10536 15.6911 3 15.4368 3 15.1716H1ZM23 8.82843C23 8.03278 22.6839 7.26972 22.1213 6.70711L20.7071 8.12132C20.8946 8.30886 21 8.56321 21 8.82843H23ZM15.8787 20.7071C15.6911 20.8946 15.4368 21 15.1716 21V23C15.9672 23 16.7303 22.6839 17.2929 22.1213L15.8787 20.7071ZM3 8.82843C3 8.56321 3.10536 8.30886 3.29289 8.12132L1.87868 6.70711C1.31607 7.26972 1 8.03278 1 8.82843H3ZM8.12132 3.29289C8.30886 3.10536 8.56321 3 8.82843 3V1C8.03278 1 7.26972 1.31607 6.70711 1.87868L8.12132 3.29289ZM12.707 12.707L16.2071 9.20713L14.7929 7.79287L11.2928 11.2928L12.707 12.707ZM11.2928 11.2928L7.79287 14.7929L9.20713 16.2071L12.707 12.707L11.2928 11.2928ZM8.51 7.5H8.5V9.5H8.51V7.5ZM15.49 16.5H15.5V14.5H15.49V16.5Z" fill="black"/>
</svg>
