<svg width="24" height="24" viewBox="0 0 24 24" fill="none" xmlns="http://www.w3.org/2000/svg">
<path d="M7.41421 2.58579L8.12132 3.29289L8.12132 3.29289L7.41421 2.58579ZM2.58579 7.41421L1.87868 6.70711H1.87868L2.58579 7.41421ZM21.4142 7.41421L20.7071 8.12132L21.4142 7.41421ZM16.5858 2.58579L17.2929 1.87868V1.87868L16.5858 2.58579ZM16.5858 21.4142L17.2929 22.1213H17.2929L16.5858 21.4142ZM21.4142 16.5858L22.1213 17.2929V17.2929L21.4142 16.5858ZM2.58579 16.5858L1.87868 17.2929L1.87868 17.2929L2.58579 16.5858ZM7.41421 21.4142L6.70711 22.1213H6.70711L7.41421 21.4142ZM8 17C8 17.5523 8.44772 18 9 18C9.55228 18 10 17.5523 10 17H8ZM17 8C17.5523 8 18 7.55228 18 7C18 6.44772 17.5523 6 17 6V8ZM1 8.82843V15.1716H3V8.82843H1ZM23 15.1716V8.82843H21V15.1716H23ZM6.70711 1.87868L1.87868 6.70711L3.29289 8.12132L8.12132 3.29289L6.70711 1.87868ZM22.1213 6.70711L17.2929 1.87868L15.8787 3.29289L20.7071 8.12132L22.1213 6.70711ZM15.1716 1H8.82843V3H15.1716V1ZM17.2929 22.1213L22.1213 17.2929L20.7071 15.8787L15.8787 20.7071L17.2929 22.1213ZM1.87868 17.2929L6.70711 22.1213L8.12132 20.7071L3.29289 15.8787L1.87868 17.2929ZM8.82843 23H15.1716V21H8.82843V23ZM6.70711 22.1213C7.26972 22.6839 8.03278 23 8.82843 23V21C8.56321 21 8.30886 20.8946 8.12132 20.7071L6.70711 22.1213ZM17.2929 1.87868C16.7303 1.31607 15.9672 1 15.1716 1V3C15.4368 3 15.6911 3.10536 15.8787 3.29289L17.2929 1.87868ZM21 15.1716C21 15.4368 20.8946 15.6911 20.7071 15.8787L22.1213 17.2929C22.6839 16.7303 23 15.9672 23 15.1716H21ZM1 15.1716C1 15.9672 1.31607 16.7303 1.87868 17.2929L3.29289 15.8787C3.10536 15.6911 3 15.4368 3 15.1716H1ZM23 8.82843C23 8.03278 22.6839 7.26972 22.1213 6.70711L20.7071 8.12132C20.8946 8.30886 21 8.56321 21 8.82843H23ZM15.8787 20.7071C15.6911 20.8946 15.4368 21 15.1716 21V23C15.9672 23 16.7303 22.6839 17.2929 22.1213L15.8787 20.7071ZM3 8.82843C3 8.56321 3.10536 8.30886 3.29289 8.12132L1.87868 6.70711C1.31607 7.26972 1 8.03278 1 8.82843H3ZM8.12132 3.29289C8.30886 3.10536 8.56321 3 8.82843 3V1C8.03278 1 7.26972 1.31607 6.70711 1.87868L8.12132 3.29289ZM7 8H9V6H7V8ZM8 7V17H10V7H8ZM9 8H14V6H9V8ZM14 8H17V6H14V8ZM16 18H16.4762V16H16V18ZM13 7V15H15V7H13ZM16 16C15.4477 16 15 15.5523 15 15H13C13 16.6569 14.3431 18 16 18V16Z" fill="black"/>
</svg>
