<svg width="24" height="24" viewBox="0 0 24 24" fill="none" xmlns="http://www.w3.org/2000/svg">
<path fill-rule="evenodd" clip-rule="evenodd" d="M14.4722 6.71067C14.6258 6.26134 15.0147 6 15.4094 6H22C22.5523 6 23 5.55228 23 5C23 4.44772 22.5523 4 22 4H15.4094C14.1137 4 12.9947 4.84938 12.5797 6.06398L8.72563 17.3431L6.43683 13.7547C5.88925 12.8962 4.95269 12.3616 3.92963 12.3616H2C1.44772 12.3616 1 12.8093 1 13.3616C1 13.9139 1.44772 14.3616 2 14.3616H3.92963C4.24398 14.3616 4.55636 14.5256 4.75063 14.8302L7.60478 19.3049C8.29789 20.3916 9.88046 20.1488 10.2811 18.9764L14.4722 6.71067ZM16.7071 12.2929C16.3166 11.9024 15.6834 11.9024 15.2929 12.2929C14.9024 12.6834 14.9024 13.3166 15.2929 13.7071L16.5858 15L15.2929 16.2929C14.9024 16.6834 14.9024 17.3166 15.2929 17.7071C15.6834 18.0976 16.3166 18.0976 16.7071 17.7071L18 16.4142L19.2929 17.7071C19.6834 18.0976 20.3166 18.0976 20.7071 17.7071C21.0976 17.3166 21.0976 16.6834 20.7071 16.2929L19.4142 15L20.7071 13.7071C21.0976 13.3166 21.0976 12.6834 20.7071 12.2929C20.3166 11.9024 19.6834 11.9024 19.2929 12.2929L18 13.5858L16.7071 12.2929ZM5.75971 6.43459C5.70606 6.12464 5.90944 5.75 6.50791 5.75C6.96473 5.75 7.2783 6.14666 7.24791 6.49785C7.23208 6.68078 7.1609 6.80012 6.99504 6.93471C6.81741 7.07885 6.59459 7.19191 6.27895 7.35206C6.22551 7.37918 6.1694 7.40764 6.11041 7.43784C5.74798 7.62335 5.27966 7.87487 4.91253 8.274C4.51672 8.70431 4.27069 9.26689 4.27069 10C4.2707 10.4142 4.60648 10.75 5.02069 10.75H7.99512C8.40933 10.75 8.74512 10.4142 8.74512 10C8.74512 9.58579 8.40933 9.25 7.99512 9.25H6.0546C6.22073 9.08554 6.45782 8.94509 6.79385 8.7731C6.83763 8.75069 6.88421 8.72727 6.93293 8.70277L6.93294 8.70277C7.23768 8.54954 7.62643 8.35408 7.9402 8.09947C8.34599 7.77019 8.68379 7.30359 8.74233 6.62715C8.84925 5.39144 7.83577 4.25 6.50791 4.25C5.17296 4.25 4.03785 5.28161 4.28168 6.69041C4.35232 7.09855 4.74046 7.37215 5.1486 7.30151C5.55675 7.23087 5.83035 6.84274 5.75971 6.43459Z" fill="black"/>
</svg>
