<svg width="24" height="24" viewBox="0 0 24 24" fill="none" xmlns="http://www.w3.org/2000/svg">
<path d="M2 13.3616H3.92963C4.59834 13.3616 5.2228 13.7109 5.59373 14.2925L8.44788 18.7672C8.67595 19.1248 9.19648 19.0578 9.33477 18.6531L13.526 6.38732C13.8102 5.55536 14.5642 5 15.4094 5H22M16 17L18 15M20 13L18 15M18 15L20 17M18 15L16 13M7.99981 5L6.59981 8.5M6.59981 8.5L6.36352 9.09074C6.14385 9.6399 5.61197 10 5.02051 10M6.59981 8.5L5 5" stroke="black" stroke-width="2" stroke-linecap="round" stroke-linejoin="round"/>
</svg>
