<svg width="24" height="24" viewBox="0 0 24 24" fill="none" xmlns="http://www.w3.org/2000/svg">
<path fill-rule="evenodd" clip-rule="evenodd" d="M2.00015 4C3.8358 4.00007 4.93659 5.3269 5.65577 6.73183C5.97912 7.36349 6.26485 8.088 6.53067 8.84744C6.53069 8.84737 6.53072 8.84731 6.53075 8.84724C6.59247 9.02356 6.65311 9.20177 6.7129 9.38113C6.87452 9.86596 7.02992 10.3593 7.18348 10.8467C7.27338 11.1321 7.36266 11.4155 7.45218 11.694C7.48434 11.794 7.51726 11.8961 7.55074 11.9993C7.55067 11.9995 7.5506 11.9998 7.55052 12C8.08725 13.6641 8.59504 15.1634 9.29885 16.2789C9.92153 17.2658 10.6229 17.8403 11.5679 17.9712C11.6391 17.981 11.7116 17.9883 11.7855 17.9931C11.8514 17.9974 11.9183 17.9997 11.9865 18C11.991 18 11.9955 18 12 18C12.0001 18 12.0001 18 12.0002 18C13.1698 17.9999 13.9872 17.4105 14.7011 16.2789C14.9296 15.9168 15.1375 15.5142 15.3323 15.0786C15.6046 15.9052 15.9094 16.7603 16.2617 17.5472C15.3246 18.9423 13.986 19.9999 12.0002 20M8.66776 8.92117C8.8626 8.48571 9.0704 8.08319 9.29885 7.72111C10.0129 6.58949 10.8303 6 12 6C12.6506 6 13.1922 6.18237 13.6677 6.53895C14.047 6.82347 14.3843 7.21891 14.7011 7.72111C15.405 8.83659 15.9128 10.3359 16.4495 12L16.4461 12.0106L16.5215 12.2406C16.6249 12.557 16.7237 12.864 16.8167 13.1533L16.8167 13.1533L16.8167 13.1535C16.9703 13.641 17.1257 14.1343 17.2873 14.6191C17.3471 14.7983 17.4077 14.9764 17.4693 15.1526C17.5008 15.2424 17.5325 15.3317 17.5645 15.4205C17.8033 16.0821 18.0591 16.7112 18.3442 17.2682C19.0634 18.6731 20.1643 20 22 20C22.5523 20 23 19.5523 23 19C23 18.4477 22.5523 18 22 18C21.3357 18 20.7491 17.5769 20.1245 16.3568C19.7828 15.6892 19.4882 14.897 19.1959 14.0192C19.0553 13.597 18.9152 13.155 18.7707 12.6975L18.7416 12.6054L18.7416 12.6054L18.7295 12.5677L18.7294 12.5673C18.6367 12.2789 18.5337 11.9585 18.4223 11.6184C17.8778 9.95653 17.1309 7.82408 16.3926 6.65389L16.39 6.64971C15.9191 5.9044 15.3416 5.24226 14.6221 4.7663C14.4256 4.63627 14.2184 4.52014 14 4.42C13.4181 4.15324 12.7559 4 12 4C10.0141 4 8.67547 5.05756 7.73836 6.45269C8.09073 7.23949 8.39547 8.09465 8.66776 8.92117ZM2.00015 4C2.0001 4 2.00005 4 2 4C1.44772 4 1 4.44772 1 5C1 5.55228 1.44772 6 2 6C2.00005 6 2.0001 6 2.00015 6C2.66441 6 3.25109 6.42313 3.87563 7.64317C4.21739 8.3108 4.51197 9.10293 4.80428 9.9808C4.95426 10.4312 5.10364 10.9042 5.25849 11.3945L5.25853 11.3946C5.35258 11.6923 5.68037 12.7149 5.77981 13.0243C5.90126 13.3975 6.02659 13.7749 6.15835 14.1502C6.29249 14.5324 6.4333 14.9124 6.58345 15.2841C6.76926 15.7441 6.96939 16.1912 7.18893 16.6134C7.32107 16.8675 7.46024 17.1126 7.60755 17.3461C8.07908 18.0935 8.65776 18.7574 9.37897 19.2343C9.57524 19.3641 9.78206 19.48 10.0002 19.58C10.582 19.8467 11.2441 20 12 20M4.39718 15.1666C4.23238 15.5959 4.06087 15.9947 3.87548 16.3568C3.25093 17.5769 2.66426 18 2 18C1.44772 18 1 18.4477 1 19C1 19.5523 1.44772 20 2 20C3.6786 20 4.74272 18.8906 5.46247 17.6265C5.04567 16.8382 4.69771 15.9919 4.39718 15.1666ZM22 4C20.3173 4 19.2521 5.11487 18.5323 6.38282C18.9174 7.13863 19.2668 8.0038 19.5649 8.80649L19.5886 8.87053C19.7578 8.42712 19.9338 8.01576 20.1245 7.64317C20.7491 6.42313 21.3357 6 22 6C22.5523 6 23 5.55228 23 5C23 4.44772 22.5523 4 22 4Z" fill="black"/>
</svg>
