<svg width="24" height="24" viewBox="0 0 24 24" fill="none" xmlns="http://www.w3.org/2000/svg">
<path d="M9 16V16C9.55228 16 10 16.4477 10 17V19C10 19.5523 9.55228 20 9 20H3C2.44772 20 2 19.5523 2 19V17C2 16.4477 2.44772 16 3 16V16M9 16H3M9 16V13M3 16L3.85174 8.33435C3.93614 7.5747 4.57824 7 5.34256 7H7.5C8.32843 7 9 7.67157 9 8.5V10M15 16V16C14.4477 16 14 16.4477 14 17V19C14 19.5523 14.4477 20 15 20H21C21.5523 20 22 19.5523 22 19V17C22 16.4477 21.5523 16 21 16V16M15 16H21M15 16V13M21 16L20.1483 8.33435C20.0639 7.5747 19.4218 7 18.6574 7H16.5C15.6716 7 15 7.67157 15 8.5V10M9 10H15M9 10V13M15 10V13M9 13H15M5 6.5V5C5 4.44772 5.44772 4 6 4H7C7.55228 4 8 4.44772 8 5V6.5M16 6.5V5C16 4.44772 16.4477 4 17 4H18C18.5523 4 19 4.44772 19 5V6.5" stroke="black" stroke-width="2" stroke-linecap="round" stroke-linejoin="round"/>
</svg>
