<svg width="24" height="24" viewBox="0 0 24 24" fill="none" xmlns="http://www.w3.org/2000/svg">
<path d="M9 16V16C9.55228 16 10 16.4477 10 17V19C10 19.5523 9.55228 20 9 20H3C2.44772 20 2 19.5523 2 19V17C2 16.4477 2.44772 16 3 16V16M9 16H3M9 16V11M3 16L3.88538 5.37543C3.95017 4.59799 4.60007 4 5.3802 4H7.5C8.32843 4 9 4.67157 9 5.5V8M15 16V16C14.4477 16 14 16.4477 14 17V19C14 19.5523 14.4477 20 15 20H21C21.5523 20 22 19.5523 22 19V17C22 16.4477 21.5523 16 21 16V16M15 16H21M15 16V11M21 16L20.1146 5.37543C20.0498 4.59799 19.3999 4 18.6198 4H16.5C15.6716 4 15 4.67157 15 5.5V8M9 8H15M9 8V11M15 8V11M9 11H15M10 4H3M21 4H14" stroke="black" stroke-width="2" stroke-linecap="round" stroke-linejoin="round"/>
</svg>
