<svg width="24" height="24" viewBox="0 0 24 24" fill="none" xmlns="http://www.w3.org/2000/svg">
<path fill-rule="evenodd" clip-rule="evenodd" d="M6 3C4.89543 3 4 3.89543 4 5V6.39092C3.38091 6.78553 2.94422 7.44664 2.85785 8.22392L2.08011 15.2236C1.43841 15.5566 1 16.2271 1 17V19C1 20.1046 1.89543 21 3 21H9C10.1046 21 11 20.1046 11 19V17C11 16.2597 10.5978 15.6134 10 15.2676V14H14V15.2676C13.4022 15.6134 13 16.2597 13 17V19C13 20.1046 13.8954 21 15 21H21C22.1046 21 23 20.1046 23 19V17C23 16.2271 22.5616 15.5566 21.9199 15.2236L21.1421 8.22392C21.0558 7.44664 20.6191 6.78553 20 6.39092V5C20 3.89543 19.1046 3 18 3H17C15.8954 3 15 3.89543 15 5V6.49982C14.3928 6.95592 14 7.68209 14 8.5V9H10V8.5C10 7.68209 9.60722 6.95592 9 6.49982V5C9 3.89543 8.10457 3 7 3H6ZM7 6H6V5H7V6ZM3 19V17H9V19H3ZM4.84562 8.44478L4.11726 15H8V13V10V8.5C8 8.22386 7.77614 8 7.5 8H5.34256C5.08779 8 4.87376 8.19157 4.84562 8.44478ZM14 12H10V11H14V12ZM19.8827 15H16V13V10V8.5C16 8.22386 16.2239 8 16.5 8H18.6574C18.9122 8 19.1262 8.19157 19.1544 8.44478L19.8827 15ZM18 5V6H17V5H18ZM15 19V17H21V19H15ZM6.99935 9.5C6.99935 9.22386 6.77549 9 6.49935 9H5.96557C5.70298 9 5.48513 9.20313 5.46679 9.46509L5.18679 13.4651C5.16655 13.7543 5.39568 14 5.68557 14H6.49935C6.77549 14 6.99935 13.7761 6.99935 13.5V9.5ZM17 9.5C17 9.22386 17.2239 9 17.5 9H18.0338C18.2964 9 18.5142 9.20313 18.5326 9.46509L18.8126 13.4651C18.8328 13.7543 18.6037 14 18.3138 14H17.5C17.2239 14 17 13.7761 17 13.5V9.5Z" fill="black"/>
</svg>
