<svg width="24" height="24" viewBox="0 0 24 24" fill="none" xmlns="http://www.w3.org/2000/svg">
<path fill-rule="evenodd" clip-rule="evenodd" d="M5.3802 3C4.07998 3 2.99681 3.99666 2.88883 5.29239L2.06037 15.234C1.42943 15.5704 1 16.2351 1 17V19C1 20.1046 1.89543 21 3 21H9C10.1046 21 11 20.1046 11 19V17C11 16.2597 10.5978 15.6134 10 15.2676V12H11V12.5C11 13.0523 11.4477 13.5 12 13.5C12.5523 13.5 13 13.0523 13 12.5V12H14V15.2676C13.4022 15.6134 13 16.2597 13 17V19C13 20.1046 13.8954 21 15 21H21C22.1046 21 23 20.1046 23 19V17C23 16.2351 22.5706 15.5704 21.9396 15.234L21.1112 5.29239C21.0032 3.99666 19.92 3 18.6198 3H16.5C15.1193 3 14 4.11929 14 5.5V7H10V5.5C10 4.11929 8.88071 3 7.5 3H5.3802ZM3 19V17H9V19H3ZM4.88193 5.45848L4.0868 15H8V11V8V5.5C8 5.22386 7.77614 5 7.5 5H5.3802C5.12016 5 4.90352 5.19933 4.88193 5.45848ZM12 10H10V9H14V10H12ZM19.9132 15H16V11V8V5.5C16 5.22386 16.2239 5 16.5 5H18.6198C18.8798 5 19.0965 5.19933 19.1181 5.45848L19.9132 15ZM15 17H21V19H15V17ZM6.99935 9.5C6.99935 9.22386 6.77549 9 6.49935 9H5.96557C5.70298 9 5.48513 9.20313 5.46679 9.46509L5.18679 13.4651C5.16655 13.7543 5.39568 14 5.68557 14H6.49935C6.77549 14 6.99935 13.7761 6.99935 13.5V9.5ZM17 9.5C17 9.22386 17.2239 9 17.5 9H18.0338C18.2964 9 18.5142 9.20313 18.5326 9.46509L18.8126 13.4651C18.8328 13.7543 18.6037 14 18.3138 14H17.5C17.2239 14 17 13.7761 17 13.5V9.5Z" fill="black"/>
</svg>
