<svg width="24" height="24" viewBox="0 0 24 24" fill="none" xmlns="http://www.w3.org/2000/svg">
<path d="M4 21L7.55556 13M20 21L16.4444 13M3 21H10M21 21H14M10 21V18C10 17.4477 10.4477 17 11 17H13C13.5523 17 14 17.4477 14 18V21M10 21H14M12 10H12.01M7.55556 13L11.0862 5.05608C11.4381 4.26426 12.5619 4.26426 12.9138 5.05608L16.4444 13M7.55556 13L9.12847 13.3539C9.54998 13.4487 9.99087 13.4045 10.3852 13.2279L11.1886 12.868C11.711 12.634 12.3086 12.635 12.8301 12.8707L13.6124 13.2243C14.0081 13.4032 14.4514 13.4484 14.8752 13.3531L16.4444 13" stroke="black" stroke-width="2" stroke-linecap="round" stroke-linejoin="round"/>
</svg>
