<svg width="24" height="24" viewBox="0 0 24 24" fill="none" xmlns="http://www.w3.org/2000/svg">
<path d="M3 20L6.69674 9.83397C6.89648 9.28467 7.21419 8.78581 7.62748 8.37252L10.9393 5.06066C11.5251 4.47487 12.4749 4.47487 13.0607 5.06066L16.3725 8.37252C16.7858 8.78581 17.1035 9.28467 17.3033 9.83397L21 20M2 20H7M22 20H17M7 20V9.5M7 20H17M7 20C9.0247 17.9753 10.3662 15.7229 11.1781 13.3964C11.3686 12.8505 12.6314 12.8505 12.8219 13.3964C13.6338 15.7229 14.9753 17.9753 17 20M17 20V9.5M12 9H12.01" stroke="black" stroke-width="2" stroke-linecap="round" stroke-linejoin="round"/>
</svg>
