<svg width="24" height="24" viewBox="0 0 24 24" fill="none" xmlns="http://www.w3.org/2000/svg">
<path d="M4 22L19.9996 14M19.9996 22L4 14M12 9.99834C12.889 9.99834 13.5 9.22067 13.5 8.34448M10.1651 6.43049C9.81533 5.93807 9.72744 5.09153 9.70605 4.76636C9.70166 4.70376 9.63545 4.66856 9.58242 4.70002C8.50225 5.34505 7.5 6.87091 7.5 8.34412C7.5 10.8751 9.15352 12.9983 12 12.9983C14.6669 12.9983 16.5 10.81 16.5 8.34443C16.5 5.11831 14.3314 2.97483 12.3999 2.00587C12.3547 1.98321 12.2948 2.02986 12.3015 2.0825C12.5502 3.82108 12.2065 5.71196 10.1968 6.43984C10.1857 6.44407 10.1726 6.44018 10.1651 6.43049Z" stroke="black" stroke-width="2" stroke-linecap="round" stroke-linejoin="round"/>
</svg>
