<svg width="24" height="24" viewBox="0 0 24 24" fill="none" xmlns="http://www.w3.org/2000/svg">
<path fill-rule="evenodd" clip-rule="evenodd" d="M12 1C8.96271 1 6.21134 2.23231 4.22183 4.22183C2.23231 6.21134 1 8.96271 1 12C1 15.0373 2.23231 17.7887 4.22183 19.7782C6.21134 21.7677 8.96271 23 12 23C15.0373 23 17.7887 21.7677 19.7782 19.7782C21.7677 17.7887 23 15.0373 23 12C23 8.96271 21.7677 6.21134 19.7782 4.22183C17.7887 2.23231 15.0373 1 12 1ZM6.34315 6.34315C6.72058 5.96571 6.73323 5.36162 6.38109 4.969C7.67649 3.93219 9.26351 3.24666 11 3.05487V4.92893C11 5.48122 11.4477 5.92893 12 5.92893C12.5523 5.92893 13 5.48122 13 4.92893V3.05487C14.7365 3.24666 16.3235 3.93219 17.6189 4.969C17.2668 5.36163 17.2794 5.96571 17.6569 6.34315C18.0343 6.72058 18.6384 6.73323 19.031 6.38109C20.0678 7.67649 20.7533 9.26351 20.9451 11H19C18.4477 11 18 11.4477 18 12C18 12.5523 18.4477 13 19 13H20.9451C20.7533 14.7365 20.0678 16.3235 19.031 17.6189C18.6384 17.2668 18.0343 17.2794 17.6569 17.6569C17.2794 18.0343 17.2668 18.6384 17.6189 19.031C16.3235 20.0678 14.7365 20.7533 13 20.9451V19C13 18.4477 12.5523 18 12 18C11.4477 18 11 18.4477 11 19V20.9451C9.26351 20.7533 7.67649 20.0678 6.38109 19.031C6.73323 18.6384 6.72058 18.0343 6.34315 17.6569C5.96571 17.2794 5.36163 17.2668 4.969 17.6189C3.93219 16.3235 3.24666 14.7365 3.05487 13H4.92893C5.48122 13 5.92893 12.5523 5.92893 12C5.92893 11.4477 5.48122 11 4.92893 11H3.05487C3.24666 9.26351 3.93219 7.67649 4.969 6.38109C5.36162 6.73323 5.96571 6.72058 6.34315 6.34315ZM15.6813 7.63195L10.7456 9.3356C10.0857 9.56339 9.56321 10.0858 9.33542 10.7458L7.63178 15.6815C7.48269 16.1134 7.88632 16.517 8.31825 16.3679L13.254 14.6643C13.9139 14.4365 14.4363 13.9141 14.6641 13.2541L16.3678 8.31843C16.5169 7.88649 16.1132 7.48286 15.6813 7.63195ZM11.2927 11.2928C10.9021 11.6834 10.9021 12.3165 11.2927 12.7071C11.6832 13.0976 12.3164 13.0976 12.7069 12.7071C13.0974 12.3165 13.0974 11.6834 12.7069 11.2928C12.3164 10.9023 11.6832 10.9023 11.2927 11.2928Z" fill="black"/>
</svg>
