<svg width="24" height="24" viewBox="0 0 24 24" fill="none" xmlns="http://www.w3.org/2000/svg">
<path fill-rule="evenodd" clip-rule="evenodd" d="M12 1C5.92487 1 1 5.92487 1 12C1 18.0751 5.92487 23 12 23C18.0751 23 23 18.0751 23 12C23 5.92487 18.0751 1 12 1ZM3 12C3 7.02944 7.02944 3 12 3C16.9706 3 21 7.02944 21 12C21 16.9706 16.9706 21 12 21C7.02944 21 3 16.9706 3 12ZM15.6813 7.63195L10.7456 9.3356C10.0857 9.56339 9.56321 10.0858 9.33542 10.7458L7.63178 15.6815C7.48269 16.1134 7.88632 16.517 8.31825 16.3679L13.254 14.6643C13.9139 14.4365 14.4363 13.9141 14.6641 13.2541L16.3678 8.31843C16.5169 7.88649 16.1132 7.48286 15.6813 7.63195ZM11.2927 11.2928C10.9021 11.6834 10.9021 12.3165 11.2927 12.7071C11.6832 13.0976 12.3164 13.0976 12.7069 12.7071C13.0974 12.3165 13.0974 11.6834 12.7069 11.2928C12.3164 10.9023 11.6832 10.9023 11.2927 11.2928Z" fill="black"/>
</svg>
