<svg width="24" height="24" viewBox="0 0 24 24" fill="none" xmlns="http://www.w3.org/2000/svg">
<path fill-rule="evenodd" clip-rule="evenodd" d="M12 1C8.96271 1 6.21134 2.23231 4.22183 4.22183C2.23231 6.21134 1 8.96271 1 12C1 15.0373 2.23231 17.7887 4.22183 19.7782C6.21134 21.7677 8.96271 23 12 23C15.0373 23 17.7887 21.7677 19.7782 19.7782C21.7677 17.7887 23 15.0373 23 12C23 8.96271 21.7677 6.21134 19.7782 4.22183C17.7887 2.23231 15.0373 1 12 1ZM5.63604 5.63604C7.04416 4.22791 8.91426 3.28524 11 3.05487V4C11 4.55228 11.4477 5 12 5C12.5523 5 13 4.55228 13 4V3.05487C15.0857 3.28524 16.9558 4.22791 18.364 5.63604C19.7721 7.04416 20.7148 8.91426 20.9451 11H20C19.4477 11 19 11.4477 19 12C19 12.5523 19.4477 13 20 13H20.9451C20.7148 15.0857 19.7721 16.9558 18.364 18.364C16.9558 19.7721 15.0857 20.7148 13 20.9451V20C13 19.4477 12.5523 19 12 19C11.4477 19 11 19.4477 11 20V20.9451C8.91426 20.7148 7.04416 19.7721 5.63604 18.364C4.22791 16.9558 3.28524 15.0857 3.05487 13H4C4.55228 13 5 12.5523 5 12C5 11.4477 4.55228 11 4 11H3.05487C3.28524 8.91426 4.22791 7.04416 5.63604 5.63604ZM15.6813 7.63195L10.7456 9.3356C10.0857 9.56339 9.56321 10.0858 9.33542 10.7458L7.63178 15.6815C7.48269 16.1134 7.88632 16.517 8.31825 16.3679L13.254 14.6643C13.9139 14.4365 14.4363 13.9141 14.6641 13.2541L16.3678 8.31843C16.5169 7.88649 16.1132 7.48286 15.6813 7.63195ZM11.2927 11.2928C10.9021 11.6834 10.9021 12.3165 11.2927 12.7071C11.6832 13.0976 12.3164 13.0976 12.7069 12.7071C13.0974 12.3165 13.0974 11.6834 12.7069 11.2928C12.3164 10.9023 11.6832 10.9023 11.2927 11.2928Z" fill="black"/>
</svg>
