<svg width="24" height="24" viewBox="0 0 24 24" fill="none" xmlns="http://www.w3.org/2000/svg">
<path fill-rule="evenodd" clip-rule="evenodd" d="M12 1C8.96271 1 6.21134 2.23231 4.22183 4.22183C2.23231 6.21134 1 8.96271 1 12C1 15.0373 2.23231 17.7887 4.22183 19.7782C6.21134 21.7677 8.96271 23 12 23C15.0373 23 17.7887 21.7677 19.7782 19.7782C21.7677 17.7887 23 15.0373 23 12C23 8.96271 21.7677 6.21134 19.7782 4.22183C17.7887 2.23231 15.0373 1 12 1ZM7.05025 5.63604L6.38227 4.96806C7.67745 3.93178 9.26403 3.24661 11 3.05487V4C11 4.55228 11.4477 5 12 5C12.5523 5 13 4.55228 13 4V3.05487C14.736 3.2466 16.3226 3.93178 17.6177 4.96806L16.9497 5.63604C16.5592 6.02656 16.5592 6.65973 16.9497 7.05025C17.3403 7.44078 17.9734 7.44078 18.364 7.05025L19.0319 6.38227C20.0682 7.67745 20.7534 9.26403 20.9451 11H20C19.4477 11 19 11.4477 19 12C19 12.5523 19.4477 13 20 13H20.9451C20.7534 14.736 20.0682 16.3226 19.0319 17.6177L18.364 16.9497C17.9734 16.5592 17.3403 16.5592 16.9497 16.9497C16.5592 17.3403 16.5592 17.9734 16.9497 18.364L17.6177 19.0319C16.3226 20.0682 14.736 20.7534 13 20.9451V20C13 19.4477 12.5523 19 12 19C11.4477 19 11 19.4477 11 20V20.9451C9.26403 20.7534 7.67745 20.0682 6.38227 19.0319L7.05025 18.364C7.44078 17.9734 7.44078 17.3403 7.05025 16.9497C6.65973 16.5592 6.02656 16.5592 5.63604 16.9497L4.96806 17.6177C3.93178 16.3226 3.2466 14.736 3.05487 13H4C4.55228 13 5 12.5523 5 12C5 11.4477 4.55228 11 4 11H3.05487C3.24661 9.26403 3.93178 7.67745 4.96806 6.38227L5.63604 7.05025C6.02656 7.44078 6.65973 7.44078 7.05025 7.05025C7.44078 6.65973 7.44078 6.02656 7.05025 5.63604ZM15.6813 7.63195L10.7456 9.3356C10.0857 9.56339 9.56321 10.0858 9.33542 10.7458L7.63178 15.6815C7.48269 16.1134 7.88632 16.517 8.31825 16.3679L13.254 14.6643C13.9139 14.4365 14.4363 13.9141 14.6641 13.2541L16.3678 8.31843C16.5169 7.88649 16.1132 7.48286 15.6813 7.63195ZM11.2927 11.2928C10.9021 11.6834 10.9021 12.3165 11.2927 12.7071C11.6832 13.0976 12.3164 13.0976 12.7069 12.7071C13.0974 12.3165 13.0974 11.6834 12.7069 11.2928C12.3164 10.9023 11.6832 10.9023 11.2927 11.2928Z" fill="black"/>
</svg>
