<svg width="24" height="24" viewBox="0 0 24 24" fill="none" xmlns="http://www.w3.org/2000/svg">
<path d="M13 21.9518C12.6763 21.9835 12.3428 22 12 22C10.8996 22 9.89602 21.8305 9 21.5287M13 21.9518C17.3973 21.52 20 18.26 20 15C20 11.937 18.8512 10.7887 17.5589 9.54426C17.3837 9.37556 17.0776 9.53187 17.0984 9.77419C17.3186 12.3391 16.3669 14 15 14C13.5 14 12.678 12.6098 13 11C13.4507 8.74648 13.9014 4.86789 11.0562 2.66015C10.5508 2.26796 9.85322 2.59343 9.66641 3.2053C7.58767 10.014 4 10.2647 4 15C4 17.7297 5.8248 20.4594 9 21.5287M13 21.9518C13.5 16.5 10.5 13.5 8 12C10 16.5 5.5 17 9 21.5287" stroke="black" stroke-width="2" stroke-linecap="round" stroke-linejoin="round"/>
</svg>
