<svg width="24" height="24" viewBox="0 0 24 24" fill="none" xmlns="http://www.w3.org/2000/svg">
<path fill-rule="evenodd" clip-rule="evenodd" d="M6 2C3.79086 2 2 3.79086 2 6V18C2 20.2091 3.79086 22 6 22H18C20.2091 22 22 20.2091 22 18V6C22 3.79086 20.2091 2 18 2H6ZM4 6C4 4.89543 4.89543 4 6 4H18C19.1046 4 20 4.89543 20 6V18C20 19.1046 19.1046 20 18 20H6C4.89543 20 4 19.1046 4 18V6ZM8.36117 10.6312C7.6011 11.5792 7 12.329 7 13.8C7 15.9 8.875 18 12 18C15.125 18 17 15.9 17 13.8C17 11.9506 16.2729 11.2646 15.459 10.5124C15.3526 10.4141 15.1723 10.5093 15.1855 10.6536C15.327 12.1988 14.7313 13.2 13.875 13.2C12.9375 13.2 12.4238 12.3659 12.625 11.4C12.9258 9.95625 13.2266 7.4008 11.0195 6.14118C10.8829 6.06321 10.7126 6.14417 10.6698 6.29553C10.0341 8.54463 9.11869 9.68641 8.36117 10.6312Z" fill="black"/>
</svg>
