<svg width="24" height="24" viewBox="0 0 24 24" fill="none" xmlns="http://www.w3.org/2000/svg">
<path d="M8 15C8.25 16.75 10 18.25 12 18M4 14C4 9.26469 6.24232 5.4263 12.0011 2.48484C12.2385 2.3636 12.4892 2.66893 12.3436 2.89221C10.2719 6.07066 9.36522 11.2739 13 14C14.4522 12.0637 13.0926 8.25296 15.7266 7.1046C15.8674 7.04321 16.0223 7.13755 16.0585 7.28685C16.7254 10.037 20 10.6473 20 15C20 18.5 17 22 12 22C7 22 4 18 4 14Z" stroke="black" stroke-width="2" stroke-linecap="round" stroke-linejoin="round"/>
</svg>
