<svg width="24" height="24" viewBox="0 0 24 24" fill="none" xmlns="http://www.w3.org/2000/svg">
<path d="M8 15C8.25 16.75 10 18.25 12 18M4 15C4 10.2647 7.58767 10.014 9.66641 3.2053C9.85322 2.59343 10.5508 2.26796 11.0562 2.66015C13.9014 4.86789 13.4507 8.74648 13 11C12.678 12.6098 13.5 14 15 14C16.3669 14 17.3186 12.3391 17.0984 9.77419C17.0776 9.53187 17.3837 9.37556 17.5589 9.54426C18.8512 10.7887 20 11.937 20 15C20 18.5 17 22 12 22C7 22 4 18.5 4 15Z" stroke="black" stroke-width="2" stroke-linecap="round" stroke-linejoin="round"/>
</svg>
