<svg width="24" height="24" viewBox="0 0 24 24" fill="none" xmlns="http://www.w3.org/2000/svg">
<path d="M12 22C7 22 4 18 4 14C4 9.1853 6.31814 5.29785 12.2937 2.33766C12.5118 2.22964 12.7365 2.4694 12.6222 2.68422C10.8824 5.95412 10.1304 9.19553 12 12C12.9484 9.15468 13.8969 8.10844 15.6985 7.15496C15.8471 7.07628 16.0282 7.16894 16.0697 7.33192C16.7613 10.0438 20 10.6712 20 15C20 18.5 17 22 12 22ZM12 22C13.875 22 15 20.4 15 18.8C15 16.8 13.5 15.5 10 15C11 17.5 9 17 9 19.2C9 20.6 10.125 22 12 22Z" stroke="black" stroke-width="2" stroke-linecap="round" stroke-linejoin="round"/>
</svg>
