<svg width="24" height="24" viewBox="0 0 24 24" fill="none" xmlns="http://www.w3.org/2000/svg">
<path d="M12 7V5.57143M12 7H9.75C7.67893 7 6 5.40102 6 3.42857V2.5C6 2.22386 6.22386 2 6.5 2H8.25C10.3211 2 12 3.59898 12 5.57143M12 7H14.25C16.3211 7 18 5.40102 18 3.42857V2.5C18 2.22386 17.7761 2 17.5 2H15.75C13.6789 2 12 3.59898 12 5.57143M12 7V11M11 15H13M10.4594 21H13.5406C14.9706 21 16.2019 19.9906 16.4823 18.5883L17.6412 12.7942C17.8268 11.866 17.1169 11 16.1703 11H7.82971C6.88314 11 6.1732 11.866 6.35884 12.7942L7.51767 18.5883C7.79812 19.9906 9.02937 21 10.4594 21Z" stroke="black" stroke-width="2" stroke-linecap="round" stroke-linejoin="round"/>
</svg>
