<svg width="24" height="24" viewBox="0 0 24 24" fill="none" xmlns="http://www.w3.org/2000/svg">
<path d="M17.4446 8.55552L15.7779 10.2222M15.7779 10.2222C14.4445 8.88884 14.6667 6.88885 15.7779 5.77775C17.1112 4.44442 18.8894 4 22.0006 4C22.0006 7.1111 21.5559 8.88887 20.2225 10.2222C19.1113 11.3333 17.1112 11.5555 15.7779 10.2222ZM15.7779 10.2222V10.2222C14.6145 11.3855 13.7892 12.843 13.3902 14.4391L12 20L10.6102 14.4391C10.2114 12.8431 9.38611 11.3854 8.22278 10.2222V10.2222M8.22278 10.2222C9.55617 8.88884 9.33394 6.88885 8.22278 5.77775C6.88939 4.44442 5.11125 4 2 4C2 7.1111 2.44475 8.88887 3.77814 10.2222C4.8893 11.3333 6.88939 11.5555 8.22278 10.2222ZM8.22278 10.2222L6.556 8.55552" stroke="black" stroke-width="2" stroke-linecap="round" stroke-linejoin="round"/>
</svg>
