<svg width="24" height="24" viewBox="0 0 24 24" fill="none" xmlns="http://www.w3.org/2000/svg">
<path d="M12 9V7M12 9H9C6.23858 9 4 6.76142 4 4V2.5C4 2.22386 4.22386 2 4.5 2H7C9.76142 2 12 4.23858 12 7M12 9H15C17.7614 9 20 6.76142 20 4V2.5C20 2.22386 19.7761 2 19.5 2H17C14.2386 2 12 4.23858 12 7M12 9V13M12 13H18C19.1046 13 20 13.8954 20 15V15C20 16.1046 19.1046 17 18 17V17M12 13H6C4.89543 13 4 13.8954 4 15V15C4 16.1046 4.89543 17 6 17V17M6 17L6.51767 19.5883C6.79812 20.9906 8.02937 22 9.45941 22H14.5406C15.9706 22 17.2019 20.9906 17.4823 19.5883L18 17M6 17H18" stroke="black" stroke-width="2" stroke-linecap="round" stroke-linejoin="round"/>
</svg>
