<svg width="24" height="24" viewBox="0 0 24 24" fill="none" xmlns="http://www.w3.org/2000/svg">
<path d="M16.5182 18.6846C17.665 17.5377 18.5511 16.2603 19.2208 14.7634M16.5182 18.6846V18.6846ZM16.5182 18.6846C13.7175 21.4854 8.67618 22.0455 5.31534 18.6846M16.5182 18.6846L5.31534 18.6846M21 3C13.1581 3.00001 8.67616 4.12031 5.31534 7.48128C2.51463 10.2821 1.95449 15.3236 5.31534 18.6846M21 3L17.0788 6.92114M21 3C21 4.41158 20.9637 5.71427 20.8845 6.92114M5.31534 18.6846L9.2365 14.7634M13.1577 10.8423L9.2365 14.7634M13.1577 10.8423L17.0788 6.92114M13.1577 10.8423H20.4093M9.2365 14.7634H19.2208M17.0788 6.92114H20.8845M19.2208 14.7634C19.7402 13.6023 20.1295 12.3091 20.4093 10.8423M20.4093 10.8423C20.6356 9.6561 20.7904 8.35638 20.8845 6.92114" stroke="black" stroke-width="2" stroke-linecap="round" stroke-linejoin="round"/>
</svg>
