<svg width="24" height="24" viewBox="0 0 24 24" fill="none" xmlns="http://www.w3.org/2000/svg">
<path d="M3 20.9999L7 16.9999M20.9999 3C13.9999 3 10 3.99994 7 6.99994C4.5 9.49994 4 13.9999 7 16.9999M20.9999 3L17.5 6.49999M20.9999 3C20.9999 9.59573 20.1122 13.528 17.5 16.4698M7 16.9999L10.5 13.5M7 16.9999C8.03586 18.0358 9.25054 18.6544 10.5 18.9174M14 9.99997L10.5 13.5M14 9.99997L17.5 6.49999M14 9.99997V18.7669M10.5 13.5V18.9174M17.5 6.49999V16.4698M10.5 18.9174C11.6759 19.165 12.8826 19.0977 14 18.7669M14 18.7669C15.1338 18.4313 16.1756 17.8244 17 17C17.1733 16.8267 17.3398 16.6501 17.5 16.4698" stroke="black" stroke-width="2" stroke-linecap="round" stroke-linejoin="round"/>
</svg>
