<svg width="24" height="24" viewBox="0 0 24 24" fill="none" xmlns="http://www.w3.org/2000/svg">
<path d="M12 10V8M12 10H9C6.23858 10 4 7.76142 4 5V3.5C4 3.22386 4.22386 3 4.5 3H7C9.76142 3 12 5.23858 12 8M12 10H15C17.7614 10 20 7.76142 20 5V3.5C20 3.22386 19.7761 3 19.5 3H17C14.2386 3 12 5.23858 12 8M12 10V13M12 13H19.3008C20.2031 13 20.9012 13.7908 20.7892 14.6861L20.438 17.4961C20.1878 19.4979 18.4862 21 16.4689 21H7.53113C5.51384 21 3.81223 19.4979 3.56202 17.4961L3.21076 14.6861C3.09885 13.7908 3.79693 13 4.69917 13H12ZM9 17H15" stroke="black" stroke-width="2" stroke-linecap="round" stroke-linejoin="round"/>
</svg>
