<svg width="24" height="24" viewBox="0 0 24 24" fill="none" xmlns="http://www.w3.org/2000/svg">
<path d="M12 9V7M12 9H9C6.23858 9 4 6.76142 4 4V2.5C4 2.22386 4.22386 2 4.5 2H7C9.76142 2 12 4.23858 12 7M12 9H15C17.7614 9 20 6.76142 20 4V2.5C20 2.22386 19.7761 2 19.5 2H17C14.2386 2 12 4.23858 12 7M12 9V13M12 13H19C19.5523 13 20 13.4477 20 14V15.3379C20 15.7785 19.9636 16.2184 19.8912 16.6531L19.4178 19.4932C19.1767 20.9398 17.9251 22 16.4586 22H7.54138C6.07486 22 4.82329 20.9398 4.5822 19.4932L4.10885 16.6531C4.03641 16.2184 4 15.7785 4 15.3379V14C4 13.4477 4.44772 13 5 13H12ZM4.5 16H19.5" stroke="black" stroke-width="2" stroke-linecap="round" stroke-linejoin="round"/>
</svg>
