<svg width="24" height="24" viewBox="0 0 24 24" fill="none" xmlns="http://www.w3.org/2000/svg">
<path d="M15.9572 20H4.04277C2.54496 20 1.55769 18.5014 2.19888 17.2012L5.40935 10.6909M15.9572 20C17.455 20 18.4423 18.5014 17.8011 17.2012L14.5906 10.6909M15.9572 20H20.4679C21.5913 20 22.3317 18.8761 21.8508 17.9009L17.3825 8.83978C16.9078 7.87862 15.6181 7.74252 14.9127 8.4315C14.7961 8.54535 14.6954 8.68173 14.6171 8.84064L14.1477 9.79256M5.40935 10.6909L8.15611 5.12085C8.89308 3.62639 11.1069 3.62638 11.8439 5.12085L14.1477 9.79256M5.40935 10.6909L7.04808 10.3411C7.47452 10.25 7.92012 10.2929 8.31932 10.4633L9.17136 10.8271C9.69891 11.0523 10.3011 11.0523 10.8286 10.8271L11.6807 10.4633C12.0799 10.2929 12.5255 10.25 12.9519 10.3411L14.5906 10.6909M14.5906 10.6909L14.1477 9.79256M16 5H20M2 8H3M4 4H5" stroke="black" stroke-width="2" stroke-linecap="round" stroke-linejoin="round"/>
</svg>
