<svg width="24" height="24" viewBox="0 0 24 24" fill="none" xmlns="http://www.w3.org/2000/svg">
<path d="M6.83552 10.5272L9.92563 4.26095C10.7547 2.57968 13.2453 2.57968 14.0744 4.26095L17.1645 10.5272M6.83552 10.5272L3.22374 17.8514C2.5024 19.3141 3.61308 21 5.29811 21H18.7019C20.3869 21 21.4976 19.3141 20.7763 17.8514L17.1645 10.5272M6.83552 10.5272L8.67909 10.1337C9.15884 10.0313 9.66014 10.0795 10.1092 10.2712L11.0678 10.6804C11.6613 10.9338 12.3387 10.9338 12.9322 10.6804L13.8908 10.2712C14.3399 10.0795 14.8412 10.0313 15.3209 10.1337L17.1645 10.5272" stroke="black" stroke-width="2" stroke-linecap="round" stroke-linejoin="round"/>
</svg>
