<svg width="24" height="24" viewBox="0 0 24 24" fill="none" xmlns="http://www.w3.org/2000/svg">
<path d="M6.83552 10.5272L9.92563 4.26095C10.7547 2.57968 13.2453 2.57968 14.0744 4.26095L14.6616 5.45176M6.83552 10.5272L3.22374 17.8514C2.5024 19.3141 3.61308 21 5.29811 21H18.7019C20.3869 21 21.4976 19.3141 20.7763 17.8514L17.3969 10.9985M6.83552 10.5272L8.67909 10.1337C9.15884 10.0313 9.66014 10.0795 10.1092 10.2712L11.0678 10.6804C11.6613 10.9338 12.3387 10.9338 12.9322 10.6804L13.8908 10.2712C14.2908 10.1004 14.7323 10.0435 15.163 10.1055C15.2158 10.1131 15.2685 10.1225 15.3209 10.1337L17.1645 10.5272M17.3969 10.9985L17.1645 10.5272M17.3969 10.9985C17.4311 10.9995 17.4655 11 17.5 11C19.433 11 21 9.433 21 7.5C21 5.567 19.433 4 17.5 4C16.3319 4 15.2974 4.57227 14.6616 5.45176M17.1645 10.5272L14.6616 5.45176" stroke="black" stroke-width="2" stroke-linecap="round" stroke-linejoin="round"/>
</svg>
