<svg width="24" height="24" viewBox="0 0 24 24" fill="none" xmlns="http://www.w3.org/2000/svg">
<path d="M5 17.5V17.5C5 16.1193 6.11929 15 7.5 15V15C8.88071 15 10 16.1193 10 17.5V17.5M5 17.5V17.5C5 18.8807 6.11929 20 7.5 20V20C8.88071 20 10 18.8807 10 17.5V17.5M5 17.5H3.5C2.67157 17.5 2 16.8284 2 16V8C2 5.79086 3.79086 4 6 4H16C18.2091 4 20 5.79086 20 8V16C20 16.8284 19.3284 17.5 18.5 17.5H10M22 17.5H18M14 14.5H16M6.5 11.5H15.5C16.0523 11.5 16.5 11.0523 16.5 10.5V8.5C16.5 7.94772 16.0523 7.5 15.5 7.5H6.5C5.94772 7.5 5.5 7.94772 5.5 8.5V10.5C5.5 11.0523 5.94771 11.5 6.5 11.5Z" stroke="black" stroke-width="2" stroke-linecap="round" stroke-linejoin="round"/>
</svg>
