<svg width="24" height="24" viewBox="0 0 24 24" fill="none" xmlns="http://www.w3.org/2000/svg">
<path d="M5 17.5V17.5C5 16.1193 6.11929 15 7.5 15V15C8.88071 15 10 16.1193 10 17.5V17.5M5 17.5V17.5C5 18.8807 6.11929 20 7.5 20V20C8.88071 20 10 18.8807 10 17.5V17.5M5 17.5H3.5C2.67157 17.5 2 16.8284 2 16V11M10 17.5H18.5C19.3284 17.5 20 16.8284 20 16V11M22 17.5H18M2 11V8C2 5.79086 3.79086 4 6 4H8M2 11H8M20 11V8C20 5.79086 18.2091 4 16 4H14M20 11H14M8 4V11M8 4H14M8 11H14M14 4V11" stroke="black" stroke-width="2" stroke-linecap="round" stroke-linejoin="round"/>
</svg>
