<svg width="24" height="24" viewBox="0 0 24 24" fill="none" xmlns="http://www.w3.org/2000/svg">
<path d="M5 17.5V17.5C5 16.1193 6.11929 15 7.5 15V15C8.88071 15 10 16.1193 10 17.5V17.5M5 17.5V17.5C5 18.8807 6.11929 20 7.5 20V20C8.88071 20 10 18.8807 10 17.5V17.5M5 17.5H3.5C2.67157 17.5 2 16.8284 2 16V8C2 5.79086 3.79086 4 6 4H16C18.2091 4 20 5.79086 20 8V16C20 16.8284 19.3284 17.5 18.5 17.5H10M22 17.5H18M13.5 14H15.5C15.7761 14 16 13.7761 16 13.5V8.5C16 8.22386 15.7761 8 15.5 8H13.5C13.2239 8 13 8.22386 13 8.5V13.5C13 13.7761 13.2239 14 13.5 14ZM6.5 11H8.5C8.77614 11 9 10.7761 9 10.5V8.5C9 8.22386 8.77614 8 8.5 8H6.5C6.22386 8 6 8.22386 6 8.5V10.5C6 10.7761 6.22386 11 6.5 11Z" stroke="black" stroke-width="2" stroke-linecap="round" stroke-linejoin="round"/>
</svg>
