<svg width="24" height="24" viewBox="0 0 24 24" fill="none" xmlns="http://www.w3.org/2000/svg">
<path d="M12 13L9 10M12 13V22M12 13L15 10M16 16.8293C17.1652 16.4175 18 15.3062 18 14V14C18 13.8998 18.0608 13.8089 18.1533 13.7703C19.2377 13.3184 20 12.2482 20 11C20 10.6589 19.9431 10.3311 19.8382 10.0256C19.722 9.68707 19.722 9.31292 19.8382 8.97444C19.9431 8.66892 20 8.34111 20 8C20 6.83541 19.3364 5.82581 18.3667 5.32869C18.0694 5.17625 17.8237 4.93063 17.6713 4.63328C17.1742 3.66359 16.1646 3 15 3C14.7986 3 14.6019 3.01984 14.4116 3.05768C13.8912 3.16118 13.3132 3.0177 12.9032 2.68088C12.3854 2.25541 11.7225 2 11 2C9.7518 2 8.68164 2.7623 8.22968 3.84674C8.19113 3.93924 8.10021 4 8 4V4C6.34315 4 5 5.34315 5 7C5 7.20139 5.01984 7.39815 5.05768 7.58842C5.16118 8.10881 5.0177 8.68684 4.68088 9.0968C4.25541 9.61463 4 10.2775 4 11C4 12.2482 4.7623 13.3184 5.84675 13.7703C5.93924 13.8089 6 13.8998 6 14V14C6 15.3062 6.8348 16.4175 7.99999 16.8293" stroke="black" stroke-width="2" stroke-linecap="round" stroke-linejoin="round"/>
</svg>
