<svg width="24" height="24" viewBox="0 0 24 24" fill="none" xmlns="http://www.w3.org/2000/svg">
<path d="M12.2466 7.27441L9.92194 2.56042C9.55346 1.81319 8.44654 1.81319 8.07806 2.56042L5.09944 8.60061C4.77885 9.25072 5.27248 10 6.02138 10H6.16272L5.09944 12.4257C4.77885 13.1571 5.27248 14 6.02138 14H6.16272L5.09944 16.4257C4.77885 17.1571 5.27248 18 6.02138 18H9M12.2466 7.27441L14.0781 3.56042C14.4465 2.81319 15.5535 2.81319 15.9219 3.56042L18.9006 9.60061C19.2212 10.2507 18.7275 11 17.9786 11H17.8373L18.9006 13.4257C19.2212 14.1571 18.7275 15 17.9786 15H17.8373L18.9006 17.4257C19.2212 18.1571 18.7275 19 17.9786 19H15M12.2466 7.27441L11.0994 9.60061C10.7788 10.2507 11.2725 11 12.0214 11H12.1627L11.0994 13.4257C10.7788 14.1571 11.2725 15 12.0214 15H12.1627L11.0994 17.4257C11.0164 17.6152 10.988 17.8121 11.0045 18M9 18H11.0045M9 18V21M9 18V8M11.0045 18C11.0518 18.5373 11.4665 19 12.0214 19H15M15 19V22M15 19V9" stroke="black" stroke-width="2" stroke-linecap="round" stroke-linejoin="round"/>
</svg>
