<svg width="24" height="24" viewBox="0 0 24 24" fill="none" xmlns="http://www.w3.org/2000/svg">
<path d="M12 21V14M12 14L9 11M12 14L15 11M17 8C17 5.23858 14.7614 3 12 3C9.23858 3 7 5.23858 7 8C7 8.03335 7.00033 8.06663 7.00098 8.09982C4.71825 8.56271 3 10.5807 3 13C3 15.7614 5.23858 18 8 18C9.6356 18 11.0878 17.2147 12 16.0005C12.9122 17.2147 14.3644 18 16 18C18.7614 18 21 15.7614 21 13C21 10.5807 19.2817 8.56271 16.999 8.09982C16.9997 8.06663 17 8.03335 17 8Z" stroke="black" stroke-width="2" stroke-linecap="round" stroke-linejoin="round"/>
</svg>
