<svg width="24" height="24" viewBox="0 0 24 24" fill="none" xmlns="http://www.w3.org/2000/svg">
<path d="M12.2554 6.96498L13.8757 10.2508C14.2764 11.0634 13.6594 12 12.7233 12H12.3644H11.7795L12.0678 12.5847L13.752 16M12.2554 6.96498L10.1524 2.70053C9.69182 1.76649 8.30818 1.76649 7.84757 2.70053L4.1243 10.2508C3.72356 11.0634 4.3406 12 5.27673 12H6.22049L4.1243 16.2508C3.72356 17.0634 4.3406 18 5.27673 18H9M12.2554 6.96498L14.4628 2.61296C14.8774 1.79568 16.1226 1.79568 16.5372 2.61296L19.8881 9.21941C20.2488 9.93048 19.6935 10.75 18.8509 10.75H18.0016L19.8881 14.4694C20.2488 15.1805 19.6935 16 18.8509 16H15.5M13.752 16L13.8757 16.2508C14.2764 17.0634 13.6594 18 12.7233 18H9M13.752 16H15.5M9 18V22M15.5 16V20" stroke="black" stroke-width="2" stroke-linecap="round" stroke-linejoin="round"/>
</svg>
