<svg width="24" height="24" viewBox="0 0 24 24" fill="none" xmlns="http://www.w3.org/2000/svg">
<path d="M12 18H9.02138C8.27248 18 7.77885 17.1571 8.09944 16.4257L9.16272 14H9.02138C8.27248 14 7.77885 13.1571 8.09944 12.4257L9.16272 10H9.02138C8.27248 10 7.77885 9.25072 8.09944 8.60061L11.0781 2.56042C11.4465 1.81319 12.5535 1.81319 12.9219 2.56042L15.9006 8.60061C16.2212 9.25072 15.7275 10 14.9786 10H14.8373L15.9006 12.4257C16.2212 13.1571 15.7275 14 14.9786 14H14.8373L15.9006 16.4257C16.2212 17.1571 15.7275 18 14.9786 18H12ZM12 18V22" stroke="black" stroke-width="2" stroke-linecap="round" stroke-linejoin="round"/>
</svg>
