<svg width="24" height="24" viewBox="0 0 24 24" fill="none" xmlns="http://www.w3.org/2000/svg">
<path d="M12 13L9 10M12 13V22M12 13L15 10M11 2C11.7225 2 12.3854 2.25541 12.9032 2.68088C13.3132 3.0177 13.8912 3.16118 14.4116 3.05768C14.6019 3.01984 14.7986 3 15 3C16.1646 3 17.1742 3.66359 17.6713 4.63328C17.8237 4.93063 18.0694 5.17625 18.3667 5.32869C19.3364 5.82581 20 6.83541 20 8C20 8.34111 19.9431 8.66892 19.8382 8.97444C19.722 9.31292 19.722 9.68707 19.8382 10.0256C19.9431 10.3311 20 10.6589 20 11C20 12.2482 19.2377 13.3184 18.1533 13.7703C18.0608 13.8089 18 13.8998 18 14V14C18 15.4364 16.9905 16.637 15.6424 16.9311C15.3903 16.9861 15.1542 17.1037 14.9589 17.2723C14.4333 17.7258 13.7487 18 13 18C12.2775 18 11.6146 17.7446 11.0968 17.3191C10.6868 16.9823 10.1088 16.8388 9.58842 16.9423C9.39815 16.9802 9.20139 17 9 17C7.34315 17 6 15.6569 6 14V14C6 13.8998 5.93924 13.8089 5.84675 13.7703C4.7623 13.3184 4 12.2482 4 11C4 10.2775 4.25541 9.61463 4.68088 9.0968C5.0177 8.68684 5.16118 8.10881 5.05768 7.58842C5.01984 7.39815 5 7.20139 5 7C5 5.34315 6.34315 4 8 4V4C8.10021 4 8.19113 3.93924 8.22968 3.84674C8.68164 2.7623 9.7518 2 11 2Z" stroke="black" stroke-width="2" stroke-linecap="round" stroke-linejoin="round"/>
</svg>
