<svg width="24" height="24" viewBox="0 0 24 24" fill="none" xmlns="http://www.w3.org/2000/svg">
<path d="M9 19C12.866 19 16 15.866 16 12C16 8.13401 12.866 5 9 5C5.13401 5 2 8.13401 2 12C2 15.866 5.13401 19 9 19ZM9 19H21.5329C21.7325 19 21.8516 18.7775 21.7409 18.6113L20.7396 17.1094C20.2917 16.4376 20.2917 15.5624 20.7396 14.8906L21.7409 13.3887C21.8516 13.2225 21.7325 13 21.5329 13H16M12 12C12 13.6569 10.6569 15 9 15C7.34315 15 6 13.6569 6 12C6 10.3431 7.34315 9 9 9C10.6569 9 12 10.3431 12 12Z" stroke="black" stroke-width="2" stroke-linecap="round" stroke-linejoin="round"/>
</svg>
