<svg width="24" height="24" viewBox="0 0 24 24" fill="none" xmlns="http://www.w3.org/2000/svg">
<path d="M14.8117 7.50302C14.1467 4.91365 11.7968 3 9 3C5.68629 3 3 5.68629 3 9C3 12.3137 5.68629 15 9 15M14.8117 7.50302C13.147 8.3146 12 10.0233 12 12C12 12.6912 12.1403 13.3497 12.3939 13.9485M14.8117 7.50302C15.4727 7.1808 16.2152 7 17 7C19.7614 7 22 9.23858 22 12C22 14.7614 19.7614 17 17 17M9 15C10.2597 15 11.4287 14.6118 12.3939 13.9485M9 15V21M12.3939 13.9485C13.1535 15.7419 14.9298 17 17 17M17 17V21" stroke="black" stroke-width="2" stroke-linecap="round" stroke-linejoin="round"/>
</svg>
