<svg width="24" height="24" viewBox="0 0 24 24" fill="none" xmlns="http://www.w3.org/2000/svg">
<path d="M10 13C11.1874 13 12.2781 12.5861 13.1357 11.8948M10 13C7.23858 13 5 10.7614 5 8C5 5.23858 7.23858 3 10 3C12.7614 3 15 5.23858 15 8C15 8.05748 14.999 8.11473 14.9971 8.17173M10 13V21M13.1357 11.8948C14.2311 11.0117 14.9463 9.67595 14.9971 8.17173M13.1357 11.8948C13.5164 13.1146 14.6548 14 16 14M14.9971 8.17173C15.3107 8.06053 15.6483 8 16 8C17.6569 8 19 9.34315 19 11C19 12.6569 17.6569 14 16 14M16 14V21" stroke="black" stroke-width="2" stroke-linecap="round" stroke-linejoin="round"/>
</svg>
