<svg width="24" height="24" viewBox="0 0 24 24" fill="none" xmlns="http://www.w3.org/2000/svg">
<path d="M14 13C12.8126 13 11.7219 12.5861 10.8643 11.8948M14 13C16.7614 13 19 10.7614 19 8C19 5.23858 16.7614 3 14 3C11.2386 3 9 5.23858 9 8C9 8.05748 9.00097 8.11473 9.00289 8.17173M14 13V17M10.8643 11.8948C10.4836 13.1146 9.34522 14 8 14M10.8643 11.8948C10.9525 11.6122 11 11.3116 11 11C11 9.69486 10.1666 8.58439 9.00289 8.17173M9.00289 8.17173C8.6893 8.06053 8.35172 8 8 8C6.34315 8 5 9.34315 5 11C5 12.6569 6.34315 14 8 14M8 14V21M14 17L16.5 16M14 17V19M14 19V21M14 19L11.5 17.5" stroke="black" stroke-width="2" stroke-linecap="round" stroke-linejoin="round"/>
</svg>
