<svg width="24" height="24" viewBox="0 0 24 24" fill="none" xmlns="http://www.w3.org/2000/svg">
<path d="M12 12.5V12.5C12.6403 13.1403 13 14.0087 13 14.9142V17.5H14C17.866 17.5 21 14.366 21 10.5V9.5H20.3137C18.192 9.5 16.1571 8.65715 14.6568 7.15686L13.4142 5.91421C12.6331 5.13317 11.3668 5.13317 10.5858 5.91422L9.4142 7.08578C8.63315 7.86683 8.63315 9.13317 9.41421 9.91421L10 10.5M12 12.5L10 10.5M12 12.5L5.99998 18.5C5.44769 19.0523 4.55227 19.0523 3.99998 18.5V18.5C3.44771 17.9477 3.44771 17.0523 3.99999 16.5L10 10.5" stroke="black" stroke-width="2" stroke-linecap="round" stroke-linejoin="round"/>
</svg>
