<svg width="24" height="24" viewBox="0 0 24 24" fill="none" xmlns="http://www.w3.org/2000/svg">
<path d="M12.0008 10V10C12.6411 10.6403 13.0008 11.5087 13.0008 12.4142V15H14.0008C17.8668 15 21.0008 11.866 21.0008 8V7H19.1735C17.7823 7 16.4481 6.44735 15.4644 5.46364V5.46364C15.2084 5.20758 14.7932 5.20758 14.5371 5.46364L11.7079 8.29289C11.3174 8.68342 11.3174 9.31658 11.7079 9.70711L12.0008 10ZM12.0008 10L7.00078 15M7.00078 15V15C7.55306 15.5523 7.55306 16.4477 7.00078 17L6.00078 18C5.44846 18.5523 4.55301 18.5524 4.00058 18.0002V18.0002C3.44801 17.4478 3.44792 16.5521 4.00039 15.9996L4.99961 15.0004C5.55217 14.4478 6.448 14.4477 7.00078 15V15Z" stroke="black" stroke-width="2" stroke-linecap="round" stroke-linejoin="round"/>
</svg>
