<svg width="24" height="24" viewBox="0 0 24 24" fill="none" xmlns="http://www.w3.org/2000/svg">
<path d="M3 21L7 17M7 17L6.70711 16.7071C6.31658 16.3166 6.31658 15.6834 6.70711 15.2929L8 14M7 17L7.29289 17.2929C7.68342 17.6834 8.31658 17.6834 8.70711 17.2929L10 16M8 14L8.57406 13.4259C9.17564 12.8244 9.56975 12.0466 9.69912 11.2057L9.84667 10.2467C10.2547 7.5947 11.965 5.32386 14.4012 4.19946L14.4676 4.16882C15.9892 3.46654 17.7872 3.78723 18.9722 4.97223L19.0278 5.02778C20.2128 6.21277 20.5335 8.01084 19.8312 9.53243L19.8005 9.59882C18.6761 12.035 16.4053 13.7453 13.7533 14.1533L12.7943 14.3009C11.9534 14.4303 11.1756 14.8244 10.5741 15.4259L10 16M8 14L10 16M16 8L16.01 7.99" stroke="black" stroke-width="2" stroke-linecap="round" stroke-linejoin="round"/>
</svg>
