<svg width="24" height="24" viewBox="0 0 24 24" fill="none" xmlns="http://www.w3.org/2000/svg">
<path d="M14 19L14.7806 21.3419C14.8886 21.6657 14.6476 22 14.3063 22H9.69371C9.35243 22 9.11145 21.6657 9.21937 21.3419L10 19M14 19C13 18 11 18 10 19M14 19V10M10 19V10M8 6V8C8 9.10457 8.89543 10 10 10H14C15.1046 10 16 9.10457 16 8V6M8 6H16M8 6H7C5.89543 6 5 5.10457 5 4V3C5 2.44772 5.44772 2 6 2H18C18.5523 2 19 2.44772 19 3V4C19 5.10457 18.1046 6 17 6H16" stroke="black" stroke-width="2" stroke-linecap="round" stroke-linejoin="round"/>
</svg>
