<svg width="24" height="24" viewBox="0 0 24 24" fill="none" xmlns="http://www.w3.org/2000/svg">
<path d="M12 20H5C3.34315 20 2 18.6569 2 17V16M12 20V16M12 20H19C20.6569 20 22 18.6569 22 17V16M12 16H17M12 16H7M2 16V8M2 16H7M22 16V8.16246V7C22 5.34315 20.6569 4 19 4H17M22 16H17M22 12H17M2 12H7M22 8H17M2 8V7C2 5.34315 3.34315 4 5 4H7M2 8H7M12 8V12M12 8H7M12 8H17M12 12H17M12 12H7M17 12V16M7 12V16M7 8V4M7 4H17M17 8V4" stroke="black" stroke-width="2" stroke-linecap="round" stroke-linejoin="round"/>
</svg>
