<svg width="24" height="24" viewBox="0 0 24 24" fill="none" xmlns="http://www.w3.org/2000/svg">
<path d="M20 10V10.4586C20 11.9251 18.9398 13.1767 17.4932 13.4178L15.9728 13.6712C14.8832 13.8528 14.1472 14.8832 14.3288 15.9728L14.6811 18.0866C14.8752 19.2511 14.3683 20.4211 13.386 21.076L12.5547 21.6302C12.2188 21.8541 11.7812 21.8541 11.4453 21.6302L10.614 21.076C9.63171 20.4211 9.12482 19.2511 9.31889 18.0866L9.6712 15.9728C9.85279 14.8832 9.11675 13.8528 8.02721 13.6712L6.5068 13.4178C5.06024 13.1767 4 11.9251 4 10.4586V10M20 10H4M20 10V7.24264C20 6.44699 19.6839 5.68393 19.1213 5.12132L16.8787 2.87868C16.3161 2.31607 15.553 2 14.7574 2H13M4 10V5C4 3.34315 5.34315 2 7 2H13M16 6V2.5M13 2V7M12 18.51V18.5" stroke="black" stroke-width="2" stroke-linecap="round" stroke-linejoin="round"/>
</svg>
