<svg width="24" height="24" viewBox="0 0 24 24" fill="none" xmlns="http://www.w3.org/2000/svg">
<path d="M4 11V5C4 3.34315 5.34315 2 7 2H8M4 11V11.1459C4 12.2822 4.64201 13.321 5.65836 13.8292L8.91095 15.4555C9.55828 15.7791 9.91881 16.4871 9.79983 17.201L9.4932 19.0408C9.23502 20.5899 10.4296 22 12 22V22C13.5704 22 14.765 20.5899 14.5068 19.0408L14.2002 17.201C14.0812 16.4871 14.4417 15.7791 15.089 15.4555L18.3416 13.8292C19.358 13.321 20 12.2822 20 11.1459V11M4 11H20M20 11V5C20 3.34315 18.6569 2 17 2H11M8 2V7M8 2H11M11 2V8M12 19.5V19.49" stroke="black" stroke-width="2" stroke-linecap="round" stroke-linejoin="round"/>
</svg>
