<svg width="24" height="24" viewBox="0 0 24 24" fill="none" xmlns="http://www.w3.org/2000/svg">
<path d="M3 17V11M16 17V14M3 11V5.5C3 4.67157 3.67157 4 4.5 4H6.39811C7.89107 4 9.15683 5.09779 9.36796 6.57574L10 11M3 11H10M5.5 17.5H5.51M9.5 17.5H9.51M13.5 17.5H13.51M10 11H13M13 11H14C15.1046 11 16 11.8954 16 13V14M13 11V9M16 14H19M19 14V12.6569C19 11.596 19.4214 10.5786 20.1716 9.82843L22 8M19 14V15.3431C19 16.404 19.4214 17.4214 20.1716 18.1716L22 20M5.5 15H13.5C14.8807 15 16 16.1193 16 17.5V17.5C16 18.8807 14.8807 20 13.5 20H5.5C4.11929 20 3 18.8807 3 17.5V17.5C3 16.1193 4.11929 15 5.5 15Z" stroke="black" stroke-width="2" stroke-linecap="round" stroke-linejoin="round"/>
</svg>
