<svg width="24" height="24" viewBox="0 0 24 24" fill="none" xmlns="http://www.w3.org/2000/svg">
<path d="M3 3L4.83683 4.22455C5.57421 4.71614 6.05651 5.5086 6.15438 6.38941L6.44444 9M6.44444 9H18.4134C19.3274 9 19.7624 10.1251 19.0861 10.7399L12.9422 16.3252M6.44444 9L6.73306 11.5976C6.8972 13.0748 7.86688 14.3392 9.251 14.8808L9.5 14.9783M9.5 14.9783L9.76205 17.0861C9.86206 17.8905 10.8273 18.2479 11.4271 17.7026L12.9422 16.3252M9.5 14.9783L12.9422 16.3252M18.5 16V16C17.1193 16 16 17.1193 16 18.5V18.5C16 19.8807 17.1193 21 18.5 21V21C19.8807 21 21 19.8807 21 18.5V18.5C21 17.1193 19.8807 16 18.5 16Z" stroke="black" stroke-width="2" stroke-linecap="round" stroke-linejoin="round"/>
</svg>
