<svg width="24" height="24" viewBox="0 0 24 24" fill="none" xmlns="http://www.w3.org/2000/svg">
<path d="M8 12H20M8 12H7C6.44772 12 6 12.4477 6 13V14C6 14.5523 6.44771 15 7 15H8.07336M8 12C8 10.9071 8.29218 9.88252 8.80269 9M20 12H21C21.5523 12 22 12.4477 22 13V14C22 14.5523 21.5523 15 21 15H19.9266M20 12C20 10.3431 19.3284 8.84315 18.2426 7.75736M14 6C11.7792 6 9.84012 7.2066 8.80269 9M14 6V6C14 4.89543 13.1046 4 12 4H5.35407C4.53626 4 3.80084 4.4979 3.49711 5.25722L2.54856 7.62861C2.28581 8.28547 2.76957 9 3.47703 9H8.80269M14 6C15.6569 6 17.1569 6.67157 18.2426 7.75736M8.07336 15C7.84121 15.663 8.17349 16.4156 8.8798 16.6939C9.37628 16.8896 9.7152 17.3385 9.75517 17.8533C9.82036 18.6929 10.6533 19.2752 11.5032 19.0754C12.0244 18.9529 12.5728 19.1243 12.9196 19.5182C13.4852 20.1606 14.5148 20.1606 15.0804 19.5182C15.4272 19.1243 15.9756 18.9529 16.4968 19.0754C17.3467 19.2752 18.1796 18.6929 18.2448 17.8533C18.2848 17.3385 18.6237 16.8896 19.1202 16.6939C19.8265 16.4156 20.1588 15.663 19.9266 15M8.07336 15H19.9266M19.5 6.5L18.2426 7.75736" stroke="black" stroke-width="2" stroke-linecap="round" stroke-linejoin="round"/>
</svg>
