<svg width="24" height="24" viewBox="0 0 24 24" fill="none" xmlns="http://www.w3.org/2000/svg">
<path d="M12 2V4M12 4C10.8954 4 10 4.89543 10 6C10 6.78299 10.4499 7.46089 11.1054 7.78925M12 4C13.1046 4 14 4.89543 14 6C14 6.78299 13.5501 7.46089 12.8946 7.78925M11.1054 7.78925C11.3746 7.9241 11.6784 8 12 8C12.3216 8 12.6254 7.9241 12.8946 7.78925M11.1054 7.78925L4 22M12.8946 7.78925L20 22M4 16H12M12 16H20M12 16V14.5M12 16V17.5" stroke="black" stroke-width="2" stroke-linecap="round" stroke-linejoin="round"/>
</svg>
