<svg width="24" height="24" viewBox="0 0 24 24" fill="none" xmlns="http://www.w3.org/2000/svg">
<path d="M7.5 13H16.5M9 8H15M18.1667 18H19.5C20.3284 18 21 18.6716 21 19.5V19.5C21 20.3284 20.3284 21 19.5 21H4.5C3.67157 21 3 20.3284 3 19.5V19.5C3 18.6716 3.67157 18 4.5 18H5.83333M18.1667 18L14.4069 4.46471C14.1664 3.59907 13.3782 3 12.4798 3H11.5202C10.6218 3 9.83359 3.59907 9.59314 4.46471L5.83333 18M18.1667 18H5.83333" stroke="black" stroke-width="2" stroke-linecap="round" stroke-linejoin="round"/>
</svg>
