<svg width="24" height="24" viewBox="0 0 24 24" fill="none" xmlns="http://www.w3.org/2000/svg">
<path d="M17.7523 8.67098C16.5156 6.04613 13.96 4.82891 11.5 5.01932M17.7523 8.67098L14.5 9.5M17.7523 8.67098L18.9455 11.2037M6.24773 8.67098L8.5 9M6.24773 8.67098C7.31711 6.40119 9.37278 5.18396 11.5 5.01932M6.24773 8.67098L4.17609 13.0681M8.5 9L11.5 7.5M8.5 9L8 14.5M8.5 9L12.5 12M11.5 7.5V5.01932M11.5 7.5L14.5 9.5M8 14.5L4.17609 13.0681M8 14.5L7.5 19M8 14.5L12 14M4.17609 13.0681L2.10445 17.4653C1.7689 18.1775 2.28269 19 3.06316 19H7.5M7.5 19L13 17M7.5 19L17.5 19M12 14L13 17M12 14L12.5 12M13 17L16 15M12.5 12L14.5 9.5M12.5 12L17 12.5M17 12.5L18.9455 11.2037M17 12.5L16 15M18.9455 11.2037L21.0908 15.7572M16 15L17.5 19M16 15L21.0908 15.7572M17.5 19L20.9368 19C21.7173 19 22.2311 18.1775 21.8956 17.4653L21.0908 15.7572" stroke="black" stroke-width="2" stroke-linecap="round" stroke-linejoin="round"/>
</svg>
