<svg width="24" height="24" viewBox="0 0 24 24" fill="none" xmlns="http://www.w3.org/2000/svg">
<path d="M6.67704 20.6129L3.75833 20.1265C3.51951 20.0867 3.47107 19.7646 3.68763 19.6563L5.68945 18.6554C6.53566 18.2323 7.2045 17.5229 7.57718 16.6533L12.6167 4.89426C12.8642 4.31685 13.3083 3.84584 13.8702 3.5649C14.585 3.20748 15.4228 3.19095 16.1512 3.5199L20.4831 5.47628C20.6812 5.56573 20.6787 5.84791 20.479 5.93378L18.8442 6.63692C18.3669 6.84222 18.1263 7.37886 18.2906 7.87179L18.8193 9.45792C18.8882 9.66473 18.6779 9.85454 18.4792 9.76481L15.5006 8.41961C14.9904 8.18919 14.3904 8.42249 14.1699 8.93706L9.92768 18.8355C9.3831 20.1062 8.0407 20.8402 6.67704 20.6129Z" stroke="black" stroke-width="2" stroke-linecap="round" stroke-linejoin="round"/>
</svg>
