<svg width="24" height="24" viewBox="0 0 24 24" fill="none" xmlns="http://www.w3.org/2000/svg">
<path d="M13.5 8L16.1993 5.30071C16.696 4.80395 17.417 4.60426 18.0986 4.77464L20.1433 5.28582C20.5203 5.38008 20.6504 5.84963 20.3756 6.12444L15 11.5M11 13L10.0383 13.9617M8 16L10.0383 13.9617M10.0383 13.9617L9.57658 13.5M10.0383 13.9617L10.5 14.4234M11.4778 7.52221L4.41421 14.5858C3.63317 15.3668 3.63317 16.6332 4.41421 17.4142L6.58579 19.5858C7.36684 20.3668 8.63317 20.3668 9.41421 19.5858L14.0425 14.9575C14.6208 14.3792 14.7888 13.5071 14.4666 12.7554L12.2909 7.6788C12.1516 7.35367 11.7279 7.27208 11.4778 7.52221Z" stroke="black" stroke-width="2" stroke-linecap="round" stroke-linejoin="round"/>
</svg>
