<svg width="24" height="24" viewBox="0 0 24 24" fill="none" xmlns="http://www.w3.org/2000/svg">
<path d="M8 21H20M8 21V20M8 21V22M20 21V20M20 21V22M11 3L5 9M11 3L10 2M11 3L12 4M5 9L4 8M5 9L6 10M9.58579 11.4142L12.5858 8.41421C13.3668 7.63317 14.6332 7.63316 15.4142 8.41421L18.4142 11.4142C18.7893 11.7893 19 12.298 19 12.8284V15.5C19 16.3284 18.3284 17 17.5 17H10.5C9.67157 17 9 16.3284 9 15.5V12.8284C9 12.298 9.21071 11.7893 9.58579 11.4142Z" stroke="black" stroke-width="2" stroke-linecap="round" stroke-linejoin="round"/>
</svg>
