<svg width="24" height="24" viewBox="0 0 24 24" fill="none" xmlns="http://www.w3.org/2000/svg">
<path d="M9 5.5H7C6.44772 5.5 6 5.94772 6 6.5V7M9 5.5V8.5M9 5.5L8.99496 5.21098C8.97433 4.02743 9.98049 3.08503 11.1602 3.18298L13 3.33575M9 8.5H7C6.44772 8.5 6 8.05228 6 7.5V7M9 8.5V9C9 10.1046 9.89543 11 11 11H13C13.5523 11 14 11.4477 14 12V15.9296C14 16.5983 13.6658 17.2228 13.1094 17.5937L11.5801 18.6132C11.2177 18.8549 11 19.2616 11 19.6972V19.6972C11 20.4167 11.5833 21 12.3028 21H16.79C17.9733 21 18.8978 19.9784 18.7801 18.801L18.0795 11.7954C18.033 11.3303 18.3149 10.895 18.7584 10.7472L18.9487 10.6838C20.1737 10.2754 21 9.12901 21 7.83772V6.76123C21 5.20062 19.8035 3.90065 18.2482 3.77152L17 3.66787M6 7H3M13 3.33575V5C13 5.82843 13.6716 6.5 14.5 6.5H15.5C16.3284 6.5 17 5.82843 17 5V3.66787M13 3.33575L17 3.66787" stroke="black" stroke-width="2" stroke-linecap="round" stroke-linejoin="round"/>
</svg>
