<svg width="24" height="24" viewBox="0 0 24 24" fill="none" xmlns="http://www.w3.org/2000/svg">
<path d="M14 9V11.5C14 12.3284 13.3284 13 12.5 13H4.5C3.67157 13 3 12.3284 3 11.5V8.5C3 7.67157 3.67157 7 4.5 7H6M14 9H9.65685C8.59599 9 7.57857 8.57857 6.82843 7.82843L6 7M14 9L12.9117 5.73509C12.3672 4.10172 10.8387 3 9.11696 3H7.5C6.67157 3 6 3.67157 6 4.5V7M21 5.5C21 5.86198 20.862 6.22397 20.5858 6.50015L17.09 10M21 5.5C21 5.13812 20.8619 4.77625 20.5858 4.50015C20.0335 3.94787 19.1381 3.94787 18.5858 4.50015L16.5858 6.50015M21 5.5V16M21 16V19C21 20.1046 20.1046 21 19 21H16L21 16ZM5.5 18.5H5.51M8.5 18.5H8.51M11.5 18.5H11.51M5.5 16H11.5C12.8807 16 14 17.1193 14 18.5V18.5C14 19.8807 12.8807 21 11.5 21H5.5C4.11929 21 3 19.8807 3 18.5V18.5C3 17.1193 4.11929 16 5.5 16Z" stroke="black" stroke-width="2" stroke-linecap="round" stroke-linejoin="round"/>
</svg>
