<svg width="24" height="24" viewBox="0 0 24 24" fill="none" xmlns="http://www.w3.org/2000/svg">
<path d="M6 17H12M2 18V11C2 10.4477 2.44772 10 3 10H6M16 17V13M6 10V5C6 4.44772 6.44772 4 7 4H9.1265C10.3136 4 11.4394 4.52729 12.1994 5.43926L15.0729 8.88746C15.6719 9.60632 16 10.5125 16 11.4482V13M6 10L6.81253 11.2188C7.5544 12.3316 8.80332 13 10.1407 13H16M19 5V15C19 15.5523 19.4477 16 20 16H22M14 20V20C15.1046 20 16 19.1046 16 18V18C16 16.8954 15.1046 16 14 16V16C12.8954 16 12 16.8954 12 18V18C12 19.1046 12.8954 20 14 20ZM6 18V18C6 19.1046 5.10457 20 4 20V20C2.89543 20 2 19.1046 2 18V18C2 16.8954 2.89543 16 4 16V16C5.10457 16 6 16.8954 6 18Z" stroke="black" stroke-width="2" stroke-linecap="round" stroke-linejoin="round"/>
</svg>
