<svg width="24" height="24" viewBox="0 0 24 24" fill="none" xmlns="http://www.w3.org/2000/svg">
<path d="M17 12L5.69384 3.52038C5.29572 3.22179 4.73862 3.26138 4.38673 3.61327L3.43127 4.56873C3.20816 4.79184 3.24494 5.16329 3.50747 5.33831L4.05807 5.70538C4.34767 5.89845 4.58187 6.16375 4.73753 6.47506L5.20186 7.40372C5.39539 7.79077 5.70923 8.10461 6.09628 8.29814L6.90372 8.70186C7.29077 8.89539 7.60461 9.20923 7.79814 9.59628L8.20186 10.4037C8.39539 10.7908 8.70923 11.1046 9.09628 11.2981L9.90372 11.7019C10.2908 11.8954 10.6046 12.2092 10.7981 12.5963L11.0886 13.1772C11.3497 13.6995 11.826 14.0815 12.3924 14.2231L12.7169 14.3042C13.2193 14.4298 13.6534 14.7454 13.9278 15.1845L14.75 16.5M17 12L18.997 13.4978C20.1568 14.3677 20.5286 15.9426 19.8802 17.2393L18 21L15.3353 19.0015C14.5621 18.4215 14.3177 17.3645 14.75 16.5V16.5M17 12L14.75 16.5" stroke="black" stroke-width="2" stroke-linecap="round" stroke-linejoin="round"/>
</svg>
