<svg width="24" height="24" viewBox="0 0 24 24" fill="none" xmlns="http://www.w3.org/2000/svg">
<path d="M9 5H8.5C7.67157 5 7 4.32843 7 3.5C7 2.67157 7.67157 2 8.5 2H15.5C16.3284 2 17 2.67157 17 3.5C17 4.32843 16.3284 5 15.5 5H15C14.4477 5 14 5.44772 14 6V17.0557C14 17.6767 13.8554 18.2892 13.5777 18.8446L12.4472 21.1056C12.263 21.4741 11.737 21.4741 11.5528 21.1056L10.4223 18.8446C10.1446 18.2892 10 17.6767 10 17.0557V6C10 5.44772 9.55228 5 9 5Z" stroke="black" stroke-width="2" stroke-linecap="round" stroke-linejoin="round"/>
</svg>
