<svg width="24" height="24" viewBox="0 0 24 24" fill="none" xmlns="http://www.w3.org/2000/svg">
<path d="M18.2127 6.20112L11.3537 9.96114C10.1523 10.6197 9.26635 11.7313 8.8944 13.0466L8.45166 14.6122M18.2127 6.20112L19.7104 5.38007V8.44035M18.2127 6.20112L17.6827 5.40873C17.093 4.52717 15.9245 4.24218 14.9931 4.75277L11.9958 6.39583C8.35527 8.39155 5.41024 11.4443 3.55212 15.1483L2.10977 18.0235C1.75116 18.7383 2.31924 19.5679 3.11784 19.4956L8.28446 19.0274C11.0952 18.7727 13.8228 17.9415 16.2958 16.5858L21.0718 13.9676C21.9911 13.4636 22.2809 12.2834 21.6989 11.4132L19.7104 8.44035M18.2127 6.20112L19.7104 8.44035" stroke="black" stroke-width="2" stroke-linecap="round" stroke-linejoin="round"/>
</svg>
