<svg width="24" height="24" viewBox="0 0 24 24" fill="none" xmlns="http://www.w3.org/2000/svg">
<path d="M7 4.5V3.5C7 2.67157 7.67157 2 8.5 2H15.5C16.3284 2 17 2.67157 17 3.5V4.5C17 5.32843 16.3284 6 15.5 6H8.5C7.67157 6 7 5.32843 7 4.5Z" stroke="black" stroke-width="2" stroke-linecap="round" stroke-linejoin="round"/>
<path d="M13.7171 9H10.2829C9.46146 9 8.6737 9.3263 8.09289 9.90711C6.80385 11.1962 6.32666 13.0889 6.85049 14.835L8.13796 19.1265C8.64961 20.832 10.2194 22 12 22C13.7806 22 15.3504 20.832 15.862 19.1265L17.1495 14.835C17.6733 13.0889 17.1962 11.1962 15.9071 9.90711C15.3263 9.3263 14.5385 9 13.7171 9Z" stroke="black" stroke-width="2" stroke-linecap="round" stroke-linejoin="round"/>
</svg>
