<svg width="24" height="24" viewBox="0 0 24 24" fill="none" xmlns="http://www.w3.org/2000/svg">
<path d="M5 17V19.5C5 19.7761 4.77614 20 4.5 20H2.5C2.22386 20 2 19.7761 2 19.5V17.5C2 17.2239 2.22386 17 2.5 17H5ZM5 17V4.5C5 4.22386 5.22386 4 5.5 4H7.5C7.77614 4 8 4.22386 8 4.5V16.5C8 16.7761 7.77614 17 7.5 17H5ZM11.5 5.21736C12.0196 5.46034 12.5206 5.73669 13 6.04364M18.5234 13.5C18.3225 12.7795 18.061 12.0842 17.7449 11.42M15 7.61914C15.4478 8.04888 15.8649 8.51037 16.2477 9M21.5 20H19.5C19.2239 20 19 19.7761 19 19.5V17.5C19 17.2239 19.2239 17 19.5 17H21.5C21.7761 17 22 17.2239 22 17.5V19.5C22 19.7761 21.7761 20 21.5 20Z" stroke="black" stroke-width="2" stroke-linecap="round" stroke-linejoin="round"/>
</svg>
