<svg width="24" height="24" viewBox="0 0 24 24" fill="none" xmlns="http://www.w3.org/2000/svg">
<path d="M18 6V6C18 7.65685 16.6569 9 15 9H6C4.34315 9 3 7.65685 3 6V6C3 4.34315 4.34315 3 6 3H15C16.6569 3 18 4.34315 18 6V6ZM18 6H19C20.1046 6 21 6.89543 21 8V9.27214C21 10.8188 19.8241 12.112 18.2844 12.2586L12.3104 12.8276C11.2839 12.9253 10.5 13.7875 10.5 14.8186V16M10.5 16H11C11.5523 16 12 16.4477 12 17V20C12 20.5523 11.5523 21 11 21H10C9.44772 21 9 20.5523 9 20V17C9 16.4477 9.44772 16 10 16H10.5Z" stroke="black" stroke-width="2" stroke-linecap="round" stroke-linejoin="round"/>
</svg>
