<svg width="24" height="24" viewBox="0 0 24 24" fill="none" xmlns="http://www.w3.org/2000/svg">
<path d="M18 6V6C18 7.65685 16.6569 9 15 9H6C4.34315 9 3 7.65685 3 6V6C3 4.34315 4.34315 3 6 3H15C16.6569 3 18 4.34315 18 6V6ZM18 6H19C20.1046 6 21 6.89543 21 8V9.51749C21 10.9579 19.9763 12.195 18.5613 12.4645L12.1258 13.6903C11.1825 13.87 10.5 14.6947 10.5 15.655V19M10.5 19V19C11.0523 19 11.5 19.4477 11.5 20V20C11.5 20.5523 11.0523 21 10.5 21V21C9.94772 21 9.5 20.5523 9.5 20V20C9.5 19.4477 9.94772 19 10.5 19V19Z" stroke="black" stroke-width="2" stroke-linecap="round" stroke-linejoin="round"/>
</svg>
