<svg width="24" height="24" viewBox="0 0 24 24" fill="none" xmlns="http://www.w3.org/2000/svg">
<path d="M5.5 14.5L4.64228 15.3577C4.22348 15.7765 3.93802 16.3099 3.82186 16.8907L3.29417 19.5291C3.15423 20.2288 3.77115 20.8458 4.47087 20.7058L7.10931 20.1781C7.69008 20.062 8.22348 19.7765 8.64228 19.3577L9.5 18.5M5.5 14.5L9.5 18.5M5.5 14.5L14 6M9.5 18.5L18 10M14 6L15.5858 4.41421C16.3668 3.63316 17.6332 3.63316 18.4142 4.41421L19.5858 5.58579C20.3668 6.36683 20.3668 7.63317 19.5858 8.41421L18 10M14 6L18 10" stroke="black" stroke-width="2" stroke-linecap="round" stroke-linejoin="round"/>
</svg>
