<svg width="24" height="24" viewBox="0 0 24 24" fill="none" xmlns="http://www.w3.org/2000/svg">
<path d="M12 12L10.5 13.5M12 12L9.75 9.75M12 12L14.25 14.25M7.5 7.5L3.85355 3.85355C3.53857 3.53857 3 3.76165 3 4.20711V19C3 20.1046 3.89543 21 5 21H19.7929C20.2383 21 20.4614 20.4614 20.1464 20.1464L16.5 16.5M7.5 7.5L6 9M7.5 7.5L9.75 9.75M16.5 16.5L15 18M16.5 16.5L14.25 14.25M9.75 9.75L9 10.5M14.25 14.25L13.5 15M6 13V18H11L6 13Z" stroke="black" stroke-width="2" stroke-linecap="round" stroke-linejoin="round"/>
</svg>
