<svg width="24" height="24" viewBox="0 0 24 24" fill="none" xmlns="http://www.w3.org/2000/svg">
<path d="M6 20H4C2.89543 20 2 19.1046 2 18V15C2 13.8954 2.89543 13 4 13H20C21.1046 13 22 13.8954 22 15V18C22 19.1046 21.1046 20 20 20H17M6 20V17M6 20H11.5M17 20V17M17 20H11.5M11.5 20V17M8 4H6.57359C6.19875 4 5.83146 4.10534 5.51359 4.304L3.3568 5.652C2.73013 6.04367 2.73013 6.95633 3.3568 7.348L5.51359 8.696C5.83146 8.89466 6.19875 9 6.57359 9H8M8 4V9M8 4H18M8 9H18M18 4H20C21.1046 4 22 4.89543 22 6V7C22 8.10457 21.1046 9 20 9H18M18 4V9" stroke="black" stroke-width="2" stroke-linecap="round" stroke-linejoin="round"/>
</svg>
