<svg width="24" height="24" viewBox="0 0 24 24" fill="none" xmlns="http://www.w3.org/2000/svg">
<path d="M21 15C20.4477 15 20 14.5523 20 14C20 10.2723 17.4505 7.14012 14 6.25203M21 15C21.5523 15 22 15.4477 22 16V18C22 18.5523 21.5523 19 21 19H3C2.44772 19 2 18.5523 2 18V16C2 15.4477 2.44772 15 3 15M21 15H3M3 15C3.55228 15 4 14.5523 4 14C4 10.2723 6.54955 7.14012 10 6.25204M10 6.25204V6C10 5.44772 10.4477 5 11 5H13C13.5523 5 14 5.44772 14 6V6.25203M10 6.25204V10C10 10.5523 10.4477 11 11 11H13C13.5523 11 14 10.5523 14 10V6.25203" stroke="black" stroke-width="2" stroke-linecap="round" stroke-linejoin="round"/>
</svg>
