<svg width="24" height="24" viewBox="0 0 24 24" fill="none" xmlns="http://www.w3.org/2000/svg">
<path d="M21 15C20.4477 15 20 14.5523 20 14C20 11.8696 19.1672 9.93366 17.8095 8.5M21 15C21.5523 15 22 15.4477 22 16V18C22 18.5523 21.5523 19 21 19H3C2.44772 19 2 18.5523 2 18V16C2 15.4477 2.44772 15 3 15M21 15H3M3 15C3.55228 15 4 14.5523 4 14C4 11.8696 4.83275 9.93366 6.1905 8.5M13 11H11C10.4477 11 10 10.5523 10 10V6C10 5.44772 10.4477 5 11 5H13C13.5523 5 14 5.44772 14 6V10C14 10.5523 13.5523 11 13 11Z" stroke="black" stroke-width="2" stroke-linecap="round" stroke-linejoin="round"/>
</svg>
