<svg width="24" height="24" viewBox="0 0 24 24" fill="none" xmlns="http://www.w3.org/2000/svg">
<path d="M21 15C20.4477 15 20 14.5523 20 14C20 11.3224 18.6846 8.95211 16.6647 7.5L14.475 12.0196C14.3592 12.2586 14 12.1761 14 11.9106V6.25203V6C14 5.44772 13.5523 5 13 5H11C10.4477 5 10 5.44772 10 6V6.25204V11.9106C10 12.1761 9.64078 12.2586 9.52502 12.0196L7.33528 7.5C5.31542 8.95211 4 11.3224 4 14C4 14.5523 3.55228 15 3 15M21 15C21.5523 15 22 15.4477 22 16V18C22 18.5523 21.5523 19 21 19H3C2.44772 19 2 18.5523 2 18V16C2 15.4477 2.44772 15 3 15M21 15H3" stroke="black" stroke-width="2" stroke-linecap="round" stroke-linejoin="round"/>
</svg>
