<svg width="24" height="24" viewBox="0 0 24 24" fill="none" xmlns="http://www.w3.org/2000/svg">
<path d="M16 2H8M16 2L12 12M16 2H16.6126C17.2951 2 17.7779 2.67159 17.6585 3.34363C17.2624 5.57318 17.6838 7.87212 19.1101 9.30395C19.6059 9.80167 20 10.4299 20 11.1324V14M8 2L12 12M8 2H7.38743C6.70487 2 6.22209 2.67159 6.34149 3.34363C6.73761 5.57318 6.31616 7.87212 4.88985 9.30395C4.39405 9.80167 4 10.4299 4 11.1324V14M12 12V22M12 22H7C5.34315 22 4 20.6569 4 19V14M12 22H17C18.6569 22 20 20.6569 20 19V14M4 14H20M7 17H9M15 17H17" stroke="black" stroke-width="2" stroke-linecap="round" stroke-linejoin="round"/>
</svg>
