<svg width="24" height="24" viewBox="0 0 24 24" fill="none" xmlns="http://www.w3.org/2000/svg">
<path d="M14.5 8.5L9.5 10.5M14.5 12L9.5 14M14.5 15.5L9.5 17.5M9.5 6H14.5M17.5 2H6.5C6.29399 2 6.17639 2.23519 6.3 2.4L8.6 5.46667C8.85964 5.81286 9 6.23393 9 6.66667V16.6667C9 17.5321 9.28071 18.3743 9.8 19.0667L11.6 21.4667C11.8 21.7333 12.2 21.7333 12.4 21.4667L14.2 19.0667C14.7193 18.3743 15 17.5321 15 16.6667V6.66667C15 6.23393 15.1404 5.81286 15.4 5.46667L17.7 2.4C17.8236 2.23519 17.706 2 17.5 2Z" stroke="black" stroke-width="2" stroke-linecap="round" stroke-linejoin="round"/>
</svg>
