<svg width="24" height="24" viewBox="0 0 24 24" fill="none" xmlns="http://www.w3.org/2000/svg">
<path d="M17 7V5.82843C17 5.29799 17.2107 4.78929 17.5858 4.41421L18.2929 3.70711C18.6834 3.31658 19.3166 3.31658 19.7071 3.70711L20.2929 4.29289C20.6834 4.68342 20.6834 5.31658 20.2929 5.70711L19.5858 6.41421C19.2107 6.78929 18.702 7 18.1716 7H17ZM17 7L11.5 12.5M8.58579 12.4142L4.41421 16.5858C3.63316 17.3668 3.63316 18.6332 4.41421 19.4142L4.58579 19.5858C5.36683 20.3668 6.63317 20.3668 7.41421 19.5858L11.5858 15.4142C12.3668 14.6332 12.3668 13.3668 11.5858 12.5858L11.4142 12.4142C10.6332 11.6332 9.36683 11.6332 8.58579 12.4142Z" stroke="black" stroke-width="2" stroke-linecap="round" stroke-linejoin="round"/>
</svg>
