<svg width="24" height="24" viewBox="0 0 24 24" fill="none" xmlns="http://www.w3.org/2000/svg">
<path d="M9.5 14.5001L16 8.00009M9.5 14.5001L8.41421 13.4143C7.63316 12.6333 6.36684 12.6333 5.58579 13.4143L4.17157 14.8285C3.42143 15.5787 3 16.5961 3 17.6569V19.0001C3 20.1047 3.89543 21.0001 5 21.0001H6.34315C7.40401 21.0001 8.42143 20.5787 9.17157 19.8285L10.5858 18.4143C10.9763 18.0238 11.1716 17.5119 11.1716 17.0001M9.5 14.5001L7 17.0001M16 8.00009V6.24273C16 5.44708 16.3161 4.68402 16.8787 4.12141L17.2929 3.7072C17.6834 3.31668 18.3166 3.31668 18.7071 3.7072L20.2929 5.29299C20.6834 5.68351 20.6834 6.31668 20.2929 6.7072L19.8787 7.12141C19.3161 7.68402 18.553 8.00009 17.7574 8.00009H16Z" stroke="black" stroke-width="2" stroke-linecap="round" stroke-linejoin="round"/>
</svg>
