<svg width="24" height="24" viewBox="0 0 24 24" fill="none" xmlns="http://www.w3.org/2000/svg">
<path d="M11.5 14.5L17 9M11.5 14.5L9.70711 12.7071C9.31658 12.3166 8.68342 12.3166 8.29289 12.7071L7.75736 13.2426C6.63214 14.3679 5.10602 15 3.51472 15H2L7 20H8.51472C10.106 20 11.6321 19.3679 12.7574 18.2426L13.2929 17.7071C13.6834 17.3166 13.6834 16.6834 13.2929 16.2929L11.5 14.5ZM17 9V7.24264C17 6.44699 17.3161 5.68393 17.8787 5.12132L18.2929 4.70711C18.6834 4.31658 19.3166 4.31658 19.7071 4.70711L21.2929 6.29289C21.6834 6.68342 21.6834 7.31658 21.2929 7.70711L20.8787 8.12132C20.3161 8.68393 19.553 9 18.7574 9H17ZM7.5 16.5L8.5 17.5" stroke="black" stroke-width="2" stroke-linecap="round" stroke-linejoin="round"/>
</svg>
