<svg width="24" height="24" viewBox="0 0 24 24" fill="none" xmlns="http://www.w3.org/2000/svg">
<path d="M10.9257 13.0743L16.4102 7.58579M10.9257 13.0743L9.48221 11.6308C8.75635 10.9049 7.61905 10.7923 6.76492 11.3617L3.95905 13.2323C2.82834 13.9861 2.66992 15.5859 3.63085 16.5468L7.45315 20.3692C8.41407 21.3301 10.0139 21.1717 10.7677 20.0409L12.6383 17.2351C13.2077 16.381 13.0951 15.2437 12.3692 14.5178L10.9257 13.0743ZM16.4102 7.58579V5.82843C16.4102 5.03278 16.7262 4.26972 17.2888 3.70711L17.703 3.29289C18.0936 2.90237 18.7267 2.90237 19.1173 3.29289L20.703 4.87868C21.0936 5.2692 21.0936 5.90237 20.703 6.29289L20.2888 6.70711C19.7262 7.26972 18.9632 7.58579 18.1675 7.58579H16.4102ZM7.69548 14.151L6.61874 15.2278M9.84897 16.3045L8.77223 17.3813" stroke="black" stroke-width="2" stroke-linecap="round" stroke-linejoin="round"/>
</svg>
