<svg width="24" height="24" viewBox="0 0 24 24" fill="none" xmlns="http://www.w3.org/2000/svg">
<path d="M9.5 14.5L16 8M9.5 14.5L8.41421 13.4142C7.63317 12.6332 6.36684 12.6332 5.58579 13.4142L4.17157 14.8284C3.42143 15.5786 3 16.596 3 17.6569V19C3 20.1046 3.89543 21 5 21H6.34315C7.40401 21 8.42143 20.5786 9.17157 19.8284L10.5858 18.4142C11.3668 17.6332 11.3668 16.3668 10.5858 15.5858L9.5 14.5ZM16 8V6.24264C16 5.44699 16.3161 4.68393 16.8787 4.12132L17.2929 3.70711C17.6834 3.31658 18.3166 3.31658 18.7071 3.70711L20.2929 5.29289C20.6834 5.68342 20.6834 6.31658 20.2929 6.70711L19.8787 7.12132C19.3161 7.68393 18.553 8 17.7574 8H16Z" stroke="black" stroke-width="2" stroke-linecap="round" stroke-linejoin="round"/>
</svg>
