<svg width="24" height="24" viewBox="0 0 24 24" fill="none" xmlns="http://www.w3.org/2000/svg">
<path fill-rule="evenodd" clip-rule="evenodd" d="M3 10C3 9.44772 3.44772 9 4 9H8V9.5C8 10.8807 9.11929 12 10.5 12H13.5C14.8807 12 16 10.8807 16 9.5V9H20C20.5523 9 21 9.44772 21 10V14C21 14.5523 20.5523 15 20 15H4C3.44772 15 3 14.5523 3 14V10ZM10 9.5V9H14V9.5C14 9.77614 13.7761 10 13.5 10H10.5C10.2239 10 10 9.77614 10 9.5ZM4 7C2.34315 7 1 8.34315 1 10V14C1 15.6569 2.34315 17 4 17H20C21.6569 17 23 15.6569 23 14V10C23 8.34315 21.6569 7 20 7H15H9H4ZM6.98744 11.0126C7.67085 11.696 7.67085 12.804 6.98744 13.4874C6.30402 14.1709 5.19598 14.1709 4.51256 13.4874C3.82915 12.804 3.82915 11.696 4.51256 11.0126C5.19598 10.3291 6.30402 10.3291 6.98744 11.0126ZM4.9545 13.0455C4.80806 12.899 4.80806 12.6616 4.9545 12.5152L6.01517 11.4545C6.16161 11.3081 6.39905 11.3081 6.5455 11.4545C6.69194 11.601 6.69194 11.8384 6.5455 11.9848L5.48483 13.0455C5.33839 13.1919 5.10095 13.1919 4.9545 13.0455ZM17.125 12.25C17.125 12.0429 17.2929 11.875 17.5 11.875H19C19.2071 11.875 19.375 12.0429 19.375 12.25C19.375 12.4571 19.2071 12.625 19 12.625H17.5C17.2929 12.625 17.125 12.4571 17.125 12.25ZM20 12.25C20 13.2165 19.2165 14 18.25 14C17.2835 14 16.5 13.2165 16.5 12.25C16.5 11.2835 17.2835 10.5 18.25 10.5C19.2165 10.5 20 11.2835 20 12.25Z" fill="black"/>
</svg>
