<svg width="24" height="24" viewBox="0 0 24 24" fill="none" xmlns="http://www.w3.org/2000/svg">
<path d="M4 14.5V11M4 11V5.5C4 4.67157 4.67157 4 5.5 4H7.39811C8.89107 4 10.1568 5.09779 10.368 6.57574L11 11M4 11H11M11 11H14.3924M21 10.6736C20.0907 10.2417 19.0736 10 18 10C14.829 10 12.1504 12.1085 11.2899 15C11.1626 15.4277 11 16 11 17H7M14 16.5V16.5C14 18.433 15.567 20 17.5 20V20C19.433 20 21 18.433 21 16.5V16.5C21 14.567 19.433 13 17.5 13V13C15.567 13 14 14.567 14 16.5ZM4.5 15V15C5.88071 15 7 16.1193 7 17.5V17.5C7 18.8807 5.88071 20 4.5 20V20C3.11929 20 2 18.8807 2 17.5V17.5C2 16.1193 3.11929 15 4.5 15Z" stroke="black" stroke-width="2" stroke-linecap="round" stroke-linejoin="round"/>
</svg>
