<svg width="24" height="24" viewBox="0 0 24 24" fill="none" xmlns="http://www.w3.org/2000/svg">
<path d="M3 14V18C3 19.6569 4.34315 21 6 21H18C19.6569 21 21 19.6569 21 18V14M3 14V11C3 9.34315 4.34315 8 6 8H8H16H18C19.6569 8 21 9.34315 21 11V14M3 14H10M21 14H14M7 12V16M17 12V16M10 14V16C10 16.5523 10.4477 17 11 17H13C13.5523 17 14 16.5523 14 16V14M10 14H14M16 5C16 3.89543 15.1046 3 14 3H10C8.89543 3 8 3.89543 8 5" stroke="black" stroke-width="2" stroke-linecap="round" stroke-linejoin="round"/>
</svg>
