<svg width="24" height="24" viewBox="0 0 24 24" fill="none" xmlns="http://www.w3.org/2000/svg">
<path d="M3 16V18C3 19.6569 4.34315 21 6 21H18C19.6569 21 21 19.6569 21 18V16M3 16V11C3 9.34315 4.34315 8 6 8H8H16H18C19.6569 8 21 9.34315 21 11V16M3 16H9M21 16H15M9 11V11.5M9 16V16.5C9 17.0523 9.44772 17.5 10 17.5H14C14.5523 17.5 15 17.0523 15 16.5V16M9 16V15.5C9 14.9477 9.44772 14.5 10 14.5H14C14.5523 14.5 15 14.9477 15 15.5V16M16 5C16 3.89543 15.1046 3 14 3H10C8.89543 3 8 3.89543 8 5M15 11V11.5" stroke="black" stroke-width="2" stroke-linecap="round" stroke-linejoin="round"/>
</svg>
