<svg width="24" height="24" viewBox="0 0 24 24" fill="none" xmlns="http://www.w3.org/2000/svg">
<path d="M3 13V18C3 19.6569 4.34315 21 6 21H18C19.6569 21 21 19.6569 21 18V13M3 13V10.2426C3 9.44699 3.31607 8.68393 3.87868 8.12132L5.12132 6.87868C5.68393 6.31607 6.44699 6 7.24264 6H8M3 13H9M21 13V10.2426C21 9.44699 20.6839 8.68393 20.1213 8.12132L18.8787 6.87868C18.3161 6.31607 17.553 6 16.7574 6H16M21 13H15M9 13V15C9 16.1046 9.89543 17 11 17H13C14.1046 17 15 16.1046 15 15V13M9 13H15M8 6V5C8 3.89543 8.89543 3 10 3H14C15.1046 3 16 3.89543 16 5V6M8 6H16M8 9V10M12 9V10M16 9V10" stroke="black" stroke-width="2" stroke-linecap="round" stroke-linejoin="round"/>
</svg>
