<svg width="24" height="24" viewBox="0 0 24 24" fill="none" xmlns="http://www.w3.org/2000/svg">
<path d="M3 15V18C3 19.6569 4.34315 21 6 21H18C19.6569 21 21 19.6569 21 18V15M3 15V11C3 9.34315 4.34315 8 6 8H8H16H18C19.6569 8 21 9.34315 21 11V15M3 15H10M21 15H14M8 11V12M10 15V17C10 17.5523 10.4477 18 11 18H13C13.5523 18 14 17.5523 14 17V15M10 15H14M16 5C16 3.89543 15.1046 3 14 3H10C8.89543 3 8 3.89543 8 5M12 11V12M16 11V12" stroke="black" stroke-width="2" stroke-linecap="round" stroke-linejoin="round"/>
</svg>
