<svg width="24" height="24" viewBox="0 0 24 24" fill="none" xmlns="http://www.w3.org/2000/svg">
<path d="M12.6217 12.5188L9.35916 9.49014C8.86849 9.03464 8.0463 9.13339 7.69665 9.68981L2.14691 18.5215C1.69012 19.2485 2.36507 20.1373 3.25611 19.9822L15.9412 17.7742C16.7777 17.6287 17.0963 16.6726 16.4945 16.1139L15.5321 15.2205M16.6725 7.6527C15.8019 8.12417 15.2665 8.98944 15.2665 9.92513C15.2665 10.8203 14.7762 11.654 13.965 12.1381L8.3884 15.4661M17.4241 5.38333L19.6075 4.201C20.3339 3.80767 21.2628 4.0081 21.7303 4.65901C22.2422 5.37193 22.0022 6.34006 21.2067 6.77086L19.0233 7.95319C18.2969 8.34652 17.368 8.14609 16.9005 7.49518C16.3885 6.78226 16.6286 5.81413 17.4241 5.38333Z" stroke="black" stroke-width="2" stroke-linecap="round" stroke-linejoin="round"/>
</svg>
