<svg width="24" height="24" viewBox="0 0 24 24" fill="none" xmlns="http://www.w3.org/2000/svg">
<path d="M3 16.8508L7.42426 12.4266C8.68633 11.1645 9.01305 9.27067 9.41757 7.53229C9.65751 6.50117 10.1793 5.52234 10.983 4.71864C12.6576 3.04411 15.0924 2.59324 17.1763 3.36604L14.042 6.50033C13.8545 6.68787 13.7491 6.94222 13.7491 7.20744L13.7491 9.25086C13.7491 9.80315 14.1969 10.2509 14.7491 10.2509L16.7926 10.2509C17.0578 10.2509 17.3121 10.1455 17.4997 9.95797L20.634 6.82368C21.4068 8.90762 20.9559 11.3424 19.2814 13.017C18.4777 13.8207 17.4988 14.3425 16.4677 14.5824C14.7293 14.987 12.8355 15.3137 11.5734 16.5757L7.14917 21" stroke="black" stroke-width="2" stroke-linecap="round" stroke-linejoin="round"/>
</svg>
