<svg width="24" height="24" viewBox="0 0 24 24" fill="none" xmlns="http://www.w3.org/2000/svg">
<path d="M9 22V17.8546C9 16.3104 8.03082 14.9689 6.95924 13.857C5.74608 12.5983 5 10.8863 5 9C5 5.13401 8.13401 2 12 2C15.866 2 19 5.13401 19 9C19 10.8863 18.2539 12.5983 17.0408 13.857C15.9692 14.9689 15 16.3104 15 17.8546V22M12.9005 5.91952L14.2182 6.68029C14.7751 7.00183 15.1182 7.59605 15.1182 8.23913V9.76067C15.1182 10.4037 14.7751 10.998 14.2182 11.3195L12.9005 12.0803C12.3436 12.4018 11.6574 12.4018 11.1005 12.0803L9.78281 11.3195C9.22589 10.998 8.88281 10.4037 8.88281 9.76067V8.23913C8.88281 7.59605 9.22589 7.00183 9.78281 6.68029L11.1005 5.91952C11.6574 5.59798 12.3436 5.59798 12.9005 5.91952Z" stroke="black" stroke-width="2" stroke-linecap="round" stroke-linejoin="round"/>
</svg>
