<svg width="24" height="24" viewBox="0 0 24 24" fill="none" xmlns="http://www.w3.org/2000/svg">
<path fill-rule="evenodd" clip-rule="evenodd" d="M14 7C14 5.34315 15.3431 4 17 4C18.6569 4 20 5.34315 20 7C20 8.65685 18.6569 10 17 10C16.4094 10 15.6979 10.1693 15.1575 10.7096L6.2533 19.6138C5.73786 20.1293 4.90219 20.1293 4.3867 19.6139C3.87114 19.0985 3.87109 18.2627 4.38661 17.7471L3.68349 17.044L4.38661 17.7471L13.29 8.84376C13.8307 8.30304 14 7.59096 14 7ZM17 2C14.2386 2 12 4.23858 12 7C12 7.24691 11.9275 7.37782 11.8758 7.42955L2.97239 16.3329C1.67578 17.6295 1.67588 19.7318 2.97264 21.0283C4.2692 22.3246 6.37109 22.3245 7.66751 21.0281L16.5718 12.1238C16.6232 12.0723 16.7537 12 17 12C19.7614 12 22 9.76142 22 7C22 4.23858 19.7614 2 17 2ZM6.06648 19.3477C6.45701 18.9572 6.45701 18.324 6.06648 17.9335C5.67596 17.543 5.04279 17.543 4.65227 17.9335L4.63664 17.9491C4.24612 18.3397 4.24612 18.9728 4.63664 19.3634C5.02717 19.7539 5.66033 19.7539 6.05086 19.3634L6.06648 19.3477ZM17 8.5C16.1716 8.5 15.5 7.82843 15.5 7C15.5 6.17157 16.1716 5.5 17 5.5C17.8284 5.5 18.5 6.17157 18.5 7C18.5 7.82843 17.8284 8.5 17 8.5Z" fill="black"/>
</svg>
