<svg width="24" height="24" viewBox="0 0 24 24" fill="none" xmlns="http://www.w3.org/2000/svg">
<path d="M5.34375 18.6562L5.35937 18.6406M17.988 3.51166C16.0253 2.57735 13.6055 2.9226 11.9807 4.54741C11.297 5.2311 10.8399 6.05556 10.6093 6.92749C10.1213 8.77295 9.86308 10.8558 8.51336 12.2056L3.6795 17.04C2.77343 17.9461 2.77351 19.4151 3.67967 20.3211C4.58569 21.227 6.05448 21.2269 6.96041 20.3209L11.794 15.4868C13.1439 14.1368 15.2269 13.8785 17.0725 13.3903C17.9443 13.1597 18.7687 12.7026 19.4522 12.019C21.0771 10.3942 21.4223 7.97433 20.488 6.01166L17.2497 9.25C16.5593 9.94036 15.44 9.94036 14.7497 9.25C14.0593 8.55964 14.0593 7.44036 14.7497 6.75L17.988 3.51166Z" stroke="black" stroke-width="2" stroke-linecap="round" stroke-linejoin="round"/>
</svg>
