<svg width="24" height="24" viewBox="0 0 24 24" fill="none" xmlns="http://www.w3.org/2000/svg">
<path d="M11.9807 4.54741C13.6055 2.9226 16.0253 2.57735 17.988 3.51166L14.7497 6.75C14.0593 7.44036 14.0593 8.55964 14.7497 9.25C15.44 9.94036 16.5593 9.94036 17.2497 9.25L20.488 6.01166C21.4223 7.97433 21.0771 10.3942 19.4522 12.019C18.1351 13.3361 16.2955 13.8124 14.6005 13.4478C14.2272 13.3675 13.8285 13.4521 13.5585 13.7221L6.96041 20.3209C6.05448 21.2269 4.58569 21.227 3.67967 20.3211C2.77351 19.4151 2.77343 17.9461 3.6795 17.04L10.2777 10.4411C10.5476 10.1712 10.6321 9.77248 10.5519 9.39924C10.1872 7.70423 10.6635 5.86458 11.9807 4.54741Z" stroke="black" stroke-width="2" stroke-linecap="round" stroke-linejoin="round"/>
</svg>
