<svg width="24" height="24" viewBox="0 0 24 24" fill="none" xmlns="http://www.w3.org/2000/svg">
<path d="M5.35947 18.6407L5.34384 18.6563M17.988 3.51166L14.7497 6.75C14.0593 7.44036 14.0593 8.55964 14.7497 9.25C15.44 9.94036 16.5593 9.94036 17.2497 9.25L20.488 6.01166C21.0839 7.26343 21.1593 8.70117 20.7142 10L18.2523 12.4619C17.7134 13.0008 17.0627 13.4492 16.3053 13.5336C16.1506 13.5509 15.9953 13.5613 15.8399 13.5649C14.6947 13.5915 13.4862 13.7944 12.6763 14.6045L6.96041 20.3209C6.05448 21.2269 4.58569 21.227 3.67967 20.3211C2.77351 19.4151 2.77343 17.9461 3.6795 17.04L9.39552 11.3234C10.2053 10.5135 10.4082 9.30507 10.4347 8.16004C10.4383 8.0045 10.4487 7.8491 10.466 7.69431C10.5505 6.93696 10.9989 6.28625 11.5377 5.7474L13.9997 3.28547C15.2985 2.84037 16.7362 2.91577 17.988 3.51166Z" stroke="black" stroke-width="2" stroke-linecap="round" stroke-linejoin="round"/>
</svg>
