<svg width="24" height="24" viewBox="0 0 24 24" fill="none" xmlns="http://www.w3.org/2000/svg">
<path d="M14.7497 6.75L17.988 3.51166C16.7362 2.91577 15.2985 2.84037 13.9997 3.28547L10.7187 6.56637C10.4058 7.47965 10.3502 8.46159 10.5519 9.39928C10.6322 9.77252 10.5476 10.1712 10.2777 10.4411L3.6795 17.04C2.77343 17.9461 2.77351 19.4151 3.67967 20.3211C4.58569 21.227 6.05448 21.2269 6.96041 20.3209L13.5585 13.7221C13.8285 13.4521 14.2272 13.3675 14.6005 13.4478C15.5381 13.6495 16.52 13.5939 17.4333 13.2809L20.7142 10C21.1593 8.70117 21.0839 7.26343 20.488 6.01166L17.2497 9.25C16.5593 9.94036 15.44 9.94036 14.7497 9.25C14.0593 8.55964 14.0593 7.44036 14.7497 6.75Z" stroke="black" stroke-width="2" stroke-linecap="round" stroke-linejoin="round"/>
</svg>
