<svg width="24" height="24" viewBox="0 0 24 24" fill="none" xmlns="http://www.w3.org/2000/svg">
<path fill-rule="evenodd" clip-rule="evenodd" d="M12.2099 6.97815C10.1745 7.476 8.03226 8 5.29198 8H4C3.44772 8 3 8.44772 3 9V10.292V15.708V17C3 17.5523 3.44772 18 4 18H5.29198C7.77853 18 9.71764 17.5288 11.7624 17.0286L11.7902 17.0218C13.8255 16.524 15.9677 16 18.708 16H20C20.5523 16 21 15.5523 21 15V13.708V8.29198V7C21 6.44772 20.5523 6 20 6H18.708C16.2215 6 14.2824 6.47122 12.2376 6.97136L12.2099 6.97815ZM11.7901 5.02185C13.8255 4.524 15.9677 4 18.708 4H20C21.6569 4 23 5.34315 23 7V8.29198V13.708V15C23 16.6569 21.6569 18 20 18H18.708C16.2215 18 14.2824 18.4712 12.2376 18.9714L12.2098 18.9782C10.1745 19.476 8.03226 20 5.29198 20H4C2.34315 20 1 18.6569 1 17V15.708V10.292V9C1 7.34315 2.34315 6 4 6H5.29198C7.77853 6 9.71764 5.52878 11.7624 5.02863L11.7901 5.02185ZM12 7.5C12.5523 7.5 13 7.94772 13 8.5V8.77924L13.8162 9.05132C14.3402 9.22596 14.6233 9.79228 14.4487 10.3162C14.274 10.8402 13.7077 11.1233 13.1838 10.9487L12 10.5541L11.5 10.7208L11.5 10.7792L13.1325 11.3234C13.9491 11.5956 14.5 12.3599 14.5 13.2208V13.2792C14.5 14.1401 13.9491 14.9044 13.1325 15.1766L13 15.2208V15.5C13 16.0523 12.5523 16.5 12 16.5C11.4477 16.5 11 16.0523 11 15.5V15.2208L10.1838 14.9487C9.65983 14.774 9.37667 14.2077 9.55132 13.6838C9.72596 13.1598 10.2923 12.8767 10.8162 13.0513L12 13.4459L12.5 13.2792L12.5 13.2208L10.8675 12.6766C10.0509 12.4044 9.5 11.6401 9.5 10.7792V10.7208C9.5 9.8599 10.0509 9.09562 10.8675 8.82339L11 8.77924V8.5C11 7.94772 11.4477 7.5 12 7.5ZM17.5 9C18.0523 9 18.5 9.44772 18.5 10V12C18.5 12.5523 18.0523 13 17.5 13C16.9477 13 16.5 12.5523 16.5 12V10C16.5 9.44772 16.9477 9 17.5 9ZM6.5 11C7.05228 11 7.5 11.4477 7.5 12V14C7.5 14.5523 7.05228 15 6.5 15C5.94772 15 5.5 14.5523 5.5 14V12C5.5 11.4477 5.94772 11 6.5 11Z" fill="black"/>
</svg>
