<svg width="24" height="24" viewBox="0 0 24 24" fill="none" xmlns="http://www.w3.org/2000/svg">
<path fill-rule="evenodd" clip-rule="evenodd" d="M5.29198 8C8.03226 8 10.1745 7.476 12.2099 6.97815L12.2376 6.97136C14.2824 6.47122 16.2215 6 18.708 6H20C20.5523 6 21 6.44772 21 7V8.29198V13.708V15C21 15.5523 20.5523 16 20 16H18.708C15.9677 16 13.8255 16.524 11.7902 17.0218L11.7624 17.0286C9.71764 17.5288 7.77853 18 5.29198 18H4C3.44772 18 3 17.5523 3 17V15.708V10.292V9C3 8.44772 3.44772 8 4 8H5.29198ZM18.708 4C15.9677 4 13.8255 4.524 11.7901 5.02185L11.7624 5.02863C9.71764 5.52878 7.77853 6 5.29198 6H4C2.34315 6 1 7.34315 1 9V10.292V15.708V17C1 18.6569 2.34315 20 4 20H5.29198C8.03226 20 10.1745 19.476 12.2098 18.9782L12.2376 18.9714C14.2824 18.4712 16.2215 18 18.708 18H20C21.6569 18 23 16.6569 23 15V13.708V8.29198V7C23 5.34315 21.6569 4 20 4H18.708ZM18.5 10C18.5 9.44772 18.0523 9 17.5 9C16.9477 9 16.5 9.44772 16.5 10V12C16.5 12.5523 16.9477 13 17.5 13C18.0523 13 18.5 12.5523 18.5 12V10ZM7.5 12C7.5 11.4477 7.05228 11 6.5 11C5.94772 11 5.5 11.4477 5.5 12V14C5.5 14.5523 5.94772 15 6.5 15C7.05228 15 7.5 14.5523 7.5 14V12ZM14 12C14 13.1046 13.1046 14 12 14C10.8954 14 10 13.1046 10 12C10 10.8954 10.8954 10 12 10C13.1046 10 14 10.8954 14 12Z" fill="black"/>
</svg>
