<svg width="24" height="24" viewBox="0 0 24 24" fill="none" xmlns="http://www.w3.org/2000/svg">
<path fill-rule="evenodd" clip-rule="evenodd" d="M4 5C2.34315 5 1 6.34315 1 8V9.29198V14.708V16C1 17.6569 2.34315 19 4 19H5.29198H18.708H20C21.6569 19 23 17.6569 23 16V14.708V9.29198V8C23 6.34315 21.6569 5 20 5H18.708H5.29198H4ZM5.5 7C5.5 8.38071 4.38071 9.5 3 9.5V14.5C4.38071 14.5 5.5 15.6193 5.5 17H18.5C18.5 15.6193 19.6193 14.5 21 14.5V9.5C19.6193 9.5 18.5 8.38071 18.5 7H5.5ZM12 14C13.1046 14 14 13.1046 14 12C14 10.8954 13.1046 10 12 10C10.8954 10 10 10.8954 10 12C10 13.1046 10.8954 14 12 14Z" fill="black"/>
</svg>
