<svg width="24" height="24" viewBox="0 0 24 24" fill="none" xmlns="http://www.w3.org/2000/svg">
<path d="M18.708 5C18.5742 5.30623 18.5 5.64445 18.5 6C18.5 7.38071 19.6193 8.5 21 8.5C21.3556 8.5 21.6938 8.42578 22 8.29198M18.708 5H20C21.1046 5 22 5.89543 22 7V8.29198M18.708 5C13.4687 5 10.5313 7 5.29198 7M22 8.29198V13.708M22 13.708V15C22 16.1046 21.1046 17 20 17H18.708M22 13.708C21.6938 13.5742 21.3556 13.5 21 13.5C19.6193 13.5 18.5 14.6193 18.5 16C18.5 16.3556 18.5742 16.6938 18.708 17M18.708 17C13.4687 17 10.5313 19 5.29198 19M5.29198 19H4C2.89543 19 2 18.1046 2 17V15.708M5.29198 19C5.42578 18.6938 5.5 18.3556 5.5 18C5.5 16.6193 4.38071 15.5 3 15.5C2.64445 15.5 2.30623 15.5742 2 15.708M2 15.708V10.292M2 10.292V9C2 7.89543 2.89543 7 4 7H5.29198M2 10.292C2.30623 10.4258 2.64445 10.5 3 10.5C4.38071 10.5 5.5 9.38071 5.5 8C5.5 7.64445 5.42578 7.30623 5.29198 7M14 12C14 13.1046 13.1046 14 12 14C10.8954 14 10 13.1046 10 12C10 10.8954 10.8954 10 12 10C13.1046 10 14 10.8954 14 12Z" stroke="black" stroke-width="2"/>
</svg>
