<svg width="24" height="24" viewBox="0 0 24 24" fill="none" xmlns="http://www.w3.org/2000/svg">
<path fill-rule="evenodd" clip-rule="evenodd" d="M4 5C2.34315 5 1 6.34315 1 8V9.29198V14.708V16C1 17.6569 2.34315 19 4 19H5.29198H18.708H20C21.6569 19 23 17.6569 23 16V14.708V9.29198V8C23 6.34315 21.6569 5 20 5H18.708H5.29198H4ZM3 8C3 7.44772 3.44772 7 4 7H5.29198H18.708H20C20.5523 7 21 7.44772 21 8V9.29198V14.708V16C21 16.5523 20.5523 17 20 17H18.708H5.29198H4C3.44772 17 3 16.5523 3 16V14.708V9.29198V8ZM7.5 11C7.5 10.4477 7.05228 10 6.5 10C5.94772 10 5.5 10.4477 5.5 11V13C5.5 13.5523 5.94772 14 6.5 14C7.05228 14 7.5 13.5523 7.5 13V11ZM18.5 11C18.5 10.4477 18.0523 10 17.5 10C16.9477 10 16.5 10.4477 16.5 11V13C16.5 13.5523 16.9477 14 17.5 14C18.0523 14 18.5 13.5523 18.5 13V11ZM14 12C14 13.1046 13.1046 14 12 14C10.8954 14 10 13.1046 10 12C10 10.8954 10.8954 10 12 10C13.1046 10 14 10.8954 14 12Z" fill="black"/>
</svg>
