<svg width="24" height="24" viewBox="0 0 24 24" fill="none" xmlns="http://www.w3.org/2000/svg">
<path d="M18.708 6C18.5742 6.30623 18.5 6.64445 18.5 7C18.5 8.38071 19.6193 9.5 21 9.5C21.3556 9.5 21.6938 9.42578 22 9.29198M18.708 6H20C21.1046 6 22 6.89543 22 8V9.29198M18.708 6H5.29198M22 9.29198V14.708M22 14.708V16C22 17.1046 21.1046 18 20 18H18.708M22 14.708C21.6938 14.5742 21.3556 14.5 21 14.5C19.6193 14.5 18.5 15.6193 18.5 17C18.5 17.3556 18.5742 17.6938 18.708 18M18.708 18H5.29198M5.29198 18H4C2.89543 18 2 17.1046 2 16V14.708M5.29198 18C5.42578 17.6938 5.5 17.3556 5.5 17C5.5 15.6193 4.38071 14.5 3 14.5C2.64445 14.5 2.30623 14.5742 2 14.708M2 14.708V9.29198M2 9.29198V8C2 6.89543 2.89543 6 4 6H5.29198M2 9.29198C2.30623 9.42578 2.64445 9.5 3 9.5C4.38071 9.5 5.5 8.38071 5.5 7C5.5 6.64445 5.42578 6.30623 5.29198 6M14 12C14 13.1046 13.1046 14 12 14C10.8954 14 10 13.1046 10 12C10 10.8954 10.8954 10 12 10C13.1046 10 14 10.8954 14 12Z" stroke="black" stroke-width="2"/>
</svg>
