<svg width="24" height="24" viewBox="0 0 24 24" fill="none" xmlns="http://www.w3.org/2000/svg">
<path d="M5.5 7.61077L10.7806 3.42717C11.4995 2.85761 12.5005 2.85761 13.2194 3.42717L18.5 7.61077M5.5 7.61077H18.5M5.5 7.61077C4.67157 7.61077 4 8.30245 4 9.15568C4 10.0089 4.67157 10.7006 5.5 10.7006H6M18.5 7.61077C19.3284 7.61077 20 8.30245 20 9.15568C20 10.0089 19.3284 10.7006 18.5 10.7006H18M14 10.7006V17.9102M14 10.7006H18M14 10.7006H10M14 17.9102H18M14 17.9102H10M18 10.7006V17.9102M18 17.9102H19.5C20.3284 17.9102 21 18.6019 21 19.4551C21 20.3083 20.3284 21 19.5 21H4.5C3.67157 21 3 20.3083 3 19.4551C3 18.6019 3.67157 17.9102 4.5 17.9102H6M6 10.7006V17.9102M6 10.7006H10M6 17.9102H10M10 10.7006V17.9102" stroke="black" stroke-width="2" stroke-linecap="round" stroke-linejoin="round"/>
</svg>
