<svg width="24" height="24" viewBox="0 0 24 24" fill="none" xmlns="http://www.w3.org/2000/svg">
<path d="M18 9.5V12.5M6 11.5V14.5M4 19C2.89543 19 2 18.1046 2 17V15.708V10.292V9C2 7.89543 2.89543 7 4 7H5.29198C10.5313 7 13.4687 5 18.708 5H20C21.1046 5 22 5.89543 22 7V8.29198V13.708V15C22 16.1046 21.1046 17 20 17H18.708C13.4687 17 10.5313 19 5.29198 19H4ZM14 12C14 13.1046 13.1046 14 12 14C10.8954 14 10 13.1046 10 12C10 10.8954 10.8954 10 12 10C13.1046 10 14 10.8954 14 12Z" stroke="black" stroke-width="2" stroke-linecap="round"/>
</svg>
