<svg width="24" height="24" viewBox="0 0 24 24" fill="none" xmlns="http://www.w3.org/2000/svg">
<path fill-rule="evenodd" clip-rule="evenodd" d="M5.5 7.99899C8.14121 7.97335 10.2263 7.46333 12.2099 6.97815L12.2376 6.97136C14.225 6.48526 16.1126 6.02647 18.5 6.0011C18.5006 7.38131 19.6197 8.5 21 8.5V13.5C19.6193 13.5 18.5 14.6193 18.5 16C18.5 16.0003 18.5 16.0007 18.5 16.001C15.8588 16.0266 13.7737 16.5367 11.7902 17.0218L11.7624 17.0286C9.77501 17.5147 7.88743 17.9735 5.5 17.9989C5.4994 16.6187 4.38034 15.5 3 15.5V10.5C4.38071 10.5 5.5 9.38071 5.5 8C5.5 7.99966 5.5 7.99933 5.5 7.99899ZM18.708 4C15.9677 4 13.8255 4.524 11.7901 5.02185L11.7624 5.02863C9.71764 5.52878 7.77853 6 5.29198 6H4C2.34315 6 1 7.34315 1 9V10.292V15.708V17C1 18.6569 2.34315 20 4 20H5.29198C8.03226 20 10.1745 19.476 12.2098 18.9782L12.2376 18.9714C14.2824 18.4712 16.2215 18 18.708 18H20C21.6569 18 23 16.6569 23 15V13.708V8.29198V7C23 5.34315 21.6569 4 20 4H18.708ZM12 14C13.1046 14 14 13.1046 14 12C14 10.8954 13.1046 10 12 10C10.8954 10 10 10.8954 10 12C10 13.1046 10.8954 14 12 14Z" fill="black"/>
</svg>
