<svg width="24" height="24" viewBox="0 0 24 24" fill="none" xmlns="http://www.w3.org/2000/svg">
<path d="M19 14C19 14.7684 18.326 15.4692 17.2176 16C15.9358 16.6137 14.0732 17 12 17C9.92683 17 8.06417 16.6137 6.78242 16C5.67399 15.4692 5 14.7684 5 14M19 14V10M19 14V18C19 19.6569 15.866 21 12 21C8.13401 21 5 19.6569 5 18V14M5 14V10M19 10C19 10.7684 18.326 11.4692 17.2176 12C15.9358 12.6137 14.0732 13 12 13C9.92683 13 8.06417 12.6137 6.78242 12C5.67399 11.4692 5 10.7684 5 10M19 10V6M5 10V6M19 6C19 4.34315 15.866 3 12 3C8.13401 3 5 4.34315 5 6M19 6C19 6.76835 18.326 7.46924 17.2176 8C15.9358 8.61375 14.0732 9 12 9C9.92683 9 8.06417 8.61375 6.78242 8C5.67399 7.46924 5 6.76835 5 6" stroke="black" stroke-width="2"/>
</svg>
