<svg width="24" height="24" viewBox="0 0 24 24" fill="none" xmlns="http://www.w3.org/2000/svg">
<path fill-rule="evenodd" clip-rule="evenodd" d="M6.70711 1.29289C6.31658 0.902369 5.68342 0.902369 5.29289 1.29289C4.90237 1.68342 4.90237 2.31658 5.29289 2.70711L5.60144 3.01565C3.02635 3.21874 1 5.37273 1 8C1 8.55228 1.44772 9 2 9C2.55228 9 3 8.55228 3 8C3 6.49516 4.10798 5.24911 5.55266 5.03313L5.29289 5.29289C4.90237 5.68342 4.90237 6.31658 5.29289 6.70711C5.68342 7.09763 6.31658 7.09763 6.70711 6.70711L8.70711 4.70711C9.09763 4.31658 9.09763 3.68342 8.70711 3.29289L6.70711 1.29289ZM8 9C4.13401 9 1 12.134 1 16C1 19.866 4.13401 23 8 23C11.866 23 15 19.866 15 16C15 14.923 14.7561 13.9001 14.3195 12.9862C13.6293 11.5411 12.4589 10.3707 11.0138 9.68048C10.0999 9.24392 9.07701 9 8 9ZM3 16C3 13.2386 5.23858 11 8 11C8.77242 11 9.50129 11.1745 10.1518 11.4852C11.1841 11.9782 12.0218 12.8159 12.5148 13.8482C12.8255 14.4987 13 15.2276 13 16C13 18.7614 10.7614 21 8 21C5.23858 21 3 18.7614 3 16ZM23 16C23 15.4477 22.5523 15 22 15C21.4477 15 21 15.4477 21 16C21 17.5048 19.892 18.7509 18.4473 18.9669L18.7071 18.7071C19.0976 18.3166 19.0976 17.6834 18.7071 17.2929C18.3166 16.9024 17.6834 16.9024 17.2929 17.2929L15.2929 19.2929C14.9024 19.6834 14.9024 20.3166 15.2929 20.7071L17.2929 22.7071C17.6834 23.0976 18.3166 23.0976 18.7071 22.7071C19.0976 22.3166 19.0976 21.6834 18.7071 21.2929L18.3986 20.9843C20.9736 20.7813 23 18.6273 23 16ZM11.0227 7.52055C10.3977 7.29774 9.74121 7.14211 9.06229 7.06215C9.52056 3.63961 12.452 1 16 1C17.077 1 18.0999 1.24392 19.0138 1.68048C20.4589 2.37071 21.6293 3.54108 22.3195 4.98617C22.7561 5.90015 23 6.92299 23 8C23 11.548 20.3604 14.4794 16.9378 14.9377C16.8579 14.2588 16.7023 13.6023 16.4795 12.9773C19.016 12.736 21 10.5997 21 8C21 7.22758 20.8255 6.49871 20.5148 5.84817C20.0218 4.81588 19.1841 3.97825 18.1518 3.48518C17.5013 3.17446 16.7724 3 16 3C13.4003 3 11.264 4.98405 11.0227 7.52055Z" fill="black"/>
</svg>
