<svg width="24" height="24" viewBox="0 0 24 24" fill="none" xmlns="http://www.w3.org/2000/svg">
<path d="M17.2176 16C18.326 15.4692 19 14.7684 19 14C19 13.2316 18.326 12.5308 17.2176 12M17.2176 16C15.9358 16.6137 14.0732 17 12 17C9.92683 17 8.06417 16.6137 6.78242 16M17.2176 16C18.326 16.5308 19 17.2316 19 18C19 19.6569 15.866 21 12 21C8.13401 21 5 19.6569 5 18C5 17.2316 5.67399 16.5308 6.78242 16M6.78242 16C5.67399 15.4692 5 14.7684 5 14C5 13.2316 5.67399 12.5308 6.78242 12M6.78242 12C8.06417 12.6137 9.92683 13 12 13C14.0732 13 15.9358 12.6137 17.2176 12M6.78242 12C5.67399 11.4692 5 10.7684 5 10C5 9.23165 5.67399 8.53076 6.78242 8M17.2176 12C18.326 11.4692 19 10.7684 19 10C19 9.23165 18.326 8.53076 17.2176 8M17.2176 8C18.326 7.46924 19 6.76835 19 6C19 4.34315 15.866 3 12 3C8.13401 3 5 4.34315 5 6C5 6.76835 5.67399 7.46924 6.78242 8M17.2176 8C15.9358 8.61375 14.0732 9 12 9C9.92683 9 8.06417 8.61375 6.78242 8" stroke="black" stroke-width="2"/>
</svg>
