<svg width="24" height="24" viewBox="0 0 24 24" fill="none" xmlns="http://www.w3.org/2000/svg">
<path d="M2 5C2 3.34315 5.13401 2 9 2C12.866 2 16 3.34315 16 5M2 5C2 5.76835 2.67399 6.46924 3.78242 7C5.06417 7.61375 6.92683 8 9 8C11.0732 8 12.9358 7.61375 14.2176 7C15.326 6.46924 16 5.76835 16 5M2 5V9M16 5V8.03038M2 13C2 13.7684 2.67399 14.4692 3.78242 15C4.85425 15.5132 6.33232 15.8674 8 15.9696M2 13V9M2 13V17C2 18.5686 4.80917 19.8561 8.38908 19.9887M2 9C2 9.76835 2.67399 10.4692 3.78242 11C4.85425 11.5132 6.33232 11.8674 8 11.9696M8 11C8 9.34315 11.134 8 15 8C15.3395 8 15.6734 8.01036 16 8.03038M8 11C8 11.7684 8.67399 12.4692 9.78242 13C11.0642 13.6137 12.9268 14 15 14C17.0732 14 18.9358 13.6137 20.2176 13C21.326 12.4692 22 11.7684 22 11M8 11V11.9696M22 11V15M22 11C22 9.48865 19.3923 8.23834 16 8.03038M8 15C8 15.7684 8.67399 16.4692 9.78242 17C11.0642 17.6137 12.9268 18 15 18C17.0732 18 18.9358 17.6137 20.2176 17C21.326 16.4692 22 15.7684 22 15M8 15V15.9696M8 15V11.9696M22 15V19C22 19.7684 21.326 20.4692 20.2176 21C18.9358 21.6137 17.0732 22 15 22C12.9268 22 11.0642 21.6137 9.78242 21C9.17375 20.7085 8.69608 20.3658 8.38908 19.9887M8.38908 19.9887C8.13701 19.6791 8 19.3464 8 19V15.9696" stroke="black" stroke-width="2"/>
</svg>
