<svg width="24" height="24" viewBox="0 0 24 24" fill="none" xmlns="http://www.w3.org/2000/svg">
<path d="M10.5828 10.5828C10.2092 9.80057 10 8.92472 10 8C10 4.68629 12.6863 2 16 2C19.3137 2 22 4.68629 22 8C22 11.3137 19.3137 14 16 14C15.0753 14 14.1994 13.7908 13.4172 13.4172M10.5828 10.5828C9.80057 10.2092 8.92472 10 8 10C4.68629 10 2 12.6863 2 16C2 19.3137 4.68629 22 8 22C11.3137 22 14 19.3137 14 16C14 15.0753 13.7908 14.1994 13.4172 13.4172M10.5828 10.5828C11.8215 11.1745 12.8255 12.1785 13.4172 13.4172M6 6L8 4M8 4L6 2M8 4H6C3.79086 4 2 5.79086 2 8M18 18L16 20M16 20L18 22M16 20H18C20.2091 20 22 18.2091 22 16" stroke="black" stroke-width="2" stroke-linecap="round" stroke-linejoin="round"/>
</svg>
