<svg width="24" height="24" viewBox="0 0 24 24" fill="none" xmlns="http://www.w3.org/2000/svg">
<path fill-rule="evenodd" clip-rule="evenodd" d="M20 9C20 10.7208 19.1307 12.2387 17.8072 13.1382C17.9336 13.7389 18 14.3617 18 15C18 15.1102 17.998 15.2199 17.9941 15.3292C20.3622 14.2069 22 11.7947 22 9C22 5.13401 18.866 2 15 2C12.2053 2 9.79309 3.63778 8.67084 6.00591C8.78008 6.00198 8.88981 6 9.00001 6C9.63831 6 10.2611 6.06645 10.8618 6.19281C11.7614 4.86934 13.2792 4 15 4C17.7614 4 20 6.23858 20 9ZM9 8C5.13401 8 2 11.134 2 15C2 18.866 5.13401 22 9 22C12.866 22 16 18.866 16 15C16 11.134 12.866 8 9 8ZM4 15C4 12.2386 6.23858 10 9 10C11.7614 10 14 12.2386 14 15C14 17.7614 11.7614 20 9 20C6.23858 20 4 17.7614 4 15Z" fill="black"/>
</svg>
