<svg width="24" height="24" viewBox="0 0 24 24" fill="none" xmlns="http://www.w3.org/2000/svg">
<path d="M12.6125 11.0001H10.3667M12.6125 11.0001H13.0209C13.8102 11.0001 14.45 11.64 14.45 12.4293C14.45 13.2186 13.8102 13.8584 13.0209 13.8584H11.5M12.6125 11.0001C13.4018 11.0001 14.0417 10.3603 14.0417 9.57095C14.0417 8.78164 13.4893 8.14167 12.7 8.14167H11.5M10.3667 11.0001V13.8584M10.3667 11.0001V8.14178M10.3667 13.8584H9.55002M10.3667 13.8584H11.5M9.55002 8.14178H10.3667M10.3667 8.14178L11.5 8.14167M11.5 8.14167V7.325M11.5 13.8584V14.6751M21 15.7639C21.6138 16.3132 22 17.1115 22 18C22 19.6569 20.6569 21 19 21H5C3.34315 21 2 19.6569 2 18C2 17.1115 2.38626 16.3132 3.00002 15.7639M12 18C8.13403 18 5.00002 14.866 5.00002 11C5.00002 7.13401 8.13403 4 12 4C15.866 4 19 7.13401 19 11C19 14.866 15.866 18 12 18Z" stroke="black" stroke-width="2" stroke-linecap="round" stroke-linejoin="round"/>
</svg>
