<svg width="24" height="24" viewBox="0 0 24 24" fill="none" xmlns="http://www.w3.org/2000/svg">
<path d="M3 6C3 4.34315 6.13401 3 10 3C13.866 3 17 4.34315 17 6M3 6C3 6.76835 3.67399 7.46924 4.78242 8C6.06417 8.61375 7.92683 9 10 9C12.0732 9 13.9358 8.61375 15.2176 8C16.326 7.46924 17 6.76835 17 6M3 6V10M17 6V10V11.1M3 14C3 14.7684 3.67399 15.4692 4.78242 16C6.06417 16.6137 7.92683 17 10 17C10.3717 17 10.7367 16.9876 11.0928 16.9637M3 14V10M3 14V18C3 19.6569 6.13401 21 10 21C11.4169 21 12.7355 20.8196 13.8375 20.5094M3 10C3 10.7684 3.67399 11.4692 4.78242 12C6.06417 12.6137 7.92683 13 10 13C10.7344 13 11.4423 12.9515 12.1074 12.8617M17 11.1C16.6769 11.0344 16.3425 11 16 11C14.4272 11 13.0239 11.7262 12.1074 12.8617M17 11.1C19.2822 11.5633 21 13.581 21 16C21 18.7614 18.7614 21 16 21C15.2254 21 14.4919 20.8239 13.8375 20.5094M12.1074 12.8617C11.4147 13.7197 11 14.8114 11 16C11 16.3296 11.0319 16.6518 11.0928 16.9637M11.0928 16.9637C11.3988 18.5312 12.4373 19.8368 13.8375 20.5094" stroke="black" stroke-width="2"/>
</svg>
