<svg width="24" height="24" viewBox="0 0 24 24" fill="none" xmlns="http://www.w3.org/2000/svg">
<path d="M21 11.5V10M14 19H6.29198H5C3.89543 19 3 18.1046 3 17V10M21 10V7C21 5.89543 20.1046 5 19 5H17.708H6.29198H5C3.89543 5 3 5.89543 3 7V10M21 10H3M18.5 15.034C18.0002 14.4496 17.1666 14.2924 16.5404 14.8275C15.9141 15.3626 15.826 16.2572 16.3178 16.8901C16.8096 17.523 18.5 19 18.5 19C18.5 19 20.1904 17.523 20.6822 16.8901C21.174 16.2572 21.0966 15.357 20.4596 14.8275C19.8226 14.298 18.9998 14.4496 18.5 15.034Z" stroke="black" stroke-width="2" stroke-linecap="round" stroke-linejoin="round"/>
</svg>
