<svg width="24" height="24" viewBox="0 0 24 24" fill="none" xmlns="http://www.w3.org/2000/svg">
<path fill-rule="evenodd" clip-rule="evenodd" d="M2 7C2 5.34315 3.34315 4 5 4H6.29198H17.708H19C20.6569 4 22 5.34315 22 7V8V11V17C22 18.6569 20.6569 20 19 20H17.708H6.29198H5C3.34315 20 2 18.6569 2 17V11V8V7ZM5 6C4.44772 6 4 6.44772 4 7V8H20V7C20 6.44772 19.5523 6 19 6H17.708H6.29198H5ZM20 11H4V17C4 17.5523 4.44772 18 5 18H6.29198H17.708H19C19.5523 18 20 17.5523 20 17V11ZM14 17C15.1046 17 16 16.1046 16 15C16 13.8954 15.1046 13 14 13C12.8954 13 12 13.8954 12 15C12 16.1046 12.8954 17 14 17ZM17 17C16.7661 17 16.5417 16.9599 16.3331 16.8861C16.7502 16.3708 17 15.7146 17 15C17 14.2854 16.7502 13.6292 16.3331 13.1139C16.5417 13.0401 16.7661 13 17 13C18.1046 13 19 13.8954 19 15C19 16.1046 18.1046 17 17 17Z" fill="black"/>
</svg>
