<svg width="24" height="24" viewBox="0 0 24 24" fill="none" xmlns="http://www.w3.org/2000/svg">
<path d="M21 12V10M14 19H6.29198H5C3.89543 19 3 18.1046 3 17V10M21 10V7C21 5.89543 20.1046 5 19 5H17.708H6.29198H5C3.89543 5 3 5.89543 3 7V10M21 10H3M19.7008 17.7008L21 19M19.7008 17.7008C19.3615 18.0401 18.8928 18.25 18.375 18.25C17.3395 18.25 16.5 17.4105 16.5 16.375C16.5 15.3395 17.3395 14.5 18.375 14.5C19.4105 14.5 20.25 15.3395 20.25 16.375C20.25 16.8928 20.0401 17.3615 19.7008 17.7008Z" stroke="black" stroke-width="2" stroke-linecap="round" stroke-linejoin="round"/>
</svg>
