<svg width="24" height="24" viewBox="0 0 24 24" fill="none" xmlns="http://www.w3.org/2000/svg">
<path fill-rule="evenodd" clip-rule="evenodd" d="M5 4C3.34315 4 2 5.34315 2 7V10V17C2 18.6569 3.34315 20 5 20H6.29198H13.5C14.0523 20 14.5 19.5523 14.5 19C14.5 18.4477 14.0523 18 13.5 18H6.29198H5C4.44772 18 4 17.5523 4 17V11H20V13.5C20 14.0523 20.4477 14.5 21 14.5C21.5523 14.5 22 14.0523 22 13.5V10V7C22 5.34315 20.6569 4 19 4H17.708H6.29198H5ZM20 9H4V7C4 6.44772 4.44772 6 5 6H6.29198H17.708H19C19.5523 6 20 6.44772 20 7V9ZM15.9351 18.6372L15.9351 18.6372L15.935 18.6372C15.8286 18.5345 15.7754 18.4831 15.737 18.4357C15.421 18.045 15.421 17.455 15.737 17.0643C15.7754 17.0169 15.8286 16.9655 15.935 16.8628C16.27 16.5395 16.4374 16.3779 16.5963 16.2542C17.8874 15.2486 19.6126 15.2486 20.9037 16.2542C21.0626 16.3779 21.23 16.5395 21.565 16.8628L21.565 16.8628C21.6714 16.9655 21.7246 17.0169 21.763 17.0643C22.079 17.455 22.079 18.045 21.763 18.4357C21.7246 18.4831 21.6714 18.5345 21.5649 18.6372C21.23 18.9605 21.0626 19.1221 20.9037 19.2458C19.6126 20.2514 17.8874 20.2514 16.5963 19.2458C16.4374 19.1221 16.27 18.9605 15.9351 18.6372ZM19.6835 17.75C19.6835 18.3187 19.2656 18.7798 18.75 18.7798C18.2344 18.7798 17.8165 18.3187 17.8165 17.75C17.8165 17.1813 18.2344 16.7202 18.75 16.7202C19.2656 16.7202 19.6835 17.1813 19.6835 17.75Z" fill="black"/>
</svg>
