<svg width="24" height="24" viewBox="0 0 24 24" fill="none" xmlns="http://www.w3.org/2000/svg">
<path d="M21 11.5V10M12.5 19H6.29198H5C3.89543 19 3 18.1046 3 17V10M21 10V7C21 5.89543 20.1046 5 19 5H17.708H6.29198H5C3.89543 5 3 5.89543 3 7V10M21 10H3M18.4256 19.9587C19.8644 19.2392 20.9353 18.4319 20.9999 15.3565C21.0036 15.1805 20.8801 15.0273 20.7064 14.9798C20.0261 14.7938 19.1624 14.4903 18.4923 14.0693C18.3453 13.9769 18.1547 13.9769 18.0077 14.0693C17.3376 14.4903 16.4739 14.7938 15.7936 14.9798C15.6199 15.0273 15.4964 15.1805 15.5001 15.3565C15.5647 18.4319 16.6356 19.2392 18.0744 19.9587C18.1845 20.0138 18.3155 20.0138 18.4256 19.9587Z" stroke="black" stroke-width="2" stroke-linecap="round" stroke-linejoin="round"/>
</svg>
