<svg width="24" height="24" viewBox="0 0 24 24" fill="none" xmlns="http://www.w3.org/2000/svg">
<path fill-rule="evenodd" clip-rule="evenodd" d="M5 4C3.34315 4 2 5.34315 2 7V10V17C2 18.6569 3.34315 20 5 20H6.29198H13.5C14.0523 20 14.5 19.5523 14.5 19C14.5 18.4477 14.0523 18 13.5 18H6.29198H5C4.44772 18 4 17.5523 4 17V11H20V12C20 12.5523 20.4477 13 21 13C21.5523 13 22 12.5523 22 12V10V7C22 5.34315 20.6569 4 19 4H17.708H6.29198H5ZM20 9H4V7C4 6.44772 4.44772 6 5 6H6.29198H17.708H19C19.5523 6 20 6.44772 20 7V9ZM17.3281 16.0469C17.3281 15.0545 18.1326 14.25 19.125 14.25C20.1174 14.25 20.9219 15.0545 20.9219 16.0469V16.4062H21.2812C21.6782 16.4062 22 16.728 22 17.125V19.2812C22 19.6782 21.6782 20 21.2812 20H16.9688C16.5718 20 16.25 19.6782 16.25 19.2812V17.125C16.25 16.728 16.5718 16.4062 16.9688 16.4062H17.3281V16.0469ZM19.4844 16.0469V16.4062H18.7656V16.0469C18.7656 15.8484 18.9265 15.6875 19.125 15.6875C19.3235 15.6875 19.4844 15.8484 19.4844 16.0469ZM19.125 18.7422C19.4227 18.7422 19.6641 18.5008 19.6641 18.2031C19.6641 17.9054 19.4227 17.6641 19.125 17.6641C18.8273 17.6641 18.5859 17.9054 18.5859 18.2031C18.5859 18.5008 18.8273 18.7422 19.125 18.7422Z" fill="black"/>
</svg>
