<svg width="24" height="24" viewBox="0 0 24 24" fill="none" xmlns="http://www.w3.org/2000/svg">
<path fill-rule="evenodd" clip-rule="evenodd" d="M5 4C3.34315 4 2 5.34315 2 7V8V11V17C2 18.6569 3.34315 20 5 20H6.29198H17.708H19C20.6569 20 22 18.6569 22 17V11V8V7C22 5.34315 20.6569 4 19 4H17.708H6.29198H5ZM4 7C4 6.44772 4.44772 6 5 6H6.29198H17.708H19C19.5523 6 20 6.44772 20 7V8H4V7ZM4 11V17C4 17.5523 4.44772 18 5 18H6.29198H17.708H19C19.5523 18 20 17.5523 20 17V11H4ZM6 14C5.44772 14 5 14.4477 5 15C5 15.5523 5.44772 16 6 16H11C11.5523 16 12 15.5523 12 15C12 14.4477 11.5523 14 11 14H6ZM14 14C13.4477 14 13 14.4477 13 15C13 15.5523 13.4477 16 14 16H15C15.5523 16 16 15.5523 16 15C16 14.4477 15.5523 14 15 14H14Z" fill="black"/>
</svg>
