<svg width="24" height="24" viewBox="0 0 24 24" fill="none" xmlns="http://www.w3.org/2000/svg">
<path fill-rule="evenodd" clip-rule="evenodd" d="M5 4C3.34315 4 2 5.34315 2 7V10V17C2 18.6569 3.34315 20 5 20H6.29198H14C14.5523 20 15 19.5523 15 19C15 18.4477 14.5523 18 14 18H6.29198H5C4.44772 18 4 17.5523 4 17V11H20V12C20 12.5523 20.4477 13 21 13C21.5523 13 22 12.5523 22 12V10V7C22 5.34315 20.6569 4 19 4H17.708H6.29198H5ZM20 9H4V7C4 6.44772 4.44772 6 5 6H6.29198H17.708H19C19.5523 6 20 6.44772 20 7V9ZM19.3201 14.9351C19.3201 15.0626 19.4226 15.1652 19.6278 15.3703L20.6297 16.3722C20.8348 16.5774 20.9374 16.6799 21.0649 16.6799C21.1923 16.6799 21.2949 16.5774 21.5 16.3722L21.5809 16.2913C21.6306 16.2416 21.6555 16.2168 21.6755 16.1948C22.1082 15.7187 22.1082 14.9917 21.6755 14.5157C21.6555 14.4937 21.6305 14.4688 21.5809 14.4191L21.5807 14.419C21.5311 14.3693 21.5063 14.3445 21.4843 14.3245C21.0083 13.8918 20.2813 13.8918 19.8052 14.3245C19.7832 14.3445 19.7584 14.3694 19.7087 14.4191L19.6278 14.5C19.4226 14.7051 19.3201 14.8077 19.3201 14.9351ZM18.7575 15.4977C18.8849 15.4977 18.9875 15.6003 19.1926 15.8054L20.1946 16.8074C20.3997 17.0125 20.5023 17.1151 20.5023 17.2425C20.5023 17.37 20.3997 17.4725 20.1946 17.6777L19.3496 18.5227L19.3456 18.5266L19.3456 18.5266C19.2576 18.6137 19.2281 18.6429 19.1947 18.6663C19.1779 18.6781 19.16 18.6884 19.1332 18.704L19.1332 18.704C19.0837 18.7327 19.0037 18.7791 18.843 18.885C18.4197 19.1642 17.9455 19.3538 16.9974 19.7331L16.8615 19.7874C16.3991 19.9724 16.1679 20.0649 16.0515 19.9485C15.9351 19.8321 16.0276 19.6009 16.2126 19.1385L16.2126 19.1385L16.2669 19.0026C16.6462 18.0544 16.8358 17.5803 17.115 17.157C17.2209 16.9963 17.2673 16.9163 17.296 16.8668L17.296 16.8668C17.3116 16.84 17.3219 16.8221 17.3337 16.8053C17.3571 16.7719 17.3863 16.7424 17.4734 16.6544L17.4734 16.6544L17.4773 16.6504L18.3223 15.8054C18.5275 15.6003 18.63 15.4977 18.7575 15.4977Z" fill="black"/>
</svg>
