<svg width="24" height="24" viewBox="0 0 24 24" fill="none" xmlns="http://www.w3.org/2000/svg">
<path fill-rule="evenodd" clip-rule="evenodd" d="M5.41434 4H5.41421L3.70711 2.29289C3.31658 1.90237 2.68342 1.90237 2.29289 2.29289C1.90237 2.68342 1.90237 3.31658 2.29289 3.70711L3.19177 4.60598C2.46779 5.15368 2 6.02221 2 7V10V17C2 18.6569 3.34315 20 5 20H6.29198H17.708H18.5858L20.2929 21.7071C20.6834 22.0976 21.3166 22.0976 21.7071 21.7071C22.0976 21.3166 22.0976 20.6834 21.7071 20.2929L20.8082 19.394C20.8083 19.394 20.8083 19.394 20.8083 19.394L19.351 17.9367C19.351 17.9367 19.3509 17.9367 19.3509 17.9367L12.4142 11H12.4143L10.4143 9H10.4142L7.41421 6H7.41434L5.41434 4ZM10.2428 6L8.24277 4H17.708H19C20.6569 4 22 5.34315 22 7V10V17C22 17.2338 21.9732 17.4614 21.9226 17.6799L20 15.7572V11H15.2428L13.2428 9H20V7C20 6.44772 19.5523 6 19 6H17.708H10.2428ZM4 7C4 6.57119 4.2699 6.20542 4.64909 6.0633L7.58579 9H4V7ZM4 11H9.58579L16.5858 18H6.29198H5C4.44772 18 4 17.5523 4 17V11Z" fill="black"/>
</svg>
