<svg width="24" height="24" viewBox="0 0 24 24" fill="none" xmlns="http://www.w3.org/2000/svg">
<path fill-rule="evenodd" clip-rule="evenodd" d="M15 2C11.452 2 8.52049 4.63967 8.06227 8.06227C4.63967 8.52049 2 11.452 2 15C2 18.866 5.13401 22 9 22C12.548 22 15.4795 19.3603 15.9377 15.9377C19.3603 15.4795 22 12.548 22 9C22 5.13401 18.866 2 15 2ZM15.9166 13.9162C15.4506 10.9181 13.0819 8.54941 10.0838 8.0834C10.5143 5.75974 12.5517 4 15 4C17.7614 4 20 6.23858 20 9C20 11.4483 18.2403 13.4857 15.9166 13.9162ZM4 15C4 12.2386 6.23858 10 9 10C11.7614 10 14 12.2386 14 15C14 17.7614 11.7614 20 9 20C6.23858 20 4 17.7614 4 15ZM7.91667 11.9167H8.25458C8.29603 11.5417 8.61395 11.25 9 11.25C9.38605 11.25 9.70397 11.5417 9.74542 11.9167H9.75C10.8085 11.9167 11.6667 12.7748 11.6667 13.8333C11.6667 14.1803 11.5745 14.5057 11.4132 14.7865C11.775 15.1351 12 15.6246 12 16.1667C12 17.2252 11.1419 18.0833 10.0833 18.0833H9.75H9.74542C9.70397 18.4583 9.38605 18.75 9 18.75C8.61395 18.75 8.29603 18.4583 8.25458 18.0833H7.91667H7.25C6.83579 18.0833 6.5 17.7475 6.5 17.3333C6.5 16.9473 6.79167 16.6294 7.16667 16.5879V15V13.4121C6.79167 13.3706 6.5 13.0527 6.5 12.6667C6.5 12.2525 6.83579 11.9167 7.25 11.9167H7.91667ZM10.1667 13.8333C10.1667 14.0635 9.98012 14.25 9.75 14.25H8.66667V13.4167H9H9.75C9.98012 13.4167 10.1667 13.6032 10.1667 13.8333ZM9.75 15.75H8.66667V16.5833H9H9.75H10.0833C10.3135 16.5833 10.5 16.3968 10.5 16.1667C10.5 15.9365 10.3135 15.75 10.0833 15.75H9.75Z" fill="black"/>
</svg>
