<svg width="24" height="24" viewBox="0 0 24 24" fill="none" xmlns="http://www.w3.org/2000/svg">
<path fill-rule="evenodd" clip-rule="evenodd" d="M17.8072 13.1382C19.1307 12.2387 20 10.7208 20 9C20 6.23858 17.7614 4 15 4C13.2792 4 11.7614 4.86934 10.8618 6.19281C10.2611 6.06645 9.63831 6 9.00001 6C8.88981 6 8.78008 6.00198 8.67084 6.00591C9.79309 3.63778 12.2053 2 15 2C18.866 2 22 5.13401 22 9C22 11.7947 20.3622 14.2069 17.9941 15.3292C17.998 15.2199 18 15.1102 18 15C18 14.3617 17.9336 13.7389 17.8072 13.1382ZM2 15C2 11.134 5.13401 8 9 8C12.866 8 16 11.134 16 15C16 18.866 12.866 22 9 22C5.13401 22 2 18.866 2 15ZM9 10C6.23858 10 4 12.2386 4 15C4 17.7614 6.23858 20 9 20C11.7614 20 14 17.7614 14 15C14 12.2386 11.7614 10 9 10ZM7.35 11.8C7.10147 11.4686 6.63137 11.4015 6.3 11.65C5.96863 11.8985 5.90147 12.3686 6.15 12.7L8.0625 15.25H7C6.58579 15.25 6.25 15.5858 6.25 16C6.25 16.4142 6.58579 16.75 7 16.75H8.25V18.25C8.25 18.6642 8.58579 19 9 19C9.41421 19 9.75 18.6642 9.75 18.25V16.75H11C11.4142 16.75 11.75 16.4142 11.75 16C11.75 15.5858 11.4142 15.25 11 15.25H9.9375L11.85 12.7C12.0985 12.3686 12.0314 11.8985 11.7 11.65C11.3686 11.4015 10.8985 11.4686 10.65 11.8L9 14L7.35 11.8Z" fill="black"/>
</svg>
