<svg width="24" height="24" viewBox="0 0 24 24" fill="none" xmlns="http://www.w3.org/2000/svg">
<path d="M15.5 16H9.5C10.6113 15.0739 11.311 13.8733 10.9889 12.5M14.5 9C14.25 7.75 13.25 7 12 7C10.25 7 8.70566 8.94087 10.25 11C10.6387 11.5182 10.8763 12.0197 10.9889 12.5M10.9889 12.5H13.5M10.9889 12.5H8.5M12 22C6.47715 22 2 17.5228 2 12C2 6.47715 6.47715 2 12 2C17.5228 2 22 6.47715 22 12C22 17.5228 17.5228 22 12 22Z" stroke="black" stroke-width="2" stroke-linecap="round" stroke-linejoin="round"/>
</svg>
