<svg width="24" height="24" viewBox="0 0 24 24" fill="none" xmlns="http://www.w3.org/2000/svg">
<path fill-rule="evenodd" clip-rule="evenodd" d="M15 2C11.452 2 8.52049 4.63967 8.06227 8.06227C4.63967 8.52049 2 11.452 2 15C2 18.866 5.13401 22 9 22C12.548 22 15.4795 19.3603 15.9377 15.9377C19.3603 15.4795 22 12.548 22 9C22 5.13401 18.866 2 15 2ZM15.9166 13.9162C15.4506 10.9181 13.0819 8.54941 10.0838 8.0834C10.5143 5.75974 12.5517 4 15 4C17.7614 4 20 6.23858 20 9C20 11.4483 18.2403 13.4857 15.9166 13.9162ZM4 15C4 12.2386 6.23858 10 9 10C11.7614 10 14 12.2386 14 15C14 17.7614 11.7614 20 9 20C6.23858 20 4 17.7614 4 15ZM7.35 11.8C7.10147 11.4686 6.63137 11.4015 6.3 11.65C5.96863 11.8985 5.90147 12.3686 6.15 12.7L8.0625 15.25H7C6.58579 15.25 6.25 15.5858 6.25 16C6.25 16.4142 6.58579 16.75 7 16.75H8.25V18.25C8.25 18.6642 8.58579 19 9 19C9.41421 19 9.75 18.6642 9.75 18.25V16.75H11C11.4142 16.75 11.75 16.4142 11.75 16C11.75 15.5858 11.4142 15.25 11 15.25H9.9375L11.85 12.7C12.0985 12.3686 12.0314 11.8985 11.7 11.65C11.3686 11.4015 10.8985 11.4686 10.65 11.8L9 14L7.35 11.8Z" fill="black"/>
</svg>
