<svg width="24" height="24" viewBox="0 0 24 24" fill="none" xmlns="http://www.w3.org/2000/svg">
<path d="M12 11.913V2M12 11.913C11.7734 11.913 11.5469 11.8737 11.3292 11.795L6.38422 10.0086C6.02691 9.87955 5.90416 9.39923 6.14927 9.0893L11.5973 2.20071C11.7032 2.0669 11.8516 2 12 2M12 11.913C12.2266 11.913 12.4531 11.8737 12.6708 11.795L17.6158 10.0086C17.9731 9.87955 18.0958 9.39923 17.8507 9.0893L12.4027 2.20071C12.2968 2.0669 12.1484 2 12 2M6.28023 13.4197L10.9938 15.1225C11.6469 15.3584 12.3531 15.3584 13.0062 15.1225L17.7198 13.4197C17.9171 13.3484 18.0813 13.5954 17.9566 13.7757L12.4243 21.7701C12.2121 22.0766 11.7879 22.0766 11.5757 21.7701L6.04344 13.7757C5.91865 13.5954 6.08293 13.3484 6.28023 13.4197Z" stroke="black" stroke-width="2" stroke-linecap="round" stroke-linejoin="round"/>
</svg>
