<svg width="24" height="24" viewBox="0 0 24 24" fill="none" xmlns="http://www.w3.org/2000/svg">
<path fill-rule="evenodd" clip-rule="evenodd" d="M17.8072 13.1382C19.1307 12.2387 20 10.7208 20 9C20 6.23858 17.7614 4 15 4C13.2792 4 11.7614 4.86934 10.8618 6.19281C10.2611 6.06645 9.63831 6 9.00001 6C8.88981 6 8.78008 6.00198 8.67084 6.00591C9.79309 3.63778 12.2053 2 15 2C18.866 2 22 5.13401 22 9C22 11.7947 20.3622 14.2069 17.9941 15.3292C17.998 15.2199 18 15.1102 18 15C18 14.3617 17.9336 13.7389 17.8072 13.1382ZM2 15C2 11.134 5.13401 8 9 8C12.866 8 16 11.134 16 15C16 18.866 12.866 22 9 22C5.13401 22 2 18.866 2 15ZM9 10C6.23858 10 4 12.2386 4 15C4 17.7614 6.23858 20 9 20C11.7614 20 14 17.7614 14 15C14 12.2386 11.7614 10 9 10ZM8.48272 13.7272C8.13726 13.2495 8.18848 12.8896 8.30471 12.6722C8.44148 12.4164 8.7195 12.25 9 12.25C9.45249 12.25 9.77964 12.5031 9.87071 12.9754C9.94915 13.3821 10.3424 13.6482 10.7492 13.5698C11.1559 13.4913 11.422 13.098 11.3436 12.6913C11.1132 11.4969 10.1547 10.75 9 10.75C8.1555 10.75 7.37462 11.2305 6.98194 11.9649C6.59773 12.6834 6.61504 13.5755 7.13975 14.4167H6.75C6.33579 14.4167 6 14.7525 6 15.1667C6 15.5809 6.33579 15.9167 6.75 15.9167H7.61013C7.52236 16.259 7.28794 16.5994 6.90246 16.9325C6.66541 17.1374 6.58068 17.468 6.68997 17.7616C6.79927 18.0553 7.07956 18.25 7.39286 18.25H11.25C11.6642 18.25 12 17.9142 12 17.5C12 17.0858 11.6642 16.75 11.25 16.75H8.90224C9.01946 16.49 9.10121 16.2117 9.13469 15.9167H9.96429C10.3785 15.9167 10.7143 15.5809 10.7143 15.1667C10.7143 14.7525 10.3785 14.4167 9.96429 14.4167H8.88514C8.78095 14.1837 8.64656 13.9537 8.48272 13.7272Z" fill="black"/>
</svg>
