<svg width="24" height="24" viewBox="0 0 24 24" fill="none" xmlns="http://www.w3.org/2000/svg">
<path fill-rule="evenodd" clip-rule="evenodd" d="M15 2C11.452 2 8.52049 4.63967 8.06227 8.06227C4.63967 8.52049 2 11.452 2 15C2 18.866 5.13401 22 9 22C12.548 22 15.4795 19.3603 15.9377 15.9377C19.3603 15.4795 22 12.548 22 9C22 5.13401 18.866 2 15 2ZM15.9166 13.9162C15.4506 10.9181 13.0819 8.54941 10.0838 8.0834C10.5143 5.75974 12.5517 4 15 4C17.7614 4 20 6.23858 20 9C20 11.4483 18.2403 13.4857 15.9166 13.9162ZM4 15C4 12.2386 6.23858 10 9 10C11.7614 10 14 12.2386 14 15C14 17.7614 11.7614 20 9 20C6.23858 20 4 17.7614 4 15ZM9.74998 11.9199C9.74998 11.5057 9.41419 11.1699 8.99998 11.1699C8.58576 11.1699 8.24998 11.5057 8.24998 11.9199V12.1275C7.45082 12.386 6.84998 13.0475 6.84998 13.88C6.84998 14.4849 7.06455 15.0192 7.54904 15.3653C7.98311 15.6753 8.52242 15.75 8.99998 15.75C9.36242 15.75 9.52311 15.8154 9.57904 15.8553C9.59717 15.8683 9.60688 15.8797 9.61657 15.901C9.62864 15.9275 9.64998 15.9922 9.64998 16.12C9.64998 16.1615 9.53837 16.4901 8.99998 16.4901C8.66431 16.4901 8.45774 16.3434 8.37833 16.2397C8.12655 15.9108 7.6558 15.8483 7.3269 16.1001C6.998 16.3518 6.93549 16.8226 7.18728 17.1515C7.43696 17.4776 7.80659 17.737 8.24998 17.8766V18.0801C8.24998 18.4943 8.58576 18.8301 8.99998 18.8301C9.41419 18.8301 9.74998 18.4943 9.74998 18.0801V17.8725C10.5491 17.614 11.15 16.9525 11.15 16.12C11.15 15.5151 10.9354 14.9808 10.4509 14.6347C10.0168 14.3247 9.47753 14.25 8.99998 14.25C8.63753 14.25 8.47684 14.1847 8.42091 14.1447C8.40278 14.1317 8.39307 14.1203 8.38338 14.099C8.37131 14.0725 8.34998 14.0078 8.34998 13.88C8.34998 13.8385 8.46158 13.5099 8.99998 13.5099C9.33564 13.5099 9.54221 13.6566 9.62162 13.7603C9.8734 14.0892 10.3441 14.1517 10.673 13.8999C11.0019 13.6482 11.0645 13.1774 10.8127 12.8485C10.563 12.5224 10.1934 12.263 9.74998 12.1234V11.9199Z" fill="black"/>
</svg>
