<svg width="24" height="24" viewBox="0 0 24 24" fill="none" xmlns="http://www.w3.org/2000/svg">
<path fill-rule="evenodd" clip-rule="evenodd" d="M15 2C11.452 2 8.52049 4.63967 8.06227 8.06227C4.63967 8.52049 2 11.452 2 15C2 18.866 5.13401 22 9 22C12.548 22 15.4795 19.3603 15.9377 15.9377C19.3603 15.4795 22 12.548 22 9C22 5.13401 18.866 2 15 2ZM15.9166 13.9162C15.4506 10.9181 13.0819 8.54941 10.0838 8.0834C10.5143 5.75974 12.5517 4 15 4C17.7614 4 20 6.23858 20 9C20 11.4483 18.2403 13.4857 15.9166 13.9162ZM4 15C4 12.2386 6.23858 10 9 10C11.7614 10 14 12.2386 14 15C14 17.7614 11.7614 20 9 20C6.23858 20 4 17.7614 4 15ZM8.48272 13.7272C8.13726 13.2495 8.18848 12.8896 8.30471 12.6722C8.44148 12.4164 8.7195 12.25 9 12.25C9.45249 12.25 9.77964 12.5031 9.87071 12.9754C9.94915 13.3821 10.3424 13.6482 10.7492 13.5698C11.1559 13.4913 11.422 13.098 11.3436 12.6913C11.1132 11.4969 10.1547 10.75 9 10.75C8.1555 10.75 7.37462 11.2305 6.98194 11.9649C6.59773 12.6834 6.61504 13.5755 7.13975 14.4167H6.75C6.33579 14.4167 6 14.7525 6 15.1667C6 15.5809 6.33579 15.9167 6.75 15.9167H7.61013C7.52236 16.259 7.28794 16.5994 6.90246 16.9325C6.66541 17.1374 6.58068 17.468 6.68997 17.7616C6.79927 18.0553 7.07956 18.25 7.39286 18.25H11.25C11.6642 18.25 12 17.9142 12 17.5C12 17.0858 11.6642 16.75 11.25 16.75H8.90224C9.01946 16.49 9.10121 16.2117 9.13469 15.9167H9.96429C10.3785 15.9167 10.7143 15.5809 10.7143 15.1667C10.7143 14.7525 10.3785 14.4167 9.96429 14.4167H8.88514C8.78095 14.1837 8.64656 13.9537 8.48272 13.7272Z" fill="black"/>
</svg>
