<svg width="24" height="24" viewBox="0 0 24 24" fill="none" xmlns="http://www.w3.org/2000/svg">
<path fill-rule="evenodd" clip-rule="evenodd" d="M17.8072 13.1382C19.1307 12.2387 20 10.7208 20 9C20 6.23858 17.7614 4 15 4C13.2792 4 11.7614 4.86934 10.8618 6.19281C10.2611 6.06645 9.63831 6 9.00001 6C8.88981 6 8.78008 6.00198 8.67084 6.00591C9.79309 3.63778 12.2053 2 15 2C18.866 2 22 5.13401 22 9C22 11.7947 20.3622 14.2069 17.9941 15.3292C17.998 15.2199 18 15.1102 18 15C18 14.3617 17.9336 13.7389 17.8072 13.1382ZM2 15C2 11.134 5.13401 8 9 8C12.866 8 16 11.134 16 15C16 18.866 12.866 22 9 22C5.13401 22 2 18.866 2 15ZM9 10C6.23858 10 4 12.2386 4 15C4 17.7614 6.23858 20 9 20C11.7614 20 14 17.7614 14 15C14 12.2386 11.7614 10 9 10ZM8.86578 11.5702L7.04976 13.9813C6.96805 14.0897 7.00897 14.2578 7.12807 14.303L8.77639 14.9283C8.84896 14.9558 8.92448 14.9696 9 14.9696C9.07552 14.9696 9.15104 14.9558 9.22361 14.9283L10.8719 14.303C10.991 14.2578 11.0319 14.0897 10.9502 13.9813L9.13422 11.5702C9.09894 11.5234 9.04947 11.5 9 11.5C8.95053 11.5 8.90106 11.5234 8.86578 11.5702ZM7.09341 15.4969L8.66459 16.0929C8.77345 16.1342 8.88672 16.1548 9 16.1548C9.11328 16.1548 9.22655 16.1342 9.33541 16.0929L10.9066 15.4969C10.9724 15.4719 11.0271 15.5584 10.9855 15.6215L9.14142 18.4195C9.07071 18.5268 8.92929 18.5268 8.85858 18.4195L7.01448 15.6215C6.97288 15.5584 7.02764 15.4719 7.09341 15.4969Z" fill="black"/>
</svg>
