<svg width="24" height="24" viewBox="0 0 24 24" fill="none" xmlns="http://www.w3.org/2000/svg">
<path d="M16.5 15.4709C14.4751 17.4425 11.2936 17.5415 9.26871 15.5699C8.75561 15.0703 8.37252 14.4921 8.11945 13.8751M16.5 8.52904C14.4751 6.55747 11.2936 6.45861 9.26871 8.43018C8.75561 8.92975 8.37252 9.50798 8.11945 10.125M8.11945 10.125H6.5M8.11945 10.125C7.62685 11.326 7.62685 12.674 8.11945 13.8751M8.11945 10.125H12.125M8.11945 13.8751H6.5M8.11945 13.8751L12.125 13.875M12 22C6.47715 22 2 17.5228 2 12C2 6.47715 6.47715 2 12 2C17.5228 2 22 6.47715 22 12C22 17.5228 17.5228 22 12 22Z" stroke="black" stroke-width="2" stroke-linecap="round" stroke-linejoin="round"/>
</svg>
