<svg width="24" height="24" viewBox="0 0 24 24" fill="none" xmlns="http://www.w3.org/2000/svg">
<path fill-rule="evenodd" clip-rule="evenodd" d="M15 2C11.452 2 8.52049 4.63967 8.06227 8.06227C4.63967 8.52049 2 11.452 2 15C2 18.866 5.13401 22 9 22C12.548 22 15.4795 19.3603 15.9377 15.9377C19.3603 15.4795 22 12.548 22 9C22 5.13401 18.866 2 15 2ZM15.9166 13.9162C15.4506 10.9181 13.0819 8.54941 10.0838 8.0834C10.5143 5.75974 12.5517 4 15 4C17.7614 4 20 6.23858 20 9C20 11.4483 18.2403 13.4857 15.9166 13.9162ZM4 15C4 12.2386 6.23858 10 9 10C11.7614 10 14 12.2386 14 15C14 17.7614 11.7614 20 9 20C6.23858 20 4 17.7614 4 15ZM7.90755 13.7525C8.61004 13.0685 9.73635 13.0809 10.4768 13.8019C10.7736 14.0908 11.2484 14.0845 11.5374 13.7877C11.8263 13.4909 11.82 13.0161 11.5232 12.7272C10.2387 11.4765 8.18361 11.3901 6.86115 12.6777C6.53038 12.9998 6.28102 13.3751 6.11582 13.7779C6.05248 13.9323 6.00164 14.0905 5.96329 14.2509C5.56613 14.27 5.25 14.5981 5.25 15C5.25 15.4019 5.56612 15.73 5.96328 15.7491C6.00163 15.9095 6.05248 16.0677 6.11582 16.2221C6.28102 16.6249 6.53038 17.0003 6.86115 17.3223C8.18363 18.6099 10.2387 18.5234 11.5232 17.2728C11.82 16.9839 11.8263 16.509 11.5374 16.2122C11.2484 15.9155 10.7736 15.9091 10.4768 16.1981C9.73632 16.919 8.61001 16.9315 7.90755 16.2476C7.753 16.0971 7.63337 15.9284 7.54699 15.75H8.8125C9.22671 15.75 9.5625 15.4142 9.5625 15C9.5625 14.5858 9.22671 14.25 8.8125 14.25H7.547C7.63339 14.0716 7.75301 13.9029 7.90755 13.7525Z" fill="black"/>
</svg>
