<svg width="24" height="24" viewBox="0 0 24 24" fill="none" xmlns="http://www.w3.org/2000/svg">
<path fill-rule="evenodd" clip-rule="evenodd" d="M17.8072 13.1382C19.1307 12.2387 20 10.7208 20 9C20 6.23858 17.7614 4 15 4C13.2792 4 11.7614 4.86934 10.8618 6.19281C10.2611 6.06645 9.63831 6 9.00001 6C8.88981 6 8.78008 6.00198 8.67084 6.00591C9.79309 3.63778 12.2053 2 15 2C18.866 2 22 5.13401 22 9C22 11.7947 20.3622 14.2069 17.9941 15.3292C17.998 15.2199 18 15.1102 18 15C18 14.3617 17.9336 13.7389 17.8072 13.1382ZM2 15C2 11.134 5.13401 8 9 8C12.866 8 16 11.134 16 15C16 18.866 12.866 22 9 22C5.13401 22 2 18.866 2 15ZM9 10C6.23858 10 4 12.2386 4 15C4 17.7614 6.23858 20 9 20C11.7614 20 14 17.7614 14 15C14 12.2386 11.7614 10 9 10ZM7.90755 13.7525C8.61004 13.0685 9.73635 13.0809 10.4768 13.8019C10.7736 14.0908 11.2484 14.0845 11.5374 13.7877C11.8263 13.4909 11.82 13.0161 11.5232 12.7272C10.2387 11.4765 8.18361 11.3901 6.86115 12.6777C6.53038 12.9998 6.28102 13.3751 6.11582 13.7779C6.05248 13.9323 6.00164 14.0905 5.96329 14.2509C5.56613 14.27 5.25 14.5981 5.25 15C5.25 15.4019 5.56612 15.73 5.96328 15.7491C6.00163 15.9095 6.05248 16.0677 6.11582 16.2221C6.28102 16.6249 6.53038 17.0003 6.86115 17.3223C8.18363 18.6099 10.2387 18.5234 11.5232 17.2728C11.82 16.9839 11.8263 16.509 11.5374 16.2122C11.2484 15.9155 10.7736 15.9091 10.4768 16.1981C9.73632 16.919 8.61001 16.9315 7.90755 16.2476C7.753 16.0971 7.63337 15.9284 7.54699 15.75H8.8125C9.22671 15.75 9.5625 15.4142 9.5625 15C9.5625 14.5858 9.22671 14.25 8.8125 14.25H7.547C7.63339 14.0716 7.75301 13.9029 7.90755 13.7525Z" fill="black"/>
</svg>
