<svg width="24" height="24" viewBox="0 0 24 24" fill="none" xmlns="http://www.w3.org/2000/svg">
<path fill-rule="evenodd" clip-rule="evenodd" d="M15 2C11.452 2 8.52049 4.63967 8.06227 8.06227C4.63967 8.52049 2 11.452 2 15C2 18.866 5.13401 22 9 22C12.548 22 15.4795 19.3603 15.9377 15.9377C19.3603 15.4795 22 12.548 22 9C22 5.13401 18.866 2 15 2ZM15.9166 13.9162C15.4506 10.9181 13.0819 8.54941 10.0838 8.0834C10.5143 5.75974 12.5517 4 15 4C17.7614 4 20 6.23858 20 9C20 11.4483 18.2403 13.4857 15.9166 13.9162ZM4 15C4 12.2386 6.23858 10 9 10C11.7614 10 14 12.2386 14 15C14 17.7614 11.7614 20 9 20C6.23858 20 4 17.7614 4 15ZM8.86578 11.5702L7.04976 13.9813C6.96805 14.0897 7.00897 14.2578 7.12807 14.303L8.77639 14.9283C8.84896 14.9558 8.92448 14.9696 9 14.9696C9.07552 14.9696 9.15104 14.9558 9.22361 14.9283L10.8719 14.303C10.991 14.2578 11.0319 14.0897 10.9502 13.9813L9.13422 11.5702C9.09894 11.5234 9.04947 11.5 9 11.5C8.95053 11.5 8.90106 11.5234 8.86578 11.5702ZM7.09341 15.4969L8.66459 16.0929C8.77345 16.1342 8.88672 16.1548 9 16.1548C9.11328 16.1548 9.22655 16.1342 9.33541 16.0929L10.9066 15.4969C10.9724 15.4719 11.0271 15.5584 10.9855 15.6215L9.14142 18.4195C9.07071 18.5268 8.92929 18.5268 8.85858 18.4195L7.01448 15.6215C6.97288 15.5584 7.02764 15.4719 7.09341 15.4969Z" fill="black"/>
</svg>
