<svg width="24" height="24" viewBox="0 0 24 24" fill="none" xmlns="http://www.w3.org/2000/svg">
<path fill-rule="evenodd" clip-rule="evenodd" d="M17.8072 13.1382C19.1307 12.2387 20 10.7208 20 9C20 6.23858 17.7614 4 15 4C13.2792 4 11.7614 4.86934 10.8618 6.19281C10.2611 6.06645 9.63831 6 9.00001 6C8.88981 6 8.78008 6.00198 8.67084 6.00591C9.79309 3.63778 12.2053 2 15 2C18.866 2 22 5.13401 22 9C22 11.7947 20.3622 14.2069 17.9941 15.3292C17.998 15.2199 18 15.1102 18 15C18 14.3617 17.9336 13.7389 17.8072 13.1382ZM2 15C2 11.134 5.13401 8 9 8C12.866 8 16 11.134 16 15C16 18.866 12.866 22 9 22C5.13401 22 2 18.866 2 15ZM9 10C6.23858 10 4 12.2386 4 15C4 17.7614 6.23858 20 9 20C11.7614 20 14 17.7614 14 15C14 12.2386 11.7614 10 9 10ZM7.91667 11.9167H8.25458C8.29603 11.5417 8.61395 11.25 9 11.25C9.38605 11.25 9.70397 11.5417 9.74542 11.9167H9.75C10.8085 11.9167 11.6667 12.7748 11.6667 13.8333C11.6667 14.1803 11.5745 14.5057 11.4132 14.7865C11.775 15.1351 12 15.6246 12 16.1667C12 17.2252 11.1419 18.0833 10.0833 18.0833H9.75H9.74542C9.70397 18.4583 9.38605 18.75 9 18.75C8.61395 18.75 8.29603 18.4583 8.25458 18.0833H7.91667H7.25C6.83579 18.0833 6.5 17.7475 6.5 17.3333C6.5 16.9473 6.79167 16.6294 7.16667 16.5879V15V13.4121C6.79167 13.3706 6.5 13.0527 6.5 12.6667C6.5 12.2525 6.83579 11.9167 7.25 11.9167H7.91667ZM10.1667 13.8333C10.1667 14.0635 9.98012 14.25 9.75 14.25H8.66667V13.4167H9H9.75C9.98012 13.4167 10.1667 13.6032 10.1667 13.8333ZM9.75 15.75H8.66667V16.5833H9H9.75H10.0833C10.3135 16.5833 10.5 16.3968 10.5 16.1667C10.5 15.9365 10.3135 15.75 10.0833 15.75H9.75Z" fill="black"/>
</svg>
