<svg width="24" height="24" viewBox="0 0 24 24" fill="none" xmlns="http://www.w3.org/2000/svg">
<path d="M12 3H15.5727C16.6284 3 17.6143 3.52058 18.1999 4.38728L20.6465 8.00811C20.8965 8.37822 21.0134 8.80662 20.9988 9.23077M12 3H8.42731C7.37158 3 6.3857 3.52058 5.80008 4.38728L3.35354 8.00811C3.10346 8.37822 2.9866 8.80662 3.00122 9.23077M12 3L7.78996 9.23077M12 3L16.21 9.23077M7.78996 9.23077H16.21M7.78996 9.23077L11.7567 20.9722M7.78996 9.23077H3.00122M16.21 9.23077L12.2433 20.9722M16.21 9.23077H20.9988M11.7567 20.9722C11.5279 20.9191 11.314 20.7899 11.158 20.5846L3.42101 10.4063C3.15601 10.0577 3.01553 9.64628 3.00122 9.23077M11.7567 20.9722C11.9165 21.0093 12.0835 21.0093 12.2433 20.9722M12.2433 20.9722C12.4721 20.9191 12.686 20.7899 12.842 20.5846L20.579 10.4063C20.844 10.0577 20.9845 9.64628 20.9988 9.23077" stroke="black" stroke-width="2" stroke-linecap="round" stroke-linejoin="round"/>
</svg>
