<svg width="24" height="24" viewBox="0 0 24 24" fill="none" xmlns="http://www.w3.org/2000/svg">
<path d="M12 8H14.7788C15.5999 8 16.3667 8.4049 16.8222 9.079L18.725 11.8952C18.9195 12.1831 19.0104 12.5163 18.9991 12.8462M12 8H9.22124C8.40012 8 7.63332 8.4049 7.17784 9.079L5.27498 11.8952C5.08047 12.1831 4.98958 12.5163 5.00095 12.8462M12 8L8.72552 12.8462M12 8L15.2745 12.8462M8.72552 12.8462H15.2745M8.72552 12.8462L11.8108 21.9784M8.72552 12.8462H5.00095M15.2745 12.8462L12.1892 21.9784M15.2745 12.8462H18.9991M11.8108 21.9784C11.6328 21.9371 11.4665 21.8366 11.3451 21.6769L5.32745 13.7605C5.12134 13.4893 5.01208 13.1693 5.00095 12.8462M11.8108 21.9784C11.935 22.0072 12.065 22.0072 12.1892 21.9784M12.1892 21.9784C12.3672 21.9371 12.5335 21.8366 12.6549 21.6769L18.6726 13.7605C18.8787 13.4893 18.9879 13.1693 18.9991 12.8462M18.5 5.5L20 4M12 4V2M5.5 5.5L4 4" stroke="black" stroke-width="2" stroke-linecap="round" stroke-linejoin="round"/>
</svg>
