<svg width="24" height="24" viewBox="0 0 24 24" fill="none" xmlns="http://www.w3.org/2000/svg">
<path d="M18.5 8.5H13M18.5 12H13M16 15.5H13M7.25 14.7273C8.3 14.7273 9 14.0455 9 13.3636C9 12.3409 8.3 12 7.25 12C6.2 12 5.5 11.6591 5.5 10.6364C5.5 9.95455 6.2 9.27273 7.25 9.27273M7.25 14.7273V15.75M7.25 14.7273C6.55663 14.7273 6.01588 14.43 5.72854 14.0644M7.25 9.27273V8.25M7.25 9.27273C7.94337 9.27273 8.48412 9.57005 8.77146 9.93563M4 19C2.89543 19 2 18.1046 2 17V15.708V8.29198V7C2 5.89543 2.89543 5 4 5H5.29198H18.708H20C21.1046 5 22 5.89543 22 7V8.29198V15.708V17C22 18.1046 21.1046 19 20 19H18.708H5.29198H4Z" stroke="black" stroke-width="2" stroke-linecap="round"/>
</svg>
