<svg width="24" height="24" viewBox="0 0 24 24" fill="none" xmlns="http://www.w3.org/2000/svg">
<path d="M12 13.0909C13.2 13.0909 14 12.3182 14 11.5455C14 10.3864 13.2 10 12 10C10.8 10 10 9.61364 10 8.45455C10 7.68182 10.8 6.90909 12 6.90909M12 13.0909V14.25M12 13.0909C11.2076 13.0909 10.5896 12.7539 10.2612 12.3396M12 6.90909V5.75M12 6.90909C12.7924 6.90909 13.4104 7.24605 13.7388 7.66038M5 3H19C20.1046 3 21 3.89147 21 4.99115V14.9513C21 16.051 20.1046 16.9424 19 16.9424H7.48063C7.17684 16.9424 6.88953 17.0799 6.69976 17.3161L3.89043 20.8122C3.59518 21.1796 3 20.9718 3 20.5012V4.99115C3 3.89147 3.89543 3 5 3Z" stroke="black" stroke-width="2" stroke-linecap="round" stroke-linejoin="round"/>
</svg>
