<svg width="24" height="24" viewBox="0 0 24 24" fill="none" xmlns="http://www.w3.org/2000/svg">
<path d="M12 20V17.2426M12 17.2426C12 16.447 11.6839 15.6839 11.1213 15.1213L9 13C8.44771 12.4477 7.55228 12.4477 7 13C6.44772 13.5523 6.44772 14.4477 7 15M12 17.2426C12 16.447 12.3161 15.6839 12.8787 15.1213L15 13C15.5523 12.4477 16.4477 12.4477 17 13C17.5523 13.5523 17.5523 14.4477 17 15M7 15L8 16M7 15L5.87868 13.8787C5.31607 13.3161 5 12.553 5 11.7574V6.5C5 5.67157 4.32843 5 3.5 5C2.67157 5 2 5.67157 2 6.5V15.2574C2 16.053 2.31607 16.8161 2.87868 17.3787L5.5 20M17 15L16 16M17 15L18.1213 13.8787C18.6839 13.3161 19 12.553 19 11.7574V6.5C19 5.67157 19.6716 5 20.5 5C21.3284 5 22 5.67157 22 6.5V15.2574C22 16.053 21.6839 16.8161 21.1213 17.3787L18.5 20M12 10.4773C13.05 10.4773 13.75 9.79545 13.75 9.11364C13.75 8.09091 13.05 7.75 12 7.75C10.95 7.75 10.25 7.40909 10.25 6.38636C10.25 5.70455 10.95 5.02273 12 5.02273M12 10.4773V11.5M12 10.4773C11.3066 10.4773 10.7658 10.18 10.4785 9.81437M12 5.02273V4M12 5.02273C12.6933 5.02273 13.2341 5.32005 13.5214 5.68563" stroke="black" stroke-width="2" stroke-linecap="round" stroke-linejoin="round"/>
</svg>
