<svg width="24" height="24" viewBox="0 0 24 24" fill="none" xmlns="http://www.w3.org/2000/svg">
<path d="M18 14.5V17.5M6 14.5V17.5M17.5 2H14.5M17.5 2V5M17.5 2L13.2071 6.29289C12.8166 6.68342 12.1834 6.68342 11.7929 6.29289L10.2071 4.70711C9.81658 4.31658 9.18342 4.31658 8.79289 4.70711L6.5 7M4 22C2.89543 22 2 21.1046 2 20V12C2 10.8954 2.89543 10 4 10H20C21.1046 10 22 10.8954 22 12V20C22 21.1046 21.1046 22 20 22H4ZM14 16C14 17.1046 13.1046 18 12 18C10.8954 18 10 17.1046 10 16C10 14.8954 10.8954 14 12 14C13.1046 14 14 14.8954 14 16Z" stroke="black" stroke-width="2" stroke-linecap="round" stroke-linejoin="round"/>
</svg>
