<svg width="24" height="24" viewBox="0 0 24 24" fill="none" xmlns="http://www.w3.org/2000/svg">
<path fill-rule="evenodd" clip-rule="evenodd" d="M15.7071 3.29289C15.3166 2.90237 14.6834 2.90237 14.2929 3.29289C13.9024 3.68342 13.9024 4.31658 14.2929 4.70711L14.5858 5H5.29198H4C2.34315 5 1 6.34315 1 8V9.29198V14.708V16C1 17.6569 2.34315 19 4 19C4.55229 19 5 18.5523 5 18C5 17.4477 4.55229 17 4 17C3.44772 17 3 16.5523 3 16V14.708V9.29198V8C3 7.44772 3.44772 7 4 7H5.29198H14.5858L14.2929 7.29289C13.9024 7.68342 13.9024 8.31658 14.2929 8.70711C14.6834 9.09763 15.3166 9.09763 15.7071 8.70711L17.7071 6.70711C18.0976 6.31658 18.0976 5.68342 17.7071 5.29289L15.7071 3.29289ZM20 5C19.4477 5 19 5.44772 19 6C19 6.55228 19.4477 7 20 7C20.5523 7 21 7.44772 21 8V9.29198V14.708V16C21 16.5523 20.5523 17 20 17H18.708H9.41421L9.70711 16.7071C10.0976 16.3166 10.0976 15.6834 9.70711 15.2929C9.31658 14.9024 8.68342 14.9024 8.29289 15.2929L6.29289 17.2929C5.90237 17.6834 5.90237 18.3166 6.29289 18.7071L8.29289 20.7071C8.68342 21.0976 9.31658 21.0976 9.70711 20.7071C10.0976 20.3166 10.0976 19.6834 9.70711 19.2929L9.41421 19H18.708H20C21.6569 19 23 17.6569 23 16V14.708V9.29198V8C23 6.34315 21.6569 5 20 5ZM7.5 11C7.5 10.4477 7.05228 10 6.5 10C5.94772 10 5.5 10.4477 5.5 11V13C5.5 13.5523 5.94772 14 6.5 14C7.05228 14 7.5 13.5523 7.5 13V11ZM18.5 11C18.5 10.4477 18.0523 10 17.5 10C16.9477 10 16.5 10.4477 16.5 11V13C16.5 13.5523 16.9477 14 17.5 14C18.0523 14 18.5 13.5523 18.5 13V11ZM14 12C14 13.1046 13.1046 14 12 14C10.8954 14 10 13.1046 10 12C10 10.8954 10.8954 10 12 10C13.1046 10 14 10.8954 14 12Z" fill="black"/>
</svg>
