<svg width="24" height="24" viewBox="0 0 24 24" fill="none" xmlns="http://www.w3.org/2000/svg">
<path d="M12 6.44444C8.57143 6.44444 4 12 4 16.4444C4 19.7778 6.28571 22 12 22C17.7143 22 20 19.7778 20 16.4444C20 12 15.4286 6.44444 12 6.44444ZM12 6.44444C10.2029 5.57086 8.40583 4.35387 7.71961 3.06345C7.42974 2.51835 7.94025 2 8.57143 2H15.4286C16.0598 2 16.5703 2.51835 16.2804 3.06345C15.5942 4.35387 13.7971 5.57086 12 6.44444ZM12 17.7727C10.8 17.7727 10.1333 16.9545 10.1333 16.2727M12 17.7727C13.2 17.7727 14 16.9545 14 16.1364C14 14.9091 13.2 14.5 12 14.5C10.8 14.5 10 14.0909 10 12.8636C10 12.0455 10.8 11.2273 12 11.2273M12 17.7727V19M12 11.2273C13.2 11.2273 14 12.0455 14 12.7273M12 11.2273V10" stroke="black" stroke-width="2" stroke-linecap="round" stroke-linejoin="round"/>
</svg>
