<svg width="24" height="24" viewBox="0 0 24 24" fill="none" xmlns="http://www.w3.org/2000/svg">
<path fill-rule="evenodd" clip-rule="evenodd" d="M8.10339 6.78525C8.41094 5.75187 9.36897 5 10.5 5C11.3487 5 12.099 5.42198 12.5525 6.0721C12.8684 6.52507 13.4918 6.63615 13.9447 6.32019C14.3977 6.00422 14.5088 5.38088 14.1928 4.9279C13.3814 3.76453 12.03 3 10.5 3C8.46 3 6.73948 4.35664 6.18648 6.21475C6.02894 6.74409 6.33035 7.30091 6.85968 7.45845C7.38902 7.61599 7.94585 7.31459 8.10339 6.78525ZM4.55465 6.83203C5.01417 6.52566 5.13832 5.90479 4.83195 5.44527C4.52559 4.98575 3.90471 4.8616 3.44519 5.16797C2.32521 5.91468 1.82956 7.33257 2.05338 8.5916C2.21876 9.52193 2.76619 10.3535 3.67551 10.8573C3.24512 11.6416 2.99994 12.5426 2.99994 13.5C2.99994 15.6386 4.22005 17.4901 5.99994 18.4V20C5.99994 20.5523 6.44766 21 6.99994 21H10.4999C11.0522 21 11.4999 20.5523 11.4999 20V19H11.9999V20C11.9999 20.5523 12.4477 21 12.9999 21H16.4999C17.0522 21 17.4999 20.5523 17.4999 20V18.6248C18.5538 18.2133 19.4482 17.4871 20.069 16.5624C21.1416 16.526 21.9999 15.6451 21.9999 14.5636V12.4364C21.9999 11.355 21.1416 10.474 20.069 10.4376C19.6558 9.82198 19.1215 9.29473 18.4999 8.8896V6.5C18.4999 5.94772 18.0522 5.5 17.4999 5.5C15.6514 5.5 14.4438 6.65013 13.4753 8H8.49994C7.17145 8 5.95179 8.47201 5.00161 9.25585C4.3416 9.06126 4.09248 8.63519 4.02251 8.24155C3.92045 7.66743 4.17475 7.08532 4.55465 6.83203ZM14.832 9.5547C15.4452 8.63493 15.964 8.06112 16.4999 7.76081V9.46776C16.4999 9.84741 16.7149 10.1943 17.0549 10.3633C17.7223 10.6949 18.2697 11.2341 18.6116 11.8956C18.7833 12.2278 19.126 12.4364 19.4999 12.4364H19.9999V14.5636H19.4999C19.126 14.5636 18.7833 14.7722 18.6116 15.1044C18.1438 16.0093 17.2933 16.683 16.2787 16.9133C15.8232 17.0166 15.4999 17.4215 15.4999 17.8885V19H13.9999V18.5C13.9999 17.6716 13.3284 17 12.4999 17H10.9999C10.1715 17 9.49994 17.6716 9.49994 18.5V19H7.99994V17.7439C7.99994 17.3201 7.73278 16.9423 7.33319 16.8011C5.97245 16.3201 4.99994 15.0224 4.99994 13.5C4.99994 12.539 5.38596 11.67 6.01375 11.0365C6.64912 10.3953 7.52744 10 8.49994 10H13.9999C14.3343 10 14.6465 9.8329 14.832 9.5547ZM16 13C16.5523 13 17 12.5523 17 12C17 11.4477 16.5523 11 16 11C15.4477 11 15 11.4477 15 12C15 12.5523 15.4477 13 16 13Z" fill="black"/>
</svg>
