<svg width="24" height="24" viewBox="0 0 24 24" fill="none" xmlns="http://www.w3.org/2000/svg">
<path fill-rule="evenodd" clip-rule="evenodd" d="M8 7.5C8 6.11929 9.11929 5 10.5 5C11.8807 5 13 6.11929 13 7.5C13 7.88525 12.9135 8.24752 12.7599 8.57091C12.3576 9.41785 11.4958 10 10.5 10C9.54234 10 8.70878 9.46183 8.28815 8.66672C8.10445 8.31948 8 7.92341 8 7.5ZM10.5 3C8.01472 3 6 5.01472 6 7.5C6 7.85741 6.04185 8.20571 6.121 8.53995C5.71793 8.73357 5.34239 8.97468 5.0016 9.25585C4.34156 9.06125 4.09243 8.63517 4.02245 8.24154C3.92038 7.66744 4.17467 7.08535 4.55462 6.83206C5.01415 6.52571 5.13833 5.90484 4.83199 5.44531C4.52564 4.98578 3.90477 4.8616 3.44524 5.16794C2.32516 5.91465 1.82948 7.33256 2.05332 8.59162C2.21872 9.52195 2.76617 10.3535 3.67552 10.8573C3.24512 11.6416 2.99995 12.5426 2.99995 13.5C2.99995 15.6386 4.22006 17.4901 5.99995 18.4V20C5.99995 20.5523 6.44766 21 6.99995 21H10.4999C11.0522 21 11.4999 20.5523 11.4999 20V19H11.9999V20C11.9999 20.5523 12.4477 21 12.9999 21H16.4999C17.0522 21 17.4999 20.5523 17.4999 20V18.6248C18.5538 18.2133 19.4482 17.4871 20.069 16.5624C21.1416 16.526 21.9999 15.6451 21.9999 14.5636V12.4364C21.9999 11.355 21.1416 10.474 20.069 10.4376C19.6558 9.82198 19.1215 9.29473 18.4999 8.8896V6.5C18.4999 5.94772 18.0522 5.5 17.4999 5.5C16.4407 5.5 15.5918 5.87768 14.8778 6.4542C14.4064 4.47326 12.6252 3 10.5 3ZM6.01376 11.0365C6.29963 10.748 6.63467 10.5095 7.00475 10.3343C7.82896 11.3495 9.08798 12 10.5 12C12.0769 12 13.4629 11.1888 14.2658 9.96402C14.4948 9.90084 14.697 9.7572 14.832 9.5547C15.4452 8.63493 15.964 8.06112 16.4999 7.76081V9.46776C16.4999 9.84741 16.7149 10.1943 17.0549 10.3633C17.7223 10.6949 18.2697 11.2341 18.6116 11.8956C18.7833 12.2278 19.126 12.4364 19.4999 12.4364H19.9999V14.5636H19.4999C19.126 14.5636 18.7833 14.7722 18.6116 15.1044C18.1438 16.0093 17.2933 16.683 16.2787 16.9133C15.8232 17.0166 15.4999 17.4215 15.4999 17.8885V19H13.9999V18.5C13.9999 17.6716 13.3284 17 12.4999 17H10.9999C10.1715 17 9.49995 17.6716 9.49995 18.5V19H7.99995V17.7439C7.99995 17.3201 7.73279 16.9423 7.33319 16.8011C5.97246 16.3201 4.99995 15.0224 4.99995 13.5C4.99995 12.539 5.38597 11.67 6.01376 11.0365ZM16 13C16.5523 13 17 12.5523 17 12C17 11.4477 16.5523 11 16 11C15.4477 11 15 11.4477 15 12C15 12.5523 15.4477 13 16 13Z" fill="black"/>
</svg>
