<svg width="24" height="24" viewBox="0 0 24 24" fill="none" xmlns="http://www.w3.org/2000/svg">
<path d="M8.44721 20.3316L11.5528 21.8936C11.8343 22.0352 12.1657 22.0352 12.4472 21.8936L15.5528 20.3316C15.8343 20.19 16.1657 20.19 16.4472 20.3316L19.2764 21.7546C19.6088 21.9218 20 21.6786 20 21.3047V2.69508C20 2.32119 19.6088 2.078 19.2764 2.24522L16.4472 3.66821C16.1657 3.8098 15.8343 3.8098 15.5528 3.66821L12.4472 2.1062C12.3064 2.0354 12.1532 2 12 2C11.8468 2 11.6935 2.0354 11.5528 2.1062L8.44721 3.66821C8.16569 3.8098 7.83431 3.8098 7.55279 3.66821L4.72361 2.24522C4.39116 2.078 4 2.32119 4 2.69508V21.3047C4 21.6786 4.39116 21.9218 4.72361 21.7546L7.55279 20.3316C7.83431 20.19 8.16569 20.19 8.44721 20.3316Z" stroke="black" stroke-width="2" stroke-linecap="round" stroke-linejoin="round"/>
</svg>
