<svg width="24" height="24" viewBox="0 0 24 24" fill="none" xmlns="http://www.w3.org/2000/svg">
<path fill-rule="evenodd" clip-rule="evenodd" d="M5 3C2.79086 3 1 4.79086 1 7V14.5002C1 16.3641 2.27477 17.9302 4 18.3742V19.0002C4 20.1048 4.89543 21.0002 6 21.0002H7C8.10457 21.0002 9 20.1048 9 19.0002V18.5002H15V19.0002C15 20.1048 15.8954 21.0002 17 21.0002H18C19.1046 21.0002 20 20.1048 20 19.0002V18.3742C21.7252 17.9302 23 16.3641 23 14.5002V7C23 4.79086 21.2091 3 19 3H5ZM6 19.0002V18.5002H7V19.0002H6ZM17 19.0002V18.5002H18V19.0002H17ZM3 7C3 5.89543 3.89543 5 5 5H19C20.1046 5 21 5.89543 21 7V14.5002C21 15.6048 20.1046 16.5002 19 16.5002H16H8H5C3.89543 16.5002 3 15.6048 3 14.5002V7ZM13 7.5C13 6.94772 12.5523 6.5 12 6.5C11.4477 6.5 11 6.94772 11 7.5V9.01756C10.6964 9.1932 10.4432 9.44637 10.2676 9.75H8.75C8.19772 9.75 7.75 10.1977 7.75 10.75C7.75 11.3023 8.19772 11.75 8.75 11.75H10.2676C10.4432 12.0536 10.6964 12.3068 11 12.4824V14C11 14.5523 11.4477 15 12 15C12.5523 15 13 14.5523 13 14V12.4824C13.3036 12.3068 13.5568 12.0536 13.7324 11.75H15.25C15.8023 11.75 16.25 11.3023 16.25 10.75C16.25 10.1977 15.8023 9.75 15.25 9.75H13.7324C13.5568 9.44637 13.3036 9.1932 13 9.01756V7.5Z" fill="black"/>
</svg>
