<svg width="24" height="24" viewBox="0 0 24 24" fill="none" xmlns="http://www.w3.org/2000/svg">
<path d="M19 19C20.6569 19 22 17.6569 22 16V6C22 4.34315 20.6569 3 19 3H5C3.34315 3 2 4.34315 2 6V16C2 17.6569 3.34315 19 5 19M19 19V20.0002C19 20.5525 18.5523 21.0002 18 21.0002H17C16.4477 21.0002 16 20.5525 16 20.0002V19M19 19H16M5 19V20.0002C5 20.5525 5.44772 21.0002 6 21.0002H7C7.55228 21.0002 8 20.5525 8 20.0002V19M5 19H8M8 19H16M15 11C15 12.6569 13.6569 14 12 14M15 11C15 9.34315 13.6569 8 12 8M15 11H17M12 14C10.3431 14 9 12.6569 9 11M12 14V16M9 11C9 9.34315 10.3431 8 12 8M9 11H7M12 8V6" stroke="black" stroke-width="2" stroke-linecap="round" stroke-linejoin="round"/>
</svg>
