<svg width="24" height="24" viewBox="0 0 24 24" fill="none" xmlns="http://www.w3.org/2000/svg">
<path fill-rule="evenodd" clip-rule="evenodd" d="M5 3C2.79086 3 1 4.79086 1 7V17C1 19.2091 2.79086 21 5 21H19C21.2091 21 23 19.2091 23 17V15.5V11.5V10C23 7.79086 21.2091 6 19 6L5 6C4.44771 6 4 6.44772 4 7C4 7.55228 4.44771 8 5 8H19C20.1046 8 21 8.89543 21 10V11.5H17C15.8954 11.5 15 12.3954 15 13.5C15 14.6046 15.8954 15.5 17 15.5H21V17C21 18.1046 20.1046 19 19 19H5C3.89543 19 3 18.1046 3 17V7C3 5.89543 3.89543 5 5 5H18C18.5523 5 19 4.55228 19 4C19 3.44772 18.5523 3 18 3H5ZM17.75 13.5C17.75 13.9142 17.4142 14.25 17 14.25C16.5858 14.25 16.25 13.9142 16.25 13.5C16.25 13.0858 16.5858 12.75 17 12.75C17.4142 12.75 17.75 13.0858 17.75 13.5Z" fill="black"/>
</svg>
