<svg width="24" height="24" viewBox="0 0 24 24" fill="none" xmlns="http://www.w3.org/2000/svg">
<path fill-rule="evenodd" clip-rule="evenodd" d="M4 3C2.34315 3 1 4.34315 1 6V17C1 19.2091 2.79086 21 5 21H19C21.2091 21 23 19.2091 23 17V16V12V11C23 9.13616 21.7252 7.57006 20 7.12602V7C20 4.79086 18.2091 3 16 3H4ZM3 17V8.82929C3.31278 8.93985 3.64936 9 4 9H19C20.1046 9 21 9.89543 21 11V12H17C15.8954 12 15 12.8954 15 14C15 15.1046 15.8954 16 17 16H21V17C21 18.1046 20.1046 19 19 19H5C3.89543 19 3 18.1046 3 17ZM4 7H18C18 5.89543 17.1046 5 16 5H4C3.44772 5 3 5.44772 3 6C3 6.55228 3.44772 7 4 7ZM17.75 14C17.75 14.4142 17.4142 14.75 17 14.75C16.5858 14.75 16.25 14.4142 16.25 14C16.25 13.5858 16.5858 13.25 17 13.25C17.4142 13.25 17.75 13.5858 17.75 14Z" fill="black"/>
</svg>
